<?xml version="1.0" encoding="utf-8"?>
<!-- Generator: Adobe Illustrator 18.0.0, SVG Export Plug-In . SVG Version: 6.00 Build 0)  -->
<!DOCTYPE svg PUBLIC "-//W3C//DTD SVG 1.1//EN" "http://www.w3.org/Graphics/SVG/1.1/DTD/svg11.dtd">
<svg version="1.1" id="Lag_1" xmlns="http://www.w3.org/2000/svg" xmlns:xlink="http://www.w3.org/1999/xlink" x="0px" y="0px"
	 viewBox="0 0 800 800" enable-background="new 0 0 800 800" xml:space="preserve">
<path fill="#FFFFFF" d="M41,423c0.6-0.8,1.4-1.3,2.3-1.6c-0.8-1.7-0.7-3.9,0.6-5.5c1.8-2.4,5.2-2.9,7.6-1.1c2.3,1.7,2.9,4.9,1.3,7.3
	l8.1,6c-0.3,0.5-0.6,1.1-1,1.6c-1.1,1.4-2.6,2.4-4.1,2.8l-6.9-5.1c-0.1,0.4-0.3,0.8-0.6,1.1c-1.5,2-4.3,2.4-6.3,0.9
	C40,427.9,39.6,425,41,423"/>
<path fill="#FAB900" d="M55.6,432.7c1.3-0.7,2.5-1.7,3.5-2.9c0.5-0.7,1-1.3,1.3-2.1c5.4-0.4,14.2,2.8,20.6,5.3
	c8.8,3.2,11.6,12.3,6,19.6c-6.1,6.8-15.5,6.7-20.4,0c-4.1-5.4-10.4-14-10.9-19.7L55.6,432.7z"/>
<path fill="#DEDAC7" d="M51.5,414.8c2.3,1.7,2.9,4.9,1.3,7.3l7.6,5.6c-0.4,0.7-0.8,1.4-1.3,2c-0.1,0.1-0.2,0.3-0.4,0.4l-15.9-11.3
	c0.1-1,0.4-2,1-2.9C45.6,413.5,49,413,51.5,414.8"/>
<path fill="#F29A00" d="M60.4,427.7C60.4,427.7,60.4,427.7,60.4,427.7c5.4-0.4,14.2,2.8,20.6,5.2c8.2,3,11.2,11.1,7.1,18l-29.4-20.8
	c0.1-0.1,0.2-0.3,0.4-0.4C59.6,429.1,60.1,428.4,60.4,427.7"/>
<path fill="#F5F3E1" d="M603.4,234.3c4.2-3.8,7.4-3.6,10,0v213.1c-0.2,1.2-0.4,2.4-0.6,3.6c0.2,5.9,0.4,11.9,0.6,17.9V602
	c-2.3,2.3-5.4,3.9-9,3.9c-7.9,0-13.7-7.9-13.4-13.8c1.7-47.3,3.4-94.6,5.1-141.9c-4.2-12.1-9.1-4-11.7-26.3
	c-4.1-35.4-2.7-86.5-3.7-113.1C579.8,260.8,593,243.8,603.4,234.3"/>
<path fill="#48172E" d="M604.4,609.2c4.4,0,8.6-1.9,11.8-5.3c3.3-3.4,5.1-7.9,4.9-11.9l-4.8-133.3h-24L587.6,592
	c-0.2,4,1.6,8.5,4.9,11.9C595.8,607.4,600,609.2,604.4,609.2L604.4,609.2z"/>
<path fill="#F5F3E1" d="M197.2,334.3L197.2,334.3c0-0.1,0-0.2,0-0.4v-0.2h0c-3.7-37.4-7.4-91.8-9.5-91.8c-2.1,0-0.6,54.4-0.6,91.8
	h-6.2c-2.5-37.4-4.4-91.8-6.5-91.8c-2.1,0-2.3,54.4-3.6,91.8h-6.2c-1.3-37.4-1.5-91.8-3.6-91.8c-2.2,0-4.1,54.4-6.6,91.8h-6.2
	c-0.1-37.4,1.5-91.8-0.6-91.8c-2.2,0-5.9,54.4-9.6,91.8h0v0c0,0.1,0,0.3,0,0.5h0.1c0.2,19.5,8.8,36.5,24,40.6
	c-2.6,72.4-5.2,144.9-7.8,217.3c-0.3,5.9,5.5,13.8,13.5,13.8c7.9,0,13.7-7.9,13.4-13.8c-2.6-72.4-5.2-144.9-7.8-217.3
	C188.5,370.8,197.1,353.8,197.2,334.3"/>
<path fill="#48172E" d="M167.6,609.2c-4.4,0-8.6-1.9-11.9-5.3c-3.3-3.4-5.1-7.9-4.9-11.9l6.2-174.3h21l6.2,174.4
	c0.2,4-1.6,8.5-4.9,11.9C176.2,607.4,172,609.2,167.6,609.2L167.6,609.2z"/>
<path fill="#FFFFFF" d="M33.2,461.6c0.1-1.4,0.6-2.7,1.4-3.7c-2.4-1.4-3.9-4.1-3.7-7.1c0.2-4.3,3.9-7.6,8.2-7.4
	c4.1,0.2,7.3,3.6,7.4,7.7l14.4,0.8c0.1,0.9,0.1,1.8,0,2.7c-0.3,2.6-1.2,4.9-2.6,6.5L46,460.4c0.1,0.6,0.2,1.2,0.2,1.8
	c-0.2,3.6-3.2,6.3-6.8,6.1C35.8,468.2,33,465.1,33.2,461.6"/>
<path fill="#FAB900" d="M58.2,461.6c1-1.8,1.7-4,1.9-6.3c0.1-1.2,0.1-2.4,0-3.5c6.2-4.8,19.2-7.9,28.8-10
	c13.1-3.2,23.7,5.6,22.7,18.6c-2,12.9-13.2,20.3-24.4,16.1c-9.2-3.2-23.5-8.5-28.7-14.9L58.2,461.6z"/>
<path fill="#DEDAC7" d="M39.1,443.4c4.1,0.2,7.3,3.6,7.4,7.7l13.6,0.7c0.1,1.1,0.1,2.3,0,3.5c0,0.3-0.1,0.5-0.1,0.7l-28-0.9
	c-0.8-1.3-1.2-2.8-1.1-4.3C31.2,446.5,34.8,443.2,39.1,443.4"/>
<path fill="#F29A00" d="M60.1,451.8C60.1,451.8,60.1,451.8,60.1,451.8c6.2-4.8,19.2-7.9,28.8-10c12.2-2.9,22.1,4.4,22.7,15.9L60,456
	c0-0.3,0.1-0.5,0.1-0.7C60.2,454.1,60.2,452.9,60.1,451.8"/>
<path fill="#DEDAC7" d="M277.6,152.4c2,0.1,3.4,3.7,3.1,8c-0.3,4.3-2.1,7.7-4.1,7.6c-2-0.1-3.4-3.7-3.1-8
	C273.8,155.7,275.6,152.3,277.6,152.4"/>
<path fill="#F5F3E1" d="M270.7,157.1c-1,1.6-1.1,3.6-0.3,5.3c0.9,1.8,2.3,2.4,2.4,1.9c0.4-0.7,1-1.1,1.8-1.4
	c2.9,0.2,5.7,0.8,8.5,1.6c1.4,0.5,3.5-0.1,4-1.6c0.5-1.4,0.6-2.9,0.3-4.3c-0.4-1.5-2.4-2.4-3.8-2.1c-2.9,0.5-5.8,0.7-8.7,0.6
	c-0.7-0.3-1.3-0.9-1.6-1.6C273.2,155.1,271.8,155.5,270.7,157.1"/>
<path fill="#F5F3E1" d="M267.5,157.4c0,0.2-0.3,4.1-0.3,4.3c-0.3,5.5,3,10.1,7.4,10.4c3.2,0.2,6.8-2.4,7.2-5.9
	c0.2-1.2-1.3-2-2.3-1.4c-0.4,0.2-0.6,1.5-0.9,1.9c-0.5,0.5-1.2,0.7-1.8,0.5c-1.8-0.8-1.8-2.9-1.8-4.7l0.3-4.9
	c0.2-1.8,0.4-3.9,2.3-4.5c0.6-0.2,1.2,0.1,1.7,0.7c0.3,0.4,0.3,1.7,0.7,2c0.9,0.7,2.5,0.1,2.5-1.1c0-3.5-3.3-6.5-6.4-6.7
	C271.7,147.8,267.8,152,267.5,157.4"/>
<polygon fill="#DEDAC7" points="272.4,217.3 269.8,219.6 273.2,220.3 269.9,221.2 272.6,223.4 269.2,222.7 270.8,225.8 268,223.8 
	268.1,227.3 266.4,224.2 265,227.4 264.8,223.9 262.1,226.1 263.5,222.9 260.1,223.8 262.7,221.5 259.3,220.8 262.7,219.9 
	259.9,217.8 263.3,218.4 261.7,215.3 264.6,217.3 264.5,213.8 266.1,216.9 267.6,213.7 267.7,217.2 270.4,215 269,218.2 "/>
<g>
	<path fill="#70841F" d="M243.5,174.4c9.2,17.5,16.1,32,15.4,32.4c-0.7,0.4-8.7-13.5-18-31c-9.2-17.5-16.1-32-15.4-32.4
		C226.2,143,234.3,156.9,243.5,174.4"/>
	<path fill="#869B29" d="M243.2,177.8c9.3,16.1,16.3,29.6,15.6,30c-0.6,0.4-8.6-12.3-17.9-28.5c-9.3-16.1-16.3-29.6-15.6-30
		C225.9,148.9,234,161.6,243.2,177.8"/>
	<path fill="#869B29" d="M245.2,175.7c8.1,16.8,14.1,30.6,13.4,30.9c-0.7,0.3-7.8-13.1-15.9-29.9c-8.1-16.8-14.1-30.6-13.4-30.9
		C230,145.5,237.2,158.9,245.2,175.7"/>
	<path fill="#F5F3E1" d="M260.6,188.9c-5.3-0.9-10.1-4.1-12.8-9.1c-0.1,1.6,0,3.2,0.2,4.9c-2.2-2.1-4.7-3.7-7.3-4.9
		c0.6,0.8,1.2,1.7,1.7,2.7c2.7,5.2,2.6,11,0.4,15.9c-2.6,5-2.9,11.3,0,16.7c4.6,8.8,15.4,12.1,24.2,7.5c8.8-4.6,12.1-15.4,7.5-24.2
		C271.5,192.9,266.2,189.5,260.6,188.9"/>
	<path fill="#E2D5AA" d="M260.6,188.9c-5.3-0.9-10.1-4.1-12.8-9.1c-0.1,1.6,0,3.2,0.2,4.9c-0.3-0.3-0.6-0.5-0.9-0.8
		c2.8,3.5,6.8,5.7,11,6.4c5.7,0.7,10.9,4,13.7,9.4c4.4,8.3,1.5,18.5-6.3,23.5c0.4-0.2,0.9-0.4,1.3-0.6c8.8-4.6,12.1-15.4,7.5-24.2
		C271.5,192.9,266.2,189.5,260.6,188.9"/>
	<path fill="#6B1C26" d="M565.2,637.5c0,44.3-35.9,80.2-80.2,80.2c-44.3,0-80.2-35.9-80.2-80.2c0-44.3,35.9-80.2,80.2-80.2
		C529.3,557.3,565.2,593.2,565.2,637.5"/>
	<path fill="#4A141C" d="M565.2,637.2l-38.6-38.6l0,0c-0.4-0.5-0.9-0.8-1.6-1c-1.6-0.4-3.3,0.6-3.7,2.2c-0.2,0.7-0.1,1.4,0.2,2
		l-6.6-6.6c-0.4-0.6-1-1.2-1.7-1.8c-3.5-3-6-2.9-6-2.9s1.4,0.9-0.7,3.3c-1.1,1.3-1.8,4.8-0.1,7.2c1.7,2.4,2,3,2,3l-1.4-0.7
		c0,0,2.5,2.4,2.5,4.1l-5.8-5.8l-0.1,0.1c-0.4-0.4-1-0.6-1.6-0.3l-0.7,0.3c-3.6-5.2-10.4-7.3-16.4-4.8l-6.3,2.7c0,0,0,0,0-0.1h0
		c0-0.2-0.1-0.5-0.2-0.7c-0.7-1.6-2.5-2.3-4.1-1.6l-11.6,4.9c-1.6,0.7-2.3,2.5-1.6,4.1c0.1,0.2,0.2,0.5,0.4,0.7l-6.3,2.7
		c-6,2.6-9.2,9-8,15.2l-0.7,0.3c-0.4,0.2-0.7,0.6-0.8,1c0,0.1,0,0.3,0,0.4c0,0.1,0,0.3,0.1,0.4c0.2,0.5,0.6,0.7,1.1,0.8l6.5,6.5
		h-6.5c-0.8,0-1.4,0.6-1.4,1.4c0,0.5,0.3,0.9,0.6,1.1l1,1v5.1h-5c-1.6,0-2.9,1.3-2.9,2.9c0,0.9,0.4,1.7,1.1,2.3l0,0l6.8,6.8l0,14.3
		c0,2.2,1.1,4.1,2.8,5.2l43,43c40.6-4,72.4-38.2,72.4-79.8C565.2,637.4,565.2,637.3,565.2,637.2"/>
	<path fill="#6B1C26" d="M515.3,610.8c1.7-0.1,3.2,1.2,3.3,2.9c0.1,1.7-1.2,3.2-2.9,3.3c-1.7,0.1-3.2-1.2-3.3-2.9
		C512.3,612.4,513.6,610.9,515.3,610.8 M515.8,618.7c2.7-0.2,4.7-2.5,4.5-5.1c-0.2-2.7-2.5-4.7-5.1-4.5s-4.7,2.5-4.5,5.1
		C510.8,616.8,513.1,618.9,515.8,618.7"/>
	<path fill="#869B29" d="M520.1,626.6c-12.3-0.8-22.7,6.3-25.1,16.5c-0.3-0.6-0.7-1.3-1-1.9c2.8-9.7,12.9-16.3,24.8-15.5
		c6.3,0.4,11.9,2.8,16.3,6.5C530.9,629,525.7,627,520.1,626.6"/>
	<path fill="#869B29" d="M505.1,626.3c0,0,3.6-9.4,14.1-11.2l-1,1.4c0,0,10.5-4,18.6,8.1c5.7,8.6,5.1,14.1,5.1,14.1
		s-1.7-3.3-7.6,0.8c-3.2,2.2-11.1,2.7-16.1-1.6c-5-4.3-6.3-5.3-6.3-5.3l1.2,3.2c0,0-6.6-8.6-10.4-6.2c0,0,16.7-11.6,28.7-2.3
		C531.3,627.4,521.6,617.5,505.1,626.3"/>
	<path fill="#E95045" d="M503.1,604.1l-55.5,23.6c-0.7,0.3-1.5,0-1.9-0.8c-0.3-0.7,0-1.6,0.7-1.9l0.7-0.3c-1.3-6.2,1.9-12.6,8-15.2
		l6.3-2.7c-0.2-0.2-0.3-0.4-0.4-0.7c-0.7-1.6,0.1-3.4,1.6-4.1l11.6-4.9c1.6-0.7,3.4,0.1,4.1,1.6c0.1,0.2,0.2,0.5,0.2,0.8l6.3-2.7
		c6-2.6,12.9-0.4,16.4,4.8l0.7-0.3c0.7-0.3,1.6,0,1.9,0.8C504.2,603,503.8,603.8,503.1,604.1"/>
	<path fill="#D73534" d="M478.4,599c-0.7-1.6-2.5-2.3-4.1-1.6l-11.6,4.9c-1.6,0.7-2.3,2.5-1.6,4.1c0.1,0.2,0.2,0.4,0.4,0.6l17.1-7.3
		C478.5,599.4,478.5,599.2,478.4,599"/>
	<path fill="#D73534" d="M503.9,602.2c-0.3-0.7-1.1-1.1-1.9-0.8l-0.7,0.3c-3.6-5.2-10.4-7.3-16.4-4.8l-3.3,1.4
		c3.8,0.3,7.4,2.3,9.6,5.5l0.7-0.3c0.7-0.3,1.5,0,1.8,0.7c0.3,0.7,0,1.5-0.7,1.8l-47.2,20c-0.1,0.3-0.1,0.6,0.1,0.8
		c0.3,0.7,1.1,1.1,1.9,0.8l55.5-23.6C503.8,603.8,504.2,603,503.9,602.2"/>
	<path fill="#6B1C26" d="M499.8,613.3c2.1-0.1,3.9,1.4,4,3.5c0.1,2.1-1.4,3.9-3.5,4c-2.1,0.1-3.9-1.4-4-3.5
		C496.1,615.2,497.7,613.4,499.8,613.3 M500.4,623c3.3-0.2,5.7-3,5.5-6.3s-3-5.7-6.3-5.5c-3.3,0.2-5.7,3-5.5,6.3
		C494.3,620.7,497.1,623.2,500.4,623"/>
	<path fill="#6B1C26" d="M524.7,598.7c1,0.3,1.7,1.3,1.4,2.4c-0.3,1-1.3,1.7-2.4,1.4c-1-0.3-1.7-1.3-1.4-2.4
		C522.6,599.1,523.6,598.4,524.7,598.7 M523.5,603.6c1.6,0.4,3.3-0.6,3.7-2.2c0.4-1.6-0.6-3.3-2.2-3.7c-1.6-0.4-3.3,0.6-3.7,2.2
		C520.8,601.5,521.8,603.2,523.5,603.6"/>
	<path fill="#E95045" d="M442,642.9h5v-5.8l-0.2,0c-0.8,0-1.4-0.6-1.4-1.4c0-0.8,0.6-1.4,1.4-1.4h60.3c0.8,0,1.4,0.6,1.4,1.4
		c0,0.8-0.6,1.4-1.4,1.4h-0.2v5.8h5c1.6,0,2.9,1.3,2.9,2.9c0,1.6-1.3,2.9-2.9,2.9h-5l0,20.5c0,3.4-2.8,6.2-6.2,6.2h-47.5
		c-3.4,0-6.2-2.8-6.2-6.2l0-20.5l-5,0c-1.6,0-2.9-1.3-2.9-2.9C439.1,644.2,440.4,642.9,442,642.9"/>
	<path fill="#869B29" d="M492.5,629.1c0,0,1.6-8.5-5.3-14.5l0.1,1.5c0,0-5.9-7.7-17.2-2.4c-8.1,3.7-10,8-10,8s2.7-1.6,5.2,4
		c1.4,3.1,6.9,7,12.5,6.1c5.6-0.9,7-1.1,7-1.1l-2.3,1.8c0,0,8.7-3.3,10.3,0.2c0,0-7-16-19.9-14.6
		C472.9,618.2,484.3,615.3,492.5,629.1"/>
	<path fill="#869B29" d="M510.9,607.4c0,0,4.3-1.1,5.6-5.7l-0.7,0.4c0,0,2.3-4.4-2.7-8.6c-3.5-3-6-2.9-6-2.9s1.4,0.9-0.7,3.3
		c-1.1,1.3-1.8,4.8-0.1,7.2c1.7,2.4,2,3,2,3l-1.4-0.7c0,0,3.5,3.4,2.2,4.9c0,0,5.9-6.8,2.5-12.6
		C511.7,595.8,515.6,600.5,510.9,607.4"/>
	<path fill="#D73534" d="M511.9,642.9h-5v-5.8h0.2c0.8,0,1.4-0.6,1.4-1.4c0-0.8-0.6-1.4-1.4-1.4h-30.8v41.1h24.4
		c3.4,0,6.2-2.8,6.2-6.2l0-20.5h5c1.6,0,2.9-1.3,2.9-2.9C514.8,644.2,513.5,642.9,511.9,642.9"/>
	<path fill="#70841F" d="M492.8,632.7c0,0-7-16-19.9-14.6c0,0,7.3-1.8,14.4,4.5c-3.8-3.5-8.8-5.7-14.3-5.7c-4.8,0-9.2,1.7-12.8,4.4
		c-0.1,0.2-0.2,0.4-0.2,0.4s2.7-1.6,5.2,4c1.4,3.1,6.9,7,12.5,6.1c5.6-0.9,7-1.1,7-1.1l-2.3,1.8
		C482.4,632.6,491.2,629.3,492.8,632.7"/>
	<path fill="#70841F" d="M487.8,623.2c0.1,0.1,0.2,0.1,0.2,0.2C488,623.3,487.9,623.3,487.8,623.2"/>
	<path fill="#70841F" d="M541.8,638.9c0,0,0.2-1.3-0.4-3.7c-3.6-5.2-8.9-9.1-15-10.9c3.2,1.4,4.9,3.1,4.9,3.1
		c-12-9.3-28.7,2.3-28.7,2.3c3.7-2.5,10.4,6.2,10.4,6.2l-1.2-3.2c0,0,1.3,1,6.3,5.3c5,4.3,12.9,3.8,16.1,1.6
		C540,635.6,541.8,638.9,541.8,638.9"/>
	<path fill="#70841F" d="M199.5,108.4c-1.2,3.4-2.2,3.2-2-0.4c0.5-8.5,1.5-17,3-25.3c0.7-3.5,2.5-5.4,4-5.1c0.1,0,0.1,0,0.2,0
		c1.5,0.3,2.4,2.7,1.7,6.2C204.6,92.2,202.3,100.4,199.5,108.4"/>
	<path fill="#70841F" d="M197.4,77.1c-0.4,2-2.3,3.3-4.4,2.9c-2-0.4-3.3-2.3-2.9-4.4c0.4-2,2.3-3.3,4.4-2.9
		C196.5,73.2,197.8,75.1,197.4,77.1"/>
	<path fill="#70841F" d="M204.5,68.8c-0.4,2-2.3,3.3-4.4,2.9c-2-0.4-3.3-2.3-2.9-4.4c0.4-2,2.3-3.3,4.4-2.9
		C203.6,64.9,204.9,66.8,204.5,68.8"/>
	<path fill="#70841F" d="M214.3,73.5c-0.4,2-2.3,3.3-4.4,2.9c-2-0.4-3.3-2.3-2.9-4.4c0.4-2,2.3-3.3,4.3-2.9
		C213.4,69.5,214.7,71.5,214.3,73.5"/>
	<path fill="#70841F" d="M211.4,74.7c-0.6,2.8-3.3,4.6-6.1,4c-2.8-0.6-4.6-3.3-4.1-6.1c0.6-2.8,3.3-4.6,6.1-4.1
		C210.1,69.2,212,71.9,211.4,74.7"/>
	<path fill="#70841F" d="M204,82.1c-0.7,3.4-3.9,5.6-7.3,4.9c-3.4-0.7-5.6-3.9-4.9-7.3c0.7-3.4,3.9-5.6,7.3-4.9
		C202.5,75.4,204.7,78.7,204,82.1"/>
	<path fill="#70841F" d="M206.6,75.2c-0.7,3.4-3.9,5.6-7.3,4.9c-3.4-0.7-5.5-3.9-4.9-7.3c0.7-3.4,3.9-5.6,7.3-4.9
		C205.1,68.5,207.2,71.8,206.6,75.2"/>
	<path fill="#70841F" d="M212.8,81.8c-0.7,3.4-3.9,5.6-7.3,4.9c-3.4-0.7-5.6-3.9-4.9-7.3c0.7-3.4,3.9-5.6,7.3-4.9
		C211.3,75.2,213.5,78.4,212.8,81.8"/>
	<path fill="#869B29" d="M192.9,115.6c-0.5,3.6-1.5,3.6-2.1,0c-1.3-8.4-2.1-16.9-2.3-25.4c0-3.6,1.3-5.8,2.8-5.8c0.1,0,0.1,0,0.2,0
		c1.5,0,2.9,2.1,3,5.7C194.5,98.6,194,107.2,192.9,115.6"/>
	<path fill="#869B29" d="M184.6,84.1c0,2-1.6,3.7-3.7,3.8c-2,0-3.7-1.6-3.8-3.6c0-2,1.6-3.7,3.7-3.8C182.9,80.4,184.6,82,184.6,84.1
		"/>
	<path fill="#869B29" d="M192.7,75.9c0,2-1.6,3.7-3.7,3.8c-2,0-3.7-1.6-3.8-3.6c0-2,1.6-3.7,3.7-3.8C191,72.2,192.7,73.8,192.7,75.9
		"/>
	<path fill="#869B29" d="M200.1,78.3c0,2-1.6,3.7-3.6,3.8c-2,0-3.7-1.6-3.8-3.7c0-2,1.6-3.7,3.6-3.8
		C198.4,74.6,200.1,76.2,200.1,78.3"/>
	<path fill="#869B29" d="M197.5,80c0,2.8-2.2,5.2-5.1,5.2c-2.8,0-5.2-2.2-5.2-5.1c0-2.8,2.2-5.2,5.1-5.2
		C195.1,74.9,197.5,77.2,197.5,80"/>
	<path fill="#869B29" d="M191.8,88.8c0,3.4-2.7,6.3-6.1,6.3c-3.4,0-6.3-2.7-6.3-6.1c0-3.4,2.7-6.2,6.1-6.3
		C188.9,82.7,191.8,85.4,191.8,88.8"/>
	<path fill="#869B29" d="M192.9,81.6c0.1,3.4-2.7,6.3-6.1,6.3c-3.4,0.1-6.3-2.7-6.3-6.1c0-3.4,2.7-6.2,6.1-6.3
		C190,75.4,192.8,78.1,192.9,81.6"/>
	<path fill="#869B29" d="M200.4,86.7c0,3.4-2.7,6.3-6.1,6.3c-3.4,0-6.3-2.7-6.3-6.1c0-3.4,2.7-6.2,6.1-6.3
		C197.5,80.6,200.3,83.3,200.4,86.7"/>
	<path fill="#869B29" d="M199,118.9c-0.9,3.5,0,3.9,1.9,0.8c4.4-7.2,8.4-14.8,11.9-22.6c1.4-3.3,1-5.8-0.4-6.4c-0.1,0-0.1,0-0.2-0.1
		c-1.4-0.6-3.5,0.8-4.9,4.1C204,102.6,201.3,110.8,199,118.9"/>
	<path fill="#869B29" d="M218.8,93c-0.8,1.9,0.1,4.1,1.9,4.9c1.9,0.8,4.1-0.1,4.9-1.9c0.8-1.9-0.1-4.1-1.9-4.9
		C221.7,90.3,219.6,91.1,218.8,93"/>
	<path fill="#869B29" d="M214.4,82.3c-0.8,1.9,0.1,4.1,1.9,4.9c1.9,0.8,4.1-0.1,4.9-1.9c0.8-1.9-0.1-4.1-1.9-4.9
		C217.4,79.6,215.2,80.5,214.4,82.3"/>
	<path fill="#869B29" d="M206.6,81.7c-0.8,1.9,0.1,4.1,1.9,4.9c1.9,0.8,4.1-0.1,4.9-1.9c0.8-1.9-0.1-4.1-1.9-4.9
		C209.6,79,207.5,79.9,206.6,81.7"/>
	<path fill="#869B29" d="M208.4,84.4c-1.1,2.6,0.1,5.6,2.7,6.8c2.6,1.1,5.6-0.1,6.8-2.7c1.1-2.6-0.1-5.6-2.7-6.8
		C212.5,80.5,209.5,81.7,208.4,84.4"/>
	<path fill="#869B29" d="M210.3,94.7c-1.4,3.2,0.1,6.8,3.2,8.2c3.2,1.4,6.8-0.1,8.2-3.3c1.4-3.2-0.1-6.8-3.3-8.2
		C215.3,90.1,211.6,91.5,210.3,94.7"/>
	<path fill="#869B29" d="M212.1,87.5c-1.4,3.2,0.1,6.8,3.2,8.2c3.2,1.4,6.8-0.1,8.2-3.3c1.4-3.2-0.1-6.8-3.2-8.2
		C217.1,82.9,213.4,84.4,212.1,87.5"/>
	<path fill="#869B29" d="M203.2,89.5c-1.4,3.2,0.1,6.8,3.3,8.2c3.2,1.4,6.8-0.1,8.2-3.2c1.4-3.2-0.1-6.8-3.2-8.2
		C208.2,84.8,204.5,86.3,203.2,89.5"/>
	<path fill="#FAB900" d="M186.6,180.7c-3.2,8.1-5.6,7.6-5.4-1.1l1.3-62.1c0.2-8.7,7.3-14.5,15.9-12.8l0.9,0.2
		c8.6,1.7,13,9.7,9.8,17.9L186.6,180.7z"/>
	<path fill="#F29A00" d="M199.4,105l-0.5-0.1l-16.2,81.6c1,0.2,2.4-1.7,4-5.8l22.5-57.9C212.3,114.7,207.9,106.7,199.4,105"/>
</g>
<g>
	<defs>
		<path id="SVGID_1_" d="M182.5,117.5l-1.3,62.1c-0.2,8.7,2.3,9.2,5.4,1.1l22.5-57.9c3.2-8.1-1.2-16.2-9.8-17.9l-0.9-0.2
			c-1-0.2-2-0.3-3-0.3C188.3,104.5,182.7,109.9,182.5,117.5"/>
	</defs>
	<clipPath id="SVGID_2_">
		<use xlink:href="#SVGID_1_"  overflow="visible"/>
	</clipPath>
	<path clip-path="url(#SVGID_2_)" fill="#F29A00" d="M229.6,181c4.1,0.6,4.2,0.3,0.2-0.8l-28.5-7.2c-4-1-7.5-0.9-7.7,0.3l0,0.1
		c-0.2,1.2,2.9,2.7,7,3.3L229.6,181z"/>
	<path clip-path="url(#SVGID_2_)" fill="#F29A00" d="M226.9,185.9c4.1,0.6,4.2,0.3,0.2-0.8l-28.5-7.2c-4-1-7.5-0.9-7.7,0.3l0,0.1
		c-0.2,1.2,2.9,2.7,7,3.3L226.9,185.9z"/>
	<path clip-path="url(#SVGID_2_)" fill="#F29A00" d="M225,201.5c4.1,0.6,4.2,0.3,0.2-0.8l-28.5-7.2c-4-1-7.5-0.9-7.7,0.3l0,0.1
		c-0.2,1.2,2.9,2.7,7,3.3L225,201.5z"/>
	<path clip-path="url(#SVGID_2_)" fill="#F29A00" d="M223.9,191.4c-0.4-0.1-0.4-0.2,0-0.2l2.8,0.2c0.4,0,0.7,0.3,0.6,0.6l0,0
		c-0.1,0.3-0.4,0.4-0.8,0.3L223.9,191.4z"/>
	<path clip-path="url(#SVGID_2_)" fill="#F29A00" d="M224.2,196.7c-0.4-0.1-0.4-0.2,0-0.2l2.8,0.2c0.4,0,0.7,0.3,0.6,0.6l0,0
		c-0.1,0.3-0.4,0.4-0.8,0.3L224.2,196.7z"/>
</g>
<g>
	<path fill="#70841F" d="M162.7,138.8c1.7,3.2,0.8,3.8-1.7,1.2c-5.9-6.1-11.5-12.6-16.5-19.4c-2.1-2.9-2.3-5.5-1-6.3
		c0,0,0.1-0.1,0.1-0.1c1.2-0.9,3.6,0,5.7,2.9C154.3,124,158.8,131.3,162.7,138.8"/>
	<path fill="#70841F" d="M138.3,119c1.2,1.7,0.8,4-0.8,5.2c-1.7,1.2-4,0.8-5.2-0.8c-1.2-1.7-0.8-4,0.8-5.2
		C134.8,117,137.1,117.4,138.3,119"/>
	<path fill="#70841F" d="M137,108.2c1.2,1.7,0.8,4-0.8,5.2c-1.7,1.2-4,0.8-5.2-0.8c-1.2-1.7-0.8-4,0.8-5.2
		C133.5,106.2,135.8,106.6,137,108.2"/>
	<path fill="#70841F" d="M147.1,104.1c1.2,1.7,0.8,4-0.8,5.2c-1.7,1.2-4,0.8-5.2-0.8c-1.2-1.7-0.8-4,0.8-5.2
		C143.6,102.1,145.9,102.5,147.1,104.1"/>
	<path fill="#70841F" d="M146,107.1c1.7,2.3,1.2,5.5-1.1,7.2c-2.3,1.7-5.5,1.2-7.2-1.1c-1.7-2.3-1.2-5.5,1.1-7.2
		C141.1,104.3,144.3,104.8,146,107.1"/>
	<path fill="#70841F" d="M146.4,117.6c2,2.8,1.4,6.7-1.4,8.7c-2.8,2-6.7,1.4-8.7-1.4c-2-2.8-1.4-6.7,1.4-8.7
		C140.5,114.2,144.4,114.8,146.4,117.6"/>
	<path fill="#70841F" d="M143.1,111c2,2.8,1.4,6.7-1.4,8.7c-2.8,2-6.7,1.4-8.7-1.4c-2-2.8-1.4-6.7,1.4-8.7
		C137.2,107.6,141.1,108.2,143.1,111"/>
	<path fill="#70841F" d="M152.2,110.9c2,2.8,1.4,6.7-1.4,8.7c-2.8,2-6.7,1.4-8.7-1.4c-2-2.8-1.4-6.7,1.4-8.7
		C146.3,107.5,150.2,108.1,152.2,110.9"/>
	<path fill="#869B29" d="M163.5,148.4c2.3,2.7,1.6,3.5-1.4,1.5c-7-4.7-13.8-10-20.2-15.5c-2.7-2.4-3.4-4.9-2.3-6
		c0,0,0.1-0.1,0.1-0.1c1-1.1,3.5-0.7,6.2,1.7C152.1,135.7,158.1,141.9,163.5,148.4"/>
	<path fill="#869B29" d="M134.7,133.2c1.5,1.4,1.6,3.7,0.3,5.2c-1.4,1.5-3.7,1.6-5.2,0.3c-1.5-1.4-1.6-3.7-0.3-5.2
		C130.9,131.9,133.2,131.8,134.7,133.2"/>
	<path fill="#869B29" d="M134.2,121.6c1.5,1.4,1.6,3.7,0.3,5.2c-1.4,1.5-3.7,1.6-5.2,0.3c-1.5-1.4-1.6-3.7-0.3-5.2
		C130.4,120.4,132.7,120.3,134.2,121.6"/>
	<path fill="#869B29" d="M141,117.8c1.5,1.4,1.6,3.7,0.3,5.2c-1.4,1.5-3.7,1.6-5.2,0.3c-1.5-1.4-1.6-3.7-0.3-5.2
		C137.2,116.6,139.5,116.5,141,117.8"/>
	<path fill="#869B29" d="M140.5,121c2.1,1.9,2.3,5.2,0.4,7.3c-1.9,2.1-5.2,2.3-7.3,0.4c-2.1-1.9-2.3-5.2-0.4-7.3
		C135.2,119.2,138.4,119.1,140.5,121"/>
	<path fill="#869B29" d="M143.1,131.1c2.5,2.3,2.8,6.2,0.5,8.8c-2.3,2.6-6.2,2.8-8.8,0.5c-2.6-2.3-2.8-6.2-0.5-8.8
		C136.6,129,140.6,128.8,143.1,131.1"/>
	<path fill="#869B29" d="M138.5,125.4c2.6,2.3,2.8,6.2,0.5,8.8c-2.3,2.6-6.2,2.8-8.8,0.5c-2.6-2.3-2.8-6.2-0.5-8.8
		C132,123.3,136,123.1,138.5,125.4"/>
	<path fill="#869B29" d="M147.4,123.4c2.5,2.3,2.8,6.2,0.5,8.8c-2.3,2.6-6.2,2.8-8.8,0.5c-2.6-2.3-2.8-6.2-0.5-8.8
		C140.9,121.3,144.8,121.1,147.4,123.4"/>
	<path fill="#869B29" d="M170.1,146.2c1.9,3,2.9,2.6,1.9-0.8c-2.3-8.2-5.2-16.2-8.5-24c-1.5-3.3-3.6-4.7-5-4.1c0,0-0.1,0-0.2,0.1
		c-1.4,0.6-1.8,3.1-0.3,6.4C161.6,131.5,165.6,139.1,170.1,146.2"/>
	<path fill="#869B29" d="M164.5,114.2c0.8,1.9,3,2.7,4.9,1.9c1.9-0.8,2.7-3,1.9-4.9c-0.8-1.9-3-2.7-4.9-1.9
		C164.5,110.1,163.7,112.3,164.5,114.2"/>
	<path fill="#869B29" d="M153.7,110.1c0.8,1.9,3,2.7,4.9,1.9s2.7-3,1.9-4.9c-0.8-1.9-3-2.7-4.9-1.9
		C153.7,106.1,152.9,108.3,153.7,110.1"/>
	<path fill="#869B29" d="M148,115.4c0.8,1.9,3,2.7,4.9,1.9c1.9-0.8,2.7-3,1.9-4.9c-0.8-1.9-3-2.7-4.9-1.9
		C148,111.3,147.2,113.5,148,115.4"/>
	<path fill="#869B29" d="M151.1,115.9c1.2,2.6,4.2,3.8,6.8,2.6c2.6-1.2,3.8-4.2,2.6-6.8c-1.2-2.6-4.2-3.8-6.8-2.6
		C151.1,110.2,149.9,113.3,151.1,115.9"/>
	<path fill="#869B29" d="M160,121.5c1.4,3.1,5.1,4.6,8.2,3.2c3.1-1.4,4.5-5.1,3.2-8.2c-1.4-3.1-5.1-4.5-8.2-3.2
		C160,114.7,158.6,118.4,160,121.5"/>
	<path fill="#869B29" d="M155.9,115.3c1.4,3.1,5.1,4.6,8.2,3.2c3.1-1.4,4.5-5.1,3.2-8.2c-1.4-3.1-5.1-4.6-8.2-3.2
		C155.9,108.5,154.5,112.2,155.9,115.3"/>
	<path fill="#869B29" d="M151.3,123.2c1.4,3.1,5.1,4.6,8.2,3.2c3.1-1.4,4.5-5.1,3.2-8.2c-1.4-3.1-5.1-4.5-8.2-3.2
		C151.3,116.4,149.9,120,151.3,123.2"/>
	<path fill="#FAB900" d="M207.1,197.3c3.8,7.8,1.8,9.3-4.5,3.2l-44.7-43.1c-6.3-6.1-5.6-15.2,1.4-20.3l0.8-0.5
		c7.1-5.1,16-2.9,19.8,4.9L207.1,197.3z"/>
	<path fill="#F29A00" d="M160.1,136.5l-0.4,0.3l48.9,67.3c0.8-0.6,0.4-2.9-1.5-6.8l-27.2-55.8C176,133.6,167.1,131.4,160.1,136.5"/>
</g>
<g>
	<defs>
		<path id="SVGID_3_" d="M160.1,136.5l-0.8,0.5c-7.1,5.1-7.7,14.3-1.4,20.3l44.7,43.1c6.3,6.1,8.3,4.6,4.5-3.2l-27.2-55.8
			c-2.4-5-6.9-7.7-11.7-7.7C165.5,133.7,162.7,134.6,160.1,136.5"/>
	</defs>
	<clipPath id="SVGID_4_">
		<use xlink:href="#SVGID_3_"  overflow="visible"/>
	</clipPath>
	<path clip-path="url(#SVGID_4_)" fill="#FAB900" d="M224.9,186.8c-3.5,2.3-3.7,2-0.5-0.6l22.9-18.5c3.2-2.6,6.4-3.9,7.1-2.9
		l0.1,0.1c0.7,1-1.5,3.6-5,5.9L224.9,186.8z"/>
	<path clip-path="url(#SVGID_4_)" fill="#F29A00" d="M221.7,195.9c3.2-2.6,3-2.9-0.5-0.6l-24.6,16c-3.5,2.3-5.7,4.9-5,5.9l0.1,0.1
		c0.7,1,3.9-0.3,7.1-2.9L221.7,195.9z"/>
	<path clip-path="url(#SVGID_4_)" fill="#F29A00" d="M223.5,201.2c3.2-2.6,3-2.9-0.5-0.6l-24.7,16c-3.5,2.3-5.7,4.9-5,5.9l0.1,0.1
		c0.7,1,3.9-0.3,7.1-2.9L223.5,201.2z"/>
	<path clip-path="url(#SVGID_4_)" fill="#F29A00" d="M222.9,190.4c0.3-0.3,0.2-0.3-0.1-0.1l-2.5,1.4c-0.3,0.2-0.5,0.5-0.3,0.8l0,0
		c0.2,0.2,0.5,0.2,0.8-0.1L222.9,190.4z"/>
	<path clip-path="url(#SVGID_4_)" fill="#F29A00" d="M218.1,193.9c-0.3,0.2-0.4,0.1-0.1-0.1l2.1-1.9c0.3-0.3,0.7-0.3,0.8-0.1l0,0
		c0.2,0.2,0,0.6-0.3,0.8L218.1,193.9z"/>
	<path clip-path="url(#SVGID_4_)" fill="#F29A00" d="M224.3,196.9c-0.3,0.2-0.4,0.1-0.1-0.1l2.1-1.9c0.3-0.3,0.7-0.3,0.8-0.1l0,0
		c0.2,0.2,0,0.6-0.3,0.8L224.3,196.9z"/>
	<path clip-path="url(#SVGID_4_)" fill="#FAB900" d="M224.9,196.5c-0.3,0.2-0.4,0.1-0.1-0.1l1.8-1.7c0.3-0.2,0.6-0.3,0.8,0l0,0
		c0.2,0.2,0.1,0.6-0.3,0.7L224.9,196.5z"/>
	<path clip-path="url(#SVGID_4_)" fill="#FAB900" d="M222.8,190.3l-1.6,0.9l0.4,0.5l1.4-1.3C223.2,190.1,223.1,190.1,222.8,190.3"/>
</g>
<g>
	<path fill="#FFF3D7" d="M223,598.6c0-35.5,28.8-64.4,64.4-64.4c35.5,0,64.4,28.8,64.4,64.4s-28.8,64.4-64.4,64.4
		C251.8,662.9,223,634.1,223,598.6"/>
	<path fill="#F0E1C0" d="M350,613.3l-34.4-34.4l-9.6-1.2c-12,0.3-13.7,0.8-26.2-2.2c-0.2,0-13.5,6-13.6,6l-7.7,27.1l-6,1.4l4.3,4.6
		l-0.5,1.9l1,2.5l42.6,42.8C324.6,656.8,344.2,637.8,350,613.3"/>
	<path fill="#F16B54" d="M322.8,604.9c0-1.8-1.5-3.3-3.3-3.3H256c-1.8,0-3.3,1.5-3.3,3.3c0,1.8,1.5,3.3,3.3,3.3h63.5
		C321.3,608.2,322.8,606.7,322.8,604.9"/>
	<path fill="#D85C45" d="M252.8,605.3h69.9c-0.2,1.6-1.5,2.9-3.2,2.9H256C254.3,608.2,253,606.9,252.8,605.3"/>
	<path fill="none" stroke="#869B29" stroke-width="4.4744" stroke-linecap="round" stroke-linejoin="round" d="M254.1,608.7
		c3.3,0,3.3-1,6.6-1c3.3,0,3.3,1,6.6,1c3.3,0,3.3-1,6.6-1c3.3,0,3.3,1,6.6,1c3.3,0,3.3-1,6.6-1c3.3,0,3.3,1,6.6,1c0,0,3.3-1,6.6-1
		c3.3,0,3.3,1,6.6,1c3.3,0,3.3-1,6.6-1c3.3,0,3.3,1,6.6,1"/>
	<path fill="none" stroke="#70841F" stroke-width="3.0259" stroke-linecap="round" stroke-linejoin="round" d="M320.1,609.8
		c-3.2,0-3.2-0.1-6.5-0.1s-3.2,0.1-6.5,0.1c-3.2,0-3.2-0.1-6.5-0.1c-3.2,0-3.2,0.1-6.5,0.1c-3.2,0-3.2-0.1-6.5-0.1
		c-3.2,0-3.2,0.1-6.5,0.1c0,0-3.2-0.1-6.5-0.1c-3.2,0-3.2,0.1-6.5,0.1c-3.2,0-3.2-0.1-6.5-0.1c-3.2,0-3.2,0.1-6.5,0.1"/>
	<path fill="#FABC50" d="M320.7,612.9c-0.3-1.8-1.8-3.1-3.6-3.1h-28.7c-0.1,0-0.2,0-0.2,0c-0.1,0-0.2,0-0.2,0h-28.7
		c-1.8,0-3.3,1.4-3.6,3.1h-0.1v0.5v0.9v0.2c0,3.6,3,6.6,6.6,6.6h52c3.6,0,6.6-3,6.6-6.6v-0.2v-0.9L320.7,612.9L320.7,612.9z"/>
	<path fill="#E2980F" d="M319.4,618.5c-0.6-0.1-1.4-0.2-2.3-0.2h-28.7c-0.1,0-0.2,0-0.2,0c-0.1,0-0.2,0-0.2,0h-28.7
		c-0.9,0-1.7,0.1-2.3,0.2c1.2,1.6,3.1,2.7,5.3,2.7h52C316.3,621.1,318.2,620.1,319.4,618.5"/>
	<path fill="#FFCC0C" d="M317.4,599.4c1.2,0.2,1.5,0.7,0.6,0.9l-18.4,6.1c-0.9,0.3-2.5,0.3-3.7,0.1l-24.1-4.7
		c-1.2-0.2-1.5-0.7-0.6-0.9l18.4-6.1c0.9-0.3,2.5-0.3,3.7-0.1L317.4,599.4z"/>
	<path fill="#F16B54" d="M322.8,597.7c0,1.8-1.5,3.3-3.3,3.3H256c-1.8,0-3.3-1.5-3.3-3.3c0-1.8,1.5-3.3,3.3-3.3h63.5
		C321.3,594.4,322.8,595.9,322.8,597.7"/>
	<path fill="#D85C45" d="M252.8,597.3h69.9c-0.2-1.6-1.5-2.9-3.2-2.9H256C254.3,594.4,253,595.7,252.8,597.3"/>
	<path fill="none" stroke="#869B29" stroke-width="4.4744" stroke-linecap="round" stroke-linejoin="round" d="M254.1,593.9
		c3.3,0,3.3,1,6.6,1c3.3,0,3.3-1,6.6-1c3.3,0,3.3,1,6.6,1c3.3,0,3.3-1,6.6-1c3.3,0,3.3,1,6.6,1c3.3,0,3.3-1,6.6-1c0,0,3.3,1,6.6,1
		c3.3,0,3.3-1,6.6-1c3.3,0,3.3,1,6.6,1c3.3,0,3.3-1,6.6-1"/>
	<path fill="none" stroke="#70841F" stroke-width="3.0259" stroke-linecap="round" stroke-linejoin="round" d="M320.1,592.8
		c-3.2,0-3.2,0.1-6.5,0.1s-3.2-0.1-6.5-0.1c-3.2,0-3.2,0.1-6.5,0.1c-3.2,0-3.2-0.1-6.5-0.1c-3.2,0-3.2,0.1-6.5,0.1
		c-3.2,0-3.2-0.1-6.5-0.1c0,0-3.2,0.1-6.5,0.1c-3.2,0-3.2-0.1-6.5-0.1c-3.2,0-3.2,0.1-6.5,0.1c-3.2,0-3.2-0.1-6.5-0.1"/>
	<path fill="#FABC50" d="M255.6,588.2v2.4c0,1.2,3,2.1,6.6,2.1h52c3.6,0,6.6-0.9,6.6-2.1v-2.4H255.6z"/>
	<path fill="#FABC50" d="M256.6,589.1h64.2c0-0.3-0.1-0.5-0.1-0.8c-0.6-3.4-3.4-8.6-6.7-10.9c-15.8-9.9-35.9-9.9-51.6,0
		c-3.3,2.3-6.1,7.4-6.7,10.9c0,0.3-0.1,0.6-0.1,0.9C255.9,589.1,256.2,589.1,256.6,589.1"/>
	<path fill="#FFCC0C" d="M320,601c0,0.3-0.3,0.6-0.6,0.6H256c-0.3,0-0.6-0.3-0.6-0.6c0-0.3,0.3-0.6,0.6-0.6h63.4
		C319.8,600.5,320,600.7,320,601"/>
	<path fill="#F1EFDA" d="M274.5,574.5c0.5,0.3,1,0.4,1.7,0.4s1.2-0.2,1.7-0.4c-0.5-0.3-1-0.4-1.7-0.4S275,574.3,274.5,574.5"/>
	<path fill="#F1EFDA" d="M282.7,572.7c0.2,0.3,0.5,0.6,1,0.7c0.4,0.1,0.8,0.1,1.2,0c-0.2-0.3-0.5-0.6-1-0.7
		C283.5,572.6,283.1,572.6,282.7,572.7"/>
	<path fill="#F1EFDA" d="M290.5,578.6c0.5,0.3,1,0.4,1.7,0.4c0.6,0,1.2-0.2,1.7-0.4c-0.5-0.3-1-0.4-1.7-0.4
		C291.5,578.2,290.9,578.3,290.5,578.6"/>
	<path fill="#F1EFDA" d="M285.3,581.9c-0.4-0.2-0.8-0.2-1.3-0.1c-0.4,0.1-0.8,0.4-1,0.8c0.4,0.2,0.8,0.2,1.3,0.1
		C284.7,582.6,285.1,582.3,285.3,581.9"/>
	<path fill="#F1EFDA" d="M291.2,573.2c-0.4,0-0.8,0.2-1.2,0.5c-0.3,0.3-0.5,0.7-0.5,1.1c0.4,0,0.8-0.2,1.2-0.5
		C291,574,291.2,573.6,291.2,573.2"/>
	<path fill="#F1EFDA" d="M309.6,582.4c-0.3-0.3-0.7-0.5-1.1-0.6c-0.4-0.1-0.9,0-1.2,0.3c0.3,0.3,0.7,0.5,1.1,0.6
		C308.8,582.7,309.3,582.6,309.6,582.4"/>
	<path fill="#F1EFDA" d="M270,581.3c0.3,0.2,0.6,0.3,1,0.3c0.4,0,0.7-0.1,1-0.3c-0.3-0.2-0.6-0.3-1-0.3
		C270.6,580.9,270.3,581.1,270,581.3"/>
	<path fill="#F1EFDA" d="M268.1,576.2c0.2,0.3,0.4,0.6,0.8,0.7c0.4,0.2,0.7,0.2,1.1,0.1c-0.2-0.3-0.4-0.6-0.8-0.7
		C268.8,576.2,268.5,576.1,268.1,576.2"/>
	<path fill="#F1EFDA" d="M276.4,577.6c0.3,0.1,0.7,0.1,1.1,0c0.4-0.1,0.7-0.3,0.9-0.6c-0.3-0.1-0.7-0.1-1.1,0
		C276.9,577.1,276.6,577.3,276.4,577.6"/>
	<path fill="#F1EFDA" d="M285.6,577.9c0.3,0.1,0.7,0.1,1.1,0c0.4-0.1,0.7-0.3,0.9-0.6c-0.3-0.1-0.7-0.1-1.1,0
		C286.1,577.4,285.8,577.6,285.6,577.9"/>
	<path fill="#F1EFDA" d="M304.8,575.4c0.2,0.2,0.6,0.4,1,0.5c0.4,0.1,0.7,0,1-0.2c-0.2-0.2-0.6-0.4-1-0.5
		C305.5,575.2,305.1,575.2,304.8,575.4"/>
	<path fill="#F1EFDA" d="M294.2,572.4c0.3,0.2,0.6,0.4,1,0.4c0.4,0,0.7-0.1,1-0.3c-0.3-0.2-0.6-0.4-1-0.4
		C294.9,572.1,294.5,572.2,294.2,572.4"/>
	<path fill="#F1EFDA" d="M296.6,584.4c0.3,0.1,0.7,0.1,1.1,0c0.4-0.1,0.7-0.3,0.9-0.6c-0.3-0.1-0.7-0.1-1.1,0
		C297.1,583.9,296.8,584.1,296.6,584.4"/>
	<path fill="#F1EFDA" d="M296.8,575.3c0.3,0.1,0.7,0.1,1.1,0c0.4-0.1,0.7-0.3,0.9-0.6c-0.3-0.1-0.7-0.1-1.1,0
		C297.3,574.8,297,575,296.8,575.3"/>
	<path fill="#F1EFDA" d="M274.2,585.2c0.3,0.1,0.7,0.1,1.1,0c0.4-0.1,0.7-0.3,0.9-0.6c-0.3-0.1-0.7-0.1-1.1,0
		C274.7,584.7,274.4,584.9,274.2,585.2"/>
	<path fill="#F1EFDA" d="M280.5,578.8c0.5,0.1,1.1,0.1,1.7-0.1c0.6-0.2,1.1-0.5,1.5-0.9c-0.5-0.1-1.1-0.1-1.7,0.1
		C281.4,578.1,280.9,578.4,280.5,578.8"/>
	<path fill="#F1EFDA" d="M289.2,582.4c0.2,0.3,0.5,0.6,0.9,0.7c0.4,0.1,0.8,0,1.1-0.2c-0.2-0.3-0.5-0.6-0.9-0.7
		C289.9,582.2,289.5,582.2,289.2,582.4"/>
	<path fill="#F1EFDA" d="M263.5,580c0.5,0.1,1.1,0.1,1.7-0.1c0.6-0.2,1.1-0.5,1.5-0.9c-0.5-0.1-1.1-0.1-1.7,0.1
		C264.3,579.3,263.8,579.6,263.5,580"/>
	<path fill="#F1EFDA" d="M300.8,579.2c0.5,0.3,1,0.4,1.7,0.4s1.2-0.2,1.7-0.4c-0.5-0.3-1-0.4-1.7-0.4S301.3,578.9,300.8,579.2"/>
	<path fill="#DAD8C6" d="M281,115c1.8,2.4-0.8,7.5-6,11.5c-5.2,4-10.8,5.3-12.7,3c-1.8-2.4,0.8-7.5,6-11.5
		C273.5,114,279.2,112.6,281,115"/>
	<path fill="#F1EFDA" d="M268.7,112c-2.8,0.5-5.1,2.3-6.3,4.9c-1.2,2.8-0.4,4.9,0.3,4.6c1.1-0.2,2.3,0.1,3.3,0.7
		c2.6,3.5,4.9,7.2,6.7,11.3c0.8,2.1,3.7,3.8,5.9,3c2.1-0.8,3.8-2.2,5.2-4c1.3-1.9,0.3-5.1-1.5-6.4c-3.5-2.8-6.6-5.9-9.3-9.3
		c-0.3-1.1-0.3-2.4,0.2-3.4C273.6,112.8,271.7,111.5,268.7,112"/>
	<path fill="#F1EFDA" d="M265.2,108.6c-0.3,0.2-4.9,3.8-5.2,4c-6.5,5.1-8.5,13.5-4.3,18.8c2.9,3.8,9.5,5.3,13.8,2.3
		c1.5-1,1-3.5-0.7-4c-0.7-0.2-2.3,0.9-3.1,0.9c-1.1,0-2-0.6-2.3-1.5c-0.9-2.9,1.4-5,3.6-6.7l5.9-4.6c2.2-1.6,4.8-3.4,7.4-1.8
		c0.8,0.5,1.1,1.5,0.9,2.6c-0.2,0.8-1.6,2.1-1.6,2.8c0.1,1.8,2.4,2.9,3.7,1.7c4-3.5,4.1-10.2,1.2-14
		C280.4,103.7,271.7,103.5,265.2,108.6"/>
	<path fill="#F5F3E1" d="M667.2,296.4c17.4,0,31.5-14.1,31.5-31.5c0-17.4-14.1-31.5-31.5-31.5s-31.5,14.1-31.5,31.5
		C635.7,282.3,649.8,296.4,667.2,296.4"/>
	<path fill="#DEDAC7" d="M689.7,286.9l-23.6-23.6l-13.5,14.5l18.3,18.3C678.2,295.3,684.7,291.9,689.7,286.9"/>
	<path fill="#DEDAC7" d="M698.4,268.9l-17-17l-10.8,14.8l19.6,19.6C694.5,281.7,697.5,275.6,698.4,268.9"/>
</g>
<polyline fill="#DEDAC7" points="677.8,248.8 684.4,255.4 681.7,259.3 672.4,256.9 "/>
<polyline fill="#DEDAC7" points="675,247.5 680.5,252.9 677,256.2 672.8,255 "/>
<polygon fill="#DEDAC7" points="661.3,262.7 667,268.3 661.2,271.3 659.2,265.3 "/>
<polygon fill="#DEDAC7" points="652.9,266.8 655.9,269.8 656.1,268.6 653.9,266.6 "/>
<path fill="#DEDAC7" d="M652,274.2l1.3,1.3c0,0,1.4-0.9,1.4-1.4c0-0.5-1.8-1.2-1.8-1.2L652,274.2z"/>
<path fill="#70841F" d="M657.3,270.7c-0.2,0-0.3-0.1-0.4-0.2c-1.7-3.1-3.7-3.5-3.8-3.5c-0.3,0-0.4-0.3-0.4-0.5
	c0-0.2,0.3-0.4,0.5-0.4c0.1,0,2.6,0.4,4.4,3.9c0.1,0.2,0,0.5-0.2,0.6C657.5,270.7,657.4,270.7,657.3,270.7"/>
<path fill="#70841F" d="M656,264.2c1.1,0.2,2.2,1.1,2.8,2.6c0.5,1.4,0.4,2.9-0.4,3.8c-1.1-0.2-2.2-1.1-2.8-2.6
	C655.1,266.6,655.3,265.1,656,264.2"/>
<path fill="#869B29" d="M656,264.2l2.4,6.3c-1.1-0.2-2.2-1.1-2.8-2.6C655.1,266.6,655.3,265.1,656,264.2"/>
<path fill="#70841F" d="M661.3,262.6c0.7,0.9,0.8,2.4,0.2,3.8c-0.6,1.4-1.8,2.3-2.9,2.4c-0.7-0.9-0.8-2.4-0.2-3.8
	C659.1,263.7,660.2,262.7,661.3,262.6"/>
<path fill="#869B29" d="M661.3,262.6l-2.7,6.2c-0.7-0.9-0.8-2.4-0.2-3.8C659.1,263.7,660.2,262.7,661.3,262.6"/>
<path fill="#869B29" d="M651.3,268.7c0.3,1.1,1.4,2.1,2.8,2.5c1.5,0.4,2.9,0.1,3.7-0.7c-0.3-1.1-1.4-2.1-2.8-2.5
	C653.5,267.5,652.1,267.9,651.3,268.7"/>
<path fill="#70841F" d="M651.3,268.7l6.6,1.8c-0.3-1.1-1.4-2.1-2.8-2.5C653.5,267.5,652.1,267.9,651.3,268.7"/>
<path fill="#70841F" d="M652,274.2c1.1,0.3,2.5-0.2,3.6-1.3c1-1.1,1.4-2.5,1.1-3.6c-1.1-0.3-2.5,0.2-3.6,1.3
	C652.1,271.7,651.7,273.1,652,274.2"/>
<path fill="#70841F" d="M652,274.2l4.7-4.9c-1.1-0.3-2.5,0.2-3.6,1.3C652.1,271.7,651.7,273.1,652,274.2"/>
<path fill="#D73534" d="M666.7,282.3c3.7,0.7,6.2-2.1,5.1-5.7c-1.2-4.1-2.7-8-4.2-11.5c-1.3-3-4.2-3-6.4-0.7
	c-2.6,2.8-5.1,5.7-7.7,8.5c-2.1,2.4-1.7,5.3,1.3,6.3C658.4,280.4,662.4,281.5,666.7,282.3"/>
<path fill="#E95045" d="M667.5,265.1c1.5,3.5,3,7.4,4.2,11.5c0.4,1.3,0.3,2.6-0.2,3.5c-0.8,0-1.6-0.1-2.4-0.6
	c-3.1-1.8-6.2-3.7-9.2-5.7c-2.6-1.7-4-3.8-3.4-4.5c1.5-1.7,3-3.3,4.5-5C663.3,262,666.2,262.1,667.5,265.1"/>
<path fill="#D73534" d="M665.1,264.7c0.1,0.1,0.2,0,0.4-0.1c0.1-0.1,0.1-0.3,0.1-0.4l-0.5-0.4c-0.1-0.1-0.2,0-0.4,0.1
	c-0.1,0.1-0.1,0.3-0.1,0.4L665.1,264.7z"/>
<path fill="#D73534" d="M662.9,267.2c0.1,0.1,0.2,0,0.4-0.1c0.1-0.1,0.1-0.3,0.1-0.4l-0.5-0.4c-0.1-0.1-0.2,0-0.4,0.1
	c-0.1,0.1-0.1,0.3-0.1,0.4L662.9,267.2z"/>
<path fill="#D73534" d="M660.6,269.6c0.1,0.1,0.2,0,0.4-0.1c0.1-0.1,0.1-0.3,0.1-0.4l-0.5-0.4c-0.1-0.1-0.2,0-0.4,0.1
	c-0.1,0.1-0.1,0.3-0.1,0.4L660.6,269.6z"/>
<path fill="#D73534" d="M658.4,272.1c0.1,0.1,0.2,0,0.4-0.1c0.1-0.1,0.1-0.3,0.1-0.4l-0.5-0.4c-0.1-0.1-0.2,0-0.4,0.1
	c-0.1,0.1-0.1,0.3-0.1,0.4L658.4,272.1z"/>
<path fill="#E95045" d="M656.2,274.5c0.1,0.1,0.2,0,0.4-0.1c0.1-0.1,0.1-0.3,0.1-0.4l-0.5-0.4c-0.1-0.1-0.2,0-0.4,0.1
	c-0.1,0.1-0.1,0.3-0.1,0.4L656.2,274.5z"/>
<path fill="#E95045" d="M654,277c0.1,0.1,0.2,0,0.4-0.1c0.1-0.1,0.1-0.3,0.1-0.4l-0.5-0.4c-0.1-0.1-0.2,0-0.4,0.1
	c-0.1,0.1-0.1,0.3-0.1,0.4L654,277z"/>
<path fill="#DAD8C6" d="M665.3,264.5c0.1,0.1,0.2,0,0.4-0.1c0.1-0.1,0.1-0.3,0.1-0.4l-0.5-0.4c-0.1-0.1-0.2,0-0.4,0.1
	c-0.1,0.1-0.1,0.3-0.1,0.4L665.3,264.5z"/>
<path fill="#DAD8C6" d="M663,266.9c0.1,0.1,0.2,0,0.4-0.1c0.1-0.1,0.1-0.3,0.1-0.4L663,266c-0.1-0.1-0.2,0-0.4,0.1
	c-0.1,0.1-0.1,0.3-0.1,0.4L663,266.9z"/>
<path fill="#DAD8C6" d="M660.8,269.4c0.1,0.1,0.2,0,0.4-0.1c0.1-0.1,0.1-0.3,0.1-0.4l-0.5-0.4c-0.1-0.1-0.2,0-0.4,0.1
	c-0.1,0.1-0.1,0.3-0.1,0.4L660.8,269.4z"/>
<path fill="#DAD8C6" d="M658.6,271.9c0.1,0.1,0.2,0,0.4-0.1c0.1-0.1,0.1-0.3,0.1-0.4l-0.5-0.4c-0.1-0.1-0.2,0-0.4,0.1
	c-0.1,0.1-0.1,0.3-0.1,0.4L658.6,271.9z"/>
<path fill="#DAD8C6" d="M656.4,274.3c0.1,0.1,0.2,0,0.4-0.1c0.1-0.1,0.1-0.3,0.1-0.4l-0.5-0.4c-0.1-0.1-0.2,0-0.4,0.1
	c-0.1,0.1-0.1,0.3-0.1,0.4L656.4,274.3z"/>
<path fill="#DAD8C6" d="M654.2,276.8c0.1,0.1,0.2,0,0.4-0.1c0.1-0.1,0.1-0.3,0.1-0.4l-0.5-0.4c-0.1-0.1-0.2,0-0.4,0.1
	c-0.1,0.1-0.1,0.3-0.1,0.4L654.2,276.8z"/>
<path fill="#D73534" d="M665.7,267.9c0.1,0.1,0.2,0,0.4-0.1c0.1-0.1,0.1-0.3,0.1-0.4l-0.5-0.4c-0.1-0.1-0.2,0-0.4,0.1
	c-0.1,0.1-0.1,0.3-0.1,0.4L665.7,267.9z"/>
<path fill="#D73534" d="M663.5,270.3c0.1,0.1,0.2,0,0.4-0.1c0.1-0.1,0.1-0.3,0.1-0.4l-0.5-0.4c-0.1-0.1-0.2,0-0.4,0.1
	c-0.1,0.1-0.1,0.3-0.1,0.4L663.5,270.3z"/>
<path fill="#D73534" d="M661.3,272.8c0.1,0.1,0.2,0,0.4-0.1c0.1-0.1,0.1-0.3,0.1-0.4l-0.5-0.4c-0.1-0.1-0.2,0-0.4,0.1
	c-0.1,0.1-0.1,0.3-0.1,0.4L661.3,272.8z"/>
<path fill="#E95045" d="M659.1,275.2c0.1,0.1,0.2,0,0.4-0.1c0.1-0.1,0.1-0.3,0.1-0.4l-0.5-0.4c-0.1-0.1-0.2,0-0.4,0.1
	c-0.1,0.1-0.1,0.3-0.1,0.4L659.1,275.2z"/>
<path fill="#E95045" d="M656.9,277.7c0.1,0.1,0.2,0,0.4-0.1c0.1-0.1,0.1-0.3,0.1-0.4l-0.5-0.4c-0.1-0.1-0.2,0-0.4,0.1
	c-0.1,0.1-0.1,0.3-0.1,0.4L656.9,277.7z"/>
<path fill="#DAD8C6" d="M665.9,267.7c0.1,0.1,0.2,0,0.4-0.1c0.1-0.1,0.1-0.3,0.1-0.4l-0.5-0.4c-0.1-0.1-0.2,0-0.4,0.1
	c-0.1,0.1-0.1,0.3-0.1,0.4L665.9,267.7z"/>
<path fill="#DAD8C6" d="M663.7,270.1c0.1,0.1,0.2,0,0.4-0.1c0.1-0.1,0.1-0.3,0.1-0.4l-0.5-0.4c-0.1-0.1-0.2,0-0.4,0.1
	c-0.1,0.1-0.1,0.3-0.1,0.4L663.7,270.1z"/>
<path fill="#DAD8C6" d="M661.5,272.6c0.1,0.1,0.2,0,0.4-0.1c0.1-0.1,0.1-0.3,0.1-0.4l-0.5-0.4c-0.1-0.1-0.2,0-0.4,0.1
	c-0.1,0.1-0.1,0.3-0.1,0.4L661.5,272.6z"/>
<path fill="#DAD8C6" d="M659.3,275c0.1,0.1,0.2,0,0.4-0.1c0.1-0.1,0.1-0.3,0.1-0.4l-0.5-0.4c-0.1-0.1-0.2,0-0.4,0.1
	c-0.1,0.1-0.1,0.3-0.1,0.4L659.3,275z"/>
<path fill="#DAD8C6" d="M657.1,277.5c0.1,0.1,0.2,0,0.4-0.1c0.1-0.1,0.1-0.3,0.1-0.4l-0.5-0.4c-0.1-0.1-0.2,0-0.4,0.1
	c-0.1,0.1-0.1,0.3-0.1,0.4L657.1,277.5z"/>
<path fill="#D73534" d="M666.4,271c0.1,0.1,0.2,0,0.4-0.1c0.1-0.1,0.1-0.3,0.1-0.4l-0.5-0.4c-0.1-0.1-0.2,0-0.4,0.1
	c-0.1,0.1-0.1,0.3-0.1,0.4L666.4,271z"/>
<path fill="#D73534" d="M664.2,273.5c0.1,0.1,0.2,0,0.4-0.1c0.1-0.1,0.1-0.3,0.1-0.4l-0.5-0.4c-0.1-0.1-0.2,0-0.4,0.1
	c-0.1,0.1-0.1,0.3-0.1,0.4L664.2,273.5z"/>
<path fill="#E95045" d="M662,275.9c0.1,0.1,0.2,0,0.4-0.1c0.1-0.1,0.1-0.3,0.1-0.4l-0.5-0.4c-0.1-0.1-0.2,0-0.4,0.1
	c-0.1,0.1-0.1,0.3-0.1,0.4L662,275.9z"/>
<path fill="#E95045" d="M659.8,278.4c0.1,0.1,0.2,0,0.4-0.1c0.1-0.1,0.1-0.3,0.1-0.4l-0.5-0.4c-0.1-0.1-0.2,0-0.4,0.1
	c-0.1,0.1-0.1,0.3-0.1,0.4L659.8,278.4z"/>
<path fill="#DAD8C6" d="M666.6,270.8c0.1,0.1,0.2,0,0.4-0.1c0.1-0.1,0.1-0.3,0.1-0.4l-0.5-0.4c-0.1-0.1-0.2,0-0.4,0.1
	c-0.1,0.1-0.1,0.3-0.1,0.4L666.6,270.8z"/>
<path fill="#DAD8C6" d="M664.4,273.3c0.1,0.1,0.2,0,0.4-0.1c0.1-0.1,0.1-0.3,0.1-0.4l-0.5-0.4c-0.1-0.1-0.2,0-0.4,0.1
	c-0.1,0.1-0.1,0.3-0.1,0.4L664.4,273.3z"/>
<path fill="#DAD8C6" d="M662.2,275.7c0.1,0.1,0.2,0,0.4-0.1c0.1-0.1,0.1-0.3,0.1-0.4l-0.5-0.4c-0.1-0.1-0.2,0-0.4,0.1
	c-0.1,0.1-0.1,0.3-0.1,0.4L662.2,275.7z"/>
<path fill="#DAD8C6" d="M659.9,278.2c0.1,0.1,0.2,0,0.4-0.1c0.1-0.1,0.1-0.3,0.1-0.4l-0.5-0.4c-0.1-0.1-0.2,0-0.4,0.1
	c-0.1,0.1-0.1,0.3-0.1,0.4L659.9,278.2z"/>
<path fill="#D73534" d="M667.1,274.2c0.1,0.1,0.2,0,0.4-0.1c0.1-0.1,0.1-0.3,0.1-0.4l-0.5-0.4c-0.1-0.1-0.2,0-0.4,0.1
	c-0.1,0.1-0.1,0.3-0.1,0.4L667.1,274.2z"/>
<path fill="#E95045" d="M664.9,276.6c0.1,0.1,0.2,0,0.4-0.1c0.1-0.1,0.1-0.3,0.1-0.4l-0.5-0.4c-0.1-0.1-0.2,0-0.4,0.1
	c-0.1,0.1-0.1,0.3-0.1,0.4L664.9,276.6z"/>
<path fill="#E95045" d="M662.7,279.1c0.1,0.1,0.2,0,0.4-0.1c0.1-0.1,0.1-0.3,0.1-0.4l-0.5-0.4c-0.1-0.1-0.2,0-0.4,0.1
	c-0.1,0.1-0.1,0.3-0.1,0.4L662.7,279.1z"/>
<path fill="#DAD8C6" d="M667.3,274c0.1,0.1,0.2,0,0.4-0.1c0.1-0.1,0.1-0.3,0.1-0.4l-0.5-0.4c-0.1-0.1-0.2,0-0.4,0.1
	c-0.1,0.1-0.1,0.3-0.1,0.4L667.3,274z"/>
<path fill="#DAD8C6" d="M665.1,276.4c0.1,0.1,0.2,0,0.4-0.1c0.1-0.1,0.1-0.3,0.1-0.4l-0.5-0.4c-0.1-0.1-0.2,0-0.4,0.1
	c-0.1,0.1-0.1,0.3-0.1,0.4L665.1,276.4z"/>
<path fill="#DAD8C6" d="M662.8,278.9c0.1,0.1,0.2,0,0.4-0.1c0.1-0.1,0.1-0.3,0.1-0.4l-0.5-0.4c-0.1-0.1-0.2,0-0.4,0.1
	c-0.1,0.1-0.1,0.3-0.1,0.4L662.8,278.9z"/>
<path fill="#D73534" d="M667.8,277.4c0.1,0.1,0.2,0,0.4-0.1c0.1-0.1,0.1-0.3,0.1-0.4l-0.5-0.4c-0.1-0.1-0.2,0-0.4,0.1
	c-0.1,0.1-0.1,0.3-0.1,0.4L667.8,277.4z"/>
<path fill="#E95045" d="M665.5,279.8c0.1,0.1,0.2,0,0.4-0.1c0.1-0.1,0.1-0.3,0.1-0.4l-0.5-0.4c-0.1-0.1-0.2,0-0.4,0.1
	c-0.1,0.1-0.1,0.3-0.1,0.4L665.5,279.8z"/>
<path fill="#DAD8C6" d="M667.9,277.1c0.1,0.1,0.2,0,0.4-0.1c0.1-0.1,0.1-0.3,0.1-0.4l-0.5-0.4c-0.1-0.1-0.2,0-0.4,0.1
	c-0.1,0.1-0.1,0.3-0.1,0.4L667.9,277.1z"/>
<path fill="#DAD8C6" d="M665.7,279.6c0.1,0.1,0.2,0,0.4-0.1c0.1-0.1,0.1-0.3,0.1-0.4l-0.5-0.4c-0.1-0.1-0.2,0-0.4,0.1
	c-0.1,0.1-0.1,0.3-0.1,0.4L665.7,279.6z"/>
<path fill="#E95045" d="M668.4,280.5c0.1,0.1,0.2,0,0.4-0.1c0.1-0.1,0.1-0.3,0.1-0.4l-0.5-0.4c-0.1-0.1-0.2,0-0.4,0.1
	c-0.1,0.1-0.1,0.3-0.1,0.4L668.4,280.5z"/>
<path fill="#DAD8C6" d="M668.6,280.3c0.1,0.1,0.2,0,0.4-0.1c0.1-0.1,0.1-0.3,0.1-0.4l-0.5-0.4c-0.1-0.1-0.2,0-0.4,0.1
	c-0.1,0.1-0.1,0.3-0.1,0.4L668.6,280.3z"/>
<path fill="#70841F" d="M673.5,252.7c-0.1-0.1-0.1-0.3,0-0.4c1.5-2.6,0.8-4.3,0.8-4.3c-0.1-0.2,0-0.4,0.2-0.5c0.2-0.1,0.4,0,0.5,0.2
	c0,0.1,0.9,2-0.9,5.1c-0.1,0.2-0.4,0.3-0.5,0.1C673.6,252.8,673.6,252.8,673.5,252.7"/>
<path fill="#70841F" d="M677.7,248.8c0.4,0.9,0.2,2.2-0.6,3.2c-0.8,1.1-2,1.6-2.9,1.5c-0.4-0.9-0.2-2.2,0.6-3.2
	C675.6,249.2,676.7,248.7,677.7,248.8"/>
<path fill="#869B29" d="M677.7,248.8l-3.5,4.7c-0.4-0.9-0.2-2.2,0.6-3.2C675.6,249.2,676.7,248.7,677.7,248.8"/>
<path fill="#70841F" d="M681.3,252c-0.4,0.9-1.4,1.7-2.7,1.9c-1.3,0.2-2.5-0.2-3.1-1c0.4-0.9,1.4-1.7,2.7-1.9
	C679.5,250.8,680.7,251.2,681.3,252"/>
<path fill="#869B29" d="M681.3,252l-5.8,0.9c0.4-0.9,1.4-1.7,2.7-1.9C679.5,250.8,680.7,251.2,681.3,252"/>
<path fill="#869B29" d="M672.3,247.4c-0.7,0.7-0.9,2-0.5,3.2c0.4,1.3,1.3,2.2,2.2,2.4c0.7-0.7,0.9-2,0.5-3.2
	C674.1,248.5,673.2,247.6,672.3,247.4"/>
<path fill="#70841F" d="M672.3,247.4l1.7,5.6c0.7-0.7,0.9-2,0.5-3.2C674.1,248.5,673.2,247.6,672.3,247.4"/>
<path fill="#70841F" d="M668.6,250.5c0.3,0.9,1.3,1.7,2.6,2c1.3,0.3,2.5-0.1,3.2-0.8c-0.3-0.9-1.3-1.7-2.6-2
	C670.4,249.3,669.2,249.7,668.6,250.5"/>
<path fill="#70841F" d="M668.6,250.5l5.7,1.2c-0.3-0.9-1.3-1.7-2.6-2C670.4,249.3,669.2,249.7,668.6,250.5"/>
<path fill="#D73534" d="M669.3,264.9c1.2,3,4.4,3.6,6.5,1.2c2.5-2.8,4.7-5.7,6.5-8.4c1.6-2.3,0.3-4.5-2.4-5
	c-3.3-0.6-6.5-1.2-9.8-1.7c-2.8-0.4-4.7,1.1-4,3.9C666.9,257.9,668,261.4,669.3,264.9"/>
<path fill="#E95045" d="M682.4,257.6c-1.9,2.7-4,5.6-6.5,8.4c-0.8,0.9-1.7,1.4-2.7,1.5c-0.4-0.5-0.6-1.2-0.7-2
	c-0.1-3.1-0.1-6.3-0.1-9.4c0.1-2.7,0.9-4.7,1.8-4.5c1.9,0.3,3.8,0.7,5.7,1C682.7,253.2,683.9,255.3,682.4,257.6"/>
<path fill="#D73534" d="M681.5,255.7c0,0.1,0.1,0.2,0.2,0.2c0.1,0,0.3,0,0.3-0.1l0.1-0.6c0-0.1-0.1-0.2-0.2-0.2
	c-0.2,0-0.3,0-0.3,0.1L681.5,255.7z"/>
<path fill="#D73534" d="M678.7,255.2c0,0.1,0.1,0.2,0.2,0.2c0.1,0,0.3,0,0.3-0.1l0.1-0.6c0-0.1-0.1-0.2-0.2-0.2
	c-0.1,0-0.3,0-0.3,0.1L678.7,255.2z"/>
<path fill="#D73534" d="M675.9,254.7c0,0.1,0.1,0.2,0.2,0.2c0.1,0,0.3,0,0.3-0.1l0.1-0.6c0-0.1-0.1-0.2-0.2-0.2
	c-0.1,0-0.3,0-0.3,0.1L675.9,254.7z"/>
<path fill="#D73534" d="M673,254.2c0,0.1,0.1,0.2,0.2,0.2c0.1,0,0.3,0,0.3-0.1l0.1-0.6c0-0.1-0.1-0.2-0.2-0.2c-0.1,0-0.3,0-0.3,0.1
	L673,254.2z"/>
<path fill="#E95045" d="M670.2,253.7c0,0.1,0.1,0.2,0.2,0.2c0.1,0,0.3,0,0.3-0.1l0.1-0.6c0-0.1-0.1-0.2-0.2-0.2
	c-0.1,0-0.3,0-0.3,0.1L670.2,253.7z"/>
<path fill="#E95045" d="M667.4,253.2c0,0.1,0.1,0.2,0.2,0.2c0.1,0,0.3,0,0.3-0.1l0.1-0.6c0-0.1-0.1-0.2-0.2-0.2
	c-0.1,0-0.3,0-0.3,0.1L667.4,253.2z"/>
<path fill="#DAD8C6" d="M681.7,255.7c0,0.1,0.1,0.2,0.2,0.2c0.1,0,0.3,0,0.3-0.1l0.1-0.6c0-0.1-0.1-0.2-0.2-0.2
	c-0.1,0-0.3,0-0.3,0.1L681.7,255.7z"/>
<path fill="#DAD8C6" d="M678.9,255.2c0,0.1,0.1,0.2,0.2,0.2c0.1,0,0.3,0,0.3-0.1l0.1-0.6c0-0.1-0.1-0.2-0.2-0.2
	c-0.1,0-0.3,0-0.3,0.1L678.9,255.2z"/>
<path fill="#DAD8C6" d="M676.1,254.7c0,0.1,0.1,0.2,0.2,0.2c0.1,0,0.3,0,0.3-0.1l0.1-0.6c0-0.1-0.1-0.2-0.2-0.2
	c-0.1,0-0.3,0-0.3,0.1L676.1,254.7z"/>
<path fill="#DAD8C6" d="M673.3,254.2c0,0.1,0.1,0.2,0.2,0.2c0.1,0,0.3,0,0.3-0.1l0.1-0.6c0-0.1-0.1-0.2-0.2-0.2
	c-0.1,0-0.3,0-0.3,0.1L673.3,254.2z"/>
<path fill="#DAD8C6" d="M670.5,253.7c0,0.1,0.1,0.2,0.2,0.2c0.1,0,0.3,0,0.3-0.1l0.1-0.6c0-0.1-0.1-0.2-0.2-0.2
	c-0.1,0-0.3,0-0.3,0.1L670.5,253.7z"/>
<path fill="#DAD8C6" d="M667.6,253.2c0,0.1,0.1,0.2,0.2,0.2c0.1,0,0.3,0,0.3-0.1l0.1-0.6c0-0.1-0.1-0.2-0.2-0.2
	c-0.1,0-0.3,0-0.3,0.1L667.6,253.2z"/>
<path fill="#D73534" d="M679.5,257.6c0,0.1,0.1,0.2,0.2,0.2c0.1,0,0.3,0,0.3-0.1l0.1-0.6c0-0.1-0.1-0.2-0.2-0.2
	c-0.1,0-0.3,0-0.3,0.1L679.5,257.6z"/>
<path fill="#D73534" d="M676.7,257.1c0,0.1,0.1,0.2,0.2,0.2c0.2,0,0.3,0,0.3-0.1l0.1-0.6c0-0.1-0.1-0.2-0.2-0.2
	c-0.2,0-0.3,0-0.3,0.1L676.7,257.1z"/>
<path fill="#D73534" d="M673.8,256.6c0,0.1,0.1,0.2,0.2,0.2c0.1,0,0.3,0,0.3-0.1l0.1-0.6c0-0.1-0.1-0.2-0.2-0.2
	c-0.1,0-0.3,0-0.3,0.1L673.8,256.6z"/>
<path fill="#E95045" d="M671,256.1c0,0.1,0.1,0.2,0.2,0.2c0.1,0,0.3,0,0.3-0.1l0.1-0.6c0-0.1-0.1-0.2-0.2-0.2c-0.1,0-0.3,0-0.3,0.1
	L671,256.1z"/>
<path fill="#E95045" d="M668.2,255.6c0,0.1,0.1,0.2,0.2,0.2c0.1,0,0.3,0,0.3-0.1l0.1-0.6c0-0.1-0.1-0.2-0.2-0.2
	c-0.1,0-0.3,0-0.3,0.1L668.2,255.6z"/>
<path fill="#DAD8C6" d="M679.7,257.6c0,0.1,0.1,0.2,0.2,0.2c0.1,0,0.3,0,0.3-0.1l0.1-0.6c0-0.1-0.1-0.2-0.2-0.2
	c-0.1,0-0.3,0-0.3,0.1L679.7,257.6z"/>
<path fill="#DAD8C6" d="M676.9,257.1c0,0.1,0.1,0.2,0.2,0.2c0.1,0,0.3,0,0.3-0.1l0.1-0.6c0-0.1-0.1-0.2-0.2-0.2
	c-0.1,0-0.3,0-0.3,0.1L676.9,257.1z"/>
<path fill="#DAD8C6" d="M674.1,256.6c0,0.1,0.1,0.2,0.2,0.2c0.1,0,0.3,0,0.3-0.1l0.1-0.6c0-0.1-0.1-0.2-0.2-0.2
	c-0.1,0-0.3,0-0.3,0.1L674.1,256.6z"/>
<path fill="#DAD8C6" d="M671.3,256.1c0,0.1,0.1,0.2,0.2,0.2c0.1,0,0.3,0,0.3-0.1l0.1-0.6c0-0.1-0.1-0.2-0.2-0.2
	c-0.1,0-0.3,0-0.3,0.1L671.3,256.1z"/>
<path fill="#DAD8C6" d="M668.5,255.6c0,0.1,0.1,0.2,0.2,0.2c0.2,0,0.3,0,0.3-0.1l0.1-0.6c0-0.1-0.1-0.2-0.2-0.2
	c-0.1,0-0.3,0-0.3,0.1L668.5,255.6z"/>
<path fill="#D73534" d="M677.5,259.5c0,0.1,0.1,0.2,0.2,0.2c0.1,0,0.3,0,0.3-0.1l0.1-0.6c0-0.1-0.1-0.2-0.2-0.2
	c-0.1,0-0.3,0-0.3,0.1L677.5,259.5z"/>
<path fill="#D73534" d="M674.7,259c0,0.1,0.1,0.2,0.2,0.2c0.1,0,0.3,0,0.3-0.1l0.1-0.6c0-0.1-0.1-0.2-0.2-0.2c-0.1,0-0.3,0-0.3,0.1
	L674.7,259z"/>
<path fill="#E95045" d="M671.8,258.5c0,0.1,0.1,0.2,0.2,0.2c0.1,0,0.3,0,0.3-0.1l0.1-0.6c0-0.1-0.1-0.2-0.2-0.2
	c-0.1,0-0.3,0-0.3,0.1L671.8,258.5z"/>
<path fill="#E95045" d="M669,258c0,0.1,0.1,0.2,0.2,0.2c0.2,0,0.3,0,0.3-0.1l0.1-0.6c0-0.1-0.1-0.2-0.2-0.2c-0.1,0-0.3,0-0.3,0.1
	L669,258z"/>
<path fill="#DAD8C6" d="M677.7,259.6c0,0.1,0.1,0.2,0.2,0.2c0.1,0,0.3,0,0.3-0.1l0.1-0.6c0-0.1-0.1-0.2-0.2-0.2
	c-0.1,0-0.3,0-0.3,0.1L677.7,259.6z"/>
<path fill="#DAD8C6" d="M674.9,259.1c0,0.1,0.1,0.2,0.2,0.2c0.1,0,0.3,0,0.3-0.1l0.1-0.6c0-0.1-0.1-0.2-0.2-0.2
	c-0.1,0-0.3,0-0.3,0.1L674.9,259.1z"/>
<path fill="#DAD8C6" d="M672.1,258.6c0,0.1,0.1,0.2,0.2,0.2c0.1,0,0.3,0,0.3-0.1l0.1-0.6c0-0.1-0.1-0.2-0.2-0.2
	c-0.1,0-0.3,0-0.3,0.1L672.1,258.6z"/>
<path fill="#DAD8C6" d="M669.3,258.1c0,0.1,0.1,0.2,0.2,0.2c0.1,0,0.3,0,0.3-0.1l0.1-0.6c0-0.1-0.1-0.2-0.2-0.2
	c-0.1,0-0.3,0-0.3,0.1L669.3,258.1z"/>
<path fill="#D73534" d="M675.5,261.5c0,0.1,0.1,0.2,0.2,0.2c0.2,0,0.3,0,0.3-0.1l0.1-0.6c0-0.1-0.1-0.2-0.2-0.2
	c-0.1,0-0.3,0-0.3,0.1L675.5,261.5z"/>
<path fill="#E95045" d="M672.6,261c0,0.1,0.1,0.2,0.2,0.2c0.1,0,0.3,0,0.3-0.1l0.1-0.6c0-0.1-0.1-0.2-0.2-0.2c-0.1,0-0.3,0-0.3,0.1
	L672.6,261z"/>
<path fill="#E95045" d="M669.8,260.5c0,0.1,0.1,0.2,0.2,0.2c0.1,0,0.3,0,0.3-0.1l0.1-0.6c0-0.1-0.1-0.2-0.2-0.2
	c-0.1,0-0.3,0-0.3,0.1L669.8,260.5z"/>
<path fill="#DAD8C6" d="M675.7,261.5c0,0.1,0.1,0.2,0.2,0.2c0.1,0,0.3,0,0.3-0.1l0.1-0.6c0-0.1-0.1-0.2-0.2-0.2
	c-0.2,0-0.3,0-0.3,0.1L675.7,261.5z"/>
<path fill="#DAD8C6" d="M672.9,261c0,0.1,0.1,0.2,0.2,0.2c0.1,0,0.3,0,0.3-0.1l0.1-0.6c0-0.1-0.1-0.2-0.2-0.2c-0.1,0-0.3,0-0.3,0.1
	L672.9,261z"/>
<path fill="#DAD8C6" d="M670.1,260.5c0,0.1,0.1,0.2,0.2,0.2c0.1,0,0.3,0,0.3-0.1l0.1-0.6c0-0.1-0.1-0.2-0.2-0.2
	c-0.1,0-0.3,0-0.3,0.1L670.1,260.5z"/>
<path fill="#D73534" d="M673.4,263.4c0,0.1,0.1,0.2,0.2,0.2c0.1,0,0.3,0,0.3-0.1l0.1-0.6c0-0.1-0.1-0.2-0.2-0.2
	c-0.1,0-0.3,0-0.3,0.1L673.4,263.4z"/>
<path fill="#E95045" d="M670.6,262.9c0,0.1,0.1,0.2,0.2,0.2c0.1,0,0.3,0,0.3-0.1l0.1-0.6c0-0.1-0.1-0.2-0.2-0.2
	c-0.1,0-0.3,0-0.3,0.1L670.6,262.9z"/>
<path fill="#DAD8C6" d="M673.7,263.5c0,0.1,0.1,0.2,0.2,0.2c0.1,0,0.3,0,0.3-0.1l0.1-0.6c0-0.1-0.1-0.2-0.2-0.2
	c-0.1,0-0.3,0-0.3,0.1L673.7,263.5z"/>
<path fill="#DAD8C6" d="M670.9,263c0,0.1,0.1,0.2,0.2,0.2c0.1,0,0.3,0,0.3-0.1l0.1-0.6c0-0.1-0.1-0.2-0.2-0.2c-0.1,0-0.3,0-0.3,0.1
	L670.9,263z"/>
<path fill="#E95045" d="M671.4,265.4c0,0.1,0.1,0.2,0.2,0.2c0.1,0,0.3,0,0.3-0.1l0.1-0.6c0-0.1-0.1-0.2-0.2-0.2
	c-0.1,0-0.3,0-0.3,0.1L671.4,265.4z"/>
<path fill="#DAD8C6" d="M671.7,265.4c0,0.1,0.1,0.2,0.2,0.2c0.1,0,0.3,0,0.3-0.1l0.1-0.6c0-0.1-0.1-0.2-0.2-0.2
	c-0.1,0-0.3,0-0.3,0.1L671.7,265.4z"/>
<path fill="#FFF3D7" d="M399.2,225.5c-42.1,0-76.3-34.2-76.3-76.3c0-42.1,34.1-76.3,76.3-76.3c42.1,0,76.3,34.1,76.3,76.3
	C475.5,191.3,441.4,225.5,399.2,225.5"/>
<path fill="#F0E1C0" d="M473.3,167.6l-42.1-42.1c-10.9-13-25.9-22.7-43.6-27c-0.3-0.1-0.5-0.1-0.8-0.2l-21.6,90.1l0.4,2.8l1.1-0.3
	l-0.8,0.9l33.7,33.7C435.1,225.4,465,200.8,473.3,167.6"/>
<path fill="#E28F41" d="M388,101.3c-0.3-0.1-0.5-0.1-0.8-0.2l-22,87.3l0.4,2.8l84.3-22.5C445,136.7,421.3,109.3,388,101.3"/>
<path fill="#FAB900" d="M387.6,98.5c-0.3-0.1-0.5-0.1-0.8-0.2l-21.6,90.1l84.3-22.5C444.6,133.9,421,106.5,387.6,98.5"/>
<path fill="#F29A00" d="M384.3,108.6l-0.8,3.2c24.1,11.8,40.4,34.4,44.7,59.8l11.5-3.1C433.4,140.8,412.8,117.5,384.3,108.6"/>
<path fill="#DEDAC7" d="M397.2,130.5c0,1.3-2.4,2.4-5.3,2.4c-2.9,0-5.3-1.1-5.3-2.4c0-1.3,2.4-2.4,5.3-2.4
	C394.8,128.1,397.2,129.2,397.2,130.5"/>
<path fill="#F5F3E1" d="M393.7,126.1c-1.1-0.6-2.5-0.6-3.6,0c-1.2,0.7-1.5,1.6-1.2,1.7c0.5,0.2,0.8,0.7,1,1.1c0,1.9-0.3,3.9-0.7,5.8
	c-0.3,1,0.2,2.3,1.2,2.7c1,0.3,1.9,0.3,2.9,0c1-0.3,1.5-1.7,1.2-2.7c-0.5-1.9-0.7-3.9-0.7-5.8c0.2-0.5,0.5-0.9,1-1.1
	C395.2,127.7,394.9,126.7,393.7,126.1"/>
<path fill="#F5F3E1" d="M393.4,123.9h-2.9c-3.7,0-6.7,2.4-6.7,5.4c0,2.1,1.9,4.4,4.2,4.6c0.8,0,1.3-1,0.8-1.6
	c-0.2-0.3-1-0.3-1.3-0.5c-0.4-0.3-0.5-0.8-0.4-1.2c0.5-1.3,1.9-1.4,3.1-1.4h3.3c1.2,0,2.6,0.1,3.1,1.4c0.1,0.4,0,0.8-0.4,1.2
	c-0.3,0.2-1.1,0.3-1.3,0.5c-0.5,0.7,0,1.7,0.9,1.6c2.4-0.1,4.2-2.5,4.2-4.6C400.1,126.4,397.1,123.9,393.4,123.9"/>
<path fill="#DEDAC7" d="M399.9,159.8c-0.7,1.2-3.4,0.9-6-0.7c-2.6-1.5-4.1-3.8-3.4-4.9c0.7-1.2,3.4-0.9,6,0.7
	C399.1,156.4,400.6,158.6,399.9,159.8"/>
<path fill="#F5F3E1" d="M399.1,154c-0.7-1.1-1.9-1.8-3.2-1.9c-1.4,0-2.2,0.7-1.9,0.9c0.3,0.4,0.3,1,0.3,1.5
	c-1.1,1.7-2.3,3.3-3.7,4.8c-0.7,0.7-1,2.2-0.3,3c0.7,0.8,1.6,1.3,2.6,1.5c1.1,0.2,2.2-0.7,2.5-1.7c0.6-2,1.4-3.8,2.4-5.6
	c0.4-0.3,1-0.5,1.5-0.5C399.6,156.3,399.8,155.2,399.1,154"/>
<path fill="#F5F3E1" d="M400,151.9c-0.1-0.1-2.5-1.5-2.6-1.5c-3.3-2-7.2-1.4-8.8,1.3c-1.1,1.9-0.7,5,1.3,6.3c0.7,0.5,1.7-0.2,1.6-1
	c0-0.3-0.8-0.8-0.9-1.2c-0.2-0.5-0.1-1,0.3-1.2c1.1-0.9,2.4-0.2,3.5,0.4l2.9,1.8c1.1,0.7,2.3,1.5,2,2.9c-0.1,0.4-0.5,0.7-1,0.8
	c-0.4,0.1-1.2-0.3-1.4-0.2c-0.8,0.3-0.8,1.5-0.1,1.9c2.2,1.1,5.1,0.1,6.2-1.8C404.6,157.6,403.3,153.9,400,151.9"/>
<path fill="#D85A43" d="M422,160c0,4.3-3.5,7.8-7.8,7.8c-4.3,0-7.8-3.5-7.8-7.8c0-4.3,3.5-7.8,7.8-7.8
	C418.5,152.2,422,155.7,422,160"/>
<path fill="#EC6955" d="M411.4,155.6c0,0.5-0.4,1-1,1c-0.5,0-1-0.4-1-1c0-0.5,0.4-1,1-1C410.9,154.6,411.4,155,411.4,155.6"/>
<path fill="#EC6955" d="M417.5,159.8c0,0.5-0.4,1-1,1c-0.5,0-1-0.4-1-1c0-0.5,0.4-1,1-1C417,158.8,417.5,159.2,417.5,159.8"/>
<path fill="#EC6955" d="M411.3,162.7c0,0.5-0.4,1-1,1c-0.5,0-1-0.4-1-1c0-0.5,0.4-1,1-1C410.8,161.7,411.3,162.1,411.3,162.7"/>
<path fill="#EC6955" d="M417,165.4c0,0.5-0.4,1-1,1c-0.5,0-1-0.4-1-1c0-0.5,0.4-1,1-1C416.6,164.4,417,164.8,417,165.4"/>
<path fill="#EC6955" d="M416.6,154.8c0,0.5-0.4,1-1,1c-0.5,0-1-0.4-1-1c0-0.5,0.4-1,1-1C416.2,153.8,416.6,154.3,416.6,154.8"/>
<path fill="#EC6955" d="M413.4,158.3c0,0.3-0.2,0.5-0.5,0.5c-0.3,0-0.5-0.2-0.5-0.5c0-0.3,0.2-0.5,0.5-0.5
	C413.2,157.8,413.4,158,413.4,158.3"/>
<path fill="#EC6955" d="M409.3,159.2c0,0.3-0.2,0.5-0.5,0.5c-0.3,0-0.5-0.2-0.5-0.5c0-0.3,0.2-0.5,0.5-0.5
	C409.1,158.7,409.3,158.9,409.3,159.2"/>
<path fill="#EC6955" d="M414.1,154.1c0,0.3-0.2,0.5-0.5,0.5c-0.3,0-0.5-0.2-0.5-0.5c0-0.3,0.2-0.5,0.5-0.5
	C413.9,153.6,414.1,153.8,414.1,154.1"/>
<path fill="#EC6955" d="M419.3,157.3c0,0.3-0.2,0.5-0.5,0.5c-0.3,0-0.5-0.2-0.5-0.5c0-0.3,0.2-0.5,0.5-0.5
	C419,156.8,419.3,157,419.3,157.3"/>
<path fill="#EC6955" d="M419.4,162.9c0,0.3-0.2,0.5-0.5,0.5c-0.3,0-0.5-0.2-0.5-0.5c0-0.3,0.2-0.5,0.5-0.5
	C419.1,162.4,419.4,162.6,419.4,162.9"/>
<path fill="#EC6955" d="M414.4,162.7c0,0.3-0.2,0.5-0.5,0.5c-0.3,0-0.5-0.2-0.5-0.5c0-0.3,0.2-0.5,0.5-0.5
	C414.2,162.2,414.4,162.4,414.4,162.7"/>
<path fill="#EC6955" d="M413.1,165.6c0,0.2-0.1,0.3-0.3,0.3c-0.2,0-0.3-0.1-0.3-0.3c0-0.2,0.1-0.3,0.3-0.3
	C413,165.3,413.1,165.4,413.1,165.6"/>
<path fill="#EC6955" d="M408,161.8c0,0.2-0.1,0.3-0.3,0.3c-0.2,0-0.3-0.1-0.3-0.3c0-0.2,0.1-0.3,0.3-0.3
	C407.8,161.5,408,161.6,408,161.8"/>
<path fill="#EC6955" d="M411.9,160.2c0,0.2-0.1,0.3-0.3,0.3c-0.2,0-0.3-0.1-0.3-0.3c0-0.2,0.1-0.3,0.3-0.3
	C411.8,159.9,411.9,160,411.9,160.2"/>
<path fill="#EC6955" d="M420.4,159.8c0,0.2-0.1,0.3-0.3,0.3c-0.2,0-0.3-0.1-0.3-0.3c0-0.2,0.1-0.3,0.3-0.3
	C420.3,159.5,420.4,159.6,420.4,159.8"/>
<path fill="#EC6955" d="M413.2,156c0,0.2-0.1,0.3-0.3,0.3c-0.2,0-0.3-0.1-0.3-0.3c0-0.2,0.1-0.3,0.3-0.3
	C413.1,155.7,413.2,155.8,413.2,156"/>
<path fill="#EC6955" d="M416.7,157.4c0,0.2-0.1,0.3-0.3,0.3c-0.2,0-0.3-0.1-0.3-0.3c0-0.2,0.1-0.3,0.3-0.3
	C416.5,157.1,416.7,157.3,416.7,157.4"/>
<path fill="#EC6955" d="M416.4,162.6c0,0.2-0.1,0.3-0.3,0.3c-0.2,0-0.3-0.1-0.3-0.3c0-0.2,0.1-0.3,0.3-0.3
	C416.2,162.3,416.4,162.4,416.4,162.6"/>
<path fill="#EC6955" d="M418.4,165c0,0.2-0.1,0.3-0.3,0.3s-0.3-0.1-0.3-0.3c0-0.2,0.1-0.3,0.3-0.3S418.4,164.8,418.4,165"/>
<path fill="#EC6955" d="M408.6,156.7c0,0.2-0.1,0.3-0.3,0.3c-0.2,0-0.3-0.1-0.3-0.3c0-0.2,0.1-0.3,0.3-0.3
	C408.5,156.4,408.6,156.5,408.6,156.7"/>
<path fill="#70841F" d="M408.4,140.7c0,2.2-2.2,3.9-4.9,3.9c-2.7,0-4.9-1.8-4.9-3.9c0-2.2,2.2-3.9,4.9-3.9
	C406.2,136.8,408.4,138.5,408.4,140.7"/>
<path fill="#869B29" d="M404.2,139.8c0,1-1,1.9-2.3,1.9c-1.3,0-2.3-0.8-2.3-1.9c0-1,1-1.9,2.3-1.9
	C403.1,138,404.2,138.8,404.2,139.8"/>
<path fill="#405933" d="M407,140.4c0.4,0,0.7,0.4,0.7,0.9c0,0.5-0.4,0.9-0.8,0.9c-0.4,0-0.7-0.4-0.7-0.9
	C406.3,140.8,406.6,140.4,407,140.4"/>
<path fill="#70841F" d="M404.2,172.1c0,2.2-2.2,3.9-4.9,3.9c-2.7,0-4.9-1.8-4.9-3.9c0-2.2,2.2-3.9,4.9-3.9
	C402,168.1,404.2,169.9,404.2,172.1"/>
<path fill="#869B29" d="M400,171.2c0,1-1,1.9-2.3,1.9c-1.3,0-2.3-0.8-2.3-1.9c0-1,1-1.9,2.3-1.9C399,169.4,400,170.2,400,171.2"/>
<path fill="#405933" d="M402.9,171.8c0.4,0,0.7,0.4,0.7,0.9c0,0.5-0.4,0.9-0.8,0.9c-0.4,0-0.7-0.4-0.7-0.9
	C402.1,172.2,402.5,171.8,402.9,171.8"/>
<path fill="#70841F" d="M384.9,155.8c0,2.2-2.2,3.9-4.9,3.9c-2.7,0-4.9-1.8-4.9-3.9c0-2.2,2.2-3.9,4.9-3.9
	C382.7,151.9,384.9,153.6,384.9,155.8"/>
<path fill="#869B29" d="M380.7,155c0,1-1,1.9-2.3,1.9c-1.3,0-2.3-0.8-2.3-1.9c0-1,1-1.9,2.3-1.9C379.7,153.1,380.7,153.9,380.7,155"
	/>
<path fill="#405933" d="M383.6,155.6c0.4,0,0.7,0.4,0.7,0.9c0,0.5-0.4,0.9-0.8,0.9c-0.4,0-0.7-0.4-0.7-0.9
	C382.8,155.9,383.2,155.5,383.6,155.6"/>
<path fill="#869B29" d="M385.8,165.2c-0.9,0-1.7,0.8-1.7,1.9c0,1,0.8,1.9,1.7,1.9c0.9,0,1.7-0.8,1.7-1.9
	C387.5,166,386.7,165.2,385.8,165.2 M385.8,170.5c-1.8,0-3.2-1.5-3.2-3.4c0-1.9,1.4-3.4,3.2-3.4c1.8,0,3.2,1.5,3.2,3.4
	C389,168.9,387.5,170.5,385.8,170.5"/>
<path fill="#869B29" d="M411.9,146.9c-0.5,0-1,0.5-1,1.1c0,0.6,0.5,1.1,1,1.1c0.6,0,1-0.5,1-1.1
	C412.9,147.4,412.4,146.9,411.9,146.9 M411.9,150c-1,0-1.9-0.9-1.9-2c0-1.1,0.8-2,1.9-2c1,0,1.9,0.9,1.9,2
	C413.8,149.1,412.9,150,411.9,150"/>
<path fill="#F5F3E1" d="M555.6,124.1c0.4-1.7,2-2.7,3.7-2.4c1.7,0.4,2.7,2,2.4,3.7c-0.4,1.7-2,2.7-3.7,2.4
	C556.3,127.4,555.2,125.8,555.6,124.1"/>
<path fill="#F5F3E1" d="M552.8,133.4c-1-2.7-3.8-4.3-6.6-3.8c1.1,0.1,2.2,0.7,2.7,1.8c-0.1,0-0.3,0.1-0.4,0.1
	c-1.7,0.7-2.6,2.6-1.9,4.3c0.7,1.7,2.6,2.6,4.3,1.9C552.6,137.1,553.4,135.2,552.8,133.4C552.8,133.5,552.8,133.4,552.8,133.4"/>
<path fill="#F5F3E1" d="M541.5,114.3c3-1.7,6.9-0.8,8.7,2.2c1.8,3,0.8,6.9-2.2,8.7c-4.1,2.3-11.3-1.6-13.4,2.2
	C534.6,127.4,534,118.7,541.5,114.3"/>
<path fill="#F5F3E1" d="M539,145.2h0.5c0.9,0,1.7-0.5,1.7-1.1v-10c0-0.6-0.8-1.1-1.7-1.1h-20.7c-1,0-1.7,0.5-1.7,1.1v10
	c0,0.6,0.8,1.1,1.7,1.1h0.5c-5.2,6-13.1,27.3-13.1,31.4v45.9c0,4.7,3.8,8.6,8.6,8.6h13.8h1.1h13.8c4.8,0,8.6-3.9,8.6-8.6v-45.9
	C552.1,172.6,544.2,151.2,539,145.2"/>
<path fill="#E95045" d="M548.8,223v-46.8c-0.4-3.3-5.6-14.8-9.9-22c-3.3,0.1-6.3,2-11.3,3.8c-2.4,0.8-6.4,0.8-10.6,0.3
	c-3.7,6.9-7.2,15.2-7.6,17.9V223c0,1,0.9,1.8,2.1,1.8h35.2C547.9,224.8,548.8,224,548.8,223"/>
<path fill="none" stroke="#E95045" stroke-width="0.2648" stroke-miterlimit="10" d="M548.8,223v-46.8c-0.4-3.3-5.6-14.8-9.9-22
	c-3.3,0.1-6.3,2-11.3,3.8c-2.4,0.8-6.4,0.8-10.6,0.3c-3.7,6.9-7.2,15.2-7.6,17.9V223c0,1,0.9,1.8,2.1,1.8h35.2
	C547.9,224.8,548.8,224,548.8,223z"/>
<path fill="#F0E1C0" d="M539.5,145.2c0.9,0,1.7-0.5,1.7-1.1v-10c0-0.6-0.8-1.1-1.7-1.1h-10.8v98.2h1.1h13.8c4.8,0,8.6-3.9,8.6-8.6
	v-45.9c0-4.1-7.9-25.4-13.1-31.4H539.5z"/>
<path fill="#D73534" d="M528.5,157.6v67.1h18.2c1.2,0,2.1-0.8,2.1-1.8v-46.8c-0.4-3.3-5.6-14.8-9.9-22
	C535.8,154.2,533,155.9,528.5,157.6"/>
<path fill="none" stroke="#D73534" stroke-width="0.2648" stroke-miterlimit="10" d="M528.5,157.6v67.1h18.2c1.2,0,2.1-0.8,2.1-1.8
	v-46.8c-0.4-3.3-5.6-14.8-9.9-22C535.8,154.2,533,155.9,528.5,157.6z"/>
<path fill="#70841F" d="M575.7,226.6c-0.2,0.2-0.5,0.2-0.7,0c-0.2-0.2-0.2-0.5,0-0.7l11.7-11.8c0.2-0.2,0.5-0.2,0.7,0
	c0.2,0.2,0.2,0.5,0,0.7L575.7,226.6z"/>
<path fill="#869B29" d="M594.6,214.4c0.9-0.3,1.7-0.7,2.5-1.1c0.1-0.1,0.2-0.2,0.3-0.3c0.2-0.2,0.3-0.4,0.5-0.6
	c-0.3-0.2-0.6-0.3-0.9-0.5c-0.1-0.1-0.3-0.1-0.4-0.2c0.1,0,0.3,0,0.4,0c0.6-0.1,1.2-0.3,1.8-0.4c0,0,0,0,0-0.1
	c-1.3-0.4-2.8-0.8-4.3-1.2c-0.2,0-0.4-0.1-0.6-0.1c0.2,0,0.4,0,0.6,0.1c1.8,0.2,3.4,0.3,4.9,0.4c0.4-0.7,0.8-1.5,1.1-2.3
	c-0.2,0-0.5,0-0.7-0.1c-0.1,0-0.3,0-0.4,0c0.1-0.1,0.2-0.1,0.3-0.2c0.4-0.3,0.8-0.6,1.2-1c0.1-0.6,0.3-1.2,0.3-1.8
	c-0.4,0.1-0.7,0.3-1.1,0.5c-0.1,0.1-0.2,0.1-0.3,0.2c0.1-0.1,0.1-0.2,0.2-0.3c0.5-1.3,0.9-2.6,1.1-3.9c0-0.2-0.1-0.4-0.1-0.6
	c-0.2-0.1-0.5-0.1-0.7-0.2c-0.8,0.2-1.5,0.6-2.3,1c-0.1,0.1-0.2,0.1-0.3,0.2c0-0.1,0.1-0.2,0.2-0.4c0.1-0.3,0.2-0.7,0.3-1
	c-1.3,0-2.7,0.2-4,0.7c-0.8,0.9-1.6,1.8-2.2,3c-0.1,0.1-0.1,0.2-0.2,0.4c0-0.1,0-0.3,0-0.4c-0.1-0.6-0.2-1.1-0.4-1.6
	c0,0-0.1,0.1-0.1,0.1c-0.5,0.6-1,1.2-1.5,1.9c-0.1,0.1-0.1,0.2-0.2,0.3c0-0.1,0-0.3,0-0.4c0-0.2,0-0.3-0.1-0.5
	c-0.2,0.2-0.4,0.4-0.6,0.6c-0.6,0.6-1.1,1.3-1.6,1.9c0.6,2.9,0.4,6.1-0.9,9c-0.1,0.1-0.1,0.2-0.2,0.3c0.1-0.1,0.2-0.1,0.3-0.2
	C589.1,214.3,592,214,594.6,214.4"/>
<path fill="#70841F" d="M586.5,215.6c2.6-1.2,5.5-1.6,8.1-1.2c0.9-0.3,1.7-0.7,2.5-1.1c0.1-0.1,0.2-0.2,0.3-0.3
	c0.2-0.2,0.3-0.4,0.5-0.6c-0.3-0.2-0.6-0.3-0.9-0.5c-0.1-0.1-0.3-0.1-0.4-0.2c0.1,0,0.3,0,0.4,0c0.6-0.1,1.2-0.3,1.8-0.4
	c0,0,0,0,0-0.1c-1.3-0.4-2.8-0.8-4.3-1.2c-0.2,0-0.4-0.1-0.6-0.1c0.2,0,0.4,0,0.6,0.1c1.8,0.2,3.4,0.3,4.9,0.4
	c0.4-0.7,0.8-1.5,1.1-2.3c-0.2,0-0.5,0-0.7-0.1c-0.1,0-0.3,0-0.4,0c0.1-0.1,0.2-0.1,0.3-0.2c0.4-0.3,0.8-0.6,1.2-1
	c0.1-0.6,0.3-1.2,0.3-1.8c-0.4,0.1-0.7,0.3-1.1,0.5c-0.1,0.1-0.2,0.1-0.3,0.2c0.1-0.1,0.1-0.2,0.2-0.3c0.5-1.3,0.9-2.6,1.1-3.9
	c0-0.2-0.1-0.4-0.1-0.6l-14.7,14.8C586.3,215.7,586.4,215.6,586.5,215.6"/>
<path fill="#70841F" d="M587,221.1c0-0.2-0.3-0.4-0.5-0.4l-5.5-0.2l-0.7,0.8l6.4,0.3C586.8,221.5,587,221.3,587,221.1"/>
<path fill="#869B29" d="M589.3,225.9c0.7,0.4,1.5,0.7,2.2,0.9c0.1,0,0.3,0,0.4,0c0.2,0,0.4,0,0.6,0c-0.1-0.3-0.3-0.6-0.4-0.9
	c-0.1-0.1-0.1-0.2-0.2-0.4c0.1,0.1,0.2,0.2,0.3,0.2c0.5,0.3,0.9,0.6,1.4,0.9c0,0,0,0,0.1,0c-0.7-1.1-1.5-2.4-2.3-3.6
	c-0.1-0.2-0.2-0.3-0.3-0.5c0.1,0.1,0.2,0.3,0.3,0.4c1.1,1.3,2.1,2.5,3.1,3.5c0.6-0.2,1.2-0.5,1.8-0.8c-0.2-0.2-0.3-0.3-0.5-0.5
	c-0.1-0.1-0.2-0.2-0.3-0.3c0.1,0,0.2,0.1,0.3,0.1c0.4,0.1,0.8,0.1,1.2,0.1c0.4-0.3,0.7-0.6,1.1-1c-0.3-0.2-0.6-0.3-1-0.4
	c-0.1,0-0.2-0.1-0.3-0.1c0.1,0,0.2-0.1,0.3-0.1c1-0.5,1.8-1.1,2.6-1.9c0.1-0.2,0.1-0.3,0.2-0.5c-0.1-0.2-0.3-0.4-0.4-0.6
	c-0.6-0.3-1.3-0.6-2-0.9c-0.1,0-0.2-0.1-0.3-0.1c0.1,0,0.2-0.1,0.3-0.1c0.2-0.1,0.5-0.3,0.7-0.4c-0.9-0.9-1.9-1.6-3-2.2
	c-1,0-1.9,0.2-2.9,0.5c-0.1,0-0.2,0.1-0.3,0.1c0.1-0.1,0.1-0.2,0.2-0.3c0.2-0.4,0.4-0.9,0.5-1.3c0,0-0.1,0-0.1,0
	c-0.6,0-1.3,0.1-1.9,0.3c-0.1,0-0.2,0.1-0.3,0.1c0.1-0.1,0.1-0.2,0.2-0.3c0.1-0.1,0.1-0.2,0.2-0.4c-0.2,0-0.5,0-0.7,0
	c-0.7,0-1.3,0.1-2,0.2c-1,2.3-2.6,4.3-4.9,5.4c-0.1,0-0.2,0.1-0.3,0.1c0.1,0,0.2,0.1,0.3,0.1C585.7,222.3,587.8,223.9,589.3,225.9"
	/>
<path fill="#70841F" d="M583.4,221.4c2.3,0.9,4.4,2.6,5.9,4.6c0.7,0.4,1.5,0.7,2.2,0.9c0.1,0,0.3,0,0.4,0c0.2,0,0.4,0,0.6,0
	c-0.1-0.3-0.3-0.6-0.4-0.9c-0.1-0.1-0.1-0.2-0.2-0.4c0.1,0.1,0.2,0.2,0.3,0.2c0.5,0.3,0.9,0.6,1.4,0.9c0,0,0,0,0.1,0
	c-0.7-1.1-1.5-2.4-2.3-3.6c-0.1-0.2-0.2-0.3-0.3-0.5c0.1,0.1,0.2,0.3,0.3,0.4c1.1,1.3,2.1,2.5,3.1,3.5c0.6-0.2,1.2-0.5,1.8-0.8
	c-0.2-0.2-0.3-0.3-0.5-0.5c-0.1-0.1-0.2-0.2-0.3-0.3c0.1,0,0.2,0.1,0.3,0.1c0.4,0.1,0.8,0.1,1.2,0.1c0.4-0.3,0.7-0.6,1.1-1
	c-0.3-0.2-0.6-0.3-1-0.4c-0.1,0-0.2-0.1-0.3-0.1c0.1,0,0.2-0.1,0.3-0.1c1-0.5,1.8-1.1,2.6-1.9c0.1-0.2,0.1-0.3,0.2-0.5l-16.8,0.1
	C583.2,221.3,583.3,221.3,583.4,221.4"/>
<path fill="#70841F" d="M582.3,219.5l-0.9-4.7c-0.1-0.3-0.3-0.5-0.5-0.5c-0.2,0-0.3,0.2-0.3,0.5l1,5.3L582.3,219.5z"/>
<path fill="#869B29" d="M575.9,212.7c-0.5-0.7-0.9-1.4-1.2-2.1c0-0.1-0.1-0.2-0.1-0.4c0-0.2,0-0.4-0.1-0.6c0.3,0.1,0.6,0.2,1,0.3
	c0.1,0,0.3,0.1,0.4,0.1c-0.1-0.1-0.2-0.2-0.3-0.3c-0.4-0.4-0.8-0.9-1.1-1.3c0,0,0,0,0-0.1c1.2,0.5,2.5,1.1,3.9,1.8
	c0.2,0.1,0.3,0.2,0.5,0.2c-0.2-0.1-0.3-0.2-0.5-0.3c-1.4-0.9-2.7-1.8-3.8-2.6c0.1-0.7,0.3-1.3,0.5-1.9c0.2,0.1,0.4,0.2,0.6,0.4
	c0.1,0.1,0.2,0.2,0.3,0.2c0-0.1-0.1-0.2-0.1-0.3c-0.1-0.4-0.2-0.8-0.3-1.2c0.2-0.4,0.5-0.8,0.8-1.2c0.2,0.3,0.4,0.6,0.6,0.9
	c0.1,0.1,0.1,0.2,0.1,0.3c0-0.1,0-0.2,0.1-0.3c0.3-1.1,0.8-2,1.4-2.9c0.1-0.1,0.3-0.2,0.4-0.3c0.2,0.1,0.4,0.2,0.6,0.3
	c0.4,0.6,0.8,1.2,1.1,1.9c0,0.1,0.1,0.2,0.1,0.3c0-0.1,0-0.2,0.1-0.3c0.1-0.3,0.2-0.5,0.3-0.8c1,0.7,1.9,1.6,2.6,2.7
	c0.1,1,0.1,2-0.1,3c0,0.1-0.1,0.2-0.1,0.3c0.1-0.1,0.2-0.1,0.3-0.2c0.4-0.3,0.8-0.5,1.2-0.7c0,0,0,0.1,0,0.1c0.1,0.6,0.1,1.3,0,1.9
	c0,0.1,0,0.2-0.1,0.3c0.1-0.1,0.2-0.2,0.2-0.2c0.1-0.1,0.2-0.2,0.3-0.2c0,0.2,0.1,0.5,0.1,0.7c0.1,0.7,0.1,1.4,0.1,2
	c-2.1,1.3-3.8,3.3-4.5,5.8c0,0.1,0,0.2-0.1,0.3c-0.1-0.1-0.1-0.2-0.1-0.3C580,215.8,578.1,214,575.9,212.7"/>
<path fill="#70841F" d="M581.2,218c-1.3-2.2-3.2-4-5.3-5.3c-0.5-0.7-0.9-1.4-1.2-2.1c0-0.1-0.1-0.2-0.1-0.4c0-0.2,0-0.4-0.1-0.6
	c0.3,0.1,0.6,0.2,1,0.3c0.1,0,0.3,0.1,0.4,0.1c-0.1-0.1-0.2-0.2-0.3-0.3c-0.4-0.4-0.8-0.9-1.1-1.3c0,0,0,0,0-0.1
	c1.2,0.5,2.5,1.1,3.9,1.8c0.2,0.1,0.3,0.2,0.5,0.2c-0.2-0.1-0.3-0.2-0.5-0.3c-1.4-0.9-2.7-1.8-3.8-2.6c0.1-0.7,0.3-1.3,0.5-1.9
	c0.2,0.1,0.4,0.2,0.6,0.4c0.1,0.1,0.2,0.2,0.3,0.2c0-0.1-0.1-0.2-0.1-0.3c-0.1-0.4-0.2-0.8-0.3-1.2c0.2-0.4,0.5-0.8,0.8-1.2
	c0.2,0.3,0.4,0.6,0.6,0.9c0.1,0.1,0.1,0.2,0.1,0.3c0-0.1,0-0.2,0.1-0.3c0.3-1.1,0.8-2,1.4-2.9c0.1-0.1,0.3-0.2,0.4-0.3l2.4,17
	C581.3,218.2,581.3,218.1,581.2,218"/>
<path fill="#D73534" d="M580.7,221.1c0,12.1-9.8,21.9-21.9,21.9c-12.1,0-21.9-9.8-21.9-21.9c0-12.1,9.8-21.9,21.9-21.9
	C570.9,199.3,580.7,209.1,580.7,221.1"/>
<path fill="#E95045" d="M574.5,213.3c0,7.1-6.9,12.9-15.4,12.9c-8.5,0-15.4-5.8-15.4-12.9c0-7.2,6.9-12.9,15.4-12.9
	C567.6,200.4,574.5,206.2,574.5,213.3"/>
<path fill="#D73534" d="M560.3,234.9c0,12.1-9.8,21.9-21.9,21.9s-21.9-9.8-21.9-21.9c0-12.1,9.8-21.9,21.9-21.9
	S560.3,222.8,560.3,234.9"/>
<path fill="#E95045" d="M516.6,234.9c0,2.8,0.5,5.5,1.5,8c3.6,2.6,8,4.1,12.8,4.1c12.1,0,21.9-9.8,21.9-21.9c0-2.8-0.5-5.5-1.5-8
	c-3.6-2.6-8-4.1-12.8-4.1C526.4,213,516.6,222.8,516.6,234.9"/>
<path fill="#2E4024" d="M541.3,223.5c0,0.7-3.5,0.8-3.8,1.4c-0.3,0.7,2.2,3.2,1.7,3.7c-0.5,0.5-3-2-3.7-1.7
	c-0.6,0.3-0.7,3.8-1.4,3.8c-0.7,0-0.8-3.5-1.4-3.8c-0.7-0.3-3.2,2.2-3.7,1.7c-0.5-0.5,2-3,1.7-3.7c-0.3-0.6-3.8-0.7-3.8-1.4
	c0-0.7,3.5-0.8,3.8-1.4c0.3-0.7-2.2-3.2-1.7-3.7c0.5-0.5,3,2,3.7,1.7c0.6-0.3,0.7-3.8,1.4-3.8c0.7,0,0.8,3.5,1.4,3.8
	c0.7,0.3,3.2-2.2,3.7-1.7c0.5,0.5-2,3-1.7,3.7C537.7,222.8,541.3,222.8,541.3,223.5"/>
<path fill="#405933" d="M534.1,216.4c-0.7,0-0.8,3.5-1.4,3.8c-0.7,0.3-3.2-2.2-3.7-1.7c-0.5,0.5,2,3,1.7,3.7
	c-0.3,0.6-3.8,0.7-3.8,1.4c0,0.7,3.5,0.8,3.8,1.4c0.3,0.7-2.2,3.2-1.7,3.7c0.5,0.5,3-2,3.7-1.7c0.3,0.1,0.5,0.9,0.6,1.8
	c1.4-2,2.2-4.6,2.2-7.5c0-0.3,0-0.7,0-1h0C534.8,219.9,534.8,216.4,534.1,216.4"/>
<path fill="#2E4024" d="M532,217.3c-0.6,0.1-1.1,0.3-1.6,0.6c1.2,1.5,2,3.5,2.3,5.6c0.5-0.1,1-0.2,1.4-0.4
	C534,220.8,533.2,218.8,532,217.3"/>
<path fill="#2E4024" d="M567.4,199.6c0.2,0.5-2.7,1.6-3,2c-0.3,0.5,1.9,1.2,1.3,1.7c-0.7,0.5-3.5,0.1-4.4,0.3
	c-0.9,0.2-1.3,1.8-2.4,1.8c-1.2,0-1.5-1.5-2.4-1.8c-0.9-0.2-3.7,0.2-4.4-0.3c-0.6-0.5,1.6-1.2,1.3-1.7c-0.3-0.4-3.2-1.5-3-2
	c0.2-0.4,3,0.2,3.5-0.2c0.4-0.4-0.9-1.9-0.3-2.1c0.6-0.2,2.5,1.1,3.4,1c0.8-0.1,1.2-1.6,2-1.6c0.8,0,1.2,1.5,2,1.6
	c0.8,0.1,2.8-1.1,3.4-1c0.7,0.2-0.7,1.7-0.3,2.1C564.4,199.8,567.3,199.2,567.4,199.6"/>
<path fill="#405933" d="M563.5,197.5c-0.8,0.3-2,0.9-2.6,0.8c-0.8-0.1-1.2-1.6-2-1.6c-0.8,0-1.2,1.5-2,1.6c-0.8,0.1-2.8-1.1-3.4-1
	c-0.7,0.2,0.7,1.7,0.3,2.1c-0.4,0.4-3.3-0.3-3.5,0.2c-0.2,0.5,2.7,1.6,3,2c0.3,0.5-1.5,1.1-1.4,1.6
	C557.6,202.7,562.1,200.4,563.5,197.5"/>
<path fill="#2E4024" d="M557.9,201.1c-0.4,0-0.7-0.2-0.9-0.4c-2.6-5.1,0.1-7.9,0.2-8c0.3-0.3,0.9-0.3,1.3-0.2
	c0.4,0.2,0.5,0.6,0.2,0.9c-0.1,0.1-2.3,2.4,0,6.9c0.2,0.3-0.1,0.7-0.6,0.8C558.1,201.1,558,201.1,557.9,201.1"/>
<path fill="#D0424A" d="M707.8,496.5c-32.6,0-59-26.4-59-59.1c0-32.6,26.4-59,59-59c32.6,0,59,26.4,59,59
	C766.8,470.1,740.4,496.5,707.8,496.5"/>
<path fill="#C83445" d="M742.8,435c-0.2-0.2-0.3-0.4-0.6-0.5c-13.7-9.6-27.9-20.4-39.9-28c-1.9-1.1-5.5-0.9-8.1,0.3
	c-8.4,6.8-14.4,13.5-17.8,20.3c-0.8,1.3-1.4,2.7-1.7,4c-0.1,0.4-0.3,0.8-0.4,1.2c0,0.1,0.1,0.2,0.1,0.3c-0.9,6,1.5,12.2-0.1,17.7
	c0.2,0.8,0.8,1.7,1.7,2.5l42.7,42.7c21.2-4,38.4-19.3,45.1-39.4L742.8,435z"/>
<path fill="#48172E" d="M739.9,456.1c3.2-0.5,1.7-1.2,2.3-3.6c1.7-6.7,3.9-12.4,0.8-16.8c-1.2-1.8-60.3-13.9-62.8-12.7
	c-10.5,8.5-3.3,18.7-5.8,27.4c0.4,1.8,2.8,3.8,5.4,4.3C697,457.9,718.2,459.3,739.9,456.1"/>
<path fill="#6D3B55" d="M739.9,438.1c3.2-0.5,4.3-2.2,2.3-3.6c-13.7-9.6-27.9-20.4-39.9-28c-1.9-1.1-5.5-0.9-8.1,0.3
	c-10.5,8.5-17.4,16.9-19.9,25.5c0.4,1.8,2.8,3.8,5.4,4.3C697,439.8,718.2,441.2,739.9,438.1"/>
<path fill="#48172E" d="M701.2,409c-9.8,8-16.5,15.8-19.4,23.8c0-0.1-0.1-0.2-0.1-0.3c2.2-8,8-15.9,17-23.9c1-0.1,2,0,2.8,0.2
	C701.5,408.9,701.3,408.9,701.2,409"/>
<path fill="#48172E" d="M678.8,446.7c0-1,0-2.1-0.1-3.2c21.7,4.3,43.1,4.2,60.7,2.1c2-0.3,3.9-1.3,5-2.5c-0.2,1.7-0.6,3.6-1.1,5.6
	c-0.1,0-0.2,0-0.3,0C719.8,451.6,697.3,450.1,678.8,446.7"/>
<path fill="#F5F3E1" d="M741.4,451.8c-22.1,2.9-43.8,1.3-61.4-2.1c-0.5-0.1-1-0.3-1.5-0.5c0.2-0.8,0.2-1.7,0.3-2.5
	c18.5,3.4,41,4.9,64.2,2c0.1,0,0.2,0,0.3,0c-0.2,0.9-0.5,1.9-0.7,2.9C742.2,451.6,741.9,451.7,741.4,451.8"/>
<path fill="#F5F3E1" d="M739.4,445.6c-17.6,2.1-39,2.2-60.7-2.1c-0.1-1-0.2-2-0.2-3c22.4,4.2,44.5,4.1,62.7,2.1
	c1.2-0.2,2.3-0.6,3.3-1.1c0,0.5-0.1,1-0.1,1.5C743.3,444.3,741.4,445.3,739.4,445.6"/>
<path fill="#FFFFFF" d="M713.3,425.4c0.7,1.1,0.1,3-1.7,4c-6.1,3.5-13.5,3.5-19.5,0c-1.8-1-2.5-2.9-1.7-4c0.7-1.1,2.4-1.4,3.7-0.7
	c4.9,2.4,10.6,2.4,15.5,0C711,424,712.6,424.3,713.3,425.4"/>
<path fill="#FFFFFF" d="M712,421.7c0.8,1.1,0.1,2.8-1.6,3.6c-5.7,2.6-12.1,2-17.1-1c-1.5-0.9-1.8-2.5-0.8-3.6
	c0.9-1.1,2.4-1.4,3.5-0.9c3.7,1.9,8.4,2.3,12.6,0.8C709.7,420.1,711.3,420.6,712,421.7"/>
<path fill="#FFFFFF" d="M708.7,419.3c0,1.4-1,2.6-2.4,2.6c-3-0.1-6-0.5-8.9-1.1c-1.3-0.2-2.2-1.6-2-2.9c0.2-1.4,1.4-2.4,2.6-2.2
	c2.7,0.5,5.5,0.8,8.3,1C707.6,416.8,708.7,417.9,708.7,419.3"/>
<path fill="#FFFFFF" d="M706.5,415.6c0,1-0.7,1.8-1.6,1.8c-2-0.2-3.9-0.4-5.8-0.7c-0.9-0.1-1.5-1-1.4-2c0.1-1,0.9-1.7,1.7-1.6
	c1.8,0.3,3.7,0.5,5.6,0.7C705.8,413.8,706.5,414.6,706.5,415.6"/>
<path fill="#FFFFFF" d="M696.9,414.6c0,1.6,1.7,2.7,3.6,2.4c1.9-0.3,6.1-0.7,5.7-2.3c-0.5-2.1-6.6-1.2-4.8-5.3
	C701.4,409.5,696.8,410.7,696.9,414.6"/>
<path fill="#F5F3E1" d="M698.7,412.9c0-0.1-0.1,1,0.6,1.9c0.7,0.9,1.9,1.4,3,1.7c1.5,0.3,3,0.3,3.8,0.3c0,0-0.1,0-0.1,0
	c0.2-0.3,0.4-0.7,0.4-1.1c0-0.2,0-0.3-0.1-0.5c-0.7,0.1-2.3,0.1-3.7-0.2c-2.3-0.3-2.8-2-2.7-2c-0.3,0,0.4-2.1,0.6-2.1
	c0.7-0.9,1-1.7-0.4-0.7C699.1,410.6,698.6,412.9,698.7,412.9"/>
<path fill="#F5F3E1" d="M698.9,419.9c0,0,2.4,1.6,5.3,1.5c2.2,0,4.2-0.7,5-1.1c-0.2,0-0.4,0.1-0.6,0.1c-0.1,0-0.1,0-0.2,0.1
	c0.2-0.4,0.3-0.8,0.3-1.3c0-0.1,0-0.2,0-0.3c-0.8,0.3-2.6,0.9-4.4,0.9c-2.4,0.1-4.6-1.3-4.5-1.2c-0.1,0.1-2.4-1.6-2.1-1.6
	c-0.4-0.5-0.3-0.6-0.4-0.9c0.1-0.3-0.7,0-0.3,1.3C697.3,418.9,698.9,419.9,698.9,419.9"/>
<path fill="#F5F3E1" d="M711.7,424.4c0.5-0.6,0.7-1.2,0.6-1.8c-1.2,0.3-4.1,0.9-7,1.1c-3.7,0.2-7-1.5-6.9-1.6
	c-0.2,0.2-2.3-1.7-2.7-2.4c-0.3-0.1-0.7-0.2-1-0.1c0,0.1,0,0.1,0,0.2c0.3,2.1,2.7,3.9,2.7,3.9c-0.1,0.1,3.7,2.3,7.8,2
	c2.8-0.2,5.5-0.8,6.8-1.1C712,424.4,711.8,424.4,711.7,424.4"/>
<path fill="#F5F3E1" d="M695.6,419.4C695.6,419.4,695.6,419.3,695.6,419.4C695.6,419.3,695.6,419.4,695.6,419.4"/>
<path fill="#F5F3E1" d="M710.8,427.2C710.7,427.2,710.7,427.2,710.8,427.2c0,0.1-3.8,1.5-7.5,1.4c-3.8,0.1-7-1.9-6.9-2
	c-0.1,0.2-1.5-1.1-2.3-2c-0.5-0.2-0.9-0.3-1.4-0.3c0.4,1.9,2.5,3.7,2.5,3.7c-0.1,0,3.7,2.6,7.9,2.5c4.1,0.1,8.1-1.4,8.3-1.6
	c0,0,0.1-0.1,0.1-0.1C712,427.5,711,427.4,710.8,427.2"/>
<path fill="#F1EFDA" d="M732.2,344.2c-5.6,4.8-15.6,4.8-19.4-2c-3.5-7,2.1-15.2,9.3-17.1c7.2-2,14.9-0.6,17.1,3.2
	C741.1,332.2,737.8,339.4,732.2,344.2"/>
<path fill="#DAD8C6" d="M729.5,344.9c-4.4,3.8-12.2,3.8-15.2-1.6c-2.8-5.5,1.7-11.9,7.3-13.4c5.6-1.5,11.7-0.4,13.4,2.5
	C736.4,335.5,733.9,341.2,729.5,344.9"/>
<path fill="#F1EFDA" d="M722.5,330.9c1.7,7.7-3.2,17.1-11.6,17.3c-8.3-0.1-13.3-9.6-11.6-17.3c1.7-7.7,6.9-14.4,11.6-14.6
	C715.6,316.5,720.8,323.2,722.5,330.9"/>
<path fill="#DAD8C6" d="M721.8,331.4c-1.7-7.4-6.7-13.8-11.1-13.9c-0.1,0-0.3,0-0.4,0c2,2.5,3.7,5.9,4.5,9.6
	c1.7,7.4-3.1,16.4-11.1,16.5c-0.4,0-0.9,0-1.3-0.1c2,2.6,4.9,4.3,8.4,4.4C718.7,347.8,723.5,338.8,721.8,331.4"/>
<path fill="#A8D1A3" d="M99,384.6c-34.7,0-62.9-28.2-62.9-62.9c0-34.7,28.1-62.9,62.9-62.9c34.7,0,62.9,28.2,62.9,62.9
	C161.8,356.4,133.7,384.6,99,384.6"/>
<path fill="#96BB92" d="M124.1,292.8l-2.2-2l-3,3.5l-5.3-5.3l0,0l-2.9-1.5l-10.2,21.2c-0.8-1.1-2-1.8-3.5-1.8c-1.5,0-2.9,0.8-3.6,2
	c-0.8-0.2-1.7-0.4-2.6-0.4c-2.3,0-4.4,0.8-6.1,2.2c-1.2-0.5-2.5-0.8-3.8-0.8c-4.7,0-8.6,3.3-9.5,7.7c-0.5-0.2-0.9-0.3-1.4-0.3
	c-2.4,0-4.3,1.9-4.3,4.3c0,0.5,0.1,0.9,0.2,1.4h-1.8c1.8,4.9,4.8,9.3,8.6,12.9l-0.1,0.1l45.4,45.4c22.9-7.3,40.1-27.3,43.3-51.7
	L124.1,292.8L124.1,292.8z"/>
<path fill="#F1EFDA" d="M101.4,311.4c0,2.4-1.9,4.3-4.3,4.3c-2.4,0-4.3-1.9-4.3-4.3c0-2.4,1.9-4.3,4.3-4.3
	C99.5,307.1,101.4,309,101.4,311.4"/>
<path fill="#F1EFDA" d="M108,312.7c0,2.4-1.9,4.3-4.3,4.3c-2.4,0-4.3-1.9-4.3-4.3c0-2.4,1.9-4.3,4.3-4.3
	C106.1,308.4,108,310.4,108,312.7"/>
<path fill="#DAD8C6" d="M100.2,310.9c0,1.3-1.1,2.4-2.4,2.4s-2.4-1.1-2.4-2.4c0-1.3,1.1-2.4,2.4-2.4S100.2,309.6,100.2,310.9"/>
<polygon fill="#EC6955" points="113.7,289.2 89.6,331.9 110.7,287.6 "/>
<polygon fill="#EC6955" points="124.4,293 90.3,328.3 121.9,290.8 "/>
<path fill="#F1EFDA" d="M119,322.7c0,6.6-10.6,12-23.8,12c-13.1,0-23.8-5.4-23.8-12c0-6.6,10.7-12,23.8-12
	C108.3,310.7,119,316,119,322.7"/>
<path fill="#F1EFDA" d="M74.3,321.9c0,2.4-1.9,4.3-4.3,4.3c-2.4,0-4.3-1.9-4.3-4.3c0-2.4,1.9-4.3,4.3-4.3
	C72.4,317.6,74.3,319.5,74.3,321.9"/>
<path fill="#F1EFDA" d="M127.7,321.3c0,2.4-1.9,4.3-4.3,4.3c-2.4,0-4.3-1.9-4.3-4.3c0-2.4,1.9-4.3,4.3-4.3
	C125.8,317,127.7,318.9,127.7,321.3"/>
<path fill="#F1EFDA" d="M114.7,313.8c0,2.4-1.9,4.3-4.3,4.3c-2.4,0-4.3-1.9-4.3-4.3c0-2.4,1.9-4.3,4.3-4.3
	C112.8,309.6,114.7,311.5,114.7,313.8"/>
<path fill="#F1EFDA" d="M90.6,319.8c0,5.3-4.3,9.7-9.7,9.7c-5.3,0-9.7-4.3-9.7-9.7c0-5.3,4.3-9.7,9.7-9.7
	C86.3,310.1,90.6,314.4,90.6,319.8"/>
<path fill="#F1EFDA" d="M126,321.4c0,5.3-4.3,9.7-9.7,9.7c-5.3,0-9.7-4.3-9.7-9.7c0-5.3,4.3-9.7,9.7-9.7
	C121.7,311.8,126,316.1,126,321.4"/>
<path fill="#DAD8C6" d="M125.8,324.2c0,4.9-4.1,8.9-9.3,8.9s-9.3-4-9.3-8.9c0-4.9,4.1-8.9,9.3-8.9S125.8,319.3,125.8,324.2"/>
<path fill="#DAD8C6" d="M114.1,322.3c0,5.3-4.3,9.7-9.7,9.7c-5.3,0-9.7-4.3-9.7-9.7c0-5.3,4.3-9.7,9.7-9.7
	C109.8,312.6,114.1,316.9,114.1,322.3"/>
<path fill="#F1EFDA" d="M100.6,318.4c0,5.3-4.3,9.7-9.7,9.7c-5.3,0-9.7-4.3-9.7-9.7c0-5.3,4.3-9.7,9.7-9.7
	C96.2,308.7,100.6,313.1,100.6,318.4"/>
<path fill="#DAD8C6" d="M116.6,318.3c0,2.4-1.9,4.3-4.3,4.3c-2.4,0-4.3-1.9-4.3-4.3c0-2.4,1.9-4.3,4.3-4.3
	C114.7,314,116.6,315.9,116.6,318.3"/>
<path fill="#DAD8C6" d="M103.3,321.9c0,2.4-1.9,4.3-4.3,4.3s-4.3-1.9-4.3-4.3c0-2.4,1.9-4.3,4.3-4.3S103.3,319.5,103.3,321.9"/>
<path fill="#DAD8C6" d="M91.5,321.9c0,2.4-1.9,4.3-4.3,4.3c-2.4,0-4.3-1.9-4.3-4.3c0-2.4,1.9-4.3,4.3-4.3
	C89.5,317.6,91.5,319.5,91.5,321.9"/>
<path fill="#DAD8C6" d="M80.4,320.3c0,0.8-0.7,1.5-1.5,1.5c-0.8,0-1.5-0.7-1.5-1.5c0-0.8,0.7-1.5,1.5-1.5
	C79.7,318.8,80.4,319.5,80.4,320.3"/>
<path fill="#DAD8C6" d="M89.5,314.3c0,0.8-0.7,1.5-1.5,1.5c-0.8,0-1.5-0.7-1.5-1.5c0-0.8,0.7-1.5,1.5-1.5
	C88.8,312.7,89.5,313.4,89.5,314.3"/>
<path fill="#DAD8C6" d="M96.3,322.3c0,0.8-0.7,1.5-1.5,1.5c-0.8,0-1.5-0.7-1.5-1.5c0-0.8,0.7-1.5,1.5-1.5
	C95.6,320.8,96.3,321.4,96.3,322.3"/>
<path fill="#1D1D1B" d="M107.4,344.5c0,1.4-1.1,2.5-2.5,2.5H87.2c-1.4,0-2.5-1.1-2.5-2.5c0-1.4,1.1-2.5,2.5-2.5h17.7
	C106.2,342.1,107.4,343.2,107.4,344.5"/>
<path fill="#363635" d="M64.1,323.2c4.8,12.9,17.3,22.1,31.9,22.1c14.6,0,27.1-9.2,31.9-22.1H64.1z"/>
<path fill="#1D1D1B" d="M96,345.4c14.6,0,27.1-9.2,31.9-22.1H96V345.4z"/>
<path fill="#D3A008" d="M623.9,595.1c0-0.1,0-0.2-0.1-0.2C623.9,595,623.9,595,623.9,595.1"/>
<path fill="#D3A008" d="M624.7,597.3c0-0.1-0.1-0.2-0.1-0.2C624.7,597.2,624.7,597.3,624.7,597.3"/>
<path fill="#D3A008" d="M623,590.5c0,0,0-0.1,0-0.1C623,590.5,623,590.5,623,590.5"/>
<path fill="#D3A008" d="M623.3,592.8c0-0.1,0-0.1,0-0.2C623.3,592.7,623.3,592.8,623.3,592.8"/>
<path fill="#D3A008" d="M627,601.5c0,0-0.1-0.1-0.1-0.1C627,601.4,627,601.5,627,601.5"/>
<path fill="#D3A008" d="M625.8,599.5c0-0.1-0.1-0.1-0.1-0.2C625.7,599.3,625.7,599.4,625.8,599.5"/>
<path fill="#862121" d="M623,590.4c-0.1-0.7-0.1-1.5-0.1-2.2C622.9,588.9,622.9,589.7,623,590.4"/>
<path fill="#862121" d="M623.8,594.9c-0.2-0.7-0.4-1.4-0.5-2C623.5,593.5,623.6,594.2,623.8,594.9"/>
<path fill="#862121" d="M623.3,592.6c-0.1-0.7-0.2-1.4-0.3-2.1C623,591.2,623.1,591.9,623.3,592.6"/>
<path fill="#862121" d="M624.6,597.1c-0.3-0.7-0.5-1.3-0.7-2C624.1,595.8,624.4,596.4,624.6,597.1"/>
<path fill="#862121" d="M625.7,599.3c-0.3-0.6-0.6-1.3-0.9-1.9C625,598,625.3,598.6,625.7,599.3"/>
<path fill="#862121" d="M626.9,601.4c-0.4-0.6-0.8-1.3-1.2-1.9C626.1,600.1,626.5,600.7,626.9,601.4"/>
<path fill="#D3A008" d="M628.5,603.4C628.5,603.4,628.5,603.4,628.5,603.4C628.5,603.4,628.5,603.4,628.5,603.4"/>
<path fill="#862121" d="M628.4,603.4c-0.5-0.6-1-1.2-1.4-1.9C627.5,602.1,627.9,602.8,628.4,603.4"/>
<g>
	<path fill="#884047" d="M646,145.1c-3.7,9.2-1.2,18.1,5.4,19.8c5.3,1.4,12.3-0.9,16.5-5.7c0.3-0.3,0.9-0.5,1.5-0.6
		c1.8,0,4,0.3,6.1,1.5c0,0,0,0,0,0c-1.4-1-2.8-1.5-4.1-1.7c1.2,0,2.7,0.1,4.3,0.4c0.6,0.9,1.5,2.1,3.2,2.5c0,0,0,0,0,0
		c-1.3-0.5-2.1-1.5-2.6-2.4c0.6,0.1,1.3,0.2,2,0.4c1,0.6,2.1,1.2,3.3,1.7c0,0,0,0,0,0c-1-0.5-1.9-1-2.7-1.5c1.4,0.3,3,0.8,4.5,1.2
		c0,0,0,0,0,0l0,0c-2.4-1.2-4.6-2.5-6.4-3.8c1.6,0.3,3.4,0.8,5.2,2.1l0,0c-2-1.8-4.2-2.4-6-2.7c-0.2-0.2-0.4-0.3-0.6-0.5
		c0,0,0,0,0,0c0.7-0.2,1.5-0.3,2.4-0.1c-0.9-0.4-1.7-0.3-2.3-0.2c0-0.6-0.1-1.7,1.6-1.7c-2.3-0.2-2,1.2-2.2,1.6
		c-2.3-1.8-3.7-3.5-3.8-4.7c0.4-6.4-3-12.9-7.7-15.7C657.9,131.4,649.9,135.9,646,145.1"/>
	<path fill="#57202D" d="M646,145.1C646,145.1,646,145.1,646,145.1l36.9,15.2c0.2,0.1,0.5,0.1,0.7,0.2c0,0,0,0,0,0l0,0
		c-2.4-1.2-4.6-2.5-6.4-3.8c1.6,0.3,3.4,0.8,5.2,2.1l0,0c-2-1.8-4.2-2.4-6-2.7c-0.2-0.2-0.4-0.3-0.6-0.5c0,0,0,0,0,0
		c0.7-0.2,1.5-0.3,2.4-0.1c-0.9-0.4-1.7-0.3-2.3-0.2c0-0.6-0.1-1.7,1.6-1.7c-2.3-0.2-2,1.2-2.2,1.6c-2.3-1.8-3.7-3.5-3.8-4.7
		c0.4-6.4-3-12.9-7.7-15.7C657.9,131.4,649.9,135.9,646,145.1"/>
	<path fill="#869B29" d="M621.3,156.2c2.5-17,23.8-10.1,24.6-9.8c-0.1,0.1-0.1,0.2-0.2,0.3c-0.7,1.4-4,7.6-5.7,8.1
		c-2.1,0.7-4-3-4-3.1c-2.1,0.2-2.2,4.7-4.2,5.3c-2.1,0.7-4.2-4.2-4.1-4.2c-2.2,0.2-2.1,5.9-4.1,6.5
		C622.5,159.6,621.9,157.8,621.3,156.2"/>
	<path fill="#70841F" d="M621.3,156.2c3.8-11.1,23.8-10.1,24.6-9.8c-0.1,0.1-0.1,0.2-0.2,0.3c-0.7,1.4-4,7.6-5.7,8.1
		c-2.1,0.7-4-3-4-3.1c-2.1,0.2-2.2,4.7-4.2,5.3c-2.1,0.7-4.2-4.2-4.1-4.2c-2.2,0.2-2.1,5.9-4.1,6.5
		C622.5,159.6,621.9,157.8,621.3,156.2"/>
	<path fill="#869B29" d="M622.4,130.4c1.4,5.3-3-0.8-4.9,0.4c-0.5,0.3-1.2,1-1.8,1.9l31.5,13c0.1,0,0.2,0,0.2,0c0-0.1,0-0.2-0.1-0.3
		c-0.4-1.5-2.1-8-3.5-8.8c-1.8-1.1-4.4,1.9-4.4,2c-2-0.7-1-4.9-2.8-5.9c-1.8-1.1-4.8,3-4.8,3.1c-2-0.7-1.5-5.2-2.4-7
		C628.7,127.1,621,125.1,622.4,130.4"/>
	<path fill="#70841F" d="M618.9,138.8c4.7-2.8-2.6-1.5-3.2-3.8c-0.1-0.5-0.2-1.6,0-2.6l31.5,13c0.1,0.1,0.1,0.2,0.1,0.2
		c-0.1,0.1-0.2,0.1-0.3,0.2c-1.3,0.8-7.1,4.2-8.7,3.8c-2.1-0.5-1.8-4.5-1.7-4.5c-1.9-0.9-4.2,2.8-6.1,2.3c-2.1-0.5-1.3-5.5-1.2-5.6
		c-1.9-0.9-4.7,2.7-6.6,3.3C621.2,145.6,614.2,141.6,618.9,138.8"/>
	<path fill="#70841F" d="M635.8,121c-10.1,13.8,9.8,24,10.6,24.2c0-0.1,0.1-0.2,0.1-0.3c0.5-1.5,2.5-8.2,1.6-9.7c-1-2-5-0.7-5-0.6
		c-1.4-1.7,1.7-4.9,0.7-6.7c-1-2-5.9,0-5.9,0.1c-1.4-1.7,2.6-5.7,1.7-7.5C639.1,119.4,637.4,120.2,635.8,121"/>
	<path fill="#869B29" d="M635.8,121c-5.1,10.6,9.8,24,10.6,24.2c0-0.1,0.1-0.2,0.1-0.3c0.5-1.5,2.5-8.2,1.6-9.7c-1-2-5-0.7-5-0.6
		c-1.4-1.7,1.7-4.9,0.7-6.7c-1-2-5.9,0-5.9,0.1c-1.4-1.7,2.6-5.7,1.7-7.5C639.1,119.4,637.4,120.2,635.8,121"/>
</g>
<path fill="#A3D7DD" d="M638.2,588.3c4.2,4,10.1,6.4,17.4,5.5c12.9-1.6,24.2-12.3,26-25.2c0.8-6.1-0.9-10.8-3.6-13.8c0,0,0,0,0,0
	l0.8,0.8l23.9,23.8c0.4-2.5,0.6-5.1,0.6-7.7c0-25.9-21-46.8-46.8-46.8c-25.9,0-46.8,21-46.8,46.8c0,25.9,21,46.8,46.8,46.8
	c3.7,0,7.3-0.4,10.8-1.3L638.2,588.3C638.2,588.3,638.2,588.3,638.2,588.3"/>
<path fill="#7DBECB" d="M702.7,579.4l-23.9-23.8l-0.8-0.8c0,0,0,0,0,0c2.8,3,4.5,7.7,3.6,13.8c-1.8,12.9-13.1,23.6-26,25.2
	c-7.3,0.9-13.2-1.5-17.4-5.5c0,0,0,0,0,0l29.1,29C685.5,613,699.6,598.1,702.7,579.4"/>
<path fill="#D3A008" d="M666,552.1c0.1-0.1,0.2-0.1,0.3-0.2C666.2,552,666.1,552.1,666,552.1"/>
<path fill="#D3A008" d="M670.7,551.1c0.1,0,0.2,0,0.3,0C670.9,551.2,670.8,551.2,670.7,551.1"/>
<path fill="#D3A008" d="M671.6,551.3c0.1,0,0.2,0,0.3,0.1C671.8,551.3,671.7,551.3,671.6,551.3"/>
<path fill="#D3A008" d="M672.6,551.5c0.1,0,0.2,0,0.2,0.1C672.7,551.5,672.6,551.5,672.6,551.5"/>
<path fill="#D3A008" d="M667.9,551.4c0.1,0,0.1,0,0.2,0C668,551.4,667.9,551.4,667.9,551.4"/>
<path fill="#D3A008" d="M666.9,551.7c0.1,0,0.2-0.1,0.3-0.1C667.1,551.6,667,551.7,666.9,551.7"/>
<path fill="#D3A008" d="M668.9,551.2c0.1,0,0.1,0,0.2,0C669.1,551.2,669,551.2,668.9,551.2"/>
<path fill="#D3A008" d="M664.5,553.2c0.1-0.1,0.2-0.1,0.2-0.2C664.6,553,664.6,553.1,664.5,553.2"/>
<path fill="#D3A008" d="M669.8,551.1c0.1,0,0.2,0,0.3,0C670,551.1,669.9,551.1,669.8,551.1"/>
<path fill="#D3A008" d="M677,553.9c0.1,0.1,0.2,0.1,0.2,0.2C677.2,554,677.1,554,677,553.9"/>
<path fill="#D3A008" d="M676.2,553.2c0.1,0.1,0.2,0.1,0.3,0.2C676.4,553.4,676.3,553.3,676.2,553.2"/>
<path fill="#D3A008" d="M665.2,552.6c0.1-0.1,0.2-0.1,0.3-0.2C665.4,552.5,665.3,552.5,665.2,552.6"/>
<path fill="#D3A008" d="M673.7,551.8C673.7,551.8,673.7,551.8,673.7,551.8C673.7,551.8,673.7,551.8,673.7,551.8"/>
<path fill="#D3A008" d="M674.5,552.2c0.1,0,0.2,0.1,0.3,0.1C674.7,552.3,674.6,552.3,674.5,552.2"/>
<path fill="#D3A008" d="M675.4,552.7c0.1,0.1,0.2,0.1,0.3,0.2C675.6,552.8,675.5,552.7,675.4,552.7"/>
<path fill="#862121" d="M663.8,553.8c0.2-0.2,0.5-0.5,0.7-0.7C664.2,553.4,664,553.6,663.8,553.8"/>
<path fill="#862121" d="M638.2,588.3c-0.6-0.6-1.2-1.2-1.7-1.8C637,587.2,637.6,587.8,638.2,588.3"/>
<path fill="#862121" d="M673.8,551.9c0.3,0.1,0.5,0.2,0.8,0.4C674.3,552.1,674,552,673.8,551.9"/>
<path fill="#862121" d="M672.8,551.5c0.3,0.1,0.6,0.2,0.9,0.3C673.4,551.7,673.1,551.6,672.8,551.5"/>
<path fill="#862121" d="M671.9,551.3c0.2,0,0.4,0.1,0.6,0.2C672.3,551.4,672.1,551.3,671.9,551.3"/>
<path fill="#862121" d="M674.8,552.3c0.2,0.1,0.4,0.2,0.6,0.3C675.2,552.6,675,552.5,674.8,552.3"/>
<path fill="#862121" d="M677.2,554.1c0.2,0.2,0.5,0.4,0.7,0.7C677.7,554.5,677.5,554.3,677.2,554.1"/>
<path fill="#862121" d="M664.7,553c0.2-0.1,0.3-0.3,0.5-0.4C665.1,552.7,664.9,552.8,664.7,553"/>
<path fill="#862121" d="M676.5,553.4c0.2,0.1,0.4,0.3,0.5,0.5C676.8,553.7,676.7,553.6,676.5,553.4"/>
<path fill="#862121" d="M675.7,552.9c0.2,0.1,0.4,0.2,0.5,0.4C676,553.1,675.8,553,675.7,552.9"/>
<path fill="#862121" d="M667.2,551.6c0.2-0.1,0.5-0.1,0.7-0.2C667.6,551.5,667.4,551.5,667.2,551.6"/>
<path fill="#862121" d="M666.3,552c0.2-0.1,0.4-0.2,0.5-0.2C666.7,551.8,666.5,551.9,666.3,552"/>
<path fill="#862121" d="M665.5,552.4c0.2-0.1,0.3-0.2,0.5-0.3C665.9,552.2,665.7,552.3,665.5,552.4"/>
<path fill="#862121" d="M670.1,551.1c0.2,0,0.4,0,0.6,0C670.5,551.1,670.3,551.1,670.1,551.1"/>
<path fill="#862121" d="M671,551.2c0.2,0,0.4,0,0.6,0.1C671.4,551.2,671.2,551.2,671,551.2"/>
<path fill="#862121" d="M668,551.4c0.3-0.1,0.6-0.1,0.9-0.2C668.6,551.2,668.3,551.3,668,551.4"/>
<path fill="#862121" d="M669.1,551.2c0.2,0,0.4,0,0.7,0C669.6,551.1,669.3,551.2,669.1,551.2"/>
<path fill="#862121" d="M655.6,593.8c12.9-1.6,24.2-12.3,26-25.2c0.8-6.1-0.9-10.8-3.6-13.8c-0.2-0.2-0.5-0.5-0.7-0.7
	c-0.1-0.1-0.1-0.1-0.2-0.2c-0.2-0.2-0.4-0.3-0.5-0.5c-0.1-0.1-0.2-0.1-0.3-0.2c-0.2-0.1-0.4-0.3-0.5-0.4c-0.1-0.1-0.2-0.1-0.3-0.2
	c-0.2-0.1-0.4-0.2-0.6-0.3c-0.1,0-0.2-0.1-0.3-0.1c-0.3-0.1-0.5-0.2-0.8-0.4c0,0,0,0-0.1,0c-0.3-0.1-0.6-0.2-0.9-0.3
	c-0.1,0-0.2,0-0.2-0.1c-0.2-0.1-0.4-0.1-0.6-0.2c-0.1,0-0.2,0-0.3-0.1c-0.2,0-0.4-0.1-0.6-0.1c-0.1,0-0.2,0-0.3,0
	c-0.2,0-0.4,0-0.6,0c-0.1,0-0.2,0-0.3,0c-0.2,0-0.4,0-0.7,0c-0.1,0-0.1,0-0.2,0c-0.3,0-0.6,0.1-0.9,0.2c-0.1,0-0.1,0-0.2,0
	c-0.2,0.1-0.5,0.1-0.7,0.2c-0.1,0-0.2,0.1-0.3,0.1c-0.2,0.1-0.4,0.2-0.5,0.2c-0.1,0-0.2,0.1-0.3,0.2c-0.2,0.1-0.3,0.2-0.5,0.3
	c-0.1,0.1-0.2,0.1-0.3,0.2c-0.2,0.1-0.3,0.2-0.5,0.4c-0.1,0.1-0.2,0.1-0.2,0.2c-0.2,0.2-0.5,0.4-0.7,0.7c-7.7,7.9-10.8,7.3-14.2,6.3
	c-9.7-2.9-18.5-0.5-18.7,11.3c0,0.7,0,1.5,0.1,2.2c0,0,0,0.1,0,0.1c0.1,0.7,0.2,1.4,0.3,2.1c0,0.1,0,0.1,0,0.2
	c0.1,0.7,0.3,1.4,0.5,2c0,0.1,0,0.2,0.1,0.2c0.2,0.7,0.4,1.3,0.7,2c0,0.1,0.1,0.2,0.1,0.2c0.3,0.7,0.6,1.3,0.9,1.9
	c0,0.1,0.1,0.1,0.1,0.2c0.4,0.6,0.7,1.3,1.2,1.9c0,0,0.1,0.1,0.1,0.1c0.4,0.6,0.9,1.3,1.4,1.9c0,0,0,0,0,0c0.5,0.6,1.1,1.2,1.7,1.8
	C642.4,592.3,648.3,594.7,655.6,593.8"/>
<path fill="#751F1F" d="M636.6,586.7c4.2,4.9,10.7,8.1,18.9,7.1c12.9-1.6,24.2-12.3,26-25.2c0.7-5.2-0.4-9.5-2.5-12.5L636.6,586.7z"
	/>
<path fill="#B44536" d="M678.4,558.6c0-0.1-0.1-0.2-0.1-0.3c-0.2-0.4-0.5-0.7-0.7-1.1l0,0c-3.4-4.5-9.4-5.2-13.2-1.3
	c-6.9,7-11.1,6.8-14.1,5.9c-8.6-2.5-17.5-1.2-17.3,10c0.1,4.7,2,9.8,5.4,13.7l0,0c0.1,0.1,0.2,0.2,0.3,0.3c0.3,0.3,0.5,0.6,0.8,0.8
	c0.2,0.2,0.5,0.4,0.7,0.7c0.3,0.3,0.6,0.5,0.9,0.7c0.3,0.2,0.5,0.4,0.8,0.6c0.3,0.2,0.7,0.4,1,0.6c0.3,0.2,0.6,0.3,0.9,0.5
	c0.4,0.2,0.7,0.4,1.1,0.5c0.3,0.1,0.6,0.3,0.9,0.4c0.4,0.2,0.8,0.3,1.2,0.4c0.3,0.1,0.6,0.2,1,0.3c0.4,0.1,0.9,0.2,1.4,0.3
	c0.3,0.1,0.6,0.1,1,0.2c0.5,0.1,1.1,0.1,1.6,0.1c0.3,0,0.6,0,0.9,0c0.8,0,1.7-0.1,2.6-0.2c8.2-1,15.6-6,20.1-12.5
	c2.3-3.4,3.9-7.1,4.4-11c0.1-0.7,0.1-1.5,0.2-2.1c0-0.2,0-0.4,0-0.6c0-0.5,0-1-0.1-1.5c0-0.2,0-0.3,0-0.5c-0.1-0.6-0.2-1.2-0.3-1.8
	c0-0.1-0.1-0.2-0.1-0.3c-0.1-0.5-0.3-0.9-0.4-1.3c-0.1-0.2-0.1-0.3-0.2-0.5C678.7,559.3,678.6,559,678.4,558.6"/>
<path fill="#862121" d="M669.3,554.3L669.3,554.3c0.4,0,0.7,0.4,0.7,0.8l-3.6,31.6c0,0.4-0.4,0.7-0.8,0.7c-0.4,0-0.7-0.4-0.7-0.8
	l3.6-31.6C668.6,554.6,668.9,554.3,669.3,554.3"/>
<path fill="#862121" d="M661.5,560.4L661.5,560.4c0.4,0,0.7,0.4,0.7,0.8l-3.2,28.4c0,0.4-0.4,0.7-0.8,0.7c-0.4,0-0.7-0.4-0.7-0.8
	l3.2-28.4C660.7,560.7,661.1,560.4,661.5,560.4"/>
<path fill="#862121" d="M653.6,563.2L653.6,563.2c0.4,0,0.7,0.4,0.7,0.8l-2.8,25.7c0,0.4-0.4,0.7-0.8,0.7c-0.4,0-0.7-0.4-0.7-0.8
	l2.8-25.7C652.8,563.4,653.2,563.2,653.6,563.2"/>
<path fill="#862121" d="M646.4,561.7L646.4,561.7c0.4,0,0.7,0.4,0.7,0.8l-2.8,25.7c0,0.4-0.4,0.7-0.8,0.7c-0.4,0-0.7-0.4-0.7-0.8
	l2.8-25.7C645.7,561.9,646,561.7,646.4,561.7"/>
<path fill="#862121" d="M639.6,562.4L639.6,562.4c0.4,0,0.7,0.4,0.7,0.8l-2.1,19.1c0,0.4-0.4,0.7-0.8,0.7c-0.4,0-0.7-0.4-0.7-0.8
	l2.1-19.1C638.9,562.6,639.2,562.4,639.6,562.4"/>
<path fill="#862121" d="M675.5,557L675.5,557c0.4,0,0.7,0.4,0.7,0.8l-2.5,22c0,0.4-0.4,0.7-0.8,0.7c-0.4,0-0.7-0.4-0.7-0.8l2.5-22
	C674.7,557.3,675.1,557,675.5,557"/>
<path fill="#862121" d="M634.6,574.1L634.6,574.1c-0.3,0.3-0.1,0.8,0.3,1l24.9,14.6c0.4,0.2,1,0.1,1-0.3v0c0-0.4,0.1-0.8-0.3-1
	l-24.9-14.6C635.3,573.7,634.9,573.8,634.6,574.1"/>
<path fill="#862121" d="M635.9,565.3L635.9,565.3c-0.3,0.3-0.1,0.8,0.3,1l31.7,18.6c0.4,0.2,1,0.1,1-0.3c0-0.4,0.1-0.8-0.3-1
	L636.9,565C636.5,564.8,636.1,564.9,635.9,565.3"/>
<path fill="#862121" d="M648,563.3L648,563.3c-0.3,0.3-0.1,0.8,0.3,1l25.8,14.9c1.1,0.7,1.3-1,0.8-1.3L649,563
	C648.7,562.8,648.3,563,648,563.3"/>
<path fill="#862121" d="M659,560.9L659,560.9c-0.3,0.3-0.1,0.8,0.3,1l17.9,10.7c0.4,0.2,1,0.1,1-0.3h0c0-0.4,0.1-0.8-0.3-1
	L660,560.7C659.7,560.4,659.3,560.6,659,560.9"/>
<path fill="#862121" d="M665.9,556.8L665.9,556.8c-0.3,0.3-0.1,0.8,0.3,1l11.6,6.9c0.4,0.2,1,0.1,1-0.3h0c0-0.4,0.1-0.8-0.3-1
	l-11.6-6.9C666.6,556.3,666.2,556.4,665.9,556.8"/>
<path fill="#862121" d="M669.1,563.3l-2.6,23.4c0,0.4-0.4,0.7-0.8,0.7c-0.4,0-0.7-0.4-0.7-0.8l2.5-22.1L669.1,563.3z"/>
<path fill="#862121" d="M661.2,569l-2.3,20.6c0,0.4-0.4,0.7-0.8,0.7c-0.4,0-0.7-0.4-0.7-0.8l2.2-19.3L661.2,569z"/>
<path fill="#862121" d="M653.1,574.8l-1.6,14.9c0,0.4-0.4,0.7-0.8,0.7l0,0c-0.4,0-0.7-0.4-0.7-0.8l1.5-13.5L653.1,574.8z"/>
<path fill="#862121" d="M645.1,580.6l-0.8,7.6c0,0.4-0.4,0.7-0.8,0.7c-0.4,0-0.7-0.4-0.7-0.8l0.7-6.3L645.1,580.6z"/>
<path fill="#862121" d="M676.1,558.3l-2.5,21.6c0,0.4-0.4,0.6-0.8,0.7c-0.4,0-0.7-0.4-0.7-0.8l2.3-20.3L676.1,558.3z"/>
<path fill="#862121" d="M644.7,580.9l15.1,8.8c0.4,0.2,1,0.1,1-0.3v0c0-0.4,0.1-0.8-0.3-1L646,580L644.7,580.9z"/>
<path fill="#862121" d="M652,575.6l15.8,9.3c0.4,0.2,1,0.1,1-0.3c0-0.4,0.1-0.8-0.3-1l-15.2-9L652,575.6z"/>
<path fill="#862121" d="M659,570.6l15,8.7c1.1,0.7,1.3-1,0.8-1.3l-14.5-8.4L659,570.6z"/>
<path fill="#862121" d="M665.7,565.8l11.5,6.9c0.4,0.2,1,0.1,1-0.3h0c0-0.4,0.1-0.8-0.3-1l-10.9-6.6L665.7,565.8z"/>
<path fill="#862121" d="M672,561.2l5.8,3.4c0.4,0.2,1,0.1,1-0.3l0,0c0-0.4,0.1-0.8-0.3-1l-5.2-3.1L672,561.2z"/>
<path fill="#FFE4CE" d="M670.5,558.8c1.9,0,3.4,1.5,3.4,3.4c0,1.9-1.5,3.4-3.4,3.4c-1.9,0-3.4-1.5-3.4-3.4
	C667.1,560.3,668.6,558.8,670.5,558.8"/>
<path fill="#FFE4CE" d="M673.3,560.3c0.4,0.5,0.6,1.2,0.6,1.9c0,1.9-1.5,3.4-3.4,3.4c-1.1,0-2.1-0.5-2.7-1.4L673.3,560.3z"/>
<g>
	<path fill="#48172E" d="M195,690.1c-10.1-0.5-15.8-4-18.7-7.5c-2-2.5-2.9-8.1-0.5-10.5c6.5-6.6,9.6-1,21.9,2.7
		c12.7,3.7,21.8-4.7,25.1-1.5C225.5,675.9,215.8,690.2,195,690.1"/>
	<path fill="#6D3B55" d="M222.7,673.3c-3.4-3.1-12.4,5.2-25.1,1.5c-12.3-3.7-15.4-9.2-21.9-2.7c-0.6,0.6-0.9,1.3-1.2,2.2
		c0.2,0.3,0.4,0.6,0.6,0.8c3.1,3.6,13.4,8.2,24.4,8.7C213,683.9,219.6,678.3,222.7,673.3"/>
	<path fill="#70841F" d="M222.4,672.5c-0.7,0-1.5,0.2-2.2,0.6c-1.2,0.7-1.8,1.8-1.9,3c1,0.5,2.4,0.4,3.5-0.3c0.7-0.4,1.2-1,1.6-1.7
		c-0.1-0.3-0.2-0.6-0.3-0.9C222.9,672.9,222.7,672.7,222.4,672.5"/>
	<path fill="#70841F" d="M223.5,673.3c0.5-0.7,0.7-1.4,0.8-2.1c-0.2-0.2-0.4-0.5-0.7-0.7c0,0,0,0,0,0c-0.1,0.6-0.3,1.2-0.7,1.7
		c-0.7,0.9-1.7,1.5-2.6,1.6c0,0.4,0.1,0.8,0.2,1.1C221.5,675,222.7,674.4,223.5,673.3"/>
	<path fill="#869B29" d="M218.7,672.1c-0.4,0.2-0.7,0.5-0.9,0.9c1,1.1,2.7,1.4,4,0.6c0.4-0.2,0.7-0.5,0.9-0.9
		C221.7,671.6,220,671.3,218.7,672.1"/>
	<path fill="#869B29" d="M223.3,673.8c-0.4,0.1-0.8,0.2-1.2,0.4c-1.3,0.8-1.9,2.4-1.4,3.8c0.4-0.1,0.8-0.2,1.2-0.4
		C223.3,676.8,223.8,675.2,223.3,673.8"/>
	<path fill="#48172E" d="M179.5,717.3c14.9,7,25.7,6.4,32.6,3.4c4.8-2.1,10.3-9.4,8.8-14.6c-4.3-14.4-12.9-8.8-33.4-12.8
		c-21.1-4.4-27.6-23.4-34.9-21.3C146.7,673.6,149.7,701.6,179.5,717.3"/>
	<path fill="#6D3B55" d="M152.7,671.9c7.2-1.9,13.7,16.9,34.8,21.3c20.5,4,29.1-1.5,33.4,12.8c0.4,1.3,0.3,2.6,0,4.1
		c-0.5,0.3-1,0.5-1.5,0.7c-7.2,2.8-25.5,1.5-41.7-6.2C158.4,694.7,153.3,681.5,152.7,671.9"/>
	<path fill="#70841F" d="M153.6,671c1.1,0.5,2,1.4,2.7,2.5c1.1,1.9,1.2,4,0.5,5.7c-1.8-0.1-3.7-1.2-4.8-3.1c-0.7-1.2-1-2.4-1-3.6
		c0.3-0.4,0.7-0.7,1.2-1C152.7,671.3,153.2,671.2,153.6,671"/>
	<path fill="#70841F" d="M151.5,671.3c-0.2-1.3,0-2.6,0.5-3.7c0.5-0.2,0.9-0.4,1.5-0.4c0,0,0.1,0,0.1,0c-0.3,0.9-0.4,2-0.3,3.1
		c0.3,1.9,1.2,3.4,2.5,4.4c-0.3,0.6-0.7,1.1-1.1,1.5C153.1,675.2,151.8,673.5,151.5,671.3"/>
	<path fill="#869B29" d="M159.3,673.4c0.4,0.6,0.6,1.3,0.7,2c-2.3,0.8-4.8-0.1-6.1-2.2c-0.4-0.6-0.6-1.3-0.7-2
		C155.4,670.4,158,671.2,159.3,673.4"/>
	<path fill="#869B29" d="M151.4,672.2c0.6,0.4,1,0.9,1.4,1.5c1.3,2.1,0.8,4.8-0.9,6.5c-0.6-0.4-1-0.9-1.4-1.5
		C149.2,676.6,149.6,673.9,151.4,672.2"/>
</g>
<path fill="#D0424A" d="M122.5,596.2c-24.4,0-44.2-19.8-44.2-44.2c0-24.4,19.8-44.2,44.2-44.2c24.4,0,44.2,19.8,44.2,44.2
	C166.7,576.4,146.9,596.2,122.5,596.2"/>
<path fill="#C83445" d="M165.1,563.8l-30.9-30.9l-4.2,6.6l-10.2-10.2l-4.3,8.6l9.5,9.5l-14.8,22.9l24.3,24.3
	C149.3,590.4,161,578.7,165.1,563.8"/>
<path fill="#FAB900" d="M139.4,559.4c-0.7,9.4-8.8,16.5-18.3,15.9c-9.4-0.7-16.5-8.8-15.9-18.3c0.7-9.4,8.8-16.5,18.2-15.9
	C133,541.8,140.1,550,139.4,559.4"/>
<path fill="#F29A00" d="M139.4,559.4c-0.7,9.4-8.8,16.5-18.3,15.9l2.4-34.1C133,541.8,140.1,550,139.4,559.4"/>
<path fill="#869B29" d="M112.6,526.2c-0.5,0-1,0.1-1.5,0.2c-0.1,0.7-0.1,1.4-0.1,2.1c0.3,6.6,5.1,11.8,10.7,11.5
	c0.5,0,1-0.1,1.5-0.2c0.1-0.7,0.1-1.4,0.1-2.1C123,531.2,118.3,526,112.6,526.2"/>
<path fill="#70841F" d="M121.8,540.1c0.5,0,1-0.1,1.5-0.2c-3.4-5.2-8.4-10.8-12-13.5c0,0,0,0,0,0c-0.1,0.7-0.1,1.4-0.1,2.1
	C111.3,535.2,116.1,540.4,121.8,540.1"/>
<path fill="#869B29" d="M124.1,539c0,0.3,0,0.7,0,1c0.5,0.1,0.9,0.2,1.4,0.2c4.5,0.4,8.4-2.5,8.7-6.3c0-0.3,0-0.7,0-1
	c-0.5-0.1-0.9-0.2-1.4-0.2C128.3,532.3,124.4,535.1,124.1,539"/>
<path fill="#70841F" d="M134.3,533.9c0-0.3,0-0.7,0-1c-3.8,1.9-8,4.8-10.1,7.1c0,0,0,0,0,0c0.5,0.1,0.9,0.2,1.4,0.2
	C130.1,540.6,134,537.7,134.3,533.9"/>
</svg>
