<?xml version="1.0" encoding="utf-8"?>
<!-- Generator: Adobe Illustrator 18.0.0, SVG Export Plug-In . SVG Version: 6.00 Build 0)  -->
<!DOCTYPE svg PUBLIC "-//W3C//DTD SVG 1.1//EN" "http://www.w3.org/Graphics/SVG/1.1/DTD/svg11.dtd">
<svg version="1.1" id="Lag_1" xmlns="http://www.w3.org/2000/svg" xmlns:xlink="http://www.w3.org/1999/xlink" x="0px" y="0px"
	 viewBox="0 0 400 120" enable-background="new 0 0 400 120" xml:space="preserve">
<g>
	<path fill="#F5F2E0" d="M124.6,20.2c-1.1-1.1-2.4-1.3-4-1.3c-1.6,0-2.9,0.8-4,2.1c-0.8,1.1-1.6,2.4-1.9,4.3c-0.3,2.1,0.3,4,1.6,5.4
		c0,0,0.3,0.3,0.5,0.3c1.3,1.1,2.9,1.6,5.4,1.3c2.4,0,4-0.5,4.8-1.6c1.1-1.3,1.3-3.5,0.3-6.4C126.2,22.6,125.4,21,124.6,20.2"/>
	<path fill="#F5F2E0" d="M386.9,22.3c-1.1-1.1-2.4-1.3-4-1.3s-2.9,0.8-4,2.1c-0.8,1.1-1.6,2.4-1.9,4.3c-0.3,2.1,0.3,4,1.6,5.4
		c0,0,0.3,0.3,0.5,0.3c1.3,1.1,2.9,1.6,5.4,1.3c2.4,0,4-0.5,4.8-1.6c1.1-1.3,1.3-3.5,0.3-6.4C388.5,24.5,387.7,23.1,386.9,22.3"/>
	<path fill="#F5F2E0" d="M123.2,95.2c-2.4,0-5.6-1.1-7-5.9c-0.8-3.5-1.6-11-1.9-23.3v-3.8c-0.3-17.7,0.8-21.7,1.6-23
		c1.6-2.1,3.5-3.2,5.6-3.2h0.5c0,0,0,0.3,0.3,0.3c2.4,0.3,4,2.1,4.6,4.6c0.8,4,1.6,12.6,2.4,26c0.3,5.4,0.5,10.2,0.8,13.7
		c0,4.3,0,7-0.3,8.8C128.8,94.2,125.6,95.2,123.2,95.2L123.2,95.2z M384.3,96.3c-2.4,0-5.6-0.5-7-5.6c-0.8-3.5-1.6-11-1.9-23v-3.5
		c-0.3-17.7,0.8-21.4,1.6-22.8c1.6-2.1,3.5-2.9,5.6-2.9h0.5c0,0,0,0,0.3,0c2.4,0.3,4,1.9,4.6,4.6c0.8,4,1.6,12.6,2.4,26
		c0.3,5.6,0.5,10.2,0.8,13.7c0,4.3,0,6.4-0.3,8.3C389.9,95.8,386.7,96.3,384.3,96.3L384.3,96.3z M208.7,48.6c0,0-1.1,0-1.6,0.3
		c-3.2,0.5-5.6,1.9-7.5,4.6c-4,5.6-6.2,11-6.2,15.8c0,1.1,0,2.4,0.3,3.5c0.5,3.2,1.9,5.6,3.8,7c1.6,1.3,4.6,1.9,8.8,1.9h0.3
		c4.6,0,7.8-0.8,10.2-2.4s3.8-4,4.6-7.8c0.5-1.9,0.8-3.8,0.5-5.9c0-1.9-0.3-4-0.8-5.9c-1.1-4-2.7-7-5.1-8.6
		C213.5,49.4,211.4,48.6,208.7,48.6v-1.3V48.6z M206.6,97.6c-2.7,0-5.4-0.3-8-1.1c-8.3-2.1-14.2-7-17.7-14.5c-1.6-4-2.7-8-2.9-12.3
		c0-3.8,0.5-7.5,1.9-11.5c2.7-8.6,8-15.3,15.8-20.4c2.9-2.4,5.4-3.8,7.5-4.3c0.8-0.3,1.6-0.3,2.9-0.3h0.3c1.6,0,3.2,0.3,5.4,0.5
		c8.8,1.1,15.5,5.4,20.6,12.3c3.5,5.1,5.4,11.3,5.6,18.5c0,1.1,0,2.1,0,3.5c-0.5,8.8-3.2,15.8-7.8,20.6c-3.5,3.8-8.3,6.2-13.9,7.5
		C212.5,97.4,209.5,97.6,206.6,97.6L206.6,97.6z M252.4,99c-1.1,0-2.1,0-3.5-0.3c-2.9-0.8-4.6-1.9-5.4-3.8
		c-0.5-1.3-1.3-5.4-2.7-28.1c-0.5-8.6-0.8-14.7-1.1-18.8v-3.2c0.3-3.5,1.1-5.6,2.7-6.2c0.5-0.3,1.3-0.3,1.9-0.3
		c1.6,0,3.2,0.8,5.1,2.1c1.3,1.1,1.9,1.3,2.1,1.3h0.3c1.1-1.1,3.5-2.4,6.7-4c2.9-1.6,6.4-2.4,9.9-2.4l0,0c2.9,0,5.9,0.5,9.4,1.6
		c8,2.7,12.1,6.4,12.3,11c0,1.6-0.3,2.7-1.1,3.5c-1.1,1.1-2.9,1.6-4.3,1.6l0,0c-2.4,0-5.1-0.5-8.6-1.9c-2.9-1.1-5.6-1.3-7.8-1.3
		c-3.5,0-6.2,1.1-8,3.8c-2.9,4.3-4.3,13.1-3.8,26.5c0.8,17.7-0.5,18.2-1.3,18.8C254.5,99,253.5,99,252.4,99L252.4,99z M41.7,99.8
		c-7.8-0.3-13.7-1.9-18-4.8c-2.9-2.1-4.3-4.6-4.3-7c-0.3-1.3,0.3-3.2,1.3-4.8c0.8-1.1,1.9-1.3,3.8-1.3c1.9,0,4.6,0.5,8,1.3
		c4.3,1.1,7.8,1.9,10.2,1.9c0.3,0,0.5,0,0.5,0c1.9,0,2.7-0.5,2.9-1.1c-0.5-0.8-3.5-4-19.6-17.4c-4.8-4-7-9.4-6.2-16.3
		c0.8-7,4-12.1,9.6-15.5c3.8-2.1,7.5-3.2,11.8-3.2h1.1c4.8,0.3,8.3,1.6,10.7,4.6c2.9,3.5,3.5,6.2,2.4,8c-0.8,1.3-2.4,2.1-5.1,2.1
		c-1.1,0-2.1,0-3.5-0.3c-1.1-0.3-2.1-0.3-3.2-0.3c-2.1,0-4.3,0.5-5.9,1.3c-2.4,1.3-3.5,3.2-3.5,5.6c0,1.3,1.3,3.8,6.7,7.8
		c4.3,2.9,8.8,6.7,13.7,11.5c2.7,2.9,4.3,5.4,5.1,7c0.5,1.3,1.1,2.9,1.1,5.1c0,0.8,0,1.3-0.3,2.4c-0.3,9.4-6.7,13.9-18.8,13.9
		C42.5,100.1,41.7,99.8,41.7,99.8 M337.6,100.1c-2.9,0-5.1-0.8-6.4-2.4l0,0c-0.3-0.5-1.1-1.9-4.8-22.5c-2.9-17.7-4.3-20.9-4.8-21.4
		c0,0,0,0-0.3-0.3c-1.6-2.4-3.5-3.8-5.6-3.8s-4.8,1.3-7.8,3.8c-5.1,4.3-7.8,14.7-7.2,30.6c0.3,12.3-1.3,14.7-2.9,15.3
		c-0.8,0.3-1.3,0.3-2.1,0.3c-2.4,0-4-1.3-5.4-4.3s-2.4-8.3-2.7-16.1c-0.3-1.9-0.3-3.5-0.3-5.4c-0.3-18.8,5.6-30.8,18-36.5
		c4-1.9,8-2.7,11.5-2.7c4.3,0,7.8,1.3,11.3,4c3.8,2.9,6.7,7,8.6,11.5c1.9,4.6,3.8,11.8,5.4,22c1.3,8.6,2.1,15,2.1,19v2.1
		c0,0,0,0,0,0.3C343,99.2,339.5,100.1,337.6,100.1L337.6,100.1z M154.8,100.6c-7.8-0.3-13.7-1.9-18-4.8c-2.9-2.1-4.3-4.6-4.3-7
		c-0.3-1.6,0.3-3.2,1.3-4.8c0.8-1.1,1.9-1.3,3.8-1.3c1.9,0,4.6,0.5,8,1.3c4.3,1.1,7.8,1.9,10.2,1.9c0.3,0,0.5,0,0.5,0
		c1.9,0,2.7-0.5,2.9-1.1c-0.5-0.8-3.5-4-19.6-17.4c-4.8-4-7-9.4-6.2-16.3s4-12.1,9.6-15.5c3.8-2.1,7.5-3.2,11.8-3.2h1.1
		c4.8,0.3,8.3,1.6,10.7,4.6c2.9,3.5,3.5,6.2,2.4,8c-0.8,1.3-2.4,2.1-5.1,2.1c-1.1,0-2.1,0-3.5-0.3c-1.1-0.3-2.1-0.3-3.2-0.3
		c-2.1,0-4.3,0.5-5.9,1.3c-2.4,1.3-3.5,3.2-3.5,5.6c0,1.3,1.3,3.8,6.7,7.8c4.3,2.9,8.8,6.7,13.7,11.5c2.7,2.9,4.3,5.4,5.1,7
		c0.5,1.3,1.1,2.9,1.1,5.1c0,0.8,0,1.3-0.3,2.4c-0.3,9.4-6.7,13.9-18.8,13.9C155.6,100.6,154.8,100.6,154.8,100.6 M365.8,100.1
		c-2.1,0-4.6-0.5-7.2-1.9c-5.4-3.2-9.1-7.8-11.3-14.2c-0.8-2.7-1.3-9.6-1.6-21.2l-0.3-14.7c0.3-27.3,1.3-33,2.1-34.6
		c1.3-2.4,2.9-3.5,4.8-3.5c1.9,0,3.8,1.1,5.6,2.9c1.3,1.3,2.7,6.4,3.5,34.3c0.3,11.5,0.8,19.6,1.3,24.4c0.3,4.8,1.1,8,1.9,9.9
		c1.1,1.9,2.7,2.9,4.8,4c2.4,1.1,4,2.9,4.8,5.6c0.3,0.5,0.3,1.1,0.3,1.6c0,2.1-0.8,3.8-2.4,5.4C370.3,99.5,368.2,100.1,365.8,100.1
		L365.8,100.1z M84.4,44.8c-1.3,0-1.9,0-2.7,0.3c-1.9,0.5-2.9,1.3-3.5,3.2c-0.5,2.1-0.8,8-1.1,17.4c0,2.9,0,5.4,0,7.2
		c0,3.8,0.3,5.6,0.3,6.4c1.1-0.3,2.9-1.1,5.6-3.2c2.9-2.1,5.6-5.1,8-8.6c3.8-4.8,5.4-9.1,5.4-12.6c0-2.7-1.3-4.8-3.8-6.7
		c-1.3-1.3-3.2-2.1-5.1-2.7C86.5,45.1,85.4,44.8,84.4,44.8v-1.3V44.8z M71.8,110c-1.6,0-2.9-0.3-4.3-1.6c-1.3-1.3-2.1-3.8-2.7-8.6
		c0-0.8,0-1.3-0.3-1.9c-0.3-3.2-0.5-6.7-0.8-18.5c-0.3-17.7-0.3-28.7,0.5-33.8c0.8-5.1,3.5-9.1,7.5-12.1c2.1-1.6,5.6-2.4,9.9-2.4
		h3.2c6.2,0.5,11,2.1,14.7,4.6c5.4,3.8,8.8,8.6,10.5,14.7c0.5,2.1,0.8,4,0.8,5.9c0,4-0.8,8-2.7,11.8c-3.5,7-8,12.6-12.9,17.4
		c-5.4,4.8-10.2,6.7-14.7,6.7l0,0c-0.8,0-2.1,0.3-2.4,1.1c0,0.3-0.3,0.5-0.3,0.5c-0.3,0.3-0.3,0.8-0.3,4.8v2.4c0,2.4,0,2.7,0,4
		c-0.5,2.1-1.6,3.2-3.2,4C73.6,110.2,72.6,110,71.8,110L71.8,110z"/>
	<path fill="#F5F2E0" d="M195.3,39.2c0,0.3,0,0.3,0,0.3s-0.3,0-0.3-0.3l-4-8.3c0-0.3,0-0.3,0-0.3s0.3,0,0.3,0.3L195.3,39.2z"/>
	<path fill="#F5F2E0" d="M192.4,26.9c0-0.5,0-1.1,0-1.6V25l-0.3-0.3c-0.3,0.3-0.3,0.3-0.5,0.5c0,0,0,0-0.3,0.3v-0.3
		c0-0.3,0-0.8,0-1.1l0,0c-0.5,0.5-0.8,1.3-1.3,2.1c0,0,0,0.3-0.3,0.3c0,0,0-0.3,0.3-0.3c0.5-0.8,0.8-1.6,1.1-2.4
		c-0.3-0.3-0.5-0.8-1.1-1.1c0,0,0,0.3-0.3,0.3v0.3v-0.3c0-0.3-0.3-0.5-0.3-0.8c-0.3-0.3-0.5-0.3-0.8-0.5c0,0.3,0,0.5,0,0.5v0.3
		c0,0,0,0-0.3-0.3c-0.5-0.5-1.1-0.8-1.9-1.3h-0.3l-0.3,0.3c0,0.5,0,0.8,0,1.3v0.3c0,0,0,0-0.3-0.3c-0.3,0-0.3-0.3-0.5-0.3
		c-0.3,0.8-0.3,1.3-0.3,2.1c0.3,0.5,0.8,1.1,1.1,1.6c0,0,0,0,0.3,0.3h-0.3c-0.3,0-0.5,0-0.8,0l0,0c0.8,0.5,1.1,1.1,1.3,1.3
		c0,0,0,0,0.3,0.3h-0.3h-0.3c0,0.3,0,0.3,0.3,0.5c0.3,0.5,0.5,0.8,0.8,1.1c1.6,0.3,3.2,0.8,4.6,2.1c0,0,0,0,0.3,0.3v-0.3
		C191.3,29.8,191.8,28.2,192.4,26.9"/>
	<path fill="#F5F2E0" d="M197.5,32c0.3-0.3,0.5-0.5,0.8-1.1c0,0,0,0,0-0.3v-0.3c-0.3,0-0.3,0-0.5,0h-0.3c0,0,0,0,0.3,0
		c0.3-0.3,0.5-0.3,0.8-0.5l0,0c-0.5,0-1.3,0.3-2.1,0.5h-0.3h0.3c0.8-0.3,1.6-0.5,2.4-1.1c0-0.3,0-0.8,0-1.1c0,0-0.3,0-0.3,0.3
		c0,0,0,0-0.3,0c0,0,0,0,0-0.3c0-0.3,0.3-0.5,0.3-0.5c0-0.3-0.3-0.5-0.3-0.8c-0.3,0.3-0.3,0.3-0.3,0.5c0,0,0,0,0,0.3c0,0,0,0,0-0.3
		c0-0.5-0.3-1.1-0.5-1.6c0,0-0.3,0-0.3-0.3h-0.3c-0.3,0.3-0.5,0.5-0.8,0.8c0,0,0,0,0,0.3c0,0,0,0,0-0.3c0-0.3,0-0.3,0-0.5
		c-0.5,0.3-1.1,0.8-1.6,1.1c-0.3,0.5-0.3,1.1-0.3,1.6c0,0,0,0,0,0.3c0,0,0,0,0-0.3c-0.3-0.3-0.3-0.3-0.5-0.5l0,0
		c0,0.3-0.3,0.8-0.3,1.1c0,0,0,0,0,0.3c0,0,0,0,0-0.3c0,0,0,0-0.3-0.3c0,0,0,0.3-0.3,0.3c0,0.3-0.3,0.8-0.3,1.1
		c1.1,0.8,1.9,2.1,1.9,3.5c0,0,0,0,0,0.3c0,0,0,0,0-0.3C195,33,196.1,32.2,197.5,32"/>
	<path fill="#F5F2E0" d="M192.9,34.4l-2.7-0.3c-0.3,0-0.3,0-0.3,0.3c0,0,0,0.3,0.3,0.3l2.9,0.5L192.9,34.4z"/>
	<path fill="#F5F2E0" d="M188.1,36.5c-0.5,0.3-0.8,0.3-1.3,0.3h-0.3h-0.3c0-0.3,0.3-0.3,0.3-0.5c0,0,0,0,0.3-0.3c0,0,0,0-0.3,0
		c-0.3,0.3-0.5,0.3-0.8,0.3l0,0c0.5-0.5,1.1-1.1,1.6-1.6l0.3-0.3c0,0-0.3,0-0.3,0.3c-0.8,0.5-1.3,1.1-2.1,1.6
		c-0.3-0.3-0.5-0.3-0.8-0.5l0.3-0.3c0,0,0,0,0.3,0c0,0,0,0-0.3,0c-0.3,0-0.5,0-0.8,0c-0.3-0.3-0.3-0.5-0.5-0.5c0.3,0,0.3,0,0.5,0
		c0,0,0,0,0.3,0c0,0,0,0-0.3,0c-0.5-0.3-0.8-0.8-1.3-1.3v-0.3l0.3-0.3c0.3,0,0.8-0.3,1.1-0.3c0,0,0,0,0.3,0c0,0,0,0-0.3,0l-0.3-0.3
		c0.5-0.3,1.1-0.5,1.9-0.8c0.5,0,1.1,0.3,1.6,0.5c0,0,0,0,0.3,0c0,0,0,0,0-0.3s0-0.5-0.3-0.8l0,0c0.3,0,0.8,0.3,1.1,0.3
		c0,0,0,0,0.3,0c0,0,0,0,0-0.3v-0.3h0.3c0.3,0,0.8,0.3,1.1,0.3c0.3,1.3,1.1,2.7,2.1,3.5c0,0,0,0,0.3,0c0,0,0,0-0.3,0
		C190.5,34.9,189.1,35.5,188.1,36.5"/>
	<path fill="#F5F2E0" d="M27,38.4c0,0,0.8-4.8-2.9-8v0.8c0,0-3.2-4.3-9.6-1.3c-4.6,2.1-5.6,4.6-5.6,4.6s1.6-0.8,2.9,2.1
		c0.8,1.6,3.8,4,7,3.5c3.2-0.5,4-0.5,4-0.5l-1.3,1.1c0,0,4.8-1.9,5.9,0c0,0-4-9.1-11.3-8.3C16,32.2,22.4,30.6,27,38.4"/>
	<path fill="#F5F2E0" d="M328.5,28.8c-4.8,1.9-7.2,6.4-6.4,10.7c-0.3-0.3-0.5-0.3-0.8-0.5c-0.8-4,1.9-8.3,6.4-10.2
		c2.4-1.1,4.8-1.1,7.2-0.5C332.8,27.7,330.7,28,328.5,28.8"/>
	<path fill="#F5F2E0" d="M322.9,31.4c0,0-0.3-4,3.2-6.7v0.8c0,0,3.2-3.5,8.3-0.3c3.8,2.1,4.6,4.3,4.6,4.3s-1.3-0.8-2.7,1.6
		c-0.8,1.3-3.5,2.9-6.2,2.4c-2.7-0.8-3.2-0.8-3.2-0.8l1.1,1.1c0,0-4-1.9-4.8-0.5c0,0,4-7.2,10.2-6.2C332.8,26.9,327.4,25,322.9,31.4
		"/>
</g>
</svg>
