<?xml version="1.0" encoding="utf-8"?>
<!-- Generator: Adobe Illustrator 18.0.0, SVG Export Plug-In . SVG Version: 6.00 Build 0)  -->
<!DOCTYPE svg PUBLIC "-//W3C//DTD SVG 1.1//EN" "http://www.w3.org/Graphics/SVG/1.1/DTD/svg11.dtd">
<svg version="1.1" id="Lag_1" xmlns="http://www.w3.org/2000/svg" xmlns:xlink="http://www.w3.org/1999/xlink" x="0px" y="0px"
	 viewBox="0 297 800 206" enable-background="new 0 297 800 206" xml:space="preserve">
<g>
	<path fill="#222222" d="M244.8,321.1c-2.1-2.1-4.8-2.7-8-2.7c-3.2,0-5.9,1.6-8,4.3c-1.6,2.1-3.2,4.8-3.7,8.5
		c-0.5,4.3,0.5,8,3.2,10.7c0,0,0.5,0.5,1.1,0.5c2.7,2.1,5.9,3.2,10.7,2.7c4.8,0,8-1.1,9.6-3.2c2.1-2.7,2.7-6.9,0.5-12.8
		C248,325.9,246.4,322.7,244.8,321.1"/>
	<path fill="#222222" d="M766.9,325.3c-2.1-2.1-4.8-2.7-8-2.7c-3.2,0-5.9,1.6-8,4.3c-1.6,2.1-3.2,4.8-3.7,8.5
		c-0.5,4.3,0.5,8,3.2,10.7c0,0,0.5,0.5,1.1,0.5c2.7,2.1,5.9,3.2,10.7,2.7c4.8,0,8-1.1,9.6-3.2c2.1-2.7,2.7-6.9,0.5-12.8
		C770.1,329.6,768.5,326.9,766.9,325.3"/>
	<path fill="#222222" d="M242.1,470.4c-4.8,0-11.2-2.1-13.9-11.7c-1.6-6.9-3.2-21.9-3.7-46.4v-7.5c-0.5-35.2,1.6-43.2,3.2-45.9
		c3.2-4.3,6.9-6.4,11.2-6.4h1.1c0,0,0,0.5,0.5,0.5c4.8,0.5,8,4.3,9.1,9.1c1.6,8,3.2,25.1,4.8,51.7c0.5,10.7,1.1,20.3,1.6,27.2
		c0,8.5,0,13.9-0.5,17.6C253.3,468.3,246.9,470.4,242.1,470.4L242.1,470.4z M761.6,472.5c-4.8,0-11.2-1.1-13.9-11.2
		c-1.6-6.9-3.2-21.9-3.7-45.9v-6.9c-0.5-35.2,1.6-42.7,3.2-45.3c3.2-4.3,6.9-5.9,11.2-5.9h1.1c0,0,0,0,0.5,0c4.8,0.5,8,3.7,9.1,9.1
		c1.6,8,3.2,25.1,4.8,51.7c0.5,11.2,1.1,20.3,1.6,27.2c0,8.5,0,12.8-0.5,16.5C772.8,471.5,766.4,472.5,761.6,472.5L761.6,472.5z
		 M412.3,377.6c0,0-2.1,0-3.2,0.5c-6.4,1.1-11.2,3.7-14.9,9.1c-8,11.2-12.3,21.9-12.3,31.5c0,2.1,0,4.8,0.5,6.9
		c1.1,6.4,3.7,11.2,7.5,13.9c3.2,2.7,9.1,3.7,17.6,3.7h0.5c9.1,0,15.5-1.6,20.3-4.8c4.8-3.2,7.5-8,9.1-15.5
		c1.1-3.7,1.6-7.5,1.1-11.7c0-3.7-0.5-8-1.6-11.7c-2.1-8-5.3-13.9-10.1-17.1C421.9,379.2,417.6,377.6,412.3,377.6v-2.7V377.6z
		 M408,475.2c-5.3,0-10.7-0.5-16-2.1c-16.5-4.3-28.3-13.9-35.2-28.8c-3.2-8-5.3-16-5.9-24.5c0-7.5,1.1-14.9,3.7-22.9
		c5.3-17.1,16-30.4,31.5-40.5c5.9-4.8,10.7-7.5,14.9-8.5c1.6-0.5,3.2-0.5,5.9-0.5h0.5c3.2,0,6.4,0.5,10.7,1.1
		c17.6,2.1,30.9,10.7,41.1,24.5c6.9,10.1,10.7,22.4,11.2,36.8c0,2.1,0,4.3,0,6.9c-1.1,17.6-6.4,31.5-15.5,41.1
		c-6.9,7.5-16.5,12.3-27.7,14.9C419.7,474.7,413.9,475.2,408,475.2L408,475.2z M499.2,477.9c-2.1,0-4.3,0-6.9-0.5
		c-5.9-1.6-9.1-3.7-10.7-7.5c-1.1-2.7-2.7-10.7-5.3-56c-1.1-17.1-1.6-29.3-2.1-37.3v-6.4c0.5-6.9,2.1-11.2,5.3-12.3
		c1.1-0.5,2.7-0.5,3.7-0.5c3.2,0,6.4,1.6,10.1,4.3c2.7,2.1,3.7,2.7,4.3,2.7h0.5c2.1-2.1,6.9-4.8,13.3-8c5.9-3.2,12.8-4.8,19.7-4.8
		l0,0c5.9,0,11.7,1.1,18.7,3.2c16,5.3,24,12.8,24.5,21.9c0,3.2-0.5,5.3-2.1,6.9c-2.1,2.1-5.9,3.2-8.5,3.2l0,0
		c-4.8,0-10.1-1.1-17.1-3.7c-5.9-2.1-11.2-2.7-15.5-2.7c-6.9,0-12.3,2.1-16,7.5c-5.9,8.5-8.5,26.1-7.5,52.8
		c1.6,35.2-1.1,36.3-2.7,37.3C503.5,477.9,501.3,477.9,499.2,477.9L499.2,477.9z M80,479.5c-15.5-0.5-27.2-3.7-35.7-9.6
		c-5.9-4.3-8.5-9.1-8.5-13.9c-0.5-2.7,0.5-6.4,2.7-9.6c1.6-2.1,3.7-2.7,7.5-2.7s9.1,1.1,16,2.7c8.5,2.1,15.5,3.7,20.3,3.7
		c0.5,0,1.1,0,1.1,0c3.7,0,5.3-1.1,5.9-2.1c-1.1-1.6-6.9-8-38.9-34.7c-9.6-8-13.9-18.7-12.3-32.5c1.6-13.9,8-24,19.2-30.9
		c7.5-4.3,14.9-6.4,23.5-6.4h2.1c9.6,0.5,16.5,3.2,21.3,9.1c5.9,6.9,6.9,12.3,4.8,16c-1.6,2.7-4.8,4.3-10.1,4.3
		c-2.1,0-4.3,0-6.9-0.5c-2.1-0.5-4.3-0.5-6.4-0.5c-4.3,0-8.5,1.1-11.7,2.7c-4.8,2.7-6.9,6.4-6.9,11.2c0,2.7,2.7,7.5,13.3,15.5
		c8.5,5.9,17.6,13.3,27.2,22.9c5.3,5.9,8.5,10.7,10.1,13.9c1.1,2.7,2.1,5.9,2.1,10.1c0,1.6,0,2.7-0.5,4.8
		c-0.5,18.7-13.3,27.7-37.3,27.7C81.6,480,80,479.5,80,479.5 M668.8,480c-5.9,0-10.1-1.6-12.8-4.8l0,0c-0.5-1.1-2.1-3.7-9.6-44.8
		c-5.9-35.2-8.5-41.6-9.6-42.7c0,0,0,0-0.5-0.5c-3.2-4.8-6.9-7.5-11.2-7.5s-9.6,2.7-15.5,7.5c-10.1,8.5-15.5,29.3-14.4,60.8
		c0.5,24.5-2.7,29.3-5.9,30.4c-1.6,0.5-2.7,0.5-4.3,0.5c-4.8,0-8-2.7-10.7-8.5c-2.7-5.9-4.8-16.5-5.3-32c-0.5-3.7-0.5-6.9-0.5-10.7
		c-0.5-37.3,11.2-61.3,35.7-72.5c8-3.7,16-5.3,22.9-5.3c8.5,0,15.5,2.7,22.4,8c7.5,5.9,13.3,13.9,17.1,22.9
		c3.7,9.1,7.5,23.5,10.7,43.7c2.7,17.1,4.3,29.9,4.3,37.9v4.3c0,0,0,0,0,0.5C679.5,478.4,672.5,480,668.8,480L668.8,480z
		 M305.1,481.1c-15.5-0.5-27.2-3.7-35.7-9.6c-5.9-4.3-8.5-9.1-8.5-13.9c-0.5-3.2,0.5-6.4,2.7-9.6c1.6-2.1,3.7-2.7,7.5-2.7
		s9.1,1.1,16,2.7c8.5,2.1,15.5,3.7,20.3,3.7c0.5,0,1.1,0,1.1,0c3.7,0,5.3-1.1,5.9-2.1c-1.1-1.6-6.9-8-38.9-34.7
		c-9.6-8-13.9-18.7-12.3-32.5c1.6-13.9,8-24,19.2-30.9c7.5-4.3,14.9-6.4,23.5-6.4h2.1c9.6,0.5,16.5,3.2,21.3,9.1
		c5.9,6.9,6.9,12.3,4.8,16c-1.6,2.7-4.8,4.3-10.1,4.3c-2.1,0-4.3,0-6.9-0.5c-2.1-0.5-4.3-0.5-6.4-0.5c-4.3,0-8.5,1.1-11.7,2.7
		c-4.8,2.7-6.9,6.4-6.9,11.2c0,2.7,2.7,7.5,13.3,15.5c8.5,5.9,17.6,13.3,27.2,22.9c5.3,5.9,8.5,10.7,10.1,13.9
		c1.1,2.7,2.1,5.9,2.1,10.1c0,1.6,0,2.7-0.5,4.8c-0.5,18.7-13.3,27.7-37.3,27.7C306.7,481.1,305.1,481.1,305.1,481.1 M724.8,480
		c-4.3,0-9.1-1.1-14.4-3.7c-10.7-6.4-18.1-15.5-22.4-28.3c-1.6-5.3-2.7-19.2-3.2-42.1l-0.5-29.3c0.5-54.4,2.7-65.6,4.3-68.8
		c2.7-4.8,5.9-6.9,9.6-6.9c3.7,0,7.5,2.1,11.2,5.9c2.7,2.7,5.3,12.8,6.9,68.3c0.5,22.9,1.6,38.9,2.7,48.5c0.5,9.6,2.1,16,3.7,19.7
		c2.1,3.7,5.3,5.9,9.6,8c4.8,2.1,8,5.9,9.6,11.2c0.5,1.1,0.5,2.1,0.5,3.2c0,4.3-1.6,7.5-4.8,10.7C733.9,478.9,729.6,480,724.8,480
		L724.8,480z M164.8,370.1c-2.7,0-3.7,0-5.3,0.5c-3.7,1.1-5.9,2.7-6.9,6.4c-1.1,4.3-1.6,16-2.1,34.7c0,5.9,0,10.7,0,14.4
		c0,7.5,0.5,11.2,0.5,12.8c2.1-0.5,5.9-2.1,11.2-6.4c5.9-4.3,11.2-10.1,16-17.1c7.5-9.6,10.7-18.1,10.7-25.1c0-5.3-2.7-9.6-7.5-13.3
		c-2.7-2.7-6.4-4.3-10.1-5.3C169.1,370.7,166.9,370.1,164.8,370.1v-2.7V370.1z M139.7,499.7c-3.2,0-5.9-0.5-8.5-3.2
		c-2.7-2.7-4.3-7.5-5.3-17.1c0-1.6,0-2.7-0.5-3.7c-0.5-6.4-1.1-13.3-1.6-36.8c-0.5-35.2-0.5-57.1,1.1-67.2
		c1.6-10.1,6.9-18.1,14.9-24c4.3-3.2,11.2-4.8,19.7-4.8h6.4c12.3,1.1,21.9,4.3,29.3,9.1c10.7,7.5,17.6,17.1,20.8,29.3
		c1.1,4.3,1.6,8,1.6,11.7c0,8-1.6,16-5.3,23.5c-6.9,13.9-16,25.1-25.6,34.7c-10.7,9.6-20.3,13.3-29.3,13.3l0,0
		c-1.6,0-4.3,0.5-4.8,2.1c0,0.5-0.5,1.1-0.5,1.1c-0.5,0.5-0.5,1.6-0.5,9.6v4.8c0,4.8,0,5.3,0,8c-1.1,4.3-3.2,6.4-6.4,8
		C143.5,500.3,141.3,499.7,139.7,499.7L139.7,499.7z"/>
	<path fill="#222222" d="M385.6,358.9c0,0.5,0,0.5,0,0.5s-0.5,0-0.5-0.5l-8-16.5c0-0.5,0-0.5,0-0.5s0.5,0,0.5,0.5L385.6,358.9z"/>
	<path fill="#222222" d="M379.7,334.4c0-1.1,0-2.1,0-3.2v-0.5l-0.5-0.5c-0.5,0.5-0.5,0.5-1.1,1.1c0,0,0,0-0.5,0.5v-0.5
		c0-0.5,0-1.6,0-2.1l0,0c-1.1,1.1-1.6,2.7-2.7,4.3c0,0,0,0.5-0.5,0.5c0,0,0-0.5,0.5-0.5c1.1-1.6,1.6-3.2,2.1-4.8
		c-0.5-0.5-1.1-1.6-2.1-2.1c0,0,0,0.5-0.5,0.5v0.5v-0.5c0-0.5-0.5-1.1-0.5-1.6c-0.5-0.5-1.1-0.5-1.6-1.1c0,0.5,0,1.1,0,1.1v0.5
		c0,0,0,0-0.5-0.5c-1.1-1.1-2.1-1.6-3.7-2.7h-0.5l-0.5,0.5c0,1.1,0,1.6,0,2.7v0.5c0,0,0,0-0.5-0.5c-0.5,0-0.5-0.5-1.1-0.5
		c-0.5,1.6-0.5,2.7-0.5,4.3c0.5,1.1,1.6,2.1,2.1,3.2c0,0,0,0,0.5,0.5h-0.5c-0.5,0-1.1,0-1.6,0l0,0c1.6,1.1,2.1,2.1,2.7,2.7
		c0,0,0,0,0.5,0.5H368h-0.5c0,0.5,0,0.5,0.5,1.1c0.5,1.1,1.1,1.6,1.6,2.1c3.2,0.5,6.4,1.6,9.1,4.3c0,0,0,0,0.5,0.5V344
		C377.6,340.3,378.7,337.1,379.7,334.4"/>
	<path fill="#222222" d="M389.9,344.5c0.5-0.5,1.1-1.1,1.6-2.1c0,0,0,0,0-0.5v-0.5c-0.5,0-0.5,0-1.1,0h-0.5c0,0,0,0,0.5,0
		c0.5-0.5,1.1-0.5,1.6-1.1l0,0c-1.1,0-2.7,0.5-4.3,1.1h-0.5h0.5c1.6-0.5,3.2-1.1,4.8-2.1c0-0.5,0-1.6,0-2.1c0,0-0.5,0-0.5,0.5
		c0,0,0,0-0.5,0c0,0,0,0,0-0.5c0-0.5,0.5-1.1,0.5-1.1c0-0.5-0.5-1.1-0.5-1.6c-0.5,0.5-0.5,0.5-0.5,1.1c0,0,0,0,0,0.5c0,0,0,0,0-0.5
		c0-1.1-0.5-2.1-1.1-3.2c0,0-0.5,0-0.5-0.5h-0.5c-0.5,0.5-1.1,1.1-1.6,1.6c0,0,0,0,0,0.5c0,0,0,0,0-0.5c0-0.5,0-0.5,0-1.1
		c-1.1,0.5-2.1,1.6-3.2,2.1c-0.5,1.1-0.5,2.1-0.5,3.2c0,0,0,0,0,0.5c0,0,0,0,0-0.5c-0.5-0.5-0.5-0.5-1.1-1.1l0,0
		c0,0.5-0.5,1.6-0.5,2.1c0,0,0,0,0,0.5c0,0,0,0,0-0.5c0,0,0,0-0.5-0.5c0,0,0,0.5-0.5,0.5c0,0.5-0.5,1.6-0.5,2.1
		c2.1,1.6,3.7,4.3,3.7,6.9c0,0,0,0,0,0.5c0,0,0,0,0-0.5C385.1,346.7,387.2,345.1,389.9,344.5"/>
	<path fill="#222222" d="M380.8,349.3l-5.3-0.5c-0.5,0-0.5,0-0.5,0.5c0,0,0,0.5,0.5,0.5l5.9,1.1L380.8,349.3z"/>
	<path fill="#222222" d="M371.2,353.6c-1.1,0.5-1.6,0.5-2.7,0.5H368h-0.5c0-0.5,0.5-0.5,0.5-1.1c0,0,0,0,0.5-0.5c0,0,0,0-0.5,0
		c-0.5,0.5-1.1,0.5-1.6,0.5l0,0c1.1-1.1,2.1-2.1,3.2-3.2l0.5-0.5c0,0-0.5,0-0.5,0.5c-1.6,1.1-2.7,2.1-4.3,3.2
		c-0.5-0.5-1.1-0.5-1.6-1.1l0.5-0.5c0,0,0,0,0.5,0c0,0,0,0-0.5,0s-1.1,0-1.6,0c-0.5-0.5-0.5-1.1-1.1-1.1c0.5,0,0.5,0,1.1,0
		c0,0,0,0,0.5,0c0,0,0,0-0.5,0c-1.1-0.5-1.6-1.6-2.7-2.7v-0.5l0.5-0.5c0.5,0,1.6-0.5,2.1-0.5c0,0,0,0,0.5,0c0,0,0,0-0.5,0l-0.5-0.5
		c1.1-0.5,2.1-1.1,3.7-1.6c1.1,0,2.1,0.5,3.2,1.1c0,0,0,0,0.5,0c0,0,0,0,0-0.5s0-1.1-0.5-1.6l0,0c0.5,0,1.6,0.5,2.1,0.5
		c0,0,0,0,0.5,0c0,0,0,0,0-0.5v-0.5h0.5c0.5,0,1.6,0.5,2.1,0.5c0.5,2.7,2.1,5.3,4.3,6.9c0,0,0,0,0.5,0c0,0,0,0-0.5,0
		C376,350.4,373.3,351.5,371.2,353.6"/>
	<path fill="#222222" d="M50.7,357.3c0,0,1.6-9.6-5.9-16v1.6c0,0-6.4-8.5-19.2-2.7c-9.1,4.3-11.2,9.1-11.2,9.1s3.2-1.6,5.9,4.3
		c1.6,3.2,7.5,8,13.9,6.9c6.4-1.1,8-1.1,8-1.1l-2.7,2.1c0,0,9.6-3.7,11.7,0c0,0-8-18.1-22.4-16.5C28.8,345.1,41.6,341.9,50.7,357.3"
		/>
	<path fill="#222222" d="M650.7,338.1c-9.6,3.7-14.4,12.8-12.8,21.3c-0.5-0.5-1.1-0.5-1.6-1.1c-1.6-8,3.7-16.5,12.8-20.3
		c4.8-2.1,9.6-2.1,14.4-1.1C659.2,336,654.9,336.5,650.7,338.1"/>
	<path fill="#222222" d="M639.5,343.5c0,0-0.5-8,6.4-13.3v1.6c0,0,6.4-6.9,16.5-0.5c7.5,4.3,9.1,8.5,9.1,8.5s-2.7-1.6-5.3,3.2
		c-1.6,2.7-6.9,5.9-12.3,4.8c-5.3-1.6-6.4-1.6-6.4-1.6l2.1,2.1c0,0-8-3.7-9.6-1.1c0,0,8-14.4,20.3-12.3
		C659.2,334.4,648.5,330.7,639.5,343.5"/>
</g>
</svg>
