<?xml version="1.0" encoding="utf-8"?>
<!-- Generator: Adobe Illustrator 18.0.0, SVG Export Plug-In . SVG Version: 6.00 Build 0)  -->
<!DOCTYPE svg PUBLIC "-//W3C//DTD SVG 1.1//EN" "http://www.w3.org/Graphics/SVG/1.1/DTD/svg11.dtd">
<svg version="1.1" id="Lag_1" xmlns="http://www.w3.org/2000/svg" xmlns:xlink="http://www.w3.org/1999/xlink" x="0px" y="0px"
	 viewBox="0 0 200 200" enable-background="new 0 0 200 200" xml:space="preserve">
<circle fill="#0E3035" cx="100" cy="100" r="90"/>
<polygon fill="#1E8484" points="47.6,126.5 77.1,145.8 93.9,149.7 100.5,160.2 113.9,160.2 133.3,139.5 140.3,128.9 "/>
<polygon fill="#FFFFFF" points="45.2,115.2 47.6,126.5 90.1,139.5 105.7,139.5 140.3,128.9 142.7,118 "/>
<polygon fill="#46C6C2" points="88.3,108.9 129.7,108.9 142.7,118 100.2,128.9 45.2,115.2 56.1,110.6 "/>
<g>
	<path fill="#F7F9F9" d="M67.7,137.1c-0.1,0-0.1,0-0.1,0l-24.4-7.8c-0.2-0.1-0.3-0.3-0.3-0.5l0.8-4.2c0.1-0.2,0.3-0.3,0.5-0.3
		c0.2,0.1,0.3,0.3,0.3,0.5l-0.7,3.8l24.1,7.6c0.2,0.1,0.3,0.3,0.3,0.5C67.9,137,67.8,137.1,67.7,137.1z"/>
</g>
<g>
	<path fill="#F7F9F9" d="M82.3,143.8L82.3,143.8l-40.9-10.9c-0.2-0.1-0.3-0.3-0.3-0.5c0.1-0.2,0.3-0.3,0.5-0.3L82.5,143
		c0.2,0.1,0.3,0.3,0.3,0.5C82.7,143.6,82.5,143.8,82.3,143.8z"/>
</g>
<g>
	<path fill="#F7F9F9" d="M107.8,143.8H93.2c-0.2,0-0.4-0.2-0.4-0.4s0.2-0.4,0.4-0.4h14.6l9.4-3.8c0.2-0.1,0.4,0,0.5,0.2
		c0.1,0.2,0,0.4-0.2,0.5l-9.5,3.9C107.9,143.7,107.8,143.8,107.8,143.8z"/>
</g>
<polygon fill="#5FA093" points="114.7,88.6 114.7,116.3 123.7,116.3 123.7,87.4 118.2,87.4 "/>
<polygon fill="#5FA093" points="82.9,116.6 91.9,116.6 91.9,96.7 82.9,99.9 "/>
<polygon fill="#FFFFFF" points="114.7,87.4 108.1,87.4 96.2,66.8 102.8,55.5 66.7,63.3 60.5,82.4 69.7,100.1 69.7,116.6 82.3,116.6 
	82.3,100.1 82.9,99.9 91.9,96.7 100.7,93.5 100.7,116.3 109.7,116.3 109.7,90.4 114.7,88.6 118.2,87.4 "/>
<path fill="#D3EAE5" d="M141,62l-8.4,14.5h-20l-10-17.3l5.7-9.8c-0.6,0-1.3-0.1-1.9-0.4l-3.7,6.5l-6.6,11.4L108,87.5h6.7h3.6h5.5
	h8.1l11.9-20.7L141,62z"/>
<path fill="#FFFFFF" d="M102.2,59.6l10.2,17.7h20.5l8.6-14.9l1.7-2.8l-5.9-10.1c1.1-0.2,2.3-0.8,3.3-1.7c2.1-2.1,2.4-5.2,0.7-6.9
	c-1.7-1.7-4.8-1.4-6.9,0.7c-0.4,0.4-0.7,0.8-0.9,1.2l-0.5-0.9h-20.5l-0.9,1.5c-0.3-0.7-0.7-1.3-1.3-1.9c-2.1-2.1-5.2-2.4-6.9-0.7
	c-1.7,1.7-1.4,4.8,0.7,6.9c0.7,0.7,1.3,1.1,2,1.4c0.7,0.3,1.3,0.4,1.9,0.4L102.2,59.6z"/>
<polygon fill="#D3EAE5" points="119.2,71.8 115.3,64.8 119.2,57.9 127.2,57.9 131.3,64.8 127.2,71.8 "/>
<polygon fill="#1E8484" points="123.2,63.1 126.2,57.9 120.3,57.9 "/>
<polygon fill="#1E8484" points="123.2,65.1 121.3,68.4 125.2,68.4 "/>
<circle fill="#1E8484" cx="115.8" cy="53.7" r="1.4"/>
<circle fill="#1E8484" cx="129.7" cy="53.7" r="1.4"/>
</svg>
