<?xml version="1.0" encoding="utf-8"?>
<!-- Generator: Adobe Illustrator 18.0.0, SVG Export Plug-In . SVG Version: 6.00 Build 0)  -->
<!DOCTYPE svg PUBLIC "-//W3C//DTD SVG 1.1//EN" "http://www.w3.org/Graphics/SVG/1.1/DTD/svg11.dtd">
<svg version="1.1" id="Lag_1" xmlns="http://www.w3.org/2000/svg" xmlns:xlink="http://www.w3.org/1999/xlink" x="0px" y="0px"
	 viewBox="0 0 200 200" enable-background="new 0 0 200 200" xml:space="preserve">
<g>
	<defs>
		<circle id="SVGID_1_" cx="100" cy="100" r="90"/>
	</defs>
	<clipPath id="SVGID_2_">
		<use xlink:href="#SVGID_1_"  overflow="visible"/>
	</clipPath>
	<g clip-path="url(#SVGID_2_)">
		<g id="sky_1_">
			<rect x="-183" y="2.8" fill="#D5EDEA" width="444.7" height="121"/>
			<polygon fill="#E7F4F1" points="-162.7,70.9 -159.5,69 -156.1,69.5 -149.8,71.1 -143.8,70.7 -142,72.6 -145.3,71.9 -150,73.1 
				-157.1,72.2 -159.4,71 -163.4,71.9 -166.4,71.4 			"/>
			<polygon fill="#E7F4F1" points="0.6,65.4 14.1,64.9 23.4,57.5 50.2,64.9 61.3,62.6 80.7,70.7 69.1,68.1 47.7,72.4 37.4,70.2 
				17,72.4 6.3,68 -7,68.4 			"/>
			<path fill="#DEEFE8" d="M134.7,29.3l16.3-12.2l15.8,3.4l24.7-3.4l18.1,15.3l15.8,14.3l-3.8,40l-35,17.6c0,0-41.7-11-42.6-11.7
				c-0.8-0.8-22.2-22.7-22.2-22.7L119.1,50L134.7,29.3z"/>
			<polygon fill="#E5F2E7" points="141.3,35.3 154.1,26.8 168.8,31.5 184.3,28.5 195.1,40.2 214.9,46.1 216.3,79.2 172.6,97.1 
				154.3,81.1 135.1,71.8 129.8,54.8 			"/>
			<path fill="#E8F0C6" d="M152.5,45.3l8.2-6.2l8,1.7l12.5-1.7l9.1,7.7l8,7.2l-1.9,20.2l-17.7,8.9c0,0-21.1-5.5-21.5-5.9
				c-0.4-0.4-11.2-11.5-11.2-11.5l-1.4-10L152.5,45.3z"/>
			<polygon fill="#E7F4F1" points="-126,29.2 -105.8,28.5 -91.7,17.8 -51.5,28.5 -21.1,28.5 -5.5,33.7 -41.8,31.4 -64.5,33.2 
				-83.3,33.7 -101.4,39.3 -113.4,38.4 -132.1,31.5 			"/>
			<polygon fill="#E7F4F1" points="54.7,93.8 61,90 67.6,91.1 80.1,94.1 91.9,93.4 95.4,97.2 88.8,95.7 79.7,98.2 65.6,96.3 
				61,93.9 53.3,95.7 47.4,94.7 			"/>
			<polygon fill="#E7F4F1" points="210.2,96.4 215.8,93 221.7,94 232.9,96.7 243.4,96 246.5,99.4 240.6,98.1 232.5,100.3 
				219.9,98.7 215.9,96.5 209,98.1 203.7,97.3 			"/>
			<polygon fill="#E7F4F1" points="72.1,114 69.5,112.5 62,114.2 53.3,114.2 46.7,115.7 44.1,116.5 49.6,116.4 55.2,118.1 
				64.4,116.4 68.9,114.4 74.7,115.7 79.8,114.9 			"/>
			<polygon fill="#E7F4F1" points="160.9,114.8 159.3,113.8 154.8,114.9 149.5,114.9 145.6,115.8 144,116.3 147.3,116.2 
				150.7,117.3 156.2,116.2 158.9,115 162.5,115.8 165.6,115.3 			"/>
			<polygon fill="#E7F4F1" points="170.1,27.8 183.1,27.3 192,20.2 217.7,27.3 228.4,25.1 247.1,32.8 235.9,30.3 215.3,34.5 
				205.5,32.4 185.9,34.5 175.6,30.3 162.8,30.7 			"/>
		</g>
		<g id="sun">
			<circle fill="#F3D77F" cx="172.6" cy="61.1" r="19"/>
			<path fill="#F4E180" d="M164.5,52.5l-4.6,6.5l-0.4,8.1c0,0,9,6.6,9.2,6.6c0.2,0,9.9-3.7,9.9-3.9c0-0.2,5-8.1,5-8.3
				c0-0.2-7.9-9.8-8.1-9.9C175.4,51.4,164.5,52.5,164.5,52.5z"/>
			<path fill="#F1C974" d="M191.6,61.1c0-10.5-8.5-19-19-19c-3.2,0-6.3,0.8-8.9,2.2l13-0.4l13.2,12.7l-4.3,17L170.2,80
				c0.8,0.1,1.6,0.2,2.4,0.2C183.1,80.1,191.6,71.6,191.6,61.1z"/>
		</g>
		<g id="mountains">
			<g>
				<polygon fill="#BFA98E" points="-105.3,69.4 -106.8,68.8 -111.1,65.7 -112.6,63.9 -116.9,63 -123.2,66.1 -126.8,76.8 
					-132.4,78.5 -145.4,104.4 -152.5,110.6 -154.7,111.6 -160.5,123.7 -160.5,123.7 -98.9,123.7 -104.9,105.7 -100.4,97.3 
					-105.3,87 -105.3,69.6 				"/>
				<polygon fill="#A49184" points="-123.2,66.1 -125.6,77.1 -124.8,80.3 -125.9,85 -129.6,93.3 -126.8,76.8 -126.8,76.8 
					-126.8,76.8 				"/>
				<polygon fill="#B19D8D" points="-126.8,76.8 -127.2,81 -127.1,81.8 -128.6,88.8 -129.6,93.3 -128.6,82.3 -132.4,78.5 
					-126.8,76.8 				"/>
				<polygon fill="#C1AC99" points="-105.3,69.4 -106.8,68.8 -111.1,65.7 -112.6,63.9 -116.9,63 -117.9,63.5 -113.5,64 -111,66.1 
					-110.6,67 -107.7,68.6 -106.6,69 -105.3,69.6 				"/>
			</g>
			<g>
				<polygon fill="#CDBB9C" points="-132.3,123.7 -123.3,108.1 -131.2,97.2 -133.1,79.7 -139.1,70.7 -140.2,63.8 -142.6,61.6 
					-148.7,62.5 -164.5,89.4 -170.2,91.8 -174.2,101.9 -183,111.8 -183,123.7 				"/>
				<polygon fill="#B19D8D" points="-144,61.8 -143.4,62.3 -141.8,63.1 -140.7,65.1 -141.1,68.8 -139.9,69.6 -139.1,71.5 -133.4,80 
					-131.2,97.2 -133.1,79.7 -139.1,70.7 -140.2,63.8 -142.6,61.6 				"/>
				<polygon fill="#C1AC99" points="-146.2,62.1 -148.6,62.8 -148.9,63.7 -149.5,64.6 -164.5,89.4 -148.7,62.5 				"/>
				<polygon fill="#B19D8D" points="-164.5,89.4 -170.2,91.8 -174.2,101.9 -183,111.8 -183,112.6 -175.5,104.4 -171.9,101.4 
					-170.5,95.4 -167.7,91.6 				"/>
			</g>
			<g>
				<polygon fill="#C4B497" points="-136.7,123.7 -130.6,110.2 -123.3,108.1 -115.1,95.1 -111.5,93.1 -110.1,95 -104.1,91.3 
					-96.9,51.5 -85,45.3 -80.1,48.1 -63.5,39.3 -58.2,40.7 -46.7,49.5 -29.9,123.8 -126.5,123.7 -126.5,123.7 				"/>
				<polygon fill="#B19D8D" points="-58.2,40.7 -46.7,49.5 -42.3,69 -47.1,51.7 -59,40.5 				"/>
				<path fill="#B19D8D" d="M-85,45.3l4.8,2.8l-3.8,5.5l-0.6,4.2l0.4,2.2l-0.2,6.4l-0.5-7.8l0.3-2.2c0,0,0-2.7,0.2-3.6L-85,45.3z"/>
				<polygon fill="#B19D8D" points="-104.1,91.3 -109.1,95.4 -110.5,95.4 -112.2,94.4 -114.1,95.5 -115.2,96.1 -123.3,108.1 
					-115.1,95.1 -111.5,93.1 -110.1,95 				"/>
				<polygon fill="#9E8E81" points="-125.6,108.7 -130.6,110.2 -135.8,122 -130.7,111 -129.8,110.4 				"/>
				<path fill="#A49184" d="M-104.1,91.3l-0.3,3.7c0,0,0.5,1.4,0.5,1.5c0,0.1-0.1,2.1-0.1,2.1l-0.8,0.9l0,4.2l-0.5,5l-0.8-6.1
					l0.6-1.3l0.2-3.4L-104.1,91.3z"/>
				<polygon fill="#C1AC99" points="-63.5,39.3 -66.1,83.5 -64.4,93.6 -76.2,107.2 -78.7,123.7 -77.7,123.7 -75.8,107.4 -62.2,93.9 
					-63.6,77.9 -63.3,39.3 -59,40.5 				"/>
				<path fill="#A49184" d="M-64.3,57.3c0,0.2-1.3,26-1.3,26l1.9,7.1l-0.3,3.6l1.1-1.2l-0.7-5.7l-1.1-5.4L-64.3,57.3z"/>
			</g>
			<g>
				<polygon fill="#CDBB9C" points="24.1,123.7 -1.3,75.6 -14.1,73.6 -18,62.5 -37.3,67.1 -52,91.2 -60.2,96.4 -78.7,123.7 				"/>
				<polygon fill="#B19D8D" points="-37.3,67.1 -18.9,65 -14.7,73.9 -23.4,90.5 -25.6,92.1 -26.1,94.4 -30,123.8 -29.9,123.8 
					-25,92.5 -17.2,81.5 -14.1,73.6 -18,62.5 				"/>
				<polygon fill="#C1AC99" points="-1.3,75.6 12.1,101 4.9,90.7 1,83.3 -5,78.4 -4.2,76.2 -14.1,73.6 				"/>
				<polygon fill="#C1AC99" points="-17.4,91.7 -17.2,111.1 -23.6,123.7 -20,123.7 -15.2,106.8 				"/>
				<polygon fill="#A49184" points="-16.3,102.6 -16.3,107 -17.1,112.6 -22.3,123.3 -16.9,112.7 -15.8,105.9 				"/>
			</g>
		</g>
		<g id="land">
			<rect x="-183" y="123.7" fill="#EEE0C7" width="444.7" height="71.8"/>
			<polygon fill="#E8D1B3" points="182.5,172.6 168.1,159.4 146.9,150.7 120,140.2 97.9,134.7 63.3,129.5 29,124.5 24.1,123.7 
				-183,123.7 -177,124.1 -156.5,127.9 -95.5,129.7 -71.9,131.1 -41.5,127.4 12.6,130 28.9,128.3 29.6,130.3 71.8,133.1 107.9,140 
				148.2,155.4 145.4,157.4 154.6,160.6 156.6,166.8 152.4,171.8 215,195.5 226.2,195.5 			"/>
			<polygon fill="#E8D1B3" points="89.3,123.7 140.2,133.2 164.7,137 184.9,146.7 193.5,153.1 220.6,160.5 230,167.6 239.5,172.5 
				248,181.6 249.8,182.2 251.3,185.1 261.6,192.1 261.6,192 246.8,178 234.7,163.5 228.4,163.5 210.2,151.1 188.4,144.6 
				188.5,141.8 172.1,139 160.1,133.2 155.2,130 137.3,127.8 132.7,125.8 128,125.9 126.8,123.7 			"/>
			<polygon fill="#E8D1B3" points="185.2,135.5 199.3,135 213.1,135.3 219.3,137.5 222.2,137.5 216.4,139.1 204.6,139.1 198,139.1 
				178.1,136.3 			"/>
		</g>
		<g id="river">
			<polygon fill="#B8E1DA" points="66.8,123.7 89.3,123.7 140.5,133.3 164.7,137 184.9,146.7 193.5,153.1 211.2,157.9 220.6,160.5 
				230,167.6 239.5,172.5 246.2,179.7 248,181.6 249.8,182.2 251.3,185.1 261.6,192.1 261.6,191.8 261.6,195.5 226.2,195.5 
				182.5,172.5 168.2,159.4 140.7,148.1 120.1,140.1 98.1,134.7 24.1,123.7 			"/>
			<polygon fill="#CFE9DD" points="91.5,130.1 119,135.3 128.2,138.5 139.9,139.8 93.7,128.7 60.1,126.6 			"/>
			<polygon fill="#9CD7D8" points="220.2,163.5 207.4,159.6 207.4,159.6 193.5,153.3 208.1,161.5 233.2,172.4 246.8,186.4 
				245.6,184.4 239.2,173.8 229.9,168.2 			"/>
			<path fill="#CFE9DD" d="M152.9,148.1l5.4,1.2l7.7-0.2l4.2,3.2l3.6,0.3c0,0,2.6,3.5,2.4,3.4c-0.1-0.1-3.9-1.3-3.9-1.3l-4.6-0.6
				l-5.5-2.3l-13.4-4.2L152.9,148.1z"/>
			<polygon fill="#C1AC99" points="193.5,153.1 193.5,153.3 207.4,159.6 220.2,163.5 220.6,160.5 			"/>
			<polygon fill="#A48D7A" points="220.2,163.5 220.2,163.5 229.9,168.2 230,167.6 220.6,160.5 			"/>
			<polygon fill="#CFE9DD" points="226,181.2 230.7,182.5 234.5,185.3 235,188 237.6,191.6 233.2,190.2 229.9,188 227.4,184.5 
				229.4,183.4 			"/>
			<polygon fill="#A48D7A" points="246.2,179.7 248,181.6 246.8,186.4 245.6,184.4 			"/>
			<path fill="#A48D7A" d="M249.8,182.2l1.4,3l-0.4,5c0,0-2.5-3.7-2.5-3.7C248.4,186.3,249.8,182.2,249.8,182.2z"/>
			<polygon fill="#C1AC99" points="230,167.6 229.9,168.2 239.2,173.8 239.5,172.5 			"/>
			<polygon fill="#C1AC99" points="89.3,124 164.8,138.5 164.7,137 140.5,133.3 89.3,123.7 			"/>
			<polygon fill="#A48D7A" points="164.7,137 164.8,138.5 184.9,147 193.5,153.3 193.5,153.1 184.9,146.7 			"/>
			<polygon fill="#C1AC99" points="251.3,185.1 249.8,182.1 248,181.6 246.2,179.7 239.5,172.5 239.2,173.8 245.6,184.4 
				246.8,186.4 248.4,186.4 250.9,190.1 261.6,195.5 261.6,192.1 			"/>
			<polygon fill="#B19D8D" points="248,181.6 249.8,182.1 248.4,186.4 246.8,186.4 			"/>
		</g>
		<g id="trees">
			<g>
				<polygon fill="#E8D1B3" points="-138.7,190.6 -169,191.7 -145,185.9 -125.1,178.4 -108.2,177.1 -89.9,178 -46.6,191.7 
					-84.3,185 				"/>
				<polygon fill="#DDC6AE" points="-81.7,182.4 -87.6,180.1 -105.9,179.1 -140.7,187.8 -83.9,183.9 -57.9,189 -50.6,190.7 				"/>
				<g>
					<g>
						<polygon fill="#66843D" points="-104.4,170.5 -104.4,165.8 -99.4,164.8 -126.8,170.5 						"/>
					</g>
					<g>
						<polygon fill="#526833" points="-94.3,170.5 -94.3,165.8 -94.3,165.8 -71.9,170.5 						"/>
					</g>
					<polygon fill="#8BBA56" points="-99.4,82.7 -111.4,114.4 -99.4,106.8 					"/>
					<polygon fill="#799D49" points="-99.4,82.7 -87.4,114.4 -99.4,106.8 					"/>
					<g>
						<polygon fill="#C0D96D" points="-120.4,150.2 -120.8,151.4 -120.8,151.4 -120.4,150.2 						"/>
						<polygon fill="#8BBA56" points="-99.4,107.1 -108.9,113.3 -123.7,152.1 -99.4,137.1 						"/>
						<polygon fill="#799D49" points="-99.4,107.1 -89.9,113.3 -75,152.1 -99.4,137.1 						"/>
						<polygon fill="#8BBA56" points="-126.8,170.5 -126.8,170.5 -126.8,170.5 -126.4,170.4 -99.4,164.8 -99.4,160.1 -99.4,160 
							-99.4,137.8 -120.8,151.4 -130.4,171.4 						"/>
						<polygon fill="#799D49" points="-71.9,170.5 -71.9,170.5 -71.9,170.5 -72.4,170.4 -99.4,164.8 -99.4,160.1 -99.4,160 
							-99.4,137.8 -77.9,151.4 -68.4,171.4 						"/>
					</g>
					<polygon fill="#B3654B" points="-104.4,165.8 -104.4,170.5 -104.4,181.2 -99.4,181.2 -99.4,170.5 -99.4,164.8 					"/>
					<polygon fill="#985342" points="-99.4,164.8 -99.4,170.5 -99.4,181.2 -94.3,181.2 -94.3,170.5 -94.3,165.8 					"/>
					
						<rect x="-109.2" y="113" transform="matrix(0.2966 -0.955 0.955 0.2966 -184.5429 -24.4436)" fill="#9ECA5F" width="0.7" height="0"/>
					<polygon fill="#799D49" points="-99.4,106.8 -108.9,112.8 -108.9,113.3 -99.4,107.1 					"/>
					<polygon fill="#697F3F" points="-99.4,106.8 -89.9,112.8 -89.9,113.3 -99.4,107.1 					"/>
					<polygon fill="#799D49" points="-120.4,150.1 -120.8,151.4 -99.4,137.8 -99.4,137 					"/>
					<polygon fill="#697F3F" points="-78.3,150.1 -77.9,151.4 -99.4,137.8 -99.4,137 					"/>
					<polygon fill="#779F46" points="-77.9,151.3 -77.9,151.3 -77.9,151.3 					"/>
				</g>
			</g>
			<g>
				<polygon fill="#D0BBA7" points="-71.4,125.2 -72.7,124.6 -76.7,124.4 -84.3,126.3 -71.9,125.5 -65,125.4 -63.3,125.2 				"/>
				<g>
					<g>
						<polygon fill="#66843D" points="-76.4,122.6 -76.4,121.5 -75.3,121.3 -81.3,122.6 						"/>
					</g>
					<g>
						<polygon fill="#526833" points="-74.2,122.6 -74.2,121.5 -74.2,121.5 -69.3,122.6 						"/>
					</g>
					<polygon fill="#8BBA56" points="-75.3,103.4 -77.9,110.3 -75.3,108.7 					"/>
					<polygon fill="#799D49" points="-75.3,103.4 -72.7,110.3 -75.3,108.7 					"/>
					<g>
						<polygon fill="#C0D96D" points="-79.9,118.1 -80,118.4 -80,118.4 -79.9,118.1 						"/>
						<polygon fill="#8BBA56" points="-75.3,108.7 -77.4,110.1 -80.6,118.5 -75.3,115.3 						"/>
						<polygon fill="#799D49" points="-75.3,108.7 -73.2,110.1 -70,118.5 -75.3,115.3 						"/>
						<polygon fill="#8BBA56" points="-81.3,122.6 -81.3,122.6 -81.3,122.6 -81.2,122.5 -75.3,121.3 -75.3,120.3 -75.3,120.3 
							-75.3,115.4 -80,118.4 -82.1,122.8 						"/>
						<polygon fill="#799D49" points="-69.3,122.6 -69.3,122.6 -69.3,122.6 -69.4,122.5 -75.3,121.3 -75.3,120.3 -75.3,120.3 
							-75.3,115.4 -70.6,118.4 -68.5,122.8 						"/>
					</g>
					<polygon fill="#B3654B" points="-76.4,121.5 -76.4,122.6 -76.4,124.9 -75.3,124.9 -75.3,122.6 -75.3,121.3 					"/>
					<polygon fill="#985342" points="-75.3,121.3 -75.3,122.6 -75.3,124.9 -74.2,124.9 -74.2,122.6 -74.2,121.5 					"/>
					
						<rect x="-77.4" y="110" transform="matrix(0.2967 -0.955 0.955 0.2967 -159.482 3.5056)" fill="#9ECA5F" width="0.2" height="0"/>
					<polygon fill="#799D49" points="-75.3,108.7 -77.4,110 -77.4,110.1 -75.3,108.7 					"/>
					<polygon fill="#697F3F" points="-75.3,108.7 -73.2,110 -73.2,110.1 -75.3,108.7 					"/>
					<polygon fill="#799D49" points="-79.9,118.1 -80,118.4 -75.3,115.4 -75.3,115.3 					"/>
					<polygon fill="#697F3F" points="-70.7,118.1 -70.6,118.4 -75.3,115.4 -75.3,115.3 					"/>
					<polygon fill="#779F46" points="-70.6,118.4 -70.6,118.4 -70.6,118.4 					"/>
				</g>
			</g>
			<g>
				<polygon fill="#D0BBA7" points="35.2,142.2 32.6,141.2 24.5,140.8 9.1,144.6 34.2,142.9 45.7,145.1 48.9,145.9 				"/>
				<g>
					<g>
						<polygon fill="#66843D" points="25.1,137 25.1,134.9 27.4,134.4 15.2,137 						"/>
					</g>
					<g>
						<polygon fill="#526833" points="29.6,137 29.6,134.9 29.6,134.9 39.5,137 						"/>
					</g>
					<polygon fill="#8BBA56" points="27.4,98.1 22.1,112.1 27.4,108.8 					"/>
					<polygon fill="#799D49" points="27.4,98.1 32.7,112.1 27.4,108.8 					"/>
					<g>
						<polygon fill="#C0D96D" points="18,128 17.9,128.5 17.9,128.5 18.1,128 						"/>
						<polygon fill="#8BBA56" points="27.4,108.9 23.2,111.7 16.6,128.8 27.4,122.2 						"/>
						<polygon fill="#799D49" points="27.4,108.9 31.6,111.7 38.1,128.8 27.4,122.2 						"/>
						<polygon fill="#8BBA56" points="15.2,137 15.2,137 15.2,137 15.4,136.9 27.4,134.4 27.4,132.4 27.4,132.3 27.4,122.5 
							17.9,128.5 13.6,137.4 						"/>
						<polygon fill="#799D49" points="39.5,137 39.5,137 39.5,137 39.3,136.9 27.4,134.4 27.4,132.4 27.4,132.3 27.4,122.5 
							36.8,128.5 41.1,137.4 						"/>
					</g>
					<polygon fill="#B3654B" points="25.1,134.9 25.1,137 25.1,141.7 27.4,141.7 27.4,137 27.4,134.4 					"/>
					<polygon fill="#985342" points="27.4,134.4 27.4,137 27.4,141.7 29.6,141.7 29.6,137 29.6,134.9 					"/>
					
						<rect x="23" y="111.5" transform="matrix(0.2965 -0.955 0.955 0.2965 -90.2349 100.5978)" fill="#9ECA5F" width="0.3" height="0"/>
					<polygon fill="#799D49" points="27.4,108.8 23.2,111.4 23.2,111.7 27.4,108.9 					"/>
					<polygon fill="#697F3F" points="27.4,108.8 31.6,111.4 31.6,111.7 27.4,108.9 					"/>
					<polygon fill="#799D49" points="18,127.9 17.9,128.5 27.4,122.5 27.4,122.2 					"/>
					<polygon fill="#697F3F" points="36.7,127.9 36.9,128.5 27.4,122.5 27.4,122.2 					"/>
					<polygon fill="#779F46" points="36.9,128.5 36.9,128.5 36.9,128.5 					"/>
				</g>
			</g>
			<g>
				<polygon fill="#E8D1B3" points="247.8,124.4 253.4,124.1 254.5,124.5 257.7,124.9 251.5,124.9 				"/>
				<g>
					<g>
						<g>
							<polygon fill="#566D46" points="251,122.1 251,121.1 251,121.1 246.2,122.1 							"/>
						</g>
						<g>
							<polygon fill="#415136" points="253.2,122.1 253.2,121.1 253.2,121.1 258,122.1 							"/>
						</g>
						<polygon fill="#7DA564" points="252.1,103.3 249.5,110.1 252.1,108.4 						"/>
						<polygon fill="#6B8B58" points="252.1,103.3 254.7,110.1 252.1,108.4 						"/>
						<polygon fill="#C0D96D" points="247.6,117.8 247.5,118 247.5,118 247.6,117.8 						"/>
						<polygon fill="#7DA564" points="252.1,108.5 250.1,109.8 246.9,118.2 252.1,115 						"/>
						<polygon fill="#6B8B58" points="252.1,108.5 254.2,109.8 257.4,118.2 252.1,115 						"/>
						<polygon fill="#7DA564" points="246.2,122.1 246.2,122.1 246.2,122.1 246.3,122.1 252.1,120.9 252.1,119.9 252.1,119.9 
							252.1,115.1 247.5,118 245.4,122.3 						"/>
						<polygon fill="#6B8B58" points="258,122.1 258,122.1 258,122.1 257.9,122.1 252.1,120.9 252.1,119.9 252.1,119.9 252.1,115.1 
							256.7,118 258.8,122.3 						"/>
						<polygon fill="#8C5D53" points="251,121.1 251,122.1 251,124.4 252.1,124.4 252.1,122.1 252.1,120.9 						"/>
						<polygon fill="#704A43" points="252.1,120.9 252.1,122.1 252.1,124.4 253.2,124.4 253.2,122.1 253.2,121.1 						"/>
						
							<rect x="250" y="109.8" transform="matrix(0.3018 -0.9534 0.9534 0.3018 69.925 315.0412)" fill="#9ECA5F" width="0.2" height="0"/>
						<polygon fill="#6B8B58" points="252.1,108.4 250.1,109.7 250.1,109.8 252.1,108.5 						"/>
						<polygon fill="#587047" points="252.1,108.4 254.2,109.7 254.2,109.8 252.1,108.5 						"/>
						<polygon fill="#6B8B58" points="247.6,117.7 247.5,118 252.1,115.1 252.1,114.9 						"/>
						<polygon fill="#587047" points="256.7,117.7 256.7,118 252.1,115.1 252.1,114.9 						"/>
						<polygon fill="#779F46" points="256.7,118 256.7,118 256.7,118 						"/>
					</g>
				</g>
			</g>
			<g>
				<polygon fill="#D0BBA7" points="160,123.9 163.5,123.8 164.2,124 166.2,124.2 162.3,124.3 				"/>
				<g>
					<g>
						<g>
							<polygon fill="#566D46" points="162,122.5 162,121.9 162,121.9 159,122.5 							"/>
						</g>
						<g>
							<polygon fill="#415136" points="163.4,122.5 163.4,121.9 163.4,121.9 166.4,122.5 							"/>
						</g>
						<polygon fill="#7DA564" points="162.7,110.8 161.1,115 162.7,114 						"/>
						<polygon fill="#6B8B58" points="162.7,110.8 164.3,115 162.7,114 						"/>
						<polygon fill="#C0D96D" points="159.9,119.8 159.8,119.9 159.8,119.9 159.9,119.8 						"/>
						<polygon fill="#7DA564" points="162.7,114 161.4,114.9 159.4,120 162.7,118 						"/>
						<polygon fill="#6B8B58" points="162.7,114 164,114.9 166,120 162.7,118 						"/>
						<polygon fill="#7DA564" points="159,122.5 159,122.5 159,122.5 159.1,122.5 162.7,121.7 162.7,121.1 162.7,121.1 162.7,118.1 
							159.8,119.9 158.5,122.6 						"/>
						<polygon fill="#6B8B58" points="166.4,122.5 166.4,122.5 166.4,122.5 166.3,122.5 162.7,121.7 162.7,121.1 162.7,121.1 
							162.7,118.1 165.6,119.9 166.9,122.6 						"/>
						<polygon fill="#8C5D53" points="162,121.9 162,122.5 162,123.9 162.7,123.9 162.7,122.5 162.7,121.7 						"/>
						<polygon fill="#704A43" points="162.7,121.7 162.7,122.5 162.7,123.9 163.4,123.9 163.4,122.5 163.4,121.9 						"/>
						
							<rect x="161.4" y="114.8" transform="matrix(0.3018 -0.9534 0.9534 0.3018 3.2444 234.0697)" fill="#9ECA5F" width="0.1" height="0"/>
						<polygon fill="#6B8B58" points="162.7,114 161.4,114.8 161.4,114.9 162.7,114 						"/>
						<polygon fill="#587047" points="162.7,114 164,114.8 164,114.9 162.7,114 						"/>
						<polygon fill="#6B8B58" points="159.9,119.8 159.8,119.9 162.7,118.1 162.7,118 						"/>
						<polygon fill="#587047" points="165.5,119.8 165.6,119.9 162.7,118.1 162.7,118 						"/>
						<polygon fill="#779F46" points="165.6,119.9 165.6,119.9 165.6,119.9 						"/>
					</g>
				</g>
			</g>
			<g>
				<polygon fill="#E8D1B3" points="-175.1,151.6 -160.5,149 -148.2,149.6 -143.4,150.9 -139.1,151.6 -158,151.6 -181,152.6 				"/>
				<polygon fill="#DDC6AE" points="-165.4,151 -157.8,149.6 -147.6,151 -154.9,150.4 				"/>
				<g>
					<g>
						<polygon fill="#566D46" points="-159.3,144.6 -159.3,142.2 -159.3,142.2 -171,144.6 						"/>
					</g>
					<g>
						<polygon fill="#415136" points="-154,144.6 -154,142.2 -154,142.2 -142.4,144.6 						"/>
					</g>
					<polygon fill="#7DA564" points="-156.7,98.9 -162.9,115.4 -156.7,111.5 					"/>
					<polygon fill="#6B8B58" points="-156.7,98.9 -150.4,115.4 -156.7,111.5 					"/>
					<polygon fill="#C0D96D" points="-167.6,134 -167.8,134.7 -167.8,134.7 -167.6,134 					"/>
					<polygon fill="#7DA564" points="-156.7,111.6 -161.6,114.8 -169.3,135 -156.7,127.2 					"/>
					<polygon fill="#6B8B58" points="-156.7,111.6 -151.7,114.8 -144,135 -156.7,127.2 					"/>
					<polygon fill="#7DA564" points="-171,144.6 -171,144.6 -171,144.6 -170.7,144.6 -156.7,141.6 -156.7,139.2 -156.7,139.1 
						-156.7,127.6 -167.8,134.7 -172.8,145.1 					"/>
					<polygon fill="#6B8B58" points="-142.3,144.6 -142.4,144.6 -142.4,144.6 -142.6,144.6 -156.7,141.6 -156.7,139.2 -156.7,139.1 
						-156.7,127.6 -145.5,134.7 -140.5,145.1 					"/>
					<polygon fill="#8C5D53" points="-159.3,142.2 -159.3,144.6 -159.3,150.1 -156.7,150.1 -156.7,144.6 -156.7,141.6 					"/>
					<polygon fill="#704A43" points="-156.7,141.6 -156.7,144.6 -156.7,150.1 -154,150.1 -154,144.6 -154,142.2 					"/>
					
						<rect x="-161.8" y="114.7" transform="matrix(0.3021 -0.9533 0.9533 0.3021 -222.1401 -73.9978)" fill="#9ECA5F" width="0.4" height="0"/>
					<polygon fill="#6B8B58" points="-156.7,111.5 -161.6,114.6 -161.6,114.8 -156.7,111.6 					"/>
					<polygon fill="#587047" points="-156.7,111.5 -151.7,114.6 -151.7,114.8 -156.7,111.6 					"/>
					<polygon fill="#6B8B58" points="-167.6,134 -167.8,134.7 -156.7,127.6 -156.7,127.2 					"/>
					<polygon fill="#587047" points="-145.7,134 -145.5,134.7 -156.7,127.6 -156.7,127.2 					"/>
					<polygon fill="#779F46" points="-145.5,134.6 -145.5,134.6 -145.5,134.6 					"/>
				</g>
			</g>
			<g>
				<polygon fill="#E8D1B3" points="-52.4,161.3 -33.3,158 -17.1,158.7 -10.9,160.4 -5.3,161.3 -30,161.3 -60.1,162.6 				"/>
				<polygon fill="#DDC6AE" points="-39.7,160.5 -29.7,158.6 -16.3,160.5 -26,159.8 				"/>
				<g>
					<g>
						<polygon fill="#566D46" points="-31.7,152.1 -31.7,148.9 -31.7,148.9 -47,152.1 						"/>
					</g>
					<g>
						<polygon fill="#415136" points="-24.8,152.1 -24.8,148.9 -24.8,148.9 -9.5,152.1 						"/>
					</g>
					<polygon fill="#7DA564" points="-28.2,92.3 -36.4,113.9 -28.2,108.8 					"/>
					<polygon fill="#6B8B58" points="-28.2,92.3 -20,113.9 -28.2,108.8 					"/>
					<polygon fill="#C0D96D" points="-42.6,138.3 -42.9,139.1 -42.9,139.1 -42.6,138.3 					"/>
					<polygon fill="#7DA564" points="-28.2,108.9 -34.7,113.2 -44.8,139.6 -28.2,129.4 					"/>
					<polygon fill="#6B8B58" points="-28.2,108.9 -21.7,113.2 -11.6,139.6 -28.2,129.4 					"/>
					<polygon fill="#7DA564" points="-47,152.1 -47,152.1 -47,152.1 -46.7,152.1 -28.2,148.2 -28.2,145 -28.2,145 -28.2,129.8 
						-42.9,139.1 -49.4,152.8 					"/>
					<polygon fill="#6B8B58" points="-9.5,152.1 -9.5,152.1 -9.5,152.1 -9.8,152.1 -28.2,148.2 -28.2,145 -28.2,145 -28.2,129.8 
						-13.6,139.1 -7,152.8 					"/>
					<polygon fill="#8C5D53" points="-31.7,148.9 -31.7,152.1 -31.7,159.4 -28.2,159.4 -28.2,152.1 -28.2,148.2 					"/>
					<polygon fill="#704A43" points="-28.2,148.2 -28.2,152.1 -28.2,159.4 -24.8,159.4 -24.8,152.1 -24.8,148.9 					"/>
					
						<rect x="-35" y="113" transform="matrix(0.302 -0.9533 0.9533 0.302 -131.9396 45.7878)" fill="#9ECA5F" width="0.5" height="0"/>
					<polygon fill="#6B8B58" points="-28.2,108.8 -34.7,112.8 -34.7,113.2 -28.2,108.9 					"/>
					<polygon fill="#587047" points="-28.2,108.8 -21.7,112.8 -21.7,113.2 -28.2,108.9 					"/>
					<polygon fill="#6B8B58" points="-42.6,138.2 -42.9,139.1 -28.2,129.8 -28.2,129.3 					"/>
					<polygon fill="#587047" points="-13.8,138.2 -13.6,139.1 -28.2,129.8 -28.2,129.3 					"/>
					<polygon fill="#779F46" points="-13.6,139.1 -13.6,139.1 -13.6,139.1 					"/>
				</g>
			</g>
			<g>
				<polygon fill="#E8D1B3" points="205.1,127.3 208.2,127.3 211.7,128.3 214.3,128.2 217.9,128.2 223.5,129.3 227.3,128.7 
					220.9,127.1 216.4,125.8 201.8,127.3 				"/>
				<polygon fill="#D0BBA7" points="210,127.5 211.7,127.1 215.8,126.5 219.8,127.4 224.9,128.5 219.9,127.7 215.5,127.8 
					213.9,127.3 211.9,127.5 				"/>
				<g>
					<g>
						<polygon fill="#66843D" points="215.7,124.8 215.7,123.6 217,123.3 210,124.8 						"/>
					</g>
					<g>
						<polygon fill="#526833" points="218.3,124.8 218.3,123.6 218.3,123.6 224,124.8 						"/>
					</g>
					<polygon fill="#8BBA56" points="217,102.4 213.9,110.5 217,108.6 					"/>
					<polygon fill="#799D49" points="217,102.4 220,110.5 217,108.6 					"/>
					<g>
						<polygon fill="#C0D96D" points="211.6,119.6 211.5,119.9 211.5,119.9 211.6,119.6 						"/>
						<polygon fill="#8BBA56" points="217,108.6 214.5,110.2 210.8,120.1 217,116.3 						"/>
						<polygon fill="#799D49" points="217,108.6 219.4,110.2 223.2,120.1 217,116.3 						"/>
						<polygon fill="#8BBA56" points="210,124.8 210,124.8 210,124.8 210.1,124.8 217,123.3 217,122.1 217,122.1 217,116.5 
							211.5,119.9 209,125 						"/>
						<polygon fill="#799D49" points="224,124.8 224,124.8 224,124.8 223.9,124.8 217,123.3 217,122.1 217,122.1 217,116.5 
							222.4,119.9 224.9,125 						"/>
					</g>
					<polygon fill="#B3654B" points="215.7,123.6 215.7,124.8 215.7,127.5 217,127.5 217,124.8 217,123.3 					"/>
					<polygon fill="#985342" points="217,123.3 217,124.8 217,127.5 218.3,127.5 218.3,124.8 218.3,123.6 					"/>
					
						<rect x="214.4" y="110.2" transform="matrix(0.2959 -0.9552 0.9552 0.2959 45.8354 282.4917)" fill="#9ECA5F" width="0.2" height="0"/>
					<polygon fill="#799D49" points="217,108.6 214.5,110.1 214.5,110.2 217,108.6 					"/>
					<polygon fill="#697F3F" points="217,108.6 219.4,110.1 219.4,110.2 217,108.6 					"/>
					<polygon fill="#799D49" points="211.6,119.6 211.5,119.9 217,116.5 217,116.3 					"/>
					<polygon fill="#697F3F" points="222.3,119.6 222.4,119.9 217,116.5 217,116.3 					"/>
					<polygon fill="#779F46" points="222.4,119.9 222.4,119.9 222.4,119.9 					"/>
				</g>
			</g>
			<g>
				<polygon fill="#E8D1B3" points="212,148 218.6,148 225.9,150.1 231.2,150 238.8,149.9 250.5,152.2 258.6,151 245.1,147.5 
					235.8,144.8 205.1,148 				"/>
				<polygon fill="#D0BBA7" points="222.2,148.4 225.9,147.7 234.4,146.3 242.9,148.2 253.5,150.5 243.1,148.9 234,149 230.4,147.9 
					226.4,148.4 				"/>
				<g>
					<g>
						<polygon fill="#66843D" points="234.2,142.7 234.2,140.2 236.9,139.7 222.2,142.7 						"/>
					</g>
					<g>
						<polygon fill="#526833" points="239.6,142.7 239.6,140.2 239.6,140.2 251.6,142.7 						"/>
					</g>
					<polygon fill="#8BBA56" points="236.9,95.9 230.5,112.8 236.9,108.8 					"/>
					<polygon fill="#799D49" points="236.9,95.9 243.3,112.8 236.9,108.8 					"/>
					<g>
						<polygon fill="#C0D96D" points="225.6,131.9 225.4,132.5 225.4,132.5 225.7,131.9 						"/>
						<polygon fill="#8BBA56" points="236.9,108.9 231.8,112.2 223.9,132.9 236.9,124.9 						"/>
						<polygon fill="#799D49" points="236.9,108.9 242,112.2 249.9,132.9 236.9,124.9 						"/>
						<polygon fill="#8BBA56" points="222.2,142.7 222.2,142.7 222.2,142.7 222.5,142.7 236.9,139.7 236.9,137.2 236.9,137.1 
							236.9,125.3 225.4,132.5 220.3,143.2 						"/>
						<polygon fill="#799D49" points="251.6,142.7 251.6,142.7 251.6,142.7 251.3,142.7 236.9,139.7 236.9,137.2 236.9,137.1 
							236.9,125.3 248.4,132.5 253.5,143.2 						"/>
					</g>
					<polygon fill="#B3654B" points="234.2,140.2 234.2,142.7 234.2,148.4 236.9,148.4 236.9,142.7 236.9,139.7 					"/>
					<polygon fill="#985342" points="236.9,139.7 236.9,142.7 236.9,148.4 239.6,148.4 239.6,142.7 239.6,140.2 					"/>
					
						<rect x="231.6" y="112.1" transform="matrix(0.2964 -0.9551 0.9551 0.2964 56.0402 300.2781)" fill="#9ECA5F" width="0.4" height="0"/>
					<polygon fill="#799D49" points="236.9,108.8 231.8,111.9 231.8,112.2 236.9,108.9 					"/>
					<polygon fill="#697F3F" points="236.9,108.8 242,111.9 242,112.2 236.9,108.9 					"/>
					<polygon fill="#799D49" points="225.6,131.9 225.4,132.5 236.9,125.3 236.9,124.9 					"/>
					<polygon fill="#697F3F" points="248.2,131.9 248.4,132.5 236.9,125.3 236.9,124.9 					"/>
					<polygon fill="#779F46" points="248.4,132.5 248.4,132.5 248.4,132.5 					"/>
				</g>
			</g>
			<g>
				<polygon fill="#E8D1B3" points="152.8,127 141.2,127.4 145.6,127.5 157.6,128.2 160.9,127.8 				"/>
				<g>
					<g>
						<polygon fill="#566D46" points="151.3,124.5 151.3,123.1 151.3,123.1 157.6,124.5 						"/>
					</g>
					<g>
						<polygon fill="#415136" points="148.4,124.5 148.4,123.1 148.4,123.1 142,124.5 						"/>
					</g>
					<polygon fill="#7DA564" points="149.8,99.5 153.2,108.5 149.8,106.4 					"/>
					<polygon fill="#6B8B58" points="149.8,99.5 146.4,108.5 149.8,106.4 					"/>
					<polygon fill="#C0D96D" points="155.8,118.7 155.9,119 155.9,119 155.8,118.7 					"/>
					<polygon fill="#7DA564" points="149.8,106.4 152.5,108.2 156.8,119.2 149.8,115 					"/>
					<polygon fill="#6B8B58" points="149.8,106.4 147.1,108.2 142.9,119.2 149.8,115 					"/>
					<polygon fill="#7DA564" points="157.7,124.5 157.6,124.5 157.6,124.5 157.5,124.4 149.8,122.8 149.8,121.5 149.8,121.5 
						149.8,115.2 155.9,119 158.7,124.7 					"/>
					<polygon fill="#6B8B58" points="142,124.5 142,124.5 142,124.5 142.1,124.4 149.8,122.8 149.8,121.5 149.8,121.5 149.8,115.2 
						143.7,119 141,124.7 					"/>
					<polygon fill="#8C5D53" points="151.3,123.1 151.3,124.5 151.3,127.5 149.8,127.5 149.8,124.5 149.8,122.8 					"/>
					<polygon fill="#704A43" points="149.8,122.8 149.8,124.5 149.8,127.5 148.4,127.5 148.4,124.5 148.4,123.1 					"/>
					
						<rect x="152.4" y="108.1" transform="matrix(-0.3018 -0.9534 0.9534 -0.3018 95.4795 286.2013)" fill="#9ECA5F" width="0.2" height="0"/>
					<polygon fill="#6B8B58" points="149.8,106.4 152.5,108.1 152.5,108.2 149.8,106.4 					"/>
					<polygon fill="#587047" points="149.8,106.4 147.1,108.1 147.1,108.2 149.8,106.4 					"/>
					<polygon fill="#6B8B58" points="155.8,118.7 155.9,119 149.8,115.2 149.8,115 					"/>
					<polygon fill="#587047" points="143.8,118.7 143.7,119 149.8,115.2 149.8,115 					"/>
					<polygon fill="#779F46" points="143.7,119 143.7,119 143.7,119 					"/>
				</g>
			</g>
			<g>
				<polygon fill="#D0BBA7" points="109,126.4 113.3,125.1 121.5,124.4 122.9,125.3 128.3,127.7 123.3,126.4 118.3,125.4 115.7,126 
					113,126 				"/>
				<g>
					<g>
						<polygon fill="#66843D" points="118.9,122.6 118.9,121.6 120.1,121.3 114.1,122.6 						"/>
					</g>
					<g>
						<polygon fill="#526833" points="121.2,122.6 121.2,121.6 121.2,121.6 126.1,122.6 						"/>
					</g>
					<polygon fill="#8BBA56" points="120.1,103.4 117.4,110.3 120.1,108.7 					"/>
					<polygon fill="#799D49" points="120.1,103.4 122.7,110.3 120.1,108.7 					"/>
					<g>
						<polygon fill="#C0D96D" points="115.4,118.1 115.4,118.4 115.4,118.4 115.5,118.1 						"/>
						<polygon fill="#8BBA56" points="120.1,108.7 118,110.1 114.7,118.6 120.1,115.3 						"/>
						<polygon fill="#799D49" points="120.1,108.7 122.1,110.1 125.4,118.6 120.1,115.3 						"/>
						<polygon fill="#8BBA56" points="114,122.6 114.1,122.6 114.1,122.6 114.1,122.6 120.1,121.3 120.1,120.3 120.1,120.3 
							120.1,115.5 115.4,118.4 113.3,122.8 						"/>
						<polygon fill="#799D49" points="126.1,122.6 126.1,122.6 126.1,122.6 126,122.6 120.1,121.3 120.1,120.3 120.1,120.3 
							120.1,115.5 124.7,118.4 126.8,122.8 						"/>
					</g>
					<polygon fill="#B3654B" points="118.9,121.6 118.9,122.6 118.9,124.9 120.1,124.9 120.1,122.6 120.1,121.3 					"/>
					<polygon fill="#985342" points="120.1,121.3 120.1,122.6 120.1,124.9 121.2,124.9 121.2,122.6 121.2,121.6 					"/>
					
						<rect x="117.9" y="110" transform="matrix(0.2925 -0.9563 0.9563 0.2925 -21.7687 190.674)" fill="#9ECA5F" width="0.2" height="0"/>
					<polygon fill="#799D49" points="120.1,108.7 118,110 118,110.1 120.1,108.7 					"/>
					<polygon fill="#697F3F" points="120.1,108.7 122.1,110 122.1,110.1 120.1,108.7 					"/>
					<polygon fill="#799D49" points="115.4,118.1 115.4,118.4 120.1,115.5 120.1,115.3 					"/>
					<polygon fill="#697F3F" points="124.7,118.1 124.8,118.4 120.1,115.5 120.1,115.3 					"/>
					<polygon fill="#779F46" points="124.8,118.4 124.8,118.4 124.8,118.4 					"/>
				</g>
			</g>
			<g>
				<polygon fill="#D0BBA7" points="-4.2,125.1 -1.1,124.6 3.6,125.5 7.2,126.2 1.2,125.5 -5.3,125.7 				"/>
				<g>
					<g>
						<polygon fill="#566D46" points="-0.7,122.6 -0.7,121.5 -0.7,121.5 -6,122.6 						"/>
					</g>
					<g>
						<polygon fill="#415136" points="1.7,122.6 1.7,121.5 1.7,121.5 7,122.6 						"/>
					</g>
					<polygon fill="#7DA564" points="0.5,101.8 -2.4,109.3 0.5,107.5 					"/>
					<polygon fill="#6B8B58" points="0.5,101.8 3.3,109.3 0.5,107.5 					"/>
					<polygon fill="#C0D96D" points="-4.5,117.8 -4.6,118.1 -4.6,118.1 -4.5,117.8 					"/>
					<polygon fill="#7DA564" points="0.5,107.6 -1.8,109.1 -5.3,118.2 0.5,114.7 					"/>
					<polygon fill="#6B8B58" points="0.5,107.6 2.7,109.1 6.3,118.2 0.5,114.7 					"/>
					<polygon fill="#7DA564" points="-6,122.6 -6,122.6 -6,122.6 -5.9,122.6 0.5,121.2 0.5,120.1 0.5,120.1 0.5,114.9 -4.6,118.1 
						-6.9,122.8 					"/>
					<polygon fill="#6B8B58" points="7,122.6 7,122.6 7,122.6 6.9,122.6 0.5,121.2 0.5,120.1 0.5,120.1 0.5,114.9 5.6,118.1 
						7.8,122.8 					"/>
					<polygon fill="#8C5D53" points="-0.7,121.5 -0.7,122.6 -0.7,125.1 0.5,125.1 0.5,122.6 0.5,121.2 					"/>
					<polygon fill="#704A43" points="0.5,121.2 0.5,122.6 0.5,125.1 1.7,125.1 1.7,122.6 1.7,121.5 					"/>
					
						<rect x="-1.9" y="109" transform="matrix(0.3015 -0.9535 0.9535 0.3015 -105.176 74.4685)" fill="#9ECA5F" width="0.2" height="0"/>
					<polygon fill="#6B8B58" points="0.5,107.5 -1.8,108.9 -1.8,109.1 0.5,107.6 					"/>
					<polygon fill="#587047" points="0.5,107.5 2.7,108.9 2.7,109.1 0.5,107.6 					"/>
					<polygon fill="#6B8B58" points="-4.5,117.8 -4.6,118.1 0.5,114.9 0.5,114.7 					"/>
					<polygon fill="#587047" points="5.5,117.8 5.6,118.1 0.5,114.9 0.5,114.7 					"/>
					<polygon fill="#779F46" points="5.6,118.1 5.6,118.1 5.6,118.1 					"/>
				</g>
			</g>
		</g>
		<g id="neanderthal">
			<g>
				<polygon fill="#F9D3C1" points="116.1,167.8 118.3,173.9 117.9,175.2 113.4,175 113.7,174.5 111.4,170.1 115.3,167.2 				"/>
				<polygon fill="#E3C0B3" points="115.8,169.5 116.6,170 114.6,172 114.6,171.7 115.2,170.5 				"/>
				<polygon fill="#E3C0B3" points="111.5,171.3 112.1,169.9 114.6,171.7 115,174.2 114.3,175 113.4,175 113.7,174.5 				"/>
				<polygon fill="#FAAE5F" points="114.6,156.3 117.1,161.6 116.5,163.9 118.4,171.1 115.8,169.5 116.1,171.6 115.2,170.5 
					114.6,171.7 112.1,169.9 110.9,172.4 108.9,170.8 105.4,171.5 104.7,169.7 103.4,171.9 104.2,163.4 105.8,158.6 107.2,154.9 
					112.2,154.9 				"/>
				<polygon fill="#F9D3C1" points="105.4,171.5 104.8,170 102.6,175.6 107.3,176 110.5,172 110.5,172 108.9,170.8 				"/>
				<polygon fill="#F9D3C1" points="113.7,157.7 111.6,161.2 109.3,163.8 109.1,163.9 105.5,159.6 106.6,156.2 110.9,155.7 				"/>
				<polygon fill="#853931" points="129.8,161.8 130.1,162.5 99.3,168.8 99.3,168.1 				"/>
				<polygon fill="#F9D3C1" points="120.4,160.3 125.4,162.3 127.1,162.3 126.8,162.8 125.8,162.6 122.9,163.2 122.9,162.9 
					117.1,161.6 116.1,159.6 116.1,156.5 				"/>
				<polygon fill="#537869" points="116.8,157.7 115.6,155.3 115.4,154.9 115.9,155.1 115.6,152.2 115.9,152.5 115.7,150.3 
					116.1,150.6 114.5,148.9 114.6,148.2 112.8,147.9 110.7,146.6 110,148 108.8,147.4 108.9,149.1 107.5,149.1 107.9,150.4 
					106.1,151.6 107,152.7 105.6,154.7 106.4,155.1 105.5,156.7 105.9,157.4 105.8,158.6 106.1,159.7 107,158.5 107.9,158.8 
					108.4,157.7 109.6,157.6 111.5,158.8 111.8,159.8 113.1,158.6 114.4,160.2 116,162.5 115.8,160.5 				"/>
				<polygon fill="#F9D3C1" points="108,157.1 109.8,160.4 116.4,164.3 116.4,164.3 117,165.2 116.8,165.6 113.7,165.9 113.4,165 
					108.7,163.1 106.2,159.6 107.5,156.9 				"/>
				<polygon fill="#F9D3C1" points="114.7,150.6 114.9,149.8 113.6,150.3 112.6,149.8 112.1,150.3 111.5,150.6 111.4,151.4 
					111.2,151.9 112,152.4 111.9,152.7 112.4,153.2 113.3,153.1 114.4,153.5 114.9,153.2 115,152.4 115.3,151.5 				"/>
				<circle fill="#7A565A" cx="113.2" cy="151.9" r="0.3"/>
				<circle fill="#7A565A" cx="114.4" cy="151.7" r="0.2"/>
				<polygon fill="#9BAA9C" points="138,161.1 136.4,160.3 135.6,161.1 135.1,161.1 134.6,160.5 131,161.8 131.3,162.5 133.3,162.8 
					135.9,162.5 				"/>
				<polygon fill="#727A7B" points="131,161.8 130.7,161.6 129.8,161.8 130.1,162.5 131.3,162.6 131.3,162.4 				"/>
				<polygon fill="#E3C0B3" points="111.5,161.4 109.8,160.4 108.4,157.7 108.9,158 109.8,160.1 111.5,161.3 				"/>
				<polygon fill="#E3C0B3" points="109.6,163.5 108.7,163.1 106.1,159.7 105.8,158.6 105.6,159.1 106.6,160.6 108.5,163.1 
					109.3,163.8 				"/>
				<polygon fill="#E3C0B3" points="110.5,172 108.9,170.8 106.5,176 107.3,176 				"/>
				<polygon fill="#425F52" points="112.2,147.5 112.8,147.9 112.3,147.7 110.6,147.7 110.1,148.4 110.1,148.4 109.2,148.6 
					109.3,149.6 108.4,149.9 108.7,150.4 108.3,150.7 106.3,151.6 107.2,152.7 107,152.7 106.1,151.6 107.9,150.4 107.5,149.1 
					108.9,149.1 108.8,147.4 110,148 110.7,146.6 				"/>
				<polygon fill="#727A7B" points="138,161.1 136.2,161.9 135.7,162.1 135.2,162.4 133.7,162.4 133.1,162.6 131.9,162.5 
					133.3,162.8 135.9,162.5 				"/>
				<polygon fill="#E3C0B3" points="117.1,161.6 117.2,161.7 116.8,160 116.1,159.5 116.1,159.6 				"/>
				<polygon fill="#CC894B" points="107.2,163.9 107.5,164.1 107.1,164.9 106.5,165 106.2,164.5 106.6,164 				"/>
				<polygon fill="#CC894B" points="114,167.9 112.8,167.1 112.2,167.6 112.2,168 112.7,169.1 				"/>
				<polygon fill="#CC894B" points="116.2,162.4 116.6,162.5 116.5,163.1 115.9,163.2 115.6,162.7 116.1,162.8 				"/>
				<polygon fill="#425F52" points="116,156.2 116.5,157.6 115.5,160.3 115.7,160.8 115.8,161.9 115.8,162.2 116,162.5 115.8,160.5 
					116.8,157.7 				"/>
				<polygon fill="#E3C0B3" points="114.7,150.6 114.7,150.1 114.2,150.1 114,150.3 113.4,150.5 113.2,150.2 112.5,150.1 
					112.4,150.3 111.5,150.8 111.5,150.6 112.1,150.3 112.6,149.8 113.6,150.3 114.9,149.8 				"/>
				<polygon fill="#E3C0B3" points="123.3,163.9 123.4,163.5 126,163 126.2,163.3 124.6,164 				"/>
				<polygon fill="#E3C0B3" points="117,165.2 113.7,165.9 116.8,165.6 				"/>
				<polygon fill="#E8D1B3" points="118.8,174.8 112.6,174.1 110.5,174.8 109.2,174.8 101.4,175.4 96.4,175.9 103.4,177.3 
					106.8,179.4 119,177.8 131,176 				"/>
			</g>
			<g>
				<polygon fill="#F9D3C1" points="-145.2,154.4 -143.5,159.1 -143.8,160.1 -147.2,159.9 -147.1,159.5 -148.8,156.2 -145.8,153.9 
									"/>
				<polygon fill="#E3C0B3" points="-145.4,155.7 -144.8,156.1 -146.3,157.6 -146.4,157.4 -145.9,156.5 				"/>
				<polygon fill="#E3C0B3" points="-148.8,157.1 -148.2,156.1 -146.4,157.4 -146,159.3 -146.6,160 -147.2,159.9 -147.1,159.5 				
					"/>
				<polygon fill="#A2CFD3" points="-146.4,145.6 -144.4,149.7 -144.9,151.4 -143.4,157 -145.4,155.7 -145.2,157.3 -145.9,156.5 
					-146.4,157.4 -148.2,156.1 -149.2,157.9 -150.7,156.7 -153.4,157.3 -154,155.8 -154.9,157.6 -154.3,151.1 -153.1,147.4 
					-152,144.5 -148.2,144.5 				"/>
				<polygon fill="#F9D3C1" points="-153.4,157.3 -153.9,156.1 -155.6,160.5 -152,160.8 -149.5,157.7 -149.5,157.7 -150.7,156.7 
									"/>
				<polygon fill="#F9D3C1" points="-147.1,146.6 -148.6,149.4 -150.4,151.3 -150.6,151.4 -153.3,148.1 -152.5,145.5 -149.2,145.1 
									"/>
				<polygon fill="#853931" points="-134.6,149.8 -134.4,150.3 -158.1,155.2 -158.1,154.6 				"/>
				<polygon fill="#F9D3C1" points="-141.8,148.7 -138,150.2 -136.7,150.2 -137,150.5 -137.7,150.4 -139.9,150.9 -139.9,150.7 
					-144.4,149.7 -145.2,148.1 -145.2,145.7 				"/>
				<polygon fill="#D08D7B" points="-144.7,146.6 -145.6,144.8 -145.3,143.5 -145.6,142.4 -145,142.1 -145.5,140.9 -145,139.9 
					-146.3,139.6 -146.8,138.7 -147.8,138.9 -149.4,138.1 -149.8,139 -150.8,138.7 -150.7,140 -151.8,140 -151.5,141 -152.9,141.9 
					-152.2,142.8 -153.2,144.3 -152.7,144.6 -153.4,145.9 -153,146.4 -153.1,147.3 -152.9,148.2 -152.2,147.3 -151.5,147.5 
					-151.1,146.6 -149.7,147.6 -149,147.3 -148.5,148.2 -147.5,147.3 -146.5,148.6 -145.2,150.3 -145.4,148.8 				"/>
				<polygon fill="#F9D3C1" points="-151.4,146.1 -150,148.7 -144.9,151.8 -144.9,151.8 -144.5,152.4 -144.7,152.7 -147.1,152.9 
					-147.3,152.3 -150.9,150.8 -152.8,148.1 -151.8,146 				"/>
				<polygon fill="#F9D3C1" points="-146.2,141.2 -146.1,140.6 -147.1,140.9 -147.9,140.6 -148.3,141 -148.7,141.2 -148.8,141.8 
					-149,142.2 -148.3,142.5 -148.4,142.8 -148,143.2 -147.4,143.1 -146.5,143.4 -146.1,143.2 -146,142.6 -145.8,141.9 				"/>
				<circle fill="#7A565A" cx="-147.4" cy="142.2" r="0.2"/>
				<circle fill="#7A565A" cx="-146.5" cy="142.1" r="0.2"/>
				<polygon fill="#9BAA9C" points="-128.3,149.2 -129.5,148.6 -130.2,149.2 -130.6,149.2 -131,148.8 -133.7,149.8 -133.5,150.3 
					-131.9,150.6 -129.9,150.4 				"/>
				<polygon fill="#727A7B" points="-133.7,149.8 -134,149.7 -134.6,149.8 -134.4,150.3 -133.5,150.4 -133.5,150.2 				"/>
				<polygon fill="#E3C0B3" points="-148.8,149.5 -150,148.7 -151.1,146.7 -150.8,146.9 -150.1,148.5 -148.7,149.4 				"/>
				<polygon fill="#E3C0B3" points="-150.2,151.1 -150.9,150.8 -152.9,148.2 -153.1,147.3 -153.2,147.8 -152.5,148.9 -151.1,150.8 
					-150.4,151.3 				"/>
				<polygon fill="#E3C0B3" points="-149.5,157.7 -150.7,156.7 -152.6,160.7 -152,160.8 				"/>
				<polygon fill="#B47A6C" points="-148.2,138.7 -147.8,138.9 -148.1,138.9 -149.4,138.9 -149.8,139.5 -149.8,139.5 -150.5,139.7 
					-150.4,140.4 -151.1,140.7 -150.9,141.1 -151.2,141.3 -152.5,141.9 -152.1,142.4 -152.2,142.8 -152.9,141.9 -151.5,141 
					-151.8,140 -150.7,140 -150.8,138.7 -149.8,139 -149.4,138.1 				"/>
				<polygon fill="#727A7B" points="-128.3,149.2 -129.7,149.9 -130.1,150 -130.5,150.3 -131.6,150.3 -132.1,150.4 -133.1,150.3 
					-131.9,150.6 -129.9,150.4 				"/>
				<polygon fill="#E3C0B3" points="-144.4,149.7 -144.4,149.7 -144.6,148.4 -145.2,148 -145.2,148.1 				"/>
				<polygon fill="#7D9D9D" points="-152.8,152.2 -152.6,152.4 -152.9,152.4 -152.9,152.8 -153.2,152.6 -153.2,152.3 				"/>
				<polygon fill="#7D9D9D" points="-149.7,155.1 -149.9,154.7 -150.4,155.1 -150.4,155.4 -149.9,155.7 				"/>
				<polygon fill="#7D9D9D" points="-146.6,149.5 -146,149.7 -146.2,150 -146.5,150.2 -146.8,150.2 -146.9,149.7 				"/>
				<polygon fill="#B47A6C" points="-145.3,145.5 -144.9,146.6 -145.6,148.6 -145.5,149 -145.4,149.9 -145.4,150.1 -145.2,150.3 
					-145.4,148.8 -144.7,146.6 				"/>
				<polygon fill="#E3C0B3" points="-146.2,141.2 -146.3,140.8 -146.6,140.8 -146.8,141 -147.3,141.1 -147.4,140.9 -147.9,140.8 
					-148.1,140.9 -148.8,141.4 -148.7,141.2 -148.3,141 -147.9,140.6 -147.1,140.9 -146.1,140.6 				"/>
				<polygon fill="#E3C0B3" points="-139.6,151.4 -139.6,151.1 -137.6,150.8 -137.4,150.9 -138.7,151.5 				"/>
				<polygon fill="#E3C0B3" points="-144.5,152.4 -147.1,152.9 -144.7,152.7 				"/>
				<polygon fill="#E8D1B3" points="-162.5,160.9 -157.5,161.5 -154.9,162.6 -147.9,161.3 -137.6,161.6 -133.7,160.4 -143.2,159.6 
					-148.4,159.2 -150.8,159.7 				"/>
			</g>
			<g>
				<polygon fill="#F9D3C1" points="60.8,132.9 61.8,135.8 61.6,136.4 59.5,136.3 59.6,136.1 58.5,134 60.4,132.6 				"/>
				<polygon fill="#E3C0B3" points="60.6,133.7 61,133.9 60,134.9 60,134.7 60.3,134.2 				"/>
				<polygon fill="#E3C0B3" points="58.5,134.5 58.8,133.9 60,134.7 60.2,135.9 59.9,136.3 59.5,136.3 59.6,136.1 				"/>
				<polygon fill="#758D90" points="60,127.3 61.2,129.9 60.9,131 61.9,134.5 60.6,133.7 60.7,134.7 60.3,134.2 60,134.7 
					58.8,133.9 58.3,135.1 57.3,134.3 55.6,134.7 55.3,133.8 54.6,134.9 55,130.8 55.8,128.4 56.5,126.6 58.9,126.6 				"/>
				<polygon fill="#F9D3C1" points="55.6,134.7 55.3,133.9 54.2,136.6 56.5,136.8 58.1,134.9 58.1,134.9 57.3,134.3 				"/>
				<polygon fill="#F9D3C1" points="59.6,128 58.6,129.7 57.5,130.9 57.4,131 55.6,128.9 56.2,127.3 58.3,127.1 				"/>
				<polygon fill="#853931" points="67.4,129.9 67.5,130.3 52.7,133.4 52.7,133 				"/>
				<polygon fill="#F9D3C1" points="62.8,129.3 65.2,130.2 66,130.2 65.9,130.4 65.4,130.4 64,130.6 64,130.5 61.2,129.9 
					60.8,128.9 60.8,127.4 				"/>
				<polygon fill="#F05E28" points="61.1,128 60.5,126.9 60.7,126 60.5,125.4 60.9,125.2 60.5,124.4 60.9,123.8 60,123.6 59.7,123 
					59.1,123.2 58.1,122.6 57.9,123.2 57.2,123.1 57.3,123.9 56.6,123.8 56.8,124.5 55.9,125 56.4,125.6 55.7,126.5 56.1,126.7 
					55.6,127.5 55.8,127.9 55.8,128.4 55.9,129 56.4,128.4 56.8,128.5 57,128 57.9,128.6 58.4,128.4 58.7,129 59.3,128.4 
					59.9,129.2 60.7,130.3 60.6,129.3 				"/>
				<polygon fill="#F9D3C1" points="56.9,127.7 57.7,129.3 60.9,131.2 60.9,131.2 61.2,131.6 61.1,131.8 59.6,131.9 59.4,131.5 
					57.2,130.6 56,128.9 56.6,127.6 				"/>
				<polygon fill="#F9D3C1" points="60.1,124.6 60.2,124.2 59.5,124.4 59.1,124.2 58.8,124.4 58.5,124.6 58.5,125 58.4,125.2 
					58.8,125.4 58.7,125.6 59,125.8 59.4,125.8 59.9,126 60.2,125.8 60.2,125.4 60.4,125 				"/>
				<circle fill="#7A565A" cx="59.4" cy="125.2" r="0.1"/>
				<circle fill="#7A565A" cx="59.9" cy="125.1" r="0.1"/>
				<polygon fill="#9BAA9C" points="71.3,129.6 70.6,129.3 70.2,129.6 69.9,129.6 69.6,129.4 67.9,130 68.1,130.3 69,130.5 
					70.3,130.3 				"/>
				<polygon fill="#727A7B" points="67.9,130 67.8,129.9 67.4,130 67.5,130.3 68.1,130.4 68.1,130.2 				"/>
				<polygon fill="#E3C0B3" points="58.5,129.8 57.7,129.3 57.1,128 57.3,128.1 57.7,129.2 58.5,129.7 				"/>
				<polygon fill="#E3C0B3" points="57.6,130.8 57.2,130.6 55.9,129 55.8,128.4 55.7,128.7 56.2,129.4 57.1,130.6 57.5,130.9 				
					"/>
				<polygon fill="#E3C0B3" points="58.1,134.9 57.3,134.3 56.1,136.8 56.5,136.8 				"/>
				<polygon fill="#E74425" points="58.9,123 59.1,123.2 58.9,123.1 58.1,123.2 57.9,123.5 57.9,123.5 57.4,123.6 57.5,124.1 
					57.1,124.2 57.2,124.5 57,124.6 56.2,125 56.4,125.4 56.4,125.6 55.9,125 56.8,124.5 56.6,123.8 57.3,123.8 57.2,123.1 
					57.9,123.2 58.1,122.6 				"/>
				<polygon fill="#727A7B" points="71.3,129.6 70.4,130 70.2,130.1 70,130.3 69.2,130.3 68.9,130.4 68.3,130.3 69,130.5 
					70.3,130.3 				"/>
				<polygon fill="#E3C0B3" points="61.2,129.9 61.3,129.9 61.1,129.1 60.8,128.9 60.8,128.9 				"/>
				<polygon fill="#537869" points="56,131.5 56.1,131.6 55.9,131.6 55.9,131.9 55.7,131.7 55.7,131.5 				"/>
				<polygon fill="#537869" points="57.9,133.3 57.8,133 57.5,133.3 57.5,133.5 57.8,133.7 				"/>
				<polygon fill="#537869" points="59.9,129.8 60.2,129.9 60.1,130.1 59.9,130.2 59.7,130.2 59.7,129.9 				"/>
				<polygon fill="#E74425" points="60.7,127.3 61,127.9 60.5,129.2 60.6,129.5 60.6,130 60.6,130.1 60.7,130.3 60.6,129.3 
					61.1,128 				"/>
				<polygon fill="#E3C0B3" points="60.1,124.6 60.1,124.4 59.8,124.3 59.7,124.4 59.5,124.5 59.3,124.4 59,124.3 58.9,124.4 
					58.5,124.7 58.5,124.6 58.8,124.4 59.1,124.2 59.5,124.4 60.2,124.2 				"/>
				<polygon fill="#E3C0B3" points="64.2,131 64.3,130.8 65.5,130.6 65.6,130.7 64.8,131 				"/>
				<polygon fill="#E3C0B3" points="61.2,131.6 59.6,131.9 61.1,131.8 				"/>
				<polygon fill="#E8D1B3" points="49.9,136.9 53.1,137.3 54.6,138 59,137.2 65.5,137.4 67.9,136.6 62,136.1 58.7,135.8 
					57.2,136.2 				"/>
			</g>
			<g>
				<polygon fill="#F9D3C1" points="12.8,153.6 7.6,151 7.6,150.8 11.8,150.7 				"/>
				<polygon fill="#F9D3C1" points="18,143.5 18.4,144.7 17.8,145.1 18.2,146.4 15.7,145.6 15.6,144.8 14.6,144.5 15,143.8 
					14.9,143.4 16.1,142.6 				"/>
				
					<ellipse transform="matrix(-0.9987 5.136628e-02 -5.136628e-02 -0.9987 41.8417 289.7575)" fill="#7A565A" cx="17.2" cy="145.4" rx="0.2" ry="0.2"/>
				<polygon fill="#F9D3C1" points="8,162.3 8.8,163.8 3.1,166.5 1.9,163.6 5,160.6 				"/>
				<polygon fill="#F9D3C1" points="16.9,162.8 18.6,166.3 14.2,167.4 10.2,163.3 11.8,161.9 14.1,163.2 14.1,163.2 14.3,161.5 				
					"/>
				<polygon fill="#E3C0B3" points="11.8,161.9 11.6,162.1 10.2,163.3 14.2,167.4 14.7,167.3 				"/>
				<path fill="#F9D3C1" d="M16.8,152.3L16.8,152.3l-0.9-2.3c0,0,1.5,0.8,1.5,0.8C17.4,150.9,16.8,152.3,16.8,152.3z"/>
				<polygon fill="#853931" points="28.3,142.1 30.2,143.5 30.8,144.9 28.3,150.3 25.9,151.1 21.9,155.3 19.3,159.2 19,158.8 
					21.5,153.9 23.6,147.9 25,146.6 26,144.2 				"/>
				<polygon fill="#737B73" points="7.6,150.8 6.8,155 5.6,159.5 3.4,161.8 4.8,160.9 4.7,161.9 6.6,161.5 8,162.3 9,164.3 
					11.8,161.9 14.1,163.2 14.3,161.5 17.3,163 15.6,159.4 15.6,159.4 18,157.1 18,153.4 17.5,150.5 				"/>
				<polygon fill="#9E7465" points="18,143.5 16.1,142.6 14.9,143.4 15,143.8 14.6,144.5 15.6,144.8 15.7,145.6 18,146.4 
					17.7,146.8 18.1,147.7 17.8,149.9 18.4,150.5 18.4,150.5 17.8,151.7 17.8,151.7 18.3,153.1 17.9,155.2 18.5,156.8 17.7,157.8 
					17.3,159.5 16.4,156.3 15.2,154.7 15.5,152.7 14.9,152.9 14.1,151.5 12.7,151.9 12.2,150.9 10,153.3 6.8,154.5 7.1,151 
					7.6,150.8 8.7,148.2 8.3,148.3 9.1,146 8.6,146.3 8.6,146.3 9.7,144.2 9.4,144.1 9.4,144.1 9.4,144.1 9.4,144.1 10.8,141.6 
					10.7,140.4 11.9,140.5 12.9,139.9 12.9,139.9 12.9,139.9 13.4,140.2 15.6,140.4 15.6,140.9 17,141.3 17,141.3 16.9,141.6 
					18.1,142.8 17.7,142.7 18.5,144.1 				"/>
				<polygon fill="#F9D3C1" points="19.8,157.3 21.7,157.5 22.3,156.5 21.9,155.3 20.8,154.7 19.9,155.2 17.1,153.4 16.1,152.7 
					15.2,152.4 13.7,150.1 12,151.2 13.2,154.6 				"/>
				<polygon fill="#E3C0B3" points="12,151.2 12.8,153.6 12.1,153.3 11.8,151.4 				"/>
				<polygon fill="#5B615A" points="12.5,156.5 12.8,157.1 12,157 12,157.5 11.6,157.4 11.8,156.7 				"/>
				<polygon fill="#5B615A" points="8.6,159.5 8.8,160.5 8.4,160.2 8.2,159.9 7.5,159.8 7.5,159.3 				"/>
				<polygon fill="#5B615A" points="15.7,160.3 15.3,160 14.9,160 15,160.2 14.6,160.3 14.8,160.4 15.1,160.4 15.1,160.5 				"/>
				<polygon fill="#E3C0B3" points="3,166.2 8.4,163.1 8.8,163.8 3.1,166.5 				"/>
				<polygon fill="#836055" points="16.2,141.1 15.7,141.2 15.3,141.1 15.2,140.7 13.9,140.6 13.4,140.8 12.8,140.3 12.3,140.6 
					11.8,140.9 11.2,140.8 11.2,141.4 10.9,141.9 9.6,143.6 10.8,141.6 10.7,140.4 11.9,140.5 12.9,139.9 13.4,140.2 15.6,140.4 
					15.6,140.9 				"/>
				<polygon fill="#836055" points="18,146.4 17.5,146.2 17.5,146.6 17.5,146.9 17.9,147.6 17.8,148 17.5,149.6 17.6,150 
					17.9,150.8 17.6,151.8 18.3,152.9 17.8,151.7 18.4,150.5 17.8,149.9 18.1,147.7 17.7,146.8 				"/>
				<polygon fill="#E3C0B3" points="17.1,163.3 14.3,161.7 14.3,161.5 16.9,162.8 				"/>
				<polygon fill="#E3C0B3" points="4.8,161.3 3.5,162.1 4.8,160.9 				"/>
				<polygon fill="#E3C0B3" points="18,143.5 18.1,143.6 16.3,142.9 16,142.9 15.3,143.3 15.2,143.5 15.2,143.8 15.2,144 
					14.7,144.4 15,143.8 14.9,143.4 16.1,142.6 				"/>
				<path fill="#6B2C29" d="M27.4,142.9l-0.5,1.2l-0.7,0.9l-0.6,0.7c0,0,0.1,0.8,0,0.9c-0.1,0.1-0.5,0.7-0.5,0.7l-0.8,0l-0.8,0.6
					l1.4-1.4l0.9-2.4L27.4,142.9z"/>
				<polygon fill="#6B2C29" points="29,148.9 27.1,150.7 26,150.7 25.5,150.9 25.2,151.8 25.9,151.1 28.3,150.3 				"/>
				<polygon fill="#E8D1B3" points="19,164.6 8.2,165.9 6.4,165.7 5,164.9 0.8,164.6 -3.6,166.1 -1.7,168.3 5,168.1 9.9,168.2 
					17.6,168.2 32.2,166.5 				"/>
			</g>
			<g>
				<polygon fill="#FAD4C1" points="-64.9,136.3 -64.5,137.1 -67.6,138.4 -68.2,136.8 -66.5,135.3 				"/>
				<g>
					<polygon fill="#853830" points="-49.4,128.4 -49.2,128.7 -62.1,135.2 -62.2,134.8 					"/>
					<polygon fill="#9CAA9D" points="-45.8,127.2 -46.6,127 -46.9,127.5 -47.1,127.5 -47.4,127.3 -48.9,128.3 -48.7,128.5 
						-48.6,128.7 -47.7,128.5 -46.6,128.1 					"/>
					<polygon fill="#727A7B" points="-48.9,128.3 -49,128.3 -49.4,128.4 -49.2,128.7 -48.6,128.7 -48.7,128.5 					"/>
					<polygon fill="#727A7B" points="-45.8,127.2 -46.5,127.7 -46.7,127.9 -46.9,128.1 -47.6,128.3 -47.8,128.4 -48.6,128.7 
						-47.7,128.5 -46.6,128.1 					"/>
				</g>
				<polygon fill="#6D8261" points="-64.9,130.1 -65.4,132.3 -66.2,134.7 -67.3,135.9 -66.6,135.4 -66.7,136 -65.6,135.8 
					-64.9,136.3 -64.4,137.3 -62.9,136.1 -61.6,136.9 -61.5,136 -59.9,136.8 -60.8,134.8 -60.8,134.8 -59.5,133.7 -59.4,131.7 
					-59.6,130.1 				"/>
				<polygon fill="#FAD4C1" points="-58.5,133.8 -57.5,134 -57.1,133.4 -57.3,132.8 -57.9,132.5 -58.4,132.7 -59.8,131.7 
					-60.4,131.3 -60.9,131.1 -61.6,129.8 -62.5,130.4 -62,132.2 				"/>
				<polygon fill="#846D72" points="-59,130.1 -59.7,128.9 -59.7,128.6 -59.5,128.7 -59.7,127.2 -59.5,127.4 -59.6,126.1 
					-59.1,126.5 -59.2,126.2 -60.2,125.4 -60.2,125 -61.2,125 -62.1,124.2 -62.7,124.9 -63.3,124.6 -63.3,125.5 -64,125.5 
					-63.8,126.2 -64.8,126.9 -64.3,127.4 -65,128.5 -64.6,128.7 -65.1,129.6 -64.9,130 -64.9,130.6 -64.8,131.3 -64.3,130.6 
					-63.8,130.8 -63.5,130.2 -62.9,130.1 -61.8,130.8 -61.7,131.3 -61,130.6 -60.3,131.5 -59.4,132.7 -59.5,131.6 				"/>
				<polygon fill="#FAD4C1" points="-60.2,136.7 -59.3,138.6 -61.7,139.1 -63.7,136.8 -62.9,136.1 -61.6,136.9 -61.6,136.9 
					-61.5,136 				"/>
				<polygon fill="#E5C2B3" points="-62.9,136.1 -63,136.2 -63.7,136.8 -61.7,139.1 -61.4,139.1 				"/>
				<polygon fill="#E5C2B3" points="-62.5,130.4 -62.1,131.7 -62.5,131.5 -62.6,130.5 				"/>
				<polygon fill="#5A605A" points="-62.4,133.2 -62.2,133.6 -62.6,133.5 -62.6,133.8 -62.9,133.7 -62.8,133.3 				"/>
				<polygon fill="#5A605A" points="-64.5,134.7 -64.4,135.3 -64.7,135.1 -64.7,135 -65.1,134.9 -65.1,134.6 				"/>
				<polygon fill="#FAD4C1" points="-59.2,126.3 -59.1,126.8 -59.4,127.1 -59.3,127.8 -60.5,127.4 -60.6,126.9 -61.1,126.8 
					-60.8,126.4 -60.9,126.2 -60.2,125.8 				"/>
				<ellipse fill="#7A5559" cx="-59.7" cy="127.3" rx="0.1" ry="0.1"/>
				<polygon fill="#5A605A" points="-60.8,135.4 -60.9,135.2 -61.2,135.2 -61.1,135.3 -61.3,135.3 -61.2,135.4 -61,135.4 -61,135.5 
									"/>
				<polygon fill="#E5C2B3" points="-67.7,138.2 -64.7,136.7 -64.5,137.1 -67.6,138.4 				"/>
				<polygon fill="#E5C2B3" points="-60,137 -61.5,136.1 -61.5,136 -60.2,136.7 				"/>
				<polygon fill="#E5C2B3" points="-66.6,135.6 -67.3,136.1 -66.6,135.4 				"/>
				<polygon fill="#E5C2B3" points="-59.2,126.3 -59.2,126.4 -60.2,126 -60.3,126 -60.7,126.1 -60.7,126.2 -60.7,126.4 -60.7,126.5 
					-61,126.7 -60.8,126.4 -60.9,126.2 -60.2,125.8 				"/>
				<polygon fill="#534447" points="-64.4,128.4 -63.8,126.6 -62.7,125.8 -62.1,124.9 -61.5,124.7 -62.1,124.2 -62.7,124.9 
					-63.3,124.6 -63.3,125.5 -64,125.5 -63.8,126.2 -64.8,126.9 -64.3,127.4 -65,128.5 -64.6,128.7 -65.1,129.6 -64.9,130 
					-64.9,130.6 -64.8,131.2 -63.8,130 				"/>
				<polygon fill="#E8D1B3" points="-60.7,137.5 -66.1,138.1 -67,138.1 -67.6,137.7 -69.7,137.5 -71.9,138.3 -71,139.3 -67.7,139.2 
					-65.2,139.3 -61.4,139.3 -54.2,138.5 				"/>
			</g>
		</g>
		<g id="dinosaur">
			<polygon fill="#6C8657" points="186.3,100.7 188.1,111 202.2,124 204.2,124 207.3,116.6 207.5,118 203.8,131.4 203.8,137.3 
				200.7,137.3 198.7,131.6 198.7,131.6 190.8,131.6 186.7,127.2 182,117.1 182.1,115.6 165.9,111.4 164.3,108.8 165.6,105 
				177,100.1 			"/>
			<polygon fill="#5A6146" points="187.8,128.3 190.8,131.6 191.8,131.6 190.9,136.3 187.6,136.3 			"/>
			<polygon fill="#5A6146" points="184.8,102 184,102.2 182.3,103.5 182.9,103.4 182.9,103.4 			"/>
			<circle fill="#3D3E3C" cx="183.7" cy="103.1" r="0.4"/>
			<polygon fill="#555A42" points="200.7,137.3 198.7,131.6 199.9,129.6 199.4,132.1 201,137.3 			"/>
			<polygon fill="#555A42" points="190.4,118.1 187.9,123.2 185.8,119.9 185.6,121.1 184.8,118.4 187.3,120.2 187.4,119.1 			"/>
			<polygon fill="#4A4D39" points="182.7,118.4 182,118 181.8,120.2 182.3,119.2 183.6,120.3 			"/>
			<polygon fill="#788061" points="187.6,135.8 188.3,135.9 188.4,136.3 187.6,136.3 			"/>
			<polygon fill="#4A4D39" points="164.4,108.9 170,111.3 170,111.4 164.6,109.3 			"/>
			<polygon fill="#5A6146" points="203.3,136.6 202.7,136.8 202.6,137.3 203.5,137.3 			"/>
			<polygon fill="#5A6146" points="202.3,137.3 202.1,136.7 201.4,136.8 201.3,137.3 			"/>
			<polygon fill="#414432" points="201.4,121.2 199.8,121.8 201.1,122.9 			"/>
			<polygon fill="#414432" points="199.5,118.3 198.6,120.6 197.3,119.5 			"/>
			<polygon fill="#414432" points="196.6,116.3 194.8,117.2 195.8,118.1 			"/>
			<polygon fill="#414432" points="192,114.6 193.4,114.1 193,115.5 			"/>
			<polygon fill="#414432" points="189.4,112.2 190.5,111.9 190.4,113.1 			"/>
			<polygon fill="#414432" points="187.5,107.8 188.6,108.2 187.7,109.1 			"/>
			<polygon fill="#414432" points="187.1,105.2 187.9,105.6 187.2,106.2 			"/>
			<polygon fill="#A4A161" points="182.1,115.6 182.1,115.7 182.2,117.3 187.3,124.9 191.5,127.5 195.4,131 198.7,131.6 
				190.8,131.6 186.7,127.2 182,117.1 			"/>
			<polygon fill="#4A4D39" points="191.8,131.6 190.8,131.6 190.8,131.6 190.7,136.3 190.9,136.3 			"/>
			<polygon fill="#555A43" points="187.8,128.3 190.8,131.6 190.8,134 			"/>
			<g>
				<polygon fill="#555A42" points="199,121.1 202.2,124 200.8,125.6 201,126.7 200.7,126 200.6,125.3 201.4,124.2 				"/>
				<path fill="#555A42" d="M202.2,124.2c-0.1,0-0.6,0.4-0.6,0.4l0.6-0.6h0.7C203,124,202.3,124.2,202.2,124.2z"/>
			</g>
			<g>
				<polygon fill="#D8D1C7" points="169.2,111.1 168.4,111.6 168.3,110.7 				"/>
			</g>
			<g>
				<polygon fill="#D8D1C7" points="167.7,110.5 167,110.9 166.8,110.1 				"/>
			</g>
			<g>
				<polygon fill="#D8D1C7" points="166.1,109.9 165.5,110.3 165.4,109.6 				"/>
			</g>
			<polygon fill="#8A925B" points="195.4,131 190.8,131.6 198.7,131.6 			"/>
			<polygon fill="#B5AC89" points="169.2,111.1 169,111 168.4,111.6 			"/>
			<polygon fill="#B5AC89" points="167.7,110.5 167.5,110.4 167,110.9 			"/>
			<polygon fill="#B5AC89" points="166.1,109.9 166,109.8 165.5,110.3 			"/>
			<polygon fill="#4A4D39" points="168,105.4 166.8,105.4 166.7,105.7 167.4,106 			"/>
			<polygon fill="#555A42" points="190,113.7 190.5,114.1 189.9,114.4 189.7,114 			"/>
			<polygon fill="#555A42" points="193.7,117.9 193.5,117.9 193,118.1 193,118.5 193.7,118.8 194.4,118.5 			"/>
			<polygon fill="#555A42" points="197.1,124.2 196.6,123.8 195.7,123.9 195.9,124.2 196.6,124.5 			"/>
			<polygon fill="#555A42" points="199.5,122.6 199.2,122.3 198.8,122.4 198.4,122.4 198.7,122.6 199,122.6 199.1,122.8 
				199.3,123.1 			"/>
			<polygon fill="#414432" points="190.4,118.1 187.9,122.8 187.8,122.8 187.2,122.1 187.9,123.2 			"/>
			<polygon fill="#484C38" points="165.7,111.1 182.1,115.6 182.1,115.7 182.1,115.6 165.9,111.4 			"/>
			<polygon fill="#555A42" points="207.4,117.2 204.2,124 207.3,116.6 			"/>
			<path fill="#555A42" d="M204.8,127.9c0,0.1-1,3.5-1,3.5v2.8l-0.6-3L204.8,127.9z"/>
			<polygon fill="#98A064" points="182.2,117.2 182.1,115.7 182.1,115.6 182,117.1 186.7,127.2 187.3,124.9 			"/>
		</g>
	</g>
</g>
</svg>
