<?xml version="1.0" encoding="utf-8"?>
<!-- Generator: Adobe Illustrator 18.0.0, SVG Export Plug-In . SVG Version: 6.00 Build 0)  -->
<!DOCTYPE svg PUBLIC "-//W3C//DTD SVG 1.1//EN" "http://www.w3.org/Graphics/SVG/1.1/DTD/svg11.dtd">
<svg version="1.1" id="Lag_1" xmlns="http://www.w3.org/2000/svg" xmlns:xlink="http://www.w3.org/1999/xlink" x="0px" y="0px"
	 viewBox="0 0 200 200" enable-background="new 0 0 200 200" xml:space="preserve">
<circle fill="#D7FFF4" cx="100" cy="100" r="90"/>
<g>
	<path fill-rule="evenodd" clip-rule="evenodd" fill="#862221" d="M46.5,88.4c-0.3,20.2,16.6,44.6,45.1,41
		c23.5-2.9,44.2-22.5,47.5-46.1c3.7-27.2-20.3-39.6-32.5-27c-14.1,14.5-19.7,13.3-26,11.5C62.9,62.6,46.8,66.9,46.5,88.4z"/>
	<path fill-rule="evenodd" clip-rule="evenodd" fill="#862221" d="M57,116.5c7.8,8.9,19.6,14.8,34.6,13
		c23.5-2.9,44.2-22.5,47.5-46.1c1.3-9.6-0.8-17.3-4.6-22.8L57,116.5z"/>
	<path fill-rule="evenodd" clip-rule="evenodd" fill="#B44535" d="M136.3,80c0-0.2,0-0.5,0-0.7c0-0.8,0-1.6,0-2.3c0-0.1,0-0.2,0-0.4
		c0-0.9-0.1-1.7-0.2-2.5c0-0.2-0.1-0.4-0.1-0.6c-0.1-0.7-0.2-1.3-0.4-2c0-0.1-0.1-0.3-0.1-0.4c-0.2-0.7-0.4-1.5-0.6-2.2
		c0-0.1-0.1-0.3-0.2-0.4c-0.2-0.6-0.4-1.2-0.7-1.7c-0.1-0.1-0.1-0.3-0.2-0.4c-0.3-0.6-0.6-1.3-1-1.8c0-0.1-0.1-0.1-0.1-0.2
		c-0.3-0.5-0.7-1-1-1.5c0-0.1-0.1-0.1-0.1-0.2l0,0c-6.2-8.1-17.2-9.5-24.1-2.4C95,73.1,87.3,72.7,81.7,71
		c-15.7-4.6-31.9-2.2-31.6,18.2c0.2,8.6,3.6,17.9,9.9,25l0,0c0,0.1,0.1,0.1,0.1,0.2c0.4,0.4,0.8,0.8,1.2,1.3
		c0.2,0.2,0.3,0.3,0.5,0.5c0.3,0.3,0.6,0.6,0.9,0.9c0.2,0.2,0.4,0.4,0.6,0.5c0.3,0.3,0.6,0.5,0.9,0.8c0.2,0.2,0.5,0.4,0.7,0.5
		c0.3,0.2,0.6,0.5,0.9,0.7c0.2,0.2,0.5,0.3,0.7,0.5c0.3,0.2,0.6,0.4,0.9,0.6c0.3,0.2,0.5,0.3,0.8,0.5c0.3,0.2,0.6,0.4,0.9,0.6
		c0.3,0.2,0.5,0.3,0.8,0.4c0.3,0.2,0.6,0.3,1,0.5c0.3,0.1,0.6,0.3,0.9,0.4c0.3,0.1,0.7,0.3,1,0.4c0.3,0.1,0.6,0.2,0.9,0.4
		c0.3,0.1,0.7,0.3,1,0.4c0.3,0.1,0.6,0.2,0.9,0.3c0.4,0.1,0.7,0.2,1.1,0.3c0.3,0.1,0.6,0.2,1,0.3c0.4,0.1,0.7,0.2,1.1,0.3
		c0.3,0.1,0.6,0.1,1,0.2c0.4,0.1,0.8,0.1,1.2,0.2c0.3,0,0.7,0.1,1,0.1c0.4,0,0.8,0.1,1.2,0.1c0.3,0,0.7,0.1,1,0.1c0.4,0,0.9,0,1.3,0
		c0.3,0,0.6,0,1,0c0.5,0,1,0,1.5,0c0.3,0,0.5,0,0.8,0c0.8-0.1,1.6-0.1,2.4-0.2c14.1-1.8,27-9.9,35.3-20.9c5-6.6,8.4-14.2,9.5-22.1
		c0,0,0,0,0,0C136.1,81.9,136.2,80.9,136.3,80z"/>
	<path fill-rule="evenodd" clip-rule="evenodd" fill="#862221" d="M133.6,73.8l-5.2-3.1l0.8-7c0.1-0.7-0.4-1.5-1.2-1.5h0
		c-0.7,0-1.4,0.5-1.5,1.2l-0.7,5.8l-1.8-1.1l0,0l-6.7-4l0.6-5.4c0.1-0.7-0.5-1.4-1.2-1.5c-0.7-0.1-1.4,0.5-1.5,1.2l-0.5,4.2
		l-2.3-1.4c-0.6-0.4-1.4-0.1-1.9,0.5c-0.5,0.5-0.2,1.5,0.5,1.9l3.4,2l-1.2,10.3l0,0l-0.1,1l-0.7-0.4l0,0l-9-5.4l0.1-1.2
		c0.1-0.7-0.5-1.5-1.2-1.5h0c-0.7,0-1.4,0.4-1.5,1.1l-1.1-0.7c-0.6-0.4-1.4-0.1-1.9,0.5c-0.5,0.5-0.2,1.5,0.5,1.9l2.1,1.3l-1.4,12
		l-10.3-6l0.4-3.5c0.1-0.7-0.5-1.5-1.2-1.5c-0.8,0-1.4,0.5-1.5,1.2L86.3,77l-6.6-3.8c-0.7-0.4-1.4-0.1-1.9,0.5h0
		c-0.5,0.5-0.2,1.5,0.5,1.9L86,80l-1.4,12.7l-10.1-5.9l1.6-14.6c0.1-0.7-0.5-1.5-1.2-1.5h0c-0.8,0-1.4,0.5-1.5,1.2l-1.5,13.4L63,80
		l0.7-6.6c0.1-0.7-0.4-1.5-1.2-1.5c-0.7,0-1.4,0.5-1.5,1.2l-0.6,5.4l-2.9-1.7c-0.6-0.4-1.4-0.1-1.9,0.5l0,0
		c-0.5,0.5-0.2,1.5,0.5,1.9l4,2.4L58.6,95l-3.4-2c-0.6-0.4-1.4-0.1-1.9,0.5h0c-0.5,0.5-0.2,1.5,0.5,1.9l4.4,2.6L57.2,108
		c-0.1,0.7,0.5,1.5,1.2,1.5c0.7,0,1.4-0.5,1.5-1.2l1-8.9l9,5.3l-1.5,14.2c-0.1,0.7,0.5,1.5,1.2,1.5c0.8,0,1.4-0.5,1.5-1.2l1.4-13
		l10.1,5.9l-1,9.6c0,0.2,0,0.4,0,0.6c0.2,0.5,0.6,1,1.2,1l0,0c0.8,0,1.4-0.5,1.5-1.2l0.9-8.3l10.1,5.9l-0.2,1.8
		c-0.1,0.7,0.5,1.5,1.2,1.5c0.8,0,1.4-0.5,1.5-1.2l0.1-0.6l1.6,0.9c0.6,0.4,1.9,0.3,1.9-0.5v0c0-0.2,0-0.4,0-0.6c0-0.5,0-1-0.5-1.3
		l-2.6-1.5l1.5-13.4l9.8,5.7l-0.6,5.7c-0.1,0.7,0.5,1.4,1.2,1.5c0.7,0.1,1.4-0.5,1.5-1.2l0.5-4.5l2,1.2c0.6,0.4,1.9,0.3,1.9-0.5
		c0-0.8,0.2-1.5-0.5-1.9l-3-1.8l1.5-13l8.5,4.9l-0.3,2.7c-0.1,0.7,0.4,1.5,1.2,1.5c0.7,0,1.4-0.5,1.5-1.2l0.2-1.5l0.7,0.4
		c0.8,0.5,1.3,0.3,1.6-0.1c0.5-0.6,0.4-1.9-0.2-2.3l-1.7-1l1.3-11.5l4.6,2.8c0.3,0.2,0.8,0.3,1.2,0.2c0.4-0.1,0.7-0.3,0.7-0.7l0,0
		c0-0.8,0.2-1.5-0.5-1.9l-5.7-3.4l1.3-11.4l4.1,2.4c0.6,0.4,1.9,0.3,1.9-0.5l0,0c0-0.2,0-0.4,0-0.6C134.1,74.5,134.1,74,133.6,73.8z
		 M115.4,81.4l8.5,5.1L122.6,98l-8.5-4.9L115.4,81.4z M101.4,88.9l9.8,5.7l-1.5,12.9l-9.8-5.7L101.4,88.9z M86.8,97.2l10.2,6
		l-1.5,13.4l-10.2-6L86.8,97.2z M117,67.1l8.5,5l-1.3,11.3l-8.5-5.1l0.5-4.7l0,0L117,67.1z M112.9,79.9l-1.3,11.8l-9.8-5.7l0.1-1.3
		l1.2-10.7L112.9,79.9z M88.6,81.5l9.4,5.4l0,0l0.9,0.5l-1.5,12.8l-10.2-6L88.6,81.5z M84.3,95.7l-1.5,13.4l-8.6-5l0,0l-1.5-0.9
		l1.5-13.4L84.3,95.7z M61.2,96.5L62.6,83l9,5.3l-1.5,13.4L61.2,96.5z"/>
	<path fill-rule="evenodd" clip-rule="evenodd" fill="#FFE6CE" d="M123.8,75.5c0.1-0.1,0.2-0.3,0.3-0.4c0.1-0.1,0.1-0.3,0.2-0.4
		c0.1-0.2,0.3-0.4,0.3-0.6c0,0,0-0.1,0-0.1c0.3-0.7,0.4-1.5,0.4-2.3c0-0.4,0-0.8-0.1-1.1c0-0.1-0.1-0.2-0.1-0.3
		c-0.1-0.3-0.1-0.5-0.2-0.8c0-0.1-0.1-0.2-0.1-0.3c-0.1-0.3-0.3-0.5-0.4-0.8c0-0.1-0.1-0.1-0.1-0.2c0,0,0,0,0,0l0,0
		c-1.1-1.6-3-2.7-5.1-2.7c-3.4,0-6.2,2.8-6.2,6.2c0,1.4,0.5,2.6,1.2,3.7l0,0c0.1,0.1,0.2,0.2,0.2,0.2c0.2,0.2,0.4,0.4,0.6,0.6
		c0.1,0.1,0.3,0.2,0.4,0.3c0.2,0.2,0.5,0.3,0.7,0.5c0.1,0.1,0.3,0.2,0.4,0.2c0.3,0.1,0.6,0.2,0.8,0.3c0.1,0,0.3,0.1,0.4,0.1
		c0.4,0.1,0.9,0.2,1.4,0.2c0.8,0,1.6-0.2,2.3-0.5c0,0,0,0,0.1,0c0.6-0.3,1.2-0.7,1.7-1.1c0.1-0.1,0.2-0.1,0.2-0.2
		C123.5,75.9,123.6,75.7,123.8,75.5z"/>
</g>
<g>
	<path fill="#71841F" d="M112.8,114.4c0.5,1.3,0.6,1.2,0.4-0.1c-0.4-3.3,0.5-7,2.6-10.3c0.9-1.4,1-2.2,0.3-2.3c0,0-0.1,0-0.1,0
		c-0.7,0-1.9,0.8-2.6,2.3C111.9,107.6,111.9,111.3,112.8,114.4z"/>
	<path fill="#D95B46" d="M107.3,112c5.3,2.2,6.6,1.9,11.1,0c10.6-4.7,21.8-1.2,20.2,19.3c-1.1,10.4-6.4,19.4-18.6,19.4
		c-2.5,0-4.9-0.4-7.1-1c-2.2,0.7-4.6,1.1-7.1,1.1c-12.2,0-17.6-8.9-18.7-19.3C85.4,110.9,96.6,107.4,107.3,112z"/>
	<path fill="#71841F" d="M123.9,101.9c0.1,4.7-3.2,8.3-8,9.4c-0.1,0-0.4-1.7-0.4-2.4c0.3-3.6,2.4-6.7,6.2-7.1
		C122.4,101.7,123.2,101.7,123.9,101.9z"/>
	<path fill="#F16A54" d="M112.8,113.6c-1.4,0-3-0.5-5.5-1.5c-10.6-4.6-21.8-1.1-20.1,19.4c1.1,10.4,6.5,19.3,18.7,19.3
		c2.5,0,4.8-0.4,7-1V113.6z"/>
	<g>
		<path fill="#879C29" d="M93.8,98.4c-0.7,0.2-1.3,0.5-2,0.8c0.1,1,0.3,2,0.6,2.9c2.6,9,10.9,14.5,18.5,12.3c0.7-0.2,1.3-0.5,2-0.8
			c-0.1-1-0.3-2-0.6-2.9C109.7,101.7,101.4,96.2,93.8,98.4z"/>
		<path fill="#71841F" d="M110.9,114.4c0.7-0.2,1.3-0.5,1.9-0.8c-6.4-6.1-15.1-12-21-14.5c0,0,0,0,0,0c0.1,1,0.3,2,0.6,2.9
			C95,111.1,103.3,116.6,110.9,114.4z"/>
	</g>
	<path fill="#879C29" d="M115.9,111.2c4.8-1.1,8-4.7,8-9.4c0,0,0,0,0,0C118.8,103.7,116.2,107.2,115.9,111.2z"/>
</g>
</svg>
