<?xml version="1.0" encoding="utf-8"?>
<!-- Generator: Adobe Illustrator 18.0.0, SVG Export Plug-In . SVG Version: 6.00 Build 0)  -->
<!DOCTYPE svg PUBLIC "-//W3C//DTD SVG 1.1//EN" "http://www.w3.org/Graphics/SVG/1.1/DTD/svg11.dtd">
<svg version="1.1" id="Lag_1" xmlns="http://www.w3.org/2000/svg" xmlns:xlink="http://www.w3.org/1999/xlink" x="0px" y="0px"
	 viewBox="0 0 200 200" enable-background="new 0 0 200 200" xml:space="preserve">
<circle fill="#1E5947" cx="100" cy="100" r="90"/>
<path fill="#FFFFFF" d="M82.8,122.9c-0.1-1.3-1.4-2.3-3-2.3c-0.3,0-0.5,0.1-0.9,0.1c-0.5-1.2-1.9-2-3.6-2c-0.7,0-1.4,0.2-2,0.5
	c-1-1.2-2.6-2-4.5-2c-2.3,0-4.4,1.2-5.1,2.9c-0.5-0.3-1.2-0.5-2-0.5c-1.5,0-2.8,0.7-3.3,1.8c-0.4-0.2-0.9-0.3-1.4-0.3
	c-1.4,0-2.6,0.8-2.9,1.8L82.8,122.9L82.8,122.9z"/>
<circle fill="none" stroke="#FFFFFF" stroke-width="0.25" stroke-miterlimit="10" stroke-dasharray="2,1" cx="99.7" cy="99.3" r="43"/>
<g>
	<circle fill="#FFFFFF" cx="143.5" cy="83.6" r="12.6"/>
	<g>
		<path fill="#E17773" d="M143.5,79.8c-0.9-1-1.6-1.7-3.1-1.7c-0.2,0-0.4,0-0.6,0.1c-1.4,0.1-2.9,1.4-3.1,3.7v0.8
			c0.2,2.3,1.9,5,6.8,8.5l0,0V79.8L143.5,79.8z"/>
		<path fill="#CB6B68" d="M147.3,78.1c-0.2,0-0.4-0.1-0.6-0.1c-1.5,0-2.3,0.7-3.1,1.7l0,0v11.3c5-3.5,6.7-6.3,6.8-8.5v-0.8
			C150.2,79.5,148.7,78.2,147.3,78.1z"/>
	</g>
</g>
<path fill="#99CBD1" d="M99.9,62.2c-20.5,0-37.1,16.7-37.1,37.1c0,20.5,16.2,37.1,37.2,37.1v0c20,0,37.1-16.6,37.1-37.1
	C137.1,78.9,120.4,62.2,99.9,62.2z"/>
<g>
	<path fill="#72DBD6" d="M62.9,99.4c0,20.5,16.6,37.1,37.1,37.1V62.2C79.5,62.2,62.9,78.9,62.9,99.4z"/>
	<path fill="#72DBD6" d="M100,62.2v74.3c20.5,0,37.1-16.6,37.1-37.1C137.1,78.9,120.5,62.2,100,62.2z"/>
</g>
<g>
	<path fill="#2C9389" d="M92.6,85.5c-0.6-0.7,0.9-1.4,0.4-1.7c-0.7-0.5-2,0-1.9,0.8c0.1,0.6-0.9,0.7-0.7-0.2
		c0.2-1.1-1.3-0.5-1.6-0.2c-0.4,0.4-1.1,1.4-0.9,2c0.3,0.9,1.5,0.2,2,0.2c0.9,0.1,1.6,0.7,2.5,0.7C94.2,87.5,93.2,86.2,92.6,85.5
		C92.4,85.3,92.8,85.8,92.6,85.5z"/>
	<path fill="#2C9389" d="M99,96.5c-0.7-0.4-1.4-1.9-2.3-1.9c-1,0,0.3,2.6,0.7,2.9c0.1,0.1,0.2-0.4,0.4-0.4c0.3-0.1-0.1,1.8,1.5,1.1
		c0.7-0.3,0.5-0.4,0.5-1.1C99.9,96.4,99.6,96.9,99,96.5C98.8,96.4,99.2,96.6,99,96.5z"/>
	<path fill="#2C9389" d="M100.8,72.9c0.5-0.2-0.9-0.7-1-0.8c0,0.3,0,0.7,0,1C100.2,73.1,100.5,73,100.8,72.9
		C101.1,72.8,100.6,73,100.8,72.9z"/>
	<path fill="#2C9389" d="M99.1,89.3c-0.1-0.7-0.2-2.1-0.5-2.6c-0.3-0.4-0.7-0.7-0.4-1.3c0.1-0.2,0.8-0.7,0.7-0.9
		c-0.1-0.4-1.7,0-1.9,0.2c-0.9,0.5-0.1,2.6,0.4,3.1c0.5,0.6-0.7,1.7,0.1,2.3c0.4,0.2,1.1,0.4,1.6,0.4C99.7,90.4,99.1,89.6,99.1,89.3
		z"/>
	<path fill="#2C9389" d="M79.7,76.8c0.4,0,2.3-1.2,1.7-1.5c-0.2-0.2-2.1,1-2.1,1.4C79.3,76.8,79.4,76.8,79.7,76.8z"/>
	<path fill="#2C9389" d="M80.4,77.6c-0.1,0-0.7,0.1-0.6,0.3c0.5,0.7,2.1,0.4,2.4-0.3c0.3-0.7,1.3-2.1,1.3-2.9
		c-0.1-1.4-1.5,0.7-1.7,1C81.6,76,80.7,77.5,80.4,77.6z"/>
	<path fill="#2C9389" d="M96.3,120c-0.5,0.2-1,1-1.4,1.4c-0.6,0.5-1.4,0.4-1.4,1.4c-0.1,1.1-0.7,4,1.5,3.4c1-0.2,1.2-1.8,1.5-2.6
		C96.6,123.1,97.2,119.7,96.3,120C96.2,120,96.4,119.9,96.3,120z"/>
	<path fill="#2C9389" d="M129.5,107c0.1,0.2,0.1,1.8,0.5,1.7c0.7-0.1,1.8-0.3,1.8-1.2c0-0.7,0.4-1.7,0.5-2.5c0.1-0.6-0.1-1-0.1-1.7
		c0.1-0.2,0.1-2.2-0.5-1.4c-0.3,0.4-0.5,1.1-0.7,1.6c-0.2,0.5-0.4,0.9-0.5,1.4C130.4,105.8,129.4,106.4,129.5,107z"/>
	<path fill="#2C9389" d="M132.6,97.7c0.1,0.2,1.2,2.5,1.4,2.4c0.6-0.5-0.1-2.6-0.4-3.2c-0.2-0.4-1.7-3.2-1.8-3.2
		C130.6,93.7,132.5,97.4,132.6,97.7z"/>
	<path fill="#2C9389" d="M131,91.4c0-0.1-0.3-1.3-0.6-1.2c-0.4,0.1,0.2,1.6,0.5,1.5C130.9,91.5,130.9,91.5,131,91.4
		C130.9,91.1,131,91.7,131,91.4z"/>
	<path fill="#2C9389" d="M115.7,106.6c-0.6-0.4-0.5,1.2-0.2,1.4C116,108.6,116.5,107.1,115.7,106.6
		C115.4,106.5,116,106.8,115.7,106.6z"/>
	<path fill="#2C9389" d="M100.2,62.5c-3.3,0-6.7,0.8-9.9,1.7C89.9,64.3,85,65.3,85,66c0,0.7,4-0.4,4.4-0.5c0.9-0.2,1.7-0.5,2.5-0.9
		c0.1,0,2.3-0.6,2-0.1c-0.2,0.4-2.2,0.7-2.8,0.9c-0.9,0.3-1.8,0.6-2.8,0.9c-1,0.3-2.1,0.6-3.1,1c-0.4,0.2-3.2,1.4-3.2,1.9
		c0,0,2.6-0.6,2.8-0.6c1.5-0.1,2.8,0.4,4.4,0c0.8-0.2,7.1-2.4,6.8-2.9c0.2,0.4-0.1,0.9,0.1,1.3c0.2,0.4,1,0.5,1.4,0.6
		c0.9,0.2,1.8,0.2,2.8,0.3C100.2,67.5,100.3,62.5,100.2,62.5z"/>
	<path fill="#2C9389" d="M101.7,68.4c2.1-1,3.7-0.1,5.9-0.2c0.6-0.1,0.3-0.3,0.7-0.5c0.4-0.2,1.1-0.1,1.5-0.1c0.3,0,0-2.4-0.1-2.6
		c-0.4-0.5-1.7-0.7-2.3-1c-0.6-0.3-1.2-0.7-1.8-0.9c-1.8-0.4-3.9-0.5-5.7-0.5c0,1.2,0,2.3,0,3.6c0,0.6,0,1.2,0,1.8
		C99.9,68.3,101.3,68.5,101.7,68.4C101.9,68.3,101.5,68.5,101.7,68.4z"/>
	<path fill="#2C9389" d="M99.5,71.5c-0.1,0.3,0.1,0.5,0.4,0.7c0-0.4,0-0.9,0-1.4C99.7,71,99.6,71.2,99.5,71.5
		C99.4,71.7,99.6,71.3,99.5,71.5z"/>
	<path fill="#2C9389" d="M135.6,107.5c-0.8,0.9-1,3.4-2,3.9c-0.5,0.3-0.7,1.2-0.9,1.7c-0.5,1.1-1.1,2.1-1.9,3.1
		c-1,1.2-2,2.2-2.6,3.6c-0.2,0.5-0.5,1-0.7,1.5c-0.3,0.5-1.4,1.8-1.4,2.4c0.1,0.9,2.4-0.8,2.6-1c0.1-0.2,0.2-0.4,0.4-0.5
		c0.9-1.4,1.7-2.7,2.5-4.1c1.8-3.2,4.4-7.2,4.7-11C135.9,107.2,135.8,107.4,135.6,107.5C135.4,107.8,135.9,107.2,135.6,107.5z"/>
	<path fill="#2C9389" d="M99.2,73.3c-0.5,0.1-1.8,0.6-2.3,0.9c-0.4,0.1-2.5,1.3-2-0.4c0.2-0.5,2.9,0.5,0.7-1.2c-1.3-1-2.3-1-3.9-0.5
		c-1.7,0.6-4.9,1.4-5.8,2.9c-0.6,1,2,0.4,0.5,2c-0.7,0.7,1.2,0.1,1.5-0.3c0.4-0.4,0.5-0.4,1-0.6c0.3-0.2,0.1-0.7,0.4-1.1
		c0.2-0.2,3.2-2,3.2-1.2c0,0.9-2.5,0.9-2.1,2.2c0.1,0.4,1.4,0,1.7,0.3c0.4,0.4-1.7,0.4-1.7,0.4c-0.9,0.2-1.5,1.8-2.1,1.7
		c-0.5,0-0.5,0.1-1-0.1c-0.7-0.1-1-0.1-1.7-0.4c-0.4-0.1,0.4-0.9,0.4-1.5c0.1-0.5-0.9,0.2-1,0.4c-0.3,0.9-0.5,0.9-1.4,0.9
		c-0.9,0.1-1.9,0.9-2.9,1c-0.5,0.1-0.9,0.2-1.4-0.1c-0.5-0.2-0.1,1-0.2,1.3c-0.4,0.5-0.8,2.1-1.7,1.5c-1.2-0.9-2,0.2-2.7,1.2
		c-0.9,0.1-0.4,1.4-0.4,2c-0.1,1.5,2.9-0.9,3.1-1c0.5-0.3,1.1-0.7,1.6-1c0.5-0.3,0.6,0.3,1,0.4c0.9,0.2,1-0.1,1.4,1
		c0.2,0.7,0.8,1.4,0.8,2.2c-0.1,1.1-2.3,0.3-1.2,1.4c0.6,0.6,1.7-1.4,1.9-1.5c0.1-0.1,0.2,0.3,0.4,0.2c0,0-0.8-2.1-0.8-2.4
		c-0.1-0.8,0.4-2,0.6-0.7c0.1,0.7,1,1.8,0.9,2.5c-0.1,0.2,0.1,2.8,0.2,2.8c-0.2,0.1,1.3-1,1.2-0.5c0.1-0.4-0.6-0.6-0.2-1
		c0.3-0.2,0.9-0.4,1.2-0.2c0.7,0.3-0.1,1.7,0.2,2.3c0.8,1.4,3.9,0.1,3.4,2.2c-0.5,2.6-3.1,1.9-4.8,1.2c-0.8-0.3-1.8-1.4-2.7-1
		c-0.4,0.2-0.4,0.7-0.8,0.8c-0.5,0.2-1.4-0.9-1.4-1.3c0-0.7-1.2-1.3-1.5-2c-0.2-0.5,1.5-1.4,0.9-1.9c-0.3-0.2-0.9-0.1-1.4-0.1
		c-0.5-0.1-0.9-0.5-1.5-0.6c-0.5-0.1-1,0.1-1.6-0.1c-0.5-0.1-1.2-1-1.7-0.5c-0.4,0.4-0.8,0.4-1.2,0.7c-0.4,0.3-0.6,0.8-0.9,1.2
		c-0.6,0.7-1.5,1-2.2,1.7c-1,1-2,2-2.3,3.5c-0.7,3.1-1.3,6.6,0.1,9.6c0.4,1.1,1.5,1.4,2.4,2c0.8,0.5,1.7-0.2,2.4,0.9
		c0.5,0.8,1.4,0.9,1.9,1.5c0.8,1.2-0.1,2.4,0.3,3.7c0.4,1.3,2,3.2,1.8,4.6c-0.1,0.7,0.8,1.2,0.4,2c-0.4,1-0.3,2,0.2,3
		c0.9,1.6,1.8,3.7,3.1,5c1.5,1.5,2.3,3.3,4.5,3.4c1.2,0.1,3.8-0.2,3.5-2.1c-0.1-0.9,1.4-0.7,0.9-1.9c-0.4-1,0.5-1.6,1.3-2
		c0.7-0.4,1.7-0.6,1.4-1.7c-0.2-0.9-0.4-1.7-0.7-2.6c-0.6-1.7-0.3-2.9,1-4.2c2.2-2,4.7-3.4,5.6-6.4c0.4-1.4-1.8-0.9-2.5-0.7
		c-1.8,0.2-2.3-1.4-3.4-2.6c-1.1-1.1-1.7-2.9-1.9-4.4c-0.1-0.5-1.4-4.7-0.9-4.5c1,0.3,1.7,3,2,3.9c0.5,1.5,1.4,2.8,1.8,4.4
		c0.2,0.5,0.3,1.2,0.6,1.7c0.3,0.5,1.3-0.1,1.8-0.1c0.9-0.2,1.8-0.3,2.6-0.8c0.6-0.4,1.2-1,1.9-1.2c1.4-0.3,0.7-3.9,0.7-5.1
		c-0.4,0.2-1.3,0.7-1.7,0.4c-0.2-0.1,0-1.2-0.3-1.2c-0.1,0-0.3,0.5-0.4,0.4c-0.4-0.2-1.7-2.9-0.7-2.9c1.3,0,1.5,2.1,3.1,2
		c0-7.8,0-15.7,0-23.5C99.9,73.1,99.6,73.2,99.2,73.3C99,73.3,99.5,73.2,99.2,73.3z M93.8,87c-0.3,0.5-1.7,0.3-2.1,0.1
		c-1-0.5-1.5-0.4-2.5-0.4c-2.4,0,0.4-3.6,1.3-2.9c0.4,0.3,0.1,1.4,0.7,1.3c0.8-0.1-0.1-1,0.8-1.2c0.4-0.1,2.5,0,1.2,0.7
		C91.8,85.3,94.3,86.1,93.8,87C93.7,87.2,93.9,86.8,93.8,87z M99.4,90.4c-2.6,0-1.3-1.7-2-3.1c-0.3-0.6-0.9-2.2-0.1-2.7
		c0.2-0.1,1.8-0.5,1.9-0.2c0.1,0.2-0.6,0.7-0.7,0.9c-0.4,0.8,0.5,0.9,0.5,1.5C99,87.6,99.9,90.4,99.4,90.4z"/>
	<path fill="#2C9389" d="M127.4,111.6c0.9,0.9,2.7,0.1,3.7-0.2c0.4-0.1,2.4-2,2.2-2c-0.2-0.1-1.6,1-2,1.2c-0.8,0.3-1.8,0.5-2.6,0.6
		c-0.9,0.1,0.1-1.5,0-1.7s-1-0.2-1.3-0.7c-0.3-0.5-3.7-2.6-3.7-1.8c0,0.6,1.5,1.6,1.8,2.1C126.1,110.1,126.6,110.8,127.4,111.6z"/>
	<path fill="#2C9389" d="M124.6,102.4c0.1,0.6-0.1,1.4,0.1,1.9c0.1,0.4,0.8,0.7,1,1.2c0.2,0.5,0.2,1.2,0.7,1.5
		c0.4,0.2,1.8,0.7,1-0.2c-0.4-0.4-0.2-1-0.6-1.4c-0.5-0.6-1.1-1-1.5-1.7c-0.2-0.4-0.1-3.2,0.2-2.9c0.1,0.1,0.1,0.2,0.1,0.4
		c0.2,0.2,0.7,0.1,1,0.4c0.1,0.1,1.4,1,1,1.2c1.3-0.7,1.2-3.1,0.7-4.1c-0.7-1.5-2.3-2.2-1.1-4.1c0.6-1,0.5,2.4,1.1,1.5
		c0.3-0.5-0.1-1-0.2-1.5c-0.1-0.6,0.7-1.4,1-2c1.1-2.6,0.4-5.9-1.9-7.4c-0.5-0.3-0.5-0.9-0.4-1.5c0.2-0.7-0.5-0.9-0.6-0.2
		c-0.1,0.3-1.8-1-1-1.9c0.2-0.2,0.5,0.5,0.7,0.5c0.4,0,0.2-1.2,0.7-0.2c0.1,0.1,2,1.8,1.8,2c0.7-0.4-0.7-1.9-1-2.1
		c-0.7-0.7-1-1.5-1.4-2.4c-0.7-2-1.2-3.6-2.9-5c-0.2-0.2-1.8-1.7-2.1-1.4c-0.5,0.5-1.4-0.9-1.7-1.3c-0.7-0.8-0.7-1.3-1-2.1
		c-0.2-0.8-1.5-0.9-1.9-1.6c0.2,0.4,2.3,1.2,2.8,1.5c0.7,0.4,1.4,1,2.2,1.4c-0.4-0.2-1.3-1.2-1.7-1.5c-1-0.7-2-1.4-3.1-2
		c-1.1-0.7-2.2-1.2-3.4-1.7c-0.5-0.2-2.3-1.2-2.7-1c-0.4,0.2,1,1.1,1.1,1.2c0.4,0.4,0.1,0.7-0.1,1.2c-0.1,0.1-0.6,0.4-0.3,0.5
		c0.3,0.1,0.2,0.4,0.1,0.7c-0.2,0.5-1.6-0.3-1.7,0c-0.2,0.5,0.1,0.5-0.8,0.7c-0.4,0.1-0.6,0.9-0.9,0.2c-0.7-1.5-2.6-0.3-2.9,0.8
		c-0.2,0.9-0.4,1.3-1.4,1.6c-0.6,0.2-0.3-0.2-0.9-0.4c-0.6-0.2,0,1.7-0.1,1.7c-0.4,0.1-2.2-0.5-2.3-1c-0.2-1.1,1.2-1.5,1.5-2.3
		c-1.6,0.5-2.1,1-2.1,2.6c0,0.4,2.3,0.9,0.1,1.1c-0.1,0-0.1,0.2-0.1,0.3c0,2.4,0,4.9,0,7.4c0,5.3,0,10.5,0,15.8
		c1-0.1,0.9-0.1,1.5,0.5c0.4,0.4,1.7,0.2,2.2,0.3c1,0.1,2-0.3,2.9-0.1c0.2,0.1,1.4,1.1,1.4,1.4c0.3,0.8,1.1,1.3,1.8,0.8
		c0.9-0.6,0.8,0.6,0.9,1.3c0.3,2.2,1.7,3.8,2.5,5.8c0.8,1.9,2-1.4,1.9-2.2c-0.1-1-0.2-1.6,0.5-2.4c0.7-0.8,1.3-1.7,1.9-2.6
		c0.4-0.6,0.5-1.4,1.2-1.7c0.9-0.3,1.1-1,1.9-0.3c0.7,0.7,1.6,1.4,1.6,2.4c0,1.5,1.3-0.4,1.2-0.4C124,100,124.5,101.7,124.6,102.4
		C124.6,102.9,124.6,102.1,124.6,102.4z"/>
	<path fill="#2C9389" d="M100.2,102.6c1-0.8,1.5-1.5,2.2-2.6c0.5-0.7-0.4-1.2-0.9-1.5c-1-0.5-0.3-1.6-1.7-0.7c-0.2,0.4,0,1.8,0,2.3
		c0,0.9,0,1.8,0,2.6C100,102.8,100,102.7,100.2,102.6C100.4,102.4,100.1,102.7,100.2,102.6z"/>
</g>
<path fill="#FFFFFF" d="M133.3,132.5c-0.1-1.1-1.2-2-2.6-2c-0.2,0-0.5,0-0.7,0.1c-0.5-1-1.7-1.7-3.1-1.7c-0.6,0-1.2,0.1-1.7,0.4
	c-0.9-1-2.3-1.7-3.9-1.7c-2,0-3.7,1-4.4,2.5c-0.5-0.2-1.1-0.4-1.7-0.4c-1.3,0-2.4,0.6-2.9,1.5c-0.4-0.2-0.8-0.2-1.2-0.2
	c-1.2,0-2.3,0.7-2.5,1.6L133.3,132.5L133.3,132.5z"/>
<path fill="#72DBD6" d="M65.9,121c0-0.9-1-1.7-2.1-1.7c-0.2,0-0.4,0-0.6,0c-0.4-0.8-1.4-1.4-2.5-1.4c-0.5,0-1,0.1-1.4,0.3
	c-0.7-0.9-1.9-1.4-3.2-1.4c-1.7,0-3.1,0.9-3.6,2.1c-0.4-0.2-0.9-0.3-1.4-0.3c-1.1,0-2,0.5-2.4,1.3c-0.3-0.1-0.7-0.2-1-0.2
	c-1,0-1.9,0.6-2.1,1.3L65.9,121L65.9,121z"/>
<g>
	<circle fill="#498963" cx="54.1" cy="90.3" r="16.1"/>
	<path fill="#437758" d="M60.9,86c-0.7-0.8-1.8-1.4-3-1.4c-0.2,0-0.3,0-0.5,0c-0.7-1-2-1.7-3.3-1.7c-0.1,0-0.2,0-0.3,0
		c-1.3,0.1-2.4,0.7-3,1.7c-0.2,0-0.3,0-0.5,0c-2.2,0-4.1,1.8-4.1,3.9c0,1.2,0.5,2.2,1.4,2.9l0,0l2.1,2.1c0.1,0.6,0.2,1.2,0.3,1.8
		c0.1,0.5,0.3,0.9,0.5,1.2l0,0l8.9,8.9c4.9-1.8,8.7-5.8,10.1-10.9L60.9,86L60.9,86z"/>
	<g>
		<path fill="#F2EFDC" d="M61.8,88.5c0-2.1-1.8-3.9-4.1-3.9c-0.2,0-0.3,0-0.5,0c-0.7-1-2-1.7-3.3-1.7c-1.4,0-2.6,0.7-3.3,1.7
			c-0.2,0-0.3,0-0.5,0c-2.2,0-4.1,1.8-4.1,3.9c0,1.9,1.4,3.5,3.2,3.9c0.2,1,0.3,2,0.5,3.1c0.2,0.9,0.8,1.6,1.4,1.5
			c1.8-0.2,3.5-0.2,5.3,0c0.6,0.1,1.3-0.6,1.4-1.5c0.1-0.8,0.2-1.7,0.4-2.4c-0.1,0-0.1,0-0.1,0c-1.3,0-2.4-0.5-3.1-1.5
			c0.7,0.5,1.6,0.9,2.6,0.9C60.1,92.5,61.8,90.7,61.8,88.5z"/>
		<path fill="#DCDAC8" d="M57.9,84.6c-0.2,0-0.3,0-0.5,0c-0.7-1-2-1.7-3.3-1.7c-0.1,0-0.2,0-0.3,0v13.8c1,0,2,0.1,2.9,0.1
			c0.6,0.1,1.3-0.6,1.4-1.5c0.1-0.8,0.2-1.7,0.4-2.4c-0.1,0-0.1,0-0.1,0c-1.3,0-2.4-0.5-3.1-1.5c0.7,0.5,1.6,0.9,2.6,0.9
			c2.2,0,4.1-1.8,4.1-3.9C61.8,86.4,60.1,84.6,57.9,84.6z"/>
		<ellipse fill="#F2EFDC" cx="53.8" cy="86.9" rx="3.1" ry="4"/>
	</g>
</g>
<g>
	<circle fill="#1E4344" cx="131.3" cy="120" r="12.7"/>
	<path fill="#163233" d="M136.5,116.4L136.5,116.4h-0.2l0,0c-0.2,0-0.3,0-0.4,0.2c-0.1,0-0.2,0-0.2,0c-0.2,0.1-0.2,0.2-0.2,0.4
		c0-0.1-0.1-0.1-0.1-0.1c-0.2-0.2-0.4-0.3-0.6-0.4c-2.1-0.5-4.2-0.5-6.3,0h-0.1c-1.1,0.2-1.2-0.2-2.3-0.1c-0.2,0-0.5,0.1-0.7,0.2
		c0.2,0.4,0.4,0.7,0.7,1c0.2,0.2,0.5,0.4,0.7,0.7c-0.2-0.2-0.5-0.3-0.7-0.5c-0.3,0.3-0.6,0.7-0.9,0.7l-0.1-0.1
		c-0.1,0-0.2,0.1-0.2,0.2v0.8l0,0l0,0l4,4c-0.1,0.2-0.2,0.3-0.1,0.3l0,0l7.8,7.8c3.4-1.5,6-4.5,7-8.2L136.5,116.4z"/>
	<g>
		<g>
			<path fill="#DCDAC8" d="M130.9,123.1l-0.2-1.2c-0.3,0-0.7,0-0.9,0c0,0,0.4,1,0.5,1.2c0,0.2-0.4,0.7-0.2,0.7
				c0.3,0.1,0.7-0.1,0.7-0.1C130.8,123.3,130.7,122.9,130.9,123.1z"/>
			<path fill="#DCDAC8" d="M128.2,116.5L128.2,116.5c0.1,0,0.1,0,0.2,0c-0.2-0.2-0.5-0.4-1.1-0.6c-0.2-0.1-0.4-0.1-0.7-0.1
				c0.1,0.2,0.1,0.3,0.2,0.5C127.3,116.5,127.5,116.7,128.2,116.5z"/>
			<path fill="#F2EFDC" d="M136.4,116.5C136.4,116.5,136.5,116.5,136.4,116.5L136.4,116.5L136.4,116.5c-0.3-0.1-0.4-0.1-0.5,0.1
				c-0.1,0-0.2,0-0.2,0c-0.2,0.1-0.2,0.2-0.2,0.4c0-0.1-0.1-0.1-0.1-0.1c-0.2-0.2-0.4-0.3-0.6-0.4c-2.1-0.5-4.2-0.5-6.3,0h-0.1
				c-1.1,0.2-1.2-0.2-2.3-0.1c-0.2,0-0.5,0.1-0.7,0.2c0.2,0.4,0.4,0.7,0.7,1c0.2,0.2,0.5,0.4,0.7,0.7c-0.2-0.2-0.5-0.3-0.7-0.5
				c-0.3,0.3-0.6,0.7-0.9,0.7l-0.1-0.1c-0.1,0-0.2,0.1-0.2,0.2v0.8h0.8c-0.2,0.1-0.2,0.2-0.4,0.2c0.2,0.1,0.5,0.1,0.7,0.2
				c0,0,0,0,0.1,0c0.2,0.3,0.4,0.7,0.7,0.7s0.8,0.3,1.3,0.5c0,0,0.1,0.1,0.2,0.1c0.2,0.5,0.7,1.4,0.7,1.7c0,0.2-0.6,0.8-0.2,0.9
				c0.2,0.1,0.8-0.1,0.8-0.1c0-0.3-0.1-0.7,0.2-0.5l-0.2-1.7c1.1,0.2,2.1,0.2,3.1,0.1c0.2,0.2,0.3,0.2,0.5,0.3
				c0.3,0.2,0.6,0.2,0.8,0.2c0,0.5-0.2,1.1-0.2,1.1s-0.7,0.6-0.5,0.7c0.2,0.2,0.8,0.1,0.8,0.1c0.1-0.2,0-0.5,0.3-0.4l0.7-1.9
				c0-0.2-0.2-0.1-0.2-0.6c0.3-0.2,0.6-0.7,0.7-1.2c0.1-0.3,0.2-0.7,0.2-1.2c0-0.5-0.1-0.9-0.2-1.3l0,0c0-0.2-0.1-0.2-0.1-0.4
				c0-0.1,0-0.2,0-0.3c0-0.1,0.2-0.1,0.2-0.1c-0.1,0.2-0.1,0.4,0.1,0.4c0.2,0,0.2-0.1,0.2-0.3c0-0.1-0.1-0.2-0.2-0.2
				c0-0.1,0.1-0.1,0.1-0.2c0,0,0.1,0,0.1,0.1c-0.1,0.2-0.1,0.3,0.2,0.2C136.6,116.8,136.6,116.6,136.4,116.5z M136,117L136,117
				C136,117,136,117,136,117L136,117z"/>
		</g>
		<path fill="#DCDAC8" d="M135.4,119.7c0,0.5-0.4,0.8-0.8,0.8h-7.4c-0.5,0-0.8-0.4-0.8-0.8l0,0c0-0.5,0.4-0.8,0.8-0.8h7.4
			C135,118.8,135.4,119.2,135.4,119.7L135.4,119.7z"/>
		<ellipse fill="#DCDAC8" cx="131.2" cy="120.3" rx="3.8" ry="0.7"/>
		<ellipse fill="#F2EFDC" cx="131.2" cy="118.5" rx="4" ry="0.7"/>
		<path fill="#DCDAC8" d="M135,121.7c-0.7-0.7-1-1.4-1-1.9c-0.8,0.2-1.3,0.6-1.3,1c0,0.4,0.6,0.7,1.4,1
			C134.5,121.8,134.7,121.8,135,121.7z"/>
		<path fill="#DCDAC8" d="M126.1,117.9c-0.1,0.2-0.2,0.4-0.2,0.7c0,0.7,0.4,1.2,0.8,1.2c0.4,0,0.7-0.3,0.8-0.8
			C127,118.8,126.4,118.4,126.1,117.9z"/>
		<path fill="#DCDAC8" d="M126.5,119.2c0,0.1-0.1,0.2-0.2,0.2h-1.1c-0.1,0-0.2-0.1-0.2-0.2V119c0-0.1,0.1-0.2,0.2-0.2h1.1
			c0.1,0,0.2,0.1,0.2,0.2V119.2z"/>
		<path fill="#DCDAC8" d="M126.1,118.2C126.1,118.2,126,118.2,126.1,118.2c-0.2,0.3-0.6,0.6-1,0.6c-0.1,0.1-0.1,0.2-0.1,0.3
			c0.4,0.2,1,0.4,1.6,0.4c0.2,0,0.4,0,0.6-0.1c0-0.1,0-0.1,0-0.2C127.2,118.9,126,118.2,126.1,118.2z"/>
	</g>
</g>
<path fill="#72DBD6" d="M157,133.6c-0.1-1.7-1.8-3-3.9-3c-0.3,0-0.8,0.1-1.1,0.1c-0.7-1.5-2.5-2.6-4.6-2.6c-1,0-1.8,0.2-2.6,0.6
	c-1.3-1.6-3.5-2.6-5.9-2.6c-3,0-5.6,1.6-6.6,3.7c-0.8-0.4-1.6-0.6-2.6-0.6c-1.9,0-3.6,0.9-4.3,2.3c-0.6-0.2-1.2-0.3-1.8-0.3
	c-1.8,0-3.4,1.1-3.8,2.4L157,133.6L157,133.6L157,133.6z"/>
<path fill="#72DBD6" d="M60.5,77.3c0-1.2-1.3-2.1-2.7-2.1c-0.2,0-0.5,0-0.7,0.1c-0.5-1-1.7-1.8-3.1-1.8c-0.7,0-1.3,0.1-1.8,0.4
	c-0.9-1.1-2.4-1.8-4.1-1.8c-2.1,0-3.9,1.1-4.6,2.6c-0.5-0.3-1.1-0.4-1.8-0.4c-1.3,0-2.5,0.6-3,1.5c-0.4-0.1-0.8-0.2-1.3-0.2
	c-1.3,0-2.3,0.7-2.6,1.6L60.5,77.3L60.5,77.3L60.5,77.3z"/>
<g>
	<circle fill="#F9DD12" cx="80.5" cy="138.7" r="13.2"/>
	<path fill="#F7CB14" d="M85.7,132.7l-0.4-0.4l-0.6,0.7l-1.1-1.1l0,0l-0.6-0.3l-2.1,4.5c-0.1-0.2-0.4-0.4-0.7-0.4
		c-0.3,0-0.6,0.1-0.8,0.4c-0.1-0.1-0.4-0.1-0.6-0.1c-0.5,0-0.9,0.1-1.3,0.4c-0.2-0.1-0.5-0.1-0.8-0.1c-1,0-1.8,0.7-2,1.6
		c-0.1,0-0.2-0.1-0.3-0.1c-0.5,0-0.9,0.4-0.9,0.9c0,0.1,0,0.2,0.1,0.3h-0.4c0.4,1,1,1.9,1.8,2.7l0,0l9.5,9.5
		c4.8-1.5,8.4-5.7,9.1-10.8L85.7,132.7L85.7,132.7z"/>
	<g>
		<circle fill="#F2EFDC" cx="80" cy="136.6" r="0.9"/>
		<circle fill="#F2EFDC" cx="81.4" cy="136.9" r="0.9"/>
		<circle fill="#DCDAC8" cx="80.2" cy="136.5" r="0.5"/>
		<polygon fill="#D95B46" points="83.5,131.9 78.5,140.9 82.9,131.6 		"/>
		<polygon fill="#D95B46" points="85.7,132.8 78.6,140.1 85.2,132.2 		"/>
		<ellipse fill="#F2EFDC" cx="79.7" cy="139" rx="5" ry="2.5"/>
		<circle fill="#F2EFDC" cx="74.3" cy="138.7" r="0.9"/>
		<circle fill="#F2EFDC" cx="85.5" cy="138.7" r="0.9"/>
		<circle fill="#F2EFDC" cx="82.9" cy="137.1" r="0.9"/>
		<circle fill="#F2EFDC" cx="76.7" cy="138.3" r="2"/>
		<circle fill="#F2EFDC" cx="84.1" cy="138.7" r="2"/>
		<ellipse fill="#DCDAC8" cx="84.1" cy="139.3" rx="1.9" ry="1.9"/>
		<circle fill="#DCDAC8" cx="81.6" cy="138.9" r="2"/>
		<circle fill="#F2EFDC" cx="78.7" cy="138" r="2"/>
		<circle fill="#DCDAC8" cx="83.2" cy="138" r="0.9"/>
		<circle fill="#DCDAC8" cx="80.5" cy="138.7" r="0.9"/>
		<circle fill="#DCDAC8" cx="77.9" cy="138.7" r="0.9"/>
		<circle fill="#DCDAC8" cx="76.2" cy="138.4" r="0.3"/>
		<circle fill="#DCDAC8" cx="78.2" cy="137.2" r="0.3"/>
		<circle fill="#DCDAC8" cx="79.5" cy="138.9" r="0.3"/>
		<path fill="#2D4124" d="M82.2,143.5c0,0.3-0.2,0.5-0.5,0.5h-3.8c-0.3,0-0.5-0.2-0.5-0.5l0,0c0-0.3,0.2-0.5,0.5-0.5h3.7
			C82,143,82.2,143.2,82.2,143.5L82.2,143.5z"/>
		<path fill="#405933" d="M73.1,139c1,2.7,3.6,4.6,6.7,4.6c3,0,5.7-1.9,6.7-4.6H73.1z"/>
		<path fill="#2D4124" d="M79.8,143.7c3,0,5.7-1.9,6.7-4.6h-6.7V143.7z"/>
	</g>
</g>
<path fill="#72DBD6" d="M82.8,59.8c0.2-2.6,2.7-4.6,6-4.6c0.6,0,1.1,0.1,1.7,0.2c1-2.3,3.9-3.9,7-3.9c1.5,0,2.8,0.3,4,0.9
	c2-2.4,5.3-4,9.1-4c4.7,0,8.7,2.4,10.2,5.8c1.1-0.6,2.5-0.9,3.9-0.9c3,0,5.5,1.5,6.6,3.5c0.9-0.3,1.8-0.6,2.8-0.6
	c2.8,0,5.2,1.6,5.8,3.7C140.1,59.8,82.8,59.8,82.8,59.8z"/>
<g>
	<circle fill="#F2EFDC" cx="107.5" cy="50.6" r="14.6"/>
	<path fill="#DCDAC8" d="M113.2,43.1L113.2,43.1L113.2,43.1c-0.3-0.2-0.6-0.2-0.8,0c-0.1,0.1-0.1,0.1-0.1,0.2
		c-0.3,0-0.6,0.1-0.7,0.3l0,0c-0.1-0.1-0.3-0.2-0.5-0.2c0-0.2-0.1-0.3-0.3-0.4c-0.3-0.2-0.6-0.1-0.7,0.1c-0.4-0.2-0.8-0.1-1.1,0.2
		c-0.3-0.2-0.6-0.1-0.7,0.2c-0.1,0.2-0.1,0.5,0,0.6c-0.1,0.1-0.1,0.1-0.2,0.2c-0.3,0.5-0.2,1.1,0.3,1.4c0.2,0.1,0.3,0.2,0.5,0.2
		c-0.3,0.6-0.6,1.1-0.9,1.7c-0.7-0.1-1.5,0.2-2.1,0.9l-5.8,8.3c-0.5,0.6-0.6,1-0.4,1.1l7.4,7.4c0.2,0,0.4,0,0.6,0
		c7.6,0,13.9-5.8,14.5-13.2L113.2,43.1z"/>
	<g>
		<g>
			<path fill="#71841F" d="M108.9,48.9c-0.5,0.4-0.6,0.2-0.3-0.3c0.8-1.1,1.8-2.1,2.7-3.2c0.4-0.4,0.8-0.5,1-0.3l0,0
				c0.2,0.2,0.1,0.6-0.3,1C111.2,47.1,110,48.1,108.9,48.9z"/>
			<circle fill="#71841F" cx="111.1" cy="44.1" r="0.6"/>
			<circle fill="#71841F" cx="112.7" cy="43.6" r="0.6"/>
			<circle fill="#71841F" cx="113.7" cy="45.1" r="0.6"/>
			<circle fill="#71841F" cx="113" cy="44.8" r="0.8"/>
			<circle fill="#71841F" cx="111.2" cy="45" r="1"/>
			<circle fill="#71841F" cx="112.2" cy="44.3" r="1"/>
			<circle fill="#71841F" cx="112.4" cy="45.8" r="1"/>
		</g>
		<g>
			<path fill="#879C29" d="M107.4,49.3c-0.4,0.5-0.6,0.4-0.3-0.2c0.6-1.2,1.2-2.5,2-3.6c0.3-0.5,0.6-0.6,0.9-0.6l0,0
				c0.2,0.1,0.2,0.6-0.1,1C109.2,47.1,108.4,48.3,107.4,49.3z"/>
			<circle fill="#879C29" cx="108.6" cy="44" r="0.6"/>
			<circle fill="#879C29" cx="110.5" cy="43.6" r="0.6"/>
			<circle fill="#879C29" cx="111.2" cy="44.5" r="0.6"/>
			<circle fill="#879C29" cx="110.5" cy="44.4" r="0.8"/>
			<circle fill="#879C29" cx="108.8" cy="45" r="1"/>
			<circle fill="#879C29" cx="109.7" cy="44.2" r="1"/>
			<circle fill="#879C29" cx="110.2" cy="45.5" r="1"/>
		</g>
		<g>
			<path fill="#879C29" d="M108,50.3c-0.5,0.4-0.4,0.6,0.2,0.3c1.2-0.6,2.5-1.2,3.6-2c0.5-0.3,0.6-0.6,0.6-0.9l0,0
				c-0.1-0.2-0.6-0.2-1,0.1C110.1,48.5,109,49.4,108,50.3z"/>
			<circle fill="#879C29" cx="113.3" cy="49.1" r="0.6"/>
			<circle fill="#879C29" cx="113.7" cy="47.2" r="0.6"/>
			<circle fill="#879C29" cx="112.6" cy="46.5" r="0.6"/>
			<circle fill="#879C29" cx="112.7" cy="47.1" r="0.8"/>
			<circle fill="#879C29" cx="112.2" cy="48.8" r="1"/>
			<circle fill="#879C29" cx="113.1" cy="48.1" r="1"/>
			<circle fill="#879C29" cx="111.7" cy="47.5" r="1"/>
		</g>
		<g>
			<path fill="#FBAB18" d="M100.7,57.5c-1.1,0.8-1.5,0.6-0.6-0.6l5.8-8.3c0.8-1.1,2.3-1.3,3.3-0.3l0.1,0.1c1,1,0.8,2.5-0.3,3.3
				L100.7,57.5z"/>
			<path fill="#E39910" d="M109.3,48.4L109.3,48.4l-9.7,9.5c0.1,0.1,0.5,0,1-0.4l8.3-5.8C110.1,50.9,110.2,49.4,109.3,48.4z"/>
			<g>
				<g>
					<g>
						<defs>
							<path id="SVGID_1_" d="M100.7,57.5c-1.1,0.8-1.5,0.6-0.6-0.6l5.8-8.3c0.8-1.1,2.3-1.3,3.3-0.3l0.1,0.1c1,1,0.8,2.5-0.3,3.3
								L100.7,57.5z"/>
						</defs>
						<clipPath id="SVGID_2_">
							<use xlink:href="#SVGID_1_"  overflow="visible"/>
						</clipPath>
						<g clip-path="url(#SVGID_2_)">
							<path fill="#FBAB18" d="M108.6,51.6c-0.9-1-0.8-1.1,0.2-0.2l7.4,6.6c1,0.9,1.7,2,1.4,2.2l0,0c-0.3,0.3-1.3-0.3-2.2-1.4
								L108.6,51.6z"/>
							<path fill="#FBAB18" d="M105.3,54.3c-0.9-1-0.8-1.1,0.2-0.2l7.4,6.6c1,0.9,1.7,2,1.4,2.2l0,0c-0.3,0.3-1.3-0.3-2.2-1.4
								L105.3,54.3z"/>
							<path fill="#FBAB18" d="M103.5,55.9c-0.9-1-0.8-1.1,0.2-0.2l7.4,6.6c1,0.9,1.7,2,1.4,2.2l0,0c-0.3,0.3-1.3-0.3-2.2-1.4
								L103.5,55.9z"/>
							<path fill="#E39910" d="M105.4,51c1,0.9,1.1,0.8,0.2-0.2L99,43.4c-0.9-1-2-1.7-2.2-1.4l0,0c-0.3,0.3,0.3,1.3,1.4,2.2
								L105.4,51z"/>
							<path fill="#E39910" d="M103.8,51.9c1,0.9,1.1,0.8,0.2-0.2l-6.6-7.4c-0.9-1-2-1.7-2.2-1.4l0,0c-0.3,0.3,0.3,1.3,1.4,2.2
								L103.8,51.9z"/>
							<path fill="#E39910" d="M100.3,55.9c1,0.9,1.1,0.8,0.2-0.2l-6.6-7.4c-0.9-1-2-1.7-2.2-1.4l0,0c-0.3,0.3,0.3,1.3,1.4,2.2
								L100.3,55.9z"/>
							<g>
								<path fill="#E39910" d="M107.3,51.1C107.4,51.1,107.4,51.1,107.3,51.1l-0.6-0.8c-0.1-0.1-0.2-0.1-0.3-0.1l0,0
									c-0.1,0.1,0,0.2,0.1,0.3L107.3,51.1z"/>
								<path fill="#E39910" d="M105.8,49.6C105.8,49.5,105.8,49.5,105.8,49.6l0.8,0.6c0.1,0.1,0.1,0.2,0.1,0.3l0,0
									c-0.1,0.1-0.2,0-0.3-0.1L105.8,49.6z"/>
							</g>
							<g>
								<path fill="#E39910" d="M106.7,53.4C106.8,53.5,106.8,53.4,106.7,53.4l-0.6-0.8c-0.1-0.1-0.2-0.1-0.3-0.1l0,0
									c-0.1,0.1,0,0.2,0.1,0.3L106.7,53.4z"/>
								<path fill="#E39910" d="M105.2,51.9C105.1,51.8,105.2,51.8,105.2,51.9l0.8,0.6c0.1,0.1,0.1,0.2,0.1,0.3l0,0
									c-0.1,0.1-0.2,0-0.3-0.1L105.2,51.9z"/>
							</g>
							<g>
								<path fill="#FBAB18" d="M106.7,53.4C106.8,53.4,106.8,53.4,106.7,53.4l-0.5-0.7c-0.1-0.1-0.2-0.1-0.3-0.1l0,0
									c-0.1,0.1-0.1,0.2,0.1,0.3L106.7,53.4z"/>
								<path fill="#FBAB18" d="M105.4,52.1C105.3,52,105.4,52,105.4,52.1l0.7,0.5c0.1,0.1,0.1,0.2,0.1,0.3l0,0
									c-0.1,0.1-0.2,0.1-0.3-0.1L105.4,52.1z"/>
							</g>
							<g>
								<path fill="#E39910" d="M103.2,54.3C103.4,54.4,103.4,54.3,103.2,54.3l-0.6-0.8c-0.1-0.1-0.2-0.1-0.3-0.1l0,0
									c-0.1,0.1,0,0.2,0.1,0.3L103.2,54.3z"/>
								<path fill="#E39910" d="M101.9,52.8C101.7,52.7,101.7,52.7,101.9,52.8l0.8,0.6c0.1,0.1,0.1,0.2,0.1,0.3l0,0
									c-0.1,0.1-0.2,0-0.3-0.1L101.9,52.8z"/>
							</g>
							<g>
								<path fill="#E39910" d="M102.4,55.8C102.5,55.9,102.5,55.9,102.4,55.8l-0.6-0.8c-0.1-0.1-0.2-0.1-0.3-0.1l0,0
									c-0.1,0.1,0,0.2,0.1,0.3L102.4,55.8z"/>
								<path fill="#E39910" d="M101,54.4C100.9,54.3,100.9,54.3,101,54.4l0.8,0.6c0.1,0.1,0.1,0.2,0.1,0.3l0,0
									c-0.1,0.1-0.2,0-0.3-0.1L101,54.4z"/>
							</g>
							<path fill="#FBAB18" d="M107.3,51l-0.4-0.5l-0.2,0.2L107.3,51C107.4,51.1,107.4,51.1,107.3,51z"/>
						</g>
					</g>
				</g>
			</g>
		</g>
	</g>
</g>
<path fill="#72DBD6" d="M99.4,50.2c-0.1-1.4-1.5-2.5-3.2-2.5c-0.3,0-0.6,0-0.9,0.1c-0.6-1.2-2-2.1-3.8-2.1c-0.8,0-1.5,0.2-2.1,0.5
	c-1.1-1.3-2.8-2.1-4.8-2.1c-2.5,0-4.6,1.3-5.4,3.1c-0.6-0.3-1.4-0.5-2.1-0.5c-1.6,0-2.9,0.7-3.5,1.9c-0.5-0.2-1-0.3-1.5-0.3
	c-1.5,0-2.8,0.8-3.1,1.9L99.4,50.2L99.4,50.2z"/>
<path fill="#FFFFFF" d="M86.8,50.2c-0.1-1.4-1.5-2.5-3.2-2.5c-0.3,0-0.6,0-0.9,0.1c-0.6-1.2-2-2.1-3.8-2.1c-0.8,0-1.5,0.2-2.1,0.5
	c-1.1-1.3-2.8-2.1-4.8-2.1c-2.5,0-4.6,1.3-5.4,3.1c-0.6-0.3-1.4-0.5-2.1-0.5c-1.6,0-2.9,0.8-3.5,1.9c-0.5-0.2-1-0.3-1.5-0.3
	c-1.5,0-2.8,0.8-3.1,1.9H86.8L86.8,50.2z"/>
<path fill="#72DBD6" d="M91.7,154.7c-0.1-1.4-1.6-2.6-3.3-2.6c-0.3,0-0.6,0-0.9,0.1c-0.6-1.3-2.1-2.2-3.9-2.2
	c-0.8,0-1.6,0.2-2.2,0.5c-1.1-1.3-2.9-2.2-5-2.2c-2.6,0-4.8,1.3-5.6,3.2c-0.6-0.3-1.4-0.5-2.2-0.5c-1.6,0-3,0.8-3.7,1.9
	c-0.5-0.2-1-0.3-1.6-0.3c-1.6,0-2.9,0.9-3.2,2L91.7,154.7L91.7,154.7z"/>
<path fill="#FFFFFF" d="M111,156.8c-0.1-1.9-2.1-3.4-4.4-3.4c-0.4,0-0.8,0-1.2,0.1c-0.8-1.7-2.8-2.9-5.2-2.9c-1,0-2.1,0.2-2.9,0.7
	c-1.5-1.8-3.8-2.9-6.6-2.9c-3.4,0-6.3,1.8-7.5,4.3c-0.8-0.4-1.9-0.7-2.9-0.7c-2.2,0-4.1,1-4.9,2.6c-0.6-0.3-1.3-0.4-2.1-0.4
	c-2.1,0-3.8,1.1-4.3,2.7H111L111,156.8z"/>
<path fill="#FFFFFF" d="M150.2,57.9c-0.1-1.9-2.1-3.4-4.3-3.4c-0.4,0-0.8,0-1.2,0.1c-0.8-1.6-2.8-2.9-5.1-2.9c-1,0-2.1,0.2-2.9,0.7
	c-1.4-1.7-3.8-2.9-6.6-2.9c-3.4,0-6.3,1.7-7.4,4.2c-0.8-0.4-1.9-0.7-2.9-0.7c-2.2,0-4,1-4.9,2.6c-0.6-0.3-1.3-0.4-2.1-0.4
	c-2.1,0-3.8,1.1-4.2,2.7H150.2z"/>
<path fill="#FFFFFF" d="M76.6,76.2c-0.1-1.4-1.6-2.6-3.4-2.6c-0.3,0-0.6,0-1,0.1c-0.6-1.3-2.2-2.2-4-2.2c-0.8,0-1.6,0.2-2.2,0.6
	c-1.1-1.4-3-2.2-5.1-2.2c-2.6,0-4.9,1.4-5.8,3.3c-0.6-0.3-1.4-0.6-2.2-0.6c-1.7,0-3.1,0.8-3.8,2c-0.5-0.2-1-0.3-1.6-0.3
	c-1.6,0-3,0.9-3.3,2.1L76.6,76.2L76.6,76.2z"/>
<path fill="#72DBD6" d="M170.9,105.1c-0.1-1.4-1.5-2.5-3.2-2.5c-0.3,0-0.6,0-0.9,0.1c-0.6-1.2-2.1-2.1-3.8-2.1
	c-0.8,0-1.5,0.2-2.1,0.5c-1.1-1.3-2.8-2.1-4.9-2.1c-2.5,0-4.7,1.3-5.5,3.1c-0.6-0.3-1.4-0.5-2.1-0.5c-1.6,0-3,0.8-3.6,1.9
	c-0.5-0.2-1-0.3-1.5-0.3c-1.5,0-2.8,0.8-3.1,2H170.9L170.9,105.1z"/>
<path fill="#FFFFFF" d="M165.7,107.5c0-0.9-1-1.7-2.1-1.7c-0.2,0-0.4,0-0.6,0c-0.4-0.8-1.4-1.4-2.5-1.4c-0.5,0-1,0.1-1.4,0.3
	c-0.7-0.9-1.9-1.4-3.2-1.4c-1.7,0-3.1,0.9-3.6,2.1c-0.4-0.2-0.9-0.3-1.4-0.3c-1.1,0-2,0.5-2.4,1.3c-0.3-0.1-0.7-0.2-1-0.2
	c-1,0-1.9,0.6-2.1,1.3L165.7,107.5L165.7,107.5z"/>
</svg>
