<?xml version="1.0" encoding="utf-8"?>
<!-- Generator: Adobe Illustrator 18.0.0, SVG Export Plug-In . SVG Version: 6.00 Build 0)  -->
<!DOCTYPE svg PUBLIC "-//W3C//DTD SVG 1.1//EN" "http://www.w3.org/Graphics/SVG/1.1/DTD/svg11.dtd">
<svg version="1.1" id="Lag_1" xmlns="http://www.w3.org/2000/svg" xmlns:xlink="http://www.w3.org/1999/xlink" x="0px" y="0px"
	 viewBox="0 0 200 200" enable-background="new 0 0 200 200" xml:space="preserve">
<g>
	<circle fill="#F9DD12" cx="100" cy="100" r="90"/>
	<path fill="#F7CB14" d="M135.9,58.7l-3-3l-4.4,4.9l-7.4-7.4l0,0l-4-2L103,81.9c-1-1.4-3-2.4-4.9-2.4c-2,0-4,1-5.4,3
		c-1-0.4-2.4-0.4-4-0.4c-3.4,0-6.4,1-8.9,3c-1.4-0.4-3.4-1-5.4-1c-6.9,0-12.3,4.9-13.7,10.9c-0.4,0-1.4-0.4-2-0.4
		c-3.4,0-5.9,3-5.9,5.9c0,0.4,0,1.4,0.4,2h-2.4c2.4,6.9,6.9,13.3,12.3,18.2l0,0l64.9,64.9c32.5-10.3,57.1-38.9,61.9-73.8L135.9,58.7
		L135.9,58.7z"/>
	<g>
		<circle fill="#F2EFDC" cx="97" cy="85.3" r="5.9"/>
		<circle fill="#F2EFDC" cx="106.4" cy="87.3" r="5.9"/>
		<circle fill="#DCDAC8" cx="98" cy="84.7" r="3.4"/>
		<polygon fill="#D95B46" points="120.6,53.4 86.3,114.8 116.7,51.4 		"/>
		<polygon fill="#D95B46" points="135.9,59.3 87.3,109.3 132.5,55.8 		"/>
		<ellipse fill="#F2EFDC" cx="94.6" cy="101.5" rx="33.9" ry="17.2"/>
		<circle fill="#F2EFDC" cx="58.2" cy="100" r="5.9"/>
		<circle fill="#F2EFDC" cx="134.5" cy="99.6" r="5.9"/>
		<circle fill="#F2EFDC" cx="116.2" cy="88.7" r="5.9"/>
		<circle fill="#F2EFDC" cx="74" cy="97" r="13.7"/>
		<circle fill="#F2EFDC" cx="124.6" cy="99.6" r="13.7"/>
		<ellipse fill="#DCDAC8" cx="124.6" cy="103.5" rx="13.3" ry="12.7"/>
		<circle fill="#DCDAC8" cx="107.4" cy="101" r="13.7"/>
		<circle fill="#F2EFDC" cx="88.1" cy="95.1" r="13.7"/>
		<circle fill="#DCDAC8" cx="118.7" cy="95.1" r="5.9"/>
		<circle fill="#DCDAC8" cx="100" cy="100" r="5.9"/>
		<circle fill="#DCDAC8" cx="82.8" cy="100" r="5.9"/>
		<circle fill="#DCDAC8" cx="71" cy="98" r="2"/>
		<circle fill="#DCDAC8" cx="84.3" cy="89.2" r="2"/>
		<circle fill="#DCDAC8" cx="93.6" cy="101" r="2"/>
		<path fill="#2D4124" d="M111.7,132.5c0,2-1.4,3.4-3.4,3.4H82.8c-2,0-3.4-1.4-3.4-3.4l0,0c0-2,1.4-3.4,3.4-3.4h25
			C110.3,129.1,111.7,130.5,111.7,132.5L111.7,132.5z"/>
		<path fill="#405933" d="M49.8,102c6.9,18.7,24.6,31.5,45.8,31.5c20.6,0,38.9-13.3,45.8-31.5H49.8z"/>
		<path fill="#2D4124" d="M95.6,133.9c20.6,0,38.9-13.3,45.8-31.5H95.6V133.9z"/>
	</g>
</g>
<path fill="#F7CB14" d="M178.8,31c-0.1-3-3.2-5.4-6.8-5.4c-0.6,0-1.4,0.1-1.9,0.3c-1.3-2.6-4.4-4.6-8.1-4.6c-1.8,0-3.2,0.4-4.6,1.1
	c-2.3-2.8-6.1-4.6-10.5-4.6c-5.4,0-10,2.8-11.7,6.6c-1.4-0.8-2.9-1.1-4.6-1.1c-3.4,0-6.3,1.6-7.6,4c-1-0.4-2.1-0.6-3.2-0.6
	c-3.2,0-6,1.9-6.7,4.2h65.8L178.8,31L178.8,31z"/>
<path fill="#FFFFFF" d="M164.8,35.1c-0.2-3.7-4.1-6.8-8.6-6.8c-0.8,0-1.7,0-2.5,0.2c-1.7-3.3-5.6-5.7-10.3-5.7
	c-2.1,0-4.1,0.4-5.7,1.4c-2.9-3.5-7.6-5.7-13.2-5.7c-6.8,0-12.5,3.5-14.8,8.4c-1.7-0.8-3.7-1.4-5.7-1.4c-4.3,0-8,2.1-9.7,5.1
	c-1.2-0.6-2.7-0.8-4.1-0.8c-4.1,0-7.6,2.2-8.4,5.3L164.8,35.1L164.8,35.1z"/>
<path fill="#F7CB14" d="M93.7,177.2c-0.1-3.7-4-6.6-8.4-6.6c-0.8,0-1.7,0.1-2.3,0.3c-1.5-3.2-5.4-5.7-10-5.7c-2.2,0-4,0.4-5.7,1.4
	c-2.8-3.4-7.5-5.7-12.9-5.7c-6.6,0-12.3,3.4-14.4,8.1c-1.7-0.9-3.5-1.4-5.7-1.4c-4.1,0-7.8,2-9.4,4.9c-1.2-0.4-2.6-0.8-4-0.8
	c-4,0-7.4,2.3-8.3,5.2h81.1L93.7,177.2L93.7,177.2z"/>
<path fill="#FFFFFF" d="M110.3,175.3c-0.2-3.4-3.8-6.2-7.9-6.2c-0.8,0-1.5,0-2.3,0.2c-1.5-3-5.1-5.3-9.4-5.3c-1.9,0-3.8,0.4-5.3,1.3
	c-2.7-3.2-7-5.3-12.1-5.3c-6.2,0-11.5,3.2-13.6,7.8c-1.5-0.8-3.4-1.3-5.3-1.3c-4,0-7.4,1.9-8.9,4.7c-1.1-0.5-2.4-0.8-3.8-0.8
	c-3.8,0-7,2.1-7.8,4.9L110.3,175.3L110.3,175.3z"/>
<path fill="#F9DD12" d="M127.3,147.7c0.1-2,2.2-3.6,4.6-3.6c0.4,0,0.9,0.1,1.3,0.2c0.8-1.8,2.9-3.1,5.5-3.1c1.2,0,2.2,0.2,3.1,0.7
	c1.5-1.9,4.1-3.1,7-3.1c3.6,0,6.7,1.9,7.9,4.4c0.9-0.5,1.9-0.7,3.1-0.7c2.3,0,4.3,1.1,5.1,2.7c0.7-0.2,1.4-0.4,2.2-0.4
	c2.2,0,4,1.3,4.5,2.8h-44.3L127.3,147.7L127.3,147.7z"/>
<path fill="#FFFFFF" d="M140,149c0.1-2.5,2.8-4.6,5.8-4.6c0.6,0,1.1,0,1.7,0.1c1.1-2.2,3.7-3.9,6.9-3.9c1.4,0,2.8,0.3,3.9,1
	c1.9-2.3,5.1-3.9,8.9-3.9c4.6,0,8.4,2.3,10,5.7c1.1-0.6,2.5-1,3.9-1c2.9,0,5.4,1.4,6.5,3.5c0.8-0.4,1.8-0.6,2.8-0.6
	c2.8,0,5.1,1.5,5.7,3.6L140,149L140,149z"/>
<path fill="#F7CB14" d="M9,56.7c0.1-2.6,2.8-4.7,6-4.7c0.5,0,1.2,0.1,1.6,0.2c1.1-2.3,3.8-4,7.1-4c1.5,0,2.8,0.3,4,1
	c2-2.4,5.3-4,9.1-4c4.7,0,8.7,2.4,10.2,5.7c1.2-0.7,2.5-1,4-1c2.9,0,5.5,1.4,6.6,3.5c0.9-0.3,1.8-0.5,2.8-0.5c2.8,0,5.2,1.6,5.9,3.7
	H8.9L9,56.7L9,56.7z"/>
<path fill="#FFFFFF" d="M26.3,58c0.1-2.5,2.8-4.5,5.8-4.5c0.6,0,1.1,0,1.7,0.1c1.1-2.2,3.7-3.8,6.9-3.8c1.4,0,2.8,0.3,3.8,0.9
	c1.9-2.3,5.1-3.8,8.8-3.8c4.5,0,8.4,2.3,9.9,5.6c1.1-0.6,2.5-0.9,3.8-0.9c2.9,0,5.4,1.4,6.5,3.4c0.8-0.4,1.8-0.6,2.8-0.6
	c2.8,0,5.1,1.5,5.6,3.5L26.3,58L26.3,58z"/>
</svg>
