<?xml version="1.0" encoding="utf-8"?>
<!-- Generator: Adobe Illustrator 18.0.0, SVG Export Plug-In . SVG Version: 6.00 Build 0)  -->
<!DOCTYPE svg PUBLIC "-//W3C//DTD SVG 1.1//EN" "http://www.w3.org/Graphics/SVG/1.1/DTD/svg11.dtd">
<svg version="1.1" id="Lag_1" xmlns="http://www.w3.org/2000/svg" xmlns:xlink="http://www.w3.org/1999/xlink" x="0px" y="0px"
	 viewBox="0 0 200 200" enable-background="new 0 0 200 200" xml:space="preserve">
<g id="Circle_19_">
	<path fill="#253A44" d="M10,100c0-49.7,40.3-90,90-90c49.7,0,90,40.3,90,90c0,49.7-40.3,90-90,90C50.3,190,10,149.7,10,100z"/>
</g>
<circle opacity="0.52" fill="none" stroke="#F2EFDC" stroke-width="0.2427" stroke-miterlimit="10" stroke-dasharray="2.5455,1.7196" cx="100" cy="100" r="59.8"/>
<g>
	<path fill="#F2EFDC" d="M164.8,81.2c-4.1,3.5-11.5,3.5-14.3-1.5c-2.6-5.1,1.6-11.2,6.8-12.6c5.3-1.4,11-0.4,12.6,2.4
		C171.3,72.4,168.9,77.7,164.8,81.2z"/>
	<path fill="#DCDAC8" d="M162.8,81.8c-3.2,2.8-9,2.8-11.2-1.2c-2-4,1.2-8.8,5.3-9.9c4.1-1.1,8.6-0.3,9.9,1.9
		C167.9,74.9,166.1,79,162.8,81.8z"/>
	<path fill="#F2EFDC" d="M157.7,71.5c1.3,5.7-2.4,12.6-8.5,12.7c-6.1-0.1-9.8-7.1-8.5-12.7c1.3-5.7,5.1-10.6,8.5-10.7
		C152.6,60.9,156.4,65.8,157.7,71.5z"/>
	<path fill="#DCDAC8" d="M157.1,71.8c-1.2-5.5-4.9-10.1-8.2-10.3c-0.1,0-0.2,0-0.3,0c1.5,1.9,2.7,4.4,3.3,7.1
		c1.2,5.4-2.3,12.1-8.2,12.2c-0.3,0-0.7,0-1-0.1c1.5,1.9,3.6,3.2,6.2,3.2C154.8,83.9,158.4,77.3,157.1,71.8z"/>
</g>
<g>
	<g>
		<path fill="#DCDAC8" d="M99.2,54.3l0.3-4.6c-1.1-0.2-2.2-0.4-3.3-0.7c0,0,1,3.7,1,4.4c0,0.7-1.8,2-1.1,2.3
			c1.1,0.5,2.5,0.2,2.5,0.2C98.7,55.2,98.6,53.6,99.2,54.3z"/>
		<path fill="#DCDAC8" d="M93.2,29.9c0.1,0,0.3,0,0.4,0c0.2,0,0.4,0,0.6,0c-0.8-0.8-1.5-1.6-3.4-2.5c-0.8-0.3-1.5-0.6-2.2-0.7
			c0.1,0.8,0.1,1.4,0.2,1.9C90.1,29.2,90.7,30,93.2,29.9z"/>
		<path fill="#F2EFDC" d="M122.4,34.3c0.1-0.1,0.2-0.3,0.3-0.4c0.1-0.1-0.5-0.1-0.7,0c0,0,0,0,0,0.1c-0.5-0.2-1,0-1.5,0.4
			c-0.3-0.1-0.6-0.1-0.9-0.1c-0.6,0.1-0.9,0.7-1.1,1.3c-0.1-0.2-0.2-0.3-0.3-0.5c-0.5-0.8-1.2-1.4-2-1.8c-7-2.9-14.5-4.1-22-3.5
			c-0.1,0-0.3,0-0.4,0.1c-4,0.4-3.9-1.3-8-1.6c-0.9-0.1-1.8,0-2.6,0.1c0.7,1.7,1,2.6,2,4c0.6,1,1.5,1.8,2.2,2.7
			c-0.7-0.7-1.6-1.3-2.5-2.1c-1.3,1-2.5,1.9-3.7,2.1c-0.1-0.1-0.2-0.2-0.4-0.3c-0.3,0-0.5,0.1-0.6,0.4l-0.5,2.9l3,0.5
			c-0.5,0.2-1,0.4-1.5,0.6c0.7,0.4,1.6,0.7,2.5,0.9c0.1,0,0.1,0,0.2,0c0.3,1.4,1,2.7,2.3,3.2c1,0.4,2.8,1.6,4.4,2.5
			c0.1,0.1,0.3,0.2,0.4,0.3c0.7,2,1.7,5.3,1.7,6.6c0,0.7-2.5,2.6-1.5,3c0.9,0.4,2.9,0,3,0c0.1-1.1,0-2.6,0.9-1.7l0.5-6.1
			c3.6,1.1,7.3,1.8,11.1,2.1c0.4,0.5,0.9,1,1.5,1.5c1,0.7,2,1.1,2.9,1.2c-0.4,1.8-1.3,3.6-1.3,3.6c-0.1,0.1-2.9,1.6-2.2,2.3
			c0.7,0.7,2.9,0.6,3,0.7c0.4-0.7,0.4-1.8,1.3-1.1l3.4-6.4c0.2-0.8-0.9-0.3-0.3-2.1c1.4-0.7,2.6-2.1,3-3.6c0.6-1.1,1-2.4,1.2-3.9
			c0.3-1.7,0.2-3.3-0.1-4.7c0,0,0,0,0-0.1c-0.1-0.5-0.1-1,0-1.5c0-0.4,0.1-0.7,0.2-1.1c0.2-0.4,0.5-0.3,0.7-0.1
			c-0.3,0.5-0.6,1.5,0.1,1.6c0.6,0,1-0.3,1-1c0-0.3-0.2-0.5-0.4-0.7c0.1-0.2,0.3-0.4,0.4-0.5c0.1-0.1,0.2,0.1,0.3,0.2
			c-0.2,0.5-0.3,1,0.4,1C122.7,35.4,122.8,34.7,122.4,34.3z M120.6,35.5c0,0.1,0,0.2,0,0.2c0,0.1,0,0.1,0,0.2
			C120.5,35.8,120.6,35.7,120.6,35.5z"/>
	</g>
	<path fill="#DCDAC8" d="M116.9,44.7c-0.3,1.6-1.8,2.7-3.4,2.5l-25.8-4.1c-1.6-0.3-2.7-1.8-2.5-3.4l0,0c0.3-1.6,1.8-2.7,3.4-2.5
		l25.8,4.1C116.1,41.6,117.2,43.1,116.9,44.7L116.9,44.7z"/>
	
		<ellipse transform="matrix(0.9877 0.1562 -0.1562 0.9877 8.2362 -15.3157)" fill="#DCDAC8" cx="101.5" cy="44.7" rx="13.5" ry="2.7"/>
	
		<ellipse transform="matrix(0.9877 0.1562 -0.1562 0.9877 7.2844 -15.568)" fill="#F2EFDC" cx="102.7" cy="38.6" rx="14.6" ry="2.7"/>
	<path fill="#DCDAC8" d="M114.4,52c-1.8-3-2.7-5.6-2.3-7.2c-3,0.4-4.9,1.3-5.2,2.7c-0.2,1.5,1.5,3.1,4.5,4.4
		C112.4,52.1,113.5,52.1,114.4,52z"/>
	<path fill="#DCDAC8" d="M85.3,33.7c-0.5,0.6-0.8,1.4-1,2.3c-0.4,2.2,0.7,4.3,2.4,4.5c1.4,0.2,2.7-0.8,3.3-2.5
		C87.6,37,85.8,35.4,85.3,33.7z"/>
	<path fill="#DCDAC8" d="M85.9,38.2c-0.1,0.4-0.5,0.7-0.9,0.7l-3.6-0.6c-0.4-0.1-0.7-0.5-0.7-0.9l0.1-0.7c0.1-0.4,0.5-0.7,0.9-0.7
		l3.6,0.6c0.4,0.1,0.7,0.5,0.7,0.9L85.9,38.2z"/>
	<path fill="#DCDAC8" d="M85,34.5c0,0-0.1,0-0.1,0c-0.8,1-2.1,1.6-3.6,1.4c-0.3,0.3-0.5,0.7-0.6,1.1c1.3,1.1,3.1,1.9,5.3,2.3
		c0.7,0.1,1.4,0.2,2.1,0.2c0.1-0.2,0.1-0.4,0.2-0.6C88.4,37.4,84.9,34.4,85,34.5z"/>
</g>
<g>
	<g>
		<path fill="#DCDAC8" d="M148.1,117.6c0.7,0.9,1,0.7,0.5-0.3c-1-2.4-2.2-4.8-3.5-7.1c-0.6-1-1.3-1.3-1.7-1.1c0,0,0,0,0,0
			c-0.4,0.2-0.4,1,0.1,2C145,113.4,146.5,115.5,148.1,117.6z"/>
		<circle fill="#DCDAC8" cx="146.6" cy="107.6" r="1.1"/>
		<circle fill="#DCDAC8" cx="143.7" cy="105.9" r="1.1"/>
		<circle fill="#DCDAC8" cx="141.2" cy="108.3" r="1.1"/>
		<circle fill="#DCDAC8" cx="142.6" cy="108.1" r="1.6"/>
		<circle fill="#DCDAC8" cx="145.8" cy="109.4" r="1.9"/>
		<circle fill="#DCDAC8" cx="144.3" cy="107.6" r="1.9"/>
		<circle fill="#DCDAC8" cx="143.2" cy="110.2" r="1.9"/>
	</g>
	<g>
		<path fill="#F2EFDC" d="M150.8,119c0.5,1,0.8,0.9,0.6-0.2c-0.5-2.6-1.1-5.2-1.9-7.7c-0.4-1.1-1-1.6-1.4-1.4c0,0,0,0,0,0
			c-0.5,0.1-0.6,0.9-0.3,2C148.6,114.2,149.6,116.7,150.8,119z"/>
		<circle fill="#F2EFDC" cx="151.1" cy="108.6" r="1.1"/>
		<circle fill="#F2EFDC" cx="147.9" cy="107" r="1.1"/>
		<circle fill="#F2EFDC" cx="146" cy="108.5" r="1.1"/>
		<circle fill="#F2EFDC" cx="147.4" cy="108.6" r="1.6"/>
		<circle fill="#F2EFDC" cx="150.2" cy="110.5" r="1.9"/>
		<circle fill="#F2EFDC" cx="149.2" cy="108.4" r="1.9"/>
		<circle fill="#F2EFDC" cx="147.5" cy="110.7" r="1.9"/>
	</g>
	<g>
		<path fill="#F2EFDC" d="M149.3,120.6c0.6,0.9,0.4,1.1-0.5,0.4c-2-1.7-4-3.5-5.8-5.4c-0.7-0.8-0.9-1.6-0.5-1.9c0,0,0,0,0,0
			c0.3-0.3,1.1-0.1,1.9,0.7C146.2,116.4,147.8,118.5,149.3,120.6z"/>
		<circle fill="#F2EFDC" cx="140.1" cy="115.8" r="1.1"/>
		<circle fill="#F2EFDC" cx="140.3" cy="112.2" r="1.1"/>
		<circle fill="#F2EFDC" cx="142.5" cy="111.3" r="1.1"/>
		<circle fill="#F2EFDC" cx="141.9" cy="112.5" r="1.6"/>
		<circle fill="#F2EFDC" cx="142.1" cy="116" r="1.9"/>
		<circle fill="#F2EFDC" cx="140.9" cy="114" r="1.9"/>
		<circle fill="#F2EFDC" cx="143.7" cy="113.7" r="1.9"/>
	</g>
	<g>
		<path fill="#F2EFDC" d="M159.2,137.5c1.8,2.1,2.4,1.7,1.5-0.9l-6.7-18.1c-0.9-2.5-3.6-3.5-6-2.1l-0.2,0.1
			c-2.3,1.4-2.8,4.2-1.1,6.2L159.2,137.5z"/>
		<path fill="#DCDAC8" d="M147.8,116.6l0.1-0.1l13,22.3c-0.3,0.2-0.9-0.2-1.8-1.3l-12.5-14.7C145,120.7,145.5,117.9,147.8,116.6z"/>
		<g>
			<defs>
				<path id="SVGID_1_" d="M159.2,137.5c1.8,2.1,2.4,1.7,1.5-0.9l-6.7-18.1c-0.9-2.5-3.6-3.5-6-2.1l-0.2,0.1
					c-2.3,1.4-2.8,4.2-1.1,6.2L159.2,137.5z"/>
			</defs>
			<clipPath id="SVGID_2_">
				<use xlink:href="#SVGID_1_"  overflow="visible"/>
			</clipPath>
			<g clip-path="url(#SVGID_2_)">
				<path fill="#F2EFDC" d="M147.4,122.7c2.2-1.5,2.1-1.7-0.3-0.4l-16.9,8.7c-2.4,1.2-4,2.8-3.6,3.5l0,0.1c0.4,0.7,2.6,0,4.8-1.4
					L147.4,122.7z"/>
				<path fill="#F2EFDC" d="M152.3,129.5c2.2-1.5,2.1-1.7-0.3-0.4l-16.9,8.7c-2.4,1.2-4,2.8-3.6,3.5l0,0.1c0.4,0.7,2.5,0,4.8-1.4
					L152.3,129.5z"/>
				<path fill="#F2EFDC" d="M154.8,133.2c2.2-1.5,2.1-1.7-0.3-0.4l-16.9,8.7c-2.4,1.2-4,2.8-3.6,3.5l0,0.1c0.4,0.7,2.6,0,4.8-1.4
					L154.8,133.2z"/>
				<path fill="#DCDAC8" d="M153.6,123.2c-2.4,1.2-2.5,1-0.3-0.4l15.9-10.4c2.2-1.5,4.4-2.1,4.8-1.4l0,0.1c0.4,0.7-1.2,2.2-3.6,3.5
					L153.6,123.2z"/>
				<path fill="#DCDAC8" d="M156.3,125.6c-2.4,1.2-2.5,1-0.3-0.4l15.9-10.4c2.2-1.5,4.4-2.1,4.8-1.4l0,0.1c0.4,0.7-1.2,2.2-3.6,3.5
					L156.3,125.6z"/>
				<path fill="#DCDAC8" d="M160.8,134.8c-2.4,1.2-2.5,1-0.3-0.4l15.9-10.4c2.2-1.5,4.4-2.1,4.8-1.4l0,0.1c0.4,0.7-1.2,2.2-3.6,3.5
					L160.8,134.8z"/>
				<g>
					<path fill="#DCDAC8" d="M150.1,122.5c-0.2,0.1-0.3,0.1-0.1-0.1l1.5-1.1c0.2-0.2,0.4-0.2,0.5,0l0,0c0.1,0.2,0,0.4-0.3,0.5
						L150.1,122.5z"/>
					<path fill="#DCDAC8" d="M153.4,120.5c0.2-0.2,0.2-0.2-0.1-0.1l-1.7,0.7c-0.2,0.1-0.4,0.3-0.3,0.5l0,0c0.1,0.2,0.3,0.2,0.5,0
						L153.4,120.5z"/>
				</g>
				<g>
					<path fill="#E39910" d="M150.2,127c-0.2,0.1-0.3,0.1-0.1-0.1l1.5-1.1c0.2-0.2,0.4-0.2,0.5,0l0,0c0.1,0.2,0,0.4-0.3,0.5
						L150.2,127z"/>
					<path fill="#DCDAC8" d="M153.6,125c0.2-0.2,0.2-0.2-0.1-0.1l-1.7,0.7c-0.2,0.1-0.4,0.3-0.3,0.5l0,0c0.1,0.2,0.3,0.2,0.5,0
						L153.6,125z"/>
				</g>
				<g>
					<path fill="#F2EFDC" d="M150.2,127c-0.2,0.1-0.2,0-0.1-0.1l1.3-1c0.2-0.1,0.4-0.1,0.5,0l0,0c0.1,0.2,0,0.4-0.2,0.4L150.2,127z"
						/>
					<path fill="#F2EFDC" d="M153.1,125.3c0.2-0.1,0.2-0.2-0.1-0.1l-1.5,0.6c-0.2,0.1-0.3,0.3-0.2,0.4l0,0c0.1,0.2,0.3,0.2,0.5,0
						L153.1,125.3z"/>
				</g>
				<g>
					<path fill="#DCDAC8" d="M156,130.3c-0.2,0.1-0.3,0.1-0.1-0.1l1.5-1.1c0.2-0.2,0.4-0.2,0.5,0l0,0c0.1,0.2,0,0.4-0.3,0.5
						L156,130.3z"/>
					<path fill="#DCDAC8" d="M159.3,128.4c0.2-0.2,0.2-0.2-0.1-0.1l-1.7,0.7c-0.2,0.1-0.4,0.3-0.3,0.5l0,0c0.1,0.2,0.3,0.2,0.5,0
						L159.3,128.4z"/>
				</g>
				<g>
					<path fill="#DCDAC8" d="M156.9,133.6c-0.2,0.1-0.3,0.1-0.1-0.1l1.5-1.1c0.2-0.2,0.4-0.2,0.5,0l0,0c0.1,0.2,0,0.4-0.3,0.5
						L156.9,133.6z"/>
					<path fill="#DCDAC8" d="M160.2,131.7c0.2-0.2,0.2-0.2-0.1-0.1l-1.7,0.7c-0.2,0.1-0.4,0.3-0.3,0.5l0,0c0.1,0.2,0.3,0.2,0.5,0
						L160.2,131.7z"/>
				</g>
				<path fill="#F2EFDC" d="M150,122.4l1-0.7l0.2,0.4l-1.1,0.5C149.9,122.6,149.8,122.5,150,122.4z"/>
			</g>
		</g>
	</g>
</g>
<g>
	<path fill="#F2EFDC" d="M56.8,77.8c-0.3-0.2-0.5-0.5-0.8-0.8c-1.1-1.6-0.7-3.8,0.8-4.9c0.7-0.5,1.4-0.7,2.1-0.6l4.3-12.3l-16.4,0
		c0.3,1.3-0.1,2.7-1.3,3.5c-1.5,1.1-3.6,0.7-4.6-0.8c-0.6-0.8-0.7-1.8-0.5-2.7l-6.3,0c-0.6,6.3,1,12.8,4.9,18.4
		c3.6,5.1,8.6,8.5,14.1,10.2L56.8,77.8z M53.2,63.1c-0.5-0.7-0.3-1.7,0.4-2.2c0.7-0.5,1.7-0.3,2.2,0.4c0.5,0.7,0.3,1.7-0.4,2.2
		C54.7,63.9,53.7,63.8,53.2,63.1z"/>
	<g>
		<path fill="#FFCB09" d="M40.5,59.6c0-0.1,0-0.2,0.1-0.4l-0.2,0C40.4,59.4,40.4,59.5,40.5,59.6z"/>
		<path fill="#DCDAC8" d="M39.2,77.7c2.5,3.6,5.8,6.4,9.4,8.3c0.3-0.4,0.6-0.8,0.8-1.3c-4.1-1.9-7.7-4.9-10.5-8.9
			c-2.4-3.3-3.9-7-4.6-10.8C34.8,69.5,36.4,73.8,39.2,77.7z"/>
	</g>
	<path fill="#DCDAC8" d="M56.5,78.8c-0.3-0.2-0.6-0.5-0.9-0.9c-1.2-1.8-0.8-4.2,0.9-5.4c0.7-0.5,1.6-0.7,2.4-0.7l4.4-12.5l-0.1,0
		L49.1,77.5l-4.5,5.8c2.6,2.1,5.6,3.6,8.7,4.6L56.5,78.8z"/>
	<circle fill="#F2EFDC" cx="48.3" cy="78.3" r="3"/>
	<circle fill="#DCDAC8" cx="48.6" cy="77.5" r="3"/>
	<circle fill="#DCDAC8" cx="49.1" cy="67.5" r="3"/>
	<circle fill="#DCDAC8" cx="40.6" cy="67.3" r="1.9"/>
	<circle fill="#F2EFDC" cx="52" cy="82.8" r="1.1"/>
	<circle fill="#DCDAC8" cx="42.1" cy="74.7" r="1.1"/>
</g>
<g id="Teacher_6_">
	<g id="Body_6_">
		<g id="Shirt_6_">
			<path fill="#F2EFDC" d="M122.3,144.8l-12.4-3.2c-5.6-1.2-14.6-1.2-20.1,0l-12.4,3.2c-5.6,1.2-7.2,10.5-7.2,16.2v23.8
				c9.2,4,19.3,6.3,30,6.3c10.7,0,20.8-2.2,30-6.3V161C130,155.4,127.8,146.1,122.3,144.8z"/>
			<path fill="#DCDAC8" d="M122.3,144.8l-12.4-3.2c-2.8-0.6-6.2-0.9-9.8-0.9v50.5c10.7,0,20.8-2.2,30-6.3V161
				C130,155.4,127.8,146.1,122.3,144.8z"/>
		</g>
		<g>
			<g>
				<path fill="#D1CFBA" d="M101.1,148.2l-1.1-7.4c3.6,0,7,0.3,9.8,0.9l3.4,0.9C107.4,149.7,101.1,148.2,101.1,148.2z"/>
			</g>
			<g>
				<path fill="#D1CFBA" d="M98.5,148.2l1.5-7.4c-3.6,0-7.5,0.3-10.3,0.9l-3.4,0.9C92.1,149.7,98.5,148.2,98.5,148.2z"/>
			</g>
		</g>
	</g>
	<g id="Head_6_">
		<g id="Hair_11_">
			<path fill="#191919" d="M122.5,89.8c0.3,0.9,0.7,10.5,0,13.5c-1.8-2.3,0.1,27.2,1.2,33.8c-6.5,1.4-20.3,2.4-24.1,2.4
				c-8.6,0-17.7-2.4-24.9-4c1.9-7.4,4.1-34.8,2.4-33c0-20.3,8.7-29.5,22.8-29.7C108.9,72.6,118.5,77.2,122.5,89.8z"/>
			<path opacity="0.1" fill="#FFFFFF" d="M99.6,139.5c-8.6,0-17.7-2.4-24.9-4c1.9-7.4,4.1-34.8,2.4-33c0-20.3,8.7-29.5,22.8-29.7
				L99.6,139.5z"/>
		</g>
		<g id="Neck_6_">
			<path fill="#FFE7D9" d="M105.4,141.2c0,0-3.2,2-5.6,2c-2.7,0-5.6-2-5.6-2v-13.4h11.3V141.2z"/>
			<path fill="#FCE1D4" d="M105.4,141.2c0,0-3,2-5.4,2v-15.4h5.4V141.2z"/>
			<path opacity="0.1" d="M94.1,131.7c1.8,0.5,3.7,0.7,5.9,0.7c2,0,3.8-0.2,5.4-0.6v-4H94.1V131.7z"/>
		</g>
		<g id="Face_6_">
			<path fill="#FCE1D4" d="M122.5,103.3c-7.5-14.2-9.3-29.9-22.5-29.9c-13.2,0-19.2,13.5-23,29.1c-0.9,3.8,0.2,15.3,3.8,15.9
				c4,9.1,10.1,13.1,19.2,13.1c9.1,0,14.7-4,18.7-13.1C122.4,117.7,123.7,105.5,122.5,103.3z"/>
			<path fill="#FFE7D9" d="M100,73.4c-13.2,0-19.2,13.5-23,29.1c-0.9,3.8,0.2,15.3,3.8,15.9c4,9.1,10.1,13.1,19.2,13.1V73.4z"/>
		</g>
		<path id="glasses_3_" fill="#191919" d="M116.1,100.7c-0.9-0.5-2.3-0.6-3.8-0.6l0,0v0c-1.1,0-8.5-0.7-10.4,2.1v-0.1h-4
			c-1.7-2.8-13.2-1.9-14.1-1.4c-1.4,0.8-1.1,2.7-1.2,4.2c0,3.9,4.2,6.1,8,6.1c3.8,0,7.6-3.7,7.7-7.5h3.2c0.3,4.8,3.9,7.5,7.7,7.5
			c3.8,0,8-2.2,8-6.1C117.3,103.4,117.5,101.5,116.1,100.7z M90.7,109.8c-2.2,0-4.3-0.8-5.6-2.1c-1.6-1.6-1.2-5.7-0.7-6
			c0.5-0.3,4.4-0.4,5-0.4c0.5,0,4.9,0.1,6.2,0.5c1.3,0.5,1.5,1.2,1.5,1.8C97.2,106.2,93.8,109.8,90.7,109.8z M109.3,109.8
			c-3.1,0-6.5-3.6-6.5-6.1c0-0.7,0.2-1.4,1.5-1.8c1.3-0.5,9-0.6,9-0.6c1.1,0.1,1.8,0.2,2.3,0.4c0.5,0.3,0.5,2.9,0.5,3.1
			C116.2,108,111.5,109.8,109.3,109.8z"/>
		<g id="Hair_10_">
			<path fill="#191919" d="M122.5,89.8c0.3,0.9,0.7,10.5,0,13.5c-2.3-1.9-4.3-1.2-5,0.3c0.5-8.9-28-9.7-30.7-14.4
				c-1,8.9-3.5,9-4.5,16.8c-0.6-5.1-3.7-5.4-5.3-3.5c0-20.3,8.7-29.5,22.8-29.7C108.9,72.6,118.5,77.2,122.5,89.8z"/>
			<path opacity="0.1" fill="#FFFFFF" d="M100,94c-6.3-1.5-12-2.8-13.2-4.8c-1,8.9-3.5,9-4.5,16.8c-0.6-5.1-3.7-5.4-5.3-3.5
				c0-20.3,8.7-29.5,22.8-29.7L100,94z"/>
		</g>
	</g>
</g>
<g>
	<path fill="#F2EFDC" d="M59.8,118.6c2.1,4.8-5.8,7.2-17.6,5.5c-11.9-1.6-18.8-6.1-15.4-10.1c3.3-4.1,11-5.3,17.5-4.3
		C50.7,110.5,57.7,113.7,59.8,118.6z"/>
	<path fill="#DCDAC8" d="M59.8,118.6c-0.8-1.9-2.5-3.6-4.5-5c1.4,1.2,2.5,2.5,3.1,4c2.1,4.8-5.8,7.2-17.6,5.5
		c-5.8-0.8-10.4-2.3-13.2-4c2.5,2.2,7.7,4.1,14.6,5C54,125.8,61.9,123.4,59.8,118.6z"/>
	<path fill="#DCDAC8" d="M55.4,117.1c0-0.3,0.1-0.6,0-0.9c-0.1-1-0.3-2-0.8-3c-0.6-0.4-1.2-0.7-1.8-1
		C54.1,113.8,55,115.5,55.4,117.1z"/>
	<path fill="#DCDAC8" d="M35.2,109.7c-0.7,0.1-1.4,0.3-2.1,0.5c3.4,2.3,6.3,5.3,7.3,8.5c0-0.3,0-0.6,0-0.9
		C40,114.8,38,112,35.2,109.7z"/>
	<path fill="#DCDAC8" d="M48.5,118.3c0-0.3,0.1-0.6,0-0.9c-0.2-2.6-1.7-5.3-3.9-7.7c-0.1,0-0.3,0-0.4-0.1c-0.8-0.1-1.5-0.2-2.3-0.2
		C45.1,111.9,47.7,115.1,48.5,118.3z"/>
</g>
</svg>
