<?xml version="1.0" encoding="utf-8"?>
<!-- Generator: Adobe Illustrator 18.0.0, SVG Export Plug-In . SVG Version: 6.00 Build 0)  -->
<!DOCTYPE svg PUBLIC "-//W3C//DTD SVG 1.1//EN" "http://www.w3.org/Graphics/SVG/1.1/DTD/svg11.dtd">
<svg version="1.1" id="Lag_1" xmlns="http://www.w3.org/2000/svg" xmlns:xlink="http://www.w3.org/1999/xlink" x="0px" y="0px"
	 viewBox="50 0 700 800" enable-background="new 50 0 700 800" xml:space="preserve">
<g>
	<polygon fill="#1E8484" points="101.8,575.8 298.2,704.1 410.2,730.1 453.8,800 542.7,800 671.9,662 718.7,592 	"/>
	<polygon fill="#FFFFFF" points="85.6,500.8 101.8,575.8 384.3,662 488.5,662 718.7,592 734.9,519.3 	"/>
	<polygon fill="#46C6C2" points="372.3,458.7 648.3,458.7 734.9,519.3 451.9,592 85.6,500.8 158.3,470.2 	"/>
	<g>
		<path fill="#F7F9F9" d="M235.2,646.2c-0.5,0-0.5,0-0.9,0L71.7,594.4c-1.4-0.5-1.9-1.9-1.9-3.2l5.1-27.8c0.5-1.4,1.9-2.3,3.2-2.3
			c1.4,0.5,2.3,1.9,2.3,3.2l-4.6,25.5l160.7,50.9c1.4,0.5,2.3,1.9,1.9,3.2C237,645.3,236.1,646.2,235.2,646.2z"/>
	</g>
	<g>
		<path fill="#F7F9F9" d="M332.9,690.7h-0.5L60.6,618.4c-1.4-0.5-2.3-1.9-1.9-3.2c0.5-1.4,1.9-2.3,3.2-1.9l271.9,72.3
			c1.4,0.5,2.3,1.9,1.9,3.2C335.2,689.8,333.8,690.7,332.9,690.7z"/>
	</g>
	<g>
		<path fill="#F7F9F9" d="M502.4,690.7h-97.3c-1.4,0-2.8-1.4-2.8-2.8s1.4-2.8,2.8-2.8H502l62.5-25.5c1.4-0.5,2.8,0,3.2,1.4
			c0.5,1.4,0,2.8-1.4,3.2l-63,25.9C502.9,690.2,502.4,690.7,502.4,690.7z"/>
	</g>
	<g>
		<g>
			<polygon fill="#5FA093" points="548.3,323.4 548.3,507.7 608.5,507.7 608.5,315.5 571.9,315.5 			"/>
			<polygon fill="#5FA093" points="336.6,510.1 396.4,510.1 396.4,377.1 336.6,398.4 			"/>
			<path fill="#D3EAE5" d="M722.4,146.5l-55.6,95.9h-132L469.1,128l37.5-64.8c-4.2,0-8.3-0.9-12.5-2.8l-24.5,42.6L426,178.4
				l78.7,136.6h44h23.6h36.6h53.7l78.7-136.6L722.4,146.5z"/>
			<path fill="#FFFFFF" d="M469.1,128l65.8,114.4h132l55.6-95.9l10.7-18.1l-38-65.3c7.4-1.4,14.8-5.1,21.3-11.1
				c13.4-13.4,15.7-33.8,4.6-44.5c-11.1-11.1-31-8.8-44.5,4.6c-2.3,2.3-4.6,5.1-6,7.9l-3.2-5.6H534.8l-5.6,9.7
				c-1.9-4.2-4.6-8.3-8.3-12.5C507.5-1.7,487.1-4,476.5,7.1c-11.1,11.1-8.8,31,4.6,44.5c4.2,4.2,8.3,6.9,13,8.8
				c4.2,1.9,8.3,2.8,12.5,2.8L469.1,128z"/>
			<polygon fill="#FFFFFF" points="548.3,315.5 504.3,315.5 425.5,178.4 469.1,102.9 228.7,155.3 187.5,282.2 248.6,399.8 
				248.6,510.1 332.4,510.1 332.4,399.8 336.6,398.4 396.4,377.1 455.2,356.3 455.2,507.7 514.9,507.7 514.9,335.5 548.3,323.4 
				571.9,315.5 			"/>
		</g>
		<g>
			<polygon fill="#D3EAE5" points="578.8,206.7 553.4,161.8 578.8,117.3 630.7,117.3 656.6,161.8 630.7,206.7 			"/>
			<polygon fill="#1E8484" points="604.8,150.7 624.2,117.3 585.8,117.3 			"/>
			<polygon fill="#1E8484" points="604.8,163.6 592.3,184.9 617.3,184.9 			"/>
			<circle fill="#1E8484" cx="556.6" cy="90" r="8.8"/>
			<circle fill="#1E8484" cx="646.9" cy="90" r="8.8"/>
		</g>
	</g>
</g>
</svg>
