<?xml version="1.0" encoding="utf-8"?>
<!-- Generator: Adobe Illustrator 18.0.0, SVG Export Plug-In . SVG Version: 6.00 Build 0)  -->
<!DOCTYPE svg PUBLIC "-//W3C//DTD SVG 1.1//EN" "http://www.w3.org/Graphics/SVG/1.1/DTD/svg11.dtd">
<svg version="1.1" id="Lag_1" xmlns="http://www.w3.org/2000/svg" xmlns:xlink="http://www.w3.org/1999/xlink" x="0px" y="0px"
	 viewBox="0 0 200 200" enable-background="new 0 0 200 200" xml:space="preserve">
<g>
	<circle fill="#F4DA21" cx="100" cy="100" r="90"/>
	<g>
		<path fill="#FFFFFF" d="M137.7,63.4v82.5c0,0.9-0.3,1.8-1,2.5c-0.7,0.7-1.6,1-2.5,1H65.7c-0.9,0-1.8-0.3-2.5-1
			c-0.7-0.7-1-1.6-1-2.5V54.1c0-0.9,0.3-1.8,1-2.5c0.7-0.7,1.6-1,2.5-1H125L137.7,63.4z"/>
		<path fill="#E6E5E5" d="M137.7,63.4h-9.3c-0.9,0-1.8-0.3-2.5-1c-0.7-0.7-1-1.6-1-2.5v-9.3L137.7,63.4z"/>
	</g>
	<g>
		<rect x="75" y="136.8" fill="#E6E5E5" width="25" height="3.9"/>
		<rect x="75" y="129" fill="#E6E5E5" width="49.9" height="3.9"/>
		<rect x="75" y="121.2" fill="#E6E5E5" width="49.9" height="3.9"/>
	</g>
	<g>
		<path fill="#71841F" d="M99.8,78.7c0.4,1,0.5,1,0.3-0.1c-0.3-2.5,0.4-5.4,2-8c0.7-1.1,0.8-1.7,0.3-1.8c0,0,0,0-0.1,0
			c-0.5,0-1.5,0.7-2,1.8C99,73.4,99,76.3,99.8,78.7z"/>
		<path fill="#D95B46" d="M95.4,76.9c4.1,1.7,5.1,1.4,8.5-0.1c8.2-3.6,16.8-1,15.7,14.8c-0.8,8-4.8,15-14.3,15
			c-1.9,0-3.8-0.2-5.5-0.8c-1.7,0.5-3.5,0.8-5.5,0.9C85.1,106.9,80.9,100,80,92C78.6,76.2,87.2,73.4,95.4,76.9z"/>
		<path fill="#71841F" d="M108.2,69c0.1,3.6-2.4,6.4-6.1,7.3c-0.1,0-0.3-1.3-0.3-1.8c0.2-2.7,1.8-5.2,4.7-5.5
			C107.1,68.8,107.7,68.9,108.2,69z"/>
		<path fill="#F16A54" d="M99.7,78.1c-1.1,0-2.4-0.4-4.3-1.1C87.2,73.4,78.6,76.2,80,92c0.9,8,5.1,14.9,14.5,14.8
			c1.9,0,3.7-0.3,5.4-0.8L99.7,78.1z"/>
		<g>
			<path fill="#879C29" d="M85,66.4c-0.5,0.2-1,0.4-1.5,0.6c0.1,0.7,0.3,1.5,0.5,2.3c2,6.9,8.5,11.1,14.3,9.4c0.5-0.2,1-0.4,1.5-0.6
				c-0.1-0.7-0.3-1.5-0.5-2.3C97.3,68.9,90.8,64.7,85,66.4z"/>
			<path fill="#71841F" d="M98.3,78.7c0.5-0.2,1-0.4,1.5-0.6c-5-4.6-11.7-9.2-16.3-11.1c0,0,0,0,0,0c0.1,0.7,0.3,1.5,0.5,2.3
				C86,76.2,92.4,80.4,98.3,78.7z"/>
		</g>
		<path fill="#879C29" d="M102.1,76.2c3.7-0.8,6.2-3.6,6.1-7.3c0,0,0,0,0,0C104.3,70.4,102.3,73.1,102.1,76.2z"/>
	</g>
	<g>
		
			<rect x="133.3" y="81.2" transform="matrix(0.9188 -0.3948 0.3948 0.9188 -30.1192 61.586)" fill="#FECE66" width="2.6" height="45.6"/>
		
			<rect x="135.7" y="80.2" transform="matrix(0.9188 -0.3948 0.3948 0.9188 -29.5279 62.4344)" fill="#F5B540" width="2.6" height="45.6"/>
		
			<rect x="138" y="79.2" transform="matrix(0.9188 -0.3948 0.3948 0.9188 -28.9365 63.2827)" fill="#ECA334" width="2.6" height="45.6"/>
		<polygon fill="#F2F2F2" points="131.5,80.5 127.4,77.4 125,78.4 124.4,83.5 		"/>
		<polygon fill="#CCCBCA" points="131.5,80.5 129.1,81.5 126.6,77.8 127.4,77.4 		"/>
		<polygon fill="#495057" points="127.4,77.4 125.3,75.9 125,78.4 		"/>
		
			<rect x="147.5" y="122.8" transform="matrix(0.9188 -0.3948 0.3948 0.9188 -36.9024 68.8355)" fill="#CCCBCA" width="2.6" height="2.6"/>
		
			<rect x="142.7" y="124.3" transform="matrix(0.9187 -0.395 0.395 0.9187 -37.8016 67.6023)" fill="#FFFFFF" width="5.1" height="2.6"/>
		<path fill="#1E262E" d="M150.7,125.3l-0.2-0.5l-2.4,1l0.2,0.5c0.4,0.9,0.4,2,0,2.9c-0.2,0.5-0.6,1-1,1.4c0.4,0,0.9-0.1,1.3-0.3
			c0.9-0.4,1.7-1.1,2.1-2.1C151.2,127.3,151.1,126.2,150.7,125.3z"/>
		<path fill="#495057" d="M148.4,126.3l-0.2-0.5l-4.7,2l0.2,0.5c0.4,0.9,1.1,1.7,2.1,2.1c0.5,0.2,1.1,0.3,1.7,0.3
			c0.4-0.4,0.7-0.8,1-1.4C148.8,128.3,148.8,127.2,148.4,126.3z"/>
	</g>
</g>
</svg>
