<?xml version="1.0" encoding="utf-8"?>
<!-- Generator: Adobe Illustrator 18.0.0, SVG Export Plug-In . SVG Version: 6.00 Build 0)  -->
<!DOCTYPE svg PUBLIC "-//W3C//DTD SVG 1.1//EN" "http://www.w3.org/Graphics/SVG/1.1/DTD/svg11.dtd">
<svg version="1.1" id="Lag_1" xmlns="http://www.w3.org/2000/svg" xmlns:xlink="http://www.w3.org/1999/xlink" x="0px" y="0px"
	 viewBox="0 0 200 200" enable-background="new 0 0 200 200" xml:space="preserve">
<g>
	<path fill="#5CB6BF" d="M100,190c-49.7,0-90-40.3-90-90c0-49.7,40.3-90,90-90c49.7,0,90,40.3,90,90C190,149.7,149.7,190,100,190z"
		/>
	<path fill="#4A9CA0" d="M187.4,121.6l-35.7-35.7c-1.4-2-3.8-3.2-6.3-3.2c-3.9-3.6-8.9-5.6-14-5.1c-21.2,2.1-42.6,2.1-63.9,0
		c-5.1-0.5-10.1,1.5-14,5.1c-3.6,0-6.8,2.5-7.5,6.1l0,0h0c-0.3,1.8,0.1,3.6,1.1,5.1c-0.1,0.4-0.2,0.8-0.3,1.1
		c-0.3,1.4-0.4,2.9-0.3,4.3c-0.5,0.7-0.9,1.5-1,2.3c-0.1,0.5-0.1,1.1,0,1.6c-0.2,0.5-0.4,0.9-0.5,1.4c-0.5,2.8,1.3,5.8,4.8,8.1
		l67.7,67.7c0.8,1.4,2.2,2.8,3.9,3.9l2.4,2.4C155.1,178.2,179.6,153.2,187.4,121.6z"/>
	<g>
		<path fill="#F2EFDC" d="M152.1,95c2.1,10.8-5.1,21-16.1,22c-24.3,2.4-48.7,2.4-73,0c-11-1.1-18.2-11.3-16.1-22l0,0
			c2.1-10.8,11.3-18.3,20.7-17.4c21.2,2.1,42.6,2.1,63.9,0C140.8,76.6,150.1,84.2,152.1,95L152.1,95z"/>
		<g>
			<path fill="#F16A54" d="M153,88.8c0.7,3.9-2.1,7.6-6.3,8.2c-31.3,4.3-63.1,4.3-94.4,0c-4.2-0.6-7-4.3-6.3-8.2l0,0
				c0.7-3.9,4.6-6.6,8.6-6c29.8,4,60,4,89.8,0C148.4,82.2,152.2,84.9,153,88.8L153,88.8z"/>
			<path fill="#D95B46" d="M46,88.8c-0.7,3.9,2.1,7.6,6.3,8.2c31.3,4.3,63.1,4.3,94.4,0c4.2-0.6,7-4.3,6.3-8.2
				C117.5,94.4,81.4,94.4,46,88.8z"/>
		</g>
		<path fill="none" stroke="#FBAB18" stroke-width="2.8763" stroke-linecap="round" stroke-linejoin="round" d="M146.7,87.7
			c-2.5,0.3-3.5-4.9-6-4.6c-2.5,0.3-1.6,5.4-4.1,5.7c-2.5,0.2-3.3-5-5.8-4.8c-2.5,0.2-1.8,5.4-4.4,5.6c0,0-3.1-5-5.6-4.9
			c-2.5,0.1-2,5.4-4.6,5.5c-2.6,0.1-2.9-5.1-5.4-5c-2.5,0.1-2.3,5.3-4.8,5.4c-2.6,0-2.7-5.2-5.2-5.2c-2.5,0-2.5,5.2-5,5.2
			c-2.6,0-2.5-5.3-4.9-5.3c-2.5,0-2.7,5.2-5.3,5.1c-2.6-0.1-2.2-5.3-4.7-5.4c-2.5-0.1-2.9,5.1-5.5,5c-2.6-0.1-2-5.4-4.5-5.5
			c-2.5-0.2-2.8,5.1-5.7,4.8c-1.6-0.1-2.6-5.5-4.3-5.6c-1.7-0.2-4.3,4.9-5.9,4.7"/>
		<path fill="#F2EFDC" d="M153.5,101.6c1,5.5-6.9,11.4-17.7,12.4c-24.1,2.4-48.4,2.4-72.5,0c-10.9-1.1-18.8-6.9-17.7-12.4l0,0
			c1-5.5,10-8.7,20.1-7.7c22.6,2.2,45.3,2.2,67.9,0C143.5,93,152.4,96.1,153.5,101.6L153.5,101.6z"/>
		<path fill="#E39910" d="M154,104.6c1,5.5-7,11.4-17.9,12.4c-24.4,2.4-48.9,2.4-73.2,0c-11-1.1-19-7-17.9-12.4l0,0
			C46,99.1,55,96,65.2,97c22.8,2.2,45.8,2.2,68.6,0C143.9,96,153,99.1,154,104.6L154,104.6z"/>
	</g>
</g>
</svg>
