<?xml version="1.0" encoding="utf-8"?>
<!-- Generator: Adobe Illustrator 18.0.0, SVG Export Plug-In . SVG Version: 6.00 Build 0)  -->
<!DOCTYPE svg PUBLIC "-//W3C//DTD SVG 1.1//EN" "http://www.w3.org/Graphics/SVG/1.1/DTD/svg11.dtd">
<svg version="1.1" xmlns="http://www.w3.org/2000/svg" xmlns:xlink="http://www.w3.org/1999/xlink" x="0px" y="0px"
	 viewBox="0 0 200 200" enable-background="new 0 0 200 200" xml:space="preserve">
<g id="Lag_2">
	<g>
		<g>
			<circle fill="#FFFCE9" cx="100" cy="100" r="90"/>
			<path fill="#EFE9D3" d="M189.9,103.1l-41.6-41.6c-0.7-0.7-1.6-1-2.5-1H54.1c-0.9,0-1.8,0.3-2.5,1c-0.7,0.7-1,1.6-1,2.5v72
				c0,0.9,0.3,1.8,1,2.5l51.5,51.5C150.3,188.3,188.3,150.3,189.9,103.1z"/>
			<g>
				<g>
					<path fill="#495057" d="M148.3,61.5c-0.7-0.7-1.6-1-2.5-1H54.1c-0.9,0-1.8,0.3-2.5,1c-0.7,0.7-1,1.6-1,2.5v72
						c0,0.9,0.3,1.8,1,2.5c0.7,0.7,1.6,1,2.5,1h91.7c0.9,0,1.8-0.3,2.5-1c0.7-0.7,1-1.6,1-2.5V64C149.4,63.1,149,62.2,148.3,61.5z"
						/>
					<rect x="92.2" y="60.5" fill="#1E262E" width="15.7" height="79"/>
					<rect x="55.9" y="65.7" fill="#FFFFFF" width="88.3" height="68.5"/>
					<rect x="55.9" y="129" fill="#CCCBCA" width="88.3" height="5.2"/>
					<rect x="97.4" y="65.7" fill="#F2F2F2" width="5.2" height="63.3"/>
				</g>
				<g>
					<rect x="119.3" y="91.4" fill="#FECE66" width="2.7" height="48.1"/>
					<rect x="122" y="91.4" fill="#F5B540" width="2.7" height="48.1"/>
					<rect x="124.7" y="91.4" fill="#ECA334" width="2.7" height="48.1"/>
					<polygon fill="#F2F2F2" points="127.4,91.4 124.7,86.7 122,86.7 119.3,91.4 					"/>
					<polygon fill="#CCCBCA" points="127.4,91.4 124.7,91.4 123.8,86.7 124.7,86.7 					"/>
					<polygon fill="#495057" points="124.7,86.7 123.4,84.3 122,86.7 					"/>
					<rect x="124.7" y="139.5" fill="#CCCBCA" width="2.7" height="2.7"/>
					<rect x="119.3" y="139.5" fill="#FFFFFF" width="5.4" height="2.7"/>
					<path fill="#1E262E" d="M127.4,142.8v-0.6h-2.7v0.6c0,1-0.4,2.1-1.2,2.9c-0.4,0.4-1,0.8-1.5,1c0.4,0.2,0.9,0.2,1.4,0.2
						c1,0,2.1-0.4,2.9-1.2C127,144.9,127.4,143.9,127.4,142.8z"/>
					<path fill="#495057" d="M124.7,142.8v-0.6h-5.4l0,0.6c0,1,0.4,2.1,1.2,2.9c0.4,0.4,1,0.8,1.5,1c0.6-0.2,1.1-0.5,1.5-1
						C124.3,144.9,124.7,143.9,124.7,142.8z"/>
				</g>
			</g>
		</g>
		<g>
			<g>
				<g>
					<path fill="#C6C6C6" d="M71.9,79L71,78.1c-0.1-0.1-0.3-0.1-0.4,0l-3.7,3.7l-1.6-1.6c-0.1-0.1-0.3-0.1-0.4,0L64,81.1
						c-0.1,0.1-0.1,0.3,0,0.4l2.7,2.7c0.1,0.1,0.1,0.1,0.2,0.1c0.1,0,0.1,0,0.2-0.1l4.8-4.8c0.1-0.1,0.1-0.1,0.1-0.2
						C72,79.1,72,79,71.9,79z"/>
				</g>
				<g>
					<rect x="74.7" y="79.1" fill="#F2F2F2" width="12.6" height="2"/>
					<rect x="74.7" y="81.6" fill="#F2F2F2" width="7.2" height="2"/>
				</g>
			</g>
			<g>
				<g>
					<path fill="#C6C6C6" d="M71.9,89.7L71,88.8c-0.1-0.1-0.3-0.1-0.4,0l-3.7,3.7L65.3,91c-0.1-0.1-0.3-0.1-0.4,0L64,91.8
						c-0.1,0.1-0.1,0.3,0,0.4l2.7,2.7c0.1,0.1,0.1,0.1,0.2,0.1c0.1,0,0.1,0,0.2-0.1l4.8-4.8C72,90,72,90,72,89.9
						C72,89.8,72,89.8,71.9,89.7z"/>
				</g>
				<g>
					<rect x="74.7" y="89.8" fill="#F2F2F2" width="12.6" height="2"/>
					<rect x="74.7" y="92.4" fill="#F2F2F2" width="7.2" height="2"/>
				</g>
			</g>
			<g>
				<g>
					<path fill="#C6C6C6" d="M71.9,100.4L71,99.5c-0.1-0.1-0.3-0.1-0.4,0l-3.7,3.7l-1.6-1.6c-0.1-0.1-0.3-0.1-0.4,0l-0.9,0.9
						c-0.1,0.1-0.1,0.3,0,0.4l2.7,2.7c0.1,0.1,0.1,0.1,0.2,0.1c0.1,0,0.1,0,0.2-0.1l4.8-4.8c0.1-0.1,0.1-0.1,0.1-0.2
						C72,100.6,72,100.5,71.9,100.4z"/>
				</g>
				<g>
					<rect x="74.7" y="100.6" fill="#F2F2F2" width="12.6" height="2"/>
					<rect x="74.7" y="103.1" fill="#F2F2F2" width="7.2" height="2"/>
				</g>
			</g>
			<g>
				<g>
					<path fill="#C6C6C6" d="M71.9,111.2l-0.9-0.9c-0.1-0.1-0.3-0.1-0.4,0l-3.7,3.7l-1.6-1.6c-0.1-0.1-0.3-0.1-0.4,0l-0.9,0.9
						c-0.1,0.1-0.1,0.3,0,0.4l2.7,2.7c0.1,0.1,0.1,0.1,0.2,0.1c0.1,0,0.1,0,0.2-0.1l4.8-4.8c0.1-0.1,0.1-0.1,0.1-0.2
						C72,111.3,72,111.2,71.9,111.2z"/>
				</g>
				<g>
					<rect x="74.7" y="111.3" fill="#F2F2F2" width="12.6" height="2"/>
					<rect x="74.7" y="113.8" fill="#F2F2F2" width="7.2" height="2"/>
				</g>
			</g>
		</g>
	</g>
</g>
<g id="Lag_1">
</g>
</svg>
