<?xml version="1.0" encoding="utf-8"?>
<!-- Generator: Adobe Illustrator 18.0.0, SVG Export Plug-In . SVG Version: 6.00 Build 0)  -->
<!DOCTYPE svg PUBLIC "-//W3C//DTD SVG 1.1//EN" "http://www.w3.org/Graphics/SVG/1.1/DTD/svg11.dtd">
<svg version="1.1" xmlns="http://www.w3.org/2000/svg" xmlns:xlink="http://www.w3.org/1999/xlink" x="0px" y="0px"
	 viewBox="0 0 200 200" enable-background="new 0 0 200 200" xml:space="preserve">
<g id="Lag_2">
</g>
<g id="Lag_1">
	<path fill="#415644" d="M100,190c-49.7,0-90-40.3-90-90c0-49.7,40.3-90,90-90c49.7,0,90,40.3,90,90C190,149.7,149.7,190,100,190z"
		/>
	<g>
		<g>
			<g>
				<g>
					<g>
						<path fill="#807D61" d="M146.7,143.7c-0.2-0.1-0.5-0.2-0.7-0.3c-0.5-0.3-1.1-0.6-1.7-0.8l-2.5-26.3l0.6,0.4l6.2,3.9l0.3,0.3
							l-1.6,22.8C147.1,143.7,146.9,143.7,146.7,143.7z"/>
						<path fill="#565441" d="M146.7,143.7c-0.2-0.1-0.5-0.2-0.7-0.3c-0.5-0.3-1.1-0.6-1.7-0.8l-3.5-31.9l0.6,0.4l6.3,3.9l0.3,0.3
							l-1,28.4C146.8,143.7,146.7,143.7,146.7,143.7z"/>
					</g>
					<g>
						<path fill="#807D61" d="M159.8,146c-0.2,0-0.5,0-0.7,0c-0.4-0.2-0.8-0.3-1.2-0.5c-0.2-0.1-0.5-0.2-0.7-0.3l-3.1-28.9l0.6,0.4
							l6.3,3.9l0.3,0.3L159.8,146L159.8,146z"/>
						<path fill="#565441" d="M159.1,146c-0.4-0.2-0.8-0.3-1.2-0.4c-0.3-0.1-0.5-0.3-0.8-0.4l-5.8-35.1l0.7,0.4l9.2,5.7L159.1,146
							C159.1,146,159.1,146,159.1,146z"/>
					</g>
					<g>
						<path fill="#807D61" d="M60.5,154.2c-0.5-0.5-1-1-1.6-1.4l-2.7-27l-0.1-0.7l8,1.2v0.9l-1.6,27.1
							C61.8,154.3,61.2,154.2,60.5,154.2z"/>
						<path fill="#565441" d="M60.5,154.2c0-0.3-3.4-2.3-3.4-2.3L54.4,124l-0.1-0.7l8,1.2v0.9L60.5,154.2
							C60.6,154.2,60.6,154.2,60.5,154.2z"/>
					</g>
					<g>
						<path fill="#807D61" d="M41,146.9c-0.6-0.6-1.4-1.1-2.3-1.5l-2.9-28.3l-0.1-0.7l8,1.2v0.9l-1.7,28.6
							C41.7,147.1,41.4,147,41,146.9z"/>
						<path fill="#565441" d="M41,146.9c-0.6-0.6-1.4-1.1-2.3-1.5l-3.4-32.1l0.6,0.4l6.3,3.9l0.3,0.3l-1.4,29
							C41.1,146.9,41,146.9,41,146.9z"/>
					</g>
					<g>
						<g>
							<polygon fill="#565441" points="139.4,113.2 37.5,116.5 37.5,114.4 138.5,111.6 							"/>
							<polygon fill="#807D61" points="26.8,110.9 26.9,112.7 37.5,116.5 37.5,114.4 							"/>
							<polygon fill="#ABA781" points="153.3,111.4 37.3,114.6 26.8,110.9 150.6,108 							"/>
						</g>
						<g>
							<polygon fill="#565441" points="154.8,117.9 49.1,121.5 49.2,119.6 154,116.2 							"/>
							<polygon fill="#807D61" points="38.5,115 38.5,116.8 49.1,121.5 49.2,119.6 							"/>
							<polygon fill="#ABA781" points="161.2,116.2 49.2,119.6 38.5,115 154.9,111.8 							"/>
						</g>
						<g>
							<polygon fill="#565441" points="165.9,123.7 61.6,128.1 61.6,125.3 165.9,121.6 							"/>
							<polygon fill="#807D61" points="50.5,120.5 50.4,122.9 61.6,128.1 61.6,125.3 							"/>
							<polygon fill="#ABA781" points="165.9,121.6 61.6,125.3 50.5,120.5 162.4,117.1 							"/>
						</g>
					</g>
				</g>
			</g>
		</g>
		<g>
			<path fill="#54443B" d="M88.5,104.7c-1.8,0.9-1.8,4.5-1.6,6.2c0.8,8.8,22.8,7,26.7,5.9c5-20.7-20.1-8.6-17.8-11.5
				c-1.8-1.2-6.6-1-8.6-0.2c0.4,0.2,0.8,0.4,1.3,0.4V104.7z"/>
			<path fill="#FFFFFF" d="M89,94.7c0,1.2-0.1,2.5-0.3,3.7c0,0.3-0.1,0.6-0.2,0.9c-0.1,0.5-0.2,1-0.4,1.5c-0.1,0.4-0.3,0.8-0.5,1.2
				c-0.2,0.3-0.3,0.5-0.5,0.8c-0.6,0.7-1.4,1.4-2.2,1.8c-0.4,0.2-0.8,0.4-1.2,0.5c0,0,0,0,0,0c-1,0.3-2.1,0.2-3.1-0.2
				c-2-0.9-4.3-3.9-4.9-6.4c-0.1-0.5-0.2-1.1-0.2-1.6c0.1,0,0.1,0,0.2,0c0.5,0,1.1-0.2,1.5-0.1c0.2-0.4,0.4-0.8,0.7-1.3
				c0.2-0.3,0.3-0.6,0.5-0.9c0.5-0.8,1-1.5,1.5-2.3c0.2-0.3,0.3-0.6,0.5-0.8c0.2-0.4,0.5-0.8,0.7-1.3c0.1-0.2,0.2-0.5,0.4-0.7
				c0.1-0.3,0.3-0.6,0.5-0.9c0.4-0.8,0.9-1.7,1.4-2.5c0.2-0.3,0.4-0.5,0.6-0.8c0.2-0.2,0.3-0.3,0.5-0.5c-0.1-0.2-0.1-0.4,0.1-0.5
				c0.1,0.1,0.2,0.1,0.4,0.1c0,0,0.1,0,0.1-0.1L85,84.7c1.5,0.5,2.9,0.4,3.6,1.5c0.4,0.7,0.4,2.1,0.3,3.3c0,0.3,0,0.7,0,1
				c0,0.3,0,0.5,0,0.8c0.1,0.8,0.1,1.7,0.1,2.5C89,94.1,89,94.4,89,94.7z"/>
			<path fill="#FFFFFF" d="M139.8,88.8c-0.1,1.7-1.2,2.2-2.5,2.5c-0.3,0.1-0.7,0.2-1,0.3c-0.3,0.1-0.6,0.2-0.9,0.3
				c-0.5,0.2-1,0.4-1.5,0.6c-0.4,0.2-0.8,0.4-1.3,0.6c-1.3,0.7-2.7,1.3-4,1.9c-0.1,0-0.2,0.1-0.3,0.1h0c-0.5,0.2-1,0.4-1.5,0.5
				c-1.7,0.6-3.5,0.9-5.2,1.2c-0.7,0.1-1.3,0.3-2,0.4c0,0,0,0,0,0c-0.4,0.1-0.8,0.2-1.2,0.3c-0.3-0.8-0.7-1.5-1-2.2
				c-0.1-0.3-0.3-0.6-0.4-0.9c-0.4-1-0.9-2-1.3-3c-0.1-0.3-0.2-0.6-0.3-0.9c-0.3-0.7-0.5-1.4-0.8-2.1c0-0.1-0.1-0.3-0.2-0.4
				c-0.1-0.3-0.3-0.6-0.4-0.9c-0.4-0.8-0.9-1.6-1.3-2.4c-0.2-0.3-0.3-0.5-0.5-0.8c-0.1-0.1-0.1-0.2-0.2-0.3c-1.1-2.2-0.4-2.9,1.8-4
				l-0.4,0.2c0.7,0,1.4,0.5,2.2,1.1c0.2,0.2,0.5,0.4,0.7,0.6l0,0c0.4,0.4,0.9,0.9,1.3,1.3v0l0.2,0.2c0.2,0.2,0.3,0.3,0.5,0.5l0,0
				c0.4,0.4,0.8,0.8,1.1,1.1c0.2,0.2,0.5,0.4,0.7,0.6c0.2,0.2,0.5,0.4,0.8,0.6c0.8,0.5,1.6,1,2.4,1.3c0.3,0.1,0.6,0.2,0.9,0.4
				c0.7,0.3,1.4,0.5,2.2,0.6c0,0,0,0,0,0c0.3,0.1,0.7,0.1,1,0.2c1,0.2,2,0.3,3,0.3c0.3,0,0.7,0,1,0c0.9,0,1.8,0,2.8,0
				c0.3,0,0.6,0,1,0c0.5,0,1.1,0,1.7,0c0.3,0,0.6,0,0.9,0C138.4,88.8,139.1,88.8,139.8,88.8z"/>
			<g>
				<g>
					<path fill="#58725C" d="M88.8,89.5c0,0.3,0,0.7,0,1c-2.1-0.8-4-2.3-5.5-4.2c0.2-0.3,0.4-0.5,0.6-0.8
						C85.2,87.2,86.9,88.7,88.8,89.5z"/>
				</g>
				<g>
					<path fill="#58725C" d="M81.9,88.8c0.7,0.9,1.6,1.8,2.6,2.5c1,0.8,2,1.4,3.1,2c0.4,0.2,0.9,0.4,1.3,0.5c0.5,0.1,1,0.2,1.6,0.2
						c0.6,0,0.6,0.9,0,0.9c-0.5,0-1-0.1-1.5-0.2c-0.6-0.2-1.2-0.4-1.8-0.6c-1.2-0.5-2.3-1.3-3.3-2.1c-0.9-0.7-1.7-1.5-2.4-2.3
						L81.9,88.8z"/>
				</g>
				<g>
					<path fill="#58725C" d="M93.1,99.8c0,0.3-0.2,0.4-0.5,0.5c-0.9,0.1-1.7,0-2.5-0.3c-0.5-0.1-1-0.3-1.5-0.6
						c-2-0.9-3.9-2.3-5.5-3.8c-1.1-1-2.1-2-3.1-3.1c0.2-0.3,0.3-0.6,0.5-0.8c1.6,1.9,3.4,3.6,5.3,5c0.9,0.6,1.9,1.3,3,1.8
						c1.2,0.6,2.6,0.9,3.9,0.8C92.9,99.3,93.1,99.5,93.1,99.8z"/>
				</g>
				<g>
					<path fill="#58725C" d="M87.7,102.1c-0.2,0.3-0.3,0.5-0.5,0.8c-2.4-0.8-4.7-2.4-6.5-4.1c-1-0.9-1.9-2-2.7-3.1
						c0.2-0.3,0.3-0.6,0.5-0.9c1.1,1.6,2.4,3,3.8,4.2C83.8,100.3,85.7,101.5,87.7,102.1z"/>
				</g>
				<g>
					<path fill="#58725C" d="M84.9,104.7c-0.4,0.2-0.8,0.4-1.2,0.5c0,0,0,0,0,0c-2.5-1.1-4.7-2.9-6.5-4.9c-0.5-0.5-1-1.1-1.5-1.7
						c-0.1-0.5-0.2-1.1-0.2-1.6c0.1,0,0.1,0,0.2,0c1.2,1.8,2.8,3.4,4.4,4.8C81.6,103,83.2,104.1,84.9,104.7z"/>
				</g>
			</g>
			<g>
				<g>
					<path fill="#58725C" d="M116.4,81.7c-1.1,1.2-2.3,2.3-3.6,3.1c-1.3,0.8-2.7,1.4-4.2,1.7c-0.3,0-0.5-0.1-0.6-0.3
						c-0.1-0.2,0.1-0.5,0.3-0.6c1.5-0.2,2.8-0.8,4-1.6c1.2-0.8,2.4-1.9,3.4-2.9L116.4,81.7z"/>
				</g>
				<g>
					<path fill="#58725C" d="M118.3,83.7c-1.1,1.6-2.3,3.2-3.8,4.4c-1.4,1.1-2.9,1.8-4.8,1.8c-0.6,0-0.6-0.9,0-0.9
						c1.7,0,3.1-0.7,4.4-1.8c0.3-0.3,0.7-0.6,1-0.9c1-1,1.8-2.1,2.6-3.3L118.3,83.7z"/>
				</g>
				<g>
					<path fill="#58725C" d="M120.9,86c-0.7,1.1-1.5,2.2-2.4,3.1c-0.8,0.9-1.8,1.7-2.8,2.4c-0.8,0.5-1.6,1-2.5,1.3
						c-0.6,0.2-0.8-0.7-0.2-0.9c0.8-0.3,1.7-0.7,2.4-1.3c0.9-0.6,1.7-1.4,2.5-2.2c0.9-0.9,1.6-1.9,2.3-3
						C120.4,85.7,120.7,85.9,120.9,86z"/>
				</g>
				<g>
					<path fill="#58725C" d="M124.2,87.7c-1.1,1.7-2.3,3.4-3.7,4.9c-1,1-2,2-3.1,2.8c-1.4,1-3,1.9-4.7,2.4c-0.6,0.2-0.8-0.7-0.2-0.9
						c1.6-0.5,3.2-1.4,4.5-2.4c1.1-0.8,2-1.7,2.9-2.7c1.3-1.4,2.4-2.9,3.4-4.5C123.6,87.5,123.9,87.6,124.2,87.7z"/>
				</g>
				<g>
					<path fill="#58725C" d="M127.4,88.5c-1.8,2.8-3.4,6.1-5.9,8.4c-1.1,1.1-2.5,2-4.1,2.5c-0.6,0.2-0.8-0.7-0.2-0.9
						c0.8-0.3,1.6-0.7,2.3-1.2c0,0,0,0,0,0c0.2-0.1,0.3-0.2,0.5-0.3c2.1-1.6,3.5-3.9,4.9-6.1c0.5-0.8,1-1.7,1.5-2.5c0,0,0,0,0,0
						C126.8,88.4,127.1,88.5,127.4,88.5z"/>
				</g>
				<g>
					<path fill="#58725C" d="M131.4,88.8c-0.9,2.2-1.8,4.4-3.2,6.3h0c-0.1,0.1-0.1,0.2-0.2,0.3c-1.5,2.1-3.3,4-5.8,4.8
						c-0.6,0.2-0.8-0.7-0.2-0.9c0.9-0.3,1.7-0.7,2.4-1.2c0.9-0.7,1.7-1.5,2.4-2.4c0.9-1.2,1.7-2.5,2.3-3.9c0.5-1,0.9-2,1.3-3
						C130.8,88.8,131.1,88.8,131.4,88.8z"/>
				</g>
				<g>
					<path fill="#58725C" d="M135.2,88.8c-0.4,1.3-0.8,2.5-1.3,3.7c-1.2,2.8-2.7,5.3-5.5,6.8c-0.5,0.3-1-0.5-0.5-0.8
						c2.2-1.3,3.6-3.2,4.7-5.4c0.7-1.4,1.2-2.8,1.6-4.3C134.5,88.8,134.8,88.8,135.2,88.8z"/>
				</g>
				<g>
					<path fill="#58725C" d="M137.8,88.8c-0.1,0.9-0.2,1.7-0.5,2.6c-0.1,0.3-0.2,0.7-0.3,1c-0.7,1.9-1.7,3.6-3.2,4.9
						c-0.2,0.2-0.5,0.2-0.7,0c-0.2-0.2-0.2-0.5,0-0.7c1.5-1.3,2.6-3,3.2-4.9c0.3-0.9,0.5-1.9,0.6-2.8
						C137.1,88.8,137.5,88.8,137.8,88.8z"/>
				</g>
			</g>
			<g>
				<path fill="#FFFFFF" d="M120.1,100.7c-0.3,2.8-9.4,4.8-11.9,5.3c-4.3,1-8.8,1.1-13.2,0.7c-2-0.2-4.5-0.1-6.4-0.9
					c-1.4-0.6-1.7-1.3-1.8-2.3v0c0-0.6,0-1.2,0-2c0-0.1,0-0.2,0-0.4c0-0.5,0-1.1-0.1-1.8c-0.1-0.7-0.1-1.5-0.2-2.4
					c-0.1-0.7-0.1-1.4-0.2-2.1v0c-0.1-0.8-0.1-1.5-0.1-2.3c0-0.7,0-1.4,0-2.1c0-0.7,0.1-1.5,0.3-2.1v0c0.2-0.7,0.4-1.3,0.7-1.7
					c0.2-0.2,0.3-0.4,0.5-0.6v-0.2c-0.1-0.2,0.6-0.3,1.6-0.3c2.8-0.1,8.3,0.2,9.4,0.1c4.9-0.4,9.9-1,13.3-4.8
					c0.5,0.4,0.9,0.9,1.3,1.5c0.4,0.5,0.7,1,1,1.6c0.4,0.6,0.7,1.3,1,2c0.3,0.6,0.5,1.3,0.7,1.9c0.2,0.6,0.4,1.3,0.6,1.9
					c0.1,0.2,0.1,0.5,0.2,0.7c0.1,0.5,0.3,1,0.4,1.4c0.3,0.9,0.5,1.9,0.8,2.8c0.1,0.4,0.2,0.8,0.4,1.3c0.1,0.2,0.1,0.4,0.3,0.7
					c0.2,0.4,0.4,0.9,0.6,1.4c0.3,0.7,0.6,1.4,0.7,1.9C120.1,100.2,120.1,100.5,120.1,100.7z"/>
				<g>
					<g>
						<path fill="#58725C" d="M88.5,85.3C88.4,85.2,88.4,85.2,88.5,85.3C88.4,85.2,88.4,85.2,88.5,85.3
							C88.4,85.2,88.4,85.2,88.5,85.3C88.5,85.3,88.5,85.3,88.5,85.3z"/>
						<path fill="#58725C" d="M114.3,84.2c-0.7,0.6-1.5,1.1-2.3,1.6c-4.5,2.6-10,3.6-15.2,3.4c-3.2-0.1-6.6-0.7-9.6-2.1
							c0.2-0.2,0.3-0.4,0.5-0.6v-0.2c-0.1-0.2,0.6-0.3,1.6-0.3c0.3,0.1,0.5,0.2,0.8,0.3c0.6,0.2,1.2,0.4,1.8,0.5
							c0.6,0.1,1.2,0.3,1.9,0.4c0.1,0,0.1,0,0.2,0c0,0,0,0,0,0c0,0,0,0,0,0c0,0,0,0,0,0c0,0,0,0,0,0c0,0,0,0,0,0c0,0,0,0,0,0
							c0,0,0,0,0,0c0,0,0,0,0,0c0,0,0,0,0,0c0,0,0,0,0,0c0,0,0.1,0,0.1,0c0.2,0,0.3,0,0.5,0.1c0.3,0,0.6,0.1,0.9,0.1
							c1.3,0.1,2.6,0.1,3.9,0.1c0.7,0,1.3-0.1,2-0.2c0.1,0,0.2,0,0.3,0c0,0,0,0,0.1,0c0,0,0,0,0,0c0,0,0,0,0,0c0,0,0,0,0,0
							c0,0,0,0,0,0c0,0,0,0,0,0c0,0,0,0,0,0c0,0,0,0,0,0c0.1,0,0.3,0,0.4-0.1c0.3,0,0.6-0.1,0.9-0.2c1.3-0.2,2.5-0.5,3.8-0.9
							c0.6-0.2,1.2-0.4,1.7-0.6c0,0,0,0,0,0c0,0,0,0,0,0c0,0,0.1,0,0.1,0c0.1,0,0.1-0.1,0.2-0.1c0.1-0.1,0.3-0.1,0.4-0.2
							c0.3-0.1,0.5-0.2,0.8-0.4c0.5-0.3,1-0.6,1.5-0.9c0.3-0.2,0.5-0.3,0.8-0.5c0.1-0.1,0.2-0.2,0.3-0.2c0.1,0,0.1-0.1,0.2-0.1
							c0,0,0,0,0,0c0,0,0,0,0,0c0,0,0,0,0,0c0.1-0.1,0.1-0.1,0.2-0.2C113.6,83.1,114,83.7,114.3,84.2z"/>
					</g>
					<g>
						<path fill="#58725C" d="M85.7,87.7C85.7,87.7,85.8,87.7,85.7,87.7c0,0-0.1-0.1-0.1-0.1C85.7,87.6,85.7,87.6,85.7,87.7
							C85.7,87.6,85.7,87.7,85.7,87.7C85.7,87.7,85.7,87.7,85.7,87.7C85.7,87.7,85.7,87.7,85.7,87.7z"/>
						<path fill="#58725C" d="M116,87.8c-0.9,0.8-2,1.5-3.1,2c-1.9,0.9-4,1.6-6.1,2.1c-4.4,1-9,1.3-13.5,0.7c-2-0.3-3.9-0.7-5.8-1.5
							c-0.5-0.2-0.9-0.4-1.3-0.7c0-0.7,0.1-1.5,0.3-2.1c0,0,0,0,0.1,0.1c0,0,0,0,0,0c0,0,0,0,0,0h0c0,0,0,0,0,0
							c0.3,0.2,0.6,0.4,0.9,0.6c0.2,0.1,0.4,0.2,0.5,0.3c0.1,0,0.2,0.1,0.3,0.1c0,0,0,0,0,0l0,0c0,0,0,0,0,0c0,0,0,0,0,0
							c0,0,0,0,0,0c0,0,0,0,0,0c0,0,0,0,0,0c0,0,0,0,0,0c0,0,0,0,0,0c0,0,0,0,0,0c0,0,0,0,0,0c0,0,0,0,0,0c0,0,0,0,0,0c0,0,0,0,0,0
							c0,0,0,0,0,0c0.4,0.2,0.8,0.3,1.2,0.4c0.9,0.3,1.8,0.5,2.8,0.6c0.2,0,0.5,0.1,0.7,0.1c0,0,0,0,0,0c0,0,0,0,0,0c0,0,0,0,0,0
							c0.1,0,0.2,0,0.3,0c0.1,0,0.2,0,0.4,0c0.5,0.1,1.1,0.1,1.6,0.1c2.2,0.1,4.5,0.1,6.7-0.2c0.3,0,0.5-0.1,0.8-0.1c0,0,0,0,0,0
							c0,0,0,0,0,0c0,0,0,0,0,0c0,0,0,0,0,0c0,0,0,0,0,0c0.1,0,0.2,0,0.3,0c0.1,0,0.3,0,0.4-0.1c0.6-0.1,1.1-0.2,1.7-0.3
							c1.1-0.2,2.1-0.5,3.2-0.8c0.5-0.2,1-0.3,1.5-0.5c0.2-0.1,0.5-0.2,0.7-0.3c0.1,0,0.1,0,0.2-0.1c0,0,0,0,0,0c0,0,0,0,0,0
							c0.1,0,0.2-0.1,0.3-0.1c0.9-0.4,1.7-0.8,2.5-1.3c0.2-0.1,0.4-0.3,0.6-0.4c0,0,0.1-0.1,0.1-0.1c0,0,0,0,0,0
							c0.1-0.1,0.1-0.1,0.2-0.2c0.3-0.2,0.5-0.4,0.7-0.7C115.6,86.5,115.8,87.2,116,87.8z"/>
					</g>
					<g>
						<path fill="#58725C" d="M85.8,92.3C85.8,92.3,85.8,92.3,85.8,92.3C85.8,92.3,85.7,92.3,85.8,92.3
							C85.7,92.3,85.7,92.3,85.8,92.3C85.8,92.3,85.8,92.3,85.8,92.3C85.8,92.3,85.8,92.3,85.8,92.3C85.8,92.3,85.8,92.3,85.8,92.3z
							"/>
						<path fill="#58725C" d="M117.2,91.8c-1.6,1.6-3.6,2.7-5.7,3.5c-2.2,0.9-4.6,1.5-7,1.8c-2.5,0.4-5.1,0.5-7.7,0.3
							c-2.4-0.2-4.8-0.5-7.1-1.3c-1.2-0.4-2.3-0.8-3.4-1.4v0c-0.1-0.8-0.1-1.5-0.1-2.3c0.2,0.1,0.4,0.2,0.6,0.4
							c0.6,0.3,1.1,0.6,1.7,0.9c0,0,0.2,0.1,0.2,0.1c0,0,0,0,0,0c0,0,0,0,0,0c0,0,0,0,0,0c0,0,0,0,0,0h0c0,0,0.1,0,0.1,0.1
							c0.2,0.1,0.3,0.1,0.5,0.2c0.3,0.1,0.7,0.2,1,0.3c0.7,0.2,1.4,0.4,2.1,0.6c0.6,0.1,1.2,0.2,1.7,0.3c0.1,0,0.2,0,0.3,0
							c0,0,0,0,0,0c0,0,0,0,0,0c0,0,0,0,0,0c0,0,0,0,0,0c0,0,0,0,0,0c0,0,0,0,0,0c0,0,0,0,0,0c0,0,0,0,0,0c0,0,0,0,0,0c0,0,0,0,0,0
							c0,0,0,0,0,0c0,0,0,0,0,0c0,0,0,0,0,0c0,0,0,0,0,0c0,0,0,0,0,0c0,0,0,0,0,0c0.1,0,0.2,0,0.3,0c0.3,0,0.6,0.1,0.9,0.1
							c1.2,0.1,2.5,0.2,3.7,0.2c1.3,0,2.5-0.1,3.8-0.2c0.1,0,0.2,0,0.3,0c0,0,0.1,0,0.1,0c0,0,0,0,0,0c0.1,0,0.2,0,0.3,0
							c0.3,0,0.6-0.1,0.9-0.1c0.6-0.1,1.2-0.2,1.8-0.4c1.2-0.3,2.3-0.6,3.4-1c0.3-0.1,0.5-0.2,0.8-0.3c0,0,0,0,0,0c0,0,0,0,0,0
							c0,0,0,0,0,0c0,0,0,0,0,0c0.1,0,0.2-0.1,0.3-0.1c0.1-0.1,0.2-0.1,0.4-0.2c0.5-0.2,1-0.5,1.5-0.8c0.5-0.3,0.9-0.5,1.4-0.9
							c0.1-0.1,0.2-0.2,0.4-0.3c0,0,0,0,0.1-0.1c0,0,0,0,0,0c0,0,0,0,0,0c0,0,0,0,0,0c0,0,0,0,0,0c0,0,0,0,0,0
							c0.2-0.2,0.4-0.3,0.6-0.5c0.4-0.3,0.7-0.7,1-1.1c0,0,0,0,0-0.1c0.1,0.2,0.1,0.5,0.2,0.7C116.9,90.9,117.1,91.4,117.2,91.8z"/>
					</g>
					<g>
						<path fill="#58725C" d="M118.6,96.5c-0.8,0.6-1.6,1.1-2.4,1.6c-2,1-4.1,1.8-6.2,2.4c-4.6,1.2-9.6,1.7-14.4,1.3
							c-2.2-0.2-4.4-0.6-6.4-1.3c-0.8-0.3-1.7-0.7-2.4-1.1c-0.1-0.7-0.1-1.5-0.2-2.4c0,0,0.1,0,0.1,0.1c0,0,0,0,0,0c0,0,0,0,0,0
							c0,0,0,0,0,0c0,0,0,0,0,0c0,0,0,0,0,0c0,0,0,0,0,0c0,0,0,0,0,0c0.2,0.1,0.3,0.2,0.5,0.4c0.4,0.2,0.8,0.5,1.2,0.7
							c0.2,0.1,0.4,0.2,0.7,0.3c0,0,0,0,0.1,0c0,0,0,0,0,0c0,0,0,0,0,0c0,0,0,0,0,0c0,0,0,0,0,0h0c0,0,0,0,0,0c0,0,0,0,0,0
							c0,0,0,0,0,0c0,0,0,0,0,0c0,0,0,0,0,0c0.1,0,0.2,0.1,0.3,0.1c0.5,0.2,0.9,0.3,1.4,0.5c1,0.3,2.1,0.5,3.1,0.7c0,0,0.1,0,0.1,0
							c0,0,0,0,0,0c0,0,0,0,0,0c0,0,0,0,0,0h0c0,0,0,0,0,0c0,0,0,0,0,0h0c0,0,0,0,0,0c0,0,0,0,0,0c0,0,0,0,0,0c0,0,0,0,0,0
							c0,0,0,0,0,0c0,0,0,0,0,0c0,0,0,0,0,0c0,0,0,0,0,0c0,0,0,0,0.1,0c0.1,0,0.3,0,0.4,0.1c0.3,0,0.5,0.1,0.8,0.1
							c0.6,0.1,1.2,0.1,1.7,0.1c1.2,0,2.4,0,3.6,0c0.6,0,1.2-0.1,1.8-0.1c0.3,0,0.6-0.1,0.9-0.1c0.1,0,0.3,0,0.4-0.1
							c0,0,0.1,0,0.1,0c0,0,0,0,0,0c0,0,0,0,0,0c0,0,0,0,0,0c0,0,0,0,0,0c0,0,0,0,0,0c0,0,0.1,0,0.1,0c2.3-0.3,4.6-0.8,6.9-1.5
							c0.5-0.2,1-0.4,1.6-0.6c0.1-0.1,0.3-0.1,0.4-0.2c0.1,0,0.1,0,0.2-0.1c0,0,0,0,0,0c0,0,0,0,0,0c0,0,0,0,0,0
							c0.2-0.1,0.5-0.2,0.7-0.3c0.9-0.4,1.8-0.9,2.6-1.4c0.2-0.1,0.4-0.3,0.6-0.4c0.1-0.1,0.1-0.1,0.2-0.2c0,0,0,0,0,0
							c0,0,0.1-0.1,0.1-0.1c0.2-0.1,0.3-0.3,0.4-0.4c0.1,0.4,0.2,0.8,0.4,1.3C118.4,96.1,118.5,96.3,118.6,96.5z"/>
					</g>
					<g>
						<path fill="#58725C" d="M86.5,101.4C86.6,101.4,86.6,101.4,86.5,101.4C86.5,101.4,86.5,101.4,86.5,101.4
							C86.5,101.4,86.5,101.4,86.5,101.4L86.5,101.4C86.5,101.4,86.5,101.4,86.5,101.4C86.5,101.4,86.5,101.4,86.5,101.4
							C86.5,101.4,86.5,101.4,86.5,101.4z"/>
						<path fill="#58725C" d="M120,99.9c-2.1,2-4.8,3.3-7.6,4.2c-4.7,1.5-9.9,1.8-14.8,1.5c-3.6-0.2-7.3-0.8-10.8-2.1v0
							c0-0.6,0-1.2,0-2c0.3,0.1,0.6,0.2,1,0.4c0.8,0.3,1.7,0.5,2.6,0.8c0.9,0.2,1.9,0.4,2.9,0.6c0.3,0,0.5,0.1,0.8,0.1
							c0.1,0,0.3,0,0.4,0.1c0,0,0,0,0,0c0,0,0,0,0,0c0,0,0,0,0,0c0,0,0,0,0,0c0,0,0,0,0,0c0,0,0,0,0,0c0,0,0,0,0,0c0,0,0,0,0,0
							c0,0,0.1,0,0.1,0c0.5,0.1,1,0.1,1.6,0.2c2.5,0.2,5,0.3,7.4,0.2c0.6,0,1.2-0.1,1.9-0.2c0.3,0,0.6-0.1,0.9-0.1c0,0,0,0,0,0
							c0,0,0,0,0,0c0,0,0,0,0,0c0,0,0,0,0,0c0,0,0,0,0,0c0,0,0,0,0,0c0,0,0,0,0,0c0,0,0,0,0,0c0,0,0,0,0,0c0,0,0,0,0,0c0,0,0,0,0,0
							c0.1,0,0.1,0,0.2,0c0.1,0,0.3,0,0.4-0.1c1.2-0.2,2.4-0.4,3.6-0.7c0.6-0.2,1.1-0.3,1.7-0.5c0.3-0.1,0.6-0.2,0.9-0.3
							c0.1,0,0.3-0.1,0.4-0.1c0.1,0,0.1-0.1,0.2-0.1c0,0,0,0,0,0c0,0,0,0,0,0c0,0,0,0,0,0c1-0.4,2-0.9,2.9-1.5
							c0.2-0.2,0.5-0.3,0.7-0.5c0.1-0.1,0.2-0.2,0.3-0.2c0,0,0,0,0,0c0,0,0,0,0,0c0,0,0,0,0,0c0,0,0.1-0.1,0.1-0.1
							c0.4-0.3,0.8-0.7,1.2-1.1c0.1-0.1,0.1-0.2,0.2-0.2C119.5,98.6,119.8,99.3,120,99.9z"/>
					</g>
				</g>
			</g>
			<g>
				<path fill="#EAE4DB" d="M80.5,52.9c-1.7,0.5-3.4,1-5.1,0.4l0.9,0.5c-3.5-0.8-9.4,1.8-8.4,6.2c-3.1,0.3-3.6,5.9,0.2,5.9
					C65,67.1,63.4,71.9,68,72c-4.3,1.4-1.7,8.1,1.3,5.5c-1.2,2.6,2.3,5.5,4.4,3c-0.1,2.7,5.5,4,6.9,1c3.3,2,5,0.2,4.2-2.9
					c-0.7-3.2-1.9-5.3-2-8.8C82.6,64.1,82.7,58.4,80.5,52.9z"/>
				<path fill="#EAE4DB" d="M103.6,43.3c1.8-2.2,3.4-0.5,3.4,1.8c1.9-3.4,8.8-2.7,6.3,1.8c1.8-3.2,6.8-3.4,4.3,0.8
					c2.5-2,9.3-1.8,5.9,3.2c3.4-1.8,5.2,1.4,2.7,4.5c4.1,1,2.2,8.5-1.9,6.6c1.2,5.8-2,6.9-5.3,6c-1.2,3.5-5.2,3.1-6.4-0.4
					c-0.7-2,0.3-5.6-0.4-8.2c-0.7-2.8-2.1-5.4-3.7-7.8C107,49.2,103.3,46.2,103.6,43.3L103.6,43.3z"/>
				<path fill="#EFC49B" d="M79.3,53.5C77.5,66.3,82.1,80.8,98,77c5.8-1.4,13.7-3.1,16.8-8.5c4.5-8-7.8-22.6-10-24.8
					c-2.9-2.8-5.4-1.8-9.2-0.9c-3.2,0.7-6.8,2.4-9.6,3.8c-1.5,0.8-9.6,6-6.8,6.5L79.3,53.5z"/>
				<g>
					<path fill="#F2EEE8" d="M87.4,52.7l-0.1,0.2c0,0,0,0,0,0C87.3,52.9,87.3,52.8,87.4,52.7z"/>
					<path fill="#F2EEE8" d="M89.4,53.1c-1.9,3.5-9.1,6.2-3.3,6.3c1.8,0,3.6-2,3.9-3.7C90.3,54.5,89.9,53.3,89.4,53.1z"/>
				</g>
				<path fill="#F2EEE8" d="M105,51.2c0-2-4.1,0.3-8.4-1c-0.2,0.5,0.1,1.2,1.3,1.8C100.4,53.5,105.1,54.7,105,51.2z"/>
				<path fill="#D79670" d="M94.7,66.1c1.2-1.8,4.2-4,6.4-3.3C99.3,64.2,95.7,65.1,94.7,66.1L94.7,66.1z"/>
				<path fill="#58725C" d="M78.2,53.7c-2.1,0.4-4.3-0.4-6.4,0c-2.2,0.4-4.2,1.5-6.3,2.3c-3.9,1.6-7.4,0.8-10.9-1.4
					c0.4,0.7,1,1.4,1.5,2c-1.1-0.2-1.9-0.7-3.1-1c1.8,1.8,3.3,3.2,6.2,3.7c2.3,0.4,4.3,0.1,6.4-0.8c4-1.8,8.3-5,13-3.6
					c-0.3-0.1-0.6-0.2-0.9-0.3L78.2,53.7z"/>
				<path fill="#D79670" d="M91.2,70.3c-0.2,0.4-0.3,0.9-0.4,1.3c-0.1,0.5-0.2,0.9-0.3,1.4v0L90.4,73c1.2-0.7,2.4-1.2,3.7-1.6
					c0.6-0.2,1.3-0.4,2-0.6l2-0.5c0.7-0.2,1.3-0.3,1.9-0.6c0.3-0.1,0.6-0.2,1-0.3c0.2-0.1,0.3-0.1,0.5-0.2c0.2-0.1,0.3-0.1,0.5-0.2
					c0.3-0.1,0.6-0.3,0.9-0.4c0.3-0.1,0.6-0.3,0.9-0.4c0.1-0.1,0.3-0.2,0.4-0.2c0.1-0.1,0.3-0.2,0.4-0.2c0.3-0.2,0.6-0.3,0.9-0.5
					l0.1,0.2c-1,0.9-2.2,1.6-3.5,2.2c-0.2,0.1-0.3,0.1-0.5,0.2c-0.2,0.1-0.3,0.1-0.5,0.2c-0.3,0.1-0.6,0.2-1,0.3
					c-0.7,0.2-1.3,0.4-2,0.5c-0.7,0.2-1.3,0.3-2,0.5c-0.7,0.2-1.3,0.3-2,0.5c-0.6,0.2-1.3,0.4-1.9,0.6c-0.6,0.2-1.3,0.5-1.9,0.8
					l-0.2,0.1l0-0.2l0,0c0.1-0.5,0.2-0.9,0.3-1.4c0.1-0.2,0.1-0.5,0.2-0.7c0.1-0.2,0.2-0.5,0.3-0.7L91.2,70.3z"/>
				<g>
					<circle fill="#3F332C" cx="90.5" cy="60.4" r="0.9"/>
					<circle fill="#3F332C" cx="101.5" cy="57" r="0.9"/>
				</g>
				<path fill="#FFFFFF" d="M103.8,57.6c-1.8,0.4-3,2-3,3.7c-0.6,0-2.5,0.2-3.1,0.4c-1.5,0.4-2.8,1.1-3.8,1.9
					c-0.9-1.2-2.4-1.8-4-1.4c-2.1,0.5-3.4,2.6-2.9,4.7c0.5,2.1,2.6,3.4,4.7,2.9c2.1-0.5,3.4-2.6,2.9-4.7c-0.1-0.4-0.2-0.7-0.4-1
					c0.9-0.8,2.2-1.4,3.7-1.8c0.5-0.1,2.4-0.3,3-0.4c0,0.1,0,0.3,0.1,0.4c0.5,2.1,2.6,3.4,4.7,2.9c2.1-0.5,3.4-2.6,2.9-4.7
					C108,58.4,105.9,57.1,103.8,57.6z M91.6,69.2c-1.8,0.4-3.7-0.7-4.1-2.5c-0.4-1.8,0.7-3.7,2.5-4.1c1.8-0.4,3.7,0.7,4.1,2.5
					C94.6,67,93.5,68.8,91.6,69.2z M105.5,64.7c-1.8,0.4-3.7-0.7-4.1-2.5c-0.4-1.8,0.7-3.7,2.5-4.1c1.8-0.4,3.7,0.7,4.1,2.5
					C108.5,62.4,107.3,64.2,105.5,64.7z"/>
				<g>
					<path fill="#FFFFFF" d="M103.7,21.3c0,0,0.7,11.4,1.4,18.3c0.2,1.8,0.4,3.4,0.6,4.2c0,0-13.2,0.9-21.7,7.8
						c-1.3,1.1-5.6,4-5.6,4s-0.7-0.3-1.8-0.8c-3.3-1.4-10.4-4.3-13.1-5.1c2.8-13.5,14.5-20.9,25.2-25.2
						C96.4,21.6,103.7,21.3,103.7,21.3z"/>
					<path fill="#58725C" d="M105,39.5c0.2,1.8,0.6,3.6,0.2,4.7c0,0-11.5,0.1-21.4,7.4c-1.4,1-5.1,4.4-5.1,4.4s-1.2-0.7-2.3-1.2
						l0.3-0.4C81.5,45.3,95,39.6,105,39.5z"/>
				</g>
				<path fill="#58725C" d="M79.3,55.4c0-0.4-0.1-0.8-0.1-1.2c-4.7-0.1-7.8,4.4-11.5,7.1c-2,1.5-4.2,2.3-6.7,2.2
					c-2.9-0.1-4.6-2.2-7-3c0.4,1.3,1.2,2.5,2.3,3.3c-1.4,0-2.8,0-4.2,0c4.6,3.4,10.8,4.6,16.4,2.5c3-1.2,4.4-3.4,5.9-6
					C75.4,58.4,77,55.7,79.3,55.4z"/>
				<g>
					<path fill="#EFC49B" d="M111,51.2c4.8-6.4,11.1,4.4,3.7,7.2c-0.1,0-0.7-2.7-1.4-4C112.7,53.5,111,51.2,111,51.2z"/>
					<path fill="#D79670" d="M114.4,56.3c1.2-0.4,2.1-3.3,0.9-4.5c-1.7-1.6-3.1,0.3-2.4,1.4c0.7,1.2,1.3,0.2,1.8,0.7
						c0.4,0.3,0.1,1.1-0.6,1.1C113.3,55.9,114.4,56.3,114.4,56.3z"/>
				</g>
				<g>
					<path fill="#EFC49B" d="M78.7,62.7c-7.8-1.6-5.4,10.7,2,7.9c0-0.1-1.2-2.5-1.6-3.9C78.9,65.6,78.7,62.7,78.7,62.7z"/>
					<path fill="#D79670" d="M79.5,68.8c-1.1,0.5-3.8-1.1-3.6-2.8c0.3-2.3,2.5-1.8,2.8-0.6c0.3,1.4-0.8,1-0.9,1.7
						c-0.1,0.5,0.6,0.9,1.2,0.4C80.1,67.8,79.5,68.8,79.5,68.8z"/>
				</g>
				<path fill="#F2EFE9" d="M80.1,67.4c-0.5,8.4,3.5,20,12.8,21.3c7.2,1,16-1.2,21.8-5.7c8.5-6.8,7.6-21.8-1.5-27.4
					c1.6,4.7,2.2,9.5-1.8,13.1c-3.1,2.7-6.4,5-10.4,6C83.4,79.3,80.1,67.4,80.1,67.4z"/>
				<g>
					<path fill="#FFFFFF" d="M79.7,69.9c0.1,4.2,0.9,8.9,3.8,12.2c0.4,0.5,1.1-0.2,0.7-0.6c-1.3-1.5-2.2-3.4-2.7-5.4
						c-0.5-2-0.8-4.1-0.8-6.2C80.6,69.4,79.7,69.3,79.7,69.9L79.7,69.9z"/>
				</g>
				<g>
					<path fill="#FFFFFF" d="M54.5,72.5c-1.7,0.6-1-3.4,0.9-2.1c-0.8-1.5,1.8-1.2,1.3-0.1l0.1-0.2c-0.2-1.5,3.8-0.6,1.5,1.3
						c1.4,0.2,0.2,2.2-0.8,1.2c0.2,1.2,0.3,2.4-1.4,2.2C55.1,74.7,53.1,73.5,54.5,72.5z"/>
					<path fill="#FFFFFF" d="M52.4,79.2c-2.6-0.1,0.2-2.5,0.7-1.9c0.7-0.7,2-0.5,1.7,0.7c2.6-1.3,2,3,0.2,1.5
						c1.8,1.5-2.2,2.9-1.6,0.9C52.6,82.1,50.5,79,52.4,79.2z"/>
					<path fill="#FFFFFF" d="M59.6,82.2c-2.5,0-0.4-2.5,0.9-2.6l-0.1-0.3c-1-1.7,0.2-3.1,1.8-1.8c-0.1-1.9,2.8-1.3,2.4,0.8
						c0.7-1.7,4-1,2.8,0.3c1.6-0.6,1.6,1.9,0.1,2.1c1,0.2,0.8,1.6,0.8,1.6c-2,0.8-4.1,1.7-5.9,2.2c-0.3-0.2-0.5-0.5-0.5-0.9
						C61.4,85.8,56.9,83.3,59.6,82.2z"/>
					<path fill="#403C35" d="M86.4,80.8c-2.2,5.2-6,9.5-11.4,11c-4.6,1.2-8.5,2-11.6-4.2c-1.6-3.4-1.2-3.4-1.2-3.4
						c2.2-1.1,7.8-3.9,10-5c1.4,1.3,2.2,2.8,3.6,4.1c2.7-0.4,4.2-1.2,5.8-2.4c2.1-1.6,2.5-4.2,4.2-6.3c1.9-2.5,8.2-7,11.3-3.7
						c-0.9,0.2-1.3,0.2-2,0.3C95,71.2,91.5,69.1,86.4,80.8z"/>
					<path fill="#66635D" d="M62.3,85.1C62.3,85.1,62.3,85.1,62.3,85.1c-0.1-0.4-0.2-0.7-0.3-1c0.3-0.1,0.6-0.2,0.8-0.3
						c1.3-0.5,2.3-1,3.6-1.8c1.2-0.7,2.4-1.5,3.6-2.3c0.5-0.4,1-0.8,1.5-1.2c0,0,0.1-0.1,0.1-0.1c0,0,0.1,0.1,0.1,0.1
						c0.2,0.2,0.3,0.4,0.5,0.6c0.2,0.3,0.5,0.6,0.7,0.9c-1.7,1.4-3.5,2.6-5.4,3.7c-1.6,0.9-3.2,1.7-4.9,2.3
						C62.6,85.8,62.5,85.4,62.3,85.1z"/>
				</g>
				<g>
					<path fill="#FFFFFF" d="M114.7,58.2c0.9,0.7,1.5,1.6,2,2.5c0.6,1,1,2.1,1.4,3.1c0.1,0.2,0.3,0.4,0.6,0.4
						c0.2-0.1,0.4-0.3,0.4-0.6c-0.8-2.3-1.9-4.7-3.9-6.2c-0.2-0.2-0.5,0-0.6,0.2C114.4,57.8,114.5,58,114.7,58.2L114.7,58.2z"/>
				</g>
				<g>
					<path fill="#FCFCFB" d="M101.6,75.6c1.6-0.4,3.1-1,4.6-1.7c0.6-0.2,0.1-1.1-0.4-0.8c-1.4,0.6-2.8,1.2-4.3,1.6
						C100.8,74.8,101,75.7,101.6,75.6L101.6,75.6z"/>
				</g>
				<g>
					<path fill="#FFFFFF" d="M89.1,54.7c0,1.1-0.6,2.2-1.5,2.9c-0.2,0.1-0.3,0.4-0.2,0.6c0.1,0.2,0.4,0.3,0.6,0.2
						c1.2-0.9,2-2.2,2-3.6C90.1,54.1,89.1,54.1,89.1,54.7L89.1,54.7z"/>
				</g>
				<g>
					<path fill="#FFFFFF" d="M96.6,51.1c0.6,0.3,1.2,0.6,1.9,0.8c0.8,0.3,1.8,0.5,2.7,0.3c0.6-0.1,0.4-1-0.2-0.9
						c-0.7,0.2-1.6-0.1-2.3-0.3c-0.6-0.2-1.1-0.4-1.6-0.6C96.6,50,96.1,50.8,96.6,51.1L96.6,51.1z"/>
				</g>
			</g>
			<g>
				<path fill="#EFC49B" d="M121.1,143.4c-1.4,6.2-4.4,11.8-11.7,12.9c-2.1,0.3-2.8-0.5-4.5-1.5c-1.4-0.9-3.6-1.5-4.7-2.7
					c-0.9-1-1.5-3.2,0-4.1c1.4-0.8,3.3-0.3,4.7-1.6c1.1-0.9,2-1.8,2.8-2.7c0.5-0.5,0.9-1.1,1.3-1.7c0.5-0.8,1-1.7,1.3-2.7
					c0.5-1.6,1-4.4,1.8-5.8c0-0.1,0.1-0.1,0.1-0.2c0.6-1.1,0.6-2.6,1.3-3.6c-0.2-0.1-0.3-0.3-0.3-0.5c1.1-0.3,2.5-0.4,3.6-0.5
					c-0.3,1.6-0.9,3-0.9,4.3c-0.1,1.2,0.2,2.5,1.5,3.9c0.1,0.1,0.2,0.2,0.3,0.3c0.2,0.2,0.5,0.4,0.8,0.6c0.9,0.5,2,0.9,2.5,1.8
					C121.9,140.8,121.4,142.1,121.1,143.4z"/>
				<path fill="#58725C" d="M112.3,144.4c-1,0.2-3.3,0.3-4.1-0.3c-0.2-0.1-0.3-0.3-0.4-0.4c1.2-1.3,2.1-2.6,2.6-4.4
					c0.5-1.6,1-6.2,1-6.2c1.1,0,4.2,0,5.3-0.2c-0.1,1.2-0.4,2.6,0.8,4c0.1,0.1,1.6,1.1,1.7,1.2c0.3,0.8-0.8,0.8-0.5,1.7
					C119.3,142.1,114.8,144,112.3,144.4z"/>
				<path fill="#EFC49B" d="M96.5,135.4c0,0.6,0,1.2,0,1.8c0,0.7-0.1,1.3-0.2,1.9c1.6-0.3,3.2-0.6,4.8-0.8c0.5-0.1,1-0.2,1.6-0.2
					c-0.6-0.7-1.1-1.6-1.6-2.8c-0.1-0.2-0.2-0.4-0.2-0.6c-0.8-2.2-1.3-4.3-1.5-6.7c-1,0-3.5-0.3-3.7,0.3h0.2
					C95.8,130.5,96.3,133,96.5,135.4z"/>
				<path fill="#58725C" d="M108.6,143.3c-1.3,2.4-2.5,5.6-6.2,4.8c-1.6-0.4-3.5-2.3-4.5-3.5c-1-1.2-1.3-2.2-3-2.2
					c0.2-0.3,0.3-0.6,0.5-0.9c0.7-1.4,1-4.1,0.2-6.2c1.3-0.2,5.4-1.1,6.4-1.3c0.1,0.2,1.4,5,3.6,6.9
					C106.6,141.8,107.6,142.6,108.6,143.3z"/>
				<path fill="#231F20" d="M120.5,150.1c-0.6,6.8-8.2,8.1-13.8,6.4c-4.3-1.3-14.5-6.3-13-11.9c0.3-1,1-2,1.6-3
					c0.1-0.1,0.1-0.2,0.2-0.3c2.3,0.4,5.5,4.1,6.8,4.8c2.8,1.5,6.7,0.8,6.5-2.9c1.4,0.8,3,1.4,4.8,1.9
					C116.4,146.1,120.8,146.3,120.5,150.1z"/>
				<path fill="#373531" d="M121.1,143.4c-1.4,6.2-3.4,11.7-10.7,12.7c-2.1,0.3-3.8-0.4-5.5-1.4c-1.4-0.9-3.6-1.5-4.7-2.7
					c-0.9-1-1.5-3.2,0-4.1c1.4-0.8,3.3-0.3,4.7-1.6c1.1-0.9,2-1.8,2.8-2.7c0.5-0.5,0.6-1.2,1-1.8c0.5,0.5,1.6,1.1,2,1.3
					c6.1,3.6,7.7-5.6,7.9-5.6c0.9,0.5,2.2,0.8,2.7,1.7C122.1,140.5,121.4,142.1,121.1,143.4z"/>
				<path fill="#705A4E" d="M104.7,104.6c-1.1-1.8-6.6-2.7-9.2-1.3c-3.2,1.7-6.4,8.8-7,11c-0.6,2.2-2.7,11.6-3.9,13.9
					c2.9,0.2,5.8,1,8.8,1.2c2.8,0.3,6.8-0.7,9.4,0.2c-2.8-4.6-1-10.7,0.3-15.4C103.8,111.6,106.3,107.2,104.7,104.6z"/>
				<path fill="#705A4E" d="M123,120.7c-0.8-2.9-0.8-6-1.8-8.8c-3.9-11.9-11.8-12.1-14.5-7.2c-2.1,3.8-0.1,17.1-0.5,21
					c-0.2,1.8-0.7,5.4-0.7,5.4s4.1,0.2,5.5,0.2c4-0.1,7.6-0.5,11.5-1.6c1.4-0.4,2.8-0.8,4.1-1.5C124.1,127,123.5,122.9,123,120.7z"
					/>
				<path fill="#4F4C4D" d="M101.1,147.6c0.2-0.2,0.4-0.4,0.6-0.5c0.2-0.2,0.5-0.3,0.8-0.3c0.3-0.1,0.6-0.1,0.9-0.1
					c0.3,0,0.6,0.1,0.9,0.2c0.3,0.1,0.5,0.3,0.8,0.4c0.2,0.2,0.4,0.3,0.6,0.5c0.4,0.4,0.7,0.7,1,1.1c0.6,0.8,1.1,1.6,1.6,2.4
					c0.2,0.4,0.5,0.8,0.7,1.2c0.3,0.4,0.5,0.8,0.9,1.1c-0.2-0.1-0.5-0.2-0.7-0.3c-0.2-0.1-0.4-0.3-0.6-0.5c-0.4-0.3-0.7-0.7-1.1-1
					c-0.7-0.7-1.3-1.5-1.9-2.1c-0.3-0.3-0.6-0.7-1-0.9c-0.3-0.3-0.7-0.5-1-0.7c-0.3-0.2-0.7-0.3-1.1-0.4c-0.2,0-0.4,0-0.7,0
					c-0.2,0-0.5,0-0.8,0L101.1,147.6z"/>
				<g>
					<path fill="#54443B" d="M98,105.6c-1.8,0.6-4,2.9-4.9,4.2c1.8,0.9,3.6,2.1,5.1,3.2c1.1-1.7,2.7-2.9,4-4.4
						C101.7,108,99.3,105.6,98,105.6z"/>
					<g>
						<g>
							<path fill="#8D7B71" d="M93.7,109.7c-0.3,0.2-0.5,0.4-0.6,0.7c-0.1,0.2,0.2,0.3,0.3,0.2c0.1-0.2,0.3-0.4,0.5-0.5
								C94,109.9,93.9,109.6,93.7,109.7L93.7,109.7z"/>
						</g>
						<g>
							<path fill="#8D7B71" d="M94.2,110.1c-0.2,0.2-0.3,0.4-0.5,0.6c-0.1,0.1,0.1,0.4,0.2,0.2c0.2-0.2,0.4-0.5,0.5-0.7
								C94.6,110,94.3,109.9,94.2,110.1L94.2,110.1z"/>
						</g>
						<g>
							<path fill="#8D7B71" d="M95.3,110.5c-0.2,0.2-0.4,0.4-0.6,0.6c-0.1,0.2,0.2,0.3,0.3,0.2c0.1-0.2,0.3-0.4,0.5-0.5
								C95.6,110.6,95.5,110.4,95.3,110.5L95.3,110.5z"/>
						</g>
						<g>
							<path fill="#8D7B71" d="M95.8,110.9c-0.2,0.3-0.4,0.5-0.7,0.7c-0.1,0.2,0.2,0.3,0.3,0.2c0.2-0.3,0.4-0.5,0.7-0.7
								C96.2,110.9,95.9,110.8,95.8,110.9L95.8,110.9z"/>
						</g>
						<g>
							<path fill="#8D7B71" d="M96.5,111.4c-0.2,0.3-0.4,0.6-0.6,1c-0.1,0.2,0.2,0.3,0.3,0.1c0.1-0.3,0.3-0.6,0.6-0.9
								C96.9,111.4,96.7,111.2,96.5,111.4L96.5,111.4z"/>
						</g>
						<g>
							<path fill="#8D7B71" d="M97.2,111.9c-0.2,0.4-0.4,0.7-0.6,1c-0.1,0.2,0.1,0.4,0.2,0.2c0.3-0.3,0.5-0.7,0.7-1.1
								C97.6,111.8,97.3,111.7,97.2,111.9L97.2,111.9z"/>
						</g>
						<g>
							<path fill="#8D7B71" d="M97.9,112.4c-0.1,0.2-0.3,0.5-0.4,0.7c-0.1,0.2,0.2,0.3,0.3,0.2c0.2-0.2,0.3-0.4,0.4-0.7
								C98.3,112.4,98,112.2,97.9,112.4L97.9,112.4z"/>
						</g>
						<g>
							<path fill="#8D7B71" d="M98.5,112c0.2,0.1,0.5,0.3,0.7,0.4c0.2,0.1,0.4-0.1,0.2-0.2c-0.2-0.2-0.5-0.3-0.8-0.5
								C98.5,111.6,98.3,111.9,98.5,112L98.5,112z"/>
						</g>
						<g>
							<path fill="#8D7B71" d="M99.4,111.3c0.2,0.2,0.4,0.4,0.7,0.5c0.2,0.1,0.3-0.2,0.1-0.3c-0.2-0.1-0.4-0.2-0.5-0.3
								C99.5,111,99.3,111.1,99.4,111.3L99.4,111.3z"/>
						</g>
						<g>
							<path fill="#8D7B71" d="M99.9,110.7c0.2,0.1,0.4,0.3,0.7,0.4c0.2,0.1,0.3-0.2,0.2-0.3c-0.2-0.1-0.4-0.3-0.7-0.4
								C99.9,110.3,99.8,110.6,99.9,110.7L99.9,110.7z"/>
						</g>
						<g>
							<path fill="#8D7B71" d="M100.6,109.9c0.2,0.2,0.3,0.3,0.5,0.4c0.2,0.1,0.3-0.2,0.2-0.3c-0.2-0.1-0.3-0.2-0.5-0.4
								C100.7,109.6,100.5,109.8,100.6,109.9L100.6,109.9z"/>
						</g>
						<g>
							<path fill="#8D7B71" d="M101.2,109.3c0.2,0.3,0.5,0.4,0.8,0.5c0.2,0,0.3-0.2,0.1-0.3c-0.2-0.1-0.5-0.1-0.6-0.3
								C101.4,109,101.1,109.1,101.2,109.3L101.2,109.3z"/>
						</g>
						<g>
							<path fill="#8D7B71" d="M99.2,105.8c-0.2,0.2-0.3,0.4-0.3,0.6c-0.1,0.2,0.2,0.3,0.3,0.1c0.1-0.2,0.1-0.3,0.2-0.5
								C99.6,105.9,99.3,105.7,99.2,105.8L99.2,105.8z"/>
						</g>
						<g>
							<path fill="#8D7B71" d="M99.9,106.4c-0.1,0.2-0.2,0.4-0.3,0.6c-0.1,0.2,0.2,0.3,0.3,0.2c0.1-0.2,0.3-0.4,0.4-0.6
								C100.3,106.3,100,106.2,99.9,106.4L99.9,106.4z"/>
						</g>
						<g>
							<path fill="#8D7B71" d="M101.3,107.3c-0.2,0.1-0.4,0.2-0.6,0.3c-0.2,0.1-0.1,0.4,0.1,0.3c0.3-0.1,0.5-0.2,0.7-0.3
								C101.6,107.5,101.4,107.2,101.3,107.3L101.3,107.3z"/>
						</g>
						<g>
							<path fill="#8D7B71" d="M95.2,107c0.2,0.1,0.4,0.3,0.6,0.5c0.2,0.1,0.3-0.1,0.2-0.3c-0.2-0.1-0.4-0.3-0.6-0.5
								C95.2,106.6,95,106.9,95.2,107L95.2,107z"/>
						</g>
						<g>
							<path fill="#8D7B71" d="M94.3,107.6c0.2,0.1,0.5,0.2,0.7,0.3c0.2,0.1,0.3-0.2,0.2-0.3c-0.2-0.1-0.5-0.3-0.8-0.3
								C94.2,107.3,94.1,107.5,94.3,107.6L94.3,107.6z"/>
						</g>
						<g>
							<path fill="#8D7B71" d="M93.6,108.3c0.3,0.1,0.5,0.2,0.7,0.4c0.2,0.1,0.4-0.1,0.2-0.2c-0.2-0.2-0.5-0.4-0.9-0.4
								C93.5,108,93.4,108.3,93.6,108.3L93.6,108.3z"/>
						</g>
					</g>
				</g>
				<g>
					<path fill="#BCA497" d="M102.4,129c-3.1-0.2-6.1,0.4-9.2,0.1c-0.8-0.1-1.7-0.3-2.5-0.5c-0.9-0.2-1.8-0.3-2.6-0.4
						c-1.1-0.2-2.1-0.3-3.3-0.4c-0.1,0.2-0.3,0.5-0.4,0.7c0,0,0,0.1-0.1,0.1c1.2,0.1,2.4,0.3,3.5,0.5c0.8,0.1,1.7,0.3,2.5,0.4
						c0.9,0.2,1.8,0.4,2.7,0.5c3.1,0.4,6.6-0.2,9.8,0C102.9,129.9,102.4,129.1,102.4,129z"/>
				</g>
				<g>
					<path fill="#BCA497" d="M126.1,127.8c-2.8,0.9-5.6,1.5-8.5,1.9c-3.6,0.5-7.4,0.6-11,0.7c-0.4,0-0.7,0-1.1,0
						c-0.1,0.3-0.1,0.6-0.2,0.9c7.9,0.1,14.9-0.5,21.8-2.9C127.2,128.4,126.2,127.9,126.1,127.8z"/>
				</g>
				<g>
					<path fill="#AFAEAD" d="M100.7,148.2c0.6-0.3,1.4-0.2,2,0.1c0.5,0.2,1-0.5,0.5-0.7c-0.9-0.4-2-0.6-3-0.1
						C99.7,147.7,100.2,148.4,100.7,148.2L100.7,148.2z"/>
				</g>
				<g>
					<path fill="#AFAEAD" d="M104.6,149.2c0.3,0.3,0.6,0.6,0.8,0.9c0.1,0.2,0.4,0,0.3-0.2c-0.2-0.4-0.5-0.7-0.9-1
						C104.7,148.8,104.5,149.1,104.6,149.2L104.6,149.2z"/>
				</g>
				<g>
					<path fill="#AFAEAD" d="M113.1,144.2c1.1,0.1,2.1-0.2,2.9-0.9c0.1-0.1-0.1-0.3-0.2-0.2c-0.7,0.6-1.7,0.9-2.7,0.8
						C113,143.9,113,144.2,113.1,144.2L113.1,144.2z"/>
				</g>
			</g>
		</g>
		<g>
			<path fill="#DAD3C3" d="M173.3,142.5c3.6,4,7.4,10.1,3,14.9c-3.6,3.9-12.7,1.4-17.3,0.9c-2-0.2-15.8,0.7-15.8,0.7
				s-5.5-12.8-3.9-16.9C139.3,142.2,158.8,126.4,173.3,142.5z"/>
			<g>
				<g>
					<path fill="#FFFFFF" d="M175.2,144.6c-5-6.1-8.4-7.1-8.4-7.1c-2.7,1-5.7,2.2-6.9,5.2c-1,2.6-0.8,6.3-0.5,9.1
						c0.2,1.5,0.5,5.8-1.2,5.7c-1.1-0.1-6.6-2-6.7,1.6c-0.1,1.5,7.8-0.1,13.2,3.2c0.2-0.8,0.7-1.5,1.4-1.9c0.8-0.5,1.7-0.4,2.5,0
						c0.2,0.1,0.3,0.2,0.4,0.4c0.1-0.1,0.2-0.1,0.2-0.2c1.2-0.8,2.4-1,3.8-1.4C180.5,157.4,179,149.2,175.2,144.6z"/>
				</g>
			</g>
			<g>
				<g>
					<path fill="#231F20" d="M173,142.1c0,0-1.2,0.4-1.9,0.8c-5.3,3.4,0.8,15,5,12.6c2.6-1.5,2.5-2.1,2.2-4.1
						C177.5,145.8,173,142.1,173,142.1z"/>
				</g>
			</g>
			<g>
				<g>
					<path fill="#DAD3C3" d="M178.4,153c2.1,2.1,1.4,6.2-0.8,8c-1.9,1.5-5.9,2-8.2,1.2c-2.7-0.9-5.3-2.5-6.2-5.4
						c-1.2-4,3.2-4.6,5.2-1.8c1.4,1.9,3.6,3.9,6.5,3.1C177.2,157.5,177.7,155.4,178.4,153z"/>
				</g>
			</g>
			<g>
				<g>
					<g>
						<path fill="#DAD3C3" d="M140.3,142.2c-0.9-1.2-2.7-2.3-3.8-3.4c-1.2-1.1-1.9-2.5-2.7-3.8c-1.3-2.1-1.9-1.2-1.6,0.9
							c0.1,1-0.3,3.7,0.6,3.7c-0.5,1.2-1.2,1.6-0.7,3c0.4,1.2,0.9,1.7,2.1,1.2C136.2,143,140.3,142.2,140.3,142.2z"/>
					</g>
				</g>
				<path fill="#EAB3A0" d="M137.5,142.4c0-0.2-0.4-0.4-0.6-0.5c-0.3-0.3-0.6-0.7-0.9-1.1c-0.4-0.6-0.7-1.2-1.1-1.9
					c-0.3-0.5-0.5-1-0.7-1.5c-0.4-0.7-0.7-0.5-0.8,0.2c0,0.5,0,1,0,1.5c0,0.6-0.2,0.8-0.2,1.4c0,2.6,2.8,2.9,3.4,2.5
					c0.3-0.2,1-0.5,1-0.8L137.5,142.4z"/>
				<g>
					<g>
						<path fill="#FFFFFF" d="M136.4,142.6c-1.5-1.4-3.3-5.4-2.6-7.6c0.7,0.7,1,1.7,1.7,2.5c0.8,0.9,5.9,5.3,5.9,5.3
							S137.1,142.7,136.4,142.6L136.4,142.6z"/>
					</g>
				</g>
				<g>
					<g>
						<path fill="#FFFFFF" d="M148.9,153.7c0.5-3-1.6-7.7-1.6-7.7c-1.3-2.6-2.2-3.5-4.9-4.4c-2.8-0.9-5.8-0.1-8.4,1.3
							c-2,1.1-3.6,6.5-6.8,8.4c-2.2,1.3-3.7,3.7-3.7,3.7s-0.9,3.5,3.4,5.6c2.5,1.2,5.1,0.7,7.7,0.5
							C139.7,160.8,147.5,161.1,148.9,153.7z"/>
					</g>
				</g>
				<g>
					<g>
						<path fill="#FFFFFF" d="M145.6,144c2.7,0.7,5.4-0.2,7.1-1.3c1-0.7,1.9-1.5,3.2-1.6c2.1-0.2,2.4,0.7,1.3,2.1
							c-1.5,2-1.7,4.1-3.3,6.1c-0.7,0.9-2.6,2.4-3.7,2.8c-0.7,0.2-1.3-0.2-1.9-0.1c-0.5,0.1-0.8,0.6-1.5,0.7c-2.4,0.4-3-3.4-2.9-4.8
							C144,146.7,144.6,143.7,145.6,144z"/>
					</g>
				</g>
				<g>
					<path fill="#EAB3A0" d="M155.2,143c-0.2-0.2-2.8,1.9-4.1,2.5c-1.3,0.6-3.6,1-4.9,0.5c-0.1,0.2-0.2,0.3,0,0.5
						c0.4,0.8,1.6,0,2.1,0.4c0.4,0.3,0.6,1.1-0.3,1.9c-0.4,0.4-1.6,0.8-1,1.4c0.2,0.2,1.5,0.2,2.4-0.2
						C153.7,148.5,156.6,144.5,155.2,143z"/>
				</g>
				<g>
					<g>
						<path fill="#231F20" d="M141.4,153.3c0.3-2.5-1.5-5.9-4.4-5.3c-4.9,1-6.2,2.6-7.1,4.5c-1.7,3.5,1.6,4.6,4.5,5.1
							C137.5,158.1,141,157,141.4,153.3z"/>
					</g>
				</g>
				<path fill="#C2B59B" d="M132,153.9c0.9-1,4,0.7,4.3-0.8c0.6-3-3.8-2.9-4.2,0.1C132,153.3,132,153.9,132,153.9z"/>
				<g>
					<g>
						<path fill="#403125" d="M125.8,155.8c0.5,0.5,0.1,1.4-0.6,1.1c-0.5-0.2-0.3-0.4-0.7-0.5c-0.6-0.1-0.4,1.3-0.3,1.9
							c-0.9-0.4-1.5-3-0.7-3.6C123.7,154.5,124.9,154.8,125.8,155.8z"/>
					</g>
				</g>
				<path fill="#594432" d="M127,160.7c1.1,0.3,1.2-1.1,0.9-0.5C127.6,160.7,127,160.7,127,160.7z"/>
				
					<ellipse transform="matrix(0.1287 0.9917 -0.9917 0.1287 265.6665 12.437)" fill="#393722" cx="125.8" cy="157.4" rx="0.1" ry="0.1"/>
				
					<ellipse transform="matrix(0.1294 0.9916 -0.9916 0.1294 266.744 12.9328)" fill="#393722" cx="126" cy="158.4" rx="0.1" ry="0.1"/>
				
					<ellipse transform="matrix(0.1283 0.9917 -0.9917 0.1283 266.1985 13.4219)" fill="#393722" cx="125.5" cy="158.1" rx="0.1" ry="0.1"/>
				
					<ellipse transform="matrix(0.1289 0.9917 -0.9917 0.1289 267.7327 11.9812)" fill="#393722" cx="127" cy="158.4" rx="0.1" ry="0.1"/>
				
					<ellipse transform="matrix(0.1287 0.9917 -0.9917 0.1287 268.2751 13.1705)" fill="#393722" cx="126.6" cy="159.3" rx="0.1" ry="0.1"/>
				
					<ellipse transform="matrix(0.1287 0.9917 -0.9917 0.1287 267.4206 13.9846)" fill="#393722" cx="125.8" cy="159.2" rx="0.1" ry="0.1"/>
				
					<ellipse transform="matrix(0.1285 0.9917 -0.9917 0.1285 269.1242 12.6351)" fill="#393722" cx="127.4" cy="159.4" rx="0.1" ry="0.1"/>
				
					<ellipse transform="matrix(0.1285 0.9917 -0.9917 0.1285 268.2341 11.0289)" fill="#393722" cx="127.8" cy="158.1" rx="0.1" ry="0.1"/>
				<path fill="#D9D6D4" d="M124.3,155.3c-0.9-0.6-1.1,0.4-0.9,0.8c0.1,0.1,0.5-0.3,0.6-0.3c0.2-0.1,0.4,0.1,0.5-0.1
					C124.5,155.6,124.4,155.3,124.3,155.3z"/>
				<g>
					<path fill="#3D2D23" d="M136.4,153.3c-0.8,0.4-1.8,0.2-2.7,0.1c-0.5-0.1-1.3-0.4-1.7,0c-0.2,0.2-0.1,0.5-0.1,0.5
						c0.5-0.4,1.7-0.1,2.3-0.1C136.4,154.1,136.5,153.3,136.4,153.3L136.4,153.3z"/>
				</g>
			</g>
			<path fill="#231F20" d="M163.8,144.9c-1,1.6-3.1,2.2-4.6,1.5c-0.2-1.7,0.9-6.1,4.3-7.4C163.4,139,165.6,142.2,163.8,144.9z"/>
			<path fill="#DAD3C3" d="M138.5,158.4c1.6-0.7,3.8,0,6.3-0.6c2.3-0.5,3.5-2.2,3.5-2.2s3.9,4.4-4,5.4c-1.2,0.1-2.6,0.6-3.6,1.5
				c-1.1,0.9-0.9,1.9-2.6,1.9C134.3,164.3,135,159.9,138.5,158.4z"/>
		</g>
		<g>
			<g>
				<g>
					<path fill="#FFFFFF" d="M40.8,113.2c0,0.1,0.1,0.1,0.1,0.2c0,0,0,0,0,0c0.1,0.2,0.2,0.4,0.3,0.6c2.6,4.6,7.4,4.9,12,3.8
						c2.2-0.5,4.4-1.2,6.6-1.8c0,0,0,0,0,0c0.7-0.2,1.5-0.4,2.2-0.6l0,0c1.2-0.3,2.3-0.6,3.5-0.7c0.2,0,0.3-0.1,0.5-0.1
						c-0.4-1.2-0.5-2.3-0.5-3.3c0-1.3,0.3-2.4,0.7-3.7c0.2-0.8,0.5-1.6,0.8-2.5c0.5-1.6,2.3-8.6,0.8-9.2l-0.4-0.4l-0.2-0.2l-0.1-0.1
						c-0.1,0-0.1-0.1-0.2-0.1c-2.1-1-4.5-1.3-7-1.2c-1.7,0.1-3.4,0.4-5,0.8c-1.2,0.3-2.4,0.7-3.6,1.2l0,0c-3.3,1.4-6.2,3.3-8.3,5.4
						c0,0-0.1,0.1-0.1,0.1c-0.1,0.1-0.2,0.2-0.3,0.4c-0.3,0.4-0.6,0.7-0.9,1.1c-1.2,1.8-1.7,4-1.7,6.2C40,110.6,40.3,112,40.8,113.2
						z"/>
					<path fill="#262223" d="M75.4,115.6c1.5,1.5,1.4,4.1,1.5,6.1c0,1.9,2.3,6.8,0.6,7.2c-0.1-0.1-0.2-0.2-0.2-0.4
						c0.1,1.2-1.6,1.8-2.2,0c-1.7,0.4-1.5-5.1-1.9-6.5c-0.8-2.5-2.2-4.4-3.5-6.5c1.7,0.8,4.3,0.5,6-0.3c-0.3,0.1-0.5,0.2-0.8,0.3
						L75.4,115.6z"/>
					<path fill="#E3E2DE" d="M64.9,110.3c3.8,5.8,3.7,12.9,2.1,13.3c-0.1-0.1-0.2-0.2-0.2-0.4c0.1,1.2-1.6,1.8-2.2,0
						c-1.7,0.4-0.1-4.8-0.5-6.2c-0.8-2.5-7.5,1.2-6.3-4.2c1.2-5.4,6.1-7.4,6.1-7.4L64.9,110.3z"/>
					<path fill="#FFFFFF" d="M65.5,114.7c0.6,0.5,1.2,1,2,1.5c0.2,0.1,0.4,0.2,0.6,0.3c2.5,1.7,6.1,1.3,7.9,0.6
						c1.8-0.7,3.6-2.3,5.2-3.5c0.3-0.2,0.6-0.5,0.9-0.8c2.3-2,4.1-4.5,4.8-6.9c-1.5-0.2-3.4-0.1-4.7-1c-0.2-0.2-0.4-0.3-0.6-0.6
						c0,0,0,0,0,0c-0.7-0.8-1.1-2-1.8-2.7c0,0,0,0,0-0.1c0,0-0.1-0.1-0.1-0.1l0,0c-0.6-0.6-1.5-1.3-2.4-1.9
						c-1.7-1.1-3.7-1.9-5.3-1.9c-0.9-0.9-2.9-2.5-3.8-3.6l0,0c-0.1-0.1-0.2-0.3-0.3-0.4c-0.4,0.4-0.7,0.9-1,1.4
						c-1.2,2.1-1.7,5.1-2.3,7.7c0,0,0,0,0,0c-0.2,0.8-0.3,1.6-0.5,2.3l0,0c-0.1,0.2-0.1,0.4-0.2,0.6c-0.1,0.3-0.2,0.5-0.2,0.8
						C62.6,109.8,63.3,112.6,65.5,114.7z"/>
					<path fill="#262223" d="M41,112.6c-1.9,4.8,1.2,7,7.3,7c4.2,0,8.6-3.4,10.8-1.3c1,0.9,2,3.9,4.2,2.1c1.2-1,0.7-3.9-1.3-5.3
						c-3.3-2.4-6.9-0.8-12.2,0.8C42.7,118,42.2,114.4,41,112.6L41,112.6z"/>
					<path fill="#262223" d="M40.8,113.2c0,0.1,0.1,0.1,0.1,0.2c0,0,0,0,0,0c0.2,0.2,0.5,0.3,0.8,0.3c0.5,0.1,1,0,1.7-0.3
						c2.6-0.9,4.1-3.5,4.4-6.1c0.7-5-3.7-5.9-4.9-6c0,0-0.1,0.1-0.1,0.1c-0.1,0.1-0.2,0.2-0.3,0.4c-0.3,0.4-0.6,0.7-0.9,1.1
						c-1.2,1.8-1.7,4-1.7,6.2C40,110.6,40.3,112,40.8,113.2z"/>
					<path fill="#262223" d="M56.1,99.7c4.3-0.7,6-3.9,3.9-5.7c0,0,0,0-0.1-0.1c-1.7,0.1-3.4,0.4-5,0.8c-1.2,0.3-2.4,0.7-3.6,1.2
						l0,0C51.1,98.1,54.2,100,56.1,99.7z"/>
					<path fill="#262223" d="M66.1,107.6c0,0,0.1,0,0.1,0c0.3,0.1,0.7,0.1,1.1,0.1c0.1,0,0.1,0,0.2,0c4.5,0,10.6-3.3,9.7-8.2
						c-1.7-1.1-3.7-1.9-5.3-1.9c-0.9-0.9-3.2-2.9-4-3.9c-0.3,0.4-0.3,4.9-2.9,7.8c-0.3,0.3-0.9,2.9-0.9,3.6l0,0
						C64,106.3,64.4,107.3,66.1,107.6z"/>
					<path fill="#262223" d="M77.8,108.5c0.2,1.6,1.6,4.4,3.4,5.2c0.3-0.2,0.6-0.5,0.9-0.8c1.2-4.5,2.3-1.3,3.8-7
						c-1.9-0.6-4.2-1.2-4.3-1.4c0,0,0,0,0,0c-0.7-0.8-1.1-2-1.8-2.7C78.4,103.7,77.4,106,77.8,108.5z"/>
					<g>
						<path fill="#262223" d="M75.9,112.2c0.1,0,0.1,0,0.2-0.1L76,112c-0.5,0.3-1.1,0.2-1.6-0.1c-0.4-0.3-0.6-0.7-0.5-1.1l-0.1,0
							c-0.1,0.5,0.1,0.9,0.6,1.3C74.8,112.3,75.4,112.4,75.9,112.2z"/>
					</g>
					<g>
						<path fill="#262223" d="M69.6,109.1c0.2-0.1,0.3-0.2,0.4-0.5l-0.1,0c-0.1,0.3-0.2,0.4-0.4,0.4c-0.4,0-0.8-0.5-0.9-1.2l-0.1,0
							c0.1,0.8,0.7,1.3,1.1,1.3C69.5,109.2,69.5,109.2,69.6,109.1z"/>
					</g>
					<g>
						<g>
							<path fill="#7D7A7B" d="M73.3,114.2l0-0.1c-0.6,0.1-1.3,0-1.8-0.4c-0.5-0.4-0.8-1.1-0.8-1.8l0-0.2l-0.1,0.1
								c-0.9,0.8-1.8,0.4-2.3,0.1c-1-0.6-1.6-1.8-1.4-2.6l-0.1,0c-0.2,0.8,0.5,2.1,1.5,2.7c0.8,0.5,1.6,0.5,2.3,0
								c0,0.7,0.4,1.3,0.9,1.7C72,114.2,72.6,114.3,73.3,114.2z"/>
						</g>
					</g>
				</g>
				<path fill="#DAA086" d="M68.2,95.7c0.2,0.2,3.6,2.9,0.1,3.4C67.2,99.3,67.8,96.4,68.2,95.7z"/>
				<path fill="#DC8061" d="M70.3,111.4c0.1-0.1,0.2-0.2,0.3-0.2c0.2,0,0.3,0.1,0.4,0.2c0.2,0,0.4,0.1,0.5,0.4c0,0.2,0,0.3-0.2,0.4
					c-0.2-0.1-0.6-0.1-0.7,0.1c0,0,0,0,0,0c-0.1,0-0.1-0.1-0.2-0.1C70.6,111.8,70.5,111.5,70.3,111.4z"/>
				<path fill="#DAA086" d="M84.9,107.6c-0.1,0.3-2,4.2-3.3,1C81.2,107.6,84.2,107.4,84.9,107.6z"/>
				<g>
					<g>
						<path fill="#7D7A7B" d="M86.8,128.1L86.8,128.1c-1-3.2-1.9-5.4-3.1-7.3c-1.4-2.2-3.2-4-5.5-5.6c-0.2-0.1-0.3-0.2-0.5-0.3
							c-1.2-0.8-2.6-1.8-3.8-1.7l0,0c1.2-0.1,2.6,0.9,3.8,1.7c0.2,0.1,0.3,0.2,0.5,0.3C83.1,118.6,85.1,122.6,86.8,128.1z"/>
					</g>
					<g>
						<path fill="#7D7A7B" d="M83.4,128.4L83.4,128.4c-0.7-3.3-1.7-6.1-3-8.5c-1.7-3-3.8-5.1-6.3-6.2l0,0
							C79.7,116.3,82.3,123.1,83.4,128.4z"/>
					</g>
					<g>
						<path fill="#7D7A7B" d="M80,127.9L80,127.9c-0.3-2-0.9-5-2.1-7.9c-1.3-3.1-2.9-5.3-4.8-6.4l0,0c1.9,1.1,3.5,3.3,4.8,6.4
							C79.1,122.9,79.7,125.9,80,127.9z"/>
					</g>
					<g>
						<path fill="#7D7A7B" d="M67.3,109.5L67.3,109.5c-1.4-1.9-3.9-2.9-7.6-3c-2.4-0.1-5.2,0.2-8.4,0.9l0,0c3.3-0.7,6-1,8.4-0.9
							C63.4,106.6,66,107.6,67.3,109.5z"/>
					</g>
					<g>
						<path fill="#7D7A7B" d="M67.2,110.2L67.2,110.2c-1.6-1.5-4.1-2.1-7.5-1.9c-2.8,0.2-5.6,0.8-7.8,1.4l0,0c2.2-0.6,5-1.3,7.8-1.4
							C63,108.1,65.6,108.7,67.2,110.2z"/>
					</g>
					<g>
						<path fill="#7D7A7B" d="M67.8,111.3L67.8,111.3c-0.5-0.7-1.4-1-2.5-1.2c-0.9-0.1-2.1-0.1-3.4,0.1c-2.4,0.4-5,1.3-6.7,1.9
							c-0.5,0.2-0.8,0.3-1.2,0.4l0,0c0.3-0.1,0.7-0.2,1.2-0.4c1.7-0.6,4.3-1.5,6.7-1.9C64.8,109.8,66.8,110.1,67.8,111.3z"/>
					</g>
				</g>
			</g>
			<g>
				<path fill="#514E4F" d="M77.2,127.5c0.4,0.7,0.1,1.4-0.5,1.9c-0.2,0.2-0.5-0.2-0.3-0.3c0.4-0.3,0.7-0.8,0.4-1.3
					C76.7,127.6,77,127.3,77.2,127.5L77.2,127.5z"/>
			</g>
			<g>
				<path fill="#514E4F" d="M75.5,127c0.4,0.5,0,1.3-0.5,1.6c-0.2,0.2-0.5-0.2-0.3-0.3c0.3-0.2,0.7-0.7,0.4-1.1
					C75.1,127,75.4,126.8,75.5,127L75.5,127z"/>
			</g>
			<g>
				<path fill="#AAAAA7" d="M66.7,122.1c0.4,0.4,0.5,1,0.3,1.5c-0.2,0.6-0.8,0.8-1.4,0.7c-0.3,0-0.2-0.4,0.1-0.4
					c0.4,0.1,0.8-0.1,1-0.5c0.1-0.4,0-0.8-0.3-1.1C66.2,122.1,66.5,121.9,66.7,122.1L66.7,122.1z"/>
			</g>
			<g>
				<path fill="#AAAAA7" d="M65.1,122.1c0.2,0.5-0.1,1-0.6,1.2c-0.2,0.1-0.4-0.3-0.2-0.4c0.3-0.1,0.5-0.4,0.4-0.7
					C64.6,122,65,121.8,65.1,122.1L65.1,122.1z"/>
			</g>
		</g>
		<path fill="#EFC49B" d="M80.9,101.4c-1.8-9.1-12-3.5-8.7,1.3c1.5-2.6,1.4,0.2,2.7,0.5c1.1,0.2,2.3-2.2,2.3,0.9
			C79.4,105.7,80.9,101.4,80.9,101.4z"/>
		<g>
			<path fill="#58725C" d="M146,111.8c-2.4-1.6-5.4-1.4-7.4-3.9c-0.2-0.3-0.4-0.5-0.5-0.9c-1.6,0.5-3.2,1-4.8,1.5
				c-2.9,0.8-5.7,1.6-8.6,2.5c0.5,2.5,1.6,4.9,3.1,6.5c2.8,3.1,7.1,1.9,9.7,4.8l4.8-2.3c0,0-0.3-3.3-0.8-4.1c1.2,0.1,3,1.9,3.2,3.3
				c1.8,0.2,2.7-0.4,4.5-0.8C149.7,115.5,148.3,113.3,146,111.8z"/>
			<path fill="#F3CDAC" d="M136.8,101c2.8,1.8,12.4-4.9,13.7-3.6c1.5,1.5-8.9,10.6-13.4,7.7c0.4-1.6,0.2-4.7-1.8-5.2L136.8,101z"/>
			<path fill="#F3CDAC" d="M127.1,98.2c-2.2,0.9-4.6-1.5-6.4-2.7c-1.1-0.7-5.4-6-6.5-4.8c-1.5,1.5,1.2,4.4,3.9,7.6
				c1.2,1.4,4.4,5.1,6.5,5c2.1-0.2,2.4-3.7,2.9-5.4L127.1,98.2z"/>
			<path fill="#FFFFFF" d="M142.9,110.1c-0.1,0.1-0.2,0.1-0.4,0.2c-0.7,0.4-1.4,0.7-2.1,1.1l-0.4,0.2c-1.2,0.7-2.6,1.3-3.9,1.9
				c-0.2,0.1-0.3,0.1-0.5,0.2c-1.1,0.5-2.2,0.9-3.3,1.2c-0.2,0-0.3,0.1-0.5,0.1c-1.4,0.4-2.8,0.6-4.1,0.7c-0.2,0-0.4,0-0.5,0
				c-1.1,0-2.2-0.2-3.3-0.6c0,0-0.1,0-0.1-0.1l-0.3-1.4c-0.2-0.7-0.3-1.5-0.5-2.3c-0.3-1.8-0.4-3.6-0.2-5.5v0c0-0.1,0-0.2,0-0.3
				c0.1-0.6,0.2-1.2,0.3-1.8c0,0-0.1,0-0.1-0.1c-0.1-0.1-0.2-0.1-0.3-0.2c-0.2-0.2-0.4-0.3-0.5-0.5c0,0,0,0,0,0
				c-0.1-0.2-0.2-0.3-0.3-0.5c-0.4-0.8-0.6-1.7-0.5-2.6c0,0,0,0,0,0c0-1.5,0.5-2.8,1.3-3.3h0c0,0,0.1,0,0.1,0c0,0,0.3,0.1,0.4-0.2
				c0.2,0,0.3,0.1,0.5,0.1c0.1,0,0.2,0,0.3,0.1h0c0.5,0.1,1,0.2,1.5,0.3c0.1,0,0.2,0.1,0.3,0.1c0.1,0.1,0.3,0.1,0.4,0.2
				c0.1,0.1,0.2,0.1,0.3,0.2c0.1,0,0.1,0.1,0.2,0.1c0.4-0.3,0.6-0.4,1-0.4c0.1,0,0.3,0,0.5,0.1c0.4,0.1,0.9,0.2,1.6,0.4
				c0.4,0.1,0.8,0.1,1.3,0.2c0.2,0,0.3,0,0.5,0.1c0.7,0.1,1.4,0.2,2,0.4c0.1,0,0.3,0.1,0.4,0.1c0.3,0.1,0.6,0.2,0.8,0.3
				c0.5,0.2,0.9,0.4,1.2,0.6c0.2,0.1,0.3,0.2,0.4,0.3l0,0l0.1,0c0.2,0.1,0.4,0.1,0.7,0.1c0.2,0,0.3,0,0.5,0c0.4,0,0.9,0,1.3,0
				c0.1,0,0.2,0,0.3,0c0.4,0,0.9,0,1.2,0.1c0.1,0,0.2,0,0.3,0.1c0.2,0.1,0.4,0.2,0.6,0.3c0.3,0.3,0.2,3.2,0.2,4.8c0,0,0,0,0,0
				c0,0.6-0.1,1.1-0.1,1.1s0,0-0.1,0c-0.1,0-0.3,0-0.6,0c-0.1,0-0.3,0-0.4,0c-0.1,0-0.3,0-0.4,0h0c-0.1,0-0.3,0-0.4,0
				c0,0-0.1,0-0.1,0c-0.2,0-0.5-0.1-0.7-0.2c0,0,0,0,0,0c0.8,1.4,1.5,2.6,2.7,3.5h0C141.9,109.5,142.4,109.8,142.9,110.1z"/>
			<g>
				<g>
					<path fill="#58725C" d="M121.7,102c-0.4-1.7-0.2-4,1-5.3c-0.1-0.1-0.2-0.1-0.2-0.2c-1.1,1.2-1.5,3.2-1.4,4.9
						C121.2,101.6,121.5,101.8,121.7,102z"/>
				</g>
				<g>
					<path fill="#58725C" d="M141.5,100.3c0,0.1,0,0.2,0,0.3c0.1,0.7,0.1,1.4,0.1,2.1c0,1-0.1,2.1-0.2,3.1c0.1,0,0.2,0,0.4,0
						c0.1-1.2,0.2-2.3,0.2-3.5c0-0.6,0-1.4,0-2C141.8,100.3,141.6,100.4,141.5,100.3z"/>
				</g>
				<g>
					<path fill="#58725C" d="M140.9,105.9c-0.1,0-0.3,0-0.4,0c-0.1-0.2-0.2-0.4-0.2-0.7c-0.2-0.7-0.2-1.4-0.2-2.2
						c0-1.1,0.1-2.3,0.5-3.4c0.1,0,0.2,0,0.3,0.1c-0.3,1-0.4,2.2-0.5,3.2c0,0.7,0,1.4,0.2,2.1C140.6,105.4,140.7,105.7,140.9,105.9z
						"/>
				</g>
				<g>
					<path fill="#58725C" d="M140.1,105.9l-0.4,0c-0.1-0.2-0.2-0.5-0.3-0.7c-0.2-0.6-0.4-1.3-0.5-2c-0.2-1.1-0.2-2.4,0.1-3.5
						c0.1,0,0.2,0,0.3,0c-0.3,1.1-0.3,2.4-0.1,3.5c0.1,0.6,0.3,1.3,0.5,1.9C139.8,105.4,139.9,105.7,140.1,105.9z"/>
				</g>
				<g>
					<path fill="#58725C" d="M124,96.6c-0.6,0.9-0.9,2-1.2,3.1c-0.3,1.1-0.5,2.3-0.6,3.4c-0.1-0.2-0.2-0.3-0.3-0.5
						c0.1-1,0.3-2,0.5-2.9c0.3-1.1,0.6-2.2,1.2-3.2C123.8,96.5,123.9,96.6,124,96.6z"/>
				</g>
				<g>
					<path fill="#58725C" d="M122.9,105.7c0,0.1,0,0.2,0,0.2c0,0,0,0,0,0.1C122.9,105.9,122.9,105.8,122.9,105.7z"/>
					<path fill="#58725C" d="M125.7,97c-1.2,2.2-2.3,4.4-2.7,6.8c-0.1-0.1-0.2-0.1-0.3-0.2c0.5-2.4,1.6-4.6,2.7-6.7
						C125.6,97,125.6,97,125.7,97z"/>
				</g>
				<g>
					<path fill="#58725C" d="M126.5,97.3C126.5,97.4,126.5,97.4,126.5,97.3c-1,1.4-1.6,2.9-2,4.5c-0.5,1.9-0.8,3.9-0.9,5.9
						c-0.1,2-0.1,4.1,0.2,6.1c0.1,0.5,0.1,0.9,0.2,1.4c0,0-0.1,0-0.1-0.1l-0.3-1.4c-0.2-0.7-0.3-1.5-0.5-2.3c-0.1-1.2,0-2.4,0-3.6
						c0.1-2,0.4-4,0.9-6c0.4-1.6,1-3.2,2-4.6c0,0,0.1-0.1,0.1-0.1c0.1,0,0.2-0.1,0.2-0.1C126.5,97.2,126.6,97.2,126.5,97.3z"/>
				</g>
				<g>
					<path fill="#58725C" d="M128.5,95.8c-0.1,0.5-0.2,1-0.4,1.4c-0.4,1.7-0.7,3.5-1,5.2c-0.6,4.4-0.7,9,0.6,13.3
						c-0.2,0-0.4,0-0.5,0c-0.5-1.6-0.7-3.2-0.9-4.8c-0.4-4.6,0.2-9.3,1.3-13.8c0.1-0.4,0.2-0.9,0.3-1.3
						C128,95.7,128.5,95.6,128.5,95.8z"/>
				</g>
				<g>
					<path fill="#58725C" d="M132.4,115c-0.2,0-0.3,0.1-0.5,0.1c-0.5-1.4-0.9-2.8-1.2-4.2c-0.5-2.3-0.7-4.7-0.7-7.1c0.1-2,0.3-4,1-6
						c0.1-0.2,0.1-0.4,0.2-0.7c0.1-0.2,0.6-0.2,0.5-0.1c-0.1,0.3-0.2,0.5-0.3,0.8c-0.7,2.2-1,4.5-0.9,6.8c0,2.4,0.3,4.8,0.9,7.2
						C131.7,112.9,132,113.9,132.4,115z"/>
				</g>
				<g>
					<path fill="#58725C" d="M136.2,113.5c-0.2,0.1-0.3,0.1-0.5,0.2c-0.6-1.2-1.2-2.5-1.6-3.8c-0.7-2.1-1.2-4.2-1.4-6.4
						c-0.1-1.8,0-3.6,0.8-5.3c0.1,0,0.3,0.1,0.4,0.1c-0.9,2-0.9,4.4-0.6,6.6c0.3,2.2,0.9,4.3,1.8,6.4
						C135.4,112,135.8,112.8,136.2,113.5z"/>
				</g>
				<g>
					<path fill="#58725C" d="M140.5,111.4l-0.4,0.2c-0.3-0.4-0.6-0.8-0.9-1.3c-1.2-1.8-2-3.9-2.6-6c-0.4-1.7-0.7-3.4-0.7-5.1
						c0.2,0.1,0.3,0.2,0.4,0.3l0,0c0,1.6,0.3,3.1,0.7,4.6c0.6,2.1,1.4,4.1,2.5,6C139.9,110.6,140.2,111,140.5,111.4z"/>
				</g>
				<g>
					<path fill="#58725C" d="M139.5,105.9c-0.2,0-0.5-0.1-0.7-0.2c-1.1-1.9-1.9-3.9-1.7-6c0.2,0,0.3,0,0.5,0c0,0.4-0.1,0.7,0,1.1
						C137.7,102.6,138.5,104.3,139.5,105.9z"/>
				</g>
			</g>
			<path fill="#58725C" d="M128,99.1c-1.5,4.1,6.4,6.7,9.2,0.6c-2.7-0.6-6.4,0-9.2-0.9L128,99.1z"/>
			<path fill="#F2B999" d="M128.9,97.9c-2.8,3.3,5.4,6.6,7.8,1.4c-2.7-0.6-5.6-1-8.4-2L128.9,97.9z"/>
			<g>
				<g>
					<g>
						<path fill="#373531" d="M139.7,122.4c0.2,0.6,0.9,1.7,2,0.9c0.6-0.4,0.9-1.8-0.6-2.3c-1-0.4-0.2-2.4-1.5-3.5
							c-1.3-1-2.6-1-3.2-0.2c-0.4,0.5-0.5,2.4,1.2,3.8C138.2,121.4,139.4,121.5,139.7,122.4z"/>
					</g>
				</g>
				<g>
					<path fill="#BCA497" d="M141,123.4c-0.6,0-1.1-1-1.1-1c0,0,1.2-1.3,1.3-1.3c0.3,0.1,1,0.5,1,1.2
						C142.1,122.9,141.6,123.4,141,123.4z"/>
				</g>
				<g>
					<g>
						<path fill="#BCA497" d="M139.6,121.9c-0.4-0.3-1.5-1-1.9-1.3c-1.5-1.2-1.3-2.8-1-3.3c0.5-0.7,1.7-0.7,2.8,0.2
							c0.8,0.7,0.7,2.5,1.1,3.2C140.6,120.7,139.6,121.9,139.6,121.9z"/>
					</g>
				</g>
			</g>
			<g>
				<g>
					<g>
						<path fill="#373531" d="M147.8,120.3c0.1,0.6-0.1,1.9-1.5,1.6c-0.7-0.1-1.5-1.3-0.5-2.4c0.8-0.7-0.8-2.3-0.1-3.8
							c0.7-1.5,1.9-2,2.8-1.6c0.5,0.3,1.5,1.9,0.5,3.9C148.8,118.7,147.7,119.3,147.8,120.3z"/>
					</g>
				</g>
				<g>
					<path fill="#BCA497" d="M147.1,121.8c0.6-0.2,0.6-1.4,0.6-1.4c0,0-1.7-0.7-1.7-0.7c-0.2,0.3-0.7,0.9-0.4,1.5
						C145.9,121.8,146.6,122,147.1,121.8z"/>
				</g>
				<g>
					<g>
						<path fill="#BCA497" d="M147.7,119.8c0.2-0.5,1-1.5,1.2-1.9c0.8-1.7,0.1-3.1-0.4-3.3c-0.7-0.4-1.9,0-2.5,1.3
							c-0.5,1,0.4,2.6,0.3,3.3C146.3,119.2,147.7,119.8,147.7,119.8z"/>
					</g>
				</g>
			</g>
			<g>
				<g>
					<path fill="#FEBFA7" d="M121.6,78.4c-0.8-0.8-1.4-2.4-2.6-2.2c-2.1,0.3,0.6,8.8,2.1,10.5c2.2-1.8-0.3-6,1-8.2L121.6,78.4z"/>
					<path fill="#FEAF91" d="M122.3,81.1c-0.5-0.5-1.7-1.4-2.3-1.1c-1.5,0.7,0.8,5.2,1.7,6.1c1-1.1,0.7-3.2,0.6-4.6L122.3,81.1z"/>
				</g>
				<g>
					<path fill="#FEBFA7" d="M145.2,83.2c0.4-1.5,2.7-2.9,4.6-2.8c2.9,0.3,1.4,1.6,0.5,3.4c-1.1,2.1-3,7.2-6.5,6.9
						c0.1-1.3,0.5-6.3,1.4-6.8L145.2,83.2z"/>
					<path fill="#FEAF91" d="M145.4,84.3c0.6-0.4,1.9-0.9,2.4-0.5c1.2,1-2.1,4.8-3.2,5.3c-0.7-1.3,0.1-3.2,0.6-4.5L145.4,84.3z"/>
				</g>
				<path fill="#F2D0AF" d="M121.8,74.4c-1.5,2.7-0.7,14.8,0,17.5c0.6,2.3-0.6,9.2,14.6,7.9c7.2-0.6,7.9-7.8,8.9-13.1
					c0.5-2.4,1.4-7.1,0.4-9.3c-1.2-2.7-5-2.5-8.4-2.8c-4.2-0.4-11.6,0-13.6,0.3L121.8,74.4z"/>
				<g>
					<g>
						<path fill="#F2B999" d="M129.6,87.2c-1.3,0.4,0,2,1.2,2.1c1.2,0.1,2.9-0.4,2-1.4C132.3,87.2,130.4,87,129.6,87.2z"/>
					</g>
					<g>
						<path fill="#FFFFFF" d="M126.5,91.3c0.5,2.9,3,5.1,6.4,4.5c3-0.5,5.3-3.4,5.3-6c-2.2,1.3-5.1,1.9-6.1,2c-1,0.1-2,0.1-3,0
							C128.2,91.6,126.5,91.3,126.5,91.3z"/>
					</g>
				</g>
				<g>
					<path fill="#6A4D32" d="M124.7,82.8l0.1,0.1c0.3-0.3,0.6-0.5,0.9-0.4c0.4,0.1,0.9,0.5,1.2,1.1l0.1-0.1
						c-0.3-0.7-0.8-1.1-1.3-1.2C125.4,82.3,125,82.5,124.7,82.8z"/>
				</g>
				<g>
					<path fill="#6A4D32" d="M140.4,85.2l-0.1,0c-0.1-0.4-0.4-0.7-0.7-0.8c-0.4-0.1-1,0.1-1.6,0.6l-0.1-0.1c0.5-0.5,1.2-0.7,1.7-0.6
						C140,84.4,140.2,84.7,140.4,85.2z"/>
				</g>
				<g>
					<path fill="#7A5946" d="M140.1,81.4c-0.9,0.1-2-0.4-2.5-1.2c0,0,0.1,0,0.1,0C138.2,81,139.2,81.5,140.1,81.4
						C140.1,81.4,140.2,81.4,140.1,81.4L140.1,81.4z"/>
				</g>
				<g>
					<path fill="#7A5946" d="M127.2,78.8c-1,0.5-1.9,1.2-3,1c0,0-0.1-0.1,0-0.1C125.3,80,126.2,79.2,127.2,78.8
						C127.2,78.8,127.3,78.8,127.2,78.8L127.2,78.8z"/>
				</g>
			</g>
			<path fill="#7A5E43" d="M132,66.3c0,0-3.4-5.9-10.5,0.4c0.3,1-0.7-0.7-0.2,0.2c-1.1-0.2-2.4,0.1-3.4-0.3c0.8,0.8,1.1,1.7,2.1,2.4
				c-1-0.3-2.3-0.3-3.4-0.7c0.3,2,1.7,3.7,3.4,4.6c-0.8-0.2-2,0-3-0.4c0.6,0.5,1.1,1.5,1.8,2c-0.8-0.1-4.2,2-5,1.9
				c6.7,3.5,13.9,2.1,21-0.9c-0.3,0.9-0.3,2.1-0.6,2.9c0.6-0.8,2-1.4,2.7-2c0.1,0.5,0.1,1.1,0.1,1.6c0.1-0.1,0.8-0.6,1.1-1.1
				c1.1,1.7,2.4,3.3,4.3,3.6c-0.2-1.3,0.7-2.1,0.8-3c1.6,0.7,1.3,8.5,1.5,8.4c1.1,0.6,1.2-2.8,1.3-2.3
				C154.2,72.3,143.1,56.1,132,66.3z"/>
			<g>
				<path fill="#58725C" d="M142.7,109.8C142.7,109.8,142.7,109.8,142.7,109.8c-1.5,1-3,1.9-4.6,2.7c-1.9,1-4,1.8-6.1,2.3
					c-2.7,0.7-5.9,1-8.5-0.5c0,0.3,0.1,0.6,0.1,0.8c1.5,0.7,3.1,1,4.8,0.9c2.1-0.1,4.3-0.6,6.3-1.3c3-1.1,6-2.6,8.5-4.5
					c0,0,0.1-0.1,0.1-0.1C143.1,110.1,142.9,110,142.7,109.8z"/>
			</g>
		</g>
	</g>
</g>
</svg>
