<?xml version="1.0" encoding="utf-8"?>
<!-- Generator: Adobe Illustrator 18.0.0, SVG Export Plug-In . SVG Version: 6.00 Build 0)  -->
<!DOCTYPE svg PUBLIC "-//W3C//DTD SVG 1.1//EN" "http://www.w3.org/Graphics/SVG/1.1/DTD/svg11.dtd">
<svg version="1.1" id="Lag_1" xmlns="http://www.w3.org/2000/svg" xmlns:xlink="http://www.w3.org/1999/xlink" x="0px" y="0px"
	 viewBox="0 0 200 200" enable-background="new 0 0 200 200" xml:space="preserve">
<g>
	<defs>
		<circle id="SVGID_1_" cx="100" cy="100" r="90"/>
	</defs>
	<clipPath id="SVGID_2_">
		<use xlink:href="#SVGID_1_"  overflow="visible"/>
	</clipPath>
	<g clip-path="url(#SVGID_2_)">
		<rect x="-86.1" y="8" fill="#BEF6E3" width="279" height="184.3"/>
		<polygon fill="#FFFFF0" points="12.5,46.7 -77.1,46.7 -73.4,45.4 -68.7,45.9 -67.4,43.7 -63.3,44.8 -62.7,43.3 -60.6,44 
			-57.5,40.9 -50.2,42.5 -48.4,39.7 -44.8,41.5 -39.5,34.2 -26.1,36.4 -22.8,40.9 -17.7,39.6 -16.1,42.2 -11.3,41.4 -10,43.5 
			-7.6,42.8 -6.9,44.4 -3,43.6 -0.3,45.2 5.6,44.6 		"/>
		<polygon fill="#FFFFF0" points="-34.1,85.6 19.3,85.6 17.2,84.8 14.3,85.1 13.5,83.8 11.1,84.5 10.7,83.6 9.5,84 7.6,82.2 
			3.3,83.1 2.2,81.5 0.1,82.5 -2.4,80.3 -8.9,77.8 -13.1,82.1 -16.1,81.4 -17,82.9 -19.9,82.4 -20.7,83.7 -22.1,83.3 -22.5,84.3 
			-24.9,83.7 -26.5,84.7 -30,84.4 		"/>
		<polygon fill="#FFFFF0" points="134.7,58.7 107.8,58.7 108.9,58.3 110.3,58.4 110.7,57.8 111.9,58.1 113.7,56.9 115.9,57.4 
			117.3,56.1 121.7,55.1 125.1,57 127.2,56.7 128.9,58 130,57.7 130.8,58.2 132.6,58 		"/>
		<polygon fill="#FFFFF0" points="-47.6,90.7 -69.6,90.7 -68.8,90.4 -67.6,90.5 -67.3,90 -66.3,90.2 -64.8,89.3 -63,89.7 
			-61.8,88.6 -58.2,87.8 -55.5,89.4 -53.7,89.1 -52.4,90.1 -51.4,89.9 -50.8,90.3 -49.3,90.2 		"/>
		<polygon fill="#FFFFF0" points="192.9,28.2 178.9,26.4 167.3,30.9 158.5,30.2 155.7,35.8 148,34.8 145.8,37.4 141.9,36.5 
			140.8,38.4 134.6,37.4 130.2,39.4 120.9,38.7 109.8,41.2 192.9,41.2 		"/>
		<polygon fill="#FFFC99" points="-50.3,113 108.5,113.4 23.2,121.5 		"/>
		<polygon fill="#FFCD30" points="192.9,192.3 192.9,105.7 -85.8,122.5 -86,192.3 		"/>
		<polygon fill="#97840D" points="192.9,192.3 192.9,126.5 -86.1,109.3 -86.1,192.3 		"/>
		<polygon fill="#DE9E10" points="-61.7,110.6 -39.5,127.5 -85.9,129.7 -86.1,109.1 		"/>
		<polygon fill="#BD9246" points="53,147.9 29.5,136.7 42.7,130.4 32.3,124.7 41.9,130.3 27.8,136.7 47.8,148.4 		"/>
		<polygon fill="#E3851A" points="-14.2,113.6 1.4,124.6 -37.7,127.4 -60.6,110.7 		"/>
		<path fill="#433200" d="M-34.8,140.1c-0.1-1.6,1.8-9.2,1.8-9.2s2.1,8,2,9.3c-0.1,1.3-1.9,2.9-1.9,2.9S-34.6,141.7-34.8,140.1z"/>
		<polygon fill="#DE9E10" points="-14.2,113.6 3.6,124.3 49.3,122.2 32.1,116.5 		"/>
		<g>
			<polygon fill="#4D1E10" points="-34.6,135 -34.3,140.4 -54.9,139.8 -55.9,134.4 -52.5,130.7 			"/>
			<polygon fill="#B84009" points="-52.2,130 -55.9,134.4 -55.7,139.8 -48.5,140 -48.9,131.6 			"/>
			<polygon fill="#5F1E11" points="-34.6,135 -48.9,131.6 -48.5,140 -34.3,140.4 			"/>
			<polygon fill="#5F1E11" points="-47.4,135.7 -52.2,130 -55.9,134.7 -55.9,135.2 -52.6,131.7 -48.7,136.6 			"/>
			<polygon fill="#EDDEC0" points="-52.4,129.4 -37.5,129.4 -32.3,135.8 -48.6,135.7 -52.3,130.4 -56.7,135.6 -57.1,135.2 			"/>
			<polygon fill="#DED0B5" points="-40.2,129.4 -46.6,129.4 -41.9,135.7 -35.4,135.7 			"/>
		</g>
		<path fill="#433200" d="M56.4,149c0,0,0.4-5.9-5.6-6.2c-5.1-0.3-5.9,6.3-5.9,6.3S50.4,151.4,56.4,149z"/>
		<path fill="#433200" d="M17.5,146.2c0,0,0.3-4.3-4.1-4.5c-3.7-0.2-4.3,4.6-4.3,4.6S13.1,147.9,17.5,146.2z"/>
		<path fill="#524000" d="M61.1,143.1c-0.2-3.2,3.7-18.6,3.7-18.6s4.3,16.3,4.1,18.9c-0.2,2.6-3.9,6-3.9,6S61.3,146.3,61.1,143.1z"
			/>
		<path fill="#524000" d="M54.3,145.6C54.1,143.2,57,132,57,132s3.1,11.8,3,13.8c-0.2,1.9-2.8,4.3-2.8,4.3S54.4,147.9,54.3,145.6z"
			/>
		<path fill="#524000" d="M37.7,148.9c-0.1-1.7,2-10,2-10s2.3,8.7,2.2,10.1c-0.1,1.4-2.1,3.2-2.1,3.2S37.8,150.7,37.7,148.9z"/>
		<path fill="#524000" d="M24,148.8c-0.1-1,1.2-6,1.2-6s1.4,5.2,1.3,6.1c-0.1,0.8-1.3,1.9-1.3,1.9S24.1,149.9,24,148.8z"/>
		<path fill="#826C00" d="M5.9,123.3c-0.1-0.9,1.1-5.4,1.1-5.4s1.2,4.7,1.2,5.5c-0.1,0.8-1.1,1.7-1.1,1.7S6,124.3,5.9,123.3z"/>
		<path fill="#826C00" d="M22.7,123.6c0-0.5,0.6-2.8,0.6-2.8s0.6,2.4,0.6,2.8c0,0.4-0.6,0.9-0.6,0.9S22.7,124,22.7,123.6z"/>
		<path fill="#524000" d="M-62.4,135.7c-0.1-0.9,1.1-5.4,1.1-5.4s1.2,4.7,1.2,5.5c-0.1,0.8-1.1,1.7-1.1,1.7S-62.3,136.6-62.4,135.7z
			"/>
		<g>
			<polygon fill="#5F1E11" points="-13.3,142.3 -13.2,133.4 -0.9,128.1 11.5,133.5 11.6,145.4 			"/>
			<polygon fill="#B84009" points="-13.2,133.4 -19.6,133.1 -19.9,141.4 -13.3,142.3 			"/>
			<polygon fill="#5F1E11" points="-19.7,135 -13.2,136 -12.9,132.9 -19.6,133.6 			"/>
			<polygon fill="#EDDEC0" points="-0.6,127.9 -14.8,135 -22.2,134 -8.5,127.4 -0.8,127.1 14.3,134.3 13.8,134.5 			"/>
			<polygon fill="#DED0B5" points="-0.6,127.1 -16,134.8 -14.6,135 -0.7,128.3 13.8,134.8 14.3,134.3 			"/>
			<polygon fill="#B84009" points="-16.8,132.7 -17.9,132.7 -17.7,126 -16.3,126 			"/>
			<polygon fill="#69261B" points="-16.8,132.7 -10.1,129.1 -10.2,125.9 -16.8,126 			"/>
			<polygon fill="#7B675F" points="-2.9,132.6 2.2,132.5 2.2,134.3 -2.8,134.4 			"/>
			<polygon fill="#7B675F" points="4.8,140.5 9.2,140.4 9.2,141.9 4.9,142.1 			"/>
			<g>
				
					<rect x="-1.9" y="133.3" transform="matrix(2.499220e-02 0.9997 -0.9997 2.499220e-02 133.2156 130.5972)" fill="#69261B" width="3.1" height="0.6"/>
			</g>
			<g>
				
					<rect x="5.6" y="141" transform="matrix(2.499220e-02 0.9997 -0.9997 2.499220e-02 148.2073 130.735)" fill="#69261B" width="3.1" height="0.6"/>
			</g>
		</g>
		<path fill="#524000" d="M-30.4,140.6c-0.1-1.2,1.4-6.8,1.4-6.8s1.6,6,1.5,6.9c-0.1,1-1.4,2.2-1.4,2.2S-30.4,141.8-30.4,140.6z"/>
		<path fill="#433200" d="M19,147.5c-0.1-1.6,1.8-9.2,1.8-9.2s2.1,8,2,9.3c-0.1,1.3-1.9,2.9-1.9,2.9S19.1,149.1,19,147.5z"/>
		<path fill="#524000" d="M161.2,131.1c-0.2-2.5,2.9-14.4,2.9-14.4s3.3,12.6,3.2,14.7c-0.2,2-3,4.6-3,4.6S161.4,133.6,161.2,131.1z"
			/>
		<path fill="#523700" d="M176.2,133.2c-0.1-1.9,2.2-11,2.2-11s2.5,9.7,2.4,11.2c-0.1,1.6-2.3,3.5-2.3,3.5S176.4,135.1,176.2,133.2z
			"/>
		<path fill="#614C00" d="M143.9,133.5c-0.1-1.9,2.2-11,2.2-11s2.5,9.7,2.4,11.2c-0.1,1.6-2.3,3.5-2.3,3.5S144.1,135.4,143.9,133.5z
			"/>
		<g>
			<polygon fill="#B84814" points="160.4,138 160.1,129.8 153.6,126.6 147.1,129.6 147.4,138.4 			"/>
			<polygon fill="#B84814" points="120.5,141.6 120.5,124.6 110.5,115.7 101.3,123.5 101.4,142.8 			"/>
			<polygon fill="#5F1E11" points="160.2,129.8 153.6,126.4 147.2,129.3 147.2,130.1 153.5,127.4 160.2,131.5 			"/>
			<polygon fill="#5F1E11" points="117.3,142 117.1,137.3 92.1,138.5 92.2,146.4 			"/>
			<polygon fill="#5F1E11" points="121,124.5 110.6,115.9 101.3,123.2 101.3,124.1 110.5,117.5 120.5,126.3 			"/>
			<polygon fill="#B84814" points="92.1,138.5 81,131.9 67.3,138.9 67.3,148.6 92.9,146.2 			"/>
			<polygon fill="#541B0C" points="131.4,140 148.7,138.2 148.8,134.4 131.3,134.3 			"/>
			<polygon fill="#5F1E11" points="67.3,140.1 80.8,132.9 92.3,140.8 94.1,137.9 80.7,131.4 67.3,138.6 			"/>
			<polygon fill="#EDDEC0" points="91.7,138.9 118.4,137.7 106.2,130 80.6,130.9 65.6,139.1 66,139.8 81,131.9 			"/>
			<polygon fill="#DED0B5" points="106.2,130 96.2,130.3 107.3,138.2 118.4,137.7 			"/>
			<polygon fill="#EDDEC0" points="110.3,115.6 124.4,115 134.4,123 120.5,124.6 110.5,116.3 100.5,124.2 99.8,123.7 			"/>
			<polygon fill="#DED0B5" points="122,115.1 115.3,115.4 125.6,124 131.9,123.3 			"/>
			<polygon fill="#5F1E11" points="132.7,123.2 132.5,141.3 120.5,141.6 120.5,124.6 			"/>
			<polygon fill="#CAB799" points="132.6,128.9 139.7,128.8 150.2,134.4 132.6,134.9 			"/>
			<polygon fill="#EDDEC0" points="139.7,128.8 138.1,128.8 144.3,134.6 150.2,134.4 			"/>
			<polygon fill="#5F1E11" points="160.1,129.8 173.5,129.3 173.3,137.1 160.4,138 			"/>
			<polygon fill="#EDDEC0" points="167.3,125.2 153.6,125.9 146.1,129.4 146.5,129.9 153.6,126.6 160.9,130.4 174.7,129.6 			"/>
			<polygon fill="#DED0B5" points="162.4,125.5 156.1,125.8 164.9,130.1 169.7,129.9 			"/>
			<polygon fill="#B84814" points="187.3,135.5 187.4,131.4 183.4,128.3 179.8,131.6 179.7,135.2 			"/>
			<polygon fill="#5F1E11" points="187.4,131.4 192.9,131.1 192.9,135.5 187.3,135.5 			"/>
			<polygon fill="#DED0B5" points="192.9,127.1 183.3,127.7 179.1,131.8 179.3,132.1 183.4,128.3 187.4,131.4 192.9,131.1 			"/>
			<polygon fill="#7B675F" points="162.1,132.2 171.7,131.5 171.7,132.3 162.1,133 			"/>
			<g>
				<rect x="164.5" y="131.7" fill="#4D1E10" width="0.3" height="1.2"/>
			</g>
			<g>
				<rect x="166.9" y="131.7" fill="#4D1E10" width="0.3" height="1.2"/>
			</g>
			<g>
				<rect x="169.5" y="131.4" fill="#4D1E10" width="0.3" height="1.2"/>
			</g>
			<polygon fill="#3D1708" points="125.6,134.6 127.9,134.3 127.9,139.3 125.6,139.6 			"/>
			<polygon fill="#7B675F" points="128.7,134.2 128.7,136.8 130.2,136.6 130.1,134 			"/>
			<g>
				
					<rect x="129.3" y="134.7" transform="matrix(0.1349 0.9909 -0.9909 0.1349 246.349 -10.9751)" fill="#4D1E10" width="0.3" height="1.7"/>
			</g>
			<polygon fill="#4D1E10" points="154.1,138.1 154.1,134.7 152.3,134.7 152.4,138.1 			"/>
			<polygon fill="#4D1E10" points="104.7,125 104.7,128 106.7,128.1 106.6,125.2 			"/>
			<polygon fill="#4D1E10" points="116.2,125.9 114,125.7 114.1,128.8 116.3,129 			"/>
			<g>
				
					<rect x="104.5" y="126.5" transform="matrix(0.9934 0.1146 -0.1146 0.9934 15.2161 -11.2856)" fill="#A3471A" width="2.5" height="0.3"/>
			</g>
			<g>
				
					<rect x="113.9" y="127.3" transform="matrix(0.9934 0.1146 -0.1146 0.9934 15.3699 -12.3572)" fill="#A3471A" width="2.5" height="0.3"/>
			</g>
			<polygon fill="#78330F" points="74.8,147.9 74.9,141.6 84.4,141.6 84.8,146.9 			"/>
			<polygon fill="#B5A88A" points="74.3,147.9 74.6,141.2 84.8,141.2 85.2,146.9 84.5,146.8 84.4,141.8 74.9,141.6 75.3,147.8 			
				"/>
			<polygon fill="#7B675F" points="189,132.5 190.5,132.3 190.5,132.9 189,133 			"/>
		</g>
		<polygon fill="#736105" points="192.9,133.9 -86,161.8 -86,184.2 192.9,184.2 		"/>
		<path fill="#8A7709" d="M55.4,147.6c28.5,5.2,54,8,80.7,5.6c38.4-3.4,56.7-13.2,56.7-13.2v-6.2L55.4,147.6z"/>
		<path fill="#5C4800" d="M192.9,192.3v-24.1c0,0-278.9-35.3-278.9-35.7v59.8H192.9z"/>
		<polygon fill="#AB9110" points="192.9,133.9 62.7,146.9 192.9,135.5 		"/>
		<polygon fill="#4D3C00" points="65.4,192.3 -86,157.3 -86,192.3 		"/>
		<polygon opacity="0.29" fill="#9429D6" points="45,149.7 192.9,171.1 192.9,168.5 		"/>
		<g>
			<polygon fill="#3D2601" points="192.9,159.4 44.7,148.8 192.9,160.6 			"/>
			<polygon fill="#3D2601" points="192.8,162.9 44.7,149.1 192.9,164.1 			"/>
			<polygon fill="#3D2601" points="192.8,166.1 44.7,149.5 192.9,167.3 			"/>
			<polygon fill="#3D2601" points="189.3,169.3 189.2,158 187.4,157.8 187.4,169.1 			"/>
			<polygon fill="#3D2601" points="166.8,166 166.8,156.8 165.4,156.8 165.2,165.8 			"/>
			<polygon fill="#3D2601" points="145.8,163.3 145.9,155.4 145,155.3 144.6,163.2 			"/>
			<polygon fill="#3D2601" points="129.5,161.4 129.6,154.3 128.8,154.2 128.5,161.3 			"/>
			<polygon fill="#3D2601" points="115.8,159.3 115.8,153.6 115.2,153.5 115,159.2 			"/>
			<polygon fill="#3D2601" points="103.2,157.8 103.3,152.5 102.8,152.5 102.6,157.7 			"/>
			<polygon fill="#3D2601" points="91.3,156.3 91.3,151.8 90.9,151.7 90.8,156.2 			"/>
			<polygon fill="#3D2601" points="82.6,155.3 82.7,150.9 82.3,150.9 82.2,155.2 			"/>
			<polygon fill="#3D2601" points="74.9,154.1 74.9,150.4 74.6,150.4 74.5,154 			"/>
		</g>
		<polygon fill="#8A6B00" points="192.7,172.3 67,153.6 192.9,174.7 		"/>
		<polygon fill="#AB9110" points="-86,132.5 -1.8,143.6 -68.8,135.6 -86,132.5 		"/>
		<polygon fill="#3D3015" points="-60.1,149.1 -46.9,153 -28.5,159.6 -6.4,166.2 21.3,176 53.1,185.1 72,192.3 189.8,192.3 
			189.8,186.5 -86,135.9 -86,140.3 -71.3,145.1 		"/>
		<polygon fill="#80664E" points="192.9,192.3 192.9,186.7 -86,135.6 -86,140.1 79.3,192.3 		"/>
		<polygon fill="#997C62" points="-86,135.6 -86,140.1 -61.2,147.9 -45,143.1 		"/>
		<polygon fill="#8A6E56" points="-45,143.1 -61.2,147.9 -4.3,165.9 69.5,164.1 		"/>
		<polygon opacity="0.29" fill="#9429D6" points="-66.7,138.3 -49.3,145.3 -64.5,138.4 		"/>
		<polygon fill="#765C46" points="192.9,192.3 192.9,186.7 140.4,177.1 81.1,192.3 		"/>
		<polygon opacity="0.29" fill="#9429D6" points="135.6,171 175.4,190.2 140.2,170.3 		"/>
		<path fill="#645000" d="M115,150.4c0,0,2.8-1,7.1,0.1C122,150.5,118.6,151.7,115,150.4z"/>
		<path fill="#645000" d="M171.3,144.8c0,0,2.5-0.9,6.4,0.1C177.7,144.8,174.6,145.9,171.3,144.8z"/>
		<path fill="#645000" d="M154.1,142.2c0,0,2.4-0.8,6.2,0.1C160.3,142.3,157.3,143.3,154.1,142.2z"/>
		<path fill="#645000" d="M182.2,137c0,0,1.9-0.8,4.8,0.1C187,137.1,184.7,138.1,182.2,137z"/>
		<path fill="#645000" d="M156.2,151.2c0,0,2.9-1,7.3,0.1C163.5,151.3,160,152.5,156.2,151.2z"/>
		<polygon fill="#542917" points="159.7,138.3 155,138.4 154.1,141.1 154.4,142.4 155.3,140.6 155.8,142.4 156,140.6 158.3,140.6 
			158.8,142.4 159,140.7 159.4,139.4 159.8,140.7 		"/>
		<path fill="#645000" d="M142.4,148c0,0,2.4-0.8,6.2,0.1C148.6,148.1,145.6,149.1,142.4,148z"/>
		<polygon fill="#542917" points="114.8,144.9 121,145 122.2,148.5 121.7,150.2 120.6,147.8 119.9,150.3 119.6,147.9 116.6,147.9 
			116.1,150.3 115.7,148 115.2,146.3 114.7,148 		"/>
		<polygon fill="#542917" points="148.3,146.6 148.1,144.7 143.5,144.8 142.8,144.3 142.3,146.3 143.4,146.1 143.4,146.9 
			143.9,146.9 144.2,148.3 144.6,148.3 144.9,146.8 146.6,146.7 146.8,148.2 147.2,146.7 147.2,146.7 147.4,148.2 147.8,146.7 
			147.9,145.9 		"/>
		<polygon fill="#542917" points="181.6,135.6 181.8,134 185.9,134 186.5,133.6 187,135.4 186,135.2 186,135.9 185.5,135.9 
			185.3,137.1 184.9,137.1 184.7,135.8 183.1,135.8 182.9,137.1 182.6,135.7 182.6,135.7 182.4,137.1 182.1,135.7 182,135 		"/>
		<path fill="#5E554A" d="M132.3,87.3l-0.3-3.1c0,0-0.2-1.8-0.6-2.7l0.7-0.2l-0.8-0.2v0c-0.1-0.1-0.2-0.2-0.2-0.2
			c-0.5,0.1-0.9,3.3-0.9,3.3l0.7,0L132.3,87.3z"/>
		<path fill="#5E554A" d="M185.3,99.1l-0.3-3.1c0,0-0.2-1.8-0.6-2.7l0.7-0.2l-0.8-0.2v0c-0.1-0.1-0.2-0.2-0.2-0.2
			c-0.5,0.1-0.9,3.3-0.9,3.3l0.7,0L185.3,99.1z"/>
		<polygon fill="#542917" points="155.7,149.1 155.9,146.7 161.9,146.8 162.8,146.1 163.5,148.8 162,148.5 162.1,149.5 161.3,149.5 
			161,151.3 160.5,151.3 160.1,149.4 157.8,149.3 157.5,151.2 157.1,149.3 157,149.3 156.8,151.3 156.3,149.2 156.2,148.2 		"/>
		<polygon fill="#542917" points="170.6,140.3 176,140.4 177,143.4 176.6,144.9 175.6,142.8 175,144.9 174.8,142.8 172.1,142.9 
			171.7,145 171.4,142.9 171,141.5 170.5,143 		"/>
		<polygon fill="#B07D20" points="146.9,192.3 -86,137.2 141.8,192.3 		"/>
		<polygon fill="#E3851A" points="34,116.7 51.5,122 90.5,120.2 		"/>
		<path fill="#382800" d="M-30.8,192.3c-2.6-16.9-10.1-49.7-10.1-49.7s-7.3,33-9.4,49.7H-30.8z"/>
		<path fill="#382800" d="M-13.6,192.3c-3.1-13.1-6.3-25.1-6.3-25.1s-3,12-6,25.1H-13.6z"/>
		<path fill="#826C00" d="M89.3,119.3c0-0.7,0.9-4.3,0.9-4.3s1,3.7,0.9,4.3c0,0.6-0.9,1.4-0.9,1.4S89.3,120,89.3,119.3z"/>
		<path fill="#826C00" d="M91.9,119.9c0-0.5,0.6-2.8,0.6-2.8s0.6,2.4,0.6,2.8c0,0.4-0.6,0.9-0.6,0.9S91.9,120.3,91.9,119.9z"/>
		<path fill="#875721" d="M30.4,156.9c0,0-1.8-2.1-1.9-2.8c0-0.7,6.1-5.8,6.1-5.8l-3.8-0.4c0,0-17.5,3.5-18.9,3.7
			c-1.4,0.1-9.5,0.3-9.5,0.3L30.4,156.9z"/>
		<g>
			<g>
				<path fill="#6D9992" d="M-86,101.8l0-0.3c13.5-0.1,25.7-3.3,25.8-3.3l0.1,0.3C-60.3,98.5-72.5,101.6-86,101.8z"/>
			</g>
			<g>
				<path fill="#6D9992" d="M-86,105.9v-0.3c14.5,0,25.7-3,25.8-3.1l0.1,0.3C-60.3,102.9-71.5,105.9-86,105.9z"/>
			</g>
			<g>
				<path fill="#81B8B3" d="M26.5,108.7c-57.3,0-86.3-5.7-86.6-5.8l0.1-0.3c0.4,0.1,37,7.3,109.5,5.5
					c72.4-1.8,105.2-12.5,105.5-12.7l0.1,0.3c-0.3,0.1-33.1,10.9-105.6,12.7C41.4,108.6,33.7,108.7,26.5,108.7z"/>
			</g>
			<g>
				<path fill="#81B8B3" d="M7.1,102.5c-44.5,0-67.1-4-67.3-4l0.1-0.3c0.4,0.1,37,6.5,109.5,2.9C121.8,97.5,154.7,86,155,85.9
					l0.1,0.3c-0.3,0.1-33.3,11.6-105.8,15.2C33.5,102.2,19.5,102.5,7.1,102.5z"/>
			</g>
			<linearGradient id="SVGID_3_" gradientUnits="userSpaceOnUse" x1="139.7537" y1="171.7429" x2="139.7537" y2="80.0873">
				<stop  offset="0.1455" style="stop-color:#4F2E02"/>
				<stop  offset="0.9394" style="stop-color:#917D49"/>
			</linearGradient>
			<path fill="url(#SVGID_3_)" d="M144.1,86.2l10.7-0.2l0.2-1.8l-14,0.2l0-4.3l-2.8,0.3l-0.1,4l-13.8,0.2l0.1,1.9l9.8-0.1l3.7,3
				l-0.1,4.6l-13,0.1l0,2l9.9-0.1l-0.1,0l3,3.2l-2.2,71.9c0,0,0.5,0.6,2.2,0.7c1.7,0.1,2.4-0.5,2.4-0.5l0.8-71.9l3.1-3.5l-0.4,0
				l10.9-0.2l-0.3-1.8L141,93.9l0-4.6L144.1,86.2z M135.5,95.9l2.4,0l-0.1,2.2L135.5,95.9z M143.2,95.8l-2.3,2.3l0-2.3L143.2,95.8z
				 M143.2,86.2l-2.2,2.2l0-2.2L143.2,86.2z M135.7,86.3l2.5,0l-0.1,2.2L135.7,86.3z"/>
			<linearGradient id="SVGID_4_" gradientUnits="userSpaceOnUse" x1="-67.0645" y1="138.3877" x2="-67.0645" y2="95.4875">
				<stop  offset="0.1455" style="stop-color:#4F2E02"/>
				<stop  offset="0.9394" style="stop-color:#917D49"/>
			</linearGradient>
			<path fill="url(#SVGID_4_)" d="M-59.9,102.8l0-0.9l-6.4,0.1l-0.1-2.2l1.3-1.4l4.9-0.1l0-0.9l-6.4,0.1l-0.1-2l-1.3,0.1l0.1,1.9
				l-6.5,0.1l0.1,1.1l4.7-0.1l1.7,1.3l0.1,2.2l-6.3,0.1l0.1,1.1l4.9-0.1l1.4,1.4l1,33.8l2.2,0.1l-1.7-33.9l1.3-1.6L-59.9,102.8z
				 M-65.5,98.4l-0.9,1l0-0.9L-65.5,98.4z M-68.8,98.5l1,0l0,1L-68.8,98.5z M-68.7,103l1,0l0,0.9L-68.7,103z M-66.2,104l0-1l1,0
				L-66.2,104z"/>
			<g>
				<path fill="#6D9992" d="M-86,105.2l0-0.3c7.5-0.4,11.8-1.8,11.8-1.8l0.1,0.3C-74.1,103.3-78.4,104.8-86,105.2z"/>
			</g>
			<g>
				<path fill="#6D9992" d="M-86,101.1l0-0.3c6.2-0.1,11.8-2.3,11.8-2.3l0.1,0.3C-74.2,98.8-79.8,100.9-86,101.1z"/>
			</g>
			<g>
				<path fill="#81B8B3" d="M10.1,110.6c-55.9,0-84-7.2-84.3-7.2l0.1-0.3c0.3,0.1,34.5,8.8,102.6,7c68.1-1.8,96.7-14,97-14.1
					l0.1,0.3c-0.3,0.1-29,12.3-97.1,14.1C22,110.5,15.9,110.6,10.1,110.6z"/>
			</g>
			<g>
				<path fill="#81B8B3" d="M-4.1,104c-46.5,0-69.9-5.2-70.2-5.2l0.1-0.3c0.3,0.1,34.7,7.6,102.7,4.4c35.6-1.7,59.8-6.1,73.9-9.5
					c15.3-3.7,22.2-7,22.3-7.1l0.1,0.3c-0.1,0-7,3.4-22.3,7.1c-14.1,3.4-38.4,7.8-74,9.5C16.6,103.8,5.7,104-4.1,104z"/>
			</g>
			<g>
				<path fill="#5B695F" d="M192.9,110.5c-43.8-1.6-67.2-14.2-67.4-14.4l0.1-0.3c0.2,0.1,23.5,12.7,67.3,14.3L192.9,110.5z"/>
			</g>
			<g>
				<path fill="#5B695F" d="M192.8,107.7c-20.5-2.3-37.8-11.8-37.9-11.9l0.1-0.3c0.2,0.1,17.4,9.6,37.8,11.9L192.8,107.7z"/>
			</g>
			<g>
				<path fill="#5B695F" d="M192.9,101c-43.8-1.6-67.2-14.2-67.4-14.4l0.1-0.3c0.2,0.1,23.5,12.7,67.3,14.3L192.9,101z"/>
			</g>
			<g>
				<path fill="#5B695F" d="M192.8,98.2c-20.5-2.3-37.8-11.8-37.9-11.9L155,86c0.2,0.1,17.4,9.6,37.8,11.9L192.8,98.2z"/>
			</g>
		</g>
		<path fill="#A36D2F" d="M34.7,148.3l-3.7-0.5c0,0-2.4,0.5-5.4,1.1l7.1,1.1C33.8,149,34.7,148.3,34.7,148.3z"/>
		<polygon fill="#4D3C00" points="-6.5,150.2 2.6,150.9 12.1,151 21.6,149.7 12,151.6 2.5,151.8 		"/>
		<polygon fill="#423300" points="30.4,156.9 192.8,183.3 192.9,186.7 		"/>
		<path fill="#5E554A" d="M127.9,84.4l1.8,3.5l-0.3-3.4c0,0-0.6-4-1.1-3.9c-0.1,0-0.2,0.1-0.3,0.3l0,0l-1.2,0.2l1.1,0.2l0,0
			c-0.4,1.1-0.6,3.2-0.6,3.2L127.9,84.4z"/>
		<path fill="#5E554A" d="M165.4,97.9l1.4,2.8l-0.3-2.8c0,0-0.5-3.3-0.9-3.2c-0.1,0-0.1,0.1-0.2,0.2l0,0l-1,0.2l0.9,0.2l0,0
			c-0.3,0.9-0.5,2.6-0.5,2.6L165.4,97.9z"/>
		<g>
			<polygon fill="#57B5BD" points="50.9,94.7 53,96.5 55.2,94.9 53,95.7 			"/>
			<polygon fill="#57B5BD" points="59.7,92.4 61.2,93.8 62.9,92.6 61.2,93.2 			"/>
			<polygon fill="#57B5BD" points="78.7,83 79.6,83.8 80.6,83.1 79.6,83.4 			"/>
			<polygon fill="#57B5BD" points="155.1,68.6 156,69.3 157,68.7 156,69 			"/>
			<polygon fill="#57B5BD" points="99.9,94.6 100.8,95.4 101.8,94.7 100.8,95.1 			"/>
			<polygon fill="#57B5BD" points="122.7,99.8 123.6,100.6 124.6,99.9 123.6,100.2 			"/>
			<polygon fill="#57B5BD" points="35.2,60.4 36.1,61.2 37.1,60.5 36.1,60.9 			"/>
			<polygon fill="#57B5BD" points="87.3,87.4 89.1,88.9 90.9,87.6 89.1,88.3 			"/>
			<polygon fill="#57B5BD" points="-80.1,95.4 -78.4,96.9 -76.5,95.6 -78.4,96.2 			"/>
			<polygon fill="#57B5BD" points="-35.7,95.6 -33.5,97.5 -31.2,95.9 -33.5,96.7 			"/>
		</g>
	</g>
</g>
</svg>
