<?xml version="1.0" encoding="utf-8"?>
<!-- Generator: Adobe Illustrator 18.0.0, SVG Export Plug-In . SVG Version: 6.00 Build 0)  -->
<!DOCTYPE svg PUBLIC "-//W3C//DTD SVG 1.1//EN" "http://www.w3.org/Graphics/SVG/1.1/DTD/svg11.dtd">
<svg version="1.1" id="Lag_1" xmlns="http://www.w3.org/2000/svg" xmlns:xlink="http://www.w3.org/1999/xlink" x="0px" y="0px"
	 viewBox="0 0 200 200" enable-background="new 0 0 200 200" xml:space="preserve">
<path fill="#0E4E7A" d="M190,101.2c0.6-49.7-39.1-90.5-88.8-91.2C51.5,9.4,10.7,49.1,10,98.8c-0.6,49.7,39.1,90.5,88.8,91.2
	C148.5,190.6,189.4,150.9,190,101.2z"/>
<g>
	<defs>
		<path id="SVGID_1_" d="M190,101.2c0.6-49.7-39.1-90.5-88.8-91.2C51.5,9.4,10.7,49.1,10,98.8c-0.6,49.7,39.1,90.5,88.8,91.2
			C148.5,190.6,189.4,150.9,190,101.2z"/>
	</defs>
	<clipPath id="SVGID_2_">
		<use xlink:href="#SVGID_1_"  overflow="visible"/>
	</clipPath>
	<polygon clip-path="url(#SVGID_2_)" fill="#0D4768" points="106.2,43.5 192,129.3 188.7,169 129.3,195.7 63.8,130.2 77.4,114.9 
		53,90.5 76.1,69.3 96.4,89.6 98.2,83.2 81,66 	"/>
</g>
<polygon fill="#0D4768" points="97,40.8 100,43.8 95,45.6 "/>
<polygon fill="#0D4768" points="60.1,67.1 65.6,72.5 59.5,74 58.4,68.7 "/>
<g>
	<rect x="99.8" y="113.6" fill="#003C6E" width="0.1" height="1.9"/>
</g>
<g>
	<g>
		<path fill="#71841F" d="M73.5,87.3c1.4,1.8,0.9,2.3-0.9,0.9c-4.3-3.2-8.4-6.7-12.2-10.5c-1.6-1.6-1.9-3.2-1.3-3.8c0,0,0,0,0.1-0.1
			c0.7-0.7,2.2-0.3,3.8,1.3C66.8,78.9,70.3,83.1,73.5,87.3z"/>
		<circle fill="#71841F" cx="54.7" cy="79.1" r="2.3"/>
		<circle fill="#71841F" cx="52.8" cy="72.5" r="2.3"/>
		<circle fill="#71841F" cx="58.7" cy="69" r="2.3"/>
		<circle fill="#71841F" cx="57.7" cy="71.6" r="3.2"/>
		<circle fill="#71841F" cx="58.5" cy="78.5" r="3.9"/>
		<circle fill="#71841F" cx="55.8" cy="74.7" r="3.9"/>
		<circle fill="#71841F" cx="61.4" cy="73.8" r="3.9"/>
	</g>
	<g>
		<path fill="#879C29" d="M74.9,93.3c1.7,1.5,1.3,2-0.7,1.1c-4.8-2.2-9.6-4.8-14.1-7.7c-1.9-1.2-2.6-2.7-2-3.5c0,0,0-0.1,0.1-0.1
			c0.5-0.8,2.1-0.8,4,0.4C66.6,86.5,70.9,89.8,74.9,93.3z"/>
		<circle fill="#879C29" cx="54.3" cy="88.6" r="2.3"/>
		<circle fill="#879C29" cx="52.8" cy="81.4" r="2.3"/>
		<circle fill="#879C29" cx="56.6" cy="78.4" r="2.3"/>
		<circle fill="#879C29" cx="56.2" cy="81.2" r="3.2"/>
		<circle fill="#879C29" cx="58.4" cy="87.8" r="3.9"/>
		<circle fill="#879C29" cx="55" cy="84.7" r="3.9"/>
		<circle fill="#879C29" cx="60.3" cy="82.6" r="3.9"/>
	</g>
	<g>
		<path fill="#879C29" d="M78.8,91.2c1.5,1.7,2,1.3,1.1-0.7c-2.2-4.8-4.8-9.6-7.7-14.1c-1.2-1.9-2.7-2.6-3.5-2c0,0-0.1,0-0.1,0.1
			c-0.8,0.5-0.8,2.1,0.4,4C72.1,82.9,75.3,87.2,78.8,91.2z"/>
		<circle fill="#879C29" cx="74.1" cy="70.6" r="2.3"/>
		<circle fill="#879C29" cx="67" cy="69.1" r="2.3"/>
		<circle fill="#879C29" cx="64" cy="73" r="2.3"/>
		<circle fill="#879C29" cx="66.7" cy="72.5" r="3.2"/>
		<circle fill="#879C29" cx="73.4" cy="74.7" r="3.9"/>
		<circle fill="#879C29" cx="70.2" cy="71.3" r="3.9"/>
		<circle fill="#879C29" cx="68.1" cy="76.6" r="3.9"/>
	</g>
	<g>
		<path fill="#FBAB18" d="M106.9,119.4c3.2,4.5,2,5.6-2.5,2.5L72.3,99.4c-4.5-3.2-5-8.9-1.1-12.8l0.4-0.4c3.9-3.9,9.7-3.4,12.8,1.1
			L106.9,119.4z"/>
		<path fill="#E39910" d="M71.6,86.2l-0.2,0.2l37.1,37.1c0.5-0.4,0-1.8-1.6-4.1L84.4,87.3C81.3,82.8,75.5,82.3,71.6,86.2z"/>
		<g>
			<defs>
				<path id="SVGID_3_" d="M106.9,119.4c3.2,4.5,2,5.6-2.5,2.5L72.3,99.4c-4.5-3.2-5-8.9-1.1-12.8l0.4-0.4c3.9-3.9,9.7-3.4,12.8,1.1
					L106.9,119.4z"/>
			</defs>
			<clipPath id="SVGID_4_">
				<use xlink:href="#SVGID_3_"  overflow="visible"/>
			</clipPath>
			<g clip-path="url(#SVGID_4_)">
				<path fill="#FBAB18" d="M84,88.6c-4,3.6-4.3,3.3-0.7-0.7l25.9-28.7c3.6-4,7.5-6.4,8.7-5.3l0.1,0.1c1.1,1.1-1.2,5-5.3,8.7
					L84,88.6z"/>
				<path fill="#FBAB18" d="M94.7,101.6c-4,3.6-4.4,3.3-0.7-0.7l25.9-28.7c3.6-4,7.5-6.4,8.7-5.3l0.1,0.1c1.1,1.1-1.2,5-5.3,8.7
					L94.7,101.6z"/>
				<path fill="#FBAB18" d="M100.7,108.6c-4,3.6-4.3,3.3-0.7-0.7l25.9-28.7c3.6-4,7.5-6.4,8.7-5.3l0.1,0.1c1.1,1.1-1.2,5-5.3,8.7
					L100.7,108.6z"/>
				<path fill="#E39910" d="M81.6,101.1c3.6-4,3.3-4.4-0.7-0.7l-28.7,25.9c-4,3.6-6.4,7.5-5.3,8.7l0.1,0.1c1.1,1.1,5-1.2,8.7-5.3
					L81.6,101.1z"/>
				<path fill="#E39910" d="M85,107.5c3.6-4,3.3-4.4-0.7-0.7l-28.7,25.9c-4,3.6-6.4,7.5-5.3,8.7l0.1,0.1c1.1,1.1,5-1.2,8.7-5.3
					L85,107.5z"/>
				<path fill="#E39910" d="M100.7,121.1c3.6-4,3.3-4.3-0.7-0.7l-28.7,25.9c-4,3.6-6.4,7.5-5.3,8.7l0.1,0.1c1.1,1.1,5-1.2,8.7-5.3
					L100.7,121.1z"/>
				<g>
					<path fill="#E39910" d="M82.1,93.7c0.3-0.4,0.2-0.5-0.2-0.2L79,95.8c-0.4,0.3-0.5,0.8-0.3,1.1l0,0c0.3,0.3,0.7,0.1,1.1-0.3
						L82.1,93.7z"/>
					<path fill="#E39910" d="M76.5,99.2c-0.4,0.3-0.5,0.2-0.2-0.2l2.3-2.9c0.3-0.4,0.8-0.5,1.1-0.3l0,0c0.3,0.3,0.1,0.7-0.3,1.1
						L76.5,99.2z"/>
				</g>
				<g>
					<path fill="#E39910" d="M90.8,96.3c0.3-0.4,0.2-0.5-0.2-0.2l-2.9,2.3c-0.4,0.3-0.5,0.8-0.3,1.1l0,0c0.3,0.3,0.7,0.1,1.1-0.3
						L90.8,96.3z"/>
					<path fill="#E39910" d="M85.3,101.8c-0.4,0.3-0.5,0.2-0.2-0.2l2.3-2.9c0.3-0.4,0.8-0.5,1.1-0.3l0,0c0.3,0.3,0.1,0.7-0.3,1.1
						L85.3,101.8z"/>
				</g>
				<g>
					<path fill="#FBAB18" d="M90.8,96.3c0.3-0.4,0.2-0.4-0.2-0.2l-2.6,2c-0.4,0.3-0.5,0.7-0.2,1l0,0c0.3,0.3,0.7,0.2,1-0.2
						L90.8,96.3z"/>
					<path fill="#FBAB18" d="M86,101.1c-0.4,0.3-0.4,0.2-0.2-0.2l2-2.6c0.3-0.4,0.7-0.5,1-0.2l0,0c0.3,0.3,0.2,0.7-0.2,1L86,101.1z"
						/>
				</g>
				<g>
					<path fill="#E39910" d="M94.4,109.4c0.3-0.4,0.2-0.5-0.2-0.2l-2.9,2.3c-0.4,0.3-0.5,0.8-0.3,1.1l0,0c0.3,0.3,0.7,0.1,1.1-0.3
						L94.4,109.4z"/>
					<path fill="#E39910" d="M88.9,114.9c-0.4,0.3-0.5,0.2-0.2-0.2l2.3-2.9c0.3-0.4,0.8-0.5,1.1-0.3l0,0c0.3,0.3,0.1,0.7-0.3,1.1
						L88.9,114.9z"/>
				</g>
				<g>
					<path fill="#E39910" d="M100.4,112.8c0.3-0.4,0.2-0.5-0.2-0.2l-2.9,2.3c-0.4,0.3-0.5,0.8-0.3,1.1l0,0c0.3,0.3,0.7,0.1,1.1-0.3
						L100.4,112.8z"/>
					<path fill="#E39910" d="M94.9,118.4c-0.4,0.3-0.5,0.2-0.2-0.2l2.3-2.9c0.3-0.4,0.8-0.5,1.1-0.3l0,0c0.3,0.3,0.1,0.7-0.3,1.1
						L94.9,118.4z"/>
				</g>
				<path fill="#FBAB18" d="M81.9,93.5l-2,1.5l0.6,0.6l1.5-2C82.4,93.3,82.3,93.2,81.9,93.5z"/>
			</g>
		</g>
	</g>
</g>
<g>
	<g>
		<path fill="#71841F" d="M99,77.1c-0.6,3-1.5,2.9-1.7-0.1c-0.7-7.1-0.9-14.4-0.6-21.6c0.2-3,1.4-4.8,2.7-4.7c0,0,0.1,0,0.1,0
			c1.3,0,2.3,1.9,2.2,5C101.2,62.9,100.3,70.1,99,77.1z"/>
		<circle fill="#71841F" cx="90.2" cy="51" r="3.1"/>
		<circle fill="#71841F" cx="95.1" cy="43.2" r="3.1"/>
		<circle fill="#71841F" cx="103.9" cy="45.8" r="3.1"/>
		<circle fill="#71841F" cx="100.4" cy="47.1" r="4.4"/>
		<circle fill="#71841F" cx="94.2" cy="54.2" r="5.3"/>
		<circle fill="#71841F" cx="95.5" cy="48.1" r="5.3"/>
		<circle fill="#71841F" cx="101.5" cy="52.9" r="5.3"/>
	</g>
	<g>
		<path fill="#879C29" d="M94.3,83.9c0.1,3-0.8,3.2-1.7,0.3c-2.1-6.8-3.9-13.9-5.1-21c-0.5-3,0.4-5,1.6-5.2c0,0,0.1,0,0.1,0
			c1.3-0.2,2.7,1.4,3.2,4.4C93.6,69.5,94.2,76.7,94.3,83.9z"/>
		<circle fill="#879C29" cx="80.4" cy="59.1" r="3.1"/>
		<circle fill="#879C29" cx="86.1" cy="51.2" r="3.1"/>
		<circle fill="#879C29" cx="92.6" cy="52.3" r="3.1"/>
		<circle fill="#879C29" cx="89.5" cy="54.3" r="4.4"/>
		<path fill="#879C29" d="M90.1,61.7c0.5,2.9-1.5,5.6-4.3,6c-2.9,0.5-5.6-1.5-6-4.3c-0.5-2.9,1.5-5.6,4.3-6
			C86.9,56.8,89.6,58.8,90.1,61.7z"/>
		<path fill="#879C29" d="M90.1,55.4c0.5,2.9-1.5,5.6-4.3,6c-2.9,0.5-5.6-1.5-6-4.3c-0.5-2.9,1.5-5.6,4.3-6
			C86.9,50.6,89.6,52.6,90.1,55.4z"/>
		<circle fill="#879C29" cx="91.8" cy="59.7" r="5.3"/>
	</g>
	<g>
		<path fill="#879C29" d="M99.9,85.9c-0.4,3,0.5,3.2,1.7,0.4c2.8-6.6,5.2-13.5,7.1-20.4c0.8-2.9,0.1-5-1.1-5.3c0,0-0.1,0-0.1,0
			c-1.2-0.3-2.8,1.1-3.6,4.1C102.1,71.7,100.7,78.8,99.9,85.9z"/>
		<circle fill="#879C29" cx="116.2" cy="62.6" r="3.1"/>
		<circle fill="#879C29" cx="111.2" cy="54.2" r="3.1"/>
		<circle fill="#879C29" cx="104.7" cy="54.7" r="3.1"/>
		<circle fill="#879C29" cx="107.6" cy="57" r="4.4"/>
		<circle fill="#879C29" cx="111.4" cy="65.6" r="5.3"/>
		<circle fill="#879C29" cx="112" cy="59.4" r="5.3"/>
		<circle fill="#879C29" cx="104.8" cy="62.1" r="5.3"/>
	</g>
	<g>
		<path fill="#FBAB18" d="M97.2,139.2c-1.6,7.2-3.7,7.1-4.7-0.2l-6.6-52.1c-0.9-7.3,4.3-13,11.7-12.7l0.8,0
			c7.4,0.4,12.1,6.5,10.4,13.7L97.2,139.2z"/>
		<path fill="#E39910" d="M98.4,74.2l-0.4,0l-3.4,70.3c0.9,0.1,1.8-1.7,2.6-5.3L108.9,88C110.5,80.7,105.8,74.6,98.4,74.2z"/>
		<g>
			<defs>
				<path id="SVGID_5_" d="M97.2,139.2c-1.6,7.2-3.7,7.1-4.7-0.2l-6.6-52.1c-0.9-7.3,4.3-13,11.7-12.7l0.8,0
					c7.4,0.4,12.1,6.5,10.4,13.7L97.2,139.2z"/>
			</defs>
			<clipPath id="SVGID_6_">
				<use xlink:href="#SVGID_5_"  overflow="visible"/>
			</clipPath>
			<g clip-path="url(#SVGID_6_)">
				<path fill="#FBAB18" d="M107.2,88.6c-7.2-0.7-7.2-1.3,0.1-1.4l51.8-0.2c7.3,0,13.2,1.7,13.1,3.9l0,0.2
					c-0.1,2.2-6.1,3.3-13.4,2.6L107.2,88.6z"/>
				<path fill="#FBAB18" d="M103.9,111.1c-7.2-0.7-7.2-1.3,0.1-1.4l51.8-0.2c7.3,0,13.2,1.7,13.1,3.9l0,0.2
					c-0.1,2.1-6.1,3.3-13.4,2.6L103.9,111.1z"/>
				<path fill="#FBAB18" d="M102.4,123.3c-7.2-0.7-7.2-1.3,0.1-1.4l51.8-0.2c7.3,0,13.2,1.7,13.1,3.9l0,0.2
					c-0.1,2.2-6.1,3.3-13.4,2.6L102.4,123.3z"/>
				<path fill="#E39910" d="M92.6,97.5c7.3,0,7.3-0.6,0.1-1.4L41.1,91c-7.2-0.7-13.3,0.4-13.4,2.6l0,0.2c-0.1,2.1,5.8,3.9,13.1,3.9
					L92.6,97.5z"/>
				<path fill="#E39910" d="M89.3,106.8c7.3,0,7.3-0.6,0.1-1.4l-51.6-5.2c-7.2-0.7-13.3,0.4-13.4,2.6l0,0.2
					c-0.1,2.1,5.8,3.9,13.1,3.9L89.3,106.8z"/>
				<path fill="#E39910" d="M89.9,134.6c7.3,0,7.3-0.6,0.1-1.4l-51.6-5.2c-7.2-0.7-13.3,0.4-13.4,2.6l0,0.2
					c-0.1,2.2,5.8,3.9,13.1,3.9L89.9,134.6z"/>
				<g>
					<path fill="#E39910" d="M100.4,91.4c0.7-0.1,0.7-0.2,0-0.3l-4.9-0.9c-0.7-0.1-1.3,0.2-1.3,0.7l0,0.1c0,0.5,0.5,0.9,1.2,0.8
						L100.4,91.4z"/>
					<path fill="#E39910" d="M89.9,90.9c-0.7-0.1-0.7-0.3,0-0.3l5-0.4c0.7-0.1,1.3,0.3,1.2,0.8l0,0.1c0,0.5-0.6,0.8-1.3,0.7
						L89.9,90.9z"/>
				</g>
				<g>
					<path fill="#E39910" d="M105.6,102.4c0.7-0.1,0.7-0.2,0-0.3l-4.9-0.9c-0.7-0.1-1.3,0.2-1.3,0.7l0,0.1c0,0.5,0.5,0.9,1.2,0.8
						L105.6,102.4z"/>
					<path fill="#E39910" d="M95.1,101.9c-0.7-0.1-0.7-0.3,0-0.3l5-0.4c0.7-0.1,1.3,0.3,1.2,0.8l0,0.1c0,0.5-0.6,0.8-1.3,0.7
						L95.1,101.9z"/>
				</g>
				<g>
					<path fill="#FBAB18" d="M105.7,102.4c0.6-0.1,0.6-0.2,0-0.3l-4.3-0.8c-0.6-0.1-1.1,0.2-1.1,0.7l0,0.1c0,0.5,0.5,0.9,1.1,0.8
						L105.7,102.4z"/>
					<path fill="#FBAB18" d="M96.5,101.9c-0.6-0.1-0.6-0.3,0-0.3l4.4-0.4c0.6-0.1,1.1,0.3,1.1,0.8l0,0.1c0,0.5-0.5,0.8-1.1,0.7
						L96.5,101.9z"/>
				</g>
				<g>
					<path fill="#E39910" d="M95.9,117.8c0.7-0.1,0.7-0.2,0-0.3l-4.9-0.9c-0.7-0.1-1.3,0.2-1.3,0.7l0,0.1c0,0.5,0.5,0.9,1.2,0.8
						L95.9,117.8z"/>
					<path fill="#E39910" d="M85.4,117.3c-0.7-0.1-0.7-0.3,0-0.3l5-0.4c0.7-0.1,1.3,0.3,1.2,0.8l0,0.1c0,0.5-0.6,0.8-1.3,0.7
						L85.4,117.3z"/>
				</g>
				<g>
					<path fill="#E39910" d="M97.9,126.9c0.7-0.1,0.7-0.2,0-0.3l-4.9-0.9c-0.7-0.1-1.3,0.2-1.3,0.7l0,0.1c0,0.5,0.5,0.9,1.2,0.8
						L97.9,126.9z"/>
					<path fill="#E39910" d="M87.4,126.4c-0.7-0.1-0.7-0.3,0-0.3l5-0.4c0.7-0.1,1.3,0.3,1.2,0.8l0,0.1c0,0.5-0.6,0.8-1.3,0.7
						L87.4,126.4z"/>
				</g>
				<path fill="#FBAB18" d="M100.4,91.1l-3.3-0.6L97,91.6l3.3-0.3C101.1,91.3,101.1,91.2,100.4,91.1z"/>
			</g>
		</g>
	</g>
</g>
<g>
	<polygon fill="#DCDAC8" points="72.5,131.2 70.1,129.7 70.4,132.5 68.9,130.1 67.9,132.8 67.6,130 65.5,132 66.4,129.3 63.8,130.2 
		65.7,128.2 62.9,127.8 65.6,126.9 63.2,125.3 66,125.6 64.5,123.2 67,124.7 66.7,121.9 68.2,124.2 69.2,121.6 69.5,124.4 
		71.5,122.4 70.6,125.1 73.3,124.2 71.3,126.2 74.2,126.6 71.5,127.5 73.9,129.1 71.1,128.8 	"/>
	<ellipse transform="matrix(0.7071 0.7071 -0.7071 0.7071 97.691 -40.7373)" fill="#71841F" cx="98" cy="97.6" rx="1.2" ry="29.1"/>
	<path fill="#879C29" d="M96.2,99c-10.3,11.1-19,19.7-19.5,19.4c-0.5-0.4,7.5-9.7,17.8-20.7c10.3-11.1,19-19.7,19.5-19.4
		C114.4,78.6,106.5,87.9,96.2,99z"/>
	<path fill="#879C29" d="M98.3,100.1c-11.1,10.3-20.3,18.3-20.7,17.8c-0.4-0.5,8.3-9.2,19.3-19.5C107.9,88,117.2,80,117.6,80.5
		C118,81,109.3,89.7,98.3,100.1z"/>
	<path fill="#F2EFDC" d="M91.8,115.1c-0.6-4.3,0.7-8.8,4-12.2c-1.3,0.3-2.5,0.7-3.7,1.3c1.1-2.2,1.7-4.5,2-6.9c-0.5,0.7-1,1.3-1.6,2
		c-3.3,3.3-7.9,4.7-12.3,4.1c-4.5-0.8-9.4,0.5-12.9,4c-5.7,5.7-5.7,14.9,0,20.6c5.7,5.7,14.9,5.7,20.6,0
		C91.3,124.6,92.6,119.7,91.8,115.1z"/>
	<g>
		<path fill="#E2D7AB" d="M91.8,115.1c-0.6-4.3,0.7-8.8,4-12.2c-1.3,0.3-2.5,0.7-3.7,1.3c0.1-0.3,0.3-0.6,0.4-0.9
			c-2,3-2.8,6.6-2.3,10.1c0.8,4.5-0.5,9.4-4,12.9c-5.4,5.4-14,5.7-19.7,0.8c0.3,0.3,0.5,0.6,0.8,0.9c5.7,5.7,14.9,5.7,20.6,0
			C91.3,124.6,92.6,119.7,91.8,115.1z"/>
	</g>
</g>
<g>
	<path fill="#71841F" d="M118.6,128.2c-0.3-0.1-0.4-0.5-0.3-0.8l0,0c0.1-0.3,0.5-0.4,0.8-0.2l17.6,8.4c0.3,0.1,0.4,0.5,0.3,0.8l0,0
		c-0.1,0.3-0.5,0.4-0.8,0.2L118.6,128.2z"/>
	<path fill="#879C29" d="M139.4,144.5c0.7,0.9,1.4,1.7,2.2,2.3c0.2,0.1,0.3,0.2,0.5,0.3c0.3,0.1,0.6,0.2,0.8,0.3
		c0.1-0.4,0.1-0.8,0.2-1.2c0-0.2,0-0.3,0-0.5c0.1,0.1,0.1,0.3,0.2,0.4c0.4,0.7,0.8,1.3,1.2,1.9c0,0,0.1,0,0.1,0
		c-0.1-1.6-0.2-3.4-0.4-5.3c0-0.2-0.1-0.5-0.1-0.7c0,0.2,0.1,0.4,0.1,0.7c0.5,2,0.9,3.9,1.4,5.6c1,0.2,2,0.3,2.9,0.3
		c-0.1-0.3-0.1-0.6-0.2-0.8c0-0.2-0.1-0.3-0.2-0.5c0.1,0.1,0.2,0.2,0.4,0.3c0.5,0.3,1,0.6,1.5,0.9c0.7-0.1,1.4-0.2,2.1-0.3
		c-0.3-0.4-0.6-0.7-1-1c-0.1-0.1-0.2-0.2-0.3-0.3c0.2,0,0.3,0,0.5,0.1c1.6,0.1,3.2,0,4.7-0.3c0.2-0.1,0.4-0.2,0.6-0.4
		c0-0.3-0.1-0.6-0.1-0.8c-0.6-0.8-1.2-1.5-1.9-2.2c-0.1-0.1-0.2-0.2-0.4-0.3c0.2,0,0.3,0,0.5,0c0.4,0,0.8,0,1.3,0
		c-0.5-1.5-1.3-2.9-2.3-4.2c-1.3-0.6-2.6-1-4.1-1.2c-0.2,0-0.3,0-0.5,0c0.1-0.1,0.3-0.1,0.4-0.2c0.6-0.3,1.1-0.7,1.7-1
		c0,0-0.1-0.1-0.1-0.1c-0.8-0.4-1.7-0.7-2.7-0.9c-0.1,0-0.3,0-0.4-0.1c0.1-0.1,0.3-0.1,0.4-0.2c0.2-0.1,0.3-0.2,0.5-0.3
		c-0.3-0.2-0.6-0.3-0.9-0.5c-0.9-0.4-1.8-0.7-2.7-1c-2.9,1.8-6.6,2.8-10.4,2.5c-0.2,0-0.3-0.1-0.4-0.1c0.1,0.1,0.2,0.2,0.3,0.3
		C137.3,138.4,138.8,141.4,139.4,144.5z"/>
	<path fill="#71841F" d="M135,136c2.4,2.4,3.8,5.5,4.4,8.5c0.7,0.9,1.4,1.7,2.2,2.3c0.2,0.1,0.3,0.2,0.5,0.3
		c0.3,0.1,0.6,0.2,0.8,0.3c0.1-0.4,0.1-0.8,0.2-1.2c0-0.2,0-0.3,0-0.5c0.1,0.1,0.1,0.3,0.2,0.4c0.4,0.7,0.8,1.3,1.2,1.9
		c0,0,0.1,0,0.1,0c-0.1-1.6-0.2-3.4-0.4-5.3c0-0.2-0.1-0.5-0.1-0.7c0,0.2,0.1,0.4,0.1,0.7c0.5,2,0.9,3.9,1.4,5.6
		c1,0.2,2,0.3,2.9,0.3c-0.1-0.3-0.1-0.6-0.2-0.8c0-0.2-0.1-0.3-0.2-0.5c0.1,0.1,0.2,0.2,0.4,0.3c0.5,0.3,1,0.6,1.5,0.9
		c0.7-0.1,1.4-0.2,2.1-0.3c-0.3-0.4-0.6-0.7-1-1c-0.1-0.1-0.2-0.2-0.3-0.3c0.2,0,0.3,0,0.5,0.1c1.6,0.1,3.2,0,4.7-0.3
		c0.2-0.1,0.4-0.2,0.6-0.4l-22.1-10.5C134.8,135.8,134.9,135.9,135,136z"/>
	<g>
		<path fill="#71841F" d="M129.1,138.7c0.2-0.1,0.3-0.4,0.3-0.8l-1.9-6.2l-1.1-0.5l2.2,7.2C128.6,138.6,128.8,138.8,129.1,138.7z"/>
		<path fill="#879C29" d="M124.6,143.1c-0.2,1-0.2,1.9-0.2,2.8c0,0.1,0.1,0.3,0.1,0.4c0.1,0.2,0.2,0.5,0.3,0.7
			c0.3-0.3,0.6-0.5,0.9-0.8c0.1-0.1,0.2-0.2,0.3-0.3c0,0.1-0.1,0.3-0.2,0.4c-0.2,0.7-0.4,1.3-0.5,1.9c0,0,0,0,0,0.1
			c1-1.2,2.1-2.5,3.2-4c0.1-0.2,0.3-0.4,0.4-0.5c-0.1,0.2-0.2,0.4-0.3,0.5c-1,1.7-1.9,3.3-2.7,4.7c0.5,0.6,1,1.2,1.6,1.7
			c0.1-0.2,0.3-0.5,0.4-0.7c0.1-0.1,0.1-0.3,0.2-0.4c0,0.1,0,0.3,0,0.4c0.1,0.5,0.2,1,0.3,1.4c0.5,0.3,1,0.6,1.5,0.8
			c0-0.4,0.1-0.8,0.1-1.2c0-0.1,0-0.3,0-0.4c0.1,0.1,0.1,0.2,0.2,0.3c0.9,0.9,2,1.6,3.1,2.1c0.2,0,0.4,0,0.6,0
			c0.2-0.2,0.3-0.4,0.5-0.7c0.1-0.8,0.2-1.7,0.2-2.5c0-0.1,0-0.3,0-0.4c0.1,0.1,0.2,0.2,0.2,0.3c0.2,0.2,0.5,0.4,0.8,0.6
			c0.6-1.3,1.1-2.7,1.3-4.1c-0.4-1-1-2-1.7-3c-0.1-0.1-0.2-0.2-0.2-0.3c0.1,0,0.3,0.1,0.4,0.1c0.6,0.1,1.1,0.1,1.7,0.1
			c0,0,0-0.1,0-0.1c-0.3-0.7-0.6-1.4-1-2c-0.1-0.1-0.1-0.2-0.2-0.3c0.1,0,0.3,0.1,0.4,0.1c0.2,0,0.3,0,0.5,0.1
			c-0.1-0.3-0.1-0.5-0.2-0.8c-0.3-0.8-0.6-1.4-1-2.1c-2.9-0.2-5.8-1.3-7.8-3.4c-0.1-0.1-0.1-0.2-0.2-0.3c0,0.1,0,0.3,0,0.4
			C127.2,137.7,126.2,140.6,124.6,143.1z"/>
		<path fill="#71841F" d="M127.3,134.7c-0.1,2.9-1.2,5.8-2.8,8.3c-0.2,1-0.2,1.9-0.2,2.8c0,0.1,0.1,0.3,0.1,0.4
			c0.1,0.2,0.2,0.5,0.3,0.7c0.3-0.3,0.6-0.5,0.9-0.8c0.1-0.1,0.2-0.2,0.3-0.3c0,0.1-0.1,0.3-0.2,0.4c-0.2,0.7-0.4,1.3-0.5,1.9
			c0,0,0,0,0,0.1c1-1.2,2.1-2.5,3.2-4c0.1-0.2,0.3-0.4,0.4-0.5c-0.1,0.2-0.2,0.4-0.3,0.5c-1,1.7-1.9,3.3-2.7,4.7
			c0.5,0.6,1,1.2,1.6,1.7c0.1-0.2,0.3-0.5,0.4-0.7c0.1-0.1,0.1-0.3,0.2-0.4c0,0.1,0,0.3,0,0.4c0.1,0.5,0.2,1,0.3,1.4
			c0.5,0.3,1,0.6,1.5,0.8c0-0.4,0.1-0.8,0.1-1.2c0-0.1,0-0.3,0-0.4c0.1,0.1,0.1,0.2,0.2,0.3c0.9,0.9,2,1.6,3.1,2.1
			c0.2,0,0.4,0,0.6,0l-6.6-18.6C127.3,134.5,127.3,134.6,127.3,134.7z"/>
	</g>
	<g>
		<path fill="#71841F" d="M129,132.8l4.9-2.8c0.3-0.2,0.4-0.5,0.3-0.7c-0.1-0.2-0.4-0.3-0.7-0.1l-5.5,3.2L129,132.8z"/>
		<path fill="#879C29" d="M134.1,123.1c0.6-0.8,1.2-1.5,1.8-2.1c0.1-0.1,0.3-0.2,0.4-0.2c0.2-0.1,0.5-0.2,0.7-0.3
			c0,0.4,0.1,0.8,0.1,1.2c0,0.2,0,0.3,0,0.5c0.1-0.1,0.1-0.3,0.2-0.4c0.3-0.6,0.7-1.2,1-1.7c0,0,0,0,0.1,0c-0.1,1.6-0.3,3.2-0.5,5
			c0,0.2-0.1,0.4-0.1,0.6c0-0.2,0.1-0.4,0.1-0.6c0.4-1.9,0.9-3.7,1.4-5.3c0.8-0.2,1.6-0.2,2.3-0.2c-0.1,0.3-0.1,0.5-0.2,0.8
			c0,0.1-0.1,0.3-0.1,0.4c0.1-0.1,0.2-0.2,0.3-0.3c0.4-0.3,0.8-0.6,1.2-0.8c0.6,0.1,1.1,0.2,1.7,0.4c-0.3,0.3-0.5,0.7-0.8,1
			c-0.1,0.1-0.2,0.2-0.3,0.3c0.1,0,0.2,0,0.4,0c1.3-0.1,2.5,0.1,3.7,0.5c0.2,0.1,0.3,0.2,0.4,0.4c0,0.3-0.1,0.5-0.1,0.8
			c-0.5,0.7-1,1.4-1.6,2c-0.1,0.1-0.2,0.2-0.3,0.3c0.1,0,0.2,0,0.4,0c0.3,0,0.7,0,1,0.1c-0.4,1.4-1.1,2.7-1.9,3.9
			c-1,0.5-2.1,0.9-3.3,1c-0.1,0-0.2,0-0.4,0c0.1,0.1,0.2,0.1,0.3,0.2c0.4,0.3,0.9,0.7,1.3,1.1c0,0-0.1,0.1-0.1,0.1
			c-0.7,0.3-1.4,0.6-2.1,0.8c-0.1,0-0.2,0-0.4,0.1c0.1,0.1,0.2,0.1,0.4,0.2c0.1,0.1,0.3,0.2,0.4,0.3c-0.2,0.1-0.5,0.3-0.7,0.4
			c-0.7,0.4-1.5,0.6-2.2,0.8c-2.3-1.8-5.1-2.9-8.1-2.7c-0.1,0-0.2,0-0.4,0c0.1-0.1,0.2-0.2,0.3-0.3
			C132.2,128.8,133.5,126,134.1,123.1z"/>
		<path fill="#71841F" d="M130.2,131c2-2.2,3.2-5.1,3.8-7.9c0.6-0.8,1.2-1.5,1.8-2.1c0.1-0.1,0.3-0.2,0.4-0.2
			c0.2-0.1,0.5-0.2,0.7-0.3c0,0.4,0.1,0.8,0.1,1.2c0,0.2,0,0.3,0,0.5c0.1-0.1,0.1-0.3,0.2-0.4c0.3-0.6,0.7-1.2,1-1.7c0,0,0,0,0.1,0
			c-0.1,1.6-0.3,3.2-0.5,5c0,0.2-0.1,0.4-0.1,0.6c0-0.2,0.1-0.4,0.1-0.6c0.4-1.9,0.9-3.7,1.4-5.3c0.8-0.2,1.6-0.2,2.3-0.2
			c-0.1,0.3-0.1,0.5-0.2,0.8c0,0.1-0.1,0.3-0.1,0.4c0.1-0.1,0.2-0.2,0.3-0.3c0.4-0.3,0.8-0.6,1.2-0.8c0.6,0.1,1.1,0.2,1.7,0.4
			c-0.3,0.3-0.5,0.7-0.8,1c-0.1,0.1-0.2,0.2-0.3,0.3c0.1,0,0.2,0,0.4,0c1.3-0.1,2.5,0.1,3.7,0.5c0.2,0.1,0.3,0.2,0.4,0.4l-17.9,9.2
			C130.1,131.2,130.2,131.1,130.2,131z"/>
	</g>
</g>
<g>
	<circle fill="#D95B46" cx="120.3" cy="114.5" r="21"/>
	<ellipse fill="#F16A54" cx="120.6" cy="107" rx="14.8" ry="12.4"/>
	<circle fill="#D95B46" cx="100.7" cy="127.7" r="21"/>
	<path fill="#F16A54" d="M79.7,127.7c0,2.7,0.5,5.3,1.5,7.7c3.5,2.5,7.7,4,12.3,4c11.6,0,21-9.4,21-21c0-2.7-0.5-5.3-1.5-7.7
		c-3.5-2.5-7.7-4-12.3-4C89.1,106.7,79.7,116.1,79.7,127.7z"/>
	<g>
		<path fill="#2D4124" d="M103.4,116.8c0,0.7-3.4,0.7-3.7,1.3c-0.3,0.6,2.1,3.1,1.6,3.5c-0.5,0.5-2.9-1.9-3.5-1.6
			c-0.6,0.3-0.6,3.7-1.3,3.7c-0.7,0-0.7-3.4-1.3-3.7c-0.6-0.3-3.1,2.1-3.5,1.6c-0.5-0.5,1.9-2.9,1.6-3.5c-0.3-0.6-3.7-0.6-3.7-1.3
			c0-0.7,3.4-0.7,3.7-1.3c0.3-0.6-2.1-3.1-1.6-3.5c0.5-0.5,2.9,1.9,3.5,1.6c0.6-0.3,0.6-3.7,1.3-3.7c0.7,0,0.7,3.4,1.3,3.7
			c0.6,0.3,3.1-2.1,3.5-1.6c0.5,0.5-1.9,2.9-1.6,3.5C100,116.1,103.4,116.1,103.4,116.8z"/>
		<path fill="#405933" d="M96.5,109.9c-0.7,0-0.7,3.4-1.3,3.7c-0.6,0.3-3.1-2.1-3.5-1.6c-0.5,0.5,1.9,2.9,1.6,3.5
			c-0.3,0.6-3.7,0.6-3.7,1.3c0,0.7,3.4,0.7,3.7,1.3c0.3,0.6-2.1,3.1-1.6,3.5c0.5,0.5,2.9-1.9,3.5-1.6c0.3,0.1,0.4,0.9,0.6,1.7
			c1.3-1.9,2.1-4.5,2.1-7.2c0-0.3,0-0.6,0-0.9h0C97.2,113.3,97.2,109.9,96.5,109.9z"/>
		<path fill="#2D4124" d="M94.5,110.8c-0.6,0.1-1.1,0.3-1.5,0.6c1.2,1.5,2,3.3,2.2,5.4c0.5-0.1,1-0.2,1.4-0.4
			C96.4,114.2,95.6,112.3,94.5,110.8z"/>
	</g>
	<path fill="#2D4124" d="M128.6,93.8c0.2,0.5-2.6,1.5-2.9,1.9c-0.3,0.5,1.8,1.2,1.2,1.6c-0.6,0.5-3.3,0.1-4.2,0.3
		c-0.9,0.2-1.2,1.7-2.4,1.7c-1.1,0-1.5-1.5-2.4-1.7c-0.9-0.2-3.6,0.2-4.2-0.3c-0.6-0.5,1.5-1.1,1.2-1.6c-0.3-0.4-3.1-1.4-2.9-1.9
		c0.2-0.4,2.9,0.2,3.3-0.1c0.4-0.3-0.9-1.8-0.3-2c0.6-0.1,2.4,1.1,3.2,0.9c0.8-0.1,1.1-1.5,1.9-1.5c0.8,0,1.1,1.4,1.9,1.5
		c0.8,0.1,2.6-1.1,3.2-0.9c0.7,0.2-0.6,1.6-0.3,2C125.6,94,128.4,93.4,128.6,93.8z"/>
	<path fill="#405933" d="M124.8,91.8c-0.8,0.3-2,0.9-2.5,0.8c-0.8-0.1-1.1-1.5-1.9-1.5c-0.8,0-1.1,1.4-1.9,1.5
		c-0.8,0.1-2.6-1.1-3.2-0.9c-0.7,0.2,0.6,1.7,0.3,2c-0.4,0.4-3.2-0.2-3.3,0.1c-0.2,0.5,2.6,1.5,2.9,1.9c0.3,0.5-1.4,1-1.3,1.5
		C119.1,96.8,123.4,94.6,124.8,91.8z"/>
	<g>
		<path fill="#2D4124" d="M119.4,95.2c-0.4,0-0.7-0.2-0.8-0.4c-2.5-4.9,0.1-7.6,0.2-7.7c0.3-0.3,0.8-0.3,1.2-0.1
			c0.4,0.2,0.5,0.6,0.2,0.8c-0.1,0.1-2.2,2.3,0,6.6c0.2,0.3-0.1,0.7-0.5,0.8C119.6,95.2,119.5,95.2,119.4,95.2L119.4,95.2z"/>
	</g>
</g>
</svg>
