<?xml version="1.0" encoding="utf-8"?>
<!-- Generator: Adobe Illustrator 18.0.0, SVG Export Plug-In . SVG Version: 6.00 Build 0)  -->
<!DOCTYPE svg PUBLIC "-//W3C//DTD SVG 1.1//EN" "http://www.w3.org/Graphics/SVG/1.1/DTD/svg11.dtd">
<svg version="1.1" xmlns="http://www.w3.org/2000/svg" xmlns:xlink="http://www.w3.org/1999/xlink" x="0px" y="0px"
	 viewBox="0 0 200 200" enable-background="new 0 0 200 200" xml:space="preserve">
<g id="Lag_2">
</g>
<g id="Lag_1">
	<g>
		<defs>
			<circle id="SVGID_1_" cx="100" cy="100" r="90"/>
		</defs>
		<clipPath id="SVGID_2_">
			<use xlink:href="#SVGID_1_"  overflow="visible"/>
		</clipPath>
		<g clip-path="url(#SVGID_2_)">
			<circle fill="#FFEFA1" cx="100" cy="100" r="95"/>
			<g>
				<g>
					<path fill="#FFE164" d="M108.1,95.9l-10.7-94c-2.8-0.2-5.6-0.3-8.4-0.3c-2.8,0-5.6,0.1-8.4,0.3l23,94H108.1z"/>
					<path fill="#FFE164" d="M108.1,162.2l-10.7,89.6c-2.8,0.2-5.6,0.3-8.4,0.3c-2.8,0-5.6-0.1-8.4-0.3l23-89.6H108.1z"/>
				</g>
				<g>
					<path fill="#FFE164" d="M72.7,126.8L-36,118.4c-0.2,2.8-0.3,5.6-0.3,8.4c0,2.8,0.1,5.6,0.3,8.4l108.7-3.9V126.8z"/>
					<path fill="#FFE164" d="M139,126.8l74.9-8.4c0.2,2.8,0.3,5.6,0.3,8.4c0,2.8-0.1,5.6-0.3,8.4l-74.9-3.9V126.8z"/>
				</g>
				<g>
					<path fill="#FFE164" d="M84,104L6.6,32.5c-2.1,1.8-4.2,3.7-6.2,5.7c-2,2-3.9,4.1-5.7,6.2l86.2,62.8L84,104z"/>
					<path fill="#FFE164" d="M130.9,150.9l52.4,58.4c-1.8,2.1-3.7,4.2-5.7,6.2c-2,2-4.1,3.9-6.2,5.7l-43.7-67L130.9,150.9z"/>
				</g>
				<g>
					<path fill="#FFE164" d="M80.8,150.9l-86.2,58.4c1.8,2.1,3.7,4.2,5.7,6.2c2,2,4.1,3.9,6.2,5.7l77.5-67L80.8,150.9z"/>
					<path fill="#FFE164" d="M127.7,104l43.7-71.5c2.1,1.8,4.2,3.7,6.2,5.7c2,2,3.9,4.1,5.7,6.2l-52.4,62.8L127.7,104z"/>
				</g>
				<g>
					<path fill="#FFE164" d="M95.3,97.5L48.9,8.2c-2.6,0.9-5.3,1.9-7.9,2.9c-2.6,1.1-5.2,2.3-7.7,3.5l57.7,84.7L95.3,97.5z"/>
					<path fill="#FFE164" d="M120.7,158.8l23.9,80.3c-2.5,1.2-5,2.4-7.6,3.5c-2.6,1.1-5.3,2-7.9,2.9l-12.6-85L120.7,158.8z"/>
				</g>
				<g>
					<path fill="#FFE164" d="M74.4,139.6l-104.1,27.2c0.9,2.6,1.9,5.3,2.9,7.9c1.1,2.6,2.3,5.2,3.5,7.7l99.4-38.6L74.4,139.6z"/>
					<path fill="#FFE164" d="M135.6,114.3l65.6-43c1.2,2.5,2.4,5,3.5,7.6c1.1,2.6,2,5.3,2.9,7.9l-70.3,31.7L135.6,114.3z"/>
				</g>
				<g>
					<path fill="#FFE164" d="M76.1,114.3l-99.4-43c-1.2,2.5-2.4,5-3.5,7.7c-1.1,2.6-2,5.3-2.9,7.9l104.1,31.7L76.1,114.3z"/>
					<path fill="#FFE164" d="M137.4,139.6l70.3,27.2c-0.9,2.6-1.9,5.3-2.9,7.9c-1.1,2.6-2.3,5.2-3.5,7.7l-65.6-38.6L137.4,139.6z"/>
				</g>
				<g>
					<path fill="#FFE164" d="M91.1,158.8l-57.7,80.3c2.5,1.2,5,2.4,7.7,3.5c2.6,1.1,5.2,2,7.9,2.9l46.3-85L91.1,158.8z"/>
					<path fill="#FFE164" d="M116.5,97.5L129,8.2c2.6,0.9,5.3,1.9,7.9,2.9c2.6,1.1,5.2,2.3,7.7,3.5l-23.9,84.7L116.5,97.5z"/>
				</g>
				<path fill="#FFE164" d="M142.5,129.7c0,20.2-16.4,36.6-36.6,36.6c-20.2,0-36.6-16.4-36.6-36.6s16.4-36.6,36.6-36.6
					C126.1,93.1,142.5,109.5,142.5,129.7z"/>
			</g>
			<circle fill="none" cx="100.9" cy="101.2" r="93.6"/>
			<g>
				<defs>
					<circle id="SVGID_3_" cx="100.8" cy="101.4" r="96.5"/>
				</defs>
				<clipPath id="SVGID_4_">
					<use xlink:href="#SVGID_3_"  overflow="visible"/>
				</clipPath>
				<g clip-path="url(#SVGID_4_)">
					<g id="flowers">
						<g>
							<rect x="37.1" y="135.1" fill="#8DC63F" width="0.4" height="11.3"/>
							<g>
								<path fill="#FFFFFF" d="M32.7,133.2c1.2-2.2,2.7,0.2,3.7,1.1c-0.4-0.8-1-3.1,0.1-3.6c1.9-0.8,2.2,2,1.3,3
									c0.6-0.6,2.7-2.2,3.4-0.9c1.2,2.1-2,2.2-3,2.1c1.1,0.2,3,2,1.7,3.2c-1.5,1.4-2.5-1.3-3-2.3c-0.2,1.2-0.5,3.3-2.2,2.8
									c-3-0.9-0.2-2.9,0.5-3.5C35.4,135.2,31.3,135.7,32.7,133.2z"/>
								<circle fill="#00AEEF" cx="37.2" cy="134.9" r="0.7"/>
							</g>
						</g>
						<g>
							<rect x="59.5" y="127.8" fill="#8DC63F" width="0.4" height="19.5"/>
							<g>
								<path fill="#FFFFFF" d="M54.9,125.8c0.9-2.4,2.9,0.3,3.9,1.1c-0.4-0.8-1-3.2,0.1-3.6c2.2-0.7,2.2,2,1.3,3
									c0.6-0.6,2.9-1.7,3.5-0.4c1,2-2.2,2-3,1.7c1.1,0.2,3,2,1.7,3.2c-1.5,1.4-2.5-1.3-3-2.3c-0.2,1.2-0.5,3.3-2.2,2.8
									c-3-0.9-0.2-2.9,0.5-3.5C57.8,127.9,54,128.2,54.9,125.8z"/>
								<circle fill="#00AEEF" cx="59.6" cy="127.6" r="0.7"/>
							</g>
						</g>
						<g>
							<rect x="75.8" y="136" fill="#8DC63F" width="0.4" height="11.3"/>
							<g>
								<path fill="#FFFFFF" d="M71.4,134.2c1-1.9,2.6,0.1,3.7,1c-0.4-0.8-1-3.1,0.1-3.6c2-0.9,2.2,2,1.3,3c0.6-0.6,2.6-2.2,3.5-1.1
									c1.6,1.9-2.1,2.6-3,2.3c1.1,0.2,3,2,1.7,3.2c-1.5,1.4-2.5-1.3-3-2.3c-0.2,1.2-0.5,3.3-2.2,2.8c-3-0.9-0.2-2.9,0.5-3.5
									C74.1,136.1,70.4,136.2,71.4,134.2z"/>
								<circle fill="#00AEEF" cx="75.9" cy="135.8" r="0.7"/>
							</g>
						</g>
						<g>
							<rect x="124.9" y="135.7" fill="#8DC63F" width="0.4" height="11.3"/>
							<g>
								<path fill="#FFFFFF" d="M120.3,133.7c0.9-1.9,2.8,0.3,3.9,1.2c-0.4-0.8-1-3.1,0.1-3.6c1.9-0.8,2.2,2,1.3,3
									c0.6-0.6,2.4-2.1,3.1-0.8c1.4,2.4-1.6,2-2.7,2.1c1.1,0.2,3,2,1.7,3.2c-1.5,1.4-2.5-1.3-3-2.3c-0.2,1.2-0.5,3.3-2.2,2.8
									c-3-0.9-0.2-2.9,0.5-3.5C123.2,135.7,119.3,135.8,120.3,133.7z"/>
								<circle fill="#00AEEF" cx="125.1" cy="135.5" r="0.7"/>
							</g>
						</g>
						<g>
							<rect x="148" y="128.7" fill="#8DC63F" width="0.4" height="15"/>
							<g>
								<path fill="#FFFFFF" d="M143.1,127.4c0.4-2.1,3-1.1,4.2,0.5c-0.4-0.8-1.1-3.3,0.1-3.6c2.4-0.5,2.2,2,1.3,3
									c0.6-0.6,2.8-1.6,3.4-0.3c0.8,1.6-1.6,2.2-2.9,1.5c1.1,0.2,3,2,1.7,3.2c-1.5,1.4-2.5-1.3-3-2.3c-0.2,1.2-0.5,3.3-2.2,2.8
									c-3-0.9-0.2-2.9,0.5-3.5C146.3,128.8,142.7,129.6,143.1,127.4z"/>
								<circle fill="#00AEEF" cx="148.1" cy="128.5" r="0.7"/>
							</g>
						</g>
						<g>
							<rect x="173.5" y="133.9" fill="#8DC63F" width="0.4" height="11.3"/>
							<g>
								<path fill="#FFFFFF" d="M168.9,132.4c0.3-2.1,3-0.2,4,0.7c-0.4-0.8-1-3.2,0.1-3.6c2.2-0.8,2.2,2,1.3,3
									c0.6-0.6,2.7-2,3.3-0.7c1.2,2.4-1.6,2-2.8,1.9c1.1,0.2,3,2,1.7,3.2c-1.5,1.4-2.5-1.3-3-2.3c-0.2,1.2-0.5,3.3-2.2,2.8
									c-3-0.9-0.2-2.9,0.5-3.5C171.8,134,168.5,134.8,168.9,132.4z"/>
								<circle fill="#00AEEF" cx="173.7" cy="133.7" r="0.7"/>
							</g>
						</g>
						<g>
							<rect x="199.6" y="129.1" fill="#8DC63F" width="0.4" height="15"/>
							<g>
								<path fill="#FFFFFF" d="M194.7,127.8c0.6-2,3.2-0.4,4.2,0.5c-0.4-0.8-1-3,0.1-3.6c2.1-1,2.2,2,1.3,3c0.6-0.6,2.7-2,3.2-0.6
									c0.7,1.8-1.6,2.1-2.7,1.8c1.1,0.2,3,2,1.7,3.2c-1.5,1.4-2.5-1.3-3-2.3c-0.2,1.2-0.5,3.3-2.2,2.8c-3-0.9-0.2-2.9,0.5-3.5
									C197.9,129.2,194.2,129.6,194.7,127.8z"/>
								<circle fill="#00AEEF" cx="199.8" cy="128.9" r="0.7"/>
							</g>
						</g>
					</g>
					<path id="grass" fill="#8DC63F" d="M4.6,156c-1.9-1.8-1.5-14-1.5-14s2.4,2.4,3.6,4.1c-0.3-2.4,1.5-7.3,3.3-3.4
						c0.1-3.5,4.2-3.1,3.6,0.7c1-0.4,2.2-1.3,3.3-1.6c0.4,1,0.6,2.2,0.5,3.4c0.9-0.4,2.1-0.4,3-0.6c0,0.8,0.6,1.4,0.5,2.3
						c2.1-1.2,4.7-2.8,6.7-0.7c0.7-2.3,3.2-5.8,5.2-2.5c-0.7-3.1,4-4.8,3.8-1.3c1.3-0.5,2.5-1.5,4-1.3c0.5,1.1,0.6,2.5,0.4,3.7
						c1.8-0.3,5.7-2.5,5.1,1.1c1.9-0.6,7.4-2.7,6.5,1.3c0.9-1.7,2.7-2.5,4.4-1.7c-1.2-2.7,1.2-4.6,2.1-1.6c1.1-1.9,3.8-2.9,4.7-0.4
						c1.2-3.1,5.2-2.7,4.6,1c2,0.1,6-0.6,3.4,2.8c1.9-0.8,5-2.5,5.4,0.4c-0.5-3.5,2.6-5.6,4.8-2.4c0.4-2.4,4-5,4.6-1.4
						c1.6-0.7,7.9-4.7,5.9,1c0.7-0.5,1.6-0.3,2.2-0.6c-0.2,0.8,0.1,1.5-0.2,2.4c1.7-1.1,7.5-1.4,4.8,1.8c1.6-0.2,2.7-1.8,4.3-1.1
						c-0.4-1.9,0.7-4.4,2.5-2.2c-0.4-3,4-4.6,4.9-1.3c1-2.4,6.2-5.1,5.8-0.3c1.3-0.8,2.8-1.6,4.4-1.3c0.1,1.2,0.7,1.5-0.2,2.8
						c1.8-0.6,4.5-1,4.1,1.7c1.4-1.6,4.3-2.7,5.4-0.3c1.5-1,4.9-2.2,5.5-0.7c-0.3-1.6-0.1-3.5,1.7-3.5c1.2,2.3,6.8-4.5,7.3,0.9
						c1.5-1.2,5.6-3.3,4.8,0.7c2-0.1,5.4-2.6,5.2,1c1.2-0.1,2.4,0.3,3.3,1.1c0.9-1.5,2.8-3.5,4-1.4c0.7-1.8,3.9-4.6,5-1.4
						c1.4-1,6.5-4.7,5.9,0c2.7-0.4,5.6-3.1,6.5,1.7c1.8-1.3,3.1-0.3,2.7,1.8c2.3,0.1,2.7-1.7,2.4-3.7c1.2-0.5,1.9-0.7,2.7,0.3
						c0,0.3,0,0.3,0,0c0-2.6,3.2-4.4,4.1-1.2c0.5-3.1,7.8-5.3,7.3-1.3c0.5-0.2,1.5,0,2-0.2c-0.2,0.8,0.3,2,0.2,2.7
						c1.4-0.2,2.9-0.5,4.3-0.3c-0.1,0.7,0.2,1.6,0,2.3c-0.3,0.1-0.5,0.1-0.6,0.3c1.5-0.6,6.4-2.6,4.8,0.8c1.1-0.5,2.4-1.1,3.7-0.9
						c0,0.4,0.1,0.9,0.1,1.2c1-1.2,2.2-1.4,2.8,0.1c0.7-0.6,1.2-0.3,1.9-0.6c1.2,2.1,0.6,10.8,0.6,12.9C218.6,158.3,4.6,156,4.6,156
						z"/>
					<g id="ground">
						<path fill="#B77B49" d="M218.6,147.6c0.2,0.2-8.6,2.5-13.3,1.3c-6.2-1.5-11.4-4.6-17.8-2.6c-5.1,1.6-8.1,3.5-13.3,1.5
							c-4.8-1.8-9.5,0.7-14.5,0.5c-5.5-0.2-11.1-2-16.4-1.8c-6,0.3-11.5,2.3-17.6,2c-5.8-0.3-10-1.6-15.8,0
							c-5.3,1.5-13.1,3.2-18.2,1.1c-5.3-2.2-10.2-1.5-15.7-0.3c-6.5,1.4-12.3-1.2-18.8-1.6c-5.9-0.3-11,2.6-16.6,2.5
							c-4.4-0.1-8.5-1.6-13.1-1.3c-2.5,0.2-4.7,1.1-7.2,1.3c-2.5,0.1-4.5-0.3-6.8-0.8c-3.8-0.8-7.6-2.7-11.1,0.1v14.5l216.3,1.8
							L218.6,147.6z"/>
						<path fill="#996C47" d="M218.8,201.7l-216.4,0v-48.8c3.4-2.2,7.3-0.7,11.1,0c2.3,0.4,4.3,0.7,6.8,0.6c2.5-0.1,4.7-0.9,7.2-1
							c4.6-0.2,8.7,0.9,13.1,1c5.6,0.1,10.7-2.2,16.6-2c6.5,0.3,12.3,2.3,18.8,1.2c5.5-0.9,10.4-1.5,15.7,0.2
							c5.2,1.7,12.9,0.3,18.2-0.8c5.8-1.2,10-0.3,15.9,0c6.1,0.3,11.6-1.3,17.6-1.6c5.3-0.2,10.9,1.2,16.4,1.4
							c5,0.2,9.7-1.8,14.5-0.4c5.2,1.5,8.2,0.1,13.3-1.2c6.5-1.6,11.7,0.8,17.9,2c4.8,0.9,12.2-1,13.3-1.3V201.7z"/>
						<g>
							<path fill="#A57653" d="M2.4,169c0,0,18.1-8.1,48,1.8c29.9,10,52,0.3,69.2-2.5c17.7-2.9,60.2-0.8,71.6,0.3
								c11.4,1.1,27.6,1.7,27.6,1.7l0,9.1c0,0-63.3-7-91.5,2.2c-28.2,9.2-85.8-2.4-104.2-7.8c-18.4-5.5-20.5,7.8-20.5,7.8V169z"/>
							<path fill="#A57653" d="M2.4,189.1c0,0,11.2-4.4,41.8,3.3c30.6,7.8,107.7,0,107.7,0s50,0.3,66.8-0.6v6.9
								c0,0-168,7.2-187.5-0.8c-11.1-4.6-28.7,3.1-28.7,3.1V189.1z"/>
							<path fill="#A57653" d="M2.4,160.7c0,0,1.2-0.2,2-0.3c1.6-0.3,4-0.6,7-0.9c3-0.3,6.7-0.4,10.9-0.3c2.1,0,4.3,0.2,6.7,0.4
								c1.2,0.1,2.4,0.3,3.6,0.4c0.6,0.1,1.2,0.2,1.9,0.3c0.6,0.1,1.3,0.2,1.9,0.3c0.3,0,0.6,0.1,1,0.2l0.5,0.1l0.5,0.1
								c0.6,0.1,1.3,0.3,2,0.4c0.7,0.1,1.3,0.3,2,0.4c0.7,0.1,1.3,0.3,2,0.5c0.7,0.2,1.4,0.4,2,0.5c0.7,0.2,1.4,0.3,2.1,0.6
								c1.4,0.4,2.8,0.9,4.2,1.3c2.8,0.9,5.6,1.7,8.6,2.3c3,0.6,6.1,1,9.2,1.2c6.3,0.4,12.8,0,19.4-1c6.6-0.9,13.2-2.4,19.9-4
								c3.3-0.8,6.7-1.6,10-2.3c1.7-0.4,3.4-0.7,5.1-0.9l1.3-0.2l0.3,0l0.1,0l0.1,0l0.2,0l0.6-0.1c0.8-0.1,1.7-0.2,2.5-0.2l1.3-0.1
								c0.4,0,0.8,0,1.3-0.1c0.8,0,1.7-0.1,2.5-0.1c0.8,0,1.7-0.1,2.5-0.1c0.8,0,1.7,0,2.5,0c0.8,0,1.6,0,2.5,0c0.4,0,0.8,0,1.2,0
								c0.4,0,0.8,0,1.2,0c1.6,0,3.2,0,4.8,0c1.6,0,3.2,0.1,4.8,0.1c1.6,0,3.1,0.1,4.7,0.1c3.1,0.1,6.1,0.2,9,0.4
								c2.9,0.1,5.8,0.3,8.5,0.4c2.8,0.2,5.4,0.3,8,0.5c2.6,0.1,5,0.3,7.3,0.5c2.3,0.2,4.5,0.3,6.6,0.4c4.1,0.3,7.8,0.6,10.7,0.8
								c3,0.2,5.3,0.4,6.9,0.5c1.6,0.1,1.9,0.2,1.9,0.2l0.2,4.2c0,0-0.8-0.1-2.4-0.3c-1.6-0.2-3.9-0.4-6.9-0.8
								c-3-0.3-6.6-0.7-10.7-1.1c-2.1-0.2-4.3-0.4-6.6-0.6c-2.3-0.2-4.8-0.4-7.3-0.6c-2.5-0.2-5.2-0.4-7.9-0.6
								c-2.7-0.2-5.6-0.4-8.5-0.6c-2.9-0.2-5.9-0.3-9-0.5c-1.5-0.1-3.1-0.1-4.6-0.2c-1.6-0.1-3.1-0.1-4.7-0.2
								c-1.6,0-3.2-0.1-4.8-0.1c-0.4,0-0.8,0-1.2,0c-0.4,0-0.8,0-1.2,0c-0.8,0-1.6,0-2.4,0c-0.8,0-1.6,0-2.5,0
								c-0.8,0-1.6,0.1-2.5,0.1c-0.8,0-1.6,0.1-2.5,0.1c-0.4,0-0.8,0-1.2,0.1l-1.3,0.1c-0.8,0.1-1.7,0.1-2.5,0.2l-0.6,0.1l-0.2,0
								l-0.1,0c0,0,0,0,0,0l-0.3,0l-1.2,0.2c-1.6,0.3-3.3,0.5-5,0.9c-3.3,0.7-6.6,1.4-10,2.2c-6.7,1.5-13.4,3-20.1,4
								c-6.7,1-13.4,1.4-19.8,1c-3.2-0.2-6.4-0.6-9.5-1.1c-0.8-0.1-1.5-0.3-2.3-0.5c-0.4-0.1-0.8-0.2-1.1-0.2
								c-0.4-0.1-0.8-0.2-1.1-0.3c-1.5-0.4-2.9-0.8-4.4-1.3c-5.5-1.8-10.9-2.9-15.9-3.6c-5-0.7-9.6-0.9-13.7-0.8
								c-4.1,0.1-7.6,0.4-10.5,0.8c-2.9,0.4-5.1,0.9-6.6,1.3c-0.7,0.2-2.8,0.5-2.8,0.5V160.7z"/>
						</g>
						<g>
							<ellipse fill="#8C603E" cx="95.3" cy="160.2" rx="2.8" ry="1.4"/>
							<g>
								<ellipse fill="#8C603E" cx="27.6" cy="177.2" rx="2.8" ry="1.4"/>
								<ellipse fill="#8C603E" cx="22" cy="182.1" rx="2.8" ry="1.4"/>
								<ellipse fill="#8C603E" cx="29.2" cy="180.8" rx="1.7" ry="0.8"/>
							</g>
							<g>
								<ellipse fill="#8C603E" cx="161.6" cy="165.2" rx="2.8" ry="1.4"/>
								<ellipse fill="#8C603E" cx="156.1" cy="170.1" rx="2.8" ry="1.4"/>
								<ellipse fill="#8C603E" cx="163.3" cy="168.8" rx="1.7" ry="0.8"/>
							</g>
							<g>
								<ellipse fill="#8C603E" cx="204.7" cy="185.9" rx="2.8" ry="1.4"/>
								<ellipse fill="#8C603E" cx="199.8" cy="184" rx="1.7" ry="0.8"/>
							</g>
							<g>
								<ellipse fill="#8C603E" cx="188.2" cy="157.1" rx="2.8" ry="1.4"/>
								<ellipse fill="#8C603E" cx="193.6" cy="159.7" rx="1.7" ry="0.8"/>
								<ellipse fill="#8C603E" cx="197.8" cy="156.8" rx="2.1" ry="1.1"/>
							</g>
							<g>
								<ellipse fill="#8C603E" cx="47.8" cy="157.3" rx="2.8" ry="1.4"/>
								<ellipse fill="#8C603E" cx="53.2" cy="159.9" rx="1.7" ry="0.8"/>
								<ellipse fill="#8C603E" cx="57.4" cy="157" rx="2.1" ry="1.1"/>
							</g>
							<g>
								<ellipse fill="#8C603E" cx="167" cy="183" rx="2.8" ry="1.4"/>
								<ellipse fill="#8C603E" cx="171.9" cy="191.6" rx="2.8" ry="1.4"/>
								<ellipse fill="#8C603E" cx="165.3" cy="186.6" rx="1.7" ry="0.8"/>
							</g>
							<g>
								<ellipse fill="#8C603E" cx="52.4" cy="190.7" rx="2.8" ry="1.4"/>
								<ellipse fill="#8C603E" cx="58.4" cy="187.7" rx="1.7" ry="0.8"/>
							</g>
							<g>
								<ellipse fill="#8C603E" cx="127.9" cy="159.2" rx="2.8" ry="1.4"/>
								<ellipse fill="#8C603E" cx="134" cy="156.2" rx="1.7" ry="0.8"/>
							</g>
						</g>
					</g>
					<g id="plant">
						<g>
							<path fill="#74AA0C" d="M100.3,52.3c0,0-0.2,0.3-0.7,0.9c-0.4,0.6-1,1.5-1.5,2.8c-0.5,1.2-1.1,2.8-1.5,4.7
								c-0.4,1.9-0.7,4-0.9,6.3c-0.1,2.3-0.2,4.9,0,7.6c0.2,2.7,0.5,5.5,1,8.4c0.5,2.9,1.2,5.8,2.2,8.7c1,2.9,2,6,2.9,9
								c0.7,2.3,1.4,4.6,1.8,6.9c0.2,0.8,0.3,1.6,0.5,2.3c0.7,3.8,1.1,7.6,1.2,11.5c0,4.7-0.2,9.5-0.6,14.2
								c-0.2,2.4-0.4,4.5-0.5,6.4c0,0.5-0.2,3.4-0.2,3.7c0,0.3,0,0.7,0,1c0.1,1.2,0,2.4,0.6,3.6c0.1,0.2-4,1.5-4.5,1.6
								c-0.2-0.5-0.3-0.9-0.4-1.4c-0.2-0.9-0.4-2.2-0.4-3.7c0-0.4,0-0.8,0-1.2c0-0.4,0.3-3.6,0.4-4c0.2-1.9,0.5-4.1,0.8-6.4
								c0.6-4.5,1.1-9.1,1.2-13.7c0-0.7,0-1.5,0-2.2c0-4.1-0.5-8.3-1.3-12.3c-0.4-1.9-0.8-3.7-1.2-5.6c-0.8-3-1.6-6-2.5-9
								c-0.9-3-1.5-6.1-1.9-9.1c-0.4-3-0.6-5.9-0.6-8.6c0-2.7,0.1-5.3,0.4-7.7c0.3-2.4,0.7-4.5,1.2-6.4c0.5-1.9,1.1-3.5,1.7-4.7
								c0.6-1.3,1.2-2.2,1.7-2.8c0.5-0.6,0.7-0.9,0.7-0.9L100.3,52.3z"/>
							<path fill="#699900" d="M99.9,152.3l-0.2-0.5c-0.1-0.4-0.3-0.8-0.4-1.3c-0.2-0.8-0.4-2.2-0.4-3.8l0-1.2
								c0-0.4,0.3-3.6,0.4-4.1l0.8-6.4c0.6-4.3,1.1-9,1.2-13.6c0-0.5,0-0.9,0-1.4c0-0.3,0-0.5,0-0.8c0-3.7-0.4-7.8-1.2-12.3
								c-0.4-1.9-0.8-3.8-1.2-5.6c-0.8-3.3-1.8-6.5-2.5-9c-0.8-2.8-1.4-5.7-1.9-9.1c-0.4-2.9-0.6-5.8-0.6-8.6c0-2.6,0.1-5.2,0.4-7.7
								c0.3-2.4,0.7-4.5,1.2-6.5c0.5-1.7,1.1-3.3,1.8-4.8c0.6-1.2,1.2-2.1,1.7-2.8l1-1.2l0.9,0.7l-0.2,0.3c0,0-0.2,0.3-0.7,0.9
								c-0.4,0.7-1,1.5-1.5,2.7c-0.6,1.4-1.1,3-1.5,4.6c-0.4,1.9-0.7,4-0.9,6.3c-0.2,2.5-0.2,5,0,7.5c0.2,2.7,0.5,5.5,1,8.3
								c0.6,3.2,1.3,6,2.2,8.6c0.8,2.5,1.9,5.7,2.9,9c0.7,2.2,1.4,4.6,1.8,7l0.5,2.3c0.7,3.6,1.1,7.5,1.2,11.5c0,4.4-0.2,9-0.6,14.2
								l-0.5,6.4c0,0.5-0.2,3.3-0.2,3.7l0,1.4c0,1.1,0.1,2,0.5,3l0.1,0.2l-0.1,0.2c-0.1,0.2-0.3,0.4-3.7,1.5c-0.5,0.2-0.9,0.3-1,0.3
								L99.9,152.3z M96.5,59.5c-0.1,0.4-0.2,0.7-0.3,1.1c-0.5,1.9-0.9,4-1.2,6.4c-0.3,2.5-0.4,5.1-0.4,7.7c0,2.8,0.2,5.7,0.6,8.6
								c0.4,3.3,1,6.3,1.9,9c0.7,2.5,1.7,5.8,2.5,9c0.5,1.8,0.9,3.7,1.2,5.6c0.9,4.6,1.3,8.6,1.3,12.4c0,0.3,0,0.5,0,0.8
								c0,0.5,0,1,0,1.4c-0.1,4.7-0.6,9.3-1.2,13.7l-0.8,6.4c-0.1,0.5-0.4,3.6-0.4,4l0,1.2c0,1.6,0.2,2.9,0.4,3.6
								c0.1,0.3,0.2,0.7,0.3,1c0.2-0.1,0.4-0.1,0.7-0.2c0.8-0.3,2.5-0.8,3.1-1.1c-0.4-1-0.4-2-0.5-3l0-1.4c0-0.4,0.2-3.3,0.2-3.7
								l0.5-6.4c0.4-5.2,0.6-9.8,0.6-14.1c-0.1-4-0.5-7.8-1.2-11.4l-0.5-2.3c-0.5-2.3-1.2-4.7-1.8-6.9c-1-3.3-2.1-6.5-2.9-9
								c-0.9-2.6-1.6-5.5-2.2-8.7c-0.5-2.8-0.8-5.7-1-8.4c-0.2-2.5-0.2-5.1,0-7.6c0.2-2.3,0.5-4.5,0.9-6.4
								C96.3,60.2,96.4,59.8,96.5,59.5z"/>
						</g>
						<g id="leaves_2_">
							<g>
								<path fill="#75B200" d="M89.7,113.6c-1.7-1.5-5.9-4.8-8.3-4.2c-3.6,1-2.6,5.7-1.7,8.5c1.7,5.2,6.9,9.9,11.8,12.5
									c2.3,1.2,7,3.4,9.6,2.9c3.1-0.6-0.5-7.7-2.7-10.1C98.4,123.3,92.2,115.9,89.7,113.6z"/>
								<g>
									<g>
										<circle fill="#C9EF7F" cx="99.6" cy="129.6" r="0.3"/>
										<circle fill="#C9EF7F" cx="99.5" cy="127.7" r="0.3"/>
										<circle fill="#C9EF7F" cx="99.4" cy="125.7" r="0.3"/>
									</g>
									<g>
										<circle fill="#C9EF7F" cx="98.2" cy="131.2" r="0.3"/>
										<circle fill="#C9EF7F" cx="96.6" cy="131.3" r="0.3"/>
										<circle fill="#C9EF7F" cx="94.8" cy="131.5" r="0.3"/>
									</g>
								</g>
								<g>
									<g>
										<circle fill="#C9EF7F" cx="90.6" cy="120.7" r="0.5"/>
										<circle fill="#C9EF7F" cx="90.6" cy="115.3" r="0.5"/>
										<circle fill="#C9EF7F" cx="90.7" cy="117.9" r="0.5"/>
									</g>
									<g>
										<circle fill="#C9EF7F" cx="86.8" cy="122.8" r="0.5"/>
										<circle fill="#C9EF7F" cx="89.5" cy="122.3" r="0.5"/>
										<circle fill="#C9EF7F" cx="83.9" cy="123.2" r="0.5"/>
									</g>
								</g>
								<path fill="#C9EF7F" d="M100.9,132c-0.1-0.1-0.3-0.2-0.5-0.4l-0.7-6.4l0.3,6c-0.1-0.1-1.2-1-1.7-1.6c-0.5-0.5-1.1-1-1.7-1.6
									c-0.3-0.3-0.5-0.5-0.8-0.8l0.5-6.4l-0.9,6c-0.2-0.2-0.5-0.5-0.7-0.7c-0.6-0.7-1.3-1.3-2-2.1c-0.4-0.4-0.8-0.8-1.2-1.3
									l-0.2-7.7l-0.2,7.3c-0.1-0.1-0.3-0.3-0.4-0.4c-1.3-1.5-2.6-2.9-3.8-4.3c-0.3-0.3-0.5-0.6-0.8-0.9l-0.3-6.1l-0.1,5.6
									c-0.8-0.9-1.5-1.7-2.1-2.5c-1.9-2.3-3.1-3.8-3.1-3.8s1.2,1.6,3.1,3.9c0.6,0.8,1.3,1.6,2.1,2.6l-6.2,0.2l6.6,0.2
									c0.3,0.3,0.5,0.6,0.8,0.9c1.2,1.4,2.5,2.9,3.8,4.4c0.2,0.2,0.4,0.4,0.6,0.6v0l-7.9,1.1l8.3-0.7c0.4,0.4,0.7,0.8,1.1,1.2
									c0.7,0.7,1.3,1.4,2,2.1c0.2,0.2,0.5,0.5,0.7,0.7l-7.3,1l7.7-0.7c0.3,0.3,0.5,0.5,0.8,0.8c0.6,0.6,1.2,1.2,1.7,1.7
									c0.5,0.5,1.6,1.4,1.6,1.5l-5.4,0.5l5.9-0.1c0.2,0.2,0.4,0.4,0.6,0.5c0.7,0.6,1.1,0.9,1.1,0.9l0.3-0.3
									C101.9,132.9,101.6,132.6,100.9,132z"/>
								<path fill="#699900" d="M100.2,133.9L100.2,133.9c-2.9,0-7.2-2.1-8.9-3c-4.4-2.3-10.1-7.1-12-12.8c-1.1-3.3-1.2-5.8-0.3-7.4
									c0.5-0.9,1.2-1.5,2.3-1.8c0.2-0.1,0.5-0.1,0.8-0.1c2.8,0,6.8,3.4,8,4.4c2.5,2.2,8.5,9.4,8.7,9.7c1.8,2,4.7,7.1,3.9,9.5
									c-0.2,0.7-0.7,1.1-1.4,1.3C100.9,133.9,100.6,133.9,100.2,133.9z M82.1,109.8c-0.2,0-0.4,0-0.5,0.1
									c-0.8,0.2-1.4,0.7-1.7,1.3c-0.7,1.4-0.6,3.6,0.4,6.6c1.8,5.5,7.4,10,11.6,12.3c1.3,0.7,5.7,2.9,8.5,2.9h0
									c0.3,0,0.6,0,0.8-0.1c0.4-0.1,0.6-0.3,0.7-0.7c0.6-1.8-1.8-6.6-3.7-8.7c-0.1-0.1-6.2-7.5-8.6-9.6
									C87.3,112.1,84,109.8,82.1,109.8z"/>
							</g>
							<g>
								<path fill="#75B200" d="M114.3,112.5c1.6-1.7,5.5-5.3,8-4.9c3.7,0.7,3,5.5,2.4,8.4c-1.3,5.3-6,10.5-10.7,13.5
									c-2.2,1.4-6.7,3.9-9.3,3.6c-3.1-0.4-0.1-7.7,1.9-10.3C106.4,122.9,112,114.9,114.3,112.5z"/>
								<g>
									<g>
										<circle fill="#C9EF7F" cx="105.9" cy="128.9" r="0.3"/>
										<circle fill="#C9EF7F" cx="105.9" cy="127.1" r="0.3"/>
										<circle fill="#C9EF7F" cx="105.9" cy="125.5" r="0.3"/>
									</g>
									<g>
										<circle fill="#C9EF7F" cx="107.1" cy="130.7" r="0.3"/>
										<circle fill="#C9EF7F" cx="108.6" cy="130.8" r="0.3"/>
										<circle fill="#C9EF7F" cx="110.6" cy="130.9" r="0.3"/>
									</g>
								</g>
								<g>
									<g>
										<circle fill="#C9EF7F" cx="113.9" cy="119.4" r="0.5"/>
										<circle fill="#C9EF7F" cx="113.5" cy="114.2" r="0.5"/>
										<circle fill="#C9EF7F" cx="113.7" cy="116.9" r="0.5"/>
									</g>
									<g>
										<circle fill="#C9EF7F" cx="118.4" cy="121.4" r="0.5"/>
										<circle fill="#C9EF7F" cx="115.6" cy="121.4" r="0.5"/>
										<circle fill="#C9EF7F" cx="121" cy="121.4" r="0.5"/>
									</g>
								</g>
								<path fill="#C9EF7F" d="M112.4,123.3c0.3-0.4,0.6-0.7,0.9-1.1l0,0l8.4-0.1l-8.1-0.3c0.2-0.3,3-4,4-5.5
									c0.3-0.4,0.5-0.7,0.8-1.1l6.5-0.7l-6.2,0.2c0.7-0.9,1.3-1.8,1.8-2.6c1.7-2.5,2.7-4.1,2.7-4.1s-1.1,1.6-2.8,4.1
									c-0.5,0.8-1.1,1.6-1.8,2.5l-0.6-5.4l0.3,6c-0.2,0.3-0.5,0.7-0.8,1.1c-1.1,1.5-3.8,5.1-4,5.4l-0.6-7.5l0.2,8
									c-0.3,0.4-0.6,0.7-0.9,1.1c-0.6,0.8-1.2,1.5-1.8,2.2c-0.2,0.2-0.4,0.4-0.5,0.6l-1.5-5.8l1.1,6.2c-0.3,0.3-0.6,0.7-0.9,1
									c-0.6,0.6-1.1,1.2-1.6,1.8c-0.5,0.5-1.5,1.5-1.5,1.6l0-5.7l-0.4,6.1c-0.2,0.2-1.5,1.5-1.5,1.5l0.3,0.3c0,0,1.3-1.3,1.5-1.5
									l6.2-0.2l-5.8-0.2c0-0.1,1-1.1,1.5-1.6c0.5-0.6,1-1.2,1.6-1.8c0.3-0.3,0.6-0.7,0.8-1l7.6,0.2l-7.2-0.6
									c0.2-0.2,0.4-0.4,0.5-0.6C111.2,124.8,111.9,124.1,112.4,123.3z"/>
								<path fill="#699900" d="M105,133.6c-0.2,0-0.4,0-0.5,0c-0.7-0.1-1.2-0.5-1.5-1.1c-1-2.3,1.4-7.7,3.1-9.9
									c0.2-0.3,5.6-8,7.9-10.4c1.1-1.2,5-5,7.8-5c0.2,0,0.4,0,0.5,0c1.1,0.2,1.9,0.7,2.4,1.6c1,1.5,1.1,4,0.3,7.4
									c-1.4,5.9-6.8,11.1-10.9,13.7C112.3,131,108,133.6,105,133.6z M121.8,108.1c-2,0-5.1,2.6-7.2,4.8
									c-2.3,2.4-7.7,10.2-7.8,10.3c-1.7,2.2-3.7,7.2-3,9c0.2,0.4,0.4,0.5,0.8,0.6c0.1,0,0.3,0,0.4,0c2.8,0,7.3-2.7,8.6-3.6
									c4-2.6,9.2-7.6,10.5-13.2c0.7-3.1,0.7-5.4-0.2-6.7c-0.4-0.6-1-1-1.8-1.2C122,108.1,121.9,108.1,121.8,108.1z"/>
							</g>
						</g>
						<g id="leaves_3_">
							<g>
								<path fill="#75B200" d="M88.7,93c-1.7-1.3-6-4-8.1-3.2c-3.3,1.2-1.9,5.6-0.8,8.1c2,4.7,7.3,8.7,12.1,10.7
									c2.2,0.9,6.8,2.5,9.2,1.8c2.8-0.9-1.1-7.1-3.4-9.2C97.5,101.3,91.2,94.9,88.7,93z"/>
								<g>
									<g>
										<circle fill="#C9EF7F" cx="98.9" cy="106.4" r="0.3"/>
										<circle fill="#C9EF7F" cx="98.7" cy="105.1" r="0.3"/>
										<circle fill="#C9EF7F" cx="98.5" cy="103.6" r="0.3"/>
									</g>
									<g>
										<circle fill="#C9EF7F" cx="98.2" cy="108.7" r="0.3"/>
										<circle fill="#C9EF7F" cx="96.8" cy="109" r="0.3"/>
										<circle fill="#C9EF7F" cx="95.3" cy="109.3" r="0.3"/>
									</g>
								</g>
								<g>
									<g>
										<circle fill="#C9EF7F" cx="90.1" cy="99.5" r="0.5"/>
										<circle fill="#C9EF7F" cx="89.6" cy="94.4" r="0.5"/>
										<circle fill="#C9EF7F" cx="89.9" cy="96.9" r="0.5"/>
									</g>
									<g>
										<circle fill="#C9EF7F" cx="86.6" cy="101.8" r="0.5"/>
										<circle fill="#C9EF7F" cx="88.9" cy="101.2" r="0.5"/>
										<circle fill="#C9EF7F" cx="83.9" cy="102.3" r="0.5"/>
									</g>
								</g>
								<path fill="#C9EF7F" d="M100,108.7l-1.3-5.5l0.8,5.2c0,0-1.1-0.8-1.6-1.2c-0.5-0.4-1.1-0.9-1.8-1.4
									c-0.3-0.2-0.6-0.5-0.9-0.7l-0.1-5.9l-0.3,5.6c-0.2-0.2-0.5-0.4-0.7-0.6c-0.7-0.6-1.3-1.1-2-1.7c-0.4-0.3-0.8-0.7-1.1-1
									l-0.9-7.2l0.5,6.8c-0.2-0.1-0.3-0.3-0.5-0.4c-1.4-1.2-2.7-2.5-4-3.7c-0.3-0.3-0.7-0.7-1-1l-0.6-5.4l0.2,5
									c-0.7-0.7-1.4-1.3-1.9-1.9c-2-2-3.2-3.3-3.2-3.3s1.3,1.4,3.2,3.3c0.6,0.6,1.3,1.3,2,2l-5.6,0.9l5.9-0.6c0.3,0.3,0.7,0.7,1,1
									c1.2,1.2,2.6,2.5,3.9,3.8c0.2,0.2,0.4,0.3,0.6,0.5l-7.3,1.7l7.6-1.4l0,0c0.4,0.3,0.8,0.7,1.1,1c0.7,0.6,1.4,1.2,2,1.8
									c0.2,0.2,0.5,0.4,0.7,0.6l-6.7,1.6l7-1.3c0.3,0.2,0.6,0.5,0.8,0.7c0.6,0.5,1.2,1,1.7,1.4c0.5,0.4,1.6,1.2,1.6,1.2l-5.3,1.2
									l5.7-0.8c0.2,0.2,1.7,1.1,1.7,1.1l0.2-0.3C101.7,109.9,100.2,108.9,100,108.7z"/>
								<path fill="#699900" d="M99.6,111C99.6,111,99.6,111,99.6,111c-2.7,0-6.4-1.4-7.9-2c-4.3-1.8-10.1-5.7-12.3-10.9
									c-1.3-3-1.6-5.3-0.9-6.8c0.4-0.9,1-1.5,2-1.8c0.3-0.1,0.7-0.2,1.1-0.2c2.6,0,6.4,2.6,7.5,3.4c2.5,1.9,8.7,8,8.9,8.3
									c1.9,1.7,5,6.2,4.4,8.6c-0.1,0.7-0.6,1.1-1.2,1.3C100.6,111,100.1,111,99.6,111z M81.4,90.1c-0.3,0-0.5,0-0.8,0.1
									c-0.7,0.3-1.2,0.7-1.5,1.4c-0.6,1.3-0.2,3.5,0.9,6.2c2.1,5,7.7,8.7,11.8,10.4c1.1,0.5,4.9,2,7.6,2c0,0,0,0,0,0
									c0.5,0,0.9-0.1,1.3-0.2c0.4-0.1,0.6-0.3,0.6-0.7c0.4-1.8-2.3-6-4.2-7.8c-0.1-0.1-6.4-6.4-8.9-8.2
									C87.7,92.8,83.9,90.1,81.4,90.1z"/>
							</g>
							<g>
								<path fill="#75B200" d="M112,90.1c1.4-1.6,4.9-5.3,7.1-5c3.5,0.4,3.2,5,2.7,7.7c-0.9,5-5.1,10.1-9.2,13.2
									c-1.9,1.4-6,4.1-8.5,3.9c-2.9-0.2-0.6-7.2,1.2-9.7C105.3,100.2,110,92.5,112,90.1z"/>
								<g>
									<g>
										<circle fill="#C9EF7F" cx="105.2" cy="105.9" r="0.3"/>
										<circle fill="#C9EF7F" cx="105.1" cy="104.5" r="0.3"/>
										<circle fill="#C9EF7F" cx="105" cy="103.1" r="0.3"/>
									</g>
									<g>
										<circle fill="#C9EF7F" cx="106.4" cy="107.4" r="0.3"/>
										<circle fill="#C9EF7F" cx="107.8" cy="107.4" r="0.3"/>
										<circle fill="#C9EF7F" cx="109.4" cy="107.5" r="0.3"/>
									</g>
								</g>
								<g>
									<g>
										<circle fill="#C9EF7F" cx="112.2" cy="96.7" r="0.5"/>
										<circle fill="#C9EF7F" cx="111.4" cy="91.7" r="0.5"/>
										<circle fill="#C9EF7F" cx="111.7" cy="94.2" r="0.5"/>
									</g>
									<g>
										<circle fill="#C9EF7F" cx="116.3" cy="98.2" r="0.5"/>
										<circle fill="#C9EF7F" cx="113.7" cy="98.2" r="0.5"/>
										<circle fill="#C9EF7F" cx="118.8" cy="98" r="0.5"/>
									</g>
								</g>
								<path fill="#C9EF7F" d="M110.9,100.3c0.3-0.4,0.6-0.9,0.9-1.3l7.7-0.4l-7.5,0c0.1-0.2,0.3-0.4,0.4-0.6c1-1.5,2-3.1,2.9-4.6
									c0.1-0.2,0.3-0.4,0.4-0.6l6.3-1.4l-5.9,0.9c0.6-1,1.2-2,1.7-2.9c1.4-2.4,2.3-4,2.3-4s-0.9,1.6-2.4,4
									c-0.5,0.8-1.1,1.8-1.7,2.7l-0.7-5.3l0.4,5.8c-0.2,0.2-0.3,0.5-0.5,0.8c-0.9,1.5-1.9,3-3,4.5c-0.1,0.2-0.2,0.3-0.4,0.5
									l-1.1-6.8l0.8,7.2c-0.3,0.4-0.6,0.8-0.9,1.3c-0.5,0.7-1.1,1.5-1.6,2.2c-0.2,0.2-0.3,0.5-0.5,0.7l-1.6-5.4l1.4,5.8
									c-0.2,0.3-0.5,0.6-0.7,0.9c-0.5,0.6-1,1.2-1.4,1.7c-0.4,0.5-0.8,1-1.2,1.4l-0.5-5.1l0.1,5.6c-0.2,0.3-1.5,1.6-1.5,1.6
									l0.3,0.3c0,0,1.2-1.3,1.4-1.6l0,0l5.7-0.4l-5.4,0c0,0,0.8-1,1.3-1.5c0.4-0.5,0.9-1.1,1.4-1.8c0.2-0.3,0.4-0.6,0.7-0.9
									l7.1-0.4l-6.8,0c0.2-0.2,0.3-0.5,0.5-0.7C109.9,101.8,110.4,101.1,110.9,100.3z"/>
								<path fill="#699900" d="M104.3,110.3c-0.1,0-0.2,0-0.2,0c-0.7,0-1.2-0.4-1.5-1c-1.1-2.1,0.9-7.3,2.3-9.4
									c0.2-0.3,4.7-7.7,6.8-10.1c1.1-1.3,4.9-5.5,7.5-5.1c1,0.1,1.8,0.6,2.4,1.3c1,1.4,1.2,3.7,0.7,6.9c-1,5.6-5.7,10.7-9.4,13.4
									C111.2,107.5,107,110.3,104.3,110.3z M118.9,85.5c-1.8,0-4.7,2.6-6.6,4.9c-2,2.3-6.6,10-6.7,10.1c-1.5,2.1-3.1,6.9-2.3,8.5
									c0.2,0.3,0.4,0.5,0.8,0.5c2.5,0.1,6.9-2.9,8.2-3.8c3.6-2.6,8.2-7.6,9.1-12.9c0.5-2.9,0.3-5.1-0.5-6.2c-0.4-0.6-1-0.9-1.8-1
									C119,85.5,119,85.5,118.9,85.5z"/>
							</g>
						</g>
						<g id="leaves_1_">
							<g>
								<path fill="#75B200" d="M106.8,73.2c1.3-1.4,4.6-4.6,6.6-4.2c3.1,0.5,2.7,4.6,2.1,7c-1,4.5-4.9,8.9-8.9,11.5
									c-1.8,1.2-5.6,3.4-7.8,3.2c-2.6-0.3-0.2-6.5,1.4-8.7C100.3,82.1,104.9,75.3,106.8,73.2z"/>
								<g>
									<g>
										<circle fill="#C9EF7F" cx="99.8" cy="87.7" r="0.3"/>
										<circle fill="#C9EF7F" cx="99.6" cy="86.5" r="0.3"/>
										<circle fill="#C9EF7F" cx="99.5" cy="85.2" r="0.3"/>
									</g>
									<g>
										<circle fill="#C9EF7F" cx="101" cy="88.8" r="0.3"/>
										<circle fill="#C9EF7F" cx="102.3" cy="88.7" r="0.3"/>
										<circle fill="#C9EF7F" cx="103.7" cy="88.7" r="0.3"/>
									</g>
								</g>
								<g>
									<g>
										<circle fill="#C9EF7F" cx="106.4" cy="79.4" r="0.5"/>
										<circle fill="#C9EF7F" cx="106.2" cy="74.6" r="0.5"/>
										<circle fill="#C9EF7F" cx="106.3" cy="76.9" r="0.5"/>
									</g>
									<g>
										<circle fill="#C9EF7F" cx="110.4" cy="80.8" r="0.5"/>
										<circle fill="#C9EF7F" cx="108" cy="80.9" r="0.5"/>
										<circle fill="#C9EF7F" cx="112.6" cy="80.6" r="0.5"/>
									</g>
								</g>
								<path fill="#C9EF7F" d="M105.8,81.9l7.4-0.7l-7.1,0.3v0c0.3-0.4,0.5-0.7,0.8-1.1c1-1.4,1.9-2.7,2.8-4
									c0.1-0.2,0.2-0.4,0.4-0.5l5.7-1.1l-5.4,0.7c0.6-0.9,1.2-1.8,1.7-2.6c1.4-2.1,2.2-3.5,2.2-3.5s-0.9,1.4-2.3,3.5
									c-0.5,0.8-1.1,1.6-1.7,2.5l-0.4-4.9l0,5.4c-0.1,0.2-0.2,0.3-0.4,0.5c-0.9,1.3-1.9,2.6-2.9,4c-0.2,0.3-0.5,0.6-0.7,0.9
									l-0.4-6.6l0.1,7c-0.2,0.2-2.2,2.8-2.3,3l-1.4-4.8l1.1,5.1c-0.3,0.3-0.5,0.6-0.8,0.9c-0.5,0.5-0.9,1.1-1.3,1.5
									c-0.4,0.5-0.8,0.9-1.2,1.3c-0.1,0.1-0.1,0.1-0.2,0.2l-0.5-4.6l0.2,5c-0.1,0.1-0.3,0.3-0.4,0.4c-0.5,0.5-0.8,0.8-0.8,0.8
									l0.2,0.3c0,0,0.3-0.3,0.8-0.8c0.1-0.1,0.2-0.2,0.3-0.3l5.3-0.6l-5,0.2c0.1-0.1,0.1-0.2,0.2-0.2c0.3-0.4,0.7-0.8,1.1-1.3
									c0.4-0.5,0.8-1,1.3-1.5c0.2-0.3,0.5-0.6,0.8-0.9l6.3,0.1l-6.1-0.4C103.7,84.6,105.7,82,105.8,81.9z"/>
								<path fill="#699900" d="M99.5,91.2c-0.2,0-0.5,0-0.7,0c-0.6-0.1-1.1-0.4-1.3-0.9c-0.9-2,1.1-6.5,2.5-8.4
									c0.2-0.3,4.6-6.8,6.5-8.9c0.9-1,4-4.2,6.4-4.4c0.2,0,0.4,0,0.6,0c0.9,0.2,1.6,0.6,2.1,1.3c0.9,1.3,1,3.4,0.4,6.2
									c-1.1,5-5.5,9.5-9,11.8C105.5,88.8,102,91,99.5,91.2z M113,69.4c-1.7,0.1-4.2,2.3-5.9,4.1c-1.9,2-6.4,8.7-6.4,8.8
									c-1.4,1.9-3,6.1-2.4,7.6c0.1,0.3,0.3,0.5,0.7,0.5c0.2,0,0.3,0,0.5,0c2.4-0.2,6-2.5,7-3.2c3.4-2.2,7.7-6.5,8.7-11.3
									c0.6-2.6,0.5-4.5-0.2-5.6c-0.4-0.5-0.9-0.9-1.6-1C113.2,69.3,113.1,69.3,113,69.4z"/>
							</g>
							<g>
								<path fill="#75B200" d="M85.8,75.1c-1.5-1.2-5.3-3.8-7.3-3.2c-3,1-1.9,5-1,7.4c1.7,4.4,6.4,8.1,10.7,10.1
									c2,0.9,6.1,2.5,8.3,2c2.6-0.7-0.8-6.5-2.8-8.5C93.7,82.9,88.1,76.9,85.8,75.1z"/>
								<g>
									<g>
										<circle fill="#C9EF7F" cx="94.9" cy="87.7" r="0.3"/>
										<circle fill="#C9EF7F" cx="94.8" cy="86.4" r="0.3"/>
										<circle fill="#C9EF7F" cx="94.6" cy="85.1" r="0.3"/>
									</g>
									<g>
										<circle fill="#C9EF7F" cx="94.1" cy="89.7" r="0.3"/>
										<circle fill="#C9EF7F" cx="92.8" cy="90" r="0.3"/>
										<circle fill="#C9EF7F" cx="91.5" cy="90.2" r="0.3"/>
									</g>
								</g>
								<g>
									<g>
										<circle fill="#C9EF7F" cx="87.1" cy="80.9" r="0.5"/>
										<circle fill="#C9EF7F" cx="86.8" cy="76.4" r="0.5"/>
										<circle fill="#C9EF7F" cx="87" cy="78.7" r="0.5"/>
									</g>
									<g>
										<circle fill="#C9EF7F" cx="83.5" cy="83.2" r="0.5"/>
										<circle fill="#C9EF7F" cx="85.9" cy="82.7" r="0.5"/>
										<circle fill="#C9EF7F" cx="81.3" cy="83.4" r="0.5"/>
									</g>
								</g>
								<path fill="#C9EF7F" d="M96.4,90.2c-0.2-0.1-0.3-0.2-0.5-0.4l-1.1-5.1l0.6,4.8c0,0-1-0.8-1.5-1.2c-0.5-0.4-1-0.8-1.6-1.3
									c-0.2-0.2-0.4-0.3-0.6-0.5l0-5.6l-0.3,5.3c-0.3-0.2-0.5-0.4-0.8-0.7c-0.6-0.5-1.2-1.1-1.8-1.7c-0.3-0.3-0.7-0.6-1-1
									l-0.6-6.6l0.2,6.3c-0.1-0.1-0.3-0.3-0.4-0.4c-1.2-1.2-2.4-2.4-3.5-3.5c-0.2-0.2-0.4-0.5-0.6-0.7l-0.6-5.2l0.2,4.8
									c-0.7-0.7-1.4-1.4-1.9-2.1c-1.7-1.9-2.8-3.1-2.8-3.1s1.1,1.3,2.8,3.2c0.6,0.6,1.2,1.4,2,2.1l-5.4,0.4l5.7-0.1
									c0.2,0.2,0.4,0.5,0.7,0.7c1.1,1.2,2.3,2.4,3.4,3.6c0.2,0.2,0.6,0.6,0.6,0.6l-6.8,1.2l7-0.9l0.1,0c0.3,0.3,0.6,0.6,0.9,0.9
									c0.6,0.6,1.2,1.1,1.8,1.7c0.3,0.2,0.5,0.5,0.8,0.7L85,87.5l6.6-0.8c0.2,0.2,0.4,0.4,0.6,0.5c0.5,0.5,1.1,0.9,1.5,1.3
									c0.5,0.4,1.4,1.2,1.5,1.2l-4.9,0.9l5.3-0.6c0.2,0.1,0.4,0.3,0.5,0.4c0.6,0.4,0.9,0.7,0.9,0.7l0.2-0.3
									C97.3,90.9,97,90.7,96.4,90.2z"/>
								<path fill="#699900" d="M95.6,91.9C95.6,91.9,95.6,91.9,95.6,91.9c-2.5,0-6-1.5-7.4-2.1c-3.8-1.8-9-5.5-10.9-10.3
									c-1.1-2.8-1.3-4.9-0.6-6.3c0.4-0.8,1-1.3,1.9-1.6c0.3-0.1,0.5-0.1,0.8-0.1c2.4,0,5.8,2.6,6.8,3.4c2.2,1.8,7.7,7.6,7.9,7.9
									c1.6,1.6,4.3,5.9,3.8,8c-0.2,0.6-0.6,1-1.2,1.1C96.4,91.9,96,91.9,95.6,91.9z M79.4,72.2c-0.2,0-0.4,0-0.6,0.1
									c-0.7,0.2-1.1,0.6-1.4,1.2c-0.6,1.2-0.3,3.1,0.6,5.7c1.8,4.6,6.8,8.2,10.5,9.9c1.1,0.5,4.7,2.1,7.1,2.1h0c0.4,0,0.7,0,1-0.1
									c0.3-0.1,0.5-0.3,0.6-0.6c0.4-1.6-1.9-5.6-3.6-7.2c-0.1-0.1-5.6-6.1-7.8-7.8C83.9,73.9,81.1,72.2,79.4,72.2z"/>
							</g>
						</g>
						<g id="leaves">
							<g>
								<path fill="#75B200" d="M105.2,55.9c1.4-1.3,4.8-4.1,6.7-3.6c3,0.7,2.3,4.6,1.6,7c-1.3,4.3-5.4,8.3-9.4,10.6
									c-1.8,1-5.7,3-7.8,2.6c-2.5-0.4,0.2-6.3,2-8.4C98.3,64.1,103.2,57.8,105.2,55.9z"/>
								<g>
									<g>
										<circle fill="#C9EF7F" cx="97.5" cy="68.9" r="0.3"/>
										<circle fill="#C9EF7F" cx="97.4" cy="67.7" r="0.3"/>
										<circle fill="#C9EF7F" cx="97.4" cy="66.4" r="0.3"/>
									</g>
									<g>
										<circle fill="#C9EF7F" cx="98.4" cy="70.6" r="0.3"/>
										<circle fill="#C9EF7F" cx="99.6" cy="70.6" r="0.3"/>
										<circle fill="#C9EF7F" cx="101" cy="70.7" r="0.3"/>
									</g>
								</g>
								<g>
									<g>
										<circle fill="#C9EF7F" cx="104.5" cy="61.9" r="0.4"/>
										<circle fill="#C9EF7F" cx="104.6" cy="57.3" r="0.4"/>
										<circle fill="#C9EF7F" cx="104.5" cy="59.5" r="0.4"/>
									</g>
									<g>
										<circle fill="#C9EF7F" cx="108.2" cy="63.5" r="0.4"/>
										<circle fill="#C9EF7F" cx="105.9" cy="63.5" r="0.4"/>
										<circle fill="#C9EF7F" cx="110.4" cy="63.5" r="0.4"/>
									</g>
								</g>
								<path fill="#C9EF7F" d="M103.3,64.7c0.1-0.2,0.3-0.3,0.4-0.5l7.3-0.2l-7-0.2v0c0.3-0.3,0.6-0.7,0.9-1c1-1.2,2.1-2.5,3-3.7
									c0.1-0.2,0.3-0.3,0.4-0.5l5.6-0.6l-5.3,0.3c0.7-0.9,1.3-1.7,1.9-2.4c1.5-1.9,2.4-3.3,2.4-3.3s-1,1.3-2.5,3.2
									c-0.6,0.7-1.2,1.5-1.8,2.3l0-4.8l-0.3,5.3c-0.1,0.2-0.3,0.3-0.4,0.5c-1,1.2-2,2.4-3,3.7c-0.2,0.3-0.5,0.6-0.7,0.8l0.1-6.4
									l-0.4,6.8c-0.2,0.2-0.3,0.4-0.5,0.6c-0.5,0.6-1.1,1.2-1.6,1.7c-0.1,0.1-0.3,0.3-0.4,0.4l-1-4.7l0.7,5
									c-0.3,0.3-0.6,0.6-0.8,0.9c-0.5,0.5-1,1-1.4,1.4c-0.4,0.4-0.8,0.8-1.2,1.1c-0.1,0.1-0.1,0.1-0.2,0.2l-0.2-4.5l-0.2,4.8
									c-0.2,0.1-1.3,1.1-1.3,1.1l0.2,0.3c0,0,1.1-0.9,1.2-1l5.2-0.2l-4.8-0.1c0.1-0.1,0.1-0.1,0.2-0.2c0.4-0.3,0.8-0.7,1.2-1.2
									c0.4-0.4,0.9-0.9,1.4-1.4c0.3-0.3,0.5-0.6,0.8-0.9l6.1,0.5l-5.9-0.8c0.1-0.1,0.3-0.3,0.4-0.4
									C102.2,65.9,102.7,65.3,103.3,64.7z"/>
								<path fill="#699900" d="M97,72.8c-0.2,0-0.5,0-0.7-0.1c-0.6-0.1-1-0.4-1.2-1c-0.7-2,1.5-6.3,3-8c0.2-0.2,4.9-6.3,6.9-8.2
									c0.9-0.9,4.2-3.8,6.5-3.8c0.2,0,0.4,0,0.6,0.1c0.9,0.2,1.5,0.7,1.9,1.4c0.7,1.3,0.7,3.3-0.1,6.1c-1.4,4.8-6,8.8-9.6,10.8
									C102.9,71,99.4,72.8,97,72.8z M111.5,52.6c-1.6,0-4.3,1.9-6,3.6c-2,1.8-6.8,8.1-6.8,8.1c-1.5,1.7-3.4,5.7-2.8,7.2
									c0.1,0.3,0.3,0.5,0.6,0.5c0.2,0,0.3,0,0.5,0c2.3,0,5.9-2,7-2.6c3.4-1.9,7.9-5.8,9.2-10.4c0.7-2.5,0.8-4.4,0.2-5.5
									c-0.3-0.5-0.8-0.9-1.5-1C111.8,52.6,111.6,52.6,111.5,52.6z"/>
							</g>
							<g>
								<path fill="#75B200" d="M86.6,55.5c-1.2-1.4-4.4-4.5-6.4-4.2c-3,0.5-2.7,4.4-2.2,6.8c0.9,4.4,4.7,8.8,8.4,11.4
									c1.7,1.2,5.4,3.4,7.5,3.3c2.6-0.2,0.3-6.3-1.2-8.5C92.7,64.2,88.4,57.6,86.6,55.5z"/>
								<g>
									<g>
										<circle fill="#C9EF7F" cx="93" cy="68.9" r="0.3"/>
										<circle fill="#C9EF7F" cx="93" cy="67.7" r="0.3"/>
										<circle fill="#C9EF7F" cx="93.1" cy="66.4" r="0.3"/>
									</g>
									<g>
										<circle fill="#C9EF7F" cx="92" cy="70.7" r="0.3"/>
										<circle fill="#C9EF7F" cx="90.8" cy="70.7" r="0.3"/>
										<circle fill="#C9EF7F" cx="89.4" cy="70.8" r="0.3"/>
									</g>
								</g>
								<g>
									<g>
										<circle fill="#C9EF7F" cx="86.8" cy="61.5" r="0.4"/>
										<circle fill="#C9EF7F" cx="87.1" cy="56.9" r="0.4"/>
										<circle fill="#C9EF7F" cx="87" cy="59.1" r="0.4"/>
									</g>
									<g>
										<circle fill="#C9EF7F" cx="83" cy="62.8" r="0.4"/>
										<circle fill="#C9EF7F" cx="85.3" cy="63" r="0.4"/>
										<circle fill="#C9EF7F" cx="80.8" cy="62.6" r="0.4"/>
									</g>
								</g>
								<path fill="#C9EF7F" d="M93.5,71.1l-0.1-5l-0.2,4.6c0,0-0.8-0.9-1.2-1.3c-0.4-0.5-0.8-1-1.3-1.5c-0.2-0.2-0.4-0.5-0.6-0.7
									l1-5.1l-1.3,4.8c-0.2-0.2-0.3-0.4-0.5-0.6c-0.5-0.6-0.9-1.2-1.4-1.9c-0.2-0.2-0.3-0.4-0.5-0.6l0.2-6.8l-0.5,6.4
									c-0.2-0.3-0.4-0.6-0.7-0.9c-1.2-1.6-2.3-3.3-3.3-4.8l0,0l0-0.2l0.4-4.7l-0.7,4.4c-0.5-0.8-1-1.5-1.4-2.1
									c-1.3-2-2.2-3.4-2.2-3.4s0.8,1.4,2.1,3.5c0.4,0.7,0.9,1.4,1.4,2.2l-5-0.3l5.2,0.7l0,0c0.2,0.3,0.4,0.6,0.6,1
									c0.8,1.3,1.7,2.6,2.7,4c0.3,0.4,0.5,0.7,0.8,1.1l0,0l-7-0.4l7.2,0.8c0.1,0.2,0.2,0.3,0.4,0.5c0.5,0.7,0.9,1.3,1.4,1.9
									c0.2,0.2,0.3,0.4,0.5,0.7l-6.1,0.1l6.3,0.2c0.2,0.3,0.4,0.5,0.6,0.7c0.4,0.5,0.9,1.1,1.2,1.5c0.4,0.5,1.2,1.3,1.2,1.4
									l-4.8,0l5.1,0.3c0.2,0.2,1.2,1.3,1.2,1.3l0.2-0.2C94.7,72.4,93.6,71.3,93.5,71.1z"/>
								<path fill="#699900" d="M93.7,73.1C93.7,73.1,93.7,73.1,93.7,73.1c-2.4,0-6-2.3-7.5-3.3c-3.3-2.3-7.6-6.7-8.6-11.6
									c-0.6-2.8-0.4-4.8,0.5-6c0.5-0.7,1.2-1.1,2-1.2c0.1,0,0.2,0,0.3,0c2.3,0,5.5,3.3,6.4,4.4c1.8,2.1,6,8.5,6.2,8.8
									c1.3,1.8,3.1,6.3,2.2,8.2c-0.2,0.5-0.7,0.8-1.3,0.9C93.9,73.1,93.8,73.1,93.7,73.1z M80.5,51.6c-0.1,0-0.2,0-0.2,0
									c-0.7,0.1-1.2,0.4-1.5,0.9c-0.7,1-0.8,2.9-0.3,5.5c0.9,4.6,5,8.9,8.3,11.1c1.1,0.8,4.8,3.2,7.1,3.2c0,0,0,0,0,0
									c0.1,0,0.2,0,0.2,0c0.3,0,0.5-0.2,0.7-0.5c0.7-1.5-0.9-5.6-2.2-7.4c-0.1-0.1-4.3-6.7-6.1-8.7C84.6,53.9,82.1,51.6,80.5,51.6
									z"/>
							</g>
						</g>
						<g id="leaf">
							<path fill="#75B200" d="M104.4,49.3c0.4-1.6,1.2-5.5,0-6.9c-1.8-2-4.6,0.2-6.2,1.7C95.4,47,94,52,93.9,56
								c0,1.9,0.1,5.7,1.3,7.2c1.4,1.8,4.9-2.9,5.7-5.1C101,58.2,103.8,51.6,104.4,49.3z"/>
							<g>
								<g>
									<g>
										<circle fill="#C9EF7F" cx="100.7" cy="51.8" r="0.4"/>
										<circle fill="#C9EF7F" cx="103.7" cy="50.4" r="0.4"/>
										<circle fill="#C9EF7F" cx="102.2" cy="51.1" r="0.4"/>
									</g>
									<g>
										<circle fill="#C9EF7F" cx="97.4" cy="50" r="0.4"/>
										<circle fill="#C9EF7F" cx="98.6" cy="51.5" r="0.4"/>
										<circle fill="#C9EF7F" cx="96.3" cy="48.4" r="0.4"/>
									</g>
								</g>
								<g>
									<g>
										<circle fill="#C9EF7F" cx="95.5" cy="59.9" r="0.3"/>
										<circle fill="#C9EF7F" cx="95" cy="58.9" r="0.3"/>
										<circle fill="#C9EF7F" cx="94.4" cy="57.7" r="0.3"/>
									</g>
									<g>
										<circle fill="#C9EF7F" cx="97.2" cy="61.1" r="0.3"/>
										<circle fill="#C9EF7F" cx="98.2" cy="60.6" r="0.3"/>
										<circle fill="#C9EF7F" cx="99.2" cy="60.2" r="0.3"/>
									</g>
								</g>
								<path fill="#C9EF7F" d="M98.5,54.6c0.2-0.4,0.3-0.9,0.5-1.3l0,0l4.9-2.5l-4.8,2.1c0-0.1,0.1-0.2,0.1-0.3
									c0.6-1.7,1.3-3.3,2-4.9l0.1-0.1l3.7-2.1l-3.7,1.7c0.3-0.8,0.6-1.5,0.9-2.1c0.9-2,1.5-3.3,1.5-3.3s-0.6,1.3-1.5,3.3
									c-0.3,0.6-0.6,1.4-1,2.1l-2.2-4l2,4.3l0,0.1c-0.7,1.5-1.4,3.2-2,4.9c0,0.1-0.1,0.2-0.1,0.4l-3.4-4.6l3.3,5l0,0
									c-0.2,0.4-0.3,0.9-0.5,1.3c-0.3,0.7-0.5,1.3-0.7,2c0,0.1-0.1,0.2-0.1,0.4l-3.2-4.1l3.1,4.5c-0.1,0.4-0.3,0.8-0.4,1.1
									c-0.2,0.6-0.4,1.2-0.5,1.7c-0.2,0.5-0.3,1-0.4,1.4c0,0,0,0,0,0.1l-2.1-4l1.9,4.6c0,0.2-0.1,0.4-0.1,0.5
									c-0.1,0.6-0.2,1-0.2,1l0.3,0.1c0,0,0.1-0.4,0.2-1c0-0.2,0.1-0.3,0.1-0.5l4.6-2.4l-4.5,1.9c0-0.1,0-0.1,0-0.2
									c0.1-0.4,0.2-0.9,0.4-1.4c0.2-0.5,0.3-1.1,0.5-1.7c0.1-0.4,0.2-0.8,0.4-1.2l4.2-1.4L97.7,57c0-0.1,0.1-0.2,0.1-0.4
									C98.1,56,98.3,55.3,98.5,54.6z"/>
							</g>
							<path fill="#699900" d="M96,64.1L96,64.1c-0.4,0-0.8-0.2-1.1-0.6c-1.3-1.7-1.4-5.8-1.4-7.5c0.1-3.7,1.3-9,4.4-12.2
								c1.8-1.8,3.4-2.7,4.7-2.7c0.8,0,1.5,0.3,2,0.9c1.4,1.6,0.4,5.9,0.1,7.2c-0.6,2.4-3.4,8.7-3.5,9C100.5,60.3,97.9,64.1,96,64.1
								z M102.7,41.9c-1.1,0-2.5,0.8-4.2,2.4c-3,3-4.2,8.1-4.2,11.7c-0.1,2.6,0.2,5.8,1.2,7c0.1,0.2,0.3,0.3,0.5,0.3
								c1.3,0,3.8-3.3,4.6-5.3c0-0.1,2.9-6.5,3.5-8.9c0.7-2.5,1-5.5,0.1-6.5C103.7,42.2,103.3,41.9,102.7,41.9z"/>
						</g>
					</g>
					<path id="roots_1_" fill="#603913" d="M137.3,182.6c-0.8-0.8-1.7-1.5-2.6-2.1c-0.9-0.6-1.9-1.1-3-1.5c-1-0.4-2.1-0.7-3.2-0.9
						c-2.2-0.4-4.4-0.7-6.5-1.2c-1.1-0.3-2.1-0.7-2.9-1.3c-0.9-0.6-1.6-1.4-2.2-2.3c-0.6-0.9-1.1-1.9-1.5-2.9c-0.4-1-0.7-2.1-1-3.2
						c-0.3-1.1-0.6-2.1-1-3.2c-0.4-1.1-0.9-2.1-1.5-3c-0.3-0.4-0.5-0.7-0.8-1c-0.6-0.9-1.4-1.7-2.3-2.6c0.2,0.1,0.4,0.2,0.6,0.2
						c2.1,0.9,4.2,1.6,6.5,2c0.9,0.2,1.8,0.3,2.7,0.4c0.9,0.1,1.9,0.2,2.8,0.2c0.6,0.1,1.2,0.1,1.8,0.2c-0.2,0.1,0.6,1.7,0.6,1.7
						c0,0,0,0,0,0c-0.1,0.1-0.1,0.2-0.2,0.3c-0.1,0.2-0.2,0.6-0.1,1c0,0.7,0.4,1.4,0.8,1.9c0.1,0.2,0.3,0.4,0.4,0.6
						c0.2,0.4,0.3,0.9,0.4,1.4c0.1,0.5,0.1,0.9,0.1,1.3c0,0.4,0,0.7,0.1,0.9c0,0.2,0,0.3,0,0.3s0.1-0.5,0.1-1.3c0-0.4,0-0.8-0.1-1.3
						c-0.1-0.5-0.1-1-0.4-1.5c-0.1-0.3-0.3-0.5-0.4-0.7c-0.4-0.6-0.7-1.1-0.7-1.8c0-0.4,0-0.7,0.1-0.8c0,0,0-0.1,0-0.1
						c0,0,0,0,0,0.1c0.5,0.7,1.2,1.3,1.9,1.8c0.3,0.2,0.7,0.4,1,0.5c0.9,0.5,1.9,1,2.8,1.6c0.3,0.2,0.5,0.4,0.7,0.5
						c0.2,0.2,0.4,0.3,0.6,0.4c0.2,0.1,0.3,0.3,0.5,0.4c0.3,0.2,0.4,0.3,0.4,0.3l0-0.1c0,0-0.1-0.1-0.4-0.3
						c-0.1-0.1-0.3-0.2-0.5-0.4c-0.2-0.2-0.4-0.3-0.6-0.5c-0.2-0.2-0.5-0.4-0.7-0.5c-0.6-0.4-1.2-0.8-1.8-1.1
						c-0.3-0.2-0.6-0.4-1-0.5c-0.3-0.2-0.7-0.3-1-0.6c-0.2-0.1-0.4-0.3-0.6-0.5c0.2,0,0.5,0.1,0.7,0.1c0.4,0,0.9,0,1.4,0
						c0.5,0,1,0,1.5,0.1c0.5,0.1,0.9,0.4,1.4,0.7c0.4,0.3,0.8,0.5,1.2,0.7c0.3,0.2,0.7,0.3,0.9,0.3c0.2,0,0.3-0.1,0.3-0.1
						c0,0-0.1,0.1-0.3,0.1c-0.2,0-0.5-0.2-0.9-0.4c-0.3-0.2-0.7-0.5-1.1-0.7c-0.2-0.1-0.4-0.3-0.6-0.4c-0.7-0.4-1.5-0.4-2.3-0.5
						c-0.5,0-1,0-1.4-0.1c-0.4,0-0.7-0.1-0.9-0.1c-0.5-0.2-0.9-0.9-1.2-1.4c-0.2-0.5-0.4-1-0.5-1.6c0.2,0,0.4,0,0.5,0.1
						c0.9,0.1,1.8,0.2,2.7,0.3c0.9,0.1,1.7,0.2,2.5,0.4c0.8,0.2,1.5,0.4,2.1,0.7c1,0.5,1.9,1.1,2.8,1.8c0.7,0.5,1,0.8,1,0.8l0.1-0.1
						c0,0-0.4-0.3-1-0.8c-0.9-0.7-1.8-1.4-2.8-1.9c-0.6-0.3-1.4-0.6-2.2-0.7c-0.8-0.2-1.6-0.3-2.5-0.5c-0.9-0.2-1.8-0.3-2.7-0.4
						c-0.9-0.1-1.8-0.3-2.8-0.4c-0.9-0.1-1.8-0.2-2.8-0.3c-0.4-0.1-0.7-0.1-1.1-0.2c0,0,0.1,0,0.1-0.1c0.6-0.3,1.2-0.6,1.8-0.7
						c0.9-0.2,1.8-0.3,2.7-0.4c1-0.1,2.1,0,3.2,0.2c0.5,0.1,1.1,0.1,1.6,0.2c0.5,0.1,1.1,0.2,1.6,0.3c1,0.2,2,0.3,2.8,0.4
						c0.4,0.1,0.8,0.1,1.1,0.1c0.3,0,0.6,0.1,0.9,0.1c0.5,0,0.8,0,0.8,0s-0.3,0-0.8,0c-0.2,0-0.5,0-0.9-0.1c-0.3,0-0.7-0.1-1.1-0.1
						c-0.8-0.1-1.7-0.3-2.8-0.5c-0.5-0.1-1-0.2-1.6-0.3c-0.3,0-0.5-0.1-0.8-0.1c0.1,0,0.1-0.1,0.2-0.1c0.1,0,0.3-0.1,0.4-0.2
						c0.2,0,0.4-0.1,0.6-0.1c0.9-0.1,2-0.2,3.2-0.2c1.2,0,2.3-0.1,3.2-0.3c0.2-0.1,0.4-0.1,0.6-0.2c0.2-0.1,0.3-0.2,0.4-0.3
						c0,0,0.1-0.1,0.1-0.1c0,0,0-0.1,0-0.1c0-0.1,0-0.1,0-0.1s0,0,0,0.1c0,0,0,0.1,0,0.1c0,0,0,0.1-0.1,0.1
						c-0.1,0.1-0.2,0.2-0.4,0.3c-0.2,0.1-0.4,0.1-0.6,0.2c-0.9,0.2-2,0.2-3.2,0.3c-1.2,0-2.3,0.1-3.2,0.2c-0.2,0-0.4,0.1-0.6,0.1
						c-0.2,0-0.3,0.1-0.4,0.2c-0.1,0.1-0.2,0.1-0.3,0.2c-0.1,0-0.1,0.1-0.1,0.1c-0.2,0-0.4-0.1-0.7-0.1c-0.5-0.1-1.1-0.1-1.6-0.2
						c-0.5-0.1-1.1,0-1.6-0.1c-0.5,0-1,0-1.5,0.1c-0.8,0.1-1.6,0.3-2.4,0.6c-0.3,0.1-0.5,0.2-0.8,0.4c-0.2,0.1-0.4,0.2-0.5,0.3
						c-0.3-0.1-0.7-0.1-1-0.2c-1.5-0.3-3.1-0.8-4.5-1.4c-0.6-0.2-1.2-0.6-1.7-0.8c-0.5-0.3-1-0.5-1.4-0.6c-0.4-0.2-1.1-0.3-1.1-0.3
						c-2-2.5-2.4-6-2.4-6l-5.5,0.8c0.3,1.5,0.3,2.6,0.3,4.3c0,0,0,0-0.1,0.1c-0.3,0.3-0.7,0.7-1.2,1c-1.2,0.9-2.6,1.6-4,2.1
						c-1.9,0.6-4,0.4-6,0.9c-0.7,0.2-1.4,0.4-2.1,0.7l0,0c0,0-0.1,0-0.2,0c-0.1,0-0.3,0-0.5-0.1c-0.2-0.1-0.5-0.1-0.8-0.2
						c-0.3-0.1-0.6-0.2-1-0.2c-0.4,0-0.8,0-1.2,0c-0.4,0-0.9,0-1.4,0.1c-0.5,0.1-1,0.2-1.4,0.3c-0.2,0-0.4,0.1-0.6,0.1
						c0,0-0.1,0-0.3-0.1c-0.2-0.1-0.5-0.2-0.8-0.3c-0.7-0.2-1.5-0.3-2.4-0.4c-0.9-0.1-1.8-0.2-2.4-0.2c-0.3,0-0.6,0-0.8,0
						c-0.2,0-0.3,0-0.3,0s0.1,0,0.3,0c0.2,0,0.5,0,0.8,0.1c0.7,0.1,1.5,0.2,2.4,0.4c0.9,0.1,1.7,0.3,2.4,0.5
						c0.2,0.1,0.3,0.1,0.5,0.2c-0.1,0-0.1,0-0.2,0c-1,0.1-2,0.2-2.9,0.3c-0.9,0.1-1.8,0.1-2.6,0.2c-1.5,0.1-2.5,0.1-2.5,0.1l0,0.4
						c0,0,1,0,2.5-0.1c0.2,0,0.3,0,0.5,0c-0.3,0.1-0.5,0.2-0.9,0.3c-0.3,0.1-0.7,0.2-1.1,0.4c-0.7,0.2-1.4,0.5-2,0.7
						c-0.1,0.1-0.3,0.1-0.4,0.2c-0.1,0.1-0.2,0.1-0.3,0.1c-0.1,0.1-0.2,0.1-0.2,0.1s0.1,0,0.2-0.1c0.1,0,0.2-0.1,0.3-0.1
						c0.1,0,0.2-0.1,0.4-0.1c0.5-0.2,1.3-0.4,2-0.6c0.6-0.2,1.1-0.3,1.7-0.5c0.8-0.3,1.4-0.5,2.3-0.5c0.9-0.1,2-0.2,3-0.3
						c0.5-0.1,1-0.2,1.5-0.3c0.5-0.1,1-0.2,1.4-0.3c1.2-0.2,2.4-0.2,3.5,0.2c0.3,0.1,0.6,0.2,0.8,0.2c0.1,0,0.1,0,0.2,0
						c-0.2,0.1-0.4,0.2-0.5,0.3c-1,0.5-1.9,1.1-2.8,1.7c-0.9,0.6-1.8,1.2-2.7,1.6c-1.8,0.8-3.7,1.2-5.3,1.4
						c-0.4,0.1-0.8,0.1-1.2,0.2c-0.4,0.1-0.7,0.2-1,0.3c-0.6,0.2-1.2,0.3-1.7,0.5c-0.5,0.1-0.8,0.2-1.1,0.2c-0.2,0-0.4,0.1-0.4,0.1
						c0,0,0,0,0.1,0.1c0.1,0,0.2,0,0.3,0c0.3,0,0.6-0.1,1.1-0.2c0.5-0.1,1-0.2,1.7-0.4c0.3-0.1,0.7-0.2,1-0.2
						c0.3-0.1,0.7-0.1,1.2-0.1c0.8-0.1,1.7-0.2,2.6-0.4c0.9-0.2,1.9-0.4,2.9-0.8c1-0.4,1.9-0.9,2.9-1.5c0.9-0.5,1.9-1.1,2.8-1.5
						c1-0.5,1.9-0.8,2.9-1c1.9-0.3,3.8,0,5.6-0.4c-0.2,0.1-0.5,0.3-0.8,0.4c-0.4,0.3-0.7,0.6-1.1,0.9c-0.4,0.3-0.8,0.7-1.2,1
						c-0.4,0.4-0.8,0.7-1.3,1.1c-0.2,0.2-0.4,0.4-0.7,0.5l-0.7,0.5c-0.4,0.3-0.8,0.6-1.2,0.8c-0.1,0-0.2,0-0.3,0
						c-0.3,0-0.6,0-1.1,0.1c-0.2,0-0.5,0-0.7,0.1c-0.2,0-0.5,0.1-0.8,0.1c-0.3,0-0.5,0.1-0.8,0.2c-0.3,0.1-0.6,0.1-0.8,0.2
						c-0.3,0.1-0.6,0.2-0.8,0.3c-0.3,0.1-0.5,0.2-0.8,0.3c-0.5,0.2-1,0.3-1.4,0.5c-0.2,0.1-0.4,0.1-0.6,0.1c-0.2,0-0.3,0.1-0.4,0.1
						c-0.2,0.1-0.4,0.1-0.4,0.1l0,0.1c0,0,0.1,0,0.4-0.1c0.1,0,0.3-0.1,0.5-0.1c0.2,0,0.4-0.1,0.6-0.1c0.4-0.1,0.9-0.3,1.4-0.5
						c0.3-0.1,0.5-0.2,0.8-0.3c0.3-0.1,0.6-0.2,0.8-0.3c0.3-0.1,0.6-0.2,0.8-0.2c0.3-0.1,0.5-0.1,0.8-0.2c0.3,0,0.5-0.1,0.8-0.1
						c0.2,0,0.5,0,0.7-0.1c0.4,0,0.8,0,1.1,0c0,0,0.1,0,0.1,0c0,0,0,0,0,0c-0.5,0.3-1,0.6-1.4,0.9c-0.5,0.3-0.9,0.6-1.3,0.9
						c-0.4,0.3-0.8,0.6-1.2,0.8c-0.4,0.3-0.7,0.5-0.9,0.8c-0.1,0.1-0.3,0.2-0.4,0.3c-0.1,0.1-0.2,0.2-0.3,0.3
						c-0.4,0.4-0.6,0.6-0.6,0.6s0.2-0.2,0.6-0.6c0.1-0.1,0.2-0.2,0.3-0.3c0.1-0.1,0.2-0.2,0.4-0.3c0.3-0.2,0.6-0.5,0.9-0.7
						c0.4-0.3,0.7-0.5,1.2-0.8c0.4-0.3,0.9-0.6,1.3-0.9c0.5-0.3,1-0.6,1.4-0.9c0.5-0.3,1-0.6,1.5-1c0.2-0.2,0.5-0.3,0.7-0.5
						c0.2-0.1,0.4-0.3,0.5-0.4c0,0-0.1,0.6-0.1,0.9c0,0.2,0,0.4-0.1,0.6c0,0.2-0.1,0.4-0.2,0.6c-0.1,0.2-0.2,0.4-0.3,0.6l-0.2,0.3
						l-0.2,0.3c-0.2,0.2-0.4,0.3-0.5,0.5c-0.2,0.2-0.4,0.3-0.5,0.5c-0.1,0.2-0.3,0.3-0.4,0.5c-0.1,0.2-0.2,0.3-0.3,0.5
						c-0.4,0.6-0.7,1-0.7,1s0.3-0.4,0.7-1c0.1-0.2,0.2-0.3,0.3-0.5c0.1-0.2,0.3-0.3,0.4-0.5c0.2-0.2,0.3-0.3,0.5-0.5
						c0.2-0.2,0.4-0.3,0.5-0.5l0.2-0.3c0,0,0.2-0.3,0.2-0.3c0.1-0.2,0.2-0.4,0.3-0.6c0.2-0.7,0.3-1.4,0.4-2.1c0-0.1,0-0.2,0-0.2
						c0.4-0.4,0.9-0.7,1.3-1.1c0.4-0.4,0.8-0.7,1.2-1c0.4-0.3,0.8-0.6,1.1-0.9c0.4-0.2,0.7-0.4,1-0.6c0.3-0.2,0.6-0.3,0.8-0.4
						c0.1,0,0.1-0.1,0.2-0.1c0.6-0.2,1.2-0.4,1.7-0.7c0.8-0.4,1.5-0.8,2.1-1.2c0,0-0.5,6.7-0.8,8.4c-0.1,0.2-0.3,0.4-0.4,0.6
						c0,0-0.9-0.1-1.4-0.1c-0.6,0-1.2,0.1-2,0.1c-0.8,0.1-1.6,0.2-2.5,0.6c-0.4,0.2-0.9,0.4-1.3,0.7c-0.1,0.1-0.2,0.1-0.3,0.2
						c-0.1,0.1-0.2,0.2-0.3,0.3c-0.2,0.2-0.4,0.4-0.6,0.6c-0.8,0.8-1.4,1.7-2.2,2.6l-0.6,0.6c-0.2,0.2-0.4,0.4-0.7,0.5
						c-0.2,0.2-1.2,0.8-1.5,0.9c-1.1,0.5-2.2,0.9-3.4,1.2c-0.3,0.1-1.8,0.3-1.8,0.3c-0.3,0.1-0.6,0.1-0.9,0.1
						c-0.3,0-0.6,0.1-0.9,0.1c-0.5,0-1,0-1.4,0c0,0-0.1,0-0.2,0c-0.1,0-0.3-0.1-0.6-0.1c-0.5-0.1-1.2-0.3-2.1-0.4
						c-0.4-0.1-0.9-0.2-1.4-0.3c-1.7-0.3-3.4-0.3-5.1,0c-0.3,0.1-0.6,0.1-0.9,0.2c-0.3,0-0.9,0-1.7,0c-0.3,0-0.6,0-0.9,0
						c-0.3,0-0.7,0-1-0.1c-0.7,0-1.5-0.1-2.2-0.1c-0.8,0-1.5-0.1-2.2-0.1c-0.4,0-0.7,0-1-0.1c-0.3,0-0.6,0-0.9,0c-1.1,0-1.9,0-1.9,0
						s0.8,0,1.9,0.1c0.3,0,0.6,0,0.9,0c0.3,0,0.7,0,1,0.1c0.7,0.1,1.5,0.1,2.2,0.2c0.8,0.1,1.5,0.1,2.2,0.2c0.4,0,0.7,0.1,1,0.1
						c0.3,0,0.6,0,0.9,0c0.3,0,0.6,0,0.8,0c-0.6,0.1-1.1,0.2-1.7,0.3c-1.1,0.2-2.1,0.4-3,0.5c-1.8,0.3-2.9,0.5-2.9,0.5
						s1.2-0.2,2.9-0.4c0.1,0,0.3,0,0.5-0.1c0,0.1-0.1,0.1-0.2,0.2c-0.1,0.1-0.2,0.2-0.3,0.3c-0.1,0.1-0.2,0.3-0.4,0.4
						c-0.6,0.6-1.5,1.2-2.4,1.8c-0.4,0.3-0.9,0.6-1.3,1c-0.2,0.2-0.4,0.3-0.6,0.5c-0.2,0.2-0.3,0.3-0.4,0.5
						c-0.1,0.2-0.2,0.3-0.3,0.4c-0.1,0.1-0.2,0.3-0.2,0.4c-0.1,0.2-0.2,0.3-0.2,0.3s0.1-0.1,0.2-0.3c0-0.1,0.1-0.2,0.2-0.4
						c0.1-0.1,0.2-0.3,0.3-0.4c0.1-0.2,0.3-0.3,0.5-0.5c0.2-0.2,0.4-0.3,0.6-0.5c0.4-0.3,0.8-0.6,1.3-0.9c0.9-0.6,1.8-1.2,2.4-1.8
						c0.2-0.1,0.3-0.3,0.4-0.4c0.1-0.1,0.2-0.2,0.3-0.3c0.1-0.2,0.2-0.3,0.2-0.3c0.7-0.1,1.6-0.2,2.4-0.3c0.6-0.1,1.1-0.2,1.7-0.3
						c0.6-0.1,1.2-0.2,1.7-0.3c2.2-0.3,4.3,0,6.4,0.5c0.2,0,0.4,0.1,0.6,0.1c-0.5,0-1,0-1.4,0c-1.1,0.1-2.1,0.2-3.2,0.6
						c-0.5,0.2-0.9,0.4-1.3,0.7c-0.8,0.5-1.5,1-2.1,1.4c-0.6,0.5-1.1,0.9-1.5,1.2c-0.4,0.4-0.7,0.6-0.9,0.8
						c-0.2,0.2-0.3,0.3-0.3,0.3s0.1-0.1,0.4-0.3c0.2-0.2,0.5-0.5,1-0.8c0.9-0.7,2.1-1.6,3.7-2.5c0.4-0.2,0.8-0.4,1.3-0.6
						c0.4-0.1,0.8-0.3,1.2-0.4c0.1,0,0.8,0,0.8-0.1c-0.2,0.3-0.4,0.7-0.7,1.1c-0.3,0.5-0.6,1-0.9,1.6c-0.3,0.6-0.6,1.2-0.9,1.9
						c-0.1,0.3-0.2,0.7-0.4,1c-0.2,0.3-0.3,0.6-0.5,0.9c-0.4,0.6-0.7,1.1-1,1.5c-0.3,0.4-0.5,0.8-0.6,1.1c-0.1,0.3-0.1,0.5-0.1,0.5
						s0-0.2,0.1-0.5c0.1-0.3,0.3-0.7,0.6-1.1c0.3-0.4,0.7-0.9,1.1-1.5c0.2-0.3,0.4-0.6,0.5-0.9c0.2-0.3,0.3-0.7,0.4-1
						c0.2-0.4,0.4-0.8,0.6-1.2c0,0,0,0.7,0,1.2c0,0.5-0.1,1-0.3,1.6c-0.1,0.6-0.4,1.2-0.6,1.8c-0.1,0.3-0.2,0.6-0.3,0.9
						c-0.1,0.3-0.2,0.6-0.2,0.9c0,0.6-0.1,1.2-0.2,1.7c-0.1,0.5-0.2,0.9-0.3,1.2c-0.1,0.3-0.1,0.4-0.1,0.4s0-0.2,0.1-0.4
						c0.1-0.3,0.2-0.7,0.3-1.2c0.1-0.5,0.3-1,0.2-1.7c0-0.3,0.1-0.6,0.2-0.9c0.1-0.3,0.2-0.6,0.4-0.9c0.2-0.6,0.5-1.2,0.6-1.8
						c0.2-0.6,0.3-1.2,0.3-1.7c0.1-0.5,0.1-0.9,0.1-1.2c0-0.2,0-0.3,0-0.4c0-0.1,0.1-0.2,0.1-0.3c0.3-0.6,0.6-1.1,0.9-1.6
						c0.4-0.6,0.7-1.1,0.9-1.3c0.2,0,0.4,0,0.6,0c0.6,0,1.1,0,1.7,0c0.6,0,1.3,0,1.9,0c0.1,0,0.1,0,0.1,0c0.5,0,1,0,1.6,0
						c0.3,0,0.6,0,0.9-0.1c0.3,0,0.6,0,0.9-0.1c0,0,1.5-0.3,1.8-0.3c1.2-0.3,2.4-0.7,3.5-1.2c0.3-0.1,1.3-0.8,1.6-0.9
						c0.2-0.2,0.5-0.4,0.7-0.6l0.6-0.6c0.8-0.9,1.4-1.8,2.2-2.5c0.2-0.2,0.4-0.4,0.5-0.5c0.1-0.1,0.2-0.2,0.3-0.2
						c0.1-0.1,0.2-0.1,0.3-0.2c0.4-0.3,0.8-0.5,1.2-0.6c0.8-0.3,1.6-0.5,2.4-0.6c0.7-0.1,1.4-0.1,1.9-0.1c0.4,0,0.8,0,1,0
						c-0.1,0.2-0.3,0.4-0.4,0.6c-0.6,0.9-1.3,1.7-2,2.5c-0.7,0.8-1.3,1.7-1.9,2.7c-0.6,0.9-1.1,1.9-1.3,3.1
						c-0.2,1.1-0.1,2.2-0.1,3.3c0,0.5,0,1.1-0.1,1.6c-0.1,0.6-0.2,0.8-0.7,1.1c-0.2,0.1-0.4,0.3-0.6,0.4c-0.5,0.4-1.2,0.7-1.8,0.9
						c-0.4,0.1-0.8,0.2-1.2,0.3c-0.9,0.2-1.8,0.3-2.7,0.4c-0.5,0.1-0.9,0.2-1.4,0.3c-0.2,0.1-0.5,0.2-0.7,0.2c0,0-0.1-0.1-0.2-0.1
						c-0.2,0-0.4-0.1-0.6-0.1c-0.3,0-0.6,0-0.9,0c-1,0-1.9-0.1-2.9,0c-0.5,0-0.9,0.1-0.9,0.1s0.3,0,0.9,0c1.2,0,2.5,0.1,3.7,0.1
						c0.3,0,0.5,0,0.6,0.1c0,0,0,0,0,0c-0.1,0-0.2,0.1-0.3,0.1c-0.4,0.2-0.8,0.3-1.1,0.6c-0.3,0.2-0.7,0.4-1,0.6
						c-0.3,0.2-0.5,0.4-0.8,0.6c-0.2,0.2-0.4,0.4-0.5,0.5c-0.3,0.3-0.5,0.4-0.5,0.4l0.1,0.1c0,0,0.2-0.2,0.5-0.4
						c0.2-0.1,0.3-0.3,0.6-0.5c0.2-0.2,0.5-0.3,0.8-0.6c0.3-0.2,0.6-0.4,1-0.6c0.3-0.2,0.7-0.3,1.1-0.5c0.4-0.1,0.8-0.3,1.3-0.4
						c0.1,0,0.2,0,0.3-0.1c-0.3,0.1-0.8,1.1-1.1,1.3c-0.2,0.2-0.8,0.8-0.9,0.9c-0.1,0.1-0.1,0.1-0.2,0.2c0,0.1-0.2,0.3-0.2,0.3
						l0.1,0c0,0,0.2-0.2,0.2-0.3c0-0.1,0.1-0.1,0.2-0.2c0.1-0.1,0.8-0.7,1-0.9c0.2-0.2,0.4-0.3,0.5-0.5c0.1-0.1,0.6-0.8,0.7-0.8
						c0,0,0,0,0-0.1c0.3-0.1,0.6-0.1,0.8-0.2c0.9-0.1,1.8-0.2,2.7-0.3c1.2-0.2,2.1-0.6,3.1-1.2c0.2-0.2,0.7-0.4,0.7-0.5
						c0,0-0.7,1.6-1.8,2.8c-0.2,0.2-0.5,0.5-0.7,0.7c0,0-1.2,0.9-1.8,1.3c-0.9,0.6-1.9,1.1-2.9,1.5c-1,0.4-2,0.8-3,1.3
						c-1,0.5-1.9,1.1-2.7,1.8c-0.4,0.4-0.8,0.8-1.1,1.2c-0.2,0.2-0.3,0.4-0.5,0.7c-0.1,0.1-0.2,0.2-0.2,0.3c0,0.1,0.1,0.2,0.1,0.1
						c0.1-0.1,0.1-0.2,0.2-0.3c0.1-0.2,0.3-0.4,0.5-0.6c0.3-0.4,0.7-0.8,1.1-1.1c0.8-0.7,1.7-1.3,2.7-1.7c1-0.5,2-0.8,3-1.2
						c1-0.4,2-0.9,2.9-1.5c0.3-0.2,0.6-0.4,0.9-0.6c-0.1,0.1-0.2,0.3-0.3,0.4c-0.3,0.5-0.6,1-0.9,1.6c-0.3,0.6-0.5,1.3-0.6,2
						c0,0.4-0.1,0.7-0.1,1.1c0,0.3,0,0.7,0,1c0,0.3,0,0.7-0.1,1c0,0.3-0.1,0.6-0.2,0.8c-0.2,0.5-0.3,0.9-0.4,1.2c0,0.2,0,0.5,0,0.5
						c0,0,0.1,0,0.1,0c0,0,0-0.3,0-0.5c0.1-0.3,0.2-0.7,0.4-1.2c0.1-0.3,0.2-0.5,0.2-0.8c0-0.3,0.1-0.6,0.1-1c0-0.3,0-0.7,0.1-1
						c0-0.1,0-0.3,0-0.4c0,0,0,0,0,0.1c0.1,0.1,0.1,0.2,0.2,0.3c0.2,0.2,0.3,0.4,0.5,0.7c0.3,0.4,0.4,0.9,0.5,1.3
						c0,0.2,0,0.3,0.1,0.5c0.1,0.3,0,0.6,0.1,0.8c0,0.2,0,0.8,0,0.8l0.1,0c0,0,0-0.6,0-0.8c0-0.3,0-0.5,0-0.9
						c-0.1-0.6-0.2-1.4-0.5-1.9c-0.3-0.5-0.6-1-0.9-1.4c0,0,0,0,0,0c0,0,0-0.1,0-0.1c0.2-1.4,0.9-2.6,1.5-3.5
						c0.3-0.4,0.7-1.1,1.1-1.4c0.2-0.2,0.4-0.4,0.7-0.6c0.8-0.8,1.4-1.7,1.9-2.7c0.2-0.5,0.4-1,0.5-1.6c0.1-0.6,0.1-1.1,0.2-1.7
						c0-1.1-0.1-2.2,0.1-3.2c0.2-1,0.7-2,1.3-2.9c0.2-0.3,0.4-0.6,0.7-1c0,0.2,0,0.4,0,0.5c0,0.2,0,0.4,0,0.6c0,0.2,0,0.5,0.1,0.7
						c0.1,0.5,0.3,0.9,0.5,1.4c0.2,0.5,0.5,0.9,0.9,1.3c0.3,0.4,0.7,0.8,1,1.2c0.1,0.1,0.2,0.2,0.3,0.3c0,0,0,0.2-0.1,0.4
						c-0.2,0.8-0.7,1.6-1,2.4c-0.3,0.5-0.4,1.1-0.5,1.7c-0.1,1.2-0.2,2.4-0.3,3.3c-0.1,0.4-0.2,0.8-0.3,1c-0.1,0.1-0.2,0.3-0.2,0.3
						l0.1,0.2c0,0,0.3-0.2,0.3-0.3c0.1-0.2,0.2-0.6,0.3-1.1c0.2-0.9,0.3-2.1,0.4-3.3c0.1-0.6,0.2-1.1,0.5-1.6
						c0.4-0.8,1.1-2.5,1.1-2.5c0.1,0.2,0.3,0.4,0.4,0.5c0.3,0.4,0.6,0.8,0.8,1.3c0.4,0.8,0.7,1.7,0.7,2.6c0,0.2,0,0.9-0.1,1.1
						c0,0.3-0.1,0.6-0.1,0.8c-0.1,0.5-0.2,0.7-0.2,0.7l0.1,0c0,0,0.1-0.3,0.2-0.7c0-0.2,0.1-0.5,0.1-0.8c0-0.2,0.1-0.9,0.1-1.1
						c0-0.7-0.1-1.3-0.4-2c-0.1-0.2-0.2-0.5-0.3-0.7c-0.2-0.4-0.5-0.9-0.8-1.3c-0.2-0.2-0.4-0.5-0.5-0.7c-0.2-0.2-0.3-0.4-0.5-0.6
						c-0.2-0.3-0.5-0.6-0.7-0.8c0.1,0,0.1,0,0.2,0c0.2,0,0.3,0,0.6,0.1c0.8,0.1,1.7,0.5,2.4,1c0.1,0.1,0.7,0.5,0.8,0.7
						c0.3,0.2,0.5,0.5,0.8,0.8c0.5,0.5,1,1.1,1.6,1.5c0.5,0.4,1.1,0.7,1.7,1c0.5,0.2,1,0.4,1.3,0.4c0.2,0,0.5-0.1,0.5-0.1l0-0.1
						c0,0-0.3,0.1-0.5,0.1c-0.3,0-0.8-0.2-1.3-0.4c-0.2-0.1-1.3-0.8-1.6-1c-0.5-0.4-1-1-1.5-1.5c-0.3-0.3-0.5-0.6-0.8-0.8
						c-0.1-0.1-0.7-0.6-0.8-0.7c-0.3-0.2-0.6-0.4-0.9-0.5c-0.7-0.4-1.4-0.6-2.2-0.7c-0.3,0-0.6,0-0.6,0c-0.3-0.4-0.6-0.8-0.8-1.3
						c-0.2-0.4-0.4-0.9-0.5-1.3c-0.1-0.2-0.1-0.4-0.1-0.6c0-0.2,0-0.4,0-0.6c0-0.4,0.1-0.8,0.2-1.1c0-0.1,0-0.1,0.1-0.2
						c0.2-0.3,0.5-0.6,0.8-1c0.7-0.8,1.4-1.6,2.1-2.5c0.6-0.7,1.1-1.5,1.6-2.2c3.6-4.8,2.8-8.7,4.3-9.1c1-0.2,4,2.2,6.2,4.1
						c-0.5,0.3-0.9,0.9-1.2,1.7c0,0,0,0.1-0.1,0.1c0,0-0.3,0.3-0.4,0.4c-0.1,0.1-0.3,0.3-0.4,0.4c-0.7,0.8-1.2,1.7-2,2.4
						c-0.8,0.8-1.8,1.4-2.5,1.8c-0.7,0.5-1.2,0.8-1.2,0.8s0.5-0.3,1.2-0.8c0.4-0.2,0.8-0.5,1.3-0.8c0.2-0.2,0.5-0.3,0.7-0.5
						c0.2,0,0.4,1.7,0.4,1.8c0,0.2,0,0.4,0,0.4h0c0,0,0-0.1,0-0.4c0-0.7,0-1.3-0.3-1.9c0.2-0.1,0.3-0.2,0.4-0.3
						c0.8-0.7,1.4-1.5,2.1-2.3c0.1-0.1,0.2-0.2,0.3-0.4c-0.2,0.6-0.3,1.3-0.4,2c-0.1,1-0.2,2.2-0.2,3.3c0,1.1,0,2.2,0,3.2
						c-0.1,1-0.2,2-0.4,2.7c-0.2,0.8-0.6,1.4-0.8,1.8c-0.1,0.2-0.3,0.3-0.3,0.4c0,0,0.1,0.3,0.1,0.3c0,0,0.3-0.4,0.5-0.6
						c0.3-0.4,0.7-1,1-1.8c0.3-0.8,0.5-1.8,0.6-2.8c0.1-1,0.2-3.4,0.2-3.5c0.1,0.1,0.2,0.3,0.3,0.5c0.3,0.4,1.1,2,1.2,2.3
						c0.1,0.3,0.1,0.6,0.2,0.9c0.1,0.7,0.2,1.3,0.2,1.9c0,0.6,0,1.2,0,1.7c0,0.2,0,0.5,0,0.7c0,0.2,0,0.4,0,0.5
						c0,0.1-0.1,0.4-0.1,0.4c0,0,0.1-0.3,0.2-0.4c0.1-0.1,0.1-0.3,0.1-0.5c0-0.2,0.1-0.4,0.1-0.7c0-0.2,0-0.5,0.1-0.8
						c0-0.3,0-0.6,0-0.9c0-0.6-0.1-1.3-0.2-1.9c0-0.3-0.1-0.7-0.2-1c-0.1-0.3-1-2-1.2-2.4c-0.3-0.4-0.5-0.7-0.6-0.9
						c0.1-0.8,0.1-1.5,0.3-2.3c0.1-0.5,0.2-1,0.3-1.4c0.1-0.4,0.2-0.9,0.4-1.2c0.1-0.4,0.3-0.7,0.5-0.9c0.2-0.2,0.3-0.4,0.5-0.5
						c0,0,0,0,0,0c0.4,0.3,0.7,0.6,1,0.9c0.4,0.6,0.7,1.3,0.9,2c0.3,0.8,0.6,1.6,0.8,2.5c0,0.2-0.1,0.4-0.2,0.5
						c-0.1,0.2-0.2,0.5-0.3,0.9c-0.1,0.4-0.2,0.9-0.2,1.5c0,0.6,0,1.2,0,1.9c0,0.7,0.1,1.4,0.2,2.2c0.1,0.8,0.1,1.6,0.1,2.4
						c0,0.2-0.1,1.1-0.2,1.3c-0.1,0.4-0.2,0.9-0.2,1.3c0,0.2-0.1,0.3-0.1,0.5c0,0-0.4,0.2-0.6,0.4c-0.4,0.3-0.8,0.9-1.2,1.6
						c-0.2,0.4-0.4,0.7-0.6,1.2c-0.1,0.2-0.3,1.2-0.4,1.4c-0.1,1-0.1,2.1-0.3,3.1c-0.1,0.5-0.2,1-0.3,1.6c-0.1,0.5-0.3,1-0.5,1.5
						c-0.1,0.2-0.2,0.5-0.3,0.7c-0.3,0.6-0.6,1.1-1.1,1.6c-0.3,0.3-0.6,0.5-0.8,0.7c-0.3,0.2-0.5,0.4-0.7,0.5
						c-0.4,0.3-0.6,0.4-0.6,0.4l0.1,0.1c0,0,0.2-0.2,0.6-0.4c0.2-0.1,0.4-0.3,0.7-0.5c0.3-0.2,0.6-0.4,0.8-0.7
						c0.5-0.5,0.9-1,1.2-1.7c0.1-0.2,0.2-0.4,0.3-0.7c0.2-0.4,0.3-0.9,0.5-1.3c0.1,0.2,0.2,0.5,0.3,0.8c0.3,0.9,0.5,1.8,0.5,2.7
						c0,0.9-0.1,1.7,0,2.6c0.1,0.4,0.2,0.7,0.3,0.8c0.1,0.1,0.2,0.3,0.2,0.3l0,0c0,0-0.1-0.2-0.2-0.3c-0.1-0.2-0.2-0.5-0.3-0.8
						c-0.1-0.4-0.1-0.8,0-1.2c0-0.5,0.1-0.9,0.1-1.4c0-0.2-0.3-2.3-0.4-2.7c-0.2-0.7-0.3-1.2-0.3-1.2l0,0c0.1-0.4,0.2-0.9,0.3-1.3
						c0.2-1.1,0.1-2.1,0.3-3.1c0-0.2,0.3-1.2,0.4-1.4c0.2-0.4,0.4-0.8,0.6-1.1c0.4-0.7,0.8-1.2,1.1-1.5c0.1-0.1,0.2-0.2,0.3-0.2
						c-0.1,0.6-0.2,1.2-0.3,1.8c-0.1,0.7-0.1,1.4,0,2.1c0,0.2,0.1,0.5,0.1,0.7c0.2,0.7,0.5,1.4,0.9,2c0,0,0.5,0.7,0.6,0.9
						c0.1,0.2,0.3,0.3,0.4,0.5c0.1,0.2,0.3,0.3,0.4,0.5c0,0.1-0.2,0.5-0.3,1c-0.1,0.3-0.2,0.7-0.3,1.1c-0.1,0.8,0,1.7,0,2.5
						c0,0.4,0,0.8,0,1.1c0,0.3-0.2,1-0.2,1l0.1,0.1c0,0,0.2-0.7,0.3-1c0-0.3,0-0.7,0-1.1c0-0.8-0.1-1.7,0-2.4c0.1-0.4,0.2-0.7,0.3-1
						c0.1-0.3,0.2-0.6,0.3-0.8c0.1,0.1,1.1,1.3,1.5,1.9c0.4,0.6,0.7,1.1,0.9,1.6c0.1,0.3,0.5,1.1,0.5,1.3c0.1,0.2,0.2,0.8,0.2,0.9
						c0,0.2,0.1,0.3,0.1,0.3l0.1,0c0,0,0-0.1-0.1-0.3c0-0.1-0.1-0.7-0.2-0.9c-0.1-0.2-0.4-1.1-0.5-1.3c-0.2-0.5-0.5-1.1-0.9-1.6
						c-0.4-0.6-0.8-1.2-1.3-1.8c-0.3-0.3-0.5-0.6-0.8-0.9c-0.1-0.2-0.5-0.6-0.5-0.6c0,0,0.5,0.2,0.7,0.2c0.5,0.1,1,0.2,1.6,0.2
						c0.6,0,1.2,0.1,1.9,0.2c0.8,0.2,1.8,0.7,2.3,1.4c0.2,0.2,0.4,0.4,0.5,0.6c0.1,0.2,0.2,0.4,0.3,0.6c0.1,0.2,0.2,0.3,0.2,0.5
						c0.1,0.3,0.1,0.4,0.1,0.4l0,0c0,0,0-0.2-0.1-0.4c0-0.1-0.1-0.3-0.2-0.5c-0.1-0.2-0.2-0.4-0.3-0.6c-0.1-0.2-0.3-0.4-0.5-0.6
						c-0.3-0.5-0.9-0.9-1.4-1.1c-0.3-0.1-0.6-0.3-0.9-0.4c-0.6-0.2-1.3-0.2-1.9-0.3c-0.6-0.1-1.2-0.1-1.6-0.3
						c-0.2-0.1-0.4-0.1-0.6-0.2c-0.2-0.1-0.7-0.5-0.7-0.5c-0.4-0.6-0.7-1.2-0.8-1.9c-0.1-0.2-0.1-0.4-0.1-0.6c-0.1-0.7-0.1-1.3,0-2
						c0.1-0.9,0.3-1.8,0.5-2.6c0.1-0.4,0.2-0.9,0.3-1.3c0-0.2,0.2-1.1,0.2-1.3c0.1-0.9,0-1.7,0-2.5c0-0.8-0.1-1.5-0.1-2.2
						c0-0.7,0-1.3,0-1.8c0-0.5,0.1-1,0.2-1.4c0.1-0.2,0.1-0.4,0.2-0.5c0.3,0.9,0.5,1.9,0.9,2.8c0.4,1,0.9,2.1,1.6,3
						c0.7,0.9,1.5,1.7,2.4,2.4c0.9,0.6,2,1.1,3.1,1.3c0.1,0,0.1,0,0.2,0c0,0.1,0.1,0.3,0.2,0.5c0.2,0.5,0.4,1.6,0.4,1.7
						c0,0-0.3,0.4-0.4,0.5c-0.5,0.6-1.1,1.1-1.5,1.8c-0.4,0.6-0.4,1.4-0.4,2c0,0.2-0.1,2.2-0.1,2.2c0,0,0,0,0,0
						c0.4-0.9,0.3-2,0.3-2.9c0-0.4,0.2-0.9,0.4-1.2c0.3-0.5,0.8-0.9,1.2-1.3c0.2-0.2,0.4-0.4,0.5-0.5c0,0.1,0,0.2,0,0.4
						c0.1,1.3-0.1,2.6,0,3.8c0.1,0.9,0.4,1.7,0.9,2.5c0.6,1.1,1.6,2.1,2.1,3.3c0.2,0.4,0.2,0.6,0.2,0.6l0.1,0c0,0-0.1-0.2-0.2-0.6
						c-0.3-0.9-0.8-1.6-1.3-2.4c-0.2-0.3-0.4-0.7-0.6-1c-0.4-0.7-0.8-1.6-0.8-2.4c-0.1-0.4-0.1-0.9,0-1.3c0,0,0,0,0,0
						c0.1,0.2,0.3,0.3,0.5,0.5c0.3,0.3,0.8,0.5,1.3,0.6c0.5,0.1,1.1,0.2,1.6,0.2c0.5,0.1,1.1,0.1,1.6,0.2c0.5,0.1,0.9,0.3,1.3,0.4
						c0.4,0.2,0.6,0.4,0.8,0.5c0.2,0.1,0.3,0.2,0.3,0.2l0,0c0,0-0.1-0.1-0.3-0.3c-0.2-0.2-0.5-0.4-0.8-0.6c-0.4-0.2-0.8-0.4-1.3-0.5
						c-0.5-0.1-1-0.2-1.6-0.3c-0.5-0.1-1.1-0.1-1.6-0.3c-0.5-0.1-0.9-0.4-1.2-0.6c-0.3-0.2-0.5-0.5-0.6-0.7c0-0.1-0.1-0.1-0.1-0.1
						c0-0.2,0-0.4,0-0.6c0-0.4,0-0.8,0-1.2c0-0.2,0-0.4,0-0.6c0-0.7-0.2-1.5-0.5-2.1c0-0.1-0.1-0.2-0.1-0.3c2,0.4,4,0.6,6,0.9
						c1.1,0.2,2.2,0.5,3.2,0.8c1,0.4,2,0.8,3,1.4C135.5,181.2,136.4,181.9,137.3,182.6c0.8,0.8,1.5,1.6,2.1,2.5l0,0
						C138.9,184.2,138.1,183.3,137.3,182.6z"/>
				</g>
			</g>
		</g>
	</g>
</g>
</svg>
