<?xml version="1.0" encoding="utf-8"?>
<!-- Generator: Adobe Illustrator 18.0.0, SVG Export Plug-In . SVG Version: 6.00 Build 0)  -->
<!DOCTYPE svg PUBLIC "-//W3C//DTD SVG 1.1//EN" "http://www.w3.org/Graphics/SVG/1.1/DTD/svg11.dtd">
<svg version="1.1" xmlns="http://www.w3.org/2000/svg" xmlns:xlink="http://www.w3.org/1999/xlink" x="0px" y="0px"
	 viewBox="0 0 200 200" enable-background="new 0 0 200 200" xml:space="preserve">
<g id="Lag_2">
</g>
<g id="Lag_1">
	<g>
		<g>
			<path fill="#CAEDE5" d="M190,100c0,32.1-18.8,90-90,90c-49.7,0-90-40.3-90-90s40.3-90,90-90S190,50.3,190,100z"/>
			<g>
				<path fill="#A0BB3A" d="M14.2,127.7C26.3,165,60.7,190,99.9,190c59,0,79.2-39,85.9-62.3H14.2z"/>
				<g>
					<path fill="#88A022" d="M142.7,127.7c11.5,3.5,24.4,8.9,37.6,14.6c0.7-1.5,1.3-2.9,1.9-4.4c-10.5-4.2-20.7-7.5-30.2-10.2H142.7
						z"/>
					<path fill="#88A022" d="M48.4,127.7c-9.5,2.7-19.8,6-30.2,10.2c0.7,1.5,1.4,2.9,2.2,4.3c13.1-5.6,25.9-11,37.3-14.5H48.4z"/>
					<path fill="#88A022" d="M185.8,127.7h-2c0.6,0.2,1.2,0.5,1.8,0.7C185.6,128.2,185.7,127.9,185.8,127.7z"/>
					<path fill="#88A022" d="M14.2,127.7c0.1,0.2,0.2,0.5,0.3,0.7c0.6-0.3,1.2-0.5,1.8-0.7H14.2z"/>
				</g>
			</g>
			<g>
				<path fill="#88A022" d="M102.9,136.4l-0.5-8.8h-3.8l-0.4,8.8c1.3,0,2.6,0,3.9,0C102.4,136.4,102.7,136.4,102.9,136.4z"/>
				<path fill="#88A022" d="M97.5,151.4l-2,38.5c1.4,0.1,2.9,0.1,4.4,0.1c2,0,4-0.1,5.9-0.2l-2-38.5c-0.5,0-1,0-1.6,0
					C100.6,151.4,99,151.4,97.5,151.4z"/>
				<path fill="#88A022" d="M128.8,127.7h-6.9c5.5,2.6,12,6,19,10.3c4.7,0.4,8.8,0.9,12.4,1.5C144.2,134.6,135.9,130.8,128.8,127.7z
					"/>
				<path fill="#88A022" d="M170.4,158.5c1.5-2,2.9-4,4.2-6c-3.6-2.5-7.2-4.8-10.6-6.9c-1.6,0.8-4.3,1.6-8,2.3
					C160.7,151.1,165.5,154.6,170.4,158.5z"/>
				<path fill="#88A022" d="M112.1,127.7h-4.9c2.5,2.4,5.3,5.3,8.3,8.9c2.1,0.1,4.1,0.1,6.1,0.2
					C118.1,133.2,114.9,130.2,112.1,127.7z"/>
				<path fill="#88A022" d="M145,179.9c2.7-1.4,5.2-3,7.6-4.6c-6.4-9.6-12.7-17.9-18.7-25c-2.4,0.2-4.9,0.3-7.5,0.4
					C132.2,158.9,138.5,168.6,145,179.9z"/>
				<path fill="#88A022" d="M78.1,127.7h-6.9c-7.7,3.4-16.9,7.6-27,13.2c3.4-0.9,8.2-1.7,14-2.3C65.6,134,72.3,130.4,78.1,127.7z"/>
				<path fill="#88A022" d="M38.6,144c-4,2.4-8.1,5-12.3,7.8c1.4,2,2.9,3.9,4.4,5.8c4.9-3.8,9.6-7.3,14.2-10.5
					C41.1,146.2,38.8,145.2,38.6,144z"/>
				<path fill="#88A022" d="M50.2,175c2.4,1.6,5,3.1,7.6,4.5c6.2-11.1,12.1-20.8,17.4-28.9c-2.5-0.1-5-0.3-7.3-0.5
					C62.3,157.3,56.3,165.5,50.2,175z"/>
				<path fill="#88A022" d="M93,127.7H88c-2.7,2.5-5.8,5.6-9.1,9.3c2-0.1,4-0.2,6.1-0.2C87.9,133.1,90.6,130,93,127.7z"/>
				<path fill="#7E9327" d="M58.2,138.5c-4.2,2.6-8.6,5.5-13.3,8.7c5.1,1.2,13.1,2.3,22.8,3c3.9-5,7.7-9.4,11.1-13.2
					C71.2,137.3,64.2,137.9,58.2,138.5z"/>
				<path fill="#7E9327" d="M165.7,143.9c0-1.7-4.6-3.2-12.4-4.4c3.5,1.9,7.1,3.9,10.7,6.1C165.1,145.1,165.7,144.5,165.7,143.9z"/>
				<path fill="#7E9327" d="M38.6,143.9c0,0,0,0.1,0,0.1c1.9-1.1,3.8-2.2,5.6-3.2C40.6,141.8,38.6,142.8,38.6,143.9z"/>
				<path fill="#7E9327" d="M102.9,136.4l0.8,14.9c8,0,15.7-0.2,22.7-0.6c-3.9-5.5-7.6-10.2-11-14.2
					C111.4,136.5,107.2,136.5,102.9,136.4z"/>
				<path fill="#7E9327" d="M141,138c-5.8-0.5-12.3-0.9-19.4-1.2c3.8,3.9,8,8.4,12.4,13.6c9-0.6,16.6-1.5,22.1-2.5
					C150.8,144.2,145.7,140.9,141,138z"/>
				<path fill="#7E9327" d="M85.1,136.7c-3.1,3.9-6.4,8.6-9.9,13.9c6.9,0.4,14.4,0.6,22.3,0.7l0.8-14.9
					C93.7,136.5,89.3,136.6,85.1,136.7z"/>
				<path fill="#748419" d="M102.2,136.4c-1.3,0-2.6,0-3.9,0l-0.8,14.9c1.6,0,3.1,0,4.7,0c0.5,0,1,0,1.6,0l-0.8-14.9
					C102.7,136.4,102.4,136.4,102.2,136.4z"/>
				<path fill="#748419" d="M164,145.6c-3.7-2.2-7.2-4.3-10.7-6.1c-3.5-0.6-7.7-1.1-12.4-1.5c4.8,2.9,9.8,6.2,15.1,9.9
					C159.7,147.2,162.4,146.4,164,145.6z"/>
				<path fill="#748419" d="M115.5,136.6c3.4,4,7.1,8.7,11,14.2c2.6-0.1,5.1-0.3,7.5-0.4c-4.4-5.2-8.5-9.7-12.4-13.6
					C119.6,136.7,117.5,136.7,115.5,136.6z"/>
				<path fill="#748419" d="M44.2,140.8c-1.8,1-3.7,2.1-5.6,3.2c0.2,1.1,2.4,2.2,6.3,3.1c4.6-3.2,9-6.1,13.3-8.7
					C52.4,139.2,47.6,140,44.2,140.8z"/>
				<path fill="#748419" d="M79,137c-3.4,3.8-7.2,8.2-11.1,13.2c2.3,0.2,4.8,0.3,7.3,0.5c3.5-5.4,6.9-10,9.9-13.9
					C83,136.8,80.9,136.9,79,137z"/>
			</g>
		</g>
		<g>
			<polygon fill="#83C1CC" points="141.6,96.8 92.1,96.8 102.2,61.4 135.6,61.4 			"/>
			<polygon fill="#BF390F" points="128.6,91 132.7,91 129.8,61.4 125.7,61.4 			"/>
			<path fill="#7C0000" d="M134.6,64.4c-4.5,0-29,0-33.1,0c-4.1,0-4.3-5.5,0-5.5c3.6,0,28.9,0,33.1,0
				C138.9,58.9,139.1,64.4,134.6,64.4z"/>
			<g>
				
					<rect x="90.4" y="93.2" transform="matrix(-0.7681 0.6403 -0.6403 -0.7681 235.2757 104.3347)" fill="#1D859B" width="16.6" height="3.2"/>
				<path fill="#1D859B" d="M99.1,85.2c1.1,1.5,13.5,18,13.5,18c0.5,0.7,1.5,0.8,2.1,0.3l0.6-0.5c0.7-0.5,0.8-1.5,0.3-2.1
					c0,0-12.4-16.4-13.5-18C100.1,80.3,97.2,82.6,99.1,85.2z"/>
			</g>
			<path fill="#282828" d="M55.5,130.7l60.6,0.4l32.3-15.8l6.9-7l-6.1-11.7c0,0-7.4-3.2-20.5-3.2c-13.1,0-22.4,6.6-22.4,6.6l-32,2.6
				l-18.7,13.8L55.5,130.7z"/>
			<circle fill="#BF390F" cx="60.5" cy="132" r="8.4"/>
			<path fill="#3F3F3F" d="M70.9,97.3V63c0-0.8,0.3-1.5,0.9-1.9l2.2-2.2c0.9-0.9,2.3-0.9,3.1,0c0.9,0.9,0.9,2.3,0,3.1l-1.9,1.9v33.4
				H70.9z"/>
			<path fill="#BF390F" d="M109.1,96.7c-8-4.8-42.7-7.8-55-3.1c0,0-5.2,4.9-6.1,7.5c0.4,4.1,4,12.5,6.7,15.7
				c1.8-0.7,3.7-1.1,5.7-1.1c8.6,0,15,6.2,16.2,15.2c0.1,0.7,0.8,1.5,1.8,1.5c1.1,0,22.7,0,22.7,0c0.7,0,1.2-0.5,1-1
				c-0.7-2.4-3.1-9.5-3.1-12.2c0-10.2,12.6-21.6,12.6-21.6L109.1,96.7z"/>
			<g>
				<path fill="#7C0000" d="M66.2,101.6c0-0.8-0.6-1.4-1.4-1.4H48.4c-0.2,0.3-0.3,0.6-0.4,0.9c0.1,0.6,0.2,1.2,0.3,1.9h16.5
					C65.6,103,66.2,102.4,66.2,101.6z"/>
				<path fill="#7C0000" d="M66.2,107.9c0-0.8-0.6-1.4-1.4-1.4H49.4c0.3,0.9,0.7,1.9,1.1,2.8h14.3C65.6,109.3,66.2,108.7,66.2,107.9
					z"/>
			</g>
			<g>
				<path fill="#3F3F3F" d="M154.1,128.6c0.8-3.7,0.6-7.5-0.3-11.1c0.9-1.7,1.2-3.3,0.6-4.7c-0.6-1.3-1.9-2.2-3.8-2.7
					c-2-3.1-4.7-5.7-8-7.6c-0.6-1.9-1.6-3.2-2.9-3.7c-1.3-0.5-2.9-0.2-4.6,0.8c-3.8-0.8-7.5-0.6-11.1,0.3c-1.7-0.9-3.3-1.1-4.7-0.6
					c-1.3,0.6-2.2,1.9-2.7,3.8c-3.1,2-5.7,4.7-7.6,8c-1.9,0.6-3.2,1.6-3.7,2.9c-0.5,1.3-0.2,2.9,0.8,4.6c-0.8,3.7-0.6,7.5,0.3,11.1
					c-0.9,1.7-1.1,3.3-0.6,4.7c0.6,1.3,1.9,2.2,3.8,2.7c2,3.1,4.7,5.7,8,7.6c0.6,1.9,1.6,3.2,2.9,3.7c1.3,0.5,2.9,0.2,4.6-0.8
					c3.7,0.8,7.5,0.6,11.1-0.3c1.7,0.9,3.3,1.2,4.7,0.6c1.3-0.6,2.2-1.9,2.7-3.8c3.1-2,5.7-4.7,7.6-8c1.9-0.6,3.2-1.6,3.7-2.9
					C155.4,131.9,155.1,130.3,154.1,128.6z"/>
				<circle fill="#BF390F" cx="130" cy="123.7" r="9.8"/>
			</g>
			<path fill="#3F3F3F" d="M47.2,132c0,7.3,5.9,13.3,13.3,13.3c7.3,0,13.3-5.9,13.3-13.3c0-0.6,0-1.1-0.1-1.7
				c-0.8-6.5-6.4-11.6-13.1-11.6c-1.8,0-3.6,0.4-5.2,1.1C50.5,121.8,47.2,126.5,47.2,132z M55.5,132c0-2.2,1.4-4,3.3-4.7
				c0.5-0.2,1.1-0.3,1.7-0.3c2.2,0,4.1,1.5,4.7,3.5c0.1,0.5,0.2,1,0.2,1.5c0,2.7-2.2,5-5,5C57.7,136.9,55.5,134.7,55.5,132z"/>
			<path fill="#7C0000" d="M130,94.8c10.6,0,19.8,5.7,24.9,14.2c1.5-2.7-2.1-18.5-10.6-19.7c-7.9-1.1-16.5-1.8-31.2-0.1
				c-7.1,0.8-20.5,21.2-19.6,28.6c0.6,4.9,5.1,11.7,8.3,12.1c-0.4-2-0.7-4.1-0.7-6.2C101.2,107.7,114.1,94.8,130,94.8z"/>
		</g>
	</g>
</g>
</svg>
