<?xml version="1.0" encoding="utf-8"?>
<!-- Generator: Adobe Illustrator 18.0.0, SVG Export Plug-In . SVG Version: 6.00 Build 0)  -->
<!DOCTYPE svg PUBLIC "-//W3C//DTD SVG 1.1//EN" "http://www.w3.org/Graphics/SVG/1.1/DTD/svg11.dtd">
<svg version="1.1" xmlns="http://www.w3.org/2000/svg" xmlns:xlink="http://www.w3.org/1999/xlink" x="0px" y="0px"
	 viewBox="0 0 200 200" enable-background="new 0 0 200 200" xml:space="preserve">
<g id="Lag_2">
</g>
<g id="Lag_1">
	<path fill="#381522" d="M190,101.2c0.6-49.7-39.1-90.5-88.8-91.2C51.5,9.4,10.7,49.1,10,98.8c-0.6,49.7,39.1,90.5,88.8,91.2
		C148.5,190.6,189.4,150.9,190,101.2z"/>
	<g>
		<rect x="99.8" y="113.6" fill="#003C6E" width="0.1" height="1.9"/>
	</g>
	<g>
		<defs>
			<path id="SVGID_1_" d="M190,101.2c0.6-49.7-39.1-90.5-88.8-91.2C51.5,9.4,10.7,49.1,10,98.8c-0.6,49.7,39.1,90.5,88.8,91.2
				C148.5,190.6,189.4,150.9,190,101.2z"/>
		</defs>
		<clipPath id="SVGID_2_">
			<use xlink:href="#SVGID_1_"  overflow="visible"/>
		</clipPath>
		<g clip-path="url(#SVGID_2_)">
			
				<radialGradient id="SVGID_3_" cx="120.625" cy="72.3794" r="11.0905" gradientTransform="matrix(1 0 0 1 15.1895 0)" gradientUnits="userSpaceOnUse">
				<stop  offset="4.854370e-03" style="stop-color:#433E38"/>
				<stop  offset="0.3851" style="stop-color:#645245"/>
				<stop  offset="0.7744" style="stop-color:#806250"/>
				<stop  offset="1" style="stop-color:#8B6854"/>
			</radialGradient>
			<path fill="url(#SVGID_3_)" d="M127.5,74.1c-0.1-5.9,3.7-19.3,12.2-17.2c11.6,2.9,1.2,19.7,0,25.7L127.5,74.1z"/>
			
				<radialGradient id="SVGID_4_" cx="98.5723" cy="68.1694" r="12.1495" gradientTransform="matrix(1 0 0 1 15.1895 0)" gradientUnits="userSpaceOnUse">
				<stop  offset="4.854370e-03" style="stop-color:#433E38"/>
				<stop  offset="0.3851" style="stop-color:#645245"/>
				<stop  offset="0.7744" style="stop-color:#806250"/>
				<stop  offset="1" style="stop-color:#8B6854"/>
			</radialGradient>
			<path fill="url(#SVGID_4_)" d="M104.3,68c-0.7-5.9,6.7-18.1,13.4-16.9c12.6,2.2,3,20.5,3.7,27.9L104.3,68z"/>
			<path fill="#443F38" d="M139.3,64.4c-0.6-1.1-1.8-1.9-3-1.6c-1.4,0.3-1.9,2-2,3.2c-0.1,1.5,0.4,3,0,4.5c-0.3,0.9-1.2,2.3-1,3.3
				c0.9,0.2,2.2-0.8,2.8-1.2c1.8-1.2,3.2-3.7,3.6-5.8C139.9,66,139.7,65.1,139.3,64.4z"/>
			<path fill="#443F38" d="M117.1,59.1c-0.3-0.4-0.8-0.8-1.5-0.9c-1.6-0.2-2.5,1.3-2.9,2.6c-0.4,1.4,0,3,0.3,4.3
				c0.3,1.4,0,2.7,0.1,4c0.5-0.6,1.2-1.1,1.8-1.6c1.6-1.3,2.6-3,2.8-5.1C117.9,61.4,117.8,60,117.1,59.1z"/>
			
				<radialGradient id="SVGID_5_" cx="136.8897" cy="206.2563" r="177.9037" gradientTransform="matrix(1 0 0 1 15.1895 0)" gradientUnits="userSpaceOnUse">
				<stop  offset="4.854370e-03" style="stop-color:#433E38"/>
				<stop  offset="0.3851" style="stop-color:#645245"/>
				<stop  offset="0.7744" style="stop-color:#806250"/>
				<stop  offset="1" style="stop-color:#8B6854"/>
			</radialGradient>
			<path fill="url(#SVGID_5_)" d="M173.7,239.7c-0.8-1.6-1.8-4-3.2-6.1c0-1,0.1-2.1,0.1-3.1c0-5.1,0.4-10.4,0-15.5
				c-0.6-7.1-0.9-14.3-1.4-21.4c-0.6-7.5-0.3-15-0.8-22.4c0-0.2,0-0.4,0-0.6c-0.6-6.5-2.5-13.2-3.7-19.7c-1.2-6.8-2-13.8-3.6-20.6
				c-1.8-7.1-3.2-14.3-5.5-21.2c-2.9-8.9-4.8-17.6-8.8-26.1c-1.2-2.5-2.8-5-4.3-7.3c-5-8.2-14.5-7.4-23-9.1c-8.7-1.8-17.1-5-26-5.9
				c-3.8-0.4-7.7-0.9-11.4-1.8c-3.8-1-7.7-0.4-11.6-1.2c-3.3-0.7-8.1-2.1-11.4-0.8c-6.2,2.5,2.4,5.3,4.9,5.9c4,1.1,7.3,3.7,11.3,4.6
				c4.1,1,7.9,3.5,11.1,6.3c7.1,6.5,12.4,15.5,16.3,24.2c6.8,15.4-1.7,30.6-5.9,45.4c-1,3.6-1.8,7.3-2.1,11.1
				c-0.2,3.4-1.5,7.2,0.7,10.3c1.5,2.1,4.4,3,6.3,0.6c1.3-1.6,1.5-4.4,0.1-6c-1-1.1-1.5-0.5-1-2c0.6-1.7,1.8-3,2.6-4.5
				c0.5-0.9,1-1.8,1.5-2.6c1,0.4,0.6,3.1,0.6,4.1c0,3.2-0.2,6.6-0.5,9.8c-0.7,7.9-1.5,15.8-2.4,23.7c-1.3,11.3-1.6,22.8-3,34.1
				c-0.5,4.3-1.7,11.1,0.5,15.4c-10.1,6-20.7,13.8-18.9,18.7c3,8,19-3.6,23-6.1c2.9-1.9,6-3.6,9.1-5c4.4,1.3,9,2.1,13.6,2.6
				c-3.7,2.9-7,6.2-9,9.8c-6.3,11.6,5.4,7.8,12.3,4.8c5-2.2,9.9-4.7,14.5-7.7c3.8-2.5,8.2-3.7,12.7-5.3c2.4-0.9,4.3-2,6.3-3.6
				c1.5-1.3,3.2-2.6,4.6-4.2c0.3,0.8,0.7,1.6,1,2.4c2.6,7.4,2.4,14.3-0.5,21.5c-3,7.4-10.2,11.3-16.7,15.2c-6,3.6-12.4,6.4-18.7,9.1
				c-11.5,5-23.9,7.9-35.6,12.5c-10.5,4.1-22.9,7.7-30.9,16c-0.6,0.6,0.3,1.3,0.9,1.1c6.8-2,13.1-5.5,19.6-8.3
				c7.3-3.1,14.8-6,22.4-8.6c14.8-5,28.8-9.8,42.8-16.8c11.9-6,22.1-14.3,24.7-28C178.1,251,176.4,245.4,173.7,239.7z"/>
			<g>
				<g>
					<path fill="#CC7100" d="M88.4,136.4c3.7-1.1,5.7-3.1,8.1-5.9c0.1-0.1,0.2,0,0.1,0.1c-1.6,2.1-2.9,3.9-5.3,5
						c-3,1.5-6.8,2.7-10,3.6c0,0,0,0,0-0.1C83.7,138.3,86,137.2,88.4,136.4z"/>
					<path fill="#CC7100" d="M98.3,119c0-1.6,0.1-3.3,0.2-4.9c0.1-1.8-0.6-3.5-0.8-5.3c0.3,1.5,0.8,2.5,1,4c0.2,2.1-0.1,4.2-0.1,6.3
						c0.1,3.5,0.1,6.7-1.2,10c0,0.1-0.2,0-0.2-0.1C98.4,125.7,98.4,122.4,98.3,119z"/>
					<path fill="#CC7100" d="M27.9,103.8c1.6-1.2,3.4-2,5.2-3c2.4-1.4,4.9-2.6,7.4-3.9c0.1,0,0.2,0.1,0.1,0.1
						c-2.1,1.3-4.4,2.5-6.5,3.7c-1.3,0.7-2.5,1.3-3.8,1.9c-0.5,0.2-1.9,1.2-2,1.2c0.1,0,0.1,0.1,0,0.1c-0.1,0-0.2,0-0.3,0
						C27.9,103.9,27.9,103.8,27.9,103.8z"/>
					<path fill="#CC7100" d="M40.2,102.4c2.8-1.7,5.5-3.7,8.4-5.2c0.1,0,0.2,0.1,0.1,0.1c-2.8,1.7-5.5,3.6-8.2,5.4
						c-2.1,1.4-5.3,2.3-6.9,4.3c0,0-0.1,0-0.1,0C34.8,104.8,38.1,103.7,40.2,102.4z"/>
					<path fill="#CC7100" d="M44.5,104.9c2.6-1.2,4.8-2.9,7.2-4.3c0.1,0,0.1,0,0.1,0.1c-2.1,1.4-4,3-6.3,4.1
						c-2.5,1.2-5.5,3.1-8.4,3.4c0,0,0,0,0-0.1C39.6,107.7,42.2,105.9,44.5,104.9z"/>
					<path fill="#CC7100" d="M42.3,110.6c4.5-1.9,8.7-4.7,12.8-7.2c0.1-0.1,0.2,0.1,0.1,0.1c-1.7,1.3-3.6,2.4-5.4,3.5
						C47.4,108.4,44.9,110,42.3,110.6C42.2,110.7,42.2,110.7,42.3,110.6z"/>
					<path fill="#CC7100" d="M47.7,114.4c4.2-2.6,8.5-5,12.3-8.3c0.1-0.1,0.1,0,0.1,0.1C56.6,109.8,52,112,47.7,114.4
						C47.7,114.5,47.6,114.4,47.7,114.4z"/>
					<path fill="#CC7100" d="M57.5,112.7c2.9-1.8,5.8-3.5,8.7-5.3c0.1,0,0.1,0.1,0.1,0.1c-3.1,2.1-6.4,4-9.6,6
						c-1.8,1.1-3.8,2.9-5.9,3.4C53.2,116,55.4,114.1,57.5,112.7z"/>
					<path fill="#CC7100" d="M63.1,116.3c2.9-1.1,5.7-2.6,8.6-3.7c0.1,0,0.1,0.1,0,0.1c-2.3,1-4.5,2.1-6.8,3.1
						c-0.9,0.4-1.9,0.8-2.7,1.1c-1.6,0.6-3.7,0.9-5.1,1.8c0,0-0.1,0,0,0C58.8,117.6,61.3,117,63.1,116.3z"/>
					<path fill="#CC7100" d="M65.9,119.4c2.9-1.3,5.8-2.8,8.3-4.8c0.1-0.1,0.2,0.1,0.1,0.1c-1.6,1.4-3.3,2.5-5.2,3.4
						c-1.3,0.7-2.6,1.3-4,1.9c-1.2,0.5-3.9,1.3-4.6,2.4c0,0-0.1,0-0.1,0C61.3,120.9,64.5,120.1,65.9,119.4z"/>
					<path fill="#CC7100" d="M80,118.3c0.1,0,0.1,0.1,0.1,0.1c-4.8,2.8-9.9,5.4-15.5,6.3c0,0,0,0,0-0.1C70,123.5,75,120.8,80,118.3z
						"/>
					<path fill="#CC7100" d="M82,122.1C82.1,122,82.1,122.1,82,122.1c-4.3,2.6-8.9,4.4-13.7,5.8c0,0,0,0,0-0.1
						C73,126.1,77.5,124.3,82,122.1z"/>
					<path fill="#CC7100" d="M71.7,131.5c5-1.7,10.5-2.1,14.6-6c0.1,0,0.1,0,0.1,0.1C82.6,129.7,76.8,130.1,71.7,131.5
						C71.7,131.6,71.7,131.5,71.7,131.5z"/>
					<path fill="#CC7100" d="M91.1,128.6C91.2,128.6,91.3,128.7,91.1,128.6c-3.9,4.2-9.8,7.1-15.1,9.2c0,0-0.1,0,0,0
						C81.3,135.4,86.8,132.5,91.1,128.6z"/>
					<path fill="#CC7100" d="M33.7,81.5c1.5,2.4,1.9,5.4,2.5,8.1c0.8,3.5,1.6,7,1.5,10.6c0,0.1-0.2,0.1-0.2,0
						c-0.4-3.5-1.2-7-1.9-10.5c-0.5-2.6-0.8-5.8-2-8.2C33.6,81.5,33.7,81.4,33.7,81.5z"/>
					<path fill="#CC7100" d="M42.7,83c0-0.1,0.1-0.2,0.1-0.1c1.3,2.1,1.5,5.2,1.9,7.6c0.7,4.2,0.4,7.8-0.2,12c0,0.1-0.2,0.1-0.2,0
						c0-3.5,0.3-6.9,0-10.5C44,89.2,44,85.5,42.7,83z"/>
					<path fill="#CC7100" d="M49.3,85.4c1.5,5.5,2,11.3,2,17c0,0.2-0.2,0.1-0.2,0c-0.6-5.7-1.1-11.3-1.9-17
						C49.2,85.4,49.3,85.4,49.3,85.4z"/>
					<path fill="#CC7100" d="M56.2,88c0-0.1,0.1-0.1,0.1,0c0.2,2.5,1.1,5.1,1.4,7.7c0.3,3.8-0.1,7.8-0.5,11.6c0,0.1-0.2,0.1-0.2,0
						c-0.1-3.4,0.1-6.8,0.1-10.3C57.1,94,56.2,90.9,56.2,88z"/>
					<path fill="#CC7100" d="M62.3,90c0.3,3.4,1.1,6.8,1.4,10.3c0.3,3.5,0,7.2-0.3,10.7c0,0.1-0.2,0.1-0.2,0
						c-0.2-3.6-0.1-7.1-0.2-10.7C63.1,96.8,62.1,93.4,62.3,90C62.2,89.9,62.3,89.9,62.3,90z"/>
					<path fill="#CC7100" d="M69.5,93.1C69.5,93,69.6,93,69.5,93.1c0.6,6.9,1,14,0.1,20.9c0,0.1-0.2,0.1-0.2,0
						C69.5,107.1,69,99.9,69.5,93.1z"/>
					<path fill="#CC7100" d="M76,96.5c0-0.1,0.1-0.1,0.1,0c0.8,6.8,0.6,13.6-0.2,20.4c0,0.1-0.2,0.1-0.2,0
						C75.3,110.1,76.2,103.3,76,96.5z"/>
					<path fill="#CC7100" d="M82.7,100.5c-0.1-0.2,0.3-0.4,0.4-0.2c2.1,7.1,1.4,15.2,0.2,22.4c0,0.1-0.2,0.1-0.2,0
						C83.7,115.6,84.6,107.5,82.7,100.5z"/>
					<path fill="#CC7100" d="M87.6,102.4C87.6,102.4,87.7,102.4,87.6,102.4c0.5,3.8,0.8,7,0.8,10.9c0,3.5-0.2,6.9-0.4,10.3
						c0,0.1-0.2,0.1-0.2,0C87.7,116.5,88,109.5,87.6,102.4z"/>
					<path fill="#CC7100" d="M93.8,105.5c0-0.1,0.2-0.2,0.3,0c0.9,6.5,0.8,13.2,0.3,19.8c0,0.2-0.2,0.2-0.2,0
						c-0.2-3-0.2-5.9-0.2-8.9C93.8,112.9,93.5,109.1,93.8,105.5z"/>
				</g>
				<path fill="#F08500" d="M29.9,95c-0.3-0.3-0.5-0.6-0.7-0.8c-1.3-1.7-0.5-3.9,1.6-4.3c2-0.4,4.4,1.3,5.9,2.8c0-0.5,0.2-1,0.5-1.4
					c1.8-2.4,5,0,6.3,1.7c0.5,0.7,1,1.5,1.3,2.3c0.1-0.2,0.2-0.3,0.4-0.4c0.3-0.6,1-1,2.2-0.9c1.3,0.1,2.8,1.5,3.6,2.6
					c0.3-0.5,0.9-0.8,1.5-0.8c2.3-0.1,3.3,1.9,4.3,3.6c0.2,0.3,0.3,0.6,0.4,1c0.5-0.9,1.6-1.5,2.6-1.1c1.4,0.6,2.2,1.5,3,2.8
					c0.4,0.6,0.6,1.3,0.8,2c0-0.3,0-0.6,0.1-0.9c0.2-1.2,1.1-1.8,2.3-1.6c2.2,0.4,2.8,3,3.6,4.8c0.1,0.2,0.1,0.3,0.2,0.5
					c0.3-1,1-1.7,2.2-1.7c2.3,0,3.2,2.6,3.8,4.3c0,0,0,0,0,0.1c0.8-1.4,2.6-1.5,4-0.6c1.9,1.1,2.8,2.8,3.3,4.7
					c1.1-0.7,3.1,0,3.9,1.2c0.7,1.1,1.6,2.4,1.6,3.7c0.5-1.7,2.2-2.7,3.8-1.9c1.1,0.6,1.6,2,1.9,3.4c0.5-0.4,1.1-0.7,1.9-0.5
					c1.8,0.3,2.1,2.8,2.3,4.2c0.1,1.4-0.3,2.8-0.5,4.1c-0.1,0.7-0.2,1.4-0.5,1.9c0,0.3-0.1,0.5-0.2,0.7c6.1,4.4,12.3,8.7,18.1,13.4
					c7.1,5.8,12.9,13.4,19.4,19.9c4,4,7,9.4,10.1,14.1c2.1,3.1,4.1,6.6,5.8,9.9c0.4,0.8,2.2,2.6,1.3,3.5c-1,1-2-1-2.5-1.7
					c-1.5-2.2-2.5-4.7-4-6.8c-2.7-3.7-5.6-7.3-8.1-11.1c-5.2-8-12.7-14.8-19.2-21.8c-6.4-6.9-14.8-12-22.6-17.4
					c-0.8,0.8-2,1.4-3,2.1c-1.8,1.1-4.5,2.3-6.4,0.7c-0.9-0.8-1.3-1.9-1.2-3c-1.7,0.5-3.3,0.6-4.7-0.7c-0.7-0.7-0.7-1.6-0.4-2.5
					c-1.9,0.2-3.4-1.8-3.6-3.5c0-0.2,0-0.4,0-0.6c-0.8,0.1-1.5-0.1-2.1-0.7c-0.6-0.6-1-1.4-1-2.3c-0.9,0.2-1.9,0.3-2.6,0.2
					c-1.7-0.2-3-1.4-3-2.9c-1.6,0-3.5-0.5-4.1-2.1c-0.2-0.4-0.2-0.9-0.2-1.3c-1.2,0.2-2.6-0.2-3.4-1.1c-0.6-0.7-0.7-1.6-0.5-2.3
					c-0.3,0-0.6,0.1-0.9,0.2c-1,0.3-2.5,0.6-3.4-0.2c-0.5-0.5-0.6-1-0.6-1.6c-2.7,0.9-6.2,0.8-6.8-1.9c-0.1-0.4-0.1-0.8,0-1.1
					c-0.6,0.2-1.1,0.3-1.7,0.4c-1.2,0.1-2.3-0.9-2.2-2.1c-0.6,0-1.3-0.1-1.8-0.2c-1.2-0.2-2.1-0.7-2.5-2c0,0,0-0.1,0-0.1
					c-0.8,0.3-1.5,0.5-2.3,0.6c-1.7,0.2-3.7,0.4-4.2-1.7c-0.1-0.3-0.1-0.5-0.1-0.7c0,0-0.1,0-0.1,0c-1.7-0.4-4.6-1.4-5-3.4
					C27.5,96.5,28.4,95.5,29.9,95z"/>
				<g>
					<path fill="#FFD5A1" d="M94.7,123.2c0.1-0.7,0-1.5,0.4-2c0.5-0.6,1.4-0.7,2-0.2c0.7,0.5,0.6,1.5,0.4,2.3
						c-0.2,1.2-0.4,2.4-0.6,3.6c-0.1,0.5-0.5,0.7-1,0.7c0,0,0.1,0,0.1,0c-0.1,0-0.1,0-0.2,0c-0.1,0-0.1,0-0.1,0c-0.1,0-0.1,0-0.2,0
						c-0.1,0-0.1-0.1-0.2-0.1c0,0,0,0,0,0c-0.1-0.1-0.3-0.3-0.4-0.4c-0.4-0.4-0.4-1.1-0.4-1.7C94.6,124.7,94.6,124,94.7,123.2z"/>
					<path fill="#FFD5A1" d="M89.8,119.5c0-0.8,0.4-1.5,1.3-1.6c0.7-0.1,1.6,0.5,1.6,1.3c0,1.8,0.3,4-0.4,5.7
						c-0.3,0.8-1.3,0.6-1.6-0.1C89.7,123.2,89.7,121.4,89.8,119.5z"/>
					<path fill="#FFD5A1" d="M84.1,116.2c0.2-1.2,2-1.7,2.5-0.4c0.3,0.8,0.3,1.6,0.3,2.4c0,0.5,0.2,1,0.2,1.5c0,0.4-0.3,0.8-0.3,1.2
						c0,0.5-0.6,0.7-1,0.6c-1-0.3-1.5-1.9-1.6-2.8C84.2,117.8,84,117.1,84.1,116.2z"/>
					<path fill="#FFD5A1" d="M78,110.9c0.1-0.3,0.4-0.7,0.8-0.7c1.6,0.1,2.2,1.6,2.5,2.9c0.3,1.3,1.1,2.8,0.6,4.1
						c-0.1,0.3-0.6,0.6-0.9,0.2c-0.5-0.6-0.9-0.7-1.2-1.4c-0.3-0.6-0.6-1.2-0.9-1.8C78.5,113.2,77.8,112,78,110.9z"/>
					<path fill="#FFD5A1" d="M73.2,107.2c0.5,0.9,0.6,1.8,1,2.7c0.4,0.8,0.7,1.2,0.6,2.2c0,0.5-0.6,0.8-1.1,0.5
						c-1.5-0.9-2.7-2.9-3-4.6C70.7,106.5,72.6,105.9,73.2,107.2z"/>
					<path fill="#FFD5A1" d="M65.1,102.9c0.7-0.3,1.6,0.1,1.8,0.8c0.2,0.6,0.3,1.2,0.4,1.7c0.1,0.4,0.4,0.8,0.4,1.2
						c0.1,0.4,0,0.8,0.1,1.2c0.1,0.5-0.5,1-1,0.7c-1.3-0.9-2.6-2.5-2.6-4.1C64.2,103.7,64.4,103.1,65.1,102.9z"/>
					<path fill="#FFD5A1" d="M60.2,100.8c0.4,0.7,0.5,1.5,0.9,2.3c0.3,0.5,0.3,1.1,0.3,1.7c0,0.1,0.1,0.1,0,0.2
						c0,0.1-0.1,0.1-0.1,0.2c-0.1,0.2-0.3,0.3-0.5,0.4c0.1,0,0.1,0,0.2,0c-0.3,0.2-0.7,0.2-1,0c-0.6-0.4-1-1-1.4-1.6
						c-0.4-0.5-0.5-1.2-0.8-1.8C56.6,100.4,59.3,99,60.2,100.8z"/>
					<path fill="#FFD5A1" d="M51.4,97.7c0.1-0.3,0.3-0.7,0.7-0.7c0.7,0,1.2,0,1.6,0.7c0.2,0.4,0.4,0.8,0.6,1.2
						c0.3,0.8,0.7,1.5,0.2,2.3c-0.1,0.2-0.3,0.3-0.6,0.2c-0.7-0.1-1.2-0.7-1.6-1.2C51.8,99.5,51.2,98.7,51.4,97.7z"/>
					<path fill="#FFD5A1" d="M46.3,95.2c0.2-0.2,1.4-0.6,1.5-0.1c0.3,0.1,0.5,0.3,0.7,0.6c0.2,0.2,0.3,0.5,0.4,0.7
						c0.2,0.5,0.4,0.8,0.3,1.4c0,0.7-0.7,1.8-1.6,1c-0.2-0.1-0.5-0.2-0.6-0.4c-0.1-0.1-0.2-0.3-0.3-0.4c-0.3-0.4-0.6-0.7-0.8-1.1
						C45.7,96.3,45.8,95.6,46.3,95.2z"/>
					<path fill="#FFD5A1" d="M38.7,92c0.9,0.1,1.9,0.2,2.5,0.9c0.7,0.8,1,1.5,1.1,2.5c0,0.3-0.3,0.5-0.5,0.6c-1,0.2-1.9-0.8-2.5-1.5
						c-0.5-0.6-0.9-1.4-1-2.2C38.3,92.1,38.5,92,38.7,92z"/>
					<path fill="#FFD5A1" d="M30.8,91.5c0.4,0,0.7-0.1,1.1-0.1c0.5-0.1,1,0.2,1.4,0.4c1.1,0.5,1.7,1.1,2.2,2.2
						c0.2,0.5-0.3,1.3-0.8,1.2c-1,0-1.9-0.5-2.8-1c-0.8-0.4-1.3-1.2-1.4-2C30.3,91.8,30.5,91.5,30.8,91.5z"/>
					<path fill="#FFD5A1" d="M88.5,131.7c1.3-0.6,2.6-1.5,4.1-1.2c0.5,0.1,0.9,0.6,0.6,1.1c-0.7,1.4-2.6,2.8-4.1,3
						C87.3,134.8,87,132.3,88.5,131.7z"/>
					<path fill="#FFD5A1" d="M81.8,129.4c0.9-2,1.7-0.9,2.8-1.6c0.4-0.3,0.9-0.5,1.4-0.5c0.5,0,0.9-0.2,1.3,0.2
						c0.2,0.2,0.3,0.5,0.3,0.8c0,0.2-0.2,1-0.6,0.9c0.2,0-0.6,0.7-0.7,0.7c-0.4,0.2-0.7,0.5-1.1,0.7c-1.1,0.5-2,0.9-3.1,0.2
						C81.7,130.6,81.5,130,81.8,129.4z"/>
					<path fill="#FFD5A1" d="M81.2,123.2c1-0.2,2-0.4,3,0c0.7,0.3,1,1,0.6,1.7c-1,2-4.1,3.3-6.2,2.5c-0.6-0.2-1.1-0.7-1.2-1.4
						C77.2,123.8,79.7,123.4,81.2,123.2z"/>
					<path fill="#FFD5A1" d="M74.3,121.4c0.6-1.3,1.5-1.8,2.8-2c1-0.2,1.9-0.2,2.7,0.5c0.4,0.4,0.4,1.1,0.1,1.6
						c-1,1.5-3.2,2-4.7,1.3C74.7,122.6,74,122,74.3,121.4z"/>
					<path fill="#FFD5A1" d="M71.2,116.6c0.5,0,1.1-0.2,1.6-0.2c0.4,0,0.8-0.1,1.2,0.1c0.2,0.1,0.4,0.3,0.6,0.3
						c0.4,0.1,0.6,0.7,0.4,1c-0.9,2.1-5.3,3.7-6.4,0.9C68.1,117.4,70.2,116.7,71.2,116.6z"/>
					<path fill="#FFD5A1" d="M64.2,115.4c0.3-0.5,0.9-1.3,1.5-1.6c0.5-0.2,1-0.2,1.5-0.3c1.1-0.2,2-0.4,3.1,0.1
						c0.5,0.2,0.6,1,0.4,1.4c-0.9,1.6-2.9,2.4-4.7,2.3c-0.6,0-1.3-0.4-1.5-1c-0.1-0.2-0.2-0.3-0.3-0.5
						C64.2,115.7,64.2,115.5,64.2,115.4z"/>
					<path fill="#FFD5A1" d="M60.3,111.6c0.2-0.3,0.4-0.5,0.6-0.6c0.3,0,0.5-0.2,0.7-0.4c0.5-0.2,0.9-0.2,1.4-0.3
						c0.5,0,0.9-0.2,1.3-0.2c0.8,0.1,1.5,0.5,1.9,1.1c0.2,0.3,0.2,1-0.1,1.3c-1,1-1.4,1.3-2.5,1.6c-0.4,0.1-0.8,0.2-1.2,0.2
						C60.9,114.5,59.4,113,60.3,111.6z"/>
					<path fill="#FFD5A1" d="M55.8,109.8c0.2-0.4,0.4-0.7,0.7-1c0.3-0.3,0.5-0.3,0.9-0.5c0.5-0.2,1-0.5,1.6-0.5
						c0.6,0.1,1.1,0.1,1.6,0.5c0.2,0.2,0.7,0.6,0.6,0.9c-0.2,1.1-1.2,1.7-2.2,2.1c-1.3,0.6-2.1,0.4-3.2-0.4
						C55.4,110.6,55.4,110.1,55.8,109.8z"/>
					<path fill="#FFD5A1" d="M52.1,106.1c0.5-0.3,1.3-0.4,1.8-0.5c0.8-0.2,2.2-0.5,2.9,0.2c0.1,0.1,0.2,0.2,0.3,0.4
						c0.1,0.2-0.1,0.6,0,0.7c0.2,0.4-1.6,1.6-1.9,1.8c-0.5,0.3-1.7,0.8-2.4,0.8c-0.8-0.1-2.2-0.4-2.2-1.5
						C50.7,107.1,51.5,106.5,52.1,106.1z"/>
					<path fill="#FFD5A1" d="M45.6,104.9c0.2-0.4,0.6-1.2,1.4-1.5c0.8-0.3,1.6-0.5,2.4-0.8c1.2-0.4,2.7-0.2,3.5,0.9
						c0.1,0.2,0.1,0.4,0,0.6c-0.7,1-2.3,1.5-3.4,2c-1.5,0.7-2.8,1-3.8-0.5C45.5,105.5,45.5,105.2,45.6,104.9z"/>
					<path fill="#FFD5A1" d="M39.4,101.7c0.3-0.4,0.6-1,1.1-1.2c0.8-0.3,1.5-0.4,2.3-0.6c0.6-0.1,1.6-0.2,2.2,0
						c0.8,0.3,1.2,0.9,1.9,1.3c0.2,0.1,0.2,0.3,0.1,0.4c-0.7,0.8-1.6,1.1-2.5,1.6c-0.6,0.3-1.3,0.4-1.9,0.6
						c-1.2,0.3-1.8,0.1-2.8-0.5C39.3,103,39.1,102.2,39.4,101.7z"/>
					<path fill="#FFD5A1" d="M37.5,98c1.3-0.4,2.8-0.4,3.9,0.6c0.1,0,0.2,0,0.2,0.1c0,0,0,0.1,0.1,0.1c0.1,0.1,0.1,0.3,0,0.4
						c-1.2,1.3-3,1.7-4.5,2.7c-1.4,0.9-2.8,0.3-3-1.3C33.9,99.1,36.4,98.3,37.5,98z"/>
					<path fill="#FFD5A1" d="M29.5,97.3c0.9-1.1,1.8-1,3.2-1.1c0.5,0,1.3,0.1,1.8,0.3c0.4,0.1,0.6,0.4,1,0.6c0.1,0.1,0.2,0.3,0,0.4
						c-0.3,0.2-0.6,0.9-0.7,1.1c-0.3,0.5-1.2,0.9-1.8,1c-1.4,0.2-2.5,0.3-3.5-0.8C29.1,98.4,29.1,97.8,29.5,97.3z"/>
				</g>
			</g>
			
				<linearGradient id="SVGID_6_" gradientUnits="userSpaceOnUse" x1="113.5939" y1="129.6538" x2="102.6523" y2="166.3123" gradientTransform="matrix(1 0 0 1 15.1895 0)">
				<stop  offset="0" style="stop-color:#695446"/>
				<stop  offset="1" style="stop-color:#6E5749"/>
			</linearGradient>
			<path fill="url(#SVGID_6_)" d="M125.2,161.6c-0.6-1.7-2.5-2.6-4.1-1.7c-0.1,0.1,0.2-3,0.3-3.3c0.4-1.2,1.1-2.3,1.7-3.4
				c1.3-2.2,3-4.1,4.2-6.3c1.3-2.4,2.3-4.7,3.8-7c1.6-2.5,3.1-5.5,2.1-8.5c-0.9-2.9-3.2-2.7-5.7-2.7c-1.5,0-1.6-0.2-2.6,1
				c-1.1,1.3-1.5,3.5-2.2,5c-2,4.3-3.7,8.8-5.2,13.4c-1.2,3.6-3.6,8-3.5,11.8c0.2,3.2,1.9,7,5.6,6.9
				C121.7,166.7,126.1,164.1,125.2,161.6z"/>
			<path fill="#1C1A13" d="M64.9,56.6c-3.4-0.4-9.6,0.2-8.1,3.2c0.8,1.6,3.7,1.8,5.2,2.4c2.7,1,4.8,2.1,5.8-1.7
				c0.3-1.4,0.3-2.7-1-3.4C66.5,56.8,65.8,56.7,64.9,56.6z"/>
			<path fill="#FFFFFF" d="M63,57.3c-1.2-0.3-2.4-0.4-3.3,0.4c-0.1,0.1-0.1,0.3,0,0.4c0.9,0.5,2.1,0.2,3,0.3c0.5,0.1,0.9,0,1.3,0
				c0.2,0,0.7-0.2,0.8-0.1c0.1,0,0.2,0,0.2-0.1C64.8,57,63.8,57.5,63,57.3z"/>
			<path fill="#1C1A13" d="M120,69.1c-1,0-1.9,0.7-2,1.8c0,1,0.8,2,1.8,2c1,0,1.9-0.7,2-1.8C121.8,70.1,121,69.1,120,69.1z"/>
			<path fill="#FFFFFF" d="M121.1,70.6c0,0,0-0.1-0.1-0.1c0-0.1,0-0.2-0.1-0.3c-0.1-0.2-0.3-0.3-0.6-0.2c-0.5,0.2-0.4,0.9-0.1,1.2
				C120.7,71.7,121.5,71.1,121.1,70.6z"/>
			<path fill="#BCBEC1" d="M78.5,45c-1.4,2.2-2.4,4.6-3.6,7c-1,2.1-2.5,4-3,6.3c0,0.2,0.2,0.3,0.3,0.1c2.4-4.3,4.1-8.9,6.6-13.1
				C79,45,78.6,44.7,78.5,45z"/>
			<path fill="#BCBEC1" d="M80,49.4c-2.2,3.2-5.1,5.8-7,9.2c-0.1,0.1,0.1,0.2,0.2,0.1c1.1-0.8,1.8-2.2,2.5-3.4
				C76.8,53.1,78.7,51.5,80,49.4z"/>
			<path fill="#BCBEC1" d="M80.9,52.6c-1.2,0.9-2.3,1.8-3.4,2.8c-1.1,1.1-2.5,2-3.3,3.4c-0.1,0.1,0.1,0.3,0.2,0.2
				c1.3-0.8,2.2-2.2,3.3-3.2c0.6-0.5,1.1-1.2,1.6-1.7C79.9,53.6,80.5,53.2,80.9,52.6C81,52.7,81,52.6,80.9,52.6z"/>
			<path fill="#BCBEC1" d="M70,71.4c-0.3-2.5-0.4-5.1-0.5-7.6c0-0.1-0.2-0.1-0.2,0c0,1.9,0.3,3.7,0.3,5.6c0.1,2.3,0.9,4.6,0,6.9
				c0,0.1,0.1,0.1,0.1,0C70.5,74.8,70.3,73.1,70,71.4z"/>
			<path fill="#BCBEC1" d="M72.3,70.7c-0.2-1.5-0.8-3-1.1-4.5c0-0.1-0.2-0.1-0.2,0c-0.1,1.6,0.8,3,1.1,4.5c0.3,1.5,0.3,3,1,4.4
				c0,0.1,0.2,0,0.1-0.1C72.6,73.6,72.5,72.1,72.3,70.7z"/>
			<path fill="#BCBEC1" d="M74.9,70.1c-0.3-1.1-0.6-2.2-1.4-3c-0.1-0.1-0.3,0-0.3,0.2c0.4,1,0.9,2,1.3,3c0.5,1.3,1.3,2.5,1.4,3.9
				c0,0.1,0.2,0.1,0.2,0C76,72.6,75.3,71.4,74.9,70.1z"/>
		</g>
	</g>
</g>
</svg>
