<?xml version="1.0" encoding="utf-8"?>
<!-- Generator: Adobe Illustrator 18.0.0, SVG Export Plug-In . SVG Version: 6.00 Build 0)  -->
<!DOCTYPE svg PUBLIC "-//W3C//DTD SVG 1.1//EN" "http://www.w3.org/Graphics/SVG/1.1/DTD/svg11.dtd">
<svg version="1.1" xmlns="http://www.w3.org/2000/svg" xmlns:xlink="http://www.w3.org/1999/xlink" x="0px" y="0px"
	 viewBox="0 0 200 200" enable-background="new 0 0 200 200" xml:space="preserve">
<g id="Lag_2">
</g>
<g id="Lag_1">
	<g>
		<path fill="#F4DA80" d="M100,187.2c-49.6,0-90-39.7-90-88.6C10,49.7,50.4,10,100,10c49.6,0,90,39.7,90,88.6
			C190,147.5,149.6,187.2,100,187.2z"/>
		<path fill="#F0CA67" d="M27.5,151c16.4,21.9,42.8,36.2,72.5,36.2s56.1-14.3,72.5-36.2H27.5z"/>
		<g>
			<path fill="#FF876C" d="M155.1,105.5c0-2.9-1.2-5.5-3-7.5c0.1,0.6,0.2,1.2,0.2,1.7c0,4.1-2.4,7.7-5.8,9.5
				c-4.1-18.1-23.8-31.8-47.6-31.8c-7.1,0-13.9,1.2-19.9,3.4c-2-2.5-5-4.1-8.4-4.1c-1.8,0-3.5,0.5-5,1.3v10
				c-6.3,4.8-11,10.9-13.3,17.8h-2.8c-3.6,0-6.5,2.9-6.5,6.4v7.5c0,3.6,2.9,6.4,6.5,6.4h2.8c2.4,6.9,7,13,13.3,17.8v12.3
				c0,3.6,2.9,6.4,6.5,6.4h7.5c3.6,0,6.5-2.9,6.5-6.4v-3c4.1,0.9,8.4,1.4,12.9,1.4c5.3,0,10.3-0.7,15-1.9v3.5c0,3.6,2.9,6.4,6.4,6.4
				h7.5c3.6,0,6.4-2.9,6.4-6.4v-14c8-6.9,12.9-16.1,12.9-26.3c0-0.1,0-0.2,0-0.3C151.7,114.6,155.1,110.5,155.1,105.5z"/>
			<path fill="#484F59" d="M61.1,105.3c-1.1,1.4-2.5,2.1-3.1,1.6c-0.6-0.5-0.3-2,0.8-3.4c1.1-1.4,2.5-2.1,3.1-1.5
				C62.5,102.4,62.1,104,61.1,105.3z"/>
			<path fill="#D46F41" d="M98.8,77.5c-5.4,0-10.5,0.7-15.3,2c0.3,2.4,1.8,4.2,4.2,3.7c10.9-2.4,26.8,1.9,37.5,7.7
				c0.7,0.4,1.4,0.6,2.2,0.6c1.6,0,3.1-0.8,4-2.3c0.2-0.4,0.4-0.8,0.4-1.2C123.1,81.5,111.6,77.5,98.8,77.5z"/>
			<path fill="#E67A61" d="M99,132.9c-25.1,0-46-7.1-50.4-16.4h-5.6v3.4c0,3.6,2.9,6.4,6.5,6.4h2.8c2.4,6.9,7,13,13.3,17.8v12.3
				c0,3.6,2.9,6.4,6.5,6.4h7.5c3.6,0,6.5-2.9,6.5-6.4v-3c4.1,0.9,8.4,1.4,12.9,1.4c5.3,0,10.3-0.7,15-1.9v3.5c0,3.6,2.9,6.4,6.4,6.4
				h7.5c3.6,0,6.4-2.9,6.4-6.4v-14c7-6,11.6-13.9,12.7-22.5C139.6,127.5,120.9,132.9,99,132.9z"/>
			<g>
				<defs>
					<path id="SVGID_1_" d="M119,34.1c-24.9-0.8-45.5,12.3-46.1,29.2c-0.2,7.6,3.7,14.7,10.3,20.3c4.2-0.8,8.6-1.2,13.1-1
						c12.7,0.4,24.4,4.8,33.9,11.9c18.6-3.3,20.3-14.9,20.8-28.7C151.6,48.8,143.9,34.8,119,34.1z"/>
				</defs>
				<clipPath id="SVGID_2_">
					<use xlink:href="#SVGID_1_"  overflow="visible"/>
				</clipPath>
				<g clip-path="url(#SVGID_2_)">
					<path fill="#596273" d="M139.4,65.9c0,15.8-12.8,28.6-28.6,28.6c-15.8,0-28.6-12.8-28.6-28.6c0-15.8,12.8-28.6,28.6-28.6
						C126.6,37.3,139.4,50.1,139.4,65.9z"/>
					<path fill="#474F59" d="M110.8,37.3c15.8,0,28.6,12.8,28.6,28.6c0,15.8-12.8,28.6-28.6,28.6"/>
					<path fill="#FFFFFF" d="M133.1,65.9c0,12.3-10,22.2-22.3,22.2c-12.3,0-22.3-10-22.3-22.2c0-12.3,10-22.2,22.3-22.2
						C123.1,43.6,133.1,53.6,133.1,65.9z"/>
					<path fill="#DCE4E7" d="M91,67.5c0-12.3,10-22.3,22.2-22.3c4.1,0,7.8,1.1,11.1,3c-3.7-2.9-8.4-4.6-13.5-4.6
						c-12.3,0-22.3,10-22.3,22.2c0,8.2,4.5,15.4,11.1,19.3C94.4,81.1,91,74.7,91,67.5z"/>
					<path fill="#474F59" d="M114.8,65.9c0,2.2-1.8,4-4,4c-2.2,0-4-1.8-4-4c0-2.2,1.8-4,4-4C113,61.9,114.8,63.7,114.8,65.9z"/>
					<g>
						<g>
							<g>
								<g>
									<path fill="#474F59" d="M120.3,49.9c-0.1,0-0.1,0-0.2,0c-0.2-0.1-0.2-0.3-0.1-0.5l0.6-1.1c0.1-0.2,0.3-0.2,0.5-0.1
										c0.2,0.1,0.2,0.3,0.1,0.5l-0.6,1.1C120.5,49.8,120.4,49.9,120.3,49.9z"/>
								</g>
								<g>
									<path fill="#474F59" d="M100.7,83.7c-0.1,0-0.1,0-0.2,0c-0.2-0.1-0.2-0.3-0.1-0.5l0.6-1.1c0.1-0.2,0.3-0.2,0.5-0.1
										c0.2,0.1,0.2,0.3,0.1,0.5l-0.6,1.1C101,83.6,100.9,83.7,100.7,83.7z"/>
								</g>
								<g>
									<path fill="#474F59" d="M128.3,76.3c-0.1,0-0.1,0-0.2,0l-1-0.6c-0.2-0.1-0.2-0.3-0.1-0.5c0.1-0.2,0.3-0.2,0.5-0.1l1,0.6
										c0.2,0.1,0.2,0.3,0.1,0.5C128.5,76.3,128.4,76.3,128.3,76.3z"/>
								</g>
								<g>
									<path fill="#474F59" d="M94.4,56.8c-0.1,0-0.1,0-0.2,0l-1.1-0.6C93,56,93,55.8,93.1,55.6c0.1-0.2,0.3-0.2,0.5-0.1l1.1,0.6
										c0.2,0.1,0.2,0.3,0.1,0.5C94.7,56.7,94.6,56.8,94.4,56.8z"/>
								</g>
							</g>
							<g>
								<g>
									<path fill="#474F59" d="M101.4,49.9c-0.1,0-0.3-0.1-0.3-0.2l-0.6-1.1c-0.1-0.2,0-0.4,0.1-0.5c0.2-0.1,0.4,0,0.5,0.1
										l0.6,1.1c0.1,0.2,0,0.4-0.1,0.5C101.5,49.8,101.4,49.9,101.4,49.9z"/>
								</g>
								<g>
									<path fill="#474F59" d="M120.9,83.7c-0.1,0-0.3-0.1-0.3-0.2l-0.6-1.1c-0.1-0.2,0-0.4,0.1-0.5c0.2-0.1,0.4,0,0.5,0.1
										l0.6,1.1c0.1,0.2,0,0.4-0.1,0.5C121,83.7,121,83.7,120.9,83.7z"/>
								</g>
								<g>
									<path fill="#474F59" d="M93.4,76.3c-0.1,0-0.3-0.1-0.3-0.2c-0.1-0.2,0-0.4,0.1-0.5l1.1-0.6c0.2-0.1,0.4,0,0.5,0.1
										c0.1,0.2,0,0.4-0.1,0.5l-1.1,0.6C93.5,76.3,93.4,76.3,93.4,76.3z"/>
								</g>
								<g>
									<path fill="#474F59" d="M127.2,56.8c-0.1,0-0.3-0.1-0.3-0.2c-0.1-0.2,0-0.4,0.1-0.5l1-0.6c0.2-0.1,0.4,0,0.5,0.1
										c0.1,0.2,0,0.4-0.1,0.5l-1,0.6C127.3,56.8,127.3,56.8,127.2,56.8z"/>
								</g>
							</g>
							<g>
								<g>
									<path fill="#474F59" d="M91.9,66.5h-1.2c-0.3,0-0.6-0.3-0.6-0.6c0-0.3,0.3-0.6,0.6-0.6h1.2c0.3,0,0.6,0.3,0.6,0.6
										C92.5,66.2,92.2,66.5,91.9,66.5z"/>
								</g>
								<g>
									<path fill="#474F59" d="M129.7,66.5c-0.3,0-0.6-0.3-0.6-0.6c0-0.3,0.3-0.6,0.6-0.6l1.2,0c0.4,0,0.6,0.3,0.6,0.6
										c0,0.3-0.3,0.6-0.6,0.6L129.7,66.5C129.7,66.5,129.7,66.5,129.7,66.5z"/>
								</g>
								<g>
									<path fill="#474F59" d="M110.8,86.6C110.8,86.6,110.8,86.6,110.8,86.6c-0.3,0-0.6-0.3-0.6-0.6l0-1.2c0-0.3,0.3-0.6,0.6-0.6
										c0,0,0,0,0,0c0.3,0,0.6,0.3,0.6,0.6l0,1.2C111.4,86.4,111.2,86.6,110.8,86.6z"/>
								</g>
								<g>
									<path fill="#474F59" d="M110.8,47.6c-0.3,0-0.6-0.3-0.6-0.6v-1.2c0-0.3,0.3-0.6,0.6-0.6c0.3,0,0.6,0.3,0.6,0.6V47
										C111.4,47.3,111.2,47.6,110.8,47.6z"/>
								</g>
							</g>
						</g>
						<g>
							<g>
								<path fill="#474F59" d="M110.8,67.1c-0.7,0-1.2-0.5-1.2-1.2V50.1c0-0.7,0.5-1.2,1.2-1.2c0.7,0,1.2,0.5,1.2,1.2v15.8
									C112,66.6,111.5,67.1,110.8,67.1z"/>
							</g>
							<g>
								<path fill="#474F59" d="M103.9,74c-0.3,0-0.6-0.1-0.9-0.4c-0.5-0.5-0.5-1.2,0-1.7l6.6-6.6c0.5-0.5,1.2-0.5,1.7,0
									c0.5,0.5,0.5,1.2,0,1.7l-6.6,6.6C104.5,73.9,104.2,74,103.9,74z"/>
							</g>
						</g>
					</g>
					<path fill="#FFFFFF" d="M113.3,65.9c0,1.3-1.1,2.5-2.5,2.5c-1.3,0-2.4-1.1-2.4-2.5c0-1.4,1.1-2.5,2.4-2.5
						C112.2,63.4,113.3,64.5,113.3,65.9z"/>
					<path fill="#EC8558" d="M112,65.9c0,0.7-0.5,1.2-1.2,1.2c-0.7,0-1.2-0.5-1.2-1.2c0-0.7,0.5-1.2,1.2-1.2
						C111.5,64.7,112,65.2,112,65.9z"/>
					<g>
						<path fill="#EC8558" d="M110.8,66.4c-0.2,0-0.4-0.1-0.5-0.4c-0.1-0.3,0.1-0.6,0.4-0.7l13.7-4.1c0.3-0.1,0.6,0.1,0.7,0.4
							c0.1,0.3-0.1,0.6-0.4,0.7L111,66.4C110.9,66.4,110.9,66.4,110.8,66.4L110.8,66.4z"/>
					</g>
				</g>
			</g>
		</g>
	</g>
</g>
</svg>
