<?xml version="1.0" encoding="utf-8"?>
<!-- Generator: Adobe Illustrator 18.0.0, SVG Export Plug-In . SVG Version: 6.00 Build 0)  -->
<!DOCTYPE svg PUBLIC "-//W3C//DTD SVG 1.1//EN" "http://www.w3.org/Graphics/SVG/1.1/DTD/svg11.dtd">
<svg version="1.1" id="Lag_1" xmlns="http://www.w3.org/2000/svg" xmlns:xlink="http://www.w3.org/1999/xlink" x="0px" y="0px"
	 viewBox="0 0 200 200" enable-background="new 0 0 200 200" xml:space="preserve">
<path fill="#F2EFDC" d="M190,101.2c0.6-49.7-39.1-90.5-88.8-91.2C51.5,9.4,10.7,49.1,10,98.8c-0.6,49.7,39.1,90.5,88.8,91.2
	C148.5,190.6,189.4,150.9,190,101.2z"/>
<g>
	<g>
		<g>
			<path fill="#71841F" d="M154.7,131.3c-0.8,0.5-0.9,0.3-0.4-0.4c1.4-1.7,2.9-3.3,4.4-4.8c0.7-0.6,1.3-0.7,1.6-0.5c0,0,0,0,0,0
				c0.3,0.3,0.1,0.9-0.6,1.5C158.2,128.7,156.5,130,154.7,131.3z"/>
			<circle fill="#71841F" cx="158.3" cy="123.8" r="0.9"/>
			<circle fill="#71841F" cx="161.1" cy="123.1" r="0.9"/>
			<circle fill="#71841F" cx="162.4" cy="125.5" r="0.9"/>
			<circle fill="#71841F" cx="161.4" cy="125.1" r="1.3"/>
			<circle fill="#71841F" cx="158.5" cy="125.3" r="1.6"/>
			<circle fill="#71841F" cx="160.1" cy="124.3" r="1.6"/>
			<circle fill="#71841F" cx="160.4" cy="126.6" r="1.6"/>
		</g>
		<g>
			<path fill="#879C29" d="M152.3,131.7c-0.6,0.7-0.8,0.5-0.4-0.3c1-1.9,2.1-3.8,3.3-5.6c0.5-0.7,1.1-1,1.5-0.8c0,0,0,0,0,0
				c0.3,0.2,0.3,0.9-0.2,1.6C155.2,128.5,153.8,130.2,152.3,131.7z"/>
			<circle fill="#879C29" cx="154.5" cy="123.4" r="0.9"/>
			<circle fill="#879C29" cx="157.4" cy="122.9" r="0.9"/>
			<circle fill="#879C29" cx="158.6" cy="124.5" r="0.9"/>
			<circle fill="#879C29" cx="157.5" cy="124.3" r="1.3"/>
			<circle fill="#879C29" cx="154.8" cy="125.1" r="1.6"/>
			<circle fill="#879C29" cx="156.1" cy="123.8" r="1.6"/>
			<circle fill="#879C29" cx="156.9" cy="126" r="1.6"/>
		</g>
		<g>
			<path fill="#879C29" d="M153,133.4c-0.7,0.6-0.6,0.8,0.3,0.5c2-0.8,4-1.8,5.9-2.9c0.8-0.5,1.1-1.1,0.9-1.4c0,0,0,0,0,0
				c-0.2-0.3-0.9-0.4-1.6,0.1C156.5,130.7,154.7,132,153,133.4z"/>
			<circle fill="#879C29" cx="161.5" cy="131.8" r="0.9"/>
			<circle fill="#879C29" cx="162.2" cy="128.9" r="0.9"/>
			<circle fill="#879C29" cx="160.7" cy="127.6" r="0.9"/>
			<circle fill="#879C29" cx="160.9" cy="128.7" r="1.3"/>
			<circle fill="#879C29" cx="159.8" cy="131.4" r="1.6"/>
			<circle fill="#879C29" cx="161.3" cy="130.2" r="1.6"/>
			<circle fill="#879C29" cx="159.1" cy="129.2" r="1.6"/>
		</g>
		<g>
			<path fill="#FBAB18" d="M141.2,144.3c-1.9,1.2-2.3,0.7-1-1l9.6-12.7c1.4-1.8,3.7-1.9,5.2-0.3l0.2,0.2c1.5,1.6,1.2,4-0.7,5.2
				L141.2,144.3z"/>
			<path fill="#E39910" d="M155.2,130.5L155.2,130.5l-15.7,14.4c0.2,0.2,0.7,0,1.7-0.6l13.4-8.6
				C156.4,134.5,156.7,132.2,155.2,130.5z"/>
			<g>
				<defs>
					<path id="SVGID_1_" d="M141.2,144.3c-1.9,1.2-2.3,0.7-1-1l9.6-12.7c1.4-1.8,3.7-1.9,5.2-0.3l0.2,0.2c1.5,1.6,1.2,4-0.7,5.2
						L141.2,144.3z"/>
				</defs>
				<clipPath id="SVGID_2_">
					<use xlink:href="#SVGID_1_"  overflow="visible"/>
				</clipPath>
				<g clip-path="url(#SVGID_2_)">
					<path fill="#FBAB18" d="M154,135.5c-1.4-1.7-1.3-1.8,0.3-0.3l11.2,11c1.6,1.5,2.5,3.2,2,3.6l-0.1,0c-0.5,0.4-2-0.6-3.4-2.3
						L154,135.5z"/>
					<path fill="#FBAB18" d="M148.6,139.6c-1.4-1.7-1.3-1.8,0.3-0.3l11.2,11c1.6,1.5,2.5,3.2,2,3.6l-0.1,0c-0.5,0.4-2-0.6-3.4-2.3
						L148.6,139.6z"/>
					<path fill="#FBAB18" d="M145.6,142c-1.4-1.7-1.3-1.8,0.3-0.3l11.2,11c1.6,1.5,2.5,3.2,2,3.6l-0.1,0c-0.5,0.4-2-0.6-3.4-2.3
						L145.6,142z"/>
					<path fill="#E39910" d="M149,134.3c1.6,1.5,1.7,1.4,0.3-0.3l-10-12.1c-1.4-1.7-3-2.7-3.4-2.3l-0.1,0c-0.5,0.4,0.4,2.1,2,3.6
						L149,134.3z"/>
					<path fill="#E39910" d="M146.3,135.6c1.6,1.5,1.7,1.4,0.3-0.3l-10-12.1c-1.4-1.7-3-2.7-3.4-2.3l-0.1,0c-0.5,0.4,0.4,2.1,2,3.6
						L146.3,135.6z"/>
					<path fill="#E39910" d="M140.6,141.8c1.6,1.5,1.7,1.4,0.3-0.3l-10-12.1c-1.4-1.7-3-2.7-3.4-2.3l-0.1,0c-0.5,0.4,0.4,2.1,2,3.6
						L140.6,141.8z"/>
					<g>
						<path fill="#E39910" d="M152,134.6C152.1,134.8,152.2,134.7,152,134.6l-0.8-1.3c-0.1-0.2-0.3-0.2-0.4-0.1l0,0
							c-0.1,0.1-0.1,0.3,0.1,0.4L152,134.6z"/>
						<path fill="#E39910" d="M149.8,132.3C149.7,132.1,149.7,132.1,149.8,132.3l1.2,0.9c0.2,0.1,0.2,0.3,0.1,0.4l0,0
							c-0.1,0.1-0.3,0-0.4-0.1L149.8,132.3z"/>
					</g>
					<g>
						<path fill="#E39910" d="M150.8,138.1C150.9,138.3,151,138.2,150.8,138.1l-0.8-1.3c-0.1-0.2-0.3-0.2-0.4-0.1l0,0
							c-0.1,0.1-0.1,0.3,0.1,0.4L150.8,138.1z"/>
						<path fill="#E39910" d="M148.6,135.8C148.5,135.6,148.5,135.6,148.6,135.8l1.2,0.9c0.2,0.1,0.2,0.3,0.1,0.4l0,0
							c-0.1,0.1-0.3,0-0.4-0.1L148.6,135.8z"/>
					</g>
					<g>
						<path fill="#FBAB18" d="M150.8,138.1C150.9,138.3,151,138.2,150.8,138.1l-0.7-1.2c-0.1-0.2-0.3-0.2-0.4-0.1l0,0
							c-0.1,0.1-0.1,0.3,0.1,0.4L150.8,138.1z"/>
						<path fill="#FBAB18" d="M148.9,136.1C148.8,135.9,148.8,135.9,148.9,136.1l1.1,0.8c0.1,0.1,0.2,0.3,0.1,0.4l0,0
							c-0.1,0.1-0.3,0.1-0.4-0.1L148.9,136.1z"/>
					</g>
					<g>
						<path fill="#E39910" d="M145.4,139.4C145.6,139.5,145.6,139.5,145.4,139.4l-0.8-1.3c-0.1-0.2-0.3-0.2-0.4-0.1l0,0
							c-0.1,0.1-0.1,0.3,0.1,0.4L145.4,139.4z"/>
						<path fill="#E39910" d="M143.3,137.1C143.1,136.9,143.2,136.9,143.3,137.1l1.2,0.9c0.2,0.1,0.2,0.3,0.1,0.4l0,0
							c-0.1,0.1-0.3,0-0.4-0.1L143.3,137.1z"/>
					</g>
					<g>
						<path fill="#E39910" d="M143.9,141.8C144.1,141.9,144.1,141.9,143.9,141.8l-0.8-1.3c-0.1-0.2-0.3-0.2-0.4-0.1l0,0
							c-0.1,0.1-0.1,0.3,0.1,0.4L143.9,141.8z"/>
						<path fill="#E39910" d="M141.8,139.4C141.6,139.3,141.7,139.2,141.8,139.4l1.2,0.9c0.2,0.1,0.2,0.3,0.1,0.4l0,0
							c-0.1,0.1-0.3,0-0.4-0.1L141.8,139.4z"/>
					</g>
					<path fill="#FBAB18" d="M152,134.6l-0.6-0.8l-0.3,0.2L152,134.6C152.1,134.8,152.2,134.7,152,134.6z"/>
				</g>
			</g>
		</g>
	</g>
	<g>
		<path fill="#71841F" d="M125,156.2c-0.1,0.1-0.2,0.1-0.3,0l0,0c-0.1-0.1-0.1-0.2,0-0.3l4.4-4.5c0.1-0.1,0.2-0.1,0.3,0l0,0
			c0.1,0.1,0.1,0.2,0,0.3L125,156.2z"/>
		<path fill="#879C29" d="M132.2,151.6c0.3-0.1,0.7-0.3,0.9-0.4c0,0,0.1-0.1,0.1-0.1c0.1-0.1,0.1-0.1,0.2-0.2
			c-0.1-0.1-0.2-0.1-0.4-0.2c-0.1,0-0.1,0-0.2-0.1c0.1,0,0.1,0,0.2,0c0.2,0,0.5-0.1,0.7-0.2c0,0,0,0,0,0c-0.5-0.1-1.1-0.3-1.7-0.4
			c-0.1,0-0.1,0-0.2,0c0.1,0,0.1,0,0.2,0c0.7,0.1,1.3,0.1,1.9,0.2c0.2-0.3,0.3-0.6,0.4-0.9c-0.1,0-0.2,0-0.3,0c-0.1,0-0.1,0-0.2,0
			c0,0,0.1,0,0.1-0.1c0.2-0.1,0.3-0.2,0.4-0.4c0.1-0.2,0.1-0.5,0.1-0.7c-0.1,0.1-0.3,0.1-0.4,0.2c0,0-0.1,0-0.1,0.1
			c0,0,0-0.1,0.1-0.1c0.2-0.5,0.3-1,0.4-1.5c0-0.1,0-0.1-0.1-0.2c-0.1,0-0.2,0-0.3-0.1c-0.3,0.1-0.6,0.2-0.9,0.4
			c0,0-0.1,0.1-0.1,0.1c0,0,0-0.1,0.1-0.1c0-0.1,0.1-0.3,0.1-0.4c-0.5,0-1,0.1-1.5,0.2c-0.3,0.3-0.6,0.7-0.8,1.1c0,0,0,0.1-0.1,0.1
			c0-0.1,0-0.1,0-0.2c0-0.2-0.1-0.4-0.1-0.6c0,0,0,0,0,0c-0.2,0.2-0.4,0.5-0.6,0.7c0,0,0,0.1-0.1,0.1c0-0.1,0-0.1,0-0.2
			c0-0.1,0-0.1,0-0.2c-0.1,0.1-0.2,0.1-0.2,0.2c-0.2,0.2-0.4,0.5-0.6,0.7c0.2,1.1,0.2,2.3-0.4,3.4c0,0,0,0.1-0.1,0.1
			c0,0,0.1-0.1,0.1-0.1C130.1,151.6,131.2,151.5,132.2,151.6z"/>
		<path fill="#71841F" d="M129.1,152c1-0.5,2.1-0.6,3.1-0.5c0.3-0.1,0.7-0.3,0.9-0.4c0,0,0.1-0.1,0.1-0.1c0.1-0.1,0.1-0.1,0.2-0.2
			c-0.1-0.1-0.2-0.1-0.4-0.2c-0.1,0-0.1,0-0.2-0.1c0.1,0,0.1,0,0.2,0c0.2,0,0.5-0.1,0.7-0.2c0,0,0,0,0,0c-0.5-0.1-1.1-0.3-1.7-0.4
			c-0.1,0-0.1,0-0.2,0c0.1,0,0.1,0,0.2,0c0.7,0.1,1.3,0.1,1.9,0.2c0.2-0.3,0.3-0.6,0.4-0.9c-0.1,0-0.2,0-0.3,0c-0.1,0-0.1,0-0.2,0
			c0,0,0.1,0,0.1-0.1c0.2-0.1,0.3-0.2,0.4-0.4c0.1-0.2,0.1-0.5,0.1-0.7c-0.1,0.1-0.3,0.1-0.4,0.2c0,0-0.1,0-0.1,0.1
			c0,0,0-0.1,0.1-0.1c0.2-0.5,0.3-1,0.4-1.5c0-0.1,0-0.1-0.1-0.2l-5.6,5.6C129.1,152.1,129.1,152.1,129.1,152z"/>
		<g>
			<path fill="#71841F" d="M129.3,154.1c0-0.1-0.1-0.2-0.2-0.2l-2.1-0.1l-0.3,0.3l2.4,0.1C129.3,154.3,129.3,154.2,129.3,154.1z"/>
			<path fill="#879C29" d="M130.2,156c0.3,0.2,0.6,0.3,0.8,0.3c0,0,0.1,0,0.1,0c0.1,0,0.2,0,0.2,0c0-0.1-0.1-0.2-0.1-0.4
				c0,0,0-0.1-0.1-0.1c0,0,0.1,0.1,0.1,0.1c0.2,0.1,0.4,0.2,0.5,0.3c0,0,0,0,0,0c-0.3-0.4-0.6-0.9-0.9-1.4c0-0.1-0.1-0.1-0.1-0.2
				c0,0.1,0.1,0.1,0.1,0.2c0.4,0.5,0.8,0.9,1.2,1.3c0.2-0.1,0.5-0.2,0.7-0.3c-0.1-0.1-0.1-0.1-0.2-0.2c0,0-0.1-0.1-0.1-0.1
				c0,0,0.1,0,0.1,0c0.2,0,0.3,0,0.5,0.1c0.1-0.1,0.3-0.2,0.4-0.4c-0.1-0.1-0.2-0.1-0.4-0.2c0,0-0.1,0-0.1,0c0,0,0.1,0,0.1,0
				c0.4-0.2,0.7-0.4,1-0.7c0-0.1,0-0.1,0.1-0.2c0-0.1-0.1-0.1-0.1-0.2c-0.2-0.1-0.5-0.2-0.8-0.3c0,0-0.1,0-0.1,0c0,0,0.1,0,0.1,0
				c0.1-0.1,0.2-0.1,0.3-0.2c-0.3-0.3-0.7-0.6-1.1-0.8c-0.4,0-0.7,0.1-1.1,0.2c0,0-0.1,0-0.1,0c0,0,0-0.1,0.1-0.1
				c0.1-0.2,0.1-0.3,0.2-0.5c0,0,0,0,0,0c-0.2,0-0.5,0-0.7,0.1c0,0-0.1,0-0.1,0c0,0,0-0.1,0.1-0.1c0,0,0-0.1,0.1-0.1
				c-0.1,0-0.2,0-0.3,0c-0.3,0-0.5,0-0.7,0.1c-0.4,0.9-1,1.6-1.9,2c0,0-0.1,0-0.1,0c0,0,0.1,0,0.1,0
				C128.8,154.6,129.6,155.2,130.2,156z"/>
			<path fill="#71841F" d="M128,154.3c0.9,0.4,1.7,1,2.3,1.7c0.3,0.2,0.6,0.3,0.8,0.3c0,0,0.1,0,0.1,0c0.1,0,0.2,0,0.2,0
				c0-0.1-0.1-0.2-0.1-0.4c0,0,0-0.1-0.1-0.1c0,0,0.1,0.1,0.1,0.1c0.2,0.1,0.4,0.2,0.5,0.3c0,0,0,0,0,0c-0.3-0.4-0.6-0.9-0.9-1.4
				c0-0.1-0.1-0.1-0.1-0.2c0,0.1,0.1,0.1,0.1,0.2c0.4,0.5,0.8,0.9,1.2,1.3c0.2-0.1,0.5-0.2,0.7-0.3c-0.1-0.1-0.1-0.1-0.2-0.2
				c0,0-0.1-0.1-0.1-0.1c0,0,0.1,0,0.1,0c0.2,0,0.3,0,0.5,0.1c0.1-0.1,0.3-0.2,0.4-0.4c-0.1-0.1-0.2-0.1-0.4-0.2c0,0-0.1,0-0.1,0
				c0,0,0.1,0,0.1,0c0.4-0.2,0.7-0.4,1-0.7c0-0.1,0-0.1,0.1-0.2l-6.4,0C127.9,154.2,127.9,154.2,128,154.3z"/>
		</g>
		<g>
			<path fill="#71841F" d="M127.5,153.5l-0.3-1.8c0-0.1-0.1-0.2-0.2-0.2c-0.1,0-0.1,0.1-0.1,0.2l0.4,2L127.5,153.5z"/>
			<path fill="#879C29" d="M125.1,151c-0.2-0.3-0.3-0.5-0.5-0.8c0,0,0-0.1,0-0.1c0-0.1,0-0.2,0-0.2c0.1,0,0.2,0.1,0.4,0.1
				c0.1,0,0.1,0,0.1,0c0,0-0.1-0.1-0.1-0.1c-0.2-0.2-0.3-0.3-0.4-0.5c0,0,0,0,0,0c0.5,0.2,1,0.4,1.5,0.7c0.1,0,0.1,0.1,0.2,0.1
				c-0.1,0-0.1-0.1-0.2-0.1c-0.5-0.3-1-0.7-1.5-1c0-0.3,0.1-0.5,0.2-0.7c0.1,0,0.1,0.1,0.2,0.1c0,0,0.1,0.1,0.1,0.1c0,0,0-0.1,0-0.1
				c-0.1-0.2-0.1-0.3-0.1-0.5c0.1-0.2,0.2-0.3,0.3-0.5c0.1,0.1,0.1,0.2,0.2,0.3c0,0,0,0.1,0.1,0.1c0,0,0-0.1,0-0.1
				c0.1-0.4,0.3-0.8,0.5-1.1c0.1,0,0.1-0.1,0.2-0.1c0.1,0,0.2,0.1,0.2,0.1c0.2,0.2,0.3,0.5,0.4,0.7c0,0,0,0.1,0,0.1c0,0,0-0.1,0-0.1
				c0-0.1,0.1-0.2,0.1-0.3c0.4,0.3,0.7,0.6,1,1c0,0.4,0,0.7,0,1.1c0,0,0,0.1,0,0.1c0,0,0.1-0.1,0.1-0.1c0.1-0.1,0.3-0.2,0.5-0.3
				c0,0,0,0,0,0c0,0.2,0,0.5,0,0.7c0,0,0,0.1,0,0.1c0,0,0.1-0.1,0.1-0.1c0,0,0.1-0.1,0.1-0.1c0,0.1,0,0.2,0,0.3c0,0.3,0,0.5,0,0.8
				c-0.8,0.5-1.4,1.3-1.7,2.2c0,0,0,0.1,0,0.1c0,0,0-0.1-0.1-0.1C126.7,152.1,125.9,151.4,125.1,151z"/>
			<path fill="#71841F" d="M127.1,153c-0.5-0.8-1.2-1.5-2-2c-0.2-0.3-0.3-0.5-0.5-0.8c0,0,0-0.1,0-0.1c0-0.1,0-0.2,0-0.2
				c0.1,0,0.2,0.1,0.4,0.1c0.1,0,0.1,0,0.1,0c0,0-0.1-0.1-0.1-0.1c-0.2-0.2-0.3-0.3-0.4-0.5c0,0,0,0,0,0c0.5,0.2,1,0.4,1.5,0.7
				c0.1,0,0.1,0.1,0.2,0.1c-0.1,0-0.1-0.1-0.2-0.1c-0.5-0.3-1-0.7-1.5-1c0-0.3,0.1-0.5,0.2-0.7c0.1,0,0.1,0.1,0.2,0.1
				c0,0,0.1,0.1,0.1,0.1c0,0,0-0.1,0-0.1c-0.1-0.2-0.1-0.3-0.1-0.5c0.1-0.2,0.2-0.3,0.3-0.5c0.1,0.1,0.1,0.2,0.2,0.3
				c0,0,0,0.1,0.1,0.1c0,0,0-0.1,0-0.1c0.1-0.4,0.3-0.8,0.5-1.1c0.1,0,0.1-0.1,0.2-0.1l0.9,6.5C127.2,153,127.1,153,127.1,153z"/>
		</g>
	</g>
	<g>
		<g>
			<path fill="#879C29" d="M59.7,108.2c0,9.3-7.5,16.8-16.8,16.8S26,117.5,26,108.2"/>
			<path fill="#F2EFDC" d="M58.4,108.2c0,8.6-7,15.5-15.5,15.5c-8.6,0-15.5-7-15.5-15.5"/>
			<path fill="#F16A54" d="M55.8,108.2c0,7.1-5.8,12.9-12.9,12.9c-7.1,0-12.9-5.8-12.9-12.9"/>
			<g>
				<g>
					<path fill="#405933" d="M51.5,111.4c0,0.5-0.3,1.1-1,1.1c-0.6,0-1-0.6-1-1.1c0-0.7,1-1.6,1-1.6
						C50.5,109.8,51.5,110.7,51.5,111.4z"/>
					<path fill="#2D4124" d="M51.5,111.4c0,0.5-0.3,1.1-1,1.1c0,0,0.1-2.6,0-2.7C50.6,109.8,51.5,110.7,51.5,111.4z"/>
				</g>
				<g>
					<path fill="#405933" d="M46.4,111.4c0,0.5-0.3,1.1-1,1.1c-0.6,0-1-0.6-1-1.1c0-0.7,1-1.6,1-1.6
						C45.4,109.8,46.4,110.7,46.4,111.4z"/>
					<path fill="#2D4124" d="M46.4,111.4c0,0.5-0.3,1.1-1,1.1c0,0,0.1-2.6,0-2.7C45.4,109.8,46.4,110.7,46.4,111.4z"/>
				</g>
				<g>
					<path fill="#405933" d="M41.2,111.4c0,0.5-0.3,1.1-1,1.1c-0.6,0-1-0.6-1-1.1c0-0.7,1-1.6,1-1.6
						C40.2,109.8,41.2,110.7,41.2,111.4z"/>
					<path fill="#2D4124" d="M41.2,111.4c0,0.5-0.3,1.1-1,1.1c0,0,0.1-2.6,0-2.7C40.3,109.8,41.2,110.7,41.2,111.4z"/>
				</g>
				<g>
					<path fill="#405933" d="M36.1,111.4c0,0.5-0.3,1.1-1,1.1c-0.6,0-1-0.6-1-1.1c0-0.7,1-1.6,1-1.6
						C35.1,109.8,36.1,110.7,36.1,111.4z"/>
					<path fill="#2D4124" d="M36.1,111.4c0,0.5-0.3,1.1-1,1.1c0,0,0.1-2.6,0-2.7C35.1,109.8,36.1,110.7,36.1,111.4z"/>
				</g>
				<g>
					<path fill="#405933" d="M49,115.3c0,0.5-0.3,1.1-1,1.1c-0.6,0-1-0.6-1-1.1c0-0.7,1-1.6,1-1.6C48,113.7,49,114.6,49,115.3z"/>
					<path fill="#2D4124" d="M49,115.3c0,0.5-0.3,1.1-1,1.1c0,0,0.1-2.6,0-2.7C48.1,113.7,49,114.6,49,115.3z"/>
				</g>
				<g>
					<path fill="#405933" d="M43.9,115.3c0,0.5-0.3,1.1-1,1.1c-0.6,0-1-0.6-1-1.1c0-0.7,1-1.6,1-1.6
						C42.9,113.7,43.9,114.6,43.9,115.3z"/>
					<path fill="#2D4124" d="M43.9,115.3c0,0.5-0.3,1.1-1,1.1c0,0,0.1-2.6,0-2.7C42.9,113.7,43.9,114.6,43.9,115.3z"/>
				</g>
				<g>
					<path fill="#405933" d="M38.7,115.3c0,0.5-0.3,1.1-1,1.1c-0.6,0-1-0.6-1-1.1c0-0.7,1-1.6,1-1.6
						C37.7,113.7,38.7,114.6,38.7,115.3z"/>
					<path fill="#2D4124" d="M38.7,115.3c0,0.5-0.3,1.1-1,1.1c0,0,0.1-2.6,0-2.7C37.8,113.7,38.7,114.6,38.7,115.3z"/>
				</g>
			</g>
		</g>
	</g>
	<g>
		<path fill="#71841F" d="M89,40.6c0.2,0.4,0.2,0.4,0.1,0C89,39.4,89.3,38.1,90,37c0.3-0.5,0.4-0.8,0.1-0.8c0,0,0,0,0,0
			c-0.2,0-0.6,0.3-0.9,0.8C88.7,38.3,88.7,39.5,89,40.6z"/>
		<path fill="#D95B46" d="M87.1,39.8c1.8,0.8,2.2,0.6,3.8,0c3.6-1.6,7.5-0.4,6.9,6.6C97.5,50,95.7,53,91.5,53
			c-0.9,0-1.7-0.1-2.4-0.4c-0.8,0.2-1.6,0.4-2.4,0.4c-4.2,0-6-3.1-6.4-6.6C79.6,39.4,83.5,38.2,87.1,39.8z"/>
		<path fill="#71841F" d="M92.8,36.3c0,1.6-1.1,2.9-2.7,3.2c0,0-0.1-0.6-0.1-0.8c0.1-1.2,0.8-2.3,2.1-2.4
			C92.3,36.2,92.6,36.3,92.8,36.3z"/>
		<path fill="#F16A54" d="M89,40.3c-0.5,0-1-0.2-1.9-0.5c-3.6-1.6-7.5-0.4-6.9,6.6c0.4,3.6,2.2,6.6,6.4,6.6c0.8,0,1.7-0.1,2.4-0.4
			V40.3z"/>
		<g>
			<path fill="#879C29" d="M82.5,35.1c-0.2,0.1-0.5,0.2-0.7,0.3c0,0.3,0.1,0.7,0.2,1c0.9,3.1,3.7,5,6.3,4.2c0.2-0.1,0.5-0.2,0.7-0.3
				c0-0.3-0.1-0.7-0.2-1C87.9,36.2,85.1,34.4,82.5,35.1z"/>
			<path fill="#71841F" d="M88.4,40.6c0.2-0.1,0.4-0.2,0.7-0.3c-2.2-2.1-5.2-4.1-7.2-5c0,0,0,0,0,0c0,0.3,0.1,0.7,0.2,1
				C82.9,39.5,85.7,41.4,88.4,40.6z"/>
		</g>
		<path fill="#879C29" d="M90.1,39.5c1.6-0.4,2.8-1.6,2.7-3.2c0,0,0,0,0,0C91.1,36.9,90.2,38.1,90.1,39.5z"/>
	</g>
	<g>
		<path fill="#71841F" d="M163,75.4c0,0-0.5,0.2,0,1.6c1.1,3,2.8,4,3.7,3.7c0.9-0.4,0.6-1.2,0.1-1c-0.5,0.2-0.3,0.8-0.2,0.9
			c0,0.1,0.5,0.7,1.1,0.4c0.7-0.3,0.9-0.9,0.7-1.3c-0.2-0.4-0.6-1.1-2-0.6c-1.4,0.5-1.7,2-1.4,2.7c0.3,0.8,1.4,1.4,2.1,1.1
			c0.8-0.3,0.5-1.1-0.3-0.8c-0.8,0.3-1.1,1.8-0.8,2.5c0.3,0.7,0.7,0.5,0.7,0.5l-0.1-0.4c0,0-0.3,0.1-0.4-0.3c-0.4-0.9,0.3-2,0.7-2.2
			c0.4-0.2,0.9,0.2,0.2,0.4c-0.7,0.3-1.6,0-2-1c-0.4-1,0.4-2.1,1.3-2.5c0.9-0.3,1.6-0.4,1.8,0.3c0.2,0.7-0.1,1-0.4,1.1
			c-0.2,0.1-0.9,0.2-1-0.2c-0.4-0.8,0.2-0.8,0.3-0.7c0,0.1,0.2,0.4-0.4,0.7c-1.3,0.5-2.9-2.3-3.3-3.3c-0.4-1.1,0-1.1,0-1.1L163,75.4
			z"/>
		<g>
			<path fill="#71841F" d="M164.1,64c0-0.1-0.2,0-0.2,0c0.2-0.4,0.2-0.7,0.2-0.7c-0.5-0.2-0.7-0.3-1.5-0.2c-0.1,0,0.3-0.3,0.3-0.3
				c-0.9,0.1-1.3,0.5-1.6,0.6c-0.1,0,0.1-0.3,0.1-0.3c-0.1,0-0.6,0.3-0.8,0.5c-0.2,0.3-0.3,0.2-0.3,0.2l0.1-0.7l-0.2,0.2
				c0,0,0-0.4,0.1-0.7c0.1-0.2-0.1-0.5-0.1-0.5l-0.3,0.3c0,0,0.1-0.4,0.1-0.6c0-0.2,0-0.3,0-0.3s-0.5,0-1,0.5c0,0,0-0.9-0.9-1.7
				c-0.1-0.1-0.1,0.4-0.1,0.4c-0.2-0.4-0.6-1.2-1.1-1.5c0,0,0.1,0.5-0.1,0.4c-0.1-0.1-0.1-0.3-0.4-0.6c-0.2-0.2-0.4-0.3-0.4-0.3l0,0
				c0,0,0,0,0,0c0,0,0,0,0,0l0,0c-0.1,0-0.2,0.1-0.4,0.3c-0.2,0.2-0.2,0.5-0.4,0.6c-0.2,0.1-0.1-0.4-0.1-0.4
				c-0.4,0.2-0.9,1.1-1.1,1.5c0,0,0-0.5-0.1-0.4c-0.9,0.8-0.9,1.7-0.9,1.7c-0.5-0.5-1-0.5-1-0.5s-0.1,0.1,0,0.3
				c0,0.2,0.1,0.6,0.1,0.6l-0.3-0.3c0,0-0.1,0.3-0.1,0.5c0.1,0.2,0.1,0.7,0.1,0.7l-0.2-0.2l0.1,0.7c0,0-0.1,0-0.3-0.2
				c-0.2-0.2-0.7-0.5-0.8-0.5c0,0,0.2,0.3,0.1,0.3c-0.3-0.1-0.7-0.5-1.6-0.6c0,0,0.4,0.3,0.3,0.3c-0.7-0.1-1-0.1-1.5,0.2
				c0,0,0,0.4,0.3,0.7c0,0-0.3-0.1-0.3,0c0,0.1,0.1,0.4,0.2,0.4c0,0-0.2,0.1-0.2,0.2c0,0.1,0,0.5,0.2,0.8c0.1,0.1,0.1,0.3,0.1,0.4
				c0,0.2-0.3-0.1-0.3-0.1c0.1,0.7,0.6,1,0.7,1c0.2,0.1-0.3,0-0.3,0c0,0.1,0.3,0.4,0.4,0.5l-0.3,0c0,0.1,0.2,0.4,0.3,0.5
				c0.2,0.2,0.4,0.2,0.4,0.2c0.1,0.1-0.4,0.1-0.4,0.1c0.1,0.1,0.3,0.3,0.5,0.4c0.1,0,0.5,0.2,0.5,0.2c0.1,0.1-0.3,0.1-0.2,0.2
				c0.2,0.1,0.4,0.2,0.6,0.3c0.3,0.1,0.4,0.2,0.3,0.4c0,0-0.1,0.1-0.2,0.1c-0.1,0.1-0.5,0.2-0.6,0.3c-0.1,0.1,0.2,0.1,0.1,0.1
				c-0.3,0-0.5,0.1-0.5,0.1s0.5,0.5,0.8,0.7l-0.4-0.1c0,0.2,0.4,0.6,0.8,0.7c0.1,0-0.2,0-0.2,0.1c0.2,0.2,0.6,0.3,0.8,0.5
				c0.2,0.1,0,0.3,0,0.3c0.1,0.1,0.1,0.1,0.4,0.1c0.2,0,0.4,0,0.4,0c0.1,0-0.2,0.2,0.2,0.1c0.6-0.1,0.5-0.2,0.7-0.2
				c0.2-0.1,0.1,0.3,0.1,0.3c0.1,0,0.1,0,0.2-0.1c0,0,0.1-0.1,0.2-0.1c0.1,0,0.3-0.3,0.3-0.3c0,0-0.1,0.3-0.1,0.2
				c0.1,0,0.3-0.2,0.4-0.2c0.1-0.1,0.2-0.2,0.3-0.3c0.1-0.1-0.1,0.4,0.4-0.1c0.2-0.2,0.2-0.3,0.2-0.5c-0.1-0.6-0.5-0.9,0-1.4
				c0.2-0.2,0.3-0.3,0.5-0.5l-4.4,1l4.5-1.3l-4.7-3.4l4.9,3.1l0.1-3.4l0.1-3.6l0.1,3.6l0.1,3.3l4.8-3l-4.7,3.4l4.5,1.2l-4.4-0.9
				c0.2,0.1,0.3,0.3,0.5,0.5c0.5,0.5,0.1,0.8,0,1.4c0,0.2,0.1,0.3,0.2,0.5c0.5,0.5,0.2,0,0.4,0.1c0.1,0.1,0.2,0.2,0.3,0.3
				c0.1,0,0.3,0.2,0.4,0.2c0,0-0.1-0.3-0.1-0.2c0,0,0.2,0.2,0.3,0.3c0.1,0,0.2,0.1,0.2,0.1c0.1,0.1,0.1,0.1,0.2,0.1
				c0,0,0-0.4,0.1-0.3c0.1,0.1,0.1,0.2,0.7,0.2c0.4,0,0-0.1,0.2-0.1c0.1,0,0.3,0,0.4,0c0.3-0.1,0.3-0.1,0.4-0.1c0,0-0.2-0.2,0-0.3
				c0.2-0.2,0.6-0.3,0.8-0.5c0,0-0.3,0-0.2-0.1c0.4-0.1,0.8-0.5,0.8-0.7l-0.4,0.1c0.3-0.2,0.8-0.7,0.8-0.7s-0.3-0.1-0.5-0.1
				c-0.1,0,0.2-0.1,0.1-0.1c-0.1-0.1-0.5-0.2-0.6-0.2c-0.1-0.1-0.2-0.1-0.2-0.1c-0.1-0.1,0-0.3,0.3-0.4c0.2-0.1,0.4-0.1,0.6-0.3
				c0.1-0.1-0.3-0.1-0.2-0.1c0,0,0.4-0.2,0.5-0.2c0.2-0.1,0.4-0.3,0.5-0.4c0,0-0.5,0-0.4-0.1c0,0,0.2-0.1,0.4-0.2
				c0.1-0.1,0.3-0.5,0.3-0.5l-0.2,0c0.1-0.1,0.4-0.3,0.4-0.5c0-0.1-0.4,0.1-0.3,0c0.1-0.1,0.6-0.4,0.7-1c0,0-0.3,0.3-0.3,0.1
				c0-0.1,0.1-0.3,0.1-0.4c0.2-0.3,0.2-0.7,0.2-0.8c0-0.2-0.2-0.2-0.2-0.2C164,64.4,164.1,64.1,164.1,64z"/>
			<path fill="#879C29" d="M164.1,64.7c0-0.2-0.2-0.2-0.2-0.2c0.1-0.1,0.2-0.3,0.2-0.4c0-0.1-0.2,0-0.2,0c0.2-0.4,0.2-0.7,0.2-0.7
				c-0.5-0.2-0.7-0.3-1.5-0.2c-0.1,0,0.3-0.3,0.3-0.3c-0.9,0.1-1.3,0.5-1.6,0.6c-0.1,0,0.1-0.3,0.1-0.3c-0.1,0-0.6,0.3-0.8,0.5
				c-0.2,0.3-0.3,0.2-0.3,0.2l0.1-0.7l-0.2,0.2c0,0,0-0.4,0.1-0.7c0.1-0.2-0.1-0.5-0.1-0.5l-0.3,0.3c0,0,0.1-0.4,0.1-0.6
				c0-0.2,0-0.3,0-0.3s-0.5,0-1,0.5c0,0,0-0.9-0.9-1.7c-0.1-0.1-0.1,0.4-0.1,0.4c-0.2-0.4-0.6-1.2-1.1-1.5c0,0,0.1,0.5-0.1,0.4
				c-0.1-0.1-0.1-0.3-0.4-0.6c-0.1-0.2-0.3-0.3-0.4-0.3l0,3.9l0.1,2.9l0.1,3.3l4.8-3l-4.7,3.4l4.5,1.2l-4.4-0.9
				c0.2,0.1,0.3,0.3,0.5,0.5c0.5,0.5,0.1,0.8,0,1.4c0,0.2,0.1,0.3,0.2,0.5c0.5,0.5,0.2,0,0.4,0.1c0.1,0.1,0.2,0.2,0.3,0.3
				c0.1,0,0.3,0.2,0.4,0.2c0,0-0.1-0.3-0.1-0.2c0,0,0.2,0.2,0.3,0.3c0.1,0,0.2,0.1,0.2,0.1c0.1,0.1,0.1,0.1,0.2,0.1
				c0,0,0-0.4,0.1-0.3c0.1,0.1,0.1,0.2,0.7,0.2c0.4,0,0-0.1,0.2-0.1c0.1,0,0.3,0,0.4,0c0.3-0.1,0.3-0.1,0.4-0.1c0,0-0.2-0.2,0-0.3
				c0.2-0.2,0.6-0.3,0.8-0.5c0,0-0.3,0-0.2-0.1c0.4-0.1,0.8-0.5,0.8-0.7l-0.4,0.1c0.3-0.2,0.8-0.7,0.8-0.7s-0.3-0.1-0.5-0.1
				c-0.1,0,0.2-0.1,0.1-0.1c-0.1-0.1-0.5-0.2-0.6-0.2c-0.1-0.1-0.2-0.1-0.2-0.1c-0.1-0.1,0-0.3,0.3-0.4c0.2-0.1,0.4-0.1,0.6-0.3
				c0.1-0.1-0.3-0.1-0.2-0.1c0,0,0.4-0.2,0.5-0.2c0.2-0.1,0.4-0.3,0.5-0.4c0,0-0.5,0-0.4-0.1c0,0,0.2-0.1,0.4-0.2
				c0.1-0.1,0.3-0.5,0.3-0.5l-0.2,0c0.1-0.1,0.4-0.3,0.4-0.5c0-0.1-0.4,0.1-0.3,0c0.1-0.1,0.6-0.4,0.7-1c0,0-0.3,0.3-0.3,0.1
				c0-0.1,0.1-0.3,0.1-0.4C164.1,65.2,164.1,64.8,164.1,64.7z"/>
		</g>
		<g>
			<path fill="#71841F" d="M169.7,73.4c0,0-0.1-0.1-0.1-0.1c0.3-0.1,0.4-0.3,0.4-0.3c-0.1-0.3-0.2-0.5-0.6-0.7c-0.1,0,0.3,0,0.3,0
				c-0.5-0.3-0.8-0.3-1-0.4c-0.1,0,0.2-0.1,0.2-0.1c-0.1,0-0.4-0.1-0.6-0.1c-0.2,0-0.2,0-0.2,0l0.3-0.3l-0.2,0c0,0,0.2-0.2,0.3-0.3
				c0.1-0.1,0.2-0.3,0.2-0.3l-0.3,0c0,0,0.2-0.2,0.3-0.2c0.1-0.1,0.1-0.2,0.1-0.2s-0.2-0.2-0.7-0.2c0,0,0.4-0.4,0.3-1.2
				c0-0.1-0.2,0.2-0.2,0.2c0-0.3,0.2-0.9,0.1-1.2c0,0-0.2,0.3-0.2,0.1c0-0.1,0.1-0.2,0.1-0.4c0-0.2,0-0.3-0.1-0.4l0,0c0,0,0,0,0,0
				c0,0,0,0,0,0l0,0c0,0-0.2,0-0.4,0c-0.2,0-0.3,0.1-0.4,0.1c-0.1,0,0.1-0.2,0.1-0.2c-0.3-0.1-0.9,0.2-1.1,0.3c0,0,0.2-0.2,0.1-0.2
				c-0.7,0-1.1,0.4-1.1,0.4c0-0.4-0.3-0.6-0.3-0.6s-0.1,0-0.2,0.1c-0.1,0.1-0.2,0.4-0.2,0.4l0-0.3c0,0-0.2,0.1-0.2,0.2
				c-0.1,0.1-0.2,0.4-0.2,0.4l0-0.2l-0.2,0.4c0,0,0,0,0-0.2c0-0.2-0.1-0.5-0.2-0.6c0,0,0,0.2-0.1,0.2c-0.1-0.2-0.1-0.5-0.5-0.9
				c0,0,0.1,0.3,0,0.3c-0.3-0.4-0.4-0.5-0.8-0.5c0,0-0.2,0.2-0.2,0.5c0,0-0.1-0.1-0.1-0.1c-0.1,0.1-0.1,0.2-0.1,0.3
				c0,0-0.2-0.1-0.2,0c0,0.1-0.2,0.3-0.3,0.5c0,0.1-0.1,0.2-0.1,0.3c-0.1,0.1-0.1-0.2-0.1-0.2c-0.2,0.4-0.1,0.7-0.1,0.8
				c0,0.1-0.1-0.1-0.1-0.1c0,0.1,0,0.3,0,0.4l-0.1-0.1c0,0.1-0.1,0.3-0.1,0.4c0,0.2,0.1,0.3,0.1,0.3c0,0.1-0.2-0.1-0.2-0.1
				c0,0.1,0,0.3,0.1,0.4c0,0,0.1,0.3,0.2,0.3c0,0.1-0.2-0.1-0.1,0c0,0.1,0.1,0.3,0.2,0.4c0.1,0.2,0.1,0.3,0,0.3c0,0-0.1,0-0.2,0
				c-0.1,0-0.3-0.1-0.4-0.1c-0.1,0,0.1,0.1,0,0.1c-0.2-0.1-0.3-0.2-0.3-0.2s0,0.4,0.1,0.7l-0.1-0.2c-0.1,0.1,0,0.4,0.1,0.7
				c0,0-0.1-0.1-0.1-0.1c0,0.2,0.1,0.4,0.2,0.6c0,0.1-0.2,0.1-0.2,0.1c0,0.1,0,0.1,0.1,0.2c0.1,0.1,0.2,0.1,0.2,0.2
				c0,0.1-0.2,0,0,0.1c0.3,0.2,0.3,0.2,0.4,0.2c0.1,0-0.1,0.2-0.1,0.2c0,0,0.1,0,0.1,0c0,0,0.1,0,0.2,0c0.1,0,0.3,0,0.3,0
				c0,0-0.2,0.1-0.1,0.1c0.1,0,0.2,0,0.3,0.1c0.1,0,0.2,0,0.3,0c0.1,0-0.3,0.2,0.2,0.1c0.1,0,0.3-0.1,0.3-0.1
				c0.2-0.3,0.2-0.6,0.6-0.7c0.2,0,0.3,0,0.4,0l-2.5-1.4l2.7,1.3l-0.8-3.6l1,3.5l1.5-1.6l1.6-1.7l-1.5,1.8l-1.4,1.6l3.5,0.6
				l-3.7-0.4l1.6,2.5l-1.7-2.3c0,0.1,0,0.3,0,0.4c0,0.4-0.3,0.4-0.6,0.7c-0.1,0.1-0.1,0.2-0.1,0.3c0,0.5,0.1,0.1,0.1,0.2
				c0,0.1,0,0.2,0,0.3c0,0.1,0.1,0.2,0.1,0.3c0,0,0.1-0.2,0.1-0.1c0,0,0,0.2,0,0.3c0,0.1,0,0.1,0,0.1c0,0.1,0,0.1,0.1,0.1
				c0,0,0.1-0.2,0.2-0.1c0,0.1,0,0.1,0.2,0.4c0.2,0.2,0.1,0,0.1,0c0.1,0,0.1,0.1,0.2,0.2c0.2,0.1,0.2,0.1,0.3,0.1c0,0,0-0.2,0.1-0.2
				c0.2,0,0.4,0.1,0.6,0.1c0,0-0.1-0.1-0.1-0.1c0.3,0.1,0.6,0.1,0.7,0l-0.2-0.1c0.2,0.1,0.7,0,0.7,0s-0.1-0.1-0.2-0.3
				c0,0,0.1,0.1,0.1,0c0-0.1-0.2-0.3-0.2-0.4c0,0,0-0.1,0-0.1c0-0.1,0.1-0.1,0.3,0c0.1,0.1,0.3,0.1,0.4,0.1c0.1,0-0.1-0.1,0-0.1
				c0,0,0.3,0.1,0.3,0.1c0.1,0.1,0.3,0.1,0.4,0c0,0-0.2-0.2-0.2-0.2c0,0,0.1,0.1,0.3,0.1c0.1,0,0.3-0.1,0.4-0.1l-0.1-0.1
				c0.1,0,0.3,0,0.4-0.1c0,0-0.2-0.1-0.1-0.1c0.1,0,0.4,0.1,0.8-0.2c0,0-0.3,0-0.2-0.1c0.1-0.1,0.2-0.1,0.2-0.1
				c0.2-0.1,0.4-0.3,0.5-0.3c0.1-0.1,0-0.2,0-0.2C169.5,73.6,169.6,73.5,169.7,73.4z"/>
			<path fill="#879C29" d="M169.4,73.7c0.1-0.1,0-0.2,0-0.2c0.1,0,0.2-0.1,0.3-0.1c0,0-0.1-0.1-0.1-0.1c0.3-0.1,0.4-0.3,0.4-0.3
				c-0.1-0.3-0.2-0.5-0.6-0.7c-0.1,0,0.3,0,0.3,0c-0.5-0.3-0.8-0.3-1-0.4c-0.1,0,0.2-0.1,0.2-0.1c-0.1,0-0.4-0.1-0.6-0.1
				c-0.2,0-0.2,0-0.2,0l0.3-0.3l-0.2,0c0,0,0.2-0.2,0.3-0.3c0.1-0.1,0.2-0.3,0.2-0.3l-0.3,0c0,0,0.2-0.2,0.3-0.2
				c0.1-0.1,0.1-0.2,0.1-0.2s-0.2-0.2-0.7-0.2c0,0,0.4-0.4,0.3-1.2c0-0.1-0.2,0.2-0.2,0.2c0-0.3,0.2-0.9,0.1-1.2
				c0,0-0.2,0.3-0.2,0.1c0-0.1,0.1-0.2,0.1-0.4c0-0.1,0-0.2,0-0.3l-1.7,1.9l-1.2,1.4l-1.4,1.6l3.5,0.6l-3.7-0.4l1.6,2.5l-1.7-2.3
				c0,0.1,0,0.3,0,0.4c0,0.4-0.3,0.4-0.6,0.7c-0.1,0.1-0.1,0.2-0.1,0.3c0,0.5,0.1,0.1,0.1,0.2c0,0.1,0,0.2,0,0.3
				c0,0.1,0.1,0.2,0.1,0.3c0,0,0.1-0.2,0.1-0.1c0,0,0,0.2,0,0.3c0,0.1,0,0.1,0,0.1c0,0.1,0,0.1,0.1,0.1c0,0,0.1-0.2,0.2-0.1
				c0,0.1,0,0.1,0.2,0.4c0.2,0.2,0.1,0,0.1,0c0.1,0,0.1,0.1,0.2,0.2c0.2,0.1,0.2,0.1,0.3,0.1c0,0,0-0.2,0.1-0.2
				c0.2,0,0.4,0.1,0.6,0.1c0,0-0.1-0.1-0.1-0.1c0.3,0.1,0.6,0.1,0.7,0l-0.2-0.1c0.2,0.1,0.7,0,0.7,0s-0.1-0.1-0.2-0.3
				c0,0,0.1,0.1,0.1,0c0-0.1-0.2-0.3-0.2-0.4c0,0,0-0.1,0-0.1c0-0.1,0.1-0.1,0.3,0c0.1,0.1,0.3,0.1,0.4,0.1c0.1,0-0.1-0.1,0-0.1
				c0,0,0.3,0.1,0.3,0.1c0.1,0.1,0.3,0.1,0.4,0c0,0-0.2-0.2-0.2-0.2c0,0,0.1,0.1,0.3,0.1c0.1,0,0.3-0.1,0.4-0.1l-0.1-0.1
				c0.1,0,0.3,0,0.4-0.1c0,0-0.2-0.1-0.1-0.1c0.1,0,0.4,0.1,0.8-0.2c0,0-0.3,0-0.2-0.1c0.1-0.1,0.2-0.1,0.2-0.1
				C169.1,74,169.3,73.8,169.4,73.7z"/>
		</g>
		<g>
			<path fill="#879C29" d="M142.3,73.4c0,0,0.1-0.1,0.1-0.1c-0.3-0.1-0.4-0.3-0.4-0.3c0.1-0.3,0.2-0.5,0.6-0.7c0.1,0-0.3,0-0.3,0
				c0.5-0.3,0.8-0.3,1-0.4c0.1,0-0.2-0.1-0.2-0.1c0.1,0,0.4-0.1,0.6-0.1c0.2,0,0.2,0,0.2,0l-0.3-0.3l0.2,0c0,0-0.2-0.2-0.3-0.3
				c-0.1-0.1-0.2-0.3-0.2-0.3l0.3,0c0,0-0.2-0.2-0.3-0.2c-0.1-0.1-0.1-0.2-0.1-0.2s0.2-0.2,0.7-0.2c0,0-0.4-0.4-0.3-1.2
				c0-0.1,0.2,0.2,0.2,0.2c0-0.3-0.2-0.9-0.1-1.2c0,0,0.2,0.3,0.2,0.1c0-0.1-0.1-0.2-0.1-0.4c0-0.2,0-0.3,0.1-0.4l0,0c0,0,0,0,0,0
				c0,0,0,0,0,0l0,0c0,0,0.2,0,0.4,0c0.2,0,0.3,0.1,0.4,0.1c0.1,0-0.1-0.2-0.1-0.2c0.3-0.1,0.9,0.2,1.1,0.3c0,0-0.2-0.2-0.1-0.2
				c0.7,0,1.1,0.4,1.1,0.4c0-0.4,0.3-0.6,0.3-0.6s0.1,0,0.2,0.1c0.1,0.1,0.2,0.4,0.2,0.4l0-0.3c0,0,0.2,0.1,0.2,0.2
				c0.1,0.1,0.2,0.4,0.2,0.4l0-0.2l0.2,0.4c0,0,0,0,0-0.2c0-0.2,0.1-0.5,0.2-0.6c0,0,0,0.2,0.1,0.2c0.1-0.2,0.1-0.5,0.5-0.9
				c0,0-0.1,0.3,0,0.3c0.3-0.4,0.4-0.5,0.8-0.5c0,0,0.2,0.2,0.2,0.5c0,0,0.1-0.1,0.1-0.1c0.1,0.1,0.1,0.2,0.1,0.3c0,0,0.2-0.1,0.2,0
				c0,0.1,0.2,0.3,0.3,0.5c0,0.1,0.1,0.2,0.1,0.3c0.1,0.1,0.1-0.2,0.1-0.2c0.2,0.4,0.1,0.7,0.1,0.8c0,0.1,0.1-0.1,0.1-0.1
				c0,0.1,0,0.3,0,0.4l0.1-0.1c0,0.1,0.1,0.3,0.1,0.4c0,0.2-0.1,0.3-0.1,0.3c0,0.1,0.2-0.1,0.2-0.1c0,0.1,0,0.3-0.1,0.4
				c0,0-0.1,0.3-0.2,0.3c0,0.1,0.2-0.1,0.1,0c0,0.1-0.1,0.3-0.2,0.4c-0.1,0.2-0.1,0.3,0,0.3c0,0,0.1,0,0.2,0c0.1,0,0.3-0.1,0.4-0.1
				c0.1,0-0.1,0.1,0,0.1c0.2-0.1,0.3-0.2,0.3-0.2s0,0.4-0.1,0.7l0.1-0.2c0.1,0.1,0,0.4-0.1,0.7c0,0,0.1-0.1,0.1-0.1
				c0,0.2-0.1,0.4-0.2,0.6c0,0.1,0.2,0.1,0.2,0.1c0,0.1,0,0.1-0.1,0.2c-0.1,0.1-0.2,0.1-0.2,0.2c0,0.1,0.2,0,0,0.1
				c-0.3,0.2-0.3,0.2-0.4,0.2c-0.1,0,0.1,0.2,0.1,0.2c0,0-0.1,0-0.1,0c0,0-0.1,0-0.2,0c-0.1,0-0.3,0-0.3,0c0,0,0.2,0.1,0.1,0.1
				c-0.1,0-0.2,0-0.3,0.1c-0.1,0-0.2,0-0.3,0c-0.1,0,0.3,0.2-0.2,0.1c-0.1,0-0.3-0.1-0.3-0.1c-0.2-0.3-0.2-0.6-0.6-0.7
				c-0.2,0-0.3,0-0.4,0l2.5-1.4l-2.7,1.3l0.8-3.6l-1,3.5l-1.5-1.6l-1.6-1.7l1.5,1.8l1.4,1.6l-3.5,0.6l3.7-0.4l-1.6,2.5l1.7-2.3
				c0,0.1,0,0.3,0,0.4c0,0.4,0.3,0.4,0.6,0.7c0.1,0.1,0.1,0.2,0.1,0.3c0,0.5-0.1,0.1-0.1,0.2c0,0.1,0,0.2,0,0.3
				c0,0.1-0.1,0.2-0.1,0.3c0,0-0.1-0.2-0.1-0.1c0,0,0,0.2,0,0.3c0,0.1,0,0.1,0,0.1c0,0.1,0,0.1-0.1,0.1c0,0-0.1-0.2-0.2-0.1
				c0,0.1,0,0.1-0.2,0.4c-0.2,0.2-0.1,0-0.1,0c-0.1,0-0.1,0.1-0.2,0.2c-0.2,0.1-0.2,0.1-0.3,0.1c0,0,0-0.2-0.1-0.2
				c-0.2,0-0.4,0.1-0.6,0.1c0,0,0.1-0.1,0.1-0.1c-0.3,0.1-0.6,0.1-0.7,0l0.2-0.1c-0.2,0.1-0.7,0-0.7,0s0.1-0.1,0.2-0.3
				c0,0-0.1,0.1-0.1,0c0-0.1,0.2-0.3,0.2-0.4c0,0,0-0.1,0-0.1c0-0.1-0.1-0.1-0.3,0c-0.1,0.1-0.3,0.1-0.4,0.1c-0.1,0,0.1-0.1,0-0.1
				c0,0-0.3,0.1-0.3,0.1c-0.1,0.1-0.3,0.1-0.4,0c0,0,0.2-0.2,0.2-0.2c0,0-0.1,0.1-0.3,0.1c-0.1,0-0.3-0.1-0.4-0.1l0.1-0.1
				c-0.1,0-0.3,0-0.4-0.1c0,0,0.2-0.1,0.1-0.1c-0.1,0-0.4,0.1-0.8-0.2c0,0,0.3,0,0.2-0.1c-0.1-0.1-0.2-0.1-0.2-0.1
				c-0.2-0.1-0.4-0.3-0.5-0.3c-0.1-0.1,0-0.2,0-0.2C142.5,73.6,142.4,73.5,142.3,73.4z"/>
			<path fill="#71841F" d="M142.6,73.8c-0.1-0.1,0-0.2,0-0.2c-0.1,0-0.2-0.1-0.3-0.1c0,0,0.1-0.1,0.1-0.1c-0.3-0.1-0.4-0.3-0.4-0.3
				c0.1-0.3,0.2-0.5,0.6-0.7c0.1,0-0.3,0-0.3,0c0.5-0.3,0.8-0.3,1-0.4c0.1,0-0.2-0.1-0.2-0.1c0.1,0,0.4-0.1,0.6-0.1
				c0.2,0,0.2,0,0.2,0l-0.3-0.3l0.2,0c0,0-0.2-0.2-0.3-0.3c-0.1-0.1-0.2-0.3-0.2-0.3l0.3,0c0,0-0.2-0.2-0.3-0.2
				c-0.1-0.1-0.1-0.2-0.1-0.2s0.2-0.2,0.7-0.2c0,0-0.4-0.4-0.3-1.2c0-0.1,0.2,0.2,0.2,0.2c0-0.3-0.2-0.9-0.1-1.2
				c0,0,0.2,0.3,0.2,0.1c0-0.1-0.1-0.2-0.1-0.4c0-0.1,0-0.2,0-0.3l1.7,1.9l1.2,1.4l1.4,1.6l-3.5,0.6l3.7-0.4l-1.6,2.5l1.7-2.3
				c0,0.1,0,0.3,0,0.4c0,0.4,0.3,0.4,0.6,0.7c0.1,0.1,0.1,0.2,0.1,0.3c0,0.5-0.1,0.1-0.1,0.2c0,0.1,0,0.2,0,0.3
				c0,0.1-0.1,0.2-0.1,0.3c0,0-0.1-0.2-0.1-0.1c0,0,0,0.2,0,0.3c0,0.1,0,0.1,0,0.1c0,0.1,0,0.1-0.1,0.1c0,0-0.1-0.2-0.2-0.1
				c0,0.1,0,0.1-0.2,0.4c-0.2,0.2-0.1,0-0.1,0c-0.1,0-0.1,0.1-0.2,0.2c-0.2,0.1-0.2,0.1-0.3,0.1c0,0,0-0.2-0.1-0.2
				c-0.2,0-0.4,0.1-0.6,0.1c0,0,0.1-0.1,0.1-0.1c-0.3,0.1-0.6,0.1-0.7,0l0.2-0.1c-0.2,0.1-0.7,0-0.7,0s0.1-0.1,0.2-0.3
				c0,0-0.1,0.1-0.1,0c0-0.1,0.2-0.3,0.2-0.4c0,0,0-0.1,0-0.1c0-0.1-0.1-0.1-0.3,0c-0.1,0.1-0.3,0.1-0.4,0.1c-0.1,0,0.1-0.1,0-0.1
				c0,0-0.3,0.1-0.3,0.1c-0.1,0.1-0.3,0.1-0.4,0c0,0,0.2-0.2,0.2-0.2c0,0-0.1,0.1-0.3,0.1c-0.1,0-0.3-0.1-0.4-0.1l0.1-0.1
				c-0.1,0-0.3,0-0.4-0.1c0,0,0.2-0.1,0.1-0.1c-0.1,0-0.4,0.1-0.8-0.2c0,0,0.3,0,0.2-0.1c-0.1-0.1-0.2-0.1-0.2-0.1
				C142.9,74,142.7,73.8,142.6,73.8z"/>
		</g>
		<g>
			<g>
				<g>
					<circle fill="#6B3A55" cx="151.8" cy="80.5" r="1.8"/>
					<path fill="#48172D" d="M153.6,80.5c0,1-0.8,1.8-1.8,1.8l0-3.6C152.8,78.6,153.6,79.4,153.6,80.5z"/>
				</g>
				<g>
					<circle fill="#6B3A55" cx="156.1" cy="80.4" r="1.8"/>
					<path fill="#48172D" d="M158,80.4c0,1-0.8,1.8-1.8,1.8l0-3.6C157.1,78.6,158,79.4,158,80.4z"/>
				</g>
				<g>
					<circle fill="#6B3A55" cx="160.5" cy="80.4" r="1.8"/>
					<path fill="#48172D" d="M162.3,80.4c0,1-0.8,1.8-1.8,1.8l0-3.6C161.5,78.6,162.3,79.4,162.3,80.4z"/>
				</g>
			</g>
			<g>
				<g>
					<circle fill="#6B3A55" cx="151.8" cy="73" r="1.8"/>
					<path fill="#48172D" d="M153.6,73c0,1-0.8,1.8-1.8,1.8l0-3.6C152.8,71.2,153.6,72,153.6,73z"/>
				</g>
				<g>
					<circle fill="#6B3A55" cx="156.1" cy="73" r="1.8"/>
					<path fill="#48172D" d="M157.9,73c0,1-0.8,1.8-1.8,1.8l0-3.6C157.1,71.2,157.9,72,157.9,73z"/>
				</g>
				<g>
					<circle fill="#6B3A55" cx="160.5" cy="73" r="1.8"/>
					<path fill="#48172D" d="M162.3,73c0,1-0.8,1.8-1.8,1.8l0-3.6C161.5,71.2,162.3,72,162.3,73z"/>
				</g>
			</g>
			<g>
				<g>
					<circle fill="#6B3A55" cx="149.6" cy="76.8" r="1.8"/>
					<path fill="#48172D" d="M151.5,76.8c0,1-0.8,1.8-1.8,1.8l0-3.6C150.6,75,151.5,75.8,151.5,76.8z"/>
				</g>
				<g>
					<circle fill="#6B3A55" cx="154" cy="76.8" r="1.8"/>
					<path fill="#48172D" d="M155.8,76.8c0,1-0.8,1.8-1.8,1.8l0-3.6C155,75,155.8,75.8,155.8,76.8z"/>
				</g>
				<g>
					<circle fill="#6B3A55" cx="162.6" cy="76.8" r="1.8"/>
					<path fill="#48172D" d="M164.4,76.8c0,1-0.8,1.8-1.8,1.8l0-3.6C163.6,74.9,164.4,75.8,164.4,76.8z"/>
				</g>
				<g>
					<circle fill="#6B3A55" cx="158.3" cy="76.8" r="1.8"/>
					<path fill="#48172D" d="M160.1,76.8c0,1-0.8,1.8-1.8,1.8l0-3.6C159.3,74.9,160.1,75.8,160.1,76.8z"/>
				</g>
			</g>
			<g>
				<circle fill="#6B3A55" cx="156.1" cy="87.9" r="1.8"/>
				<path fill="#48172D" d="M158,87.9c0,1-0.8,1.8-1.8,1.8l0-3.6C157.1,86.1,158,86.9,158,87.9z"/>
			</g>
			<g>
				<g>
					<circle fill="#6B3A55" cx="154" cy="84.2" r="1.8"/>
					<path fill="#48172D" d="M155.8,84.2c0,1-0.8,1.8-1.8,1.8l0-3.6C155,82.4,155.8,83.2,155.8,84.2z"/>
				</g>
				<g>
					<circle fill="#6B3A55" cx="158.3" cy="84.2" r="1.8"/>
					<path fill="#48172D" d="M160.1,84.2c0,1-0.8,1.8-1.8,1.8l0-3.6C159.3,82.4,160.1,83.2,160.1,84.2z"/>
				</g>
			</g>
		</g>
	</g>
	<g>
		<path fill="#48172D" d="M93.6,160.5c-2.9,4.4-6,6-8.4,6.4c-1.7,0.2-4.4-0.9-4.9-2.6c-1.2-4.7,2.1-4.6,7.1-9.1
			c5.1-4.7,3.8-11,6.1-11.7C95.4,143,99.2,151.2,93.6,160.5z"/>
		<path fill="#6B3A55" d="M93.5,143.5c-2.3,0.7-1,7-6.1,11.7c-5,4.5-8.3,4.4-7.1,9.1c0.1,0.4,0.3,0.8,0.7,1.1c0.2,0,0.4,0,0.5,0
			c2.5-0.4,7.3-3.8,10.5-8.6C95.7,150.7,94.9,146.2,93.5,143.5z"/>
		<path fill="#71841F" d="M93.1,143.4c-0.2,0.3-0.3,0.7-0.3,1.1c0,0.7,0.3,1.3,0.8,1.7c0.5-0.3,0.8-1,0.8-1.7c0-0.4-0.1-0.8-0.3-1.1
			c-0.2,0-0.3-0.1-0.5-0.1C93.4,143.3,93.2,143.3,93.1,143.4z"/>
		<path fill="#71841F" d="M93.7,143.1c-0.2-0.4-0.4-0.7-0.8-0.9c-0.2,0-0.3,0.1-0.5,0.1c0,0,0,0,0,0c0.2,0.2,0.5,0.5,0.6,0.8
			c0.2,0.6,0.2,1.2,0,1.6c0.2,0.1,0.4,0.2,0.6,0.2C93.9,144.5,94,143.8,93.7,143.1z"/>
		<g>
			<path fill="#879C29" d="M91.9,145c0,0.2,0,0.5,0.1,0.7c0.8-0.2,1.3-0.8,1.3-1.6c0-0.2,0-0.5-0.1-0.7
				C92.4,143.5,91.9,144.2,91.9,145z"/>
			<path fill="#879C29" d="M93.9,143.4c-0.1,0.2-0.1,0.4-0.1,0.7c0,0.8,0.6,1.5,1.3,1.6c0.1-0.2,0.1-0.4,0.1-0.7
				C95.2,144.2,94.6,143.5,93.9,143.4z"/>
		</g>
	</g>
	<g>
		<g>
			<path fill="#71841F" d="M142.5,132c-0.1,0.9-0.4,0.9-0.5,0c-0.3-2.1-0.5-4.3-0.5-6.5c0-0.9,0.4-1.5,0.7-1.5c0,0,0,0,0,0
				c0.4,0,0.7,0.6,0.7,1.5C143,127.7,142.8,129.9,142.5,132z"/>
			<circle fill="#71841F" cx="139.5" cy="124.2" r="0.9"/>
			<circle fill="#71841F" cx="140.8" cy="121.8" r="0.9"/>
			<circle fill="#71841F" cx="143.6" cy="122.5" r="0.9"/>
			<circle fill="#71841F" cx="142.5" cy="122.9" r="1.3"/>
			<circle fill="#71841F" cx="140.7" cy="125.2" r="1.6"/>
			<circle fill="#71841F" cx="141" cy="123.3" r="1.6"/>
			<circle fill="#71841F" cx="142.9" cy="124.6" r="1.6"/>
		</g>
		<g>
			<path fill="#879C29" d="M141.2,134.1c0.1,0.9-0.2,1-0.5,0.1c-0.7-2-1.4-4.1-1.8-6.3c-0.2-0.9,0-1.5,0.4-1.6c0,0,0,0,0,0
				c0.4-0.1,0.8,0.4,1,1.3C140.8,129.8,141.1,132,141.2,134.1z"/>
			<circle fill="#879C29" cx="136.6" cy="126.8" r="0.9"/>
			<circle fill="#879C29" cx="138.3" cy="124.4" r="0.9"/>
			<circle fill="#879C29" cx="140.2" cy="124.6" r="0.9"/>
			<circle fill="#879C29" cx="139.3" cy="125.2" r="1.3"/>
			<circle fill="#879C29" cx="138.1" cy="127.8" r="1.6"/>
			<circle fill="#879C29" cx="138" cy="125.9" r="1.6"/>
			<circle fill="#879C29" cx="140.1" cy="126.8" r="1.6"/>
		</g>
		<g>
			<path fill="#879C29" d="M142.9,134.7c-0.1,0.9,0.2,1,0.5,0.1c0.7-2,1.4-4.1,1.8-6.3c0.2-0.9,0-1.5-0.4-1.6c0,0,0,0,0,0
				c-0.4-0.1-0.8,0.4-1,1.3C143.4,130.3,143.1,132.5,142.9,134.7z"/>
			<circle fill="#879C29" cx="147.5" cy="127.4" r="0.9"/>
			<circle fill="#879C29" cx="145.9" cy="124.9" r="0.9"/>
			<circle fill="#879C29" cx="143.9" cy="125.1" r="0.9"/>
			<circle fill="#879C29" cx="144.8" cy="125.8" r="1.3"/>
			<circle fill="#879C29" cx="146.1" cy="128.3" r="1.6"/>
			<circle fill="#879C29" cx="146.2" cy="126.5" r="1.6"/>
			<circle fill="#879C29" cx="144.1" cy="127.4" r="1.6"/>
		</g>
		<g>
			<path fill="#FBAB18" d="M142.9,150.8c-0.4,2.2-1,2.2-1.4,0l-2.8-15.7c-0.4-2.2,1.1-4,3.4-4h0.2c2.2,0,3.7,1.8,3.4,4L142.9,150.8z
				"/>
			<path fill="#E39910" d="M142.3,131.1h-0.1v21.3c0.3,0,0.5-0.5,0.7-1.6l2.8-15.7C146.1,132.9,144.5,131.1,142.3,131.1z"/>
			<g>
				<defs>
					<path id="SVGID_3_" d="M142.9,150.8c-0.4,2.2-1,2.2-1.4,0l-2.8-15.7c-0.4-2.2,1.1-4,3.4-4h0.2c2.2,0,3.7,1.8,3.4,4L142.9,150.8
						z"/>
				</defs>
				<clipPath id="SVGID_4_">
					<use xlink:href="#SVGID_3_"  overflow="visible"/>
				</clipPath>
				<g clip-path="url(#SVGID_4_)">
					<path fill="#FBAB18" d="M145.2,135.4c-2.2-0.1-2.2-0.3,0-0.4l15.7-0.8c2.2-0.1,4,0.3,4,1v0.1c0,0.7-1.8,1.1-4,1L145.2,135.4z"
						/>
					<path fill="#FBAB18" d="M144.5,142.2c-2.2-0.1-2.2-0.3,0-0.4l15.7-0.8c2.2-0.1,4,0.3,4,1v0.1c0,0.7-1.8,1.1-4,1L144.5,142.2z"
						/>
					<path fill="#FBAB18" d="M144.2,145.9c-2.2-0.1-2.2-0.3,0-0.4l15.7-0.8c2.2-0.1,4,0.3,4,1v0.1c0,0.7-1.8,1.1-4,1L144.2,145.9z"
						/>
					<path fill="#E39910" d="M140.9,138.3c2.2-0.1,2.2-0.3,0-0.4l-15.7-0.8c-2.2-0.1-4,0.3-4,1v0.1c0,0.7,1.8,1.1,4,1L140.9,138.3z"
						/>
					<path fill="#E39910" d="M140,141.1c2.2-0.1,2.2-0.3,0-0.4l-15.7-0.8c-2.2-0.1-4,0.3-4,1v0.1c0,0.7,1.8,1.1,4,1L140,141.1z"/>
					<path fill="#E39910" d="M140.6,149.5c2.2-0.1,2.2-0.3,0-0.4l-15.7-0.8c-2.2-0.1-4,0.3-4,1v0.1c0,0.7,1.8,1.1,4,1L140.6,149.5z"
						/>
					<g>
						<path fill="#E39910" d="M143.1,136.3C143.4,136.3,143.4,136.2,143.1,136.3l-1.5-0.3c-0.2,0-0.4,0.1-0.4,0.2v0
							c0,0.2,0.2,0.3,0.4,0.2L143.1,136.3z"/>
						<path fill="#E39910" d="M140,136.3C139.8,136.3,139.8,136.2,140,136.3l1.5-0.3c0.2,0,0.4,0.1,0.4,0.2v0c0,0.2-0.2,0.3-0.4,0.2
							L140,136.3z"/>
					</g>
					<g>
						<path fill="#E39910" d="M144.9,139.6C145.1,139.5,145.1,139.5,144.9,139.6l-1.5-0.3c-0.2,0-0.4,0.1-0.4,0.2v0
							c0,0.2,0.2,0.3,0.4,0.2L144.9,139.6z"/>
						<path fill="#E39910" d="M141.7,139.6C141.5,139.5,141.5,139.5,141.7,139.6l1.5-0.3c0.2,0,0.4,0.1,0.4,0.2v0
							c0,0.2-0.2,0.3-0.4,0.2L141.7,139.6z"/>
					</g>
					<g>
						<path fill="#FBAB18" d="M144.9,139.6C145.1,139.5,145.1,139.5,144.9,139.6l-1.3-0.3c-0.2,0-0.3,0.1-0.3,0.2v0
							c0,0.2,0.2,0.3,0.3,0.2L144.9,139.6z"/>
						<path fill="#FBAB18" d="M142.1,139.6C141.9,139.5,141.9,139.5,142.1,139.6l1.3-0.3c0.2,0,0.3,0.1,0.3,0.2v0
							c0,0.2-0.2,0.3-0.3,0.2L142.1,139.6z"/>
					</g>
					<g>
						<path fill="#E39910" d="M142.2,144.4C142.4,144.3,142.4,144.3,142.2,144.4l-1.5-0.3c-0.2,0-0.4,0.1-0.4,0.2v0
							c0,0.2,0.2,0.3,0.4,0.2L142.2,144.4z"/>
						<path fill="#E39910" d="M139,144.4C138.8,144.3,138.8,144.3,139,144.4l1.5-0.3c0.2,0,0.4,0.1,0.4,0.2v0c0,0.2-0.2,0.3-0.4,0.2
							L139,144.4z"/>
					</g>
					<g>
						<path fill="#E39910" d="M142.9,147.1C143.1,147,143.1,147,142.9,147.1l-1.5-0.3c-0.2,0-0.4,0.1-0.4,0.2v0
							c0,0.2,0.2,0.3,0.4,0.2L142.9,147.1z"/>
						<path fill="#E39910" d="M139.7,147.1C139.5,147,139.5,147,139.7,147.1l1.5-0.3c0.2,0,0.4,0.1,0.4,0.2v0c0,0.2-0.2,0.3-0.4,0.2
							L139.7,147.1z"/>
					</g>
					<path fill="#FBAB18" d="M143.1,136.2l-1-0.1v0.3L143.1,136.2C143.4,136.3,143.4,136.2,143.1,136.2z"/>
				</g>
			</g>
		</g>
	</g>
	<g>
		<path fill="#71841F" d="M114.7,38.8c0,0.5-0.1,0.5-0.1,0c-0.2-1.2-1-2.4-2.1-3.3c-0.5-0.4-0.6-0.7-0.4-0.8c0,0,0,0,0,0
			c0.2-0.1,0.8,0.1,1.2,0.5C114.2,36.3,114.7,37.6,114.7,38.8z"/>
		<path fill="#FBAB18" d="M121.6,50.6c-0.5-2-1-2.6-2.3-4.8c-1.5-2.5-1.3-4.7-2.1-6.1c-0.5-0.9-1.5-1.2-2.3-1.2c0,0-0.2,0-0.4,0
			c-0.2,0-0.4,0-0.4,0c-0.8,0.1-1.8,0.4-2.3,1.2c-0.8,1.4-0.6,3.6-2.1,6.1c-1.3,2.2-1.8,2.8-2.3,4.8c-0.7,2.8,0.4,5.3,2.8,6
			c2.4,0.7,3.5,0.3,4.3-0.1c0.8,0.5,1.8,0.8,4.3,0.1C121.2,55.9,122.3,53.4,121.6,50.6z"/>
		<g>
			<path fill="#879C29" d="M113.6,36.9c-0.6-0.1-1-1.2-2.2-1.1c-2.6,0.2-3.2,2.5-3.2,2.5c1.1-1.1,1.8,0.6,3.3,0.5
				C112.9,38.8,113.4,37.6,113.6,36.9z"/>
			<path fill="#71841F" d="M113.6,36.9c-0.6,0.3-1.5,0.5-2.6,0.3c-1.5-0.4-2.3,0.4-2.8,1.1c1.1-1,1.8,0.6,3.3,0.6
				C112.9,38.8,113.4,37.6,113.6,36.9z"/>
		</g>
		<g>
			<path fill="#879C29" d="M121.4,32.3c-1.5,1.1-2.8,0.3-5.1,1.7c-2.6,1.6-1.6,4.2-1.6,4.2c0-0.1,0.5-0.7,1.2-0.8
				c1.9-0.3,3.3,0.3,4.9-1C121.9,35.3,121.4,32.3,121.4,32.3z"/>
			<path fill="#71841F" d="M115.8,37.3c1.9-0.3,3.3,0.3,4.9-1c1.2-1,0.7-3.8,0.7-4c-0.5,1.1,0.4,2.4-4.8,3.3c-1.8,0.3-2,1.6-1.9,2.4
				c0,0.1,0,0.1,0,0.1C114.6,38,115.2,37.4,115.8,37.3z"/>
		</g>
		<path fill="#E39910" d="M121.6,50.6c-0.5-2-1-2.6-2.3-4.8c-1.5-2.5-1.3-4.7-2.1-6.1c-0.5-0.9-1.5-1.2-2.3-1.2c0,0-0.2,0-0.4,0
			c0,0,0,0,0,0v18c0,0,0,0,0,0c0.8,0.5,1.8,0.8,4.3,0.1C121.2,55.9,122.3,53.4,121.6,50.6z"/>
	</g>
	<g>
		<path fill="#71841F" d="M99.4,88c0.4,1.7,0.5,1.7,0.3-0.1c-0.4-4.1,0.4-8.5,2.3-12.1c0.8-1.5,0.9-2.5,0.3-2.7c0,0,0,0-0.1,0
			c-0.6-0.2-1.6,0.6-2.2,2.3C98.7,79.4,98.6,83.9,99.4,88z"/>
		<path fill="#FFCB09" d="M94.3,85.3c3.2-1.6,2.1-3.5,4.8-3.5c0.2,0,0.4,0,0.6,0v47.7c-0.2,0-0.4,0-0.6,0c-3.4-0.3-3.8-4.2-5.4-4.8
			c-7.3-2.6-12.5-10.6-12.3-19.9C81.6,94.6,86,89.4,94.3,85.3z"/>
		<path fill="#FBAB18" d="M104.8,85.3c-3.2-1.6-2.1-3.5-4.8-3.5c-0.2,0-0.4,0-0.6,0v47.7c0.2,0,0.4,0,0.6,0c3.4-0.3,3.8-4.2,5.4-4.8
			c7.3-2.6,12.5-10.6,12.3-19.9C117.5,94.6,113.2,89.4,104.8,85.3z"/>
		<path fill="#71841F" d="M115.4,75c-3.1,5.3-9.1,7.1-15.2,5.1c-0.1,0,0.7-2.2,1.2-2.9c2.7-3.8,7.2-5.9,11.7-3.8
			C113.9,73.8,114.7,74.3,115.4,75z"/>
		<g>
			<path fill="#71841F" d="M80.4,64.8c-0.7,0.2-1.3,0.5-1.9,0.8c0.1,1,0.3,1.9,0.6,2.9c2.5,8.8,10.6,14.2,18.1,12
				c0.7-0.2,1.3-0.5,1.9-0.8c-0.1-1-0.3-1.9-0.6-2.9C96,68,87.9,62.6,80.4,64.8z"/>
			<path fill="#879C29" d="M97.2,80.4c0.7-0.2,1.3-0.5,1.9-0.7C92.8,73.8,84.3,68,78.5,65.5c0,0,0,0,0,0c0.1,1,0.3,1.9,0.6,2.9
				C81.6,77.2,89.7,82.6,97.2,80.4z"/>
		</g>
		<path fill="#879C29" d="M100.2,80c6,2,12.1,0.2,15.2-5.1c0,0,0,0,0,0C108.5,73.6,103.2,75.7,100.2,80z"/>
	</g>
	<g>
		<g>
			<g>
				<path fill="#FBAB18" d="M79.4,152c0,5.4-4.4,9.8-9.8,9.8c-5.4,0-9.8-4.4-9.8-9.8c0-5.4,4.4-9.8,9.8-9.8
					C75,142.2,79.4,146.6,79.4,152z"/>
				<path fill="#E39910" d="M79.4,152c0,5.4-4.4,9.8-9.8,9.8v-19.6C75,142.2,79.4,146.6,79.4,152z"/>
			</g>
		</g>
		<g>
			<path fill="#879C29" d="M62.7,134.1c-0.3,0-0.6,0.1-0.8,0.2c0,0.4,0,0.8,0,1.2c0.4,3.8,3.4,6.5,6.6,6.2c0.3,0,0.6-0.1,0.8-0.2
				c0-0.4,0-0.8,0-1.2C68.8,136.5,65.9,133.7,62.7,134.1z"/>
			<path fill="#71841F" d="M68.5,141.7c0.3,0,0.6-0.1,0.8-0.2c-2.2-2.9-5.2-5.8-7.4-7.2c0,0,0,0,0,0c0,0.4,0,0.8,0,1.2
				C62.3,139.2,65.2,142,68.5,141.7z"/>
		</g>
		<g>
			<path fill="#879C29" d="M69.8,140.9c0,0.2,0,0.4,0,0.6c0.3,0,0.5,0.1,0.8,0.1c2.6,0,4.7-1.7,4.7-4c0-0.2,0-0.4-0.1-0.6
				c-0.3,0-0.5-0.1-0.8-0.1C71.9,136.9,69.8,138.7,69.8,140.9z"/>
			<path fill="#71841F" d="M75.4,137.6c0-0.2,0-0.4,0-0.6c-2.1,1.2-4.4,3.1-5.5,4.4c0,0,0,0,0,0c0.3,0,0.5,0.1,0.8,0.1
				C73.2,141.6,75.4,139.8,75.4,137.6z"/>
		</g>
	</g>
	<g>
		<g>
			<circle fill="#F16A54" cx="156" cy="111.9" r="3"/>
			<path fill="#D95B46" d="M158.3,113.8c-1.1,1.3-2.9,1.5-4.2,0.4l3.8-4.6C159.2,110.6,159.4,112.5,158.3,113.8z"/>
		</g>
		<g>
			<path fill="#879C29" d="M157.2,110.3c-0.1,0-0.1,0-0.2-0.1c-0.1-0.1,0-0.2,0.1-0.3c1.8-1.1,2.9-4.3,2.5-7.8
				c0-0.1,0.1-0.2,0.2-0.2c0.1,0,0.2,0.1,0.2,0.2c0.4,3.6-0.8,7-2.7,8.2C157.3,110.3,157.3,110.3,157.2,110.3L157.2,110.3z"/>
		</g>
		<g>
			<path fill="#879C29" d="M163,109.4c-0.1,0-0.1,0-0.2-0.1c-2.4-3.9-3.2-8.2-2.1-10.3c0.1-0.1,0.2-0.1,0.3-0.1
				c0.1,0.1,0.1,0.2,0.1,0.3c-1,2-0.2,6.1,2.1,9.9c0.1,0.1,0,0.2-0.1,0.3C163.1,109.4,163,109.4,163,109.4L163,109.4z"/>
		</g>
		<g>
			<path fill="#879C29" d="M155,97.7c-0.2,0-0.4,0.1-0.6,0.2c0,0.3,0,0.6,0.1,0.9c0.5,2.7,2.8,4.5,5,4c0.2,0,0.4-0.1,0.6-0.2
				c0-0.3,0-0.6-0.1-0.9C159.5,99.1,157.2,97.3,155,97.7z"/>
			<path fill="#71841F" d="M159.5,102.8c0.2,0,0.4-0.1,0.6-0.2c-1.7-1.9-4-3.8-5.7-4.7c0,0,0,0,0,0c0,0.3,0,0.6,0.1,0.9
				C155,101.4,157.2,103.2,159.5,102.8z"/>
		</g>
		<g>
			<path fill="#879C29" d="M160.5,101.6c0,0.1,0,0.3,0,0.4c0.2,0,0.4,0.1,0.6,0.1c1.8,0.1,3.4-1.1,3.5-2.6c0-0.1,0-0.3,0-0.4
				c-0.2,0-0.4-0.1-0.6-0.1C162.2,98.9,160.6,100.1,160.5,101.6z"/>
			<path fill="#71841F" d="M164.6,99.5c0-0.1,0-0.3,0-0.4c-1.6,0.8-3.2,2-4.1,2.9c0,0,0,0,0,0c0.2,0,0.4,0.1,0.6,0.1
				C162.9,102.2,164.5,101.1,164.6,99.5z"/>
		</g>
		<g>
			<path fill="#F16A54" d="M166.2,111.3c0.2,1.6-1,3.1-2.7,3.3c-1.6,0.2-3.1-1-3.3-2.7c-0.2-1.6,1-3.1,2.7-3.3
				C164.6,108.5,166,109.7,166.2,111.3z"/>
			<path fill="#D95B46" d="M166.2,111.3c0.2,1.6-1,3.1-2.7,3.3l-0.6-6C164.6,108.5,166,109.7,166.2,111.3z"/>
		</g>
	</g>
	<g>
		<g>
			<circle fill="#F16A54" cx="54.1" cy="90.9" r="3"/>
			<path fill="#D95B46" d="M56.4,92.8c-1,1.3-2.9,1.5-4.2,0.4l3.8-4.6C57.3,89.6,57.5,91.5,56.4,92.8z"/>
		</g>
		<g>
			<path fill="#879C29" d="M55.4,89.3c-0.1,0-0.1,0-0.2-0.1c-0.1-0.1,0-0.2,0.1-0.3c1.8-1.1,2.9-4.3,2.5-7.8c0-0.1,0.1-0.2,0.2-0.2
				c0.1,0,0.2,0.1,0.2,0.2c0.4,3.6-0.8,7-2.7,8.2C55.4,89.3,55.4,89.3,55.4,89.3L55.4,89.3z"/>
		</g>
		<g>
			<path fill="#879C29" d="M53.1,76.7c-0.2,0-0.4,0.1-0.6,0.2c0,0.3,0,0.6,0.1,0.9c0.5,2.7,2.8,4.5,5,4c0.2,0,0.4-0.1,0.6-0.2
				c0-0.3,0-0.6-0.1-0.9C57.6,78.1,55.4,76.3,53.1,76.7z"/>
			<path fill="#71841F" d="M57.6,81.8c0.2,0,0.4-0.1,0.6-0.2c-1.7-1.9-4-3.8-5.7-4.7c0,0,0,0,0,0c0,0.3,0,0.6,0.1,0.9
				C53.1,80.4,55.4,82.2,57.6,81.8z"/>
		</g>
	</g>
	<g>
		<g>
			<circle fill="#F16A54" cx="54.9" cy="129.6" r="3"/>
			<path fill="#D95B46" d="M56.6,127.2c1.4,0.9,1.7,2.8,0.8,4.2l-4.9-3.4C53.4,126.6,55.2,126.2,56.6,127.2z"/>
		</g>
		<g>
			<path fill="#879C29" d="M53,128.8c-0.1,0-0.1,0-0.2-0.1c-1.3-1.7-4.6-2.5-8-1.8c-0.1,0-0.2-0.1-0.3-0.2c0-0.1,0.1-0.2,0.2-0.3
				c3.6-0.7,7.1,0.1,8.4,2c0.1,0.1,0.1,0.2,0,0.3C53.1,128.8,53.1,128.8,53,128.8L53,128.8z"/>
		</g>
		<g>
			<path fill="#879C29" d="M40.9,131.9c0.1,0.2,0.1,0.4,0.2,0.6c0.3,0,0.6-0.1,0.8-0.2c2.6-0.7,4.2-3.1,3.6-5.4
				c-0.1-0.2-0.1-0.4-0.2-0.6c-0.3,0-0.6,0.1-0.8,0.2C41.8,127.3,40.2,129.7,40.9,131.9z"/>
			<path fill="#71841F" d="M45.5,127c-0.1-0.2-0.1-0.4-0.2-0.6c-1.8,1.9-3.5,4.4-4.2,6.1c0,0,0,0,0,0c0.3,0,0.6-0.1,0.8-0.2
				C44.6,131.6,46.2,129.2,45.5,127z"/>
		</g>
	</g>
	<g>
		<g>
			<path fill="#879C29" d="M145.8,56.9c0,0-0.1,0-0.1,0c-0.1-0.1-0.1-0.2-0.1-0.3c2.4-3.6,5.6-6,7.9-5.9c0.1,0,0.2,0.1,0.2,0.2
				c0,0.1-0.1,0.2-0.2,0.2c-2.1-0.1-5.2,2.3-7.5,5.7C145.9,56.9,145.8,56.9,145.8,56.9L145.8,56.9z"/>
		</g>
		<g>
			<path fill="#879C29" d="M151.2,51.6c-0.1,0-0.2,0.1-0.3,0.2c0,0.2,0.1,0.4,0.2,0.5c0.6,1.6,2.3,2.5,3.6,1.9
				c0.1,0,0.2-0.1,0.3-0.2c0-0.2-0.1-0.4-0.2-0.5C154.2,51.9,152.6,51,151.2,51.6z"/>
			<path fill="#71841F" d="M154.6,54.2c0.1,0,0.2-0.1,0.3-0.2c-1.3-1-3-1.9-4.1-2.3c0,0,0,0,0,0c0,0.2,0.1,0.4,0.2,0.5
				C151.6,53.9,153.3,54.7,154.6,54.2z"/>
		</g>
		<g>
			<circle fill="#F16A54" cx="143.8" cy="57.9" r="2.8"/>
			<path fill="#D95B46" d="M145.2,60.3c-1.3,0.8-3.1,0.4-3.8-1l4.8-2.9C147,57.8,146.6,59.5,145.2,60.3z"/>
		</g>
	</g>
	<g>
		<g>
			<path fill="#71841F" d="M129.1,53.2C129.1,53.2,129.1,53.2,129.1,53.2c-0.2,0-0.3-0.2-0.3-0.4c0-0.1,0.3-1.7,2.7-2.8
				c0.2-0.1,0.3,0,0.4,0.1c0.1,0.2,0,0.3-0.1,0.4c-2.1,1-2.4,2.3-2.4,2.4C129.4,53.1,129.2,53.2,129.1,53.2L129.1,53.2z"/>
		</g>
		<g>
			<path fill="#71841F" d="M127.6,50.9c0.1-0.7,0.8-1.5,1.8-1.8c1-0.3,1.9-0.2,2.5,0.3c-0.1,0.7-0.8,1.5-1.8,1.8
				C129.2,51.6,128.2,51.4,127.6,50.9z"/>
			<path fill="#879C29" d="M127.6,50.9l4.3-1.4c-0.1,0.7-0.8,1.5-1.8,1.8C129.2,51.6,128.2,51.4,127.6,50.9z"/>
		</g>
		<g>
			<path fill="#71841F" d="M126.7,47.4c0.6-0.4,1.6-0.5,2.5,0c0.9,0.4,1.5,1.2,1.5,2c-0.6,0.4-1.6,0.5-2.5,0
				C127.3,48.9,126.8,48.1,126.7,47.4z"/>
			<path fill="#879C29" d="M126.7,47.4l4.1,2c-0.6,0.4-1.6,0.5-2.5,0C127.3,48.9,126.8,48.1,126.7,47.4z"/>
		</g>
		<g>
			<path fill="#879C29" d="M130.5,54.2c0.7-0.2,1.4-0.8,1.7-1.8c0.3-1,0.1-1.9-0.4-2.5c-0.7,0.2-1.4,0.8-1.7,1.8
				C129.8,52.7,129.9,53.6,130.5,54.2z"/>
			<path fill="#71841F" d="M130.5,54.2l1.3-4.3c-0.7,0.2-1.4,0.8-1.7,1.8C129.8,52.7,129.9,53.6,130.5,54.2z"/>
		</g>
		<g>
			<path fill="#71841F" d="M134.1,53.9c0.2-0.7-0.1-1.7-0.8-2.4c-0.7-0.7-1.6-1-2.4-0.8c-0.2,0.7,0.1,1.7,0.8,2.4
				C132.5,53.8,133.4,54.1,134.1,53.9z"/>
			<path fill="#71841F" d="M134.1,53.9l-3.1-3.2c-0.2,0.7,0.1,1.7,0.8,2.4C132.5,53.8,133.4,54.1,134.1,53.9z"/>
		</g>
		<g>
			<path fill="#D95B46" d="M139.9,44.4c0.6-2.4-1.2-4.2-3.6-3.5c-2.8,0.7-5.4,1.6-7.8,2.5c-2,0.8-2.1,2.7-0.6,4.2
				c1.8,1.8,3.6,3.6,5.5,5.3c1.6,1.5,3.5,1.3,4.2-0.7C138.4,49.8,139.3,47.2,139.9,44.4z"/>
			<path fill="#F16A54" d="M128.5,43.3c2.4-0.9,5-1.8,7.8-2.5c0.9-0.2,1.7-0.1,2.3,0.2c0,0.5-0.1,1.1-0.4,1.6c-1.3,2-2.6,4-4,6
				c-1.2,1.7-2.6,2.6-3.1,2.1c-1.1-1-2.1-2.1-3.2-3.1C126.4,46,126.5,44.1,128.5,43.3z"/>
		</g>
		<g>
			<g>
				<path fill="#D95B46" d="M128.2,45c0-0.1,0-0.2-0.1-0.2l0,0c-0.1-0.1-0.2-0.1-0.2-0.1l-0.3,0.3c-0.1,0.1,0,0.2,0.1,0.2l0,0
					c0.1,0.1,0.2,0.1,0.2,0.1L128.2,45z"/>
				<path fill="#D95B46" d="M129.8,46.5c0-0.1,0-0.2-0.1-0.2l0,0c-0.1-0.1-0.2-0.1-0.2-0.1l-0.3,0.3c-0.1,0.1,0,0.2,0.1,0.2l0,0
					c0.1,0.1,0.2,0.1,0.2,0.1L129.8,46.5z"/>
				<path fill="#D95B46" d="M131.3,48c0-0.1,0-0.2-0.1-0.2l0,0c-0.1-0.1-0.2-0.1-0.2-0.1l-0.3,0.3c-0.1,0.1,0,0.2,0.1,0.2l0,0
					c0.1,0.1,0.2,0.1,0.2,0.1L131.3,48z"/>
				<path fill="#D95B46" d="M132.9,49.6c0-0.1,0-0.2-0.1-0.2l0,0c-0.1-0.1-0.2-0.1-0.2-0.1l-0.3,0.3c-0.1,0.1,0,0.2,0.1,0.2l0,0
					c0.1,0.1,0.2,0.1,0.2,0.1L132.9,49.6z"/>
				<path fill="#F16A54" d="M134.5,51.1c0-0.1,0-0.2-0.1-0.2l0,0c-0.1-0.1-0.2-0.1-0.2-0.1l-0.3,0.3c0,0.1,0,0.2,0.1,0.2l0,0
					c0.1,0.1,0.2,0.1,0.2,0.1L134.5,51.1z"/>
				<path fill="#F16A54" d="M136.1,52.6c0.1-0.1,0-0.2-0.1-0.2l0,0c-0.1-0.1-0.2-0.1-0.2-0.1l-0.3,0.3c0,0.1,0,0.2,0.1,0.2l0,0
					c0.1,0.1,0.2,0.1,0.2,0.1L136.1,52.6z"/>
			</g>
			<g>
				<path fill="#DCDAC8" d="M128.1,44.8c0.1-0.1,0-0.2-0.1-0.2l0,0c-0.1-0.1-0.2-0.1-0.2-0.1l-0.3,0.3c0,0.1,0,0.2,0.1,0.2l0,0
					c0.1,0.1,0.2,0.1,0.2,0.1L128.1,44.8z"/>
				<path fill="#DCDAC8" d="M129.6,46.4c0-0.1,0-0.2-0.1-0.2l0,0c-0.1-0.1-0.2-0.1-0.2-0.1l-0.3,0.3c0,0.1,0,0.2,0.1,0.2l0,0
					c0.1,0.1,0.2,0.1,0.2,0.1L129.6,46.4z"/>
				<path fill="#DCDAC8" d="M131.2,47.9c0-0.1,0-0.2-0.1-0.2l0,0c-0.1-0.1-0.2-0.1-0.2-0.1l-0.3,0.3c0,0.1,0,0.2,0.1,0.2l0,0
					c0.1,0.1,0.2,0.1,0.2,0.1L131.2,47.9z"/>
				<path fill="#DCDAC8" d="M132.8,49.4c0-0.1,0-0.2-0.1-0.2l0,0c-0.1-0.1-0.2-0.1-0.2-0.1l-0.3,0.3c-0.1,0.1,0,0.2,0.1,0.2l0,0
					c0.1,0.1,0.2,0.1,0.2,0.1L132.8,49.4z"/>
				<path fill="#DCDAC8" d="M134.4,51c0-0.1,0-0.2-0.1-0.2l0,0c-0.1-0.1-0.2-0.1-0.2-0.1l-0.3,0.3c-0.1,0.1,0,0.2,0.1,0.2l0,0
					c0.1,0.1,0.2,0.1,0.2,0.1L134.4,51z"/>
				<path fill="#DCDAC8" d="M135.9,52.5c0-0.1,0-0.2-0.1-0.2l0,0c-0.1-0.1-0.2-0.1-0.2-0.1l-0.3,0.3c0,0.1,0,0.2,0.1,0.2l0,0
					c0.1,0.1,0.2,0.1,0.2,0.1L135.9,52.5z"/>
			</g>
			<g>
				<path fill="#D95B46" d="M130.3,44.6c0.1-0.1,0-0.2-0.1-0.2l0,0c-0.1-0.1-0.2-0.1-0.2-0.1l-0.3,0.3c0,0.1,0,0.2,0.1,0.2l0,0
					c0.1,0.1,0.2,0.1,0.2,0.1L130.3,44.6z"/>
				<path fill="#D95B46" d="M131.9,46.1c0-0.1,0-0.2-0.1-0.2l0,0c-0.1-0.1-0.2-0.1-0.2-0.1l-0.3,0.3c-0.1,0.1,0,0.2,0.1,0.2l0,0
					c0.1,0.1,0.2,0.1,0.2,0.1L131.9,46.1z"/>
				<path fill="#D95B46" d="M133.5,47.7c0.1-0.1,0-0.2-0.1-0.2l0,0c-0.1-0.1-0.2-0.1-0.2-0.1l-0.3,0.3c0,0.1,0,0.2,0.1,0.2l0,0
					c0.1,0.1,0.2,0.1,0.2,0.1L133.5,47.7z"/>
				<path fill="#F16A54" d="M135,49.2c0-0.1,0-0.2-0.1-0.2l0,0c-0.1-0.1-0.2-0.1-0.2-0.1l-0.3,0.3c0,0.1,0,0.2,0.1,0.2l0,0
					c0.1,0.1,0.2,0.1,0.2,0.1L135,49.2z"/>
				<path fill="#F16A54" d="M136.6,50.7c0-0.1,0-0.2-0.1-0.2l0,0c-0.1-0.1-0.2-0.1-0.2-0.1l-0.3,0.3c0,0.1,0,0.2,0.1,0.2l0,0
					c0.1,0.1,0.2,0.1,0.2,0.1L136.6,50.7z"/>
			</g>
			<g>
				<path fill="#DCDAC8" d="M130.2,44.5c0-0.1,0-0.2-0.1-0.2l0,0c-0.1-0.1-0.2-0.1-0.2-0.1l-0.3,0.3c-0.1,0.1,0,0.2,0.1,0.2l0,0
					c0.1,0.1,0.2,0.1,0.2,0.1L130.2,44.5z"/>
				<path fill="#DCDAC8" d="M131.8,46c0-0.1,0-0.2-0.1-0.2l0,0c-0.1-0.1-0.2-0.1-0.2-0.1l-0.3,0.3c-0.1,0.1,0,0.2,0.1,0.2l0,0
					c0.1,0.1,0.2,0.1,0.2,0.1L131.8,46z"/>
				<path fill="#DCDAC8" d="M133.3,47.5c0.1,0,0-0.2-0.1-0.2l0,0c-0.1-0.1-0.2-0.1-0.2-0.1l-0.3,0.3c0,0.1,0,0.2,0.1,0.2l0,0
					c0.1,0.1,0.2,0.1,0.2,0.1L133.3,47.5z"/>
				<path fill="#DCDAC8" d="M134.9,49.1c0-0.1,0-0.2-0.1-0.2l0,0c-0.1-0.1-0.2-0.1-0.2-0.1l-0.3,0.3c-0.1,0.1,0,0.2,0.1,0.2l0,0
					c0.1,0.1,0.2,0.1,0.2,0.1L134.9,49.1z"/>
				<path fill="#DCDAC8" d="M136.5,50.6c0-0.1,0-0.2-0.1-0.2l0,0c-0.1-0.1-0.2-0.1-0.2-0.1l-0.3,0.3c-0.1,0.1,0,0.2,0.1,0.2l0,0
					c0.1,0.1,0.2,0.1,0.2,0.1L136.5,50.6z"/>
			</g>
			<g>
				<path fill="#D95B46" d="M132.4,44.2c0-0.1,0-0.2-0.1-0.2l0,0c-0.1-0.1-0.2-0.1-0.2-0.1l-0.3,0.3c0,0.1,0,0.2,0.1,0.2l0,0
					c0.1,0.1,0.2,0.1,0.2,0.1L132.4,44.2z"/>
				<path fill="#D95B46" d="M134,45.8c0-0.1,0-0.2-0.1-0.2l0,0c-0.1-0.1-0.2-0.1-0.2-0.1l-0.3,0.3c-0.1,0.1,0,0.2,0.1,0.2l0,0
					c0.1,0.1,0.2,0.1,0.2,0.1L134,45.8z"/>
				<path fill="#F16A54" d="M135.6,47.3c0-0.1,0-0.2-0.1-0.2l0,0c-0.1-0.1-0.2-0.1-0.2-0.1l-0.3,0.3c-0.1,0.1,0,0.2,0.1,0.2l0,0
					c0.1,0.1,0.2,0.1,0.2,0.1L135.6,47.3z"/>
				<path fill="#F16A54" d="M137.1,48.8c0.1-0.1,0-0.2-0.1-0.2l0,0c-0.1-0.1-0.2-0.1-0.2-0.1l-0.3,0.3c0,0.1,0,0.2,0.1,0.2l0,0
					c0.1,0.1,0.2,0.1,0.2,0.1L137.1,48.8z"/>
			</g>
			<g>
				<path fill="#DCDAC8" d="M132.3,44.1c0-0.1,0-0.2-0.1-0.2l0,0c-0.1-0.1-0.2-0.1-0.2-0.1l-0.3,0.3c0,0.1,0,0.2,0.1,0.2l0,0
					c0.1,0.1,0.2,0.1,0.2,0.1L132.3,44.1z"/>
				<path fill="#DCDAC8" d="M133.9,45.6c0-0.1,0-0.2-0.1-0.2l0,0c-0.1-0.1-0.2-0.1-0.2-0.1l-0.3,0.3c-0.1,0.1,0,0.2,0.1,0.2l0,0
					c0.1,0.1,0.2,0.1,0.2,0.1L133.9,45.6z"/>
				<path fill="#DCDAC8" d="M135.4,47.2c0,0,0-0.2-0.1-0.2l0,0c-0.1-0.1-0.2-0.1-0.2-0.1l-0.3,0.3c0,0.1,0,0.2,0.1,0.2l0,0
					c0.1,0.1,0.2,0.1,0.2,0.1L135.4,47.2z"/>
				<path fill="#DCDAC8" d="M137,48.7c0,0,0-0.2-0.1-0.2l0,0c-0.1-0.1-0.2-0.1-0.2-0.1l-0.3,0.3c0,0.1,0,0.2,0.1,0.2l0,0
					c0.1,0.1,0.2,0.1,0.2,0.1L137,48.7z"/>
			</g>
			<g>
				<path fill="#D95B46" d="M134.6,43.9c0-0.1,0-0.2-0.1-0.2l0,0c-0.1-0.1-0.2-0.1-0.2-0.1l-0.3,0.3c0,0.1,0,0.2,0.1,0.2l0,0
					c0.1,0.1,0.2,0.1,0.2,0.1L134.6,43.9z"/>
				<path fill="#F16A54" d="M136.1,45.4c0-0.1,0-0.2-0.1-0.2l0,0c-0.1-0.1-0.2-0.1-0.2-0.1l-0.3,0.3c0,0.1,0,0.2,0.1,0.2l0,0
					c0.1,0.1,0.2,0.1,0.2,0.1L136.1,45.4z"/>
				<path fill="#F16A54" d="M137.7,46.9c0.1-0.1,0-0.2-0.1-0.2l0,0c-0.1-0.1-0.2-0.1-0.2-0.1l-0.3,0.3c-0.1,0.1,0,0.2,0.1,0.2l0,0
					c0.1,0.1,0.2,0.1,0.2,0.1L137.7,46.9z"/>
			</g>
			<g>
				<path fill="#DCDAC8" d="M134.4,43.7c0-0.1,0-0.2-0.1-0.2l0,0c-0.1-0.1-0.2-0.1-0.2-0.1l-0.3,0.3c-0.1,0.1,0,0.2,0.1,0.2l0,0
					c0.1,0.1,0.2,0.1,0.2,0.1L134.4,43.7z"/>
				<path fill="#DCDAC8" d="M136,45.3c0-0.1,0-0.2-0.1-0.2l0,0c-0.1-0.1-0.2-0.1-0.2-0.1l-0.3,0.3c-0.1,0.1,0,0.2,0.1,0.2l0,0
					c0.1,0.1,0.2,0.1,0.2,0.1L136,45.3z"/>
				<path fill="#DCDAC8" d="M137.6,46.8c0.1-0.1,0-0.2-0.1-0.2l0,0c-0.1-0.1-0.2-0.1-0.2-0.1l-0.3,0.3c-0.1,0.1,0,0.2,0.1,0.2l0,0
					c0.1,0.1,0.2,0.1,0.2,0.1L137.6,46.8z"/>
			</g>
			<g>
				<path fill="#D95B46" d="M136.7,43.5c0-0.1,0-0.2-0.1-0.2l0,0c-0.1-0.1-0.2-0.1-0.2-0.1l-0.3,0.3c-0.1,0.1,0,0.2,0.1,0.2l0,0
					c0.1,0.1,0.2,0.1,0.2,0.1L136.7,43.5z"/>
				<path fill="#F16A54" d="M138.2,45.1c0-0.1,0-0.2-0.1-0.2l0,0c-0.1-0.1-0.2-0.1-0.2-0.1l-0.3,0.3c-0.1,0.1,0,0.2,0.1,0.2l0,0
					c0.1,0.1,0.2,0.1,0.2,0.1L138.2,45.1z"/>
			</g>
			<g>
				<path fill="#DCDAC8" d="M136.5,43.4c0.1-0.1,0-0.2-0.1-0.2l0,0c-0.1-0.1-0.2-0.1-0.2-0.1l-0.3,0.3c-0.1,0.1,0,0.2,0.1,0.2l0,0
					c0.1,0.1,0.2,0.1,0.2,0.1L136.5,43.4z"/>
				<path fill="#DCDAC8" d="M138.1,44.9c0.1-0.1,0-0.2-0.1-0.2l0,0c-0.1-0.1-0.2-0.1-0.2-0.1l-0.3,0.3c0,0.1,0,0.2,0.1,0.2l0,0
					c0.1,0.1,0.2,0.1,0.2,0.1L138.1,44.9z"/>
			</g>
			<g>
				<path fill="#F16A54" d="M138.8,43.2c0-0.1,0-0.2-0.1-0.2l0,0c-0.1-0.1-0.2-0.1-0.2-0.1l-0.3,0.3c-0.1,0.1,0,0.2,0.1,0.2l0,0
					c0.1,0.1,0.2,0.1,0.2,0.1L138.8,43.2z"/>
			</g>
			<g>
				<path fill="#DCDAC8" d="M138.7,43c0-0.1,0-0.2-0.1-0.2l0,0c-0.1-0.1-0.2-0.1-0.2-0.1l-0.3,0.3c-0.1,0.1,0,0.2,0.1,0.2l0,0
					c0.1,0.1,0.2,0.1,0.2,0.1L138.7,43z"/>
			</g>
		</g>
	</g>
	<g>
		<g>
			<path fill="#71841F" d="M69,39.5c-0.1,0-0.1,0-0.2-0.1c-0.1-0.1-0.1-0.2,0-0.3c1.2-1.2,1-2.2,1-2.2c0-0.1,0.1-0.2,0.2-0.3
				c0.1,0,0.2,0.1,0.3,0.2c0,0,0.2,1.2-1.1,2.6C69.1,39.5,69.1,39.5,69,39.5L69,39.5z"/>
		</g>
		<g>
			<path fill="#71841F" d="M71.5,37.8c0.1,0.5-0.2,1.2-0.7,1.7c-0.6,0.5-1.3,0.6-1.8,0.4c-0.1-0.5,0.2-1.2,0.7-1.7
				C70.3,37.7,71,37.6,71.5,37.8z"/>
			<path fill="#879C29" d="M71.5,37.8L69,39.9c-0.1-0.5,0.2-1.2,0.7-1.7C70.3,37.7,71,37.6,71.5,37.8z"/>
		</g>
		<g>
			<path fill="#71841F" d="M73.1,39.9c-0.3,0.5-1,0.7-1.7,0.7c-0.7-0.1-1.3-0.4-1.6-0.9c0.3-0.5,1-0.7,1.7-0.7
				C72.3,39,72.9,39.4,73.1,39.9z"/>
			<path fill="#879C29" d="M73.1,39.9l-3.3-0.3c0.3-0.5,1-0.7,1.7-0.7C72.3,39,72.9,39.4,73.1,39.9z"/>
		</g>
		<g>
			<path fill="#879C29" d="M68.8,36.3c-0.5,0.3-0.7,0.9-0.7,1.7c0,0.7,0.4,1.3,0.9,1.6c0.5-0.3,0.7-0.9,0.7-1.7
				C69.6,37.1,69.3,36.5,68.8,36.3z"/>
			<path fill="#71841F" d="M68.8,36.3l0.2,3.3c0.5-0.3,0.7-0.9,0.7-1.7C69.6,37.1,69.3,36.5,68.8,36.3z"/>
		</g>
		<g>
			<path fill="#71841F" d="M66.4,37.5c0,0.5,0.5,1.1,1.1,1.4c0.7,0.3,1.4,0.3,1.8-0.1c0-0.5-0.5-1.1-1.1-1.4
				C67.5,37.1,66.8,37.2,66.4,37.5z"/>
			<path fill="#71841F" d="M66.4,37.5l3,1.4c0-0.5-0.5-1.1-1.1-1.4C67.5,37.1,66.8,37.2,66.4,37.5z"/>
		</g>
		<g>
			<path fill="#D95B46" d="M65,45.4c0.2,1.8,1.9,2.5,3.4,1.4c1.7-1.2,3.2-2.5,4.6-3.7c1.1-1.1,0.7-2.4-0.7-3
				c-1.7-0.7-3.4-1.4-5.1-2.2c-1.4-0.6-2.7,0-2.7,1.6C64.5,41.4,64.7,43.4,65,45.4z"/>
			<path fill="#F16A54" d="M72.9,43.1c-1.4,1.2-2.9,2.5-4.6,3.7c-0.5,0.4-1.1,0.5-1.6,0.5c-0.1-0.3-0.2-0.8-0.1-1.2
				c0.3-1.7,0.7-3.4,1.1-5.1c0.4-1.4,1.1-2.4,1.5-2.2c1,0.4,2,0.8,3,1.3C73.7,40.7,74.1,42.1,72.9,43.1z"/>
		</g>
		<g>
			<g>
				<path fill="#D95B46" d="M72.7,41.9c0,0,0,0.1,0.1,0.1l0,0c0.1,0,0.2,0,0.2,0l0.1-0.3c0,0,0-0.1-0.1-0.1l0,0c-0.1,0-0.2,0-0.2,0
					L72.7,41.9z"/>
				<path fill="#D95B46" d="M71.3,41.3c0,0,0,0.1,0.1,0.1l0,0c0.1,0,0.2,0,0.2,0l0.1-0.3c0,0,0-0.1-0.1-0.1l0,0c-0.1,0-0.2,0-0.2,0
					L71.3,41.3z"/>
				<path fill="#D95B46" d="M69.8,40.7c0,0,0,0.1,0.1,0.1l0,0c0.1,0,0.2,0,0.2,0l0.1-0.3c0,0,0-0.1-0.1-0.1l0,0c-0.1,0-0.2,0-0.2,0
					L69.8,40.7z"/>
				<path fill="#D95B46" d="M68.3,40.1c0,0,0,0.1,0.1,0.1l0,0c0.1,0,0.2,0,0.2,0l0.1-0.3c0,0,0-0.1-0.1-0.1l0,0c-0.1,0-0.2,0-0.2,0
					L68.3,40.1z"/>
				<path fill="#F16A54" d="M66.9,39.4c0,0,0,0.1,0.1,0.1l0,0c0.1,0,0.2,0,0.2,0l0.1-0.3c0,0,0-0.1-0.1-0.1l0,0c-0.1,0-0.2,0-0.2,0
					L66.9,39.4z"/>
				<path fill="#F16A54" d="M65.4,38.8c0,0,0,0.1,0.1,0.1l0,0c0.1,0,0.2,0,0.2,0l0.1-0.3c0,0,0-0.1-0.1-0.1l0,0c-0.1,0-0.2,0-0.2,0
					L65.4,38.8z"/>
			</g>
			<g>
				<path fill="#DCDAC8" d="M72.8,42c0,0,0,0.1,0.1,0.1l0,0c0.1,0,0.2,0,0.2,0l0.1-0.3c0,0,0-0.1-0.1-0.1l0,0c-0.1,0-0.2,0-0.2,0
					L72.8,42z"/>
				<path fill="#DCDAC8" d="M71.4,41.4c0,0,0,0.1,0.1,0.1l0,0c0.1,0,0.2,0,0.2,0l0.1-0.3c0,0,0-0.1-0.1-0.1l0,0c-0.1,0-0.2,0-0.2,0
					L71.4,41.4z"/>
				<path fill="#DCDAC8" d="M69.9,40.7c0,0,0,0.1,0.1,0.1l0,0c0.1,0,0.2,0,0.2,0l0.1-0.3c0,0,0-0.1-0.1-0.1l0,0c-0.1,0-0.2,0-0.2,0
					L69.9,40.7z"/>
				<path fill="#DCDAC8" d="M68.5,40.1c0,0,0,0.1,0.1,0.1l0,0c0.1,0,0.2,0,0.2,0l0.1-0.3c0,0,0-0.1-0.1-0.1l0,0c-0.1,0-0.2,0-0.2,0
					L68.5,40.1z"/>
				<path fill="#DCDAC8" d="M67,39.5c0,0,0,0.1,0.1,0.1l0,0c0.1,0,0.2,0,0.2,0l0.1-0.3c0,0,0-0.1-0.1-0.1l0,0c-0.1,0-0.2,0-0.2,0
					L67,39.5z"/>
				<path fill="#DCDAC8" d="M65.5,38.9c0,0,0,0.1,0.1,0.1l0,0c0.1,0,0.2,0,0.2,0l0.1-0.3c0,0,0-0.1-0.1-0.1l0,0c-0.1,0-0.2,0-0.2,0
					L65.5,38.9z"/>
			</g>
			<g>
				<path fill="#D95B46" d="M71.4,42.7c0,0,0,0.1,0.1,0.1l0,0c0.1,0,0.2,0,0.2,0l0.1-0.3c0,0,0-0.1-0.1-0.1l0,0c-0.1,0-0.2,0-0.2,0
					L71.4,42.7z"/>
				<path fill="#D95B46" d="M69.9,42.1c0,0,0,0.1,0.1,0.1l0,0c0.1,0,0.2,0,0.2,0l0.1-0.3c0,0,0-0.1-0.1-0.1l0,0c-0.1,0-0.2,0-0.2,0
					L69.9,42.1z"/>
				<path fill="#D95B46" d="M68.5,41.5c0,0,0,0.1,0.1,0.1l0,0c0.1,0,0.2,0,0.2,0l0.1-0.3c0,0,0-0.1-0.1-0.1l0,0c-0.1,0-0.2,0-0.2,0
					L68.5,41.5z"/>
				<path fill="#F16A54" d="M67,40.9c0,0,0,0.1,0.1,0.1l0,0c0.1,0,0.2,0,0.2,0l0.1-0.3c0,0,0-0.1-0.1-0.1l0,0c-0.1,0-0.2,0-0.2,0
					L67,40.9z"/>
				<path fill="#F16A54" d="M65.5,40.2c0,0,0,0.1,0.1,0.1l0,0c0.1,0,0.2,0,0.2,0l0.1-0.3c0,0,0-0.1-0.1-0.1l0,0c-0.1,0-0.2,0-0.2,0
					L65.5,40.2z"/>
			</g>
			<g>
				<path fill="#DCDAC8" d="M71.5,42.8c0,0,0,0.1,0.1,0.1l0,0c0.1,0,0.2,0,0.2,0l0.1-0.3c0,0,0-0.1-0.1-0.1l0,0c-0.1,0-0.2,0-0.2,0
					L71.5,42.8z"/>
				<path fill="#DCDAC8" d="M70,42.2c0,0,0,0.1,0.1,0.1l0,0c0.1,0,0.2,0,0.2,0l0.1-0.3c0,0,0-0.1-0.1-0.1l0,0c-0.1,0-0.2,0-0.2,0
					L70,42.2z"/>
				<path fill="#DCDAC8" d="M68.6,41.5c0,0,0,0.1,0.1,0.1l0,0c0.1,0,0.2,0,0.2,0l0.1-0.3c0,0,0-0.1-0.1-0.1l0,0c-0.1,0-0.2,0-0.2,0
					L68.6,41.5z"/>
				<path fill="#DCDAC8" d="M67.1,40.9c0,0,0,0.1,0.1,0.1l0,0c0.1,0,0.2,0,0.2,0l0.1-0.3c0,0,0-0.1-0.1-0.1l0,0c-0.1,0-0.2,0-0.2,0
					L67.1,40.9z"/>
				<path fill="#DCDAC8" d="M65.7,40.3c0,0,0,0.1,0.1,0.1l0,0c0.1,0,0.2,0,0.2,0l0.1-0.3c0,0,0-0.1-0.1-0.1l0,0c-0.1,0-0.2,0-0.2,0
					L65.7,40.3z"/>
			</g>
			<g>
				<path fill="#D95B46" d="M70.1,43.5c0,0,0,0.1,0.1,0.1l0,0c0.1,0,0.2,0,0.2,0l0.1-0.3c0,0,0-0.1-0.1-0.1l0,0c-0.1,0-0.2,0-0.2,0
					L70.1,43.5z"/>
				<path fill="#D95B46" d="M68.6,42.9c0,0,0,0.1,0.1,0.1l0,0c0.1,0,0.2,0,0.2,0l0.1-0.3c0,0,0-0.1-0.1-0.1l0,0c-0.1,0-0.2,0-0.2,0
					L68.6,42.9z"/>
				<path fill="#F16A54" d="M67.1,42.3c0,0,0,0.1,0.1,0.1l0,0c0.1,0,0.2,0,0.2,0l0.1-0.3c0,0,0-0.1-0.1-0.1l0,0c-0.1,0-0.2,0-0.2,0
					L67.1,42.3z"/>
				<path fill="#F16A54" d="M65.7,41.7c0,0,0,0.1,0.1,0.1l0,0c0.1,0,0.2,0,0.2,0l0.1-0.3c0,0,0-0.1-0.1-0.1l0,0c-0.1,0-0.2,0-0.2,0
					L65.7,41.7z"/>
			</g>
			<g>
				<path fill="#DCDAC8" d="M70.2,43.6c0,0,0,0.1,0.1,0.1l0,0c0.1,0,0.2,0,0.2,0l0.1-0.3c0,0,0-0.1-0.1-0.1l0,0c-0.1,0-0.2,0-0.2,0
					L70.2,43.6z"/>
				<path fill="#DCDAC8" d="M68.7,43c0,0,0,0.1,0.1,0.1l0,0c0.1,0,0.2,0,0.2,0l0.1-0.3c0,0,0-0.1-0.1-0.1l0,0c-0.1,0-0.2,0-0.2,0
					L68.7,43z"/>
				<path fill="#DCDAC8" d="M67.3,42.3c0,0,0,0.1,0.1,0.1l0,0c0.1,0,0.2,0,0.2,0l0.1-0.3c0,0,0-0.1-0.1-0.1l0,0c-0.1,0-0.2,0-0.2,0
					L67.3,42.3z"/>
				<path fill="#DCDAC8" d="M65.8,41.7c0,0,0,0.1,0.1,0.1l0,0c0.1,0,0.2,0,0.2,0l0.1-0.3c0,0,0-0.1-0.1-0.1l0,0c-0.1,0-0.2,0-0.2,0
					L65.8,41.7z"/>
			</g>
			<g>
				<path fill="#D95B46" d="M68.7,44.3c0,0,0,0.1,0.1,0.1l0,0c0.1,0,0.2,0,0.2,0l0.1-0.3c0,0,0-0.1-0.1-0.1l0,0c-0.1,0-0.2,0-0.2,0
					L68.7,44.3z"/>
				<path fill="#F16A54" d="M67.3,43.7c0,0,0,0.1,0.1,0.1l0,0c0.1,0,0.2,0,0.2,0l0.1-0.3c0,0,0-0.1-0.1-0.1l0,0c-0.1,0-0.2,0-0.2,0
					L67.3,43.7z"/>
				<path fill="#F16A54" d="M65.8,43.1c0,0,0,0.1,0.1,0.1l0,0c0.1,0,0.2,0,0.2,0l0.1-0.3c0,0,0-0.1-0.1-0.1l0,0c-0.1,0-0.2,0-0.2,0
					L65.8,43.1z"/>
			</g>
			<g>
				<path fill="#DCDAC8" d="M68.8,44.4c0,0,0,0.1,0.1,0.1l0,0c0.1,0,0.2,0,0.2,0l0.1-0.3c0,0,0-0.1-0.1-0.1l0,0c-0.1,0-0.2,0-0.2,0
					L68.8,44.4z"/>
				<path fill="#DCDAC8" d="M67.4,43.8c0,0,0,0.1,0.1,0.1l0,0c0.1,0,0.2,0,0.2,0l0.1-0.3c0,0,0-0.1-0.1-0.1l0,0c-0.1,0-0.2,0-0.2,0
					L67.4,43.8z"/>
				<path fill="#DCDAC8" d="M65.9,43.1c0,0,0,0.1,0.1,0.1l0,0c0.1,0,0.2,0,0.2,0l0.1-0.3c0,0,0-0.1-0.1-0.1l0,0c-0.1,0-0.2,0-0.2,0
					L65.9,43.1z"/>
			</g>
			<g>
				<path fill="#D95B46" d="M67.4,45.1c0,0,0,0.1,0.1,0.1l0,0c0.1,0,0.2,0,0.2,0l0.1-0.3c0,0,0-0.1-0.1-0.1l0,0c-0.1,0-0.2,0-0.2,0
					L67.4,45.1z"/>
				<path fill="#F16A54" d="M65.9,44.5c0,0,0,0.1,0.1,0.1l0,0c0.1,0,0.2,0,0.2,0l0.1-0.3c0,0,0-0.1-0.1-0.1l0,0c-0.1,0-0.2,0-0.2,0
					L65.9,44.5z"/>
			</g>
			<g>
				<path fill="#DCDAC8" d="M67.5,45.2c0,0,0,0.1,0.1,0.1l0,0c0.1,0,0.2,0,0.2,0l0.1-0.3c0,0,0-0.1-0.1-0.1l0,0c-0.1,0-0.2,0-0.2,0
					L67.5,45.2z"/>
				<path fill="#DCDAC8" d="M66,44.6c0,0,0,0.1,0.1,0.1l0,0c0.1,0,0.2,0,0.2,0l0.1-0.3c0,0,0-0.1-0.1-0.1l0,0c-0.1,0-0.2,0-0.2,0
					L66,44.6z"/>
			</g>
			<g>
				<path fill="#F16A54" d="M66.1,45.9c0,0,0,0.1,0.1,0.1l0,0c0.1,0,0.2,0,0.2,0l0.1-0.3c0,0,0-0.1-0.1-0.1l0,0c-0.1,0-0.2,0-0.2,0
					L66.1,45.9z"/>
			</g>
			<g>
				<path fill="#DCDAC8" d="M66.2,46c0,0,0,0.1,0.1,0.1l0,0c0.1,0,0.2,0,0.2,0l0.1-0.3c0,0,0-0.1-0.1-0.1l0,0c-0.1,0-0.2,0-0.2,0
					L66.2,46z"/>
			</g>
		</g>
	</g>
	<g>
		<g>
			<path fill="#71841F" d="M49.2,138.4c-0.1,0-0.2,0-0.2-0.1c-0.9-1.7-2-1.9-2-1.9c-0.1,0-0.2-0.1-0.2-0.3c0-0.1,0.1-0.2,0.3-0.2
				c0.1,0,1.4,0.2,2.4,2.1c0.1,0.1,0,0.3-0.1,0.3C49.2,138.4,49.2,138.4,49.2,138.4L49.2,138.4z"/>
		</g>
		<g>
			<path fill="#71841F" d="M48.5,134.9c0.6,0.1,1.2,0.6,1.5,1.4c0.3,0.8,0.2,1.6-0.2,2c-0.6-0.1-1.2-0.6-1.5-1.4
				C48,136.2,48.1,135.4,48.5,134.9z"/>
			<path fill="#879C29" d="M48.5,134.9l1.3,3.4c-0.6-0.1-1.2-0.6-1.5-1.4C48,136.2,48.1,135.4,48.5,134.9z"/>
		</g>
		<g>
			<path fill="#71841F" d="M51.3,134.1c0.4,0.5,0.4,1.3,0.1,2c-0.3,0.8-1,1.3-1.6,1.3c-0.4-0.5-0.4-1.3-0.1-2
				C50.1,134.6,50.7,134.1,51.3,134.1z"/>
			<path fill="#879C29" d="M51.3,134.1l-1.5,3.4c-0.4-0.5-0.4-1.3-0.1-2C50.1,134.6,50.7,134.1,51.3,134.1z"/>
		</g>
		<g>
			<path fill="#879C29" d="M45.9,137.3c0.2,0.6,0.7,1.1,1.5,1.4c0.8,0.2,1.6,0,2-0.4c-0.2-0.6-0.7-1.1-1.5-1.4
				C47.1,136.7,46.3,136.9,45.9,137.3z"/>
			<path fill="#71841F" d="M45.9,137.3l3.5,1c-0.2-0.6-0.7-1.1-1.5-1.4C47.1,136.7,46.3,136.9,45.9,137.3z"/>
		</g>
		<g>
			<path fill="#71841F" d="M46.3,140.3c0.6,0.1,1.4-0.1,1.9-0.7c0.6-0.6,0.8-1.4,0.6-2c-0.6-0.1-1.4,0.1-1.9,0.7
				C46.3,139,46.1,139.7,46.3,140.3z"/>
			<path fill="#71841F" d="M46.3,140.3l2.5-2.7c-0.6-0.1-1.4,0.1-1.9,0.7C46.3,139,46.1,139.7,46.3,140.3z"/>
		</g>
		<g>
			<path fill="#D95B46" d="M54.2,144.7c2,0.4,3.3-1.1,2.8-3.1c-0.7-2.2-1.5-4.3-2.3-6.2c-0.7-1.6-2.3-1.6-3.5-0.4
				c-1.4,1.5-2.8,3.1-4.2,4.6c-1.2,1.3-0.9,2.9,0.7,3.4C49.7,143.7,51.9,144.3,54.2,144.7z"/>
			<path fill="#F16A54" d="M54.7,135.4c0.8,1.9,1.6,4,2.3,6.2c0.2,0.7,0.2,1.4-0.1,1.9c-0.4,0-0.9-0.1-1.3-0.3c-1.7-1-3.4-2-5-3.1
				c-1.4-0.9-2.2-2-1.8-2.5c0.8-0.9,1.6-1.8,2.4-2.7C52.4,133.8,54,133.8,54.7,135.4z"/>
		</g>
		<g>
			<g>
				<path fill="#D95B46" d="M53.4,135.2c0,0,0.1,0,0.2-0.1l0,0c0.1-0.1,0.1-0.2,0-0.2l-0.3-0.2c0,0-0.1,0-0.2,0.1l0,0
					c-0.1,0.1-0.1,0.2,0,0.2L53.4,135.2z"/>
				<path fill="#D95B46" d="M52.2,136.5c0,0,0.1,0,0.2-0.1l0,0c0.1-0.1,0.1-0.2,0-0.2l-0.3-0.2c0,0-0.1,0-0.2,0.1l0,0
					c-0.1,0.1-0.1,0.2,0,0.2L52.2,136.5z"/>
				<path fill="#D95B46" d="M51,137.9c0,0,0.1,0,0.2-0.1l0,0c0.1-0.1,0.1-0.2,0-0.2l-0.3-0.2c0,0-0.1,0-0.2,0.1l0,0
					c-0.1,0.1-0.1,0.2,0,0.2L51,137.9z"/>
				<path fill="#D95B46" d="M49.8,139.2c0,0,0.1,0,0.2-0.1l0,0c0.1-0.1,0.1-0.2,0-0.2l-0.3-0.2c0,0-0.1,0-0.2,0.1l0,0
					c-0.1,0.1-0.1,0.2,0,0.2L49.8,139.2z"/>
				<path fill="#F16A54" d="M48.6,140.5c0,0,0.1,0,0.2-0.1l0,0c0.1-0.1,0.1-0.2,0-0.2l-0.3-0.2c0,0-0.1,0-0.2,0.1l0,0
					c-0.1,0.1-0.1,0.2,0,0.2L48.6,140.5z"/>
				<path fill="#F16A54" d="M47.4,141.8c0,0,0.1,0,0.2-0.1l0,0c0.1-0.1,0.1-0.2,0-0.2l-0.3-0.2c0,0-0.1,0-0.2,0.1l0,0
					c-0.1,0.1-0.1,0.2,0,0.2L47.4,141.8z"/>
			</g>
			<g>
				<path fill="#DCDAC8" d="M53.5,135.1c0,0,0.1,0,0.2-0.1l0,0c0.1-0.1,0.1-0.2,0-0.2l-0.3-0.2c0,0-0.1,0-0.2,0.1l0,0
					c-0.1,0.1-0.1,0.2,0,0.2L53.5,135.1z"/>
				<path fill="#DCDAC8" d="M52.3,136.4c0,0,0.1,0,0.2-0.1l0,0c0.1-0.1,0.1-0.2,0-0.2l-0.3-0.2c0,0-0.1,0-0.2,0.1l0,0
					c-0.1,0.1-0.1,0.2,0,0.2L52.3,136.4z"/>
				<path fill="#DCDAC8" d="M51.1,137.7c0,0,0.1,0,0.2-0.1l0,0c0.1-0.1,0.1-0.2,0-0.2l-0.3-0.2c0,0-0.1,0-0.2,0.1l0,0
					c-0.1,0.1-0.1,0.2,0,0.2L51.1,137.7z"/>
				<path fill="#DCDAC8" d="M49.9,139.1c0,0,0.1,0,0.2-0.1l0,0c0.1-0.1,0.1-0.2,0-0.2l-0.3-0.2c0,0-0.1,0-0.2,0.1l0,0
					c-0.1,0.1-0.1,0.2,0,0.2L49.9,139.1z"/>
				<path fill="#DCDAC8" d="M48.7,140.4c0,0,0.1,0,0.2-0.1l0,0c0.1-0.1,0.1-0.2,0-0.2l-0.3-0.2c0,0-0.1,0-0.2,0.1l0,0
					c-0.1,0.1-0.1,0.2,0,0.2L48.7,140.4z"/>
				<path fill="#DCDAC8" d="M47.5,141.7c0,0,0.1,0,0.2-0.1l0,0c0.1-0.1,0.1-0.2,0-0.2l-0.3-0.2c0,0-0.1,0-0.2,0.1l0,0
					c-0.1,0.1-0.1,0.2,0,0.2L47.5,141.7z"/>
			</g>
			<g>
				<path fill="#D95B46" d="M53.7,136.9c0,0,0.1,0,0.2-0.1l0,0c0.1-0.1,0.1-0.2,0-0.2l-0.3-0.2c0,0-0.1,0-0.2,0.1l0,0
					c-0.1,0.1-0.1,0.2,0,0.2L53.7,136.9z"/>
				<path fill="#D95B46" d="M52.5,138.2c0,0,0.1,0,0.2-0.1l0,0c0.1-0.1,0.1-0.2,0-0.2l-0.3-0.2c0,0-0.1,0-0.2,0.1l0,0
					c-0.1,0.1-0.1,0.2,0,0.2L52.5,138.2z"/>
				<path fill="#D95B46" d="M51.3,139.6c0,0,0.1,0,0.2-0.1l0,0c0.1-0.1,0.1-0.2,0-0.2l-0.3-0.2c0,0-0.1,0-0.2,0.1l0,0
					c-0.1,0.1-0.1,0.2,0,0.2L51.3,139.6z"/>
				<path fill="#F16A54" d="M50.1,140.9c0,0,0.1,0,0.2-0.1l0,0c0.1-0.1,0.1-0.2,0-0.2l-0.3-0.2c0,0-0.1,0-0.2,0.1l0,0
					c-0.1,0.1-0.1,0.2,0,0.2L50.1,140.9z"/>
				<path fill="#F16A54" d="M48.9,142.2c0,0,0.1,0,0.2-0.1l0,0c0.1-0.1,0.1-0.2,0-0.2l-0.3-0.2c0,0-0.1,0-0.2,0.1l0,0
					c-0.1,0.1-0.1,0.2,0,0.2L48.9,142.2z"/>
			</g>
			<g>
				<path fill="#DCDAC8" d="M53.8,136.8c0,0,0.1,0,0.2-0.1l0,0c0.1-0.1,0.1-0.2,0-0.2l-0.3-0.2c0,0-0.1,0-0.2,0.1l0,0
					c-0.1,0.1-0.1,0.2,0,0.2L53.8,136.8z"/>
				<path fill="#DCDAC8" d="M52.6,138.1c0,0,0.1,0,0.2-0.1l0,0c0.1-0.1,0.1-0.2,0-0.2l-0.3-0.2c0,0-0.1,0-0.2,0.1l0,0
					c-0.1,0.1-0.1,0.2,0,0.2L52.6,138.1z"/>
				<path fill="#DCDAC8" d="M51.4,139.5c0,0,0.1,0,0.2-0.1l0,0c0.1-0.1,0.1-0.2,0-0.2l-0.3-0.2c0,0-0.1,0-0.2,0.1l0,0
					c-0.1,0.1-0.1,0.2,0,0.2L51.4,139.5z"/>
				<path fill="#DCDAC8" d="M50.2,140.8c0,0,0.1,0,0.2-0.1l0,0c0.1-0.1,0.1-0.2,0-0.2l-0.3-0.2c0,0-0.1,0-0.2,0.1l0,0
					c-0.1,0.1-0.1,0.2,0,0.2L50.2,140.8z"/>
				<path fill="#DCDAC8" d="M49,142.1c0,0,0.1,0,0.2-0.1l0,0c0.1-0.1,0.1-0.2,0-0.2l-0.3-0.2c0,0-0.1,0-0.2,0.1l0,0
					c-0.1,0.1-0.1,0.2,0,0.2L49,142.1z"/>
			</g>
			<g>
				<path fill="#D95B46" d="M54.1,138.6c0,0,0.1,0,0.2-0.1l0,0c0.1-0.1,0.1-0.2,0-0.2l-0.3-0.2c0,0-0.1,0-0.2,0.1l0,0
					c-0.1,0.1-0.1,0.2,0,0.2L54.1,138.6z"/>
				<path fill="#D95B46" d="M52.9,139.9c0,0,0.1,0,0.2-0.1l0,0c0.1-0.1,0.1-0.2,0-0.2l-0.3-0.2c0,0-0.1,0-0.2,0.1l0,0
					c-0.1,0.1-0.1,0.2,0,0.2L52.9,139.9z"/>
				<path fill="#F16A54" d="M51.7,141.3c0,0,0.1,0,0.2-0.1l0,0c0.1-0.1,0.1-0.2,0-0.2l-0.3-0.2c0,0-0.1,0-0.2,0.1l0,0
					c-0.1,0.1-0.1,0.2,0,0.2L51.7,141.3z"/>
				<path fill="#F16A54" d="M50.5,142.6c0,0,0.1,0,0.2-0.1l0,0c0.1-0.1,0.1-0.2,0-0.2l-0.3-0.2c0,0-0.1,0-0.2,0.1l0,0
					c-0.1,0.1-0.1,0.2,0,0.2L50.5,142.6z"/>
			</g>
			<g>
				<path fill="#DCDAC8" d="M54.2,138.5c0,0,0.1,0,0.2-0.1l0,0c0.1-0.1,0.1-0.2,0-0.2l-0.3-0.2c0,0-0.1,0-0.2,0.1l0,0
					c-0.1,0.1-0.1,0.2,0,0.2L54.2,138.5z"/>
				<path fill="#DCDAC8" d="M53,139.8c0,0,0.1,0,0.2-0.1l0,0c0.1-0.1,0.1-0.2,0-0.2l-0.3-0.2c0,0-0.1,0-0.2,0.1l0,0
					c-0.1,0.1-0.1,0.2,0,0.2L53,139.8z"/>
				<path fill="#DCDAC8" d="M51.8,141.2c0,0,0.1,0,0.2-0.1l0,0c0.1-0.1,0.1-0.2,0-0.2l-0.3-0.2c0,0-0.1,0-0.2,0.1l0,0
					c-0.1,0.1-0.1,0.2,0,0.2L51.8,141.2z"/>
				<path fill="#DCDAC8" d="M50.6,142.5c0,0,0.1,0,0.2-0.1l0,0c0.1-0.1,0.1-0.2,0-0.2l-0.3-0.2c0,0-0.1,0-0.2,0.1l0,0
					c-0.1,0.1-0.1,0.2,0,0.2L50.6,142.5z"/>
			</g>
			<g>
				<path fill="#D95B46" d="M54.4,140.3c0,0,0.1,0,0.2-0.1l0,0c0.1-0.1,0.1-0.2,0-0.2l-0.3-0.2c0,0-0.1,0-0.2,0.1l0,0
					c-0.1,0.1-0.1,0.2,0,0.2L54.4,140.3z"/>
				<path fill="#F16A54" d="M53.2,141.7c0,0,0.1,0,0.2-0.1l0,0c0.1-0.1,0.1-0.2,0-0.2l-0.3-0.2c0,0-0.1,0-0.2,0.1l0,0
					c-0.1,0.1-0.1,0.2,0,0.2L53.2,141.7z"/>
				<path fill="#F16A54" d="M52,143c0,0,0.1,0,0.2-0.1l0,0c0.1-0.1,0.1-0.2,0-0.2l-0.3-0.2c0,0-0.1,0-0.2,0.1l0,0
					c-0.1,0.1-0.1,0.2,0,0.2L52,143z"/>
			</g>
			<g>
				<path fill="#DCDAC8" d="M54.5,140.2c0,0,0.1,0,0.2-0.1l0,0c0.1-0.1,0.1-0.2,0-0.2l-0.3-0.2c0,0-0.1,0-0.2,0.1l0,0
					c-0.1,0.1-0.1,0.2,0,0.2L54.5,140.2z"/>
				<path fill="#DCDAC8" d="M53.3,141.5c0,0,0.1,0,0.2-0.1l0,0c0.1-0.1,0.1-0.2,0-0.2l-0.3-0.2c0,0-0.1,0-0.2,0.1l0,0
					c-0.1,0.1-0.1,0.2,0,0.2L53.3,141.5z"/>
				<path fill="#DCDAC8" d="M52.1,142.9c0,0,0.1,0,0.2-0.1l0,0c0.1-0.1,0.1-0.2,0-0.2l-0.3-0.2c0,0-0.1,0-0.2,0.1l0,0
					c-0.1,0.1-0.1,0.2,0,0.2L52.1,142.9z"/>
			</g>
			<g>
				<path fill="#D95B46" d="M54.8,142c0,0,0.1,0,0.2-0.1l0,0c0.1-0.1,0.1-0.2,0-0.2l-0.3-0.2c0,0-0.1,0-0.2,0.1l0,0
					c-0.1,0.1-0.1,0.2,0,0.2L54.8,142z"/>
				<path fill="#F16A54" d="M53.6,143.4c0,0,0.1,0,0.2-0.1l0,0c0.1-0.1,0.1-0.2,0-0.2l-0.3-0.2c0,0-0.1,0-0.2,0.1l0,0
					c-0.1,0.1-0.1,0.2,0,0.2L53.6,143.4z"/>
			</g>
			<g>
				<path fill="#DCDAC8" d="M54.9,141.9c0,0,0.1,0,0.2-0.1l0,0c0.1-0.1,0.1-0.2,0-0.2l-0.3-0.2c0,0-0.1,0-0.2,0.1l0,0
					c-0.1,0.1-0.1,0.2,0,0.2L54.9,141.9z"/>
				<path fill="#DCDAC8" d="M53.7,143.3c0,0,0.1,0,0.2-0.1l0,0c0.1-0.1,0.1-0.2,0-0.2l-0.3-0.2c0,0-0.1,0-0.2,0.1l0,0
					c-0.1,0.1-0.1,0.2,0,0.2L53.7,143.3z"/>
			</g>
			<g>
				<path fill="#F16A54" d="M55.2,143.8c0,0,0.1,0,0.2-0.1l0,0c0.1-0.1,0.1-0.2,0-0.2l-0.3-0.2c0,0-0.1,0-0.2,0.1l0,0
					c-0.1,0.1-0.1,0.2,0,0.2L55.2,143.8z"/>
			</g>
			<g>
				<path fill="#DCDAC8" d="M55.3,143.6c0,0,0.1,0,0.2-0.1l0,0c0.1-0.1,0.1-0.2,0-0.2l-0.3-0.2c0,0-0.1,0-0.2,0.1l0,0
					c-0.1,0.1-0.1,0.2,0,0.2L55.3,143.6z"/>
			</g>
		</g>
	</g>
	<g>
		<path fill="#6B3A55" d="M40.7,90c-3.5-1.7-6.9-1-7.8,1.6c-0.7,2,0,4.8,1.8,6.5c0.1,0.1,0.2,0.3,0.2,0.6c-0.1,0.7-0.2,1.5-0.8,2.3
			c0,0,0,0,0,0c0.4-0.5,0.6-1,0.8-1.5c0,0.5-0.1,1-0.3,1.7c-0.4,0.2-0.9,0.5-1.1,1.2c0,0,0,0,0,0c0.2-0.5,0.6-0.8,1-0.9
			c-0.1,0.2-0.1,0.5-0.2,0.8c-0.3,0.4-0.5,0.8-0.7,1.2c0,0,0,0,0,0c0.2-0.4,0.4-0.7,0.7-1c-0.2,0.5-0.4,1.1-0.6,1.7c0,0,0,0,0,0
			c0,0,0,0,0,0c0.5-0.9,1.1-1.7,1.6-2.4c-0.1,0.6-0.4,1.3-1,1.9c0,0,0,0,0,0c0.7-0.7,1-1.6,1.2-2.2c0.1-0.1,0.1-0.2,0.2-0.2
			c0,0,0,0,0,0c0.1,0.3,0.1,0.6,0,0.9c0.2-0.3,0.2-0.6,0.1-0.9c0.2,0,0.6,0,0.6,0.7l0,0c0.1-0.9-0.4-0.8-0.6-0.9
			c0.8-0.8,1.5-1.3,1.9-1.3c2.4,0.3,5.1-0.8,6.3-2.6C45.7,95,44.1,91.8,40.7,90z"/>
		<path fill="#48172D" d="M40.7,90C40.7,90,40.7,90,40.7,90l-6.9,13.8c0,0.1-0.1,0.2-0.1,0.3c0,0,0,0,0,0c0,0,0,0,0,0
			c0.5-0.9,1.1-1.7,1.6-2.4c-0.1,0.6-0.4,1.3-1,1.9c0,0,0,0,0,0c0.7-0.7,1-1.6,1.2-2.2c0.1-0.1,0.1-0.2,0.2-0.2c0,0,0,0,0,0
			c0.1,0.3,0.1,0.6,0,0.9c0.2-0.3,0.2-0.6,0.1-0.9c0.2,0,0.6,0,0.6,0.7l0,0c0.1-0.9-0.4-0.8-0.6-0.9c0.8-0.8,1.5-1.3,1.9-1.3
			c2.4,0.3,5.1-0.8,6.3-2.6C45.7,95,44.1,91.8,40.7,90z"/>
		<g>
			<g>
				<path fill="#879C29" d="M37.1,80.2c6.5,1.4,3.3,9.5,3.1,9.7c0,0-0.1,0-0.1-0.1c-0.5-0.3-2.8-1.8-3-2.4c-0.2-0.8,1.3-1.5,1.3-1.5
					c0-0.8-1.8-1-1.9-1.8c-0.2-0.8,1.7-1.5,1.7-1.5c0-0.8-2.2-1-2.4-1.8C35.8,80.6,36.5,80.4,37.1,80.2z"/>
				<path fill="#71841F" d="M37.1,80.2c4.2,1.8,3.3,9.5,3.1,9.7c0,0-0.1,0-0.1-0.1c-0.5-0.3-2.8-1.8-3-2.4c-0.2-0.8,1.3-1.5,1.3-1.5
					c0-0.8-1.8-1-1.9-1.8c-0.2-0.8,1.7-1.5,1.7-1.5c0-0.8-2.2-1-2.4-1.8C35.8,80.6,36.5,80.4,37.1,80.2z"/>
			</g>
			<g>
				<path fill="#879C29" d="M47,81.3c-2.1,0.4,0.4-1.1,0-1.9c-0.1-0.2-0.3-0.5-0.7-0.7l-5.8,11.8c0,0,0,0.1,0,0.1c0,0,0.1,0,0.1,0
					c0.6-0.1,3.1-0.6,3.5-1.1c0.5-0.7-0.6-1.8-0.6-1.8c0.3-0.7,1.9-0.3,2.4-0.9c0.5-0.7-1-1.9-1.1-1.9c0.3-0.7,2.1-0.4,2.8-0.7
					C48.1,83.9,49.1,80.9,47,81.3z"/>
				<path fill="#71841F" d="M43.9,79.8c0.9,1.9,0.7-1,1.5-1.1c0.2,0,0.6,0,1,0.1l-5.8,11.8c0,0-0.1,0-0.1,0c0,0,0-0.1-0.1-0.1
					c-0.3-0.5-1.4-2.9-1.2-3.5c0.2-0.8,1.8-0.6,1.8-0.6c0.4-0.7-1-1.7-0.7-2.4c0.2-0.8,2.2-0.4,2.2-0.3c0.4-0.7-0.9-1.9-1.1-2.7
					C41.2,80.4,42.9,77.9,43.9,79.8z"/>
			</g>
			<g>
				<path fill="#71841F" d="M50.3,86.8c-5.1-4.3-9.5,3.1-9.6,3.4c0,0,0.1,0,0.1,0c0.6,0.2,3.1,1.2,3.7,0.9c0.8-0.3,0.4-1.9,0.4-1.9
					c0.7-0.5,1.8,0.8,2.6,0.5c0.8-0.3,0.1-2.3,0.1-2.3c0.7-0.5,2.1,1.2,2.9,0.8C50.8,88.1,50.5,87.4,50.3,86.8z"/>
				<path fill="#879C29" d="M50.3,86.8c-3.9-2.2-9.5,3.1-9.6,3.4c0,0,0.1,0,0.1,0c0.6,0.2,3.1,1.2,3.7,0.9c0.8-0.3,0.4-1.9,0.4-1.9
					c0.7-0.5,1.8,0.8,2.6,0.5c0.8-0.3,0.1-2.3,0.1-2.3c0.7-0.5,2.1,1.2,2.9,0.8C50.8,88.1,50.5,87.4,50.3,86.8z"/>
			</g>
		</g>
	</g>
	<g>
		<circle fill="#FFCB09" cx="54.1" cy="61.3" r="11.9"/>
		<circle fill="#F2EFDC" cx="54.1" cy="61.3" r="11.2"/>
		<path fill="#FBAB18" d="M54.1,49.4C54.1,49.4,54.1,49.4,54.1,49.4l0,23.7c0,0,0,0,0,0c6.5,0,11.9-5.3,11.9-11.9
			C65.9,54.7,60.6,49.4,54.1,49.4z"/>
		<path fill="#DCDAC8" d="M54.1,50.1C54.1,50.1,54.1,50.1,54.1,50.1l0,22.4c0,0,0,0,0,0c6.2,0,11.2-5,11.2-11.2
			C65.3,55.1,60.2,50.1,54.1,50.1z"/>
		<g>
			<path fill="#FFCB09" d="M47.1,54.9c-1.5,1.6-2.4,3.7-2.5,6h8.4L47.1,54.9z"/>
			<path fill="#FBAB18" d="M54.5,51.9v8.4l6-6C58.9,52.9,56.8,52,54.5,51.9z"/>
			<path fill="#FBAB18" d="M61,67.7c1.5-1.6,2.4-3.7,2.5-6h-8.4L61,67.7z"/>
			<path fill="#FFCB09" d="M53.7,51.9c-2.3,0.1-4.4,1-6,2.5l6,6V51.9z"/>
			<path fill="#FBAB18" d="M54.5,62.3v8.4c2.3-0.1,4.4-1,6-2.5L54.5,62.3z"/>
			<path fill="#FFCB09" d="M44.7,61.7c0.1,2.3,1,4.4,2.5,6l6-6H44.7z"/>
			<path fill="#FBAB18" d="M55.1,60.9h8.4c-0.1-2.3-1-4.4-2.5-6L55.1,60.9z"/>
			<path fill="#FFCB09" d="M53.7,62.3l-6,6c1.6,1.5,3.7,2.4,6,2.5V62.3z"/>
		</g>
	</g>
	<g>
		<circle fill="#D95B46" cx="118.6" cy="154.2" r="8.3"/>
		<ellipse fill="#F16A54" cx="118.7" cy="151.2" rx="5.8" ry="4.9"/>
		<circle fill="#D95B46" cx="110.9" cy="159.4" r="8.3"/>
		<path fill="#F16A54" d="M102.6,159.4c0,1.1,0.2,2.1,0.6,3c1.4,1,3,1.6,4.9,1.6c4.6,0,8.3-3.7,8.3-8.3c0-1.1-0.2-2.1-0.6-3
			c-1.4-1-3-1.6-4.9-1.6C106.3,151.1,102.6,154.8,102.6,159.4z"/>
		<g>
			<path fill="#2D4124" d="M111.9,155.1c0,0.3-1.3,0.3-1.4,0.5c-0.1,0.3,0.8,1.2,0.6,1.4s-1.1-0.8-1.4-0.6c-0.2,0.1-0.3,1.4-0.5,1.4
				c-0.3,0-0.3-1.3-0.5-1.4c-0.3-0.1-1.2,0.8-1.4,0.6c-0.2-0.2,0.8-1.1,0.6-1.4c-0.1-0.2-1.4-0.3-1.4-0.5c0-0.3,1.3-0.3,1.4-0.5
				c0.1-0.3-0.8-1.2-0.6-1.4c0.2-0.2,1.1,0.8,1.4,0.6c0.2-0.1,0.3-1.4,0.5-1.4c0.3,0,0.3,1.3,0.5,1.4c0.3,0.1,1.2-0.8,1.4-0.6
				c0.2,0.2-0.8,1.1-0.6,1.4C110.6,154.8,111.9,154.8,111.9,155.1z"/>
			<path fill="#405933" d="M109.2,152.3c-0.3,0-0.3,1.3-0.5,1.4c-0.3,0.1-1.2-0.8-1.4-0.6c-0.2,0.2,0.8,1.1,0.6,1.4
				c-0.1,0.2-1.4,0.3-1.4,0.5c0,0.3,1.3,0.3,1.4,0.5c0.1,0.3-0.8,1.2-0.6,1.4c0.2,0.2,1.1-0.8,1.4-0.6c0.1,0,0.2,0.3,0.2,0.7
				c0.5-0.8,0.8-1.8,0.8-2.9c0-0.1,0-0.2,0-0.4h0C109.5,153.7,109.5,152.3,109.2,152.3z"/>
			<path fill="#2D4124" d="M108.4,152.7c-0.2,0-0.4,0.1-0.6,0.2c0.5,0.6,0.8,1.3,0.9,2.1c0.2,0,0.4-0.1,0.5-0.2
				C109.2,154.1,108.9,153.3,108.4,152.7z"/>
		</g>
		<path fill="#2D4124" d="M121.9,146c0.1,0.2-1,0.6-1.1,0.8c-0.1,0.2,0.7,0.5,0.5,0.6c-0.3,0.2-1.3,0-1.7,0.1
			c-0.3,0.1-0.5,0.7-0.9,0.7c-0.4,0-0.6-0.6-0.9-0.7c-0.4-0.1-1.4,0.1-1.7-0.1c-0.2-0.2,0.6-0.4,0.5-0.6c-0.1-0.2-1.2-0.6-1.1-0.8
			c0.1-0.2,1.2,0.1,1.3-0.1c0.2-0.1-0.4-0.7-0.1-0.8c0.2-0.1,1,0.4,1.3,0.4c0.3,0,0.4-0.6,0.8-0.6c0.3,0,0.5,0.6,0.8,0.6
			c0.3,0.1,1-0.4,1.3-0.4c0.3,0.1-0.3,0.7-0.1,0.8C120.7,146.1,121.8,145.8,121.9,146z"/>
		<path fill="#405933" d="M120.4,145.2c-0.3,0.1-0.8,0.4-1,0.3c-0.3,0-0.4-0.6-0.8-0.6c-0.3,0-0.5,0.6-0.8,0.6
			c-0.3,0.1-1-0.4-1.3-0.4c-0.3,0.1,0.3,0.7,0.1,0.8c-0.2,0.2-1.3-0.1-1.3,0.1c-0.1,0.2,1,0.6,1.1,0.8c0.1,0.2-0.6,0.4-0.5,0.6
			C118.1,147.2,119.9,146.3,120.4,145.2z"/>
		<g>
			<path fill="#2D4124" d="M118.3,146.5c-0.1,0-0.3-0.1-0.3-0.2c-1-1.9,0-3,0.1-3c0.1-0.1,0.3-0.1,0.5-0.1c0.2,0.1,0.2,0.2,0.1,0.3
				c0,0-0.9,0.9,0,2.6c0.1,0.1,0,0.3-0.2,0.3C118.4,146.5,118.3,146.5,118.3,146.5L118.3,146.5z"/>
		</g>
	</g>
</g>
</svg>
