<?xml version="1.0" encoding="utf-8"?>
<!-- Generator: Adobe Illustrator 18.0.0, SVG Export Plug-In . SVG Version: 6.00 Build 0)  -->
<!DOCTYPE svg PUBLIC "-//W3C//DTD SVG 1.1//EN" "http://www.w3.org/Graphics/SVG/1.1/DTD/svg11.dtd">
<svg version="1.1" xmlns="http://www.w3.org/2000/svg" xmlns:xlink="http://www.w3.org/1999/xlink" x="0px" y="0px"
	 viewBox="0 0 1800 940" enable-background="new 0 0 1800 940" xml:space="preserve">
<g id="skitse" opacity="0.15">
	
		<image overflow="visible" width="4158" height="1899" id="trace_xA0_Image" xlink:href="D2B1CA5EAAC8E0DB.png"  transform="matrix(0.3937 0 0 0.3937 50.1496 71.6535)">
	</image>
</g>
<g id="bg">
	<rect x="0" y="0" fill="#FF6861" width="1800" height="940"/>
</g>
<g id="pile">
	<g>
		<g>
			<path fill="none" stroke="#FFFFFF" stroke-width="4.7629" stroke-miterlimit="10" d="M588.6,254.7c14.6,11.4,31.2,20.3,48.8,26.3
				c14.5,4.9,36.5,12.5,49.8,0.9c8.5-7.4,9.5-21.9,4.1-31.3c-8.6-15.1-29.3-21.8-28.6-42.1c0.2-7.6,5.3-14.8,12.3-17.7
				c17.8-7.3,25.9,15.1,42.2,14.3c9-0.5,15.3-9.4,17.3-18.2c2.5-11.4,0.5-22.8,5.4-33.8c6-13.6,22.3-25.7,37.4-18.3
				c19.1,9.3,15,38.5,10.9,55.1c-4.8,19.8-9.2,52.5,16,61c17.4,5.9,34.7-9,45.4-23.9"/>
			<g>
				<path fill="#FFFFFF" d="M849,227.7c-3.8,0.6-8.8-1.5-11.9-3.5c6.2-0.1,12.5-1.5,17.8-4.8c-1.5,6.1-0.5,12.4,1.2,18.4
					C853.1,235.3,849.7,231.7,849,227.7z"/>
			</g>
		</g>
	</g>
	<g>
		<g>
			<path fill="none" stroke="#FFFFFF" stroke-width="4.7629" stroke-miterlimit="10" d="M1055.1,168.5
				c17.2-17.6,44.1-35.1,69.5-36.2c15-0.6,30.1,7.8,37.1,21.2c9.6,18.5-2.1,34.8-9.4,51.8c-4.6,10.7-8.3,22.2-7.5,33.8
				c2.5,38.7,47.9,38.1,67.9,13.1c9.6-12,15.2-26.6,23-39.8c16.3-27.7,34.2-34.1,62.1-15.3"/>
			<g>
				<path fill="#FFFFFF" d="M1296.8,196.6c-0.7-3.7,1.2-8.9,3.2-12c0.3,6.2,1.8,12.4,5.3,17.7c-6.1-1.3-12.5-0.1-18.4,1.7
					C1289.3,200.9,1292.8,197.4,1296.8,196.6z"/>
			</g>
		</g>
	</g>
	<g>
		<g>
			<path fill="none" stroke="#FFFFFF" stroke-width="4.7629" stroke-miterlimit="10" d="M1515.1,174c66-24.8,108.3,25.5,107.4,58.1
				c-0.9,30.8-27.9,54.1-36.6,82.7c-5.5,18.4-5.6,39.3,4.4,55.7c5.7,9.4,14.4,16.9,19.5,26.6c32.1,60.7-52.2,83.5-93.2,66.8
				c-22.3-9.1-50.4-18.1-68.2-1.9c-10.4,9.5-17.1,27.2-31.1,26c-8.1-0.7-13.8-8-18.8-14.4c-8.7-11.1-19.2-21.9-32.9-25.1
				c-13.7-3.2-30.7,4.6-32.6,18.5c-1.5,10.9,6.3,21.7,4.2,32.5c-3.4,17.4-29.1,19.8-43.6,9.6c-14.4-10.2-22.3-27.3-34.8-39.8
				c-11.2-11.2-26.3-18.4-42-20c-35.5-3.6-67,20.5-98.9,36.5c-44.8,22.5-93.8,36.1-136,4c-13.7-10.4-26.2-24.8-43.3-26.6
				c-29.5-3.2-56.8,32.9-84,20.9c-20.6-9.1-29.9-31.3-52.6-39.3c-22.7-8-49.2-6.2-69.9,6.4c-12.1,7.3-22.1,17.7-34.1,25.2
				c-12,7.4-27.6,11.7-40.2,5.3c-13.8-6.9-19.3-23.7-31-33.7c-15-12.8-40-11.5-53.5,2.8c-8.6,9.1-12.4,22-21.1,31.1
				c-32.6,34.5-81.3-3.2-113.2-18.8c-35.1-17.2-72.5-30.2-111.2-36.7c-32.9-5.6-83.7-12.8-113.9,6c-10.5,6.5-18.3,18.8-16.2,31
				c1.6,9.1,8.3,16.5,15.5,22.3c7.3,5.8,15.4,10.5,21.8,17.1c6.4,6.7,11.1,16,9.1,25.1c-1.6,7.1-7.1,12.9-13.7,16
				c-22.4,10.6-47.5-1.1-70.3,6.3c-21,6.8-32.1,29.5-29.4,50.9c4.2,33.3,35.3,58.9,66.9,65.1c35.3,6.9,68.7-8.5,98-26.9"/>
			<g>
				<path fill="#FFFFFF" d="M294.7,639.7c-3.7-0.8-7.6-4.7-9.7-7.7c5.8,2.2,12.1,3.3,18.3,2.3c-3.7,5-5.1,11.4-5.9,17.5
					C295.6,648.2,293.9,643.7,294.7,639.7z"/>
			</g>
		</g>
	</g>
	<path fill="none" stroke="#FFFFFF" stroke-width="4.7629" stroke-miterlimit="10" d="M1304.2,601.7c26.3-14.6,88.6-30.8,105.4,5.8
		c6.3,13.8,0.4,30.2-8.3,42.7c-8.7,12.4-20.2,23-27,36.5c-5.9,11.7-8.1,29.4,1.8,39.8c23.3,24.6,60.9,5.2,80.7-13.9"/>
	<g>
		<g>
			<path fill="none" stroke="#FFFFFF" stroke-width="4.7629" stroke-miterlimit="10" d="M503.4,568.1c19.3-10.7,43.6-18.7,65.9-16.6
				c30.6,2.9,43,29.4,30.4,56.7c-9,19.6-24.6,38.5-20.9,61.4c2.3,14,17,26.4,30.4,21.8c10.2-3.5,15.4-14.3,21.5-23.2
				c6.1-8.9,17-17.2,26.7-12.7c9.8,4.6,10.2,18,12,28.6c2.4,14.1,13.1,29.1,27.3,27.6c8.8-0.9,16-8.3,18.7-16.8
				c2.7-8.5,1.6-17.7-0.9-26.2c-4.3-14.7-12.4-28.1-15.6-43c-3.7-16.9-6.8-40.8,7.7-54.2c15.2-14.1,39.5,2.7,50.9,15.2"/>
			<g>
				<path fill="#FFFFFF" d="M756.8,586c0.2-3.8,3.2-8.3,5.8-10.9c-1.1,6.1-1.1,12.5,1.1,18.4c-5.6-2.7-12.1-3-18.3-2.6
					C748.6,588.5,752.8,585.9,756.8,586z"/>
			</g>
		</g>
	</g>
	<g>
		<g>
			<path fill="none" stroke="#FFFFFF" stroke-width="4.7629" stroke-miterlimit="10" d="M951.7,686c16.4,12.3,36.7,24.8,58.1,23
				c21.3-1.8,32.5-20.2,35.3-39.8c2-14,0.6-28.3,2.1-42.4c3-28.3,26.5-63.9,59.9-62"/>
			<g>
				<path fill="#FFFFFF" d="M1106.1,564.8c-2.5-2.8-3.5-8.2-3.4-11.9c3.4,5.2,7.9,9.7,13.6,12.5c-5.9,2-10.7,6.3-14.9,10.9
					C1101.9,572.3,1103.1,567.6,1106.1,564.8z"/>
			</g>
		</g>
	</g>
</g>
<g id="illu">
	<g>
		<g>
			<defs>
				<circle id="XMLID_4_" cx="516.3" cy="203.5" r="95.9"/>
			</defs>
			<use xlink:href="#XMLID_4_"  overflow="visible" fill="#361919"/>
			<clipPath id="XMLID_3_">
				<use xlink:href="#XMLID_4_"  overflow="visible"/>
			</clipPath>
			<g clip-path="url(#XMLID_3_)">
				<rect x="470.8" y="185.9" fill="#FFFFFF" width="16" height="3.1"/>
				<path fill="none" stroke="#FFFFFF" stroke-width="9.8573" stroke-miterlimit="10" d="M478.8,185.9v-16.1c0-4.7-3.8-8.5-8.5-8.5
					h-85.5"/>
				<g>
					<circle fill="#FFFFFF" cx="460.2" cy="149.9" r="3.5"/>
					<circle fill="#FFFFFF" cx="477.5" cy="149.9" r="3.5"/>
					
						<line fill="none" stroke="#FFFFFF" stroke-width="2.4643" stroke-miterlimit="10" x1="460.2" y1="149.9" x2="477.5" y2="149.9"/>
				</g>
				
					<line fill="none" stroke="#FFFFFF" stroke-width="2.4643" stroke-linecap="round" stroke-miterlimit="10" x1="468.8" y1="147.6" x2="468.8" y2="159.5"/>
			</g>
			<g clip-path="url(#XMLID_3_)">
				<g>
					<path fill="#8BC43B" d="M520.5,195.5c3.4,12.9,14.3,23.3,14.3,35.4c0,7.9-6.4,14.3-14.3,14.3s-14.3-6.4-14.3-14.3
						C506.2,218.8,517.2,208.4,520.5,195.5z"/>
					
						<ellipse transform="matrix(0.9206 -0.3905 0.3905 0.9206 -50.3301 219.8062)" fill="#FFFFFF" cx="515.3" cy="233.7" rx="3.6" ry="6"/>
				</g>
				<g>
					<path fill="#6CCEFA" d="M478.9,195.5c3.4,12.9,14.3,23.3,14.3,35.4c0,7.9-6.4,14.3-14.3,14.3s-14.3-6.4-14.3-14.3
						C464.6,218.8,475.6,208.4,478.9,195.5z"/>
					
						<ellipse transform="matrix(0.9206 -0.3905 0.3905 0.9206 -53.6335 203.561)" fill="#FFFFFF" cx="473.7" cy="233.7" rx="3.6" ry="6"/>
				</g>
				<g>
					<path fill="none" stroke="#FFBBB8" stroke-width="13.0881" stroke-miterlimit="10" d="M560.1,94.7
						c-13.1,15.3-32.3,32.9-12.6,62"/>
					<g>
						<path fill="#FFBBB8" d="M543.8,157.1l3.9-3.9c1.9-2,5.1-2,7.1,0l5.3,5.2c2,1.9,2,5.1,0,7.1l-3.9,3.9c-1.9,2-5.1,2-7.1,0
							l-5.3-5.2C541.8,162.3,541.8,159.1,543.8,157.1z"/>
						
							<line fill="none" stroke="#FFBBB8" stroke-width="4.3627" stroke-linecap="round" stroke-miterlimit="10" x1="556.8" y1="157.9" x2="563.7" y2="163"/>
						
							<line fill="none" stroke="#FFBBB8" stroke-width="4.3627" stroke-linecap="round" stroke-miterlimit="10" x1="557.8" y1="166.9" x2="559.8" y2="169"/>
						
							<line fill="none" stroke="#FFBBB8" stroke-width="4.3627" stroke-linecap="round" stroke-miterlimit="10" x1="548.6" y1="166.2" x2="554.2" y2="173.2"/>
					</g>
				</g>
				<g>
					<path fill="#8B944A" d="M601.3,190.5L565,155.6c-2.1-2-5.5-2-7.6,0.2l-21.1,21.9l-4-3.9l-11.6,12l44.1,42.4
						c2.1,2,5.5,2,7.6-0.2l28.9-30.1C603.5,195.9,603.4,192.5,601.3,190.5z M567.7,167.6l-15.3,16c-0.8,0.9-2.2,0.9-3.1,0.1
						l-4.8-4.6c-0.9-0.8-0.9-2.2-0.1-3.1l15.3-16c0.8-0.9,2.2-0.9,3.1-0.1l4.8,4.6C568.5,165.4,568.5,166.7,567.7,167.6z"/>
					
						<rect x="544" y="183.2" transform="matrix(-0.6928 0.7212 -0.7212 -0.6928 1107.4048 -77.7013)" fill="#FFFFFF" width="52.4" height="27.7"/>
					
						<rect x="552.7" y="197.9" transform="matrix(0.6928 -0.7212 0.7212 0.6928 23.5149 468.1815)" fill="#FFCC00" width="17.2" height="17.2"/>
					
						<line fill="none" stroke="#361919" stroke-width="1.5275" stroke-miterlimit="10" x1="564.7" y1="191.7" x2="578.4" y2="177.3"/>
					
						<line fill="none" stroke="#361919" stroke-width="1.5275" stroke-miterlimit="10" x1="567.7" y1="194.6" x2="581.4" y2="180.2"/>
					
						<line fill="none" stroke="#361919" stroke-width="1.5275" stroke-miterlimit="10" x1="570.7" y1="197.5" x2="584.5" y2="183.1"/>
					<line fill="none" stroke="#361919" stroke-width="1.5275" stroke-miterlimit="10" x1="573.7" y1="200.4" x2="587.5" y2="186"/>
					
						<line fill="none" stroke="#361919" stroke-width="3.055" stroke-miterlimit="10" x1="561.1" y1="199.6" x2="561.4" y2="213.4"/>
					
						<line fill="none" stroke="#361919" stroke-width="3.055" stroke-miterlimit="10" x1="554.4" y1="206.6" x2="568.1" y2="206.4"/>
				</g>
				
					<line fill="none" stroke="#FFBBB8" stroke-width="4.3627" stroke-linecap="round" stroke-miterlimit="10" x1="544.5" y1="161.8" x2="544.2" y2="173.4"/>
			</g>
		</g>
		<polygon fill="#361919" points="516.3,314.9 506.2,293.3 526.5,293.3 		"/>
	</g>
	<g>
		<circle fill="#361919" cx="971.7" cy="203.5" r="95.9"/>
		<polygon fill="#361919" points="971.7,314.9 961.5,293.3 981.8,293.3 		"/>
	</g>
	<circle fill="#361919" cx="1427" cy="203.5" r="95.9"/>
	<polygon fill="#361919" points="1427,314.9 1416.8,293.3 1437.2,293.3 	"/>
	<circle fill="#361919" cx="436.3" cy="626.4" r="95.9"/>
	<polygon fill="#361919" points="436.3,737.9 426.1,716.3 446.4,716.3 	"/>
	<circle fill="#361919" cx="1222.8" cy="630.6" r="95.9"/>
	<polygon fill="#361919" points="1222.8,742 1212.7,720.4 1233,720.4 	"/>
	<circle fill="#361919" cx="1620.6" cy="586.2" r="95.9"/>
	<polygon fill="#361919" points="1620.6,697.7 1610.5,676.1 1630.8,676.1 	"/>
	<circle fill="#361919" cx="891.6" cy="630.6" r="95.9"/>
	<polygon fill="#361919" points="891.6,742 881.4,720.4 901.8,720.4 	"/>
	<g>
		<g>
			<path fill="#967553" d="M971.7,206.5h44c1.5,0,2.8,0.9,3.3,2.2l14.4,35.5h-61.6H910l14.4-35.5c0.5-1.4,1.9-2.2,3.3-2.2H971.7z"/>
			<polygon fill="#967553" points="971.7,239.5 1025.3,239.5 1013.9,211.3 971.7,211.3 929.5,211.3 918.1,239.5 			"/>
		</g>
		<g>
			<path fill="#C4B4A4" d="M971.7,206.5h44c1.5,0,2.8,0.9,3.3,2.2l14.4,35.5h-61.6H910l14.4-35.5c0.5-1.4,1.9-2.2,3.3-2.2H971.7z"/>
			<polygon fill="#361919" points="971.7,239.5 1025.3,239.5 1013.9,211.3 971.7,211.3 929.5,211.3 918.1,239.5 			"/>
		</g>
	</g>
	<path fill="#85796E" d="M1033.3,244.3c0,7.9-1,20.8-39.3,20.8c-16.2,0-22.4,0-22.4,0s-6.2,0-22.4,0c-38.3,0-39.3-12.9-39.3-20.8"/>
	<g>
		<g opacity="0.3">
			<circle fill="#361919" cx="710.4" cy="388.5" r="4.3"/>
			<circle fill="#361919" cx="647.7" cy="344.4" r="4.3"/>
			<circle fill="#361919" cx="621.8" cy="333.1" r="3.3"/>
			<circle fill="#361919" cx="703.7" cy="379.9" r="7.6"/>
			<circle fill="#361919" cx="633.5" cy="342.3" r="7.6"/>
			<circle fill="#361919" cx="685.1" cy="380.8" r="12.4"/>
			<circle fill="#361919" cx="643.5" cy="363.1" r="12.4"/>
			<circle fill="#361919" cx="671.8" cy="358.5" r="18.6"/>
		</g>
		<path fill="#361919" d="M800.4,397.2H720c-1.7,0-3-1.3-3-3v-55.3c0-1.7,1.3-3,3-3h80.3c1.7,0,3,1.3,3,3v55.3
			C803.4,395.8,802,397.2,800.4,397.2z"/>
		<path fill="#361919" d="M833.3,397.2h-23.7c-1.2,0-2.1-0.9-2.1-2.1v-31.8c0-1.2,1-2.2,2.3-2.1l23.7,1.6c1.1,0.1,2,1,2,2.1v30.2
			C835.5,396.2,834.5,397.2,833.3,397.2z"/>
		<g>
			<circle fill="#361919" cx="746.4" cy="398.1" r="7.9"/>
			<circle fill="#FF6861" cx="746.4" cy="398.1" r="4.3"/>
		</g>
		<g>
			<circle fill="#361919" cx="771.2" cy="398.1" r="7.9"/>
			<circle fill="#FF6861" cx="771.2" cy="398.1" r="4.3"/>
		</g>
		<g>
			<circle fill="#361919" cx="821.5" cy="398.1" r="7.9"/>
			<circle fill="#FF6861" cx="821.5" cy="398.1" r="4.3"/>
		</g>
		<rect x="823.1" y="367.3" fill="#FF6861" width="10.4" height="14.8"/>
	</g>
	<g>
		<line fill="none" stroke="#FFF396" stroke-width="1.5082" stroke-miterlimit="10" x1="444.3" y1="406.1" x2="444.3" y2="391"/>
		<path fill="#FFF396" d="M444.1,390.2c0,0-2.7,0.5-4.9-1.7c-2.3-2.3-1.7-4.9-1.7-4.9s2.7-0.5,4.9,1.7
			C444.7,387.5,444.1,390.2,444.1,390.2z"/>
		<path fill="#FFF396" d="M444.6,390.2c0,0,2.7,0.5,4.9-1.7c2.3-2.3,1.7-4.9,1.7-4.9s-2.7-0.5-4.9,1.7
			C444,387.5,444.6,390.2,444.6,390.2z"/>
		<path fill="#FFF396" d="M444.1,383.4c0,0-2.7,0.5-4.9-1.7s-1.7-4.9-1.7-4.9s2.7-0.5,4.9,1.7C444.7,380.7,444.1,383.4,444.1,383.4z
			"/>
		<path fill="#FFF396" d="M444.6,383.4c0,0,2.7,0.5,4.9-1.7c2.3-2.3,1.7-4.9,1.7-4.9s-2.7-0.5-4.9,1.7S444.6,383.4,444.6,383.4z"/>
		<path fill="#FFF396" d="M444.1,376.6c0,0-2.7,0.5-4.9-1.7c-2.3-2.3-1.7-4.9-1.7-4.9s2.7-0.5,4.9,1.7
			C444.7,374,444.1,376.6,444.1,376.6z"/>
		<path fill="#FFF396" d="M444.6,376.6c0,0,2.7,0.5,4.9-1.7c2.3-2.3,1.7-4.9,1.7-4.9s-2.7-0.5-4.9,1.7S444.6,376.6,444.6,376.6z"/>
		<path fill="#FFF396" d="M444.1,369.9c0,0-2.7,0.5-4.9-1.7s-1.7-4.9-1.7-4.9s2.7-0.5,4.9,1.7C444.7,367.2,444.1,369.9,444.1,369.9z
			"/>
		<path fill="#FFF396" d="M444.6,369.9c0,0,2.7,0.5,4.9-1.7c2.3-2.3,1.7-4.9,1.7-4.9s-2.7-0.5-4.9,1.7
			C444,367.2,444.6,369.9,444.6,369.9z"/>
		<path fill="#FFF396" d="M444.3,366.2c0,0,2.3-1.5,2.3-4.7s-2.3-4.7-2.3-4.7s-2.3,1.5-2.3,4.7S444.3,366.2,444.3,366.2z"/>
	</g>
	<g>
		<line fill="none" stroke="#FFF396" stroke-width="1.5082" stroke-miterlimit="10" x1="472.9" y1="406.1" x2="472.9" y2="391"/>
		<path fill="#FFF396" d="M473.1,390.2c0,0,2.7,0.5,4.9-1.7c2.3-2.3,1.7-4.9,1.7-4.9s-2.7-0.5-4.9,1.7
			C472.6,387.5,473.1,390.2,473.1,390.2z"/>
		<path fill="#FFF396" d="M472.7,390.2c0,0-2.7,0.5-4.9-1.7c-2.3-2.3-1.7-4.9-1.7-4.9s2.7-0.5,4.9,1.7
			C473.2,387.5,472.7,390.2,472.7,390.2z"/>
		<path fill="#FFF396" d="M473.1,383.4c0,0,2.7,0.5,4.9-1.7c2.3-2.3,1.7-4.9,1.7-4.9s-2.7-0.5-4.9,1.7S473.1,383.4,473.1,383.4z"/>
		<path fill="#FFF396" d="M472.7,383.4c0,0-2.7,0.5-4.9-1.7s-1.7-4.9-1.7-4.9s2.7-0.5,4.9,1.7S472.7,383.4,472.7,383.4z"/>
		<path fill="#FFF396" d="M473.1,376.6c0,0,2.7,0.5,4.9-1.7c2.3-2.3,1.7-4.9,1.7-4.9s-2.7-0.5-4.9,1.7S473.1,376.6,473.1,376.6z"/>
		<path fill="#FFF396" d="M472.7,376.6c0,0-2.7,0.5-4.9-1.7c-2.3-2.3-1.7-4.9-1.7-4.9s2.7-0.5,4.9,1.7S472.7,376.6,472.7,376.6z"/>
		<path fill="#FFF396" d="M473.1,369.9c0,0,2.7,0.5,4.9-1.7c2.3-2.3,1.7-4.9,1.7-4.9s-2.7-0.5-4.9,1.7
			C472.6,367.2,473.1,369.9,473.1,369.9z"/>
		<path fill="#FFF396" d="M472.7,369.9c0,0-2.7,0.5-4.9-1.7s-1.7-4.9-1.7-4.9s2.7-0.5,4.9,1.7C473.2,367.2,472.7,369.9,472.7,369.9z
			"/>
		<path fill="#FFF396" d="M472.9,366.2c0,0-2.3-1.5-2.3-4.7s2.3-4.7,2.3-4.7s2.3,1.5,2.3,4.7S472.9,366.2,472.9,366.2z"/>
	</g>
	<g>
		<line fill="none" stroke="#FFF396" stroke-width="1.5082" stroke-miterlimit="10" x1="458.6" y1="406.1" x2="458.6" y2="354.8"/>
		<path fill="#FFF396" d="M458.4,354c0,0-2.7,0.5-4.9-1.7s-1.7-4.9-1.7-4.9s2.7-0.5,4.9,1.7C459,351.3,458.4,354,458.4,354z"/>
		<path fill="#FFF396" d="M458.8,354c0,0,2.7,0.5,4.9-1.7c2.3-2.3,1.7-4.9,1.7-4.9s-2.7-0.5-4.9,1.7
			C458.3,351.3,458.8,354,458.8,354z"/>
		<path fill="#FFF396" d="M458.4,347.2c0,0-2.7,0.5-4.9-1.7s-1.7-4.9-1.7-4.9s2.7-0.5,4.9,1.7S458.4,347.2,458.4,347.2z"/>
		<path fill="#FFF396" d="M458.8,347.2c0,0,2.7,0.5,4.9-1.7c2.3-2.3,1.7-4.9,1.7-4.9s-2.7-0.5-4.9,1.7S458.8,347.2,458.8,347.2z"/>
		<path fill="#FFF396" d="M458.4,340.4c0,0-2.7,0.5-4.9-1.7c-2.3-2.3-1.7-4.9-1.7-4.9s2.7-0.5,4.9,1.7S458.4,340.4,458.4,340.4z"/>
		<path fill="#FFF396" d="M458.8,340.4c0,0,2.7,0.5,4.9-1.7c2.3-2.3,1.7-4.9,1.7-4.9s-2.7-0.5-4.9,1.7S458.8,340.4,458.8,340.4z"/>
		<path fill="#FFF396" d="M458.4,333.7c0,0-2.7,0.5-4.9-1.7s-1.7-4.9-1.7-4.9s2.7-0.5,4.9,1.7C459,331,458.4,333.7,458.4,333.7z"/>
		<path fill="#FFF396" d="M458.8,333.7c0,0,2.7,0.5,4.9-1.7c2.3-2.3,1.7-4.9,1.7-4.9s-2.7-0.5-4.9,1.7
			C458.3,331,458.8,333.7,458.8,333.7z"/>
		<path fill="#FFF396" d="M458.6,330c0,0,2.3-1.5,2.3-4.7s-2.3-4.7-2.3-4.7s-2.3,1.5-2.3,4.7S458.6,330,458.6,330z"/>
	</g>
	<g>
		<line fill="none" stroke="#FFF396" stroke-width="1.5082" stroke-miterlimit="10" x1="501.7" y1="406.1" x2="501.7" y2="391"/>
		<path fill="#FFF396" d="M501.9,390.2c0,0,2.7,0.5,4.9-1.7c2.3-2.3,1.7-4.9,1.7-4.9s-2.7-0.5-4.9,1.7
			C501.3,387.5,501.9,390.2,501.9,390.2z"/>
		<path fill="#FFF396" d="M501.4,390.2c0,0-2.7,0.5-4.9-1.7c-2.3-2.3-1.7-4.9-1.7-4.9s2.7-0.5,4.9,1.7
			C502,387.5,501.4,390.2,501.4,390.2z"/>
		<path fill="#FFF396" d="M501.9,383.4c0,0,2.7,0.5,4.9-1.7s1.7-4.9,1.7-4.9s-2.7-0.5-4.9,1.7C501.3,380.7,501.9,383.4,501.9,383.4z
			"/>
		<path fill="#FFF396" d="M501.4,383.4c0,0-2.7,0.5-4.9-1.7c-2.3-2.3-1.7-4.9-1.7-4.9s2.7-0.5,4.9,1.7S501.4,383.4,501.4,383.4z"/>
		<path fill="#FFF396" d="M501.9,376.6c0,0,2.7,0.5,4.9-1.7c2.3-2.3,1.7-4.9,1.7-4.9s-2.7-0.5-4.9,1.7
			C501.3,374,501.9,376.6,501.9,376.6z"/>
		<path fill="#FFF396" d="M501.4,376.6c0,0-2.7,0.5-4.9-1.7c-2.3-2.3-1.7-4.9-1.7-4.9s2.7-0.5,4.9,1.7S501.4,376.6,501.4,376.6z"/>
		<path fill="#FFF396" d="M501.9,369.9c0,0,2.7,0.5,4.9-1.7s1.7-4.9,1.7-4.9s-2.7-0.5-4.9,1.7C501.3,367.2,501.9,369.9,501.9,369.9z
			"/>
		<path fill="#FFF396" d="M501.4,369.9c0,0-2.7,0.5-4.9-1.7c-2.3-2.3-1.7-4.9-1.7-4.9s2.7-0.5,4.9,1.7
			C502,367.2,501.4,369.9,501.4,369.9z"/>
		<path fill="#FFF396" d="M501.7,366.2c0,0-2.3-1.5-2.3-4.7s2.3-4.7,2.3-4.7s2.3,1.5,2.3,4.7S501.7,366.2,501.7,366.2z"/>
	</g>
	<g>
		<line fill="none" stroke="#FFF396" stroke-width="1.5082" stroke-miterlimit="10" x1="487.4" y1="406.1" x2="487.4" y2="354.8"/>
		<path fill="#FFF396" d="M487.2,354c0,0-2.7,0.5-4.9-1.7c-2.3-2.3-1.7-4.9-1.7-4.9s2.7-0.5,4.9,1.7
			C487.7,351.3,487.2,354,487.2,354z"/>
		<path fill="#FFF396" d="M487.6,354c0,0,2.7,0.5,4.9-1.7s1.7-4.9,1.7-4.9s-2.7-0.5-4.9,1.7C487,351.3,487.6,354,487.6,354z"/>
		<path fill="#FFF396" d="M487.2,347.2c0,0-2.7,0.5-4.9-1.7c-2.3-2.3-1.7-4.9-1.7-4.9s2.7-0.5,4.9,1.7S487.2,347.2,487.2,347.2z"/>
		<path fill="#FFF396" d="M487.6,347.2c0,0,2.7,0.5,4.9-1.7s1.7-4.9,1.7-4.9s-2.7-0.5-4.9,1.7C487,344.5,487.6,347.2,487.6,347.2z"
			/>
		<path fill="#FFF396" d="M487.2,340.4c0,0-2.7,0.5-4.9-1.7c-2.3-2.3-1.7-4.9-1.7-4.9s2.7-0.5,4.9,1.7S487.2,340.4,487.2,340.4z"/>
		<path fill="#FFF396" d="M487.6,340.4c0,0,2.7,0.5,4.9-1.7c2.3-2.3,1.7-4.9,1.7-4.9s-2.7-0.5-4.9,1.7
			C487,337.8,487.6,340.4,487.6,340.4z"/>
		<path fill="#FFF396" d="M487.2,333.7c0,0-2.7,0.5-4.9-1.7c-2.3-2.3-1.7-4.9-1.7-4.9s2.7-0.5,4.9,1.7
			C487.7,331,487.2,333.7,487.2,333.7z"/>
		<path fill="#FFF396" d="M487.6,333.7c0,0,2.7,0.5,4.9-1.7s1.7-4.9,1.7-4.9s-2.7-0.5-4.9,1.7C487,331,487.6,333.7,487.6,333.7z"/>
		<path fill="#FFF396" d="M487.4,330c0,0,2.3-1.5,2.3-4.7s-2.3-4.7-2.3-4.7s-2.3,1.5-2.3,4.7S487.4,330,487.4,330z"/>
	</g>
	<g>
		<line fill="none" stroke="#FFF396" stroke-width="1.5082" stroke-miterlimit="10" x1="530.5" y1="406.1" x2="530.5" y2="391"/>
		<path fill="#FFF396" d="M530.8,390.2c0,0,2.7,0.5,4.9-1.7c2.3-2.3,1.7-4.9,1.7-4.9s-2.7-0.5-4.9,1.7
			C530.2,387.5,530.8,390.2,530.8,390.2z"/>
		<path fill="#FFF396" d="M530.3,390.2c0,0-2.7,0.5-4.9-1.7c-2.3-2.3-1.7-4.9-1.7-4.9s2.7-0.5,4.9,1.7
			C530.9,387.5,530.3,390.2,530.3,390.2z"/>
		<path fill="#FFF396" d="M530.8,383.4c0,0,2.7,0.5,4.9-1.7s1.7-4.9,1.7-4.9s-2.7-0.5-4.9,1.7C530.2,380.7,530.8,383.4,530.8,383.4z
			"/>
		<path fill="#FFF396" d="M530.3,383.4c0,0-2.7,0.5-4.9-1.7s-1.7-4.9-1.7-4.9s2.7-0.5,4.9,1.7S530.3,383.4,530.3,383.4z"/>
		<path fill="#FFF396" d="M530.8,376.6c0,0,2.7,0.5,4.9-1.7c2.3-2.3,1.7-4.9,1.7-4.9s-2.7-0.5-4.9,1.7
			C530.2,374,530.8,376.6,530.8,376.6z"/>
		<path fill="#FFF396" d="M530.3,376.6c0,0-2.7,0.5-4.9-1.7c-2.3-2.3-1.7-4.9-1.7-4.9s2.7-0.5,4.9,1.7S530.3,376.6,530.3,376.6z"/>
		<path fill="#FFF396" d="M530.8,369.9c0,0,2.7,0.5,4.9-1.7s1.7-4.9,1.7-4.9s-2.7-0.5-4.9,1.7C530.2,367.2,530.8,369.9,530.8,369.9z
			"/>
		<path fill="#FFF396" d="M530.3,369.9c0,0-2.7,0.5-4.9-1.7s-1.7-4.9-1.7-4.9s2.7-0.5,4.9,1.7C530.9,367.2,530.3,369.9,530.3,369.9z
			"/>
		<path fill="#FFF396" d="M530.5,366.2c0,0-2.3-1.5-2.3-4.7s2.3-4.7,2.3-4.7s2.3,1.5,2.3,4.7S530.5,366.2,530.5,366.2z"/>
	</g>
	<g>
		<line fill="none" stroke="#FFF396" stroke-width="1.5082" stroke-miterlimit="10" x1="516.3" y1="406.1" x2="516.3" y2="354.8"/>
		<path fill="#FFF396" d="M516,354c0,0-2.7,0.5-4.9-1.7s-1.7-4.9-1.7-4.9s2.7-0.5,4.9,1.7C516.6,351.3,516,354,516,354z"/>
		<path fill="#FFF396" d="M516.5,354c0,0,2.7,0.5,4.9-1.7s1.7-4.9,1.7-4.9s-2.7-0.5-4.9,1.7C515.9,351.3,516.5,354,516.5,354z"/>
		<path fill="#FFF396" d="M516,347.2c0,0-2.7,0.5-4.9-1.7s-1.7-4.9-1.7-4.9s2.7-0.5,4.9,1.7S516,347.2,516,347.2z"/>
		<path fill="#FFF396" d="M516.5,347.2c0,0,2.7,0.5,4.9-1.7s1.7-4.9,1.7-4.9s-2.7-0.5-4.9,1.7C515.9,344.5,516.5,347.2,516.5,347.2z
			"/>
		<path fill="#FFF396" d="M516,340.4c0,0-2.7,0.5-4.9-1.7c-2.3-2.3-1.7-4.9-1.7-4.9s2.7-0.5,4.9,1.7S516,340.4,516,340.4z"/>
		<path fill="#FFF396" d="M516.5,340.4c0,0,2.7,0.5,4.9-1.7c2.3-2.3,1.7-4.9,1.7-4.9s-2.7-0.5-4.9,1.7
			C515.9,337.8,516.5,340.4,516.5,340.4z"/>
		<path fill="#FFF396" d="M516,333.7c0,0-2.7,0.5-4.9-1.7s-1.7-4.9-1.7-4.9s2.7-0.5,4.9,1.7C516.6,331,516,333.7,516,333.7z"/>
		<path fill="#FFF396" d="M516.5,333.7c0,0,2.7,0.5,4.9-1.7s1.7-4.9,1.7-4.9s-2.7-0.5-4.9,1.7C515.9,331,516.5,333.7,516.5,333.7z"
			/>
		<path fill="#FFF396" d="M516.3,330c0,0,2.3-1.5,2.3-4.7s-2.3-4.7-2.3-4.7s-2.3,1.5-2.3,4.7S516.3,330,516.3,330z"/>
	</g>
	<g>
		<line fill="none" stroke="#FFF396" stroke-width="1.5082" stroke-miterlimit="10" x1="559.4" y1="406.1" x2="559.4" y2="391"/>
		<path fill="#FFF396" d="M559.6,390.2c0,0,2.7,0.5,4.9-1.7c2.3-2.3,1.7-4.9,1.7-4.9s-2.7-0.5-4.9,1.7
			C559.1,387.5,559.6,390.2,559.6,390.2z"/>
		<path fill="#FFF396" d="M559.2,390.2c0,0-2.7,0.5-4.9-1.7c-2.3-2.3-1.7-4.9-1.7-4.9s2.7-0.5,4.9,1.7
			C559.8,387.5,559.2,390.2,559.2,390.2z"/>
		<path fill="#FFF396" d="M559.6,383.4c0,0,2.7,0.5,4.9-1.7s1.7-4.9,1.7-4.9s-2.7-0.5-4.9,1.7S559.6,383.4,559.6,383.4z"/>
		<path fill="#FFF396" d="M559.2,383.4c0,0-2.7,0.5-4.9-1.7s-1.7-4.9-1.7-4.9s2.7-0.5,4.9,1.7C559.8,380.7,559.2,383.4,559.2,383.4z
			"/>
		<path fill="#FFF396" d="M559.6,376.6c0,0,2.7,0.5,4.9-1.7c2.3-2.3,1.7-4.9,1.7-4.9s-2.7-0.5-4.9,1.7S559.6,376.6,559.6,376.6z"/>
		<path fill="#FFF396" d="M559.2,376.6c0,0-2.7,0.5-4.9-1.7c-2.3-2.3-1.7-4.9-1.7-4.9s2.7-0.5,4.9,1.7
			C559.8,374,559.2,376.6,559.2,376.6z"/>
		<path fill="#FFF396" d="M559.6,369.9c0,0,2.7,0.5,4.9-1.7s1.7-4.9,1.7-4.9s-2.7-0.5-4.9,1.7C559.1,367.2,559.6,369.9,559.6,369.9z
			"/>
		<path fill="#FFF396" d="M559.2,369.9c0,0-2.7,0.5-4.9-1.7s-1.7-4.9-1.7-4.9s2.7-0.5,4.9,1.7C559.8,367.2,559.2,369.9,559.2,369.9z
			"/>
		<path fill="#FFF396" d="M559.4,366.2c0,0-2.3-1.5-2.3-4.7s2.3-4.7,2.3-4.7s2.3,1.5,2.3,4.7S559.4,366.2,559.4,366.2z"/>
	</g>
	<g>
		<line fill="none" stroke="#FFF396" stroke-width="1.5082" stroke-miterlimit="10" x1="545.1" y1="406.1" x2="545.1" y2="354.8"/>
		<path fill="#FFF396" d="M544.9,354c0,0-2.7,0.5-4.9-1.7s-1.7-4.9-1.7-4.9s2.7-0.5,4.9,1.7C545.5,351.3,544.9,354,544.9,354z"/>
		<path fill="#FFF396" d="M545.4,354c0,0,2.7,0.5,4.9-1.7s1.7-4.9,1.7-4.9s-2.7-0.5-4.9,1.7C544.8,351.3,545.4,354,545.4,354z"/>
		<path fill="#FFF396" d="M544.9,347.2c0,0-2.7,0.5-4.9-1.7s-1.7-4.9-1.7-4.9s2.7-0.5,4.9,1.7C545.5,344.5,544.9,347.2,544.9,347.2z
			"/>
		<path fill="#FFF396" d="M545.4,347.2c0,0,2.7,0.5,4.9-1.7s1.7-4.9,1.7-4.9s-2.7-0.5-4.9,1.7S545.4,347.2,545.4,347.2z"/>
		<path fill="#FFF396" d="M544.9,340.4c0,0-2.7,0.5-4.9-1.7c-2.3-2.3-1.7-4.9-1.7-4.9s2.7-0.5,4.9,1.7
			C545.5,337.8,544.9,340.4,544.9,340.4z"/>
		<path fill="#FFF396" d="M545.4,340.4c0,0,2.7,0.5,4.9-1.7c2.3-2.3,1.7-4.9,1.7-4.9s-2.7-0.5-4.9,1.7S545.4,340.4,545.4,340.4z"/>
		<path fill="#FFF396" d="M544.9,333.7c0,0-2.7,0.5-4.9-1.7s-1.7-4.9-1.7-4.9s2.7-0.5,4.9,1.7C545.5,331,544.9,333.7,544.9,333.7z"
			/>
		<path fill="#FFF396" d="M545.4,333.7c0,0,2.7,0.5,4.9-1.7s1.7-4.9,1.7-4.9s-2.7-0.5-4.9,1.7C544.8,331,545.4,333.7,545.4,333.7z"
			/>
		<path fill="#FFF396" d="M545.1,330c0,0,2.3-1.5,2.3-4.7s-2.3-4.7-2.3-4.7s-2.3,1.5-2.3,4.7S545.1,330,545.1,330z"/>
	</g>
	<g>
		<line fill="none" stroke="#FFF396" stroke-width="1.5082" stroke-miterlimit="10" x1="574.2" y1="406.1" x2="574.2" y2="354.8"/>
		<path fill="#FFF396" d="M574,354c0,0-2.7,0.5-4.9-1.7s-1.7-4.9-1.7-4.9s2.7-0.5,4.9,1.7C574.5,351.3,574,354,574,354z"/>
		<path fill="#FFF396" d="M574.4,354c0,0,2.7,0.5,4.9-1.7s1.7-4.9,1.7-4.9s-2.7-0.5-4.9,1.7C573.9,351.3,574.4,354,574.4,354z"/>
		<path fill="#FFF396" d="M574,347.2c0,0-2.7,0.5-4.9-1.7s-1.7-4.9-1.7-4.9s2.7-0.5,4.9,1.7C574.5,344.5,574,347.2,574,347.2z"/>
		<path fill="#FFF396" d="M574.4,347.2c0,0,2.7,0.5,4.9-1.7s1.7-4.9,1.7-4.9s-2.7-0.5-4.9,1.7C573.9,344.5,574.4,347.2,574.4,347.2z
			"/>
		<path fill="#FFF396" d="M574,340.4c0,0-2.7,0.5-4.9-1.7c-2.3-2.3-1.7-4.9-1.7-4.9s2.7-0.5,4.9,1.7
			C574.5,337.8,574,340.4,574,340.4z"/>
		<path fill="#FFF396" d="M574.4,340.4c0,0,2.7,0.5,4.9-1.7c2.3-2.3,1.7-4.9,1.7-4.9s-2.7-0.5-4.9,1.7
			C573.9,337.8,574.4,340.4,574.4,340.4z"/>
		<path fill="#FFF396" d="M574,333.7c0,0-2.7,0.5-4.9-1.7s-1.7-4.9-1.7-4.9s2.7-0.5,4.9,1.7C574.5,331,574,333.7,574,333.7z"/>
		<path fill="#FFF396" d="M574.4,333.7c0,0,2.7,0.5,4.9-1.7s1.7-4.9,1.7-4.9s-2.7-0.5-4.9,1.7C573.9,331,574.4,333.7,574.4,333.7z"
			/>
		<path fill="#FFF396" d="M574.2,330c0,0,2.3-1.5,2.3-4.7s-2.3-4.7-2.3-4.7s-2.3,1.5-2.3,4.7S574.2,330,574.2,330z"/>
	</g>
	<g>
		<line fill="none" stroke="#FFF396" stroke-width="1.5082" stroke-miterlimit="10" x1="588.6" y1="406.1" x2="588.6" y2="391"/>
		<path fill="#FFF396" d="M588.8,390.2c0,0,2.7,0.5,4.9-1.7c2.3-2.3,1.7-4.9,1.7-4.9s-2.7-0.5-4.9,1.7
			C588.3,387.5,588.8,390.2,588.8,390.2z"/>
		<path fill="#FFF396" d="M588.4,390.2c0,0-2.7,0.5-4.9-1.7c-2.3-2.3-1.7-4.9-1.7-4.9s2.7-0.5,4.9,1.7
			C589,387.5,588.4,390.2,588.4,390.2z"/>
		<path fill="#FFF396" d="M588.8,383.4c0,0,2.7,0.5,4.9-1.7c2.3-2.3,1.7-4.9,1.7-4.9s-2.7-0.5-4.9,1.7S588.8,383.4,588.8,383.4z"/>
		<path fill="#FFF396" d="M588.4,383.4c0,0-2.7,0.5-4.9-1.7s-1.7-4.9-1.7-4.9s2.7-0.5,4.9,1.7S588.4,383.4,588.4,383.4z"/>
		<path fill="#FFF396" d="M588.8,376.6c0,0,2.7,0.5,4.9-1.7c2.3-2.3,1.7-4.9,1.7-4.9s-2.7-0.5-4.9,1.7S588.8,376.6,588.8,376.6z"/>
		<path fill="#FFF396" d="M588.4,376.6c0,0-2.7,0.5-4.9-1.7c-2.3-2.3-1.7-4.9-1.7-4.9s2.7-0.5,4.9,1.7S588.4,376.6,588.4,376.6z"/>
		<path fill="#FFF396" d="M588.8,369.9c0,0,2.7,0.5,4.9-1.7c2.3-2.3,1.7-4.9,1.7-4.9s-2.7-0.5-4.9,1.7
			C588.3,367.2,588.8,369.9,588.8,369.9z"/>
		<path fill="#FFF396" d="M588.4,369.9c0,0-2.7,0.5-4.9-1.7s-1.7-4.9-1.7-4.9s2.7-0.5,4.9,1.7C589,367.2,588.4,369.9,588.4,369.9z"
			/>
		<path fill="#FFF396" d="M588.6,366.2c0,0-2.3-1.5-2.3-4.7s2.3-4.7,2.3-4.7s2.3,1.5,2.3,4.7S588.6,366.2,588.6,366.2z"/>
	</g>
	<polyline fill="#9C3D3D" points="971.7,378.5 879.9,378.5 883.7,326.5 971.7,326.5 1059.6,326.5 1063.4,378.5 971.7,378.5 	"/>
	<rect x="1338.4" y="346.6" fill="#FFFFFF" width="178.4" height="59.5"/>
	<rect x="1488.8" y="395.3" fill="#9C3D3D" width="20" height="10.8"/>
	<rect x="1451.4" y="337.9" fill="#FFFFFF" width="8.3" height="8.7"/>
	<rect x="1479" y="329.6" fill="#FFFFFF" width="8.3" height="17"/>
	<g>
		<rect x="1346.4" y="395.3" fill="#6CCEFA" width="133.3" height="6.2"/>
		
			<line fill="none" stroke="#FFFFFF" stroke-width="0.9526" stroke-miterlimit="10" x1="1353.3" y1="395.3" x2="1353.3" y2="401.5"/>
		
			<line fill="none" stroke="#FFFFFF" stroke-width="0.9526" stroke-miterlimit="10" x1="1360.3" y1="395.3" x2="1360.3" y2="401.5"/>
		
			<line fill="none" stroke="#FFFFFF" stroke-width="0.9526" stroke-miterlimit="10" x1="1367.3" y1="395.3" x2="1367.3" y2="401.5"/>
		
			<line fill="none" stroke="#FFFFFF" stroke-width="0.9526" stroke-miterlimit="10" x1="1374.3" y1="395.3" x2="1374.3" y2="401.5"/>
		
			<line fill="none" stroke="#FFFFFF" stroke-width="0.9526" stroke-miterlimit="10" x1="1381.3" y1="395.3" x2="1381.3" y2="401.5"/>
		
			<line fill="none" stroke="#FFFFFF" stroke-width="0.9526" stroke-miterlimit="10" x1="1388.3" y1="395.3" x2="1388.3" y2="401.5"/>
		
			<line fill="none" stroke="#FFFFFF" stroke-width="0.9526" stroke-miterlimit="10" x1="1395.3" y1="395.3" x2="1395.3" y2="401.5"/>
		
			<line fill="none" stroke="#FFFFFF" stroke-width="0.9526" stroke-miterlimit="10" x1="1402.3" y1="395.3" x2="1402.3" y2="401.5"/>
		
			<line fill="none" stroke="#FFFFFF" stroke-width="0.9526" stroke-miterlimit="10" x1="1409.3" y1="395.3" x2="1409.3" y2="401.5"/>
		
			<line fill="none" stroke="#FFFFFF" stroke-width="0.9526" stroke-miterlimit="10" x1="1416.3" y1="395.3" x2="1416.3" y2="401.5"/>
		
			<line fill="none" stroke="#FFFFFF" stroke-width="0.9526" stroke-miterlimit="10" x1="1423.3" y1="395.3" x2="1423.3" y2="401.5"/>
		
			<line fill="none" stroke="#FFFFFF" stroke-width="0.9526" stroke-miterlimit="10" x1="1430.3" y1="395.3" x2="1430.3" y2="401.5"/>
		
			<line fill="none" stroke="#FFFFFF" stroke-width="0.9526" stroke-miterlimit="10" x1="1437.3" y1="395.3" x2="1437.3" y2="401.5"/>
		
			<line fill="none" stroke="#FFFFFF" stroke-width="0.9526" stroke-miterlimit="10" x1="1444.3" y1="395.3" x2="1444.3" y2="401.5"/>
		
			<line fill="none" stroke="#FFFFFF" stroke-width="0.9526" stroke-miterlimit="10" x1="1451.3" y1="395.3" x2="1451.3" y2="401.5"/>
		
			<line fill="none" stroke="#FFFFFF" stroke-width="0.9526" stroke-miterlimit="10" x1="1458.3" y1="395.3" x2="1458.3" y2="401.5"/>
		
			<line fill="none" stroke="#FFFFFF" stroke-width="0.9526" stroke-miterlimit="10" x1="1465.3" y1="395.3" x2="1465.3" y2="401.5"/>
		
			<line fill="none" stroke="#FFFFFF" stroke-width="0.9526" stroke-miterlimit="10" x1="1472.3" y1="395.3" x2="1472.3" y2="401.5"/>
	</g>
	<rect x="350.2" y="769.5" fill="#FFFFFF" width="172.2" height="59.5"/>
	<rect x="426.3" y="815.8" fill="#9C3D3D" width="20" height="13.2"/>
	<line fill="none" stroke="#FFFFFF" stroke-width="0.9526" stroke-miterlimit="10" x1="436.3" y1="815.8" x2="436.3" y2="829"/>
	<g>
		<rect x="358.1" y="815.8" fill="#6CCEFA" width="56" height="6.2"/>
		<line fill="none" stroke="#FFFFFF" stroke-width="0.9526" stroke-miterlimit="10" x1="365.1" y1="815.8" x2="365.1" y2="822"/>
		<line fill="none" stroke="#FFFFFF" stroke-width="0.9526" stroke-miterlimit="10" x1="372.1" y1="815.8" x2="372.1" y2="822"/>
		<line fill="none" stroke="#FFFFFF" stroke-width="0.9526" stroke-miterlimit="10" x1="379.1" y1="815.8" x2="379.1" y2="822"/>
		<line fill="none" stroke="#FFFFFF" stroke-width="0.9526" stroke-miterlimit="10" x1="386.1" y1="815.8" x2="386.1" y2="822"/>
		<line fill="none" stroke="#FFFFFF" stroke-width="0.9526" stroke-miterlimit="10" x1="393.1" y1="815.8" x2="393.1" y2="822"/>
		<line fill="none" stroke="#FFFFFF" stroke-width="0.9526" stroke-miterlimit="10" x1="400.1" y1="815.8" x2="400.1" y2="822"/>
		<line fill="none" stroke="#FFFFFF" stroke-width="0.9526" stroke-miterlimit="10" x1="407.1" y1="815.8" x2="407.1" y2="822"/>
		<line fill="none" stroke="#FFFFFF" stroke-width="0.9526" stroke-miterlimit="10" x1="414.1" y1="815.8" x2="414.1" y2="822"/>
		<line fill="none" stroke="#FFFFFF" stroke-width="0.9526" stroke-miterlimit="10" x1="358.1" y1="815.8" x2="358.1" y2="822"/>
	</g>
	<g>
		<rect x="458.5" y="815.8" fill="#6CCEFA" width="56" height="6.2"/>
		<line fill="none" stroke="#FFFFFF" stroke-width="0.9526" stroke-miterlimit="10" x1="507.4" y1="815.8" x2="507.4" y2="822"/>
		<line fill="none" stroke="#FFFFFF" stroke-width="0.9526" stroke-miterlimit="10" x1="500.4" y1="815.8" x2="500.4" y2="822"/>
		<line fill="none" stroke="#FFFFFF" stroke-width="0.9526" stroke-miterlimit="10" x1="493.4" y1="815.8" x2="493.4" y2="822"/>
		<line fill="none" stroke="#FFFFFF" stroke-width="0.9526" stroke-miterlimit="10" x1="486.4" y1="815.8" x2="486.4" y2="822"/>
		<line fill="none" stroke="#FFFFFF" stroke-width="0.9526" stroke-miterlimit="10" x1="479.4" y1="815.8" x2="479.4" y2="822"/>
		<line fill="none" stroke="#FFFFFF" stroke-width="0.9526" stroke-miterlimit="10" x1="472.4" y1="815.8" x2="472.4" y2="822"/>
		<line fill="none" stroke="#FFFFFF" stroke-width="0.9526" stroke-miterlimit="10" x1="465.4" y1="815.8" x2="465.4" y2="822"/>
		<line fill="none" stroke="#FFFFFF" stroke-width="0.9526" stroke-miterlimit="10" x1="458.5" y1="815.8" x2="458.5" y2="822"/>
		<line fill="none" stroke="#FFFFFF" stroke-width="0.9526" stroke-miterlimit="10" x1="514.4" y1="815.8" x2="514.4" y2="822"/>
	</g>
	<g>
		<path fill="#FF6861" d="M1485.2,246.4c0-0.2-0.1-1.5-0.1-3.2l5.5-0.2c-1.2,4.7-2.3,8.8-2.4,9c-0.4,0.6,0.4,2.8,0.5,3.2
			s0.5,3.2,0.2,3.5c-0.4,0.3-6.1,0.1-6.7,0c-0.5-0.1,2.2-4.5,2.5-5.2C1484.9,252.9,1485.2,247.2,1485.2,246.4z"/>
		<path fill="#FF6861" d="M1492.9,166.2c-0.5-0.2-2.3,0.6-2.4,1c-0.1,0.5,5.4,5.8,5.7,6.4c0.1,0.3,0.4,4.5,0.6,9
			c-6.2-2.6-13.2-11.3-15.2-19c2.8-1.3,5.9-2.4,8.6-2.5c3.4-0.2,6.1,4,7.5,5.7c1.4,1.6,2.7,8.5,2.8,11.2c0.2,2.7,3.8,15.7,4.7,19.1
			c0.9,3.4,1.2,17.1,1.2,20.3c-0.5-1.8-3.9-14.2-4.3-17.1s-4.6-26.9-4.9-28S1493.4,166.4,1492.9,166.2z"/>
		<path fill="#FF6861" d="M1460.2,199c-8.1-0.5-15.8-1.3-23-2.2c0-1.4,0-2.8,0-4.3c-0.1-9.1-0.2-19-0.2-25.5
			c8,0.3,16.3,0.6,19.9,0.7c1,0,2.1,0,3.2,0C1459.3,177.5,1459.8,189.7,1460.2,199z"/>
		<path fill="#FF6861" d="M1493.8,191.1c-0.1,2.9-0.3,5.7-0.4,7.6c-0.1,1.4-0.1,3.2,0,5.2c-9.4,0-18.6-0.3-27.2-0.8
			c-0.4-9.4-0.8-21.8-0.2-31.6c4.9-0.3,9.9-1,12.4-2c0.2-0.1,0.3-0.1,0.5-0.2C1480.4,177.9,1487.2,188,1493.8,191.1z"/>
		<path fill="#FF6861" d="M1433,185.6c0,1.4,0,2.7,0,4c-6.1-0.8-11.8-1.8-17-2.9c0.7-8.3,1-17.6,0.5-27.2c1.3,0,2.6,0.1,3.7,0.1
			c3,0.1,7.6,0.2,12.5,0.4C1432.8,166.4,1432.9,176.4,1433,185.6z"/>
		<path fill="#FF6861" d="M1412.9,196.7c-9.9-2.2-18.1-4.9-24.1-8c2.7-6.7,4.5-14.9,5-20.2c0.6,0.1,1.1,0.2,1.5,0.2
			c2,0.3,10.5,0.8,18.1,1.2C1413.9,179.4,1413.6,188.5,1412.9,196.7z"/>
		<path fill="#FF6861" d="M1393.3,244.1l5.6,0.4c-0.3,1.3-0.5,2.3-0.6,2.7c-0.2,1-1.4,3.7-1.9,4.6c-0.4,0.9-1.2,5.5-1.6,5.8
			c-0.4,0.3-5.4,0.4-5.9,0c-0.4-0.4,3.5-5.6,4-6.6C1393.3,250.6,1393.3,247.5,1393.3,244.1z"/>
		<path fill="#FF6861" d="M1359.3,169.5c1.6-1.9,1-2.4,1.7-3.5c0.7-1.1,2.1-1.7,2.5-2.6c0.4-0.9-3-2.8-4.9-4.1c4.2-1,7,1.7,7,1.7
			c0.9-0.5,2-0.8,3.1-0.7c0,0-2.1-2-2.8-2.8c1-0.2,3.2-0.2,5.1,0.7c1.9,0.9,7,8.1,7.4,8.4c0.3,0.3,5.5,1.2,9.3,1.9
			c-0.5,7-3.7,19.3-7.9,26.2c-2.8-2.8-8.1-7.6-8.6-7.8c-0.7-0.4-7.3,0.9-8.9,1.2c-1.6,0.3-8.6,0.6-10.1,0.4c-1.5-0.2-4.2-3.9-4.4-5
			C1347.6,182.4,1357.7,171.3,1359.3,169.5z"/>
		<path fill="#FF6861" d="M1385.5,194c6.3,3.2,14.6,5.9,24.7,8.2c-0.7,7.4-1.6,14-2.4,19.4c-0.4,2.5-0.7,4.7-0.9,6.6
			c0,0,0,0-0.1-0.1c0,0.1,0,0.3,0,0.5c-0.1,1.2-0.2,2.2-0.3,3.1l0.3,0c0,0.9,0,1.7,0,1.9c0,0.5-1.2,2.3-1.5,3
			c-0.2,0.4-0.7,2.4-1.2,4.4l-6.1-0.5c0-4.2-0.2-8.3-0.3-8.8c-0.2-0.9-4.6-7.4-5.7-8.5c-1.1-1.2-2.8-8.4-3.1-9.5
			c-0.4-1.1-4.3-5.1-4.5-5.9c-0.3-0.8-1-7.3-1.4-8.2c0-0.1-0.2-0.2-0.3-0.4C1383.7,197.7,1384.6,195.9,1385.5,194z"/>
		<path fill="#FF6861" d="M1421.4,235.5c-0.1-0.6-5.2-5.8-8.1-8.8c0.2-2.1,0.6-4.8,1.1-8.1c0.7-5.1,1.7-11.8,2.4-19.3
			c5.3,1.1,11.1,2.1,17.2,2.9c0.1,5.7,0.1,10.8,0.1,14.1c-4.9-1.3-9.7-2.5-9.8-2.4c-0.4,0.2-0.5,7.5-0.5,8.2c0,0.7,4.1,8.6,4.3,9.5
			c0.2,0.9-1.6,13.5-1.9,14.1s-4.3,6.6-4.8,6.9c-0.5,0.4-4,0-4.4-0.3c-0.4-0.3,4.4-7.6,4.7-8.4
			C1422,243.3,1421.6,236.3,1421.4,235.5z"/>
		<path fill="#FF6861" d="M1471.9,230.2c0-0.5-5.9-11.9-7.9-15c-0.1-1.8-0.2-4.1-0.3-6.7c0-0.4,0-0.9-0.1-1.4
			c8.7,0.5,17.8,0.8,27.2,0.8c0.2,4.9,0.6,10.1,0.7,10.6c0.2,0.9,3.1,6.1,3.2,7c0,0.5-1.4,6.3-2.8,12l-6.1,0.3c-0.2-4-0.4-9-0.4-9.3
			c0-0.6-3-5.4-4.2-6.6c0,0.6-0.3,9.2-0.3,9.6c0,0.4-3.1,6.4-3.7,7.3c-0.6,0.9-3.2,7.5-3.6,8.4c-0.4,1-4.4,7.5-5.2,7.6
			c-0.7,0.2-4.6,0.2-5-0.3c-0.4-0.4,5.8-7.7,6-8.4C1469.9,245.7,1471.9,230.8,1471.9,230.2z"/>
		<path fill="#FF6861" d="M1436.5,207c7.2,0.9,15,1.7,23.1,2.2c0,0.5,0,1.1,0.1,1.6c0.1,2.4,0.2,4.5,0.3,6.2c-2.3,1-6.8,3.6-7.4,3.8
			c-0.7,0.3-2,0.3-2.9,0.4c-0.9,0.1-3.2,2.1-4.4,2.2c-0.5,0-4.4-0.9-8.6-2C1436.6,218.1,1436.6,212.9,1436.5,207z"/>
	</g>
	<g>
		<path fill="#B54A44" d="M483,559.8c0.3-0.4,0.8-0.7,1.3-0.7c0.7,0.1,1,1,0.7,1.6c-0.2,0.6-0.8,1.1-1.3,1.6c-0.5,0.5-1,1.1-0.9,1.8
			c1.9-0.3,3.8-0.3,5.6,0c0.7,0.1,1.6,0.6,1.4,1.3c-0.1,0.4-0.7,0.6-1.1,0.7c-1.6,0.3-3.2,0.7-4.8,1c2,1.1,3.5,3,4.3,5.2
			c-0.5,0.3-1.2,0.1-1.8-0.2c-1.1-0.5-2.3-1-3.4-1.5C476.3,567.8,479.2,563.7,483,559.8z"/>
		<path fill="#B54A44" d="M405.4,562.3l52.8-10.4c10.3-2,20.3,4.7,22.4,15c2,10.3-4.7,20.3-15,22.4l-52.8,10.4"/>
		<circle fill="#FF6861" cx="409.1" cy="581" r="19.1"/>
		<g>
			<circle fill="#D45750" cx="399.8" cy="572.9" r="1.9"/>
			<circle fill="#FFA29E" cx="409.1" cy="576.1" r="1.9"/>
			<circle fill="#D45750" cx="408.9" cy="584.7" r="2.1"/>
			<circle fill="#D45750" cx="416.7" cy="577.6" r="1.9"/>
			<circle fill="#D45750" cx="417.2" cy="589.1" r="1.7"/>
			<circle fill="#D45750" cx="395.4" cy="582.9" r="1.4"/>
			<circle fill="#FFA29E" cx="402.5" cy="580.4" r="1.4"/>
			<circle fill="#FFA29E" cx="417.9" cy="569.6" r="1.4"/>
			<circle fill="#FFA29E" cx="403.8" cy="567.2" r="1.4"/>
			<circle fill="#FFA29E" cx="399.2" cy="589.4" r="1.4"/>
			<circle fill="#D45750" cx="411" cy="568.7" r="1.4"/>
			<circle fill="#FFA29E" cx="412.2" cy="593.9" r="1.4"/>
			<circle fill="#D45750" cx="405.3" cy="593.9" r="1.4"/>
			<circle fill="#FFA29E" cx="422.5" cy="582.8" r="1.4"/>
		</g>
	</g>
	<rect x="807.2" y="778.7" fill="#FFFFFF" width="161" height="51.9"/>
	<polygon fill="#9C3D3D" points="968.2,760.1 807.2,760.1 803.4,778.7 972,778.7 	"/>
	<rect x="875.4" y="797.7" fill="#9C3D3D" width="24.5" height="32.9"/>
	<rect x="814.4" y="797.7" fill="#6CCEFA" width="57.1" height="27.6"/>
	<rect x="903.9" y="797.7" fill="#6CCEFA" width="57.1" height="27.6"/>
	<g>
		<rect x="1182.2" y="791.5" fill="#FFFFFF" width="95.5" height="39.1"/>
		<polygon fill="#9C3D3D" points="1275.8,752.5 1184.1,752.5 1177.1,791.5 1282.8,791.5 		"/>
		<rect x="1222.2" y="803" fill="#9C3D3D" width="15.6" height="27.6"/>
		<g>
			<rect x="1194.9" y="803" fill="#6CCEFA" width="14.6" height="17.5"/>
			<line fill="none" stroke="#FFFFFF" stroke-width="1.4289" stroke-miterlimit="10" x1="1202.2" y1="803" x2="1202.2" y2="820.4"/>
			
				<line fill="none" stroke="#FFFFFF" stroke-width="1.4289" stroke-miterlimit="10" x1="1194.9" y1="811.7" x2="1209.5" y2="811.7"/>
		</g>
		<g>
			<rect x="1250.5" y="803" fill="#6CCEFA" width="14.6" height="17.5"/>
			<line fill="none" stroke="#FFFFFF" stroke-width="1.4289" stroke-miterlimit="10" x1="1257.7" y1="803" x2="1257.7" y2="820.4"/>
			<line fill="none" stroke="#FFFFFF" stroke-width="1.4289" stroke-miterlimit="10" x1="1265" y1="811.7" x2="1250.5" y2="811.7"/>
		</g>
	</g>
	<polygon fill="#8B944A" points="1254.6,697.9 1200.9,697.9 1204.2,641.3 1251.3,641.3 	"/>
	<path fill="#FFBBB8" d="M1233.5,579.4H1222c-8.6,0-15.6,6.8-15.9,15.3l-1.8,46.5c-0.2,6.3,4.8,11.6,11.1,11.6h24.7
		c6.3,0,11.4-5.3,11.1-11.6l-1.8-46.5C1249.1,586.2,1242.1,579.4,1233.5,579.4z"/>
	<path fill="none" stroke="#FFBBB8" stroke-width="5.7154" stroke-miterlimit="10" d="M1206,651.9c-14.1-0.5-13.2,26-24,23.3
		c-6.8-1.7-2.9-11.6-3.5-19.7c-0.2-3.4-1.2-6.4-4-8.4"/>
	<path fill="none" stroke="#FFBBB8" stroke-width="5.7154" stroke-miterlimit="10" d="M1250.1,652.8c12.1-3.5,27-8.6,34.3,0
		c4.3,5,3,11.4-1.5,19.7c-1.5,2.8-3.4,5.7-5.5,8.9"/>
	<path fill="#7D6055" d="M1218,584.1c1.7,0.2,3.5-0.5,5.2-0.2c2.7,0.5,4.6,3.3,7.4,3.5c0.5,0,1,0,1.4-0.4c0.3-0.3,0.5-0.7,0.7-1.1
		c1.2-2.1,4.1-2.7,6.4-2.1c2.3,0.6,4.3,2.2,6.4,3.4c0.4,0.3,0.9,0.5,1.4,0.6c0.7,0.1,1.4-0.4,1.9-0.8c3.3-2.7,3.8-8.1,1.2-11.5
		c-1.4-1.8-3.4-3-4.6-4.9c-0.6-1.1-1-2.4-1.7-3.4c-0.8-1.2-2-2-3.3-2.6c-4.9-2.4-10.8-2.1-16-0.3c-5.2,1.8-9.7,5-14.2,8.2
		c-1.4,1-2.9,2.2-3.6,3.8c-1.2,3.2,1.3,3.9,3.5,4.6C1212.8,581.9,1215.2,583.9,1218,584.1z"/>
	<path fill="#7D6055" d="M1204.2,585.1c-0.4,2.1,0.4,4.3,0.6,6.5c0.2,2.2-0.2,4.4-0.2,6.6c0,2.2,0.4,4.5,2,6.1
		c1.4-2.2,1.1-4.9,1.5-7.5c0.4-2.8,1.5-5.5,3.2-7.8c1.4-1.8,3.2-3.6,3.2-5.9C1214.4,575.9,1205,580.6,1204.2,585.1z"/>
	<path fill="#7D6055" d="M1245,590.7c0.8,2.2,2.1,4.1,2.7,6.4c1,3.6,0,7.5,0.9,11.2c0.1,0.6,0.5,1.3,1.1,1.4c2.9-4.5,4-9.9,5-15.2
		c0.2-1.1,0.4-2.2,0.4-3.3c0-2.2-1.1-4.4-2.8-5.8C1247.5,581.5,1243,585,1245,590.7z"/>
	<path fill="#FF6861" d="M1167.2,614.9c-0.2,0.2-0.4,0.4-0.6,0.6c-0.6,0.4-1.5,0.2-2.2,0.5c-0.9,0.4-1.1,1.5-1.1,2.5
		c0,1.2,0,2.4,0.2,3.6c0.1,1,0.4,2,1,2.7c0.6,0.7,1.8,1.1,2.6,0.6c0.3-1,0.1-2,0.1-3c0-1,0.2-2.1,1-2.7c0.2-0.2,0.5-0.3,0.8-0.4
		c1.1-0.7,1.4-2.2,2.2-3.3c0.9-1.2,4.1-2.2,1.3-2.9C1170.6,612.6,1168.4,613.6,1167.2,614.9z"/>
	<path fill="#FF6861" d="M1177,614.6c0.1,0,0.2,0.1,0.3,0.2c0.5,0.5-0.2,1.2-0.7,1.8c-0.5,0.7-0.4,1.7,0.2,2.3
		c0.6,0.6,1.7,0.6,2.3,0.1c0,1.2,0.1,2.5,0.8,3.4c0.7,0.9,2.4,1.1,3,0.1c0.1-0.3,0.2-0.7,0.5-0.7c0.3-0.1,0.7,0.2,1,0.4
		c0.7,0.4,1.7-0.1,2-0.8c0.4-0.7,0.3-1.6,0.2-2.4c1.3,0.4,2.2,1.8,2.3,3.2c0.1,1.4-0.5,2.7-1.2,3.9c-0.8,1.4-2.1,2.7-3.7,2.7
		c-1,0.1-2-0.4-2.9-0.8c-1.8-0.9-3.6-1.8-5.5-2.7c-1.8-0.9-3.9-1.8-5.8-1.1c-1.3,0.5-2.5,1.6-3.8,1.3c-1-1.7-0.8-3.8,0-5.6
		c0.8-1.8,2.2-3.2,3.5-4.6C1172.4,612.6,1173.8,613.4,1177,614.6z"/>
	<g>
		<path fill="#FFBBB8" d="M1276.9,679.8l2,1.3c1,0.6,1.4,2,0.7,3l-1.7,2.8c-0.6,1-2,1.4-3,0.7l-2-1.3c-1-0.6-1.4-2-0.7-3l1.7-2.8
			C1274.5,679.5,1275.9,679.2,1276.9,679.8z"/>
		
			<line fill="none" stroke="#FFBBB8" stroke-width="1.9051" stroke-linecap="round" stroke-miterlimit="10" x1="1277.9" y1="685.4" x2="1275.2" y2="691.2"/>
		
			<line fill="none" stroke="#FFBBB8" stroke-width="1.9051" stroke-linecap="round" stroke-miterlimit="10" x1="1274.1" y1="686.8" x2="1272" y2="689.9"/>
		
			<line fill="none" stroke="#FFBBB8" stroke-width="1.9051" stroke-linecap="round" stroke-miterlimit="10" x1="1273.5" y1="682.8" x2="1269.4" y2="687.8"/>
		
			<line fill="none" stroke="#FFBBB8" stroke-width="1.9051" stroke-linecap="round" stroke-miterlimit="10" x1="1275" y1="680.6" x2="1270" y2="681.6"/>
	</g>
	<g>
		<path fill="#FFBBB8" d="M1176.3,646.3l-1.2,2.1c-0.6,1.1-1.9,1.4-3,0.9l-2.8-1.6c-1.1-0.6-1.4-1.9-0.9-3l1.2-2.1
			c0.6-1.1,1.9-1.4,3-0.9l2.8,1.6C1176.5,643.9,1176.8,645.2,1176.3,646.3z"/>
		
			<line fill="none" stroke="#FFBBB8" stroke-width="1.9051" stroke-linecap="round" stroke-miterlimit="10" x1="1170.7" y1="647.5" x2="1166.7" y2="646"/>
		
			<line fill="none" stroke="#FFBBB8" stroke-width="1.9051" stroke-linecap="round" stroke-miterlimit="10" x1="1169.2" y1="643.8" x2="1167.5" y2="643.2"/>
		
			<line fill="none" stroke="#FFBBB8" stroke-width="1.9051" stroke-linecap="round" stroke-miterlimit="10" x1="1173.2" y1="643" x2="1168.9" y2="640.9"/>
		
			<line fill="none" stroke="#FFBBB8" stroke-width="1.9051" stroke-linecap="round" stroke-miterlimit="10" x1="1176.3" y1="646.2" x2="1175.6" y2="640.8"/>
	</g>
	<circle fill="#7A5958" cx="1218.5" cy="606.9" r="1.7"/>
	<circle fill="#7A5958" cx="1227.9" cy="606.9" r="1.7"/>
	<path fill="none" stroke="#D9958D" stroke-width="0.9526" stroke-miterlimit="10" d="M1212.4,620.1c1.4,3.5,1.6,7-1.7,9.8"/>
	<path fill="none" stroke="#D9958D" stroke-width="0.9526" stroke-miterlimit="10" d="M1233.6,625.2c-1.7,3.5-2.2,7-0.3,11.3"/>
	<path fill="none" stroke="#D9958D" stroke-width="0.9526" stroke-miterlimit="10" d="M1216.6,625.5c2.4,2.2,9.2,2.1,11.9,3"/>
	<circle fill="#FFBBB8" cx="1250.5" cy="614" r="2.9"/>
	<circle fill="#FFBBB8" cx="1205" cy="614" r="2.9"/>
	
		<line fill="none" stroke="#FFFFFF" stroke-width="1.4289" stroke-linecap="round" stroke-miterlimit="10" x1="1174" y1="631.6" x2="1168.6" y2="650"/>
	<polyline fill="none" stroke="#FFFFFF" stroke-width="1.4289" stroke-linecap="round" stroke-miterlimit="10" points="
		1172.5,624.1 1170.6,630.6 1173.9,631.6 	"/>
	<polyline fill="none" stroke="#FFFFFF" stroke-width="1.4289" stroke-linecap="round" stroke-miterlimit="10" points="
		1179.1,626.1 1177.2,632.6 1173.9,631.6 	"/>
	
		<line fill="none" stroke="#FFFFFF" stroke-width="1.4289" stroke-linecap="round" stroke-miterlimit="10" x1="1175.8" y1="625.1" x2="1173.9" y2="631.6"/>
	<g>
		<path fill="#FFFFFF" d="M102,128.6c0-6.7,4.9-10.9,10.6-10.9c5.7,0,10.6,4.3,10.6,10.9v41.9h0.3l25.4-46.1
			c2.9-5.1,5.4-6.7,9.8-6.7c5.7,0,10.6,3.8,10.6,9.2c0,2.4-1.3,5.7-2.9,8.2l-20.8,33.5l24.7,50.9c1.3,2.5,2.2,5.1,2.2,7.3
			c0,5.1-4.1,9.2-11.3,9.2c-6.7,0-8.7-3-11.4-8.6L132,189.5l-8.7,13.2V225c0,6.7-4.9,10.9-10.6,10.9c-5.7,0-10.6-4.3-10.6-10.9
			V128.6z"/>
		<path fill="#FFFFFF" d="M181.8,163.8c0-41.9,17.1-46.8,34.9-46.8c10.3,0,19.2,2.1,25.1,8.6l3-5.1c2.1-3.6,3.2-4.9,5.4-4.9
			c2.2,0,3.8,1.7,3.8,3.5c0,1-0.8,2.9-1.9,4.6l-5.6,9.5c3.3,7.6,5.1,17.3,5.1,30.6v24.1c0,43-15.2,48.7-34.9,48.7
			c-10.3,0-18.9-1.4-25.1-8.6l-2.2,4c-1.9,3.5-4.1,6-6.3,6s-3.6-1.9-3.6-3.3c0-1.3,0.5-2.4,2.4-5.7l5.1-8.7
			c-3.3-6.3-5.1-18.7-5.1-32.3V163.8z M204,190.4h0.3l24.3-41.5c-1.3-10.9-4.9-15.1-11.9-15.1c-8.4,0-12.7,5.4-12.7,30V190.4z
			 M229.4,163h-0.3l-24.3,42c1.4,11.3,4.6,14.7,11.9,14.7c8.6,0,12.7-4,12.7-31.9V163z"/>
		<path fill="#FFFFFF" d="M266.8,131.1c0-7.9,3.6-11.4,11.4-11.4H306c21.9,0,30.8,15.4,30.8,50v14.7c0,34.3-11.6,49.5-31.7,49.5
			h-26.8c-7.8,0-11.4-3.5-11.4-11.4V131.1z M288,217h9.8c11.1,0,16.7-7.1,16.7-36.6v-9.2c0-25.1-2.9-34.7-16-34.7H288V217z"/>
	</g>
	<g>
		<path fill="#FFFFFF" d="M101.7,259.4c0-3.5,2.6-5.8,5.6-5.8s5.6,2.3,5.6,5.8v22h0.2l13.4-24.3c1.5-2.7,2.8-3.5,5.2-3.5
			c3,0,5.6,2,5.6,4.8c0,1.3-0.7,3-1.5,4.3l-10.9,17.6l13,26.8c0.7,1.3,1.2,2.7,1.2,3.8c0,2.7-2.2,4.8-5.9,4.8c-3.5,0-4.6-1.6-6-4.5
			l-9.5-20l-4.6,6.9v11.8c0,3.5-2.6,5.8-5.6,5.8s-5.6-2.3-5.6-5.8V259.4z"/>
		<path fill="#FFFFFF" d="M180,278.6h15.6c4.2,0,5.8,2.2,5.8,5s-1.7,5-5.8,5H180v16.2h16.6c4.2,0,5.8,2.2,5.8,5c0,2.8-1.7,5-5.8,5
			h-21.8c-4.1,0-6-1.8-6-6v-9h-13.7l-2.8,10.1c-0.9,3.3-2.1,6-5.9,6c-3.8,0-5.6-2.7-5.6-4.8c0-0.8,0.3-1.8,0.6-3l13.9-48.8
			c0.8-2.9,2.5-4.5,6-4.5h35.2c4.2,0,5.8,2.2,5.8,5c0,2.8-1.7,5-5.8,5H180V278.6z M157.6,291h11.3v-26.7h-4L157.6,291z"/>
		<path fill="#FFFFFF" d="M210,260.8c0-4.2,1.9-6,6-6h14.6c11.5,0,16.2,8.1,16.2,26.3v7.8c0,18-6.1,26-16.7,26H216c-4.1,0-6-1.8-6-6
			V260.8z M221.2,306h5.2c5.8,0,8.8-3.8,8.8-19.3v-4.8c0-13.2-1.5-18.3-8.4-18.3h-5.5V306z"/>
		<path fill="#FFFFFF" d="M266,304.8h17.2c4.2,0,5.8,2.2,5.8,5c0,2.8-1.7,5-5.8,5h-22.4c-4.1,0-6-1.8-6-6v-48.1c0-4.2,1.9-6,6-6
			h21.8c4.2,0,5.8,2.2,5.8,5c0,2.8-1.7,5-5.8,5H266v13.9h15.5c4.2,0,5.8,2.2,5.8,5s-1.7,5-5.8,5H266V304.8z"/>
		<path fill="#FFFFFF" d="M296.6,259.4c0-3.5,2.3-5.8,6.2-5.8c3.5,0,5.8,0.8,7.8,5.7l13.3,32.9h0.2v-32.8c0-3.5,2.6-5.8,5.6-5.8
			c3,0,5.6,2.3,5.6,5.8v50.3c0,4-2.6,6.3-5.6,6.3c-4.6,0-6.5-1-8.3-5.7l-13.3-33.4h-0.2v33.3c0,3.5-2.6,5.8-5.6,5.8
			s-5.6-2.3-5.6-5.8V259.4z"/>
	</g>
	<polygon fill="#FFFFFF" points="971.7,406.1 887.5,406.1 887.5,378.5 971.7,378.5 1055.8,378.5 1055.8,406.1 	"/>
	<polygon fill="#FFFFFF" points="986.5,378.5 956.8,378.5 956.8,359.8 971.7,339.9 986.5,359.8 	"/>
	<path fill="#823333" d="M966.1,363.9c0,0,2.1-3.2,5.6-3.2s5.6,3.2,5.6,3.2v9.8h-11.1V363.9z"/>
	<g>
		<path fill="#6CCEFA" d="M925.9,388.8c0,0-2.5-2.1-6.4-2.1c-3.9,0-6.4,2.1-6.4,2.1v8.8h12.8V388.8z"/>
		<path fill="#6CCEFA" d="M1017.5,388.8c0,0,2.5-2.1,6.4-2.1s6.4,2.1,6.4,2.1v8.8h-12.8V388.8z"/>
		<path fill="#9C3D3D" d="M956.8,390.7c0,0,5.7-6.2,14.8-6.2s14.8,6.2,14.8,6.2v15.4h-29.7V390.7z"/>
	</g>
	<path fill="#FFF396" d="M1013.9,239.5h-84.5c8-12.2,24.9-20.8,42.2-20.8C989,218.7,1005.9,227.4,1013.9,239.5z"/>
	<g>
		<g opacity="0.3">
			<circle fill="#361919" cx="1179" cy="388.5" r="4.3"/>
			<circle fill="#361919" cx="1116.4" cy="344.4" r="4.3"/>
			<circle fill="#361919" cx="1090.4" cy="333.1" r="3.3"/>
			<circle fill="#361919" cx="1172.3" cy="379.9" r="7.6"/>
			<circle fill="#361919" cx="1102.2" cy="342.3" r="7.6"/>
			<circle fill="#361919" cx="1153.8" cy="380.8" r="12.4"/>
			<circle fill="#361919" cx="1112.2" cy="363.1" r="12.4"/>
			<circle fill="#361919" cx="1140.4" cy="358.5" r="18.6"/>
		</g>
		<path fill="#361919" d="M1269,397.2h-80.3c-1.7,0-3-1.3-3-3v-55.3c0-1.7,1.3-3,3-3h80.3c1.7,0,3,1.3,3,3v55.3
			C1272.1,395.8,1270.7,397.2,1269,397.2z"/>
		<path fill="#361919" d="M1302,397.2h-23.7c-1.2,0-2.1-0.9-2.1-2.1v-31.8c0-1.2,1-2.2,2.3-2.1l23.7,1.6c1.1,0.1,2,1,2,2.1v30.2
			C1304.1,396.2,1303.2,397.2,1302,397.2z"/>
		<g>
			<circle fill="#361919" cx="1215" cy="398.1" r="7.9"/>
			<circle fill="#FF6861" cx="1215" cy="398.1" r="4.3"/>
		</g>
		<g>
			<circle fill="#361919" cx="1239.8" cy="398.1" r="7.9"/>
			<circle fill="#FF6861" cx="1239.8" cy="398.1" r="4.3"/>
		</g>
		<g>
			<circle fill="#361919" cx="1290.2" cy="398.1" r="7.9"/>
			<circle fill="#FF6861" cx="1290.2" cy="398.1" r="4.3"/>
		</g>
		<rect x="1291.8" y="367.3" fill="#FF6861" width="10.4" height="14.8"/>
	</g>
	<g>
		<g opacity="0.3">
			<circle fill="#361919" cx="196.2" cy="813" r="4.3"/>
			<circle fill="#361919" cx="133.6" cy="768.9" r="4.3"/>
			<circle fill="#361919" cx="107.6" cy="757.6" r="3.3"/>
			<circle fill="#361919" cx="189.6" cy="804.4" r="7.6"/>
			<circle fill="#361919" cx="119.4" cy="766.8" r="7.6"/>
			<circle fill="#361919" cx="171" cy="805.4" r="12.4"/>
			<circle fill="#361919" cx="129.4" cy="787.6" r="12.4"/>
			<circle fill="#361919" cx="157.7" cy="783" r="18.6"/>
		</g>
		<path fill="#361919" d="M286.3,821.7h-80.3c-1.7,0-3-1.3-3-3v-55.3c0-1.7,1.3-3,3-3h80.3c1.7,0,3,1.3,3,3v55.3
			C289.3,820.4,287.9,821.7,286.3,821.7z"/>
		<path fill="#361919" d="M319.2,821.7h-23.7c-1.2,0-2.1-0.9-2.1-2.1v-31.8c0-1.2,1-2.2,2.3-2.1l23.7,1.6c1.1,0.1,2,1,2,2.1v30.2
			C321.3,820.8,320.4,821.7,319.2,821.7z"/>
		<g>
			<circle fill="#361919" cx="232.2" cy="822.7" r="7.9"/>
			<circle fill="#FF6861" cx="232.2" cy="822.7" r="4.3"/>
		</g>
		<g>
			<circle fill="#361919" cx="257.1" cy="822.7" r="7.9"/>
			<circle fill="#FF6861" cx="257.1" cy="822.7" r="4.3"/>
		</g>
		<g>
			<circle fill="#361919" cx="307.4" cy="822.7" r="7.9"/>
			<circle fill="#FF6861" cx="307.4" cy="822.7" r="4.3"/>
		</g>
		<rect x="309" y="791.8" fill="#FF6861" width="10.4" height="14.8"/>
	</g>
	<g>
		<g opacity="0.3">
			<circle fill="#361919" cx="647.4" cy="813" r="4.3"/>
			<circle fill="#361919" cx="584.7" cy="768.9" r="4.3"/>
			<circle fill="#361919" cx="558.8" cy="757.6" r="3.3"/>
			<circle fill="#361919" cx="640.7" cy="804.4" r="7.6"/>
			<circle fill="#361919" cx="570.5" cy="766.8" r="7.6"/>
			<circle fill="#361919" cx="622.1" cy="805.4" r="12.4"/>
			<circle fill="#361919" cx="580.5" cy="787.6" r="12.4"/>
			<circle fill="#361919" cx="608.8" cy="783" r="18.6"/>
		</g>
		<path fill="#361919" d="M737.4,821.7H657c-1.7,0-3-1.3-3-3v-55.3c0-1.7,1.3-3,3-3h80.3c1.7,0,3,1.3,3,3v55.3
			C740.4,820.4,739,821.7,737.4,821.7z"/>
		<path fill="#361919" d="M770.3,821.7h-23.7c-1.2,0-2.1-0.9-2.1-2.1v-31.8c0-1.2,1-2.2,2.3-2.1l23.7,1.6c1.1,0.1,2,1,2,2.1v30.2
			C772.5,820.8,771.5,821.7,770.3,821.7z"/>
		<g>
			<circle fill="#361919" cx="683.4" cy="822.7" r="7.9"/>
			<circle fill="#FF6861" cx="683.4" cy="822.7" r="4.3"/>
		</g>
		<g>
			<circle fill="#361919" cx="708.2" cy="822.7" r="7.9"/>
			<circle fill="#FF6861" cx="708.2" cy="822.7" r="4.3"/>
		</g>
		<g>
			<circle fill="#361919" cx="758.5" cy="822.7" r="7.9"/>
			<circle fill="#FF6861" cx="758.5" cy="822.7" r="4.3"/>
		</g>
		<rect x="760.1" y="791.8" fill="#FF6861" width="10.4" height="14.8"/>
	</g>
	<circle fill="#FFFFFF" cx="879.5" cy="177.1" r="31.1"/>
	<circle fill="#FFFFFF" cx="1343.4" cy="237.1" r="31.1"/>
	<rect x="1541.1" y="742" fill="#FFFFFF" width="88.1" height="87.1"/>
	<g>
		<rect x="1552.6" y="754.9" fill="#6CCEFA" width="64.8" height="9"/>
		
			<line fill="none" stroke="#FFFFFF" stroke-width="0.9526" stroke-miterlimit="10" x1="1561.8" y1="754.9" x2="1561.8" y2="763.9"/>
		
			<line fill="none" stroke="#FFFFFF" stroke-width="0.9526" stroke-miterlimit="10" x1="1552.6" y1="754.9" x2="1552.6" y2="763.9"/>
		
			<line fill="none" stroke="#FFFFFF" stroke-width="0.9526" stroke-miterlimit="10" x1="1571.1" y1="754.9" x2="1571.1" y2="763.9"/>
		
			<line fill="none" stroke="#FFFFFF" stroke-width="0.9526" stroke-miterlimit="10" x1="1580.3" y1="754.9" x2="1580.3" y2="763.9"/>
		
			<line fill="none" stroke="#FFFFFF" stroke-width="0.9526" stroke-miterlimit="10" x1="1589.6" y1="754.9" x2="1589.6" y2="763.9"/>
		
			<line fill="none" stroke="#FFFFFF" stroke-width="0.9526" stroke-miterlimit="10" x1="1598.8" y1="754.9" x2="1598.8" y2="763.9"/>
		
			<line fill="none" stroke="#FFFFFF" stroke-width="0.9526" stroke-miterlimit="10" x1="1608.1" y1="754.9" x2="1608.1" y2="763.9"/>
		
			<line fill="none" stroke="#FFFFFF" stroke-width="0.9526" stroke-miterlimit="10" x1="1617.4" y1="754.9" x2="1617.4" y2="763.9"/>
	</g>
	<polygon fill="#FFFFFF" points="1629.2,742 1629.2,731.2 1605.1,742 	"/>
	<polygon fill="#FFFFFF" points="1605.1,742 1605.1,731.2 1581,742 	"/>
	<polygon fill="#FFFFFF" points="1581,742 1581,731.2 1556.9,742 	"/>
	<rect x="1541.1" y="688.3" fill="#FFFFFF" width="15.8" height="53.7"/>
	<rect x="1541.1" y="688.3" fill="#361919" width="15.8" height="19.1"/>
	<rect x="1545.3" y="682.6" fill="#361919" width="7.2" height="5.7"/>
	<rect x="1640.4" y="793" fill="#FFFFFF" width="49" height="36.1"/>
	<g>
		<rect x="1650.7" y="802.8" fill="#6CCEFA" width="28.4" height="6.9"/>
		<line fill="none" stroke="#FFFFFF" stroke-width="0.9526" stroke-miterlimit="10" x1="1672" y1="802.8" x2="1672" y2="809.7"/>
		
			<line fill="none" stroke="#FFFFFF" stroke-width="0.9526" stroke-miterlimit="10" x1="1664.9" y1="802.8" x2="1664.9" y2="809.7"/>
		
			<line fill="none" stroke="#FFFFFF" stroke-width="0.9526" stroke-miterlimit="10" x1="1657.8" y1="802.8" x2="1657.8" y2="809.7"/>
	</g>
	<polygon fill="#FFFFFF" points="1640.4,793 1640.4,784.7 1658.9,793 	"/>
	<polygon fill="#FFFFFF" points="1658.9,793 1658.9,784.7 1677.3,793 	"/>
	<rect x="1677.3" y="687" fill="#FFFFFF" width="12.1" height="106"/>
	<rect x="1677.3" y="687" fill="#361919" width="12.1" height="14.6"/>
	<rect x="1680.6" y="682.6" fill="#361919" width="5.5" height="4.4"/>
	<circle fill="#FFFFFF" cx="343.2" cy="610.4" r="31.1"/>
	<circle fill="#FFFFFF" cx="796.7" cy="628.1" r="31.1"/>
	<circle fill="#FFFFFF" cx="1163.3" cy="570.5" r="31.1"/>
	<g>
		<g>
			<polygon fill="#361919" points="1082.5,822.3 1160.9,822.3 1160.9,810.6 1147.9,810.6 1095.2,810.6 1082.5,810.6 			"/>
			<polygon fill="#361919" points="1139.8,788.5 1145.5,810.6 1098.2,810.6 1100.2,788.5 			"/>
		</g>
		<g>
			<circle fill="#361919" cx="1106.8" cy="822.7" r="7.9"/>
			<circle fill="#FF6861" cx="1106.8" cy="822.7" r="4.3"/>
		</g>
		<g>
			<circle fill="#361919" cx="1138.3" cy="822.7" r="7.9"/>
			<circle fill="#FF6861" cx="1138.3" cy="822.7" r="4.3"/>
		</g>
		<polygon fill="#FF6861" points="1141.7,810.6 1123,810.6 1123,791.5 1136.8,791.5 		"/>
	</g>
	<g opacity="0.3">
		<circle fill="#361919" cx="1075.1" cy="815.8" r="4.3"/>
		<circle fill="#361919" cx="1012.4" cy="771.8" r="4.3"/>
		<circle fill="#361919" cx="986.5" cy="760.4" r="3.3"/>
		<circle fill="#361919" cx="1068.4" cy="807.3" r="7.6"/>
		<circle fill="#361919" cx="998.2" cy="769.6" r="7.6"/>
		<circle fill="#361919" cx="1049.8" cy="808.2" r="12.4"/>
		<circle fill="#361919" cx="1008.2" cy="790.4" r="12.4"/>
		<circle fill="#361919" cx="1036.5" cy="785.8" r="18.6"/>
	</g>
	<g opacity="0.3">
		<circle fill="#361919" cx="1391" cy="815.8" r="4.3"/>
		<circle fill="#361919" cx="1328.4" cy="771.8" r="4.3"/>
		<circle fill="#361919" cx="1302.4" cy="760.4" r="3.3"/>
		<circle fill="#361919" cx="1384.3" cy="807.3" r="7.6"/>
		<circle fill="#361919" cx="1314.2" cy="769.6" r="7.6"/>
		<circle fill="#361919" cx="1365.8" cy="808.2" r="12.4"/>
		<circle fill="#361919" cx="1324.2" cy="790.4" r="12.4"/>
		<circle fill="#361919" cx="1352.4" cy="785.8" r="18.6"/>
	</g>
	<g opacity="0.3">
		<circle fill="#361919" cx="1548.8" cy="675.3" r="4.3"/>
		<circle fill="#361919" cx="1420.4" cy="564" r="4.3"/>
		<circle fill="#361919" cx="1407.5" cy="551.9" r="3.3"/>
		<circle fill="#361919" cx="1542.3" cy="666.6" r="7.6"/>
		<circle fill="#361919" cx="1437.3" cy="563" r="7.6"/>
		<circle fill="#361919" cx="1523.8" cy="667.2" r="12.4"/>
		<circle fill="#361919" cx="1437.1" cy="586.9" r="12.4"/>
		<circle fill="#361919" cx="1510.9" cy="644.5" r="18.6"/>
		<circle fill="#361919" cx="1463.7" cy="595.8" r="19.2"/>
		<circle fill="#361919" cx="1477.5" cy="631.4" r="25.6"/>
	</g>
	<rect x="814.4" y="822.3" fill="#56A4C7" width="57.1" height="3.1"/>
	<rect x="903.9" y="822.3" fill="#56A4C7" width="57.1" height="3.1"/>
	<g>
		<path fill="#361919" d="M1516.3,819.4h-23.7c-1.2,0-2.1-0.9-2.1-2.1v-31.8c0-1.2,1-2.2,2.3-2.1l23.7,1.6c1.1,0.1,2,1,2,2.1v30.2
			C1518.5,818.5,1517.5,819.4,1516.3,819.4z"/>
		<rect x="1504.6" y="789.5" fill="#FF6861" width="12" height="13.6"/>
		<polygon fill="#361919" points="1401.7,824.9 1397.1,824.9 1402.9,768 1407.4,768 		"/>
		<polygon fill="#361919" points="1486,772.7 1486,819.4 1455.5,819.4 1454.5,822 1401.7,822 1405.5,772.7 		"/>
		<rect x="1405.5" y="769.9" fill="#361919" width="19.8" height="2.9"/>
		<rect x="1436" y="769.9" fill="#361919" width="5.7" height="2.9"/>
		<rect x="1454.5" y="769.9" fill="#361919" width="5.7" height="2.9"/>
		<rect x="1473.1" y="769.9" fill="#361919" width="5.7" height="2.9"/>
		<g>
			<rect x="1474.5" y="775.7" fill="#361919" width="2.9" height="43.7"/>
		</g>
		<g>
			<rect x="1456" y="775.7" fill="#361919" width="2.9" height="43.7"/>
		</g>
		<g>
			<rect x="1437.4" y="775.7" fill="#361919" width="2.9" height="43.2"/>
		</g>
		<polyline fill="#361919" points="1410.1,822 1424.1,769.9 1429.3,769.9 1415.3,822 		"/>
		<g>
			<circle fill="#361919" cx="1504.5" cy="822.7" r="7.9"/>
			<circle fill="#FF6861" cx="1504.5" cy="822.7" r="4.3"/>
		</g>
		<g>
			<circle fill="#361919" cx="1423.3" cy="822.7" r="7.9"/>
			<circle fill="#FF6861" cx="1423.3" cy="822.7" r="4.3"/>
		</g>
		<g>
			<circle fill="#361919" cx="1441.9" cy="822.7" r="7.9"/>
			<circle fill="#FF6861" cx="1441.9" cy="822.7" r="4.3"/>
		</g>
	</g>
	<g>
		<g>
			<g>
				<path fill="#705555" d="M481.5,691.5l-86.3-7.2c-6.7-0.6-11.8-6.5-11.2-13.2l4.3-51.2c0.6-6.7,6.5-11.8,13.2-11.2l86.3,7.2
					c6.7,0.6,11.8,6.5,11.2,13.2l-4.3,51.2C494.1,687,488.2,692,481.5,691.5z"/>
				<g opacity="0.5">
					<path fill="none" stroke="#473737" stroke-width="4.7629" stroke-miterlimit="10" d="M478.9,681.7c-0.2,0-0.4,0-0.6,0
						l-78.3-6.6c-3.7-0.3-6.5-3.6-6.1-7.3l3.6-43.2c0.3-3.5,3.2-6.2,6.7-6.2c0.2,0,0.4,0,0.6,0L483,625c1.8,0.2,3.4,1,4.6,2.4
						c1.2,1.4,1.7,3.1,1.6,4.9l-3.6,43.2C485.3,679,482.3,681.7,478.9,681.7z"/>
				</g>
				<g>
					<path fill="#FF6861" d="M478.9,679.8c-0.1,0-0.3,0-0.4,0l-78.4-6.6c-2.6-0.2-4.6-2.5-4.4-5.2l3.6-43.3c0.2-2.5,2.3-4.4,4.8-4.4
						c0.1,0,0.3,0,0.4,0l78.4,6.6c2.6,0.2,4.6,2.5,4.4,5.2l-3.6,43.3C483.4,677.8,481.4,679.8,478.9,679.8z"/>
				</g>
			</g>
			<g>
				
					<line fill="none" stroke="#D43F37" stroke-width="2.8577" stroke-linecap="round" stroke-linejoin="round" stroke-miterlimit="10" stroke-dasharray="3.8103,4.7629" x1="403.1" y1="624.6" x2="482.8" y2="631.3"/>
				
					<line fill="none" stroke="#D43F37" stroke-width="2.8577" stroke-linecap="round" stroke-linejoin="round" stroke-miterlimit="10" stroke-dasharray="3.8103,4.7629" x1="402.7" y1="629.5" x2="482.3" y2="636.2"/>
				
					<line fill="none" stroke="#D43F37" stroke-width="2.8577" stroke-linecap="round" stroke-linejoin="round" stroke-miterlimit="10" stroke-dasharray="3.8103,4.7629" x1="402.2" y1="634.4" x2="481.9" y2="641.1"/>
				
					<line fill="none" stroke="#D43F37" stroke-width="2.8577" stroke-linecap="round" stroke-linejoin="round" stroke-miterlimit="10" stroke-dasharray="3.8103,4.7629" x1="401.8" y1="639.3" x2="481.5" y2="646"/>
				
					<line fill="none" stroke="#D43F37" stroke-width="2.8577" stroke-linecap="round" stroke-linejoin="round" stroke-miterlimit="10" stroke-dasharray="3.8103,4.7629" x1="401.4" y1="644.2" x2="481.1" y2="650.9"/>
				
					<line fill="none" stroke="#D43F37" stroke-width="2.8577" stroke-linecap="round" stroke-linejoin="round" stroke-miterlimit="10" stroke-dasharray="3.8103,4.7629" x1="401" y1="649.1" x2="480.7" y2="655.8"/>
				
					<line fill="none" stroke="#D43F37" stroke-width="2.8577" stroke-linecap="round" stroke-linejoin="round" stroke-miterlimit="10" stroke-dasharray="3.8103,4.7629" x1="400.6" y1="654" x2="480.3" y2="660.7"/>
				
					<line fill="none" stroke="#D43F37" stroke-width="2.8577" stroke-linecap="round" stroke-linejoin="round" stroke-miterlimit="10" stroke-dasharray="3.8103,4.7629" x1="400.2" y1="658.9" x2="479.9" y2="665.6"/>
				
					<line fill="none" stroke="#D43F37" stroke-width="2.8577" stroke-linecap="round" stroke-linejoin="round" stroke-miterlimit="10" stroke-dasharray="3.8103,4.7629" x1="399.8" y1="663.8" x2="479.5" y2="670.5"/>
				
					<line fill="none" stroke="#D43F37" stroke-width="2.8577" stroke-linecap="round" stroke-linejoin="round" stroke-miterlimit="10" stroke-dasharray="3.8103,4.7629" x1="399.4" y1="668.7" x2="479.1" y2="675.4"/>
			</g>
		</g>
		<g>
			<defs>
				<path id="SVGID_1_" d="M481.5,691.5l-86.3-7.2c-6.7-0.6-11.8-6.5-11.2-13.2l4.3-51.2c0.6-6.7,6.5-11.8,13.2-11.2l86.3,7.2
					c6.7,0.6,11.8,6.5,11.2,13.2l-4.3,51.2C494.1,687,488.2,692,481.5,691.5z"/>
			</defs>
			<clipPath id="SVGID_2_">
				<use xlink:href="#SVGID_1_"  overflow="visible"/>
			</clipPath>
			
				<line opacity="0.13" clip-path="url(#SVGID_2_)" fill="none" stroke="#FFFFFF" stroke-width="10.4783" stroke-miterlimit="10" x1="451.4" y1="609.3" x2="394.6" y2="688.7"/>
			
				<line opacity="0.18" clip-path="url(#SVGID_2_)" fill="none" stroke="#FFFFFF" stroke-width="18.0989" stroke-miterlimit="10" x1="483.8" y1="609.3" x2="422.9" y2="694.7"/>
		</g>
	</g>
	<g>
		<path fill="#B54A44" d="M934.9,562.6c0.3-0.4,0.8-0.7,1.3-0.7c0.7,0.1,1,1,0.7,1.6c-0.2,0.6-0.8,1.1-1.3,1.6
			c-0.5,0.5-1,1.1-0.9,1.8c1.9-0.3,3.8-0.3,5.6,0c0.7,0.1,1.6,0.6,1.4,1.3c-0.1,0.4-0.7,0.6-1.1,0.7c-1.6,0.3-3.2,0.7-4.8,1
			c2,1.1,3.5,3,4.3,5.2c-0.5,0.3-1.2,0.1-1.8-0.2c-1.1-0.5-2.3-1-3.4-1.5C928.3,570.7,931.1,566.5,934.9,562.6z"/>
		<path fill="#B54A44" d="M857.4,565.2l52.8-10.4c10.3-2,20.3,4.7,22.4,15c2,10.3-4.7,20.3-15,22.4l-52.8,10.4"/>
		<circle fill="#FF6861" cx="861" cy="583.8" r="19.1"/>
	</g>
	<g>
		<g>
			<g>
				<path fill="#705555" d="M933.4,694.3l-86.3-7.2c-6.7-0.6-11.8-6.5-11.2-13.2l4.3-51.2c0.6-6.7,6.5-11.8,13.2-11.2l86.3,7.2
					c6.7,0.6,11.8,6.5,11.2,13.2l-4.3,51.2C946.1,689.9,940.2,694.9,933.4,694.3z"/>
				<g opacity="0.5">
					<path fill="none" stroke="#473737" stroke-width="4.7629" stroke-miterlimit="10" d="M930.8,684.5c-0.2,0-0.4,0-0.6,0
						l-78.3-6.6c-3.7-0.3-6.5-3.6-6.1-7.3l3.6-43.2c0.3-3.5,3.2-6.2,6.7-6.2c0.2,0,0.4,0,0.6,0l78.3,6.6c3.7,0.3,6.5,3.6,6.1,7.3
						l-3.6,43.3C937.2,681.8,934.3,684.5,930.8,684.5z"/>
				</g>
				<g>
					<path fill="#FF6861" d="M930.9,682.6c-0.1,0-0.3,0-0.4,0l-78.4-6.6c-2.6-0.2-4.6-2.5-4.4-5.2l3.6-43.3c0.2-2.5,2.3-4.4,4.8-4.4
						c0.1,0,0.3,0,0.4,0l78.4,6.6c1.7,0.1,2.8,1.1,3.3,1.7c0.5,0.6,1.3,1.8,1.1,3.5l-3.6,43.3C935.4,680.7,933.3,682.6,930.9,682.6z
						"/>
				</g>
			</g>
			<g>
				
					<line fill="none" stroke="#D43F37" stroke-width="2.8577" stroke-linecap="round" stroke-linejoin="round" stroke-miterlimit="10" stroke-dasharray="3.8103,4.7629" x1="855" y1="627.5" x2="934.7" y2="634.1"/>
				
					<line fill="none" stroke="#D43F37" stroke-width="2.8577" stroke-linecap="round" stroke-linejoin="round" stroke-miterlimit="10" stroke-dasharray="3.8103,4.7629" x1="854.6" y1="632.4" x2="934.3" y2="639"/>
				
					<line fill="none" stroke="#D43F37" stroke-width="2.8577" stroke-linecap="round" stroke-linejoin="round" stroke-miterlimit="10" stroke-dasharray="3.8103,4.7629" x1="854.2" y1="637.3" x2="933.9" y2="643.9"/>
				
					<line fill="none" stroke="#D43F37" stroke-width="2.8577" stroke-linecap="round" stroke-linejoin="round" stroke-miterlimit="10" stroke-dasharray="3.8103,4.7629" x1="853.8" y1="642.2" x2="933.5" y2="648.8"/>
				
					<line fill="none" stroke="#D43F37" stroke-width="2.8577" stroke-linecap="round" stroke-linejoin="round" stroke-miterlimit="10" stroke-dasharray="3.8103,4.7629" x1="853.4" y1="647.1" x2="933.1" y2="653.7"/>
				
					<line fill="none" stroke="#D43F37" stroke-width="2.8577" stroke-linecap="round" stroke-linejoin="round" stroke-miterlimit="10" stroke-dasharray="3.8103,4.7629" x1="853" y1="652" x2="932.7" y2="658.7"/>
				
					<line fill="none" stroke="#D43F37" stroke-width="2.8577" stroke-linecap="round" stroke-linejoin="round" stroke-miterlimit="10" stroke-dasharray="3.8103,4.7629" x1="852.6" y1="656.9" x2="932.3" y2="663.6"/>
				
					<line fill="none" stroke="#D43F37" stroke-width="2.8577" stroke-linecap="round" stroke-linejoin="round" stroke-miterlimit="10" stroke-dasharray="3.8103,4.7629" x1="852.2" y1="661.8" x2="931.9" y2="668.5"/>
				
					<line fill="none" stroke="#D43F37" stroke-width="2.8577" stroke-linecap="round" stroke-linejoin="round" stroke-miterlimit="10" stroke-dasharray="3.8103,4.7629" x1="851.8" y1="666.7" x2="931.4" y2="673.4"/>
				
					<line fill="none" stroke="#D43F37" stroke-width="2.8577" stroke-linecap="round" stroke-linejoin="round" stroke-miterlimit="10" stroke-dasharray="3.8103,4.7629" x1="851.3" y1="671.6" x2="931" y2="678.3"/>
			</g>
		</g>
		<g>
			<defs>
				<path id="SVGID_3_" d="M933.4,694.3l-86.3-7.2c-6.7-0.6-11.8-6.5-11.2-13.2l4.3-51.2c0.6-6.7,6.5-11.8,13.2-11.2l86.3,7.2
					c6.7,0.6,11.8,6.5,11.2,13.2l-4.3,51.2C946.1,689.9,940.2,694.9,933.4,694.3z"/>
			</defs>
			<clipPath id="SVGID_4_">
				<use xlink:href="#SVGID_3_"  overflow="visible"/>
			</clipPath>
			
				<line opacity="0.13" clip-path="url(#SVGID_4_)" fill="none" stroke="#FFFFFF" stroke-width="10.4783" stroke-miterlimit="10" x1="903.4" y1="612.1" x2="846.6" y2="691.5"/>
			
				<line opacity="0.18" clip-path="url(#SVGID_4_)" fill="none" stroke="#FFFFFF" stroke-width="18.0989" stroke-miterlimit="10" x1="935.8" y1="612.1" x2="874.8" y2="697.6"/>
		</g>
	</g>
	<polygon fill="#FFFFFF" points="1203.3,641.3 1227.8,652.9 1224.8,662.2 1202.9,647.5 	"/>
	<polygon fill="#FFFFFF" points="1252.2,641.3 1227.8,652.9 1230.7,662.2 1252.6,647.5 	"/>
	<path fill="none" stroke="#8B944A" stroke-width="5.7154" stroke-miterlimit="10" d="M1250.1,652.8c12.1-3.5,27-8.6,34.3,0
		c4.3,5,3,11.4-1.5,19.7"/>
	<path fill="none" stroke="#8B944A" stroke-width="5.7154" stroke-miterlimit="10" d="M1206,651.9c-14.1-0.5-13.2,26-24,23.3
		c-6.8-1.7-2.9-11.6-3.5-19.7"/>
	<g>
		<g>
			<path fill="#FFDE57" d="M965.5,616.6c0,2.3-5.9,4-6.3,6.1c-0.4,2.2,4.3,6,3.5,8.1c-0.9,2.1-6.9,1.4-8.2,3.2
				c-1.3,1.9,1.7,7.2,0.1,8.8c-1.6,1.6-6.9-1.4-8.8-0.1c-1.9,1.2-1.2,7.3-3.2,8.2c-2.1,0.9-5.9-3.9-8.1-3.5
				c-2.2,0.4-3.8,6.3-6.1,6.3c-2.3,0-4-5.9-6.1-6.3c-2.2-0.4-6,4.3-8.1,3.5c-2.1-0.9-1.4-6.9-3.2-8.2c-1.9-1.3-7.2,1.7-8.8,0.1
				c-1.6-1.6,1.4-6.9,0.1-8.8c-1.2-1.9-7.3-1.2-8.2-3.2c-0.9-2.1,3.9-5.9,3.5-8.1c-0.4-2.2-6.3-3.8-6.3-6.1c0-2.3,5.9-4,6.3-6.1
				c0.4-2.2-4.3-6-3.5-8.1c0.9-2.1,6.9-1.4,8.2-3.2c1.3-1.9-1.7-7.2-0.1-8.8c1.6-1.6,6.9,1.4,8.8,0.1c1.9-1.2,1.2-7.3,3.2-8.2
				c2.1-0.9,5.9,3.9,8.1,3.5c2.2-0.4,3.8-6.3,6.1-6.3c2.3,0,4,5.9,6.1,6.3c2.2,0.4,6-4.3,8.1-3.5c2.1,0.9,1.4,6.9,3.2,8.2
				c1.9,1.3,7.2-1.7,8.8-0.1c1.6,1.6-1.4,6.9-0.1,8.8c1.2,1.9,7.3,1.2,8.2,3.2c0.9,2.1-3.9,5.9-3.5,8.1
				C959.6,612.6,965.5,614.3,965.5,616.6z"/>
		</g>
		<g>
			<path fill="#361919" d="M907.9,603.3c0-1.8,1.3-2.9,2.9-2.9c1.5,0,2.9,1.1,2.9,2.9v11.2h0.1l6.8-12.4c0.8-1.4,1.4-1.8,2.6-1.8
				c1.5,0,2.9,1,2.9,2.5c0,0.6-0.3,1.5-0.8,2.2l-5.6,9l6.6,13.7c0.3,0.7,0.6,1.4,0.6,2c0,1.4-1.1,2.5-3,2.5c-1.8,0-2.3-0.8-3.1-2.3
				l-4.9-10.2l-2.3,3.5v6c0,1.8-1.3,2.9-2.9,2.9c-1.5,0-2.9-1.1-2.9-2.9V603.3z"/>
			<path fill="#361919" d="M930,604c0-2.1,1-3.1,3.1-3.1h7.8c5.2,0,6.9,3.5,6.9,7.9c0,4-1.1,5.9-3.7,6.9c3,1.1,3.5,2.9,3.5,6.5v3.3
				c0,1.7,0.4,3.2,0.4,4.8c0,0.9-0.8,1.8-2.7,1.8c-2.1,0-3.4-0.9-3.5-2.9l-0.3-7.8c-0.1-2.1-1.1-3.2-3.4-3.2h-2.5v11
				c0,1.8-1.3,2.9-2.9,2.9c-1.5,0-2.9-1.1-2.9-2.9V604z M935.7,613.9h2.2c2.3,0,3.9-1,3.9-4.3c0-3.1-0.9-4.3-3.7-4.3h-2.5V613.9z"/>
		</g>
	</g>
	<g>
		
			<rect x="855" y="649.9" transform="matrix(0.9967 8.121407e-02 -8.121407e-02 0.9967 56.5385 -68.9992)" fill="#FFFFFF" width="42.9" height="21.3"/>
		<line fill="none" stroke="#361919" stroke-width="0.9526" stroke-miterlimit="10" x1="859.7" y1="651.4" x2="858.5" y2="666.6"/>
		<line fill="none" stroke="#361919" stroke-width="2.8577" stroke-miterlimit="10" x1="865" y1="651.9" x2="863.7" y2="667"/>
		<line fill="none" stroke="#361919" stroke-width="1.9051" stroke-miterlimit="10" x1="870.2" y1="652.3" x2="868.9" y2="667.5"/>
		<line fill="none" stroke="#361919" stroke-width="0.9526" stroke-miterlimit="10" x1="874.5" y1="652.6" x2="873.2" y2="667.8"/>
		<line fill="none" stroke="#361919" stroke-width="2.8577" stroke-miterlimit="10" x1="879.7" y1="653.1" x2="878.4" y2="668.2"/>
		<line fill="none" stroke="#361919" stroke-width="0.9526" stroke-miterlimit="10" x1="884.9" y1="653.5" x2="883.7" y2="668.7"/>
		<line fill="none" stroke="#361919" stroke-width="3.8103" stroke-miterlimit="10" x1="889.2" y1="653.8" x2="887.9" y2="669"/>
		<line fill="none" stroke="#361919" stroke-width="0.9526" stroke-miterlimit="10" x1="894.4" y1="654.3" x2="893.2" y2="669.4"/>
	</g>
	<g>
		
			<rect x="884.6" y="567" transform="matrix(0.9812 -0.1928 0.1928 0.9812 -93.8033 184.0568)" fill="#FFFFFF" width="28.2" height="14"/>
		<line fill="none" stroke="#361919" stroke-width="0.6254" stroke-miterlimit="10" x1="886.5" y1="571.2" x2="888.5" y2="581"/>
		<line fill="none" stroke="#361919" stroke-width="1.8761" stroke-miterlimit="10" x1="889.9" y1="570.5" x2="891.8" y2="580.4"/>
		<line fill="none" stroke="#361919" stroke-width="1.2508" stroke-miterlimit="10" x1="893.3" y1="569.9" x2="895.2" y2="579.7"/>
		<line fill="none" stroke="#361919" stroke-width="0.6254" stroke-miterlimit="10" x1="896" y1="569.3" x2="898" y2="579.1"/>
		<line fill="none" stroke="#361919" stroke-width="1.8761" stroke-miterlimit="10" x1="899.4" y1="568.7" x2="901.3" y2="578.5"/>
		<line fill="none" stroke="#361919" stroke-width="0.6254" stroke-miterlimit="10" x1="902.8" y1="568" x2="904.7" y2="577.8"/>
		<line fill="none" stroke="#361919" stroke-width="2.5015" stroke-miterlimit="10" x1="905.5" y1="567.5" x2="907.5" y2="577.3"/>
		<line fill="none" stroke="#361919" stroke-width="0.6254" stroke-miterlimit="10" x1="908.9" y1="566.8" x2="910.9" y2="576.6"/>
	</g>
	<g>
		<rect x="1272.5" y="813.7" fill="#361919" width="11.6" height="16.9"/>
		<rect x="1272.5" y="813.7" fill="#361919" width="11.6" height="3.5"/>
	</g>
	<g>
		<rect x="1287.3" y="813.7" fill="#361919" width="11.6" height="16.9"/>
		<rect x="1287.3" y="813.7" fill="#361919" width="11.6" height="3.5"/>
	</g>
	<g>
		<circle fill="#FFFFFF" cx="429.8" cy="272.1" r="31.1"/>
		<g>
			<path fill="#361919" d="M422.8,265.3c-1.4,0-2.4-0.5-2.4-1.7c0-1.1,0.6-1.7,1.8-1.9c3.3-0.6,4.7-1.6,5.7-3.6c1-2,1.3-2.2,2.8-2.2
				c0.9,0,1.8,0.6,1.8,2.3v26.2c0,1.8-1.3,2.9-2.9,2.9s-2.9-1.1-2.9-2.9v-19.1H422.8z"/>
		</g>
	</g>
	<g>
		<path fill="#361919" d="M873,192.3c-1.7,0-2.5-0.7-2.5-2.4c0-2.2,1-6.6,5.7-11.3l2-2c3-3,3.7-4.5,3.7-6.8c0-2.3-0.9-3.8-2.9-3.8
			c-2.2,0-2.8,1.7-3,4.2c-0.1,1.7-1.3,2.4-2.6,2.4c-2.1,0-2.6-1.7-2.6-3.2c0-4.6,3-7.7,8-7.7c5.7,0,8.8,2.8,8.8,8.2
			c0,2.8-1.2,5.7-3.7,8.2l-3.5,3.5c-2.3,2.3-3.4,4-3.9,5.8h8.4c1.9,0,3.1,0.6,3.1,2.4c0,1.9-1.1,2.4-3.1,2.4H873z"/>
	</g>
	<g>
		<path fill="#361919" d="M1336.8,241.7c1.7,0,2.7,1,2.9,3.2c0.1,2.3,1,3.9,3.2,3.9c2.3,0,3.1-2.3,3.1-5.3c0-4.4-1.2-5.2-3.5-5.4
			c-2.3-0.3-2.9-0.8-2.9-2c0-1.2,0.4-1.7,2.6-2c2.4-0.4,3.2-1.4,3.2-4.8c0-1.9-0.6-3.6-2.7-3.6c-1.4,0-2.4,0.8-2.7,2.9
			c-0.3,1.8-1.1,2.6-2.8,2.6c-1.6,0-2.4-1.1-2.4-2.6c0-3.9,2.5-6.9,7.8-6.9c6.1,0,8.5,3.4,8.5,7.9c0,3.1-1.1,5.4-3.5,6.3
			c3.2,1.2,4.1,3.6,4.1,7.6c0,6-2.6,9.4-8.9,9.4c-7.2,0-8.5-5.2-8.5-7.8C1334.2,243,1335.1,241.7,1336.8,241.7z"/>
	</g>
	<g>
		<path fill="#361919" d="M342.8,619.1h-7.2c-2,0-3.1-0.6-3.1-2.3c0-0.9,0.3-1.7,0.9-3l8.3-17.3c0.9-1.7,1.6-2.1,3.5-2.1
			c2.1,0,2.9,1.2,2.9,2.7v17.6h1c1,0,2.3,0.6,2.3,2.3c0,1.7-1.3,2.3-2.3,2.3h-1v3.6c0,2.1-1,3.1-2.6,3.1c-1.6,0-2.6-1-2.6-3.1V619.1
			z M342.8,602.3L342.8,602.3l-5.7,12.3h5.7V602.3z"/>
	</g>
	<g>
		<path fill="#361919" d="M793.1,623.5c1.1-1.1,2.5-1.6,4.6-1.6c4.2,0,7.5,2.2,7.5,10c0,6.4-1.5,11.2-8.8,11.2
			c-7.4,0-8.3-5.3-8.3-7.5c0-1.7,0.7-3.3,2.6-3.3c2,0,2.7,1.2,2.8,2.8c0.1,2.4,0.9,4,2.9,4c2.5,0,3.1-2.2,3.1-6.3
			c0-4.9-0.9-6.8-3.4-6.8c-2.7,0-2,3-5.2,3c-1.7,0-2.4-1.3-2.4-2.5c0-0.4,0-0.8,0.1-1.4l0.6-10.5c0-1.1,0.6-2.1,1.9-2.1h10.3
			c1.9,0,3.1,0.6,3.1,2.4c0,1.9-1.1,2.4-3.1,2.4h-7.8L793.1,623.5z"/>
	</g>
	<g>
		<path fill="#361919" d="M1154.1,568.3c0-8.6,1.7-13.9,8.9-13.9c5.2,0,7.5,2.4,7.5,5.1c0,1.5-1,2.5-2.5,2.5c-1.2,0-1.7-0.3-2.5-1.8
			c-0.8-1.4-1.1-1.7-2.4-1.7c-2.5,0-3.3,2.3-3.3,6v1.7c1.3-1.3,2.7-1.7,4.5-1.7c5.4,0,7.2,4.2,7.2,9.6c0,6-1.5,11.4-8.6,11.4
			c-8,0-8.8-5.7-8.8-14V568.3z M1162.8,581.4c2.5,0,3-2.3,3-6.4c0-4-0.5-6.3-3-6.3s-3,2.2-3,6.3
			C1159.8,579.2,1160.3,581.4,1162.8,581.4z"/>
	</g>
	<g>
		<circle fill="#FFFFFF" cx="1518.1" cy="572.7" r="31.1"/>
		<g>
			<path fill="#361919" d="M1511.5,563.5c-1.9,0-2.7-1.6-2.7-2.5c0-1,0.8-2.6,2.7-2.6h13.1c1.7,0,2.7,0.4,2.7,2.1
				c0,0.5-0.1,0.9-1.7,4c-2.7,5.3-5.7,14.8-6.3,21.6c-0.2,1.8-1.2,2.9-3.1,2.9s-2.6-1.3-2.6-2.9c0-3.8,3.6-15.6,7.7-22.6H1511.5z"/>
		</g>
	</g>
	<g>
		<g>
			<path fill="none" stroke="#FFFFFF" stroke-width="4.7629" stroke-miterlimit="10" d="M1456.7,712.6
				c25.3-24.3,39.9-55.6,48.6-89.2"/>
			<g>
				<path fill="#FFFFFF" d="M1505,624.4c-3.3,1.9-8.7,1.8-12.3,1c5.7-2.3,11.1-5.9,14.9-10.9c0.8,6.2,4.1,11.8,7.7,16.7
					C1511.6,630,1507.2,627.9,1505,624.4z"/>
			</g>
		</g>
	</g>
	<g>
		<g>
			<g>
				<defs>
					<path id="XMLID_1_" d="M971.7,135.5c3.3,0,5.2-2.3,8.2-1.5c4.2,1.1,6.4,7.7,10,7.7s5.5,1.6,6.7,4.7c4.5-4.1,19.5-7.6,28.8,0.5
						c-7.1,9-17.1,11.9-26,10.2c-3.6,5.5-8.1,10.2-8.3,17.9c-0.2,7.6,1,13.6-1.4,19.8s-5.7,16.9-4.8,20.5c1,3.6,3.7,15.7-13.2,15.7
						s-14.1-12.1-13.2-15.7s-2.4-14.3-4.8-20.5s-1.2-12.1-1.4-19.8c-0.2-7.6-4.8-12.4-8.3-17.9c-8.8,1.7-18.8-1.2-26-10.2
						c9.3-8.1,24.3-4.7,28.8-0.5c1.3-3.1,3.2-4.7,6.7-4.7s5.8-6.7,10-7.7C966.5,133.1,968.3,135.5,971.7,135.5z"/>
				</defs>
				<use xlink:href="#XMLID_1_"  overflow="visible" fill="#B38254"/>
				<clipPath id="XMLID_5_">
					<use xlink:href="#XMLID_1_"  overflow="visible"/>
				</clipPath>
				<path clip-path="url(#XMLID_5_)" fill="#BF9873" d="M956.7,148.5c0.8,2.3,1.8,4.4,2.7,6.3c2.5,5,3.8,10.4,5,15.8
					c1.3,5.7,2.9,10.9,2.9,16.8c0.1,5.1-0.2,10.3-1.5,15.3s-3.7,9.8-7.5,13.3c-0.5,0.4-1,1-0.8,1.6c0.2,0.5,0.7,0.7,1.1,0.8
					c2.2,0.8,4.4,1.5,6.8,1.7c3.4,0.3,6.8-0.7,10.1-1.2c3.4-0.5,7.1-0.5,9.9,1.4c1.6-3.2-1.3-6.6-2.7-9.9c-0.7-1.5-1-3.1-1.4-4.8
					c-1.4-6.2-3.2-12.3-5.3-18.2c-0.7-2-1.5-4-1.6-6.1c-0.2-3.1,0.9-6.1,1.8-9c0.9-3,1.1-5.7,2.8-8.3c0.9-1.3,2.1-2.5,3.1-3.7
					c3.4-4.1,4.5-9,7.1-13.4c2.7-4.8,1.8-9.8-3.1-12.8c-2.6-1.6-5.6-2.3-8.6-2.8c-2.3-0.3-4.5-0.6-6.8-0.7c-3.3-0.1-6.8,0-9.8,1.5
					C954.1,135.5,954.6,142.3,956.7,148.5z"/>
				<path clip-path="url(#XMLID_5_)" fill="#966D47" d="M959.9,216.2c0.9-0.2,1.9-0.3,2.9-0.4c5.3-0.5,10.5-1.6,15.9-1
					c1.6,0.2,3.2,0.5,4.6,1.2c1.4,0.7,2.7,1.8,3.3,3.3c1.9,5.1-1.1,10.4-5.7,12.5c-4.3,2-9.3,1.5-14,0.6c-2.4-0.5-4.9-1.2-6.9-2.6
					c-1.8-1.3-2.7-4.4-3.5-6.4c-0.4-1.1-0.8-2.2-0.6-3.3c0.2-1.5,1.4-2.6,2.8-3.3C958.9,216.5,959.4,216.3,959.9,216.2z"/>
			</g>
			<g>
				<path fill="#FFDE57" d="M941.2,163.9c0-0.5-0.4-1-0.9-1.1c-1.7-0.4-5.4-1.6-5.4-5.2V155h-3.7v2.6c0,3.6-3.7,4.8-5.4,5.2
					c-0.5,0.1-0.9,0.6-0.9,1.1v11.4c0,0.6,0.5,1.1,1.1,1.1h14c0.6,0,1.1-0.5,1.1-1.1V163.9z"/>
				
					<line fill="none" stroke="#361919" stroke-width="1.9051" stroke-miterlimit="10" x1="927.4" y1="167.6" x2="938.8" y2="167.6"/>
				
					<line fill="none" stroke="#361919" stroke-width="1.9051" stroke-miterlimit="10" x1="927.4" y1="170.9" x2="938.8" y2="170.9"/>
			</g>
			<g>
				<path fill="#FFDE57" d="M1002.2,163.9c0-0.5,0.4-1,0.9-1.1c1.7-0.4,5.4-1.6,5.4-5.2V155h3.7v2.6c0,3.6,3.7,4.8,5.4,5.2
					c0.5,0.1,0.9,0.6,0.9,1.1v11.4c0,0.6-0.5,1.1-1.1,1.1h-14c-0.6,0-1.1-0.5-1.1-1.1V163.9z"/>
				
					<line fill="none" stroke="#361919" stroke-width="1.9051" stroke-miterlimit="10" x1="1016" y1="167.6" x2="1004.6" y2="167.6"/>
				
					<line fill="none" stroke="#361919" stroke-width="1.9051" stroke-miterlimit="10" x1="1016" y1="170.9" x2="1004.6" y2="170.9"/>
			</g>
		</g>
		<g>
			<circle fill="#FFFFFF" cx="954.4" cy="170.7" r="4.9"/>
			<circle fill="#361919" cx="954.4" cy="170.7" r="3.4"/>
		</g>
		<g>
			<circle fill="#FFFFFF" cx="989.1" cy="170.7" r="4.9"/>
			<circle fill="#361919" cx="989.1" cy="170.7" r="3.4"/>
		</g>
		
			<ellipse transform="matrix(0.8415 0.5402 -0.5402 0.8415 271.5257 -485.1782)" fill="#61462E" cx="962.7" cy="220.2" rx="3.5" ry="1.6"/>
		
			<ellipse transform="matrix(-0.8415 0.5402 -0.5402 -0.8415 1924.8776 -124.3308)" fill="#61462E" cx="980.7" cy="220.2" rx="3.5" ry="1.6"/>
	</g>
	<rect x="878.8" y="801.3" fill="#6CCEFA" width="17.8" height="12.9"/>
	<rect x="1571" y="815.8" fill="#9C3D3D" width="28.3" height="13.2"/>
	<path fill="#FFDE57" d="M1619.2,543.6c-2.4,8.1-3.6,18.5-2.5,27.9c-5.7-4.7-9.2-15.9-10.8-22.9c-1.6,7.1-3,15.6-0.7,22.8
		c3.1,10.2,0.3,20.9,0.6,31.2c0.3,10.4,4.7,18.5,8.7,28c3.3,8,5.2,16.6,4.7,28.7c4.2-6.8,8.1-12.3,11.4-18.9c3-6,3.3-12.8,4.9-19.3
		c1.6-6.5,6.2-17.5,11.4-22.8c-6.6,1.7-10.3,7-13.9,11.5c-0.7-12.4-0.7-21.6,2.6-33.6c2.4-8.5,5.8-16.7,9.2-24.9
		c-4.8,2.5-8.2,6.2-11.7,10.7c-0.8-12.9-2.7-35.6-12.8-43.4C1622.5,524.9,1622.2,533.8,1619.2,543.6z"/>
	<g>
		<circle fill="#D45750" cx="851.9" cy="576.3" r="1.9"/>
		<circle fill="#FFA29E" cx="861.1" cy="579.5" r="1.9"/>
		<circle fill="#D45750" cx="860.9" cy="588.1" r="2.1"/>
		<circle fill="#D45750" cx="868.7" cy="580.9" r="1.9"/>
		<circle fill="#D45750" cx="869.2" cy="592.5" r="1.7"/>
		<circle fill="#D45750" cx="847.4" cy="586.3" r="1.4"/>
		<circle fill="#FFA29E" cx="854.6" cy="583.8" r="1.4"/>
		<circle fill="#FFA29E" cx="870" cy="573" r="1.4"/>
		<circle fill="#FFA29E" cx="855.8" cy="570.6" r="1.4"/>
		<circle fill="#FFA29E" cx="851.2" cy="592.8" r="1.4"/>
		<circle fill="#D45750" cx="863.1" cy="572.1" r="1.4"/>
		<circle fill="#FFA29E" cx="864.2" cy="597.3" r="1.4"/>
		<circle fill="#D45750" cx="857.3" cy="597.2" r="1.4"/>
		<circle fill="#FFA29E" cx="874.6" cy="586.2" r="1.4"/>
	</g>
	<path fill="#FFDE57" d="M1603.1,629c-1.8-2.9-4.1-5.5-5.6-8.6c-1.3-2.7-1.8-5.6-2.3-8.5c-1.1-6.7-1.7-13.5-1.8-20.3
		c-3.5,4.7-5.7,9.9-6.5,14.1c-1.5-4.2-2.4-6-4-9.7c-2.1-4.9-1.8-10.3-2.5-15.5c-1.3-9.5-6.5-19.1-15.7-23.2
		c3.9,3.8,5.5,9.3,5.9,14.5c0.4,5.3-0.4,10.6-0.3,15.9c0.2,11,3.8,21.8,9.3,31.6c-6.7-3.3-12.6-8-17.1-13.7
		c4.2,12,12.4,22.7,23.2,30.3c7.9,5.5,16.9,9.7,22,17.9C1607.6,645.2,1608,636.9,1603.1,629z"/>
	<path fill="#FFDE57" d="M1650,615.5c2.8-7.8,2.2-16.3,1.4-24.6c2.2,4,4.4,8,6.7,12c0.5-4.5,1-9,1.5-13.5c0.3-2.6,0.6-5.3,1.4-7.8
		c2.8-8.9,6.4-16.7,16.2-18.4c-2.9,3.9-5.5,6.4-6.6,10.5c-1.2,4.7-0.5,9.7-0.3,14.5s0.5,9.7-0.8,14.4c-2.6,9.1-10.7,15.9-14.7,24.5
		c4.8-1.5,9.4-3.7,13.5-6.4c-6.5,12.4-22.7,17.5-31.3,28.7C1637.3,637.3,1646,626.4,1650,615.5z"/>
	<path fill="#FFDE57" d="M1647.4,574.1c0.3-2,0.1-4.1,0.3-6.1c0.6-5.8,4.2-11.3,9.5-14.3c-3.1,5.7-1.5,12.8-4.2,18.7
		c-1.6,3.7-4.9,7-8.3,9.3C1645.8,579.3,1647,576.8,1647.4,574.1z"/>
	<path fill="#FFDE57" d="M1599.3,525.4c-1.4-4.1-0.8-8.5-0.1-12.8c0.7,3.3,3,5.9,4.6,8.9c1.7,3.2,5.2,6.8,2.5,17.5
		C1604.9,532.7,1600.3,528.3,1599.3,525.4z"/>
	<path fill="#FFDE57" d="M1580.8,546.2c0.6,3.3,1.5,6.6,3.2,9.4c1.2,2.1,2.8,3.9,4,6c3.9,6.7,3.3,14.8,2.6,22.5
		c1.9-5.3,3-10.8,3.2-16.4c0.1-4.2-0.3-8.6-2.5-12.3c-2-3.4-3.8-5.7-5.1-9.4c-0.5-1.5-0.6-3.2-1-4.8c-1-3.7-4.4-6.8-8.4-7.8
		c1.4,0.8,2.3,2.2,2.7,3.6c0.5,1.5,0.5,3,0.7,4.5C1580.3,543.1,1580.5,544.6,1580.8,546.2z"/>
	<path fill="#FFDE57" d="M1678.1,579c0.9-1.4,2.1-2.6,3.3-3.8c1.6-1.5,3.1-3.1,4.7-4.6c-0.5,5-1.7,10.1-5.2,13.9
		c-1.3,1.4-3.1,3.6-4.7,6.7C1675.3,588.4,1676.6,581.6,1678.1,579z"/>
	<path fill="#FFDE57" d="M1675.7,606.5c0.3-1.6,0.3-3.2,0.7-4.8c0.4-1.6,2-5,3.5-5.8c-0.5,2.5-0.7,5.7-0.6,7.6c0,2,0,4.2-1,6
		c-1.1,2.1-5,5.1-7.3,5.9C1672.4,613.1,1675.2,609.3,1675.7,606.5z"/>
	<path fill="#FFDE57" d="M1639.3,529.4c-0.7,2.9-0.4,6-0.4,9s-0.3,6.2-2,8.7c3.3-2.9,5.6-6.9,6.4-11.1c0.2-1,0.3-2,0.2-3
		c-0.1-1.1-0.4-2.1-0.6-3.2c-0.3-1.6-0.5-4.2-0.6-6.7C1640.4,525.5,1639.7,527.8,1639.3,529.4z"/>
	<g>
		<path fill="#FF6861" d="M737.7,371.4c0,0.8-0.6,1.3-1.3,1.3s-1.3-0.5-1.3-1.3V360c0-1,0.4-1.4,1.4-1.4h4.8c1,0,1.3,0.5,1.3,1.2
			c0,0.7-0.4,1.2-1.3,1.2h-3.6v3.2h3.6c1,0,1.3,0.5,1.3,1.2c0,0.7-0.4,1.2-1.3,1.2h-3.6V371.4z"/>
		<path fill="#FF6861" d="M745,364c0-5.1,2.1-5.7,4.2-5.7c2.1,0,4.2,0.6,4.2,5.7v2.9c0,5.2-1.8,5.9-4.2,5.9c-2.4,0-4.2-0.7-4.2-5.9
			V364z M747.7,366.9c0,3.4,0.5,3.9,1.5,3.9c1,0,1.5-0.5,1.5-3.9V364c0-3-0.5-3.6-1.5-3.6c-1,0-1.5,0.7-1.5,3.6V366.9z"/>
		<path fill="#FF6861" d="M756.3,360c0-1,0.4-1.4,1.4-1.4h3.4c2.6,0,3.7,1.9,3.7,6v1.8c0,4.1-1.4,6-3.8,6h-3.2
			c-0.9,0-1.4-0.4-1.4-1.4V360z M758.8,370.4h1.2c1.3,0,2-0.9,2-4.4v-1.1c0-3-0.3-4.2-1.9-4.2h-1.3V370.4z"/>
		<path fill="#FF6861" d="M770.1,370.2h3.9c1,0,1.3,0.5,1.3,1.2c0,0.7-0.4,1.2-1.3,1.2h-5.1c-0.9,0-1.4-0.4-1.4-1.4v-11
			c0-1,0.4-1.4,1.4-1.4h5c1,0,1.3,0.5,1.3,1.2c0,0.7-0.4,1.2-1.3,1.2h-3.8v3.2h3.6c1,0,1.3,0.5,1.3,1.2c0,0.7-0.4,1.2-1.3,1.2h-3.6
			V370.2z"/>
		<path fill="#FF6861" d="M778.1,360c0-1,0.4-1.4,1.4-1.4h3.5c2.3,0,3.1,1.6,3.1,3.5c0,1.8-0.5,2.6-1.7,3.1c1.4,0.5,1.6,1.3,1.6,2.9
			v1.5c0,0.8,0.2,1.5,0.2,2.1c0,0.4-0.4,0.8-1.2,0.8c-1,0-1.5-0.4-1.6-1.3l-0.1-3.5c0-1-0.5-1.4-1.5-1.4h-1.1v4.9
			c0,0.8-0.6,1.3-1.3,1.3s-1.3-0.5-1.3-1.3V360z M780.6,364.5h1c1,0,1.8-0.5,1.8-2c0-1.4-0.4-2-1.6-2h-1.1V364.5z"/>
	</g>
	<g>
		<path fill="#FF6861" d="M1207,359.7c0-0.8,0.6-1.3,1.3-1.3c0.7,0,1.3,0.5,1.3,1.3v5.1h0l3.1-5.6c0.3-0.6,0.7-0.8,1.2-0.8
			c0.7,0,1.3,0.5,1.3,1.1c0,0.3-0.2,0.7-0.3,1l-2.5,4l3,6.2c0.2,0.3,0.3,0.6,0.3,0.9c0,0.6-0.5,1.1-1.4,1.1c-0.8,0-1.1-0.4-1.4-1
			l-2.2-4.6l-1.1,1.6v2.7c0,0.8-0.6,1.3-1.3,1.3c-0.7,0-1.3-0.5-1.3-1.3V359.7z"/>
		<path fill="#FF6861" d="M1217.3,360.6c-0.1-0.3-0.2-0.8-0.2-1c0-0.7,0.5-1.2,1.3-1.2c0.8,0,1.2,0.3,1.3,1.1l2,10.2h0l1.7-10
			c0.1-0.8,0.4-1.4,1.3-1.4c0.8,0,1.3,0.4,1.3,1.2c0,0.3-0.1,0.6-0.1,1l-2.3,10.7c-0.2,1.2-0.8,1.4-2,1.4c-1.3,0-1.7-0.6-1.9-1.5
			L1217.3,360.6z"/>
		<path fill="#FF6861" d="M1235.7,364.1h3.6c1,0,1.3,0.5,1.3,1.2c0,0.7-0.4,1.2-1.3,1.2h-3.6v3.7h3.8c1,0,1.3,0.5,1.3,1.2
			c0,0.7-0.4,1.2-1.3,1.2h-5c-0.9,0-1.4-0.4-1.4-1.4V369h-3.1l-0.6,2.3c-0.2,0.7-0.5,1.4-1.4,1.4c-0.9,0-1.3-0.6-1.3-1.1
			c0-0.2,0.1-0.4,0.1-0.7l3.2-11.2c0.2-0.7,0.6-1,1.4-1h8.1c1,0,1.3,0.5,1.3,1.2c0,0.7-0.4,1.2-1.3,1.2h-3.8V364.1z M1230.6,367h2.6
			v-6.1h-0.9L1230.6,367z"/>
		<path fill="#FF6861" d="M1251.6,371.7c0,0.7-0.3,1.1-1,1.1c-0.7,0-1-0.5-1-1.1v-0.4h0c-0.6,1-1.4,1.5-2.6,1.5
			c-3,0-3.7-2.7-3.7-6.6v-1.4c0-4.7,1.2-6.3,4.4-6.3c2.7,0,3.9,1.7,3.9,3.4c0,0.9-0.4,1.5-1.3,1.5c-0.9,0-1.2-0.5-1.3-1.6
			c-0.1-0.6-0.4-1.2-1.5-1.2c-0.9,0-1.6,0.6-1.6,3.7v1.9c0,3.4,0.3,4.7,1.7,4.7c1.1,0,1.5-1.1,1.5-2.8v-0.8h-1.1c-0.7,0-1-0.5-1-1.1
			c0-0.8,0.4-1.1,1.1-1.1h2.1c0.9,0,1.3,0.4,1.3,1.3V371.7z"/>
	</g>
	<g>
		<path fill="#FF6861" d="M231.4,784.3c0-0.8,0.6-1.3,1.3-1.3s1.3,0.5,1.3,1.3v5.1h0l3.1-5.6c0.3-0.6,0.7-0.8,1.2-0.8
			c0.7,0,1.3,0.5,1.3,1.1c0,0.3-0.2,0.7-0.3,1l-2.5,4l3,6.2c0.2,0.3,0.3,0.6,0.3,0.9c0,0.6-0.5,1.1-1.4,1.1c-0.8,0-1.1-0.4-1.4-1
			l-2.2-4.6l-1.1,1.6v2.7c0,0.8-0.6,1.3-1.3,1.3s-1.3-0.5-1.3-1.3V784.3z"/>
		<path fill="#FF6861" d="M242,788.5c0-5.1,2.1-5.7,4.2-5.7c1.2,0,2.3,0.2,3,1l0.4-0.6c0.2-0.4,0.4-0.6,0.7-0.6
			c0.3,0,0.5,0.2,0.5,0.4c0,0.1-0.1,0.3-0.2,0.6l-0.7,1.2c0.4,0.9,0.6,2.1,0.6,3.7v2.9c0,5.2-1.8,5.9-4.2,5.9c-1.2,0-2.3-0.2-3-1
			l-0.3,0.5c-0.2,0.4-0.5,0.7-0.8,0.7c-0.3,0-0.4-0.2-0.4-0.4c0-0.2,0.1-0.3,0.3-0.7l0.6-1.1c-0.4-0.8-0.6-2.3-0.6-3.9V788.5z
			 M244.7,791.7L244.7,791.7l3-5c-0.2-1.3-0.6-1.8-1.4-1.8c-1,0-1.5,0.7-1.5,3.6V791.7z M247.7,788.4L247.7,788.4l-3,5.1
			c0.2,1.4,0.6,1.8,1.4,1.8c1,0,1.5-0.5,1.5-3.9V788.4z"/>
		<path fill="#FF6861" d="M253.2,784.6c0-1,0.4-1.4,1.4-1.4h3.4c2.6,0,3.7,1.9,3.7,6v1.8c0,4.1-1.4,6-3.8,6h-3.2
			c-0.9,0-1.4-0.4-1.4-1.4V784.6z M255.8,795h1.2c1.3,0,2-0.9,2-4.4v-1.1c0-3-0.3-4.2-1.9-4.2h-1.3V795z"/>
	</g>
	<g>
		<path fill="#FF6861" d="M680.5,784.3c0-0.8,0.6-1.3,1.3-1.3s1.3,0.5,1.3,1.3v5.1h0l3.1-5.6c0.3-0.6,0.7-0.8,1.2-0.8
			c0.7,0,1.3,0.5,1.3,1.1c0,0.3-0.2,0.7-0.3,1l-2.5,4l3,6.2c0.2,0.3,0.3,0.6,0.3,0.9c0,0.6-0.5,1.1-1.4,1.1c-0.8,0-1.1-0.4-1.4-1
			l-2.2-4.6l-1.1,1.6v2.7c0,0.8-0.6,1.3-1.3,1.3s-1.3-0.5-1.3-1.3V784.3z"/>
		<path fill="#FF6861" d="M691.1,788.5c0-5.1,2.1-5.7,4.2-5.7c1.2,0,2.3,0.2,3,1l0.4-0.6c0.2-0.4,0.4-0.6,0.7-0.6s0.5,0.2,0.5,0.4
			c0,0.1-0.1,0.3-0.2,0.6l-0.7,1.2c0.4,0.9,0.6,2.1,0.6,3.7v2.9c0,5.2-1.8,5.9-4.2,5.9c-1.2,0-2.3-0.2-3-1l-0.3,0.5
			c-0.2,0.4-0.5,0.7-0.8,0.7c-0.3,0-0.4-0.2-0.4-0.4c0-0.2,0.1-0.3,0.3-0.7l0.6-1.1c-0.4-0.8-0.6-2.3-0.6-3.9V788.5z M693.8,791.7
			L693.8,791.7l3-5c-0.2-1.3-0.6-1.8-1.4-1.8c-1,0-1.5,0.7-1.5,3.6V791.7z M696.9,788.4L696.9,788.4l-3,5.1c0.2,1.4,0.6,1.8,1.4,1.8
			c1,0,1.5-0.5,1.5-3.9V788.4z"/>
		<path fill="#FF6861" d="M702.4,784.6c0-1,0.4-1.4,1.4-1.4h3.4c2.6,0,3.7,1.9,3.7,6v1.8c0,4.1-1.4,6-3.8,6h-3.2
			c-0.9,0-1.4-0.4-1.4-1.4V784.6z M704.9,795h1.2c1.3,0,2-0.9,2-4.4v-1.1c0-3-0.3-4.2-1.9-4.2h-1.3V795z"/>
	</g>
	<g>
		<path fill="#FF6861" d="M1414.9,795.6c-1.3-1-1.7-2-1.7-3.4c0-2.4,1.9-3.6,4.1-3.6c2.9,0,3.8,2.1,3.8,3.5c0,0.9-0.5,1.3-1.3,1.3
			c-1,0-1.2-0.5-1.3-1.5c-0.1-1-0.7-1.3-1.4-1.3c-0.8,0-1.4,0.5-1.4,1.3c0,0.6,0.1,1.2,1.4,2.1l1.9,1.2c1.4,0.9,2.2,1.9,2.2,3.9
			c0,2.4-1.4,3.9-4.4,3.9c-3.4,0-3.8-3-3.8-3.7c0-0.9,0.2-1.7,1.3-1.7c0.8,0,1.2,0.4,1.3,1.7c0.1,0.9,0.5,1.7,1.5,1.7
			c1,0,1.5-0.7,1.5-1.6c0-0.9-0.4-1.4-1.3-2.1L1414.9,795.6z"/>
		<path fill="#FF6861" d="M1424,790c0-0.8,0.6-1.3,1.3-1.3c0.7,0,1.3,0.5,1.3,1.3v5.1h0l3.1-5.6c0.3-0.6,0.7-0.8,1.2-0.8
			c0.7,0,1.3,0.5,1.3,1.1c0,0.3-0.2,0.7-0.3,1l-2.5,4l3,6.2c0.2,0.3,0.3,0.6,0.3,0.9c0,0.6-0.5,1.1-1.4,1.1c-0.8,0-1.1-0.4-1.4-1
			l-2.2-4.6l-1.1,1.6v2.7c0,0.8-0.6,1.3-1.3,1.3c-0.7,0-1.3-0.5-1.3-1.3V790z"/>
		<path fill="#FF6861" d="M1434.9,790.3c0-1,0.4-1.4,1.4-1.4h3.5c2.3,0,3.1,1.6,3.1,3.5c0,1.8-0.5,2.6-1.7,3.1
			c1.4,0.5,1.6,1.3,1.6,2.9v1.5c0,0.8,0.2,1.5,0.2,2.1c0,0.4-0.4,0.8-1.2,0.8c-1,0-1.5-0.4-1.6-1.3l-0.1-3.5c0-1-0.5-1.4-1.5-1.4
			h-1.1v4.9c0,0.8-0.6,1.3-1.3,1.3c-0.7,0-1.3-0.5-1.3-1.3V790.3z M1437.4,794.7h1c1,0,1.8-0.5,1.8-2c0-1.4-0.4-2-1.6-2h-1.1V794.7z
			"/>
		<path fill="#FF6861" d="M1448,799.3l-0.5,2.5c-0.2,0.9-0.5,1.2-1.3,1.2c-0.8,0-1.2-0.4-1.2-1.1c0-0.2,0.1-0.7,0.2-1.1l2.5-10.3
			c0.3-1.4,0.7-1.8,2.1-1.8c1.3,0,1.8,0.4,2.1,1.8l2.4,10.3c0.1,0.4,0.2,0.8,0.2,1.1c0,0.9-0.6,1.2-1.3,1.2c-0.9,0-1.3-0.4-1.6-1.7
			l-0.4-2H1448z M1450.8,797.2l-1.1-5.7h0l-1.2,5.7H1450.8z"/>
		<path fill="#FF6861" d="M1463.1,800.4c1,0,1.3,0.5,1.3,1.2c0,0.7-0.4,1.1-1.3,1.1h-5c-0.9,0-1.4-0.4-1.4-1.4V790
			c0-0.8,0.6-1.3,1.3-1.3s1.3,0.5,1.3,1.3v10.4H1463.1z"/>
		<path fill="#FF6861" d="M1466.9,790.3c0-1,0.4-1.4,1.4-1.4h3.4c2.6,0,3.7,1.9,3.7,6v1.8c0,4.1-1.4,6-3.8,6h-3.2
			c-0.9,0-1.4-0.4-1.4-1.4V790.3z M1469.4,800.7h1.2c1.3,0,2-0.9,2-4.4v-1.1c0-3-0.3-4.2-1.9-4.2h-1.3V800.7z"/>
	</g>
</g>
</svg>
