<?xml version="1.0" encoding="utf-8"?>
<!-- Generator: Adobe Illustrator 18.0.0, SVG Export Plug-In . SVG Version: 6.00 Build 0)  -->
<!DOCTYPE svg PUBLIC "-//W3C//DTD SVG 1.1//EN" "http://www.w3.org/Graphics/SVG/1.1/DTD/svg11.dtd">
<svg version="1.1" xmlns="http://www.w3.org/2000/svg" xmlns:xlink="http://www.w3.org/1999/xlink" x="0px" y="0px"
	 viewBox="0 0 200 200" enable-background="new 0 0 200 200" xml:space="preserve">
<g id="Lag_2">
</g>
<g id="Lag_1">
	<path fill="#253A44" d="M190,101.2c0.6-49.7-39.1-90.5-88.8-91.2C51.5,9.4,10.7,49.1,10,98.8c-0.6,49.7,39.1,90.5,88.8,91.2
		C148.5,190.6,189.4,150.9,190,101.2z"/>
	<g>
		<g>
			<g>
				<path fill="#967553" d="M100,105.7h35.7c1.2,0,2.3,0.7,2.7,1.8l11.6,28.8h-50H50l11.6-28.8c0.4-1.1,1.5-1.8,2.7-1.8H100z"/>
				<polygon fill="#967553" points="100,132.5 143.5,132.5 134.2,109.6 100,109.6 65.8,109.6 56.5,132.5 				"/>
			</g>
			<g>
				<path fill="#C4B4A4" d="M100,105.7h35.7c1.2,0,2.3,0.7,2.7,1.8l11.6,28.8h-50H50l11.6-28.8c0.4-1.1,1.5-1.8,2.7-1.8H100z"/>
				<polygon fill="#361919" points="100,132.5 143.5,132.5 134.2,109.6 100,109.6 65.8,109.6 56.5,132.5 				"/>
			</g>
		</g>
		<path fill="#85796E" d="M150,136.4c0,6.4-0.8,16.9-31.8,16.9c-13.1,0-18.2,0-18.2,0s-5,0-18.2,0c-31,0-31.8-10.4-31.8-16.9"/>
		<path fill="#FFF396" d="M134.3,132.5H65.7c6.5-9.9,20.2-16.9,34.3-16.9C114,115.7,127.8,122.7,134.3,132.5z"/>
		<g>
			<g>
				<g>
					<defs>
						<path id="XMLID_1_" d="M100,48.1c2.7,0,4.2-1.9,6.6-1.3c3.4,0.9,5.2,6.3,8.1,6.3s4.4,1.3,5.5,3.8c3.6-3.4,15.8-6.1,23.3,0.4
							c-5.8,7.3-13.9,9.7-21.1,8.3c-2.9,4.4-6.6,8.3-6.8,14.5c-0.2,6.2,0.8,11-1.2,16s-4.6,13.7-3.9,16.6c0.8,2.9,3,12.8-10.7,12.8
							s-11.5-9.9-10.7-12.8c0.8-2.9-1.9-11.6-3.9-16.6s-1-9.9-1.2-16c-0.2-6.2-3.9-10-6.8-14.5c-7.1,1.4-15.3-1-21.1-8.3
							c7.5-6.6,19.7-3.8,23.3-0.4c1-2.5,2.6-3.8,5.5-3.8s4.7-5.4,8.1-6.3C95.8,46.2,97.3,48.1,100,48.1z"/>
					</defs>
					<use xlink:href="#XMLID_1_"  overflow="visible" fill="#B38254"/>
					<clipPath id="XMLID_3_">
						<use xlink:href="#XMLID_1_"  overflow="visible"/>
					</clipPath>
					<path clip-path="url(#XMLID_3_)" fill="#BF9873" d="M87.8,58.7c0.6,1.8,1.5,3.6,2.2,5.1c2,4,3.1,8.5,4,12.9
						c1,4.6,2.3,8.8,2.4,13.7c0,4.2-0.1,8.4-1.2,12.4s-3,7.9-6,10.8c-0.4,0.3-0.8,0.8-0.6,1.3c0.1,0.4,0.5,0.5,0.9,0.7
						c1.8,0.6,3.6,1.2,5.5,1.4c2.8,0.2,5.5-0.6,8.2-1c2.7-0.4,5.7-0.4,8,1.1c1.3-2.6-1-5.4-2.2-8c-0.5-1.2-0.8-2.6-1.1-3.9
						c-1.1-5-2.6-10-4.3-14.8c-0.6-1.6-1.2-3.3-1.3-5c-0.2-2.5,0.7-4.9,1.4-7.3c0.7-2.4,0.9-4.6,2.3-6.7c0.7-1.1,1.7-2,2.5-3
						c2.8-3.3,3.7-7.3,5.7-10.9c2.2-3.9,1.5-7.9-2.5-10.4c-2.1-1.3-4.6-1.9-7-2.2c-1.8-0.3-3.7-0.5-5.5-0.5c-2.7-0.1-5.5,0-7.9,1.2
						C85.8,48.2,86.1,53.7,87.8,58.7z"/>
					<path clip-path="url(#XMLID_3_)" fill="#966D47" d="M90.5,113.6c0.8-0.2,1.6-0.3,2.3-0.3c4.3-0.4,8.5-1.3,12.9-0.8
						c1.3,0.1,2.6,0.4,3.7,0.9c1.2,0.6,2.2,1.5,2.6,2.7c1.6,4.1-0.9,8.5-4.7,10.2c-3.5,1.6-7.6,1.2-11.3,0.5c-2-0.4-4-1-5.6-2.1
						c-1.5-1-2.2-3.6-2.9-5.2c-0.3-0.9-0.7-1.8-0.5-2.7c0.2-1.2,1.2-2.1,2.3-2.6C89.6,113.8,90,113.7,90.5,113.6z"/>
				</g>
				<g>
					<path fill="#FFDE57" d="M75.3,71.2c0-0.4-0.3-0.8-0.7-0.9c-1.4-0.3-4.4-1.3-4.4-4.2V64h-3v2.1c0,2.9-3,3.9-4.4,4.2
						c-0.4,0.1-0.7,0.5-0.7,0.9v9.2c0,0.5,0.4,0.9,0.9,0.9h11.4c0.5,0,0.9-0.4,0.9-0.9V71.2z"/>
					<line fill="none" stroke="#361919" stroke-width="1.5455" stroke-miterlimit="10" x1="64.1" y1="74.2" x2="73.3" y2="74.2"/>
					<line fill="none" stroke="#361919" stroke-width="1.5455" stroke-miterlimit="10" x1="64.1" y1="76.9" x2="73.3" y2="76.9"/>
				</g>
				<g>
					<path fill="#FFDE57" d="M124.7,71.2c0-0.4,0.3-0.8,0.7-0.9c1.4-0.3,4.4-1.3,4.4-4.2V64h3v2.1c0,2.9,3,3.9,4.4,4.2
						c0.4,0.1,0.7,0.5,0.7,0.9v9.2c0,0.5-0.4,0.9-0.9,0.9h-11.4c-0.5,0-0.9-0.4-0.9-0.9V71.2z"/>
					<line fill="none" stroke="#361919" stroke-width="1.5455" stroke-miterlimit="10" x1="135.9" y1="74.2" x2="126.7" y2="74.2"/>
					<line fill="none" stroke="#361919" stroke-width="1.5455" stroke-miterlimit="10" x1="135.9" y1="76.9" x2="126.7" y2="76.9"/>
				</g>
			</g>
			<g>
				<circle fill="#FFFFFF" cx="86" cy="76.7" r="4"/>
				<circle fill="#361919" cx="86" cy="76.7" r="2.7"/>
			</g>
			<g>
				<circle fill="#FFFFFF" cx="114.1" cy="76.7" r="4"/>
				<circle fill="#361919" cx="114.1" cy="76.7" r="2.7"/>
			</g>
			
				<ellipse transform="matrix(0.8415 0.5402 -0.5402 0.8415 77.8143 -31.5608)" fill="#61462E" cx="92.7" cy="116.8" rx="2.8" ry="1.3"/>
			
				<ellipse transform="matrix(-0.8415 0.5402 -0.5402 -0.8415 260.7209 157.1965)" fill="#61462E" cx="107.3" cy="116.8" rx="2.8" ry="1.3"/>
		</g>
	</g>
</g>
</svg>
