<?xml version="1.0" encoding="utf-8"?>
<!-- Generator: Adobe Illustrator 18.0.0, SVG Export Plug-In . SVG Version: 6.00 Build 0)  -->
<!DOCTYPE svg PUBLIC "-//W3C//DTD SVG 1.1//EN" "http://www.w3.org/Graphics/SVG/1.1/DTD/svg11.dtd">
<svg version="1.1" xmlns="http://www.w3.org/2000/svg" xmlns:xlink="http://www.w3.org/1999/xlink" x="0px" y="0px"
	 viewBox="0 0 200 200" enable-background="new 0 0 200 200" xml:space="preserve">
<g id="Lag_2">
	<path fill="#253A44" d="M190,101.2c0.6-49.7-39.1-90.5-88.8-91.2C51.5,9.4,10.7,49.1,10,98.8c-0.6,49.7,39.1,90.5,88.8,91.2
		C148.5,190.6,189.4,150.9,190,101.2z"/>
	<path fill="#172B33" d="M17.8,136.6c13.9,31.1,44.8,52.9,81,53.4c37.1,0.5,69.2-21.5,83.4-53.4H17.8z"/>
</g>
<g id="Lag_1">
	<g>
		<g>
			<polygon fill="#FFFFFF" points="125.8,56.9 126.1,56.3 100.1,43.9 99.8,44.5 			"/>
			<polygon fill="#FFFFFF" points="74.4,56.9 74.1,56.3 100.1,43.9 100.4,44.5 			"/>
			<g>
				<path fill="#F1F9FB" d="M126.3,74.8c0,0.3-0.2,0.5-0.5,0.5H74.4c-0.3,0-0.5-0.2-0.5-0.5V56.6c0-0.3,0.2-0.5,0.5-0.5h51.4
					c0.3,0,0.5,0.2,0.5,0.5V74.8z"/>
				<g>
					<g>
						<path fill="#D2EEF2" d="M76.8,57.5h-1c-0.2,0-0.4,0.2-0.4,0.4v14.3c0,0.2,0.2,0.4,0.4,0.4h1c0.2,0,0.4-0.2,0.4-0.4V57.9
							C77.2,57.7,77,57.5,76.8,57.5z"/>
						<path fill="#C1E7ED" d="M76.8,57.5h-1c-0.2,0-0.4,0.2-0.4,0.4v14.3c0,0.2,0.1,0.3,0.2,0.4c0-0.1,0-0.1,0-0.2V58.1
							c0-0.2,0.2-0.4,0.4-0.4h1c0.1,0,0.1,0,0.2,0C77.1,57.6,76.9,57.5,76.8,57.5z"/>
					</g>
					<g>
						<path fill="#D2EEF2" d="M80,57.5h-1c-0.2,0-0.4,0.2-0.4,0.4v14.3c0,0.2,0.2,0.4,0.4,0.4h1c0.2,0,0.4-0.2,0.4-0.4V57.9
							C80.4,57.7,80.2,57.5,80,57.5z"/>
						<path fill="#C1E7ED" d="M80,57.5h-1c-0.2,0-0.4,0.2-0.4,0.4v14.3c0,0.2,0.1,0.3,0.2,0.4c0-0.1-0.1-0.1-0.1-0.2V58.1
							c0-0.2,0.2-0.4,0.4-0.4h1c0.1,0,0.1,0,0.2,0C80.2,57.6,80.1,57.5,80,57.5z"/>
					</g>
					<g>
						<path fill="#D2EEF2" d="M83.1,57.5h-1c-0.2,0-0.4,0.2-0.4,0.4v14.3c0,0.2,0.2,0.4,0.4,0.4h1c0.2,0,0.4-0.2,0.4-0.4V57.9
							C83.5,57.7,83.4,57.5,83.1,57.5z"/>
						<path fill="#C1E7ED" d="M83.1,57.5h-1c-0.2,0-0.4,0.2-0.4,0.4v14.3c0,0.2,0.1,0.3,0.2,0.4c0-0.1,0-0.1,0-0.2V58.1
							c0-0.2,0.2-0.4,0.4-0.4h1c0.1,0,0.1,0,0.2,0C83.4,57.6,83.3,57.5,83.1,57.5z"/>
					</g>
					<g>
						<path fill="#D2EEF2" d="M86.3,57.5h-1c-0.2,0-0.4,0.2-0.4,0.4v14.3c0,0.2,0.2,0.4,0.4,0.4h1c0.2,0,0.4-0.2,0.4-0.4V57.9
							C86.7,57.7,86.5,57.5,86.3,57.5z"/>
						<path fill="#C1E7ED" d="M86.3,57.5h-1c-0.2,0-0.4,0.2-0.4,0.4v14.3c0,0.2,0.1,0.3,0.2,0.4c0-0.1-0.1-0.1-0.1-0.2V58.1
							c0-0.2,0.2-0.4,0.4-0.4h1c0.1,0,0.1,0,0.2,0C86.6,57.6,86.5,57.5,86.3,57.5z"/>
					</g>
					<g>
						<path fill="#D2EEF2" d="M89.5,57.5h-1c-0.2,0-0.4,0.2-0.4,0.4v14.3c0,0.2,0.2,0.4,0.4,0.4h1c0.2,0,0.4-0.2,0.4-0.4V57.9
							C89.9,57.7,89.7,57.5,89.5,57.5z"/>
						<path fill="#C1E7ED" d="M89.5,57.5h-1c-0.2,0-0.4,0.2-0.4,0.4v14.3c0,0.2,0.1,0.3,0.2,0.4c0-0.1-0.1-0.1-0.1-0.2V58.1
							c0-0.2,0.2-0.4,0.4-0.4h1c0.1,0,0.1,0,0.2,0C89.8,57.6,89.7,57.5,89.5,57.5z"/>
					</g>
					<g>
						<path fill="#D2EEF2" d="M92.7,57.5h-1c-0.2,0-0.4,0.2-0.4,0.4v14.3c0,0.2,0.2,0.4,0.4,0.4h1c0.2,0,0.4-0.2,0.4-0.4V57.9
							C93.1,57.7,92.9,57.5,92.7,57.5z"/>
						<path fill="#C1E7ED" d="M92.7,57.5h-1c-0.2,0-0.4,0.2-0.4,0.4v14.3c0,0.2,0.1,0.3,0.2,0.4c0-0.1-0.1-0.1-0.1-0.2V58.1
							c0-0.2,0.2-0.4,0.4-0.4h1c0.1,0,0.1,0,0.2,0C93,57.6,92.8,57.5,92.7,57.5z"/>
					</g>
					<g>
						<path fill="#D2EEF2" d="M95.9,57.5h-1c-0.2,0-0.4,0.2-0.4,0.4v14.3c0,0.2,0.2,0.4,0.4,0.4h1c0.2,0,0.4-0.2,0.4-0.4V57.9
							C96.3,57.7,96.1,57.5,95.9,57.5z"/>
						<path fill="#C1E7ED" d="M95.9,57.5h-1c-0.2,0-0.4,0.2-0.4,0.4v14.3c0,0.2,0.1,0.3,0.2,0.4c0-0.1,0-0.1,0-0.2V58.1
							c0-0.2,0.2-0.4,0.4-0.4h1c0.1,0,0.1,0,0.2,0C96.1,57.6,96,57.5,95.9,57.5z"/>
					</g>
					<g>
						<path fill="#D2EEF2" d="M99,57.5h-1c-0.2,0-0.4,0.2-0.4,0.4v14.3c0,0.2,0.2,0.4,0.4,0.4h1c0.2,0,0.4-0.2,0.4-0.4V57.9
							C99.4,57.7,99.3,57.5,99,57.5z"/>
						<path fill="#C1E7ED" d="M99,57.5h-1c-0.2,0-0.4,0.2-0.4,0.4v14.3c0,0.2,0.1,0.3,0.2,0.4c0-0.1-0.1-0.1-0.1-0.2V58.1
							c0-0.2,0.2-0.4,0.4-0.4h1c0.1,0,0.1,0,0.2,0C99.3,57.6,99.2,57.5,99,57.5z"/>
					</g>
					<g>
						<path fill="#D2EEF2" d="M102.2,57.5h-1c-0.2,0-0.4,0.2-0.4,0.4v14.3c0,0.2,0.2,0.4,0.4,0.4h1c0.2,0,0.4-0.2,0.4-0.4V57.9
							C102.6,57.7,102.4,57.5,102.2,57.5z"/>
						<path fill="#C1E7ED" d="M102.2,57.5h-1c-0.2,0-0.4,0.2-0.4,0.4v14.3c0,0.2,0.1,0.3,0.2,0.4c0-0.1-0.1-0.1-0.1-0.2V58.1
							c0-0.2,0.2-0.4,0.4-0.4h1c0.1,0,0.1,0,0.2,0C102.5,57.6,102.4,57.5,102.2,57.5z"/>
					</g>
					<g>
						<path fill="#D2EEF2" d="M105.4,57.5h-1c-0.2,0-0.4,0.2-0.4,0.4v14.3c0,0.2,0.2,0.4,0.4,0.4h1c0.2,0,0.4-0.2,0.4-0.4V57.9
							C105.8,57.7,105.6,57.5,105.4,57.5z"/>
						<path fill="#C1E7ED" d="M105.4,57.5h-1c-0.2,0-0.4,0.2-0.4,0.4v14.3c0,0.2,0.1,0.3,0.2,0.4c0-0.1,0-0.1,0-0.2V58.1
							c0-0.2,0.2-0.4,0.4-0.4h1c0.1,0,0.1,0,0.2,0C105.7,57.6,105.6,57.5,105.4,57.5z"/>
					</g>
					<g>
						<path fill="#D2EEF2" d="M108.6,57.5h-1c-0.2,0-0.4,0.2-0.4,0.4v14.3c0,0.2,0.2,0.4,0.4,0.4h1c0.2,0,0.4-0.2,0.4-0.4V57.9
							C109,57.7,108.8,57.5,108.6,57.5z"/>
						<path fill="#C1E7ED" d="M108.6,57.5h-1c-0.2,0-0.4,0.2-0.4,0.4v14.3c0,0.2,0.1,0.3,0.2,0.4c0-0.1,0-0.1,0-0.2V58.1
							c0-0.2,0.2-0.4,0.4-0.4h1c0.1,0,0.1,0,0.2,0C108.9,57.6,108.7,57.5,108.6,57.5z"/>
					</g>
					<g>
						<path fill="#D2EEF2" d="M111.8,57.5h-1c-0.2,0-0.4,0.2-0.4,0.4v14.3c0,0.2,0.2,0.4,0.4,0.4h1c0.2,0,0.4-0.2,0.4-0.4V57.9
							C112.2,57.7,112,57.5,111.8,57.5z"/>
						<path fill="#C1E7ED" d="M111.8,57.5h-1c-0.2,0-0.4,0.2-0.4,0.4v14.3c0,0.2,0.1,0.3,0.2,0.4c0-0.1-0.1-0.1-0.1-0.2V58.1
							c0-0.2,0.2-0.4,0.4-0.4h1c0.1,0,0.1,0,0.2,0C112.1,57.6,111.9,57.5,111.8,57.5z"/>
					</g>
					<g>
						<path fill="#D2EEF2" d="M115,57.5h-1c-0.2,0-0.4,0.2-0.4,0.4v14.3c0,0.2,0.2,0.4,0.4,0.4h1c0.2,0,0.4-0.2,0.4-0.4V57.9
							C115.4,57.7,115.2,57.5,115,57.5z"/>
						<path fill="#C1E7ED" d="M115,57.5h-1c-0.2,0-0.4,0.2-0.4,0.4v14.3c0,0.2,0.1,0.3,0.2,0.4c0-0.1-0.1-0.1-0.1-0.2V58.1
							c0-0.2,0.2-0.4,0.4-0.4h1c0.1,0,0.1,0,0.2,0C115.2,57.6,115.1,57.5,115,57.5z"/>
					</g>
					<g>
						<path fill="#D2EEF2" d="M118.1,57.5h-1c-0.2,0-0.4,0.2-0.4,0.4v14.3c0,0.2,0.2,0.4,0.4,0.4h1c0.2,0,0.4-0.2,0.4-0.4V57.9
							C118.5,57.7,118.4,57.5,118.1,57.5z"/>
						<path fill="#C1E7ED" d="M118.1,57.5h-1c-0.2,0-0.4,0.2-0.4,0.4v14.3c0,0.2,0.1,0.3,0.2,0.4c0-0.1,0-0.1,0-0.2V58.1
							c0-0.2,0.2-0.4,0.4-0.4h1c0.1,0,0.1,0,0.2,0C118.4,57.6,118.3,57.5,118.1,57.5z"/>
					</g>
					<g>
						<path fill="#D2EEF2" d="M121.3,57.5h-1c-0.2,0-0.4,0.2-0.4,0.4v14.3c0,0.2,0.2,0.4,0.4,0.4h1c0.2,0,0.4-0.2,0.4-0.4V57.9
							C121.7,57.7,121.5,57.5,121.3,57.5z"/>
						<path fill="#C1E7ED" d="M121.3,57.5h-1c-0.2,0-0.4,0.2-0.4,0.4v14.3c0,0.2,0.1,0.3,0.2,0.4c0-0.1-0.1-0.1-0.1-0.2V58.1
							c0-0.2,0.2-0.4,0.4-0.4h1c0.1,0,0.1,0,0.2,0C121.6,57.6,121.5,57.5,121.3,57.5z"/>
					</g>
					<g>
						<path fill="#D2EEF2" d="M124.5,57.5h-1c-0.2,0-0.4,0.2-0.4,0.4v14.3c0,0.2,0.2,0.4,0.4,0.4h1c0.2,0,0.4-0.2,0.4-0.4V57.9
							C124.9,57.7,124.7,57.5,124.5,57.5z"/>
						<path fill="#C1E7ED" d="M124.5,57.5h-1c-0.2,0-0.4,0.2-0.4,0.4v14.3c0,0.2,0.1,0.3,0.2,0.4c0-0.1-0.1-0.1-0.1-0.2V58.1
							c0-0.2,0.2-0.4,0.4-0.4h1c0.1,0,0.1,0,0.2,0C124.8,57.6,124.7,57.5,124.5,57.5z"/>
					</g>
				</g>
				<g>
					<g>
						<g>
							<path fill="#91D4DF" d="M75.8,74.3c0,0.1-0.1,0.3-0.3,0.3h-0.5c-0.1,0-0.3-0.1-0.3-0.3V74c0-0.1,0.1-0.3,0.3-0.3h0.5
								c0.2,0,0.3,0.1,0.3,0.3V74.3z"/>
						</g>
						<g>
							<path fill="#91D4DF" d="M125.4,74.3c0,0.1-0.1,0.3-0.3,0.3h-0.5c-0.2,0-0.3-0.1-0.3-0.3V74c0-0.1,0.1-0.3,0.3-0.3h0.5
								c0.2,0,0.3,0.1,0.3,0.3V74.3z"/>
						</g>
					</g>
					<g>
						<g>
							<path fill="#91D4DF" d="M92.4,74.3c0,0.1-0.1,0.3-0.3,0.3h-2.6c-0.2,0-0.3-0.1-0.3-0.3V74c0-0.1,0.1-0.3,0.3-0.3h2.6
								c0.1,0,0.3,0.1,0.3,0.3V74.3z"/>
						</g>
						<g>
							<path fill="#91D4DF" d="M111,74.3c0,0.1-0.1,0.3-0.3,0.3h-2.6c-0.1,0-0.3-0.1-0.3-0.3V74c0-0.1,0.1-0.3,0.3-0.3h2.6
								c0.1,0,0.3,0.1,0.3,0.3V74.3z"/>
						</g>
					</g>
				</g>
			</g>
		</g>
		<g>
			<rect x="100.1" y="4" fill="#FFFFFF" width="0.7" height="34.6"/>
			<g>
				<path fill="#FFFFFF" d="M97.5,40.8c0.4,0,0.5,0.3,0.3,0.8c0,0.2-0.1,0.2,0,0.3c0,0,0,0.1,0,0.1c0,1,0.8,1.8,1.8,1.8
					c1,0,1.8-0.8,1.8-1.8c0-0.8-0.5-1.5-1.3-1.7v-2c0.1,0,0.2,0,0.3,0c2.1,0,3.7,1.7,3.7,3.7c0,2.1-1.7,3.7-3.7,3.7
					c-1.9,0-3.5-1.4-3.7-3.3C96.6,41.5,97.1,40.9,97.5,40.8z"/>
				<path fill="#FFFFFF" d="M101.2,35.1h-1.8c0,0,0,3.4,0,3.9c0,0.7,0.2,1.2,0.7,1.4c0.5,0.2,1.1,0,1.1,0V35.1z"/>
				<path fill="#FFFFFF" d="M101.9,38.7c-0.6-0.3-0.7-0.4-0.7-0.9c0-0.5-0.5-0.1-0.5-0.1c0,0,0.2,1.1,0.2,1.1l1,0.3
					c0,0,0.7,0.1,0.5,0C102.2,39,101.9,38.7,101.9,38.7z"/>
			</g>
		</g>
	</g>
	<g>
		<path fill="#CF654B" d="M126.2,96c0,0.3-0.2,0.5-0.5,0.5H74.3c-0.3,0-0.5-0.2-0.5-0.5V77.8c0-0.3,0.2-0.5,0.5-0.5h51.4
			c0.3,0,0.5,0.2,0.5,0.5V96z"/>
		<g>
			<g>
				<path fill="#CC593C" d="M76.7,78.7h-1c-0.2,0-0.4,0.2-0.4,0.4v14.3c0,0.2,0.2,0.4,0.4,0.4h1c0.2,0,0.4-0.2,0.4-0.4V79.1
					C77.1,78.8,76.9,78.7,76.7,78.7z"/>
				<path fill="#C95032" d="M76.7,78.7h-1c-0.2,0-0.4,0.2-0.4,0.4v14.3c0,0.2,0.1,0.3,0.2,0.4c0-0.1,0-0.1,0-0.2V79.2
					c0-0.2,0.2-0.4,0.4-0.4h1c0.1,0,0.1,0,0.2,0.1C76.9,78.7,76.8,78.7,76.7,78.7z"/>
			</g>
			<g>
				<path fill="#CC593C" d="M79.8,78.7h-1c-0.2,0-0.4,0.2-0.4,0.4v14.3c0,0.2,0.2,0.4,0.4,0.4h1c0.2,0,0.4-0.2,0.4-0.4V79.1
					C80.2,78.8,80.1,78.7,79.8,78.7z"/>
				<path fill="#C95032" d="M79.8,78.7h-1c-0.2,0-0.4,0.2-0.4,0.4v14.3c0,0.2,0.1,0.3,0.2,0.4c0-0.1-0.1-0.1-0.1-0.2V79.2
					c0-0.2,0.2-0.4,0.4-0.4h1c0.1,0,0.1,0,0.2,0.1C80.1,78.7,80,78.7,79.8,78.7z"/>
			</g>
			<g>
				<path fill="#CC593C" d="M83,78.7h-1c-0.2,0-0.4,0.2-0.4,0.4v14.3c0,0.2,0.2,0.4,0.4,0.4h1c0.2,0,0.4-0.2,0.4-0.4V79.1
					C83.4,78.8,83.2,78.7,83,78.7z"/>
				<path fill="#C95032" d="M83,78.7h-1c-0.2,0-0.4,0.2-0.4,0.4v14.3c0,0.2,0.1,0.3,0.2,0.4c0-0.1,0-0.1,0-0.2V79.2
					c0-0.2,0.2-0.4,0.4-0.4h1c0.1,0,0.1,0,0.2,0.1C83.3,78.7,83.2,78.7,83,78.7z"/>
			</g>
			<g>
				<path fill="#CC593C" d="M86.2,78.7h-1c-0.2,0-0.4,0.2-0.4,0.4v14.3c0,0.2,0.2,0.4,0.4,0.4h1c0.2,0,0.4-0.2,0.4-0.4V79.1
					C86.6,78.8,86.4,78.7,86.2,78.7z"/>
				<path fill="#C95032" d="M86.2,78.7h-1c-0.2,0-0.4,0.2-0.4,0.4v14.3c0,0.2,0.1,0.3,0.2,0.4c0-0.1,0-0.1,0-0.2V79.2
					c0-0.2,0.2-0.4,0.4-0.4h1c0.1,0,0.1,0,0.2,0.1C86.5,78.7,86.4,78.7,86.2,78.7z"/>
			</g>
			<g>
				<path fill="#D2EEF2" d="M89.4,78.7h-1c-0.2,0-0.4,0.2-0.4,0.4v14.3c0,0.2,0.2,0.4,0.4,0.4h1c0.2,0,0.4-0.2,0.4-0.4V79.1
					C89.8,78.8,89.6,78.7,89.4,78.7z"/>
				<path fill="#C95032" d="M89.4,78.7h-1c-0.2,0-0.4,0.2-0.4,0.4v14.3c0,0.2,0.1,0.3,0.2,0.4c0-0.1,0-0.1,0-0.2V79.2
					c0-0.2,0.2-0.4,0.4-0.4h1c0.1,0,0.1,0,0.2,0.1C89.7,78.7,89.5,78.7,89.4,78.7z"/>
			</g>
			<g>
				<path fill="#D2EEF2" d="M92.6,78.7h-1c-0.2,0-0.4,0.2-0.4,0.4v14.3c0,0.2,0.2,0.4,0.4,0.4h1c0.2,0,0.4-0.2,0.4-0.4V79.1
					C93,78.8,92.8,78.7,92.6,78.7z"/>
				<path fill="#C1E7ED" d="M92.6,78.7h-1c-0.2,0-0.4,0.2-0.4,0.4v14.3c0,0.2,0.1,0.3,0.2,0.4c0-0.1-0.1-0.1-0.1-0.2V79.2
					c0-0.2,0.2-0.4,0.4-0.4h1c0.1,0,0.1,0,0.2,0.1C92.8,78.7,92.7,78.7,92.6,78.7z"/>
			</g>
			<g>
				<path fill="#D2EEF2" d="M95.7,78.7h-1c-0.2,0-0.4,0.2-0.4,0.4v14.3c0,0.2,0.2,0.4,0.4,0.4h1c0.2,0,0.4-0.2,0.4-0.4V79.1
					C96.1,78.8,96,78.7,95.7,78.7z"/>
				<path fill="#C1E7ED" d="M95.7,78.7h-1c-0.2,0-0.4,0.2-0.4,0.4v14.3c0,0.2,0.1,0.3,0.2,0.4c0-0.1,0-0.1,0-0.2V79.2
					c0-0.2,0.2-0.4,0.4-0.4h1c0.1,0,0.1,0,0.2,0.1C96,78.7,95.9,78.7,95.7,78.7z"/>
			</g>
			<g>
				<path fill="#D2EEF2" d="M98.9,78.7h-1c-0.2,0-0.4,0.2-0.4,0.4v14.3c0,0.2,0.2,0.4,0.4,0.4h1c0.2,0,0.4-0.2,0.4-0.4V79.1
					C99.3,78.8,99.2,78.7,98.9,78.7z"/>
				<path fill="#C1E7ED" d="M98.9,78.7h-1c-0.2,0-0.4,0.2-0.4,0.4v14.3c0,0.2,0.1,0.3,0.2,0.4c0-0.1,0-0.1,0-0.2V79.2
					c0-0.2,0.2-0.4,0.4-0.4h1c0.1,0,0.1,0,0.2,0.1C99.2,78.7,99.1,78.7,98.9,78.7z"/>
			</g>
			<g>
				<path fill="#D2EEF2" d="M102.1,78.7h-1c-0.2,0-0.4,0.2-0.4,0.4v14.3c0,0.2,0.2,0.4,0.4,0.4h1c0.2,0,0.4-0.2,0.4-0.4V79.1
					C102.5,78.8,102.3,78.7,102.1,78.7z"/>
				<path fill="#C1E7ED" d="M102.1,78.7h-1c-0.2,0-0.4,0.2-0.4,0.4v14.3c0,0.2,0.1,0.3,0.2,0.4c0-0.1-0.1-0.1-0.1-0.2V79.2
					c0-0.2,0.2-0.4,0.4-0.4h1c0.1,0,0.1,0,0.2,0.1C102.4,78.7,102.3,78.7,102.1,78.7z"/>
			</g>
			<g>
				<path fill="#D2EEF2" d="M105.3,78.7h-1c-0.2,0-0.4,0.2-0.4,0.4v14.3c0,0.2,0.2,0.4,0.4,0.4h1c0.2,0,0.4-0.2,0.4-0.4V79.1
					C105.7,78.8,105.5,78.7,105.3,78.7z"/>
				<path fill="#C1E7ED" d="M105.3,78.7h-1c-0.2,0-0.4,0.2-0.4,0.4v14.3c0,0.2,0.1,0.3,0.2,0.4c0-0.1-0.1-0.1-0.1-0.2V79.2
					c0-0.2,0.2-0.4,0.4-0.4h1c0.1,0,0.1,0,0.2,0.1C105.6,78.7,105.4,78.7,105.3,78.7z"/>
			</g>
			<g>
				<path fill="#D2EEF2" d="M108.5,78.7h-1c-0.2,0-0.4,0.2-0.4,0.4v14.3c0,0.2,0.2,0.4,0.4,0.4h1c0.2,0,0.4-0.2,0.4-0.4V79.1
					C108.9,78.8,108.7,78.7,108.5,78.7z"/>
				<path fill="#C1E7ED" d="M108.5,78.7h-1c-0.2,0-0.4,0.2-0.4,0.4v14.3c0,0.2,0.1,0.3,0.2,0.4c0-0.1,0-0.1,0-0.2V79.2
					c0-0.2,0.2-0.4,0.4-0.4h1c0.1,0,0.1,0,0.2,0.1C108.8,78.7,108.6,78.7,108.5,78.7z"/>
			</g>
			<g>
				<path fill="#D2EEF2" d="M111.7,78.7h-1c-0.2,0-0.4,0.2-0.4,0.4v14.3c0,0.2,0.2,0.4,0.4,0.4h1c0.2,0,0.4-0.2,0.4-0.4V79.1
					C112.1,78.8,111.9,78.7,111.7,78.7z"/>
				<path fill="#C95032" d="M111.7,78.7h-1c-0.2,0-0.4,0.2-0.4,0.4v14.3c0,0.2,0.1,0.3,0.2,0.4c0-0.1-0.1-0.1-0.1-0.2V79.2
					c0-0.2,0.2-0.4,0.4-0.4h1c0.1,0,0.1,0,0.2,0.1C111.9,78.7,111.8,78.7,111.7,78.7z"/>
			</g>
			<g>
				<path fill="#CC593C" d="M114.8,78.7h-1c-0.2,0-0.4,0.2-0.4,0.4v14.3c0,0.2,0.2,0.4,0.4,0.4h1c0.2,0,0.4-0.2,0.4-0.4V79.1
					C115.2,78.8,115.1,78.7,114.8,78.7z"/>
				<path fill="#C95032" d="M114.8,78.7h-1c-0.2,0-0.4,0.2-0.4,0.4v14.3c0,0.2,0.1,0.3,0.2,0.4c0-0.1-0.1-0.1-0.1-0.2V79.2
					c0-0.2,0.2-0.4,0.4-0.4h1c0.1,0,0.1,0,0.2,0.1C115.1,78.7,115,78.7,114.8,78.7z"/>
			</g>
			<g>
				<path fill="#CC593C" d="M118,78.7h-1c-0.2,0-0.4,0.2-0.4,0.4v14.3c0,0.2,0.2,0.4,0.4,0.4h1c0.2,0,0.4-0.2,0.4-0.4V79.1
					C118.4,78.8,118.2,78.7,118,78.7z"/>
				<path fill="#C95032" d="M118,78.7h-1c-0.2,0-0.4,0.2-0.4,0.4v14.3c0,0.2,0.1,0.3,0.2,0.4c0-0.1,0-0.1,0-0.2V79.2
					c0-0.2,0.2-0.4,0.4-0.4h1c0.1,0,0.1,0,0.2,0.1C118.3,78.7,118.2,78.7,118,78.7z"/>
			</g>
			<g>
				<path fill="#CC593C" d="M121.2,78.7h-1c-0.2,0-0.4,0.2-0.4,0.4v14.3c0,0.2,0.2,0.4,0.4,0.4h1c0.2,0,0.4-0.2,0.4-0.4V79.1
					C121.6,78.8,121.4,78.7,121.2,78.7z"/>
				<path fill="#C95032" d="M121.2,78.7h-1c-0.2,0-0.4,0.2-0.4,0.4v14.3c0,0.2,0.1,0.3,0.2,0.4c0-0.1-0.1-0.1-0.1-0.2V79.2
					c0-0.2,0.2-0.4,0.4-0.4h1c0.1,0,0.1,0,0.2,0.1C121.5,78.7,121.4,78.7,121.2,78.7z"/>
			</g>
			<g>
				<path fill="#CC593C" d="M124.4,78.7h-1c-0.2,0-0.4,0.2-0.4,0.4v14.3c0,0.2,0.2,0.4,0.4,0.4h1c0.2,0,0.4-0.2,0.4-0.4V79.1
					C124.8,78.8,124.6,78.7,124.4,78.7z"/>
				<path fill="#C95032" d="M124.4,78.7h-1c-0.2,0-0.4,0.2-0.4,0.4v14.3c0,0.2,0.1,0.3,0.2,0.4c0-0.1,0-0.1,0-0.2V79.2
					c0-0.2,0.2-0.4,0.4-0.4h1c0.1,0,0.1,0,0.2,0.1C124.7,78.7,124.5,78.7,124.4,78.7z"/>
			</g>
		</g>
		<g>
			<g>
				<g>
					<path fill="#91D4DF" d="M75.7,95.5c0,0.2-0.1,0.3-0.3,0.3H75c-0.1,0-0.3-0.1-0.3-0.3v-0.3c0-0.1,0.1-0.3,0.3-0.3h0.5
						c0.1,0,0.3,0.1,0.3,0.3V95.5z"/>
				</g>
				<g>
					<path fill="#91D4DF" d="M125.3,95.5c0,0.2-0.1,0.3-0.3,0.3h-0.5c-0.1,0-0.3-0.1-0.3-0.3v-0.3c0-0.1,0.1-0.3,0.3-0.3h0.5
						c0.2,0,0.3,0.1,0.3,0.3V95.5z"/>
				</g>
			</g>
			<g>
				<g>
					<path fill="#91D4DF" d="M92.3,95.5c0,0.2-0.1,0.3-0.3,0.3h-2.6c-0.1,0-0.3-0.1-0.3-0.3v-0.3c0-0.1,0.1-0.3,0.3-0.3H92
						c0.1,0,0.3,0.1,0.3,0.3V95.5z"/>
				</g>
				<g>
					<path fill="#91D4DF" d="M110.9,95.5c0,0.2-0.1,0.3-0.3,0.3H108c-0.1,0-0.3-0.1-0.3-0.3v-0.3c0-0.1,0.1-0.3,0.3-0.3h2.6
						c0.1,0,0.3,0.1,0.3,0.3V95.5z"/>
				</g>
			</g>
		</g>
	</g>
	<g>
		<path fill="#005760" d="M100,71.4c-1.7,0-6.9,2.8-11.5,7.1C84,82.7,73.9,93.2,73,94.7c-0.9,1.5-2,3.6-1.4,6.8
			c0.6,3.1,1.9,7.1,3.8,9.7c1.9,2.6,3.1,4.6,4.8,7.7L100,84.9V71.4z"/>
		<path fill="#005760" d="M81.6,136.7c0,0,0-10.6,0-12.9c0-2.3-2.6-7.3-3.6-10.2c-1.1-2.9-2-6.1,0.1-9.1
			c2.1-2.9,10.4-15.3,13.6-19.5c3.9-5,7.5-5.5,8.3-5.5c0,3,0,57.2,0,57.2H81.6z"/>
		<path fill="#AD3A2B" d="M100,129.5v-0.2c-4.6,3.3-15.3,3.7-18.5,3.7c0,1.1,0,3.6,0,3.6H100C100,136.7,100,132.7,100,129.5z"/>
		<path fill="#4DBACC" d="M100,71.4c1.7,0,6.9,2.8,11.5,7.1c4.5,4.3,14.6,14.7,15.5,16.2c0.9,1.5,2,3.6,1.4,6.8
			c-0.6,3.1-1.9,7.1-3.8,9.7c-1.9,2.6-3.1,4.6-4.8,7.7L100,84.9V71.4z"/>
		<linearGradient id="SVGID_1_" gradientUnits="userSpaceOnUse" x1="71.4186" y1="85.8674" x2="99.9961" y2="85.8674">
			<stop  offset="6.218900e-04" style="stop-color:#4DBACC"/>
			<stop  offset="1" style="stop-color:#D0D2D3"/>
		</linearGradient>
		<path fill="url(#SVGID_1_)" d="M88.5,78.5C84,82.7,73.9,93.2,73,94.7c-0.8,1.3-1.7,3.2-1.6,5.7c0.1-1.9,0.9-3.3,1.6-4.4
			c0.9-1.5,11-11.9,15.5-16.2c4.5-4.3,9.8-7.1,11.5-7.1v-1.3C98.3,71.4,93.1,74.2,88.5,78.5z"/>
		<path fill="#EBECEC" d="M127,95.9c0.7,1.1,1.4,2.5,1.6,4.4c0.2-2.6-0.7-4.4-1.6-5.7c-0.9-1.5-11-11.9-15.5-16.2
			c-4.5-4.3-9.8-7.1-11.5-7.1v1.3c1.7,0,6.9,2.8,11.5,7.1C116,84,126.1,94.4,127,95.9z"/>
		<path fill="#4DBACC" d="M118.4,136.7c0,0,0-10.6,0-12.9c0-2.3,2.6-7.3,3.6-10.2c1.1-2.9,2-6.1-0.1-9.1
			c-2.1-2.9-10.4-15.3-13.6-19.5c-3.9-5-7.5-5.5-8.3-5.5c0,3,0,57.2,0,57.2H118.4z"/>
		<path fill="#CF654B" d="M100,129.5v-0.2c4.6,3.3,15.3,3.7,18.5,3.7c0,1.1,0,3.6,0,3.6H100C100,136.7,100.1,132.7,100,129.5z"/>
		<path fill="#AD3A2B" d="M81.6,136.7c0,4.1,11,16.1,18.5,16.1v-16.1H81.6z"/>
		<path fill="#CF654B" d="M118.5,136.7c0,4.1-11,16.1-18.4,16.1v-16.1H118.5z"/>
		<path opacity="0.2" fill="#172B33" d="M81.6,136.7c0,4.1,11,16.1,18.5,16.1v-16.1H81.6z"/>
		<path opacity="0.2" fill="#172B33" d="M118.5,136.7c0,4.1-11,16.1-18.4,16.1v-16.1H118.5z"/>
		<g>
			<path fill="#00182B" d="M93.5,87.1c0.2-1.9-0.1-3.4-0.8-3.6c-0.7-0.1-1.4,1.3-1.6,3.2c-0.2,1.9,0.1,3.4,0.8,3.6
				C92.5,90.3,93.2,88.9,93.5,87.1z"/>
			<path fill="#002747" d="M91.4,87.6c0.2-1.9,0.9-3.3,1.6-3.2c0.2,0,0.3,0.1,0.4,0.3c-0.1-0.7-0.4-1.2-0.7-1.2
				c-0.7-0.1-1.4,1.3-1.6,3.2c-0.2,1.4,0,2.6,0.4,3.2C91.3,89.3,91.3,88.4,91.4,87.6z"/>
		</g>
		<g>
			<path fill="#00182B" d="M106.5,87.1c-0.2-1.9,0.1-3.4,0.8-3.6c0.7-0.1,1.4,1.3,1.6,3.2c0.2,1.9-0.1,3.4-0.8,3.6
				C107.5,90.3,106.8,88.9,106.5,87.1z"/>
			<path fill="#003C6E" d="M108.6,87.6c-0.2-1.9-0.9-3.3-1.6-3.2c-0.2,0-0.3,0.1-0.4,0.3c0.1-0.7,0.4-1.2,0.7-1.2
				c0.7-0.1,1.4,1.3,1.6,3.2c0.2,1.4,0,2.6-0.4,3.2C108.7,89.3,108.7,88.4,108.6,87.6z"/>
		</g>
	</g>
</g>
</svg>
