<?xml version="1.0" encoding="utf-8"?>
<!-- Generator: Adobe Illustrator 18.0.0, SVG Export Plug-In . SVG Version: 6.00 Build 0)  -->
<!DOCTYPE svg PUBLIC "-//W3C//DTD SVG 1.1//EN" "http://www.w3.org/Graphics/SVG/1.1/DTD/svg11.dtd">
<svg version="1.1" xmlns="http://www.w3.org/2000/svg" xmlns:xlink="http://www.w3.org/1999/xlink" x="0px" y="0px"
	 viewBox="0 0 200 200" enable-background="new 0 0 200 200" xml:space="preserve">
<g id="Lag_2">
	<path fill="#10E8CE" d="M190,101.2c0.6-49.7-39.1-90.5-88.8-91.2C51.5,9.4,10.7,49.1,10,98.8c-0.6,49.7,39.1,90.5,88.8,91.2
		C148.5,190.6,189.4,150.9,190,101.2z"/>
</g>
<g id="Lag_1">
	<polygon fill="#0EDDBF" points="49.6,89.1 40.8,80.2 63.3,74.7 86.1,97.6 	"/>
	<g>
		<defs>
			<path id="SVGID_1_" d="M190,101.2c0.6-49.7-39.1-90.5-88.8-91.2C51.5,9.4,10.7,49.1,10,98.8c-0.6,49.7,39.1,90.5,88.8,91.2
				C148.5,190.6,189.4,150.9,190,101.2z"/>
		</defs>
		<clipPath id="SVGID_2_">
			<use xlink:href="#SVGID_1_"  overflow="visible"/>
		</clipPath>
		<polygon clip-path="url(#SVGID_2_)" fill="#0EDDBF" points="144,201.7 62.5,120.2 128.5,103.5 158.3,74.9 195.9,112.5 175,182.3 
					"/>
	</g>
	<g>
		<path fill="#F8EF54" d="M66.7,94.9C66.7,94.9,66.7,94.9,66.7,94.9c0.3-0.1,0.7-0.3,1.1-0.6h0c0.8-0.5,1.5-1,2.2-1.5
			c-0.9,0.3-1.8,0.7-2.4,1.3l0,0c-0.1,0.1-0.1,0.1-0.2,0.2c-0.1,0-0.2,0.1-0.2,0.2C67,94.6,66.9,94.7,66.7,94.9z"/>
		<path fill="#FFEB24" d="M71.3,108.7c0,0.1,0.1,0.1,0.2,0.2c0.3,0.3,0.7,0.7,1,1c6.9,6.6,18.7,12.5,33.7,12.1l0,0
			c3.8-0.1,7.7-0.6,11.9-1.5c8.8-2,15.8-5.3,21.3-9l0,0c3.8-2.5,6.8-5.3,9.3-8.1c7.9-8.7,9.9-17.6,10-19.6c0.1-2.1-0.6-5.3-0.6-5.3
			l0.2-2.2c-0.5,0.2-1.1,0.5-1.5,0.4c-0.2,0-0.4-0.1-0.6-0.3c-0.1-0.1-0.3-0.2-0.4-0.3c-0.2-0.2-0.4-0.4-0.5-0.4l0,0
			c-0.5-0.4-0.7-0.8-1.3-1.1c-0.5-0.2-1-0.3-1.4-0.7c-0.1-0.1-0.2-0.2-0.3-0.2l-1.2,0.7c0,0-2.4-0.3-5.3,1.4
			c-3.8,2.2-27.5,34.5-68.9,17.4c-2.1-0.9-4.6-0.9-6.7-0.2c-0.9,0.3-1.8,0.7-2.4,1.3c-0.1,0-0.1,0.1-0.2,0.1c-0.1,0-0.2,0.1-0.2,0.2
			c-0.2,0.1-0.3,0.3-0.4,0.4c-0.1,0-0.1,0.1-0.1,0.1c-0.1,0.1-0.2,0.3-0.3,0.4c-0.1,0-0.1,0.1-0.1,0.1
			C64.7,98.5,66.6,103.7,71.3,108.7z"/>
		<path fill="#604B3B" d="M152.1,73.6c0.1,0.1,0.2,0.2,0.3,0.2c0.4,0.3,0.9,0.4,1.4,0.7c0.6,0.3,0.8,0.7,1.3,1.1
			c0.3,0.3,1.2,1.1,1.6,1.1c0.4,0.1,1-0.2,1.5-0.4l0.1-1.4l-4.3-2.4L152.1,73.6z"/>
		<path fill="#604B3B" d="M148.2,112.6c0.1,0.1,0.1,0.2,0.2,0.3c0.3,0.4,0,1.2,0.4,1.6c0.5,0.5,1.3,0.4,1.6,0.9
			c0.2,0.4,0.7,2.4,1.1,2.7c0.4,0.3,1.4,0,1.8-0.6l0.6-1.1l-3.4-3.9L148.2,112.6z"/>
		<path fill="#FFEB24" d="M39.9,76.9c0.1,1.6,0.8,3.5,1.9,4.1c1.1,0.7,5-0.2,5.2,0.8c0.3,1,1.2,11.1,3.9,15.4
			c-0.1-1.2,0-2.2,0.3-3.1v0c0.2-0.8,0.5-1.5,0.9-2c0.2-0.2,0.3-0.4,0.5-0.5c0.2-0.2,0.4-0.3,0.6-0.4c0.2-0.1,0.3-0.2,0.5-0.2
			c0.4-0.2,0.8-0.3,1.3-0.3c0,0,0.1,0,0.1,0l0,0c2.9-0.4,7,0.9,9.6,3.3l1.5,1.3c0.2-0.1,0.3-0.2,0.5-0.2c0,0,0-0.1,0.1-0.1
			c0.1-0.2,0.3-0.3,0.4-0.4c0.1-0.1,0.2-0.2,0.2-0.2c0.1-0.1,0.1-0.1,0.2-0.2l0,0c0.7-0.6,1.5-1,2.4-1.3c0.1-0.1,0.2-0.1,0.3-0.2
			c-3.5-1.6-4.7-5.5-5.9-8.7c-1-2.4-1.4-5.3,0-6c-0.3-4.3-2.8-3.5-7.1-4c-4-0.5-8.2-1.6-12.2-1C40,75.1,39.9,75.3,39.9,76.9z"/>
		<path fill="#B59B00" d="M39.9,76.9c0.1,1.6,0.8,3.5,1.9,4.1c1.1,0.7,5-0.2,5.2,0.8c0.3,1,1.2,11.1,3.9,15.4
			c-0.1-1.2,0-2.2,0.3-3.1l0.6-1.5c-1.2-2.4-1.4-4.5-1.9-7.5c-0.2-1-0.2-3.8-0.9-4.6c-0.9-0.8-1.6-0.2-2.4-1.1c0,0-0.1-0.1-0.1-0.1
			c-0.7-1.2-1.1-5-1.5-6.5C40,75,39.9,75.3,39.9,76.9z"/>
		<path fill="#B59B00" d="M56.3,90.5c0.6-0.4,1.6-0.2,2.6,0.4c2.1,0.5,4.2,1.5,5.8,3l1.4,1.3c0.1,0,0.2,0,0.3,0
			c0,0.1-0.1,0.1-0.1,0.1c0,0.1-0.1,0.1-0.1,0.2c-1.6,3,0.3,8.2,5,13.2c0.1,0.1,0.1,0.1,0.1,0.1c0,0,0,0,0,0.1c0.3,0.3,0.7,0.7,1,1
			c6.8,6.5,18.6,12.4,33.4,12.1l0.1,0c3.8-0.1,7.9-0.6,12.1-1.5c8.8-2,15.7-5.2,21.2-8.9c3.8-2.5,6.9-5.3,9.4-8.1
			c7.9-8.7,9.9-17.6,10-19.6c0.1-2.1-0.6-5.3-0.6-5.3l0.2-2.2l0,0c-0.5,0.2-1.1,0.5-1.5,0.4c-0.1,0-0.1,0-0.1,0
			c-0.1-0.1-0.3-0.1-0.5-0.3c-0.1-0.1-0.3-0.2-0.4-0.3c-0.2-0.2-0.4-0.4-0.5-0.4c-4.6,10.4-16.9,19-26,23.9
			c-10.8,5.5-21.1,8.3-33.4,7.2c-10.1-0.7-20.7-5-27.8-12.4h0c-0.1-0.1-0.1-0.2-0.2-0.2l0,0c-0.9-1.6-6.9-4.9-7.8-6.5
			c-1.1-2.1-1.7-7.7-4.1-6.8C55.2,84,55.9,87.2,56.3,90.5z"/>
		<path fill="#FFEB24" d="M51,97.2c0.2,6.7,5,17.4,15,26.4c0.5,0.5,1.1,1,1.6,1.4c2.8,2.3,5.9,4.5,9.4,6.5c1.4,0.8,2.9,1.5,4.4,2.2
			c3.8,1.8,8,3.3,12.6,4.4c12.5,3.1,22.8,2.8,31,1c1.2-0.3,2.4-0.6,3.5-0.9c0.6-0.2,1.2-0.3,1.7-0.5c3.3-1.1,6.1-2.4,8.6-3.8
			c0.4-0.2,0.8-0.5,1.2-0.7c2.4-1.4,4.3-2.8,5.9-4.2c0.6-0.6,1.3-1.1,1.8-1.6c0.5-0.5,1-1,1.4-1.4c1-1.1,1.6-1.9,1.8-2.3
			c0.9-1.6,1.3-4.5,1.3-4.5l1-1.7c-0.6-0.1-1.3-0.1-1.7-0.4c0,0-0.1-0.1-0.1-0.1c0,0-0.1-0.1-0.1-0.1c-0.1-0.1-0.2-0.2-0.3-0.4
			c-0.1-0.2-0.2-0.3-0.3-0.5c-0.2-0.2-0.3-0.5-0.4-0.6c-0.4-0.6-0.4-1-0.9-1.5c-0.4-0.4-0.8-0.7-1.1-1.1c-0.1-0.1-0.1-0.2-0.2-0.3
			l-1.4,0c0,0-2.4-1.3-5.9-1.3c-0.3,0-0.8,0.1-1.4,0.2l0,0c0,0-0.1,0-0.1,0c-8.4,1.7-40.7,11.9-72.9-16.2c0,0,0,0,0,0
			c-0.1-0.1-0.1-0.1-0.2-0.1l-1.5-1.3c-1.6-1.5-3.7-2.5-5.8-3c-0.9-0.3-1.8-0.4-2.6-0.4c-0.4,0-0.8,0-1.2,0.1l-0.1,0
			c-0.4,0.1-0.9,0.2-1.3,0.3c-0.2,0.1-0.4,0.2-0.5,0.2c-0.2,0.1-0.4,0.3-0.6,0.4c-0.2,0.2-0.3,0.3-0.5,0.5c-0.4,0.5-0.7,1.2-0.9,2v0
			C51,95,50.9,96,51,97.2z"/>
		<path fill="#B59B00" d="M51,97.2c0.2,6.7,5,17.4,15,26.4c0.5,0.5,1.1,1,1.6,1.4c2.8,2.3,5.9,4.5,9.4,6.5c1.4,0.8,2.9,1.5,4.4,2.2
			c3.8,1.8,8,3.3,12.6,4.4c12.5,3.1,22.8,2.8,31,1c1.2-0.3,2.4-0.6,3.5-0.9c0.6-0.2,1.2-0.3,1.7-0.5c3.3-1.1,6.1-2.4,8.6-3.8
			c0.4-0.2,0.8-0.5,1.2-0.7c2.4-1.4,4.3-2.8,5.9-4.2c0.6-0.6,1.3-1.1,1.8-1.6c0.5-0.5,1-1,1.4-1.4c1-1.1,1.6-1.9,1.8-2.3
			c0.9-1.6,1.3-4.5,1.3-4.5l1-1.7l0,0c-0.6-0.1-1.3-0.1-1.7-0.4c0,0-0.1,0-0.1-0.1c0,0-0.1-0.1-0.1-0.1c-0.1-0.1-0.2-0.2-0.3-0.4
			c-0.1-0.2-0.2-0.3-0.3-0.5c-0.2-0.2-0.3-0.5-0.4-0.6l0,0c-8.6,6.2-24.1,7.4-35.2,7.2c-3.1-0.1-6-0.4-9-0.7l0,0c-0.1,0-0.1,0-0.2,0
			l-0.1,0c-9.4-1.2-18.1-3.8-27.2-8.7c-2.5-1.3-5-2.8-7.3-4.5c-0.1,0-0.1-0.1-0.1-0.1c-4.3-3-8.2-6.6-11.3-10.5
			c-1.9-2.4-3.6-5-4.9-7.7l0,0c0,0,0,0-0.1,0c-0.5,0-0.9,0.1-1.3,0.3c-0.2,0.1-0.4,0.1-0.5,0.2c-0.2,0.1-0.4,0.3-0.6,0.4
			c-0.2,0.2-0.3,0.3-0.5,0.5c-0.4,0.5-0.7,1.2-0.9,2v0C51,95,50.9,96,51,97.2z"/>
		<path fill="#604B3B" d="M40.8,78.7c0.3,1.7,1.6,0.1,2.7-0.1c0.7-0.1,1.8,0.1,1.9-0.9c0.1-1-0.6-2.4-0.7-3.4c-0.1,0-0.9,0-1.1,0
			c-0.9,0.3-2.5,0.9-3.1,1.6C39.8,76.7,40.6,77.9,40.8,78.7z"/>
	</g>
</g>
</svg>
