<?xml version="1.0" encoding="utf-8"?>
<!-- Generator: Adobe Illustrator 18.0.0, SVG Export Plug-In . SVG Version: 6.00 Build 0)  -->
<!DOCTYPE svg PUBLIC "-//W3C//DTD SVG 1.1//EN" "http://www.w3.org/Graphics/SVG/1.1/DTD/svg11.dtd">
<svg version="1.1" xmlns="http://www.w3.org/2000/svg" xmlns:xlink="http://www.w3.org/1999/xlink" x="0px" y="0px"
	 viewBox="0 0 200 200" enable-background="new 0 0 200 200" xml:space="preserve">
<g id="Lag_2">
</g>
<g id="Lag_1">
	<path fill="#FFD522" d="M190,101.2c0.6-49.7-39.1-90.5-88.8-91.2C51.5,9.4,10.7,49.1,10,98.8c-0.6,49.7,39.1,90.5,88.8,91.2
		C148.5,190.6,189.4,150.9,190,101.2z"/>
	<g>
		<path fill="#FCDBB1" d="M139.2,107.5c-1,0-2-0.2-2.9-0.5c-2.7-0.9-5.4-3-7.8-6.3c-4.2-5.7-11.6-7-11.7-7c-0.9-0.1-1.5-1-1.4-1.9
			c0.1-0.9,1-1.5,1.9-1.4c0.4,0.1,8.8,1.5,13.8,8.3c6,8.2,10.9,5,12.5,4c0.8-0.5,1.8-0.3,2.3,0.5c0.5,0.8,0.3,1.8-0.5,2.3
			C143.3,106.8,141.2,107.5,139.2,107.5z"/>
	</g>
	<g>
		<path fill="#FCDBB1" d="M82.8,118.8c-0.9,0-2.6-1.6-4.8-3.6c-2.3-2.1-6.8-6.2-8.9-9.1c-1.4-1.9-1.9-3.5-1.2-4.5
			c2.3-3.5,9.5-9.5,11.4-10.6c0.8-0.5,1.8-0.2,2.2,0.6c0.5,0.8,0.1,1.7-0.6,2.2c-3,2.5-9.1,7.1-9.9,9.1c0.2,1.5,7.9,8.9,13,12.9
			C85.4,117.7,84,118.9,82.8,118.8z"/>
	</g>
	<path fill="#4D5442" d="M125.9,93.8c-4.2-2.7-8.4-3.4-8.6-3.5c-0.6-0.1-1.2,0.3-1.6,0.7H81.3c-0.5-0.5-1.3-0.6-1.9-0.2
		c-1,0.6-4.3,3-7.2,5.7l2.4,2.8c1.8-1.5,3.2-3,5-4.3l0,34.9h38.1l0-35.7c1.4,0.4,4.1,1.2,6.7,3L125.9,93.8z"/>
	<g>
		<ellipse fill="#FFB600" cx="98.3" cy="150.6" rx="30.8" ry="4.9"/>
	</g>
	<g>
		<g>
			<rect x="114.6" y="137" fill="#FCDBB1" width="3.1" height="12.6"/>
		</g>
	</g>
	<g>
		<g>
			<path fill="#47443A" d="M114.3,149.8c0,0.8,0.7,1.3,1.5,1.3h4.3c0.9,0,1.5-0.6,1.5-1.3l0,0c0-0.8-0.7-1.3-1.5-1.3h-5.3
				C114,148.4,114.3,149,114.3,149.8L114.3,149.8z"/>
		</g>
	</g>
	<g>
		<g>
			<rect x="79.6" y="137" fill="#FCDBB1" width="3.1" height="12.6"/>
		</g>
	</g>
	<g>
		<g>
			<path fill="#47443A" d="M82.9,149.8c0,0.8-0.7,1.3-1.5,1.3h-4.3c-0.9,0-1.5-0.6-1.5-1.3l0,0c0-0.8,0.7-1.3,1.5-1.3h5.3
				C83.2,148.4,82.9,149,82.9,149.8L82.9,149.8z"/>
		</g>
	</g>
	<g>
		<path fill="#FFF4C7" d="M84.6,127.3h28h5.1v5.4v6h-3.6v-2c0-2.1-1.6-3.8-3.8-4.3H86.9c-2.1,0.4-3.9,2.1-3.9,4.2v2.1h-3.8v-6v-5.4
			H84.6z"/>
	</g>
	<g>
		<g>
			<path fill="#822D10" d="M119.5,80.9c0,0,0.7-0.1,0.7-1.7c0-1.6,0.3-18.2,0.3-18.2s11.3-9.9,2.3-22.3c0,0-0.8,8.5-7.7,7.3
				c-6.9-1.2-22.4-3.6-27.1-3.4c-4.7,0.2-13.8,3.7-12.9,15.9c0.9,12.2,2,26.4,2.8,28.7c0.9,2.7,34.8-2.3,34.8-2.3L119.5,80.9z"/>
		</g>
	</g>
	<g>
		<g>
			<path fill="#FCDBB1" d="M117.7,98.8c0,2-1.8,3.5-4.1,3.5l-30-0.1c-2.3,0-4.1-1.6-4.1-3.6l0.1-33c0-2,1.8-3.5,4.1-3.5l30,0.1
				c2.3,0,4.1,1.6,4.1,3.6L117.7,98.8z"/>
		</g>
	</g>
	<g>
		<g>
			<circle fill="#0F0100" cx="91.6" cy="84.3" r="2"/>
		</g>
	</g>
	<g>
		<g>
			<circle fill="#EEEEEE" cx="90.9" cy="83.8" r="0.5"/>
		</g>
	</g>
	<g>
		<g>
			<circle fill="#0F0100" cx="110.4" cy="84.9" r="2"/>
		</g>
	</g>
	<g>
		<g>
			<circle fill="#EEEEEE" cx="109.7" cy="84.4" r="0.5"/>
		</g>
	</g>
	<g>
		<path fill="#795743" d="M139.6,87.8c0-0.2-0.1-0.4-0.3-0.4l0,0c-0.2,0-0.4,0.1-0.4,0.3l-1.7,8.1c0,0.2,0.1,0.4,0.3,0.4l0,0
			c0.2,0,0.4-0.1,0.4-0.3L139.6,87.8z"/>
		<path fill="#208961" d="M147.3,92.6c-0.2,1-1.2,1.7-2.3,1.5l-4.5-0.9c-1-0.2-1.7-1.2-1.5-2.3l0-0.2c0.2-1,1.2-1.7,2.3-1.5l4.5,0.9
			c1,0.2,1.7,1.2,1.5,2.3L147.3,92.6z"/>
		<circle fill="#C95050" cx="136.3" cy="102" r="8.1"/>
	</g>
	<path fill="#C95050" d="M97.9,92c0.4-1.8,1.9-1.9,3.7-1.6c1.8,0.4,3.1,1.1,2.7,2.9c-0.4,1.8-2.1,2.9-3.9,2.5
		C98.7,95.5,97.5,93.8,97.9,92z"/>
	<g>
		<g>
			<ellipse fill="#FFB600" cx="65.5" cy="152" rx="6.7" ry="1.7"/>
		</g>
		<g>
			<g>
				<path fill="#FFFEF1" d="M68.7,150.2l-0.1-8.4c0-0.4-0.2-0.8-0.4-1.1c-0.1-0.1-0.1-0.2-0.1-0.3c0-0.1,0-0.1,0-0.2
					c0.3-0.6,0.5-1.3,0.4-2.1c0-2.3-1.6-4.2-3.5-4.2c-1.9,0-3.4,1.9-3.4,4.2c0,0.7,0.2,1.4,0.5,2c0,0.1,0,0.2,0,0.2
					c0,0.1,0,0.3-0.1,0.4c-0.2,0.3-0.4,0.6-0.4,1l0.1,8.5l0,0c0,0,0,0,0,0c0,1,0.8,1.7,1.8,1.7c0.5,0,1-0.3,1.3-0.7
					c0.1-0.1,0.2-0.2,0.4-0.2c0.2,0,0.3,0.1,0.4,0.2c0.3,0.4,0.8,0.6,1.3,0.6c1,0,1.7-0.8,1.7-1.8C68.7,150.3,68.7,150.2,68.7,150.2
					z"/>
				
					<rect x="64" y="132.8" transform="matrix(0.9999 -1.196582e-02 1.196582e-02 0.9999 -1.5954 0.7885)" fill="#FFFEF1" width="2.2" height="1.8"/>
			</g>
			<path fill="#5B8774" d="M66.5,133.3c0,0.2-0.1,0.3-0.3,0.3l-2.3,0c-0.2,0-0.3-0.1-0.3-0.3l0-1.3c0-0.2,0.1-0.3,0.3-0.3l2.3,0
				c0.2,0,0.3,0.1,0.3,0.3L66.5,133.3z"/>
			<path fill="#81CCAE" d="M68.1,150.2l-0.1-8.4c0-0.2-0.1-0.5-0.3-0.6l-0.1-0.1l0-0.1c-0.1-0.2-0.2-0.4-0.2-0.6c0-0.1,0-0.3,0-0.4
				l0-0.1l0-0.1c0.3-0.6,0.4-1.2,0.4-1.8c0-1-0.3-1.9-0.9-2.5c0,0,0,0-0.1-0.1l-3.7,0c0,0,0,0-0.1,0.1c-0.5,0.7-0.8,1.6-0.8,2.6
				c0,0.6,0.1,1.2,0.4,1.8l0,0l0,0c0.1,0.2,0.1,0.3,0.1,0.5c0,0.3-0.1,0.5-0.2,0.7l0,0l0,0c-0.1,0.1-0.2,0.3-0.2,0.6l0.1,8.5
				c0,0,0,0,0,0c0,0.6,0.5,1,1.1,1c0.3,0,0.6-0.2,0.8-0.4l0,0l0,0c0.2-0.2,0.5-0.4,0.9-0.4c0.3,0,0.6,0.1,0.9,0.4l0,0l0,0
				c0.2,0.2,0.5,0.4,0.8,0.4c0.6,0,1.1-0.5,1-1.1C68.1,150.3,68.1,150.3,68.1,150.2C68.1,150.2,68.1,150.2,68.1,150.2z"/>
			
				<rect x="61.7" y="142.1" transform="matrix(0.9999 -1.196582e-02 1.196582e-02 0.9999 -1.7382 0.7905)" fill="#EFF9F9" width="6.9" height="7.2"/>
			<g>
				<circle fill="#FFFFFF" cx="63.9" cy="136.2" r="0.3"/>
				<circle fill="#FFFFFF" cx="65" cy="137.6" r="0.2"/>
				<circle fill="#FFFFFF" cx="66.7" cy="136.9" r="0.2"/>
				<circle fill="#FFFFFF" cx="63.6" cy="138.8" r="0.2"/>
				<circle fill="#FFFFFF" cx="65" cy="140.2" r="0.2"/>
				<circle fill="#FFFFFF" cx="66.6" cy="138.8" r="0.3"/>
			</g>
		</g>
	</g>
	<path fill="#DCEAEA" d="M84,116.4c-1.4-1-2.9-2.3-4.4-3.7v4.5c1.4,1.3,2.5,2.1,3.2,2.1C84,119.4,85.4,118.2,84,116.4z"/>
	<g>
		<path fill="#FCDBB1" d="M70.9,102.9c0.2,1.5,7.9,8.9,13,12.9c1.4,1.8,0.1,3-1.2,3c-0.9,0-2.6-1.6-4.8-3.6
			c-2.3-2.1-6.8-6.2-8.9-9.1c-1.4-1.9-1.9-3.5-1.2-4.5"/>
	</g>
</g>
</svg>
