<?xml version="1.0" encoding="utf-8"?>
<!-- Generator: Adobe Illustrator 18.0.0, SVG Export Plug-In . SVG Version: 6.00 Build 0)  -->
<!DOCTYPE svg PUBLIC "-//W3C//DTD SVG 1.1//EN" "http://www.w3.org/Graphics/SVG/1.1/DTD/svg11.dtd">
<svg version="1.1" xmlns="http://www.w3.org/2000/svg" xmlns:xlink="http://www.w3.org/1999/xlink" x="0px" y="0px"
	 viewBox="0 0 200 200" enable-background="new 0 0 200 200" xml:space="preserve">
<g id="Lag_2">
</g>
<g id="Lag_1">
	<path fill="#FFD522" d="M190,101.2c0.6-49.7-39.1-90.5-88.8-91.2C51.5,9.4,10.7,49.1,10,98.8c-0.6,49.7,39.1,90.5,88.8,91.2
		C148.5,190.6,189.4,150.9,190,101.2z"/>
	<g>
		<g>
			<path fill="#FCDBB1" d="M87.4,119c-0.6,0-1.2-0.1-1.8-0.3c-1.7-0.5-3.4-1.9-4.9-4c-2.6-3.6-7.3-4.4-7.3-4.4
				c-0.6-0.1-0.9-0.6-0.9-1.2c0.1-0.6,0.6-0.9,1.2-0.9c0.2,0,5.5,1,8.7,5.2c3.8,5.1,6.8,3.1,7.8,2.5c0.5-0.3,1.1-0.2,1.4,0.3
				c0.3,0.5,0.2,1.1-0.3,1.4C90,118.6,88.7,119,87.4,119z"/>
		</g>
		<g>
			<path fill="#FCDBB1" d="M52,126.1c-0.6,0-1.7-1-3-2.3c-1.5-1.3-4.3-3.9-5.6-5.7c-0.9-1.2-1.2-2.2-0.8-2.8c1.4-2.2,5.9-6,7.2-6.6
				c0.5-0.3,1.1-0.1,1.4,0.4c0.3,0.5,0.1,1-0.4,1.4c-1.9,1.5-5.7,4.5-6.2,5.7c0.1,1,4.9,5.6,8.2,8.1C53.7,125.4,52.8,126.2,52,126.1
				z"/>
		</g>
		<path fill="#4D5442" d="M79.1,110.4c-2.6-1.7-5.2-2.2-5.4-2.2c-0.4-0.1-0.8,0.2-1,0.4H51.1c-0.3-0.3-0.8-0.4-1.2-0.1
			c-0.6,0.4-2.7,1.9-4.5,3.6l1.5,1.7c1.1-0.9,2-1.9,3.1-2.7l0,21.9H74l0-22.4c0.9,0.2,2.6,0.8,4.2,1.9L79.1,110.4z"/>
		<g>
			<ellipse fill="#FFB600" cx="61.8" cy="146.1" rx="19.3" ry="3.1"/>
		</g>
		<g>
			<g>
				<rect x="72" y="137.5" fill="#FCDBB1" width="2" height="7.9"/>
			</g>
		</g>
		<g>
			<g>
				<path fill="#47443A" d="M71.8,145.6c0,0.5,0.4,0.8,1,0.8h2.7c0.5,0,1-0.4,1-0.8l0,0c0-0.5-0.4-0.8-1-0.8h-3.3
					C71.7,144.7,71.8,145.1,71.8,145.6L71.8,145.6z"/>
			</g>
		</g>
		<g>
			<g>
				<rect x="50" y="137.5" fill="#FCDBB1" width="2" height="7.9"/>
			</g>
		</g>
		<g>
			<g>
				<path fill="#47443A" d="M52.1,145.6c0,0.5-0.4,0.8-1,0.8h-2.7c-0.5,0-1-0.4-1-0.8l0,0c0-0.5,0.4-0.8,1-0.8h3.3
					C52.3,144.7,52.1,145.1,52.1,145.6L52.1,145.6z"/>
			</g>
		</g>
		<g>
			<path fill="#FFF4C7" d="M53.2,131.5h17.6H74v3.4v3.8h-2.3v-1.3c0-1.3-1-2.4-2.4-2.7H54.6c-1.3,0.3-2.5,1.3-2.5,2.6v1.3h-2.4v-3.8
				v-3.4H53.2z"/>
		</g>
		<g>
			<g>
				<path fill="#49351D" d="M75.1,102.4c0,0,0.4-0.1,0.4-1.1c0-1,0.5-11.1-0.4-15.3c-0.5-2.4-1.5-6.4-6.4-6.9
					c-4.4-0.4-10.4-0.4-13.4-0.2c-2.9,0.1-8.4,3.4-8.1,9.4c0.3,7.7,1.3,16.6,1.7,18c0.6,1.7,21.9-1.5,21.9-1.5L75.1,102.4z"/>
			</g>
		</g>
		<g>
			<g>
				<path fill="#FCDBB1" d="M74,113.6c0,1.2-1.2,2.2-2.6,2.2l-18.8,0c-1.4,0-2.6-1-2.6-2.2l0-20.7c0-1.2,1.2-2.2,2.6-2.2l18.8,0
					c1.4,0,2.6,1,2.6,2.2L74,113.6z"/>
			</g>
		</g>
		<g>
			<g>
				<circle fill="#49351D" cx="58.8" cy="104.6" r="1.2"/>
			</g>
		</g>
		<g>
			<g>
				<circle fill="#EEEEEE" cx="58.3" cy="104.3" r="0.3"/>
			</g>
		</g>
		<g>
			<g>
				<circle fill="#49351D" cx="67.6" cy="104.6" r="1.2"/>
			</g>
		</g>
		<g>
			<g>
				<circle fill="#EEEEEE" cx="67.2" cy="104.3" r="0.3"/>
			</g>
		</g>
		<path fill="#373D2D" d="M52.8,124.6c-0.9-0.7-1.8-1.5-2.8-2.3v2.8c0.9,0.8,1.6,1.3,2,1.3C52.8,126.5,53.7,125.8,52.8,124.6z"/>
		<g>
			<path fill="#FCDBB1" d="M44.6,116.2c0.1,1,4.9,5.6,8.2,8.1c0.9,1.1,0,1.9-0.8,1.9c-0.6,0-1.7-1-3-2.3c-1.5-1.3-4.3-3.9-5.6-5.7
				c-0.9-1.2-1.2-2.2-0.8-2.8"/>
		</g>
		<path fill="#FF7F5C" d="M60.9,111C60.9,111,60.9,111,60.9,111c2.3-1.2,4.4-0.4,6.8-0.4c0.1,0,0.2,0.1,0.3,0.2
			c0.3,0.2,0.2,0.7-0.2,0.7c-2.3-0.3-4.4,0.6-6.7,0.3C60.6,111.7,60.5,111.1,60.9,111z"/>
	</g>
	<g>
		<g>
			<path fill="#FFF4C7" d="M152.2,94.5c0,9.1-10.5,10.1-23.4,10.1c-12.9,0-23.4-1-23.4-10.1c0-9.1,10.5-16.5,23.4-16.5
				C141.8,78.1,152.2,85.5,152.2,94.5z"/>
		</g>
		<g>
			<rect x="110.3" y="66.9" fill="#FFF4C7" width="37.1" height="37.5"/>
		</g>
		<g>
			<ellipse fill="#FFB600" cx="128.6" cy="124.6" rx="29.8" ry="4.7"/>
		</g>
		<g>
			<g>
				<rect x="144.4" y="111.4" fill="#FCDBB1" width="3" height="12.1"/>
			</g>
		</g>
		<g>
			<g>
				<path fill="#020202" d="M144.1,123.7c0,0.7,0.7,1.3,1.5,1.3h4.2c0.8,0,1.5-0.6,1.5-1.3l0,0c0-0.7-0.7-1.3-1.5-1.3h-5.1
					C143.8,122.4,144.1,123,144.1,123.7L144.1,123.7z"/>
			</g>
		</g>
		<g>
			<g>
				<rect x="110.3" y="111.4" fill="#FCDBB1" width="3.3" height="12.1"/>
			</g>
		</g>
		<g>
			<g>
				<path fill="#020202" d="M113.8,123.7c0,0.7-0.7,1.3-1.5,1.3h-4.2c-0.8,0-1.5-0.6-1.5-1.3l0,0c0-0.7,0.7-1.3,1.5-1.3h5.1
					C114,122.4,113.8,123,113.8,123.7L113.8,123.7z"/>
			</g>
		</g>
		<g>
			<path fill="#E25423" d="M115.4,102h27.1h5v5.3v15.3H144v-11.4c0-2.1-1.6-3.7-3.7-4.1h-22.7c-2,0.4-3.8,2-3.8,4v11.6h-3.7v-15.3
				V102H115.4z"/>
		</g>
		<g>
			<g>
				<path fill="#604B32" d="M149.1,57.2c0,0,0.6-0.1,0.6-1.7c0-1.6,0.2-17.6,0.2-17.6s10.9-9.6,2.3-21.5c0,0-0.8,8.2-7.4,7.1
					c-6.6-1.2-21.6-3.5-26.2-3.3c-4.5,0.2-13.3,3.6-12.5,15.4c0.8,11.8,2,25.5,2.7,27.8c0.9,2.6,33.7-2.3,33.7-2.3L149.1,57.2z"/>
			</g>
		</g>
		<g>
			<path fill="#FCDBB1" d="M146.8,69.4c-1,0-1.8-0.7-1.9-1.7c-0.1-1,0.6-2,1.7-2.1l0,0c0.1,0,8.8-0.7,15.7,3.7
				c8.4,5.4,4.2,16.4-0.6,20.6c-0.8,0.7-2.1,0.3-2.6-0.5c-0.6-0.9-0.3-2,0.5-2.6c3.1-2.6,6.2-11.2,0.8-14.3c-6.3-3.5-13-3.1-13.3-3
				C146.9,69.4,146.8,69.4,146.8,69.4z"/>
		</g>
		<g>
			<path fill="#FCDBB1" d="M114.4,70.5c1,0,1.8-0.7,1.9-1.7c0.1-1-0.6-2-1.7-2.1l0,0c-0.1,0-8.8-0.7-15.7,3.7
				c-8.4,5.4-4.2,16.4,0.6,20.6c0.8,0.7,2.1,0.3,2.6-0.5c0.6-0.9,0.3-2-0.5-2.6c-3.1-2.6-6.2-11.2-0.8-14.3c6.3-3.5,13-3.1,13.3-3
				C114.3,70.5,114.4,70.5,114.4,70.5z"/>
		</g>
		<g>
			<g>
				<path fill="#FCDBB1" d="M147.4,74.5c0,1.9-1.8,3.4-4,3.4l-29-0.1c-2.2,0-4-1.5-4-3.4l0.1-31.9c0-1.9,1.8-3.4,4-3.4l29,0.1
					c2.2,0,4,1.5,4,3.4L147.4,74.5z"/>
			</g>
		</g>
		<g>
			<g>
				<circle fill="#0F0100" cx="120" cy="61" r="1.9"/>
			</g>
		</g>
		<g>
			<g>
				<circle fill="#EEEEEE" cx="119.3" cy="60.5" r="0.5"/>
			</g>
		</g>
		<g>
			<g>
				<circle fill="#0F0100" cx="140.3" cy="61" r="1.9"/>
			</g>
		</g>
		<g>
			<path fill="#FF7F5C" d="M134.9,68.3c-0.1-0.2-0.3-0.3-0.6-0.3l-8,0c-0.2,0-0.5,0.1-0.6,0.3c-0.1,0.2-0.1,0.4,0,0.7
				c0.1,0.2,1.9,3.9,4.8,3.9c2.9,0,4.4-3.8,4.4-4C135,68.7,135,68.5,134.9,68.3z"/>
		</g>
		<g>
			<g>
				<circle fill="#EEEEEE" cx="139.7" cy="60.5" r="0.5"/>
			</g>
		</g>
	</g>
	<g>
		<path fill="#FFBF24" d="M166.3,77.2c-5-2.1-9.8-1.9-10.8,0.3c0,0-0.1,0.2,0,0.2l18,7.4c0.1,0,0.1-0.1,0.2-0.2
			C174.6,82.8,171.3,79.2,166.3,77.2z"/>
		<path fill="#FFBF24" d="M170.9,91.3L153.1,84c-0.1,0-0.2,0.1-0.3,0.3c-0.4,1,0,2.1,1,2.5l14.6,6c1,0.4,2.1-0.1,2.5-1.1
			C171,91.5,171,91.4,170.9,91.3z"/>
		<path fill="#208961" d="M172.7,85.2l-16.6-6.9c-0.4-0.2-0.9,0-1.1,0.4c-0.2,0.4,0,0.9,0.5,1l16.6,6.9c0.4,0.2,0.9,0,1.1-0.4
			C173.4,85.8,173.1,85.4,172.7,85.2z"/>
		<path fill="#795743" d="M171.6,87.9l-2.6-1.1l-4.8-0.4l-4.3-3.4l-4.8-2c-0.4-0.2-1,0.3-1.3,1l0,0.1c-0.3,0.8-0.2,1.5,0.2,1.7
			l16.5,6.8c0.4,0.2,1.1-0.3,1.4-1.1l0-0.1C172.1,88.8,172,88,171.6,87.9z"/>
		<g>
			<g>
				<circle fill="#FFFFFF" cx="161.2" cy="77.1" r="0.4"/>
			</g>
			<g>
				<circle fill="#FFFFFF" cx="163.6" cy="78.4" r="0.4"/>
			</g>
			<g>
				<circle fill="#FFFFFF" cx="166.4" cy="78.8" r="0.4"/>
			</g>
			<g>
				<circle fill="#FFFFFF" cx="168.5" cy="80.9" r="0.4"/>
			</g>
			<g>
				<circle fill="#FFFFFF" cx="170.7" cy="81.4" r="0.4"/>
			</g>
		</g>
		<g>
			<g>
				<polygon fill="#D3643B" points="159.5,82.2 164.3,86 169.7,86.4 				"/>
				<path fill="#D3643B" d="M172.6,87.5c0.1-0.1,0-0.3-0.2-0.4l-17.6-7.3c-0.1-0.1-0.3,0-0.4,0.2l0,0c-0.1,0.1,0,0.3,0.2,0.4
					l17.6,7.3C172.4,87.7,172.6,87.7,172.6,87.5L172.6,87.5z"/>
			</g>
		</g>
	</g>
	<g>
		<path fill="#FFFFF1" d="M108.9,96.5L104.5,79c-0.1-0.3-0.4-0.5-0.7-0.4c-6,1.4-9.5,5-11.3,7.8c-2,3-2.6,5.7-2.6,5.8
			c-0.1,0.3,0.1,0.6,0.4,0.7l17.9,4.4c0,0,0.1,0,0.1,0c0,0,0,0,0,0c0.3,0,0.6-0.2,0.6-0.5C109,96.6,109,96.6,108.9,96.5z"/>
		<g>
			<path fill="#FFBF24" d="M90.5,93.4c-0.1,0-0.2,0-0.3,0c-0.6-0.2-1-0.8-0.8-1.3c1.8-6.9,7.4-12.4,14.3-14c0.6-0.1,1.2,0.2,1.3,0.8
				c0.1,0.6-0.2,1.2-0.8,1.3c-6.2,1.4-11.1,6.2-12.7,12.3C91.4,93,91,93.4,90.5,93.4z"/>
		</g>
		<g>
			<circle fill="#EC6053" cx="96" cy="89.7" r="1.7"/>
		</g>
		<g>
			<circle fill="#208961" cx="101.2" cy="85.2" r="1.3"/>
		</g>
		<g>
			<circle fill="#EC6053" cx="104.2" cy="92.8" r="1.7"/>
		</g>
		<g>
			<circle fill="#208961" cx="101" cy="90.7" r="0.9"/>
		</g>
	</g>
	<g>
		<g>
			<ellipse fill="#FFB600" cx="159.1" cy="125.8" rx="6" ry="1.5"/>
		</g>
		<g>
			<g>
				<path fill="#FFFEF1" d="M162.3,124l-0.2-8.1c0-0.4-0.2-0.8-0.4-1c-0.1-0.1-0.1-0.2-0.1-0.3c0-0.1,0-0.1,0-0.2
					c0.3-0.6,0.4-1.3,0.4-2.1c-0.1-2.2-1.6-4-3.5-4c-1.9,0.1-3.3,1.9-3.2,4.2c0,0.7,0.2,1.4,0.5,2c0,0.1,0,0.2,0.1,0.2
					c0,0.1,0,0.3-0.1,0.4c-0.2,0.3-0.3,0.6-0.3,1l0.2,8.3l0,0c0,0,0,0,0,0c0,0.9,0.8,1.7,1.7,1.6c0.5,0,1-0.3,1.3-0.7
					c0.1-0.1,0.2-0.2,0.4-0.2c0.2,0,0.3,0.1,0.4,0.2c0.3,0.4,0.8,0.6,1.3,0.6c0.9,0,1.6-0.8,1.6-1.7
					C162.3,124.1,162.3,124,162.3,124z"/>
				
					<rect x="157.5" y="107.3" transform="matrix(0.9996 -2.906750e-02 2.906750e-02 0.9996 -3.0761 4.6541)" fill="#FFFEF1" width="2.1" height="1.8"/>
			</g>
			<path fill="#EC6053" d="M159.9,107.7c0,0.2-0.1,0.3-0.3,0.3l-2.2,0.1c-0.2,0-0.3-0.1-0.3-0.3l0-1.3c0-0.2,0.1-0.3,0.3-0.3
				l2.2-0.1c0.2,0,0.3,0.1,0.3,0.3L159.9,107.7z"/>
			<path fill="#795743" d="M161.7,124l-0.2-8.1c0-0.2-0.1-0.4-0.3-0.6l-0.1-0.1l0-0.1c-0.1-0.2-0.2-0.4-0.2-0.6c0-0.1,0-0.2,0-0.4
				l0-0.1l0,0c0.2-0.5,0.4-1.1,0.3-1.8c0-0.9-0.3-1.8-0.9-2.4c0,0,0,0-0.1-0.1l-3.6,0.1c0,0,0,0-0.1,0.1c-0.5,0.7-0.8,1.5-0.8,2.5
				c0,0.6,0.2,1.2,0.4,1.7l0,0l0,0c0.1,0.2,0.1,0.3,0.1,0.5c0,0.3-0.1,0.5-0.2,0.7l0,0l0,0c-0.1,0.1-0.2,0.3-0.2,0.6l0.2,8.3
				c0,0,0,0,0,0c0,0.6,0.5,1,1,1c0.3,0,0.6-0.2,0.8-0.4l0,0l0,0c0.2-0.2,0.5-0.4,0.8-0.4c0.3,0,0.6,0.1,0.9,0.3l0,0l0,0
				c0.2,0.2,0.5,0.4,0.8,0.4c0.6,0,1-0.5,1-1.1C161.7,124.1,161.7,124.1,161.7,124C161.7,124.1,161.7,124.1,161.7,124z"/>
			
				<rect x="155.5" y="116.2" transform="matrix(0.9996 -2.906750e-02 2.906750e-02 0.9996 -3.4119 4.6676)" fill="#EC6053" width="6.7" height="7"/>
			<g>
				<circle fill="#FFFFFF" cx="157.4" cy="110.6" r="0.3"/>
				<circle fill="#FFFFFF" cx="158.5" cy="111.9" r="0.2"/>
				<circle fill="#FFFFFF" cx="160.2" cy="111.2" r="0.2"/>
				<circle fill="#FFFFFF" cx="157.2" cy="113.1" r="0.2"/>
				<circle fill="#FFFFFF" cx="158.6" cy="114.4" r="0.2"/>
				<circle fill="#FFFFFF" cx="160.1" cy="113" r="0.3"/>
			</g>
		</g>
	</g>
	<g>
		<g>
			<path fill="#49351D" d="M51,84.5l0.3,0c3.3-0.1,4.6-4.3,1.8-6.2c-0.1,0-0.1-0.1-0.2-0.1c-1.4-1-3.4-0.7-4.5,0.7
				c-0.1,0.1-0.1,0.2-0.2,0.3C46.5,81.3,48.2,84.5,51,84.5z"/>
		</g>
	</g>
	<g>
		<g>
			<path fill="#49351D" d="M54.8,81.5l0.1,0c1.9,0,2.6-2.5,1-3.5c0,0-0.1,0-0.1-0.1c-0.8-0.6-2-0.4-2.6,0.4c0,0-0.1,0.1-0.1,0.1
				C52.2,79.7,53.2,81.6,54.8,81.5z"/>
		</g>
	</g>
	<g>
		<g>
			<path fill="#49351D" d="M48,86l0.1,0c1.9,0,2.6-2.5,1-3.5c0,0-0.1,0-0.1-0.1c-0.8-0.6-2-0.4-2.6,0.4c0,0-0.1,0.1-0.1,0.1
				C45.5,84.2,46.4,86.1,48,86z"/>
		</g>
	</g>
	<g>
		<g>
			<path fill="#49351D" d="M58.4,82.9l0.3,0c3.2,0,4.6-4.1,2-6c-0.1,0-0.1-0.1-0.2-0.1c-1.4-1-3.3-0.8-4.4,0.5
				c-0.1,0.1-0.1,0.2-0.2,0.2C54.1,79.7,55.6,82.9,58.4,82.9z"/>
		</g>
	</g>
	<g>
		<g>
			<path fill="#49351D" d="M72,82l0.1,0c1.9,0,2.6-2.5,1-3.5c0,0-0.1,0-0.1-0.1c-0.8-0.6-2-0.4-2.6,0.4c0,0-0.1,0.1-0.1,0.1
				C69.5,80.2,70.4,82.1,72,82z"/>
		</g>
	</g>
	<g>
		<g>
			<path fill="#49351D" d="M74.4,86.3l0.2,0c2.7,0,3.8-3.6,1.5-5.1c0,0-0.1-0.1-0.1-0.1c-1.2-0.8-2.8-0.6-3.7,0.5
				c-0.1,0.1-0.1,0.1-0.2,0.2C70.7,83.7,72.1,86.3,74.4,86.3z"/>
		</g>
	</g>
	<g>
		<g>
			<path fill="#49351D" d="M47.6,90.3l0.2,0c2.7,0,3.8-3.6,1.5-5.1c0,0-0.1-0.1-0.1-0.1c-1.2-0.8-2.8-0.6-3.7,0.5
				c-0.1,0.1-0.1,0.1-0.2,0.2C44,87.7,45.3,90.3,47.6,90.3z"/>
		</g>
	</g>
	<g>
		<g>
			<path fill="#49351D" d="M62.4,82l0.2,0c2.7,0,3.8-3.6,1.5-5.1c0,0-0.1-0.1-0.1-0.1c-1.2-0.8-2.8-0.6-3.7,0.5
				c-0.1,0.1-0.1,0.1-0.2,0.2C58.7,79.4,60.1,82,62.4,82z"/>
		</g>
	</g>
	<g>
		<g>
			<path fill="#49351D" d="M68.2,82l0.3,0c3.5-0.1,4.9-4.7,2-6.6c-0.1,0-0.1-0.1-0.2-0.1c-1.5-1-3.7-0.8-4.8,0.7
				c-0.1,0.1-0.1,0.2-0.2,0.3C63.4,78.6,65.2,82.1,68.2,82z"/>
		</g>
	</g>
</g>
</svg>
