<?xml version="1.0" encoding="utf-8"?>
<!-- Generator: Adobe Illustrator 18.0.0, SVG Export Plug-In . SVG Version: 6.00 Build 0)  -->
<!DOCTYPE svg PUBLIC "-//W3C//DTD SVG 1.1//EN" "http://www.w3.org/Graphics/SVG/1.1/DTD/svg11.dtd">
<svg version="1.1" xmlns="http://www.w3.org/2000/svg" xmlns:xlink="http://www.w3.org/1999/xlink" x="0px" y="0px"
	 viewBox="0 0 200 200" enable-background="new 0 0 200 200" xml:space="preserve">
<g id="Lag_2">
</g>
<g id="Lag_1">
	<g>
		<path fill="#CAEDE5" d="M190,100c0,32.1-18.8,90-90,90c-49.7,0-90-40.3-90-90c0-49.7,40.3-90,90-90S190,50.3,190,100z"/>
		<g>
			<path fill="#88A022" d="M100.1,190c31.5,0,52.8-11.5,66.7-26.9H35.7C52.1,179.7,74.9,190,100.1,190z"/>
			<g>
				<path fill="#A0BB3A" d="M98.2,163.1l-1.4,26.8c1,0,2.1,0.1,3.1,0.1c1.2,0,2.3-0.1,3.4-0.1l-1.4-26.8H98.2z"/>
				<path fill="#A0BB3A" d="M163.3,166.7c-4-1.3-8-2.5-11.8-3.6h-9.3c5.7,1.8,11.8,4,18,6.4C161.3,168.6,162.4,167.6,163.3,166.7z"
					/>
				<path fill="#A0BB3A" d="M121.5,163.1c7.5,3.5,16.6,8.6,26.7,15.2c1.7-1,3.4-2.1,5-3.2c-9.2-5-17.6-8.8-24.8-12H121.5z"/>
				<path fill="#A0BB3A" d="M111.6,163.1h-4.9c5.3,5.1,12.1,13.1,19.7,23.8c2.2-0.6,4.3-1.2,6.4-1.9
					C124.7,175.4,117.3,168.2,111.6,163.1z"/>
				<path fill="#A0BB3A" d="M48,163.1c-3,0.8-6.1,1.8-9.3,2.8c1,0.9,2,1.8,3,2.7c5.4-2.1,10.6-4,15.5-5.5H48z"/>
				<path fill="#A0BB3A" d="M70.8,163.1c-6.5,2.9-14.1,6.3-22.3,10.7c1.5,1.1,3.1,2.1,4.7,3.1c9.2-5.9,17.6-10.5,24.5-13.8H70.8z"/>
				<path fill="#A0BB3A" d="M87.6,163.1c-5.3,4.9-11.9,12-19.2,21.2c2,0.8,4,1.4,6.1,2c6.9-10.4,13-18.3,18-23.2H87.6z"/>
			</g>
		</g>
		<g>
			<g>
				<rect x="93.9" y="131.1" fill="#88A022" width="12.2" height="58.3"/>
				<g>
					<ellipse fill="#FCDD5E" cx="99.9" cy="83.6" rx="19.7" ry="49.6"/>
					<path fill="#E8CC56" d="M110.8,42.2c0.4,3.1,0.7,6.5,0.7,9.9c0,19.7-7.6,35.7-17,35.7c-5.7,0-10.7-5.8-13.8-14.6
						c-0.3,3.4-0.4,6.9-0.4,10.5c0,27.4,8.8,49.6,19.7,49.6c10.9,0,19.7-22.2,19.7-49.6C119.6,66.3,116.1,51.1,110.8,42.2z"/>
				</g>
				<g>
					<g>
						<path fill="#88A022" d="M107.6,89.7c5.3-11.7,7.9-25.3,9-32.4c0.5-3.1,1.4-1.1,1.4-1.1c0.6,1.1,1.2,3.9,1.9,8.2
							c0.9,6,1.4,12.4,1.4,19.2c0,29.7-9.5,53.7-21.3,53.7c-4.7,0-10.7-4.9-12.5-10.2C85.9,122.3,97.2,114.1,107.6,89.7z"/>
						<path fill="#88A022" d="M116.6,57.4c0,0,3.3-18.5,8.6-7.2c5.3,11.3,3.1,23.7,2.4,26.3c-0.7,2.6-1.1-5.3-1.7-10.2
							c-0.7-6.1-3-14.5-4-2.2c-0.3,4.1-0.5,11.1-0.7,19.4L116.6,57.4z"/>
					</g>
					<g>
						<path fill="#A0BB3A" d="M92.4,89.7c-5.3-11.7-7.9-25.3-9-32.4c-0.5-3.1-1.4-1.1-1.4-1.1c-0.6,1.1-1.2,3.9-1.9,8.2
							c-0.9,6-1.4,12.4-1.4,19.2c0,29.7,9.5,53.7,21.3,53.7c4.7,0,10.7-4.9,12.5-10.2C114.1,122.3,102.8,114.1,92.4,89.7z"/>
						<path fill="#A0BB3A" d="M83.4,57.4c0,0-3.3-18.5-8.6-7.2c-5.3,11.3-3.1,23.7-2.4,26.3C73,79,73.4,71.1,74,66.2
							c0.7-6.1,3-14.5,4-2.2c0.3,4.1,0.5,11.1,0.7,19.4L83.4,57.4z"/>
					</g>
				</g>
			</g>
			<g>
				<polygon fill="#88A022" points="145.9,179.5 138.8,183 138.8,153.8 145.9,153.8 				"/>
				<polygon fill="#88A022" points="53.6,177.4 60.7,181 60.7,151.7 53.6,151.7 				"/>
				<g>
					<g>
						<g>
							<ellipse fill="#FCDD5E" cx="142.4" cy="125" rx="11.6" ry="29.2"/>
							<path fill="#E8CC56" d="M148.7,100.6c0.3,1.8,0.4,3.8,0.4,5.8c0,11.6-4.5,20.9-10,20.9c-3.3,0-6.3-3.4-8.1-8.6
								c-0.2,2-0.3,4-0.3,6.2c0,16.1,5.2,29.2,11.6,29.2c6.4,0,11.6-13.1,11.6-29.2C153.9,114.8,151.9,105.8,148.7,100.6z"/>
						</g>
						<g>
							<g>
								<path fill="#88A022" d="M146.9,128.5c3.1-6.9,4.6-14.8,5.3-19c0.3-1.8,0.8-0.7,0.8-0.7c0.4,0.7,0.7,2.3,1.1,4.8
									c0.5,3.5,0.8,7.3,0.8,11.3c0,17.4-5.6,31.6-12.5,31.6c-2.7,0-6.3-2.9-7.3-6C134.1,147.7,140.7,142.9,146.9,128.5z"/>
								<path fill="#88A022" d="M152.2,109.5c0,0,1.9-10.8,5.1-4.2c3.1,6.6,1.8,13.9,1.4,15.4c-0.4,1.5-0.7-3.1-1-6
									c-0.4-3.6-1.8-8.5-2.3-1.3c-0.2,2.4-0.3,6.5-0.4,11.4L152.2,109.5z"/>
							</g>
							<g>
								<path fill="#A0BB3A" d="M137.9,128.5c-3.1-6.9-4.7-14.8-5.3-19c-0.3-1.8-0.8-0.7-0.8-0.7c-0.4,0.7-0.7,2.3-1.1,4.8
									c-0.5,3.5-0.8,7.3-0.8,11.3c0,17.4,5.6,31.6,12.5,31.6c2.7,0,6.3-2.9,7.3-6C150.7,147.7,144.1,142.9,137.9,128.5z"/>
								<path fill="#A0BB3A" d="M132.6,109.5c0,0-1.9-10.8-5.1-4.2c-3.1,6.6-1.8,13.9-1.4,15.4c0.4,1.5,0.7-3.1,1-6
									c0.4-3.6,1.8-8.5,2.3-1.3c0.2,2.4,0.3,6.5,0.4,11.4L132.6,109.5z"/>
							</g>
						</g>
					</g>
					<g>
						<g>
							<path fill="#FCDD5E" d="M68.8,125c0,16.1-5.2,29.2-11.6,29.2c-6.4,0-11.6-13.1-11.6-29.2s5.2-29.2,11.6-29.2
								C63.6,95.8,68.8,108.9,68.8,125z"/>
							<path fill="#E8CC56" d="M50.8,100.6c-0.3,1.8-0.4,3.8-0.4,5.8c0,11.6,4.5,20.9,10,20.9c3.3,0,6.3-3.4,8.1-8.6
								c0.2,2,0.3,4,0.3,6.2c0,16.1-5.2,29.2-11.6,29.2c-6.4,0-11.6-13.1-11.6-29.2C45.6,114.8,47.7,105.8,50.8,100.6z"/>
						</g>
						<g>
							<g>
								<path fill="#88A022" d="M52.7,128.5c-3.1-6.9-4.6-14.8-5.3-19c-0.3-1.8-0.8-0.7-0.8-0.7c-0.4,0.7-0.7,2.3-1.1,4.8
									c-0.5,3.5-0.8,7.3-0.8,11.3c0,17.4,5.6,31.6,12.5,31.6c2.7,0,6.3-2.9,7.3-6C65.4,147.7,58.8,142.9,52.7,128.5z"/>
								<path fill="#88A022" d="M47.4,109.5c0,0-1.9-10.8-5.1-4.2c-3.1,6.6-1.8,13.9-1.4,15.4c0.4,1.5,0.7-3.1,1-6
									c0.4-3.6,1.8-8.5,2.3-1.3c0.2,2.4,0.3,6.5,0.4,11.4L47.4,109.5z"/>
							</g>
							<g>
								<path fill="#A0BB3A" d="M61.6,128.5c3.1-6.9,4.7-14.8,5.3-19c0.3-1.8,0.8-0.7,0.8-0.7c0.4,0.7,0.7,2.3,1.1,4.8
									c0.5,3.5,0.8,7.3,0.8,11.3c0,17.4-5.6,31.6-12.5,31.6c-2.7,0-6.3-2.9-7.3-6C48.9,147.7,55.5,142.9,61.6,128.5z"/>
								<path fill="#A0BB3A" d="M66.9,109.5c0,0,1.9-10.8,5.1-4.2c3.1,6.6,1.8,13.9,1.4,15.4c-0.4,1.5-0.7-3.1-1-6
									c-0.4-3.6-1.8-8.5-2.3-1.3c-0.2,2.4-0.3,6.5-0.4,11.4L66.9,109.5z"/>
							</g>
						</g>
					</g>
				</g>
			</g>
		</g>
	</g>
</g>
</svg>
