<?xml version="1.0" encoding="utf-8"?>
<!-- Generator: Adobe Illustrator 18.0.0, SVG Export Plug-In . SVG Version: 6.00 Build 0)  -->
<!DOCTYPE svg PUBLIC "-//W3C//DTD SVG 1.1//EN" "http://www.w3.org/Graphics/SVG/1.1/DTD/svg11.dtd">
<svg version="1.1" id="Lag_1" xmlns="http://www.w3.org/2000/svg" xmlns:xlink="http://www.w3.org/1999/xlink" x="0px" y="0px"
	 viewBox="0 0 200 200" enable-background="new 0 0 200 200" xml:space="preserve">
<g>
	<g>
		<path fill="#FFA203" d="M190,100c0,32.1-18.8,90-90,90c-49.7,0-90-40.3-90-90c0-49.7,40.3-90,90-90S190,50.3,190,100z"/>
		<g>
			<path fill="#FFD600" d="M100.1,190c31.5,0,52.8-11.5,66.7-26.9H35.7C52.1,179.7,74.9,190,100.1,190z"/>
			<g>
				<path fill="#FAED62" d="M98.2,163.1l-1.4,26.8c1,0,2.1,0.1,3.1,0.1c1.2,0,2.3-0.1,3.4-0.1l-1.4-26.8H98.2z"/>
				<path fill="#FAED62" d="M163.3,166.7c-4-1.3-8-2.5-11.8-3.6h-9.3c5.7,1.8,11.8,4,18,6.4C161.3,168.6,162.4,167.6,163.3,166.7z"
					/>
				<path fill="#FAED62" d="M121.5,163.1c7.5,3.5,16.6,8.6,26.7,15.2c1.7-1,3.4-2.1,5-3.2c-9.2-5-17.6-8.8-24.8-12H121.5z"/>
				<path fill="#FAED62" d="M111.6,163.1h-4.9c5.3,5.1,12.1,13.1,19.7,23.8c2.2-0.6,4.3-1.2,6.4-1.9
					C124.7,175.4,117.3,168.2,111.6,163.1z"/>
				<path fill="#FAED62" d="M48,163.1c-3,0.8-6.1,1.8-9.3,2.8c1,0.9,2,1.8,3,2.7c5.4-2.1,10.6-4,15.5-5.5H48z"/>
				<path fill="#FAED62" d="M70.8,163.1c-6.5,2.9-14.1,6.3-22.3,10.7c1.5,1.1,3.1,2.1,4.7,3.1c9.2-5.9,17.6-10.5,24.5-13.8H70.8z"/>
				<path fill="#FAED62" d="M87.6,163.1c-5.3,4.9-11.9,12-19.2,21.2c2,0.7,4,1.4,6.1,2c6.9-10.4,13-18.3,18-23.2H87.6z"/>
			</g>
		</g>
	</g>
	<g>
		<g>
			<polygon fill="#FAED62" points="136.2,63.1 138.4,63.1 138.5,167.8 135.7,169 			"/>
			<path fill="#FFD600" d="M143.7,50.5c0-6.4-3-9.5-6.8-9.5c-3.8,0-6.8,3.1-6.8,9.5c0,6.4,6.8,13.8,6.8,13.8S143.7,56.9,143.7,50.5z
				"/>
			<g>
				<path fill="#FFD600" d="M134.3,63.7c-2.7-5.8-8-5.8-11.1-3.6c-3,2.2-4.2,6.9,0.1,11.7c4.8,5.4,13.6,7.1,13.6,7.1
					S136.9,69.4,134.3,63.7z"/>
				<path fill="#FAED62" d="M139.6,63.7c2.6-5.8,8-5.8,11.1-3.6c3,2.2,4.2,6.9-0.1,11.7c-4.8,5.4-13.6,7.1-13.6,7.1
					S137,69.4,139.6,63.7z"/>
			</g>
			<g>
				<path fill="#FFD600" d="M134.3,83.2c-2.7-5.8-8-5.8-11.1-3.6c-3,2.2-4.2,6.9,0.1,11.7c4.8,5.4,13.6,7.1,13.6,7.1
					S136.9,88.8,134.3,83.2z"/>
				<path fill="#FAED62" d="M139.6,83.2c2.6-5.8,8-5.8,11.1-3.6c3,2.2,4.2,6.9-0.1,11.7c-4.8,5.4-13.6,7.1-13.6,7.1
					S137,88.8,139.6,83.2z"/>
			</g>
			<g>
				<path fill="#FFD600" d="M134.3,102.6c-2.7-5.8-8-5.8-11.1-3.6c-3,2.2-4.2,6.9,0.1,11.7c4.8,5.4,13.6,7.1,13.6,7.1
					S136.9,108.3,134.3,102.6z"/>
				<path fill="#FAED62" d="M139.6,102.6c2.6-5.8,8-5.8,11.1-3.6c3,2.2,4.2,6.9-0.1,11.7c-4.8,5.4-13.6,7.1-13.6,7.1
					S137,108.3,139.6,102.6z"/>
			</g>
			<g>
				<path fill="#FFD600" d="M134.3,122c-2.7-5.8-8-5.8-11.1-3.6c-3,2.2-4.2,6.9,0.1,11.7c4.8,5.4,13.6,7.1,13.6,7.1
					S136.9,127.7,134.3,122z"/>
				<path fill="#FAED62" d="M139.6,122c2.6-5.8,8-5.8,11.1-3.6c3,2.2,4.2,6.9-0.1,11.7c-4.8,5.4-13.6,7.1-13.6,7.1
					S137,127.7,139.6,122z"/>
			</g>
		</g>
		<g>
			<polygon fill="#FAED62" points="62.3,63.1 63.8,63.1 64.4,167.5 61.8,166.3 			"/>
			<path fill="#FFD600" d="M69.9,50.5c0-6.4-3-9.5-6.8-9.5c-3.8,0-6.8,3.1-6.8,9.5c0,6.4,6.8,13.8,6.8,13.8S69.9,56.9,69.9,50.5z"/>
			<g>
				<path fill="#FFD600" d="M60.4,63.7c-2.7-5.8-8-5.8-11.1-3.6c-3,2.2-4.2,6.9,0.1,11.7c4.8,5.4,13.6,7.1,13.6,7.1
					S63,69.4,60.4,63.7z"/>
				<path fill="#FAED62" d="M65.7,63.7c2.6-5.8,8-5.8,11.1-3.6c3,2.2,4.2,6.9-0.1,11.7c-4.8,5.4-13.6,7.1-13.6,7.1
					S63.1,69.4,65.7,63.7z"/>
			</g>
			<g>
				<path fill="#FFD600" d="M60.4,83.2c-2.7-5.8-8-5.8-11.1-3.6c-3,2.2-4.2,6.9,0.1,11.7c4.8,5.4,13.6,7.1,13.6,7.1
					S63,88.8,60.4,83.2z"/>
				<path fill="#FAED62" d="M65.7,83.2c2.6-5.8,8-5.8,11.1-3.6c3,2.2,4.2,6.9-0.1,11.7c-4.8,5.4-13.6,7.1-13.6,7.1
					S63.1,88.8,65.7,83.2z"/>
			</g>
			<g>
				<path fill="#FFD600" d="M60.4,102.6c-2.7-5.8-8-5.8-11.1-3.6c-3,2.2-4.2,6.9,0.1,11.7c4.8,5.4,13.6,7.1,13.6,7.1
					S63,108.3,60.4,102.6z"/>
				<path fill="#FAED62" d="M65.7,102.6c2.6-5.8,8-5.8,11.1-3.6c3,2.2,4.2,6.9-0.1,11.7c-4.8,5.4-13.6,7.1-13.6,7.1
					S63.1,108.3,65.7,102.6z"/>
			</g>
			<g>
				<path fill="#FFD600" d="M60.4,122c-2.7-5.8-8-5.8-11.1-3.6c-3,2.2-4.2,6.9,0.1,11.7c4.8,5.4,13.6,7.1,13.6,7.1
					S63,127.7,60.4,122z"/>
				<path fill="#FAED62" d="M65.7,122c2.6-5.8,8-5.8,11.1-3.6c3,2.2,4.2,6.9-0.1,11.7c-4.8,5.4-13.6,7.1-13.6,7.1
					S63.1,127.7,65.7,122z"/>
			</g>
		</g>
		<g>
			<polygon fill="#FAED62" points="99.2,47.2 100.8,47.2 101.5,174.8 98.6,174.8 			"/>
			<path fill="#FFD600" d="M106.8,34.7c0-6.4-3-9.5-6.8-9.5c-3.8,0-6.8,3.1-6.8,9.5c0,6.4,6.8,13.8,6.8,13.8S106.8,41.1,106.8,34.7z
				"/>
			<g>
				<path fill="#FFD600" d="M97.4,47.9c-2.7-5.8-8-5.8-11.1-3.6c-3,2.2-4.2,6.9,0.1,11.7C91.2,61.3,100,63,100,63
					S99.9,53.6,97.4,47.9z"/>
				<path fill="#FAED62" d="M102.6,47.9c2.6-5.8,8-5.8,11.1-3.6c3,2.2,4.2,6.9-0.1,11.7C108.8,61.3,100,63,100,63
					S100.1,53.6,102.6,47.9z"/>
			</g>
			<g>
				<path fill="#FFD600" d="M97.4,67.3c-2.7-5.8-8-5.8-11.1-3.6c-3,2.2-4.2,6.9,0.1,11.7c4.8,5.4,13.6,7.1,13.6,7.1
					S99.9,73,97.4,67.3z"/>
				<path fill="#FAED62" d="M102.6,67.3c2.6-5.8,8-5.8,11.1-3.6c3,2.2,4.2,6.9-0.1,11.7c-4.8,5.4-13.6,7.1-13.6,7.1
					S100.1,73,102.6,67.3z"/>
			</g>
			<g>
				<path fill="#FFD600" d="M97.4,86.7c-2.7-5.8-8-5.8-11.1-3.6c-3,2.2-4.2,6.9,0.1,11.7c4.8,5.4,13.6,7.1,13.6,7.1
					S99.9,92.4,97.4,86.7z"/>
				<path fill="#FAED62" d="M102.6,86.7c2.6-5.8,8-5.8,11.1-3.6c3,2.2,4.2,6.9-0.1,11.7c-4.8,5.4-13.6,7.1-13.6,7.1
					S100.1,92.4,102.6,86.7z"/>
			</g>
			<g>
				<path fill="#FFD600" d="M97.4,106.2c-2.7-5.8-8-5.8-11.1-3.6c-3,2.2-4.2,6.9,0.1,11.7c4.8,5.4,13.6,7.1,13.6,7.1
					S99.9,111.8,97.4,106.2z"/>
				<path fill="#FAED62" d="M102.6,106.2c2.6-5.8,8-5.8,11.1-3.6c3,2.2,4.2,6.9-0.1,11.7c-4.8,5.4-13.6,7.1-13.6,7.1
					S100.1,111.8,102.6,106.2z"/>
			</g>
		</g>
	</g>
</g>
</svg>
