<?xml version="1.0" encoding="utf-8"?>
<!-- Generator: Adobe Illustrator 18.0.0, SVG Export Plug-In . SVG Version: 6.00 Build 0)  -->
<!DOCTYPE svg PUBLIC "-//W3C//DTD SVG 1.1//EN" "http://www.w3.org/Graphics/SVG/1.1/DTD/svg11.dtd">
<svg version="1.1" xmlns="http://www.w3.org/2000/svg" xmlns:xlink="http://www.w3.org/1999/xlink" x="0px" y="0px"
	 viewBox="0 0 200 200" enable-background="new 0 0 200 200" xml:space="preserve">
<g id="Lag_2">
</g>
<g id="Lag_3">
	<path fill="#E8DCC8" d="M10,100c0-49.7,40.3-90,90-90s90,40.3,90,90s-40.3,90-90,90S10,149.7,10,100L10,100z"/>
	<g>
		<path fill="#BA7C3E" d="M161.7,49.6c-0.6,0-1.2-0.1-1.8-0.3c-1.7-0.5-3.4-1.9-4.9-4c-2.6-3.6-7.3-4.4-7.3-4.4
			c-0.6-0.1-0.9-0.6-0.8-1.2c0.1-0.6,0.6-0.9,1.2-0.8c0.2,0,5.5,1,8.6,5.2c3.8,5.1,6.8,3.1,7.8,2.5c0.5-0.3,1.1-0.2,1.4,0.3
			c0.3,0.5,0.2,1.1-0.3,1.4C164.3,49.2,163,49.6,161.7,49.6z"/>
	</g>
	<g>
		<path fill="#BA7C3E" d="M126.5,56.7c-0.6,0-1.6-1-3-2.3c-1.5-1.3-4.2-3.9-5.6-5.7c-0.9-1.2-1.2-2.2-0.8-2.8
			c1.4-2.2,5.9-5.9,7.1-6.6c0.5-0.3,1.1-0.1,1.4,0.4c0.3,0.5,0.1,1-0.4,1.4c-1.9,1.5-5.7,4.4-6.2,5.7c0.1,0.9,4.9,5.6,8.1,8.1
			C128.1,56,127.3,56.7,126.5,56.7z"/>
	</g>
	<path fill="#4D5442" d="M153.4,41.1c-2.6-1.7-5.2-2.1-5.4-2.2c-0.4-0.1-0.8,0.2-1,0.4h-21.5c-0.3-0.3-0.8-0.4-1.2-0.1
		c-0.6,0.4-2.7,1.9-4.5,3.6l1.5,1.7c1.1-0.9,2-1.9,3.1-2.7l0,21.7h23.8l0-22.3c0.9,0.2,2.5,0.8,4.2,1.9L153.4,41.1z"/>
	<g>
		<ellipse fill="#DDCCB3" cx="136.2" cy="76.5" rx="19.2" ry="3"/>
	</g>
	<g>
		<g>
			<rect x="146.3" y="68" fill="#BA7C3E" width="2" height="7.8"/>
		</g>
	</g>
	<g>
		<g>
			<path fill="#47443A" d="M146.1,76c0,0.5,0.4,0.8,1,0.8h2.7c0.5,0,1-0.4,1-0.8l0,0c0-0.5-0.4-0.8-1-0.8h-3.3
				C146,75.2,146.1,75.5,146.1,76L146.1,76z"/>
		</g>
	</g>
	<g>
		<g>
			<rect x="124.5" y="68" fill="#BA7C3E" width="2" height="7.8"/>
		</g>
	</g>
	<g>
		<g>
			<path fill="#47443A" d="M126.6,76c0,0.5-0.4,0.8-1,0.8h-2.7c-0.5,0-1-0.4-1-0.8l0,0c0-0.5,0.4-0.8,1-0.8h3.3
				C126.7,75.2,126.6,75.5,126.6,76L126.6,76z"/>
		</g>
	</g>
	<g>
		<path fill="#FFF4C7" d="M127.6,62h17.5h3.2v3.4v3.7H146v-1.3c0-1.3-1-2.4-2.4-2.7H129c-1.3,0.3-2.4,1.3-2.4,2.6v1.3h-2.4v-3.7V62
			H127.6z"/>
	</g>
	<g>
		<g>
			<path fill="#49351D" d="M149.4,33.1c0,0,0.4-0.1,0.4-1.1c0-1,0.2-11.4,0.2-11.4s7-6.2,1.5-13.9c0,0-0.5,5.3-4.8,4.6
				c-4.3-0.8-14-2.3-16.9-2.1c-2.9,0.1-8.6,2.3-8.1,9.9c0.5,7.6,1.3,16.5,1.7,17.9c0.6,1.7,21.7-1.5,21.7-1.5L149.4,33.1z"/>
		</g>
	</g>
	<g>
		<g>
			<path fill="#BA7C3E" d="M148.3,44.2c0,1.2-1.2,2.2-2.6,2.2l-18.7,0c-1.4,0-2.6-1-2.6-2.2l0-20.6c0-1.2,1.2-2.2,2.6-2.2l18.7,0
				c1.4,0,2.6,1,2.6,2.2L148.3,44.2z"/>
		</g>
	</g>
	<g>
		<g>
			<circle fill="#49351D" cx="130.1" cy="35.7" r="1.2"/>
		</g>
	</g>
	<g>
		<g>
			<circle fill="#EEEEEE" cx="129.6" cy="35.4" r="0.3"/>
		</g>
	</g>
	<g>
		<g>
			<circle fill="#49351D" cx="138.6" cy="35.1" r="1.2"/>
		</g>
	</g>
	<g>
		<g>
			<circle fill="#EEEEEE" cx="138.2" cy="34.8" r="0.3"/>
		</g>
	</g>
	<path fill="#373D2D" d="M127.2,55.2c-0.8-0.7-1.8-1.5-2.7-2.3v2.8c0.9,0.8,1.6,1.3,2,1.3C127.3,57.1,128.1,56.3,127.2,55.2z"/>
	<g>
		<path fill="#BA7C3E" d="M119.1,46.8c0.1,0.9,4.9,5.6,8.1,8.1c0.9,1.1,0,1.9-0.8,1.8c-0.6,0-1.6-1-3-2.3c-1.5-1.3-4.2-3.9-5.6-5.7
			c-0.9-1.2-1.2-2.2-0.8-2.8"/>
	</g>
	<g>
		<ellipse fill="#DDCCB3" cx="71.2" cy="147.2" rx="28.7" ry="7.2"/>
		<g>
			<path fill="#3D290F" d="M54.9,131.3c-0.1,0.3-0.5,3.2-0.5,4.9l2.1,8.6c0,0.5,0.5,0.9,1.1,0.9h2.7c0.6,0,1.1-0.4,1.1-0.9l-1.3-8.6
				c-0.1-1.4,0.4-5.5,0.3-5.7L54.9,131.3z"/>
			<path fill="#FFBFB3" d="M65.5,127.3c0-4.2-3.6-7.6-8-7.6c-4.4,0-8,3.4-8,7.6c0,1.8,0.7,3.5,1.8,4.8v4.4c0,0,0,0,0,0v0.1
				c0,0.7,0.6,1.3,1.3,1.3c0.7,0,1.3-0.6,1.3-1.3v-2.5c0.7,0.3,1.4,0.6,2.2,0.7v1.7c0,0,0,0,0,0v0.1c0,0.7,0.6,1.3,1.3,1.3
				c0.7,0,1.3-0.6,1.3-1.3v-1.8c0.8-0.1,1.5-0.4,2.2-0.7v2.5c0,0.7,0.6,1.3,1.3,1.3c0.7,0,1.3-0.6,1.3-1.3v-4.5
				C64.9,130.8,65.5,129.1,65.5,127.3z"/>
			<path fill="#3D290F" d="M93.5,91.1c-2.9,2.2-6,2.6-8.4,3h-5.9l-10.4,2.6l-10.7-2.6h-8.9c0,0-0.1,0-0.1,0
				c-2.3,0.1-3.4,0.2-3.9,0.3c-6.2,1.9-6.1,8-6.1,12.5l0,1.2v5.8v0.4l-1.2,1.9c-1.3,2.1-1.3,5.4,1,6c2.3,0.6,3.9-2.3,3.8-4.8
				l-0.1-2.3c0-0.3-0.1-0.5-0.2-0.7v-6.4c0,0,0-1.2,0-1.2c-0.1-4.6,0.2-7.7,3-9v10l2.6,7.4l-2.6,8.1v2.8c0,0,0,0.1,0,0.1l-1.3,8.5
				l3.1,13.4c0,0.6,0.5,1.1,1.1,1.1h2.7c0.6,0,1.1-0.5,1.1-1.1l-1.4-10l-0.4-3.1l0.3-1.2c0,0,0.4-1.3,0.5-2.2
				c0.8-3.8,8.6-3.9,15.2-2.1c1.7,0.5,3.3,0.9,4.7,1.2c0.9,0.3,5.7-1,7.5-0.9c3.2,0.2,4.8,2,4.8,2l0.7,12.6c0,0.6,0.5,1.1,1.1,1.1
				h2.7c0.6,0,1.1-0.5,1.1-1.1l0.6-12c0.2-0.1,0.4-0.2,0.6-0.4l0.8,16c0,0.6,0.5,1.1,1.1,1.1h2.7c0.6,0,1.1-0.5,1.1-1.1l0.9-19.4
				c0-1.1,0.3-4.5,0.7-6.6c0.4-2,0.7-5.8,0.9-8.3c0,0-0.6-3.4-0.4-3.7c1-1.7,4.3-10.2,13.3-9c0,0,3.2,2.2,4.9-1.3
				c0.7-1.5,0.9-2.2,0.8-3.9c-0.1-1.3-0.4-2.1-1.4-2.8c-0.4-0.3-0.7-0.4-1.2-0.7c-0.4-0.2-1.1-0.5-1.4-0.9c-0.7-0.9-1.9-5.6-1.9-5.6
				c-1.7-1.7-2.6-2.7-4.8-3.5c-2.2-0.8-4.5,0.4-6.6,2.8c-2.2-1.8-6-3-7.8-2.2c-1,0.4-1,1.2-0.5,2.1c0.8,1.5,3.1,3.3,4.4,3.9
				L93.5,91.1z"/>
			<g>
				<path fill="#F0F0F0" d="M53.2,123.2c-3.5-1.5-4.7,3.7-7.8,0.2V108c0.4-2.5,3.3-4.9,5.6-2.5c2.8,3.1,1.2,8.5,3.1,10.2
					C58.7,120,56.5,124.6,53.2,123.2z"/>
				<path fill="#F0F0F0" d="M58.1,94.1h21.1c0,0,7.8,4.2,5.5,10c-1,2.5-3.3,4.7-6.2,3.2c-1.9-1-4.9-1.2-6.3,2.4
					c-1.8,4.3-10.4,4.8-9.9,0.4C63.3,100.1,54.7,101.1,58.1,94.1z"/>
				<path fill="#F0F0F0" d="M82.9,126.1l0.4,5.9c0,0-2.6,1.3-12.2-1.1c0,0-2.4-1.6-3.1-3.3c-0.9-1.9,0-4,2.1-3.6
					c5.3,1.1,5.2-3.8,7.9-5.1c4.5-2.2,6.1,2,6.1,2L82.9,126.1z"/>
				<path fill="#F0F0F0" d="M111.6,102.3c0,0,4.3,1.1,6-2.4c0.7-1.5,0.9-2.2,0.8-3.9c-0.1-1.3-1.1-2.5-2.1-3.3
					c-0.4-0.3-0.9-0.6-1.3-0.8c-0.4-0.3-0.9-0.5-1.2-1c-0.7-0.9-1-1.9-1.4-3c-0.1-0.3-0.3-0.7-0.4-1c0,0,0,0,0,0
					c-0.5-0.9-1.2-1.6-2.1-2.2c-2.1,0.2-5.4,1.8-6.3,5.3c-0.9,3.3,1.4,5.1,2.3,6.8c0.8,1.6,0,3-1.8,4.1c-6.9,4.1-6.8,8.1-5.6,13
					c0.1-1.2,0.3-2.1,0.5-2.4C99.8,109.8,102.5,101.1,111.6,102.3z"/>
			</g>
			<path fill="#FFBFB3" d="M117.6,99.9c0.7-1.5,0.9-2.2,0.8-3.9c0-0.8-0.5-1.6-1-2.3c-4.5-0.3-5.8,4.8-4.2,8.7
				C114.5,102.5,116.6,102,117.6,99.9z"/>
			<circle fill="#282828" cx="109.5" cy="90.1" r="1.2"/>
		</g>
	</g>
	<g>
		<ellipse fill="#DDCCB3" cx="156.2" cy="123.9" rx="5.6" ry="1.6"/>
		<g>
			<path fill="#BF390F" d="M149.8,102.3c0.1,0,0.1,0,0.1,0c0.6,0,1.5,0.2,2-0.2c0.6-0.6-0.1-1.3-0.7-1.4c-0.5-0.1-1-0.1-1.5,0
				c0.2,0,1.2-0.3,0.9-1.2c-0.3-0.8-1.7-0.2-2.1,0.1c0.1-0.3,0.1-0.7-0.1-0.9c-0.4-0.4-0.8,0.2-1,0.5c-0.3,0.4-0.3,0.9-0.3,1.4
				c0,0.2,0,0.4,0,0.6C147,101.2,148.6,100.7,149.8,102.3z"/>
			<path fill="#BF390F" d="M147.6,103.8c0.2,0.6,0.1,1.2-0.3,1.4c-0.9,0.4-1.5-0.2-1.3-0.8c0.2-0.9,0-1.2,0.4-1.4
				C146.8,102.9,147.4,103.2,147.6,103.8z"/>
			<g>
				<polygon fill="#FCDD5E" points="156.6,123.3 155.8,123.3 155.6,119.2 156.8,119.2 				"/>
				<path fill="#FCDD5E" d="M156.6,122.9c-0.3-0.2,0-0.4-0.3-0.4c0,0-1.1,0.3-3.1,1.3c0,0-0.4,0.3,0.1,0.3c0.5,0,1.7-0.6,3-0.3
					c1.3,0.3,1.9,1.1,1.9,0.7C158.3,124.2,157.3,123.4,156.6,122.9z"/>
			</g>
			<path fill="#E5DCAE" d="M152.3,116.4c0,0,1.6,1.3,2.3,3c0.5,1.2,2.1,1.3,2.9,0.7c0.8-0.6,1-1.6,2.7-2.4
				C160.9,117.5,152.3,116.4,152.3,116.4z"/>
			<path fill="#F0F0F0" d="M166.9,108.1c-0.2-0.2-0.7-0.3-1.3-0.1c1.3-0.8,1.4-1.9,1-2.4c-0.3-0.4-1.1-0.3-2,0.2
				c0.9-2.3-0.5-3-1.8-1.4c-0.6,0.7-1.6,3.3-4.4,3.8c-1.8,0.4-2.2,0.3-4.6-0.8c-0.3-0.2-0.9-1.1-1.7-2.7c-1.5-2.9-4-4.7-5.7-3.4
				c-0.9,0.6-0.9,1.9,0.3,2.7c0.9,0.5,1.3,2.2,0.9,3.2c-1.1,2.4-2.6,6,1.7,8.3c2.7,1.4,3.7,4.4,9.4,3.5c3.2-0.5,4.9-3.8,5.7-6.3
				c0.1-0.4,0.2-0.8,0.1-1.2c0.1,0,0.2-0.1,0.3-0.1C166.9,110.4,167.3,108.6,166.9,108.1z"/>
			<g>
				<path fill="#E5DCAE" d="M164.5,105.7c-0.1,0.3-0.2,0.3-0.3,0.4c0.2-0.2,0.4-0.2,0.5-0.3c0.5-1.2,0.3-1.9-0.1-2.1
					C164.9,104,164.9,104.7,164.5,105.7z"/>
				<path fill="#E5DCAE" d="M165.5,107.7c-0.4,0.3-1.1,0.6-1.2,0.6c0.3-0.1,0.3-0.1,0.5-0.2c0.5-0.2,0.8-0.2,0.8-0.2
					c0.7-0.4,1.1-0.9,1.2-1.5c0-0.1,0-0.3,0-0.4C166.8,106.6,166.4,107.2,165.5,107.7z"/>
				<path fill="#E5DCAE" d="M166.9,108.1C166.9,108.1,166.8,108.1,166.9,108.1c0.2,0.5-0.6,1.9-2.5,2.6c-0.1,0-0.2,0.1-0.3,0.1
					c0.2,0.1,0.3,0.2,0.4,0.4c0,0,0,0,0,0c0,0,0.3-0.1,0.3-0.1c1.3-0.5,2-1.4,2.2-2.1C167.1,108.6,167,108.3,166.9,108.1z"/>
				<path fill="#E5DCAE" d="M155.7,113.1c0.3,0,0.5,0,0.7-0.1c0.2,0,0.4-0.1,0.6-0.3c0.2-0.2,0.3-0.4,0.3-0.6c0.3,0.2,0.7,0.2,1-0.1
					c0.3-0.3,0.4-0.7,0.2-1c0,0,0,0,0,0c0.3,0.2,0.8,0.2,1.2-0.1c0.1-0.1,0.1-0.1,0.2-0.2c0.2-0.3,0.2-0.8-0.1-1.1
					c0,0-0.1-0.1-0.1-0.1c0,0,0,0,0,0c0,0-0.1-0.1-0.1-0.1c-0.6-0.5-1.4-0.7-2.1-0.7c0,0-0.1,0-0.1,0l0,0c0.6-0.1,1.3-0.1,1.9,0
					c0.9,0.2,1.7,0.5,2.3,1.2c0,0,0.1,0.1,0.1,0.1c0,0,0,0,0,0c0,0.1,0.1,0.1,0.1,0.2c0.3,0.4,0.2,1-0.1,1.3
					c-0.1,0.1-0.1,0.1-0.2,0.2c-0.4,0.3-1,0.2-1.4-0.1c0,0,0,0,0,0c0.1,0.4-0.1,0.8-0.5,1.1c-0.4,0.3-0.9,0.2-1.2-0.1
					c-0.1,0.2-0.2,0.4-0.5,0.6c-0.2,0.1-0.5,0.2-0.7,0.2c-0.3,0-0.5,0-0.9,0c0,0-2.4-0.2-3.2,0.6
					C153.6,113.2,155.7,113.1,155.7,113.1z"/>
			</g>
			<path fill="#FCDD5E" d="M146.3,103.6c-0.2,0-1.5-0.3-1.5-0.3c0,0,0,0,0,0c0,0,0,0,0-0.1c0.2-0.2,0.4-0.3,0.5-0.4
				c0.2-0.2,0.4-0.3,0.5-0.4c0,0,0,0,0,0c0.1,0,0.3,0,0.4,0.1c0.2,0.2,0.3,0.7,0.3,1C146.5,103.6,146.5,103.6,146.3,103.6z"/>
			<circle fill="#3F3F3F" cx="147.6" cy="102.2" r="0.4"/>
		</g>
	</g>
	<g>
		<ellipse fill="#DDCCB3" cx="67.2" cy="67.5" rx="14.8" ry="2.2"/>
		<g>
			<path fill="#C25B3C" d="M68.7,63c0,0,1.4,4.1,1.5,4.4c0.1,0.4,4.8,0.4,4.9-0.2c0.1-0.5,0.7-4.9,0.7-4.9L68.7,63z"/>
			<path fill="#C25B3C" d="M51.9,49.1c0,0-0.7,3.9,1.8,1.9l0.1,0.9c0,0-1.8,1.2-2.4,0.2c-0.5-0.7-0.2-2.3-0.1-2.7
				C51.4,49.1,51.9,49.1,51.9,49.1z"/>
			<path fill="#FF997A" d="M51.9,55.8c0,5.3,5.5,9.6,14.7,9.6c9.2,0,16.6-4.3,16.6-9.6s-7.4-9.6-16.6-9.6
				C57.4,46.2,51.9,50.5,51.9,55.8z"/>
			<path fill="#FF997A" d="M79.7,51.2c0,0-0.2-3,0.7-6.1c0.3-0.9-0.2-1.1-1.4-0.3c-2,1.3-4,3.8-5.8,3.7L79.7,51.2z"/>
			<g>
				<path fill="#FF997A" d="M80.5,59.6c0,0,4.2-1,4.4-1.1s0.9-4.8,0.4-4.9c-0.5-0.1-4.9-1.2-4.9-1.2V59.6z"/>
				<path fill="#C25B3C" d="M84.9,56.4c0.1-1,0.2-2,0.4-2.7c0.4,0.4-0.2,4.8-0.4,4.8c0,0,0,0,0,0C84.9,57.9,84.9,57.2,84.9,56.4z"/>
			</g>
			<path fill="#FF997A" d="M70.5,63.7c0,0,1.4,4.1,1.5,4.4c0.1,0.4,4.8,0.4,4.9-0.2c0.1-0.5,0.7-4.9,0.7-4.9L70.5,63.7z"/>
			<path fill="#FF997A" d="M63.3,63.7c0,0-1.4,4.1-1.5,4.4c-0.1,0.4-4.8,0.4-4.9-0.2c-0.1-0.5-0.7-4.9-0.7-4.9L63.3,63.7z"/>
			<path fill="#FF997A" d="M51.9,49.2c0.1-0.3-0.2-0.7-0.5-0.5c-0.3,0.2-0.9,1.9-2.2,1.6c-0.6-0.1-0.4,0.4,0,0.5
				c0.4,0.1,1.2,0.3,1.9-0.4C51.6,49.9,51.8,49.5,51.9,49.2z"/>
			<circle fill="#8F4731" cx="79.5" cy="53.4" r="0.8"/>
		</g>
	</g>
	<g>
		<path fill="#208961" d="M165.8,36.1l1.2-7.5c0.1-0.3-0.2-0.6-0.5-0.7c-0.3-0.1-0.6,0.2-0.7,0.5l-0.8,4.8c0,0.1-0.1,0.3-0.3,0.2
			l0,0c-0.1,0-0.3-0.2-0.2-0.3l1-6.3c0.1-0.3-0.2-0.6-0.5-0.7c-0.3-0.1-0.6,0.2-0.7,0.5l-0.9,5.8c0,0.1-0.1,0.2-0.2,0.1l0,0
			c-0.1,0-0.2-0.1-0.2-0.2l0.6-3.6c0.1-0.3-0.2-0.6-0.5-0.7c-0.3-0.1-0.6,0.2-0.7,0.5l-1.1,6.9L165.8,36.1z"/>
		<path fill="#FF8500" d="M163.2,54.3c-0.2,1.3-1.5,2.2-2.8,2l0,0c-1.3-0.2-2.2-1.5-2-2.8l0.8-16.5c0.2-1.3,1.5-2.2,2.8-2l3.7,0.6
			c1.3,0.2,2.2,1.5,2,2.8L163.2,54.3z"/>
		<path fill="#D86C00" d="M162.1,38.6l-3-0.5l-0.1,1.2l2.8,0.5c0.3,0.1,0.6-0.2,0.7-0.5C162.6,39,162.4,38.7,162.1,38.6z"/>
		<path fill="#D86C00" d="M160.6,47.6l-2-0.3l-0.1,1.1l1.8,0.3c0.3,0.1,0.6-0.2,0.7-0.5C161.1,47.9,160.9,47.7,160.6,47.6z"/>
		<path fill="#D86C00" d="M166.1,43.9l-2.5-0.4c-0.3-0.1-0.6,0.2-0.7,0.5c-0.1,0.3,0.2,0.6,0.5,0.7l2.3,0.4L166.1,43.9z"/>
		<path fill="#D86C00" d="M163.7,52.3l-1.5-0.2c-0.3-0.1-0.6,0.2-0.7,0.5s0.2,0.6,0.5,0.7l1.4,0.2L163.7,52.3z"/>
	</g>
	<path fill="#49351D" d="M137.7,41.5C137.7,41.5,137.7,41.5,137.7,41.5c-2.3-1.2-4.4-0.4-6.7-0.4c-0.1,0-0.2,0.1-0.3,0.2
		c-0.3,0.2-0.2,0.7,0.2,0.7c2.3-0.3,4.4,0.6,6.7,0.3C138,42.2,138,41.6,137.7,41.5z"/>
</g>
</svg>
