<?xml version="1.0" encoding="utf-8"?>
<!-- Generator: Adobe Illustrator 18.0.0, SVG Export Plug-In . SVG Version: 6.00 Build 0)  -->
<!DOCTYPE svg PUBLIC "-//W3C//DTD SVG 1.1//EN" "http://www.w3.org/Graphics/SVG/1.1/DTD/svg11.dtd">
<svg version="1.1" id="Lag_1" xmlns="http://www.w3.org/2000/svg" xmlns:xlink="http://www.w3.org/1999/xlink" x="0px" y="0px"
	 viewBox="0 0 200 200" enable-background="new 0 0 200 200" xml:space="preserve">
<g>
	<circle fill="#FFC400" cx="100" cy="100" r="90"/>
	<g>
		<g>
			<path fill="#FFEB3B" d="M113.7,77.9L106,10.9c-2-0.1-4-0.2-6-0.2c-2,0-4,0.1-6,0.2l16.4,67.1H113.7z"/>
			<path fill="#FFEB3B" d="M113.7,125.2l-7.7,63.9c-2,0.1-4,0.2-6,0.2c-2,0-4-0.1-6-0.2l16.4-63.9H113.7z"/>
		</g>
		<g>
			<path fill="#FFEB3B" d="M88.4,100l-77.5-6c-0.1,2-0.2,4-0.2,6c0,2,0.1,4,0.2,6l77.5-2.8V100z"/>
			<path fill="#FFEB3B" d="M135.7,100l53.4-6c0.1,2,0.2,4,0.2,6c0,2-0.1,4-0.2,6l-53.4-2.8V100z"/>
		</g>
		<g>
			<path fill="#FFEB3B" d="M96.5,83.7l-55.2-51c-1.5,1.3-3,2.7-4.4,4.1c-1.4,1.4-2.8,2.9-4.1,4.4L94.2,86L96.5,83.7z"/>
			<path fill="#FFEB3B" d="M129.9,117.1l37.4,41.6c-1.3,1.5-2.7,3-4.1,4.4c-1.4,1.4-2.9,2.8-4.4,4.1l-31.2-47.8L129.9,117.1z"/>
		</g>
		<g>
			<path fill="#FFEB3B" d="M94.2,117.2l-61.4,41.6c1.3,1.5,2.7,3,4.1,4.4c1.4,1.4,2.9,2.8,4.4,4.1l55.2-47.8L94.2,117.2z"/>
			<path fill="#FFEB3B" d="M127.6,83.7l31.2-51c1.5,1.3,3,2.7,4.4,4.1c1.4,1.4,2.8,2.9,4.1,4.4L129.9,86L127.6,83.7z"/>
		</g>
		<g>
			<path fill="#FFEB3B" d="M104.5,79.1L71.4,15.4c-1.9,0.6-3.8,1.3-5.6,2.1c-1.9,0.8-3.7,1.6-5.5,2.5l41.1,60.4L104.5,79.1z"/>
			<path fill="#FFEB3B" d="M122.6,122.8l17.1,57.2c-1.8,0.9-3.6,1.7-5.5,2.5c-1.9,0.8-3.7,1.5-5.6,2.1l-9-60.6L122.6,122.8z"/>
		</g>
		<g>
			<path fill="#FFEB3B" d="M89.6,109.1l-74.2,19.4c0.6,1.9,1.3,3.8,2.1,5.6c0.8,1.9,1.6,3.7,2.5,5.5l70.9-27.5L89.6,109.1z"/>
			<path fill="#FFEB3B" d="M133.3,91L180,60.4c0.9,1.8,1.7,3.6,2.5,5.5c0.8,1.9,1.5,3.7,2.1,5.6L134.5,94L133.3,91z"/>
		</g>
		<g>
			<path fill="#FFEB3B" d="M90.8,91L20,60.4c-0.9,1.8-1.7,3.6-2.5,5.5c-0.8,1.9-1.5,3.7-2.1,5.6L89.6,94L90.8,91z"/>
			<path fill="#FFEB3B" d="M134.5,109.1l50.1,19.4c-0.6,1.9-1.3,3.8-2.1,5.6c-0.8,1.9-1.6,3.7-2.5,5.5l-46.8-27.5L134.5,109.1z"/>
		</g>
		<g>
			<path fill="#FFEB3B" d="M101.5,122.8L60.4,180c1.8,0.9,3.6,1.7,5.5,2.5c1.9,0.8,3.7,1.5,5.6,2.1l33.1-60.6L101.5,122.8z"/>
			<path fill="#FFEB3B" d="M119.6,79.1l9-63.7c1.9,0.6,3.8,1.3,5.6,2.1c1.9,0.8,3.7,1.6,5.5,2.5l-17.1,60.4L119.6,79.1z"/>
		</g>
		<circle fill="#FFEB3B" cx="112" cy="102.1" r="26.1"/>
	</g>
</g>
<g>
	<path fill="#6D8F00" d="M10.3,100c0,49.5,40.2,89.7,89.7,89.7c33,0,61.9-17.9,77.5-44.6c-33-24.2-86.2-52.8-164.6-66.5
		C11.2,85.5,10.3,92.6,10.3,100z"/>
	<g>
		<path fill="#A0BB3A" d="M70.4,184.7c8.1,2.8,16.6,4.5,25.6,4.9c4.5-28.6,19.4-56.3,31.3-74.7c-3.1-1.5-6.2-3-9.5-4.5
			C89.8,140.8,75.6,171.6,70.4,184.7z"/>
		<path fill="#A0BB3A" d="M11.5,114.8c1.7,10.5,5.3,20.3,10.3,29.3c24.2-21.4,58.5-32.9,83-38.8c0.2,0,0.3-0.1,0.4-0.3
			c-3.1-1.3-6.3-2.5-9.5-3.8C47.9,100.9,22.5,109.5,11.5,114.8z"/>
		<path fill="#A0BB3A" d="M12.1,82.1c-1.2,5.8-1.8,11.8-1.8,17.9c0,0.1,0,0.2,0,0.3c0.1,0.1,0.3,0.1,0.5,0c25.5-7,54.1-5.7,72.7-3.7
			c-12.1-4.2-25.1-8.1-39-11.5C33.8,83.7,23,82.6,12.1,82.1z"/>
		<path fill="#A0BB3A" d="M31.1,157.4c7.1,8.5,15.6,15.6,25.3,21c13.5-29,39.5-53.2,59.1-68.5c0.1-0.1,0.2-0.2,0.2-0.4
			c-2.2-1-4.4-2-6.7-2.9C67,123.9,39.5,149,31.1,157.4z"/>
		<path fill="#A0BB3A" d="M111.1,189c9.5-1.2,18.5-3.8,26.8-7.7c-2.4-16.8-0.8-36.5,4.7-58.5c-4.1-2.3-8.3-4.5-12.8-6.7
			C117.3,145.5,112.7,171.8,111.1,189z"/>
		<path fill="#A0BB3A" d="M149.3,174.9c11.5-7.6,21.2-17.8,28.1-29.8c-8.9-6.5-19.2-13.3-31.1-20.1
			C145.2,146.2,147.3,163.7,149.3,174.9z"/>
	</g>
</g>
</svg>
