<?xml version="1.0" encoding="utf-8"?>
<!-- Generator: Adobe Illustrator 18.0.0, SVG Export Plug-In . SVG Version: 6.00 Build 0)  -->
<!DOCTYPE svg PUBLIC "-//W3C//DTD SVG 1.1//EN" "http://www.w3.org/Graphics/SVG/1.1/DTD/svg11.dtd">
<svg version="1.1" xmlns="http://www.w3.org/2000/svg" xmlns:xlink="http://www.w3.org/1999/xlink" x="0px" y="0px"
	 viewBox="0 0 200 200" enable-background="new 0 0 200 200" xml:space="preserve">
<g id="Lag_2">
</g>
<g id="Lag_1">
	<g>
		<path fill="#83C1CC" d="M190,100c0,32.1-18.8,90-90,90c-49.7,0-90-40.3-90-90c0-49.7,40.3-90,90-90S190,50.3,190,100z"/>
		<g>
			<path fill="#A0BB3A" d="M14.2,127.7C26.3,165,60.7,190,99.9,190c59,0,79.2-39,85.9-62.3H14.2z"/>
			<g>
				<path fill="#8C964A" d="M98.7,127.7l-3.2,62.2c1.4,0.1,2.9,0.1,4.4,0.1c2,0,4-0.1,5.9-0.2l-3.3-62.2H98.7z"/>
				<path fill="#8C964A" d="M142.7,127.7c11.5,3.5,24.4,8.9,37.6,14.6c0.7-1.5,1.3-2.9,1.9-4.4c-10.5-4.2-20.7-7.5-30.2-10.2H142.7z
					"/>
				<path fill="#8C964A" d="M121.9,127.7c12.6,5.9,29.6,16,48.5,30.8c1.5-2,2.9-4,4.2-6c-17.2-11.9-33.5-19.3-45.8-24.8H121.9z"/>
				<path fill="#8C964A" d="M112.1,127.7h-4.9c9.3,8.8,23,26.5,37.8,52.2c2.7-1.4,5.2-3,7.6-4.6C137.3,152.2,122,136.6,112.1,127.7z
					"/>
				<path fill="#8C964A" d="M48.4,127.7c-9.5,2.7-19.8,6-30.2,10.2c0.7,1.5,1.4,2.9,2.2,4.3c13.1-5.6,25.9-11,37.3-14.5H48.4z"/>
				<path fill="#8C964A" d="M71.2,127.7c-12.1,5.4-28,12.7-44.9,24.2c1.4,2,2.9,3.9,4.4,5.8c18.4-14.3,35-24.1,47.4-29.9H71.2z"/>
				<path fill="#8C964A" d="M88,127.7c-9.5,8.8-23.2,24.7-37.9,47.3c2.4,1.6,5,3.1,7.6,4.5C71.9,154.3,84,136.5,93,127.7H88z"/>
				<path fill="#8C964A" d="M185.8,127.7h-2c0.6,0.2,1.2,0.5,1.8,0.7C185.6,128.2,185.7,127.9,185.8,127.7z"/>
				<path fill="#8C964A" d="M14.2,127.7c0.1,0.2,0.2,0.5,0.3,0.7c0.6-0.3,1.2-0.5,1.8-0.7H14.2z"/>
			</g>
		</g>
		<g opacity="0.62">
			<polygon fill="#ABEDDE" points="115,149.9 47.6,149.9 70.6,100.2 138,100.2 			"/>
		</g>
		<g>
			<path fill="#2F7580" d="M154.9,88.1c0-8.5-6.7-15.4-15.1-15.8c0.3-1.2,0.4-2.4,0.4-3.7c0-8.7-7.1-15.8-15.8-15.8
				c-2.1,0-4.1,0.4-5.9,1.2c-1.6-7.1-7.9-12.5-15.5-12.5c-7.6,0-13.9,5.3-15.5,12.5c-1.8-0.7-3.8-1.2-5.9-1.2
				c-8.8,0-15.8,7.1-15.8,15.8c0,1.3,0.2,2.5,0.4,3.7c-8.4,0.4-15.1,7.3-15.1,15.8c0,8.6,6.9,15.6,15.4,15.8v0h73.5v-0.1
				C148.4,103.3,154.9,96.5,154.9,88.1z"/>
			<path fill="#78979B" d="M154.9,87c0-8.5-6.7-15.4-15.1-15.8c0.3-1.2,0.4-2.4,0.4-3.7c0-8.7-7.1-15.8-15.8-15.8
				c-2.1,0-4.1,0.4-5.9,1.2c-1.6-7.1-7.9-12.5-15.5-12.5c-7.6,0-13.9,5.3-15.5,12.5c-1.8-0.7-3.8-1.2-5.9-1.2
				c-8.8,0-15.8,7.1-15.8,15.8c0,1.3,0.2,2.5,0.4,3.7c-8.4,0.4-15.1,7.3-15.1,15.8c0,8.6,6.9,12.6,15.4,12.9v0h73.5v-0.1
				C148.4,99.3,154.9,95.4,154.9,87z"/>
		</g>
	</g>
</g>
</svg>
