<?xml version="1.0" encoding="utf-8"?>
<!-- Generator: Adobe Illustrator 18.0.0, SVG Export Plug-In . SVG Version: 6.00 Build 0)  -->
<!DOCTYPE svg PUBLIC "-//W3C//DTD SVG 1.1//EN" "http://www.w3.org/Graphics/SVG/1.1/DTD/svg11.dtd">
<svg version="1.1" xmlns="http://www.w3.org/2000/svg" xmlns:xlink="http://www.w3.org/1999/xlink" x="0px" y="0px"
	 viewBox="0 0 200 200" enable-background="new 0 0 200 200" xml:space="preserve">
<g id="Lag_2">
</g>
<g id="Lag_1">
	<path fill="#333D3A" d="M101.4,190C51,190,10,149.6,10,100c0-49.6,41-90,91.4-90s91.4,40.4,91.4,90
		C192.8,149.6,151.8,190,101.4,190z"/>
	<path fill="#1F916E" d="M83,47c0.3-20.2-15.9-36.7-36-37C26.8,9.7,10.3,25.9,10,46C9.7,66.2,25.9,82.7,46,83
		C66.2,83.3,82.7,67.1,83,47z"/>
	<g>
		<g>
			<g>
				<g>
					<path fill="#FFFFFF" d="M58.6,43.8h-3.3c-0.4,0-0.8,0-1.1,0L43,28.4L39.6,28l5.7,15.7c-3.4,0-6.7,0.2-9.3,0.5L29.8,45l-3.6-4.7
						l-1.3-0.2l1.8,5.3c-1.8,0.3-2.8,0.7-2.8,1.1h45.5C69.5,45,64.6,43.8,58.6,43.8z"/>
					<path fill="#CCD8E2" d="M24,46.5c0,0.4,0.9,0.8,2.8,1.1l-1.8,5.3l1.3-0.2l3.6-4.7l6.3,0.8c2.6,0.3,5.9,0.5,9.3,0.5l-5.8,15.7
						l3.4-0.4l11.2-15.4c0.4,0,0.7,0,1.1,0l3.3,0c6,0,10.9-1.2,10.9-2.7v0H24z"/>
					<path fill="#CCD8E2" d="M67.4,46.5h1.2c0-0.5-0.7-1.1-1.8-1.5C67.1,45.5,67.4,46,67.4,46.5z"/>
					<path fill="#698CA9" d="M68.6,46.5h-1.2h0c0,0,0,0,0,0c0,0.5-0.2,1-0.6,1.5C67.9,47.6,68.6,47.1,68.6,46.5L68.6,46.5z"/>
					<g>
						<path fill="#CCD8E2" d="M62.5,44.7c0-0.2-0.3-0.3-0.7-0.3c-0.4,0-0.7,0.1-0.7,0.3c0,0.2,0.3,0.3,0.7,0.3
							C62.2,45,62.5,44.9,62.5,44.7z"/>
						<path fill="#CCD8E2" d="M58.6,44.7c0-0.2-0.3-0.3-0.7-0.3c-0.4,0-0.7,0.1-0.7,0.3c0,0.2,0.3,0.3,0.7,0.3
							C58.3,45,58.6,44.9,58.6,44.7z"/>
						<path fill="#CCD8E2" d="M54.8,44.7c0-0.2-0.3-0.3-0.7-0.3c-0.4,0-0.7,0.1-0.7,0.3c0,0.2,0.3,0.3,0.7,0.3
							C54.4,45,54.8,44.9,54.8,44.7z"/>
						<path fill="#CCD8E2" d="M50.9,44.7c0-0.2-0.3-0.3-0.7-0.3c-0.4,0-0.7,0.1-0.7,0.3c0,0.2,0.3,0.3,0.7,0.3
							C50.5,45,50.9,44.9,50.9,44.7z"/>
						<ellipse fill="#CCD8E2" cx="46.2" cy="44.7" rx="0.7" ry="0.3"/>
						<ellipse fill="#CCD8E2" cx="42.3" cy="44.7" rx="0.7" ry="0.3"/>
						<path fill="#CCD8E2" d="M39.2,44.7c0-0.2-0.3-0.3-0.7-0.3c-0.4,0-0.7,0.1-0.7,0.3c0,0.2,0.3,0.3,0.7,0.3
							C38.9,45,39.2,44.9,39.2,44.7z"/>
					</g>
					<g>
						<path fill="#698CA9" d="M62.5,48.3c0-0.2-0.3-0.3-0.7-0.3c-0.4,0-0.7,0.1-0.7,0.3c0,0.2,0.3,0.3,0.7,0.3
							C62.2,48.6,62.5,48.4,62.5,48.3z"/>
						<path fill="#698CA9" d="M58.6,48.3c0-0.2-0.3-0.3-0.7-0.3c-0.4,0-0.7,0.1-0.7,0.3c0,0.2,0.3,0.3,0.7,0.3
							C58.3,48.6,58.6,48.4,58.6,48.3z"/>
						<path fill="#698CA9" d="M54.8,48.3c0-0.2-0.3-0.3-0.7-0.3c-0.4,0-0.7,0.1-0.7,0.3c0,0.2,0.3,0.3,0.7,0.3
							C54.4,48.6,54.8,48.4,54.8,48.3z"/>
						<path fill="#698CA9" d="M50.9,48.3c0-0.2-0.3-0.3-0.7-0.3c-0.4,0-0.7,0.1-0.7,0.3c0,0.2,0.3,0.3,0.7,0.3
							C50.5,48.6,50.9,48.4,50.9,48.3z"/>
						<ellipse fill="#698CA9" cx="46.2" cy="48.3" rx="0.7" ry="0.3"/>
						<ellipse fill="#698CA9" cx="42.3" cy="48.3" rx="0.7" ry="0.3"/>
						<path fill="#698CA9" d="M39.2,48.3c0-0.2-0.3-0.3-0.7-0.3c-0.4,0-0.7,0.1-0.7,0.3c0,0.2,0.3,0.3,0.7,0.3
							C38.9,48.6,39.2,48.4,39.2,48.3z"/>
					</g>
				</g>
				<path fill="#FFFFFF" d="M40.8,38.8c0,0.7,0.6,1.3,1.3,1.3h2.9c0.7,0,1.3-0.6,1.3-1.3v0c0-0.7-0.6-1.3-1.3-1.3h-2.9
					C41.3,37.5,40.8,38.1,40.8,38.8L40.8,38.8z"/>
			</g>
			<path fill="#CCD8E2" d="M40.8,54.2c0,0.7,0.6,1.3,1.3,1.3h2.9c0.7,0,1.3-0.6,1.3-1.3v0c0-0.7-0.6-1.3-1.3-1.3h-2.9
				C41.3,52.9,40.8,53.5,40.8,54.2L40.8,54.2z"/>
		</g>
		<g>
			<rect x="10" y="28" fill="#76DDBD" width="26.2" height="0.3"/>
			<rect y="46.4" fill="#76DDBD" width="23" height="0.3"/>
			<rect x="10" y="63.8" fill="#76DDBD" width="26.2" height="0.3"/>
		</g>
	</g>
	<g>
		<defs>
			<path id="SVGID_1_" d="M101.4,190C51,190,10,149.6,10,100c0-49.6,41-90,91.4-90s91.4,40.4,91.4,90
				C192.8,149.6,151.8,190,101.4,190z"/>
		</defs>
		<clipPath id="SVGID_2_">
			<use xlink:href="#SVGID_1_"  overflow="visible"/>
		</clipPath>
		<g clip-path="url(#SVGID_2_)">
			<path fill="#E5E8EC" d="M168.6,199.9c0,0.9-0.7,1.6-1.6,1.6H68c-0.9,0-1.6-0.7-1.6-1.6V62.7c0-0.9,0.7-1.6,1.6-1.6h99
				c0.9,0,1.6,0.7,1.6,1.6V199.9z"/>
			<path fill="#CDD5D7" d="M69,65c0-0.9,0.7-1.6,1.6-1.6h98v-0.7c0-0.9-0.7-1.6-1.6-1.6H68c-0.9,0-1.6,0.7-1.6,1.6v137.2
				c0,0.9,0.7,1.6,1.6,1.6h1V65z"/>
			<path fill="#CDD5D7" d="M157.9,104.8c0,0.9-0.7,1.6-1.6,1.6H78.8c-0.9,0-1.6-0.7-1.6-1.6V80.3c0-0.9,0.7-1.6,1.6-1.6h77.5
				c0.9,0,1.6,0.7,1.6,1.6V104.8z"/>
			<rect x="80.4" y="81.9" fill="#B7BEC0" width="74.2" height="17.8"/>
			<g>
				<g>
					<path fill="#484F59" d="M95.4,122.9c0,0.7-0.6,1.3-1.3,1.3H78.6c-0.7,0-1.3-0.6-1.3-1.3v-8.4c0-0.7,0.6-1.3,1.3-1.3h15.6
						c0.7,0,1.3,0.6,1.3,1.3V122.9z"/>
				</g>
				<g>
					<path fill="#484F59" d="M116.3,122.9c0,0.7-0.6,1.3-1.3,1.3H99.4c-0.7,0-1.3-0.6-1.3-1.3v-8.4c0-0.7,0.6-1.3,1.3-1.3H115
						c0.7,0,1.3,0.6,1.3,1.3V122.9z"/>
				</g>
				<g>
					<path fill="#484F59" d="M137.1,122.9c0,0.7-0.6,1.3-1.3,1.3h-15.6c-0.7,0-1.3-0.6-1.3-1.3v-8.4c0-0.7,0.6-1.3,1.3-1.3h15.6
						c0.7,0,1.3,0.6,1.3,1.3V122.9z"/>
				</g>
				<g>
					<path fill="#484F59" d="M157.9,122.9c0,0.7-0.6,1.3-1.3,1.3h-15.6c-0.7,0-1.3-0.6-1.3-1.3v-8.4c0-0.7,0.6-1.3,1.3-1.3h15.6
						c0.7,0,1.3,0.6,1.3,1.3V122.9z"/>
				</g>
				<g>
					<path fill="#FF633B" d="M95.4,136.6c0,0.7-0.6,1.3-1.3,1.3H78.6c-0.7,0-1.3-0.6-1.3-1.3v-8.4c0-0.7,0.6-1.3,1.3-1.3h15.6
						c0.7,0,1.3,0.6,1.3,1.3V136.6z"/>
				</g>
				<g>
					<path fill="#484F59" d="M116.3,136.6c0,0.7-0.6,1.3-1.3,1.3H99.4c-0.7,0-1.3-0.6-1.3-1.3v-8.4c0-0.7,0.6-1.3,1.3-1.3H115
						c0.7,0,1.3,0.6,1.3,1.3V136.6z"/>
				</g>
				<g>
					<path fill="#484F59" d="M137.1,136.6c0,0.7-0.6,1.3-1.3,1.3h-15.6c-0.7,0-1.3-0.6-1.3-1.3v-8.4c0-0.7,0.6-1.3,1.3-1.3h15.6
						c0.7,0,1.3,0.6,1.3,1.3V136.6z"/>
				</g>
				<g>
					<path fill="#484F59" d="M157.9,136.6c0,0.7-0.6,1.3-1.3,1.3h-15.6c-0.7,0-1.3-0.6-1.3-1.3v-8.4c0-0.7,0.6-1.3,1.3-1.3h15.6
						c0.7,0,1.3,0.6,1.3,1.3V136.6z"/>
				</g>
				<g>
					<path fill="#CDD5D7" d="M95.4,150.2c0,0.7-0.6,1.3-1.3,1.3H78.6c-0.7,0-1.3-0.6-1.3-1.3v-8.4c0-0.7,0.6-1.3,1.3-1.3h15.6
						c0.7,0,1.3,0.6,1.3,1.3V150.2z"/>
				</g>
				<g>
					<path fill="#CDD5D7" d="M116.3,150.2c0,0.7-0.6,1.3-1.3,1.3H99.4c-0.7,0-1.3-0.6-1.3-1.3v-8.4c0-0.7,0.6-1.3,1.3-1.3H115
						c0.7,0,1.3,0.6,1.3,1.3V150.2z"/>
				</g>
				<g>
					<path fill="#CDD5D7" d="M137.1,150.2c0,0.7-0.6,1.3-1.3,1.3h-15.6c-0.7,0-1.3-0.6-1.3-1.3v-8.4c0-0.7,0.6-1.3,1.3-1.3h15.6
						c0.7,0,1.3,0.6,1.3,1.3V150.2z"/>
				</g>
				<g>
					<path fill="#484F59" d="M157.9,150.2c0,0.7-0.6,1.3-1.3,1.3h-15.6c-0.7,0-1.3-0.6-1.3-1.3v-8.4c0-0.7,0.6-1.3,1.3-1.3h15.6
						c0.7,0,1.3,0.6,1.3,1.3V150.2z"/>
				</g>
				<g>
					<path fill="#CDD5D7" d="M95.4,163.9c0,0.7-0.6,1.3-1.3,1.3H78.6c-0.7,0-1.3-0.6-1.3-1.3v-8.4c0-0.7,0.6-1.3,1.3-1.3h15.6
						c0.7,0,1.3,0.6,1.3,1.3V163.9z"/>
				</g>
				<g>
					<path fill="#CDD5D7" d="M116.3,163.9c0,0.7-0.6,1.3-1.3,1.3H99.4c-0.7,0-1.3-0.6-1.3-1.3v-8.4c0-0.7,0.6-1.3,1.3-1.3H115
						c0.7,0,1.3,0.6,1.3,1.3V163.9z"/>
				</g>
				<g>
					<path fill="#CDD5D7" d="M137.1,163.9c0,0.7-0.6,1.3-1.3,1.3h-15.6c-0.7,0-1.3-0.6-1.3-1.3v-8.4c0-0.7,0.6-1.3,1.3-1.3h15.6
						c0.7,0,1.3,0.6,1.3,1.3V163.9z"/>
				</g>
				<g>
					<path fill="#484F59" d="M157.9,163.9c0,0.7-0.6,1.3-1.3,1.3h-15.6c-0.7,0-1.3-0.6-1.3-1.3v-8.4c0-0.7,0.6-1.3,1.3-1.3h15.6
						c0.7,0,1.3,0.6,1.3,1.3V163.9z"/>
				</g>
				<g>
					<path fill="#CDD5D7" d="M95.4,177.5c0,0.7-0.6,1.3-1.3,1.3H78.6c-0.7,0-1.3-0.6-1.3-1.3v-8.4c0-0.7,0.6-1.3,1.3-1.3h15.6
						c0.7,0,1.3,0.6,1.3,1.3V177.5z"/>
				</g>
				<g>
					<path fill="#CDD5D7" d="M116.3,177.5c0,0.7-0.6,1.3-1.3,1.3H99.4c-0.7,0-1.3-0.6-1.3-1.3v-8.4c0-0.7,0.6-1.3,1.3-1.3H115
						c0.7,0,1.3,0.6,1.3,1.3V177.5z"/>
				</g>
				<g>
					<path fill="#CDD5D7" d="M137.1,177.5c0,0.7-0.6,1.3-1.3,1.3h-15.6c-0.7,0-1.3-0.6-1.3-1.3v-8.4c0-0.7,0.6-1.3,1.3-1.3h15.6
						c0.7,0,1.3,0.6,1.3,1.3V177.5z"/>
				</g>
				<g>
					<path fill="#1B2323" d="M157.9,177.5c0,0.7-0.6,1.3-1.3,1.3h-15.6c-0.7,0-1.3-0.6-1.3-1.3v-8.4c0-0.7,0.6-1.3,1.3-1.3h15.6
						c0.7,0,1.3,0.6,1.3,1.3V177.5z"/>
				</g>
				<g>
					<path fill="#CDD5D7" d="M95.4,191.1c0,0.7-0.6,1.3-1.3,1.3H78.6c-0.7,0-1.3-0.6-1.3-1.3v-8.4c0-0.7,0.6-1.3,1.3-1.3h15.6
						c0.7,0,1.3,0.6,1.3,1.3V191.1z"/>
				</g>
				<g>
					<path fill="#CDD5D7" d="M107.2,191.1c0,0.7-0.6,1.3-1.3,1.3H90.3c-0.7,0-1.3-0.6-1.3-1.3v-8.4c0-0.7,0.6-1.3,1.3-1.3h15.6
						c0.7,0,1.3,0.6,1.3,1.3V191.1z"/>
				</g>
				<g>
					<path fill="#CDD5D7" d="M116.3,191.1c0,0.7-0.6,1.3-1.3,1.3H99.4c-0.7,0-1.3-0.6-1.3-1.3v-8.4c0-0.7,0.6-1.3,1.3-1.3H115
						c0.7,0,1.3,0.6,1.3,1.3V191.1z"/>
				</g>
				<g>
					<path fill="#CDD5D7" d="M137.1,191.1c0,0.7-0.6,1.3-1.3,1.3h-15.6c-0.7,0-1.3-0.6-1.3-1.3v-8.4c0-0.7,0.6-1.3,1.3-1.3h15.6
						c0.7,0,1.3,0.6,1.3,1.3V191.1z"/>
				</g>
				<g>
					<path fill="#66CDE1" d="M157.9,191.1c0,0.7-0.6,1.3-1.3,1.3h-15.6c-0.7,0-1.3-0.6-1.3-1.3v-8.4c0-0.7,0.6-1.3,1.3-1.3h15.6
						c0.7,0,1.3,0.6,1.3,1.3V191.1z"/>
				</g>
				<g>
					<path fill="#1B2323" d="M157.9,183.7c0,0.7-0.6,1.3-1.3,1.3h-15.6c-0.7,0-1.3-0.6-1.3-1.3v-8.4c0-0.7,0.6-1.3,1.3-1.3h15.6
						c0.7,0,1.3,0.6,1.3,1.3V183.7z"/>
				</g>
			</g>
			<g>
				<path fill="#484F59" d="M98.8,187c0,0.4,0,0.8-0.1,1.1c-0.1,0.3-0.2,0.6-0.4,0.8c-0.2,0.2-0.3,0.3-0.6,0.4
					c-0.2,0.1-0.4,0.1-0.7,0.1c-0.2,0-0.5,0-0.7-0.1c-0.2-0.1-0.4-0.2-0.5-0.4c-0.2-0.2-0.3-0.4-0.4-0.8c-0.1-0.3-0.1-0.7-0.1-1.1
					c0-0.4,0-0.8,0.1-1.1c0.1-0.3,0.2-0.6,0.4-0.7c0.2-0.2,0.3-0.3,0.5-0.4c0.2-0.1,0.4-0.1,0.7-0.1c0.2,0,0.5,0,0.7,0.1
					c0.2,0.1,0.4,0.2,0.6,0.4c0.2,0.2,0.3,0.4,0.4,0.7C98.8,186.2,98.8,186.6,98.8,187z M98,187c0-0.3,0-0.6-0.1-0.8
					c-0.1-0.2-0.1-0.4-0.2-0.5c-0.1-0.1-0.2-0.2-0.3-0.3s-0.2-0.1-0.3-0.1c-0.1,0-0.2,0-0.3,0.1c-0.1,0.1-0.2,0.1-0.3,0.3
					c-0.1,0.1-0.1,0.3-0.2,0.5c0,0.2-0.1,0.5-0.1,0.8c0,0.3,0,0.6,0.1,0.8c0,0.2,0.1,0.4,0.2,0.5c0.1,0.1,0.2,0.2,0.3,0.3
					c0.1,0.1,0.2,0.1,0.3,0.1c0.1,0,0.2,0,0.3-0.1c0.1-0.1,0.2-0.1,0.3-0.3c0.1-0.1,0.1-0.3,0.2-0.5C97.9,187.6,98,187.3,98,187z"/>
			</g>
			<g>
				<path fill="#484F59" d="M127,188.9c0-0.1,0-0.1,0-0.2c0-0.1,0.1-0.1,0.1-0.2c0,0,0.1-0.1,0.2-0.1c0.1,0,0.1,0,0.2,0
					c0.1,0,0.1,0,0.2,0c0.1,0,0.1,0.1,0.2,0.1c0,0,0.1,0.1,0.1,0.2c0,0.1,0,0.1,0,0.2c0,0.1,0,0.1,0,0.2c0,0.1-0.1,0.1-0.1,0.2
					c0,0-0.1,0.1-0.2,0.1c-0.1,0-0.1,0-0.2,0c-0.1,0-0.1,0-0.2,0c-0.1,0-0.1-0.1-0.2-0.1c0,0-0.1-0.1-0.1-0.2
					C127.1,189,127,189,127,188.9z"/>
			</g>
			<g>
				<path fill="#484F59" d="M86.3,175.1h1v-2.7c0-0.1,0-0.2,0-0.3l-0.7,0.6c0,0-0.1,0-0.1,0c0,0-0.1,0-0.1,0c0,0-0.1,0-0.1,0
					c0,0-0.1,0-0.1-0.1l-0.3-0.3l1.4-1.2h0.7v4.1h0.8v0.6h-2.6V175.1z"/>
			</g>
			<g>
				<path fill="#484F59" d="M107.9,170.9c0.2,0,0.4,0,0.6,0.1c0.2,0.1,0.3,0.2,0.5,0.3c0.1,0.1,0.2,0.3,0.3,0.4
					c0.1,0.2,0.1,0.3,0.1,0.6c0,0.2,0,0.3-0.1,0.5c-0.1,0.1-0.1,0.3-0.2,0.4c-0.1,0.1-0.2,0.3-0.3,0.4c-0.1,0.1-0.2,0.3-0.4,0.4
					l-1.1,1.1c0.1,0,0.2-0.1,0.3-0.1c0.1,0,0.2,0,0.3,0h1.2c0.1,0,0.2,0,0.2,0.1c0.1,0,0.1,0.1,0.1,0.2v0.5h-3.2v-0.3
					c0-0.1,0-0.1,0-0.2c0-0.1,0.1-0.1,0.1-0.2l1.4-1.4c0.1-0.1,0.2-0.2,0.3-0.3c0.1-0.1,0.2-0.2,0.2-0.3c0.1-0.1,0.1-0.2,0.1-0.3
					c0-0.1,0.1-0.2,0.1-0.4c0-0.1,0-0.2,0-0.3c0-0.1-0.1-0.2-0.1-0.2c-0.1-0.1-0.1-0.1-0.2-0.1c-0.1,0-0.2,0-0.3,0
					c-0.2,0-0.4,0-0.5,0.1c-0.1,0.1-0.2,0.2-0.3,0.4c0,0.1-0.1,0.1-0.1,0.2c0,0-0.1,0.1-0.2,0.1c0,0-0.1,0-0.1,0l-0.4-0.1
					c0-0.2,0.1-0.4,0.2-0.6c0.1-0.2,0.2-0.3,0.3-0.4c0.1-0.1,0.3-0.2,0.5-0.3C107.5,170.9,107.7,170.9,107.9,170.9z"/>
			</g>
			<g>
				<path fill="#484F59" d="M127.8,170.9c0.2,0,0.4,0,0.6,0.1c0.2,0.1,0.3,0.1,0.4,0.3c0.1,0.1,0.2,0.2,0.3,0.4
					c0.1,0.1,0.1,0.3,0.1,0.5c0,0.1,0,0.3-0.1,0.4c0,0.1-0.1,0.2-0.1,0.3c-0.1,0.1-0.1,0.2-0.2,0.2c-0.1,0.1-0.2,0.1-0.3,0.1
					c0.3,0.1,0.5,0.2,0.6,0.4c0.1,0.2,0.2,0.4,0.2,0.7c0,0.2,0,0.4-0.1,0.6c-0.1,0.2-0.2,0.3-0.4,0.5c-0.1,0.1-0.3,0.2-0.5,0.3
					c-0.2,0.1-0.4,0.1-0.6,0.1c-0.2,0-0.4,0-0.6-0.1c-0.2-0.1-0.3-0.1-0.5-0.2c-0.1-0.1-0.2-0.2-0.3-0.4c-0.1-0.2-0.2-0.3-0.2-0.5
					l0.4-0.1c0.1,0,0.1,0,0.2,0c0.1,0,0.1,0,0.2,0c0,0,0.1,0.1,0.1,0.1c0,0.1,0.1,0.2,0.1,0.2c0,0.1,0.1,0.1,0.2,0.2
					c0.1,0.1,0.1,0.1,0.2,0.1c0.1,0,0.2,0.1,0.3,0.1c0.1,0,0.3,0,0.4-0.1c0.1,0,0.2-0.1,0.3-0.2c0.1-0.1,0.1-0.2,0.2-0.2
					c0-0.1,0.1-0.2,0.1-0.3c0-0.1,0-0.2,0-0.3c0-0.1-0.1-0.2-0.2-0.2c-0.1-0.1-0.2-0.1-0.3-0.2c-0.1,0-0.3-0.1-0.6-0.1V173
					c0.2,0,0.4,0,0.5-0.1c0.1,0,0.2-0.1,0.3-0.1c0.1-0.1,0.1-0.1,0.2-0.2c0-0.1,0-0.2,0-0.3c0-0.2-0.1-0.4-0.2-0.5
					c-0.1-0.1-0.3-0.2-0.5-0.2c-0.2,0-0.3,0.1-0.5,0.2c-0.1,0.1-0.2,0.2-0.3,0.4c0,0.1-0.1,0.1-0.1,0.2c0,0-0.1,0.1-0.2,0.1
					c0,0-0.1,0-0.1,0l-0.4-0.1c0-0.2,0.1-0.4,0.2-0.6c0.1-0.2,0.2-0.3,0.3-0.4c0.1-0.1,0.3-0.2,0.5-0.3
					C127.4,170.9,127.6,170.9,127.8,170.9z"/>
			</g>
			<g>
				<path fill="#484F59" d="M88.5,160.2h0.6v0.5c0,0,0,0.1,0,0.1c0,0-0.1,0-0.1,0h-0.4v1.1h-0.7v-1.1h-2c-0.1,0-0.1,0-0.1-0.1
					c0,0-0.1-0.1-0.1-0.1l-0.1-0.4l2.2-3h0.8V160.2z M87.8,158.7c0-0.1,0-0.1,0-0.2c0-0.1,0-0.2,0-0.3l-1.5,2h1.4V158.7z"/>
			</g>
			<g>
				<path fill="#484F59" d="M109.2,157.6c0,0.1,0,0.2-0.1,0.3c-0.1,0.1-0.2,0.1-0.4,0.1h-1.3l-0.2,1c0.2,0,0.4-0.1,0.6-0.1
					c0.2,0,0.5,0,0.7,0.1c0.2,0.1,0.3,0.2,0.5,0.3c0.1,0.1,0.2,0.3,0.3,0.5c0.1,0.2,0.1,0.4,0.1,0.6c0,0.2,0,0.5-0.1,0.7
					c-0.1,0.2-0.2,0.4-0.4,0.5c-0.2,0.1-0.3,0.3-0.6,0.3c-0.2,0.1-0.4,0.1-0.7,0.1c-0.1,0-0.3,0-0.4,0c-0.1,0-0.3-0.1-0.4-0.1
					c-0.1-0.1-0.2-0.1-0.3-0.2c-0.1-0.1-0.2-0.1-0.3-0.2l0.2-0.3c0.1-0.1,0.1-0.1,0.2-0.1c0.1,0,0.1,0,0.2,0.1
					c0.1,0,0.1,0.1,0.2,0.1c0.1,0,0.2,0.1,0.3,0.1c0.1,0,0.2,0.1,0.4,0.1c0.1,0,0.3,0,0.4-0.1c0.1,0,0.2-0.1,0.3-0.2
					c0.1-0.1,0.1-0.2,0.2-0.3c0-0.1,0.1-0.2,0.1-0.4c0-0.3-0.1-0.5-0.2-0.6c-0.1-0.1-0.4-0.2-0.7-0.2c-0.2,0-0.5,0-0.7,0.1l-0.5-0.1
					l0.4-2.3h2.3V157.6z"/>
			</g>
			<g>
				<path fill="#484F59" d="M128,159.1c0.2,0,0.4,0,0.5,0.1c0.2,0.1,0.3,0.1,0.4,0.3c0.1,0.1,0.2,0.3,0.3,0.4
					c0.1,0.2,0.1,0.4,0.1,0.6c0,0.2,0,0.4-0.1,0.6c-0.1,0.2-0.2,0.4-0.3,0.5c-0.1,0.1-0.3,0.3-0.5,0.3c-0.2,0.1-0.4,0.1-0.7,0.1
					c-0.3,0-0.5,0-0.7-0.1c-0.2-0.1-0.4-0.2-0.5-0.3c-0.1-0.1-0.2-0.3-0.3-0.5c-0.1-0.2-0.1-0.4-0.1-0.7c0-0.2,0-0.4,0.1-0.7
					c0.1-0.2,0.2-0.5,0.4-0.7l1.1-1.5c0-0.1,0.1-0.1,0.2-0.1c0.1,0,0.2-0.1,0.3-0.1h0.7l-1.4,1.7c0,0-0.1,0.1-0.1,0.1
					c0,0-0.1,0.1-0.1,0.1c0.1,0,0.2-0.1,0.3-0.1C127.7,159.1,127.9,159.1,128,159.1z M126.9,160.5c0,0.1,0,0.2,0.1,0.4
					c0,0.1,0.1,0.2,0.2,0.3c0.1,0.1,0.2,0.1,0.3,0.2c0.1,0,0.2,0.1,0.4,0.1c0.1,0,0.2,0,0.4-0.1c0.1,0,0.2-0.1,0.3-0.2
					c0.1-0.1,0.1-0.2,0.2-0.3c0-0.1,0.1-0.2,0.1-0.3c0-0.1,0-0.3-0.1-0.4c0-0.1-0.1-0.2-0.2-0.3c-0.1-0.1-0.2-0.1-0.3-0.2
					c-0.1,0-0.2-0.1-0.4-0.1c-0.1,0-0.2,0-0.3,0.1c-0.1,0-0.2,0.1-0.3,0.2c-0.1,0.1-0.1,0.2-0.2,0.3
					C126.9,160.3,126.9,160.4,126.9,160.5z"/>
			</g>
			<g>
				<path fill="#484F59" d="M89,143.9v0.3c0,0.1,0,0.2,0,0.3c0,0.1,0,0.1-0.1,0.2l-1.8,3.7c0,0.1-0.1,0.1-0.2,0.2
					c-0.1,0.1-0.2,0.1-0.3,0.1h-0.6l1.8-3.6c0.1-0.1,0.2-0.3,0.3-0.4h-2.3c-0.1,0-0.1,0-0.1-0.1c0,0-0.1-0.1-0.1-0.1v-0.5H89z"/>
			</g>
			<g>
				<path fill="#484F59" d="M107.8,148.7c-0.2,0-0.5,0-0.7-0.1c-0.2-0.1-0.4-0.2-0.5-0.3c-0.1-0.1-0.3-0.3-0.3-0.4s-0.1-0.4-0.1-0.6
					c0-0.3,0.1-0.5,0.2-0.7c0.1-0.2,0.3-0.3,0.6-0.4c-0.2-0.1-0.4-0.2-0.5-0.4c-0.1-0.2-0.2-0.4-0.2-0.6c0-0.2,0-0.3,0.1-0.5
					c0.1-0.2,0.2-0.3,0.3-0.4c0.1-0.1,0.3-0.2,0.5-0.3c0.2-0.1,0.4-0.1,0.6-0.1c0.2,0,0.4,0,0.6,0.1c0.2,0.1,0.3,0.2,0.5,0.3
					c0.1,0.1,0.2,0.2,0.3,0.4c0.1,0.2,0.1,0.3,0.1,0.5c0,0.2-0.1,0.5-0.2,0.6c-0.1,0.2-0.3,0.3-0.5,0.4c0.3,0.1,0.5,0.2,0.6,0.4
					c0.1,0.2,0.2,0.4,0.2,0.7c0,0.2,0,0.4-0.1,0.6s-0.2,0.3-0.3,0.4c-0.1,0.1-0.3,0.2-0.5,0.3C108.3,148.7,108.1,148.7,107.8,148.7z
					 M107.8,148.1c0.1,0,0.2,0,0.3-0.1s0.2-0.1,0.3-0.2c0.1-0.1,0.1-0.1,0.2-0.2c0-0.1,0.1-0.2,0.1-0.3c0-0.3-0.1-0.5-0.2-0.6
					c-0.1-0.1-0.3-0.2-0.6-0.2s-0.4,0.1-0.6,0.2c-0.1,0.1-0.2,0.3-0.2,0.6c0,0.1,0,0.2,0.1,0.3c0,0.1,0.1,0.2,0.2,0.2
					c0.1,0.1,0.2,0.1,0.3,0.2C107.6,148.1,107.7,148.1,107.8,148.1z M107.8,145.9c0.1,0,0.2,0,0.3-0.1c0.1,0,0.2-0.1,0.2-0.2
					c0.1-0.1,0.1-0.1,0.1-0.2c0-0.1,0-0.2,0-0.3c0-0.1,0-0.2,0-0.3c0-0.1-0.1-0.2-0.1-0.2c-0.1-0.1-0.1-0.1-0.2-0.1
					c-0.1,0-0.2-0.1-0.3-0.1c-0.1,0-0.2,0-0.3,0.1c-0.1,0-0.2,0.1-0.2,0.1c-0.1,0.1-0.1,0.1-0.1,0.2c0,0.1,0,0.2,0,0.3
					c0,0.1,0,0.2,0,0.3c0,0.1,0.1,0.2,0.1,0.2c0.1,0.1,0.1,0.1,0.2,0.2C107.6,145.9,107.7,145.9,107.8,145.9z"/>
			</g>
			<g>
				<path fill="#484F59" d="M127.5,146.8c-0.2,0-0.3,0-0.5-0.1c-0.2-0.1-0.3-0.1-0.4-0.3c-0.1-0.1-0.2-0.3-0.3-0.4
					c-0.1-0.2-0.1-0.4-0.1-0.6c0-0.2,0-0.4,0.1-0.6c0.1-0.2,0.2-0.3,0.3-0.5c0.1-0.1,0.3-0.2,0.5-0.3c0.2-0.1,0.4-0.1,0.7-0.1
					c0.2,0,0.5,0,0.7,0.1c0.2,0.1,0.4,0.2,0.5,0.3c0.1,0.1,0.2,0.3,0.3,0.5c0.1,0.2,0.1,0.4,0.1,0.6c0,0.1,0,0.3,0,0.4
					c0,0.1-0.1,0.3-0.1,0.4c0,0.1-0.1,0.2-0.2,0.4c-0.1,0.1-0.1,0.2-0.2,0.3l-1.1,1.5c0,0.1-0.1,0.1-0.2,0.1c-0.1,0-0.2,0.1-0.2,0.1
					h-0.7l1.5-1.8c0,0,0.1-0.1,0.1-0.1c0,0,0.1-0.1,0.1-0.1c-0.1,0.1-0.2,0.1-0.4,0.2C127.8,146.8,127.7,146.8,127.5,146.8z
					 M128.6,145.4c0-0.1,0-0.2-0.1-0.3c0-0.1-0.1-0.2-0.2-0.3c-0.1-0.1-0.2-0.1-0.3-0.2c-0.1,0-0.2-0.1-0.3-0.1
					c-0.1,0-0.2,0-0.3,0.1c-0.1,0-0.2,0.1-0.2,0.2c-0.1,0.1-0.1,0.2-0.2,0.3c0,0.1-0.1,0.2-0.1,0.3c0,0.3,0.1,0.5,0.2,0.6
					c0.1,0.1,0.3,0.2,0.6,0.2c0.1,0,0.2,0,0.3-0.1c0.1,0,0.2-0.1,0.3-0.2c0.1-0.1,0.1-0.2,0.2-0.3
					C128.6,145.6,128.6,145.5,128.6,145.4z"/>
			</g>
			<g>
				<path fill="#EAEDE7" d="M88.5,133.9c0,0,0.1,0,0.1,0.1l0.3,0.4c-0.2,0.2-0.4,0.4-0.7,0.5c-0.3,0.1-0.6,0.2-1,0.2
					c-0.3,0-0.7-0.1-0.9-0.2c-0.3-0.1-0.5-0.3-0.7-0.5c-0.2-0.2-0.3-0.5-0.5-0.8c-0.1-0.3-0.2-0.6-0.2-1c0-0.4,0.1-0.7,0.2-1
					c0.1-0.3,0.3-0.5,0.5-0.8c0.2-0.2,0.5-0.4,0.8-0.5c0.3-0.1,0.6-0.2,1-0.2c0.3,0,0.7,0.1,0.9,0.2c0.3,0.1,0.5,0.3,0.7,0.4
					l-0.3,0.4c0,0,0,0-0.1,0.1c0,0-0.1,0-0.1,0c0,0-0.1,0-0.2-0.1c-0.1,0-0.1-0.1-0.2-0.1c-0.1,0-0.2-0.1-0.3-0.1
					c-0.1,0-0.3-0.1-0.5-0.1c-0.2,0-0.4,0-0.6,0.1c-0.2,0.1-0.3,0.2-0.5,0.3c-0.1,0.1-0.2,0.3-0.3,0.5c-0.1,0.2-0.1,0.4-0.1,0.7
					c0,0.3,0,0.5,0.1,0.7c0.1,0.2,0.2,0.4,0.3,0.5c0.1,0.1,0.3,0.2,0.5,0.3c0.2,0.1,0.4,0.1,0.6,0.1c0.1,0,0.2,0,0.3,0
					c0.1,0,0.2,0,0.3-0.1c0.1,0,0.2-0.1,0.2-0.1c0.1,0,0.1-0.1,0.2-0.2C88.4,133.9,88.4,133.9,88.5,133.9
					C88.5,133.9,88.5,133.9,88.5,133.9z"/>
			</g>
			<g>
				<path fill="#EAEDE7" d="M108.1,129.9v1.3h1.3v0.6h-1.3v1.3h-0.7v-1.3h-1.3v-0.6h1.3v-1.3H108.1z"/>
			</g>
			<g>
				<path fill="#EAEDE7" d="M127.8,135c0,0,0,0.1-0.1,0.1c0,0-0.1,0.1-0.1,0.1c0,0-0.1,0-0.1,0.1c0,0-0.1,0-0.1,0H127l1.9-4.9
					c0-0.1,0.1-0.2,0.2-0.2c0.1,0,0.2-0.1,0.3-0.1h0.3L127.8,135z"/>
			</g>
			<g>
				<path fill="#EAEDE7" d="M84.3,119.2c0,0.1,0.1,0.1,0.1,0.2c0-0.1,0.1-0.2,0.1-0.2c0-0.1,0.1-0.1,0.1-0.2l1.4-2.6
					c0,0,0-0.1,0.1-0.1c0,0,0,0,0.1,0c0,0,0,0,0.1,0c0,0,0.1,0,0.1,0H87v4.7h-0.8v-3c0-0.1,0-0.1,0-0.2c0-0.1,0-0.1,0-0.2l-1.4,2.7
					c0,0.1-0.1,0.1-0.1,0.1c-0.1,0-0.1,0.1-0.2,0.1h-0.1c-0.1,0-0.1,0-0.2-0.1s-0.1-0.1-0.1-0.1l-1.4-2.7c0,0.1,0,0.1,0,0.2
					c0,0.1,0,0.1,0,0.2v3h-0.8v-4.7h0.7c0,0,0.1,0,0.1,0c0,0,0.1,0,0.1,0c0,0,0,0,0.1,0c0,0,0,0,0.1,0.1l1.4,2.6
					C84.3,119.1,84.3,119.2,84.3,119.2z"/>
				<path fill="#EAEDE7" d="M91.1,119.9c0,0,0.1,0,0.1,0.1l0.3,0.4c-0.2,0.2-0.4,0.4-0.7,0.5c-0.3,0.1-0.6,0.2-1,0.2
					c-0.3,0-0.7-0.1-0.9-0.2c-0.3-0.1-0.5-0.3-0.7-0.5c-0.2-0.2-0.3-0.5-0.5-0.8c-0.1-0.3-0.2-0.6-0.2-1c0-0.4,0.1-0.7,0.2-1
					c0.1-0.3,0.3-0.5,0.5-0.8c0.2-0.2,0.5-0.4,0.8-0.5c0.3-0.1,0.6-0.2,1-0.2c0.3,0,0.7,0.1,0.9,0.2c0.3,0.1,0.5,0.3,0.7,0.4
					l-0.3,0.4c0,0,0,0-0.1,0.1c0,0-0.1,0-0.1,0c0,0-0.1,0-0.2-0.1c-0.1,0-0.1-0.1-0.2-0.1c-0.1,0-0.2-0.1-0.3-0.1
					c-0.1,0-0.3-0.1-0.5-0.1c-0.2,0-0.4,0-0.6,0.1c-0.2,0.1-0.3,0.2-0.5,0.3c-0.1,0.1-0.2,0.3-0.3,0.5c-0.1,0.2-0.1,0.4-0.1,0.7
					c0,0.3,0,0.5,0.1,0.7c0.1,0.2,0.2,0.4,0.3,0.5c0.1,0.1,0.3,0.2,0.5,0.3c0.2,0.1,0.4,0.1,0.6,0.1c0.1,0,0.2,0,0.3,0
					c0.1,0,0.2,0,0.3-0.1c0.1,0,0.2-0.1,0.2-0.1c0.1,0,0.1-0.1,0.2-0.2C91,119.9,91,119.9,91.1,119.9
					C91.1,119.9,91.1,119.9,91.1,119.9z"/>
			</g>
			<g>
				<path fill="#EAEDE7" d="M105.4,119.2c0,0.1,0.1,0.1,0.1,0.2c0-0.1,0.1-0.2,0.1-0.2c0-0.1,0.1-0.1,0.1-0.2l1.4-2.6
					c0,0,0-0.1,0.1-0.1c0,0,0,0,0.1,0c0,0,0,0,0.1,0c0,0,0.1,0,0.1,0h0.7v4.7h-0.8v-3c0-0.1,0-0.1,0-0.2c0-0.1,0-0.1,0-0.2l-1.4,2.7
					c0,0.1-0.1,0.1-0.1,0.1c-0.1,0-0.1,0.1-0.2,0.1h-0.1c-0.1,0-0.1,0-0.2-0.1c-0.1,0-0.1-0.1-0.1-0.1l-1.4-2.7c0,0.1,0,0.1,0,0.2
					c0,0.1,0,0.1,0,0.2v3H103v-4.7h0.7c0,0,0.1,0,0.1,0c0,0,0.1,0,0.1,0c0,0,0,0,0.1,0c0,0,0,0,0.1,0.1l1.4,2.6
					C105.4,119.1,105.4,119.2,105.4,119.2z"/>
				<path fill="#EAEDE7" d="M110.7,117.2v1.3h1.3v0.6h-1.3v1.3h-0.7v-1.3h-1.3v-0.6h1.3v-1.3H110.7z"/>
			</g>
			<g>
				<path fill="#EAEDE7" d="M127.4,119.2c0,0.1,0.1,0.1,0.1,0.2c0-0.1,0.1-0.2,0.1-0.2c0-0.1,0.1-0.1,0.1-0.2l1.4-2.6
					c0,0,0-0.1,0.1-0.1c0,0,0,0,0.1,0c0,0,0,0,0.1,0c0,0,0.1,0,0.1,0h0.7v4.7h-0.8v-3c0-0.1,0-0.1,0-0.2c0-0.1,0-0.1,0-0.2l-1.4,2.7
					c0,0.1-0.1,0.1-0.1,0.1c-0.1,0-0.1,0.1-0.2,0.1h-0.1c-0.1,0-0.1,0-0.2-0.1s-0.1-0.1-0.1-0.1l-1.4-2.7c0,0.1,0,0.1,0,0.2
					c0,0.1,0,0.1,0,0.2v3h-0.8v-4.7h0.7c0,0,0.1,0,0.1,0c0,0,0.1,0,0.1,0c0,0,0,0,0.1,0c0,0,0,0,0.1,0.1l1.4,2.6
					C127.3,119.1,127.3,119.2,127.4,119.2z"/>
				<path fill="#EAEDE7" d="M130.8,118.7h1.7v0.7h-1.7V118.7z"/>
			</g>
			<g>
				<path fill="#EAEDE7" d="M146.8,186.3h2.9v0.6h-2.9V186.3z M146.8,187.4h2.9v0.6h-2.9V187.4z"/>
			</g>
			<g>
				<path fill="#EAEDE7" d="M148.5,158.2v1.3h1.3v0.6h-1.3v1.3h-0.7v-1.3h-1.3v-0.6h1.3v-1.3H148.5z"/>
			</g>
			<g>
				<path fill="#EAEDE7" d="M150.1,145.8v0.5h-2.6v-0.5H150.1z"/>
			</g>
			<g>
				<path fill="#EAEDE7" d="M109,133.7v0.5h-2.6v-0.5H109z"/>
			</g>
			<g>
				<path fill="#EAEDE7" d="M147.3,132.6l-1.5-2.3h0.9c0.1,0,0.1,0,0.1,0c0,0,0.1,0,0.1,0.1l1.1,1.7c0,0,0-0.1,0-0.1
					c0,0,0-0.1,0-0.1l1-1.5c0-0.1,0.1-0.1,0.2-0.1h0.8l-1.5,2.2l1.6,2.5h-0.9c-0.1,0-0.1,0-0.1,0c0,0-0.1-0.1-0.1-0.1l-1.1-1.8
					c0,0,0,0.1,0,0.1c0,0,0,0,0,0.1l-1,1.7c0,0-0.1,0.1-0.1,0.1c0,0-0.1,0-0.1,0h-0.8L147.3,132.6z"/>
			</g>
			<g>
				<path fill="#EAEDE7" d="M145.3,119.2c0,0.1,0.1,0.1,0.1,0.2c0-0.1,0.1-0.2,0.1-0.2c0-0.1,0.1-0.1,0.1-0.2l1.4-2.6
					c0,0,0-0.1,0.1-0.1c0,0,0,0,0.1,0c0,0,0,0,0.1,0c0,0,0.1,0,0.1,0h0.7v4.7h-0.8v-3c0-0.1,0-0.1,0-0.2c0-0.1,0-0.1,0-0.2l-1.4,2.7
					c0,0.1-0.1,0.1-0.1,0.1c-0.1,0-0.1,0.1-0.2,0.1h-0.1c-0.1,0-0.1,0-0.2-0.1c-0.1,0-0.1-0.1-0.1-0.1l-1.4-2.7c0,0.1,0,0.1,0,0.2
					c0,0.1,0,0.1,0,0.2v3h-0.8v-4.7h0.7c0,0,0.1,0,0.1,0c0,0,0.1,0,0.1,0c0,0,0,0,0.1,0c0,0,0,0,0.1,0.1l1.4,2.6
					C145.3,119.1,145.3,119.2,145.3,119.2z"/>
				<path fill="#EAEDE7" d="M149.8,119.1v1.8h-0.9v-4.7h1.4c0.3,0,0.6,0,0.8,0.1c0.2,0.1,0.4,0.2,0.6,0.3c0.1,0.1,0.3,0.3,0.3,0.4
					c0.1,0.2,0.1,0.3,0.1,0.5c0,0.2,0,0.3-0.1,0.4c0,0.1-0.1,0.3-0.2,0.4c-0.1,0.1-0.2,0.2-0.3,0.3c-0.1,0.1-0.3,0.2-0.4,0.2
					c0.1,0.1,0.2,0.2,0.3,0.3l1.2,1.7h-0.8c-0.1,0-0.1,0-0.2,0c-0.1,0-0.1-0.1-0.1-0.1l-1-1.5c0-0.1-0.1-0.1-0.1-0.1
					c0,0-0.1,0-0.2,0H149.8z M149.8,118.5h0.5c0.2,0,0.3,0,0.4-0.1c0.1,0,0.2-0.1,0.3-0.2c0.1-0.1,0.1-0.2,0.2-0.3
					c0-0.1,0.1-0.2,0.1-0.3c0-0.2-0.1-0.4-0.2-0.6c-0.2-0.1-0.4-0.2-0.7-0.2h-0.6V118.5z"/>
			</g>
		</g>
	</g>
</g>
</svg>
