<?xml version="1.0" encoding="utf-8"?>
<!-- Generator: Adobe Illustrator 18.0.0, SVG Export Plug-In . SVG Version: 6.00 Build 0)  -->
<!DOCTYPE svg PUBLIC "-//W3C//DTD SVG 1.1//EN" "http://www.w3.org/Graphics/SVG/1.1/DTD/svg11.dtd">
<svg version="1.1" xmlns="http://www.w3.org/2000/svg" xmlns:xlink="http://www.w3.org/1999/xlink" x="0px" y="0px"
	 viewBox="0 0 200 200" enable-background="new 0 0 200 200" xml:space="preserve">
<g id="Lag_2">
</g>
<g id="Lag_1">
	<g>
		<circle fill="#426842" cx="100" cy="100" r="90"/>
		<path fill="#3A5E3A" d="M138.1,75.6c-4.1-4.6-10.1-7.5-16.9-7.5c-0.9,0-1.8,0.1-2.7,0.2c-4-5.8-10.9-9.6-18.6-9.6
			c-0.6,0-1.1,0.1-1.7,0.1c-7,0.5-13.2,4.1-16.9,9.5c-0.9-0.1-1.8-0.2-2.7-0.2c-12.4,0-22.4,9.8-22.4,21.9c0,6.5,2.9,12.3,7.5,16.3
			l0,0l11.8,11.8c0.5,3.5,1.1,6.9,1.6,10.4c0.5,2.7,1.7,5,3.2,6.5l0,0l49.7,49.7c27.4-9.8,48.7-32.4,56.5-60.7L138.1,75.6
			L138.1,75.6z"/>
		<g>
			<path fill-rule="evenodd" clip-rule="evenodd" fill="#F2EFDC" d="M143.7,90c0-12.1-10-21.9-22.4-21.9c-0.9,0-1.8,0.1-2.7,0.2
				c-4-5.8-10.9-9.6-18.6-9.6c-7.7,0-14.6,3.8-18.6,9.6c-0.9-0.1-1.8-0.2-2.7-0.2c-12.4,0-22.4,9.8-22.4,21.9
				c0,10.7,7.9,19.5,18.3,21.4c0.9,5.7,1.8,11.4,2.7,17.1c0.9,5.2,4.4,8.8,8,8.5c9.8-1.1,19.7-1.1,29.5,0c3.6,0.4,7.1-3.3,8-8.5
				c0.7-4.6,1.4-9.2,2.2-13.7c-0.2,0-0.5,0-0.7,0c-7.1,0-13.4-3.2-17.5-8.2c3.9,3.2,9,5.2,14.5,5.2
				C133.6,111.9,143.7,102.1,143.7,90z"/>
			<path fill-rule="evenodd" clip-rule="evenodd" fill="#DCDAC8" d="M121.2,68.2c-0.9,0-1.8,0.1-2.7,0.2c-4-5.8-10.9-9.6-18.6-9.6
				c-0.6,0-1.1,0.1-1.7,0.1v77.4c5.5-0.1,11,0.2,16.4,0.8c3.6,0.4,7.1-3.3,8-8.5c0.7-4.6,1.4-9.2,2.2-13.7c-0.2,0-0.5,0-0.7,0
				c-7.1,0-13.4-3.2-17.5-8.2c3.9,3.2,9,5.2,14.5,5.2c12.4,0,22.4-9.8,22.4-21.8C143.7,77.9,133.6,68.2,121.2,68.2z"/>
			<ellipse fill-rule="evenodd" clip-rule="evenodd" fill="#F2EFDC" cx="98.7" cy="81" rx="17.6" ry="22.2"/>
		</g>
	</g>
</g>
</svg>
