<?xml version="1.0" encoding="utf-8"?>
<!-- Generator: Adobe Illustrator 18.0.0, SVG Export Plug-In . SVG Version: 6.00 Build 0)  -->
<!DOCTYPE svg PUBLIC "-//W3C//DTD SVG 1.1//EN" "http://www.w3.org/Graphics/SVG/1.1/DTD/svg11.dtd">
<svg version="1.1" id="Lag_1" xmlns="http://www.w3.org/2000/svg" xmlns:xlink="http://www.w3.org/1999/xlink" x="0px" y="0px"
	 viewBox="0 0 200 200" enable-background="new 0 0 200 200" xml:space="preserve">
<circle fill="#253A44" cx="100" cy="100" r="90"/>
<g>
	<path fill="#DD514A" d="M102,57.6c-5.8,0-11.7,1.2-17.4,3.7c-21.8,9.6-31.6,35.1-22,56.8c7.1,16.1,22.9,25.7,39.4,25.7
		c5.8,0,11.7-1.2,17.4-3.7c21.8-9.6,31.6-35.1,22-56.8C134.3,67.1,118.5,57.6,102,57.6"/>
	<path fill="#ED7270" d="M101.8,57.6c-5.8,0-11.6,1.2-17.2,3.7c-21.8,9.6-31.6,35.1-22,56.8c7.1,16,22.7,25.6,39.2,25.7V57.6z"/>
	<path fill="#F5F3E1" d="M102,57.6V68c12.9,0,24.7,7.6,29.9,19.5c3.5,8,3.7,16.9,0.6,25c-3.1,8.1-9.3,14.6-17.3,18.1
		c-4.2,1.9-8.6,2.8-13.2,2.8c-12.9,0-24.7-7.6-29.9-19.5c-7.3-16.5,0.2-35.8,16.7-43.1C93,68.9,97.5,68,102,68V57.6z"/>
	<path fill="#DD514A" d="M102,129.8c-16.1,0-29.1-13-29.1-29.1c0-16.1,13-29.1,29.1-29.1c16.1,0,29.1,13,29.1,29.1
		C131.1,116.7,118.1,129.8,102,129.8 M102,69.8c-17,0-30.8,13.8-30.8,30.8c0,17,13.8,30.8,30.8,30.8s30.8-13.8,30.8-30.8
		C132.9,83.6,119.1,69.8,102,69.8"/>
	<path fill="#F5F3E1" d="M158.5,50.4c1.1-1,1.9-0.9,2.6,0v55.7c-0.1,0.3-0.1,0.6-0.2,0.9c0.1,1.6,0.1,3.1,0.2,4.7v34.8
		c-0.6,0.6-1.4,1-2.4,1c-2.1,0-3.6-2.1-3.5-3.6c0.4-12.4,0.9-24.7,1.3-37.1c-1.1-3.2-2.4-1-3.1-6.9c-1.1-9.3-0.7-22.6-1-29.5
		C152.3,57.3,155.8,52.8,158.5,50.4"/>
	<path fill="#DD514A" d="M158.8,148.3c1.1,0,2.2-0.5,3.1-1.4c0.9-0.9,1.3-2.1,1.3-3.1l-1.2-34.8h-6.3l-1.2,34.8
		c-0.1,1,0.4,2.2,1.3,3.1C156.5,147.8,157.6,148.3,158.8,148.3L158.8,148.3z"/>
	<path fill="#F5F3E1" d="M52.4,76.5L52.4,76.5C52.4,76.5,52.4,76.4,52.4,76.5v-0.1h0c-1-9.8-1.9-24-2.5-24c-0.6,0-0.1,14.2-0.2,24
		h-1.6c-0.6-9.8-1.2-24-1.7-24c-0.6,0-0.6,14.2-0.9,24h-1.6c-0.3-9.8-0.4-24-0.9-24c-0.6,0-1.1,14.2-1.7,24h-1.6
		c0-9.8,0.4-24-0.2-24c-0.6,0-1.5,14.2-2.5,24h0v0c0,0,0,0.1,0,0.1h0c0,5.1,2.3,9.5,6.3,10.6c-0.7,18.9-1.4,37.9-2,56.8
		c-0.1,1.5,1.4,3.6,3.5,3.6c2.1,0,3.6-2.1,3.5-3.6c-0.7-18.9-1.4-37.9-2-56.8C50.1,86,52.3,81.6,52.4,76.5"/>
	<path fill="#DD514A" d="M44.6,148.3c-1.1,0-2.2-0.5-3.1-1.4c-0.9-0.9-1.3-2.1-1.3-3.1l1.6-45.6h5.5l1.6,45.6c0.1,1-0.4,2.2-1.3,3.1
		C46.9,147.8,45.8,148.3,44.6,148.3L44.6,148.3z"/>
</g>
</svg>
