<?xml version="1.0" encoding="utf-8"?>
<!-- Generator: Adobe Illustrator 18.0.0, SVG Export Plug-In . SVG Version: 6.00 Build 0)  -->
<!DOCTYPE svg PUBLIC "-//W3C//DTD SVG 1.1//EN" "http://www.w3.org/Graphics/SVG/1.1/DTD/svg11.dtd">
<svg version="1.1" id="Lag_1" xmlns="http://www.w3.org/2000/svg" xmlns:xlink="http://www.w3.org/1999/xlink" x="0px" y="0px"
	 viewBox="0 0 200 200" enable-background="new 0 0 200 200" xml:space="preserve">
<g>
	<circle fill="#F2EFDC" cx="100" cy="99.7" r="90"/>
	<path fill="#DCDAC8" d="M135,53.8L135,53.8L135,53.8c-1.7-1.2-4-1.2-5.1,0c-0.5,0.5-0.5,0.5-0.5,1.2c-1.7,0-3.5,0.5-4.6,1.7l0,0
		c-0.5-0.5-1.7-1.2-2.8-1.2c0-1.2-0.5-1.7-1.7-2.3c-1.7-1.2-3.5-0.5-4.6,0.5c-2.3-1.2-5.1-0.5-6.9,1.2c-1.7-1.2-4-0.5-4.6,1.2
		c-0.5,1.2-0.5,2.8,0,4c-0.5,0.5-0.5,0.5-1.2,1.2c-1.7,2.8-1.2,6.9,1.7,8.6c1.2,0.5,1.7,1.2,2.8,1.2c-1.7,3.5-4,6.9-5.8,10.4
		c-4.6-0.5-9.2,1.2-12.7,5.8L53.4,138c-2.8,4-3.5,6.3-2.3,6.9l45.3,45.3c1.2,0,2.3,0,3.5,0c47,0,85.4-35.6,89.5-81.4L135,53.8z"/>
	<g>
		<g>
			<path fill="#71841F" d="M108.6,89.4c-2.8,2.3-3.5,1.2-1.7-1.7c5.1-6.9,10.9-13.2,16.6-19.5c2.3-2.3,5.1-2.8,6.3-1.7l0,0
				c1.2,1.2,0.5,3.5-1.7,6.3C122.4,78.5,115.5,84.3,108.6,89.4z"/>
			<circle fill="#71841F" cx="121.8" cy="59.5" r="3.5"/>
			<circle fill="#71841F" cx="132.1" cy="56.7" r="3.5"/>
			<circle fill="#71841F" cx="137.9" cy="65.8" r="3.5"/>
			<circle fill="#71841F" cx="133.8" cy="64.2" r="5.1"/>
			<circle fill="#71841F" cx="122.9" cy="65.3" r="6.3"/>
			<circle fill="#71841F" cx="128.7" cy="61.3" r="6.3"/>
			<circle fill="#71841F" cx="130.3" cy="70.4" r="6.3"/>
		</g>
		<g>
			<path fill="#879C29" d="M99.4,91.7c-2.3,2.8-3.5,2.3-1.7-1.2c3.5-7.4,7.4-15.5,12-22.4c1.7-2.8,4-4,5.8-3.5l0,0
				c1.2,0.5,1.2,3.5-0.5,6.3C110.4,78.5,105.1,85.4,99.4,91.7z"/>
			<circle fill="#879C29" cx="106.9" cy="59" r="3.5"/>
			<circle fill="#879C29" cx="118.3" cy="56.7" r="3.5"/>
			<circle fill="#879C29" cx="122.9" cy="62.5" r="3.5"/>
			<circle fill="#879C29" cx="118.3" cy="61.8" r="5.1"/>
			<circle fill="#879C29" cx="108.1" cy="65.3" r="6.3"/>
			<circle fill="#879C29" cx="113.2" cy="60.2" r="6.3"/>
			<circle fill="#879C29" cx="116.6" cy="68.1" r="6.3"/>
		</g>
		<g>
			<path fill="#879C29" d="M102.8,98c-2.8,2.3-2.3,3.5,1.2,1.7c7.4-3.5,15.5-7.4,22.4-12c2.8-1.7,4-4,3.5-5.8l0,0
				c-0.5-1.2-3.5-1.2-6.3,0.5C116,87.1,109.2,92.3,102.8,98z"/>
			<circle fill="#879C29" cx="135.6" cy="90.5" r="3.5"/>
			<circle fill="#879C29" cx="137.9" cy="79" r="3.5"/>
			<circle fill="#879C29" cx="131.5" cy="74.5" r="3.5"/>
			<circle fill="#879C29" cx="132.1" cy="78.5" r="5.1"/>
			<circle fill="#879C29" cx="128.7" cy="88.9" r="6.3"/>
			<circle fill="#879C29" cx="134.4" cy="84.3" r="6.3"/>
			<circle fill="#879C29" cx="125.9" cy="80.8" r="6.3"/>
		</g>
		<g>
			<path fill="#FBAB18" d="M58.1,142.1c-6.9,5.1-9.2,3.5-4-4l35.6-51.1c5.1-6.9,14.3-8.1,20.1-1.7l0.5,0.5
				c6.3,6.3,5.1,15.5-1.7,20.1L58.1,142.1z"/>
			<path fill="#E39910" d="M110.9,86.6L110.9,86.6l-59.7,58.5c0.5,0.5,2.8,0,6.3-2.3l51.1-35.6C116,101.4,116.6,92.3,110.9,86.6z"/>
			<g>
				<g>
					<g>
						<defs>
							<path id="SVGID_1_" d="M58.1,142.1c-6.9,5.1-9.2,3.5-4-4l35.6-51.1c5.1-6.9,14.3-8.1,20.1-1.7l0.5,0.5
								c6.3,6.3,5.1,15.5-1.7,20.1L58.1,142.1z"/>
						</defs>
						<clipPath id="SVGID_2_">
							<use xlink:href="#SVGID_1_"  overflow="visible"/>
						</clipPath>
						<g clip-path="url(#SVGID_2_)">
							<path fill="#FBAB18" d="M106.9,106c-5.8-6.3-5.1-6.9,1.2-1.2l45.3,40.7c6.3,5.8,10.4,12,8.6,13.8l0,0
								c-1.7,1.7-8.1-1.7-13.8-8.6L106.9,106z"/>
							<path fill="#FBAB18" d="M86.2,122.7c-5.8-6.3-5.1-6.9,1.2-1.2l45.3,40.7c6.3,5.8,10.4,12,8.6,13.8l0,0
								c-1.7,1.7-8.1-1.7-13.8-8.6L86.2,122.7z"/>
							<path fill="#FBAB18" d="M75.3,132.4c-5.8-6.3-5.1-6.9,1.2-1.2l45.3,40.7c6.3,5.8,10.4,12,8.6,13.8l0,0
								c-1.7,1.7-8.1-1.7-13.8-8.6L75.3,132.4z"/>
							<path fill="#E39910" d="M86.8,102c6.3,5.8,6.9,5.1,1.2-1.2L47.3,55.6c-5.8-6.3-12-10.4-13.8-8.6l0,0
								c-1.7,1.7,1.7,8.1,8.6,13.8L86.8,102z"/>
							<path fill="#E39910" d="M77.1,107.7c6.3,5.8,6.9,5.1,1.2-1.2L37.5,61.2c-5.8-6.3-12-10.4-13.8-8.6l0,0
								c-1.7,1.7,1.7,8.1,8.6,13.8L77.1,107.7z"/>
							<path fill="#E39910" d="M55.3,132.4c6.3,5.8,6.9,5.1,1.2-1.2L15.8,85.9c-5.8-6.3-12-10.4-13.8-8.6l0,0
								c-1.7,1.7,1.7,8.1,8.6,13.8L55.3,132.4z"/>
							<g>
								<path fill="#E39910" d="M98.8,103.2C99.4,103.2,99.4,103.2,98.8,103.2l-3.5-5.1c-0.5-0.5-1.2-0.5-1.7-0.5l0,0
									c-0.5,0.5,0,1.2,0.5,1.7L98.8,103.2z"/>
								<path fill="#E39910" d="M89.6,94C89.6,93.3,89.6,93.3,89.6,94l5.1,3.5c0.5,0.5,0.5,1.2,0.5,1.7l0,0c-0.5,0.5-1.2,0-1.7-0.5
									L89.6,94z"/>
							</g>
							<g>
								<path fill="#E39910" d="M94.9,116.9C95.4,117.5,95.4,116.9,94.9,116.9l-3.5-5.1c-0.5-0.5-1.2-0.5-1.7-0.5l0,0
									c-0.5,0.5,0,1.2,0.5,1.7L94.9,116.9z"/>
								<path fill="#E39910" d="M85.7,107.7C85,107.2,85.7,107.2,85.7,107.7l5.1,3.5c0.5,0.5,0.5,1.2,0.5,1.7l0,0
									c-0.5,0.5-1.2,0-1.7-0.5L85.7,107.7z"/>
							</g>
							<g>
								<path fill="#FBAB18" d="M94.9,116.9C95.4,116.9,95.4,116.9,94.9,116.9l-2.8-4.6c-0.5-0.5-1.2-0.5-1.7-0.5l0,0
									c-0.5,0.5-0.5,1.2,0.5,1.7L94.9,116.9z"/>
								<path fill="#FBAB18" d="M86.8,108.8C86.2,108.3,86.8,108.3,86.8,108.8l4.6,2.8c0.5,0.5,0.5,1.2,0.5,1.7l0,0
									c-0.5,0.5-1.2,0.5-1.7-0.5L86.8,108.8z"/>
							</g>
							<g>
								<path fill="#E39910" d="M73.6,122.7C74.8,123.2,74.8,122.7,73.6,122.7l-3.5-5.1c-0.5-0.5-1.2-0.5-1.7-0.5l0,0
									c-0.5,0.5,0,1.2,0.5,1.7L73.6,122.7z"/>
								<path fill="#E39910" d="M65,113.4C64.4,112.9,64.4,112.9,65,113.4l5.1,3.5c0.5,0.5,0.5,1.2,0.5,1.7l0,0
									c-0.5,0.5-1.2,0-1.7-0.5L65,113.4z"/>
							</g>
							<g>
								<path fill="#E39910" d="M68.5,131.9C69,132.4,69,132.4,68.5,131.9l-3.5-5.1c-0.5-0.5-1.2-0.5-1.7-0.5l0,0
									c-0.5,0.5,0,1.2,0.5,1.7L68.5,131.9z"/>
								<path fill="#E39910" d="M59.8,123.2C59.3,122.7,59.3,122.7,59.8,123.2l5.1,3.5c0.5,0.5,0.5,1.2,0.5,1.7l0,0
									c-0.5,0.5-1.2,0-1.7-0.5L59.8,123.2z"/>
							</g>
							<path fill="#FBAB18" d="M98.8,102.6l-2.3-2.8l-1.2,1.2L98.8,102.6C99.4,103.2,99.4,103.2,98.8,102.6z"/>
						</g>
					</g>
				</g>
			</g>
		</g>
	</g>
</g>
</svg>
