<?xml version="1.0" encoding="utf-8"?>
<!-- Generator: Adobe Illustrator 18.0.0, SVG Export Plug-In . SVG Version: 6.00 Build 0)  -->
<!DOCTYPE svg PUBLIC "-//W3C//DTD SVG 1.1//EN" "http://www.w3.org/Graphics/SVG/1.1/DTD/svg11.dtd">
<svg version="1.1" id="Lag_1" xmlns="http://www.w3.org/2000/svg" xmlns:xlink="http://www.w3.org/1999/xlink" x="0px" y="0px"
	 viewBox="0 0 200 200" enable-background="new 0 0 200 200" xml:space="preserve">
<g>
	<g>
		<path fill="#72DBD6" d="M10,100c0,49.8,40.3,90,90,90V10C50.2,10,10,50.4,10,100z"/>
		<path fill="#72DBD6" d="M100,10v180c49.8,0,90-40.3,90-90C190,50.4,149.8,10,100,10z"/>
	</g>
	<g>
		<path fill="#2C9389" d="M82,66.4c-1.5-1.8,2.1-3.3,1-4c-1.6-1.3-4.7,0-4.6,1.9c0.1,1.5-2.1,1.6-1.8-0.4c0.6-2.7-3.1-1.3-3.8-0.6
			c-1,1-2.7,3.4-2.1,4.9c0.7,2.1,3.6,0.4,4.9,0.6c2.2,0.3,3.8,1.6,6.1,1.8C85.8,71.2,83.5,68,82,66.4C81.6,65.8,82.6,67,82,66.4z"/>
		<path fill="#2C9389" d="M97.6,93c-1.8-1-3.4-4.6-5.5-4.6c-2.4,0,0.7,6.4,1.6,7c0.1,0.1,0.6-1,0.9-1c0.7-0.1-0.1,4.4,3.7,2.7
			c1.6-0.7,1.2-1,1.2-2.7C99.7,92.7,98.9,93.9,97.6,93C97.1,92.7,98,93.3,97.6,93z"/>
		<path fill="#2C9389" d="M102,35.8c1.3-0.6-2.1-1.8-2.4-1.9c0,0.7,0,1.6,0,2.4C100.4,36.4,101.3,36.1,102,35.8
			C102.6,35.7,101.5,36.1,102,35.8z"/>
		<path fill="#2C9389" d="M97.7,75.5c-0.3-1.6-0.4-5-1.2-6.4c-0.7-1-1.8-1.6-1-3.1c0.3-0.4,1.9-1.6,1.8-2.2c-0.1-0.9-4,0-4.6,0.4
			c-2.2,1.2-0.3,6.2,0.9,7.6c1.3,1.5-1.8,4.1,0.3,5.5c0.9,0.6,2.7,1,3.8,1C99.2,78.3,97.9,76.2,97.7,75.5z"/>
		<path fill="#2C9389" d="M50.8,45.2c0.9,0,5.5-3,4.1-3.7c-0.6-0.4-5.2,2.5-5.2,3.3C49.9,45.2,50.2,45.3,50.8,45.2z"/>
		<path fill="#2C9389" d="M52.4,47.1c-0.1,0-1.8,0.1-1.5,0.7c1.2,1.8,5,1,5.8-0.7c0.7-1.6,3.1-5.2,3.1-7c-0.1-3.3-3.7,1.8-4,2.5
			C55.4,43.4,53.3,47,52.4,47.1z"/>
		<path fill="#2C9389" d="M91,149.9c-1.3,0.4-2.4,2.4-3.4,3.3c-1.5,1.2-3.3,1-3.4,3.4c-0.1,2.7-1.6,9.6,3.7,8.2
			c2.5-0.6,3-4.3,3.7-6.2C91.8,157.5,93.1,149.2,91,149.9C90.7,150.1,91.3,149.8,91,149.9z"/>
		<path fill="#2C9389" d="M171.6,118.6c0.1,0.6,0.3,4.3,1.2,4.1c1.6-0.1,4.4-0.7,4.4-2.8c0-1.8,0.9-4.1,1.3-6.1
			c0.3-1.5-0.3-2.5-0.1-4c0.1-0.6,0.3-5.3-1.3-3.3c-0.7,1-1.2,2.7-1.6,3.8c-0.4,1.2-0.9,2.2-1.2,3.4
			C173.8,115.6,171.3,117.1,171.6,118.6z"/>
		<path fill="#2C9389" d="M179.1,96c0.3,0.4,3,6.1,3.3,5.8c1.5-1.3-0.1-6.4-0.9-7.9c-0.4-0.9-4.1-7.7-4.4-7.7
			C174.1,86.2,178.7,95.2,179.1,96z"/>
		<path fill="#2C9389" d="M175.1,80.7c0-0.3-0.7-3.1-1.5-3c-0.9,0.3,0.4,3.8,1.3,3.6C175,81,175,80.8,175.1,80.7
			C175,80,175.1,81.3,175.1,80.7z"/>
		<path fill="#2C9389" d="M138.1,117.5c-1.5-0.9-1.2,2.8-0.6,3.4C138.9,122.4,140.1,118.7,138.1,117.5
			C137.4,117.2,138.7,118,138.1,117.5z"/>
		<path fill="#2C9389" d="M100.4,10.7c-8,0-16.2,1.9-23.9,4c-1,0.3-12.9,2.7-12.9,4.4c0,1.6,9.6-0.9,10.7-1.2c2.1-0.6,4-1.3,6.1-2.1
			c0.1,0,5.5-1.5,4.7-0.3c-0.6,1-5.3,1.6-6.8,2.1c-2.2,0.7-4.4,1.5-6.7,2.2c-2.5,0.7-5,1.5-7.4,2.5c-1,0.4-7.7,3.4-7.7,4.6
			c0,0,6.2-1.5,6.7-1.5c3.7-0.3,6.8,1,10.5,0c1.9-0.6,17.2-5.8,16.5-7c0.6,0.9-0.3,2.2,0.3,3.1c0.6,0.9,2.4,1.2,3.3,1.5
			c2.2,0.6,4.4,0.6,6.7,0.7C100.5,22.8,100.7,10.7,100.4,10.7z"/>
		<path fill="#2C9389" d="M104.1,24.8c5.2-2.4,9.1-0.1,14.3-0.6c1.5-0.1,0.7-0.7,1.8-1.3c1-0.6,2.7-0.3,3.7-0.3c0.7,0,0-5.9-0.3-6.2
			c-1-1.2-4.1-1.6-5.5-2.4c-1.5-0.7-3-1.8-4.4-2.1c-4.4-0.9-9.4-1.2-13.8-1.2c0,2.8,0,5.6,0,8.6c0,1.5,0,2.8,0,4.3
			C99.7,24.7,103.1,25.3,104.1,24.8C104.6,24.7,103.7,25.1,104.1,24.8z"/>
		<path fill="#2C9389" d="M98.8,32.4c-0.1,0.7,0.3,1.3,0.9,1.6c0-1,0-2.2,0-3.3C99.2,31.2,98.9,31.8,98.8,32.4
			C98.6,33,98.9,32,98.8,32.4z"/>
		<path fill="#2C9389" d="M186.2,119.7c-1.9,2.1-2.5,8.2-4.9,9.5c-1.2,0.7-1.6,2.8-2.2,4c-1.2,2.7-2.7,5.2-4.6,7.4
			c-2.4,2.8-4.7,5.3-6.4,8.8c-0.6,1.2-1.2,2.5-1.8,3.7c-0.7,1.3-3.4,4.3-3.4,5.8c0.1,2.2,5.9-1.9,6.4-2.5c0.3-0.4,0.6-0.9,0.9-1.3
			c2.1-3.3,4.1-6.5,6.1-9.8c4.4-7.7,10.7-17.5,11.3-26.7C187,118.9,186.7,119.3,186.2,119.7C185.7,120.5,187,119,186.2,119.7z"/>
		<path fill="#2C9389" d="M98.1,36.7c-1.3,0.1-4.3,1.5-5.6,2.1c-0.9,0.3-6.1,3.1-4.7-0.9c0.4-1.3,7.1,1.3,1.8-3
			c-3.1-2.5-5.6-2.5-9.4-1.2c-4.1,1.5-11.9,3.3-14.1,7.1c-1.5,2.5,4.9,1,1.3,4.9c-1.8,1.8,2.8,0.3,3.6-0.7c0.9-1,1.3-0.9,2.4-1.5
			c0.7-0.4,0.1-1.8,0.9-2.7c0.6-0.6,7.9-4.7,7.9-3c0,2.1-6.1,2.1-5.2,5.3c0.1,0.9,3.4,0,4.1,0.7c1,0.9-4,0.9-4.1,0.9
			c-2.1,0.4-3.6,4.3-5.2,4.1c-1.2,0-1.2,0.1-2.4-0.1c-1.6-0.3-2.5-0.3-4-0.9c-0.9-0.3,0.9-2.2,1-3.6c0.1-1.3-2.2,0.6-2.4,1
			c-0.7,2.1-1.2,2.1-3.3,2.1c-2.2,0.1-4.6,2.1-7,2.4c-1.3,0.1-2.2,0.4-3.4-0.1c-1.3-0.6-0.3,2.5-0.6,3.1c-0.9,1.2-1.9,5.2-4.1,3.6
			c-3-2.2-4.9,0.4-6.5,3c-2.2,0.1-0.9,3.4-0.9,4.7c-0.1,3.7,7.1-2.1,7.6-2.4c1.3-0.7,2.7-1.8,3.8-2.5c1.3-0.7,1.5,0.7,2.5,0.9
			c2.2,0.4,2.5-0.1,3.4,2.4c0.6,1.6,1.9,3.4,1.9,5.3c-0.1,2.7-5.6,0.7-3,3.4c1.5,1.5,4-3.3,4.6-3.7c0.3-0.3,0.6,0.7,1,0.4
			c0,0-1.9-5-1.9-5.8c-0.3-1.9,0.9-4.9,1.5-1.8c0.3,1.8,2.5,4.3,2.1,6.1c-0.1,0.6,0.3,6.7,0.6,6.7c-0.4,0.1,3.1-2.4,2.8-1.3
			c0.3-0.9-1.5-1.5-0.4-2.5c0.7-0.6,2.1-0.9,3-0.6c1.6,0.7-0.1,4,0.6,5.5c1.9,3.4,9.5,0.1,8.3,5.3c-1.3,6.2-7.4,4.6-11.7,2.8
			c-1.9-0.7-4.4-3.4-6.5-2.5c-1,0.4-1,1.6-1.9,1.9c-1.2,0.4-3.4-2.1-3.4-3.1c0-1.8-3-3.1-3.6-4.9c-0.6-1.3,3.7-3.3,2.1-4.6
			c-0.7-0.6-2.2-0.1-3.3-0.3c-1.3-0.3-2.2-1.2-3.6-1.5c-1.3-0.3-2.5,0.1-3.8-0.1c-1.2-0.3-2.8-2.4-4-1.2c-0.9,0.9-1.9,0.9-2.8,1.6
			c-1,0.7-1.5,1.9-2.2,2.8c-1.5,1.6-3.7,2.4-5.3,4c-2.5,2.4-4.7,4.9-5.6,8.5c-1.8,7.4-3.1,16.1,0.3,23.2c0.9,2.7,3.7,3.4,5.8,4.7
			c1.9,1.2,4.1-0.4,5.8,2.1c1.2,1.9,3.4,2.1,4.6,3.7c1.9,2.8-0.1,5.9,0.7,8.9c0.9,3.1,4.7,7.7,4.4,11.1c-0.1,1.8,1.9,2.8,1,4.9
			c-1,2.5-0.7,4.9,0.6,7.3c2.2,3.8,4.4,9.1,7.4,12.2c3.6,3.7,5.5,8,11,8.3c2.8,0.1,9.2-0.6,8.5-5c-0.3-2.1,3.3-1.6,2.2-4.6
			c-1-2.5,1.2-3.8,3.1-4.9c1.8-0.9,4.1-1.5,3.4-4c-0.6-2.2-0.9-4-1.6-6.2c-1.5-4-0.7-7.1,2.5-10.1c5.3-4.7,11.4-8.2,13.5-15.6
			c1-3.4-4.4-2.1-6.1-1.8c-4.4,0.6-5.5-3.4-8.3-6.4c-2.7-2.7-4-7-4.6-10.7c-0.1-1.2-3.3-11.3-2.2-10.8c2.5,0.7,4.1,7.3,4.9,9.5
			c1.2,3.7,3.4,6.8,4.4,10.7c0.4,1.3,0.7,2.8,1.5,4.1c0.7,1.3,3.1-0.1,4.3-0.3c2.2-0.4,4.3-0.7,6.2-1.9c1.5-0.9,2.8-2.5,4.6-2.8
			c3.3-0.7,1.6-9.5,1.6-12.3c-0.9,0.6-3.1,1.6-4.1,0.9c-0.4-0.3,0-3-0.7-2.8c-0.3,0-0.7,1.2-0.9,1c-1-0.6-4.1-7-1.6-7
			c3.1,0,3.7,5,7.6,4.9c0-19,0-38,0-57C99.8,36.4,99,36.6,98.1,36.7C97.5,36.9,98.9,36.6,98.1,36.7z M84.9,70
			c-0.7,1.3-4,0.7-5.2,0.3c-2.5-1.2-3.6-1-6.1-1c-5.9,0,0.9-8.6,3.1-7c1,0.7,0.3,3.3,1.6,3.1c1.9-0.1-0.1-2.5,1.9-3
			c1-0.1,6.1,0,3,1.6C80,65.8,86.3,67.8,84.9,70C84.6,70.6,85.2,69.4,84.9,70z M98.4,78.3c-6.4,0-3.1-4-4.7-7.6
			c-0.7-1.5-2.2-5.3-0.3-6.5c0.6-0.3,4.4-1.2,4.6-0.4c0.1,0.6-1.5,1.6-1.8,2.2c-0.9,1.9,1.3,2.2,1.3,3.7
			C97.5,71.3,99.8,78.3,98.4,78.3z"/>
		<path fill="#2C9389" d="M166.5,129.7c2.1,2.1,6.5,0.1,8.9-0.6c0.9-0.3,5.9-4.7,5.3-4.9c-0.6-0.1-3.8,2.5-4.7,2.8
			c-1.9,0.7-4.4,1.3-6.4,1.5c-2.2,0.1,0.1-3.6,0-4.1c-0.1-0.6-2.5-0.4-3.1-1.6c-0.7-1.3-9.1-6.4-9.1-4.3c0,1.5,3.6,3.8,4.4,5.2
			C163.2,125.8,164.6,127.6,166.5,129.7z"/>
		<path fill="#2C9389" d="M159.7,107.4c0.1,1.5-0.1,3.3,0.3,4.6c0.3,1,1.9,1.8,2.4,3c0.6,1.3,0.4,2.8,1.6,3.7
			c0.9,0.6,4.4,1.8,2.5-0.4c-0.9-1-0.4-2.4-1.5-3.4c-1.3-1.5-2.7-2.4-3.6-4.1c-0.4-0.9-0.3-7.7,0.4-7c0.1,0.3,0.1,0.6,0.3,1
			c0.4,0.4,1.8,0.3,2.4,0.9c0.1,0.1,3.3,2.4,2.5,2.8c3.1-1.6,2.8-7.6,1.6-9.9c-1.8-3.7-5.5-5.3-2.7-9.8c1.5-2.5,1.3,5.8,2.7,3.6
			c0.7-1.2-0.1-2.5-0.4-3.7c-0.3-1.5,1.8-3.4,2.4-4.7c2.7-6.2,0.9-14.3-4.6-18c-1.2-0.7-1.3-2.2-1-3.7c0.4-1.6-1.3-2.1-1.5-0.6
			c-0.1,0.7-4.3-2.5-2.4-4.6c0.4-0.4,1.3,1.2,1.6,1.2c0.9,0,0.4-3,1.8-0.6c0.1,0.3,4.7,4.4,4.3,4.7c1.6-1-1.8-4.6-2.4-5.2
			c-1.8-1.8-2.4-3.6-3.3-5.8c-1.8-4.7-3-8.8-7.1-12.2c-0.4-0.4-4.3-4.1-5.2-3.4c-1.3,1.2-3.4-2.2-4.1-3.1c-1.6-1.9-1.6-3.1-2.4-5.2
			c-0.6-1.9-3.6-2.2-4.6-3.8c0.6,0.9,5.6,3,6.7,3.7c1.6,1,3.4,2.5,5.3,3.3c-1-0.4-3.1-2.8-4.1-3.6c-2.4-1.8-4.9-3.3-7.4-4.7
			c-2.7-1.6-5.3-2.8-8.2-4c-1.2-0.4-5.5-2.8-6.5-2.4c-1,0.4,2.4,2.7,2.7,3c0.9,0.9,0.3,1.8-0.3,2.8c-0.1,0.1-1.5,1-0.7,1.3
			c0.7,0.3,0.6,1,0.3,1.6c-0.6,1.3-3.8-0.7-4.1,0c-0.4,1.2,0.1,1.2-1.9,1.6c-1,0.3-1.5,2.1-2.2,0.4c-1.6-3.6-6.4-0.7-7.1,1.9
			c-0.6,2.1-0.9,3.1-3.3,3.8c-1.5,0.6-0.7-0.4-2.1-0.9c-1.5-0.4,0,4.1-0.3,4.1c-1,0.3-5.3-1.2-5.6-2.5c-0.4-2.7,2.8-3.6,3.7-5.6
			c-3.8,1.2-5,2.5-5,6.4c0,1,5.5,2.2,0.1,2.7c-0.1,0-0.1,0.6-0.1,0.7c0,5.9,0,11.9,0,17.8c0,12.8,0,25.5,0,38.3
			c2.4-0.1,2.2-0.3,3.7,1.2c0.9,0.9,4.1,0.6,5.3,0.7c2.4,0.3,4.9-0.7,7.1-0.3c0.6,0.1,3.3,2.7,3.4,3.4c0.7,1.9,2.7,3.1,4.4,1.9
			c2.2-1.5,1.9,1.5,2.1,3.1c0.7,5.3,4.1,9.2,6.1,14c1.9,4.6,4.7-3.4,4.6-5.3c-0.1-2.5-0.6-3.8,1.2-5.9c1.6-1.9,3.1-4,4.6-6.2
			c0.9-1.5,1.2-3.4,2.8-4c2.1-0.7,2.7-2.5,4.6-0.7c1.6,1.6,3.8,3.3,3.8,5.9c0,3.6,3.1-0.9,3-0.9
			C158.2,101.5,159.4,105.5,159.7,107.4C159.7,108.5,159.5,106.5,159.7,107.4z"/>
		<path fill="#2C9389" d="M100.4,107.9c2.5-1.9,3.7-3.6,5.3-6.2c1.2-1.8-0.9-2.8-2.2-3.6c-2.4-1.3-0.7-3.8-4-1.6c-0.6,1,0,4.3,0,5.5
			c0,2.1,0,4.3,0,6.4C100,108.2,100.1,108,100.4,107.9C100.9,107.4,100.3,108,100.4,107.9z"/>
	</g>
</g>
</svg>
