<?xml version="1.0" encoding="utf-8"?>
<!-- Generator: Adobe Illustrator 18.0.0, SVG Export Plug-In . SVG Version: 6.00 Build 0)  -->
<!DOCTYPE svg PUBLIC "-//W3C//DTD SVG 1.1//EN" "http://www.w3.org/Graphics/SVG/1.1/DTD/svg11.dtd">
<svg version="1.1" id="Lag_1" xmlns="http://www.w3.org/2000/svg" xmlns:xlink="http://www.w3.org/1999/xlink" x="0px" y="0px"
	 viewBox="0 0 200 200" enable-background="new 0 0 200 200" xml:space="preserve">
<circle fill="#253A44" cx="100" cy="100" r="90"/>
<g>
	<path fill="#F5F2E0" d="M74.4,131.4c5.7-5.5,10.9-10.7,15.5-15.3c4.6-4.7,8.6-9,11.8-13c3.2-4,5.7-7.7,7.5-11.2
		c1.7-3.5,2.6-6.8,2.6-9.9c0-4.4-1.2-7.9-3.5-10.5c-2.3-2.6-5.7-3.8-10.1-3.8c-3.2,0-6.1,0.9-8.8,2.7c-2.6,1.8-5.1,4-7.3,6.5
		l-8.3-8.3c3.8-4.1,7.7-7.2,11.8-9.4s8.9-3.3,14.6-3.3c4,0,7.6,0.6,10.8,1.8c3.2,1.2,5.9,2.9,8.2,5.1s4,4.9,5.3,8
		c1.3,3.1,1.9,6.6,1.9,10.4c0,3.6-0.8,7.3-2.4,11.1c-1.6,3.8-3.8,7.6-6.5,11.4c-2.7,3.9-5.9,7.8-9.6,11.9
		c-3.6,4.1-7.5,8.3-11.6,12.6c2.2-0.2,4.5-0.4,7-0.6c2.5-0.2,4.8-0.3,6.8-0.3h20.3v12.7H74.4V131.4z"/>
</g>
</svg>
