<?xml version="1.0" encoding="utf-8"?>
<!-- Generator: Adobe Illustrator 18.0.0, SVG Export Plug-In . SVG Version: 6.00 Build 0)  -->
<!DOCTYPE svg PUBLIC "-//W3C//DTD SVG 1.1//EN" "http://www.w3.org/Graphics/SVG/1.1/DTD/svg11.dtd">
<svg version="1.1" id="Lag_1" xmlns="http://www.w3.org/2000/svg" xmlns:xlink="http://www.w3.org/1999/xlink" x="0px" y="0px"
	 viewBox="0 0 200 200" enable-background="new 0 0 200 200" xml:space="preserve">
<g>
	<circle fill="#1E4344" cx="100" cy="100" r="90"/>
	<path fill="#163233" d="M190,101.2L155.6,68h-1.6c-1.6,0-3.3,0-4,2c-0.7,0-1.6,0-2.4,0c-1.6,1-2.4,2.4-2.4,4.1
		c0-0.7-0.7-0.7-0.7-0.7c-1.6-1.6-4-3.5-5.7-4.2C118.3,64.2,97.1,64,76.7,69H76c-10.6,3-11.5-1.5-22.8-0.5c-2.4,0-4.9,0.8-7.3,1.7
		c2.4,4,4,6.6,7.3,9.9c2.4,2.4,4.9,4,7.3,6.6c-2.4-1.6-4.9-3.3-7.3-4.9c-3.3,3.3-5.7,6.6-8.9,7.3l-0.6-0.7c-0.7,0-1.5,0.7-1.5,1.6
		v8.2l39.2,39.3c-0.7,1.6-1.7,3.3-0.8,3.3l45.4,45.3C162.5,175.2,189.3,141.3,190,101.2z"/>
	<g>
		<g>
			<path fill="#DCDAC8" d="M99.9,134.8l-1.6-12.2c-3.3,0-6.6,0-8.9,0c0,0,4,9.9,4.9,11.5c0,1.6-4,6.6-1.6,6.6
				c3.3,0.7,6.6-0.7,7.3-0.7C99.2,137.3,97.5,133.1,99.9,134.8z"/>
			<path fill="#DCDAC8" d="M72.9,70.1h0.7c0.7,0,0.7,0,1.6,0c-2.4-1.6-4.9-4-10.6-5.7c-2.4-0.7-4-0.7-6.6-0.7
				c0.7,1.6,0.7,3.3,1.6,4.9C63.9,70.1,66.3,71.8,72.9,70.1z"/>
			<path fill="#F2EFDC" d="M154.7,70.1c0-0.7,0.7-0.7,0.7-0.7h-1.6l0,0c-1.6,0-3.3,0-4,1.6c-0.7,0-1.6,0-2.4,0
				c-1.6,0.7-2.4,2.4-2.4,4c0-0.7-0.7-0.7-0.7-0.7c-1.6-1.6-4-3.3-5.7-4c-20.5-4.9-41.6-4.9-62.1,0h-0.7
				c-10.6,2.4-11.5-1.6-22.8-0.7c-2.4,0-4.9,0.7-7.3,1.6c2.4,4,4,6.6,7.3,9.9c2.4,2.4,4.9,4,7.3,6.6c-2.4-1.6-4.9-3.3-7.3-4.9
				C49.7,86,47.3,89.3,44,90l-0.7-0.7c-0.7,0-1.6,0.7-1.6,1.6v8.2h8.2c-1.6,0.7-2.4,1.6-4,2.4c2.4,0.7,4.9,0.7,7.3,1.6
				c0,0,0,0,0.7,0c1.6,3.3,4,6.6,7.3,7.3c3.3,0.7,8.2,3.3,13.1,4.9c0,0,0.7,0.7,1.6,0.7c2.4,4.9,7.3,13.9,7.3,17.2
				c0,1.6-5.7,8.2-2.4,8.9c2.4,0.7,8.2-0.7,8.2-0.7c0-3.3-0.7-7.3,1.6-4.9l-1.6-17.2c10.6,1.6,20.5,1.6,31,0.7
				c1.6,1.6,3.3,2.4,4.9,3.3c3.3,1.6,5.7,2.4,8.2,1.6c0,4.9-2.4,10.6-2.4,10.6s-7.3,5.7-4.9,7.3c2.4,1.6,8.2,0.7,8.2,0.7
				c0.7-2.4,0-4.9,3.3-4l6.6-18.8c0-2.4-2.4-0.7-1.6-5.7c3.3-2.4,5.7-6.6,6.6-11.5c0.7-3.3,1.6-7.3,1.6-11.5c0-4.9-0.7-8.9-2.4-13.1
				l0,0c0-1.6-0.7-2.4-0.7-4c0-0.7,0-2.4,0-3.3s1.6-0.7,1.6-0.7c-0.7,1.6-0.7,4,0.7,4c1.6,0,2.4-0.7,2.4-3.3c0-0.7-0.7-1.6-1.6-1.6
				c0-0.7,0.7-0.7,0.7-1.6c0,0,0.7,0,0.7,0.7c-0.7,1.6-0.7,3.3,1.6,2.4C156.3,72.7,156.3,71,154.7,70.1z M150.7,74.3L150.7,74.3
				c0,0.7,0,0.7,0,0.7V74.3z"/>
		</g>
		<path fill="#DCDAC8" d="M144.1,101.2c0,4.9-4,8.2-8.2,8.2H63c-4.9,0-8.2-4-8.2-8.2l0,0c0-4.9,4-8.2,8.2-8.2h72.9
			C140.8,92.2,144.1,96.4,144.1,101.2L144.1,101.2z"/>
		<ellipse fill="#DCDAC8" cx="102.4" cy="107.7" rx="37.6" ry="7.3"/>
		<ellipse fill="#F2EFDC" cx="102.4" cy="89.8" rx="40" ry="7.3"/>
		<path fill="#DCDAC8" d="M140.8,121.6c-6.6-7.3-9.9-13.9-9.9-18.8c-8.2,2.4-13.1,5.7-13.1,9.9c0,4,5.7,7.3,13.9,9.9
			C135.1,122.5,137.5,122.5,140.8,121.6z"/>
		<path fill="#DCDAC8" d="M52.4,84c-0.7,1.6-1.6,4-1.6,6.6c0,6.6,4,11.5,8.2,11.5c4,0,7.3-3.3,8.2-8.2C60.6,92.2,55,88.9,52.4,84z"
			/>
		<path fill="#DCDAC8" d="M56.6,96.4c0,0.7-0.7,2.4-2.4,2.4H43.6c-0.7,0-2.4-0.7-2.4-2.4v-1.6c0-0.7,0.7-2.4,2.4-2.4h10.6
			c0.7,0,2.4,0.7,2.4,2.4V96.4z"/>
		<path fill="#DCDAC8" d="M52.4,86.6C52.4,86.6,51.7,86.6,52.4,86.6c-2.4,3.3-5.7,5.7-9.9,5.7c-0.7,0.7-0.7,2.4-0.7,3.3
			c4,2.4,9.9,4,15.5,4c2.4,0,4,0,5.7-0.7c0-0.7,0-0.7,0-1.6C63.2,93.1,51.7,86.6,52.4,86.6z"/>
	</g>
</g>
</svg>
