<?xml version="1.0" encoding="utf-8"?>
<!-- Generator: Adobe Illustrator 18.0.0, SVG Export Plug-In . SVG Version: 6.00 Build 0)  -->
<!DOCTYPE svg PUBLIC "-//W3C//DTD SVG 1.1//EN" "http://www.w3.org/Graphics/SVG/1.1/DTD/svg11.dtd">
<svg version="1.1" xmlns="http://www.w3.org/2000/svg" xmlns:xlink="http://www.w3.org/1999/xlink" x="0px" y="0px"
	 viewBox="0 0 584.8 588.3" enable-background="new 0 0 584.8 588.3" xml:space="preserve">
<g id="background">
	<linearGradient id="SVGID_1_" gradientUnits="userSpaceOnUse" x1="287.0165" y1="2.9245" x2="300.8767" y2="591.1907">
		<stop  offset="0" style="stop-color:#FBD140"/>
		<stop  offset="1" style="stop-color:#F9EDA3"/>
	</linearGradient>
	<rect y="0.6" fill="url(#SVGID_1_)" width="584.8" height="463.6"/>
</g>
<g id="plant_1_">
	<g id="flowers">
		<g>
			<rect x="93.8" y="408.2" fill="#8DC63F" width="1" height="30.5"/>
			<g>
				<path fill="#FFFFFF" d="M81.9,403.1c3.2-6.1,7.3,0.6,10.1,3c-1.2-2.3-2.7-8.4,0.3-9.6c5.3-2.1,5.8,5.3,3.6,8.2
					c1.7-1.6,7.3-5.9,9.3-2.4c3.3,5.6-5.4,6.1-8,5.8c3,0.6,8,5.5,4.6,8.7c-3.9,3.7-6.8-3.5-8.1-6.2c-0.7,3.2-1.3,9-5.9,7.5
					c-8-2.5-0.5-8,1.4-9.5C89.2,408.5,78.3,409.8,81.9,403.1z"/>
				<circle fill="#00AEEF" cx="94.2" cy="407.7" r="1.9"/>
			</g>
		</g>
		<g>
			<rect x="154.4" y="388.5" fill="#8DC63F" width="1" height="52.7"/>
			<g>
				<path fill="#FFFFFF" d="M142,383.2c2.4-6.4,7.7,0.7,10.6,3.1c-1.2-2.3-2.8-8.6,0.3-9.6c5.9-2,5.8,5.3,3.6,8.2
					c1.7-1.6,7.8-4.7,9.5-1.2c2.8,5.5-6,5.5-8.2,4.5c3,0.6,8,5.5,4.6,8.7c-3.9,3.7-6.8-3.5-8.1-6.2c-0.7,3.2-1.3,9-5.9,7.5
					c-8-2.5-0.5-8,1.4-9.5C149.8,388.8,139.6,389.6,142,383.2z"/>
				<circle fill="#00AEEF" cx="154.8" cy="388" r="1.9"/>
			</g>
		</g>
		<g>
			<rect x="198.4" y="410.8" fill="#8DC63F" width="1" height="30.5"/>
			<g>
				<path fill="#FFFFFF" d="M186.7,405.8c2.6-5.1,7.1,0.4,9.9,2.7c-1.2-2.3-2.7-8.3,0.3-9.6c5.4-2.3,5.8,5.3,3.6,8.2
					c1.7-1.6,6.9-6.1,9.5-3c4.4,5.2-5.6,7.1-8.2,6.4c3,0.6,8,5.5,4.6,8.7c-3.9,3.7-6.8-3.5-8.1-6.2c-0.7,3.2-1.3,9-5.9,7.5
					c-8-2.5-0.5-8,1.4-9.5C193.8,411,183.9,411.2,186.7,405.8z"/>
				<circle fill="#00AEEF" cx="198.8" cy="410.3" r="1.9"/>
			</g>
		</g>
		<g>
			<rect x="331.4" y="409.8" fill="#8DC63F" width="1" height="30.5"/>
			<g>
				<path fill="#FFFFFF" d="M319,404.4c2.5-5.1,7.7,0.8,10.5,3.1c-1.2-2.3-2.7-8.4,0.3-9.6c5.2-2.2,5.8,5.3,3.6,8.2
					c1.7-1.6,6.4-5.6,8.5-2.2c3.9,6.4-4.5,5.4-7.2,5.6c3,0.6,8,5.5,4.6,8.7c-3.9,3.7-6.8-3.5-8.1-6.2c-0.7,3.2-1.3,9-5.9,7.5
					c-8-2.5-0.5-8,1.4-9.5C326.8,410,316.1,410.3,319,404.4z"/>
				<circle fill="#00AEEF" cx="331.8" cy="409.3" r="1.9"/>
			</g>
		</g>
		<g>
			<rect x="393.7" y="390.9" fill="#8DC63F" width="1" height="40.6"/>
			<g>
				<path fill="#FFFFFF" d="M380.5,387.5c1-5.6,8-2.9,11.5,1.2c-1.2-2.3-2.8-8.9,0.3-9.6c6.6-1.5,5.8,5.3,3.6,8.2
					c1.7-1.6,7.4-4.3,9.2-0.7c2.1,4.4-4.4,6-7.8,4c3,0.6,8,5.5,4.6,8.7c-3.9,3.7-6.8-3.5-8.1-6.2c-0.7,3.2-1.3,9-5.9,7.5
					c-8-2.5-0.5-8,1.4-9.5C389.2,391.2,379.4,393.4,380.5,387.5z"/>
				<circle fill="#00AEEF" cx="394.1" cy="390.4" r="1.9"/>
			</g>
		</g>
		<g>
			<rect x="462.9" y="404.9" fill="#8DC63F" width="1" height="30.6"/>
			<g>
				<path fill="#FFFFFF" d="M450.2,400.9c0.8-5.6,8-0.5,10.9,1.8c-1.2-2.3-2.7-8.5,0.3-9.6c6.1-2.2,5.8,5.3,3.6,8.2
					c1.7-1.6,7.2-5.3,9-1.8c3.3,6.5-4.4,5.4-7.7,5.1c3,0.6,8,5.5,4.6,8.7c-3.9,3.7-6.8-3.5-8.1-6.2c-0.7,3.2-1.3,9-5.9,7.6
					c-8-2.5-0.5-8,1.4-9.5C458.3,405.2,449.3,407.4,450.2,400.9z"/>
				<circle fill="#00AEEF" cx="463.3" cy="404.4" r="1.9"/>
			</g>
		</g>
		<g>
			<rect x="533.5" y="392" fill="#8DC63F" width="1" height="40.6"/>
			<g>
				<path fill="#FFFFFF" d="M520.2,388.5c1.5-5.5,8.6-1.1,11.5,1.3c-1.2-2.3-2.6-8.2,0.3-9.6c5.6-2.7,5.8,5.3,3.6,8.2
					c1.7-1.6,7.3-5.3,8.7-1.6c1.8,4.8-4.3,5.6-7.4,4.9c3,0.6,8,5.5,4.6,8.7c-3.9,3.7-6.8-3.5-8.1-6.2c-0.7,3.2-1.3,9-5.9,7.5
					c-8-2.5-0.5-8,1.4-9.5C528.9,392.3,518.9,393.3,520.2,388.5z"/>
				<circle fill="#00AEEF" cx="533.9" cy="391.5" r="1.9"/>
			</g>
		</g>
	</g>
	<path id="grass" fill="#8DC63F" d="M5.9,464.7c-5.2-4.9-4-37.8-4-37.8s6.4,6.6,9.6,11c-0.8-6.5,4-19.9,9-9.1
		c0.1-9.4,11.4-8.4,9.6,1.8c2.8-1,6-3.5,8.9-4.5c1.1,2.8,1.6,6,1.3,9.2c2.4-1.1,5.6-1.1,8.1-1.6c0,2.1,1.6,3.9,1.3,6.3
		c5.7-3.2,12.8-7.6,18.2-1.9c1.8-6.1,8.7-15.6,14.2-6.8c-1.8-8.3,10.7-13,10.3-3.6c3.4-1.4,6.7-4.1,10.8-3.5c1.2,3,1.5,6.7,1.2,10.1
		c4.8-0.8,15.5-6.7,13.9,2.8c5-1.7,20-7.2,17.5,3.5c2.4-4.7,7.2-6.7,12-4.7c-3.2-7.2,3.2-12.5,5.7-4.2c2.9-5.2,10.2-7.9,12.7-1.1
		c3.1-8.4,14.1-7.2,12.5,2.7c5.4,0.2,16.3-1.7,9.3,7.5c5-2.1,13.6-6.7,14.5,1c-1.4-9.5,7-15.1,13-6.6c1.1-6.4,10.9-13.6,12.4-3.7
		c4.2-1.9,21.4-12.6,16,2.8c1.8-1.3,4.5-0.9,6-1.6c-0.4,2.1,0.4,4.1-0.5,6.4c4.6-3,20.2-3.8,13,4.8c4.3-0.6,7.4-4.7,11.6-3
		c-1.1-5.2,1.8-11.9,6.8-6c-1-8.2,10.9-12.5,13.2-3.6c2.8-6.4,16.9-13.8,15.7-0.8c3.5-2.1,7.5-4.2,11.8-3.5c0.3,3.3,1.9,4.1-0.5,7.4
		c4.8-1.6,12.1-2.8,11,4.5c3.7-4.3,11.6-7.3,14.6-0.7c4-2.8,13.2-5.9,14.9-1.9c-0.9-4.4-0.4-9.4,4.5-9.4c3.2,6.3,18.4-12.2,19.8,2.6
		c4.1-3.2,15.2-8.8,12.9,1.9c5.3-0.3,14.6-6.9,14,2.8c3.3-0.2,6.5,0.9,8.9,2.9c2.4-4.2,7.7-9.4,10.7-3.7c1.9-4.9,10.5-12.3,13.6-3.8
		c3.7-2.6,17.7-12.7,16-0.1c7.3-1.2,15.1-8.3,17.7,4.5c4.9-3.4,8.5-0.8,7.4,4.9c6.2,0.4,7.4-4.7,6.5-10.1c3.1-1.4,5.1-1.8,7.3,0.9
		c0,0.7-0.1,0.7-0.1,0c0-7,8.6-11.9,11.2-3.2c1.4-8.5,21-14.4,19.6-3.6c1.2-0.5,4-0.1,5.3-0.7c-0.5,2.1,0.8,5.3,0.5,7.3
		c3.7-0.6,7.8-1.2,11.6-0.7c-0.3,2,0.6,4.3,0,6.3c-0.7,0.2-1.2,0.3-1.7,0.7c4-1.7,17.3-7.1,13,2.2c3-1.4,6.6-2.9,10-2.6
		c-0.1,1,0.3,2.3,0.3,3.3c2.8-3.3,5.9-3.7,7.5,0.2c1.9-1.7,3.2-0.8,5.2-1.6c3.4,5.7,1.6,29.1,1.5,34.9
		C584.9,470.9,5.9,464.7,5.9,464.7z"/>
	<g id="ground">
		<path fill="#B77B49" d="M584.9,442.1c0.6,0.5-23.2,6.7-36.1,3.6c-16.8-4.1-30.8-12.5-48.3-7c-13.8,4.4-21.9,9.4-35.9,4.1
			c-13-4.9-25.6,1.9-39.2,1.4c-14.8-0.6-29.9-5.5-44.3-4.8c-16.3,0.8-31.1,6.3-47.7,5.4c-15.8-0.8-27.1-4.3-42.9,0
			c-14.3,3.9-35.3,8.8-49.2,2.9c-14.3-6.1-27.5-4-42.4-0.7c-17.6,3.8-33.3-3.3-50.9-4.2c-15.8-0.8-29.7,7-44.8,6.8
			c-12-0.2-23-4.2-35.4-3.4c-6.7,0.4-12.7,3.1-19.5,3.4c-6.6,0.3-12.1-0.8-18.4-2.2C19.7,445.2,9.3,440,0,447.5v39.1l584.9,4.9
			L584.9,442.1z"/>
		<path fill="#996C47" d="M585.4,588.3L0,588.3V456.2c9.3-5.9,19.8-1.8,29.9-0.1c6.2,1,11.7,2,18.4,1.7c6.8-0.3,12.8-2.3,19.5-2.7
			c12.5-0.6,23.5,2.5,35.5,2.7c15.1,0.2,29-6,44.8-5.3c17.6,0.7,33.4,6.3,51,3.3c14.9-2.6,28.2-4.2,42.5,0.6
			c13.9,4.6,35,0.8,49.3-2.2c15.8-3.4,27.1-0.7,42.9,0c16.6,0.7,31.4-3.6,47.7-4.2c14.5-0.6,29.5,3.2,44.4,3.7
			c13.6,0.5,26.3-4.9,39.3-1.1c14.1,4.1,22.1,0.3,36-3.2c17.5-4.3,31.5,2.2,48.3,5.4c12.9,2.5,32.9-2.8,36-3.6V588.3z"/>
		<g>
			<path fill="#A57653" d="M0,500c0,0,48.8-22,129.8,5s140.8,0.8,187-6.7c47.8-7.8,162.8-2.3,193.5,0.7c30.7,3,74.5,4.5,74.5,4.5
				l-0.1,24.5c0,0-171.2-19-247.5,6c-76.3,25-232.1-6.5-281.9-21.2C5.5,498,0,534,0,534V500z"/>
			<path fill="#A57653" d="M0,554.2c0,0,30.2-12,113,9c82.8,21,291.2,0,291.2,0s135.1,0.9,180.6-1.5v18.5c0,0-454.4,19.5-507.2-2.3
				C47.8,565.6,0,586.2,0,586.2V554.2z"/>
			<path fill="#A57653" d="M0,477.5c0,0,3.3-0.4,5.5-0.8c4.4-0.8,10.8-1.7,19-2.4c8.2-0.7,18.2-1.1,29.6-0.8
				c5.7,0.1,11.8,0.5,18.1,1c3.2,0.4,6.4,0.7,9.8,1.1c1.7,0.1,3.3,0.5,5,0.7c1.7,0.3,3.4,0.5,5.1,0.8c0.9,0.1,1.7,0.3,2.6,0.4
				l1.3,0.2l1.3,0.3c1.8,0.4,3.5,0.7,5.3,1.1c1.8,0.4,3.6,0.7,5.4,1.1c1.8,0.4,3.6,0.9,5.5,1.4c1.8,0.5,3.7,1,5.5,1.4
				c1.9,0.5,3.8,0.9,5.6,1.5c3.7,1.2,7.5,2.4,11.4,3.6c7.5,2.5,15.2,4.7,23.2,6.3c8.1,1.6,16.4,2.7,24.9,3.2
				c17,1.1,34.8-0.1,52.6-2.7c17.9-2.6,35.8-6.6,53.8-10.8c9-2.1,18-4.3,27.1-6.1c4.5-1,9.1-1.8,13.7-2.5l3.4-0.5l0.9-0.1l0.3,0
				l0.2,0l0.4,0l1.7-0.2c2.3-0.2,4.5-0.4,6.8-0.6l3.4-0.3c1.1-0.1,2.3-0.1,3.4-0.2c2.3-0.1,4.6-0.2,6.8-0.3c2.3-0.1,4.6-0.2,6.8-0.3
				c2.2,0,4.5-0.1,6.7-0.1c2.2,0,4.5-0.1,6.7-0.1c1.1,0,2.2,0,3.3,0c1.1,0,2.2,0,3.3,0c4.4,0,8.8,0.1,13.1,0.1
				c4.3,0,8.6,0.2,12.9,0.3c4.2,0.1,8.5,0.2,12.6,0.4c8.3,0.4,16.5,0.6,24.4,1c7.9,0.4,15.6,0.7,23.1,1.2c7.4,0.4,14.6,0.9,21.6,1.3
				c6.9,0.4,13.5,0.8,19.8,1.2c6.3,0.4,12.3,0.8,17.9,1.2c11.2,0.8,21,1.5,29,2.2c8.1,0.6,14.4,1.1,18.7,1.4
				c4.3,0.3,5.1,0.4,5.1,0.4l0.5,11.3c0,0-2.3-0.3-6.6-0.8c-4.3-0.5-10.6-1.2-18.6-2.1c-8-0.8-17.8-1.8-28.9-2.9
				c-5.6-0.5-11.5-1.1-17.8-1.7c-6.3-0.6-12.9-1.2-19.7-1.7c-6.9-0.6-14.1-1.1-21.5-1.7c-7.4-0.6-15.1-1.1-23-1.6
				c-7.9-0.6-16-0.9-24.3-1.4c-4.1-0.2-8.3-0.3-12.6-0.5c-4.2-0.1-8.5-0.4-12.8-0.5c-4.3-0.1-8.6-0.2-13-0.3c-1.1,0-2.2,0-3.3-0.1
				c-1.1,0-2.2,0-3.3,0c-2.2,0-4.4,0-6.6,0c-2.2,0-4.4,0-6.7,0c-2.2,0-4.4,0.1-6.6,0.2c-2.2,0.1-4.4,0.2-6.7,0.2
				c-1.1,0.1-2.2,0.1-3.3,0.1l-3.4,0.3c-2.3,0.2-4.5,0.4-6.8,0.6l-1.7,0.2l-0.4,0l-0.2,0c0.1,0-0.1,0-0.1,0l-0.8,0.1l-3.3,0.5
				c-4.5,0.7-8.9,1.5-13.4,2.4c-9,1.8-18,3.9-27,5.9c-18,4.2-36.2,8.2-54.3,10.8c-18.1,2.6-36.2,3.7-53.7,2.8
				c-8.7-0.5-17.3-1.5-25.6-3.1c-2.1-0.3-4.1-0.8-6.2-1.3c-1-0.2-2-0.4-3.1-0.7c-1-0.3-2-0.5-3-0.8c-4.1-1-7.8-2.2-11.8-3.4
				c-15-4.8-29.6-7.9-43.1-9.7c-13.5-2-26.1-2.3-37.1-2.2c-11.1,0.2-20.7,1-28.5,2.2c-7.8,1.1-13.9,2.4-18,3.4
				c-2,0.5-7.6,1.4-7.6,1.4V477.5z"/>
		</g>
		<g>
			<ellipse fill="#8C603E" cx="251.4" cy="476" rx="7.5" ry="3.8"/>
			<g>
				<ellipse fill="#8C603E" cx="68.1" cy="522.2" rx="7.5" ry="3.8"/>
				<ellipse fill="#8C603E" cx="53.1" cy="535.5" rx="7.5" ry="3.8"/>
				<ellipse fill="#8C603E" cx="72.6" cy="531.8" rx="4.5" ry="2.3"/>
			</g>
			<g>
				<ellipse fill="#8C603E" cx="430.6" cy="489.7" rx="7.5" ry="3.8"/>
				<ellipse fill="#8C603E" cx="415.6" cy="503" rx="7.5" ry="3.8"/>
				<ellipse fill="#8C603E" cx="435.1" cy="499.3" rx="4.5" ry="2.3"/>
			</g>
			<g>
				<ellipse fill="#8C603E" cx="547.2" cy="545.6" rx="7.5" ry="3.8"/>
				<ellipse fill="#8C603E" cx="533.9" cy="540.7" rx="4.5" ry="2.3"/>
			</g>
			<g>
				<ellipse fill="#8C603E" cx="502.6" cy="467.7" rx="7.5" ry="3.8"/>
				<ellipse fill="#8C603E" cx="517.3" cy="474.8" rx="4.5" ry="2.3"/>
				<ellipse fill="#8C603E" cx="528.6" cy="466.9" rx="5.7" ry="2.9"/>
			</g>
			<g>
				<ellipse fill="#8C603E" cx="122.8" cy="468.3" rx="7.5" ry="3.8"/>
				<ellipse fill="#8C603E" cx="137.5" cy="475.4" rx="4.5" ry="2.3"/>
				<ellipse fill="#8C603E" cx="148.7" cy="467.5" rx="5.7" ry="2.9"/>
			</g>
			<g>
				<ellipse fill="#8C603E" cx="445.1" cy="537.9" rx="7.5" ry="3.8"/>
				<ellipse fill="#8C603E" cx="458.5" cy="561" rx="7.5" ry="3.8"/>
				<ellipse fill="#8C603E" cx="440.6" cy="547.5" rx="4.5" ry="2.3"/>
			</g>
			<g>
				<ellipse fill="#8C603E" cx="135.1" cy="558.6" rx="7.5" ry="3.8"/>
				<ellipse fill="#8C603E" cx="151.5" cy="550.7" rx="4.5" ry="2.3"/>
			</g>
			<g>
				<ellipse fill="#8C603E" cx="339.6" cy="473.4" rx="7.5" ry="3.8"/>
				<ellipse fill="#8C603E" cx="355.9" cy="465.5" rx="4.5" ry="2.3"/>
			</g>
		</g>
	</g>
	<g id="plant">
		<g>
			<path fill="#74AA0C" d="M264.8,184.3c0,0-0.7,0.9-1.8,2.5c-1.1,1.6-2.6,4.1-4.1,7.5c-1.5,3.4-2.9,7.6-4,12.6
				c-1.1,5-1.9,10.8-2.4,17.1c-0.4,6.3-0.5,13.2,0,20.4c0.4,7.2,1.3,14.9,2.6,22.6c1.4,7.8,3.2,15.7,6,23.5
				c2.7,7.9,5.4,16.1,7.9,24.3c1.8,6.2,3.7,12.5,4.9,18.8c0.4,2.1,0.8,4.2,1.3,6.3c2,10.2,3,20.6,3.3,31c0.1,12.8-0.6,25.6-1.6,38.4
				c-0.5,6.4-1,12.2-1.5,17.4c-0.1,1.3-0.5,9.1-0.5,10c0,0.9,0,1.8,0,2.7c0.1,3.3,0.1,6.5,1.5,9.7c0.3,0.6-10.9,3.9-12.2,4.4
				c-0.4-1.3-0.9-2.5-1.2-3.8c-0.5-2.4-1-6-1-10.1c0-1,0.1-2.1,0.1-3.2c0.1-1.1,0.9-9.6,1.1-10.9c0.7-5.2,1.4-11,2.2-17.3
				c1.6-12.2,3-24.6,3.3-37c0-1.9,0-3.9,0-5.9c0-11.2-1.3-22.4-3.4-33.4c-1-5.1-2.1-10.1-3.3-15.1c-2.1-8.2-4.4-16.3-6.7-24.4
				c-2.4-8.2-4-16.5-5.1-24.5c-1-8-1.6-15.8-1.7-23.2c-0.1-7.4,0.3-14.4,1-20.8c0.7-6.4,1.8-12.3,3.2-17.3c1.4-5.1,3.1-9.4,4.7-12.8
				c1.7-3.4,3.4-5.9,4.6-7.5c1.3-1.6,1.9-2.4,1.9-2.4L264.8,184.3z"/>
			<path fill="#699900" d="M263.6,454.8l-0.5-1.5c-0.4-1.1-0.8-2.3-1-3.4c-0.5-2.2-1.1-5.8-1-10.3l0.1-3.2c0.1-1.1,0.9-9.7,1.1-11
				l2.2-17.3c1.5-11.7,3-24.3,3.3-36.9c0-1.2,0-2.5,0-3.8c0-0.7,0-1.4,0-2.1c0-10.1-1.1-21-3.4-33.2c-1-5.2-2.1-10.2-3.3-15
				c-2.2-8.9-4.8-17.7-6.7-24.4c-2.2-7.5-3.9-15.5-5.1-24.7c-1-7.9-1.6-15.8-1.7-23.4c-0.1-7,0.2-14,1-21c0.7-6.4,1.8-12.2,3.3-17.5
				c1.3-4.7,2.9-9,4.8-12.9c1.6-3.3,3.3-5.7,4.6-7.7l2.6-3.2l2.3,1.8l-0.6,0.8c0,0-0.7,0.8-1.8,2.4c-1.2,1.8-2.6,4.2-4,7.3
				c-1.6,3.8-3,8-4,12.5c-1.1,5.1-1.9,10.8-2.4,16.9c-0.4,6.7-0.4,13.5,0,20.3c0.4,7.3,1.3,14.9,2.6,22.5c1.6,8.7,3.5,16.3,5.9,23.3
				c2.3,6.7,5.2,15.5,7.9,24.4c1.8,6,3.7,12.4,5,18.9l1.3,6.3c1.9,9.8,3,20.3,3.3,31.2c0.1,11.9-0.5,24.4-1.6,38.5l-1.5,17.4
				c-0.1,1.3-0.5,9-0.5,10l0.1,3.8c0.1,2.8,0.2,5.5,1.4,8.1l0.2,0.4l-0.2,0.5c-0.3,0.7-0.8,1-10.1,4c-1.3,0.4-2.3,0.8-2.7,0.9
				L263.6,454.8z M254.6,203.7c-0.3,1-0.6,1.9-0.8,2.9c-1.4,5.2-2.5,10.9-3.2,17.2c-0.7,6.8-1.1,13.8-1,20.7
				c0.1,7.5,0.6,15.3,1.7,23.1c1.2,9,2.8,17,5,24.4c1.9,6.7,4.5,15.6,6.7,24.5c1.2,4.9,2.3,10,3.3,15.2c2.3,12.3,3.5,23.3,3.4,33.6
				c0,0.7,0,1.4,0,2.1c0,1.3,0,2.6,0,3.8c-0.2,12.7-1.8,25.3-3.3,37.1l-2.2,17.3c-0.2,1.3-1,9.8-1.1,10.9l-0.1,3.2
				c0,4.3,0.5,7.7,1,9.9c0.2,0.9,0.5,1.8,0.8,2.8c0.5-0.2,1.1-0.4,1.8-0.6c2.2-0.7,6.8-2.2,8.5-2.9c-1.1-2.7-1.2-5.5-1.3-8.1
				l-0.1-3.8c0-1,0.4-8.8,0.5-10.1l1.5-17.4c1.2-14,1.7-26.5,1.6-38.3c-0.3-10.8-1.4-21.2-3.3-30.9l-1.3-6.3
				c-1.3-6.3-3.1-12.7-4.9-18.7c-2.7-8.9-5.6-17.6-7.9-24.3c-2.5-7.1-4.4-14.8-6-23.6c-1.4-7.7-2.2-15.4-2.7-22.8
				c-0.4-6.8-0.4-13.8,0-20.6c0.4-6.2,1.2-12,2.4-17.2C254.1,205.7,254.3,204.7,254.6,203.7z"/>
		</g>
		<g id="leaves_2_">
			<g>
				<path fill="#75B200" d="M236.2,350.2c-4.6-4.1-16.1-13.1-22.5-11.3c-9.7,2.7-7,15.5-4.5,23.1c4.6,14.1,18.6,26.9,31.9,33.9
					c6.2,3.3,18.9,9.2,25.9,7.7c8.3-1.7-1.3-20.7-7.3-27.3C259.6,376.4,243,356.3,236.2,350.2z"/>
				<g>
					<g>
						<circle fill="#C9EF7F" cx="263" cy="393.4" r="0.9"/>
						<circle fill="#C9EF7F" cx="262.7" cy="388.4" r="0.9"/>
						<circle fill="#C9EF7F" cx="262.4" cy="382.8" r="0.9"/>
					</g>
					<g>
						<circle fill="#C9EF7F" cx="259" cy="397.7" r="0.9"/>
						<circle fill="#C9EF7F" cx="254.8" cy="398" r="0.9"/>
						<circle fill="#C9EF7F" cx="249.9" cy="398.6" r="0.9"/>
					</g>
				</g>
				<g>
					<g>
						<circle fill="#C9EF7F" cx="238.5" cy="369.3" r="1.5"/>
						<circle fill="#C9EF7F" cx="238.5" cy="354.6" r="1.5"/>
						<circle fill="#C9EF7F" cx="238.8" cy="361.8" r="1.5"/>
					</g>
					<g>
						<circle fill="#C9EF7F" cx="228.2" cy="374.9" r="1.5"/>
						<circle fill="#C9EF7F" cx="235.6" cy="373.8" r="1.5"/>
						<circle fill="#C9EF7F" cx="220.5" cy="376.2" r="1.5"/>
					</g>
				</g>
				<path fill="#C9EF7F" d="M266.4,399.9c-0.4-0.3-0.8-0.7-1.3-1l-2-17.3l0.7,16.2c-0.2-0.2-3.3-2.8-4.7-4.2c-1.5-1.4-3-2.8-4.7-4.4
					c-0.7-0.7-1.5-1.5-2.2-2.2l1.4-17.2l-2.4,16.2c-0.6-0.6-1.3-1.2-1.9-1.9c-1.7-1.8-3.6-3.6-5.3-5.6c-1.1-1.1-2.1-2.3-3.2-3.4
					l-0.6-20.8l-0.6,19.6c-0.4-0.4-0.7-0.8-1.1-1.2c-3.6-3.9-7.1-8-10.4-11.7c-0.7-0.8-1.4-1.6-2.1-2.4l-0.8-16.4l-0.3,15
					c-2-2.4-3.9-4.7-5.6-6.7c-5.1-6.2-8.4-10.4-8.4-10.4s3.2,4.2,8.3,10.5c1.7,2.1,3.6,4.5,5.7,6.9L208,358l17.8,0.6
					c0.7,0.8,1.4,1.7,2.1,2.5c3.2,3.8,6.7,7.9,10.2,11.9c0.5,0.6,1,1.1,1.5,1.7v0l-21.4,2.9l22.4-1.8c1,1.1,1.9,2.1,2.9,3.2
					c1.8,2,3.6,3.8,5.3,5.6c0.6,0.7,1.3,1.3,1.9,1.9l-19.7,2.8l20.7-1.8c0.7,0.7,1.5,1.5,2.2,2.2c1.6,1.6,3.2,3.1,4.6,4.5
					c1.4,1.4,4.2,3.9,4.3,4l-14.7,1.5l15.9-0.4c0.6,0.5,1.2,1,1.7,1.4c1.8,1.5,2.8,2.4,2.8,2.4l0.7-0.9
					C269.3,402.2,268.2,401.4,266.4,399.9z"/>
				<path fill="#699900" d="M264.6,405.1L264.6,405.1c-7.9,0-19.5-5.7-24.1-8.1c-11.8-6.3-27.4-19.1-32.5-34.6
					c-2.9-8.9-3.2-15.6-0.9-19.9c1.3-2.4,3.4-4,6.2-4.8c0.7-0.2,1.4-0.3,2.1-0.3c7.6,0,18.4,9.1,21.5,11.9
					c6.8,6,22.9,25.5,23.5,26.3c4.9,5.4,12.6,19.3,10.5,25.8c-0.6,1.8-1.9,3-3.8,3.4C266.4,405,265.5,405.1,264.6,405.1z
					 M215.5,339.9c-0.5,0-1,0.1-1.5,0.2c-2.2,0.6-3.7,1.8-4.7,3.6c-2,3.7-1.6,9.9,1,18c4.8,14.8,19.9,27.2,31.3,33.2
					c3.5,1.8,15.3,7.8,22.9,7.8h0c0.8,0,1.5-0.1,2.1-0.2c1.1-0.2,1.7-0.8,2-1.8c1.6-5-5-18-10-23.5c-0.2-0.2-16.7-20.2-23.3-26.1
					C229.6,346,220.8,339.9,215.5,339.9z"/>
			</g>
			<g>
				<path fill="#75B200" d="M302.6,347.2c4.3-4.5,14.9-14.4,21.5-13.2c9.9,1.8,8.2,14.9,6.4,22.7c-3.4,14.4-16.3,28.3-29,36.4
					c-5.9,3.8-18.1,10.7-25.1,9.8c-8.4-1-0.4-20.7,5.1-27.8C281.4,375.2,296.3,353.8,302.6,347.2z"/>
				<g>
					<g>
						<circle fill="#C9EF7F" cx="280.1" cy="391.6" r="0.9"/>
						<circle fill="#C9EF7F" cx="280" cy="386.6" r="0.9"/>
						<circle fill="#C9EF7F" cx="280" cy="382.3" r="0.9"/>
					</g>
					<g>
						<circle fill="#C9EF7F" cx="283.1" cy="396.4" r="0.9"/>
						<circle fill="#C9EF7F" cx="287.3" cy="396.6" r="0.9"/>
						<circle fill="#C9EF7F" cx="292.6" cy="396.8" r="0.9"/>
					</g>
				</g>
				<g>
					<g>
						<circle fill="#C9EF7F" cx="301.7" cy="365.9" r="1.5"/>
						<circle fill="#C9EF7F" cx="300.6" cy="351.7" r="1.5"/>
						<circle fill="#C9EF7F" cx="301" cy="359" r="1.5"/>
					</g>
					<g>
						<circle fill="#C9EF7F" cx="313.6" cy="371.3" r="1.5"/>
						<circle fill="#C9EF7F" cx="306.1" cy="371.3" r="1.5"/>
						<circle fill="#C9EF7F" cx="320.9" cy="371.1" r="1.5"/>
					</g>
				</g>
				<path fill="#C9EF7F" d="M297.7,376.4c0.8-1,1.6-2,2.3-3l0.1,0l22.7-0.4l-21.9-0.7c0.6-0.7,8-10.8,10.9-14.9c0.7-1,1.4-2,2.1-3
					l17.5-1.8l-16.7,0.6c1.8-2.5,3.4-4.9,4.9-7.1c4.5-6.6,7.4-11.1,7.4-11.1s-2.9,4.5-7.5,11c-1.5,2.1-3.1,4.4-4.9,6.9l-1.7-14.7
					l0.7,16.1c-0.7,0.9-1.4,1.9-2.1,2.9c-2.9,4-10.4,13.9-10.9,14.5l-1.7-20.2l0.6,21.5c-0.8,1-1.6,2-2.4,3c-1.6,2.1-3.3,4-4.9,6
					c-0.5,0.6-1,1.1-1.4,1.7l-4-15.6l3.1,16.7c-0.8,0.9-1.6,1.8-2.3,2.7c-1.5,1.7-3,3.3-4.3,4.8c-1.3,1.5-4,4.2-4.1,4.3l-0.1-15.3
					l-1.1,16.6c-0.5,0.5-4.1,3.9-4.1,3.9l0.8,0.8c0,0,3.6-3.5,4.1-4l16.8-0.5l-15.7-0.6c0.1-0.1,2.8-2.9,4.1-4.4
					c1.3-1.5,2.8-3.1,4.3-4.9c0.7-0.9,1.5-1.8,2.3-2.7l20.5,0.4l-19.6-1.5c0.5-0.6,1-1.2,1.4-1.8
					C294.4,380.5,296.1,378.5,297.7,376.4z"/>
				<path fill="#699900" d="M277.6,404.3c-0.5,0-1,0-1.4-0.1c-1.9-0.2-3.4-1.3-4.1-3.1c-2.7-6.4,3.9-20.9,8.4-26.7
					c0.6-0.8,15-21.5,21.3-28.1c3-3.2,13.6-13.6,21.2-13.6c0.5,0,1,0,1.4,0.1c2.9,0.5,5.1,2,6.6,4.3c2.7,4.1,2.9,10.8,0.8,19.9
					c-3.8,15.9-18.3,29.9-29.5,37.2C297.4,397.2,285.5,404.3,277.6,404.3z M322.9,335.2c-5.3,0-13.8,6.9-19.5,12.9
					c-6.1,6.4-20.9,27.6-21.1,27.8c-4.6,5.9-10.1,19.4-8.1,24.3c0.4,1,1.1,1.5,2.2,1.6c0.3,0,0.7,0.1,1.1,0.1
					c7.5,0,19.7-7.4,23.2-9.7c10.9-7,24.9-20.5,28.5-35.7c2-8.3,1.8-14.5-0.4-18c-1.1-1.7-2.8-2.8-5-3.2
					C323.6,335.2,323.2,335.2,322.9,335.2z"/>
			</g>
		</g>
		<g id="leaves_3_">
			<g>
				<path fill="#75B200" d="M233.3,294.5c-4.6-3.4-16.1-10.8-22-8.6c-8.8,3.3-5.2,15-2.2,21.9c5.5,12.7,19.7,23.4,32.7,28.8
					c6,2.5,18.4,6.9,24.8,5c7.6-2.3-3-19.2-9.2-24.8C257.4,316.8,240.1,299.5,233.3,294.5z"/>
				<g>
					<g>
						<circle fill="#C9EF7F" cx="261.1" cy="330.7" r="0.8"/>
						<circle fill="#C9EF7F" cx="260.5" cy="327" r="0.8"/>
						<circle fill="#C9EF7F" cx="259.8" cy="323.1" r="0.8"/>
					</g>
					<g>
						<circle fill="#C9EF7F" cx="259.1" cy="337" r="0.8"/>
						<circle fill="#C9EF7F" cx="255.2" cy="337.7" r="0.8"/>
						<circle fill="#C9EF7F" cx="251.2" cy="338.6" r="0.8"/>
					</g>
				</g>
				<g>
					<g>
						<circle fill="#C9EF7F" cx="237.2" cy="311.9" r="1.4"/>
						<circle fill="#C9EF7F" cx="235.9" cy="298.3" r="1.4"/>
						<circle fill="#C9EF7F" cx="236.7" cy="305" r="1.4"/>
					</g>
					<g>
						<circle fill="#C9EF7F" cx="227.8" cy="318.1" r="1.4"/>
						<circle fill="#C9EF7F" cx="234.1" cy="316.6" r="1.4"/>
						<circle fill="#C9EF7F" cx="220.6" cy="319.6" r="1.4"/>
					</g>
				</g>
				<path fill="#C9EF7F" d="M264,337l-3.6-15l2.3,14.1c-0.1-0.1-2.9-2-4.3-3.2c-1.5-1.2-3.1-2.4-4.8-3.7c-0.7-0.6-1.5-1.3-2.3-1.9
					l-0.2-16.1l-0.9,15.2c-0.6-0.5-1.2-1-1.9-1.6c-1.8-1.5-3.6-3.1-5.5-4.7c-1-0.9-2-1.8-3.1-2.7l-2.5-19.6l1.4,18.5
					c-0.4-0.4-0.9-0.8-1.3-1.2c-3.7-3.4-7.3-6.8-10.7-10c-0.9-0.9-1.8-1.8-2.7-2.6l-1.6-14.6l0.5,13.5c-1.9-1.9-3.7-3.6-5.3-5.2
					c-5.3-5.3-8.7-8.9-8.7-8.9s3.4,3.7,8.6,9.1c1.6,1.7,3.4,3.5,5.3,5.4l-15.1,2.5l16.1-1.5c0.9,0.9,1.8,1.8,2.8,2.7
					c3.3,3.3,6.9,6.8,10.6,10.2c0.5,0.5,1,0.9,1.5,1.4l-19.7,4.6l20.6-3.7l0,0c1,0.9,2,1.9,3,2.8c1.8,1.7,3.7,3.2,5.4,4.8
					c0.6,0.6,1.3,1.1,1.9,1.6l-18.1,4.4l19.1-3.5c0.8,0.7,1.5,1.3,2.3,1.9c1.7,1.4,3.3,2.6,4.7,3.8c1.5,1.2,4.3,3.3,4.5,3.4
					l-14.3,3.2l15.5-2.3c0.6,0.4,4.5,3.1,4.5,3.1l0.6-0.9C268.6,340,264.7,337.4,264,337z"/>
				<path fill="#699900" d="M262.8,343.2C262.8,343.2,262.8,343.2,262.8,343.2c-7.4,0-17.4-3.9-21.4-5.5
					c-11.6-4.8-27.2-15.4-33.3-29.4c-3.5-8-4.3-14.2-2.5-18.4c1-2.3,2.8-4,5.4-5c0.8-0.3,1.8-0.5,2.9-0.5c7.1,0,17.2,7.1,20.2,9.2
					c6.8,5,23.5,21.7,24.2,22.4c5,4.6,13.4,16.9,12,23.1c-0.4,1.8-1.5,3-3.3,3.5C265.7,343,264.4,343.2,262.8,343.2z M213.8,286.6
					c-0.8,0-1.5,0.1-2.1,0.3c-2,0.7-3.3,2-4.1,3.8c-1.5,3.6-0.6,9.3,2.5,16.7c5.8,13.4,20.9,23.6,32,28.2c3,1.3,13.4,5.3,20.5,5.3
					c0,0,0,0,0,0c1.3,0,2.5-0.1,3.4-0.4c1-0.3,1.5-0.9,1.7-1.8c1.1-4.8-6.2-16.3-11.4-21c-0.2-0.2-17.3-17.3-24-22.2
					C230.6,293.9,220.3,286.6,213.8,286.6z"/>
			</g>
			<g>
				<path fill="#75B200" d="M296.5,286.6c3.7-4.4,13.1-14.3,19.3-13.5c9.3,1.2,8.5,13.4,7.2,20.8c-2.4,13.6-13.7,27.4-25,35.7
					c-5.3,3.8-16.3,11-22.9,10.6c-7.9-0.5-1.5-19.3,3.2-26.2C278.3,313.9,291,293,296.5,286.6z"/>
				<g>
					<g>
						<circle fill="#C9EF7F" cx="278.2" cy="329.3" r="0.8"/>
						<circle fill="#C9EF7F" cx="277.9" cy="325.5" r="0.8"/>
						<circle fill="#C9EF7F" cx="277.6" cy="321.6" r="0.8"/>
					</g>
					<g>
						<circle fill="#C9EF7F" cx="281.3" cy="333.4" r="0.8"/>
						<circle fill="#C9EF7F" cx="285.2" cy="333.4" r="0.8"/>
						<circle fill="#C9EF7F" cx="289.4" cy="333.5" r="0.8"/>
					</g>
				</g>
				<g>
					<g>
						<circle fill="#C9EF7F" cx="297" cy="304.5" r="1.4"/>
						<circle fill="#C9EF7F" cx="294.9" cy="290.9" r="1.4"/>
						<circle fill="#C9EF7F" cx="295.6" cy="297.6" r="1.4"/>
					</g>
					<g>
						<circle fill="#C9EF7F" cx="308.2" cy="308.3" r="1.4"/>
						<circle fill="#C9EF7F" cx="301.2" cy="308.3" r="1.4"/>
						<circle fill="#C9EF7F" cx="314.9" cy="307.8" r="1.4"/>
					</g>
				</g>
				<path fill="#C9EF7F" d="M293.5,314.1c0.8-1.2,1.6-2.3,2.4-3.5l20.9-1.2l-20.2,0.1c0.4-0.5,0.7-1.1,1.1-1.6
					c2.8-4.2,5.4-8.4,7.9-12.4c0.4-0.6,0.7-1.1,1.1-1.7l17-3.9l-16,2.4c1.7-2.8,3.3-5.4,4.7-7.8c3.8-6.4,6.2-10.8,6.2-10.8
					s-2.5,4.3-6.4,10.7c-1.4,2.2-2.9,4.8-4.6,7.4l-2-14.3l1.1,15.7c-0.4,0.7-0.9,1.3-1.3,2c-2.5,3.9-5.2,8.1-8.1,12.3
					c-0.3,0.5-0.6,0.9-1,1.4l-3-18.3l2.1,19.6c-0.8,1.2-1.6,2.3-2.4,3.4c-1.4,2-2.8,4-4.2,5.9c-0.5,0.6-0.9,1.2-1.4,1.9L283,307
					l3.7,15.6c-0.6,0.8-1.3,1.7-1.9,2.5c-1.3,1.7-2.6,3.3-3.8,4.7c-1.1,1.4-2.2,2.7-3.2,3.8l-1.3-13.9l0.3,15.1
					c-0.6,0.7-4,4.3-4,4.3l0.8,0.7c0,0,3.3-3.6,3.8-4.2l0,0l15.4-1.2l-14.5,0c0-0.1,2.2-2.6,3.4-4.1c1.1-1.5,2.4-3.1,3.7-4.8
					c0.6-0.8,1.2-1.6,1.8-2.5l19.3-1L288,322c0.5-0.6,0.9-1.3,1.4-1.9C290.7,318.1,292.1,316.2,293.5,314.1z"/>
				<path fill="#699900" d="M275.7,341.3c-0.2,0-0.4,0-0.6,0c-1.8-0.1-3.2-1-4-2.6c-2.8-5.8,2.5-19.7,6.3-25.4
					c0.5-0.8,12.8-21,18.3-27.4c2.9-3.4,13.1-14.8,20.3-13.9c2.7,0.3,4.9,1.6,6.4,3.6c2.7,3.7,3.3,9.9,1.8,18.5
					c-2.6,15-15.4,29-25.5,36.4C294.2,333.7,283.1,341.3,275.7,341.3z M315.1,274.2c-4.9,0-12.6,7.1-17.8,13.1
					c-5.3,6.3-18,27-18.1,27.2c-3.9,5.8-8.3,18.7-6.2,23.1c0.4,0.9,1.1,1.3,2.1,1.4c6.8,0.4,18.8-7.9,22.2-10.4
					c9.8-7.1,22.1-20.6,24.6-34.9c1.4-7.9,0.9-13.7-1.4-16.8c-1.1-1.6-2.7-2.4-4.8-2.7C315.5,274.2,315.3,274.2,315.1,274.2z"/>
			</g>
		</g>
		<g id="leaves_1_">
			<g>
				<path fill="#75B200" d="M282.3,240.9c3.5-3.8,12.4-12.4,18-11.4c8.4,1.4,7.2,12.4,5.7,19c-2.7,12.2-13.4,24.2-23.9,31.2
					c-4.9,3.3-15.1,9.3-21.1,8.7c-7.1-0.7-0.6-17.5,3.9-23.5C264.9,264.9,277.2,246.5,282.3,240.9z"/>
				<g>
					<g>
						<circle fill="#C9EF7F" cx="263.4" cy="280.2" r="0.8"/>
						<circle fill="#C9EF7F" cx="263" cy="276.9" r="0.8"/>
						<circle fill="#C9EF7F" cx="262.6" cy="273.3" r="0.8"/>
					</g>
					<g>
						<circle fill="#C9EF7F" cx="266.7" cy="283" r="0.8"/>
						<circle fill="#C9EF7F" cx="270.2" cy="282.9" r="0.8"/>
						<circle fill="#C9EF7F" cx="274" cy="282.9" r="0.8"/>
					</g>
				</g>
				<g>
					<g>
						<circle fill="#C9EF7F" cx="281.4" cy="257.6" r="1.2"/>
						<circle fill="#C9EF7F" cx="280.7" cy="244.8" r="1.2"/>
						<circle fill="#C9EF7F" cx="281.2" cy="250.9" r="1.2"/>
					</g>
					<g>
						<circle fill="#C9EF7F" cx="292.1" cy="261.4" r="1.2"/>
						<circle fill="#C9EF7F" cx="285.7" cy="261.8" r="1.2"/>
						<circle fill="#C9EF7F" cx="298.2" cy="260.8" r="1.2"/>
					</g>
				</g>
				<path fill="#C9EF7F" d="M279.7,264.3l20.1-1.9l-19.3,0.9v0c0.7-1,1.5-2,2.2-3c2.6-3.7,5.2-7.4,7.6-10.9c0.3-0.5,0.7-1,1-1.5
					l15.5-2.9l-14.7,1.8c1.7-2.5,3.3-4.9,4.7-7.1c3.7-5.7,6-9.5,6-9.5s-2.4,3.8-6.2,9.4c-1.4,2.1-3,4.4-4.7,6.9l-1-13.3l0.1,14.6
					c-0.3,0.5-0.6,0.9-1,1.4c-2.4,3.5-5,7.1-7.7,10.7c-0.6,0.8-1.2,1.7-1.9,2.5l-1.1-17.8l0.2,19c-0.4,0.6-6,7.7-6.3,8.1l-3.8-12.9
					l3,13.8c-0.7,0.9-1.4,1.7-2.1,2.6c-1.2,1.5-2.5,2.8-3.6,4.1c-1.1,1.3-2.2,2.4-3.1,3.4c-0.2,0.2-0.3,0.3-0.5,0.5l-1.4-12.5
					l0.5,13.4c-0.4,0.4-0.8,0.8-1.1,1.1c-1.4,1.4-2.2,2.2-2.2,2.2l0.6,0.7c0,0,0.8-0.8,2.2-2.2c0.3-0.3,0.6-0.6,0.9-0.9l14.4-1.6
					l-13.4,0.5c0.2-0.2,0.4-0.4,0.6-0.6c0.9-1,2-2.2,3.1-3.4c1.1-1.3,2.3-2.7,3.5-4.2c0.7-0.8,1.4-1.7,2.1-2.6l17.1,0.3l-16.4-1.2
					C274,271.7,279.3,264.7,279.7,264.3z"/>
				<path fill="#699900" d="M262.7,289.4c-0.6,0-1.3,0-1.8,0c-1.6-0.2-2.9-1-3.5-2.5c-2.3-5.3,3-17.7,6.7-22.6
					c0.5-0.7,12.4-18.4,17.5-24c2.4-2.7,10.9-11.4,17.3-11.8c0.5,0,1.1,0,1.6,0.1c2.4,0.4,4.3,1.6,5.6,3.5c2.3,3.4,2.6,9.1,1,16.8
					c-2.9,13.5-15,25.6-24.4,31.8C278.9,283.1,269.4,289,262.7,289.4z M299,230.4c-4.5,0.3-11.4,6.2-16,11.2
					c-5.1,5.5-17.2,23.6-17.4,23.8c-3.8,5.1-8.2,16.6-6.4,20.6c0.4,0.8,0.9,1.2,1.8,1.3c0.4,0,0.9,0.1,1.5,0
					c6.4-0.5,16.1-6.6,18.9-8.5c9.1-6.1,20.7-17.7,23.5-30.6c1.5-7,1.3-12.3-0.6-15.2c-1-1.4-2.4-2.3-4.3-2.6
					C299.8,230.4,299.4,230.4,299,230.4z"/>
			</g>
			<g>
				<path fill="#75B200" d="M225.7,246c-4.1-3.3-14.3-10.4-19.8-8.6c-8.1,2.7-5.2,13.6-2.7,19.9c4.6,11.8,17.2,22,28.8,27.4
					c5.4,2.5,16.5,6.9,22.4,5.3c7-1.9-2.1-17.6-7.6-22.9C246.9,267.2,231.7,250.8,225.7,246z"/>
				<g>
					<g>
						<circle fill="#C9EF7F" cx="250.2" cy="280" r="0.8"/>
						<circle fill="#C9EF7F" cx="249.8" cy="276.7" r="0.8"/>
						<circle fill="#C9EF7F" cx="249.3" cy="273.1" r="0.8"/>
					</g>
					<g>
						<circle fill="#C9EF7F" cx="248.2" cy="285.6" r="0.8"/>
						<circle fill="#C9EF7F" cx="244.6" cy="286.2" r="0.8"/>
						<circle fill="#C9EF7F" cx="240.9" cy="287" r="0.8"/>
					</g>
				</g>
				<g>
					<g>
						<circle fill="#C9EF7F" cx="229.2" cy="261.8" r="1.2"/>
						<circle fill="#C9EF7F" cx="228.3" cy="249.6" r="1.2"/>
						<circle fill="#C9EF7F" cx="228.8" cy="255.8" r="1.2"/>
					</g>
					<g>
						<circle fill="#C9EF7F" cx="219.4" cy="267.9" r="1.2"/>
						<circle fill="#C9EF7F" cx="225.8" cy="266.7" r="1.2"/>
						<circle fill="#C9EF7F" cx="213.4" cy="268.4" r="1.2"/>
					</g>
				</g>
				<path fill="#C9EF7F" d="M254.2,287c-0.4-0.3-0.9-0.6-1.4-1l-2.9-13.9l1.7,13c-0.1-0.1-2.6-2-3.9-3.1c-1.3-1.1-2.7-2.3-4.2-3.6
					c-0.5-0.5-1.1-0.9-1.6-1.4l-0.1-15.1l-0.9,14.2c-0.7-0.6-1.4-1.2-2.1-1.8c-1.6-1.5-3.2-2.9-4.8-4.5c-0.9-0.9-1.8-1.8-2.8-2.6
					l-1.6-17.9l0.6,16.9c-0.4-0.4-0.8-0.7-1.1-1.1c-3.3-3.2-6.5-6.4-9.4-9.5c-0.6-0.6-1.2-1.2-1.7-1.8l-1.6-14.1l0.6,12.9
					c-1.9-2-3.7-3.9-5.2-5.6c-4.6-5-7.7-8.5-7.7-8.5s3,3.5,7.5,8.6c1.6,1.8,3.4,3.7,5.3,5.8l-14.5,1.1l15.3-0.2
					c0.6,0.6,1.2,1.3,1.8,1.9c2.9,3.1,6.1,6.4,9.3,9.6c0.5,0.5,1.5,1.6,1.5,1.6l-18.3,3.2l18.9-2.3l0.4,0c0.8,0.8,1.6,1.6,2.4,2.3
					c1.6,1.6,3.2,3.1,4.8,4.6c0.7,0.7,1.4,1.3,2.1,1.9l-17,3l18-2.2c0.5,0.5,1.1,1,1.6,1.4c1.5,1.3,2.9,2.5,4.2,3.6
					c1.3,1.1,3.9,3.2,4,3.3l-13.2,2.4l14.3-1.5c0.5,0.4,1,0.7,1.4,1c1.6,1.2,2.5,1.9,2.5,1.9l0.5-0.8
					C256.8,288.8,255.8,288.1,254.2,287z"/>
				<path fill="#699900" d="M252,291.5C252,291.5,252,291.5,252,291.5c-6.8,0-16.3-4-20-5.8c-10.4-4.8-24.3-15-29.4-28
					c-2.9-7.4-3.5-13.1-1.7-16.9c1-2.1,2.7-3.6,5.1-4.4c0.7-0.2,1.5-0.3,2.3-0.3c6.5,0,15.8,7,18.5,9.1c6.1,4.8,20.7,20.6,21.3,21.3
					c4.4,4.3,11.7,15.8,10.2,21.5c-0.4,1.6-1.5,2.7-3.1,3.1C254.2,291.4,253.2,291.5,252,291.5z M208.2,238.2
					c-0.6,0-1.1,0.1-1.6,0.2c-1.8,0.6-3.1,1.7-3.8,3.3c-1.5,3.2-0.9,8.5,1.8,15.3c4.8,12.4,18.3,22.2,28.3,26.8
					c2.8,1.3,12.6,5.6,19.2,5.6h0c1,0,1.8-0.1,2.6-0.3c0.9-0.2,1.4-0.7,1.6-1.6c1.1-4.3-5.1-15.1-9.7-19.5
					c-0.2-0.2-15.2-16.4-21.1-21.1C220.4,242.9,212.9,238.2,208.2,238.2z"/>
			</g>
		</g>
		<g id="leaves">
			<g>
				<path fill="#75B200" d="M278.1,194.1c3.7-3.5,12.9-11.2,18.2-9.9c8,1.9,6.1,12.6,4.3,18.9c-3.4,11.7-14.6,22.5-25.4,28.6
					c-5,2.8-15.3,8-21.1,7c-6.9-1.2,0.6-17,5.4-22.6C259.5,216.2,272.7,199.2,278.1,194.1z"/>
				<g>
					<g>
						<circle fill="#C9EF7F" cx="257.2" cy="229.3" r="0.7"/>
						<circle fill="#C9EF7F" cx="257" cy="226" r="0.7"/>
						<circle fill="#C9EF7F" cx="256.9" cy="222.5" r="0.7"/>
					</g>
					<g>
						<circle fill="#C9EF7F" cx="259.6" cy="233.8" r="0.7"/>
						<circle fill="#C9EF7F" cx="263.1" cy="233.9" r="0.7"/>
						<circle fill="#C9EF7F" cx="266.7" cy="234.1" r="0.7"/>
					</g>
				</g>
				<g>
					<g>
						<circle fill="#C9EF7F" cx="276.1" cy="210.2" r="1.2"/>
						<circle fill="#C9EF7F" cx="276.3" cy="197.7" r="1.2"/>
						<circle fill="#C9EF7F" cx="276.3" cy="203.7" r="1.2"/>
					</g>
					<g>
						<circle fill="#C9EF7F" cx="286.1" cy="214.7" r="1.2"/>
						<circle fill="#C9EF7F" cx="280" cy="214.6" r="1.2"/>
						<circle fill="#C9EF7F" cx="292.1" cy="214.5" r="1.2"/>
					</g>
				</g>
				<path fill="#C9EF7F" d="M272.8,217.9c0.4-0.4,0.7-0.9,1.1-1.3l19.6-0.5l-18.8-0.5v0c0.8-0.9,1.6-1.8,2.3-2.8
					c2.8-3.4,5.6-6.8,8.1-10c0.4-0.5,0.7-0.9,1.1-1.4l15.2-1.7l-14.4,0.7c1.8-2.4,3.5-4.6,5-6.5c4-5.3,6.5-8.8,6.5-8.8
					s-2.6,3.5-6.6,8.7c-1.5,1.9-3.2,4.1-5,6.3l-0.1-13l-0.9,14.2c-0.3,0.4-0.7,0.8-1,1.3c-2.6,3.2-5.4,6.6-8.2,9.9
					c-0.7,0.8-1.3,1.5-2,2.3l0.2-17.4l-1.1,18.5c-0.5,0.5-0.9,1-1.4,1.6c-1.4,1.6-2.9,3.2-4.3,4.7c-0.4,0.4-0.7,0.8-1.1,1.1
					l-2.8-12.8l2,13.6c-0.8,0.8-1.5,1.6-2.2,2.3c-1.3,1.4-2.6,2.6-3.7,3.8c-1.2,1.2-2.3,2.2-3.3,3.1c-0.2,0.2-0.3,0.3-0.5,0.5
					l-0.5-12.2l-0.5,13.1c-0.4,0.4-3.4,2.9-3.4,2.9l0.6,0.7c0,0,2.9-2.5,3.2-2.8l14.1-0.6l-13.1-0.4c0.2-0.2,0.4-0.4,0.6-0.6
					c1-0.9,2.1-2,3.2-3.1c1.1-1.2,2.4-2.4,3.7-3.8c0.7-0.8,1.4-1.5,2.2-2.4l16.6,1.4l-15.8-2.3c0.4-0.4,0.7-0.8,1.1-1.2
					C270,221.1,271.4,219.5,272.8,217.9z"/>
				<path fill="#699900" d="M255.8,239.9c-0.6,0-1.2,0-1.8-0.1c-1.6-0.3-2.7-1.2-3.2-2.7c-1.9-5.3,4.1-17,8-21.5
					c0.5-0.7,13.3-17,18.7-22.1c2.6-2.4,11.4-10.3,17.6-10.3c0.5,0,1,0.1,1.5,0.2c2.3,0.6,4.1,1.8,5.2,3.8c2,3.5,1.9,9-0.2,16.4
					c-3.8,12.9-16.3,23.8-25.8,29.2C271.9,234.8,262.3,239.9,255.8,239.9z M295.1,185.1c-4.4,0-11.5,5.2-16.3,9.7
					c-5.3,5-18.4,21.8-18.5,21.9c-4,4.7-9.1,15.5-7.7,19.6c0.3,0.8,0.8,1.3,1.7,1.4c0.4,0.1,0.9,0.1,1.4,0.1c6.2,0,16.1-5.3,19-7
					c9.2-5.3,21.3-15.8,24.9-28.1c2-6.7,2.1-11.8,0.4-14.8c-0.8-1.5-2.1-2.4-4-2.8C295.8,185.1,295.4,185.1,295.1,185.1z"/>
			</g>
			<g>
				<path fill="#75B200" d="M227.8,193c-3.4-3.8-11.8-12.3-17.3-11.4c-8.2,1.2-7.2,12-5.9,18.4c2.4,11.9,12.6,23.7,22.8,30.8
					c4.7,3.3,14.5,9.3,20.4,8.8c7-0.6,0.9-17-3.3-23C244.3,216.6,232.7,198.6,227.8,193z"/>
				<g>
					<g>
						<circle fill="#C9EF7F" cx="245" cy="229.3" r="0.7"/>
						<circle fill="#C9EF7F" cx="245.1" cy="226" r="0.7"/>
						<circle fill="#C9EF7F" cx="245.3" cy="222.5" r="0.7"/>
					</g>
					<g>
						<circle fill="#C9EF7F" cx="242.5" cy="234.2" r="0.7"/>
						<circle fill="#C9EF7F" cx="239" cy="234.1" r="0.7"/>
						<circle fill="#C9EF7F" cx="235.4" cy="234.2" r="0.7"/>
					</g>
				</g>
				<g>
					<g>
						<circle fill="#C9EF7F" cx="228.4" cy="209.2" r="1.2"/>
						<circle fill="#C9EF7F" cx="229.2" cy="196.8" r="1.2"/>
						<circle fill="#C9EF7F" cx="228.7" cy="202.7" r="1.2"/>
					</g>
					<g>
						<circle fill="#C9EF7F" cx="217.9" cy="212.8" r="1.2"/>
						<circle fill="#C9EF7F" cx="224.1" cy="213.3" r="1.2"/>
						<circle fill="#C9EF7F" cx="212" cy="212.1" r="1.2"/>
					</g>
				</g>
				<path fill="#C9EF7F" d="M246.4,235.2l-0.3-13.6l-0.6,12.5c-0.1-0.1-2.1-2.3-3.2-3.6c-1.1-1.3-2.2-2.6-3.4-4.1
					c-0.5-0.7-1.1-1.3-1.6-2l2.8-13.9l-3.5,13c-0.5-0.6-0.9-1.1-1.4-1.7c-1.2-1.6-2.5-3.3-3.8-5.1c-0.4-0.6-0.8-1.1-1.2-1.7
					l0.5-18.5l-1.4,17.4c-0.6-0.8-1.2-1.6-1.8-2.5c-3.2-4.4-6.2-8.9-9-13l0,0l0-0.5l1-12.7l-1.9,12c-1.4-2.1-2.6-4-3.8-5.8
					c-3.6-5.5-5.8-9.3-5.8-9.3s2.2,3.8,5.7,9.4c1.1,1.8,2.4,3.8,3.7,5.8l-13.6-0.9l14.1,1.8l0.1,0c0.6,0.9,1.1,1.8,1.7,2.7
					c2.3,3.4,4.7,7.1,7.2,10.7c0.7,1,1.4,2,2.1,3l0,0l-18.8-1.2l19.5,2.2c0.3,0.5,0.7,0.9,1,1.4c1.2,1.8,2.5,3.5,3.8,5.1
					c0.5,0.6,0.9,1.2,1.4,1.8l-16.4,0.4l17.1,0.6c0.5,0.7,1.1,1.4,1.6,2c1.2,1.5,2.3,2.9,3.4,4.1c1,1.3,3.1,3.6,3.2,3.7l-12.9,0.1
					l13.8,0.9c0.4,0.5,3.3,3.5,3.3,3.5l0.6-0.7C249.7,238.6,246.8,235.7,246.4,235.2z"/>
				<path fill="#699900" d="M247,240.6C247,240.6,247,240.6,247,240.6c-6.5,0-16.3-6.3-20.2-9c-9-6.3-20.5-18.2-23.2-31.4
					c-1.5-7.5-1.1-13,1.2-16.3c1.3-1.8,3.1-2.9,5.5-3.3c0.3,0,0.6-0.1,0.9-0.1c6.3,0,14.8,9.1,17.3,11.8c4.9,5.6,16.2,23,16.7,23.7
					c3.5,4.8,8.4,17,6.1,22.1c-0.7,1.4-1.9,2.3-3.5,2.4C247.5,240.6,247.2,240.6,247,240.6z M211.2,182.5c-0.2,0-0.4,0-0.6,0
					c-1.8,0.3-3.2,1.1-4.2,2.5c-2,2.8-2.3,7.9-0.9,14.8c2.5,12.6,13.6,24.1,22.3,30.2c2.9,2,13,8.7,19.1,8.7c0,0,0,0,0,0
					c0.2,0,0.4,0,0.6,0c0.9-0.1,1.5-0.5,1.8-1.3c1.8-3.9-2.3-15.2-5.9-20.1c-0.1-0.2-11.7-18.1-16.5-23.5
					C222.4,188.5,215.6,182.5,211.2,182.5z"/>
			</g>
		</g>
		<g id="leaf">
			<path fill="#75B200" d="M276,176.1c1.2-4.4,3.3-14.9,0-18.6c-5-5.5-12.5,0.5-16.7,4.7c-7.7,7.7-11.5,21.2-11.7,32.2
				c-0.1,5.1,0.2,15.5,3.5,19.6c3.9,4.9,13.2-7.7,15.5-13.9C266.6,200.2,274.3,182.5,276,176.1z"/>
			<g>
				<g>
					<g>
						<circle fill="#C9EF7F" cx="265.8" cy="183.1" r="1.1"/>
						<circle fill="#C9EF7F" cx="273.9" cy="179.1" r="1.1"/>
						<circle fill="#C9EF7F" cx="270" cy="181.2" r="1.1"/>
					</g>
					<g>
						<circle fill="#C9EF7F" cx="257" cy="178" r="1.1"/>
						<circle fill="#C9EF7F" cx="260.2" cy="182.3" r="1.1"/>
						<circle fill="#C9EF7F" cx="254" cy="173.8" r="1.1"/>
					</g>
				</g>
				<g>
					<g>
						<circle fill="#C9EF7F" cx="251.9" cy="205" r="0.7"/>
						<circle fill="#C9EF7F" cx="250.3" cy="202.1" r="0.7"/>
						<circle fill="#C9EF7F" cx="248.8" cy="199" r="0.7"/>
					</g>
					<g>
						<circle fill="#C9EF7F" cx="256.3" cy="208" r="0.7"/>
						<circle fill="#C9EF7F" cx="259.1" cy="206.8" r="0.7"/>
						<circle fill="#C9EF7F" cx="261.8" cy="205.7" r="0.7"/>
					</g>
				</g>
				<path fill="#C9EF7F" d="M260,190.6c0.4-1.2,0.9-2.4,1.3-3.6l0.1-0.1l13.3-6.9l-13,5.8c0.1-0.3,0.2-0.5,0.3-0.8
					c1.7-4.5,3.6-9.1,5.3-13.1l0.3-0.2l10.1-5.6l-9.9,4.5c0.9-2,1.7-4,2.5-5.7c2.4-5.4,4-9,4-9s-1.7,3.5-4.2,8.9
					c-0.8,1.8-1.7,3.7-2.6,5.8l-6-10.7l5.5,11.5l0.1,0.2c-1.8,4.1-3.7,8.6-5.5,13.1c-0.1,0.3-0.2,0.6-0.4,1l-9.2-12.6l8.9,13.5l0,0
					c-0.5,1.2-0.9,2.4-1.4,3.6c-0.7,1.8-1.3,3.6-2,5.3c-0.1,0.3-0.2,0.7-0.3,1l-8.7-11.1l8.4,12.1c-0.4,1.1-0.7,2.1-1.1,3.1
					c-0.5,1.6-1,3.1-1.4,4.6c-0.4,1.4-0.8,2.7-1.1,3.9c0,0.1,0,0.1,0,0.2l-5.6-10.9l5.2,12.3c-0.1,0.5-0.2,1-0.3,1.4
					c-0.4,1.7-0.6,2.6-0.6,2.6l0.8,0.2c0,0,0.2-1,0.6-2.6c0.1-0.4,0.2-0.9,0.3-1.4l12.4-6.4l-12.1,5.2c0-0.1,0.1-0.3,0.1-0.4
					c0.3-1.2,0.6-2.5,1-3.9c0.4-1.4,0.9-2.9,1.4-4.6c0.3-1,0.7-2.1,1-3.1l11.4-3.9l-11.1,2.9c0.1-0.3,0.2-0.6,0.3-1
					C258.7,194.2,259.3,192.4,260,190.6z"/>
			</g>
			<path fill="#699900" d="M253.2,216.1L253.2,216.1c-1.2,0-2.2-0.5-3-1.5c-3.6-4.6-3.8-15.7-3.7-20.2c0.2-9.9,3.5-24.4,12-32.9
				c4.8-4.8,9.1-7.2,12.7-7.2c2.1,0,4,0.9,5.5,2.5c3.9,4.3,1.2,16,0.2,19.5c-1.7,6.4-9.2,23.5-9.5,24.2
				C265.5,205.9,258.3,216.1,253.2,216.1z M271.3,156.3c-3,0-6.9,2.3-11.2,6.6c-8.1,8.1-11.2,22-11.4,31.5c-0.1,7,0.6,15.6,3.3,18.9
				c0.4,0.5,0.8,0.7,1.4,0.7c3.6,0,10.3-8.9,12.4-14.3c0.1-0.2,7.7-17.7,9.4-24c1.8-6.9,2.6-15,0.2-17.6
				C274.1,156.9,272.8,156.3,271.3,156.3z"/>
		</g>
	</g>
	<path id="roots_1_" fill="#603913" d="M364.9,536.7c-2.2-2-4.5-4-7-5.6c-2.5-1.7-5.2-3-8.1-4.1c-2.8-1.1-5.8-1.8-8.7-2.4
		c-5.9-1.2-11.9-1.8-17.7-3.2c-2.8-0.7-5.6-1.9-8-3.6c-2.4-1.7-4.4-3.8-6.1-6.2c-1.7-2.4-2.9-5.1-4-7.8c-1.1-2.8-1.8-5.6-2.6-8.5
		c-0.8-2.9-1.5-5.8-2.6-8.7c-1-2.9-2.3-5.7-4.1-8.2c-0.7-1-1.4-1.9-2.2-2.7c-1.7-2.3-3.9-4.7-6.2-7.1c0.5,0.2,1,0.4,1.5,0.7
		c5.6,2.5,11.5,4.3,17.5,5.5c2.3,0.5,4.8,0.8,7.3,1.1c2.5,0.2,5,0.4,7.5,0.6c1.7,0.1,3.3,0.3,5,0.5c-0.5,0.2,1.7,4.5,1.5,4.7
		c0,0,0,0.1-0.1,0.1c-0.1,0.2-0.3,0.4-0.4,0.8c-0.3,0.6-0.4,1.6-0.4,2.7c0.1,2,1.1,3.7,2.2,5.3c0.4,0.6,0.8,1.1,1.1,1.6
		c0.6,1.1,0.9,2.5,1.1,3.7c0.2,1.3,0.3,2.4,0.3,3.5c0.1,1,0.1,1.9,0.1,2.5c0,0.6,0,0.9,0,0.9s0.3-1.4,0.4-3.4c0-1,0-2.3-0.1-3.6
		c-0.2-1.3-0.4-2.7-1-4c-0.3-0.7-0.7-1.2-1.1-1.8c-1-1.5-1.8-2.9-1.9-4.8c0-1,0.1-1.8,0.3-2.2c0-0.1,0.1-0.2,0.1-0.3
		c0,0.1,0.1,0.1,0.1,0.2c1.3,2,3.2,3.4,5.1,4.8c0.8,0.6,1.8,1,2.7,1.5c2.6,1.3,5,2.8,7.5,4.3c0.7,0.5,1.4,1,2,1.4
		c0.6,0.4,1.2,0.8,1.7,1.2c0.5,0.4,0.9,0.7,1.2,1c0.7,0.5,1.1,0.9,1.1,0.9l0.1-0.2c0,0-0.4-0.3-1.1-0.9c-0.3-0.3-0.8-0.6-1.2-1
		c-0.5-0.4-1-0.8-1.6-1.3c-0.6-0.5-1.3-0.9-2-1.5c-1.5-1.1-3.1-2.1-4.8-3c-0.9-0.5-1.7-1-2.6-1.5c-0.9-0.5-1.8-0.9-2.6-1.5
		c-0.6-0.4-1.2-0.8-1.7-1.3c0.6,0.1,1.2,0.2,2,0.2c1.1,0.1,2.3,0.1,3.7,0.1c1.3,0,2.8,0.1,4.1,0.4c1.4,0.3,2.6,1.1,3.7,1.8
		c1.1,0.7,2.2,1.4,3.1,1.9c0.9,0.5,1.8,0.9,2.4,0.9c0.6,0.1,0.9-0.3,0.9-0.2c0,0-0.3,0.3-0.9,0.2c-0.6-0.1-1.5-0.4-2.4-1
		c-0.9-0.5-2-1.2-3.1-2c-0.6-0.4-1.1-0.7-1.8-1.1c-1.9-1.1-4.1-1.2-6.2-1.3c-1.3-0.1-2.6-0.1-3.7-0.2c-1.1-0.1-1.9-0.2-2.5-0.4
		c-1.4-0.5-2.5-2.4-3.1-3.7c-0.7-1.4-1-2.7-1.3-4.2c0.5,0.1,1,0.1,1.5,0.2c2.5,0.3,4.9,0.6,7.2,0.9c2.3,0.4,4.6,0.6,6.7,1.1
		c2.1,0.4,4,1,5.8,1.8c2.8,1.2,5.2,3.1,7.7,4.9c1.8,1.3,2.8,2,2.8,2l0.3-0.3c0,0-1-0.8-2.8-2.1c-2.5-1.8-4.9-3.7-7.7-5.1
		c-1.7-0.8-3.7-1.5-5.8-2c-2.1-0.5-4.4-0.8-6.7-1.3c-2.3-0.4-4.8-0.8-7.2-1.2c-2.5-0.3-5-0.7-7.5-1c-2.5-0.3-5-0.6-7.5-0.9
		c-1-0.1-1.9-0.3-2.9-0.5c0.1-0.1,0.2-0.1,0.4-0.2c1.5-0.8,3.2-1.6,4.9-1.9c2.5-0.6,4.8-0.9,7.4-1.2c2.8-0.3,5.8,0.1,8.6,0.4
		c1.5,0.2,2.9,0.4,4.4,0.6c1.4,0.2,2.8,0.5,4.2,0.7c2.7,0.5,5.3,0.9,7.5,1.2c1.1,0.1,2.1,0.3,3,0.3c0.9,0.1,1.7,0.2,2.3,0.2
		c1.3,0,2,0,2,0s-0.7,0-2-0.1c-0.6,0-1.4-0.1-2.3-0.2c-0.9-0.1-1.9-0.2-3-0.4c-2.2-0.3-4.7-0.8-7.4-1.3c-1.4-0.3-2.8-0.5-4.2-0.8
		c-0.7-0.1-1.4-0.3-2.1-0.4c0.1-0.1,0.4-0.2,0.6-0.4c0.3-0.1,0.7-0.3,1.2-0.4c0.5-0.1,1-0.2,1.6-0.3c2.3-0.4,5.5-0.5,8.7-0.6
		c3.2-0.1,6.3-0.3,8.6-0.8c0.6-0.1,1.1-0.3,1.5-0.5c0.4-0.2,0.8-0.5,1-0.7c0.1-0.1,0.2-0.3,0.3-0.4c0.1-0.1,0.1-0.2,0.1-0.3
		c0-0.2,0.1-0.3,0.1-0.3s0,0.1-0.1,0.3c0,0.1,0,0.2-0.1,0.3c-0.1,0.1-0.1,0.3-0.3,0.4c-0.2,0.3-0.6,0.5-1,0.7
		c-0.4,0.2-1,0.4-1.5,0.5c-2.3,0.6-5.5,0.6-8.6,0.7c-3.2,0.1-6.3,0.2-8.7,0.5c-0.6,0.1-1.1,0.2-1.6,0.3c-0.5,0.1-0.9,0.3-1.2,0.4
		c-0.3,0.2-0.6,0.3-0.7,0.4c-0.2,0.1-0.2,0.2-0.2,0.2c-0.6-0.1-1.2-0.2-1.8-0.3c-1.5-0.2-2.9-0.4-4.4-0.5c-1.5-0.2-2.9-0.1-4.3-0.1
		c-1.4,0.1-2.8,0.1-4,0.3c-2.2,0.3-4.4,0.9-6.5,1.7c-0.7,0.3-1.5,0.6-2.2,1c-0.7,0.3-1.2,0.6-1.5,0.8c-0.9-0.2-1.8-0.3-2.6-0.5
		c-4.1-0.9-8.3-2.1-12.2-3.7c-1.6-0.6-3.2-1.5-4.5-2.2c-1.4-0.7-2.6-1.3-3.7-1.7c-1.1-0.4-3-0.8-3.1-0.8c-5.4-6.7-6.5-16.3-6.5-16.3
		l-14.9,2c0.8,4,0.8,7.1,0.9,11.6c0,0-0.1,0.1-0.1,0.1c-0.8,0.8-1.9,1.8-3.2,2.8c-3.3,2.5-7,4.4-10.9,5.6
		c-5.2,1.6-10.8,1.2-16.1,2.3c-1.9,0.4-3.8,1.1-5.6,1.9l0-0.1c0,0-0.2,0-0.5-0.1c-0.3,0-0.8-0.1-1.3-0.2c-0.6-0.1-1.3-0.3-2.1-0.5
		c-0.8-0.2-1.7-0.5-2.8-0.6c-1.1-0.1-2.2-0.1-3.4-0.1c-1.2,0-2.5,0.1-3.7,0.3c-1.3,0.2-2.6,0.5-3.9,0.8c-0.5,0.1-1.1,0.2-1.6,0.3
		c0,0-0.3-0.1-0.8-0.3c-0.5-0.2-1.2-0.5-2.1-0.7c-1.8-0.5-4.2-0.9-6.6-1.1c-2.4-0.2-4.8-0.5-6.6-0.6c-0.9-0.1-1.6-0.1-2.2-0.1
		c-0.5,0-0.8,0-0.8,0s0.3,0,0.8,0c0.5,0,1.3,0.1,2.2,0.3c1.8,0.3,4.1,0.6,6.5,1c2.4,0.3,4.7,0.8,6.4,1.4c0.5,0.2,0.9,0.3,1.3,0.5
		c-0.2,0-0.4,0.1-0.6,0.1c-2.7,0.4-5.4,0.7-8,0.9c-2.6,0.2-4.9,0.4-7,0.5c-4.1,0.2-6.8,0.3-6.8,0.3l0,1c0,0,2.7,0,6.9-0.3
		c0.5,0,0.9,0,1.4-0.1c-0.7,0.3-1.5,0.6-2.4,0.9c-0.9,0.3-1.9,0.6-2.8,1c-1.9,0.7-3.9,1.3-5.3,1.9c-0.4,0.2-0.7,0.3-1,0.4
		c-0.3,0.1-0.5,0.3-0.7,0.4c-0.4,0.2-0.6,0.3-0.6,0.3s0.2-0.1,0.7-0.3c0.2-0.1,0.5-0.2,0.7-0.3c0.3-0.1,0.6-0.2,1-0.3
		c1.4-0.5,3.4-1,5.4-1.6c1.5-0.4,3-0.8,4.5-1.3c2.2-0.7,3.8-1.3,6.2-1.5c2.6-0.2,5.3-0.5,8-0.9c1.4-0.2,2.7-0.4,4.1-0.7
		c1.3-0.3,2.6-0.6,3.8-0.8c3.2-0.4,6.4-0.4,9.5,0.4c0.8,0.2,1.5,0.4,2.1,0.6c0.2,0,0.4,0.1,0.5,0.1c-0.5,0.2-1,0.5-1.5,0.8
		c-2.7,1.5-5.2,3.1-7.6,4.7c-2.4,1.6-4.8,3.1-7.2,4.3c-4.9,2.3-10,3.1-14.4,3.9c-1.1,0.2-2.1,0.3-3.2,0.6c-1,0.3-1.9,0.5-2.8,0.8
		c-1.7,0.5-3.2,0.9-4.5,1.3c-1.2,0.3-2.2,0.6-2.9,0.7c-0.7,0.1-1,0.2-1,0.1c0,0,0.1,0.1,0.2,0.2c0.2,0.1,0.5,0.1,0.8,0.1
		c0.7-0.1,1.7-0.2,3-0.5c1.3-0.3,2.8-0.6,4.6-1c0.9-0.2,1.8-0.4,2.8-0.6c0.9-0.2,2-0.3,3.1-0.4c2.2-0.2,4.6-0.5,7.2-0.9
		c2.5-0.5,5.2-1.1,7.9-2.2c2.7-1.1,5.2-2.5,7.8-3.9c2.5-1.4,5.1-2.9,7.7-4.1c2.7-1.2,5.2-2.2,7.9-2.6c5.1-0.8,10.2-0.1,15.2-1.1
		c-0.6,0.3-1.3,0.7-2,1.2c-1.1,0.7-2,1.6-3,2.5c-1,0.9-2.1,1.8-3.3,2.8c-1.1,1-2.3,2-3.5,3c-0.6,0.5-1.2,1-1.8,1.5l-1.9,1.4
		c-1.1,0.7-2.2,1.5-3.3,2.2c-0.2,0-0.5,0-0.9,0c-0.7,0-1.7,0-2.9,0.1c-0.6,0.1-1.2,0.1-1.9,0.2c-0.7,0.1-1.4,0.2-2.1,0.3
		c-0.7,0.1-1.5,0.3-2.2,0.5c-0.8,0.2-1.5,0.3-2.3,0.6c-0.8,0.2-1.5,0.5-2.2,0.7c-0.7,0.2-1.5,0.5-2.2,0.7c-1.4,0.5-2.7,0.9-3.8,1.2
		c-0.6,0.2-1.1,0.3-1.6,0.4c-0.5,0.1-0.9,0.2-1.2,0.3c-0.7,0.1-1.1,0.2-1.1,0.2l0,0.3c0,0,0.4-0.1,1.1-0.2c0.3-0.1,0.7-0.2,1.2-0.3
		c0.5-0.1,1-0.2,1.6-0.4c1.1-0.4,2.5-0.7,3.8-1.2c0.7-0.2,1.4-0.5,2.2-0.7c0.7-0.2,1.5-0.5,2.2-0.7c0.8-0.3,1.5-0.4,2.3-0.6
		c0.8-0.2,1.5-0.4,2.2-0.5c0.7-0.1,1.4-0.2,2.1-0.3c0.7-0.1,1.3-0.1,1.9-0.2c1.2-0.1,2.2-0.1,2.8-0.1c0.1,0,0.2,0,0.3,0c0,0,0,0,0,0
		c-1.3,0.9-2.6,1.7-3.9,2.5c-1.3,0.8-2.5,1.6-3.6,2.4c-1.2,0.7-2.2,1.6-3.1,2.3c-1,0.7-1.8,1.5-2.5,2.1c-0.4,0.3-0.7,0.6-1,0.9
		c-0.3,0.3-0.6,0.6-0.8,0.8c-1,1-1.5,1.6-1.5,1.6s0.6-0.6,1.5-1.6c0.2-0.2,0.5-0.5,0.8-0.8c0.3-0.3,0.7-0.6,1-0.9
		c0.8-0.6,1.6-1.4,2.6-2c1-0.7,2-1.5,3.2-2.2c1.1-0.7,2.4-1.5,3.6-2.3c1.3-0.8,2.6-1.6,3.9-2.4c1.3-0.8,2.7-1.7,4-2.6
		c0.6-0.5,1.3-0.9,1.9-1.4c0.5-0.3,1-0.7,1.4-1.1c0,0-0.2,1.5-0.3,2.5c-0.1,0.5-0.1,1-0.2,1.6c-0.1,0.6-0.3,1.1-0.5,1.7
		c-0.2,0.6-0.5,1.2-0.8,1.7l-0.6,0.8l-0.7,0.8c-0.4,0.5-1,0.9-1.4,1.4c-0.5,0.4-0.9,0.9-1.4,1.3c-0.4,0.5-0.8,0.9-1.2,1.4
		c-0.3,0.5-0.6,0.9-0.9,1.4c-1.1,1.7-1.8,2.8-1.8,2.8s0.7-1.1,1.9-2.8c0.3-0.4,0.6-0.9,0.9-1.3c0.4-0.4,0.8-0.9,1.2-1.3
		c0.5-0.4,0.9-0.8,1.4-1.3c0.5-0.4,1-0.9,1.5-1.4l0.7-0.7c0.1-0.1,0.6-0.8,0.6-0.8c0.4-0.5,0.6-1.1,0.9-1.7c0.6-1.9,0.8-3.8,1.1-5.7
		c0-0.2,0.1-0.4,0.1-0.6c1.2-1,2.4-2,3.5-2.9c1.2-1,2.3-1.9,3.3-2.7c1.1-0.8,2-1.8,3-2.4c1-0.6,2-1.1,2.8-1.5
		c0.9-0.4,1.6-0.8,2.3-1.1c0.2-0.1,0.3-0.2,0.5-0.3c1.6-0.5,3.2-1.1,4.6-1.8c2.1-1,4-2.1,5.6-3.2c0,0-1.4,18.1-2,22.7
		c-0.4,0.5-0.7,1.1-1.1,1.6c-0.1,0-2.3-0.3-3.8-0.3c-1.5,0-3.3,0.2-5.3,0.4c-2,0.2-4.4,0.7-6.8,1.6c-1.2,0.5-2.5,1.1-3.6,2
		c-0.3,0.2-0.5,0.4-0.8,0.6c-0.3,0.2-0.6,0.5-0.8,0.7c-0.6,0.5-1.1,1-1.6,1.5c-2.1,2.1-3.8,4.6-5.8,6.9l-1.6,1.6
		c-0.6,0.5-1.2,0.9-1.8,1.4c-0.6,0.4-3.3,2.1-4.1,2.4c-2.9,1.4-6,2.5-9.2,3.3c-0.8,0.2-4.8,0.9-4.8,0.9c-0.8,0.1-1.6,0.2-2.4,0.2
		c-0.8,0.1-1.6,0.1-2.4,0.2c-1.3,0.1-2.6,0.1-3.9,0.1c0,0-0.2,0-0.6-0.1c-0.4-0.1-0.9-0.2-1.6-0.3c-1.3-0.3-3.3-0.7-5.7-1.2
		c-1.2-0.3-2.5-0.5-3.8-0.8c-4.6-0.9-9.3-0.8-13.9-0.1c-0.8,0.2-1.7,0.3-2.5,0.5c-0.8,0-2.4-0.1-4.5-0.1c-0.8,0-1.6,0-2.5-0.1
		c-0.9-0.1-1.8-0.1-2.7-0.2c-1.9-0.1-3.9-0.2-6-0.4c-2-0.1-4.1-0.2-6-0.4c-1-0.1-1.9-0.1-2.7-0.2c-0.9,0-1.7,0-2.5-0.1
		c-3-0.1-5.1-0.1-5.1-0.1s2,0.1,5.1,0.2c0.8,0,1.6,0.1,2.5,0.1c0.9,0,1.8,0.1,2.7,0.2c1.9,0.1,3.9,0.3,6,0.5c2,0.2,4.1,0.3,6,0.5
		c1,0.1,1.9,0.1,2.7,0.2c0.9,0,1.7,0.1,2.5,0.1c0.8,0,1.6,0.1,2.3,0.1c-1.6,0.3-3.1,0.6-4.6,0.8c-3,0.5-5.7,1-8.1,1.4
		c-4.7,0.8-7.9,1.3-7.9,1.3s3.2-0.4,8-1.1c0.4-0.1,0.8-0.1,1.3-0.2c-0.1,0.1-0.3,0.3-0.5,0.6c-0.2,0.3-0.4,0.6-0.7,0.9
		c-0.3,0.3-0.6,0.7-1,1.1c-1.6,1.6-4,3.3-6.4,4.9c-1.2,0.9-2.4,1.7-3.5,2.6c-0.5,0.4-1,0.9-1.5,1.3c-0.4,0.5-0.9,0.9-1.2,1.3
		c-0.4,0.4-0.7,0.8-0.9,1.2c-0.2,0.4-0.5,0.7-0.6,1c-0.3,0.6-0.5,0.9-0.5,0.9s0.2-0.3,0.5-0.9c0.1-0.3,0.4-0.6,0.6-1
		c0.2-0.4,0.6-0.8,0.9-1.2c0.3-0.4,0.8-0.8,1.2-1.3c0.5-0.4,1-0.9,1.5-1.3c1.1-0.9,2.3-1.7,3.5-2.6c2.4-1.7,4.9-3.3,6.5-4.9
		c0.4-0.4,0.8-0.7,1.1-1.1c0.3-0.3,0.6-0.6,0.8-0.9c0.4-0.5,0.6-0.7,0.6-0.8c2-0.3,4.2-0.6,6.6-0.9c1.5-0.2,3-0.4,4.6-0.7
		c1.6-0.2,3.1-0.5,4.7-0.7c5.9-0.8,11.5,0,17.3,1.3c0.6,0.1,1.1,0.3,1.7,0.4c-1.3,0-2.6,0.1-3.9,0.1c-3,0.1-5.8,0.4-8.6,1.6
		c-1.3,0.5-2.4,1.2-3.5,1.8c-2.2,1.3-4.1,2.6-5.7,3.9c-1.6,1.2-3,2.4-4.1,3.3c-1.1,1-2,1.7-2.5,2.3c-0.6,0.5-0.8,0.9-0.8,0.9
		s0.4-0.2,1-0.7c0.6-0.5,1.5-1.2,2.6-2.1c2.3-1.8,5.7-4.3,10-6.6c1.1-0.6,2.2-1.1,3.5-1.6c1-0.4,2.1-0.8,3.2-1
		c0.2,0,2.1-0.1,2.2-0.3c-0.4,0.7-1.1,1.8-1.8,3.1c-0.7,1.2-1.5,2.7-2.4,4.3c-0.8,1.6-1.7,3.3-2.4,5.1c-0.4,0.9-0.7,1.8-1.1,2.6
		c-0.4,0.8-0.9,1.6-1.4,2.4c-1,1.5-2,2.9-2.7,4.1c-0.8,1.2-1.4,2.3-1.7,3.1c-0.3,0.8-0.3,1.3-0.3,1.3s0-0.5,0.4-1.3
		c0.3-0.8,0.9-1.8,1.7-3c0.8-1.2,1.8-2.5,2.9-4c0.5-0.7,1-1.5,1.5-2.4c0.5-0.8,0.8-1.8,1.2-2.6c0.5-1.1,1.1-2.2,1.7-3.3
		c0,0,0,1.9-0.1,3.2c-0.1,1.3-0.4,2.8-0.8,4.4c-0.4,1.6-1,3.3-1.6,4.9c-0.3,0.8-0.6,1.7-0.9,2.5c-0.3,0.8-0.6,1.7-0.5,2.6
		c0.1,1.6-0.2,3.2-0.5,4.5c-0.3,1.3-0.6,2.4-0.7,3.1c-0.1,0.8-0.1,1.2-0.1,1.2s0-0.4,0.2-1.2c0.2-0.8,0.5-1.8,0.8-3.1
		c0.3-1.3,0.7-2.8,0.7-4.5c0-0.8,0.2-1.6,0.5-2.4c0.3-0.8,0.6-1.6,1-2.5c0.7-1.7,1.3-3.3,1.7-5c0.4-1.6,0.7-3.2,0.9-4.5
		c0.2-1.3,0.2-2.5,0.2-3.2c0-0.5,0-0.8,0-1c0.1-0.2,0.3-0.5,0.4-0.7c0.9-1.6,1.7-3,2.5-4.2c1.1-1.7,1.9-3,2.3-3.6
		c0.5,0,1.1-0.1,1.6-0.1c1.5,0,3-0.1,4.6-0.1c1.7,0,3.5,0,5.2,0c0.1,0,0.2,0,0.2,0c1.4,0,2.8,0,4.2-0.1c0.8,0,1.7-0.1,2.5-0.2
		c0.8-0.1,1.7-0.1,2.5-0.2c0,0,4.2-0.7,5-0.9c3.3-0.8,6.5-1.9,9.5-3.3c0.8-0.4,3.6-2.1,4.3-2.5c0.7-0.5,1.4-1,2-1.6l1.7-1.7
		c2.1-2.4,3.9-4.8,5.8-6.8c0.5-0.5,1-1,1.5-1.4c0.2-0.2,0.5-0.4,0.7-0.6c0.3-0.2,0.6-0.4,0.8-0.6c1-0.8,2.1-1.3,3.2-1.8
		c2.2-0.9,4.4-1.3,6.4-1.5c2-0.2,3.7-0.4,5.2-0.4c1.1,0,2.1,0,2.7,0.1c-0.4,0.5-0.7,1-1.1,1.5c-1.7,2.3-3.6,4.5-5.5,6.8
		c-1.9,2.3-3.6,4.7-5.2,7.2c-1.5,2.5-3,5.2-3.5,8.3c-0.5,3-0.2,6-0.2,8.9c0,1.4-0.1,2.9-0.3,4.3c-0.3,1.6-0.4,2.1-1.8,3.1
		c-0.4,0.3-1,0.7-1.6,1.1c-1.5,1.1-3.2,1.9-4.9,2.5c-1,0.4-2.1,0.6-3.2,0.8c-2.4,0.4-4.9,0.7-7.3,1.1c-1.3,0.2-2.5,0.6-3.7,0.9
		c-0.6,0.2-1.3,0.4-1.9,0.6c-0.1-0.1-0.2-0.1-0.5-0.2c-0.4-0.1-1-0.2-1.7-0.3c-0.7-0.1-1.5-0.1-2.4-0.1c-2.6,0-5.2-0.2-7.8,0
		c-1.4,0.1-2.3,0.2-2.3,0.2s0.9,0.1,2.3,0.1c3.4,0,6.8,0.2,10.1,0.4c0.7,0,1.2,0.1,1.6,0.2c0,0,0,0,0,0c-0.3,0.1-0.6,0.2-0.9,0.3
		c-1.1,0.5-2.1,0.9-3.1,1.5c-0.9,0.6-1.8,1-2.6,1.6c-0.8,0.6-1.5,1.1-2.1,1.5c-0.6,0.5-1.1,1-1.5,1.3c-0.8,0.7-1.3,1.2-1.3,1.2
		l0.1,0.1c0,0,0.5-0.4,1.3-1.1c0.4-0.4,0.9-0.8,1.5-1.3c0.6-0.4,1.3-0.9,2.1-1.5c0.8-0.5,1.7-1,2.6-1.5c0.9-0.5,2-0.9,3.1-1.4
		c1.1-0.4,2.2-0.8,3.4-1.1c0.3-0.1,0.5-0.1,0.8-0.2c-0.8,0.2-2.3,2.9-2.9,3.5c-0.5,0.5-2.2,2.2-2.6,2.5c-0.2,0.2-0.3,0.4-0.4,0.5
		c-0.1,0.2-0.5,0.8-0.5,0.8l0.2,0.1c0,0,0.4-0.6,0.5-0.8c0.1-0.1,0.3-0.3,0.4-0.5c0.3-0.4,2.1-2,2.6-2.5c0.5-0.4,1-0.9,1.4-1.3
		c0.2-0.2,1.6-2.1,1.8-2.3c0-0.1,0.1-0.1,0.1-0.2c0.8-0.2,1.5-0.4,2.3-0.5c2.4-0.3,4.9-0.6,7.3-0.9c3.1-0.5,5.8-1.7,8.5-3.3
		c0.6-0.4,1.8-1.2,1.8-1.2c0,0.1-1.9,4.3-4.9,7.5c-0.6,0.7-1.3,1.2-1.9,1.8c0,0-3.1,2.5-4.8,3.6c-2.5,1.5-5.1,2.9-7.7,4
		c-2.7,1.1-5.5,2.1-8.1,3.4c-2.6,1.3-5.2,2.9-7.4,4.8c-1.1,1-2.1,2.1-3.1,3.2c-0.5,0.6-0.9,1.2-1.3,1.8c-0.2,0.3-0.4,0.6-0.6,0.9
		c-0.1,0.2,0.3,0.4,0.4,0.2c0.2-0.3,0.4-0.6,0.6-0.9c0.4-0.6,0.8-1.2,1.3-1.7c0.9-1.1,1.9-2.2,3-3.1c2.2-1.9,4.7-3.4,7.3-4.6
		c2.6-1.3,5.4-2.2,8.1-3.3c2.7-1.1,5.4-2.4,7.9-3.9c0.8-0.5,1.6-1,2.3-1.6c-0.2,0.3-0.5,0.7-0.7,1.1c-0.8,1.2-1.6,2.7-2.4,4.4
		c-0.7,1.7-1.3,3.6-1.6,5.5c-0.1,0.9-0.2,1.9-0.2,2.9c0,0.9-0.1,1.9-0.1,2.8c0,0.9-0.1,1.8-0.2,2.6c-0.1,0.8-0.2,1.6-0.5,2.2
		c-0.4,1.4-0.8,2.5-1,3.3c-0.1,0.4-0.1,1.4-0.1,1.4c0-0.1,0.2,0,0.2-0.1c0,0,0-0.8,0.1-1.2c0.2-0.8,0.6-1.9,1.1-3.3
		c0.2-0.7,0.4-1.5,0.5-2.3c0.1-0.8,0.2-1.7,0.2-2.6c0.1-0.9,0.1-1.8,0.2-2.8c0-0.4,0.1-0.7,0.1-1c0,0.1,0.1,0.1,0.1,0.2
		c0.1,0.2,0.3,0.5,0.5,0.8c0.4,0.6,0.9,1.2,1.3,1.9c0.7,1,1.2,2.4,1.4,3.6c0.1,0.4,0.1,0.9,0.2,1.3c0.1,0.8,0.1,1.6,0.2,2.3
		c0,0.7,0.1,2.3,0.1,2.3l0.3,0c0,0,0.1-1.6,0.1-2.3c0-0.7,0-1.5-0.1-2.3c-0.2-1.7-0.5-3.7-1.4-5.2c-0.8-1.3-1.6-2.6-2.4-3.9
		c0,0,0,0-0.1,0c0-0.1,0-0.2,0-0.4c0.6-3.8,2.5-7.1,4.1-9.5c0.8-1.2,1.8-3,2.8-3.8c0.6-0.5,1.2-1.1,1.8-1.7c2.1-2.1,3.9-4.6,5.1-7.4
		c0.6-1.4,1.1-2.8,1.3-4.3c0.3-1.5,0.4-3,0.4-4.5c0-3-0.2-5.9,0.3-8.7c0.5-2.7,1.9-5.3,3.4-7.7c0.6-0.9,1.2-1.8,1.8-2.6
		c-0.1,0.5-0.1,1-0.1,1.5c-0.1,0.6,0,1.1-0.1,1.7c0.1,0.6,0.1,1.3,0.2,1.9c0.2,1.3,0.8,2.5,1.4,3.8c0.6,1.2,1.5,2.4,2.4,3.5
		c0.9,1.1,1.9,2.2,2.8,3.3c0.3,0.3,0.5,0.6,0.8,0.9c0,0-0.1,0.4-0.2,1.1c-0.5,2.2-1.8,4.4-2.8,6.4c-0.7,1.5-1.1,3.1-1.3,4.7
		c-0.3,3.2-0.5,6.5-0.9,8.8c-0.2,1.2-0.4,2.2-0.7,2.8c-0.1,0.3-0.6,0.7-0.6,0.7l0.2,0.4c0,0,0.7-0.6,0.9-0.9
		c0.3-0.7,0.6-1.7,0.8-2.9c0.5-2.4,0.7-5.6,1.1-8.8c0.2-1.5,0.6-3.1,1.3-4.4c1-2.2,3-6.8,3-6.9c0.4,0.5,0.8,1,1.2,1.4
		c0.8,1.1,1.6,2.3,2.3,3.4c1.2,2.2,1.9,4.5,1.9,7c0,0.5-0.1,2.5-0.2,2.9c-0.1,0.9-0.3,1.6-0.4,2.2c-0.3,1.2-0.4,1.9-0.4,1.9l0.3,0.1
		c0,0,0.2-0.7,0.5-1.9c0.1-0.6,0.3-1.4,0.4-2.3c0.1-0.4,0.2-2.4,0.2-3c-0.1-1.9-0.3-3.6-1-5.4c-0.2-0.6-0.6-1.2-0.9-1.8
		c-0.6-1.2-1.4-2.4-2.3-3.5c-0.5-0.6-1-1.2-1.5-1.9c-0.4-0.5-0.8-1-1.3-1.5c-0.6-0.8-1.3-1.5-1.9-2.3c0.2,0,0.4,0,0.7,0
		c0.5,0,0.9,0.1,1.5,0.2c2.2,0.2,4.6,1.4,6.4,2.8c0.4,0.3,1.9,1.5,2.2,1.8c0.7,0.7,1.4,1.4,2.1,2.1c1.4,1.5,2.7,3,4.3,4.1
		c1.4,1,2.9,1.9,4.5,2.6c1.4,0.7,2.6,1,3.5,1c0.5,0,1.4-0.4,1.4-0.4l-0.1-0.2c0,0-0.8,0.3-1.3,0.3c-0.9,0-2.1-0.4-3.4-1.1
		c-0.7-0.3-3.6-2.1-4.3-2.7c-1.5-1.1-2.8-2.7-4.1-4.2c-0.7-0.8-1.4-1.5-2.1-2.2c-0.4-0.3-1.9-1.6-2.3-1.9c-0.8-0.6-1.6-1.1-2.3-1.5
		c-1.8-1.1-3.9-1.7-6-1.8c-0.9,0-1.5,0-1.5-0.1c-0.9-1.1-1.7-2.2-2.2-3.4c-0.6-1.2-1.1-2.4-1.3-3.6c-0.2-0.6-0.1-1.1-0.2-1.7
		c0-0.6,0-1.2,0.1-1.7c0.1-1.1,0.2-2,0.4-2.8c0.1-0.2,0.1-0.3,0.2-0.5c0.7-0.9,1.4-1.7,2.1-2.6c1.9-2.2,3.8-4.4,5.6-6.8
		c1.5-2,3-4,4.3-6.1c9.7-13,7.6-23.6,11.5-24.6c2.6-0.7,10.9,6,16.9,11.1c-1.2,0.9-2.4,2.6-3.2,4.6c0,0.1-0.1,0.3-0.1,0.4
		c-0.1,0.1-0.8,0.7-1.1,1.1c-0.4,0.3-0.7,0.8-1.1,1.2c-1.9,2.1-3.3,4.6-5.4,6.5c-2.2,2.1-4.9,3.7-6.8,5c-2,1.2-3.2,2.2-3.2,2.2
		s1.3-0.9,3.3-2c1-0.6,2.2-1.3,3.4-2c0.7-0.4,1.3-0.9,2-1.4c0.5-0.1,1,4.6,1,4.9c0,0.6,0,1,0,1h0.1c0,0,0-0.4,0-1
		c0.1-1.8-0.1-3.5-0.7-5.3c0.4-0.3,0.8-0.6,1.2-0.9c2.1-1.9,3.8-4.2,5.7-6.3c0.3-0.3,0.6-0.7,0.9-1c-0.5,1.7-0.9,3.5-1.1,5.4
		c-0.4,2.8-0.6,5.9-0.6,8.9c0,3,0,6-0.1,8.7c-0.1,2.8-0.5,5.3-1.2,7.4c-0.6,2.1-1.5,3.7-2.3,4.8c-0.4,0.5-0.7,0.9-0.9,1.2
		c-0.1,0.1,0.2,0.9,0.2,0.7c0-0.1,0.8-1,1.2-1.5c0.8-1.1,1.8-2.7,2.6-4.9c0.8-2.1,1.4-4.8,1.7-7.6c0.3-2.8,0.6-9.2,0.6-9.4
		c0.2,0.4,0.5,0.8,0.8,1.3c0.7,1.1,2.9,5.4,3.1,6.2c0.3,0.8,0.4,1.6,0.5,2.5c0.2,1.8,0.5,3.5,0.6,5.2c0.1,1.6,0.1,3.2,0.1,4.5
		c0,0.7,0,1.3,0,1.8c0,0.5-0.1,1-0.1,1.4c0,0.4-0.2,1.2-0.2,1.2c0,0,0.4-0.8,0.5-1.1c0.1-0.4,0.3-0.8,0.4-1.4
		c0.1-0.5,0.2-1.2,0.3-1.8c0.1-0.7,0.1-1.4,0.1-2.2c0-0.8,0-1.6,0-2.4c-0.1-1.7-0.4-3.5-0.5-5.2c-0.1-0.9-0.2-1.9-0.5-2.7
		c-0.3-0.9-2.6-5.4-3.3-6.5c-0.7-1-1.3-1.9-1.6-2.5c0.2-2.1,0.4-4.2,0.7-6.1c0.2-1.4,0.5-2.6,0.8-3.8c0.3-1.2,0.7-2.3,1.1-3.3
		c0.4-1,0.8-1.8,1.3-2.5c0.5-0.7,0.9-1.1,1.4-1.4c0,0,0.1-0.1,0.1-0.1c1,0.9,2,1.8,2.7,2.4c1,1.7,1.8,3.5,2.5,5.4
		c0.8,2.2,1.5,4.4,2.2,6.7c-0.1,0.5-0.3,1.1-0.4,1.4c-0.2,0.5-0.5,1.4-0.8,2.5c-0.2,1.1-0.5,2.4-0.6,4c-0.1,1.5-0.1,3.3,0.1,5.1
		c0.1,1.9,0.3,3.8,0.5,5.9c0.2,2.1,0.3,4.3,0.2,6.5c-0.1,0.6-0.3,2.8-0.4,3.4c-0.2,1.1-0.4,2.3-0.7,3.5c-0.1,0.5-0.2,0.9-0.3,1.4
		c-0.1,0-1.2,0.5-1.7,1c-1,0.9-2,2.4-3.1,4.4c-0.5,1-1.1,2-1.6,3.2c-0.3,0.6-0.9,3.2-1,3.9c-0.4,2.7-0.3,5.6-0.7,8.4
		c-0.2,1.4-0.5,2.8-0.8,4.2c-0.3,1.4-0.8,2.7-1.3,3.9c-0.3,0.6-0.5,1.2-0.8,1.8c-0.8,1.6-1.7,3.1-3,4.4c-0.7,0.8-1.5,1.4-2.2,1.9
		c-0.7,0.5-1.3,1-1.8,1.4c-1,0.8-1.6,1.2-1.6,1.2l0.2,0.3c0,0,0.6-0.4,1.6-1.2c0.5-0.4,1.1-0.8,1.8-1.4c0.7-0.5,1.5-1.2,2.3-1.9
		c1.3-1.3,2.4-2.8,3.1-4.5c0.3-0.6,0.6-1.2,0.8-1.8c0.5-1.1,0.9-2.4,1.2-3.6c0.2,0.5,0.4,1.3,0.7,2.2c0.7,2.4,1.3,4.8,1.3,7.2
		c0,2.4-0.3,4.7,0.1,7.1c0.2,1,0.5,1.8,0.8,2.3c0.2,0.3,0.6,0.7,0.6,0.7l0.1-0.1c0,0-0.4-0.5-0.5-0.7c-0.3-0.5-0.6-1.3-0.7-2.2
		c-0.1-1-0.2-2.1-0.1-3.4c0.1-1.2,0.2-2.5,0.2-3.9c0-0.7-0.9-6.3-1.2-7.2c-0.5-1.9-0.9-3.2-0.9-3.2l-0.1,0c0.3-1.1,0.5-2.3,0.7-3.5
		c0.4-2.9,0.4-5.8,0.8-8.4c0.1-0.7,0.8-3.2,1-3.7c0.5-1.1,1-2.1,1.6-3.1c1.1-1.8,2.1-3.3,3-4.1c0.3-0.3,0.6-0.5,0.8-0.6
		c-0.3,1.6-0.6,3.2-0.7,4.8c-0.2,1.8-0.2,3.8,0.1,5.6c0.1,0.6,0.2,1.2,0.4,1.8c0.5,2,1.4,3.8,2.5,5.4c0,0,1.4,1.9,1.7,2.3
		c0.4,0.4,0.7,0.9,1.1,1.3c0.4,0.4,0.7,0.8,1.1,1.3c-0.1,0.3-0.4,1.3-0.9,2.6c-0.3,0.8-0.6,1.8-0.8,2.9c-0.3,2.3-0.1,4.5,0,6.8
		c0.1,1.1,0.1,2.1,0,2.9c-0.1,0.8-0.6,2.7-0.6,2.7l0.3,0.1c0,0,0.6-2,0.7-2.8c0.1-0.9,0.1-1.9,0.1-3c-0.1-2.2-0.4-4.5,0.1-6.6
		c0.2-1,0.5-1.9,0.8-2.7c0.4-0.9,0.6-1.7,0.8-2.2c0.1,0.2,3,3.6,4.1,5.1c1,1.5,1.9,2.9,2.5,4.3c0.3,0.7,1.2,3.1,1.4,3.6
		c0.2,0.5,0.5,2.1,0.6,2.4c0.1,0.6,0.2,0.9,0.2,0.9l0.2,0c0,0-0.1-0.3-0.2-0.9c-0.1-0.3-0.4-1.9-0.5-2.4c-0.2-0.5-1.1-2.9-1.3-3.6
		c-0.6-1.4-1.4-2.8-2.5-4.4c-1-1.5-2.2-3.1-3.6-4.8c-0.7-0.8-1.4-1.6-2.1-2.5c-0.4-0.4-1.3-1.5-1.3-1.6c0.1,0,1.2,0.5,1.9,0.7
		c1.3,0.3,2.8,0.5,4.5,0.6c1.6,0.1,3.4,0.2,5,0.6c2.2,0.5,4.8,2,6.2,3.8c0.4,0.6,1,1.1,1.3,1.7c0.4,0.5,0.7,1,0.9,1.5
		c0.2,0.5,0.4,0.9,0.5,1.2c0.3,0.7,0.4,1.1,0.4,1.1l0.1,0c0,0-0.1-0.4-0.4-1.1c-0.1-0.4-0.3-0.8-0.5-1.3c-0.2-0.5-0.5-1-0.8-1.6
		c-0.3-0.6-0.8-1.1-1.2-1.7c-0.9-1.2-2.5-2.4-3.9-3c-0.8-0.3-1.5-0.8-2.4-1c-1.7-0.4-3.5-0.6-5.1-0.7c-1.6-0.2-3.1-0.4-4.3-0.7
		c-0.6-0.2-1.2-0.4-1.6-0.6c-0.4-0.2-1.9-1.5-1.9-1.5c-1-1.6-1.8-3.3-2.2-5.2c-0.2-0.6-0.2-1.2-0.3-1.7c-0.3-1.8-0.2-3.6,0-5.4
		c0.3-2.4,0.8-4.8,1.4-7.1c0.3-1.2,0.5-2.4,0.8-3.5c0.1-0.6,0.4-2.9,0.5-3.5c0.2-2.3,0.1-4.6,0-6.7c-0.1-2.1-0.3-4.1-0.4-5.9
		c-0.1-1.8-0.1-3.5,0-4.9c0.1-1.4,0.3-2.7,0.6-3.7c0.2-0.5,0.3-1,0.4-1.3c0.7,2.5,1.5,5,2.5,7.5c1.1,2.8,2.5,5.6,4.3,8.1
		c1.8,2.5,4,4.7,6.5,6.5c2.5,1.7,5.4,2.9,8.4,3.6c0.2,0,0.3,0.1,0.5,0.1c0.1,0.3,0.2,0.7,0.4,1.3c0.4,1.4,1,4.5,1,4.6
		c-0.1,0.1-0.7,1-1,1.2c-1.5,1.6-2.9,3-4,4.8c-1,1.6-1.2,3.7-1.2,5.5c0,0.5-0.3,6.1-0.3,6.1c0,0,0.1,0,0.1,0.1c1-2.5,0.8-5.3,0.9-8
		c0.1-1.2,0.5-2.3,1.1-3.4c0.7-1.4,2.1-2.5,3.2-3.6c0.5-0.5,1-1,1.3-1.4c0,0.3,0,0.7,0.1,1c0.2,3.5-0.2,6.9,0.1,10.4
		c0.2,2.5,1.2,4.7,2.4,6.8c1.7,3,4.4,5.7,5.6,8.9c0.4,1,0.6,1.5,0.6,1.5l0.3-0.1c0,0-0.2-0.6-0.6-1.6c-0.8-2.3-2.2-4.3-3.5-6.4
		c-0.5-0.9-1.1-1.8-1.7-2.8c-1.1-2-2-4.2-2.2-6.5c-0.1-1.2-0.1-2.4-0.1-3.5c0,0,0-0.1,0-0.1c0.4,0.4,0.8,0.9,1.4,1.3
		c0.9,0.7,2.2,1.3,3.5,1.6c1.4,0.4,2.9,0.5,4.3,0.7c1.5,0.2,2.9,0.3,4.3,0.6c1.3,0.3,2.6,0.7,3.5,1.1c1,0.5,1.8,1,2.2,1.4
		c0.5,0.4,0.8,0.6,0.8,0.6l0.1-0.1c0,0-0.3-0.3-0.8-0.7c-0.5-0.4-1.2-1-2.2-1.5c-1-0.5-2.2-1-3.6-1.3c-1.4-0.3-2.8-0.6-4.3-0.8
		c-1.5-0.2-2.9-0.4-4.2-0.8c-1.3-0.4-2.4-1-3.2-1.6c-0.8-0.7-1.3-1.4-1.6-1.9c-0.1-0.1-0.2-0.3-0.2-0.4c0-0.6,0-1.2,0.1-1.7
		c0-1.2,0.1-2.2,0-3.3c0-0.5-0.1-1-0.1-1.5c-0.1-1.9-0.6-3.9-1.3-5.7c-0.1-0.3-0.2-0.5-0.3-0.7c5.4,1,10.8,1.6,16.1,2.6
		c2.9,0.5,5.8,1.2,8.6,2.2c2.8,1,5.5,2.3,8,3.9c2.5,1.6,4.8,3.5,7.1,5.5c2.2,2,4.3,4.2,6,6.7l0.1-0.1
		C369.1,540.9,367,538.7,364.9,536.7z"/>
</g>
<g id="elements">
	<g id="Drops">
		<g>
			<path fill="#48BEFF" d="M160.5,538c0,3.3-2.6,5.9-5.9,5.9c-3.3,0-5.9-2.7-5.9-5.9c0-3.3,5.9-9.9,5.9-9.9S160.5,534.8,160.5,538z"
				/>
			<path fill="#88DBFF" d="M154.6,544c0,0,0.3-0.1,0.7-0.3c0.2-0.1,0.5-0.3,0.8-0.5c0.3-0.2,0.6-0.5,0.9-0.8
				c0.3-0.3,0.5-0.7,0.8-1.1c0.2-0.4,0.4-0.9,0.4-1.4c0.2-1,0.1-2.1-0.1-3.2c-0.5-2.2-1.4-4.3-2.1-5.9c-0.7-1.5-1.3-2.6-1.3-2.6
				c0,0,0.8,0.9,1.7,2.4c0.9,1.5,2,3.6,2.4,6c0.1,0.6,0.2,1.2,0.2,1.8c0,0.6,0,1.2-0.2,1.7c-0.1,0.6-0.3,1.1-0.6,1.5
				c-0.3,0.4-0.6,0.8-0.9,1.1c-0.3,0.3-0.7,0.5-1,0.7c-0.3,0.2-0.6,0.3-0.8,0.4C154.9,543.9,154.6,544,154.6,544z"/>
			<path fill="#88DBFF" d="M154,528.8c0,0,0.5,0.9,1.1,2.3c0.3,0.7,0.5,1.6,0.8,2.5c0.1,0.5,0.2,1,0.3,1.5c0.1,0.5,0.1,1,0.1,1.5
				c0,0.5,0,1-0.1,1.5c-0.1,0.5-0.2,1-0.3,1.5c-0.2,0.5-0.3,0.9-0.5,1.3c-0.3,0.4-0.4,0.8-0.7,1c-0.3,0.3-0.5,0.5-0.7,0.8
				c-0.2,0.2-0.5,0.3-0.7,0.5c-0.4,0.2-0.6,0.4-0.6,0.4s0.2-0.2,0.5-0.5c0.2-0.1,0.4-0.3,0.6-0.5c0.2-0.2,0.4-0.5,0.6-0.8
				c0.2-0.3,0.4-0.7,0.6-1c0.2-0.4,0.3-0.8,0.5-1.2c0.1-0.5,0.2-0.9,0.2-1.4c0-0.5,0.1-1,0.1-1.5c0-0.5,0-1-0.1-1.5
				c0-0.5-0.1-1-0.2-1.4c-0.2-0.9-0.4-1.8-0.6-2.5C154.4,529.8,154,528.8,154,528.8z"/>
		</g>
		<g>
			<path fill="#48BEFF" d="M271.2,564.4c0,3.3-2.6,5.9-5.9,5.9c-3.3,0-5.9-2.7-5.9-5.9s5.9-9.9,5.9-9.9S271.2,561.1,271.2,564.4z"/>
			<path fill="#88DBFF" d="M265.3,570.3c0,0,0.3-0.1,0.7-0.3c0.2-0.1,0.5-0.3,0.8-0.5c0.3-0.2,0.6-0.5,0.9-0.8
				c0.3-0.3,0.5-0.7,0.8-1.1c0.2-0.4,0.4-0.9,0.4-1.4c0.2-1,0.1-2.1-0.1-3.2c-0.5-2.2-1.4-4.3-2.1-5.9c-0.7-1.5-1.3-2.6-1.3-2.6
				s0.8,0.9,1.7,2.4c0.9,1.5,2,3.6,2.4,6c0.1,0.6,0.2,1.2,0.2,1.8c0,0.6,0,1.2-0.2,1.7c-0.1,0.6-0.3,1.1-0.6,1.5
				c-0.3,0.4-0.6,0.8-0.9,1.1c-0.3,0.3-0.7,0.5-1,0.7c-0.3,0.2-0.6,0.3-0.8,0.4C265.6,570.2,265.3,570.3,265.3,570.3z"/>
			<path fill="#88DBFF" d="M264.8,555.2c0,0,0.5,0.9,1.1,2.3c0.3,0.7,0.5,1.6,0.8,2.5c0.1,0.5,0.2,1,0.3,1.5c0.1,0.5,0.1,1,0.1,1.5
				c0,0.5,0,1-0.1,1.5c-0.1,0.5-0.2,1-0.3,1.5c-0.2,0.5-0.3,0.9-0.5,1.3c-0.3,0.4-0.4,0.8-0.7,1c-0.3,0.3-0.5,0.5-0.7,0.8
				c-0.2,0.2-0.5,0.3-0.7,0.5c-0.4,0.2-0.6,0.4-0.6,0.4s0.2-0.2,0.5-0.5c0.2-0.1,0.4-0.3,0.6-0.5c0.2-0.2,0.4-0.5,0.6-0.8
				c0.2-0.3,0.4-0.7,0.6-1c0.2-0.4,0.3-0.8,0.5-1.2c0.1-0.5,0.2-0.9,0.2-1.4c0-0.5,0.1-1,0.1-1.5c0-0.5,0-1-0.1-1.5
				c0-0.5-0.1-1-0.2-1.4c-0.2-0.9-0.4-1.8-0.6-2.5C265.1,556.1,264.8,555.2,264.8,555.2z"/>
		</g>
		<g>
			<path fill="#48BEFF" d="M194.7,504.2c0,3.3-2.6,5.9-5.9,5.9c-3.3,0-5.9-2.6-5.9-5.9c0-3.3,5.9-9.9,5.9-9.9
				S194.7,500.9,194.7,504.2z"/>
			<path fill="#88DBFF" d="M188.7,510.1c0,0,0.3-0.1,0.7-0.3c0.2-0.1,0.5-0.3,0.8-0.5c0.3-0.2,0.6-0.5,0.9-0.8
				c0.3-0.3,0.5-0.7,0.8-1.1c0.2-0.4,0.4-0.9,0.4-1.4c0.2-1,0.1-2.1-0.1-3.2c-0.5-2.2-1.4-4.3-2.1-5.9c-0.7-1.5-1.3-2.6-1.3-2.6
				s0.8,0.9,1.7,2.4c0.9,1.5,2,3.6,2.4,6c0.1,0.6,0.2,1.2,0.2,1.8c0,0.6,0,1.2-0.2,1.7c-0.1,0.6-0.3,1.1-0.6,1.5
				c-0.3,0.4-0.6,0.8-0.9,1.1c-0.3,0.3-0.7,0.5-1,0.7c-0.3,0.2-0.6,0.3-0.8,0.4C189,510,188.7,510.1,188.7,510.1z"/>
			<path fill="#88DBFF" d="M188.2,495c0,0,0.5,0.9,1.1,2.3c0.3,0.7,0.5,1.6,0.8,2.5c0.1,0.5,0.2,1,0.3,1.5c0.1,0.5,0.1,1,0.1,1.5
				c0,0.5,0,1-0.1,1.5c-0.1,0.5-0.2,1-0.3,1.5c-0.2,0.5-0.3,0.9-0.5,1.3c-0.3,0.4-0.4,0.8-0.7,1c-0.3,0.3-0.5,0.5-0.7,0.8
				c-0.2,0.2-0.5,0.3-0.7,0.5c-0.4,0.2-0.6,0.4-0.6,0.4s0.2-0.2,0.5-0.5c0.2-0.1,0.4-0.3,0.6-0.5c0.2-0.2,0.4-0.5,0.6-0.8
				c0.2-0.3,0.4-0.7,0.6-1c0.2-0.4,0.3-0.8,0.5-1.2c0.1-0.5,0.2-0.9,0.2-1.4c0-0.5,0.1-1,0.1-1.5c0-0.5,0-1-0.1-1.5
				c0-0.5-0.1-1-0.2-1.4c-0.2-0.9-0.4-1.8-0.6-2.5C188.6,496,188.2,495,188.2,495z"/>
		</g>
		<g>
			<path fill="#48BEFF" d="M199.3,550.7c0,3.3-2.6,5.9-5.9,5.9c-3.3,0-5.9-2.6-5.9-5.9c0-3.3,5.9-9.9,5.9-9.9
				S199.3,547.4,199.3,550.7z"/>
			<path fill="#88DBFF" d="M193.4,556.6c0,0,0.3-0.1,0.7-0.3c0.2-0.1,0.5-0.3,0.8-0.5c0.3-0.2,0.6-0.5,0.9-0.8
				c0.3-0.3,0.5-0.7,0.8-1.1c0.2-0.4,0.4-0.9,0.4-1.4c0.2-1,0.1-2.1-0.1-3.2c-0.5-2.2-1.4-4.3-2.1-5.9c-0.7-1.5-1.3-2.6-1.3-2.6
				s0.8,0.9,1.7,2.4c0.9,1.5,2,3.6,2.4,6c0.1,0.6,0.2,1.2,0.2,1.8c0,0.6,0,1.2-0.2,1.7c-0.1,0.6-0.3,1.1-0.6,1.5
				c-0.3,0.4-0.6,0.8-0.9,1.1c-0.3,0.3-0.7,0.5-1,0.7c-0.3,0.2-0.6,0.3-0.8,0.4C193.7,556.5,193.4,556.6,193.4,556.6z"/>
			<path fill="#88DBFF" d="M192.8,541.5c0,0,0.5,0.9,1.1,2.3c0.3,0.7,0.5,1.6,0.8,2.5c0.1,0.5,0.2,1,0.3,1.5c0.1,0.5,0.1,1,0.1,1.5
				c0,0.5,0,1-0.1,1.5c-0.1,0.5-0.2,1-0.3,1.5c-0.2,0.5-0.3,0.9-0.5,1.3c-0.3,0.4-0.4,0.8-0.7,1c-0.3,0.3-0.5,0.5-0.7,0.8
				c-0.2,0.2-0.5,0.3-0.7,0.5c-0.4,0.2-0.6,0.4-0.6,0.4s0.2-0.2,0.5-0.5c0.2-0.1,0.4-0.3,0.6-0.5c0.2-0.2,0.4-0.5,0.6-0.8
				c0.2-0.3,0.4-0.7,0.6-1c0.2-0.4,0.3-0.8,0.5-1.2c0.1-0.5,0.2-0.9,0.2-1.4c0-0.5,0.1-1,0.1-1.5c0-0.5,0-1-0.1-1.5
				c0-0.5-0.1-1-0.2-1.4c-0.2-0.9-0.4-1.8-0.6-2.5C193.2,542.5,192.8,541.5,192.8,541.5z"/>
		</g>
		<g>
			<path fill="#48BEFF" d="M275.3,510.7c0,3.3-2.6,5.9-5.9,5.9c-3.3,0-5.9-2.6-5.9-5.9c0-3.3,5.9-9.9,5.9-9.9
				S275.3,507.5,275.3,510.7z"/>
			<path fill="#88DBFF" d="M269.4,516.6c0,0,0.3-0.1,0.7-0.3c0.2-0.1,0.5-0.3,0.8-0.5c0.3-0.2,0.6-0.5,0.9-0.8
				c0.3-0.3,0.5-0.7,0.8-1.1c0.2-0.4,0.4-0.9,0.4-1.4c0.2-1,0.1-2.1-0.1-3.2c-0.5-2.2-1.4-4.3-2.1-5.9c-0.7-1.5-1.3-2.6-1.3-2.6
				c0,0,0.8,0.9,1.7,2.4c0.9,1.5,2,3.6,2.4,6c0.1,0.6,0.2,1.2,0.2,1.8c0,0.6,0,1.2-0.2,1.7c-0.1,0.6-0.3,1.1-0.6,1.5
				c-0.3,0.4-0.6,0.8-0.9,1.1c-0.3,0.3-0.7,0.5-1,0.7c-0.3,0.2-0.6,0.3-0.8,0.4C269.7,516.6,269.4,516.6,269.4,516.6z"/>
			<path fill="#88DBFF" d="M268.8,501.5c0,0,0.5,0.9,1.1,2.3c0.3,0.7,0.5,1.6,0.8,2.5c0.1,0.5,0.2,1,0.3,1.5c0.1,0.5,0.1,1,0.1,1.5
				c0,0.5,0,1-0.1,1.5c-0.1,0.5-0.2,1-0.3,1.5c-0.2,0.5-0.3,0.9-0.5,1.3c-0.3,0.4-0.4,0.8-0.7,1c-0.3,0.3-0.5,0.5-0.7,0.8
				c-0.2,0.2-0.5,0.3-0.7,0.5c-0.4,0.2-0.6,0.4-0.6,0.4s0.2-0.2,0.5-0.5c0.2-0.1,0.4-0.3,0.6-0.5c0.2-0.2,0.4-0.5,0.6-0.8
				c0.2-0.3,0.4-0.7,0.6-1c0.2-0.4,0.3-0.8,0.5-1.2c0.1-0.5,0.2-0.9,0.2-1.4c0-0.5,0.1-1,0.1-1.5c0-0.5,0-1-0.1-1.5
				c0-0.5-0.1-1-0.2-1.4c-0.2-0.9-0.4-1.8-0.6-2.5C269.2,502.5,268.8,501.5,268.8,501.5z"/>
		</g>
		<g>
			<path fill="#48BEFF" d="M323.5,499.5c0,3.3-2.6,5.9-5.9,5.9c-3.3,0-5.9-2.6-5.9-5.9c0-3.3,5.9-9.9,5.9-9.9
				S323.5,496.2,323.5,499.5z"/>
			<path fill="#88DBFF" d="M317.6,505.4c0,0,0.3-0.1,0.7-0.3c0.2-0.1,0.5-0.3,0.8-0.5c0.3-0.2,0.6-0.5,0.9-0.8
				c0.3-0.3,0.5-0.7,0.8-1.1c0.2-0.4,0.4-0.9,0.4-1.4c0.2-1,0.1-2.1-0.1-3.2c-0.5-2.2-1.4-4.3-2.1-5.9c-0.7-1.5-1.3-2.6-1.3-2.6
				s0.8,0.9,1.7,2.4c0.9,1.5,2,3.6,2.4,6c0.1,0.6,0.2,1.2,0.2,1.8c0,0.6,0,1.2-0.2,1.7c-0.1,0.6-0.3,1.1-0.6,1.5
				c-0.3,0.4-0.6,0.8-0.9,1.1c-0.3,0.3-0.7,0.5-1,0.7c-0.3,0.2-0.6,0.3-0.8,0.4C317.9,505.3,317.6,505.4,317.6,505.4z"/>
			<path fill="#88DBFF" d="M317,490.3c0,0,0.5,0.9,1.1,2.3c0.3,0.7,0.5,1.6,0.8,2.5c0.1,0.5,0.2,1,0.3,1.5c0.1,0.5,0.1,1,0.1,1.5
				c0,0.5,0,1-0.1,1.5c-0.1,0.5-0.2,1-0.3,1.5c-0.2,0.5-0.3,0.9-0.5,1.3c-0.3,0.4-0.4,0.8-0.7,1c-0.3,0.3-0.5,0.5-0.7,0.8
				c-0.2,0.2-0.5,0.3-0.7,0.5c-0.4,0.2-0.6,0.4-0.6,0.4s0.2-0.2,0.5-0.5c0.2-0.1,0.4-0.3,0.6-0.5c0.2-0.2,0.4-0.5,0.6-0.8
				c0.2-0.3,0.4-0.7,0.6-1c0.2-0.4,0.3-0.8,0.5-1.2c0.1-0.5,0.2-0.9,0.2-1.4c0-0.5,0.1-1,0.1-1.5c0-0.5,0-1-0.1-1.5
				c0-0.5-0.1-1-0.2-1.4c-0.2-0.9-0.4-1.8-0.6-2.5C317.4,491.2,317,490.3,317,490.3z"/>
		</g>
		<g>
			<path fill="#48BEFF" d="M313.4,535.1c0,3.3-2.6,5.9-5.9,5.9c-3.3,0-5.9-2.7-5.9-5.9c0-3.3,5.9-9.9,5.9-9.9
				S313.4,531.8,313.4,535.1z"/>
			<path fill="#88DBFF" d="M307.5,541c0,0,0.3-0.1,0.7-0.3c0.2-0.1,0.5-0.3,0.8-0.5c0.3-0.2,0.6-0.5,0.9-0.8
				c0.3-0.3,0.5-0.7,0.8-1.1c0.2-0.4,0.4-0.9,0.4-1.4c0.2-1,0.1-2.1-0.1-3.2c-0.5-2.2-1.4-4.3-2.1-5.9c-0.7-1.5-1.3-2.6-1.3-2.6
				s0.8,0.9,1.7,2.4c0.9,1.5,2,3.6,2.4,6c0.1,0.6,0.2,1.2,0.2,1.8c0,0.6,0,1.2-0.2,1.7c-0.1,0.6-0.3,1.1-0.6,1.5
				c-0.3,0.4-0.6,0.8-0.9,1.1c-0.3,0.3-0.7,0.5-1,0.7c-0.3,0.2-0.6,0.3-0.8,0.4C307.8,540.9,307.5,541,307.5,541z"/>
			<path fill="#88DBFF" d="M306.9,525.9c0,0,0.5,0.9,1.1,2.3c0.3,0.7,0.5,1.6,0.8,2.5c0.1,0.5,0.2,1,0.3,1.5c0.1,0.5,0.1,1,0.1,1.5
				c0,0.5,0,1-0.1,1.5c-0.1,0.5-0.2,1-0.3,1.5c-0.2,0.5-0.3,0.9-0.5,1.3c-0.3,0.4-0.4,0.8-0.7,1c-0.3,0.3-0.5,0.5-0.7,0.8
				c-0.2,0.2-0.5,0.3-0.7,0.5c-0.4,0.2-0.6,0.4-0.6,0.4s0.2-0.2,0.5-0.5c0.2-0.1,0.4-0.3,0.6-0.5c0.2-0.2,0.4-0.5,0.6-0.8
				c0.2-0.3,0.4-0.7,0.6-1c0.2-0.4,0.3-0.8,0.5-1.2c0.1-0.5,0.2-0.9,0.2-1.4c0-0.5,0.1-1,0.1-1.5c0-0.5,0-1-0.1-1.5
				c0-0.5-0.1-1-0.2-1.4c-0.2-0.9-0.4-1.8-0.6-2.5C307.3,526.8,306.9,525.9,306.9,525.9z"/>
		</g>
		<g>
			<path fill="#48BEFF" d="M361.6,514.3c0,3.3-2.6,5.9-5.9,5.9c-3.3,0-5.9-2.7-5.9-5.9c0-3.3,5.9-9.9,5.9-9.9
				S361.6,511.1,361.6,514.3z"/>
			<path fill="#88DBFF" d="M355.6,520.2c0,0,0.3-0.1,0.7-0.3c0.2-0.1,0.5-0.3,0.8-0.5c0.3-0.2,0.6-0.5,0.9-0.8
				c0.3-0.3,0.5-0.7,0.8-1.1c0.2-0.4,0.4-0.9,0.4-1.4c0.2-1,0.1-2.1-0.1-3.2c-0.5-2.2-1.4-4.3-2.1-5.9c-0.7-1.5-1.3-2.6-1.3-2.6
				c0,0,0.8,0.9,1.7,2.4c0.9,1.5,2,3.6,2.4,6c0.1,0.6,0.2,1.2,0.2,1.8c0,0.6,0,1.2-0.2,1.7c-0.1,0.6-0.3,1.1-0.6,1.5
				c-0.3,0.4-0.6,0.8-0.9,1.1c-0.3,0.3-0.7,0.5-1,0.7c-0.3,0.2-0.6,0.3-0.8,0.4C355.9,520.2,355.6,520.2,355.6,520.2z"/>
			<path fill="#88DBFF" d="M355.1,505.1c0,0,0.5,0.9,1.1,2.3c0.3,0.7,0.5,1.6,0.8,2.5c0.1,0.5,0.2,1,0.3,1.5c0.1,0.5,0.1,1,0.1,1.5
				c0,0.5,0,1-0.1,1.5c-0.1,0.5-0.2,1-0.3,1.5c-0.2,0.5-0.3,0.9-0.5,1.3c-0.3,0.4-0.4,0.8-0.7,1c-0.3,0.3-0.5,0.5-0.7,0.8
				c-0.2,0.2-0.5,0.3-0.7,0.5c-0.4,0.2-0.6,0.4-0.6,0.4s0.2-0.2,0.5-0.5c0.2-0.1,0.4-0.3,0.6-0.5c0.2-0.2,0.4-0.5,0.6-0.8
				c0.2-0.3,0.4-0.7,0.6-1c0.2-0.4,0.3-0.8,0.5-1.2c0.1-0.5,0.2-0.9,0.2-1.4c0-0.5,0.1-1,0.1-1.5c0-0.5,0-1-0.1-1.5
				c0-0.5-0.1-1-0.2-1.4c-0.2-0.9-0.4-1.8-0.6-2.5C355.5,506.1,355.1,505.1,355.1,505.1z"/>
		</g>
	</g>
	<path id="arrow_1_" fill="#48BEFF" d="M399.8,566.1l-2.2-5.3c0,0-22.2,5.9-40.9-3.6l2.2-2.2l-15.7-7.4l8.6,14.5l2.5-2.5
		C360.9,564,376,570.9,399.8,566.1z"/>
	<g id="water_2_">
		<g>
			<circle fill="#88DBFF" cx="355.4" cy="484.8" r="1.1"/>
			<circle fill="#88DBFF" cx="328.7" cy="469.7" r="1.1"/>
		</g>
		<g>
			<circle fill="#88DBFF" cx="320.4" cy="521.2" r="1.1"/>
			<circle fill="#88DBFF" cx="350.5" cy="526.8" r="1.1"/>
		</g>
		<g>
			<circle fill="#88DBFF" cx="198.9" cy="476" r="1.1"/>
			<circle fill="#88DBFF" cx="219.5" cy="496.4" r="1.1"/>
			<circle fill="#88DBFF" cx="234.9" cy="473.7" r="1.1"/>
		</g>
		<g>
			<circle fill="#88DBFF" cx="206.4" cy="561" r="1.1"/>
			<circle fill="#88DBFF" cx="212.8" cy="556.5" r="1.1"/>
			<circle fill="#88DBFF" cx="232.7" cy="567.6" r="1.1"/>
		</g>
		<g>
			<circle fill="#88DBFF" cx="253" cy="539.9" r="1.1"/>
			<circle fill="#88DBFF" cx="266.4" cy="525.9" r="1.1"/>
			<circle fill="#88DBFF" cx="250.5" cy="514.4" r="1.1"/>
		</g>
		<g>
			<circle fill="#88DBFF" cx="183.5" cy="533.5" r="1.1"/>
			<circle fill="#88DBFF" cx="206.4" cy="517.4" r="1.1"/>
			<circle fill="#88DBFF" cx="163.2" cy="516.6" r="1.1"/>
		</g>
	</g>
	<path id="arrow_2_" fill="#F7941E" d="M351.1,260.6l-1.4-3l-13.1,10.6l17.3-1.4l-1.5-3.2c19.5-7.3,40.7,1,40.7,1l2.8-5
		C374,252.5,358.6,257,351.1,260.6z"/>
	<path id="arrow_3_" fill="#B2B19E" d="M203.4,342.2l-9.6-13.8l-2.3,2.7c-7-3.9-22.5-9.7-45.9-3.1l2.6,5.1c0,0,21.7-7.6,41.1,0.6
		l-2.1,2.4L203.4,342.2z"/>
	<g id="carbon_3_">
		<g id="carbon_2_">
			<path opacity="0.6" fill="#B2B19E" d="M118.6,323.9c-8.6-0.2-4.9,8.8-6.7,13.6c-1.1,2.9-2.3,4.6-1,8.4c1.3,3.8,2.7,3.6,5.8,3.8
				c1.3,2.4,4.2,4.5,6.8,5.3c3.9,1.3,5.1-0.6,8.2-1.7c3.4-1.2,7.1-0.3,9.9-2.2c2.9-2,4.3-6.3,3.9-9.6c-0.4-3.5-2.3-5.9-2.7-9.5
				c-0.5-4.6-0.6-6.7-5.9-7.2c-2-0.2-3.4,0.6-5.4,0.1c-1.3-0.4-2.4-1.9-4-2.5C124,321.3,121.7,324,118.6,323.9z"/>
			<g>
				<circle fill="#B2B19E" cx="118.6" cy="328.8" r="1.8"/>
				<circle fill="#B2B19E" cx="115.1" cy="341.9" r="1.8"/>
				<circle fill="#B2B19E" cx="123.5" cy="336" r="1.8"/>
				<circle fill="#B2B19E" cx="130.1" cy="329.4" r="1.8"/>
				<circle fill="#B2B19E" cx="136.7" cy="336" r="1.8"/>
				<circle fill="#B2B19E" cx="130.1" cy="341.9" r="1.8"/>
				<circle fill="#B2B19E" cx="124" cy="349.1" r="1.8"/>
				<circle fill="#B2B19E" cx="140.2" cy="345.1" r="1.8"/>
			</g>
		</g>
		<g id="carbon_1_">
			<path opacity="0.6" fill="#B2B19E" d="M46,356.3c-5.8,8.7,5.8,10.8,9.6,15.8c2.2,3,1.8,3.8,6.6,5c4.7,1.1,6.8,1,9-2.1
				c3.3,0.2,7.3-1.4,9.9-3.5c3.8-3.1,2.7-5.6,3.6-9.5c0.9-4.3,4.3-7.4,4.2-11.7c-0.1-4.3-3.6-8.5-7.3-10.3
				c-3.8-1.8-7.6-1.5-11.5-3.4c-5-2.5-7.3-3.7-11.2,1.3c-1.5,1.9-1.6,4-3.4,5.6c-1.2,1.1-3.5,1.2-5.2,2.5
				C46.9,349,48.2,353.1,46,356.3z"/>
			<g>
				<circle fill="#B2B19E" cx="51.1" cy="359.5" r="2.1"/>
				<circle fill="#B2B19E" cx="63.7" cy="370.6" r="2.1"/>
				<circle fill="#B2B19E" cx="63.7" cy="358.4" r="2.1"/>
				<circle fill="#B2B19E" cx="59.2" cy="348" r="2.1"/>
				<circle fill="#B2B19E" cx="69.3" cy="343.5" r="2.1"/>
				<circle fill="#B2B19E" cx="75.4" cy="356.1" r="2.1"/>
				<circle fill="#B2B19E" cx="75.4" cy="367.2" r="2.1"/>
				<circle fill="#B2B19E" cx="81.9" cy="347.9" r="2.1"/>
			</g>
		</g>
		<g id="carbon">
			<path opacity="0.6" fill="#B2B19E" d="M182.7,338.6c-5.6-2.4-5.5,4.4-8,7.1c-1.5,1.6-2.9,1.9-3,4.8c-0.1,2.8,1,3.5,3,4.4
				c0.2,1.9,1.6,4,3,5.3c2.2,1.8,3.4,1,5.8,1c2.5,0.1,4.7,1.7,7.1,1.2c2.4-0.5,4.5-2.9,5.1-5.2c0.6-2.4,0-4.5,0.7-6.9
				c0.9-3.1,1.4-4.5-1.9-6.2c-1.3-0.7-2.4-0.5-3.6-1.4c-0.8-0.6-1-1.9-2-2.7C186.9,338.3,184.7,339.5,182.7,338.6z"/>
			<g>
				<circle fill="#B2B19E" cx="181.4" cy="341.8" r="1.2"/>
				<circle fill="#B2B19E" cx="175.7" cy="349.4" r="1.2"/>
				<circle fill="#B2B19E" cx="182.7" cy="347.7" r="1.2"/>
				<circle fill="#B2B19E" cx="188.7" cy="345.2" r="1.2"/>
				<circle fill="#B2B19E" cx="191.3" cy="351.2" r="1.2"/>
				<circle fill="#B2B19E" cx="185.4" cy="353.3" r="1.2"/>
				<circle fill="#B2B19E" cx="179.6" cy="356.4" r="1.2"/>
				<circle fill="#B2B19E" cx="191.2" cy="358.1" r="1.2"/>
			</g>
		</g>
	</g>
	<path id="cloud" opacity="0.5" fill="#FFFFFF" d="M300.4,16.4c7.5,2,7.5,7.6,4.2,15.8c2.7-8.6,15.5-10.2,20.2-3.3
		c7.6,11.3-6.3,15.4-14.1,17c8.8-4.2,11.4,10.5,1.3,14c-4.4,1.5-7,0.9-11.1-1.1c-2.7-1.4-6.4-5.1-9.3-4.8
		c10.5,2.1,2.3,14.2-5.6,13.9c-5.4-0.2-14.4-5.6-13-12.1c-1.6,10.5-16.6,3.1-19.2-2.3c15.4,7.1,13.2-15.9,2.5-13
		c6.8,1.8,3.2,9.8-2.8,9.9c-5.1,0.1-10.7-4.2-10.6-9.6c0.3-13.7,13.5-14.6,21.4-12.6c-2.9-4.4-0.3-10.4,5.9-12
		c5.1-1.3,9.8,1.7,13.1,5.8C283.4,22,288.5,13.2,300.4,16.4z"/>
	<polygon id="arrow_4_" fill="#FFFFFF" points="274,117.9 268.4,101.5 263.9,117.9 267.3,117.9 267.3,151.2 270.7,151.2 
		270.7,117.9 	"/>
	<g id="oxyden">
		<g>
			<circle opacity="0.5" fill="#FFFFFF" cx="252.5" cy="101.5" r="11.8"/>
			<circle fill="#FFFFFF" cx="252.5" cy="101.5" r="4.6"/>
		</g>
		<g>
			<circle opacity="0.5" fill="#FFFFFF" cx="257" cy="129" r="8.1"/>
			<circle fill="#FFFFFF" cx="257" cy="129" r="3.1"/>
		</g>
		<g>
			<circle opacity="0.5" fill="#FFFFFF" cx="284.7" cy="92.6" r="14.4"/>
			<circle fill="#FFFFFF" cx="284.7" cy="92.6" r="5.6"/>
		</g>
		<circle fill="#FFFFFF" cx="281.1" cy="120.6" r="3.7"/>
		<circle fill="#FFFFFF" cx="262.3" cy="83.4" r="3.7"/>
	</g>
	<g id="particles">
		<g>
			<circle fill="#F7941E" cx="327.1" cy="269.2" r="4.9"/>
			<circle fill="#F7941E" cx="343.1" cy="181.2" r="4.9"/>
			<circle fill="#F7941E" cx="382.6" cy="232" r="7.3"/>
			<circle fill="#F7941E" cx="437.6" cy="294.1" r="4.9"/>
		</g>
		<g>
			<circle fill="#F7941E" cx="375" cy="89.7" r="4.9"/>
			<circle fill="#F7941E" cx="393" cy="137.1" r="7.3"/>
			<circle fill="#F7941E" cx="436.1" cy="190.8" r="4.9"/>
			<circle fill="#F7941E" cx="488" cy="238" r="7.3"/>
		</g>
		<g>
			<circle fill="#F7941E" cx="435.1" cy="76.6" r="7.3"/>
			<circle fill="#F7941E" cx="446.6" cy="128.7" r="4.9"/>
			<circle fill="#F7941E" cx="495.3" cy="142.5" r="7.3"/>
			<circle fill="#F7941E" cx="522.2" cy="189.6" r="4.9"/>
			<circle fill="#F7941E" cx="565.2" cy="161.6" r="7.3"/>
		</g>
	</g>
	<g id="sun">
		<path fill="#F9CF00" d="M439.5,0.6c0,0-12.4,136,143.8,122V0.6H439.5z"/>
		<path fill="#FBB040" d="M458.5,0.6l-28.3,13.7l32,7.9l-25.7,26.7l33.7-4.7l-19.3,33l32.9-11.1l-9.9,39.2l30.2-20.2l2.8,37
			l21.6-24.7l10,32.3l16.1-25.9l17.3,28.9l11.8-27.7C583.7,105.2,481.5,99.6,458.5,0.6z"/>
		<path fill="#FCE783" d="M458.5,0.6c0,0,4.2,109.3,125.1,104.7V88.6c0,0-93.4,8.3-105.8-88H458.5z"/>
	</g>
</g>
<g id="text">
	<rect x="389.1" y="522.5" opacity="0.5" fill="#F9EDA3" width="78.8" height="26"/>
	<rect x="80.2" y="285" fill="#F9EDA3" width="102.5" height="26"/>
	<rect x="402.5" y="230.6" fill="#F9EDA3" width="59.9" height="26"/>
	<rect x="293.1" y="123.4" fill="#F9EDA3" width="49.7" height="26"/>
	<g>
		<path fill="#008CB2" d="M402.4,539.2L400,532c0-0.1-0.1-0.3-0.1-0.4c0-0.5,0.4-1,1-1c0.5,0,0.8,0.3,1,0.8l1.9,5.7h0l1.8-5.7
			c0.2-0.6,0.5-0.8,1-0.8c0.6,0,1,0.4,1,1c0,0.1,0,0.3-0.1,0.4l-2.5,7.2c-0.3,0.9-0.7,1.2-1.3,1.2
			C403.1,540.4,402.7,540.1,402.4,539.2z"/>
		<path fill="#008CB2" d="M414.4,539.5c0,0.5-0.4,0.9-1,0.9c-0.3,0-0.6-0.1-0.8-0.4l-0.2-0.2h0c-0.4,0.4-1.1,0.7-1.9,0.7
			c-1.8,0-2.6-0.8-2.6-2.1c0-1.5,1.1-2.2,2.8-2.2h1.2c0.1,0,0.1,0,0.1-0.1V536c0-0.6-0.5-1-1.4-1c-0.4,0-0.9,0.1-1.1,0.2
			c-0.2,0.1-0.3,0.1-0.5,0.1c-0.5,0-0.8-0.3-0.8-0.8c0-0.3,0.1-0.6,0.5-0.8c0.5-0.2,1.1-0.4,2.1-0.4c2.1,0,3.1,1,3.1,2.8v1.9
			c0,0.3,0,0.5,0.1,0.7l0.2,0.3C414.4,539.1,414.4,539.3,414.4,539.5z M412.1,538.1v-0.5c0-0.1,0-0.1-0.1-0.1h-1
			c-0.8,0-1.2,0.3-1.2,0.8c0,0.5,0.3,0.7,1,0.7C411.6,539,412.1,538.7,412.1,538.1z"/>
		<path fill="#008CB2" d="M419.8,539.4v-3.1c0-0.8-0.4-1.2-1.1-1.2c-0.7,0-1.1,0.5-1.1,1.2v3.1c0,0.7-0.4,1-1,1c-0.6,0-1-0.4-1-1
			v-4.9c0-0.7,0.4-1,1-1c0.5,0,0.8,0.3,1,0.7h0c0.3-0.4,0.9-0.8,1.8-0.8c1.5,0,2.3,1.1,2.3,2.6v3.5c0,0.7-0.4,1-1,1
			C420.3,540.4,419.8,540,419.8,539.4z"/>
		<path fill="#008CB2" d="M427.6,539.7L427.6,539.7c-0.3,0.4-0.9,0.8-1.8,0.8c-1.1,0-2-0.7-2.4-1.7c-0.2-0.5-0.2-1.1-0.2-1.8
			c0-0.8,0.1-1.3,0.2-1.8c0.4-1.1,1.3-1.7,2.4-1.7c0.9,0,1.5,0.3,1.7,0.7h0v-2.4c0-0.7,0.4-1,1-1c0.6,0,1,0.4,1,1v7.7
			c0,0.7-0.4,1-1,1C428,540.4,427.7,540.1,427.6,539.7z M427.5,538c0.1-0.3,0.1-0.6,0.1-1.1c0-0.5,0-0.9-0.1-1.1
			c-0.2-0.5-0.5-0.8-1-0.8c-0.5,0-0.9,0.3-1.1,0.8c-0.1,0.3-0.1,0.6-0.1,1.1c0,0.5,0,0.9,0.1,1.1c0.2,0.5,0.5,0.8,1.1,0.8
			C426.9,538.8,427.3,538.6,427.5,538z"/>
		<path fill="#008CB2" d="M434.7,531.7c0-0.7,0.4-1.1,1-1.1c0.6,0,1,0.4,1,1.1v2.7c0,0.1,0,0.1,0.1,0.1h3.2c0.1,0,0.1,0,0.1-0.1
			v-2.7c0-0.7,0.4-1.1,1-1.1c0.6,0,1,0.4,1,1.1v7.6c0,0.7-0.4,1.1-1,1.1c-0.6,0-1-0.4-1-1.1v-2.8c0-0.1,0-0.1-0.1-0.1h-3.2
			c-0.1,0-0.1,0-0.1,0.1v2.8c0,0.7-0.5,1.1-1.1,1.1c-0.6,0-1-0.4-1-1.1V531.7z"/>
		<path fill="#008CB2" d="M444.2,538.8l2.3-2.7c0.3-0.3,0.4-0.6,0.4-1c0-0.5-0.3-0.8-0.8-0.8c-0.4,0-0.7,0.2-0.9,0.6
			c-0.1,0.3-0.4,0.5-0.7,0.5c-0.4,0-0.7-0.3-0.7-0.7c0-0.1,0-0.1,0-0.2c0.2-0.8,1-1.5,2.3-1.5c1.4,0,2.2,0.9,2.2,2.1
			c0,0.7-0.3,1.2-0.7,1.8l-1.9,2.2v0h2c0.4,0,0.7,0.3,0.7,0.6c0,0.4-0.2,0.6-0.7,0.6h-3.3c-0.4,0-0.7-0.3-0.7-0.6
			C443.8,539.4,443.9,539.2,444.2,538.8z"/>
		<path fill="#008CB2" d="M450,538.2c-0.2-0.7-0.3-1.2-0.3-2.6s0.1-2,0.3-2.6c0.5-1.6,1.8-2.3,3.5-2.3s3,0.8,3.5,2.3
			c0.2,0.7,0.3,1.2,0.3,2.6s-0.1,2-0.3,2.6c-0.5,1.6-1.8,2.3-3.5,2.3S450.5,539.7,450,538.2z M455.1,537.6c0.1-0.4,0.2-0.8,0.2-2.1
			c0-1.2,0-1.7-0.2-2.1c-0.2-0.7-0.7-1-1.5-1s-1.3,0.4-1.5,1c-0.1,0.4-0.2,0.8-0.2,2.1c0,1.2,0,1.7,0.2,2.1c0.2,0.7,0.7,1.1,1.5,1.1
			S454.8,538.3,455.1,537.6z"/>
	</g>
	<g>
		<path fill="#F7941E" d="M413.6,247.9c-0.3-0.2-0.5-0.5-0.5-0.9c0-0.5,0.4-0.9,0.9-0.9c0.2,0,0.4,0.1,0.6,0.2
			c0.8,0.4,1.4,0.6,2.1,0.6c1,0,1.6-0.5,1.6-1.1c0-0.6-0.3-0.9-1.5-1.1l-0.5-0.1c-2-0.3-3.1-1.2-3.1-2.9c0-1.8,1.3-3,3.4-3
			c1.1,0,2.1,0.3,2.7,0.6c0.3,0.2,0.5,0.5,0.5,0.8c0,0.5-0.4,0.9-0.9,0.9c-0.2,0-0.4-0.1-0.6-0.2c-0.5-0.2-1.1-0.4-1.7-0.4
			c-0.9,0-1.3,0.4-1.3,1c0,0.5,0.4,0.9,1.5,1.1l0.5,0.1c2,0.3,3,1.2,3,2.9c0,1.7-1.3,3-3.8,3C415.3,248.7,414.3,248.3,413.6,247.9z"
			/>
		<path fill="#F7941E" d="M421.7,246.8c-0.2-0.5-0.2-1-0.2-1.6s0.1-1.1,0.2-1.6c0.4-1.3,1.5-2,3-2c1.5,0,2.6,0.7,3,2
			c0.2,0.5,0.2,1,0.2,1.6s-0.1,1.1-0.2,1.6c-0.4,1.3-1.5,2-3,2C423.2,248.7,422.2,248,421.7,246.8z M425.8,246.3
			c0.1-0.3,0.1-0.7,0.1-1.1s0-0.9-0.1-1.1c-0.2-0.5-0.5-0.8-1.1-0.8c-0.6,0-0.9,0.3-1.1,0.8c-0.1,0.3-0.1,0.7-0.1,1.1s0,0.9,0.1,1.1
			c0.2,0.5,0.5,0.8,1.1,0.8C425.3,247.1,425.6,246.8,425.8,246.3z"/>
		<path fill="#F7941E" d="M431.5,248.7c-1.6,0-2.1-0.8-2.1-2.2v-6.6c0-0.7,0.4-1.1,1-1.1c0.6,0,1,0.4,1,1.1v6.4
			c0,0.4,0.1,0.6,0.5,0.6c0.6,0.1,0.8,0.4,0.8,0.9C432.6,248.3,432.3,248.7,431.5,248.7L431.5,248.7z"/>
		<path fill="#F7941E" d="M435.7,248.7c-1.6,0-2.1-0.8-2.1-2.2v-6.6c0-0.7,0.4-1.1,1-1.1c0.6,0,1,0.4,1,1.1v6.4
			c0,0.4,0.1,0.6,0.5,0.6c0.6,0.1,0.8,0.4,0.8,0.9C436.8,248.3,436.5,248.7,435.7,248.7L435.7,248.7z"/>
		<path fill="#F7941E" d="M438.6,251.1c-0.6,0-0.9-0.4-0.9-0.8c0-0.5,0.3-0.8,0.9-0.9c0.4,0,0.7-0.2,0.8-0.7l0.2-0.5l-2.2-5.2
			c-0.1-0.2-0.1-0.3-0.1-0.5c0-0.5,0.4-0.9,1-0.9c0.5,0,0.8,0.3,0.9,0.7l1.3,3.5h0l1.2-3.5c0.2-0.4,0.5-0.7,0.9-0.7
			c0.6,0,1,0.4,1,0.9c0,0.2,0,0.3-0.1,0.5l-2.5,6.1C440.6,250.7,440,251.1,438.6,251.1L438.6,251.1z"/>
		<path fill="#F7941E" d="M445,248.1c-0.3-0.2-0.5-0.5-0.5-0.8c0-0.4,0.4-0.8,0.8-0.8c0.2,0,0.4,0.1,0.6,0.2c0.5,0.3,1,0.5,1.7,0.5
			c0.7,0,1.1-0.3,1.1-0.6c0-0.3-0.2-0.5-1-0.6l-0.8-0.1c-1.5-0.2-2.2-0.9-2.2-2.1c0-1.3,1-2.2,2.8-2.2c0.8,0,1.5,0.2,2.1,0.5
			c0.4,0.2,0.6,0.4,0.6,0.8c0,0.4-0.3,0.8-0.8,0.8c-0.1,0-0.3,0-0.6-0.2c-0.4-0.2-0.9-0.3-1.4-0.3c-0.6,0-0.9,0.2-0.9,0.5
			c0,0.3,0.2,0.5,1,0.6l0.8,0.1c1.6,0.2,2.3,0.9,2.3,2.1c0,1.4-1.1,2.4-3.1,2.4C446.4,248.7,445.6,248.4,445,248.1z"/>
	</g>
	<g>
		<path fill="#38C689" d="M304.1,132.5c0-0.7,0.4-1.1,1-1.1c0.6,0,1,0.4,1,1.1v7.6c0,0.7-0.4,1.1-1,1.1c-0.6,0-1-0.4-1-1.1V132.5z"
			/>
		<path fill="#38C689" d="M310.1,141.2c-1.6,0-2.1-0.8-2.1-2.2v-6.6c0-0.7,0.4-1.1,1-1.1c0.6,0,1,0.4,1,1.1v6.4
			c0,0.4,0.1,0.6,0.5,0.6c0.6,0.1,0.8,0.4,0.8,0.9C311.2,140.8,310.9,141.2,310.1,141.2L310.1,141.2z"/>
		<path fill="#38C689" d="M314.6,141.2c-1.6,0-2.2-0.7-2.2-2.3v-3.1c0-0.1,0-0.1-0.1-0.1h-0.1c-0.5,0-0.8-0.3-0.8-0.7
			s0.3-0.7,0.8-0.7h0.1c0.1,0,0.1,0,0.1-0.1v-1c0-0.7,0.4-1.1,1-1.1c0.6,0,1,0.4,1,1.1v1c0,0.1,0,0.1,0.1,0.1h0.5
			c0.5,0,0.8,0.3,0.8,0.7s-0.3,0.7-0.8,0.7h-0.5c-0.1,0-0.1,0-0.1,0.1v3c0,0.4,0.2,0.6,0.5,0.6c0.6,0.1,0.9,0.5,0.9,0.9
			C315.8,140.9,315.4,141.2,314.6,141.2L314.6,141.2z"/>
		<path fill="#38C689" d="M320.2,136.3c0-2,0.1-2.6,0.2-3c0.4-1.2,1.4-2,2.9-2c1.6,0,2.5,0.7,2.9,2c0.1,0.4,0.2,1,0.2,3
			s-0.1,2.6-0.2,3c-0.4,1.2-1.4,2-2.9,2c-1.6,0-2.5-0.7-2.9-2C320.3,138.9,320.2,138.3,320.2,136.3z M323.3,139.6
			c0.5,0,0.8-0.2,1-0.6c0.1-0.3,0.1-0.5,0.1-2.7c0-2.1,0-2.4-0.1-2.7c-0.1-0.4-0.5-0.6-1-0.6s-0.8,0.2-1,0.6
			c-0.1,0.3-0.1,0.5-0.1,2.7c0,2.1,0,2.4,0.1,2.7C322.5,139.4,322.8,139.6,323.3,139.6z"/>
		<path fill="#38C689" d="M328.3,139.6l2.3-2.7c0.3-0.3,0.4-0.6,0.4-1c0-0.5-0.3-0.8-0.8-0.8c-0.4,0-0.7,0.2-0.9,0.6
			c-0.1,0.3-0.4,0.5-0.7,0.5c-0.4,0-0.7-0.3-0.7-0.7c0-0.1,0-0.1,0-0.2c0.2-0.8,1-1.5,2.3-1.5c1.4,0,2.2,0.9,2.2,2.1
			c0,0.7-0.3,1.2-0.7,1.8l-1.9,2.2v0h2c0.4,0,0.7,0.3,0.7,0.6c0,0.4-0.2,0.6-0.7,0.6h-3.3c-0.4,0-0.7-0.3-0.7-0.6
			C327.9,140.2,328,140,328.3,139.6z"/>
	</g>
	<g>
		<path fill="#848163" d="M90.9,294.6c0-0.7,0.4-1.1,1.1-1.1c0.6,0,1,0.4,1,1.1v3.2l3.2-3.9c0.2-0.3,0.5-0.5,0.9-0.5
			c0.5,0,0.9,0.4,0.9,0.9c0,0.3-0.1,0.5-0.2,0.7l-2.1,2.4l2.4,4.2c0.1,0.2,0.2,0.4,0.2,0.6c0,0.5-0.4,1-1,1c-0.4,0-0.8-0.2-1-0.6
			l-2-3.6l-1.3,1.6v1.5c0,0.7-0.4,1.1-1,1.1c-0.6,0-1.1-0.4-1.1-1.1V294.6z"/>
		<path fill="#848163" d="M103.4,302.6L103.4,302.6c-0.4,0.4-1,0.8-1.8,0.8c-1.5,0-2.3-1.1-2.3-2.6v-3.5c0-0.7,0.4-1,1-1
			c0.6,0,1,0.4,1,1v3.1c0,0.8,0.3,1.2,1.1,1.2c0.7,0,1.1-0.5,1.1-1.2v-3.1c0-0.7,0.4-1,1-1c0.6,0,1,0.4,1,1v4.9c0,0.7-0.4,1-1,1
			C103.9,303.3,103.5,303,103.4,302.6z"/>
		<path fill="#848163" d="M109.2,303.3c-1.6,0-2.1-0.8-2.1-2.2v-6.6c0-0.7,0.4-1.1,1-1.1c0.6,0,1,0.4,1,1.1v6.4
			c0,0.4,0.1,0.6,0.5,0.6c0.6,0.1,0.8,0.4,0.8,0.9C110.3,302.9,110,303.3,109.2,303.3L109.2,303.3z"/>
		<path fill="#848163" d="M115.5,302.6L115.5,302.6c-0.3,0.4-0.9,0.8-1.8,0.8c-1.1,0-2-0.7-2.4-1.7c-0.2-0.5-0.2-1.1-0.2-1.8
			c0-0.8,0.1-1.3,0.2-1.8c0.4-1.1,1.3-1.7,2.4-1.7c0.9,0,1.5,0.3,1.7,0.7h0v-2.4c0-0.7,0.4-1.1,1-1.1c0.6,0,1,0.4,1,1.1v7.7
			c0,0.7-0.4,1-1,1C115.9,303.3,115.6,302.9,115.5,302.6z M115.3,300.9c0.1-0.3,0.1-0.6,0.1-1.1c0-0.5,0-0.9-0.1-1.1
			c-0.2-0.5-0.5-0.8-1-0.8c-0.5,0-0.9,0.3-1.1,0.8c-0.1,0.3-0.1,0.6-0.1,1.1c0,0.5,0,0.9,0.1,1.1c0.2,0.5,0.5,0.8,1.1,0.8
			C114.8,301.7,115.2,301.4,115.3,300.9z"/>
		<path fill="#848163" d="M119.1,294.5c0-0.6,0.5-1.1,1.1-1.1c0.6,0,1.1,0.5,1.1,1.1c0,0.6-0.5,1.1-1.1,1.1
			C119.6,295.6,119.1,295.1,119.1,294.5z M119.2,302.2v-4.9c0-0.7,0.4-1,1-1c0.6,0,1,0.4,1,1v4.9c0,0.7-0.4,1-1,1
			C119.7,303.3,119.2,302.9,119.2,302.2z"/>
		<path fill="#848163" d="M122.9,301.4c-0.2-0.5-0.2-1-0.2-1.6s0.1-1.1,0.2-1.6c0.4-1.3,1.5-2,3-2c1.5,0,2.6,0.7,3,2
			c0.2,0.5,0.2,1,0.2,1.6s-0.1,1.1-0.2,1.6c-0.4,1.3-1.5,2-3,2C124.4,303.4,123.3,302.6,122.9,301.4z M126.9,300.9
			c0.1-0.3,0.1-0.7,0.1-1.1c0-0.5,0-0.9-0.1-1.1c-0.2-0.5-0.5-0.8-1.1-0.8c-0.6,0-0.9,0.3-1.1,0.8c-0.1,0.3-0.1,0.7-0.1,1.1
			c0,0.5,0,0.9,0.1,1.1c0.2,0.5,0.5,0.8,1.1,0.8C126.4,301.7,126.8,301.4,126.9,300.9z"/>
		<path fill="#848163" d="M134.3,302.8l-1.3-1.7h0l-1.3,1.7c-0.2,0.3-0.5,0.4-0.8,0.4c-0.5,0-0.9-0.4-0.9-0.9c0-0.2,0.1-0.4,0.2-0.7
			l1.6-2.1l-1.4-1.9c-0.2-0.2-0.2-0.4-0.2-0.7c0-0.5,0.4-0.9,0.9-0.9c0.3,0,0.6,0.1,0.8,0.4l1.1,1.5h0l1.1-1.5
			c0.2-0.3,0.5-0.4,0.8-0.4c0.5,0,0.9,0.4,0.9,0.9c0,0.2-0.1,0.4-0.2,0.7l-1.4,1.9l1.6,2.1c0.2,0.2,0.2,0.4,0.2,0.7
			c0,0.5-0.4,0.9-0.9,0.9C134.8,303.3,134.5,303.1,134.3,302.8z"/>
		<path fill="#848163" d="M137.4,294.5c0-0.6,0.5-1.1,1.1-1.1c0.6,0,1.1,0.5,1.1,1.1c0,0.6-0.5,1.1-1.1,1.1
			C137.9,295.6,137.4,295.1,137.4,294.5z M137.5,302.2v-4.9c0-0.7,0.4-1,1-1c0.6,0,1,0.4,1,1v4.9c0,0.7-0.4,1-1,1
			C137.9,303.3,137.5,302.9,137.5,302.2z"/>
		<path fill="#848163" d="M145.4,302.6L145.4,302.6c-0.3,0.4-0.9,0.8-1.8,0.8c-1.1,0-2-0.7-2.4-1.7c-0.2-0.5-0.2-1.1-0.2-1.8
			c0-0.8,0.1-1.3,0.2-1.8c0.4-1.1,1.3-1.7,2.4-1.7c0.9,0,1.5,0.3,1.7,0.7h0v-2.4c0-0.7,0.4-1.1,1-1.1c0.6,0,1,0.4,1,1.1v7.7
			c0,0.7-0.4,1-1,1C145.8,303.3,145.5,302.9,145.4,302.6z M145.2,300.9c0.1-0.3,0.1-0.6,0.1-1.1c0-0.5,0-0.9-0.1-1.1
			c-0.2-0.5-0.5-0.8-1-0.8c-0.5,0-0.9,0.3-1.1,0.8c-0.1,0.3-0.1,0.6-0.1,1.1c0,0.5,0,0.9,0.1,1.1c0.2,0.5,0.5,0.8,1.1,0.8
			C144.7,301.7,145,301.4,145.2,300.9z"/>
		<path fill="#848163" d="M152.2,298.4c0-1.5,0.1-2,0.3-2.6c0.5-1.6,1.8-2.4,3.4-2.4c1.4,0,2.5,0.7,3,1.5c0.1,0.2,0.2,0.4,0.2,0.6
			c0,0.6-0.4,0.9-1,0.9c-0.4,0-0.6-0.1-0.9-0.5c-0.4-0.5-0.7-0.7-1.3-0.7c-0.8,0-1.2,0.4-1.4,1.1c-0.1,0.4-0.2,0.7-0.2,2.1
			c0,1.4,0,1.7,0.2,2.1c0.2,0.7,0.7,1.1,1.4,1.1c0.6,0,1-0.2,1.3-0.7c0.3-0.4,0.6-0.5,0.9-0.5c0.5,0,1,0.4,1,0.9
			c0,0.2-0.1,0.4-0.2,0.6c-0.5,0.9-1.5,1.5-3,1.5c-1.7,0-2.9-0.8-3.4-2.4C152.3,300.3,152.2,299.8,152.2,298.4z"/>
		<path fill="#848163" d="M160.5,298.4c0-2,0.1-2.6,0.2-3c0.4-1.2,1.4-2,2.9-2s2.5,0.7,2.9,2c0.1,0.4,0.2,1,0.2,3s-0.1,2.6-0.2,3
			c-0.4,1.2-1.4,2-2.9,2s-2.5-0.7-2.9-2C160.6,300.9,160.5,300.4,160.5,298.4z M163.7,301.7c0.5,0,0.8-0.2,1-0.6
			c0.1-0.3,0.1-0.5,0.1-2.7c0-2.1,0-2.4-0.1-2.7c-0.1-0.4-0.5-0.6-1-0.6c-0.5,0-0.8,0.2-1,0.6c-0.1,0.3-0.1,0.5-0.1,2.7
			c0,2.1,0,2.4,0.1,2.7C162.8,301.5,163.2,301.7,163.7,301.7z"/>
		<path fill="#848163" d="M168.7,301.6l2.3-2.7c0.3-0.3,0.4-0.6,0.4-1c0-0.5-0.3-0.8-0.8-0.8c-0.4,0-0.7,0.2-0.9,0.6
			c-0.1,0.3-0.4,0.5-0.7,0.5c-0.4,0-0.7-0.3-0.7-0.7c0-0.1,0-0.1,0-0.2c0.2-0.8,1-1.5,2.3-1.5c1.4,0,2.2,0.9,2.2,2.1
			c0,0.7-0.3,1.2-0.7,1.8l-1.9,2.2v0h2c0.4,0,0.7,0.3,0.7,0.6c0,0.4-0.2,0.6-0.7,0.6h-3.3c-0.4,0-0.7-0.3-0.7-0.6
			C168.2,302.2,168.3,302,168.7,301.6z"/>
	</g>
</g>
</svg>
