<?xml version="1.0" encoding="utf-8"?>
<!-- Generator: Adobe Illustrator 18.0.0, SVG Export Plug-In . SVG Version: 6.00 Build 0)  -->
<!DOCTYPE svg PUBLIC "-//W3C//DTD SVG 1.1//EN" "http://www.w3.org/Graphics/SVG/1.1/DTD/svg11.dtd">
<svg version="1.1" id="Lag_1" xmlns="http://www.w3.org/2000/svg" xmlns:xlink="http://www.w3.org/1999/xlink" x="0px" y="0px"
	 viewBox="0 0 800 1050" enable-background="new 0 0 800 1050" xml:space="preserve">
<g>
	<g>
		<path fill="#CD5C5C" d="M511,899.3c0-1.1,0.7-1.9,1.9-1.9c0.8,0,1.5,0.5,2,1.4c0.7,1.3,1.8,2,3.6,2c2.4,0,3.9-1.5,3.9-3.9
			c0-2.5-1.8-4.1-4.1-4.1h-0.4c-1.1,0-1.9-0.8-1.9-1.9s0.8-1.9,1.9-1.9h0.4c2.1,0,3.5-1.5,3.5-3.7c0-2.2-1.3-3.5-3.5-3.5
			c-1.8,0-2.8,0.8-3.3,1.9c-0.4,0.9-1.1,1.3-1.9,1.3c-1.1,0-1.9-0.8-1.9-1.9c0-0.3,0.1-0.7,0.2-1c0.9-2.3,3.3-4.1,7-4.1
			c4.8,0,7.6,2.9,7.6,7c0,2.5-1.2,4.3-2.9,5.4v0.1c1.6,0.8,3.4,2.9,3.4,6.3c0,4.6-3.4,7.7-8,7.7c-3.8,0-6.4-1.7-7.4-4.2
			C511,900,511,899.7,511,899.3z"/>
		<path fill="#CD5C5C" d="M533.9,899.1c1.5,0,2.7,1.2,2.7,2.7c0,1.5-1.2,2.7-2.7,2.7c-1.5,0-2.7-1.2-2.7-2.7
			C531.2,900.3,532.4,899.1,533.9,899.1z"/>
		<path fill="#CD5C5C" d="M541.6,899.3c0-1.1,0.7-1.9,1.9-1.9c0.8,0,1.5,0.5,2,1.4c0.7,1.3,1.8,2,3.6,2c2.4,0,3.9-1.5,3.9-3.9
			c0-2.5-1.8-4.1-4.1-4.1h-0.4c-1.1,0-1.9-0.8-1.9-1.9s0.8-1.9,1.9-1.9h0.4c2.1,0,3.5-1.5,3.5-3.7c0-2.2-1.3-3.5-3.5-3.5
			c-1.8,0-2.8,0.8-3.3,1.9c-0.4,0.9-1.1,1.3-1.9,1.3c-1.1,0-1.9-0.8-1.9-1.9c0-0.3,0.1-0.7,0.2-1c0.9-2.3,3.3-4.1,7-4.1
			c4.8,0,7.6,2.9,7.6,7c0,2.5-1.2,4.3-2.9,5.4v0.1c1.6,0.8,3.4,2.9,3.4,6.3c0,4.6-3.4,7.7-8,7.7c-3.8,0-6.4-1.7-7.4-4.2
			C541.7,900,541.6,899.7,541.6,899.3z"/>
		<path fill="#CD5C5C" d="M573.4,880.6c0-1.4,0.9-2.3,2.2-2.3s2.2,0.9,2.2,2.3V891l9.7-11.8c0.5-0.6,1.1-0.9,1.8-0.9
			c1.1,0,2,0.8,2,1.9c0,0.6-0.2,1.1-0.5,1.5l-6,7l7.2,12.1c0.3,0.5,0.4,1,0.4,1.4c0,1.2-0.9,2.1-2.2,2.1c-0.9,0-1.6-0.5-2.1-1.3
			l-6.3-10.9l-4,5v4.9c0,1.4-0.9,2.3-2.2,2.3s-2.2-0.9-2.2-2.3V880.6z"/>
		<path fill="#CD5C5C" d="M595.8,891.3c0-3.7,0.2-5.3,0.7-7.1c1.3-4,4.6-6.2,9.1-6.2c4,0,6.9,1.7,8.2,4.1c0.2,0.4,0.4,0.8,0.4,1.3
			c0,1.2-0.9,2-2,2c-0.8,0-1.4-0.3-2-1.1c-1.1-1.6-2.5-2.3-4.6-2.3c-2.6,0-4.1,1.3-4.8,3.4c-0.3,1.1-0.5,2.4-0.5,5.9
			s0.2,4.8,0.5,5.9c0.7,2.1,2.2,3.4,4.8,3.4c2.4,0,4.2-1.2,4.8-3.2c0.3-0.9,0.4-2.2,0.4-3.3c0-0.2-0.1-0.2-0.2-0.2h-2.9
			c-1.2,0-2-0.8-2-1.9c0-1.1,0.8-1.9,2-1.9h5.8c1.1,0,1.8,0.7,1.8,1.8v0.7c0,2.1-0.2,4.2-0.7,5.7c-1.3,4.1-4.6,6.3-9,6.3
			c-4.5,0-7.8-2.1-9.1-6.2C595.9,896.5,595.8,895,595.8,891.3z"/>
		<path fill="#253A43" d="M630.4,891.3c0-3.8,0.2-5.3,0.7-7.1c1.3-4,4.5-6.2,8.9-6.2c3.6,0,6.5,1.7,7.7,4.2c0.2,0.4,0.4,0.8,0.4,1.3
			c0,1.2-0.9,2-2,2c-0.8,0-1.4-0.3-2-1.2c-1-1.5-2.2-2.3-4.1-2.3c-2.5,0-3.9,1.3-4.6,3.4c-0.3,1.1-0.5,2.2-0.5,5.9s0.2,4.8,0.5,5.9
			c0.7,2.1,2.2,3.4,4.6,3.4c1.9,0,3.1-0.8,4.1-2.3c0.6-0.9,1.2-1.2,2-1.2c1.1,0,2,0.8,2,2c0,0.5-0.2,0.9-0.4,1.3
			c-1.3,2.5-4.2,4.2-7.7,4.2c-4.4,0-7.6-2.2-8.9-6.2C630.6,896.6,630.4,895.1,630.4,891.3z"/>
		<path fill="#253A43" d="M653.1,884.2c1.3-4,4.6-6.2,9-6.2c4.5,0,7.7,2.1,9,6.2c0.6,1.9,0.8,3.4,0.8,7.1s-0.2,5.3-0.8,7.1
			c-1.3,4-4.6,6.2-9,6.2c-4.4,0-7.7-2.1-9-6.2c-0.6-1.9-0.8-3.4-0.8-7.1S652.5,886,653.1,884.2z M666.8,885.4
			c-0.7-2.1-2.2-3.4-4.7-3.4c-2.5,0-4,1.3-4.7,3.4c-0.4,1.1-0.5,2.5-0.5,5.9s0.2,4.8,0.5,5.9c0.7,2.1,2.2,3.4,4.7,3.4
			c2.5,0,4-1.3,4.7-3.4c0.4-1.1,0.5-2.5,0.5-5.9S667.2,886.5,666.8,885.4z"/>
		<path fill="#253A43" d="M677.6,899.6l8.4-10.4c1.1-1.3,1.7-2.6,1.7-4c0-2.1-1.3-3.4-3.4-3.4c-1.9,0-2.9,0.8-3.6,2.5
			c-0.4,1-1.1,1.5-2,1.5c-1.2,0-2-0.7-2-1.9c0-0.2,0-0.4,0.1-0.6c0.6-2.6,3.2-5.3,7.6-5.3c4.7,0,7.6,3.1,7.6,7.1
			c0,2.4-1,4.3-2.6,6.3l-7.4,8.8v0.1h8.2c1.2,0,2,0.8,2,1.9c0,1.1-0.7,1.9-2,1.9h-11.8c-1.2,0-2-0.8-2-1.9
			C676.3,901.4,676.6,900.8,677.6,899.6z"/>
	</g>
</g>
<g>
	<path fill="#9E9B8F" d="M616,924.8c0.5,0,0.7,0.3,0.7,0.7c0,0.4-0.3,0.7-0.7,0.7h-5c-0.1,0-0.1,0-0.1,0.1v3.4c0,0.1,0,0.1,0.1,0.1
		h4.2c0.5,0,0.7,0.3,0.7,0.7c0,0.4-0.3,0.7-0.7,0.7H611c-0.1,0-0.1,0-0.1,0.1v3.5c0,0.1,0,0.1,0.1,0.1h5c0.5,0,0.7,0.3,0.7,0.7
		c0,0.4-0.3,0.7-0.7,0.7h-5.9c-0.4,0-0.7-0.3-0.7-0.7v-1.9c0-0.1,0-0.1-0.1-0.1H605l-1.3,2.3c-0.2,0.3-0.4,0.4-0.7,0.4
		c-0.4,0-0.7-0.3-0.7-0.7c0-0.1,0-0.3,0.1-0.4l5.7-9.8c0.3-0.5,0.5-0.7,1.1-0.7H616z M605.8,932.3h3.4c0.1,0,0.1,0,0.1-0.1v-6h-0.1
		L605.8,932.3z"/>
	<path fill="#9E9B8F" d="M618.8,925.5c0-0.5,0.3-0.8,0.8-0.8c0.4,0,0.7,0.3,0.7,0.8v5.5l4.9-6c0.2-0.2,0.4-0.3,0.6-0.3
		c0.4,0,0.7,0.3,0.7,0.7c0,0.2-0.1,0.4-0.2,0.5l-3,3.5l3.4,5.9c0.1,0.2,0.2,0.3,0.2,0.5c0,0.4-0.3,0.7-0.7,0.7
		c-0.3,0-0.5-0.2-0.7-0.4l-3.1-5.4l-2.1,2.5v2.6c0,0.5-0.3,0.8-0.7,0.8c-0.5,0-0.8-0.3-0.8-0.8V925.5z"/>
	<path fill="#9E9B8F" d="M632.6,933.9L632.6,933.9l2.9-8.6c0.1-0.4,0.4-0.6,0.7-0.6c0.4,0,0.7,0.3,0.7,0.7c0,0.1,0,0.2-0.1,0.4
		l-3.3,9.7c-0.2,0.6-0.5,0.9-0.9,0.9c-0.5,0-0.7-0.3-0.9-0.9l-3.3-9.7c-0.1-0.2-0.1-0.3-0.1-0.4c0-0.4,0.3-0.7,0.7-0.7
		c0.4,0,0.6,0.2,0.7,0.6L632.6,933.9z"/>
	<path fill="#9E9B8F" d="M638.2,934.5c0.5,0,1,0.4,1,1s-0.4,1-1,1c-0.5,0-1-0.4-1-1S637.6,934.5,638.2,934.5z"/>
	<path fill="#9E9B8F" d="M645.7,925.5c0-0.4,0.3-0.7,0.7-0.7h3.6c2.3,0,3.7,1.4,3.7,3.4c0,2.1-1.4,3.4-3.7,3.4h-2.6
		c-0.1,0-0.1,0-0.1,0.1v3.8c0,0.5-0.3,0.8-0.7,0.8c-0.5,0-0.8-0.3-0.8-0.8V925.5z M652.1,928.3c0-1.3-0.8-2-2.3-2h-2.6
		c-0.1,0-0.1,0-0.1,0.1v3.9c0,0.1,0,0.1,0.1,0.1h2.6C651.3,930.3,652.1,929.5,652.1,928.3z"/>
	<path fill="#9E9B8F" d="M655.6,935.6v-10.1c0-0.4,0.3-0.7,0.7-0.7h3.6c2.2,0,3.6,1.3,3.6,3.3c0,1.5-0.8,2.7-2.2,3.1l2.1,4.1
		c0.1,0.1,0.1,0.3,0.1,0.4c0,0.4-0.3,0.7-0.7,0.7c-0.3,0-0.5-0.2-0.7-0.5l-2.3-4.5h-2.6c-0.1,0-0.1,0-0.1,0.1v4.1
		c0,0.5-0.3,0.8-0.7,0.8C656,936.4,655.6,936.1,655.6,935.6z M662.1,928.1c0-1.2-0.8-1.9-2.1-1.9h-2.7c-0.1,0-0.1,0-0.1,0.1v3.6
		c0,0.1,0,0.1,0.1,0.1h2.7C661.3,930.1,662.1,929.3,662.1,928.1z"/>
	<path fill="#9E9B8F" d="M666.7,934.5c0.5,0,1,0.4,1,1s-0.4,1-1,1c-0.5,0-1-0.4-1-1S666.2,934.5,666.7,934.5z"/>
	<path fill="#9E9B8F" d="M674.2,925.5c0-0.5,0.3-0.8,0.8-0.8c0.4,0,0.7,0.3,0.7,0.8v5.5l4.9-6c0.2-0.2,0.4-0.3,0.6-0.3
		c0.4,0,0.7,0.3,0.7,0.7c0,0.2-0.1,0.4-0.2,0.5l-3,3.5l3.4,5.9c0.1,0.2,0.2,0.3,0.2,0.5c0,0.4-0.3,0.7-0.7,0.7
		c-0.3,0-0.5-0.2-0.7-0.4l-3.1-5.4l-2.1,2.5v2.6c0,0.5-0.3,0.8-0.7,0.8c-0.5,0-0.8-0.3-0.8-0.8V925.5z"/>
	<path fill="#9E9B8F" d="M683.6,930.6c0-1.6,0.1-2.4,0.3-3.2c0.6-1.8,1.9-2.7,3.9-2.7c1.7,0,3,0.7,3.6,1.9c0.1,0.1,0.1,0.3,0.1,0.5
		c0,0.4-0.3,0.7-0.7,0.7c-0.3,0-0.5-0.1-0.7-0.4c-0.5-0.8-1.3-1.2-2.3-1.2c-1.3,0-2.1,0.7-2.4,1.8c-0.2,0.6-0.3,1.2-0.3,2.8
		c0,1.5,0.1,2.2,0.3,2.8c0.3,1.1,1.1,1.8,2.4,1.8c1.3,0,2.2-0.6,2.5-1.7c0.2-0.5,0.2-1.2,0.2-1.7c0-0.1,0-0.1-0.1-0.1h-1.8
		c-0.5,0-0.7-0.3-0.7-0.7c0-0.4,0.3-0.7,0.7-0.7h2.7c0.4,0,0.7,0.3,0.7,0.7v0.3c0,0.8-0.1,1.8-0.3,2.5c-0.6,1.8-2,2.8-3.9,2.8
		c-2,0-3.3-1-3.9-2.7C683.7,933,683.6,932.2,683.6,930.6z"/>
</g>
<g>
	<path fill="#DB3B69" d="M400,780C190.1,780,20,609.9,20,400C20,190.1,190.1,20,400,20c209.9,0,380,170.1,380,380
		C780,609.9,609.9,780,400,780z"/>
	<path fill="#CE3266" d="M552.1,225.7l-13.5-12.2l-18.1,21.4l-31.8-31.8l-0.1,0.1l-17.5-9.1l-61.4,128.3
		c-4.7-6.5-12.3-10.7-20.9-10.7c-9.3,0-17.4,4.9-21.9,12.2c-5-1.4-10.3-2.2-15.7-2.2c-14,0-26.9,4.9-37,13.2
		c-7.1-3.1-15-4.8-23.2-4.8c-28.3,0-51.9,20.1-57.3,46.7c-2.7-1-5.6-1.6-8.7-1.6c-14.3,0-25.9,11.6-25.9,25.9c0,2.9,0.6,5.7,1.5,8.4
		h-11.1c11.2,29.9,29.1,56.4,51.9,77.9l-0.6,0.6l274.3,274.3c138.3-43.9,242.2-164.8,261.6-312.4L552.3,225.4L552.1,225.7z"/>
	<g>
		<path fill="#F2EFDC" d="M414.7,337.6c0,14.3-11.6,25.9-25.9,25.9c-14.3,0-25.9-11.6-25.9-25.9c0-14.3,11.6-25.9,25.9-25.9
			C403.2,311.7,414.7,323.3,414.7,337.6z"/>
		<path fill="#F2EFDC" d="M454.9,345.9c0,14.3-11.6,25.9-25.9,25.9c-14.3,0-25.9-11.6-25.9-25.9c0-14.3,11.6-25.9,25.9-25.9
			C443.3,320,454.9,331.6,454.9,345.9z"/>
		<path fill="#DCDAC8" d="M407.2,335.1c0,7.8-6.4,14.2-14.2,14.2c-7.9,0-14.2-6.4-14.2-14.2c0-7.9,6.4-14.2,14.2-14.2
			C400.9,320.8,407.2,327.2,407.2,335.1z"/>
		<polygon fill="#FFA4C2" points="489,203.4 343.1,461.7 471.1,194.1 		"/>
		<polygon fill="#FFA4C2" points="553.5,226.9 347.3,440.2 538.6,213.5 		"/>
		<path fill="#F2EFDC" d="M520.9,406.1c0,40.1-64.4,72.7-143.8,72.7c-79.4,0-143.8-32.6-143.8-72.7c0-40.2,64.4-72.7,143.8-72.7
			C456.5,333.4,520.9,365.9,520.9,406.1z"/>
		<path fill="#F2EFDC" d="M250.9,401.1c0,14.3-11.6,25.9-25.9,25.9c-14.3,0-25.9-11.6-25.9-25.9c0-14.3,11.6-25.9,25.9-25.9
			C239.3,375.2,250.9,386.8,250.9,401.1z"/>
		<path fill="#F2EFDC" d="M573.6,397.8c0,14.3-11.6,25.9-25.9,25.9c-14.3,0-25.9-11.6-25.9-25.9c0-14.3,11.6-25.9,25.9-25.9
			C562,371.8,573.6,383.4,573.6,397.8z"/>
		<path fill="#F2EFDC" d="M495,352.6c0,14.3-11.6,25.9-25.9,25.9c-14.3,0-25.9-11.6-25.9-25.9c0-14.3,11.6-25.9,25.9-25.9
			C483.4,326.7,495,338.3,495,352.6z"/>
		<path fill="#F2EFDC" d="M349.5,388.6c0,32.3-26.2,58.5-58.5,58.5c-32.3,0-58.5-26.2-58.5-58.5c0-32.3,26.2-58.5,58.5-58.5
			C323.3,330,349.5,356.3,349.5,388.6z"/>
		<path fill="#F2EFDC" d="M563.5,398.6c0,32.3-26.2,58.5-58.5,58.5c-32.3,0-58.5-26.2-58.5-58.5c0-32.3,26.2-58.5,58.5-58.5
			C537.3,340.1,563.5,366.3,563.5,398.6z"/>
		<path fill="#DCDAC8" d="M561.9,415.3c0,29.5-25.1,53.5-56,53.5c-30.9,0-56-24-56-53.5c0-29.6,25.1-53.5,56-53.5
			C536.8,361.8,561.9,385.8,561.9,415.3z"/>
		<path fill="#DCDAC8" d="M491.6,403.6c0,32.3-26.2,58.5-58.5,58.5c-32.3,0-58.5-26.2-58.5-58.5s26.2-58.5,58.5-58.5
			C465.5,345.1,491.6,371.3,491.6,403.6z"/>
		<path fill="#F2EFDC" d="M409.7,380.2c0,32.3-26.2,58.5-58.5,58.5c-32.3,0-58.5-26.2-58.5-58.5c0-32.3,26.2-58.5,58.5-58.5
			C383.5,321.7,409.7,347.9,409.7,380.2z"/>
		<path fill="#DCDAC8" d="M506.7,379.4c0,14.3-11.6,25.9-25.9,25.9c-14.3,0-25.9-11.6-25.9-25.9c0-14.3,11.6-25.9,25.9-25.9
			C495.1,353.5,506.7,365.1,506.7,379.4z"/>
		<path fill="#DCDAC8" d="M426.4,401.1c0,14.3-11.6,25.9-25.9,25.9c-14.3,0-25.9-11.6-25.9-25.9c0-14.3,11.6-25.9,25.9-25.9
			C414.8,375.2,426.4,386.8,426.4,401.1z"/>
		<path fill="#DCDAC8" d="M354.6,401.1c0,14.3-11.6,25.9-25.9,25.9c-14.3,0-25.9-11.6-25.9-25.9c0-14.3,11.6-25.9,25.9-25.9
			C343,375.2,354.6,386.8,354.6,401.1z"/>
		<path fill="#DCDAC8" d="M287.7,391.9c0,5.1-4.1,9.2-9.2,9.2c-5.1,0-9.2-4.1-9.2-9.2c0-5.1,4.1-9.2,9.2-9.2
			C283.6,382.7,287.7,386.8,287.7,391.9z"/>
		<path fill="#DCDAC8" d="M342.9,355.1c0,5.1-4.1,9.2-9.2,9.2c-5.1,0-9.2-4.1-9.2-9.2c0-5.1,4.1-9.2,9.2-9.2
			C338.7,345.9,342.9,350,342.9,355.1z"/>
		<path fill="#DCDAC8" d="M383.8,403.6c0,5.1-4.1,9.2-9.2,9.2c-5.1,0-9.2-4.1-9.2-9.2c0-5.1,4.1-9.2,9.2-9.2
			C379.7,394.4,383.8,398.5,383.8,403.6z"/>
		<path fill="#1E1E1E" d="M450.7,538.2c0,8.3-6.7,15.1-15.1,15.1h-107c-8.3,0-15-6.7-15-15.1l0,0c0-8.3,6.7-15,15-15h107
			C444,523.2,450.7,529.9,450.7,538.2L450.7,538.2z"/>
		<path fill="#333333" d="M189.4,409.5c29.2,78.1,104.4,133.8,192.7,133.8c88.3,0,163.5-55.6,192.7-133.8H189.4z"/>
		<path fill="#1E1E1E" d="M382.2,543.2c88.3,0,163.5-55.6,192.7-133.8H382.2V543.2z"/>
	</g>
</g>
<polygon fill="#F2EFDC" points="720.9,856.9 526.9,854.9 557.2,693.6 722.7,660.8 "/>
<g>
	<path fill="#253A43" d="M621.9,831.8c0,3.1-1.1,4.6-3.4,4.6c-1.7,0-3.4-1.3-5.1-3.8v-0.5c-0.2-3.7-1.4-8.9-3.5-15.4
		c-2.1-6.5-3.4-11-3.9-13.2c-0.5-2.3-1.3-6.6-2.4-12.9c-1.1-6.3-2.1-11.2-2.9-14.5v55.4c0,3-1.5,4.5-4.6,4.5c-1.1,0-2-0.4-2.8-1.1
		c-0.8-0.8-1.2-1.7-1.2-2.8v-1.1l1-82.4v-17.3c0-1.1,0.2-1.9,0.7-2.3c0.5-0.5,1.8-0.7,4-0.7c2.2,0,4.4,0.7,6.7,2.2
		c2.3,1.4,4.1,3.3,5.5,5.6c2.8,4.7,4.3,9.9,4.3,15.6c0,4.6-1.1,9.8-3.4,15.7c-0.3,0.6-0.8,2-1.6,4s-1.3,3.3-1.4,3.6
		c0,3.7,0.7,8.2,1.8,13.7c1.2,5.5,2.3,9.9,3.3,13.2c1,3.4,2.7,8.6,5,15.7c2.4,7.1,3.7,11.2,4,12.2V831.8z M600.4,734.6l-0.8,28.7
		c0,2.9,0,5,0.1,6.4c1.6-1.5,3.1-3.3,4.5-5.4l2.1-12.1c0-4.8-0.6-8.9-1.9-12.2C603.2,736.7,601.8,734.9,600.4,734.6z"/>
	<path fill="#253A43" d="M646.5,827.1l2.9-0.1c3.8,0,5.7,0.8,5.7,2.3c0.4,1.6,0.2,2.7-0.5,3.3c-0.7,0.7-1.7,1-3,1H634
		c-2.7,0-4-1.1-4-3.2c0-2.1,1.4-3.2,4.3-3.2l4.3,0.1c0.5,0,0.7-2.3,0.7-7c0-4.7-0.4-14.2-1.3-28.6c-0.9-14.4-1.3-25.3-1.3-32.5
		l0.3-14.3c0-3-0.1-5.6-0.3-7.8c-1.2,0.4-2.3,0.6-3.3,0.6c-2.2,0-3.3-1.1-3.3-3.4c0-1.1,0.7-2.1,2.1-3c1.4-0.8,3.2-1.5,5.3-1.8
		c3.9-0.7,6.8-1,8.7-1c1.9,0,3.3,0.4,4.1,1.1c0.8,0.8,1.2,1.6,1.2,2.7c0,1-0.3,1.9-0.9,2.7c-0.6,0.8-1.4,1.1-2.4,1.1l-2.5-0.1
		c-0.9,0-1.6,0.2-2,0.6s-0.7,1.2-0.7,2.3c0,9.1,0.6,22.8,1.8,41.1c1.2,18.2,1.8,31.9,1.8,41.1V827.1z"/>
	<path fill="#253A43" d="M663,833.3c0-2.5,1.1-3.8,3.2-3.8c1.1,0,2.4,0.4,4.1,1.1s3.2,1.1,4.5,1.1c1.3,0,2.6-0.8,4.1-2.4
		c1.5-1.6,2.6-3.6,3.4-6c1.7-4.8,2.5-9.2,2.5-13.1c0-3.9-0.7-8.1-2.1-12.6c-1.4-4.5-3.1-8.7-5-12.6c-2-3.9-4-7.9-5.9-11.8
		c-4.7-9.4-7.1-18-7.1-25.7c0-7.3,2.3-13.1,6.9-17.2c2.5-2.2,5.4-3.3,8.7-3.3c1.7,0,3.3,0.5,4.9,1.4c1.6,0.9,2.7,2.2,3.4,3.7v3
		c-3.9,0-6.6-0.5-7.9-1.4c-1.7,0.2-3.2,1-4.5,2.5c-2.3,2.7-3.5,5.9-3.5,9.5c0,3.6,0.5,7.3,1.6,11.1c1.1,3.8,2.3,7.4,3.8,10.8
		c1.5,3.4,2.9,6.5,4.4,9.4s2.8,5.2,3.8,7.1c1.1,1.8,1.6,2.8,1.6,2.9v1.1c0.3,1.2,0.9,3.1,1.6,5.6c0.8,2.6,1.4,4.6,1.9,6.1
		c1.1,4.1,1.7,7.8,1.7,11.2c0,3.3-0.4,6.5-1.2,9.5c-0.8,3-1.9,5.9-3.4,8.5c-1.5,2.7-3.5,4.9-6,6.6s-4.9,2.5-7.1,2.5s-4-0.1-5.6-0.3
		c-1.5-0.2-3-0.7-4.5-1.5C663.8,835.4,663,834.5,663,833.3z"/>
</g>
</svg>
