<?xml version="1.0" encoding="utf-8"?>
<!-- Generator: Adobe Illustrator 18.0.0, SVG Export Plug-In . SVG Version: 6.00 Build 0)  -->
<!DOCTYPE svg PUBLIC "-//W3C//DTD SVG 1.1//EN" "http://www.w3.org/Graphics/SVG/1.1/DTD/svg11.dtd">
<svg version="1.1" id="Lag_1" xmlns="http://www.w3.org/2000/svg" xmlns:xlink="http://www.w3.org/1999/xlink" x="0px" y="0px"
	 viewBox="0 0 800 1050" enable-background="new 0 0 800 1050" xml:space="preserve">
<g>
	<g>
		<path fill="#FBAB18" d="M400,20c209.9,0,380,170.1,380,380S609.9,780,400,780C190.1,780,20,609.9,20,400S190.1,20,400,20z"/>
		<path fill="#E39910" d="M761.3,517.8l-155-155c-24.8-34.8-99.6-47.4-168.9-28.4L393.1,290c-20.6-25.2-44.5-41.5-67.1-42.3
			c-46.6,1.8-98.7,68.4-115.9,146c-12.5,55.2,9.5,119.4,53.6,152l224.1,224.1C617,739.1,720.6,642.7,761.3,517.8z"/>
		<g>
			<path fill="#F2EFDC" d="M538.7,526.6c-56.3,48.2-156.6,48.3-194.3-20.4c-35.4-69.8,21.3-152.6,92.9-171.8
				c71.9-19.7,149.9-5.6,171.7,32.2C627.9,406,595.5,478.4,538.7,526.6z"/>
			<path fill="#DCDAC8" d="M511.6,534.3c-44.1,37.8-122.7,37.8-152.2-15.9c-27.7-54.7,16.7-119.6,72.8-134.7
				c56.3-15.4,117.5-4.4,134.6,25.3C581.6,439.8,556.2,496.5,511.6,534.3z"/>
			<path fill="#F2EFDC" d="M441.9,393.7c17.5,77.2-32.4,171.9-115.9,173.2c-83.5-1.3-133.4-96-115.9-173.2
				c17.2-77.7,69.3-144.2,115.9-146C372.6,249.5,424.7,316,441.9,393.7z"/>
			<path fill="#DCDAC8" d="M434.6,398.9c-16.6-74.3-66.8-138-111.7-139.7c-1.3,0.1-2.7,0.3-4,0.5c20.1,25.4,36.6,59.6,44.9,96.5
				c16.9,73.9-31.2,164.4-111.7,165.7c-4.5-0.1-8.8-0.5-13.1-1.1c20.1,25.7,49,43.2,84,43.7C403.4,563.3,451.5,472.7,434.6,398.9z"
				/>
		</g>
	</g>
	<polygon fill="#F2EFDC" points="711.5,856.9 527.5,856.9 557.8,695.6 713.4,660.8 	"/>
	<g>
		<path fill="#253A43" d="M619.2,829.3l15.4-1.4c1.1,0,2.2,0.3,3.2,0.9c1,0.6,1.5,1.5,1.5,2.5c0,3-5.6,4.5-16.7,4.5h-2.1
			c-0.7,0-1.7,0.3-2.9,1c-1.2,0.7-2.1,1-2.7,1.1l-3-3.1v-0.1c0.8-8.6,1.2-14.3,1.2-17.1l-0.7-26.1c-0.6,0-1.6,0.1-2.9,0.2
			c-1.3,0.1-2.3,0.1-3.1,0.2c-2.3,0.2-4.2,0.6-5.7,1.2l-6.9,26.4c-0.1,0.4-0.3,1.6-0.7,3.7c-0.4,2.1-0.8,3.8-1.1,5.4
			c-0.4,1.5-1,3-1.8,4.3c-0.8,1.4-1.7,2.1-2.6,2.1s-1.6-0.3-2.2-1c-0.5-0.7-0.8-2-0.8-3.9c0-1.9,0.6-5.9,1.8-11.8
			c1.2-5.9,2.9-12.8,5.1-20.8c2.2-8,4.2-14.9,6-21c1.8-6,3.9-13.1,6.5-21.4c2.6-8.3,4-12.8,4.2-13.7c0.3-0.8,0.5-1.7,0.8-2.6
			c0.3-0.9,0.4-1.5,0.5-1.9c0.1-0.3,0.3-0.9,0.6-1.8c0.3-0.8,0.6-1.5,0.8-1.9c0.2-0.4,0.5-0.9,1-1.5c0.4-0.6,0.8-1.1,1.2-1.3
			c1.1-0.8,2.2-1.2,3.2-1.2l10.7-0.7c4,0,6,1.3,6,3.8v3.3c-5.7,0-10.5,0.2-14.6,0.7l1,18.8c0,3.4-0.1,8.6-0.2,15.4
			c-0.1,6.9-0.2,12-0.2,15.4c0.8-0.1,2.4-0.3,4.7-0.7c2.3-0.4,4.1-0.6,5.3-0.6l3.6,3.3c0,3-2.8,4.5-8.4,4.5h-5.3L619.2,829.3z
			 M612.2,786.5c0.3-11.8,0.5-20.9,0.5-27.2c0-6.3,0-10.4-0.1-12.4c-4.8,16.7-8.3,30.3-10.4,40.8
			C606.4,787.5,609.8,787.1,612.2,786.5z"/>
		<path fill="#253A43" d="M675.2,809.5l-5.3,0.5c-3.1,0-4.7-1.3-4.7-4c0-2.3,2.9-3.8,8.7-4.5c1.1-0.1,2.4-0.2,3.8-0.2
			c1.4,0,2.6,0.7,3.6,2.2c1,1.5,1.5,3.4,1.5,5.9c0,2.4,0.5,6.4,1.4,12c0.9,5.5,1.4,9.3,1.4,11.2c0,3.4-1.2,5.1-3.5,5.1
			c-2.3,0-3.9-1-4.7-2.9v-0.1c-0.5,0.3-1.5,0.8-2.9,1.6c-2.8,1.6-5.3,2.3-7.4,2.3s-4.3-0.4-6.4-1.3c-2.1-0.9-4-2-5.5-3.3
			c-1.5-1.3-2.9-3.1-4.1-5.2c-1.2-2.1-2.2-4.3-3-6.4c-0.8-2.1-1.5-4.6-2.1-7.4c-0.6-2.8-1-5.4-1.3-7.6c-0.3-2.2-0.5-4.8-0.7-7.8
			c-0.2-3.7-0.3-8.1-0.3-13.4l-0.1-10.4c0-22,3.1-36.6,9.3-43.7c3.6-4.2,8.3-6.3,14.1-6.3c3.7,0,5.6,1.3,5.6,4c0,1-0.4,1.8-1.1,2.4
			c-0.7,0.6-1.5,0.9-2.5,0.9l-3.8-0.7c-3.4,0-6.1,2.1-8,6.4c-2,4.4-3.3,8.7-3.9,13c-0.6,4.3-1,7.7-1.3,10.3
			c-0.3,2.6-0.5,5.4-0.5,8.6c-0.2,4.4-0.3,8.9-0.3,13.3l-0.1,8.7c0,9.2,0.4,15.6,1.2,19.3c0.8,3.7,1.6,6.6,2.4,8.9
			c0.8,2.2,1.7,4.1,2.8,5.6c2.6,3.3,5.8,5,9.8,5c4,0,7.3-2,10-5.9C677.2,817.1,676.5,811.8,675.2,809.5z"/>
	</g>
	<g>
		<g>
			<path fill="#CD5C5C" d="M502.6,899.6l8.4-10.4c1.1-1.3,1.7-2.6,1.7-4c0-2.1-1.3-3.4-3.4-3.4c-1.9,0-2.9,0.8-3.6,2.5
				c-0.4,1-1.1,1.5-2,1.5c-1.2,0-2-0.7-2-1.9c0-0.2,0-0.4,0.1-0.6c0.6-2.6,3.2-5.3,7.6-5.3c4.7,0,7.6,3.1,7.6,7.1
				c0,2.4-1,4.3-2.6,6.3l-7.4,8.8v0.1h8.2c1.2,0,2,0.8,2,1.9c0,1.1-0.7,1.9-2,1.9h-11.8c-1.2,0-2-0.8-2-1.9
				C501.3,901.4,501.7,900.8,502.6,899.6z"/>
			<path fill="#CD5C5C" d="M525.1,899.1c1.5,0,2.7,1.2,2.7,2.7c0,1.5-1.2,2.7-2.7,2.7c-1.5,0-2.7-1.2-2.7-2.7
				C522.4,900.3,523.6,899.1,525.1,899.1z"/>
			<path fill="#CD5C5C" d="M532.4,891.3c0-6,0.2-7.2,0.5-8.2c1-3.2,3.5-5,7.3-5s6.3,1.8,7.3,5c0.3,1.1,0.5,2.3,0.5,8.2
				s-0.2,7.2-0.5,8.2c-1.1,3.2-3.5,5-7.3,5s-6.3-1.8-7.3-5C532.6,898.5,532.4,897.2,532.4,891.3z M540.2,900.8c1.6,0,2.7-0.7,3.2-2
				c0.3-0.8,0.3-1.7,0.3-7.4s-0.1-6.7-0.3-7.4c-0.5-1.4-1.6-2-3.2-2c-1.6,0-2.6,0.7-3.1,2c-0.3,0.8-0.3,1.7-0.3,7.4s0.1,6.7,0.3,7.4
				C537.5,900.1,538.6,900.8,540.2,900.8z"/>
			<path fill="#CD5C5C" d="M564.3,880.6c0-1.4,0.9-2.3,2.2-2.3s2.2,0.9,2.2,2.3V891l9.7-11.8c0.5-0.6,1.1-0.9,1.8-0.9
				c1.1,0,2,0.8,2,1.9c0,0.6-0.2,1.1-0.5,1.5l-6,7l7.2,12.1c0.3,0.5,0.4,1,0.4,1.4c0,1.2-0.9,2.1-2.2,2.1c-0.9,0-1.6-0.5-2.1-1.3
				l-6.3-10.9l-4,5v4.9c0,1.4-0.9,2.3-2.2,2.3s-2.2-0.9-2.2-2.3V880.6z"/>
			<path fill="#CD5C5C" d="M586.7,891.3c0-3.7,0.2-5.3,0.7-7.1c1.3-4,4.6-6.2,9.1-6.2c4,0,6.9,1.7,8.2,4.1c0.2,0.4,0.4,0.8,0.4,1.3
				c0,1.2-0.9,2-2,2c-0.8,0-1.4-0.3-2-1.1c-1.1-1.6-2.5-2.3-4.6-2.3c-2.6,0-4.1,1.3-4.8,3.4c-0.3,1.1-0.5,2.4-0.5,5.9
				s0.2,4.8,0.5,5.9c0.7,2.1,2.2,3.4,4.8,3.4c2.4,0,4.2-1.2,4.8-3.2c0.3-0.9,0.4-2.2,0.4-3.3c0-0.2-0.1-0.2-0.2-0.2h-2.9
				c-1.2,0-2-0.8-2-1.9c0-1.1,0.8-1.9,2-1.9h5.8c1.1,0,1.8,0.7,1.8,1.8v0.7c0,2.1-0.2,4.2-0.7,5.7c-1.3,4.1-4.6,6.3-9,6.3
				c-4.5,0-7.8-2.1-9.1-6.2C586.8,896.5,586.7,895,586.7,891.3z"/>
			<path fill="#253A43" d="M621.3,891.3c0-3.8,0.2-5.3,0.7-7.1c1.3-4,4.5-6.2,8.9-6.2c3.6,0,6.5,1.7,7.7,4.2
				c0.2,0.4,0.4,0.8,0.4,1.3c0,1.2-0.9,2-2,2c-0.8,0-1.4-0.3-2-1.2c-1-1.5-2.2-2.3-4.1-2.3c-2.5,0-3.9,1.3-4.6,3.4
				c-0.3,1.1-0.5,2.2-0.5,5.9s0.2,4.8,0.5,5.9c0.7,2.1,2.2,3.4,4.6,3.4c1.9,0,3.1-0.8,4.1-2.3c0.6-0.9,1.2-1.2,2-1.2
				c1.1,0,2,0.8,2,2c0,0.5-0.2,0.9-0.4,1.3c-1.3,2.5-4.2,4.2-7.7,4.2c-4.4,0-7.6-2.2-8.9-6.2C621.5,896.6,621.3,895.1,621.3,891.3z"
				/>
			<path fill="#253A43" d="M644,884.2c1.3-4,4.6-6.2,9-6.2c4.5,0,7.7,2.1,9,6.2c0.6,1.9,0.8,3.4,0.8,7.1s-0.2,5.3-0.8,7.1
				c-1.3,4-4.6,6.2-9,6.2c-4.4,0-7.7-2.1-9-6.2c-0.6-1.9-0.8-3.4-0.8-7.1S643.4,886,644,884.2z M657.7,885.4
				c-0.7-2.1-2.2-3.4-4.7-3.4c-2.5,0-4,1.3-4.7,3.4c-0.4,1.1-0.5,2.5-0.5,5.9s0.2,4.8,0.5,5.9c0.7,2.1,2.2,3.4,4.7,3.4
				c2.5,0,4-1.3,4.7-3.4c0.4-1.1,0.5-2.5,0.5-5.9S658.1,886.5,657.7,885.4z"/>
			<path fill="#253A43" d="M668.5,899.6l8.4-10.4c1.1-1.3,1.7-2.6,1.7-4c0-2.1-1.3-3.4-3.4-3.4c-1.9,0-2.9,0.8-3.6,2.5
				c-0.4,1-1.1,1.5-2,1.5c-1.2,0-2-0.7-2-1.9c0-0.2,0-0.4,0.1-0.6c0.6-2.6,3.2-5.3,7.6-5.3c4.7,0,7.6,3.1,7.6,7.1
				c0,2.4-1,4.3-2.6,6.3l-7.4,8.8v0.1h8.2c1.2,0,2,0.8,2,1.9c0,1.1-0.7,1.9-2,1.9h-11.8c-1.2,0-2-0.8-2-1.9
				C667.2,901.4,667.6,900.8,668.5,899.6z"/>
		</g>
	</g>
	<g>
		<path fill="#9E9B8F" d="M606.6,924.8c0.5,0,0.7,0.3,0.7,0.7c0,0.4-0.3,0.7-0.7,0.7h-5c-0.1,0-0.1,0-0.1,0.1v3.4
			c0,0.1,0,0.1,0.1,0.1h4.2c0.5,0,0.7,0.3,0.7,0.7c0,0.4-0.3,0.7-0.7,0.7h-4.2c-0.1,0-0.1,0-0.1,0.1v3.5c0,0.1,0,0.1,0.1,0.1h5
			c0.5,0,0.7,0.3,0.7,0.7c0,0.4-0.3,0.7-0.7,0.7h-5.9c-0.4,0-0.7-0.3-0.7-0.7v-1.9c0-0.1,0-0.1-0.1-0.1h-4.2l-1.3,2.3
			c-0.2,0.3-0.4,0.4-0.7,0.4c-0.4,0-0.7-0.3-0.7-0.7c0-0.1,0-0.3,0.1-0.4l5.7-9.8c0.3-0.5,0.5-0.7,1.1-0.7H606.6z M596.4,932.3h3.4
			c0.1,0,0.1,0,0.1-0.1v-6h-0.1L596.4,932.3z"/>
		<path fill="#9E9B8F" d="M609.4,925.5c0-0.5,0.3-0.8,0.8-0.8c0.4,0,0.7,0.3,0.7,0.8v5.5l4.9-6c0.2-0.2,0.4-0.3,0.6-0.3
			c0.4,0,0.7,0.3,0.7,0.7c0,0.2-0.1,0.4-0.2,0.5l-3,3.5l3.4,5.9c0.1,0.2,0.2,0.3,0.2,0.5c0,0.4-0.3,0.7-0.7,0.7
			c-0.3,0-0.5-0.2-0.7-0.4l-3.1-5.4l-2.1,2.5v2.6c0,0.5-0.3,0.8-0.7,0.8c-0.5,0-0.8-0.3-0.8-0.8V925.5z"/>
		<path fill="#9E9B8F" d="M623.2,933.9L623.2,933.9l2.9-8.6c0.1-0.4,0.4-0.6,0.7-0.6c0.4,0,0.7,0.3,0.7,0.7c0,0.1,0,0.2-0.1,0.4
			l-3.3,9.7c-0.2,0.6-0.5,0.9-0.9,0.9c-0.5,0-0.7-0.3-0.9-0.9l-3.3-9.7c-0.1-0.2-0.1-0.3-0.1-0.4c0-0.4,0.3-0.7,0.7-0.7
			c0.4,0,0.6,0.2,0.7,0.6L623.2,933.9z"/>
		<path fill="#9E9B8F" d="M628.8,934.5c0.5,0,1,0.4,1,1s-0.4,1-1,1c-0.5,0-1-0.4-1-1S628.2,934.5,628.8,934.5z"/>
		<path fill="#9E9B8F" d="M636.3,925.5c0-0.4,0.3-0.7,0.7-0.7h3.6c2.3,0,3.7,1.4,3.7,3.4c0,2.1-1.4,3.4-3.7,3.4h-2.6
			c-0.1,0-0.1,0-0.1,0.1v3.8c0,0.5-0.3,0.8-0.7,0.8c-0.5,0-0.8-0.3-0.8-0.8V925.5z M642.7,928.3c0-1.3-0.8-2-2.3-2h-2.6
			c-0.1,0-0.1,0-0.1,0.1v3.9c0,0.1,0,0.1,0.1,0.1h2.6C641.9,930.3,642.7,929.5,642.7,928.3z"/>
		<path fill="#9E9B8F" d="M646.3,935.6v-10.1c0-0.4,0.3-0.7,0.7-0.7h3.6c2.2,0,3.6,1.3,3.6,3.3c0,1.5-0.8,2.7-2.2,3.1l2.1,4.1
			c0.1,0.1,0.1,0.3,0.1,0.4c0,0.4-0.3,0.7-0.7,0.7c-0.3,0-0.5-0.2-0.7-0.5l-2.3-4.5h-2.6c-0.1,0-0.1,0-0.1,0.1v4.1
			c0,0.5-0.3,0.8-0.7,0.8C646.6,936.4,646.3,936.1,646.3,935.6z M652.7,928.1c0-1.2-0.8-1.9-2.1-1.9h-2.7c-0.1,0-0.1,0-0.1,0.1v3.6
			c0,0.1,0,0.1,0.1,0.1h2.7C651.9,930.1,652.7,929.3,652.7,928.1z"/>
		<path fill="#9E9B8F" d="M657.3,934.5c0.5,0,1,0.4,1,1s-0.4,1-1,1c-0.5,0-1-0.4-1-1S656.8,934.5,657.3,934.5z"/>
		<path fill="#9E9B8F" d="M664.8,925.5c0-0.5,0.3-0.8,0.8-0.8c0.4,0,0.7,0.3,0.7,0.8v5.5l4.9-6c0.2-0.2,0.4-0.3,0.6-0.3
			c0.4,0,0.7,0.3,0.7,0.7c0,0.2-0.1,0.4-0.2,0.5l-3,3.5l3.4,5.9c0.1,0.2,0.2,0.3,0.2,0.5c0,0.4-0.3,0.7-0.7,0.7
			c-0.3,0-0.5-0.2-0.7-0.4l-3.1-5.4l-2.1,2.5v2.6c0,0.5-0.3,0.8-0.7,0.8c-0.5,0-0.8-0.3-0.8-0.8V925.5z"/>
		<path fill="#9E9B8F" d="M674.2,930.6c0-1.6,0.1-2.4,0.3-3.2c0.6-1.8,1.9-2.7,3.9-2.7c1.7,0,3,0.7,3.6,1.9c0.1,0.1,0.1,0.3,0.1,0.5
			c0,0.4-0.3,0.7-0.7,0.7c-0.3,0-0.5-0.1-0.7-0.4c-0.5-0.8-1.3-1.2-2.3-1.2c-1.3,0-2.1,0.7-2.4,1.8c-0.2,0.6-0.3,1.2-0.3,2.8
			c0,1.5,0.1,2.2,0.3,2.8c0.3,1.1,1.1,1.8,2.4,1.8c1.3,0,2.2-0.6,2.5-1.7c0.2-0.5,0.2-1.2,0.2-1.7c0-0.1,0-0.1-0.1-0.1h-1.8
			c-0.5,0-0.7-0.3-0.7-0.7c0-0.4,0.3-0.7,0.7-0.7h2.7c0.4,0,0.7,0.3,0.7,0.7v0.3c0,0.8-0.1,1.8-0.3,2.5c-0.6,1.8-2,2.8-3.9,2.8
			c-2,0-3.3-1-3.9-2.7C674.3,933,674.2,932.2,674.2,930.6z"/>
	</g>
</g>
<g>
	<g>
		<path fill="#FBAB18" d="M1276.1,20c209.9,0,380,170.1,380,380s-170.1,380-380,380c-209.9,0-380-170.1-380-380S1066.2,20,1276.1,20
			z"/>
		<path fill="#E39910" d="M1637.4,517.8l-155-155c-24.8-34.8-99.6-47.4-168.9-28.4l-44.3-44.3c-20.6-25.2-44.5-41.5-67.1-42.3
			c-46.6,1.8-98.7,68.4-115.9,146c-12.5,55.2,9.5,119.4,53.6,152l224.1,224.1C1493,739.1,1596.7,642.7,1637.4,517.8z"/>
		<g>
			<path fill="#F2EFDC" d="M1414.7,526.6c-56.3,48.2-156.6,48.3-194.3-20.4c-35.4-69.8,21.3-152.6,92.9-171.8
				c71.9-19.7,149.9-5.6,171.7,32.2C1504,406,1471.6,478.4,1414.7,526.6z"/>
			<path fill="#DCDAC8" d="M1387.7,534.3c-44.1,37.8-122.7,37.8-152.2-15.9c-27.7-54.7,16.7-119.6,72.8-134.7
				c56.3-15.4,117.5-4.4,134.6,25.3C1457.6,439.8,1432.3,496.5,1387.7,534.3z"/>
			<path fill="#F2EFDC" d="M1318,393.7c17.5,77.2-32.4,171.9-115.9,173.2c-83.5-1.3-133.4-96-115.9-173.2
				c17.2-77.7,69.3-144.2,115.9-146C1248.7,249.5,1300.8,316,1318,393.7z"/>
			<path fill="#DCDAC8" d="M1310.7,398.9c-16.6-74.3-66.8-138-111.7-139.7c-1.3,0.1-2.7,0.3-4,0.5c20.1,25.4,36.6,59.6,44.9,96.5
				c16.9,73.9-31.2,164.4-111.7,165.7c-4.5-0.1-8.8-0.5-13.1-1.1c20.1,25.7,49,43.2,84,43.7C1279.5,563.3,1327.6,472.7,1310.7,398.9
				z"/>
		</g>
	</g>
	<polygon fill="#F2EFDC" points="1587.6,856.9 1403.6,856.9 1433.9,695.6 1589.4,660.8 	"/>
	<text transform="matrix(1 0 0 1 1451.2533 834.9536)" fill="#253A43" font-family="'AmaticSC-Bold'" font-size="140.4844">æg</text>
	<g>
		<text transform="matrix(1 0 0 1 1373.3994 904.1283)"><tspan x="0" y="0" fill="#CD5C5C" font-family="'DINNextRoundedLTPro-Medium'" font-size="37.7985">2.0 kg</tspan><tspan x="112.2" y="0" fill="#253A43" font-family="'DINNextRoundedLTPro-Medium'" font-size="37.7985"> CO2</tspan></text>
	</g>
	
		<text transform="matrix(1 0 0 1 1467.7042 936.3455)" fill="#9E9B8F" font-family="'DINNextRoundedLTPro-Regular'" font-size="16.95">ækv. pr. kg</text>
</g>
</svg>
