<?xml version="1.0" encoding="utf-8"?>
<!-- Generator: Adobe Illustrator 18.0.0, SVG Export Plug-In . SVG Version: 6.00 Build 0)  -->
<!DOCTYPE svg PUBLIC "-//W3C//DTD SVG 1.1//EN" "http://www.w3.org/Graphics/SVG/1.1/DTD/svg11.dtd">
<svg version="1.1" id="Lag_1" xmlns="http://www.w3.org/2000/svg" xmlns:xlink="http://www.w3.org/1999/xlink" x="0px" y="0px"
	 viewBox="0 0 800 1050" enable-background="new 0 0 800 1050" xml:space="preserve">
<g>
	<path fill="#253A43" d="M400,20c209.9,0,380,170.1,380,380S609.9,780,400,780C190.1,780,20,609.9,20,400S190.1,20,400,20z"/>
	<g>
		<text transform="matrix(1 0 0 1 515.0557 904.1283)"><tspan x="0" y="0" fill="#CD5C5C" font-family="'DINNextRoundedLTPro-Medium'" font-size="37.7985">19 kg</tspan><tspan x="101.9" y="0" fill="#253A43" font-family="'DINNextRoundedLTPro-Medium'" font-size="37.7985"> CO2</tspan></text>
	</g>
	
		<text transform="matrix(1 0 0 1 601.0099 936.3455)" fill="#9E9B8F" font-family="'DINNextRoundedLTPro-Regular'" font-size="16.95">ækv. pr. kg</text>
	<g>
		<defs>
			<path id="SVGID_1_" d="M400,20c209.9,0,380,170.1,380,380S609.9,780,400,780C190.1,780,20,609.9,20,400S190.1,20,400,20z"/>
		</defs>
		<clipPath id="SVGID_2_">
			<use xlink:href="#SVGID_1_"  overflow="visible"/>
		</clipPath>
		<path clip-path="url(#SVGID_2_)" fill="#213238" d="M793.3,520L571.1,297.8c-47.3-18.8-65.7,11.7-131.3,29.6l-42-42
			c-19.5-23.9-35.6,13.6-57,12.8c-44.1,1.7-103.3-6.4-145.7,55.8c-28.4,41.6,1.1,91.4,1.1,91.4l335.1,335.1
			C653.6,751.6,754.8,638.2,793.3,520z"/>
	</g>
	<g>
		<path fill="#C24753" d="M586.1,470.2c-0.6,1.6-1.3,3.2-2,5c0,0.1,0,0.1-0.1,0.2c-7,18.1-18.1,46.4-34.1,70.3
			c-17.7,8-40.5,13.1-57.7,3.1c-35.9-16.5-48.4-60-81.4-80.3c-27.4-16.8-69.8-15.6-101.2-24.8c-29.6-9.1-105.2-51.3-99.2-89.2
			l0.1-0.1c37.2-66.7,179.5-101.9,243.7-93.7c54,6.8,105.5,46.5,132.1,86.5C611.4,385,600.7,431,586.1,470.2z"/>
		<path fill="#F6F9DA" d="M592.1,319.8c-34.7-42.7-95.5-69.9-154.1-72.8c-92.5-4.5-257.1,57-257.2,152.8c0,41.4,33.5,70,75.6,81.4
			c29.8,8,60.2,13.2,88.6,24.8c31.5,13.1,46.7,41.8,66.3,65.3c28,33.5,72.1,30.9,111.4,15.1C573,566.4,591.4,509,608,467.2
			C627.6,414.2,630,366.4,592.1,319.8z M586.1,470.2c-0.6,1.6-1.3,3.2-2,5c0,0.1,0,0.1-0.1,0.2c-7,18.1-18.1,46.4-34.1,70.3
			c-17.7,8-40.5,13.1-57.7,3.1c-35.9-16.5-48.4-60-81.4-80.3c-27.4-16.8-69.8-15.6-101.2-24.8c-29.6-9.1-105.2-51.3-99.2-89.2
			l0.1-0.1c37.2-66.7,179.5-101.9,243.7-93.7c54,6.8,105.5,46.5,132.1,86.5C611.4,385,600.7,431,586.1,470.2z"/>
		<path fill="#EFEFDB" d="M497.6,355.4c-9.4,40.2-106,24.4-120.1-6c-12-26.4,19.7-37.4,46.1-40.4C455.1,306,504.3,324.3,497.6,355.4
			z"/>
		<path opacity="0.36" fill="#999999" d="M518.1,588.4c-38,14.1-79.9,15.3-106.8-17c-19.5-23.5-34.8-52.2-66.3-65.3
			c-28.4-11.6-58.9-16.8-88.6-24.8c-42.1-11.4-75.7-40.1-75.6-81.4c0-9.8,1.8-19.3,5-28.3c0.5,30.9,25.7,60.8,57.8,74.8
			c34.4,14.9,71.3,21.4,104.6,34.7c13.4,4.6,29.6,10,41.1,16.4c11.5,7.2,19.3,19.5,27.2,30.1c11.8,18,28.7,50,52.4,56.1
			C480.4,586.5,499.2,588.6,518.1,588.4z"/>
		<path fill="#F7BFB7" d="M465.3,354.7c-7.4,5.7-25.9,2-35-0.3c-6.6-1.5-27.7-7.4-28.5-17.2c-0.2-3.2,6.2-9.7,10.3-10.6
			c5.6-1.9,17.4-2.2,23.1-1.5c10.8-0.7,26.2,5.6,32.1,14.1C470.7,343.8,469.8,350.5,465.3,354.7z"/>
	</g>
	<polygon fill="#F2EFDC" points="720.9,856.9 536.9,856.9 567.2,695.6 722.7,660.8 	"/>
	<text transform="matrix(1 0 0 1 584.1469 834.9536)" fill="#253A43" font-family="'AmaticSC-Bold'" font-size="140.4844">bøf</text>
</g>
</svg>
