<?xml version="1.0" encoding="utf-8"?>
<!-- Generator: Adobe Illustrator 18.0.0, SVG Export Plug-In . SVG Version: 6.00 Build 0)  -->
<!DOCTYPE svg PUBLIC "-//W3C//DTD SVG 1.1//EN" "http://www.w3.org/Graphics/SVG/1.1/DTD/svg11.dtd">
<svg version="1.1" id="Lag_1" xmlns="http://www.w3.org/2000/svg" xmlns:xlink="http://www.w3.org/1999/xlink" x="0px" y="0px"
	 viewBox="0 0 800 1050" enable-background="new 0 0 800 1050" xml:space="preserve">
<g>
	<g>
		<path fill="#CD5C5C" d="M510.4,891.3c0-6,0.2-7.2,0.5-8.2c1-3.2,3.5-5,7.3-5s6.3,1.8,7.3,5c0.3,1.1,0.5,2.3,0.5,8.2
			s-0.2,7.2-0.5,8.2c-1.1,3.2-3.5,5-7.3,5s-6.3-1.8-7.3-5C510.6,898.5,510.4,897.2,510.4,891.3z M518.2,900.8c1.6,0,2.7-0.7,3.2-2
			c0.3-0.8,0.3-1.7,0.3-7.4s-0.1-6.7-0.3-7.4c-0.5-1.4-1.6-2-3.2-2c-1.6,0-2.6,0.7-3.1,2c-0.3,0.8-0.3,1.7-0.3,7.4s0.1,6.7,0.3,7.4
			C515.5,900.1,516.6,900.8,518.2,900.8z"/>
		<path fill="#CD5C5C" d="M533.4,899.1c1.5,0,2.7,1.2,2.7,2.7c0,1.5-1.2,2.7-2.7,2.7c-1.5,0-2.7-1.2-2.7-2.7
			C530.7,900.3,531.9,899.1,533.4,899.1z"/>
		<path fill="#CD5C5C" d="M542.6,899.6l8.4-10.4c1.1-1.3,1.7-2.6,1.7-4c0-2.1-1.3-3.4-3.4-3.4c-1.9,0-2.9,0.8-3.6,2.5
			c-0.4,1-1.1,1.5-2,1.5c-1.2,0-2-0.7-2-1.9c0-0.2,0-0.4,0.1-0.6c0.6-2.6,3.2-5.3,7.6-5.3c4.7,0,7.6,3.1,7.6,7.1
			c0,2.4-1,4.3-2.6,6.3l-7.4,8.8v0.1h8.2c1.2,0,2,0.8,2,1.9c0,1.1-0.7,1.9-2,1.9h-11.8c-1.2,0-2-0.8-2-1.9
			C541.3,901.4,541.6,900.8,542.6,899.6z"/>
		<path fill="#CD5C5C" d="M573.4,880.6c0-1.4,0.9-2.3,2.2-2.3s2.2,0.9,2.2,2.3V891l9.7-11.8c0.5-0.6,1.1-0.9,1.8-0.9
			c1.1,0,2,0.8,2,1.9c0,0.6-0.2,1.1-0.5,1.5l-6,7l7.2,12.1c0.3,0.5,0.4,1,0.4,1.4c0,1.2-0.9,2.1-2.2,2.1c-0.9,0-1.6-0.5-2.1-1.3
			l-6.3-10.9l-4,5v4.9c0,1.4-0.9,2.3-2.2,2.3s-2.2-0.9-2.2-2.3V880.6z"/>
		<path fill="#CD5C5C" d="M595.8,891.3c0-3.7,0.2-5.3,0.7-7.1c1.3-4,4.6-6.2,9.1-6.2c4,0,6.9,1.7,8.2,4.1c0.2,0.4,0.4,0.8,0.4,1.3
			c0,1.2-0.9,2-2,2c-0.8,0-1.4-0.3-2-1.1c-1.1-1.6-2.5-2.3-4.6-2.3c-2.6,0-4.1,1.3-4.8,3.4c-0.3,1.1-0.5,2.4-0.5,5.9
			s0.2,4.8,0.5,5.9c0.7,2.1,2.2,3.4,4.8,3.4c2.4,0,4.2-1.2,4.8-3.2c0.3-0.9,0.4-2.2,0.4-3.3c0-0.2-0.1-0.2-0.2-0.2h-2.9
			c-1.2,0-2-0.8-2-1.9c0-1.1,0.8-1.9,2-1.9h5.8c1.1,0,1.8,0.7,1.8,1.8v0.7c0,2.1-0.2,4.2-0.7,5.7c-1.3,4.1-4.6,6.3-9,6.3
			c-4.5,0-7.8-2.1-9.1-6.2C595.9,896.5,595.8,895,595.8,891.3z"/>
		<path fill="#253A43" d="M630.4,891.3c0-3.8,0.2-5.3,0.7-7.1c1.3-4,4.5-6.2,8.9-6.2c3.6,0,6.5,1.7,7.7,4.2c0.2,0.4,0.4,0.8,0.4,1.3
			c0,1.2-0.9,2-2,2c-0.8,0-1.4-0.3-2-1.2c-1-1.5-2.2-2.3-4.1-2.3c-2.5,0-3.9,1.3-4.6,3.4c-0.3,1.1-0.5,2.2-0.5,5.9s0.2,4.8,0.5,5.9
			c0.7,2.1,2.2,3.4,4.6,3.4c1.9,0,3.1-0.8,4.1-2.3c0.6-0.9,1.2-1.2,2-1.2c1.1,0,2,0.8,2,2c0,0.5-0.2,0.9-0.4,1.3
			c-1.3,2.5-4.2,4.2-7.7,4.2c-4.4,0-7.6-2.2-8.9-6.2C630.6,896.6,630.4,895.1,630.4,891.3z"/>
		<path fill="#253A43" d="M653.1,884.2c1.3-4,4.6-6.2,9-6.2c4.5,0,7.7,2.1,9,6.2c0.6,1.9,0.8,3.4,0.8,7.1s-0.2,5.3-0.8,7.1
			c-1.3,4-4.6,6.2-9,6.2c-4.4,0-7.7-2.1-9-6.2c-0.6-1.9-0.8-3.4-0.8-7.1S652.5,886,653.1,884.2z M666.8,885.4
			c-0.7-2.1-2.2-3.4-4.7-3.4c-2.5,0-4,1.3-4.7,3.4c-0.4,1.1-0.5,2.5-0.5,5.9s0.2,4.8,0.5,5.9c0.7,2.1,2.2,3.4,4.7,3.4
			c2.5,0,4-1.3,4.7-3.4c0.4-1.1,0.5-2.5,0.5-5.9S667.2,886.5,666.8,885.4z"/>
		<path fill="#253A43" d="M677.6,899.6l8.4-10.4c1.1-1.3,1.7-2.6,1.7-4c0-2.1-1.3-3.4-3.4-3.4c-1.9,0-2.9,0.8-3.6,2.5
			c-0.4,1-1.1,1.5-2,1.5c-1.2,0-2-0.7-2-1.9c0-0.2,0-0.4,0.1-0.6c0.6-2.6,3.2-5.3,7.6-5.3c4.7,0,7.6,3.1,7.6,7.1
			c0,2.4-1,4.3-2.6,6.3l-7.4,8.8v0.1h8.2c1.2,0,2,0.8,2,1.9c0,1.1-0.7,1.9-2,1.9h-11.8c-1.2,0-2-0.8-2-1.9
			C676.3,901.4,676.6,900.8,677.6,899.6z"/>
	</g>
</g>
<g>
	<path fill="#9E9B8F" d="M616,924.8c0.5,0,0.7,0.3,0.7,0.7c0,0.4-0.3,0.7-0.7,0.7h-5c-0.1,0-0.1,0-0.1,0.1v3.4c0,0.1,0,0.1,0.1,0.1
		h4.2c0.5,0,0.7,0.3,0.7,0.7c0,0.4-0.3,0.7-0.7,0.7H611c-0.1,0-0.1,0-0.1,0.1v3.5c0,0.1,0,0.1,0.1,0.1h5c0.5,0,0.7,0.3,0.7,0.7
		c0,0.4-0.3,0.7-0.7,0.7h-5.9c-0.4,0-0.7-0.3-0.7-0.7v-1.9c0-0.1,0-0.1-0.1-0.1H605l-1.3,2.3c-0.2,0.3-0.4,0.4-0.7,0.4
		c-0.4,0-0.7-0.3-0.7-0.7c0-0.1,0-0.3,0.1-0.4l5.7-9.8c0.3-0.5,0.5-0.7,1.1-0.7H616z M605.8,932.3h3.4c0.1,0,0.1,0,0.1-0.1v-6h-0.1
		L605.8,932.3z"/>
	<path fill="#9E9B8F" d="M618.8,925.5c0-0.5,0.3-0.8,0.8-0.8c0.4,0,0.7,0.3,0.7,0.8v5.5l4.9-6c0.2-0.2,0.4-0.3,0.6-0.3
		c0.4,0,0.7,0.3,0.7,0.7c0,0.2-0.1,0.4-0.2,0.5l-3,3.5l3.4,5.9c0.1,0.2,0.2,0.3,0.2,0.5c0,0.4-0.3,0.7-0.7,0.7
		c-0.3,0-0.5-0.2-0.7-0.4l-3.1-5.4l-2.1,2.5v2.6c0,0.5-0.3,0.8-0.7,0.8c-0.5,0-0.8-0.3-0.8-0.8V925.5z"/>
	<path fill="#9E9B8F" d="M632.6,933.9L632.6,933.9l2.9-8.6c0.1-0.4,0.4-0.6,0.7-0.6c0.4,0,0.7,0.3,0.7,0.7c0,0.1,0,0.2-0.1,0.4
		l-3.3,9.7c-0.2,0.6-0.5,0.9-0.9,0.9c-0.5,0-0.7-0.3-0.9-0.9l-3.3-9.7c-0.1-0.2-0.1-0.3-0.1-0.4c0-0.4,0.3-0.7,0.7-0.7
		c0.4,0,0.6,0.2,0.7,0.6L632.6,933.9z"/>
	<path fill="#9E9B8F" d="M638.2,934.5c0.5,0,1,0.4,1,1s-0.4,1-1,1c-0.5,0-1-0.4-1-1S637.6,934.5,638.2,934.5z"/>
	<path fill="#9E9B8F" d="M645.7,925.5c0-0.4,0.3-0.7,0.7-0.7h3.6c2.3,0,3.7,1.4,3.7,3.4c0,2.1-1.4,3.4-3.7,3.4h-2.6
		c-0.1,0-0.1,0-0.1,0.1v3.8c0,0.5-0.3,0.8-0.7,0.8c-0.5,0-0.8-0.3-0.8-0.8V925.5z M652.1,928.3c0-1.3-0.8-2-2.3-2h-2.6
		c-0.1,0-0.1,0-0.1,0.1v3.9c0,0.1,0,0.1,0.1,0.1h2.6C651.3,930.3,652.1,929.5,652.1,928.3z"/>
	<path fill="#9E9B8F" d="M655.6,935.6v-10.1c0-0.4,0.3-0.7,0.7-0.7h3.6c2.2,0,3.6,1.3,3.6,3.3c0,1.5-0.8,2.7-2.2,3.1l2.1,4.1
		c0.1,0.1,0.1,0.3,0.1,0.4c0,0.4-0.3,0.7-0.7,0.7c-0.3,0-0.5-0.2-0.7-0.5l-2.3-4.5h-2.6c-0.1,0-0.1,0-0.1,0.1v4.1
		c0,0.5-0.3,0.8-0.7,0.8C656,936.4,655.6,936.1,655.6,935.6z M662.1,928.1c0-1.2-0.8-1.9-2.1-1.9h-2.7c-0.1,0-0.1,0-0.1,0.1v3.6
		c0,0.1,0,0.1,0.1,0.1h2.7C661.3,930.1,662.1,929.3,662.1,928.1z"/>
	<path fill="#9E9B8F" d="M666.7,934.5c0.5,0,1,0.4,1,1s-0.4,1-1,1c-0.5,0-1-0.4-1-1S666.2,934.5,666.7,934.5z"/>
	<path fill="#9E9B8F" d="M674.2,925.5c0-0.5,0.3-0.8,0.8-0.8c0.4,0,0.7,0.3,0.7,0.8v5.5l4.9-6c0.2-0.2,0.4-0.3,0.6-0.3
		c0.4,0,0.7,0.3,0.7,0.7c0,0.2-0.1,0.4-0.2,0.5l-3,3.5l3.4,5.9c0.1,0.2,0.2,0.3,0.2,0.5c0,0.4-0.3,0.7-0.7,0.7
		c-0.3,0-0.5-0.2-0.7-0.4l-3.1-5.4l-2.1,2.5v2.6c0,0.5-0.3,0.8-0.7,0.8c-0.5,0-0.8-0.3-0.8-0.8V925.5z"/>
	<path fill="#9E9B8F" d="M683.6,930.6c0-1.6,0.1-2.4,0.3-3.2c0.6-1.8,1.9-2.7,3.9-2.7c1.7,0,3,0.7,3.6,1.9c0.1,0.1,0.1,0.3,0.1,0.5
		c0,0.4-0.3,0.7-0.7,0.7c-0.3,0-0.5-0.1-0.7-0.4c-0.5-0.8-1.3-1.2-2.3-1.2c-1.3,0-2.1,0.7-2.4,1.8c-0.2,0.6-0.3,1.2-0.3,2.8
		c0,1.5,0.1,2.2,0.3,2.8c0.3,1.1,1.1,1.8,2.4,1.8c1.3,0,2.2-0.6,2.5-1.7c0.2-0.5,0.2-1.2,0.2-1.7c0-0.1,0-0.1-0.1-0.1h-1.8
		c-0.5,0-0.7-0.3-0.7-0.7c0-0.4,0.3-0.7,0.7-0.7h2.7c0.4,0,0.7,0.3,0.7,0.7v0.3c0,0.8-0.1,1.8-0.3,2.5c-0.6,1.8-2,2.8-3.9,2.8
		c-2,0-3.3-1-3.9-2.7C683.7,933,683.6,932.2,683.6,930.6z"/>
</g>
<g>
	<path fill="#405933" d="M400,780C190.1,780,20,609.9,20,400C20,190.1,190.1,20,400,20s380,170.1,380,380
		C780,609.9,609.9,780,400,780z"/>
	<path fill="#2D4124" d="M483.1,770.8C616.5,741,723.4,641.3,763.2,512L452.8,201.6c-1.1-1.5-2.4-2.8-3.9-3.9L416.2,165
		c-2.3-5.8-7.9-9.8-14.5-9.8c-3.3,0-6.4,1-8.9,2.8c-2.6-1.1-5.4-1.7-8.4-1.7c-4.3,0-8.3,1.3-11.7,3.5c0-0.1,0-0.1,0-0.1
		c0-8.6-7-15.6-15.6-15.6c-8.6,0-15.6,7-15.6,15.6c0,1.9,0.4,3.8,1,5.5c-5.1,4.8-8.3,11.5-8.3,19c0,0,0,0,0,0.1
		c-4.2,0.1-8,1.9-10.7,4.8c-3.4-2.4-7.8-3.5-12.2-2.5c-7.8,1.7-13,9-12.2,16.8c-9.6,4.2-15.8,13.7-15.7,24.2
		c-7.8,2.3-12.6,10.1-10.9,18.1c1.4,6.4,6.4,11,12.4,12.1c-0.1,2,0.1,4,0.5,6.1c3,14.1,16.9,23.2,31.1,20.2c4.6-1,8.6-3.2,11.9-6.1
		c3.9,15.8,8.3,31.5,13.1,47.1c-15.5,11.9-23.5,31.8-19.6,54.3l45.6,257.8c2.6,14.6,5.8,23.2,9.2,26l-0.8,0.8L483.1,770.8z"/>
	<g>
		<g>
			<path fill="#71841F" d="M384.7,327.5c-2.1,15-6.5,15-8.6,0c-5.1-35.4-7.8-71.5-8.2-107.2c0.1-15.1,5.8-24.2,12.2-24.2
				c0.2,0,0.5,0,0.7,0c6.4-0.1,12.1,9.1,12.2,24.2C392.5,256,389.8,292.1,384.7,327.5z"/>
			<path fill="#71841F" d="M350.4,199.7c0,8.6-7,15.6-15.6,15.6c-8.6,0-15.6-7-15.6-15.6c0-8.6,7-15.6,15.6-15.6
				C343.5,184.1,350.4,191.1,350.4,199.7z"/>
			<path fill="#71841F" d="M372.7,159.6c0,8.6-7,15.6-15.6,15.6c-8.6,0-15.6-7-15.6-15.6c0-8.6,7-15.6,15.6-15.6
				C365.8,144,372.7,151,372.7,159.6z"/>
			<path fill="#71841F" d="M417.3,170.7c0,8.6-7,15.6-15.6,15.6c-8.6,0-15.6-7-15.6-15.6c0-8.6,7-15.6,15.6-15.6
				C410.3,155.1,417.3,162.1,417.3,170.7z"/>
			<circle fill="#71841F" cx="384.4" cy="178" r="21.7"/>
			<path fill="#71841F" d="M381.6,214.8c0,14.5-11.7,26.2-26.2,26.2c-14.5,0-26.2-11.7-26.2-26.2s11.7-26.2,26.2-26.2
				C369.9,188.6,381.6,200.3,381.6,214.8z"/>
			<path fill="#71841F" d="M386.7,184.1c0,14.5-11.7,26.2-26.2,26.2c-14.5,0-26.2-11.7-26.2-26.2c0-14.5,11.7-26.2,26.2-26.2
				C374.9,157.9,386.7,169.7,386.7,184.1z"/>
			<path fill="#71841F" d="M417.9,206.4c0,14.5-11.7,26.2-26.2,26.2c-14.5,0-26.2-11.7-26.2-26.2c0-14.5,11.7-26.2,26.2-26.2
				C406.2,180.2,417.9,192,417.9,206.4z"/>
		</g>
		<g>
			<path fill="#879C29" d="M363.4,362.3c1.1,15.1-3.3,16-8.5,1.8c-12.3-33.5-22.5-68.3-30.4-103.1c-3.1-14.8,0.6-24.9,6.9-26.2
				c0.2-0.1,0.5-0.1,0.7-0.1c6.3-1.4,13.8,6.3,17,21.1C356.1,290.8,360.9,326.7,363.4,362.3z"/>
			<path fill="#879C29" d="M303.1,239c1.8,8.4-3.6,16.7-12,18.5c-8.4,1.8-16.7-3.6-18.5-12c-1.8-8.4,3.6-16.7,12-18.5
				C293.1,225.2,301.3,230.6,303.1,239z"/>
			<path fill="#879C29" d="M329.9,198.4c1.8,8.4-3.6,16.7-12,18.5c-8.4,1.8-16.7-3.6-18.5-12c-1.8-8.4,3.6-16.7,12-18.5
				C319.9,184.6,328.1,190,329.9,198.4z"/>
			<path fill="#879C29" d="M362.5,202.2c1.8,8.4-3.6,16.7-12,18.5c-8.4,1.8-16.7-3.6-18.5-12c-1.8-8.4,3.6-16.7,12-18.5
				C352.4,188.5,360.7,193.8,362.5,202.2z"/>
			<path fill="#879C29" d="M353.1,211.7c2.5,11.7-5,23.3-16.7,25.8c-11.7,2.5-23.3-5-25.8-16.7c-2.5-11.7,5-23.3,16.7-25.8
				C339.1,192.4,350.6,199.9,353.1,211.7z"/>
			<path fill="#879C29" d="M336.8,252.7c3,14.1-6,28.1-20.2,31.1c-14.1,3-28.1-6-31.1-20.2c-3-14.1,6-28.1,20.1-31.1
				C319.9,229.6,333.8,238.6,336.8,252.7z"/>
			<path fill="#879C29" d="M335.3,221.7c3,14.1-6,28.1-20.1,31.1c-14.1,3-28.1-6-31.1-20.2c-3-14.1,6-28.1,20.2-31.1
				C318.4,198.6,332.3,207.6,335.3,221.7z"/>
			<path fill="#879C29" d="M370.5,237c3,14.1-6,28.1-20.2,31.1c-14.1,3-28.1-6-31.1-20.2c-3-14.1,6-28.1,20.1-31.1
				C353.6,213.9,367.5,222.9,370.5,237z"/>
		</g>
		<g>
			<path fill="#879C29" d="M391.5,371.2c-1.1,15.1,3.3,16,8.5,1.8c12.3-33.5,22.5-68.3,30.4-103.1c3.1-14.8-0.6-24.9-6.9-26.2
				c-0.2-0.1-0.5-0.1-0.7-0.2c-6.3-1.4-13.8,6.3-17,21.1C398.7,299.7,393.9,335.6,391.5,371.2z"/>
			<path fill="#879C29" d="M451.7,247.9c-1.8,8.4,3.6,16.7,12,18.5c8.4,1.8,16.7-3.6,18.5-12c1.8-8.4-3.6-16.7-12-18.5
				C461.8,234.1,453.5,239.5,451.7,247.9z"/>
			<path fill="#879C29" d="M424.9,207.3c-1.8,8.4,3.6,16.7,12,18.5c8.4,1.8,16.7-3.6,18.5-12c1.8-8.4-3.6-16.7-12-18.5
				C435,193.5,426.7,198.9,424.9,207.3z"/>
			<path fill="#879C29" d="M392.3,211.2c-1.8,8.4,3.6,16.7,12,18.5c8.4,1.8,16.7-3.6,18.5-12c1.8-8.4-3.6-16.7-12-18.5
				C402.4,197.4,394.1,202.7,392.3,211.2z"/>
			<path fill="#879C29" d="M401.7,220.6c-2.5,11.7,5,23.3,16.7,25.8c11.7,2.5,23.3-5,25.8-16.7c2.5-11.7-5-23.3-16.7-25.8
				C415.8,201.4,404.2,208.8,401.7,220.6z"/>
			<path fill="#879C29" d="M418,261.7c-3,14.1,6,28.1,20.1,31.1c14.2,3,28.1-6,31.1-20.2c3-14.1-6-28.1-20.1-31.1
				C434.9,238.5,421,247.5,418,261.7z"/>
			<path fill="#879C29" d="M419.5,230.6c-3,14.1,6,28.1,20.2,31.1c14.1,3,28.1-6,31.1-20.2c3-14.1-6-28.1-20.1-31.1
				C436.4,207.5,422.5,216.5,419.5,230.6z"/>
			<path fill="#879C29" d="M384.3,245.9c-3,14.1,6,28.1,20.2,31.1c14.1,3,28.1-6,31.1-20.1c3-14.1-6-28.1-20.1-31.1
				C401.3,222.8,387.3,231.8,384.3,245.9z"/>
		</g>
		<g>
			<path fill="#FBAB18" d="M390.9,636.8c-6.4,36.2-16.9,36.2-23.3,0L322.1,379c-6.4-36.2,18.5-65.9,55.2-65.9h3.9
				c36.8,0,61.6,29.6,55.2,65.9L390.9,636.8z"/>
			<path fill="#E39910" d="M381.3,313.2h-2.1v350.8c4.3,0.2,8.5-8.9,11.7-27.1L436.5,379C442.9,342.8,418.1,313.2,381.3,313.2z"/>
			<g>
				<defs>
					<path id="SVGID_1_" d="M390.9,636.8c-6.4,36.2-16.9,36.2-23.3,0L322.1,379c-6.4-36.2,18.5-65.9,55.2-65.9h3.9
						c36.8,0,61.6,29.6,55.2,65.9L390.9,636.8z"/>
				</defs>
				<clipPath id="SVGID_2_">
					<use xlink:href="#SVGID_1_"  overflow="visible"/>
				</clipPath>
				<g clip-path="url(#SVGID_2_)">
					<path fill="#FBAB18" d="M428.4,382.7c-36.2-1.9-36.2-4.9,0-6.8l257.8-13.3c36.2-1.9,65.9,5.4,65.9,16.1v1.1
						c0,10.7-29.6,18-65.9,16.1L428.4,382.7z"/>
					<path fill="#FBAB18" d="M417.2,495.3c-36.2-1.9-36.2-4.9,0-6.8L675,475.3c36.2-1.9,65.9,5.4,65.9,16.1v1.1
						c0,10.7-29.6,18-65.9,16.1L417.2,495.3z"/>
					<path fill="#FBAB18" d="M412.8,556.6c-36.2-1.9-36.2-4.9,0-6.8l257.8-13.3c36.2-1.9,65.9,5.4,65.9,16.1v1.1
						c0,10.7-29.6,18-65.9,16.1L412.8,556.6z"/>
					<path fill="#E39910" d="M358.1,430.7c36.2-1.9,36.2-4.9,0-6.8l-257.8-13.3c-36.2-1.9-65.9,5.4-65.9,16.1v1.1
						c0,10.7,29.6,18,65.9,16.1L358.1,430.7z"/>
					<path fill="#E39910" d="M343.6,477.5c36.2-1.9,36.2-4.9,0-6.8L85.9,457.4c-36.2-1.9-65.9,5.4-65.9,16.1v1.1
						c0,10.7,29.6,18,65.9,16.1L343.6,477.5z"/>
					<path fill="#E39910" d="M353.7,615.7c36.2-1.9,36.2-4.9,0-6.8L95.9,595.6C59.7,593.8,30,601,30,611.7v1.1
						c0,10.7,29.6,18,65.9,16.1L353.7,615.7z"/>
					<g>
						<path fill="#E39910" d="M395,398.1c3.5-0.4,3.5-1.2,0-1.6l-24.7-3.1c-3.5-0.4-6.3,1.3-6.3,3.8v0.3c0,2.5,2.8,4.2,6.3,3.8
							L395,398.1z"/>
						<path fill="#E39910" d="M342.7,398.1c-3.5-0.4-3.5-1.2,0-1.6l24.7-3.1c3.5-0.4,6.3,1.3,6.3,3.8v0.3c0,2.5-2.8,4.2-6.3,3.8
							L342.7,398.1z"/>
					</g>
					<g>
						<path fill="#E39910" d="M424,451.6c3.5-0.4,3.5-1.2,0-1.6l-24.7-3.1c-3.5-0.4-6.3,1.3-6.3,3.8v0.3c0,2.5,2.8,4.2,6.3,3.8
							L424,451.6z"/>
						<path fill="#E39910" d="M371.7,451.6c-3.5-0.4-3.5-1.2,0-1.6l24.7-3.1c3.5-0.4,6.3,1.3,6.3,3.8v0.3c0,2.5-2.8,4.2-6.3,3.8
							L371.7,451.6z"/>
					</g>
					<g>
						<path fill="#FBAB18" d="M424.3,451.6c3.1-0.4,3.1-1.2,0-1.6l-21.7-3.1c-3-0.4-5.5,1.3-5.5,3.8v0.3c0,2.5,2.5,4.2,5.5,3.8
							L424.3,451.6z"/>
						<path fill="#FBAB18" d="M378.3,451.6c-3.1-0.4-3.1-1.2,0-1.6l21.7-3.1c3-0.4,5.5,1.3,5.5,3.8v0.3c0,2.5-2.5,4.2-5.5,3.8
							L378.3,451.6z"/>
					</g>
					<g>
						<path fill="#E39910" d="M379.4,530.8c3.5-0.4,3.5-1.1,0-1.6l-24.7-3.1c-3.5-0.4-6.3,1.3-6.3,3.8v0.3c0,2.5,2.8,4.2,6.3,3.8
							L379.4,530.8z"/>
						<path fill="#E39910" d="M327.1,530.8c-3.5-0.4-3.5-1.1,0-1.6l24.7-3.1c3.5-0.4,6.3,1.3,6.3,3.8v0.3c0,2.5-2.8,4.2-6.3,3.8
							L327.1,530.8z"/>
					</g>
					<g>
						<path fill="#E39910" d="M391.4,575.4c3.5-0.4,3.5-1.1,0-1.6l-24.7-3.1c-3.5-0.4-6.3,1.3-6.3,3.8v0.3c0,2.5,2.8,4.2,6.3,3.8
							L391.4,575.4z"/>
						<path fill="#E39910" d="M339,575.4c-3.5-0.4-3.5-1.1,0-1.6l24.7-3.1c3.5-0.4,6.3,1.3,6.3,3.8v0.3c0,2.5-2.8,4.2-6.3,3.8
							L339,575.4z"/>
					</g>
					<path fill="#FBAB18" d="M395,396.5l-16.4-2.1v5.7l16.4-2.1C398.5,397.7,398.5,397,395,396.5z"/>
				</g>
			</g>
		</g>
	</g>
</g>
<polygon fill="#F2EFDC" points="720.9,856.9 358,861.5 388.3,700.3 722.7,660.8 "/>
<g>
	<path fill="#253A43" d="M447.3,809.5l-5.3,0.5c-3.1,0-4.7-1.3-4.7-4c0-2.3,2.9-3.8,8.7-4.5c1.1-0.1,2.4-0.2,3.8-0.2
		c1.4,0,2.6,0.7,3.6,2.2c1,1.5,1.5,3.4,1.5,5.9c0,2.4,0.5,6.4,1.4,12c0.9,5.5,1.4,9.3,1.4,11.2c0,3.4-1.2,5.1-3.5,5.1
		c-2.3,0-3.9-1-4.7-2.9v-0.1c-0.5,0.3-1.5,0.8-2.9,1.6c-2.8,1.6-5.3,2.3-7.4,2.3s-4.3-0.4-6.4-1.3c-2.1-0.9-4-2-5.5-3.3
		c-1.5-1.3-2.9-3.1-4.1-5.2c-1.2-2.1-2.2-4.3-3-6.4c-0.8-2.1-1.5-4.6-2.1-7.4c-0.6-2.8-1-5.4-1.3-7.6c-0.3-2.2-0.5-4.8-0.7-7.8
		c-0.2-3.7-0.3-8.1-0.3-13.4l-0.1-10.4c0-22,3.1-36.6,9.3-43.7c3.6-4.2,8.3-6.3,14.1-6.3c3.7,0,5.6,1.3,5.6,4c0,1-0.4,1.8-1.1,2.4
		c-0.7,0.6-1.5,0.9-2.5,0.9l-3.8-0.7c-3.4,0-6.1,2.1-8,6.4c-2,4.4-3.3,8.7-3.9,13c-0.6,4.3-1,7.7-1.3,10.3c-0.3,2.6-0.5,5.4-0.5,8.6
		c-0.2,4.4-0.3,8.9-0.3,13.3l-0.1,8.7c0,9.2,0.4,15.6,1.2,19.3c0.8,3.7,1.6,6.6,2.4,8.9c0.8,2.2,1.7,4.1,2.8,5.6
		c2.6,3.3,5.8,5,9.8,5c4,0,7.3-2,10-5.9C449.3,817.1,448.6,811.8,447.3,809.5z"/>
	<path fill="#253A43" d="M501.9,794.8l0.4,8.6v2.1L502,807l0.1,8.2c0,8.2-1.2,14.1-3.5,17.5c-2.2,3.2-5.6,4.8-10.2,4.8
		c-5.6,0-9.9-2-12.8-6.1c-2.6-3.5-4.4-8.1-5.6-14c-1.5-7-2.7-12-3.6-15c-0.1-0.2-0.6-10.7-1.5-31.4c-0.9-20.7-1.4-32.2-1.4-34.5
		c-0.7-0.8-1-1.7-1-2.9c0-1.1,0.4-2.1,1.2-3c0.8-0.9,1.8-1.3,2.8-1.3c3.4,0,5.1,3.3,5.1,10l1.3,48.8c0.5,1.2,1,3.7,1.4,7.5
		c0.4,3.8,0.6,6.7,0.6,8.7c0,2.1,0.3,4.6,1,7.7c0.7,3,1.6,6.1,2.7,9.2c1.1,3.1,2.7,5.8,4.6,8s4,3.3,6.2,3.3c3.6,0,5.4-3.2,5.6-9.7
		c0-0.8,0.1-1.8,0.1-2.9v-63c0-2.7-0.5-6.7-1.5-12c-1-5.4-1.5-9-1.5-10.9c0-1.9,0.5-3.2,1.4-3.9c0.9-0.7,2-1.1,3.2-1.1l4.3,3.3v2.3
		l-1.2,8.6c0,5.4,0.3,13.4,1,23.9c0.7,10.5,1.1,18.3,1.1,23.4v0.2L501.9,794.8z"/>
	<path fill="#253A43" d="M520.1,731.2l1.4,50.6c0,1.6-0.1,3.1-0.3,4.5v0.6c0.1,2.7,0.3,6.5,0.6,11.5c0.7,11.1,1,19.5,1,25.1v4.5h10
		c1.6,0.9,2.4,1.6,2.7,2c0.2,0.4,0.3,1,0.3,1.7c0,0.8-0.3,1.5-1,2.3c-0.7,0.8-1.4,1.2-2.1,1.2s-1.6-0.2-2.5-0.5
		c-0.8,0.2-1.7,0.3-2.7,0.3l-4.5-0.2c-1,1.1-2.2,1.7-3.6,1.7s-2.7-0.4-3.6-1.3s-1.5-1.9-1.5-3.1l0.9-6.2c0-10.7-0.5-26.6-1.4-47.9
		c-0.9-21.3-1.4-37.3-1.4-47.9c0-0.9,0.3-1.6,1-2.1c0.7-0.5,1.5-0.8,2.6-0.8s2,0.4,2.8,1.2C519.7,729.1,520.1,730.1,520.1,731.2z"/>
	<path fill="#253A43" d="M559.1,783.5l-3.5-0.1c-1.1,0-1.9,0.3-2.5,1v43.4c4.8-0.3,7.3-0.4,7.4-0.4c5.2,0,7.8,1.2,7.8,3.7v0.5
		c-0.6,1.3-1.7,2.3-3.3,2.9c-1.5,0.7-2.9,1.1-4,1.2c-1.1,0.1-2.7,0.1-4.5,0.1h-4.4c-3.6,0-5.8-0.7-6.6-2.1c-0.4-0.6-0.5-1.5-0.5-2.5
		V729.8l12.1-1.2c1.4,0,2.8,0.4,4.3,1.3c1.4,0.8,2.2,2,2.2,3.3c0,2.8-2.1,4.2-6.4,4.2l-4-0.1c-0.7,0-1.2,0-1.5,0.1l1.1,23.2
		c0,1.9-0.1,4.6-0.3,8.2c-0.2,3.6-0.3,6.2-0.3,7.9c0.5-0.1,1.2-0.3,2.1-0.5c1.9-0.5,3.4-0.8,4.5-0.8c1.1,0,2,0.4,2.9,1.2
		c0.8,0.8,1.3,1.7,1.3,2.8s-0.3,2.1-1,3C561.1,783.1,560.2,783.5,559.1,783.5z"/>
	<path fill="#253A43" d="M607,831.8c0,3.1-1.1,4.6-3.4,4.6c-1.7,0-3.4-1.3-5.1-3.8v-0.5c-0.2-3.7-1.4-8.9-3.5-15.4
		c-2.1-6.5-3.4-11-3.9-13.2c-0.5-2.3-1.3-6.6-2.4-12.9c-1.1-6.3-2.1-11.2-2.9-14.5v55.4c0,3-1.5,4.5-4.6,4.5c-1.1,0-2-0.4-2.8-1.1
		c-0.8-0.8-1.2-1.7-1.2-2.8v-1.1l1-82.4v-17.3c0-1.1,0.2-1.9,0.7-2.3c0.5-0.5,1.8-0.7,4-0.7c2.2,0,4.4,0.7,6.7,2.2
		c2.3,1.4,4.1,3.3,5.5,5.6c2.8,4.7,4.3,9.9,4.3,15.6c0,4.6-1.1,9.8-3.4,15.7c-0.3,0.6-0.8,2-1.6,4s-1.3,3.3-1.4,3.6
		c0,3.7,0.7,8.2,1.8,13.7c1.2,5.5,2.3,9.9,3.3,13.2c1,3.4,2.7,8.6,5,15.7c2.4,7.1,3.7,11.2,4,12.2V831.8z M585.4,734.6l-0.8,28.7
		c0,2.9,0,5,0.1,6.4c1.6-1.5,3.1-3.3,4.5-5.4l2.1-12.1c0-4.8-0.6-8.9-1.9-12.2C588.2,736.7,586.9,734.9,585.4,734.6z"/>
	<path fill="#253A43" d="M647.6,792.6l-1.2,17.8v0.6c-0.6,2.6-0.9,5.4-0.9,8.4s-0.5,5.9-1.5,8.7s-2.6,5.3-4.7,7.5
		c-2.1,2.2-4.4,3.3-7,3.3c-2.5,0-4.8-0.9-6.9-2.6c-2.1-1.7-3.8-4-5.1-6.7c-1.3-2.7-2.5-6-3.6-9.7c-1.1-3.8-1.9-7.5-2.4-11
		s-1-7.4-1.4-11.4c-0.5-6.1-0.8-11.1-0.8-15c0-3.9,0.1-7.1,0.2-9.6c0.2-4.6,0.4-8.7,0.6-12.3c0.2-3.6,0.4-6.3,0.4-8.3
		c0-1.9,0.1-3.5,0.1-4.9s0.2-3,0.4-4.9c0.2-1.9,0.5-3.6,0.8-5c0.3-1.4,0.8-2.8,1.5-4.3c0.7-1.5,1.5-2.7,2.4-3.7
		c2.1-2.1,4.5-3.2,7.1-3.2c2.6,0,4.7,0.3,6.2,0.8c1.6,0.5,2.9,1.2,3.9,2c1.1,0.8,2.1,1.9,3,3.2c0.9,1.3,1.6,2.6,2.2,3.8
		c0.6,1.2,1.1,2.7,1.5,4.5c0.6,2.2,1.2,5.3,1.8,9.4C646.5,765.8,647.6,780,647.6,792.6z M635.3,741.1c-0.9-2.4-2-4.3-3.4-5.6
		c-1.3-1.3-2.7-2-3.9-2c-1.3,0-2.3,0.3-3.1,1c-0.8,0.6-1.4,1.6-2,2.9s-1.1,2.6-1.5,4.1c-0.5,1.4-0.8,3.2-1.1,5.3
		c-0.3,2.1-0.6,4-0.8,5.7c-0.2,1.7-0.4,3.7-0.5,6c-0.1,2.3-0.3,4.2-0.3,5.7c-0.1,1.5-0.1,3.2-0.2,5.3c0,2.1,0,3.4,0,4.1v2.9
		c0,7.5,0.7,16.2,2.1,25.9c2.8,19.2,6.8,28.7,12,28.7c1.8,0,3.4-1.7,4.7-5.2c1.3-3.5,2.2-7.9,2.7-13.1c0.9-8.9,1.4-15.4,1.4-19.4
		c0-4,0-6.9,0-8.6c0-1.7-0.1-4.3-0.2-7.6c-0.1-3.3-0.3-6.4-0.6-9.3c-0.3-2.9-0.6-6.1-1-9.6c-0.4-3.5-1-6.7-1.7-9.4
		S636.2,743.5,635.3,741.1z"/>
	<path fill="#253A43" d="M658.2,767.6l0.4-15.4c0-4.3-0.2-7.5-0.6-9.4c-0.4-1.9-0.9-3.7-1.5-5.4s-0.9-3-0.9-3.9s0.2-1.6,0.5-2.2
		c0.4-0.6,0.9-1.1,1.6-1.4s1.4-0.6,2.1-0.8c0.7-0.2,1.6-0.4,2.6-0.4c1.7-0.1,3-0.1,3.8-0.1h1.4c3.8,0,7.9,2.1,12.3,6.2
		c5.3,5,8.5,10.2,9.6,15.8c0.7,3.2,1.1,6.9,1.4,10.8c0.2,4,0.4,6.6,0.5,8c0.3,3,0.6,5.1,1.1,6.2v6.5c-0.5,0.9-0.8,2.3-0.8,4.3
		c0,7.1-1.6,14.8-4.9,23.3c-3.2,8.4-7.3,14.8-12.1,19.2c-3.6,3.2-6,5.2-7.2,5.8c-1.3,0.6-2.5,0.9-3.7,0.9c-1.2,0-2.5-0.4-3.9-1.2
		c-1.4-0.8-2.1-2-2.1-3.6c2.1-2.1,3.1-7.7,3.1-16.5c0-5.2-0.4-13-1.3-23.3C658.6,780.4,658.2,772.7,658.2,767.6z M667.5,813.7v13.4
		c7.3-5.1,12.4-14.7,15.3-28.6c1.5-7.1,2.2-14.5,2.2-22.2c0-26.3-6.5-39.4-19.5-39.4v0.1c0,8.7,0.3,21.6,1,38.6
		C667.1,792.7,667.4,805.4,667.5,813.7z"/>
</g>
</svg>
