<?xml version="1.0" encoding="utf-8"?>
<!-- Generator: Adobe Illustrator 18.0.0, SVG Export Plug-In . SVG Version: 6.00 Build 0)  -->
<!DOCTYPE svg PUBLIC "-//W3C//DTD SVG 1.1//EN" "http://www.w3.org/Graphics/SVG/1.1/DTD/svg11.dtd">
<svg version="1.1" id="Lag_1" xmlns="http://www.w3.org/2000/svg" xmlns:xlink="http://www.w3.org/1999/xlink" x="0px" y="0px"
	 viewBox="0 0 800 800" enable-background="new 0 0 800 800" xml:space="preserve">
<g id="Circle_19_">
	<path fill="#253A44" d="M10,400C10,184.6,184.6,10,400,10c215.4,0,390,174.6,390,390c0,215.4-174.6,390-390,390
		C184.6,790,10,615.4,10,400z"/>
</g>
<g>
	<path fill="#F5F2E0" d="M294.4,400.8c-1.5-1.5-3.4-1.8-5.7-1.7c-2.3,0.1-4.1,1.2-5.6,3.2c-1.1,1.5-2.2,3.5-2.5,6.1
		c-0.3,3,0.5,5.6,2.5,7.5c0,0,0.4,0.4,0.8,0.4c1.9,1.5,4.2,2.2,7.6,1.7c3.4-0.1,5.6-0.9,6.7-2.4c1.5-1.9,1.8-5,0.1-9.1
		C296.7,404.1,295.5,401.9,294.4,400.8"/>
	<path fill="#F5F2E0" d="M663.6,394.1c-1.5-1.5-3.4-1.8-5.7-1.7c-2.3,0.1-4.1,1.2-5.6,3.2c-1.1,1.5-2.2,3.5-2.5,6.1
		c-0.3,3,0.5,5.6,2.5,7.5c0,0,0.4,0.4,0.8,0.4c1.9,1.5,4.2,2.2,7.6,1.7c3.4-0.1,5.6-0.9,6.7-2.4c1.5-1.9,1.8-5,0.1-9.1
		C665.9,397.1,664.7,395.2,663.6,394.1"/>
	<path fill="#F5F2E0" d="M295.3,506.4c-3.4,0.1-8-1.3-10-8c-1.3-4.9-2.7-15.4-3.5-32.7l-0.1-5.3c-1-24.9,0.3-30.6,1.4-32.5
		c2.2-3.1,4.8-4.7,7.8-4.7l0.8,0c0,0,0,0.4,0.4,0.4c3.4,0.3,5.7,2.9,6.6,6.2c1.3,5.6,2.7,17.7,4.3,36.5c0.6,7.5,1.1,14.3,1.6,19.2
		c0.2,6,0.3,9.8-0.1,12.5C303.1,504.7,298.7,506.3,295.3,506.4L295.3,506.4z M662.5,498.3c-3.4,0.1-7.9-0.5-10-7.7
		c-1.3-4.9-2.7-15.4-3.5-32.4l-0.1-4.9c-1-24.9,0.3-30.2,1.4-32.1c2.2-3.1,4.8-4.3,7.8-4.4l0.8,0c0,0,0,0,0.4,0
		c3.4,0.3,5.7,2.5,6.6,6.2c1.3,5.6,2.7,17.7,4.3,36.5c0.6,7.9,1.1,14.3,1.6,19.2c0.2,6,0.2,9-0.1,11.7
		C670.4,497.3,665.9,498.2,662.5,498.3L662.5,498.3z M413.8,437.6c0,0-1.5,0-2.3,0.4c-4.5,0.9-7.8,2.8-10.4,6.7
		c-5.4,8.1-8.3,15.7-8.1,22.5c0,1.5,0.1,3.4,0.5,4.9c0.9,4.5,2.8,7.8,5.5,9.7c2.3,1.8,6.5,2.5,12.5,2.3l0.4,0
		c6.4-0.2,10.9-1.4,14.2-3.8c3.3-2.4,5.1-5.8,6.1-11.1c0.7-2.7,1-5.3,0.5-8.3c-0.1-2.6-0.5-5.6-1.3-8.3c-1.7-5.6-4-9.7-7.5-11.9
		C420.6,438.6,417.6,437.5,413.8,437.6l0-1.9L413.8,437.6z M412.6,506.7c-3.8,0.1-7.6-0.2-11.4-1.2c-11.8-2.7-20.2-9.3-25.4-19.7
		c-2.4-5.6-4.1-11.2-4.6-17.2c-0.1-5.3,0.5-10.6,2.2-16.3c3.5-12.2,10.7-21.8,21.5-29.2c4.1-3.5,7.4-5.5,10.4-6.3
		c1.1-0.4,2.3-0.4,4.1-0.5l0.4,0c2.3-0.1,4.5,0.3,7.6,0.6c12.5,1.2,22.1,7,29.5,16.6c5.1,7,8,15.6,8.6,25.8c0,1.5,0.1,3,0.1,4.9
		c-0.4,12.5-3.9,22.4-10.2,29.3c-4.8,5.4-11.5,9-19.3,11.1C420.9,506.1,416.7,506.6,412.6,506.7L412.6,506.7z M477.1,506.9
		c-1.5,0-3,0.1-4.9-0.2c-4.2-1-6.5-2.5-7.7-5.1c-0.8-1.9-2.1-7.5-4.8-39.5c-1.1-12-1.7-20.7-2.2-26.4l-0.1-4.5
		c0.2-4.9,1.3-8,3.5-8.8c0.7-0.4,1.9-0.4,2.6-0.4c2.3-0.1,4.6,1,7.2,2.8c1.9,1.5,2.7,1.8,3.1,1.8l0.4,0c1.5-1.5,4.8-3.5,9.3-5.9
		c4.1-2.4,9-3.6,13.9-3.8l0,0c4.1-0.1,8.3,0.5,13.3,1.9c11.4,3.5,17.2,8.6,17.7,15c0.1,2.3-0.3,3.8-1.4,4.9c-1.5,1.5-4.1,2.4-6,2.4
		l0,0c-3.4,0.1-7.2-0.6-12.1-2.3c-4.2-1.4-8-1.7-11-1.6c-4.9,0.1-8.6,1.7-11.2,5.6c-4,6.1-5.5,18.6-4.3,37.5
		c1.8,24.9-0.1,25.7-1.2,26.4C480.1,506.8,478.6,506.9,477.1,506.9L477.1,506.9z M180.8,515.8c-10.9-0.1-19.3-2.1-25.4-6.1
		c-4.2-2.9-6.2-6.3-6.3-9.6c-0.4-1.9,0.3-4.5,1.7-6.8c1.1-1.5,2.6-2,5.2-2c2.6-0.1,6.4,0.6,11.4,1.6c6.1,1.4,11,2.4,14.4,2.3
		c0.4,0,0.8,0,0.8,0c2.6-0.1,3.8-0.9,4.1-1.6c-0.8-1.1-5-5.5-28.2-23.8c-6.9-5.5-10.1-12.9-9.3-22.8c0.9-9.8,5.2-17.1,13-22.2
		c5.2-3.2,10.4-4.8,16.5-5l1.5,0c6.8,0.2,11.7,2,15.2,6c4.3,4.8,5.1,8.5,3.7,11.2c-1.1,1.9-3.3,3.1-7.1,3.2c-1.5,0-3,0.1-4.9-0.2
		c-1.5-0.3-3-0.3-4.5-0.3c-3,0.1-6,0.9-8.2,2.1c-3.3,2-4.8,4.7-4.7,8c0,1.9,2,5.2,9.7,10.7c6.1,4,12.7,9.1,19.7,15.7
		c3.9,4,6.2,7.4,7.4,9.6c0.8,1.9,1.6,4.1,1.7,7.1c0,1.1,0,1.9-0.3,3.4c0,13.2-8.9,19.9-25.9,20.3C182,516.1,180.8,515.8,180.8,515.8
		 M597.1,505.3c-4.1,0.1-7.2-0.9-9.1-3.2l0,0c-0.4-0.7-1.6-2.6-7.6-31.5c-4.8-24.8-6.8-29.2-7.6-30c0,0,0,0-0.4-0.4
		c-2.4-3.3-5-5.2-8.1-5.1c-3,0.1-6.7,2.1-10.8,5.6c-7,6.2-10.4,21-9.1,43.2c0.8,17.3-1.3,20.8-3.6,21.6c-1.1,0.4-1.9,0.4-3,0.5
		c-3.4,0.1-5.7-1.7-7.7-5.8c-2-4.1-3.7-11.6-4.4-22.5c-0.4-2.6-0.5-4.9-0.6-7.5c-1.1-26.4,6.8-43.6,23.9-51.9
		c5.6-2.8,11.2-4.1,16.1-4.2c6-0.2,11,1.6,16,5.2c5.4,4,9.7,9.6,12.5,15.9c2.8,6.3,5.7,16.5,8.3,30.7c2.2,12,3.6,21,3.7,26.7l0.1,3
		c0,0,0,0,0,0.4C604.6,504,599.7,505.2,597.1,505.3L597.1,505.3z M339.9,512.8c-10.9-0.1-19.3-2.1-25.4-6.1
		c-4.2-2.9-6.2-6.3-6.3-9.6c-0.4-2.3,0.3-4.5,1.7-6.8c1.1-1.5,2.6-2,5.2-2c2.6-0.1,6.4,0.6,11.4,1.6c6.1,1.4,11,2.4,14.4,2.3
		c0.4,0,0.8,0,0.8,0c2.6-0.1,3.8-0.9,4.1-1.6c-0.8-1.1-5-5.5-28.2-23.8c-6.9-5.5-10.1-12.9-9.3-22.8s5.2-17.1,13-22.2
		c5.2-3.2,10.4-4.8,16.5-5l1.5,0c6.8,0.2,11.7,2,15.2,6c4.3,4.8,5.1,8.5,3.7,11.2c-1.1,1.9-3.3,3.1-7.1,3.2c-1.5,0-3,0.1-4.9-0.2
		c-1.5-0.3-3-0.3-4.5-0.3c-3,0.1-6,0.9-8.2,2.1c-3.3,2-4.8,4.7-4.7,8c0,1.9,2,5.2,9.7,10.7c6.1,4,12.7,9.1,19.7,15.7
		c3.9,4,6.2,7.4,7.4,9.6c0.8,1.9,1.6,4.1,1.7,7.1c0,1.1,0,1.9-0.3,3.4c0,13.2-8.9,19.9-25.9,20.3
		C341.1,512.7,339.9,512.8,339.9,512.8 M636.6,504.3c-3,0.1-6.4-0.6-10.2-2.4c-7.7-4.3-13.1-10.6-16.4-19.6
		c-1.2-3.7-2.2-13.5-3-29.7l-0.9-20.7c-0.6-38.5,0.7-46.4,1.7-48.7c1.8-3.4,4-5,6.7-5.1c2.6-0.1,5.3,1.4,8,3.9
		c1.9,1.8,4,8.9,6.2,48.1c0.8,16.2,1.9,27.5,2.8,34.3c0.6,6.8,1.8,11.3,3,13.9c1.6,2.6,3.9,4,6.9,5.5c3.4,1.4,5.8,4,7,7.7
		c0.4,0.7,0.4,1.5,0.4,2.3c0.1,3-1,5.3-3.2,7.6C643,503.3,640,504.2,636.6,504.3L636.6,504.3z M238.7,436.9c-1.9,0-2.6,0.1-3.8,0.5
		c-2.6,0.8-4.1,2-4.8,4.7c-0.7,3-0.8,11.3-0.9,24.5c0.1,4.1,0.2,7.5,0.3,10.2c0.1,5.3,0.6,7.9,0.6,9c1.5-0.4,4.1-1.6,7.8-4.7
		c4.1-3.1,7.7-7.4,11-12.4c5.1-6.9,7.2-13,7.1-17.9c-0.1-3.8-2.1-6.7-5.5-9.3c-1.9-1.8-4.6-2.9-7.3-3.6
		C241.8,437.2,240.2,436.9,238.7,436.9l0-1.9L238.7,436.9z M223.4,529c-2.3,0.1-4.2-0.3-6.1-2.1c-1.9-1.8-3.2-5.2-4.1-12
		c0-1.1,0-1.9-0.4-2.6c-0.5-4.5-1-9.4-1.8-26c-1-24.9-1.4-40.3-0.5-47.5c0.9-7.2,4.6-12.9,10.1-17.2c3-2.3,7.8-3.6,13.9-3.8l4.5-0.1
		c8.7,0.5,15.5,2.6,20.9,5.9c7.7,5.1,12.8,11.7,15.2,20.4c0.8,3,1.3,5.6,1.3,8.3c0.1,5.7-0.8,11.3-3.3,16.7
		c-4.6,9.9-10.8,18-17.5,25c-7.4,7-14.1,9.8-20.5,10l0,0c-1.1,0-3,0.5-3.4,1.6c0,0.4-0.4,0.8-0.4,0.8c-0.4,0.4-0.3,1.1-0.2,6.8
		l0.1,3.4c0.1,3.4,0.1,3.8,0.1,5.7c-0.7,3-2.1,4.6-4.4,5.8C226.1,529.3,224.5,529,223.4,529L223.4,529z"/>
	<path fill="#F5F2E0" d="M394.6,424.9c0,0.4,0,0.4,0,0.4s-0.4,0-0.4-0.4l-6-11.5c0-0.4,0-0.4,0-0.4s0.4,0,0.4,0.4L394.6,424.9z"/>
	<path fill="#F5F2E0" d="M390,407.7c0-0.8,0-1.5-0.1-2.3l0-0.4l-0.4-0.4c-0.4,0.4-0.4,0.4-0.7,0.8c0,0,0,0-0.4,0.4l0-0.4
		c0-0.4,0-1.1,0-1.5l0,0c-0.7,0.8-1.1,1.9-1.8,3.1c0,0,0,0.4-0.4,0.4c0,0,0-0.4,0.4-0.4c0.7-1.2,1.1-2.3,1.4-3.4
		c-0.4-0.4-0.8-1.1-1.5-1.5c0,0,0,0.4-0.4,0.4l0,0.4l0-0.4c0-0.4-0.4-0.7-0.4-1.1c-0.4-0.4-0.8-0.4-1.2-0.7c0,0.4,0,0.8,0,0.8l0,0.4
		c0,0,0,0-0.4-0.4c-0.8-0.7-1.5-1.1-2.7-1.8l-0.4,0l-0.4,0.4c0,0.8,0,1.1,0,1.9l0,0.4c0,0,0,0-0.4-0.4c-0.4,0-0.4-0.4-0.8-0.4
		c-0.3,1.1-0.3,1.9-0.3,3c0.4,0.7,1.2,1.5,1.6,2.2c0,0,0,0,0.4,0.4l-0.4,0c-0.4,0-0.8,0-1.1,0l0,0c1.2,0.7,1.5,1.5,1.9,1.8
		c0,0,0,0,0.4,0.4l-0.4,0l-0.4,0c0,0.4,0,0.4,0.4,0.7c0.4,0.7,0.8,1.1,1.2,1.5c2.3,0.3,4.6,1,6.5,2.8c0,0,0,0,0.4,0.4l0-0.4
		C388.6,411.9,389.3,409.6,390,407.7"/>
	<path fill="#F5F2E0" d="M397.4,414.7c0.4-0.4,0.7-0.8,1.1-1.5c0,0,0,0,0-0.4l0-0.4c-0.4,0-0.4,0-0.8,0l-0.4,0c0,0,0,0,0.4,0
		c0.4-0.4,0.7-0.4,1.1-0.8l0,0c-0.8,0-1.9,0.4-3,0.8l-0.4,0l0.4,0c1.1-0.4,2.2-0.8,3.4-1.6c0-0.4,0-1.1,0-1.5c0,0-0.4,0-0.4,0.4
		c0,0,0,0-0.4,0c0,0,0,0,0-0.4s0.4-0.8,0.4-0.8c0-0.4-0.4-0.7-0.4-1.1c-0.4,0.4-0.4,0.4-0.4,0.8c0,0,0,0,0,0.4c0,0,0,0,0-0.4
		c0-0.8-0.4-1.5-0.8-2.2c0,0-0.4,0-0.4-0.4l-0.4,0c-0.4,0.4-0.7,0.8-1.1,1.2c0,0,0,0,0,0.4c0,0,0,0,0-0.4c0-0.4,0-0.4,0-0.8
		c-0.7,0.4-1.5,1.2-2.2,1.6c-0.4,0.8-0.3,1.5-0.3,2.3c0,0,0,0,0,0.4c0,0,0,0,0-0.4c-0.4-0.4-0.4-0.4-0.8-0.7l0,0
		c0,0.4-0.3,1.1-0.3,1.5c0,0,0,0,0,0.4c0,0,0,0,0-0.4c0,0,0,0-0.4-0.4c0,0,0,0.4-0.4,0.4c0,0.4-0.3,1.1-0.3,1.5
		c1.5,1.1,2.7,2.9,2.8,4.8c0,0,0,0,0,0.4c0,0,0,0,0-0.4C394,416.3,395.5,415.1,397.4,414.7"/>
	<path fill="#F5F2E0" d="M391,418.2l-3.8-0.3c-0.4,0-0.4,0-0.4,0.4c0,0,0,0.4,0.4,0.4l4.2,0.6L391,418.2z"/>
	<path fill="#F5F2E0" d="M384.3,421.4c-0.7,0.4-1.1,0.4-1.9,0.4l-0.4,0l-0.4,0c0-0.4,0.4-0.4,0.4-0.8c0,0,0,0,0.4-0.4c0,0,0,0-0.4,0
		c-0.4,0.4-0.7,0.4-1.1,0.4l0,0c0.7-0.8,1.5-1.5,2.2-2.3l0.4-0.4c0,0-0.4,0-0.4,0.4c-1.1,0.8-1.8,1.6-3,2.3
		c-0.4-0.4-0.8-0.4-1.2-0.7l0.4-0.4c0,0,0,0,0.4,0c0,0,0,0-0.4,0s-0.8,0-1.1,0c-0.4-0.4-0.4-0.7-0.8-0.7c0.4,0,0.4,0,0.8,0
		c0,0,0,0,0.4,0c0,0,0,0-0.4,0c-0.8-0.4-1.2-1.1-1.9-1.8l0-0.4l0.4-0.4c0.4,0,1.1-0.4,1.5-0.4c0,0,0,0,0.4,0c0,0,0,0-0.4,0l-0.4-0.4
		c0.7-0.4,1.5-0.8,2.6-1.2c0.8,0,1.5,0.3,2.3,0.7c0,0,0,0,0.4,0c0,0,0,0,0-0.4c0-0.4,0-0.8-0.4-1.1l0,0c0.4,0,1.1,0.3,1.5,0.3
		c0,0,0,0,0.4,0c0,0,0,0,0-0.4l0-0.4l0.4,0c0.4,0,1.1,0.3,1.5,0.3c0.4,1.9,1.6,3.7,3.1,4.8c0,0,0,0,0.4,0c0,0,0,0-0.4,0
		C387.7,419.1,385.8,419.9,384.3,421.4"/>
	<path fill="#F5F2E0" d="M157.8,430c0,0,1-6.8-4.4-11.2l0,1.1c0,0-4.7-5.9-13.6-1.5c-6.3,3.2-7.7,6.6-7.7,6.6s2.2-1.2,4.2,2.9
		c1.2,2.2,5.4,5.5,9.9,4.6c4.5-0.9,5.6-0.9,5.6-0.9l-1.8,1.6c0,0,6.7-2.8,8.3-0.2c0,0-6-12.7-16.1-11.3
		C142.1,421.7,151.1,419.2,157.8,430"/>
	<path fill="#F5F2E0" d="M581.6,405.3c-6.7,2.8-9.9,9.3-8.7,15.3c-0.4-0.4-0.8-0.4-1.2-0.7c-1.3-5.6,2.3-11.8,8.7-14.6
		c3.4-1.6,6.7-1.7,10.2-1C587.6,403.7,584.6,404.1,581.6,405.3"/>
	<path fill="#F5F2E0" d="M573.8,409.3c0,0-0.5-5.6,4.3-9.5l0,1.1c0,0,4.4-5,11.7-0.7c5.4,2.9,6.6,5.9,6.6,5.9s-1.9-1.1-3.7,2.4
		c-1.1,1.9-4.8,4.3-8.6,3.6c-3.8-1-4.6-1-4.6-1l1.5,1.5c0,0-5.7-2.5-6.8-0.6c0,0,5.4-10.3,14.1-9C587.6,402.5,580,400.1,573.8,409.3
		"/>
</g>
<g>
	<path fill="#D84C4C" d="M553.5,563.8c-2.8,0-12.3-1.3-14.7-0.7c-2.6,0.3-13.2-3.2-16-3c-3.1,0.4-12.7,0.9-15.4,0.9l-12.6,0.7
		c0,0-3.5,0.1-8,0.8c-5.4,0.5-9.4,0.5-9.4,0.5c-3.9,0-10.5,0.3-14.5,0.6c0,0-3.5,0.3-8.4,2c-5.1,1.8-7.9,1.8-7.9,1.8l-17.8,1.5
		c-2.9,0.5-8.3,1-12.2,1.2c0,0-3,0.2-8.9,2.1l-3.2,1.2c-2.5-0.2-9.6,2-10.7,2c-1.4-0.3-5.6,0.2-9.4,0.8c0,0-4.5,0.4-8.3,1.5
		c-5.5,1-10,2.9-17,2.1c-3.6-0.4-7.9,0.3-13.8,0.9c-5.3,1.3-10.4,2.9-16,3.1c-6.4,0.8-7.6,1.1-7.6,1.1l-18,0.7
		c-2.8,0.2-13.5-1.3-15.9-0.7c-2.4,0.3-12.5-1.6-15.4-2.4c-3.1-1.1-12.1,0-14.3-0.4c-2.5-0.5-4.7,3.7-4.8,5.7c0,1.8,0.5,8.7,0.6,10
		c-0.2,1.2,1.1,7.8,2,9.5c0.9,1.7,3.4,7.8,3,9.4c-0.5,1.4-1.6,7.6-2.3,9.2c-0.7,1.6-2.8,6.3-4.5,8c-1.4,1.5-3.4,5.7-4.3,6.8
		c-0.9,1.4-3,4.8-3,7.5c0,1.5,5,5,7.5,5.2c2.3,0.4,11,2.3,14.2,2.4l13.1,0.7c0,0,3.6,0.4,6.4,0.4c6.9,0.5,9.9,0.3,9.9,0.3
		c3.8-0.6,14.8-1,17.4-1.5c2.6-0.5,11.5-1.1,14.6-1.6c3.3-0.6,13.3-0.8,16.2-1.3l15.3-3c2.8-0.2,14-2.2,16.6-2.5l15.2-2.2
		c3.1-0.7,12.2-1,15.4-1.9c3.4-0.9,12.8-1.9,15.9-2.1c3-0.2,8.8-1.1,12.6-2.2c0,0,4.3-1,10.8-0.8c2.8-0.2,6.9-1.5,6.9-1.5
		c3.9-1,9.5-2.8,11.1-3c1.4-0.2,8.1,1.5,9.5,1.3c1.2-0.5,5.5-1,9.5-1.5c0,0,5.4-0.7,9.2,0.2c3.5,0.1,8.7-2.2,14.6-1.3
		c5.2,0.7,7.8,0.7,7.8,0.7c4.1,0.3,14.5-0.6,17.4,0c2.7,0.5,12.9,2.2,15.4,2.6c2.7,0.5,4.3-0.7,3.8-2.3c-0.4-1.9-1.9-9-1.9-10.5
		c0-1.5-1-8.3-1.5-9.7c-0.7-1.6-1.9-7.2-1.8-9.2c0.3-2.2,0.5-6.5,1.6-8.8c0.9-2.6,4.5-8.3,4.5-9.8c0.2-1.5,5.1-6.1,5.6-7.8
		c0.5-1.4,1.9-6.5,3.7-8.7C562.8,566.8,556.3,564,553.5,563.8"/>
	<path fill="#F5F2E0" d="M516,583.3c0-0.5-0.5-0.8-1.3-0.8c-0.2,0-1.5,2.2-3.8,6.5c-2.3,4.3-3.6,6.6-3.9,6.7c0-1.1,0.1-2.9,0.2-5.2
		c0.1-2.3,0.2-4,0.2-5.1c0-1.1,0.2-1.9,0.5-2.4c0-0.2-0.1-0.5-0.3-0.6c-0.2-0.2-0.5-0.3-0.8-0.3c-0.3,0-0.6,0.2-0.8,0.5l-0.1,6.8
		l-0.6,9.5l-0.6,6.2l-0.1,9.2c0,0.4,0.1,0.7,0.2,0.8c0.1,0.1,0.4,0.2,0.7,0.2c0.3,0,0.5,0,0.7-0.2c0.2-0.1,0.3-0.3,0.3-0.4l-0.3-2.8
		l0.1-6.3l0.3-3.5c0-1.2,0.3-2.3,0.8-3.5c0.2-0.3,0.5-0.9,0.9-1.7c0.4-0.8,0.7-1.3,0.8-1.6l0.1,0.2c0,1.1,0.4,3.3,1.1,6.4
		c0.7,3.1,1.5,6.2,2.6,9.1c1,2.9,1.9,4.4,2.7,4.4c0.6,0,0.8-0.3,0.9-1c0-0.4-0.3-1-0.9-1.8c-0.9-1.3-2-4.3-3.3-9.1
		c-1.1-4-1.6-6.7-1.5-8.2l0.1-3.1C512.1,589.3,513.9,586.3,516,583.3 M494.3,612.3c-0.1,0.1-0.3,0.3-0.6,0.5
		c-0.3,0.2-0.5,0.5-0.7,0.8l-1.5,0.1l-0.2-0.6l-0.2-0.1l0-0.9c-0.6-5.1-1-11-1.2-17.5c-0.2-6.5-0.2-9.8,0.2-9.8
		c0.9,0,1.8,0.3,2.7,0.9c0.8,0.6,1.5,1.4,2.1,2.4c1.1,2,1.8,4,1.9,5.8l0.4,4.9l0.1,1.8C497.6,606.2,496.6,610.2,494.3,612.3
		 M498.7,595.1c-0.1-2.5-0.4-4.4-1-5.8c-0.1-0.3-0.4-0.7-0.9-1.3c-0.5-0.6-0.7-1-0.8-1.2l0-0.1c-0.3-0.2-0.9-0.7-1.7-1.4
		c-0.8-0.7-1.4-1.2-1.8-1.4s-0.8-0.3-1.4-0.3c-0.5-0.1-0.9-0.1-1-0.2c-0.1-0.1-0.4-0.2-0.7-0.5c-0.3-0.3-0.5-0.4-0.8-0.4
		c-0.2,0-0.5,0.1-0.7,0.4c-0.3,0.2-0.4,0.5-0.4,0.9c0,0.3,0.2,0.6,0.4,0.8c0.2,2.7,0.4,5.8,0.5,9.2l0.3,11.6c0.1,3.1,0.3,6,0.5,8.5
		c0,0.9,0.2,1.3,0.5,1.3l3.4-0.1c2-1.2,3.3-2.6,4.1-4.2c0.3-0.7,0.6-1.5,0.8-2.5c0.2-1,0.3-2.4,0.4-4.2c0.1-1.8,0.2-3.3,0.4-4.3
		c-0.2-0.3-0.3-1.1-0.3-2.4L498.7,595.1z M482.5,615.5c0.9-0.1,1.3-0.5,1.3-1.3c0-0.3-0.2-0.6-0.4-0.8c-0.3-0.3-0.5-0.4-0.9-0.4
		c-0.3,0-0.6,0.2-0.8,0.5c-0.2,0.3-0.4,0.6-0.3,0.9s0.1,0.6,0.4,0.8C481.9,615.4,482.2,615.6,482.5,615.5 M476.2,615.2
		c0.3,0,0.5-0.2,0.7-0.4c0.2-0.3,0.3-0.6,0.3-1c-0.1-0.8-0.8-1.2-2.1-1L473,613c0.1-0.6,0.1-1,0.1-1.3l-0.1-1.5l-1.3-10.3l-0.5-9.3
		c-0.1-1.6-0.3-3-0.6-4.2l2.5-0.2c0.2-0.4,0.2-0.8,0.2-0.9c-0.1-1.1-2.2-1.5-6.4-1.1l-0.2,0c-1.8,0.1-2.6,0.6-2.5,1.3
		c0,0.5,0.2,0.8,0.5,1c0.3,0.2,0.7,0.2,1.3,0.2c0.6,0,1.2-0.1,1.9-0.2c0.3,1.6,0.5,3.3,0.7,5.2l0.7,10.9l1.2,10.3l0,0.7l-1.4,0.1
		c-0.4,0-0.6,0.2-0.7,0.5c-0.1,0.3-0.1,0.6-0.1,1.1c0.4,0.6,1,0.8,1.9,0.7l2.1-0.3l1.8-0.2L476.2,615.2z M455.3,586.5
		c0-0.3-0.2-0.6-0.5-0.8c-0.3-0.2-0.6-0.3-0.9-0.3c-1.1,0.1-1.5,1.7-1.2,4.8c0.2,2,0.4,3.5,0.6,4.5l0,0.4l1.9,21.8
		c0,0.4,0.2,0.7,0.5,1c0.3,0.3,0.7,0.4,1.2,0.4c0.5-0.1,1-0.3,1.5-0.6c1.7-0.2,3.2-0.2,4.4,0.1c0.4-0.1,0.7-0.3,1-0.5
		c0.3-0.3,0.4-0.6,0.4-0.9c-0.1-1-1-1.3-2.8-1.1l-2,0.3c-1.1,0.1-1.8-0.9-2-3.2l-0.7-7.8c-0.1-1.3-0.1-2.2,0-2.7l-1.4-11.7
		L455.3,586.5z M436.5,593.4c0.8,1.6,3,7.3,6.6,17.2c1.4,3.7,2.2,5.8,2.3,6.3c0.2,0.4,0.4,0.9,0.5,1.3c0.2,0.5,0.4,0.8,0.7,1.1
		c0.3,0.3,0.8,0.2,1.7-0.1c0.1,0,0.2-0.1,0.4-0.2c0.2-0.1,0.3-0.2,0.4-0.2c0.3-1.8,0.1-6.2-0.6-13.2c-0.7-7-1.3-12.7-1.8-17.2
		c-0.1-0.7-0.4-1.2-1-1.5c-0.3-0.2-0.6-0.2-1-0.2c-0.4,0.1-0.7,0.2-0.8,0.5c-0.1,0.3-0.2,0.6-0.1,1.1l0.2,1.3
		c1.3,10,2.3,18.5,3.1,25.5c-0.4-0.9-1-2.4-1.7-4.3c-0.7-1.9-1.3-3.3-1.7-4.3c-0.7-2-1.8-4.9-3.4-8.6c-1.6-3.8-2.8-6.7-3.5-8.7
		c-0.5-1-1-1.5-1.8-1.4c-1.2,0.2-1.6,1.3-1.4,3.5l0.9,9.1l2.3,17.1c0.3,2,0.9,2.9,2,2.8c0.4-0.1,0.7-0.2,0.9-0.6
		c0.2-0.3,0.2-0.7,0.2-1.1l-0.7-5.5l-1.9-12.5L436.5,593.4z M424.3,592.5c0.2,0.5,0.4,0.9,0.5,1.3s0.2,1.1,0.4,1.9
		c0.1,0.9,0.1,2.2-0.1,3.9c-0.2,1.7-0.7,2.9-1.4,3.4c-0.2-1.1-0.5-2.9-0.9-5.4c-0.4-2.5-0.8-4.4-1-5.7l0.1-0.7
		C423.1,591.1,423.9,591.5,424.3,592.5 M424.4,605.4c0.3,0.5,1.2,2.8,2.7,7c0.5,1.5,1.1,3,1.7,4.5c1.4,3.4,2.6,5,3.7,4.8
		c0.3-0.1,0.6-0.2,0.7-0.5c0.2-0.3,0.2-0.6,0.2-0.9c-0.1-0.4-0.3-0.8-0.7-1.4c-1.5-2-3.1-5.5-4.8-10.4c-0.8-2.3-1.3-3.7-1.6-4.5
		c0.7-2,1.1-3.6,1.3-4.9c0.2-1.3,0.1-3-0.3-5.2c-0.2-1.6-1-2.8-2.3-3.5c-1.3-0.7-2.8-0.9-4.5-0.7c-1.1,0.2-1.5,1-1.3,2.5
		c0.4,2.9,1.2,7.3,2.4,13.2c1.2,5.9,1.9,9.7,2.1,11.4c0.3,1.7,0.5,3.2,0.6,4.4c0.2,0.6,0.6,0.9,1,0.8c0.3,0,0.6-0.3,0.8-0.7
		c0.2-0.4,0.3-1,0.1-1.7c-0.1-0.7-0.4-2.3-1-4.8c-0.6-2.5-0.9-4.1-1-4.8c-0.1-0.8-0.1-1.6,0-2.5
		C424.5,606.4,424.5,605.8,424.4,605.4 M416.4,604c-0.3-1.9-0.8-3.7-1.4-5.6c-0.6-1.8-1.4-3.2-2.2-4.3c-0.9-1-1.6-1.6-2.2-1.8
		c-0.3-0.1-0.8-0.1-1.5-0.2c-0.7,0-1.3-0.1-1.7-0.2c-0.6,0.1-1.1,0.4-1.5,0.9c-1.7,1.9-2.1,6.3-1,13.1l0.2,0.9l0.5,2.9
		c0.1,0.8,0.3,1.7,0.5,2.5c1.8,8.7,4.5,12.8,8,12.2c3.8-0.6,4.9-5.6,3.4-14.8L416.4,604z M408.2,593.9
		C408.2,593.9,408.2,593.9,408.2,593.9c1.2-0.2,2.1,0.3,2.8,1.5c0.4,0.6,0.8,1.4,1.3,2.6c0.5,1.2,1,3.5,1.6,7l0.7,5
		c0.6,3.8,0.8,7,0.5,9.8c-0.2,1.8-0.8,2.8-1.7,3c-0.7,0.1-1.4-0.5-2-1.9c-0.3-0.6-0.6-1.3-0.9-2.1c-0.3-0.8-0.6-1.6-0.8-2.6
		c-0.2-0.9-0.5-1.8-0.7-2.7c-0.2-0.8-0.4-1.7-0.6-2.6c-0.2-0.9-0.3-1.6-0.4-2.1c-0.1-0.5-0.2-1-0.2-1.4l-0.7-4.6l-0.5-2.8
		C405.9,596.1,406.5,594.2,408.2,593.9 M395.8,625.5c0.2,0.5,0.5,0.9,1,1.1c0.5,0.2,1.1,0.3,1.7,0.3l0-0.1c1-0.2,1.9-0.6,2.5-1.3
		c0.7-0.7,1.2-1.5,1.4-2.5c0.5-1.9,0.6-3.8,0.2-5.8c-0.4-2.5-1.3-4.7-2.7-6.5c-0.6-0.8-1.2-1.6-1.9-2.4c-0.7-0.8-1.3-1.6-1.8-2.2
		c-0.6-0.7-1.1-1.5-1.5-2.4c-0.5-0.9-0.7-1.7-0.9-2.3c-0.1-0.7-0.2-1.2-0.2-1.7c0-2.3,0.5-3.6,1.5-3.8c0.4,0.1,0.7,0.2,1.1,0.1
		c0.8-0.1,1.1-0.6,1-1.3c-0.1-0.4-0.4-0.8-1-1c-0.6-0.3-1.1-0.4-1.7-0.3c-1.5,0.3-2.5,1.5-3.1,3.7c-0.3,1.2-0.3,2.5-0.1,4
		c0.4,2.4,1.5,4.7,3.3,6.8c0.8,0.9,1.5,1.8,2.3,2.7c0.7,0.9,1.4,1.9,2,3c0.6,1.1,1,2.2,1.2,3.4c0.2,1.2,0.2,2.6,0.1,4.2
		c-0.1,0.8-0.3,1.6-0.7,2.2c-0.4,0.6-0.8,1-1.5,1.1l-2.6,0.1L395.8,625.5z M391.7,627c0.3-0.1,0.5-0.2,0.7-0.5
		c0.2-0.3,0.2-0.6,0.2-1c-0.1-0.8-0.9-1.1-2.2-0.8l-2,0.4c0-0.6,0-1-0.1-1.3l-0.3-1.4l-2.2-10.2l-1.4-9.2c-0.3-1.6-0.6-3-0.9-4.1
		l2.5-0.4c0.1-0.5,0.2-0.8,0.1-0.9c-0.2-1.1-2.4-1.3-6.5-0.5l-0.2,0c-1.7,0.3-2.5,0.8-2.4,1.6c0.1,0.5,0.3,0.8,0.6,1
		c0.3,0.1,0.7,0.1,1.3,0c0.6-0.1,1.2-0.2,1.9-0.3c0.4,1.6,0.8,3.3,1.2,5.1l1.7,10.8l2.2,10.2l0,0.7l-1.4,0.2
		c-0.4,0.1-0.6,0.2-0.7,0.5c-0.1,0.3-0.1,0.7,0,1.1c0.4,0.5,1.1,0.7,1.9,0.5l2.1-0.5l1.8-0.4L391.7,627z M368.5,615.7l2.1,12.3
		c0.3,1.7,0.6,3,0.9,3.9l1.2-0.2c0.4-0.1,0.7-0.3,1-0.6c0.2-0.3,0.3-0.7,0.3-1.1l-1.8-9.1l-0.8-5.2c1.1-0.5,2-1.1,2.7-1.8
		c0.3-0.3,0.6-0.6,0.8-1c0.2-0.4,0.4-0.7,0.5-1c0.1-0.3,0.2-0.7,0.3-1.2c0.1-0.5,0.1-1,0.1-1.5c0-0.5-0.1-1.9-0.5-4.2
		c-0.3-1.8-0.9-3.3-1.7-4.6c-1-1.4-2.4-2-4.3-1.7l-2.1,0.3c-0.3,0.1-0.6,0.3-0.8,0.7c-0.2,0.4-0.3,0.8-0.3,1.2
		c0.4,1,0.8,2.5,1.1,4.4l0.7,4.6L368.5,615.7z M369.3,601.6c0.6-0.1,1.1,0,1.5,0.1c0.9,0.4,1.5,1.5,1.8,3.4c0.8,5.2,0.3,8.1-1.6,8.6
		l0-0.1l-1.2-9.5L369.3,601.6z M358.3,631.6c0.1,0.5,0.5,0.9,1,1.2c0.5,0.3,1.1,0.4,1.7,0.4l0-0.1c1-0.2,1.9-0.6,2.6-1.2
		c0.7-0.7,1.2-1.5,1.5-2.4c0.6-1.8,0.7-3.8,0.4-5.8c-0.3-2.5-1.2-4.7-2.4-6.6c-0.6-0.8-1.2-1.6-1.8-2.4c-0.6-0.8-1.2-1.6-1.7-2.3
		c-0.5-0.7-1-1.5-1.4-2.4c-0.4-0.9-0.7-1.7-0.8-2.4c-0.1-0.7-0.1-1.2-0.1-1.7c0.1-2.3,0.6-3.5,1.6-3.7c0.4,0.1,0.7,0.2,1.1,0.1
		c0.8-0.1,1.1-0.5,1-1.3c-0.1-0.4-0.4-0.8-0.9-1.1c-0.6-0.3-1.1-0.4-1.7-0.3c-1.5,0.2-2.6,1.4-3.2,3.6c-0.3,1.2-0.4,2.5-0.2,4
		c0.3,2.4,1.3,4.7,3,7c0.7,1,1.4,1.9,2.2,2.8c0.7,0.9,1.3,1.9,1.9,3.1c0.6,1.1,0.9,2.3,1.1,3.5c0.2,1.2,0.1,2.6-0.1,4.2
		c-0.1,0.8-0.4,1.6-0.7,2.2c-0.4,0.6-0.9,0.9-1.5,1l-2.6,0L358.3,631.6z M352.7,633.7c0.9-0.1,1.3-0.6,1.2-1.4
		c0-0.3-0.2-0.6-0.5-0.8c-0.3-0.2-0.6-0.4-0.9-0.3c-0.3,0-0.6,0.2-0.8,0.5c-0.2,0.3-0.3,0.6-0.3,0.9c0,0.3,0.2,0.6,0.4,0.8
		C352.2,633.7,352.4,633.8,352.7,633.7 M342.6,630.5L342.6,630.5L342.6,630.5C342.6,630.4,342.6,630.4,342.6,630.5 M343.8,630.8
		c0-0.4,0-0.9,0.1-1.6c0.1-0.7,0.2-1.4,0.2-2c0-0.6,0-2.9-0.1-6.9c-0.1-4-0.2-6.5-0.3-7.7l0.1-0.2c-0.2-0.6-0.2-0.9-0.2-1
		c0-0.1,0-0.3,0.1-0.5l-0.2-0.3l0.2-1c-0.1-0.1-0.2-0.6-0.3-1.7c-0.1-1-0.1-2.2,0.1-3.5l-0.1-0.3c0.1-0.6,0.1-1.1,0.1-1.7
		c-0.1-0.5-0.1-0.8-0.2-0.9c-0.1-0.1-0.3-0.1-0.5,0c-0.7,0.1-1,0.3-0.9,0.9c0.1,0.2,0.2,0.6,0.3,1.2c0.1,0.6,0.1,1.7,0,3.4
		c-0.1,1.7,0,3.4,0.2,5.2c0.2,1.8,0.3,4.9,0.5,9.4c0.2,4.5,0.1,7.4-0.2,8.6c-0.6-1.2-1-3-1.4-5.5c-1-6.6-2.4-12.4-4.4-17.3
		c0.1-0.2,0.1-0.3,0.1-0.5c0-0.2-0.1-0.3-0.3-0.4c-0.2-0.1-0.4-0.1-0.6-0.1l-0.8,0.5c0,0.4,0,1.3,0,2.5c-0.1,1.3,0,2.9,0.1,5
		s0.2,3.9,0.2,5.4c0,1,0,1.8,0,2.4c0,0.6,0,1.5-0.1,2.7c0,1.2-0.1,2.1-0.1,2.8c0,0.7-0.1,2.3-0.2,4.7l0,0c-0.1-0.2-0.3-0.6-0.4-1.3
		s-0.3-1.1-0.4-1.3c-0.3-2.9-1.1-7.1-2.3-12.6c-1.2-5.5-1.9-8.5-2-9.2c-0.1-0.7-0.2-1.4-0.3-2c0-0.3-0.1-0.6-0.2-1
		c-0.1-0.3-0.2-0.6-0.4-0.8c-0.2-0.2-0.4-0.3-0.7-0.2c-0.3,0-0.5,0.2-0.6,0.4c0.7,1.3,1.2,3.1,1.5,5.2c0.1,0.7,0.3,1.7,0.4,2.9
		c0.2,1.2,0.3,2.2,0.5,3c0.1,0.8,0.4,2.1,0.9,4c0.5,1.9,0.8,3.1,0.9,3.7c0.1,0.5,0.4,2.2,0.8,4.8c0.4,2.7,0.8,4.7,1.2,6.2
		c0.4,1.4,0.8,2.1,1.3,2.1c0.4,0,0.7-0.8,0.8-2.2c0.1-0.7,0.1-1.3,0.1-1.9c0-0.6,0.1-1.2,0.1-1.8c0-0.6,0-1.1,0-1.4
		c0-0.3,0.1-1.5,0.2-3.7c0.1-2.2,0.2-4,0.2-5.3c0-1.4,0-2.5-0.1-3.3c-0.1-0.8-0.1-3.1-0.1-6.8c0.6,0.5,1.6,4.6,3,12.2
		c0.5,3.1,0.9,4.8,1,5.3c0.1,0.5,0.4,1.5,0.8,3.1c0.4,1.6,0.7,2.8,0.9,3.6c0.1,1.4,0.5,2.1,1,2.1
		C343.9,636.2,344.2,634.4,343.8,630.8 M322.6,632.2L322.6,632.2L322.6,632.2C322.6,632.2,322.6,632.2,322.6,632.2 M323.8,632.6
		c0-0.4,0-0.9,0.2-1.6c0.1-0.7,0.2-1.3,0.2-2c0-0.6,0.1-2.9,0.1-6.9c0-4,0-6.5-0.1-7.7l0.1-0.2c-0.1-0.6-0.2-0.9-0.2-1
		c0-0.1,0-0.3,0.1-0.5l-0.2-0.3l0.2-1c-0.1-0.1-0.1-0.6-0.2-1.7c-0.1-1,0-2.2,0.2-3.5l-0.1-0.3c0.1-0.6,0.2-1.1,0.1-1.7
		c0-0.5-0.1-0.8-0.2-0.9c-0.1-0.1-0.3-0.1-0.5-0.1c-0.7,0-1,0.3-0.9,0.8c0.1,0.2,0.2,0.6,0.3,1.2c0,0.6,0,1.7-0.1,3.4
		c-0.1,1.7-0.1,3.4,0,5.2c0.1,1.8,0.2,4.9,0.2,9.4c0,4.5-0.1,7.4-0.5,8.6c-0.5-1.2-0.9-3-1.2-5.6c-0.7-6.6-2-12.4-3.8-17.4
		c0.1-0.2,0.1-0.3,0.1-0.5c0-0.2-0.1-0.3-0.3-0.4c-0.2-0.1-0.4-0.2-0.6-0.1l-0.9,0.4c0,0.4,0,1.3-0.1,2.5c-0.1,1.3-0.1,2.9-0.1,5
		c0.1,2.1,0.1,3.9,0,5.4c0,1-0.1,1.8-0.1,2.4c0,0.6-0.1,1.5-0.2,2.7s-0.2,2.1-0.2,2.8c0,0.7-0.2,2.3-0.4,4.7l0,0
		c-0.1-0.2-0.2-0.6-0.4-1.3c-0.1-0.6-0.2-1.1-0.3-1.3c-0.2-3-0.9-7.2-1.9-12.7c-1-5.5-1.6-8.6-1.7-9.3c-0.1-0.7-0.2-1.4-0.2-2
		c0-0.3-0.1-0.6-0.2-1c-0.1-0.3-0.2-0.6-0.3-0.8s-0.4-0.3-0.7-0.3c-0.3,0-0.5,0.2-0.6,0.4c0.6,1.4,1,3.1,1.3,5.2
		c0.1,0.7,0.2,1.7,0.3,2.9c0.1,1.2,0.2,2.2,0.4,3s0.4,2.1,0.8,4c0.4,1.9,0.7,3.1,0.8,3.7c0.1,0.5,0.3,2.2,0.6,4.9
		c0.3,2.7,0.7,4.8,1,6.2c0.4,1.4,0.8,2.1,1.3,2.1c0.4,0,0.7-0.8,0.9-2.2c0.1-0.7,0.2-1.3,0.2-1.8s0.1-1.2,0.1-1.8
		c0-0.6,0-1.1,0.1-1.4c0-0.3,0.1-1.5,0.3-3.7c0.2-2.2,0.3-4,0.4-5.3c0-1.4,0-2.5,0-3.3c-0.1-0.8,0-3.1,0.1-6.8
		c0.6,0.5,1.4,4.6,2.6,12.3c0.4,3.1,0.7,4.8,0.8,5.3c0.1,0.5,0.3,1.5,0.7,3.1c0.4,1.6,0.6,2.8,0.8,3.6c0.1,1.4,0.4,2.2,1,2.1
		C323.7,638,324,636.2,323.8,632.6 M302.6,633.2L302.6,633.2L302.6,633.2C302.5,633.1,302.6,633.2,302.6,633.2 M303.7,633.7
		c0-0.4,0.1-0.9,0.2-1.6s0.3-1.3,0.3-1.9c0.1-0.6,0.2-2.9,0.4-6.9c0.2-4,0.3-6.5,0.3-7.7l0.1-0.2c-0.1-0.6-0.2-0.9-0.2-1
		c0-0.1,0-0.3,0.1-0.5l-0.1-0.3l0.3-1c-0.1-0.1-0.1-0.7-0.1-1.7c0-1,0.1-2.2,0.4-3.5l-0.1-0.3c0.2-0.6,0.2-1.1,0.2-1.7
		c0-0.5-0.1-0.8-0.1-0.9c-0.1-0.1-0.3-0.1-0.5-0.1c-0.7,0-1,0.3-1,0.8c0.1,0.2,0.2,0.6,0.2,1.2c0,0.6-0.1,1.7-0.3,3.4
		s-0.3,3.4-0.2,5.2c0,1.8,0,4.9-0.2,9.4c-0.2,4.5-0.5,7.4-0.9,8.6c-0.5-1.2-0.8-3.1-1-5.6c-0.4-6.7-1.4-12.5-3-17.6
		c0.1-0.2,0.1-0.3,0.1-0.5c0-0.2-0.1-0.3-0.3-0.4c-0.2-0.1-0.4-0.2-0.6-0.2l-0.9,0.4c0,0.4-0.1,1.3-0.2,2.5c-0.2,1.3-0.3,2.9-0.3,5
		c0,2.1-0.1,3.9-0.2,5.4c-0.1,1-0.1,1.8-0.2,2.4c-0.1,0.6-0.2,1.5-0.3,2.7c-0.1,1.1-0.2,2.1-0.3,2.8s-0.3,2.3-0.6,4.7l0,0
		c-0.1-0.2-0.2-0.7-0.3-1.3c-0.1-0.6-0.2-1.1-0.3-1.3c-0.1-3-0.6-7.2-1.3-12.7s-1.2-8.7-1.2-9.4c-0.1-0.7-0.1-1.4-0.1-2
		c0-0.3-0.1-0.6-0.1-1c-0.1-0.3-0.2-0.6-0.3-0.8c-0.1-0.2-0.4-0.3-0.7-0.3c-0.3,0-0.5,0.1-0.7,0.4c0.6,1.4,0.9,3.1,1.1,5.3
		c0.1,0.7,0.1,1.7,0.2,2.9c0.1,1.2,0.1,2.2,0.2,3c0.1,0.8,0.3,2.1,0.6,4.1c0.3,1.9,0.5,3.2,0.6,3.7c0.1,0.5,0.2,2.2,0.4,4.9
		c0.2,2.7,0.5,4.8,0.7,6.2c0.3,1.5,0.7,2.2,1.2,2.2c0.4,0,0.7-0.7,1-2.1c0.1-0.7,0.2-1.3,0.3-1.8c0.1-0.6,0.1-1.2,0.2-1.8
		c0.1-0.6,0.1-1.1,0.1-1.4c0-0.3,0.2-1.5,0.5-3.7c0.3-2.2,0.5-4,0.6-5.3c0.1-1.4,0.2-2.5,0.1-3.3c0-0.8,0.1-3.1,0.4-6.8
		c0.6,0.5,1.2,4.7,2,12.4c0.3,3.1,0.5,4.9,0.6,5.4c0.1,0.5,0.3,1.5,0.6,3.1c0.3,1.6,0.5,2.8,0.6,3.7c0,1.5,0.3,2.2,0.9,2.2
		C303.4,639,303.8,637.2,303.7,633.7"/>
</g>
<g>
	<path fill="#F5F2E0" d="M196.5,286.6h2v14h6.9v1.7h-8.8V286.6z"/>
	<path fill="#F5F2E0" d="M206.8,296.5c0-1,0.1-1.8,0.4-2.6c0.3-0.8,0.7-1.4,1.2-1.9c0.5-0.5,1.1-0.9,1.7-1.2c0.6-0.3,1.3-0.4,2-0.4
		s1.4,0.1,2,0.4c0.6,0.3,1.2,0.7,1.7,1.2c0.5,0.5,0.9,1.2,1.2,1.9c0.3,0.8,0.4,1.6,0.4,2.6c0,1-0.1,1.8-0.4,2.6
		c-0.3,0.8-0.7,1.4-1.2,1.9c-0.5,0.5-1.1,0.9-1.7,1.2c-0.6,0.3-1.3,0.4-2,0.4s-1.4-0.1-2-0.4c-0.6-0.3-1.2-0.7-1.7-1.2
		c-0.5-0.5-0.9-1.2-1.2-1.9C206.9,298.3,206.8,297.5,206.8,296.5z M208.8,296.5c0,0.7,0.1,1.3,0.2,1.8c0.2,0.5,0.4,1,0.7,1.4
		c0.3,0.4,0.6,0.7,1.1,0.9c0.4,0.2,0.9,0.3,1.4,0.3s0.9-0.1,1.4-0.3c0.4-0.2,0.8-0.5,1.1-0.9c0.3-0.4,0.5-0.9,0.7-1.4
		c0.2-0.5,0.2-1.1,0.2-1.8c0-0.7-0.1-1.3-0.2-1.8c-0.2-0.5-0.4-1-0.7-1.4c-0.3-0.4-0.6-0.7-1.1-0.9c-0.4-0.2-0.9-0.3-1.4-0.3
		s-0.9,0.1-1.4,0.3c-0.4,0.2-0.8,0.5-1.1,0.9c-0.3,0.4-0.5,0.9-0.7,1.4C208.9,295.2,208.8,295.8,208.8,296.5z"/>
	<path fill="#F5F2E0" d="M220.6,290.7h1.6l0.2,2.1h0.1c0.4-0.7,0.9-1.3,1.4-1.7c0.6-0.4,1.2-0.6,1.8-0.6c0.5,0,0.9,0.1,1.2,0.2
		l-0.4,1.7c-0.2-0.1-0.4-0.1-0.5-0.1c-0.2,0-0.4,0-0.6,0c-0.5,0-1,0.2-1.5,0.6c-0.5,0.4-1,1.1-1.4,2.1v7.4h-2V290.7z"/>
	<path fill="#F5F2E0" d="M227.8,296.5c0-1,0.1-1.8,0.4-2.6c0.3-0.8,0.7-1.4,1.2-1.9c0.5-0.5,1-0.9,1.7-1.2c0.6-0.3,1.3-0.4,1.9-0.4
		c0.7,0,1.4,0.1,2,0.4c0.6,0.3,1.1,0.6,1.5,1.1c0.4,0.5,0.7,1,0.9,1.7c0.2,0.7,0.3,1.4,0.3,2.2c0,0.4,0,0.8-0.1,1.1h-7.8
		c0.1,1.3,0.5,2.3,1.2,3c0.7,0.7,1.6,1.1,2.7,1.1c0.6,0,1.1-0.1,1.5-0.2c0.5-0.2,0.9-0.4,1.3-0.7l0.7,1.3c-0.5,0.3-1.1,0.6-1.7,0.8
		c-0.6,0.2-1.3,0.4-2.1,0.4c-0.8,0-1.5-0.1-2.2-0.4c-0.7-0.3-1.3-0.7-1.8-1.2c-0.5-0.5-0.9-1.1-1.2-1.9
		C227.9,298.3,227.8,297.5,227.8,296.5z M235.9,295.6c0-1.2-0.3-2.1-0.8-2.7c-0.5-0.6-1.2-0.9-2.1-0.9c-0.4,0-0.8,0.1-1.2,0.3
		c-0.4,0.2-0.7,0.4-1,0.7c-0.3,0.3-0.6,0.7-0.8,1.1c-0.2,0.5-0.3,1-0.4,1.6H235.9z"/>
	<path fill="#F5F2E0" d="M240.5,290.7h1.6l0.2,1.7h0.1c0.5-0.6,1.1-1,1.7-1.4c0.6-0.4,1.2-0.6,1.9-0.6c0.9,0,1.6,0.2,2.1,0.6
		s0.9,0.9,1.1,1.6c0.6-0.7,1.2-1.2,1.8-1.6c0.6-0.4,1.3-0.6,2-0.6c1.2,0,2.1,0.4,2.7,1.1c0.6,0.8,0.9,1.9,0.9,3.4v7.4h-2v-7.1
		c0-1.1-0.2-1.9-0.5-2.4s-0.9-0.7-1.6-0.7c-0.9,0-1.8,0.6-2.9,1.8v8.4h-2v-7.1c0-1.1-0.2-1.9-0.5-2.4s-0.9-0.7-1.6-0.7
		c-0.9,0-1.8,0.6-2.9,1.8v8.4h-2V290.7z"/>
	<path fill="#F5F2E0" d="M265.3,286.6h2v15.7h-2V286.6z"/>
	<path fill="#F5F2E0" d="M273.3,303.3v3.9h-2v-16.5h1.6l0.2,1.3h0.1c0.5-0.4,1.1-0.8,1.7-1.1c0.6-0.3,1.3-0.5,2-0.5
		c0.7,0,1.4,0.1,2,0.4c0.6,0.3,1.1,0.7,1.4,1.2c0.4,0.5,0.7,1.1,0.9,1.9c0.2,0.7,0.3,1.5,0.3,2.4c0,1-0.1,1.9-0.4,2.6
		c-0.3,0.8-0.6,1.4-1.1,2c-0.5,0.5-1,1-1.6,1.2c-0.6,0.3-1.2,0.4-1.9,0.4c-0.5,0-1.1-0.1-1.6-0.4c-0.5-0.2-1.1-0.6-1.6-1
		L273.3,303.3z M273.3,299.7c0.5,0.4,1,0.8,1.5,0.9c0.5,0.2,0.9,0.3,1.3,0.3c0.5,0,0.9-0.1,1.3-0.3c0.4-0.2,0.8-0.5,1.1-0.9
		c0.3-0.4,0.5-0.9,0.7-1.4c0.2-0.6,0.3-1.2,0.3-1.9c0-0.6-0.1-1.2-0.2-1.7c-0.1-0.5-0.3-1-0.5-1.3c-0.2-0.4-0.6-0.7-1-0.9
		c-0.4-0.2-0.9-0.3-1.4-0.3c-0.5,0-1,0.1-1.5,0.4s-1,0.7-1.6,1.2V299.7z"/>
	<path fill="#F5F2E0" d="M284.3,299.7c0.5,0.4,1,0.7,1.6,1c0.5,0.3,1.2,0.4,1.9,0.4c0.8,0,1.3-0.2,1.7-0.5c0.4-0.3,0.6-0.8,0.6-1.3
		c0-0.3-0.1-0.6-0.2-0.8c-0.2-0.2-0.4-0.4-0.6-0.6c-0.2-0.2-0.5-0.3-0.8-0.4c-0.3-0.1-0.6-0.3-1-0.4c-0.4-0.1-0.8-0.3-1.2-0.5
		c-0.4-0.2-0.8-0.4-1.1-0.7c-0.3-0.3-0.6-0.6-0.8-0.9c-0.2-0.3-0.3-0.8-0.3-1.3c0-0.5,0.1-0.9,0.3-1.3c0.2-0.4,0.4-0.8,0.8-1.1
		c0.3-0.3,0.8-0.5,1.3-0.7c0.5-0.2,1.1-0.3,1.7-0.3c0.7,0,1.4,0.1,2,0.4c0.6,0.3,1.1,0.6,1.6,0.9l-0.9,1.2c-0.4-0.3-0.8-0.5-1.2-0.7
		c-0.4-0.2-0.9-0.3-1.4-0.3c-0.7,0-1.3,0.2-1.6,0.5c-0.3,0.3-0.5,0.7-0.5,1.2c0,0.3,0.1,0.5,0.2,0.7c0.1,0.2,0.3,0.4,0.6,0.5
		c0.2,0.1,0.5,0.3,0.8,0.4c0.3,0.1,0.6,0.2,1,0.4c0.4,0.2,0.8,0.3,1.3,0.5c0.4,0.2,0.8,0.4,1.1,0.7c0.3,0.3,0.6,0.6,0.8,1
		c0.2,0.4,0.3,0.8,0.3,1.4c0,0.5-0.1,0.9-0.3,1.3s-0.5,0.8-0.8,1.1c-0.4,0.3-0.8,0.6-1.3,0.8c-0.5,0.2-1.1,0.3-1.8,0.3
		c-0.8,0-1.6-0.1-2.4-0.5c-0.7-0.3-1.4-0.7-2-1.1L284.3,299.7z"/>
	<path fill="#F5F2E0" d="M294.5,290.7h2v7.1c0,1.1,0.2,1.9,0.5,2.4c0.3,0.5,0.9,0.7,1.7,0.7c0.6,0,1.1-0.2,1.6-0.5
		c0.5-0.3,1-0.8,1.5-1.5v-8.2h2v11.6h-1.6l-0.2-1.8h-0.1c-0.5,0.6-1.1,1.1-1.7,1.5c-0.6,0.4-1.3,0.6-2.1,0.6c-1.2,0-2.1-0.4-2.7-1.1
		c-0.6-0.8-0.8-1.9-0.8-3.4V290.7z"/>
	<path fill="#F5F2E0" d="M307.6,290.7h1.6l0.2,1.7h0.1c0.5-0.6,1.1-1,1.7-1.4c0.6-0.4,1.2-0.6,1.9-0.6c0.9,0,1.6,0.2,2.1,0.6
		c0.5,0.4,0.9,0.9,1.1,1.6c0.6-0.7,1.2-1.2,1.8-1.6c0.6-0.4,1.3-0.6,2-0.6c1.2,0,2.1,0.4,2.7,1.1c0.6,0.8,0.9,1.9,0.9,3.4v7.4h-2
		v-7.1c0-1.1-0.2-1.9-0.5-2.4c-0.3-0.5-0.9-0.7-1.6-0.7c-0.9,0-1.8,0.6-2.9,1.8v8.4h-2v-7.1c0-1.1-0.2-1.9-0.5-2.4
		c-0.3-0.5-0.9-0.7-1.6-0.7c-0.9,0-1.8,0.6-2.9,1.8v8.4h-2V290.7z"/>
	<path fill="#F5F2E0" d="M333.2,288.3c-0.4,0-0.7-0.1-1-0.4c-0.3-0.2-0.4-0.5-0.4-0.9c0-0.4,0.1-0.7,0.4-0.9c0.3-0.2,0.6-0.3,1-0.3
		c0.4,0,0.7,0.1,1,0.3c0.3,0.2,0.4,0.5,0.4,0.9c0,0.4-0.1,0.7-0.4,0.9C333.9,288.2,333.6,288.3,333.2,288.3z M332.2,290.7h2v11.6h-2
		V290.7z"/>
	<path fill="#F5F2E0" d="M337.8,299.7c0.5,0.4,1,0.7,1.6,1c0.5,0.3,1.2,0.4,1.9,0.4c0.8,0,1.3-0.2,1.7-0.5c0.4-0.3,0.6-0.8,0.6-1.3
		c0-0.3-0.1-0.6-0.2-0.8c-0.2-0.2-0.4-0.4-0.6-0.6c-0.2-0.2-0.5-0.3-0.8-0.4c-0.3-0.1-0.6-0.3-1-0.4c-0.4-0.1-0.8-0.3-1.2-0.5
		c-0.4-0.2-0.8-0.4-1.1-0.7c-0.3-0.3-0.6-0.6-0.8-0.9c-0.2-0.3-0.3-0.8-0.3-1.3c0-0.5,0.1-0.9,0.3-1.3c0.2-0.4,0.4-0.8,0.8-1.1
		c0.3-0.3,0.8-0.5,1.3-0.7c0.5-0.2,1.1-0.3,1.7-0.3c0.7,0,1.4,0.1,2,0.4c0.6,0.3,1.1,0.6,1.6,0.9l-0.9,1.2c-0.4-0.3-0.8-0.5-1.2-0.7
		c-0.4-0.2-0.9-0.3-1.4-0.3c-0.7,0-1.3,0.2-1.6,0.5c-0.3,0.3-0.5,0.7-0.5,1.2c0,0.3,0.1,0.5,0.2,0.7c0.1,0.2,0.3,0.4,0.6,0.5
		c0.2,0.1,0.5,0.3,0.8,0.4c0.3,0.1,0.6,0.2,1,0.4c0.4,0.2,0.8,0.3,1.3,0.5c0.4,0.2,0.8,0.4,1.1,0.7c0.3,0.3,0.6,0.6,0.8,1
		c0.2,0.4,0.3,0.8,0.3,1.4c0,0.5-0.1,0.9-0.3,1.3s-0.5,0.8-0.8,1.1c-0.4,0.3-0.8,0.6-1.3,0.8c-0.5,0.2-1.1,0.3-1.8,0.3
		c-0.8,0-1.6-0.1-2.4-0.5c-0.7-0.3-1.4-0.7-2-1.1L337.8,299.7z"/>
	<path fill="#F5F2E0" d="M352.6,299.7c0.5,0.4,1,0.7,1.6,1c0.5,0.3,1.2,0.4,1.9,0.4c0.8,0,1.3-0.2,1.7-0.5c0.4-0.3,0.6-0.8,0.6-1.3
		c0-0.3-0.1-0.6-0.2-0.8c-0.2-0.2-0.4-0.4-0.6-0.6c-0.2-0.2-0.5-0.3-0.8-0.4c-0.3-0.1-0.6-0.3-1-0.4c-0.4-0.1-0.8-0.3-1.2-0.5
		c-0.4-0.2-0.8-0.4-1.1-0.7c-0.3-0.3-0.6-0.6-0.8-0.9c-0.2-0.3-0.3-0.8-0.3-1.3c0-0.5,0.1-0.9,0.3-1.3c0.2-0.4,0.4-0.8,0.8-1.1
		c0.3-0.3,0.8-0.5,1.3-0.7c0.5-0.2,1.1-0.3,1.7-0.3c0.7,0,1.4,0.1,2,0.4c0.6,0.3,1.1,0.6,1.6,0.9l-0.9,1.2c-0.4-0.3-0.8-0.5-1.2-0.7
		c-0.4-0.2-0.9-0.3-1.4-0.3c-0.7,0-1.3,0.2-1.6,0.5c-0.3,0.3-0.5,0.7-0.5,1.2c0,0.3,0.1,0.5,0.2,0.7c0.1,0.2,0.3,0.4,0.6,0.5
		c0.2,0.1,0.5,0.3,0.8,0.4c0.3,0.1,0.6,0.2,1,0.4c0.4,0.2,0.8,0.3,1.3,0.5c0.4,0.2,0.8,0.4,1.1,0.7c0.3,0.3,0.6,0.6,0.8,1
		c0.2,0.4,0.3,0.8,0.3,1.4c0,0.5-0.1,0.9-0.3,1.3s-0.5,0.8-0.8,1.1c-0.4,0.3-0.8,0.6-1.3,0.8c-0.5,0.2-1.1,0.3-1.8,0.3
		c-0.8,0-1.6-0.1-2.4-0.5c-0.7-0.3-1.4-0.7-2-1.1L352.6,299.7z"/>
	<path fill="#F5F2E0" d="M363.9,288.3c-0.4,0-0.7-0.1-1-0.4c-0.3-0.2-0.4-0.5-0.4-0.9c0-0.4,0.1-0.7,0.4-0.9c0.3-0.2,0.6-0.3,1-0.3
		c0.4,0,0.7,0.1,1,0.3c0.3,0.2,0.4,0.5,0.4,0.9c0,0.4-0.1,0.7-0.4,0.9C364.6,288.2,364.3,288.3,363.9,288.3z M362.9,290.7h2v11.6h-2
		V290.7z"/>
	<path fill="#F5F2E0" d="M368.8,290.7h1.6l0.2,1.7h0.1c0.5-0.6,1.1-1,1.7-1.4c0.6-0.4,1.2-0.6,1.9-0.6c0.9,0,1.6,0.2,2.1,0.6
		s0.9,0.9,1.1,1.6c0.6-0.7,1.2-1.2,1.8-1.6s1.3-0.6,2-0.6c1.2,0,2.1,0.4,2.7,1.1c0.6,0.8,0.9,1.9,0.9,3.4v7.4h-2v-7.1
		c0-1.1-0.2-1.9-0.5-2.4c-0.3-0.5-0.9-0.7-1.6-0.7c-0.9,0-1.8,0.6-2.9,1.8v8.4h-2v-7.1c0-1.1-0.2-1.9-0.5-2.4
		c-0.3-0.5-0.9-0.7-1.6-0.7c-0.9,0-1.8,0.6-2.9,1.8v8.4h-2V290.7z"/>
	<path fill="#F5F2E0" d="M390.5,303.3v3.9h-2v-16.5h1.6l0.2,1.3h0.1c0.5-0.4,1.1-0.8,1.7-1.1c0.6-0.3,1.3-0.5,2-0.5
		c0.7,0,1.4,0.1,2,0.4c0.6,0.3,1,0.7,1.4,1.2c0.4,0.5,0.7,1.1,0.9,1.9c0.2,0.7,0.3,1.5,0.3,2.4c0,1-0.1,1.9-0.4,2.6
		c-0.3,0.8-0.6,1.4-1.1,2c-0.5,0.5-1,1-1.6,1.2c-0.6,0.3-1.2,0.4-1.9,0.4c-0.5,0-1.1-0.1-1.6-0.4c-0.5-0.2-1.1-0.6-1.6-1
		L390.5,303.3z M390.5,299.7c0.5,0.4,1,0.8,1.5,0.9c0.5,0.2,0.9,0.3,1.3,0.3c0.5,0,0.9-0.1,1.3-0.3c0.4-0.2,0.8-0.5,1.1-0.9
		c0.3-0.4,0.5-0.9,0.7-1.4c0.2-0.6,0.2-1.2,0.2-1.9c0-0.6-0.1-1.2-0.2-1.7c-0.1-0.5-0.3-1-0.5-1.3c-0.2-0.4-0.6-0.7-1-0.9
		s-0.9-0.3-1.4-0.3c-0.5,0-1,0.1-1.5,0.4c-0.5,0.3-1,0.7-1.6,1.2V299.7z"/>
	<path fill="#F5F2E0" d="M401.8,285.3h2v14.8c0,0.3,0.1,0.5,0.2,0.7c0.1,0.1,0.2,0.2,0.4,0.2c0.1,0,0.1,0,0.2,0s0.1,0,0.2,0l0.3,1.5
		c-0.1,0.1-0.3,0.1-0.5,0.1c-0.2,0-0.4,0-0.7,0c-0.7,0-1.3-0.2-1.6-0.7c-0.3-0.4-0.5-1.1-0.5-2V285.3z"/>
	<path fill="#F5F2E0" d="M407.6,305.6c0.2,0,0.3,0.1,0.5,0.1c0.7,0,1.2-0.2,1.6-0.7c0.4-0.5,0.8-1.1,1-1.8l0.3-0.9l-4.7-11.6h2
		l2.4,6.4c0.2,0.5,0.4,1,0.6,1.6c0.2,0.6,0.4,1.1,0.6,1.7h0.1c0.2-0.5,0.3-1.1,0.5-1.6s0.3-1.1,0.5-1.6l2.1-6.4h1.9l-4.4,12.6
		c-0.2,0.6-0.4,1.1-0.7,1.6c-0.3,0.5-0.6,0.9-0.9,1.3c-0.3,0.4-0.7,0.6-1.2,0.8c-0.4,0.2-1,0.3-1.6,0.3c-0.3,0-0.5,0-0.7-0.1
		c-0.2,0-0.4-0.1-0.6-0.2l0.4-1.5C407.3,305.5,407.4,305.6,407.6,305.6z"/>
	<path fill="#F5F2E0" d="M423,296.5c0-0.9,0.1-1.8,0.4-2.5c0.3-0.8,0.6-1.4,1.1-1.9c0.5-0.5,1-0.9,1.6-1.2c0.6-0.3,1.2-0.4,1.9-0.4
		c0.7,0,1.2,0.1,1.7,0.4c0.5,0.2,1,0.6,1.5,1l-0.1-2v-4.5h2v17h-1.6l-0.2-1.4h-0.1c-0.5,0.4-1,0.8-1.6,1.2c-0.6,0.3-1.2,0.5-1.9,0.5
		c-1.5,0-2.6-0.5-3.5-1.6C423.5,299.9,423,298.4,423,296.5z M425.1,296.5c0,1.4,0.3,2.5,0.8,3.3c0.6,0.8,1.3,1.2,2.4,1.2
		c0.5,0,1-0.1,1.5-0.4c0.5-0.3,1-0.7,1.4-1.2v-6.1c-0.5-0.4-1-0.8-1.4-0.9c-0.5-0.2-0.9-0.3-1.4-0.3c-0.5,0-0.9,0.1-1.3,0.3
		c-0.4,0.2-0.8,0.5-1.1,0.9c-0.3,0.4-0.5,0.9-0.7,1.4C425.2,295.2,425.1,295.8,425.1,296.5z"/>
	<path fill="#F5F2E0" d="M437,290.7h2v7.1c0,1.1,0.2,1.9,0.5,2.4c0.3,0.5,0.9,0.7,1.7,0.7c0.6,0,1.1-0.2,1.6-0.5s1-0.8,1.5-1.5v-8.2
		h2v11.6h-1.6l-0.2-1.8h-0.1c-0.5,0.6-1.1,1.1-1.7,1.5c-0.6,0.4-1.3,0.6-2.1,0.6c-1.2,0-2.1-0.4-2.7-1.1c-0.6-0.8-0.8-1.9-0.8-3.4
		V290.7z"/>
	<path fill="#F5F2E0" d="M450.1,290.7h1.6l0.2,1.7h0.1c0.5-0.6,1.1-1,1.7-1.4c0.6-0.4,1.2-0.6,1.9-0.6c0.9,0,1.6,0.2,2.1,0.6
		c0.5,0.4,0.9,0.9,1.1,1.6c0.6-0.7,1.2-1.2,1.8-1.6c0.6-0.4,1.3-0.6,2-0.6c1.2,0,2.1,0.4,2.7,1.1c0.6,0.8,0.9,1.9,0.9,3.4v7.4h-2
		v-7.1c0-1.1-0.2-1.9-0.5-2.4c-0.3-0.5-0.9-0.7-1.6-0.7c-0.9,0-1.8,0.6-2.9,1.8v8.4h-2v-7.1c0-1.1-0.2-1.9-0.5-2.4
		c-0.4-0.5-0.9-0.7-1.6-0.7c-0.9,0-1.8,0.6-2.9,1.8v8.4h-2V290.7z"/>
	<path fill="#F5F2E0" d="M469.9,290.7h1.6l0.2,1.7h0.1c0.5-0.6,1.1-1,1.7-1.4c0.6-0.4,1.2-0.6,1.9-0.6c0.9,0,1.6,0.2,2.1,0.6
		c0.5,0.4,0.9,0.9,1.1,1.6c0.6-0.7,1.2-1.2,1.8-1.6c0.6-0.4,1.3-0.6,2-0.6c1.2,0,2.1,0.4,2.7,1.1c0.6,0.8,0.9,1.9,0.9,3.4v7.4h-2
		v-7.1c0-1.1-0.2-1.9-0.5-2.4c-0.3-0.5-0.9-0.7-1.6-0.7c-0.9,0-1.8,0.6-2.9,1.8v8.4h-2v-7.1c0-1.1-0.2-1.9-0.5-2.4
		c-0.4-0.5-0.9-0.7-1.6-0.7c-0.9,0-1.8,0.6-2.9,1.8v8.4h-2V290.7z"/>
	<path fill="#F5F2E0" d="M489.3,305.6c0.2,0,0.3,0.1,0.5,0.1c0.7,0,1.2-0.2,1.6-0.7c0.4-0.5,0.8-1.1,1-1.8l0.3-0.9l-4.7-11.6h2
		l2.4,6.4c0.2,0.5,0.4,1,0.6,1.6c0.2,0.6,0.4,1.1,0.6,1.7h0.1c0.2-0.5,0.3-1.1,0.5-1.6c0.2-0.6,0.3-1.1,0.5-1.6l2.1-6.4h1.9
		l-4.4,12.6c-0.2,0.6-0.4,1.1-0.7,1.6c-0.3,0.5-0.6,0.9-0.9,1.3c-0.3,0.4-0.7,0.6-1.2,0.8c-0.4,0.2-1,0.3-1.6,0.3
		c-0.3,0-0.5,0-0.7-0.1c-0.2,0-0.4-0.1-0.6-0.2l0.4-1.5C489,305.5,489.2,305.6,489.3,305.6z"/>
	<path fill="#F5F2E0" d="M506,292.3h-1.7v-1.5l1.8-0.1l0.2-3.2h1.6v3.2h3.1v1.6H508v6.4c0,0.7,0.1,1.3,0.4,1.7s0.7,0.6,1.4,0.6
		c0.2,0,0.4,0,0.7-0.1c0.2-0.1,0.5-0.1,0.6-0.2l0.4,1.5c-0.3,0.1-0.7,0.2-1,0.3c-0.4,0.1-0.7,0.1-1.1,0.1c-0.6,0-1.1-0.1-1.6-0.3
		c-0.4-0.2-0.8-0.5-1-0.8c-0.3-0.3-0.4-0.7-0.6-1.2c-0.1-0.5-0.2-1-0.2-1.6V292.3z"/>
	<path fill="#F5F2E0" d="M512.6,296.5c0-1,0.1-1.8,0.4-2.6c0.3-0.8,0.7-1.4,1.2-1.9c0.5-0.5,1-0.9,1.7-1.2c0.6-0.3,1.3-0.4,1.9-0.4
		c0.7,0,1.4,0.1,2,0.4c0.6,0.3,1.1,0.6,1.5,1.1c0.4,0.5,0.7,1,0.9,1.7s0.3,1.4,0.3,2.2c0,0.4,0,0.8-0.1,1.1h-7.8
		c0.1,1.3,0.5,2.3,1.2,3c0.7,0.7,1.6,1.1,2.7,1.1c0.6,0,1.1-0.1,1.5-0.2c0.5-0.2,0.9-0.4,1.3-0.7l0.7,1.3c-0.5,0.3-1.1,0.6-1.7,0.8
		c-0.6,0.2-1.3,0.4-2.1,0.4c-0.8,0-1.5-0.1-2.2-0.4c-0.7-0.3-1.3-0.7-1.8-1.2c-0.5-0.5-0.9-1.1-1.2-1.9
		C512.8,298.3,512.6,297.5,512.6,296.5z M520.8,295.6c0-1.2-0.2-2.1-0.8-2.7c-0.5-0.6-1.2-0.9-2.1-0.9c-0.4,0-0.8,0.1-1.2,0.3
		c-0.4,0.2-0.7,0.4-1,0.7c-0.3,0.3-0.6,0.7-0.8,1.1c-0.2,0.5-0.3,1-0.4,1.6H520.8z"/>
	<path fill="#F5F2E0" d="M527.3,296.2l-3.5-5.5h2.1l1.6,2.6c0.2,0.3,0.4,0.6,0.5,1c0.2,0.3,0.4,0.6,0.6,1h0.1c0.2-0.3,0.3-0.6,0.5-1
		c0.2-0.3,0.3-0.6,0.5-1l1.4-2.6h2.1l-3.5,5.8l3.8,5.8h-2.1l-1.7-2.7c-0.2-0.3-0.4-0.7-0.6-1c-0.2-0.3-0.4-0.7-0.6-1h-0.1
		c-0.2,0.3-0.4,0.7-0.6,1c-0.2,0.3-0.4,0.7-0.6,1.1l-1.6,2.7h-2.1L527.3,296.2z"/>
	<path fill="#F5F2E0" d="M536.1,292.3h-1.7v-1.5l1.8-0.1l0.2-3.2h1.6v3.2h3.1v1.6h-3.1v6.4c0,0.7,0.1,1.3,0.4,1.7
		c0.3,0.4,0.7,0.6,1.4,0.6c0.2,0,0.4,0,0.7-0.1c0.2-0.1,0.5-0.1,0.6-0.2l0.4,1.5c-0.3,0.1-0.7,0.2-1,0.3c-0.4,0.1-0.7,0.1-1.1,0.1
		c-0.6,0-1.1-0.1-1.6-0.3c-0.4-0.2-0.8-0.5-1-0.8c-0.3-0.3-0.4-0.7-0.6-1.2c-0.1-0.5-0.2-1-0.2-1.6V292.3z"/>
	<path fill="#F5F2E0" d="M547.8,296.5c0-1,0.1-1.8,0.4-2.6c0.3-0.8,0.7-1.4,1.2-1.9c0.5-0.5,1.1-0.9,1.7-1.2c0.6-0.3,1.3-0.4,2-0.4
		c0.7,0,1.4,0.1,2,0.4c0.6,0.3,1.2,0.7,1.7,1.2c0.5,0.5,0.9,1.2,1.2,1.9c0.3,0.8,0.4,1.6,0.4,2.6c0,1-0.1,1.8-0.4,2.6
		c-0.3,0.8-0.7,1.4-1.2,1.9c-0.5,0.5-1.1,0.9-1.7,1.2c-0.6,0.3-1.3,0.4-2,0.4c-0.7,0-1.4-0.1-2-0.4c-0.6-0.3-1.2-0.7-1.7-1.2
		c-0.5-0.5-0.9-1.2-1.2-1.9C548,298.3,547.8,297.5,547.8,296.5z M549.9,296.5c0,0.7,0.1,1.3,0.2,1.8c0.2,0.5,0.4,1,0.7,1.4
		c0.3,0.4,0.6,0.7,1.1,0.9c0.4,0.2,0.9,0.3,1.4,0.3c0.5,0,0.9-0.1,1.4-0.3c0.4-0.2,0.8-0.5,1.1-0.9c0.3-0.4,0.5-0.9,0.7-1.4
		c0.2-0.5,0.2-1.1,0.2-1.8c0-0.7-0.1-1.3-0.2-1.8c-0.2-0.5-0.4-1-0.7-1.4c-0.3-0.4-0.6-0.7-1.1-0.9c-0.4-0.2-0.9-0.3-1.4-0.3
		c-0.5,0-0.9,0.1-1.4,0.3c-0.4,0.2-0.8,0.5-1.1,0.9c-0.3,0.4-0.5,0.9-0.7,1.4C550,295.2,549.9,295.8,549.9,296.5z"/>
	<path fill="#F5F2E0" d="M566.9,286.9c-0.4-0.2-0.9-0.3-1.3-0.3c-1.1,0-1.6,0.7-1.6,2.2v1.8h2.5v1.6h-2.5v10h-2v-10h-1.6v-1.5
		l1.6-0.1v-1.8c0-1.2,0.3-2.1,0.8-2.8c0.5-0.7,1.4-1,2.6-1c0.4,0,0.7,0,1,0.1c0.3,0.1,0.6,0.2,0.9,0.3L566.9,286.9z"/>
	<path fill="#F5F2E0" d="M573.8,292.3h-1.7v-1.5l1.8-0.1l0.2-3.2h1.6v3.2h3.1v1.6h-3.1v6.4c0,0.7,0.1,1.3,0.4,1.7
		c0.3,0.4,0.7,0.6,1.4,0.6c0.2,0,0.4,0,0.7-0.1c0.2-0.1,0.5-0.1,0.6-0.2l0.4,1.5c-0.3,0.1-0.7,0.2-1,0.3c-0.4,0.1-0.7,0.1-1.1,0.1
		c-0.6,0-1.1-0.1-1.6-0.3c-0.4-0.2-0.8-0.5-1-0.8c-0.3-0.3-0.4-0.7-0.6-1.2c-0.1-0.5-0.2-1-0.2-1.6V292.3z"/>
	<path fill="#F5F2E0" d="M581.5,285.3h2v4.6l-0.1,2.4c0.6-0.5,1.1-1,1.7-1.3c0.6-0.4,1.3-0.6,2.1-0.6c1.2,0,2.1,0.4,2.7,1.1
		c0.6,0.8,0.8,1.9,0.8,3.4v7.4h-2v-7.1c0-1.1-0.2-1.9-0.5-2.4c-0.4-0.5-0.9-0.7-1.7-0.7c-0.6,0-1.1,0.2-1.6,0.5
		c-0.5,0.3-1,0.7-1.6,1.3v8.4h-2V285.3z"/>
	<path fill="#F5F2E0" d="M593.6,296.5c0-1,0.1-1.8,0.4-2.6c0.3-0.8,0.7-1.4,1.2-1.9c0.5-0.5,1-0.9,1.7-1.2c0.6-0.3,1.3-0.4,1.9-0.4
		c0.7,0,1.4,0.1,2,0.4c0.6,0.3,1.1,0.6,1.5,1.1c0.4,0.5,0.7,1,0.9,1.7s0.3,1.4,0.3,2.2c0,0.4,0,0.8-0.1,1.1h-7.8
		c0.1,1.3,0.5,2.3,1.2,3c0.7,0.7,1.6,1.1,2.7,1.1c0.6,0,1.1-0.1,1.5-0.2c0.5-0.2,0.9-0.4,1.3-0.7l0.7,1.3c-0.5,0.3-1.1,0.6-1.7,0.8
		c-0.6,0.2-1.3,0.4-2.1,0.4c-0.8,0-1.5-0.1-2.2-0.4c-0.7-0.3-1.3-0.7-1.8-1.2c-0.5-0.5-0.9-1.1-1.2-1.9
		C593.8,298.3,593.6,297.5,593.6,296.5z M601.7,295.6c0-1.2-0.2-2.1-0.8-2.7c-0.5-0.6-1.2-0.9-2.1-0.9c-0.4,0-0.8,0.1-1.2,0.3
		c-0.4,0.2-0.7,0.4-1,0.7c-0.3,0.3-0.6,0.7-0.8,1.1c-0.2,0.5-0.3,1-0.4,1.6H601.7z"/>
	<path fill="#F5F2E0" d="M236.5,334v3.9h-2v-16.5h1.6l0.2,1.3h0.1c0.5-0.4,1.1-0.8,1.7-1.1c0.6-0.3,1.3-0.5,2-0.5
		c0.7,0,1.4,0.1,2,0.4c0.6,0.3,1.1,0.7,1.4,1.2c0.4,0.5,0.7,1.1,0.9,1.9c0.2,0.7,0.3,1.5,0.3,2.4c0,1-0.1,1.9-0.4,2.6
		c-0.3,0.8-0.6,1.4-1.1,2c-0.5,0.5-1,1-1.6,1.2c-0.6,0.3-1.2,0.4-1.9,0.4c-0.5,0-1.1-0.1-1.6-0.4c-0.5-0.2-1.1-0.6-1.6-1L236.5,334z
		 M236.5,330.4c0.5,0.4,1,0.8,1.5,0.9c0.5,0.2,0.9,0.3,1.3,0.3c0.5,0,0.9-0.1,1.3-0.3c0.4-0.2,0.8-0.5,1.1-0.9
		c0.3-0.4,0.5-0.9,0.7-1.4c0.2-0.6,0.3-1.2,0.3-1.9c0-0.6-0.1-1.2-0.2-1.7c-0.1-0.5-0.3-1-0.5-1.3c-0.2-0.4-0.6-0.7-1-0.9
		c-0.4-0.2-0.9-0.3-1.4-0.3c-0.5,0-1,0.1-1.5,0.4c-0.5,0.3-1,0.7-1.6,1.2V330.4z"/>
	<path fill="#F5F2E0" d="M247.8,321.4h1.6l0.2,2.1h0.1c0.4-0.7,0.9-1.3,1.4-1.7c0.6-0.4,1.2-0.6,1.9-0.6c0.5,0,0.9,0.1,1.2,0.2
		l-0.4,1.7c-0.2-0.1-0.4-0.1-0.5-0.1c-0.2,0-0.4,0-0.6,0c-0.5,0-1,0.2-1.5,0.6c-0.5,0.4-1,1.1-1.4,2.1v7.4h-2V321.4z"/>
	<path fill="#F5F2E0" d="M257.1,319c-0.4,0-0.7-0.1-1-0.4c-0.3-0.2-0.4-0.5-0.4-0.9c0-0.4,0.1-0.7,0.4-0.9c0.3-0.2,0.6-0.3,1-0.3
		c0.4,0,0.7,0.1,1,0.3c0.3,0.2,0.4,0.5,0.4,0.9c0,0.4-0.1,0.7-0.4,0.9C257.8,318.9,257.4,319,257.1,319z M256.1,321.4h2V333h-2
		V321.4z"/>
	<path fill="#F5F2E0" d="M261.9,321.4h1.6l0.2,1.7h0.1c0.6-0.6,1.1-1,1.8-1.4c0.6-0.4,1.3-0.6,2.1-0.6c1.2,0,2.1,0.4,2.7,1.1
		c0.6,0.8,0.8,1.9,0.8,3.4v7.4h-2v-7.1c0-1.1-0.2-1.9-0.5-2.4c-0.3-0.5-0.9-0.7-1.7-0.7c-0.6,0-1.1,0.2-1.6,0.5
		c-0.5,0.3-1,0.7-1.6,1.3v8.4h-2V321.4z"/>
	<path fill="#F5F2E0" d="M275.3,323h-1.7v-1.5l1.8-0.1l0.2-3.2h1.6v3.2h3.1v1.6h-3.1v6.4c0,0.7,0.1,1.3,0.4,1.7
		c0.3,0.4,0.7,0.6,1.4,0.6c0.2,0,0.4,0,0.7-0.1c0.2-0.1,0.5-0.1,0.6-0.2l0.4,1.5c-0.3,0.1-0.7,0.2-1,0.3c-0.4,0.1-0.7,0.1-1.1,0.1
		c-0.6,0-1.1-0.1-1.6-0.3c-0.4-0.2-0.8-0.5-1-0.8c-0.3-0.3-0.5-0.7-0.6-1.2c-0.1-0.5-0.2-1-0.2-1.6V323z"/>
	<path fill="#F5F2E0" d="M284.1,319c-0.4,0-0.7-0.1-1-0.4c-0.3-0.2-0.4-0.5-0.4-0.9c0-0.4,0.1-0.7,0.4-0.9c0.3-0.2,0.6-0.3,1-0.3
		c0.4,0,0.7,0.1,1,0.3c0.3,0.2,0.4,0.5,0.4,0.9c0,0.4-0.1,0.7-0.4,0.9C284.8,318.9,284.4,319,284.1,319z M283.1,321.4h2V333h-2
		V321.4z"/>
	<path fill="#F5F2E0" d="M288.9,321.4h1.6l0.2,1.7h0.1c0.6-0.6,1.1-1,1.8-1.4s1.3-0.6,2.1-0.6c1.2,0,2.1,0.4,2.7,1.1
		c0.6,0.8,0.8,1.9,0.8,3.4v7.4h-2v-7.1c0-1.1-0.2-1.9-0.5-2.4c-0.3-0.5-0.9-0.7-1.7-0.7c-0.6,0-1.1,0.2-1.6,0.5
		c-0.5,0.3-1,0.7-1.6,1.3v8.4h-2V321.4z"/>
	<path fill="#F5F2E0" d="M301.1,335.2c0-0.5,0.2-1,0.5-1.4c0.3-0.4,0.7-0.9,1.2-1.2v-0.1c-0.3-0.2-0.5-0.4-0.7-0.7
		c-0.2-0.3-0.3-0.7-0.3-1.2c0-0.5,0.1-0.9,0.4-1.3c0.3-0.4,0.6-0.7,0.9-0.9v-0.1c-0.4-0.3-0.7-0.7-1-1.3c-0.3-0.5-0.5-1.1-0.5-1.9
		c0-0.6,0.1-1.2,0.3-1.7c0.2-0.5,0.5-0.9,0.9-1.3c0.4-0.4,0.9-0.6,1.4-0.8c0.5-0.2,1.1-0.3,1.7-0.3c0.3,0,0.6,0,0.9,0.1
		c0.3,0.1,0.5,0.1,0.8,0.2h4v1.5h-2.4c0.3,0.3,0.5,0.6,0.7,1c0.2,0.4,0.3,0.9,0.3,1.4c0,0.6-0.1,1.2-0.3,1.7
		c-0.2,0.5-0.5,0.9-0.9,1.3c-0.4,0.3-0.8,0.6-1.3,0.8c-0.5,0.2-1.1,0.3-1.7,0.3c-0.3,0-0.6,0-0.9-0.1c-0.3-0.1-0.6-0.2-0.9-0.3
		c-0.2,0.2-0.4,0.4-0.5,0.6c-0.1,0.2-0.2,0.5-0.2,0.8c0,0.4,0.1,0.7,0.4,0.9c0.3,0.2,0.8,0.4,1.6,0.4h2.2c1.4,0,2.4,0.2,3,0.7
		c0.7,0.4,1,1.1,1,2.1c0,0.5-0.1,1.1-0.4,1.5c-0.3,0.5-0.7,0.9-1.2,1.3c-0.5,0.4-1.1,0.7-1.8,0.9c-0.7,0.2-1.5,0.3-2.4,0.3
		c-0.7,0-1.4-0.1-2-0.2c-0.6-0.1-1.1-0.3-1.5-0.6c-0.4-0.3-0.7-0.6-1-1C301.2,336.2,301.1,335.7,301.1,335.2z M302.8,334.9
		c0,0.6,0.3,1.1,0.9,1.5s1.4,0.5,2.5,0.5c0.6,0,1.1-0.1,1.5-0.2c0.5-0.1,0.8-0.3,1.2-0.5c0.3-0.2,0.6-0.5,0.7-0.7
		c0.2-0.3,0.3-0.6,0.3-0.9c0-0.5-0.2-0.9-0.6-1.1c-0.4-0.2-1-0.3-1.7-0.3h-2c-0.2,0-0.5,0-0.7,0c-0.3,0-0.5-0.1-0.8-0.2
		c-0.4,0.3-0.7,0.6-0.9,1C302.9,334.3,302.8,334.6,302.8,334.9z M305.9,328c0.3,0,0.6-0.1,0.9-0.2c0.3-0.1,0.6-0.3,0.8-0.5
		c0.2-0.2,0.4-0.5,0.5-0.9c0.1-0.3,0.2-0.7,0.2-1.2c0-0.9-0.2-1.5-0.7-2s-1.1-0.7-1.7-0.7c-0.7,0-1.3,0.2-1.7,0.7s-0.7,1.1-0.7,2
		c0,0.4,0.1,0.8,0.2,1.2c0.1,0.3,0.3,0.6,0.5,0.9c0.2,0.2,0.5,0.4,0.8,0.5C305.3,327.9,305.6,328,305.9,328z"/>
	<path fill="#F5F2E0" d="M318.3,330c0-1.3,0.6-2.2,1.7-2.9c1.1-0.7,2.9-1.1,5.4-1.4c0-0.4,0-0.7-0.1-1.1c-0.1-0.3-0.2-0.7-0.4-0.9
		s-0.4-0.5-0.7-0.7c-0.3-0.2-0.7-0.2-1.2-0.2c-0.7,0-1.3,0.1-1.9,0.4c-0.6,0.3-1.1,0.5-1.6,0.9l-0.8-1.4c0.5-0.3,1.2-0.7,2-1
		c0.8-0.3,1.6-0.5,2.6-0.5c1.4,0,2.4,0.4,3.1,1.3c0.6,0.9,1,2,1,3.5v7.1h-1.6l-0.2-1.4h0c-0.6,0.5-1.2,0.9-1.8,1.2
		c-0.6,0.3-1.3,0.5-2,0.5c-1,0-1.8-0.3-2.4-0.9C318.6,331.8,318.3,331,318.3,330z M320.2,329.8c0,0.7,0.2,1.1,0.6,1.4
		s0.9,0.4,1.4,0.4c0.6,0,1.1-0.1,1.6-0.4c0.5-0.3,1-0.6,1.6-1.2v-3.2c-1,0.1-1.8,0.3-2.5,0.5c-0.7,0.2-1.2,0.4-1.6,0.6
		c-0.4,0.2-0.7,0.5-0.9,0.8C320.3,329.1,320.2,329.5,320.2,329.8z"/>
	<path fill="#F5F2E0" d="M331.1,321.4h1.6l0.2,1.7h0.1c0.6-0.6,1.1-1,1.8-1.4s1.3-0.6,2.1-0.6c1.2,0,2.1,0.4,2.7,1.1
		c0.6,0.8,0.8,1.9,0.8,3.4v7.4h-2v-7.1c0-1.1-0.2-1.9-0.5-2.4c-0.3-0.5-0.9-0.7-1.7-0.7c-0.6,0-1.1,0.2-1.6,0.5
		c-0.5,0.3-1,0.7-1.6,1.3v8.4h-2V321.4z"/>
	<path fill="#F5F2E0" d="M343.3,327.2c0-0.9,0.1-1.8,0.4-2.5c0.3-0.8,0.6-1.4,1.1-1.9s1-0.9,1.6-1.2c0.6-0.3,1.2-0.4,1.9-0.4
		c0.7,0,1.2,0.1,1.7,0.4c0.5,0.2,1,0.6,1.5,1l-0.1-2V316h2v17h-1.6l-0.2-1.4h-0.1c-0.5,0.4-1,0.8-1.6,1.2c-0.6,0.3-1.2,0.5-1.9,0.5
		c-1.5,0-2.6-0.5-3.5-1.6C343.7,330.6,343.3,329.1,343.3,327.2z M345.3,327.2c0,1.4,0.3,2.5,0.8,3.3s1.3,1.2,2.4,1.2
		c0.5,0,1.1-0.1,1.5-0.4c0.5-0.3,1-0.7,1.4-1.2V324c-0.5-0.4-1-0.8-1.4-0.9c-0.5-0.2-0.9-0.3-1.4-0.3c-0.5,0-0.9,0.1-1.3,0.3
		c-0.4,0.2-0.8,0.5-1.1,0.9c-0.3,0.4-0.5,0.9-0.7,1.4C345.4,325.9,345.3,326.5,345.3,327.2z"/>
	<path fill="#F5F2E0" d="M362.5,323h-1.7v-1.5l1.8-0.1l0.2-3.2h1.6v3.2h3.1v1.6h-3.1v6.4c0,0.7,0.1,1.3,0.4,1.7
		c0.3,0.4,0.7,0.6,1.4,0.6c0.2,0,0.4,0,0.7-0.1c0.2-0.1,0.5-0.1,0.6-0.2l0.4,1.5c-0.3,0.1-0.7,0.2-1,0.3c-0.4,0.1-0.7,0.1-1.1,0.1
		c-0.6,0-1.1-0.1-1.6-0.3c-0.4-0.2-0.8-0.5-1-0.8c-0.3-0.3-0.5-0.7-0.6-1.2c-0.1-0.5-0.2-1-0.2-1.6V323z"/>
	<path fill="#F5F2E0" d="M369.9,336.3c0.2,0,0.3,0.1,0.5,0.1c0.7,0,1.2-0.2,1.6-0.7c0.4-0.5,0.8-1.1,1-1.8l0.3-0.9l-4.7-11.6h2
		l2.4,6.4c0.2,0.5,0.4,1,0.6,1.6c0.2,0.6,0.4,1.1,0.6,1.7h0.1c0.2-0.5,0.3-1.1,0.5-1.6c0.2-0.6,0.3-1.1,0.5-1.6l2.1-6.4h1.9
		l-4.4,12.6c-0.2,0.6-0.4,1.1-0.7,1.6c-0.3,0.5-0.6,0.9-0.9,1.3c-0.3,0.4-0.7,0.6-1.2,0.8s-1,0.3-1.6,0.3c-0.3,0-0.5,0-0.7-0.1
		c-0.2,0-0.4-0.1-0.6-0.2l0.4-1.5C369.6,336.2,369.7,336.2,369.9,336.3z"/>
	<path fill="#F5F2E0" d="M383.4,334v3.9h-2v-16.5h1.6l0.2,1.3h0.1c0.5-0.4,1.1-0.8,1.7-1.1c0.6-0.3,1.3-0.5,2-0.5
		c0.7,0,1.4,0.1,2,0.4c0.6,0.3,1.1,0.7,1.4,1.2c0.4,0.5,0.7,1.1,0.9,1.9c0.2,0.7,0.3,1.5,0.3,2.4c0,1-0.1,1.9-0.4,2.6
		c-0.3,0.8-0.6,1.4-1.1,2c-0.5,0.5-1,1-1.6,1.2c-0.6,0.3-1.2,0.4-1.9,0.4c-0.5,0-1.1-0.1-1.6-0.4c-0.5-0.2-1.1-0.6-1.6-1L383.4,334z
		 M383.4,330.4c0.5,0.4,1,0.8,1.5,0.9c0.5,0.2,0.9,0.3,1.3,0.3c0.5,0,0.9-0.1,1.3-0.3c0.4-0.2,0.8-0.5,1.1-0.9
		c0.3-0.4,0.5-0.9,0.7-1.4c0.2-0.6,0.3-1.2,0.3-1.9c0-0.6-0.1-1.2-0.2-1.7c-0.1-0.5-0.3-1-0.5-1.3c-0.2-0.4-0.6-0.7-1-0.9
		c-0.4-0.2-0.9-0.3-1.4-0.3c-0.5,0-1,0.1-1.5,0.4c-0.5,0.3-1,0.7-1.6,1.2V330.4z"/>
	<path fill="#F5F2E0" d="M393.8,327.2c0-1,0.1-1.8,0.4-2.6c0.3-0.8,0.7-1.4,1.2-1.9c0.5-0.5,1-0.9,1.7-1.2c0.6-0.3,1.3-0.4,1.9-0.4
		c0.7,0,1.4,0.1,2,0.4c0.6,0.3,1.1,0.6,1.5,1.1c0.4,0.5,0.7,1,0.9,1.7s0.3,1.4,0.3,2.2c0,0.4,0,0.8-0.1,1.1h-7.8
		c0.1,1.3,0.5,2.3,1.2,3s1.6,1.1,2.7,1.1c0.6,0,1.1-0.1,1.5-0.2c0.5-0.2,0.9-0.4,1.3-0.7l0.7,1.3c-0.5,0.3-1.1,0.6-1.7,0.8
		c-0.6,0.2-1.3,0.4-2.1,0.4c-0.8,0-1.5-0.1-2.2-0.4c-0.7-0.3-1.3-0.7-1.8-1.2c-0.5-0.5-0.9-1.1-1.2-1.9
		C393.9,329,393.8,328.2,393.8,327.2z M401.9,326.3c0-1.2-0.2-2.1-0.8-2.7c-0.5-0.6-1.2-0.9-2.1-0.9c-0.4,0-0.8,0.1-1.2,0.3
		c-0.4,0.2-0.7,0.4-1,0.7c-0.3,0.3-0.6,0.7-0.8,1.1c-0.2,0.5-0.3,1-0.4,1.6H401.9z"/>
	<path fill="#F5F2E0" d="M406.2,330.4c0.5,0.4,1,0.7,1.6,1c0.5,0.3,1.1,0.4,1.9,0.4c0.8,0,1.3-0.2,1.7-0.5c0.4-0.3,0.6-0.8,0.6-1.3
		c0-0.3-0.1-0.6-0.2-0.8s-0.4-0.4-0.6-0.6c-0.2-0.2-0.5-0.3-0.8-0.4c-0.3-0.1-0.6-0.3-1-0.4c-0.4-0.1-0.8-0.3-1.2-0.5
		c-0.4-0.2-0.8-0.4-1.1-0.7c-0.3-0.3-0.6-0.6-0.8-0.9c-0.2-0.3-0.3-0.8-0.3-1.3c0-0.5,0.1-0.9,0.3-1.3c0.2-0.4,0.4-0.8,0.8-1.1
		c0.3-0.3,0.8-0.5,1.3-0.7c0.5-0.2,1-0.3,1.7-0.3c0.7,0,1.4,0.1,2,0.4c0.6,0.3,1.1,0.6,1.6,0.9l-0.9,1.2c-0.4-0.3-0.8-0.5-1.2-0.7
		c-0.4-0.2-0.9-0.3-1.4-0.3c-0.7,0-1.3,0.2-1.6,0.5c-0.3,0.3-0.5,0.7-0.5,1.2c0,0.3,0.1,0.5,0.2,0.7c0.1,0.2,0.3,0.4,0.6,0.5
		c0.2,0.1,0.5,0.3,0.8,0.4s0.6,0.2,1,0.4c0.4,0.2,0.8,0.3,1.3,0.5c0.4,0.2,0.8,0.4,1.1,0.7c0.3,0.3,0.6,0.6,0.8,1
		c0.2,0.4,0.3,0.8,0.3,1.4c0,0.5-0.1,0.9-0.3,1.3c-0.2,0.4-0.5,0.8-0.8,1.1c-0.4,0.3-0.8,0.6-1.3,0.8c-0.5,0.2-1.1,0.3-1.8,0.3
		c-0.8,0-1.6-0.1-2.4-0.5c-0.7-0.3-1.4-0.7-2-1.1L406.2,330.4z"/>
	<path fill="#F5F2E0" d="M415.6,327.2c0-1,0.1-1.8,0.4-2.6c0.3-0.8,0.7-1.4,1.2-1.9c0.5-0.5,1-0.9,1.7-1.2c0.6-0.3,1.3-0.4,1.9-0.4
		c0.7,0,1.4,0.1,2,0.4c0.6,0.3,1.1,0.6,1.5,1.1c0.4,0.5,0.7,1,0.9,1.7s0.3,1.4,0.3,2.2c0,0.4,0,0.8-0.1,1.1h-7.8
		c0.1,1.3,0.5,2.3,1.2,3s1.6,1.1,2.7,1.1c0.6,0,1.1-0.1,1.5-0.2c0.5-0.2,0.9-0.4,1.3-0.7l0.7,1.3c-0.5,0.3-1.1,0.6-1.7,0.8
		c-0.6,0.2-1.3,0.4-2.1,0.4c-0.8,0-1.5-0.1-2.2-0.4c-0.7-0.3-1.3-0.7-1.8-1.2c-0.5-0.5-0.9-1.1-1.2-1.9
		C415.8,329,415.6,328.2,415.6,327.2z M423.8,326.3c0-1.2-0.2-2.1-0.8-2.7c-0.5-0.6-1.2-0.9-2.1-0.9c-0.4,0-0.8,0.1-1.2,0.3
		c-0.4,0.2-0.7,0.4-1,0.7c-0.3,0.3-0.6,0.7-0.8,1.1c-0.2,0.5-0.3,1-0.4,1.6H423.8z"/>
	<path fill="#F5F2E0" d="M428.3,323h-1.7v-1.5l1.8-0.1l0.2-3.2h1.6v3.2h3.1v1.6h-3.1v6.4c0,0.7,0.1,1.3,0.4,1.7
		c0.3,0.4,0.7,0.6,1.4,0.6c0.2,0,0.4,0,0.7-0.1c0.2-0.1,0.5-0.1,0.6-0.2l0.4,1.5c-0.3,0.1-0.7,0.2-1,0.3c-0.4,0.1-0.7,0.1-1.1,0.1
		c-0.6,0-1.1-0.1-1.6-0.3c-0.4-0.2-0.8-0.5-1-0.8c-0.3-0.3-0.4-0.7-0.6-1.2c-0.1-0.5-0.2-1-0.2-1.6V323z"/>
	<path fill="#F5F2E0" d="M436.4,323h-1.7v-1.5l1.8-0.1l0.2-3.2h1.6v3.2h3.1v1.6h-3.1v6.4c0,0.7,0.1,1.3,0.4,1.7s0.7,0.6,1.4,0.6
		c0.2,0,0.4,0,0.7-0.1c0.2-0.1,0.5-0.1,0.6-0.2l0.4,1.5c-0.3,0.1-0.7,0.2-1,0.3c-0.4,0.1-0.7,0.1-1.1,0.1c-0.6,0-1.1-0.1-1.6-0.3
		c-0.4-0.2-0.8-0.5-1-0.8c-0.3-0.3-0.4-0.7-0.6-1.2c-0.1-0.5-0.2-1-0.2-1.6V323z"/>
	<path fill="#F5F2E0" d="M445.1,319c-0.4,0-0.7-0.1-1-0.4c-0.3-0.2-0.4-0.5-0.4-0.9c0-0.4,0.1-0.7,0.4-0.9c0.3-0.2,0.6-0.3,1-0.3
		c0.4,0,0.7,0.1,1,0.3c0.3,0.2,0.4,0.5,0.4,0.9c0,0.4-0.1,0.7-0.4,0.9C445.8,318.9,445.5,319,445.1,319z M444.1,321.4h2V333h-2
		V321.4z"/>
	<path fill="#F5F2E0" d="M450,321.4h1.6l0.2,1.7h0.1c0.6-0.6,1.1-1,1.8-1.4c0.6-0.4,1.3-0.6,2.1-0.6c1.2,0,2.1,0.4,2.7,1.1
		c0.6,0.8,0.8,1.9,0.8,3.4v7.4h-2v-7.1c0-1.1-0.2-1.9-0.5-2.4c-0.4-0.5-0.9-0.7-1.7-0.7c-0.6,0-1.1,0.2-1.6,0.5
		c-0.5,0.3-1,0.7-1.6,1.3v8.4h-2V321.4z"/>
	<path fill="#F5F2E0" d="M462.2,335.2c0-0.5,0.1-1,0.5-1.4c0.3-0.4,0.7-0.9,1.2-1.2v-0.1c-0.3-0.2-0.5-0.4-0.7-0.7s-0.3-0.7-0.3-1.2
		c0-0.5,0.1-0.9,0.4-1.3c0.3-0.4,0.6-0.7,0.9-0.9v-0.1c-0.4-0.3-0.7-0.7-1-1.3c-0.3-0.5-0.5-1.1-0.5-1.9c0-0.6,0.1-1.2,0.3-1.7
		c0.2-0.5,0.5-0.9,0.9-1.3c0.4-0.4,0.9-0.6,1.4-0.8c0.5-0.2,1.1-0.3,1.7-0.3c0.3,0,0.6,0,0.9,0.1c0.3,0.1,0.5,0.1,0.8,0.2h4v1.5
		h-2.4c0.3,0.3,0.5,0.6,0.7,1s0.3,0.9,0.3,1.4c0,0.6-0.1,1.2-0.3,1.7c-0.2,0.5-0.5,0.9-0.9,1.3c-0.4,0.3-0.8,0.6-1.3,0.8
		c-0.5,0.2-1.1,0.3-1.7,0.3c-0.3,0-0.6,0-0.9-0.1c-0.3-0.1-0.6-0.2-0.9-0.3c-0.2,0.2-0.4,0.4-0.5,0.6c-0.1,0.2-0.2,0.5-0.2,0.8
		c0,0.4,0.1,0.7,0.4,0.9c0.3,0.2,0.8,0.4,1.6,0.4h2.2c1.4,0,2.4,0.2,3,0.7c0.7,0.4,1,1.1,1,2.1c0,0.5-0.1,1.1-0.4,1.5
		c-0.3,0.5-0.7,0.9-1.2,1.3c-0.5,0.4-1.1,0.7-1.9,0.9c-0.7,0.2-1.5,0.3-2.4,0.3c-0.7,0-1.4-0.1-2-0.2c-0.6-0.1-1.1-0.3-1.5-0.6
		c-0.4-0.3-0.7-0.6-1-1C462.3,336.2,462.2,335.7,462.2,335.2z M463.9,334.9c0,0.6,0.3,1.1,0.9,1.5c0.6,0.4,1.4,0.5,2.5,0.5
		c0.6,0,1.1-0.1,1.5-0.2c0.5-0.1,0.8-0.3,1.2-0.5c0.3-0.2,0.6-0.5,0.7-0.7c0.2-0.3,0.3-0.6,0.3-0.9c0-0.5-0.2-0.9-0.6-1.1
		c-0.4-0.2-1-0.3-1.7-0.3h-2c-0.2,0-0.5,0-0.7,0c-0.3,0-0.5-0.1-0.8-0.2c-0.4,0.3-0.7,0.6-0.9,1C464,334.3,463.9,334.6,463.9,334.9z
		 M467,328c0.3,0,0.6-0.1,0.9-0.2c0.3-0.1,0.6-0.3,0.8-0.5c0.2-0.2,0.4-0.5,0.5-0.9c0.1-0.3,0.2-0.7,0.2-1.2c0-0.9-0.2-1.5-0.7-2
		c-0.5-0.5-1.1-0.7-1.7-0.7c-0.7,0-1.3,0.2-1.7,0.7c-0.5,0.5-0.7,1.1-0.7,2c0,0.4,0.1,0.8,0.2,1.2c0.1,0.3,0.3,0.6,0.5,0.9
		c0.2,0.2,0.5,0.4,0.8,0.5C466.3,327.9,466.7,328,467,328z"/>
	<path fill="#F5F2E0" d="M480.9,319c-0.4,0-0.7-0.1-1-0.4c-0.3-0.2-0.4-0.5-0.4-0.9c0-0.4,0.1-0.7,0.4-0.9c0.3-0.2,0.6-0.3,1-0.3
		s0.7,0.1,1,0.3c0.3,0.2,0.4,0.5,0.4,0.9c0,0.4-0.1,0.7-0.4,0.9C481.6,318.9,481.3,319,480.9,319z M479.9,321.4h2V333h-2V321.4z"/>
	<path fill="#F5F2E0" d="M485.8,321.4h1.6l0.2,1.7h0.1c0.6-0.6,1.1-1,1.8-1.4c0.6-0.4,1.3-0.6,2.1-0.6c1.2,0,2.1,0.4,2.7,1.1
		c0.6,0.8,0.8,1.9,0.8,3.4v7.4h-2v-7.1c0-1.1-0.2-1.9-0.5-2.4c-0.4-0.5-0.9-0.7-1.7-0.7c-0.6,0-1.1,0.2-1.6,0.5
		c-0.5,0.3-1,0.7-1.6,1.3v8.4h-2V321.4z"/>
	<path fill="#F5F2E0" d="M498,327.2c0-0.9,0.1-1.8,0.4-2.5c0.3-0.8,0.6-1.4,1.1-1.9c0.5-0.5,1-0.9,1.6-1.2c0.6-0.3,1.2-0.4,1.9-0.4
		c0.7,0,1.2,0.1,1.7,0.4c0.5,0.2,1,0.6,1.5,1l-0.1-2V316h2v17h-1.6l-0.2-1.4h-0.1c-0.5,0.4-1,0.8-1.6,1.2c-0.6,0.3-1.2,0.5-1.9,0.5
		c-1.5,0-2.6-0.5-3.5-1.6C498.5,330.6,498,329.1,498,327.2z M500.1,327.2c0,1.4,0.3,2.5,0.8,3.3c0.6,0.8,1.3,1.2,2.4,1.2
		c0.5,0,1-0.1,1.5-0.4c0.5-0.3,1-0.7,1.4-1.2V324c-0.5-0.4-1-0.8-1.4-0.9c-0.5-0.2-0.9-0.3-1.4-0.3c-0.5,0-0.9,0.1-1.3,0.3
		c-0.4,0.2-0.8,0.5-1.1,0.9s-0.5,0.9-0.7,1.4C500.1,325.9,500.1,326.5,500.1,327.2z"/>
	<path fill="#F5F2E0" d="M511.9,321.4h2v7.1c0,1.1,0.2,1.9,0.5,2.4c0.3,0.5,0.9,0.7,1.7,0.7c0.6,0,1.1-0.2,1.6-0.5s1-0.8,1.5-1.5
		v-8.2h2V333h-1.6l-0.2-1.8h-0.1c-0.5,0.6-1.1,1.1-1.7,1.5s-1.3,0.6-2.1,0.6c-1.2,0-2.1-0.4-2.7-1.1c-0.6-0.8-0.8-1.9-0.8-3.4V321.4
		z"/>
	<path fill="#F5F2E0" d="M524.8,330.4c0.5,0.4,1,0.7,1.6,1c0.5,0.3,1.1,0.4,1.9,0.4c0.8,0,1.3-0.2,1.7-0.5c0.4-0.3,0.6-0.8,0.6-1.3
		c0-0.3-0.1-0.6-0.2-0.8s-0.4-0.4-0.6-0.6c-0.2-0.2-0.5-0.3-0.8-0.4c-0.3-0.1-0.6-0.3-1-0.4c-0.4-0.1-0.8-0.3-1.2-0.5
		c-0.4-0.2-0.8-0.4-1.1-0.7c-0.3-0.3-0.6-0.6-0.8-0.9c-0.2-0.3-0.3-0.8-0.3-1.3c0-0.5,0.1-0.9,0.3-1.3c0.2-0.4,0.4-0.8,0.8-1.1
		c0.3-0.3,0.8-0.5,1.3-0.7c0.5-0.2,1-0.3,1.7-0.3c0.7,0,1.4,0.1,2,0.4c0.6,0.3,1.1,0.6,1.6,0.9l-0.9,1.2c-0.4-0.3-0.8-0.5-1.2-0.7
		c-0.4-0.2-0.9-0.3-1.4-0.3c-0.7,0-1.3,0.2-1.6,0.5c-0.3,0.3-0.5,0.7-0.5,1.2c0,0.3,0.1,0.5,0.2,0.7c0.1,0.2,0.3,0.4,0.6,0.5
		c0.2,0.1,0.5,0.3,0.8,0.4s0.6,0.2,1,0.4c0.4,0.2,0.8,0.3,1.3,0.5c0.4,0.2,0.8,0.4,1.1,0.7c0.3,0.3,0.6,0.6,0.8,1
		c0.2,0.4,0.3,0.8,0.3,1.4c0,0.5-0.1,0.9-0.3,1.3c-0.2,0.4-0.5,0.8-0.8,1.1c-0.4,0.3-0.8,0.6-1.3,0.8c-0.5,0.2-1.1,0.3-1.8,0.3
		c-0.8,0-1.6-0.1-2.4-0.5c-0.7-0.3-1.4-0.7-2-1.1L524.8,330.4z"/>
	<path fill="#F5F2E0" d="M535.4,323h-1.7v-1.5l1.8-0.1l0.2-3.2h1.6v3.2h3.1v1.6h-3.1v6.4c0,0.7,0.1,1.3,0.4,1.7
		c0.3,0.4,0.7,0.6,1.4,0.6c0.2,0,0.4,0,0.7-0.1c0.2-0.1,0.5-0.1,0.6-0.2l0.4,1.5c-0.3,0.1-0.7,0.2-1,0.3c-0.4,0.1-0.7,0.1-1.1,0.1
		c-0.6,0-1.1-0.1-1.6-0.3c-0.4-0.2-0.8-0.5-1-0.8c-0.3-0.3-0.4-0.7-0.6-1.2c-0.1-0.5-0.2-1-0.2-1.6V323z"/>
	<path fill="#F5F2E0" d="M543.2,321.4h1.6l0.2,2.1h0.1c0.4-0.7,0.9-1.3,1.4-1.7c0.6-0.4,1.2-0.6,1.8-0.6c0.5,0,0.9,0.1,1.2,0.2
		l-0.4,1.7c-0.2-0.1-0.4-0.1-0.5-0.1c-0.2,0-0.4,0-0.6,0c-0.5,0-1,0.2-1.5,0.6c-0.5,0.4-1,1.1-1.4,2.1v7.4h-2V321.4z"/>
	<path fill="#F5F2E0" d="M551.5,336.3c0.2,0,0.3,0.1,0.5,0.1c0.7,0,1.2-0.2,1.6-0.7c0.4-0.5,0.8-1.1,1-1.8l0.3-0.9l-4.7-11.6h2
		l2.4,6.4c0.2,0.5,0.4,1,0.6,1.6c0.2,0.6,0.4,1.1,0.6,1.7h0.1c0.2-0.5,0.3-1.1,0.5-1.6s0.3-1.1,0.5-1.6l2.1-6.4h1.9l-4.4,12.6
		c-0.2,0.6-0.4,1.1-0.7,1.6c-0.3,0.5-0.6,0.9-0.9,1.3c-0.3,0.4-0.7,0.6-1.2,0.8c-0.4,0.2-1,0.3-1.6,0.3c-0.3,0-0.5,0-0.7-0.1
		c-0.2,0-0.4-0.1-0.6-0.2l0.4-1.5C551.2,336.2,551.4,336.2,551.5,336.3z"/>
	<path fill="#F5F2E0" d="M561.8,331.8c0-0.5,0.1-0.8,0.4-1.1c0.3-0.3,0.6-0.4,1-0.4c0.4,0,0.7,0.1,1,0.4c0.3,0.3,0.4,0.6,0.4,1.1
		c0,0.4-0.1,0.8-0.4,1.1c-0.3,0.3-0.6,0.4-1,0.4c-0.4,0-0.7-0.1-1-0.4C561.9,332.6,561.8,332.2,561.8,331.8z"/>
</g>
<g>
	<g>
		<path fill="#F5F2E0" d="M771.2,187.9c3.2,0,3.2-5,0-5C768,182.9,768,187.9,771.2,187.9L771.2,187.9z"/>
	</g>
</g>
<g>
	<g>
		<path fill="#0AAF4C" d="M441.7,147.9c-0.6,6.6-3.2,12.6-7.1,17.9c-5.9,8.1-13.5,13.9-23.1,17c-3.3,1.1-6.7,1.7-10.2,1.6
			c-9.4,0-17.1-3.8-22.8-11.2c-3.8-4.9-6.1-10.5-7.2-16.6c-0.4-2.3-0.6-4.6-0.7-5.9c0-7.5,1.9-13.4,5.3-18.8
			c6.5-10.3,15.8-16.4,27.8-18.4c1.9-0.3,3.8-0.4,5.6-0.5c3.1-0.1,6,0.6,8.8,2.1c1.1,0.6,2.2,1.2,3.2,1.9c1.4,0.9,2.8,1.6,4.3,2.1
			c0.1,0,0.2,0.1,0.3,0.1c5.7,1.8,9.7,5.6,12.4,10.8C441.2,135.5,442.3,141.5,441.7,147.9 M452.1,162.8c2.1-6.5,2.8-13.1,2-19.8
			c-0.8-5.7-2.7-11.1-5.6-16c-2.1-3.6-4.6-6.9-7.4-9.9c-0.9-1-1.4-2-1.4-3.3c0-1.1-0.2-2.2-0.4-3.3c-0.4-2.1-1.1-4.1-2.5-5.7
			c-2.4-2.9-5.2-5.4-8.5-7.3c-5.8-3.5-12.2-5.2-18.9-5.9c-2.7-0.3-5.4-0.4-8.1-0.6c-2.3,0.1-4.5,0.2-6.7,0.4
			c-7.4,0.8-14.4,2.9-21,6.3c-9,4.7-16.3,11.3-21.2,20.2c-5.7,10.4-7.7,21.6-6.7,33.3c0.6,6.7,2.5,13,5.6,18.9
			c6.4,12.1,15.9,20.9,28.2,26.8c5.4,2.6,11,4.2,16.9,4.7c5.1,0.5,10.1-0.1,15-1.4c10-2.7,18.6-7.7,26-14.8
			C444.3,178.9,449.2,171.5,452.1,162.8"/>
	</g>
	<g>
		<path fill="#F5F2E0" d="M365.1,245.1c2,0,4.1,0,6.1,0c0.1,0,0.2,0,0.4,0c0.1-0.4,0.1-23.3,0-23.6c-0.6-0.1-6.5,0-6.8,0
			c0,0,0,0,0,0c0,0,0,0,0,0.1c0,4.2,0,8.3,0,12.5c0,0,0,0.1,0,0.1c0,0,0,0,0,0c0,0,0,0,0,0c0,0,0,0-0.1,0c-0.1-0.1-0.2-0.2-0.2-0.3
			c-2.8-4.1-5.6-8.2-8.4-12.3c-0.1-0.2-0.2-0.3-0.5-0.3c-2.1,0-4.1,0-6.2,0c-0.1,0-0.2,0-0.3,0c0,0.1,0,0.1,0,0.1
			c0,7.8,0,15.5,0,23.3c0,0,0,0.1,0,0.1c0,0,0-0.1,0-0.1c0,0,0-0.1,0-0.1h6.8v-1.9v-2.1v-2.1v-2.2c0-0.7,0-1.4,0-2.1
			c0-0.7,0-1.4,0-2.1c0.1,0.1,0.2,0.2,0.3,0.3c2.8,4.1,5.5,8.1,8.3,12.2C364.7,245,364.9,245.1,365.1,245.1z"/>
		<path fill="#F5F2E0" d="M399.6,229.3c-0.9-3.7-3.1-6.2-6.8-7.5c-1.4-0.5-2.9-0.7-4.4-0.7c-1.6-0.1-3.2,0.1-4.8,0.5
			c-3.6,1-6.1,3.2-7.3,6.7c-0.6,1.7-0.8,3.4-0.8,5.2c0,1.6,0.2,3.1,0.7,4.6c1.2,3.4,3.4,5.8,6.9,6.8c1.1,0.3,2.2,0.5,3.3,0.6
			c1.9,0.1,3.8,0.1,5.7-0.4c3.7-1,6.2-3.4,7.3-7.1c0.5-1.6,0.6-3.2,0.6-4.8C400.1,231.8,400,230.5,399.6,229.3z M392.7,233.1
			c0,1.2,0,2.4-0.4,3.5c-0.1,0.4-0.2,0.7-0.4,1c-0.7,1.3-1.8,2-3.2,2.2c-0.8,0.1-1.6,0.1-2.4-0.1c-1.3-0.4-2.2-1.1-2.8-2.3
			c-0.4-0.8-0.6-1.6-0.6-2.5c-0.2-1.4-0.1-2.9,0.1-4.3c0.1-0.6,0.3-1.2,0.5-1.7c0.8-1.5,2-2.3,3.7-2.4c0.6,0,1.3,0,1.9,0.2
			c1.3,0.4,2.2,1.1,2.8,2.3c0.4,0.9,0.6,1.8,0.7,2.7C392.7,232.2,392.7,232.7,392.7,233.1z"/>
		<path fill="#F5F2E0" d="M417.4,221.7h-8c-3,7.7-5.9,15.6-8.9,23.4c0.6,0.1,7.2,0,7.5-0.1c0.1-0.5,0.3-1,0.4-1.4
			c0.2-0.7,0.4-1.5,0.7-2.2c0.1-0.2,0.1-0.2,0.3-0.2c0,0,0.1,0.1,0.1,0.1c2.5,0,5,0,7.5,0h0.4c0.4,1.4,0.8,2.8,1.2,3.5h7.6
			C423.3,237.1,420.3,229.4,417.4,221.7z M410.7,235.7c0.8-2.8,1.7-5.6,2.6-8.3c0.8,2.8,1.7,5.6,2.6,8.3H410.7z"/>
		<path fill="#F5F2E0" d="M450.9,244.8v-23h-7c0,0,0,0.7,0,1.1v1.4v1.3v1.4c0,0.5-0.1,0.9-0.1,1.4c0,0.5-0.2,0.9-0.2,1.4
			c-0.7,0.1-7.4,0-8.1,0v-8.2c0-0.1-7-0.1-7,0v23.3h7v-9.1h8.4v9.1H450.9z"/>
	</g>
</g>
<g>
	<g>
		<path fill="#0AAF4C" d="M752.6,716.1c3.2,0,3.2-5,0-5C749.3,711.1,749.3,716.1,752.6,716.1L752.6,716.1z"/>
	</g>
</g>
</svg>
