<?xml version="1.0" encoding="utf-8"?>
<!-- Generator: Adobe Illustrator 18.0.0, SVG Export Plug-In . SVG Version: 6.00 Build 0)  -->
<!DOCTYPE svg PUBLIC "-//W3C//DTD SVG 1.1//EN" "http://www.w3.org/Graphics/SVG/1.1/DTD/svg11.dtd">
<svg version="1.1" id="Lag_1" xmlns="http://www.w3.org/2000/svg" xmlns:xlink="http://www.w3.org/1999/xlink" x="0px" y="0px"
	 viewBox="0 0 800 1050" enable-background="new 0 0 800 1050" xml:space="preserve">
<g>
	<text transform="matrix(1 0 0 1 504.7374 904.1283)"><tspan x="0" y="0" fill="#CD5C5C" font-family="'DINNextRoundedLTPro-Medium'" font-size="37.7985">0.2 kg</tspan><tspan x="112.2" y="0" fill="#253A43" font-family="'DINNextRoundedLTPro-Medium'" font-size="37.7985"> CO2</tspan></text>
</g>
<text transform="matrix(1 0 0 1 601.0099 936.3455)" fill="#9E9B8F" font-family="'DINNextRoundedLTPro-Regular'" font-size="16.95">ækv. pr. kg</text>
<g>
	<path fill="#405933" d="M400,780C190.1,780,20,609.9,20,400C20,190.1,190.1,20,400,20s380,170.1,380,380
		C780,609.9,609.9,780,400,780z"/>
	<path fill="#2D4124" d="M483.1,770.8C616.5,741,723.4,641.3,763.2,512L452.8,201.6c-1.1-1.5-2.4-2.8-3.9-3.9L416.2,165
		c-2.3-5.8-7.9-9.8-14.5-9.8c-3.3,0-6.4,1-8.9,2.8c-2.6-1.1-5.4-1.7-8.4-1.7c-4.3,0-8.3,1.3-11.7,3.5c0-0.1,0-0.1,0-0.1
		c0-8.6-7-15.6-15.6-15.6c-8.6,0-15.6,7-15.6,15.6c0,1.9,0.4,3.8,1,5.5c-5.1,4.8-8.3,11.5-8.3,19c0,0,0,0,0,0.1
		c-4.2,0.1-8,1.9-10.7,4.8c-3.4-2.4-7.8-3.5-12.2-2.5c-7.8,1.7-13,9-12.2,16.8c-9.6,4.2-15.8,13.7-15.7,24.2
		c-7.8,2.3-12.6,10.1-10.9,18.1c1.4,6.4,6.4,11,12.4,12.1c-0.1,2,0.1,4,0.5,6.1c3,14.1,16.9,23.2,31.1,20.2c4.6-1,8.6-3.2,11.9-6.1
		c3.9,15.8,8.3,31.5,13.1,47.1c-15.5,11.9-23.5,31.8-19.6,54.3l45.6,257.8c2.6,14.6,5.8,23.2,9.2,26l-0.8,0.8L483.1,770.8z"/>
	<g>
		<g>
			<path fill="#71841F" d="M384.7,327.5c-2.1,15-6.5,15-8.6,0c-5.1-35.4-7.8-71.5-8.2-107.2c0.1-15.1,5.8-24.2,12.2-24.2
				c0.2,0,0.5,0,0.7,0c6.4-0.1,12.1,9.1,12.2,24.2C392.5,256,389.8,292.1,384.7,327.5z"/>
			<path fill="#71841F" d="M350.4,199.7c0,8.6-7,15.6-15.6,15.6c-8.6,0-15.6-7-15.6-15.6c0-8.6,7-15.6,15.6-15.6
				C343.5,184.1,350.4,191.1,350.4,199.7z"/>
			<path fill="#71841F" d="M372.7,159.6c0,8.6-7,15.6-15.6,15.6c-8.6,0-15.6-7-15.6-15.6c0-8.6,7-15.6,15.6-15.6
				C365.8,144,372.7,151,372.7,159.6z"/>
			<path fill="#71841F" d="M417.3,170.7c0,8.6-7,15.6-15.6,15.6c-8.6,0-15.6-7-15.6-15.6c0-8.6,7-15.6,15.6-15.6
				C410.3,155.1,417.3,162.1,417.3,170.7z"/>
			<circle fill="#71841F" cx="384.4" cy="178" r="21.7"/>
			<path fill="#71841F" d="M381.6,214.8c0,14.5-11.7,26.2-26.2,26.2c-14.5,0-26.2-11.7-26.2-26.2s11.7-26.2,26.2-26.2
				C369.9,188.6,381.6,200.3,381.6,214.8z"/>
			<path fill="#71841F" d="M386.7,184.1c0,14.5-11.7,26.2-26.2,26.2c-14.5,0-26.2-11.7-26.2-26.2c0-14.5,11.7-26.2,26.2-26.2
				C374.9,157.9,386.7,169.7,386.7,184.1z"/>
			<path fill="#71841F" d="M417.9,206.4c0,14.5-11.7,26.2-26.2,26.2c-14.5,0-26.2-11.7-26.2-26.2c0-14.5,11.7-26.2,26.2-26.2
				C406.2,180.2,417.9,192,417.9,206.4z"/>
		</g>
		<g>
			<path fill="#879C29" d="M363.4,362.3c1.1,15.1-3.3,16-8.5,1.8c-12.3-33.5-22.5-68.3-30.4-103.1c-3.1-14.8,0.6-24.9,6.9-26.2
				c0.2-0.1,0.5-0.1,0.7-0.1c6.3-1.4,13.8,6.3,17,21.1C356.1,290.8,360.9,326.7,363.4,362.3z"/>
			<path fill="#879C29" d="M303.1,239c1.8,8.4-3.6,16.7-12,18.5c-8.4,1.8-16.7-3.6-18.5-12c-1.8-8.4,3.6-16.7,12-18.5
				C293.1,225.2,301.3,230.6,303.1,239z"/>
			<path fill="#879C29" d="M329.9,198.4c1.8,8.4-3.6,16.7-12,18.5c-8.4,1.8-16.7-3.6-18.5-12c-1.8-8.4,3.6-16.7,12-18.5
				C319.9,184.6,328.1,190,329.9,198.4z"/>
			<path fill="#879C29" d="M362.5,202.2c1.8,8.4-3.6,16.7-12,18.5c-8.4,1.8-16.7-3.6-18.5-12c-1.8-8.4,3.6-16.7,12-18.5
				C352.4,188.5,360.7,193.8,362.5,202.2z"/>
			<path fill="#879C29" d="M353.1,211.7c2.5,11.7-5,23.3-16.7,25.8c-11.7,2.5-23.3-5-25.8-16.7c-2.5-11.7,5-23.3,16.7-25.8
				C339.1,192.4,350.6,199.9,353.1,211.7z"/>
			<path fill="#879C29" d="M336.8,252.7c3,14.1-6,28.1-20.2,31.1c-14.1,3-28.1-6-31.1-20.2c-3-14.1,6-28.1,20.1-31.1
				C319.9,229.6,333.8,238.6,336.8,252.7z"/>
			<path fill="#879C29" d="M335.3,221.7c3,14.1-6,28.1-20.1,31.1c-14.1,3-28.1-6-31.1-20.2c-3-14.1,6-28.1,20.2-31.1
				C318.4,198.6,332.3,207.6,335.3,221.7z"/>
			<path fill="#879C29" d="M370.5,237c3,14.1-6,28.1-20.2,31.1c-14.1,3-28.1-6-31.1-20.2c-3-14.1,6-28.1,20.1-31.1
				C353.6,213.9,367.5,222.9,370.5,237z"/>
		</g>
		<g>
			<path fill="#879C29" d="M391.5,371.2c-1.1,15.1,3.3,16,8.5,1.8c12.3-33.5,22.5-68.3,30.4-103.1c3.1-14.8-0.6-24.9-6.9-26.2
				c-0.2-0.1-0.5-0.1-0.7-0.2c-6.3-1.4-13.8,6.3-17,21.1C398.7,299.7,393.9,335.6,391.5,371.2z"/>
			<path fill="#879C29" d="M451.7,247.9c-1.8,8.4,3.6,16.7,12,18.5c8.4,1.8,16.7-3.6,18.5-12c1.8-8.4-3.6-16.7-12-18.5
				C461.8,234.1,453.5,239.5,451.7,247.9z"/>
			<path fill="#879C29" d="M424.9,207.3c-1.8,8.4,3.6,16.7,12,18.5c8.4,1.8,16.7-3.6,18.5-12c1.8-8.4-3.6-16.7-12-18.5
				C435,193.5,426.7,198.9,424.9,207.3z"/>
			<path fill="#879C29" d="M392.3,211.2c-1.8,8.4,3.6,16.7,12,18.5c8.4,1.8,16.7-3.6,18.5-12c1.8-8.4-3.6-16.7-12-18.5
				C402.4,197.4,394.1,202.7,392.3,211.2z"/>
			<path fill="#879C29" d="M401.7,220.6c-2.5,11.7,5,23.3,16.7,25.8c11.7,2.5,23.3-5,25.8-16.7c2.5-11.7-5-23.3-16.7-25.8
				C415.8,201.4,404.2,208.8,401.7,220.6z"/>
			<path fill="#879C29" d="M418,261.7c-3,14.1,6,28.1,20.1,31.1c14.2,3,28.1-6,31.1-20.2c3-14.1-6-28.1-20.1-31.1
				C434.9,238.5,421,247.5,418,261.7z"/>
			<path fill="#879C29" d="M419.5,230.6c-3,14.1,6,28.1,20.2,31.1c14.1,3,28.1-6,31.1-20.2c3-14.1-6-28.1-20.1-31.1
				C436.4,207.5,422.5,216.5,419.5,230.6z"/>
			<path fill="#879C29" d="M384.3,245.9c-3,14.1,6,28.1,20.2,31.1c14.1,3,28.1-6,31.1-20.1c3-14.1-6-28.1-20.1-31.1
				C401.3,222.8,387.3,231.8,384.3,245.9z"/>
		</g>
		<g>
			<path fill="#FBAB18" d="M390.9,636.8c-6.4,36.2-16.9,36.2-23.3,0L322.1,379c-6.4-36.2,18.5-65.9,55.2-65.9h3.9
				c36.8,0,61.6,29.6,55.2,65.9L390.9,636.8z"/>
			<path fill="#E39910" d="M381.3,313.2h-2.1v350.8c4.3,0.2,8.5-8.9,11.7-27.1L436.5,379C442.9,342.8,418.1,313.2,381.3,313.2z"/>
			<g>
				<defs>
					<path id="SVGID_1_" d="M390.9,636.8c-6.4,36.2-16.9,36.2-23.3,0L322.1,379c-6.4-36.2,18.5-65.9,55.2-65.9h3.9
						c36.8,0,61.6,29.6,55.2,65.9L390.9,636.8z"/>
				</defs>
				<clipPath id="SVGID_2_">
					<use xlink:href="#SVGID_1_"  overflow="visible"/>
				</clipPath>
				<g clip-path="url(#SVGID_2_)">
					<path fill="#FBAB18" d="M428.4,382.7c-36.2-1.9-36.2-4.9,0-6.8l257.8-13.3c36.2-1.9,65.9,5.4,65.9,16.1v1.1
						c0,10.7-29.6,18-65.9,16.1L428.4,382.7z"/>
					<path fill="#FBAB18" d="M417.2,495.3c-36.2-1.9-36.2-4.9,0-6.8L675,475.3c36.2-1.9,65.9,5.4,65.9,16.1v1.1
						c0,10.7-29.6,18-65.9,16.1L417.2,495.3z"/>
					<path fill="#FBAB18" d="M412.8,556.6c-36.2-1.9-36.2-4.9,0-6.8l257.8-13.3c36.2-1.9,65.9,5.4,65.9,16.1v1.1
						c0,10.7-29.6,18-65.9,16.1L412.8,556.6z"/>
					<path fill="#E39910" d="M358.1,430.7c36.2-1.9,36.2-4.9,0-6.8l-257.8-13.3c-36.2-1.9-65.9,5.4-65.9,16.1v1.1
						c0,10.7,29.6,18,65.9,16.1L358.1,430.7z"/>
					<path fill="#E39910" d="M343.6,477.5c36.2-1.9,36.2-4.9,0-6.8L85.9,457.4c-36.2-1.9-65.9,5.4-65.9,16.1v1.1
						c0,10.7,29.6,18,65.9,16.1L343.6,477.5z"/>
					<path fill="#E39910" d="M353.7,615.7c36.2-1.9,36.2-4.9,0-6.8L95.9,595.6C59.7,593.8,30,601,30,611.7v1.1
						c0,10.7,29.6,18,65.9,16.1L353.7,615.7z"/>
					<g>
						<path fill="#E39910" d="M395,398.1c3.5-0.4,3.5-1.2,0-1.6l-24.7-3.1c-3.5-0.4-6.3,1.3-6.3,3.8v0.3c0,2.5,2.8,4.2,6.3,3.8
							L395,398.1z"/>
						<path fill="#E39910" d="M342.7,398.1c-3.5-0.4-3.5-1.2,0-1.6l24.7-3.1c3.5-0.4,6.3,1.3,6.3,3.8v0.3c0,2.5-2.8,4.2-6.3,3.8
							L342.7,398.1z"/>
					</g>
					<g>
						<path fill="#E39910" d="M424,451.6c3.5-0.4,3.5-1.2,0-1.6l-24.7-3.1c-3.5-0.4-6.3,1.3-6.3,3.8v0.3c0,2.5,2.8,4.2,6.3,3.8
							L424,451.6z"/>
						<path fill="#E39910" d="M371.7,451.6c-3.5-0.4-3.5-1.2,0-1.6l24.7-3.1c3.5-0.4,6.3,1.3,6.3,3.8v0.3c0,2.5-2.8,4.2-6.3,3.8
							L371.7,451.6z"/>
					</g>
					<g>
						<path fill="#FBAB18" d="M424.3,451.6c3.1-0.4,3.1-1.2,0-1.6l-21.7-3.1c-3-0.4-5.5,1.3-5.5,3.8v0.3c0,2.5,2.5,4.2,5.5,3.8
							L424.3,451.6z"/>
						<path fill="#FBAB18" d="M378.3,451.6c-3.1-0.4-3.1-1.2,0-1.6l21.7-3.1c3-0.4,5.5,1.3,5.5,3.8v0.3c0,2.5-2.5,4.2-5.5,3.8
							L378.3,451.6z"/>
					</g>
					<g>
						<path fill="#E39910" d="M379.4,530.8c3.5-0.4,3.5-1.1,0-1.6l-24.7-3.1c-3.5-0.4-6.3,1.3-6.3,3.8v0.3c0,2.5,2.8,4.2,6.3,3.8
							L379.4,530.8z"/>
						<path fill="#E39910" d="M327.1,530.8c-3.5-0.4-3.5-1.1,0-1.6l24.7-3.1c3.5-0.4,6.3,1.3,6.3,3.8v0.3c0,2.5-2.8,4.2-6.3,3.8
							L327.1,530.8z"/>
					</g>
					<g>
						<path fill="#E39910" d="M391.4,575.4c3.5-0.4,3.5-1.1,0-1.6l-24.7-3.1c-3.5-0.4-6.3,1.3-6.3,3.8v0.3c0,2.5,2.8,4.2,6.3,3.8
							L391.4,575.4z"/>
						<path fill="#E39910" d="M339,575.4c-3.5-0.4-3.5-1.1,0-1.6l24.7-3.1c3.5-0.4,6.3,1.3,6.3,3.8v0.3c0,2.5-2.8,4.2-6.3,3.8
							L339,575.4z"/>
					</g>
					<path fill="#FBAB18" d="M395,396.5l-16.4-2.1v5.7l16.4-2.1C398.5,397.7,398.5,397,395,396.5z"/>
				</g>
			</g>
		</g>
	</g>
</g>
<polygon fill="#F2EFDC" points="720.9,856.9 358,861.5 388.3,700.3 722.7,660.8 "/>
<text transform="matrix(1 0 0 1 389.8725 834.9536)" fill="#253A43" font-family="'AmaticSC-Bold'" font-size="140.4844">gulerod</text>
</svg>
