<?xml version="1.0" encoding="utf-8"?>
<!-- Generator: Adobe Illustrator 18.0.0, SVG Export Plug-In . SVG Version: 6.00 Build 0)  -->
<!DOCTYPE svg PUBLIC "-//W3C//DTD SVG 1.1//EN" "http://www.w3.org/Graphics/SVG/1.1/DTD/svg11.dtd">
<svg version="1.1" id="Lag_1" xmlns="http://www.w3.org/2000/svg" xmlns:xlink="http://www.w3.org/1999/xlink" x="0px" y="0px"
	 viewBox="0 0 300 800" enable-background="new 0 0 300 800" xml:space="preserve">
<g>
	<path fill="#F5F3E1" d="M215,131.9c6-5.4,10.7-5.2,14.4,0v307c-0.3,1.7-0.6,3.5-0.9,5.1c0.3,8.6,0.6,17.1,0.9,25.7v191.8
		c-3.4,3.3-7.8,5.7-13,5.7c-11.4,0-19.8-11.4-19.4-19.8c2.4-68.2,4.9-136.3,7.3-204.5c-6.1-17.5-13.1-5.7-16.9-37.8
		c-6-51-3.9-124.6-5.3-162.9C180.9,170.1,200,145.5,215,131.9"/>
	<path fill="#48172E" d="M216.4,672.1c6.3,0,12.4-2.7,17-7.6c4.7-5,7.4-11.4,7.1-17.2l-6.9-192h-34.6l-6.9,192.1
		c-0.3,5.7,2.4,12.2,7.1,17.1C204,669.4,210.1,672.1,216.4,672.1L216.4,672.1z"/>
</g>
<g>
	<path fill="#F5F3E1" d="M141.9,275.9L141.9,275.9c0-0.2,0-0.4,0-0.5v-0.2h0c-5.3-53.9-10.6-132.2-13.7-132.2
		c-3.1,0-0.8,78.3-0.9,132.2h-8.9c-3.6-53.9-6.3-132.2-9.4-132.2c-3.1,0-3.3,78.3-5.1,132.2h-8.9C93,221.3,92.7,143,89.6,143
		c-3.1,0-5.9,78.3-9.5,132.2h-9C71.1,221.3,73.4,143,70.3,143c-3.1,0-8.5,78.3-13.8,132.2h0v0c0,0.2,0,0.4-0.1,0.7h0.1
		c0.2,28.1,12.6,52.6,34.5,58.4c-3.7,104.4-7.5,208.7-11.2,313.1c-0.4,8.5,8,19.9,19.4,19.8c11.4,0.1,19.8-11.4,19.4-19.8
		c-3.7-104.4-7.5-208.7-11.2-313.1C129.3,328.5,141.7,304.1,141.9,275.9"/>
	<path fill="#48172E" d="M99.2,672.1c-6.3,0-12.4-2.7-17.1-7.6c-4.7-5-7.4-11.4-7.1-17.2L84,396h30.3l9,251.2
		c0.3,5.7-2.4,12.2-7.1,17.1c-4.7,4.9-10.7,7.6-17,7.6H99.2z"/>
</g>
</svg>
