<?xml version="1.0" encoding="utf-8"?>
<!-- Generator: Adobe Illustrator 18.0.0, SVG Export Plug-In . SVG Version: 6.00 Build 0)  -->
<!DOCTYPE svg PUBLIC "-//W3C//DTD SVG 1.1//EN" "http://www.w3.org/Graphics/SVG/1.1/DTD/svg11.dtd">
<svg version="1.1" id="Lag_1" xmlns="http://www.w3.org/2000/svg" xmlns:xlink="http://www.w3.org/1999/xlink" x="0px" y="0px"
	 viewBox="0 0 800 1050" enable-background="new 0 0 800 1050" xml:space="preserve">
<g>
	<g>
		<path fill="#CD5C5C" d="M510.4,891.3c0-6,0.2-7.2,0.5-8.2c1-3.2,3.5-5,7.3-5s6.3,1.8,7.3,5c0.3,1.1,0.5,2.3,0.5,8.2
			s-0.2,7.2-0.5,8.2c-1.1,3.2-3.5,5-7.3,5s-6.3-1.8-7.3-5C510.6,898.5,510.4,897.2,510.4,891.3z M518.2,900.8c1.6,0,2.7-0.7,3.2-2
			c0.3-0.8,0.3-1.7,0.3-7.4s-0.1-6.7-0.3-7.4c-0.5-1.4-1.6-2-3.2-2c-1.6,0-2.6,0.7-3.1,2c-0.3,0.8-0.3,1.7-0.3,7.4s0.1,6.7,0.3,7.4
			C515.5,900.1,516.6,900.8,518.2,900.8z"/>
		<path fill="#CD5C5C" d="M533.4,899.1c1.5,0,2.7,1.2,2.7,2.7c0,1.5-1.2,2.7-2.7,2.7c-1.5,0-2.7-1.2-2.7-2.7
			C530.7,900.3,531.9,899.1,533.4,899.1z"/>
		<path fill="#CD5C5C" d="M542.6,899.6l8.4-10.4c1.1-1.3,1.7-2.6,1.7-4c0-2.1-1.3-3.4-3.4-3.4c-1.9,0-2.9,0.8-3.6,2.5
			c-0.4,1-1.1,1.5-2,1.5c-1.2,0-2-0.7-2-1.9c0-0.2,0-0.4,0.1-0.6c0.6-2.6,3.2-5.3,7.6-5.3c4.7,0,7.6,3.1,7.6,7.1
			c0,2.4-1,4.3-2.6,6.3l-7.4,8.8v0.1h8.2c1.2,0,2,0.8,2,1.9c0,1.1-0.7,1.9-2,1.9h-11.8c-1.2,0-2-0.8-2-1.9
			C541.3,901.4,541.6,900.8,542.6,899.6z"/>
		<path fill="#CD5C5C" d="M573.4,880.6c0-1.4,0.9-2.3,2.2-2.3s2.2,0.9,2.2,2.3V891l9.7-11.8c0.5-0.6,1.1-0.9,1.8-0.9
			c1.1,0,2,0.8,2,1.9c0,0.6-0.2,1.1-0.5,1.5l-6,7l7.2,12.1c0.3,0.5,0.4,1,0.4,1.4c0,1.2-0.9,2.1-2.2,2.1c-0.9,0-1.6-0.5-2.1-1.3
			l-6.3-10.9l-4,5v4.9c0,1.4-0.9,2.3-2.2,2.3s-2.2-0.9-2.2-2.3V880.6z"/>
		<path fill="#CD5C5C" d="M595.8,891.3c0-3.7,0.2-5.3,0.7-7.1c1.3-4,4.6-6.2,9.1-6.2c4,0,6.9,1.7,8.2,4.1c0.2,0.4,0.4,0.8,0.4,1.3
			c0,1.2-0.9,2-2,2c-0.8,0-1.4-0.3-2-1.1c-1.1-1.6-2.5-2.3-4.6-2.3c-2.6,0-4.1,1.3-4.8,3.4c-0.3,1.1-0.5,2.4-0.5,5.9
			s0.2,4.8,0.5,5.9c0.7,2.1,2.2,3.4,4.8,3.4c2.4,0,4.2-1.2,4.8-3.2c0.3-0.9,0.4-2.2,0.4-3.3c0-0.2-0.1-0.2-0.2-0.2h-2.9
			c-1.2,0-2-0.8-2-1.9c0-1.1,0.8-1.9,2-1.9h5.8c1.1,0,1.8,0.7,1.8,1.8v0.7c0,2.1-0.2,4.2-0.7,5.7c-1.3,4.1-4.6,6.3-9,6.3
			c-4.5,0-7.8-2.1-9.1-6.2C595.9,896.5,595.8,895,595.8,891.3z"/>
		<path fill="#253A43" d="M630.4,891.3c0-3.8,0.2-5.3,0.7-7.1c1.3-4,4.5-6.2,8.9-6.2c3.6,0,6.5,1.7,7.7,4.2c0.2,0.4,0.4,0.8,0.4,1.3
			c0,1.2-0.9,2-2,2c-0.8,0-1.4-0.3-2-1.2c-1-1.5-2.2-2.3-4.1-2.3c-2.5,0-3.9,1.3-4.6,3.4c-0.3,1.1-0.5,2.2-0.5,5.9s0.2,4.8,0.5,5.9
			c0.7,2.1,2.2,3.4,4.6,3.4c1.9,0,3.1-0.8,4.1-2.3c0.6-0.9,1.2-1.2,2-1.2c1.1,0,2,0.8,2,2c0,0.5-0.2,0.9-0.4,1.3
			c-1.3,2.5-4.2,4.2-7.7,4.2c-4.4,0-7.6-2.2-8.9-6.2C630.6,896.6,630.4,895.1,630.4,891.3z"/>
		<path fill="#253A43" d="M653.1,884.2c1.3-4,4.6-6.2,9-6.2c4.5,0,7.7,2.1,9,6.2c0.6,1.9,0.8,3.4,0.8,7.1s-0.2,5.3-0.8,7.1
			c-1.3,4-4.6,6.2-9,6.2c-4.4,0-7.7-2.1-9-6.2c-0.6-1.9-0.8-3.4-0.8-7.1S652.5,886,653.1,884.2z M666.8,885.4
			c-0.7-2.1-2.2-3.4-4.7-3.4c-2.5,0-4,1.3-4.7,3.4c-0.4,1.1-0.5,2.5-0.5,5.9s0.2,4.8,0.5,5.9c0.7,2.1,2.2,3.4,4.7,3.4
			c2.5,0,4-1.3,4.7-3.4c0.4-1.1,0.5-2.5,0.5-5.9S667.2,886.5,666.8,885.4z"/>
		<path fill="#253A43" d="M677.6,899.6l8.4-10.4c1.1-1.3,1.7-2.6,1.7-4c0-2.1-1.3-3.4-3.4-3.4c-1.9,0-2.9,0.8-3.6,2.5
			c-0.4,1-1.1,1.5-2,1.5c-1.2,0-2-0.7-2-1.9c0-0.2,0-0.4,0.1-0.6c0.6-2.6,3.2-5.3,7.6-5.3c4.7,0,7.6,3.1,7.6,7.1
			c0,2.4-1,4.3-2.6,6.3l-7.4,8.8v0.1h8.2c1.2,0,2,0.8,2,1.9c0,1.1-0.7,1.9-2,1.9h-11.8c-1.2,0-2-0.8-2-1.9
			C676.3,901.4,676.6,900.8,677.6,899.6z"/>
	</g>
</g>
<g>
	<path fill="#9E9B8F" d="M616,924.8c0.5,0,0.7,0.3,0.7,0.7c0,0.4-0.3,0.7-0.7,0.7h-5c-0.1,0-0.1,0-0.1,0.1v3.4c0,0.1,0,0.1,0.1,0.1
		h4.2c0.5,0,0.7,0.3,0.7,0.7c0,0.4-0.3,0.7-0.7,0.7H611c-0.1,0-0.1,0-0.1,0.1v3.5c0,0.1,0,0.1,0.1,0.1h5c0.5,0,0.7,0.3,0.7,0.7
		c0,0.4-0.3,0.7-0.7,0.7h-5.9c-0.4,0-0.7-0.3-0.7-0.7v-1.9c0-0.1,0-0.1-0.1-0.1H605l-1.3,2.3c-0.2,0.3-0.4,0.4-0.7,0.4
		c-0.4,0-0.7-0.3-0.7-0.7c0-0.1,0-0.3,0.1-0.4l5.7-9.8c0.3-0.5,0.5-0.7,1.1-0.7H616z M605.8,932.3h3.4c0.1,0,0.1,0,0.1-0.1v-6h-0.1
		L605.8,932.3z"/>
	<path fill="#9E9B8F" d="M618.8,925.5c0-0.5,0.3-0.8,0.8-0.8c0.4,0,0.7,0.3,0.7,0.8v5.5l4.9-6c0.2-0.2,0.4-0.3,0.6-0.3
		c0.4,0,0.7,0.3,0.7,0.7c0,0.2-0.1,0.4-0.2,0.5l-3,3.5l3.4,5.9c0.1,0.2,0.2,0.3,0.2,0.5c0,0.4-0.3,0.7-0.7,0.7
		c-0.3,0-0.5-0.2-0.7-0.4l-3.1-5.4l-2.1,2.5v2.6c0,0.5-0.3,0.8-0.7,0.8c-0.5,0-0.8-0.3-0.8-0.8V925.5z"/>
	<path fill="#9E9B8F" d="M632.6,933.9L632.6,933.9l2.9-8.6c0.1-0.4,0.4-0.6,0.7-0.6c0.4,0,0.7,0.3,0.7,0.7c0,0.1,0,0.2-0.1,0.4
		l-3.3,9.7c-0.2,0.6-0.5,0.9-0.9,0.9c-0.5,0-0.7-0.3-0.9-0.9l-3.3-9.7c-0.1-0.2-0.1-0.3-0.1-0.4c0-0.4,0.3-0.7,0.7-0.7
		c0.4,0,0.6,0.2,0.7,0.6L632.6,933.9z"/>
	<path fill="#9E9B8F" d="M638.2,934.5c0.5,0,1,0.4,1,1s-0.4,1-1,1c-0.5,0-1-0.4-1-1S637.6,934.5,638.2,934.5z"/>
	<path fill="#9E9B8F" d="M645.7,925.5c0-0.4,0.3-0.7,0.7-0.7h3.6c2.3,0,3.7,1.4,3.7,3.4c0,2.1-1.4,3.4-3.7,3.4h-2.6
		c-0.1,0-0.1,0-0.1,0.1v3.8c0,0.5-0.3,0.8-0.7,0.8c-0.5,0-0.8-0.3-0.8-0.8V925.5z M652.1,928.3c0-1.3-0.8-2-2.3-2h-2.6
		c-0.1,0-0.1,0-0.1,0.1v3.9c0,0.1,0,0.1,0.1,0.1h2.6C651.3,930.3,652.1,929.5,652.1,928.3z"/>
	<path fill="#9E9B8F" d="M655.6,935.6v-10.1c0-0.4,0.3-0.7,0.7-0.7h3.6c2.2,0,3.6,1.3,3.6,3.3c0,1.5-0.8,2.7-2.2,3.1l2.1,4.1
		c0.1,0.1,0.1,0.3,0.1,0.4c0,0.4-0.3,0.7-0.7,0.7c-0.3,0-0.5-0.2-0.7-0.5l-2.3-4.5h-2.6c-0.1,0-0.1,0-0.1,0.1v4.1
		c0,0.5-0.3,0.8-0.7,0.8C656,936.4,655.6,936.1,655.6,935.6z M662.1,928.1c0-1.2-0.8-1.9-2.1-1.9h-2.7c-0.1,0-0.1,0-0.1,0.1v3.6
		c0,0.1,0,0.1,0.1,0.1h2.7C661.3,930.1,662.1,929.3,662.1,928.1z"/>
	<path fill="#9E9B8F" d="M666.7,934.5c0.5,0,1,0.4,1,1s-0.4,1-1,1c-0.5,0-1-0.4-1-1S666.2,934.5,666.7,934.5z"/>
	<path fill="#9E9B8F" d="M674.2,925.5c0-0.5,0.3-0.8,0.8-0.8c0.4,0,0.7,0.3,0.7,0.8v5.5l4.9-6c0.2-0.2,0.4-0.3,0.6-0.3
		c0.4,0,0.7,0.3,0.7,0.7c0,0.2-0.1,0.4-0.2,0.5l-3,3.5l3.4,5.9c0.1,0.2,0.2,0.3,0.2,0.5c0,0.4-0.3,0.7-0.7,0.7
		c-0.3,0-0.5-0.2-0.7-0.4l-3.1-5.4l-2.1,2.5v2.6c0,0.5-0.3,0.8-0.7,0.8c-0.5,0-0.8-0.3-0.8-0.8V925.5z"/>
	<path fill="#9E9B8F" d="M683.6,930.6c0-1.6,0.1-2.4,0.3-3.2c0.6-1.8,1.9-2.7,3.9-2.7c1.7,0,3,0.7,3.6,1.9c0.1,0.1,0.1,0.3,0.1,0.5
		c0,0.4-0.3,0.7-0.7,0.7c-0.3,0-0.5-0.1-0.7-0.4c-0.5-0.8-1.3-1.2-2.3-1.2c-1.3,0-2.1,0.7-2.4,1.8c-0.2,0.6-0.3,1.2-0.3,2.8
		c0,1.5,0.1,2.2,0.3,2.8c0.3,1.1,1.1,1.8,2.4,1.8c1.3,0,2.2-0.6,2.5-1.7c0.2-0.5,0.2-1.2,0.2-1.7c0-0.1,0-0.1-0.1-0.1h-1.8
		c-0.5,0-0.7-0.3-0.7-0.7c0-0.4,0.3-0.7,0.7-0.7h2.7c0.4,0,0.7,0.3,0.7,0.7v0.3c0,0.8-0.1,1.8-0.3,2.5c-0.6,1.8-2,2.8-3.9,2.8
		c-2,0-3.3-1-3.9-2.7C683.7,933,683.6,932.2,683.6,930.6z"/>
</g>
<path fill="#405933" d="M400.7,780c-209.9,0-380-170.1-380-380s170.1-380,380-380s380,170.1,380,380S610.5,780,400.7,780z"/>
<g>
	<defs>
		<path id="SVGID_1_" d="M400,780C190.1,780,20,609.9,20,400S190.1,20,400,20s380,170.1,380,380S609.9,780,400,780z"/>
	</defs>
	<clipPath id="SVGID_2_">
		<use xlink:href="#SVGID_1_"  overflow="visible"/>
	</clipPath>
	<path clip-path="url(#SVGID_2_)" fill="#2D4124" d="M564.5,195.3l-0.6,0.6c0-0.1-0.1-0.1-0.1-0.1c-6.1-6.1-16-6.1-22.1,0
		c-1.4,1.4-2.4,3-3.2,4.6c-7-0.2-14,2.3-19.3,7.6c0,0,0,0,0,0c-3.1-2.9-7-4.3-10.9-4.2c-0.7-4.1-3.1-7.9-6.8-10.4
		c-6.7-4.4-15.5-2.8-20.5,3.2c-9.7-3.8-20.9-1.5-28.2,5.9c-7.1-3.9-16.1-1.7-20.5,5.2c-3.5,5.4-3.2,12.3,0.3,17.3
		c-1.4,1.4-2.8,2.9-4,4.7c-7.9,12.1-4.4,28.4,7.7,36.2c4,2.6,8.3,3.8,12.7,4.1c-8.4,13.9-16.4,28.1-24,42.6
		c-19.3-2.5-39.1,5.9-52.2,24.5L222.7,551.7c-11.4,16.4-14.4,26-10,28l249.4,249.4c4.7,0.2,9.4,0.4,14.2,0.4
		C674,829.5,777,619,795.1,425.9L564.5,195.3z"/>
</g>
<g>
	<g>
		<path fill="#71841F" d="M452.9,345.1c-12.1,9.1-15.2,6-6.1-6.1c21.4-28.6,45-56,69.9-81.6c10.7-10.6,21.2-13,25.7-8.4
			c0.2,0.2,0.3,0.3,0.5,0.5c4.6,4.5,2.2,15-8.4,25.7C508.9,300.1,481.4,323.6,452.9,345.1z"/>
		<path fill="#71841F" d="M518.9,230.5c-6.1,6.1-16,6.1-22.1,0c-6.1-6.1-6.1-15.9,0-22.1c6.1-6.1,16-6.1,22.1,0
			C525,214.5,525,224.4,518.9,230.5z"/>
		<path fill="#71841F" d="M563.1,217.9c-6.1,6.1-16,6.1-22.1,0c-6.1-6.1-6.1-16,0-22.1c6.1-6.1,16-6.1,22.1,0
			C569.2,201.9,569.2,211.8,563.1,217.9z"/>
		<path fill="#71841F" d="M586.7,257.3c-6.1,6.1-16,6.1-22.1,0c-6.1-6.1-6.1-16,0-22.1c6.1-6.1,16-6.1,22.1,0
			C592.8,241.3,592.8,251.2,586.7,257.3z"/>
		<path fill="#71841F" d="M573.7,254.5c-8.5,8.5-22.2,8.5-30.7,0c-8.5-8.5-8.5-22.2,0-30.7c8.5-8.5,22.3-8.5,30.7,0
			C582.2,232.3,582.2,246,573.7,254.5z"/>
		<path fill="#71841F" d="M530.4,263.2c-10.2,10.2-26.8,10.2-37,0c-10.2-10.2-10.2-26.8,0-37c10.2-10.2,26.8-10.2,37,0
			C540.6,236.4,540.6,253,530.4,263.2z"/>
		<path fill="#71841F" d="M555.6,245.1c-10.2,10.2-26.8,10.3-37,0c-10.2-10.2-10.2-26.8,0-37c10.2-10.2,26.8-10.2,37,0
			C565.8,218.3,565.8,234.8,555.6,245.1z"/>
		<path fill="#71841F" d="M561.9,282.9c-10.2,10.2-26.8,10.2-37,0c-10.2-10.2-10.2-26.8,0-37c10.2-10.2,26.8-10.2,37,0
			C572.1,256.1,572.1,272.7,561.9,282.9z"/>
	</g>
	<g>
		<path fill="#879C29" d="M413.1,354.6c-9.9,11.4-13.6,9-7.3-4.7c15-32.4,32.3-64.2,51.4-94.4c8.3-12.6,18-17.2,23.4-13.6
			c0.2,0.1,0.4,0.3,0.6,0.4c5.4,3.4,5.3,14.2-2.9,26.9C458.5,298.9,436.6,327.7,413.1,354.6z"/>
		<path fill="#879C29" d="M457.7,224.8c-4.7,7.2-14.4,9.3-21.6,4.6c-7.2-4.7-9.3-14.3-4.6-21.6c4.7-7.2,14.4-9.3,21.6-4.6
			C460.3,207.9,462.4,217.6,457.7,224.8z"/>
		<path fill="#879C29" d="M505.4,215.1c-4.7,7.2-14.3,9.3-21.6,4.6c-7.2-4.7-9.3-14.4-4.6-21.6c4.7-7.2,14.3-9.3,21.6-4.6
			C508,198.2,510.1,207.8,505.4,215.1z"/>
		<path fill="#879C29" d="M525.7,240.8c-4.7,7.2-14.3,9.3-21.6,4.6c-7.2-4.7-9.3-14.3-4.6-21.6c4.7-7.2,14.4-9.3,21.6-4.6
			C528.3,223.9,530.4,233.6,525.7,240.8z"/>
		<path fill="#879C29" d="M512.4,240.8c-6.5,10.1-20,12.9-30.1,6.4c-10.1-6.5-12.9-20-6.4-30c6.5-10.1,20-13,30.1-6.4
			C516,217.3,518.9,230.8,512.4,240.8z"/>
		<path fill="#879C29" d="M471.8,258.4c-7.9,12.1-24.1,15.6-36.2,7.7c-12.1-7.9-15.6-24.1-7.7-36.2c7.9-12.1,24.1-15.6,36.2-7.7
			C476.2,230,479.7,246.2,471.8,258.4z"/>
		<path fill="#879C29" d="M492.7,235.3c-7.8,12.1-24.1,15.6-36.2,7.7c-12.1-7.9-15.6-24.1-7.7-36.2c7.9-12.1,24.1-15.6,36.2-7.7
			C497.1,207,500.5,223.2,492.7,235.3z"/>
		<path fill="#879C29" d="M506.7,271c-7.9,12.1-24.1,15.6-36.2,7.7c-12.1-7.9-15.6-24.1-7.7-36.2c7.9-12.1,24.1-15.6,36.2-7.7
			C511.1,242.7,514.6,258.9,506.7,271z"/>
	</g>
	<g>
		<path fill="#879C29" d="M426.7,380.8c-11.4,9.9-9,13.6,4.7,7.3c32.4-15,64.2-32.3,94.4-51.4c12.6-8.3,17.2-18,13.6-23.4
			c-0.1-0.2-0.3-0.4-0.4-0.6c-3.5-5.4-14.2-5.3-26.9,2.9C482.4,335.3,453.6,357.3,426.7,380.8z"/>
		<path fill="#879C29" d="M556.5,336.1c-7.2,4.7-9.3,14.4-4.6,21.6c4.7,7.2,14.3,9.3,21.6,4.6c7.2-4.7,9.3-14.4,4.6-21.6
			C573.4,333.5,563.7,331.4,556.5,336.1z"/>
		<path fill="#879C29" d="M566.2,288.5c-7.2,4.7-9.3,14.4-4.6,21.6c4.7,7.2,14.4,9.3,21.6,4.6c7.2-4.7,9.3-14.3,4.6-21.6
			C583.1,285.9,573.4,283.8,566.2,288.5z"/>
		<path fill="#879C29" d="M540.5,268.2c-7.2,4.7-9.3,14.3-4.6,21.6c4.7,7.2,14.4,9.3,21.6,4.6c7.2-4.7,9.3-14.4,4.6-21.6
			C557.3,265.6,547.7,263.5,540.5,268.2z"/>
		<path fill="#879C29" d="M540.4,281.5c-10.1,6.5-12.9,20-6.4,30.1c6.5,10.1,20,12.9,30.1,6.4c10.1-6.5,12.9-20,6.4-30.1
			C564,277.8,550.5,275,540.4,281.5z"/>
		<path fill="#879C29" d="M522.9,322.1c-12.1,7.9-15.6,24.1-7.7,36.2c7.9,12.1,24.1,15.6,36.2,7.7c12.1-7.9,15.6-24.1,7.7-36.2
			C551.3,317.7,535.1,314.2,522.9,322.1z"/>
		<path fill="#879C29" d="M545.9,301.2c-12.1,7.9-15.6,24.1-7.7,36.2c7.9,12.1,24.1,15.6,36.2,7.7c12.1-7.8,15.6-24.1,7.7-36.2
			C574.3,296.8,558,293.3,545.9,301.2z"/>
		<path fill="#879C29" d="M510.2,287.1c-12.1,7.9-15.6,24.1-7.7,36.2c7.9,12.1,24.1,15.6,36.2,7.7c12.2-7.9,15.6-24.1,7.7-36.2
			C538.6,282.7,522.4,279.3,510.2,287.1z"/>
	</g>
	<g>
		<path fill="#FBAB18" d="M238.5,568.2c-30.2,21.1-37.6,13.7-16.5-16.5l150.1-214.5c21.1-30.1,59.6-33.5,85.6-7.5l2.8,2.8
			c26,26,22.6,64.5-7.5,85.6L238.5,568.2z"/>
		<path fill="#E39910" d="M460.5,332.5L459,331l-248,248c2.9,3.1,12.3-0.2,27.5-10.9L453,418.1C483.1,397.1,486.5,358.5,460.5,332.5
			z"/>
		<g>
			<defs>
				<path id="SVGID_3_" d="M238.5,568.2c-30.2,21.1-37.6,13.7-16.5-16.5l150.1-214.5c21.1-30.1,59.6-33.5,85.6-7.5l2.8,2.8
					c26,26,22.6,64.5-7.5,85.6L238.5,568.2z"/>
			</defs>
			<clipPath id="SVGID_4_">
				<use xlink:href="#SVGID_3_"  overflow="visible"/>
			</clipPath>
			<g clip-path="url(#SVGID_4_)">
				<path fill="#FBAB18" d="M444.6,415c-24.3-26.9-22.1-29.1,4.8-4.8l191.7,172.9c26.9,24.3,42.8,50.4,35.2,57.9l-0.8,0.8
					c-7.6,7.6-33.7-8.3-57.9-35.2L444.6,415z"/>
				<path fill="#FBAB18" d="M357.1,486.7c-24.3-26.9-22.1-29.1,4.8-4.8l191.7,172.9c26.9,24.3,42.8,50.4,35.2,58l-0.8,0.8
					c-7.6,7.6-33.7-8.3-58-35.2L357.1,486.7z"/>
				<path fill="#FBAB18" d="M310.6,526.9c-24.3-26.9-22.1-29.1,4.8-4.8L507.1,695c26.9,24.3,42.8,50.4,35.2,57.9l-0.8,0.8
					c-7.6,7.6-33.7-8.3-58-35.2L310.6,526.9z"/>
				<path fill="#E39910" d="M361.1,399.2c26.9,24.3,29.1,22.1,4.8-4.8L193,202.8c-24.3-26.9-50.4-42.7-57.9-35.2l-0.8,0.8
					c-7.6,7.6,8.3,33.7,35.2,57.9L361.1,399.2z"/>
				<path fill="#E39910" d="M317.7,422.1c26.9,24.3,29.1,22.1,4.8-4.8L149.6,225.6c-24.3-26.9-50.4-42.8-57.9-35.2l-0.8,0.8
					c-7.6,7.6,8.3,33.7,35.2,57.9L317.7,422.1z"/>
				<path fill="#E39910" d="M227.1,526.9c26.9,24.3,29.1,22.1,4.8-4.8L59,330.5c-24.3-26.9-50.4-42.8-57.9-35.2l-0.8,0.8
					c-7.6,7.6,8.3,33.7,35.2,57.9L227.1,526.9z"/>
				<g>
					<path fill="#E39910" d="M410.2,402.3c2.8,2.1,3.3,1.6,1.1-1.1l-15.2-19.6c-2.1-2.8-5.3-3.6-7.1-1.8l-0.2,0.2
						c-1.8,1.8-1,5,1.8,7.2L410.2,402.3z"/>
					<path fill="#E39910" d="M373.2,365.3c-2.1-2.8-1.6-3.2,1.1-1.1l19.7,15.2c2.8,2.1,3.6,5.4,1.8,7.1l-0.2,0.2
						c-1.8,1.8-5,1-7.2-1.8L373.2,365.3z"/>
				</g>
				<g>
					<path fill="#E39910" d="M392.8,460.6c2.8,2.2,3.3,1.6,1.1-1.1l-15.2-19.7c-2.1-2.8-5.3-3.6-7.1-1.8l-0.2,0.2
						c-1.8,1.8-1,5,1.8,7.1L392.8,460.6z"/>
					<path fill="#E39910" d="M355.8,423.6c-2.1-2.8-1.6-3.3,1.1-1.1l19.7,15.2c2.8,2.1,3.6,5.3,1.8,7.1l-0.2,0.2
						c-1.8,1.8-5,1-7.1-1.8L355.8,423.6z"/>
				</g>
				<g>
					<path fill="#FBAB18" d="M393,460.9c2.5,1.8,3,1.3,1.1-1.1l-13.1-17.5c-1.8-2.5-4.8-3-6.6-1.2l-0.2,0.2
						c-1.8,1.8-1.2,4.8,1.2,6.6L393,460.9z"/>
					<path fill="#FBAB18" d="M360.5,428.3c-1.8-2.4-1.3-3,1.1-1.1l17.5,13.1c2.5,1.8,3,4.8,1.2,6.6l-0.2,0.2
						c-1.8,1.8-4.8,1.2-6.6-1.2L360.5,428.3z"/>
				</g>
				<g>
					<path fill="#E39910" d="M305.3,485c2.8,2.2,3.3,1.7,1.1-1.1l-15.2-19.7c-2.1-2.8-5.3-3.6-7.1-1.8l-0.2,0.2
						c-1.8,1.8-1,5,1.8,7.1L305.3,485z"/>
					<path fill="#E39910" d="M268.3,448c-2.2-2.8-1.6-3.3,1.1-1.1l19.7,15.2c2.8,2.1,3.6,5.3,1.8,7.1l-0.2,0.2c-1.8,1.8-5,1-7.1-1.8
						L268.3,448z"/>
				</g>
				<g>
					<path fill="#E39910" d="M282.3,525.1c2.8,2.1,3.3,1.6,1.1-1.1l-15.2-19.6c-2.1-2.8-5.3-3.6-7.1-1.8l-0.2,0.2
						c-1.8,1.8-1,5,1.8,7.1L282.3,525.1z"/>
					<path fill="#E39910" d="M245.3,488c-2.1-2.8-1.6-3.2,1.1-1.1l19.6,15.2c2.8,2.2,3.6,5.4,1.8,7.1l-0.2,0.2c-1.8,1.8-5,1-7.2-1.8
						L245.3,488z"/>
				</g>
				<path fill="#FBAB18" d="M411.3,401.2l-10.1-13l-4.1,4.1l13.1,10.1C412.9,404.5,413.4,403.9,411.3,401.2z"/>
			</g>
		</g>
	</g>
</g>
<polygon fill="#F2EFDC" points="720.9,856.9 358,861.5 383.3,694.3 722.7,660.8 "/>
<g>
	<path fill="#253A43" d="M447.3,809.5l-5.3,0.5c-3.1,0-4.7-1.3-4.7-4c0-2.3,2.9-3.8,8.7-4.5c1.1-0.1,2.4-0.2,3.8-0.2
		c1.4,0,2.6,0.7,3.6,2.2c1,1.5,1.5,3.4,1.5,5.9c0,2.4,0.5,6.4,1.4,12c0.9,5.5,1.4,9.3,1.4,11.2c0,3.4-1.2,5.1-3.5,5.1
		c-2.3,0-3.9-1-4.7-2.9v-0.1c-0.5,0.3-1.5,0.8-2.9,1.6c-2.8,1.6-5.3,2.3-7.4,2.3s-4.3-0.4-6.4-1.3c-2.1-0.9-4-2-5.5-3.3
		c-1.5-1.3-2.9-3.1-4.1-5.2c-1.2-2.1-2.2-4.3-3-6.4c-0.8-2.1-1.5-4.6-2.1-7.4c-0.6-2.8-1-5.4-1.3-7.6c-0.3-2.2-0.5-4.8-0.7-7.8
		c-0.2-3.7-0.3-8.1-0.3-13.4l-0.1-10.4c0-22,3.1-36.6,9.3-43.7c3.6-4.2,8.3-6.3,14.1-6.3c3.7,0,5.6,1.3,5.6,4c0,1-0.4,1.8-1.1,2.4
		c-0.7,0.6-1.5,0.9-2.5,0.9l-3.8-0.7c-3.4,0-6.1,2.1-8,6.4c-2,4.4-3.3,8.7-3.9,13c-0.6,4.3-1,7.7-1.3,10.3c-0.3,2.6-0.5,5.4-0.5,8.6
		c-0.2,4.4-0.3,8.9-0.3,13.3l-0.1,8.7c0,9.2,0.4,15.6,1.2,19.3c0.8,3.7,1.6,6.6,2.4,8.9c0.8,2.2,1.7,4.1,2.8,5.6
		c2.6,3.3,5.8,5,9.8,5c4,0,7.3-2,10-5.9C449.3,817.1,448.6,811.8,447.3,809.5z"/>
	<path fill="#253A43" d="M501.9,794.8l0.4,8.6v2.1L502,807l0.1,8.2c0,8.2-1.2,14.1-3.5,17.5c-2.2,3.2-5.6,4.8-10.2,4.8
		c-5.6,0-9.9-2-12.8-6.1c-2.6-3.5-4.4-8.1-5.6-14c-1.5-7-2.7-12-3.6-15c-0.1-0.2-0.6-10.7-1.5-31.4c-0.9-20.7-1.4-32.2-1.4-34.5
		c-0.7-0.8-1-1.7-1-2.9c0-1.1,0.4-2.1,1.2-3c0.8-0.9,1.8-1.3,2.8-1.3c3.4,0,5.1,3.3,5.1,10l1.3,48.8c0.5,1.2,1,3.7,1.4,7.5
		c0.4,3.8,0.6,6.7,0.6,8.7c0,2.1,0.3,4.6,1,7.7c0.7,3,1.6,6.1,2.7,9.2c1.1,3.1,2.7,5.8,4.6,8s4,3.3,6.2,3.3c3.6,0,5.4-3.2,5.6-9.7
		c0-0.8,0.1-1.8,0.1-2.9v-63c0-2.7-0.5-6.7-1.5-12c-1-5.4-1.5-9-1.5-10.9c0-1.9,0.5-3.2,1.4-3.9c0.9-0.7,2-1.1,3.2-1.1l4.3,3.3v2.3
		l-1.2,8.6c0,5.4,0.3,13.4,1,23.9c0.7,10.5,1.1,18.3,1.1,23.4v0.2L501.9,794.8z"/>
	<path fill="#253A43" d="M520.1,731.2l1.4,50.6c0,1.6-0.1,3.1-0.3,4.5v0.6c0.1,2.7,0.3,6.5,0.6,11.5c0.7,11.1,1,19.5,1,25.1v4.5h10
		c1.6,0.9,2.4,1.6,2.7,2c0.2,0.4,0.3,1,0.3,1.7c0,0.8-0.3,1.5-1,2.3c-0.7,0.8-1.4,1.2-2.1,1.2s-1.6-0.2-2.5-0.5
		c-0.8,0.2-1.7,0.3-2.7,0.3l-4.5-0.2c-1,1.1-2.2,1.7-3.6,1.7s-2.7-0.4-3.6-1.3s-1.5-1.9-1.5-3.1l0.9-6.2c0-10.7-0.5-26.6-1.4-47.9
		c-0.9-21.3-1.4-37.3-1.4-47.9c0-0.9,0.3-1.6,1-2.1c0.7-0.5,1.5-0.8,2.6-0.8s2,0.4,2.8,1.2C519.7,729.1,520.1,730.1,520.1,731.2z"/>
	<path fill="#253A43" d="M559.1,783.5l-3.5-0.1c-1.1,0-1.9,0.3-2.5,1v43.4c4.8-0.3,7.3-0.4,7.4-0.4c5.2,0,7.8,1.2,7.8,3.7v0.5
		c-0.6,1.3-1.7,2.3-3.3,2.9c-1.5,0.7-2.9,1.1-4,1.2c-1.1,0.1-2.7,0.1-4.5,0.1h-4.4c-3.6,0-5.8-0.7-6.6-2.1c-0.4-0.6-0.5-1.5-0.5-2.5
		V729.8l12.1-1.2c1.4,0,2.8,0.4,4.3,1.3c1.4,0.8,2.2,2,2.2,3.3c0,2.8-2.1,4.2-6.4,4.2l-4-0.1c-0.7,0-1.2,0-1.5,0.1l1.1,23.2
		c0,1.9-0.1,4.6-0.3,8.2c-0.2,3.6-0.3,6.2-0.3,7.9c0.5-0.1,1.2-0.3,2.1-0.5c1.9-0.5,3.4-0.8,4.5-0.8c1.1,0,2,0.4,2.9,1.2
		c0.8,0.8,1.3,1.7,1.3,2.8s-0.3,2.1-1,3C561.1,783.1,560.2,783.5,559.1,783.5z"/>
	<path fill="#253A43" d="M607,831.8c0,3.1-1.1,4.6-3.4,4.6c-1.7,0-3.4-1.3-5.1-3.8v-0.5c-0.2-3.7-1.4-8.9-3.5-15.4
		c-2.1-6.5-3.4-11-3.9-13.2c-0.5-2.3-1.3-6.6-2.4-12.9c-1.1-6.3-2.1-11.2-2.9-14.5v55.4c0,3-1.5,4.5-4.6,4.5c-1.1,0-2-0.4-2.8-1.1
		c-0.8-0.8-1.2-1.7-1.2-2.8v-1.1l1-82.4v-17.3c0-1.1,0.2-1.9,0.7-2.3c0.5-0.5,1.8-0.7,4-0.7c2.2,0,4.4,0.7,6.7,2.2
		c2.3,1.4,4.1,3.3,5.5,5.6c2.8,4.7,4.3,9.9,4.3,15.6c0,4.6-1.1,9.8-3.4,15.7c-0.3,0.6-0.8,2-1.6,4s-1.3,3.3-1.4,3.6
		c0,3.7,0.7,8.2,1.8,13.7c1.2,5.5,2.3,9.9,3.3,13.2c1,3.4,2.7,8.6,5,15.7c2.4,7.1,3.7,11.2,4,12.2V831.8z M585.4,734.6l-0.8,28.7
		c0,2.9,0,5,0.1,6.4c1.6-1.5,3.1-3.3,4.5-5.4l2.1-12.1c0-4.8-0.6-8.9-1.9-12.2C588.2,736.7,586.9,734.9,585.4,734.6z"/>
	<path fill="#253A43" d="M647.6,792.6l-1.2,17.8v0.6c-0.6,2.6-0.9,5.4-0.9,8.4s-0.5,5.9-1.5,8.7s-2.6,5.3-4.7,7.5
		c-2.1,2.2-4.4,3.3-7,3.3c-2.5,0-4.8-0.9-6.9-2.6c-2.1-1.7-3.8-4-5.1-6.7c-1.3-2.7-2.5-6-3.6-9.7c-1.1-3.8-1.9-7.5-2.4-11
		s-1-7.4-1.4-11.4c-0.5-6.1-0.8-11.1-0.8-15c0-3.9,0.1-7.1,0.2-9.6c0.2-4.6,0.4-8.7,0.6-12.3c0.2-3.6,0.4-6.3,0.4-8.3
		c0-1.9,0.1-3.5,0.1-4.9s0.2-3,0.4-4.9c0.2-1.9,0.5-3.6,0.8-5c0.3-1.4,0.8-2.8,1.5-4.3c0.7-1.5,1.5-2.7,2.4-3.7
		c2.1-2.1,4.5-3.2,7.1-3.2c2.6,0,4.7,0.3,6.2,0.8c1.6,0.5,2.9,1.2,3.9,2c1.1,0.8,2.1,1.9,3,3.2c0.9,1.3,1.6,2.6,2.2,3.8
		c0.6,1.2,1.1,2.7,1.5,4.5c0.6,2.2,1.2,5.3,1.8,9.4C646.5,765.8,647.6,780,647.6,792.6z M635.3,741.1c-0.9-2.4-2-4.3-3.4-5.6
		c-1.3-1.3-2.7-2-3.9-2c-1.3,0-2.3,0.3-3.1,1c-0.8,0.6-1.4,1.6-2,2.9s-1.1,2.6-1.5,4.1c-0.5,1.4-0.8,3.2-1.1,5.3
		c-0.3,2.1-0.6,4-0.8,5.7c-0.2,1.7-0.4,3.7-0.5,6c-0.1,2.3-0.3,4.2-0.3,5.7c-0.1,1.5-0.1,3.2-0.2,5.3c0,2.1,0,3.4,0,4.1v2.9
		c0,7.5,0.7,16.2,2.1,25.9c2.8,19.2,6.8,28.7,12,28.7c1.8,0,3.4-1.7,4.7-5.2c1.3-3.5,2.2-7.9,2.7-13.1c0.9-8.9,1.4-15.4,1.4-19.4
		c0-4,0-6.9,0-8.6c0-1.7-0.1-4.3-0.2-7.6c-0.1-3.3-0.3-6.4-0.6-9.3c-0.3-2.9-0.6-6.1-1-9.6c-0.4-3.5-1-6.7-1.7-9.4
		S636.2,743.5,635.3,741.1z"/>
	<path fill="#253A43" d="M658.2,767.6l0.4-15.4c0-4.3-0.2-7.5-0.6-9.4c-0.4-1.9-0.9-3.7-1.5-5.4s-0.9-3-0.9-3.9s0.2-1.6,0.5-2.2
		c0.4-0.6,0.9-1.1,1.6-1.4s1.4-0.6,2.1-0.8c0.7-0.2,1.6-0.4,2.6-0.4c1.7-0.1,3-0.1,3.8-0.1h1.4c3.8,0,7.9,2.1,12.3,6.2
		c5.3,5,8.5,10.2,9.6,15.8c0.7,3.2,1.1,6.9,1.4,10.8c0.2,4,0.4,6.6,0.5,8c0.3,3,0.6,5.1,1.1,6.2v6.5c-0.5,0.9-0.8,2.3-0.8,4.3
		c0,7.1-1.6,14.8-4.9,23.3c-3.2,8.4-7.3,14.8-12.1,19.2c-3.6,3.2-6,5.2-7.2,5.8c-1.3,0.6-2.5,0.9-3.7,0.9c-1.2,0-2.5-0.4-3.9-1.2
		c-1.4-0.8-2.1-2-2.1-3.6c2.1-2.1,3.1-7.7,3.1-16.5c0-5.2-0.4-13-1.3-23.3C658.6,780.4,658.2,772.7,658.2,767.6z M667.5,813.7v13.4
		c7.3-5.1,12.4-14.7,15.3-28.6c1.5-7.1,2.2-14.5,2.2-22.2c0-26.3-6.5-39.4-19.5-39.4v0.1c0,8.7,0.3,21.6,1,38.6
		C667.1,792.7,667.4,805.4,667.5,813.7z"/>
</g>
</svg>
