<?xml version="1.0" encoding="utf-8"?>
<!-- Generator: Adobe Illustrator 18.0.0, SVG Export Plug-In . SVG Version: 6.00 Build 0)  -->
<!DOCTYPE svg PUBLIC "-//W3C//DTD SVG 1.1//EN" "http://www.w3.org/Graphics/SVG/1.1/DTD/svg11.dtd">
<svg version="1.1" id="Lag_1" xmlns="http://www.w3.org/2000/svg" xmlns:xlink="http://www.w3.org/1999/xlink" x="0px" y="0px"
	 viewBox="0 0 800 1050" enable-background="new 0 0 800 1050" xml:space="preserve">
<path fill="#A6DAE9" d="M400,20c209.9,0,380,170.1,380,380S609.9,780,400,780C190.1,780,20,609.9,20,400S190.1,20,400,20z"/>
<g>
	<g>
		<path fill="#CD5C5C" d="M536.1,886.5L536.1,886.5l-2.9,2c-0.4,0.3-0.8,0.4-1.3,0.4c-0.9,0-1.8-0.8-1.8-1.9c0-0.7,0.4-1.3,1.1-1.9
			l4.1-2.9c0.9-0.6,1.7-1,2.6-1c1.4,0,2.3,1,2.3,2.5v21.4c0,1.4-0.9,2.2-2.1,2.2s-2.1-0.8-2.1-2.2V886.5z"/>
		<path fill="#CD5C5C" d="M552.4,904.2l4.4-7.7l-0.1-0.1c-0.4,0.2-1.1,0.3-1.9,0.3c-4,0-7.3-2.9-7.3-7.6c0-5.3,3.6-8.1,8.2-8.1
			s8.2,2.9,8.2,7.9c0,2-0.7,4.1-1.7,5.9l-6.2,11.3c-0.4,0.8-1.1,1.2-1.9,1.2c-1.1,0-2-0.7-2-1.9C552.1,905,552.2,904.6,552.4,904.2z
			 M559.6,888.9c0-2.4-1.5-4.1-3.9-4.1s-3.9,1.7-3.9,4.1s1.5,4.1,3.9,4.1S559.6,891.3,559.6,888.9z"/>
		<path fill="#CD5C5C" d="M579.9,883.6c0-1.4,0.9-2.3,2.2-2.3s2.2,0.9,2.2,2.3V894l9.7-11.8c0.5-0.6,1.1-0.9,1.8-0.9
			c1.1,0,2,0.8,2,1.9c0,0.6-0.2,1.1-0.5,1.5l-6,7l7.2,12.1c0.3,0.5,0.4,1,0.4,1.4c0,1.2-0.9,2.1-2.2,2.1c-0.9,0-1.6-0.5-2.1-1.3
			l-6.3-10.9l-4,5v4.9c0,1.4-0.9,2.3-2.2,2.3s-2.2-0.9-2.2-2.3V883.6z"/>
		<path fill="#CD5C5C" d="M602.2,894.3c0-3.7,0.2-5.3,0.7-7.1c1.3-4,4.6-6.2,9.1-6.2c4,0,6.9,1.7,8.2,4.1c0.2,0.4,0.4,0.8,0.4,1.3
			c0,1.2-0.9,2-2,2c-0.8,0-1.4-0.3-2-1.1c-1.1-1.6-2.5-2.3-4.6-2.3c-2.6,0-4.1,1.3-4.8,3.4c-0.3,1.1-0.5,2.4-0.5,5.9
			s0.2,4.8,0.5,5.9c0.7,2.1,2.2,3.4,4.8,3.4c2.4,0,4.2-1.2,4.8-3.2c0.3-0.9,0.4-2.2,0.4-3.3c0-0.2-0.1-0.2-0.2-0.2h-2.9
			c-1.2,0-2-0.8-2-1.9c0-1.1,0.8-1.9,2-1.9h5.8c1.1,0,1.8,0.7,1.8,1.8v0.7c0,2.1-0.2,4.2-0.7,5.7c-1.3,4.1-4.6,6.3-9,6.3
			c-4.5,0-7.8-2.1-9.1-6.2C602.3,899.5,602.2,898,602.2,894.3z"/>
		<path fill="#253A43" d="M636.8,894.3c0-3.8,0.2-5.3,0.7-7.1c1.3-4,4.5-6.2,8.9-6.2c3.6,0,6.5,1.7,7.7,4.2c0.2,0.4,0.4,0.8,0.4,1.3
			c0,1.2-0.9,2-2,2c-0.8,0-1.4-0.3-2-1.2c-1-1.5-2.2-2.3-4.1-2.3c-2.5,0-3.9,1.3-4.6,3.4c-0.3,1.1-0.5,2.2-0.5,5.9s0.2,4.8,0.5,5.9
			c0.7,2.1,2.2,3.4,4.6,3.4c1.9,0,3.1-0.8,4.1-2.3c0.6-0.9,1.2-1.2,2-1.2c1.1,0,2,0.8,2,2c0,0.5-0.2,0.9-0.4,1.3
			c-1.3,2.5-4.2,4.2-7.7,4.2c-4.4,0-7.6-2.2-8.9-6.2C637,899.6,636.8,898.1,636.8,894.3z"/>
		<path fill="#253A43" d="M659.5,887.2c1.3-4,4.6-6.2,9-6.2c4.5,0,7.7,2.1,9,6.2c0.6,1.9,0.8,3.4,0.8,7.1s-0.2,5.3-0.8,7.1
			c-1.3,4-4.6,6.2-9,6.2c-4.4,0-7.7-2.1-9-6.2c-0.6-1.9-0.8-3.4-0.8-7.1S658.9,889,659.5,887.2z M673.2,888.4
			c-0.7-2.1-2.2-3.4-4.7-3.4c-2.5,0-4,1.3-4.7,3.4c-0.4,1.1-0.5,2.5-0.5,5.9s0.2,4.8,0.5,5.9c0.7,2.1,2.2,3.4,4.7,3.4
			c2.5,0,4-1.3,4.7-3.4c0.4-1.1,0.5-2.5,0.5-5.9S673.6,889.5,673.2,888.4z"/>
		<path fill="#253A43" d="M683.2,903.5l5.3-6.3c0.7-0.8,1-1.5,1-2.3c0-1.1-0.7-1.9-1.9-1.9c-1,0-1.6,0.5-2,1.4
			c-0.4,0.7-0.9,1.1-1.6,1.1c-0.9,0-1.6-0.6-1.6-1.5c0-0.1,0-0.3,0-0.4c0.4-1.8,2.3-3.5,5.3-3.5c3.2,0,5.2,2.1,5.2,4.8
			c0,1.6-0.7,2.9-1.7,4.1l-4.5,5.3v0h4.8c1,0,1.6,0.6,1.6,1.5c0,0.9-0.6,1.5-1.6,1.5h-7.8c-1,0-1.6-0.6-1.6-1.5
			C682.2,904.9,682.4,904.4,683.2,903.5z"/>
	</g>
</g>
<g>
	<path fill="#9E9B8F" d="M616,926.8c0.5,0,0.7,0.3,0.7,0.7c0,0.4-0.3,0.7-0.7,0.7h-5c-0.1,0-0.1,0-0.1,0.1v3.4c0,0.1,0,0.1,0.1,0.1
		h4.2c0.5,0,0.7,0.3,0.7,0.7c0,0.4-0.3,0.7-0.7,0.7H611c-0.1,0-0.1,0-0.1,0.1v3.5c0,0.1,0,0.1,0.1,0.1h5c0.5,0,0.7,0.3,0.7,0.7
		c0,0.4-0.3,0.7-0.7,0.7h-5.9c-0.4,0-0.7-0.3-0.7-0.7v-1.9c0-0.1,0-0.1-0.1-0.1H605l-1.3,2.3c-0.2,0.3-0.4,0.4-0.7,0.4
		c-0.4,0-0.7-0.3-0.7-0.7c0-0.1,0-0.3,0.1-0.4l5.7-9.8c0.3-0.5,0.5-0.7,1.1-0.7H616z M605.8,934.3h3.4c0.1,0,0.1,0,0.1-0.1v-6h-0.1
		L605.8,934.3z"/>
	<path fill="#9E9B8F" d="M618.8,927.5c0-0.5,0.3-0.8,0.8-0.8c0.4,0,0.7,0.3,0.7,0.8v5.5l4.9-6c0.2-0.2,0.4-0.3,0.6-0.3
		c0.4,0,0.7,0.3,0.7,0.7c0,0.2-0.1,0.4-0.2,0.5l-3,3.5l3.4,5.9c0.1,0.2,0.2,0.3,0.2,0.5c0,0.4-0.3,0.7-0.7,0.7
		c-0.3,0-0.5-0.2-0.7-0.4l-3.1-5.4l-2.1,2.5v2.6c0,0.5-0.3,0.8-0.7,0.8c-0.5,0-0.8-0.3-0.8-0.8V927.5z"/>
	<path fill="#9E9B8F" d="M632.6,935.9L632.6,935.9l2.9-8.6c0.1-0.4,0.4-0.6,0.7-0.6c0.4,0,0.7,0.3,0.7,0.7c0,0.1,0,0.2-0.1,0.4
		l-3.3,9.7c-0.2,0.6-0.5,0.9-0.9,0.9c-0.5,0-0.7-0.3-0.9-0.9l-3.3-9.7c-0.1-0.2-0.1-0.3-0.1-0.4c0-0.4,0.3-0.7,0.7-0.7
		c0.4,0,0.6,0.2,0.7,0.6L632.6,935.9z"/>
	<path fill="#9E9B8F" d="M638.2,936.5c0.5,0,1,0.4,1,1s-0.4,1-1,1c-0.5,0-1-0.4-1-1S637.6,936.5,638.2,936.5z"/>
	<path fill="#9E9B8F" d="M645.7,927.5c0-0.4,0.3-0.7,0.7-0.7h3.6c2.3,0,3.7,1.4,3.7,3.4c0,2.1-1.4,3.4-3.7,3.4h-2.6
		c-0.1,0-0.1,0-0.1,0.1v3.8c0,0.5-0.3,0.8-0.7,0.8c-0.5,0-0.8-0.3-0.8-0.8V927.5z M652.1,930.3c0-1.3-0.8-2-2.3-2h-2.6
		c-0.1,0-0.1,0-0.1,0.1v3.9c0,0.1,0,0.1,0.1,0.1h2.6C651.3,932.3,652.1,931.5,652.1,930.3z"/>
	<path fill="#9E9B8F" d="M655.6,937.6v-10.1c0-0.4,0.3-0.7,0.7-0.7h3.6c2.2,0,3.6,1.3,3.6,3.3c0,1.5-0.8,2.7-2.2,3.1l2.1,4.1
		c0.1,0.1,0.1,0.3,0.1,0.4c0,0.4-0.3,0.7-0.7,0.7c-0.3,0-0.5-0.2-0.7-0.5l-2.3-4.5h-2.6c-0.1,0-0.1,0-0.1,0.1v4.1
		c0,0.5-0.3,0.8-0.7,0.8C656,938.4,655.6,938.1,655.6,937.6z M662.1,930.1c0-1.2-0.8-1.9-2.1-1.9h-2.7c-0.1,0-0.1,0-0.1,0.1v3.6
		c0,0.1,0,0.1,0.1,0.1h2.7C661.3,932.1,662.1,931.3,662.1,930.1z"/>
	<path fill="#9E9B8F" d="M666.7,936.5c0.5,0,1,0.4,1,1s-0.4,1-1,1c-0.5,0-1-0.4-1-1S666.2,936.5,666.7,936.5z"/>
	<path fill="#9E9B8F" d="M674.2,927.5c0-0.5,0.3-0.8,0.8-0.8c0.4,0,0.7,0.3,0.7,0.8v5.5l4.9-6c0.2-0.2,0.4-0.3,0.6-0.3
		c0.4,0,0.7,0.3,0.7,0.7c0,0.2-0.1,0.4-0.2,0.5l-3,3.5l3.4,5.9c0.1,0.2,0.2,0.3,0.2,0.5c0,0.4-0.3,0.7-0.7,0.7
		c-0.3,0-0.5-0.2-0.7-0.4l-3.1-5.4l-2.1,2.5v2.6c0,0.5-0.3,0.8-0.7,0.8c-0.5,0-0.8-0.3-0.8-0.8V927.5z"/>
	<path fill="#9E9B8F" d="M683.6,932.6c0-1.6,0.1-2.4,0.3-3.2c0.6-1.8,1.9-2.7,3.9-2.7c1.7,0,3,0.7,3.6,1.9c0.1,0.1,0.1,0.3,0.1,0.5
		c0,0.4-0.3,0.7-0.7,0.7c-0.3,0-0.5-0.1-0.7-0.4c-0.5-0.8-1.3-1.2-2.3-1.2c-1.3,0-2.1,0.7-2.4,1.8c-0.2,0.6-0.3,1.2-0.3,2.8
		c0,1.5,0.1,2.2,0.3,2.8c0.3,1.1,1.1,1.8,2.4,1.8c1.3,0,2.2-0.6,2.5-1.7c0.2-0.5,0.2-1.2,0.2-1.7c0-0.1,0-0.1-0.1-0.1h-1.8
		c-0.5,0-0.7-0.3-0.7-0.7c0-0.4,0.3-0.7,0.7-0.7h2.7c0.4,0,0.7,0.3,0.7,0.7v0.3c0,0.8-0.1,1.8-0.3,2.5c-0.6,1.8-2,2.8-3.9,2.8
		c-2,0-3.3-1-3.9-2.7C683.7,935,683.6,934.2,683.6,932.6z"/>
</g>
<g>
	<defs>
		<path id="SVGID_1_" d="M400,20c209.9,0,380,170.1,380,380S609.9,780,400,780C190.1,780,20,609.9,20,400S190.1,20,400,20z"/>
	</defs>
	<clipPath id="SVGID_2_">
		<use xlink:href="#SVGID_1_"  overflow="visible"/>
	</clipPath>
	<path clip-path="url(#SVGID_2_)" fill="#95CBD8" d="M793.3,520L571.1,297.8c-47.3-18.8-65.7,11.7-131.3,29.6l-42-42
		c-19.5-23.9-35.6,13.6-57,12.8c-44.1,1.7-103.3-6.4-145.7,55.8c-28.4,41.6,1.1,91.4,1.1,91.4l335.1,335.1
		C653.6,751.6,754.8,638.2,793.3,520z"/>
</g>
<g>
	<path fill="#C24753" d="M586.1,470.2c-0.6,1.6-1.3,3.2-2,5c0,0.1,0,0.1-0.1,0.2c-7,18.1-18.1,46.4-34.1,70.3
		c-17.7,8-40.5,13.1-57.7,3.1c-35.9-16.5-48.4-60-81.4-80.3c-27.4-16.8-69.8-15.6-101.2-24.8c-29.6-9.1-105.2-51.3-99.2-89.2
		l0.1-0.1c37.2-66.7,179.5-101.9,243.7-93.7c54,6.8,105.5,46.5,132.1,86.5C611.4,385,600.7,431,586.1,470.2z"/>
	<path fill="#F6F9DA" d="M592.1,319.8c-34.7-42.7-95.5-69.9-154.1-72.8c-92.5-4.5-257.1,57-257.2,152.8c0,41.4,33.5,70,75.6,81.4
		c29.8,8,60.2,13.2,88.6,24.8c31.5,13.1,46.7,41.8,66.3,65.3c28,33.5,72.1,30.9,111.4,15.1C573,566.4,591.4,509,608,467.2
		C627.6,414.2,630,366.4,592.1,319.8z M586.1,470.2c-0.6,1.6-1.3,3.2-2,5c0,0.1,0,0.1-0.1,0.2c-7,18.1-18.1,46.4-34.1,70.3
		c-17.7,8-40.5,13.1-57.7,3.1c-35.9-16.5-48.4-60-81.4-80.3c-27.4-16.8-69.8-15.6-101.2-24.8c-29.6-9.1-105.2-51.3-99.2-89.2
		l0.1-0.1c37.2-66.7,179.5-101.9,243.7-93.7c54,6.8,105.5,46.5,132.1,86.5C611.4,385,600.7,431,586.1,470.2z"/>
	<path fill="#EFEFDB" d="M497.6,355.4c-9.4,40.2-106,24.4-120.1-6c-12-26.4,19.7-37.4,46.1-40.4C455.1,306,504.3,324.3,497.6,355.4z
		"/>
	<path opacity="0.36" fill="#999999" d="M518.1,588.4c-38,14.1-79.9,15.3-106.8-17c-19.5-23.5-34.8-52.2-66.3-65.3
		c-28.4-11.6-58.9-16.8-88.6-24.8c-42.1-11.4-75.7-40.1-75.6-81.4c0-9.8,1.8-19.3,5-28.3c0.5,30.9,25.7,60.8,57.8,74.8
		c34.4,14.9,71.3,21.4,104.6,34.7c13.4,4.6,29.6,10,41.1,16.4c11.5,7.2,19.3,19.5,27.2,30.1c11.8,18,28.7,50,52.4,56.1
		C480.4,586.5,499.2,588.6,518.1,588.4z"/>
	<path fill="#F7BFB7" d="M465.3,354.7c-7.4,5.7-25.9,2-35-0.3c-6.6-1.5-27.7-7.4-28.5-17.2c-0.2-3.2,6.2-9.7,10.3-10.6
		c5.6-1.9,17.4-2.2,23.1-1.5c10.8-0.7,26.2,5.6,32.1,14.1C470.7,343.8,469.8,350.5,465.3,354.7z"/>
</g>
<polygon fill="#F2EFDC" points="720.9,856.9 536.9,856.9 567.2,695.6 722.7,660.8 "/>
<g>
	<path fill="#253A43" d="M595.1,738.7c0-6.1,1.8-9.2,5.3-9.2c4.3,0,8,1,11.2,3.1c6.4,4.1,9.6,10.7,9.6,20c0,7.1-2.9,14.7-8.6,22.8
		c4,5.6,6.4,8.9,7.2,9.9c0.8,1,1.6,2,2.2,3.1c0.6,1.1,1,1.7,1.1,2c0.1,0.3,0.3,1,0.5,2.2c0.2,1.2,0.4,2.2,0.4,3.1
		c0,2.2,0.3,4.9,0.7,8c0.4,3.1,0.7,4.8,0.8,5.1c0.1,0.4,0,1.5-0.5,3.5c-0.5,2-0.8,3.3-1,4c-0.2,0.7-0.4,1.6-0.8,2.7s-0.6,2-0.8,2.6
		c-0.2,0.6-0.5,1.3-1,2.3c-0.4,0.9-0.8,1.6-1.2,2.1c-0.4,0.5-0.9,1.1-1.5,1.9s-1.2,1.4-1.9,1.9c-0.7,0.5-1.5,1-2.3,1.7
		c-2.9,2-5.5,3.3-7.7,3.9s-3.5,0.9-3.8,0.9h-0.7c-2.6,0-4.2-0.2-4.9-0.5c-1.3-0.7-2-1.7-2-2.9L596,798l-1-57.1V738.7z M604.6,737.5
		c-1.3,0-1.9,1.7-1.9,5s0.1,8.6,0.3,15.8c0.2,7.2,0.3,12.4,0.3,15.7c3.3-0.8,6.2-4.9,8.6-12.3c1.3-4,2.1-6.4,2.5-7.2v-5
		c0-2.7-1-5.4-2.9-8.1C609.4,738.8,607.2,737.5,604.6,737.5z M608,781.1L608,781.1l-4.8-0.1c0.4,11.6,0.6,27.5,0.6,47.7
		c4.5-0.7,8.1-2.9,10.7-6.5c2.6-3.6,3.9-7.8,3.9-12.7C618.4,793.8,614.9,784.3,608,781.1z"/>
	<path fill="#253A43" d="M649.8,728.5l3.6-16.9h5.3c-0.1,2.4-0.6,6-1.6,11s-1.5,8.7-1.5,11.4c0,1,0.8,2.2,2.4,3.6v3.7
		c0,1.1,0.6,2.7,1.7,4.9c1.1,2.2,1.6,3.8,1.6,4.9v1.1c0.1,2.7,0.5,6.8,1.1,12.5c0.6,5.6,1,9.6,1,11.9s0.1,5.3,0.1,8.9
		c0.2,8.3,0.3,14,0.3,16.9c0,2.9,0,5.1,0,6.4c0,1.3-0.1,3.3-0.3,5.8c-0.2,2.5-0.5,4.6-0.8,6.3c-0.3,1.7-0.9,3.5-1.6,5.6
		c-0.8,2.1-1.7,3.7-2.7,5c-2.5,3-5.7,4.5-9.6,4.5c-2.1,0-4-0.5-5.6-1.4c-0.3,2.1-0.9,5.5-1.8,10.1l-1.9,9.4l-4.8-3.8
		c0-2.7,0.7-6.8,2-12.1c1.3-5.3,2-9.4,2-12.1c-3-10.1-4.5-24.2-4.4-42.4l0.2-24.8v-3.3c0-9.3,1.1-16.6,3.4-22
		c1.9-4.3,4.6-6.4,8.2-6.4c1.3,0,2.5,0.5,3.7,1.5V728.5z M646.4,732.6L646.4,732.6l-2.3,0.1v0.8c-2.3,4.9-3.4,19.3-3.4,43.2
		c0,3.8,0.3,8.3,0.9,13.5c0.6,5.3,0.9,8.7,1.1,10.3c0.8-7.2,1.7-16.2,2.6-26.9c1-10.7,1.6-17.5,1.9-20.2c0.3-2.8,0.6-5,0.8-6.6
		c0.2-1.6,0.4-3,0.5-4.1c0.4-2.8,0.5-5,0.5-6.4C649,733.9,648.2,732.7,646.4,732.6z M649.7,830c4.8,0,7.3-9,7.3-26.9v-11.8
		c0-18.3-1-33.4-2.9-45.3c-0.7,5.5-1.7,16.8-3.1,33.7c-1.4,16.9-2.7,28.5-3.8,34.6c-1.2,6.2-1.7,10-1.7,11.4c0,1.5,0.3,2.5,0.8,3.3
		S647.9,830,649.7,830z"/>
	<path fill="#253A43" d="M694.3,778.2c0,3.1-3.9,4.6-11.7,4.6c0,5.1,0.4,12.7,1.3,22.8s1.3,17.8,1.3,22.9l-0.3,0.9
		c0.1,0.4,0.2,1.1,0.2,2.1c0,1-0.4,1.8-1.3,2.5c-0.9,0.7-2,1.1-3.4,1.1c-2.7,0-4-3-4-9c0-8.9-0.5-25.8-1.4-50.6
		c-0.9-24.8-1.9-37.9-2.8-39.4c0-4.8,3.3-7.4,9.9-7.8c1,0,2.3-0.1,4-0.1c1.7,0,3.1,0.3,4.1,1c1,0.6,1.5,1.9,1.5,3.9
		c0,2-1.3,2.9-3.9,2.9l-3.4-0.1c-2.6,0-3.9,0.5-3.9,1.6c0,4.3,0.3,10.7,1,19.1c0.7,8.4,1.1,14.6,1.1,18.6c4-1,6.6-1.5,7.7-1.5
		c1.1,0,2.1,0.4,2.8,1.3C693.9,776.1,694.3,777.1,694.3,778.2z"/>
</g>
</svg>
