<?xml version="1.0" encoding="utf-8"?>
<!-- Generator: Adobe Illustrator 18.0.0, SVG Export Plug-In . SVG Version: 6.00 Build 0)  -->
<!DOCTYPE svg PUBLIC "-//W3C//DTD SVG 1.1//EN" "http://www.w3.org/Graphics/SVG/1.1/DTD/svg11.dtd">
<svg version="1.1" id="Lag_1" xmlns="http://www.w3.org/2000/svg" xmlns:xlink="http://www.w3.org/1999/xlink" x="0px" y="0px"
	 viewBox="0 0 200 65" enable-background="new 0 0 200 65" xml:space="preserve">
<g>
	<path fill="#F5F3E1" d="M184.4,50.1H183v4h1.6c0-0.3,0-0.7,0-1c0-0.4,0-0.8,0.1-1.2c0.1-0.6,0.4-0.8,1-0.7c0,0,0.1,0,0.1,0
		c0.1-0.3,0.3-0.7,0.4-1c-0.7-0.4-1-0.3-1.7,0.3C184.5,50.3,184.4,50.2,184.4,50.1 M179.5,52.5c0.3-0.1,0.7-0.2,1-0.3
		c0.1,0.7-0.2,1.1-0.8,1.1c-0.3,0-0.4-0.1-0.5-0.3C179.2,52.8,179.3,52.6,179.5,52.5 M177.7,52.7c-0.2,0.7,0.3,1.4,1.1,1.5
		c0.7,0.1,1.3,0,1.9-0.5c0.1,0.2,0.1,0.3,0.2,0.4h1.4c0-0.4-0.1-0.7-0.1-1.1c0-0.5,0-1,0-1.5c0-1-0.5-1.4-1.5-1.5
		c-0.5,0-0.9,0-1.4,0c-0.2,0-0.5,0.1-0.7,0.2c-0.4,0.2-0.7,0.5-0.7,1c0.5,0.1,1,0.1,1.4,0.1c0.3-0.4,0.7-0.6,1.1-0.4
		c0.2,0.1,0.3,0.2,0.2,0.5c-0.4,0.1-0.7,0.2-1.1,0.3c-0.4,0.1-0.7,0.2-1.1,0.3C178,52.1,177.8,52.3,177.7,52.7 M171.5,50.1h-1.4v4
		h1.5c0-0.6,0-1.1,0-1.7c0-0.2,0-0.5,0-0.7c0.1-0.3,0.3-0.5,0.6-0.5c0.3,0,0.5,0.2,0.5,0.6c0,0.5,0,1.1,0,1.6c0,0.2,0,0.5,0,0.7h1.5
		c0-0.1,0-0.1,0-0.1c0-0.6,0-1.1,0-1.7c0-0.2,0-0.4,0-0.5c0.1-0.3,0.3-0.5,0.6-0.5c0.3,0,0.5,0.2,0.5,0.6c0,0.1,0,0.2,0,0.3
		c0,0.5,0,1.1,0,1.6c0,0.1,0,0.2,0,0.3h1.5c0-0.1,0-0.1,0-0.2c0-0.8,0-1.7,0-2.5c0-0.2-0.1-0.5-0.1-0.7c-0.1-0.4-0.4-0.6-0.8-0.7
		c-0.6-0.1-1.1-0.1-1.6,0.4c-0.1,0.1-0.2,0.1-0.2,0.2c-0.6-0.7-1.6-0.9-2.6-0.1C171.6,50.3,171.6,50.2,171.5,50.1 M165,50.1
		c0,1.3,0,2.7,0,4h1.5c0-0.2,0-0.3,0-0.5c0-0.5,0-1,0-1.5c0-0.2,0-0.4,0.1-0.6c0.1-0.2,0.3-0.3,0.6-0.3c0.2,0,0.4,0.2,0.4,0.4
		c0,0.2,0,0.3,0,0.5c0,0.5,0,1.1,0,1.6c0,0.1,0,0.2,0,0.4c0.5,0,1,0,1.5,0c0-1,0-1.9,0-2.8c0-0.2-0.1-0.4-0.1-0.5
		c-0.1-0.4-0.4-0.6-0.8-0.7c-0.6-0.1-1.1-0.1-1.6,0.4c-0.1,0.1-0.1,0.1-0.2,0.2c0-0.2-0.1-0.3-0.1-0.5H165z M155.7,49.8
		c0.3,0,0.5,0,0.8,0c0.4,0.1,0.7,0.3,0.8,0.7c0.1,0.5,0.1,1,0,1.6c-0.1,0.4-0.4,0.6-0.8,0.7c-0.2,0-0.5,0-0.8,0V49.8z M154.2,48.5
		c-0.1,0-0.1,0-0.2,0v5.5c1.1,0,2.2,0.1,3.2-0.1c1.1-0.2,1.7-0.8,1.9-1.9c0.1-0.5,0.1-1.1,0-1.6c-0.2-1.2-1-1.9-2.2-1.9
		C156,48.5,155.1,48.5,154.2,48.5 M146.2,48.5V54h1.5v-0.5c0-0.4,0-0.8,0-1.2c0-0.2,0-0.5,0.1-0.7c0.1-0.3,0.3-0.5,0.6-0.5
		c0.3,0,0.5,0.2,0.5,0.5c0,0.1,0,0.3,0,0.4c0,0.5,0,1.1,0,1.6c0,0.1,0,0.2,0,0.4h1.5c0-0.9,0-1.8,0-2.6c0-0.2,0-0.3,0-0.5
		c-0.1-0.5-0.4-0.8-0.8-1c-0.5-0.1-1-0.1-1.5,0.2c-0.1,0.1-0.2,0.1-0.4,0.2v-1.9C147.2,48.5,146.7,48.5,146.2,48.5 M143.1,50
		c-0.2,0-0.4,0-0.5,0.1v1.1c0.2,0,0.3,0,0.5,0.1c0,0.4,0,0.7,0,1c0,0.4,0,0.8,0.1,1.1c0,0.3,0.2,0.6,0.6,0.7c0.6,0.2,1.2,0.1,1.8,0
		c0-0.4-0.1-0.7-0.1-1c-0.1,0-0.2,0-0.2,0c-0.5,0.1-0.5,0-0.6-0.5c0-0.3,0-0.6,0-0.9c0-0.2,0-0.3,0-0.5c0.3,0,0.5,0,0.8,0v-1.1
		c-0.3,0-0.5,0-0.8-0.1v-1.5c-0.6,0.3-1.1,0.5-1.5,0.8C143.1,49.5,143.1,49.8,143.1,50 M140.5,50.1h-1.4v4h1.5c0-0.5,0-0.9,0-1.3
		c0-0.4,0-0.8,0.1-1.1c0.1-0.4,0.3-0.5,0.8-0.5c0.1,0,0.2,0,0.3,0c0.1-0.2,0.2-0.3,0.2-0.5c0.1-0.2,0.1-0.4,0.2-0.5
		c-0.6-0.4-1-0.3-1.7,0.3C140.5,50.3,140.5,50.2,140.5,50.1 M135.3,53c0-0.2,0.1-0.4,0.3-0.5c0.3-0.1,0.7-0.2,1-0.3
		c0.1,0.7-0.2,1.1-0.8,1.1C135.5,53.3,135.3,53.2,135.3,53 M133.7,52.6c-0.2,0.7,0.3,1.4,1.1,1.5c0.7,0.1,1.3,0,1.9-0.5
		c0.1,0.2,0.2,0.3,0.2,0.4h1.4c0-0.3-0.1-0.5-0.1-0.7c0-0.2,0-0.5,0-0.7c0-0.4,0-0.8,0-1.1c0-0.9-0.5-1.4-1.4-1.5c-0.5,0-1,0-1.4,0
		c-0.4,0-0.7,0.1-1,0.4c-0.3,0.2-0.4,0.5-0.4,0.9c0.5,0,0.9,0.1,1.4,0.1c0.3-0.4,0.7-0.6,1.1-0.4c0.2,0.1,0.3,0.2,0.3,0.5
		c-0.4,0.1-0.8,0.2-1.2,0.3c-0.3,0.1-0.7,0.2-1,0.3C134.1,52.1,133.8,52.3,133.7,52.6 M128.5,48.5c-0.1,0.5-0.1,5.2,0,5.5h4.6
		c0-0.4,0.1-0.8,0-1.2c-1,0-1.9,0-2.9,0v-1.1h2.6v-1.1c-0.9-0.1-1.8,0-2.6,0v-0.9h2.8v-1.2H128.5z M122.1,51.7
		c0-0.5,0.2-0.8,0.7-0.8c0.5,0,0.7,0.3,0.7,0.8H122.1z M120.5,51.9c-0.1,1.1,0.6,2,1.6,2.2c0.6,0.1,1.2,0.1,1.8-0.1
		c0.5-0.1,0.9-0.5,1.2-1c-0.4,0-0.7-0.1-1-0.1c-0.3,0-0.5-0.1-0.8,0.2c-0.2,0.2-0.6,0.2-0.8,0c-0.2-0.2-0.4-0.4-0.3-0.7c1,0,2,0,3,0
		c0-0.2,0-0.4,0-0.5c0-0.1,0-0.2-0.1-0.4c-0.2-0.9-0.8-1.5-1.7-1.6c-0.3,0-0.6,0-0.9,0C121.3,50,120.5,50.8,120.5,51.9 M115.6,48.5
		c-0.1,0.7-0.1,5.2,0,5.5h1.5c0-0.6,0-1.2,0-1.8c0-0.2,0-0.4,0.1-0.6c0.1-0.3,0.3-0.5,0.6-0.5c0.3,0,0.4,0.2,0.5,0.5
		c0,0.1,0,0.2,0,0.4c0,0.5,0,1.1,0,1.6c0,0.1,0,0.2,0,0.4c0.5,0,1,0,1.5,0c0-1,0-1.9,0-2.9c0-0.2-0.1-0.4-0.1-0.5
		c-0.2-0.4-0.5-0.6-0.9-0.7c-0.5-0.1-1,0-1.5,0.3c-0.1,0-0.1,0.1-0.3,0.1v-1.9H115.6z M112.4,50c-0.2,0-0.3,0-0.5,0.1v1.1
		c0.2,0,0.3,0,0.6,0.1c0,0.5,0,1,0,1.5c0,0.3,0,0.5,0.1,0.8c0.1,0.3,0.3,0.6,0.6,0.6c0.6,0.1,1.1,0.1,1.7-0.1c0-0.4-0.1-0.7-0.1-1
		c-0.2,0-0.3,0-0.4,0.1c-0.2,0-0.4-0.1-0.4-0.3c0-0.5,0-1,0-1.6c0.3,0,0.5,0,0.8,0v-1.1c-0.3,0-0.5,0-0.8-0.1v-1.5
		c-0.6,0.3-1.1,0.5-1.5,0.8C112.5,49.5,112.4,49.8,112.4,50 M106.3,50c-0.2,0-0.3,0-0.5,0.1v1.1c0.2,0,0.3,0,0.6,0.1v2.9
		c0.6,0,1,0,1.6,0v-2.8c0.3,0,0.5,0,0.7-0.1v-1.1c-0.2,0-0.5,0-0.7-0.1c0-0.5,0-0.5,0.9-0.6c0-0.3,0.1-0.6,0.1-0.8
		c-0.5-0.1-1.4-0.2-1.7-0.1c-0.5,0.1-0.8,0.4-0.8,0.9C106.4,49.5,106.3,49.8,106.3,50 M102.5,51.4c0.1-0.3,0.4-0.4,0.7-0.4
		c0.3,0,0.5,0.2,0.6,0.4c0.1,0.2,0.1,0.4,0.1,0.6c0,0.2-0.1,0.4-0.1,0.6c-0.1,0.3-0.4,0.5-0.7,0.5c-0.3,0-0.5-0.1-0.6-0.4
		C102.4,52.3,102.4,51.8,102.5,51.4 M100.9,51.7c-0.1,0.9,0.2,1.6,0.9,2.1c0.4,0.3,0.9,0.4,1.4,0.4c0.2,0,0.3,0,0.5,0
		c1-0.1,1.8-0.9,1.8-1.9c0.1-1.1-0.5-2-1.6-2.2c-0.6-0.1-1.1-0.1-1.7,0.1C101.5,50.3,101,50.9,100.9,51.7 M90,52.1
		c0-0.2,0-0.4,0.1-0.5c0.1-0.2,0.2-0.4,0.5-0.4c0.3,0,0.5,0.1,0.6,0.3c0.2,0.4,0.2,0.8,0,1.2c-0.1,0.2-0.3,0.4-0.6,0.3
		c-0.2,0-0.4-0.2-0.5-0.4C90.1,52.4,90.1,52.2,90,52.1 M88.7,50.9c-0.3,0.8-0.3,1.6,0.1,2.4c0.5,0.9,1.6,1.1,2.4,0.4
		c0.1-0.1,0.1-0.1,0.2-0.2c0,0.2,0.1,0.3,0.1,0.4h1.4v-5.5h-1.6v0.9v0.9c-0.2-0.1-0.3-0.2-0.4-0.2C90.1,49.7,89,50,88.7,50.9
		 M85,50.1h-1.4v4c0.5,0,1,0,1.5,0c0-0.6,0-1.2,0-1.8c0-0.2,0-0.4,0-0.5c0.1-0.4,0.3-0.6,0.6-0.6c0.3,0,0.5,0.2,0.5,0.7
		c0,0.5,0,0.9,0,1.4c0,0.3,0,0.5,0,0.8H87h0.8c0-0.4,0-0.7,0-1c0-0.6,0-1.1,0-1.7c0-1-0.5-1.4-1.5-1.4c-0.4,0-0.7,0.1-1,0.4
		c-0.1,0.1-0.2,0.1-0.3,0.2C85,50.4,85,50.2,85,50.1 M79.8,51.6c0.1-0.6,0.3-0.8,0.8-0.8c0.4,0,0.6,0.2,0.7,0.8H79.8z M78.2,52.2
		c0.1,1,0.7,1.7,1.6,1.9c0.6,0.1,1.2,0.1,1.8-0.1c0.5-0.1,0.9-0.5,1.2-1c-0.4,0-0.7-0.1-0.9-0.1c-0.3,0-0.6,0-0.8,0.2
		c-0.5,0.4-1.1,0-1.2-0.7h3c0-0.2,0-0.3,0-0.4c0-0.2,0-0.3-0.1-0.5c-0.2-0.9-0.8-1.5-1.7-1.6c-0.3,0-0.6,0-0.9,0
		C78.9,50,78.1,51,78.2,52.2 M77.4,50.1H76v4h1.5C77.5,53.3,77.5,50.4,77.4,50.1 M77.5,48.5H76v1h1.5V48.5z M73.9,50.1h-1.4v4h1.5
		c0-0.3,0-0.6,0-0.9c0-0.4,0-0.9,0.1-1.3c0.1-0.6,0.4-0.8,1-0.6c0,0,0.1,0,0.1,0c0.1-0.3,0.3-0.7,0.4-1c-0.7-0.4-1.2-0.3-1.7,0.3
		C74,50.3,73.9,50.2,73.9,50.1 M72,48.5h-4.2V54h1.7v-2.3h2.1v-1.1h-2.1v-1H72V48.5z M53.9,33.3c-0.3,3.1-1.5,5.9-3.4,8.4
		c-2.8,3.8-6.4,6.5-10.9,8c-1.6,0.5-3.2,0.8-4.8,0.8c-4.4,0-8-1.8-10.8-5.3c-1.8-2.3-2.9-4.9-3.4-7.8c-0.2-1.1-0.3-2.2-0.4-2.8
		c0-3.5,0.9-6.3,2.5-8.8c3.1-4.8,7.5-7.7,13.1-8.7c0.9-0.1,1.8-0.2,2.7-0.2c1.5-0.1,2.8,0.3,4.1,1c0.5,0.3,1,0.6,1.5,0.9
		c0.6,0.4,1.3,0.7,2,1c0,0,0.1,0,0.1,0c2.7,0.8,4.6,2.6,5.8,5.1C53.7,27.5,54.2,30.3,53.9,33.3 M58.9,40.3c1-3,1.3-6.2,0.9-9.3
		c-0.4-2.7-1.3-5.2-2.6-7.6c-1-1.7-2.2-3.2-3.5-4.7c-0.4-0.5-0.6-1-0.7-1.6c0-0.5-0.1-1.1-0.2-1.6c-0.2-1-0.5-1.9-1.2-2.7
		c-1.2-1.4-2.5-2.5-4-3.5c-2.7-1.7-5.8-2.5-8.9-2.8c-1.3-0.1-2.6-0.2-3.8-0.3c-1.1,0.1-2.1,0.1-3.1,0.2C28.3,7,25,7.9,21.9,9.5
		c-4.3,2.2-7.7,5.3-10,9.5c-2.7,4.9-3.6,10.2-3.2,15.7c0.3,3.2,1.2,6.1,2.7,8.9c3,5.7,7.5,9.9,13.3,12.6c2.5,1.2,5.2,2,8,2.2
		c2.4,0.2,4.8,0,7.1-0.6c4.7-1.3,8.8-3.6,12.3-7C55.2,47.9,57.5,44.5,58.9,40.3 M94.4,45.2c0.1-0.5,0.1-28.3,0-28.7
		c-0.7-0.1-7.9-0.1-8.3,0c0,0,0,0,0,0c0,0,0,0.1,0,0.1c0,5.1,0,10.1,0,15.2c0,0.1,0,0.1,0,0.2c0,0,0,0,0,0c0,0,0,0,0,0
		c0,0,0,0-0.1,0c-0.1-0.1-0.2-0.3-0.3-0.4c-3.4-5-6.8-10-10.2-14.9c-0.2-0.2-0.3-0.4-0.6-0.4c-2.5,0-5,0-7.6,0c-0.1,0-0.2,0-0.3,0
		c0,0.1,0,0.1,0,0.2c0,9.4,0,18.8,0,28.3c0,0.1,0,0.1,0,0.2c0,0,0,0,0,0c0,0,0,0,0,0h8.3v-2.6V40v-2.6v-2.6c0-0.9,0-1.7,0-2.6
		c0-0.9,0-1.7,0.1-2.6c0.2,0.1,0.3,0.3,0.4,0.4c3.4,4.9,6.7,9.9,10.1,14.8c0.2,0.3,0.4,0.4,0.7,0.4c2.5,0,5,0,7.4,0
		C94.1,45.2,94.3,45.2,94.4,45.2 M95.1,51.1c0-0.1,0.1-0.2,0.2-0.2c0.3-0.1,0.6-0.1,0.8,0.2c0.1,0.1,0.2,0.2,0.3,0.1
		c0.4,0,0.8-0.1,1.2-0.1c-0.2-0.5-0.5-0.8-0.9-1c-0.7-0.2-1.5-0.2-2.2,0c-0.6,0.2-0.9,0.6-0.8,1.2c0,0.5,0.4,0.9,0.9,1.1
		c0.3,0.1,0.6,0.1,0.9,0.2c0.2,0,0.4,0.1,0.7,0.2c0.3,0.1,0.3,0.4,0,0.5c-0.3,0.2-0.8,0.1-1-0.1c-0.1-0.1-0.1-0.2-0.2-0.3
		c-0.5,0.1-1,0.1-1.5,0.2c0.1,0.6,0.4,0.9,1,1.1c0.7,0.2,1.5,0.2,2.2,0c0.1,0,0.3-0.1,0.4-0.1c0.5-0.3,0.7-0.7,0.7-1.2
		c0-0.5-0.4-0.9-0.9-1.1c-0.3-0.1-0.7-0.1-1.1-0.2c-0.2,0-0.4,0-0.5-0.1C95.2,51.3,95.1,51.1,95.1,51.1 M120.1,30.7
		c0,1.4,0,2.9-0.4,4.3c-0.1,0.4-0.3,0.9-0.5,1.3c-0.8,1.6-2.1,2.4-3.9,2.7c-1,0.2-2,0.1-2.9-0.1c-1.5-0.4-2.7-1.4-3.4-2.8
		c-0.5-1-0.7-2-0.8-3c-0.2-1.7-0.2-3.5,0.2-5.2c0.1-0.7,0.3-1.4,0.7-2.1c0.9-1.8,2.5-2.8,4.5-3c0.8-0.1,1.5,0,2.3,0.2
		c1.6,0.4,2.7,1.4,3.4,2.8c0.5,1,0.7,2.2,0.8,3.3C120.1,29.7,120.1,30.2,120.1,30.7 M128.2,36.6c0.6-1.9,0.7-3.8,0.8-5.8
		c0-1.6-0.1-3.2-0.5-4.7c-1.1-4.5-3.8-7.6-8.2-9.1c-1.7-0.6-3.5-0.8-5.4-0.9c-2-0.1-3.9,0.1-5.8,0.6c-4.4,1.2-7.4,3.9-8.9,8.1
		c-0.7,2-1,4.1-0.9,6.3c0,1.9,0.2,3.8,0.8,5.6c1.4,4.1,4.1,7,8.3,8.3c1.3,0.4,2.7,0.6,4,0.7c2.3,0.2,4.6,0.1,6.9-0.5
		C123.8,43.9,126.9,41.1,128.2,36.6 M148.2,34.3h-6.3c1-3.4,2.1-6.8,3.2-10.1C146.1,27.5,147.2,30.8,148.2,34.3 M151.5,45.2h9.3
		c-3.6-9.6-7.2-19.1-10.8-28.7h-9.7c-3.6,9.6-7.2,19.1-10.8,28.7c0.8,0.1,8.7,0.1,9.1,0c0.2-0.6,0.3-1.1,0.5-1.7
		c0.3-0.9,0.5-1.8,0.8-2.7c0.1-0.2,0.2-0.3,0.4-0.3c0.1,0,0.1,0,0.2,0c3,0,6,0,9.1,0h0.5C150.5,42.1,151,43.7,151.5,45.2
		 M162.7,51.7h-1.4c0-0.5,0.2-0.8,0.6-0.8C162.4,50.8,162.7,51.1,162.7,51.7 M162.9,50c-0.4-0.1-0.7-0.1-1.1-0.1
		c-1.4,0-2.3,1.1-2,2.5c0.1,0.7,0.5,1.3,1.3,1.5c0.7,0.2,1.4,0.2,2.1,0c0.5-0.1,0.9-0.5,1.1-1c-0.3,0-0.6,0-0.9-0.1
		c-0.3-0.1-0.6-0.1-0.8,0.2c-0.2,0.2-0.5,0.2-0.8,0c-0.2-0.1-0.4-0.4-0.3-0.7h3.1c0-0.4-0.1-0.7-0.1-1
		C164.1,50.7,163.6,50.2,162.9,50 M182.2,45.2h8.9V16.5h-8.9c0,0.6,0,1.1,0,1.7v1.7v1.6v1.7c0,0.6,0,1.1,0,1.7c0,0.6,0,1.1,0,1.6
		c-0.8,0.1-9.3,0.1-9.7,0v-9.9c-0.7-0.1-8.5-0.1-8.9,0v28.6h8.9V33.7h9.7V45.2z M189.9,51.4c0.4-0.4,0.9-0.9,1.3-1.3
		c0,0,0-0.1,0-0.1c-0.2,0-0.5,0-0.7,0c-0.3,0-0.7-0.1-1,0.1c-0.3,0.1-0.5,0.5-0.7,0.7c-0.1,0.1-0.2,0.3-0.5,0.5v-2.7h-1.5V54h1.6
		c0-0.6-0.1-1.2,0.6-1.5c0.3,0.5,0.5,1,0.8,1.5h1.7C190.8,53.1,190.4,52.3,189.9,51.4"/>
</g>
</svg>
