<?xml version="1.0" encoding="utf-8"?>
<!-- Generator: Adobe Illustrator 18.0.0, SVG Export Plug-In . SVG Version: 6.00 Build 0)  -->
<!DOCTYPE svg PUBLIC "-//W3C//DTD SVG 1.1//EN" "http://www.w3.org/Graphics/SVG/1.1/DTD/svg11.dtd">
<svg version="1.1" xmlns="http://www.w3.org/2000/svg" xmlns:xlink="http://www.w3.org/1999/xlink" x="0px" y="0px"
	 viewBox="0 0 940 600" enable-background="new 0 0 940 600" xml:space="preserve">
<g id="Lag_2">
	<rect fill="#FF5252" width="940" height="600"/>
</g>
<g id="Lag_3">
	<g>
		<path fill="#FFFFFF" d="M170.3,196c0,2.2-1.8,4-4,4H74c-2.2,0-4-1.8-4-4v-92.2c0-2.2,1.8-4,4-4h92.3c2.2,0,4,1.8,4,4V196z"/>
		<path fill="none" stroke="#FF5252" stroke-width="4.0099" stroke-miterlimit="10" d="M170.3,196c0,2.2-1.8,4-4,4H74
			c-2.2,0-4-1.8-4-4v-92.2c0-2.2,1.8-4,4-4h92.3c2.2,0,4,1.8,4,4V196z"/>
	</g>
	<g>
		<path fill="#FFFFFF" d="M270.3,196.2c0,2.2-1.8,4-4,4H174c-2.2,0-4-1.8-4-4V104c0-2.2,1.8-4,4-4h92.3c2.2,0,4,1.8,4,4V196.2z"/>
		<path fill="none" stroke="#FF5252" stroke-width="4.0099" stroke-miterlimit="10" d="M270.3,196.2c0,2.2-1.8,4-4,4H174
			c-2.2,0-4-1.8-4-4V104c0-2.2,1.8-4,4-4h92.3c2.2,0,4,1.8,4,4V196.2z"/>
	</g>
	<g>
		<path fill="#FFFFFF" d="M270.3,296c0,2.2-1.8,4-4,4H174c-2.2,0-4-1.8-4-4v-92.2c0-2.2,1.8-4,4-4h92.3c2.2,0,4,1.8,4,4V296z"/>
		<path fill="none" stroke="#FF5252" stroke-width="4.0099" stroke-miterlimit="10" d="M270.3,296c0,2.2-1.8,4-4,4H174
			c-2.2,0-4-1.8-4-4v-92.2c0-2.2,1.8-4,4-4h92.3c2.2,0,4,1.8,4,4V296z"/>
	</g>
	<g>
		<path fill="#FFFFFF" d="M270.3,396.2c0,2.2-1.8,4-4,4H174c-2.2,0-4-1.8-4-4V304c0-2.2,1.8-4,4-4h92.3c2.2,0,4,1.8,4,4V396.2z"/>
		<path fill="none" stroke="#FF5252" stroke-width="4.0099" stroke-miterlimit="10" d="M270.3,396.2c0,2.2-1.8,4-4,4H174
			c-2.2,0-4-1.8-4-4V304c0-2.2,1.8-4,4-4h92.3c2.2,0,4,1.8,4,4V396.2z"/>
	</g>
	<g>
		<path fill="#FFFFFF" d="M870.3,396.2c0,2.2-1.8,4-4,4H774c-2.2,0-4-1.8-4-4V304c0-2.2,1.8-4,4-4h92.3c2.2,0,4,1.8,4,4V396.2z"/>
		<path fill="none" stroke="#FF5252" stroke-width="4.0099" stroke-miterlimit="10" d="M870.3,396.2c0,2.2-1.8,4-4,4H774
			c-2.2,0-4-1.8-4-4V304c0-2.2,1.8-4,4-4h92.3c2.2,0,4,1.8,4,4V396.2z"/>
	</g>
	<g>
		<path fill="#FFFFFF" d="M670.3,396.2c0,2.2-1.8,4-4,4H574c-2.2,0-4-1.8-4-4V304c0-2.2,1.8-4,4-4h92.3c2.2,0,4,1.8,4,4V396.2z"/>
		<path fill="none" stroke="#FF5252" stroke-width="4.0099" stroke-miterlimit="10" d="M670.3,396.2c0,2.2-1.8,4-4,4H574
			c-2.2,0-4-1.8-4-4V304c0-2.2,1.8-4,4-4h92.3c2.2,0,4,1.8,4,4V396.2z"/>
	</g>
	<g>
		<path fill="#FFFFFF" d="M770.3,196.2c0,2.2-1.8,4-4,4H674c-2.2,0-4-1.8-4-4V104c0-2.2,1.8-4,4-4h92.3c2.2,0,4,1.8,4,4V196.2z"/>
		<path fill="none" stroke="#FF5252" stroke-width="4.0099" stroke-miterlimit="10" d="M770.3,196.2c0,2.2-1.8,4-4,4H674
			c-2.2,0-4-1.8-4-4V104c0-2.2,1.8-4,4-4h92.3c2.2,0,4,1.8,4,4V196.2z"/>
	</g>
	<g>
		<path fill="#FFFFFF" d="M870.3,196.2c0,2.2-1.8,4-4,4H774c-2.2,0-4-1.8-4-4V104c0-2.2,1.8-4,4-4h92.3c2.2,0,4,1.8,4,4V196.2z"/>
		<path fill="none" stroke="#FF5252" stroke-width="4.0099" stroke-miterlimit="10" d="M870.3,196.2c0,2.2-1.8,4-4,4H774
			c-2.2,0-4-1.8-4-4V104c0-2.2,1.8-4,4-4h92.3c2.2,0,4,1.8,4,4V196.2z"/>
	</g>
	<g>
		<path fill="#FFFFFF" d="M870.3,296.2c0,2.2-1.8,4-4,4H774c-2.2,0-4-1.8-4-4V204c0-2.2,1.8-4,4-4h92.3c2.2,0,4,1.8,4,4V296.2z"/>
		<path fill="none" stroke="#FF5252" stroke-width="4.0099" stroke-miterlimit="10" d="M870.3,296.2c0,2.2-1.8,4-4,4H774
			c-2.2,0-4-1.8-4-4V204c0-2.2,1.8-4,4-4h92.3c2.2,0,4,1.8,4,4V296.2z"/>
	</g>
	<g>
		<path fill="#FFFFFF" d="M670,496.2c0,2.2-1.8,4-4,4h-92.3c-2.2,0-4-1.8-4-4V404c0-2.2,1.8-4,4-4H666c2.2,0,4,1.8,4,4V496.2z"/>
		<path fill="none" stroke="#FF5252" stroke-width="4.0099" stroke-miterlimit="10" d="M670,496.2c0,2.2-1.8,4-4,4h-92.3
			c-2.2,0-4-1.8-4-4V404c0-2.2,1.8-4,4-4H666c2.2,0,4,1.8,4,4V496.2z"/>
	</g>
	<g>
		<path fill="#FFFFFF" d="M270.3,496c0,2.2-1.8,4-4,4H174c-2.2,0-4-1.8-4-4v-92.2c0-2.2,1.8-4,4-4h92.3c2.2,0,4,1.8,4,4V496z"/>
		<path fill="none" stroke="#FF5252" stroke-width="4.0099" stroke-miterlimit="10" d="M270.3,496c0,2.2-1.8,4-4,4H174
			c-2.2,0-4-1.8-4-4v-92.2c0-2.2,1.8-4,4-4h92.3c2.2,0,4,1.8,4,4V496z"/>
	</g>
	<g>
		<path fill="#FFFFFF" d="M470.3,396.2c0,2.2-1.8,4-4,4H374c-2.2,0-4-1.8-4-4V304c0-2.2,1.8-4,4-4h92.3c2.2,0,4,1.8,4,4V396.2z"/>
		<path fill="none" stroke="#FF5252" stroke-width="4.0099" stroke-miterlimit="10" d="M470.3,396.2c0,2.2-1.8,4-4,4H374
			c-2.2,0-4-1.8-4-4V304c0-2.2,1.8-4,4-4h92.3c2.2,0,4,1.8,4,4V396.2z"/>
	</g>
	<g>
		<path fill="#FFFFFF" d="M570.3,396.2c0,2.2-1.8,4-4,4H474c-2.2,0-4-1.8-4-4V304c0-2.2,1.8-4,4-4h92.3c2.2,0,4,1.8,4,4V396.2z"/>
		<path fill="none" stroke="#FF5252" stroke-width="4.0099" stroke-miterlimit="10" d="M570.3,396.2c0,2.2-1.8,4-4,4H474
			c-2.2,0-4-1.8-4-4V304c0-2.2,1.8-4,4-4h92.3c2.2,0,4,1.8,4,4V396.2z"/>
	</g>
	<g>
		<path fill="#FFFFFF" d="M770,496c0,2.2-1.8,4-4,4h-92.3c-2.2,0-4-1.8-4-4v-92.2c0-2.2,1.8-4,4-4H766c2.2,0,4,1.8,4,4V496z"/>
		<path fill="none" stroke="#FF5252" stroke-width="4.0099" stroke-miterlimit="10" d="M770,496c0,2.2-1.8,4-4,4h-92.3
			c-2.2,0-4-1.8-4-4v-92.2c0-2.2,1.8-4,4-4H766c2.2,0,4,1.8,4,4V496z"/>
	</g>
	<g>
		<path fill="#FFFFFF" d="M870.3,496c0,2.2-1.8,4-4,4H774c-2.2,0-4-1.8-4-4v-92.2c0-2.2,1.8-4,4-4h92.3c2.2,0,4,1.8,4,4V496z"/>
		<path fill="none" stroke="#FF5252" stroke-width="4.0099" stroke-miterlimit="10" d="M870.3,496c0,2.2-1.8,4-4,4H774
			c-2.2,0-4-1.8-4-4v-92.2c0-2.2,1.8-4,4-4h92.3c2.2,0,4,1.8,4,4V496z"/>
	</g>
	<g>
		<path fill="#FFFFFF" d="M170.3,496c0,2.2-1.8,4-4,4H74c-2.2,0-4-1.8-4-4v-92.2c0-2.2,1.8-4,4-4h92.3c2.2,0,4,1.8,4,4V496z"/>
		<path fill="none" stroke="#FF5252" stroke-width="4.0099" stroke-miterlimit="10" d="M170.3,496c0,2.2-1.8,4-4,4H74
			c-2.2,0-4-1.8-4-4v-92.2c0-2.2,1.8-4,4-4h92.3c2.2,0,4,1.8,4,4V496z"/>
	</g>
	<g>
		<path fill="#FFFFFF" d="M370.3,396.2c0,2.2-1.8,4-4,4H274c-2.2,0-4-1.8-4-4V304c0-2.2,1.8-4,4-4h92.3c2.2,0,4,1.8,4,4V396.2z"/>
		<path fill="none" stroke="#FF5252" stroke-width="4.0099" stroke-miterlimit="10" d="M370.3,396.2c0,2.2-1.8,4-4,4H274
			c-2.2,0-4-1.8-4-4V304c0-2.2,1.8-4,4-4h92.3c2.2,0,4,1.8,4,4V396.2z"/>
	</g>
	<g>
		<path fill="#FFFFFF" d="M370.3,196c0,2.2-1.8,4-4,4H274c-2.2,0-4-1.8-4-4v-92.2c0-2.2,1.8-4,4-4h92.3c2.2,0,4,1.8,4,4V196z"/>
		<path fill="none" stroke="#FF5252" stroke-width="4.0099" stroke-miterlimit="10" d="M370.3,196c0,2.2-1.8,4-4,4H274
			c-2.2,0-4-1.8-4-4v-92.2c0-2.2,1.8-4,4-4h92.3c2.2,0,4,1.8,4,4V196z"/>
	</g>
	<g>
		<path fill="#FFFFFF" d="M570.3,296.2c0,2.2-1.8,4-4,4H474c-2.2,0-4-1.8-4-4V204c0-2.2,1.8-4,4-4h92.3c2.2,0,4,1.8,4,4V296.2z"/>
		<path fill="none" stroke="#FF5252" stroke-width="4.0099" stroke-miterlimit="10" d="M570.3,296.2c0,2.2-1.8,4-4,4H474
			c-2.2,0-4-1.8-4-4V204c0-2.2,1.8-4,4-4h92.3c2.2,0,4,1.8,4,4V296.2z"/>
	</g>
	<g>
		<path fill="#FFFFFF" d="M570.3,196c0,2.2-1.8,4-4,4H474c-2.2,0-4-1.8-4-4v-92.2c0-2.2,1.8-4,4-4h92.3c2.2,0,4,1.8,4,4V196z"/>
		<path fill="none" stroke="#FF5252" stroke-width="4.0099" stroke-miterlimit="10" d="M570.3,196c0,2.2-1.8,4-4,4H474
			c-2.2,0-4-1.8-4-4v-92.2c0-2.2,1.8-4,4-4h92.3c2.2,0,4,1.8,4,4V196z"/>
	</g>
</g>
<g id="Lag_1">
	<text transform="matrix(1 0 0 1 84.9961 127)" fill="#FF5252" font-family="'DINNextRoundedLTPro-Bold'" font-size="18">1</text>
	<text transform="matrix(1 0 0 1 184.9961 127)" fill="#FF5252" font-family="'DINNextRoundedLTPro-Bold'" font-size="18">2</text>
	<text transform="matrix(1 0 0 1 184.9961 327)" fill="#FF5252" font-family="'DINNextRoundedLTPro-Bold'" font-size="18">6</text>
	<text transform="matrix(1 0 0 1 84.9961 427)" fill="#FF5252" font-family="'DINNextRoundedLTPro-Bold'" font-size="18">8</text>
	<text transform="matrix(1 0 0 1 584.9961 427)" fill="#FF5252" font-family="'DINNextRoundedLTPro-Bold'" font-size="18">9</text>
	<text transform="matrix(1 0 0 1 584.9961 327)" fill="#FF5252" font-family="'DINNextRoundedLTPro-Bold'" font-size="18">7</text>
	<text transform="matrix(1 0 0 1 484.9961 127)" fill="#FF5252" font-family="'DINNextRoundedLTPro-Bold'" font-size="18">3</text>
	<text transform="matrix(1 0 0 1 684.9961 127)" fill="#FF5252" font-family="'DINNextRoundedLTPro-Bold'" font-size="18">4</text>
	<text transform="matrix(1 0 0 1 784.9961 127)" fill="#FF5252" font-family="'DINNextRoundedLTPro-Bold'" font-size="18">5</text>
</g>
</svg>
