<?xml version="1.0" encoding="utf-8"?>
<!-- Generator: Adobe Illustrator 18.0.0, SVG Export Plug-In . SVG Version: 6.00 Build 0)  -->
<!DOCTYPE svg PUBLIC "-//W3C//DTD SVG 1.1//EN" "http://www.w3.org/Graphics/SVG/1.1/DTD/svg11.dtd">
<svg version="1.1" id="Lag_1" xmlns="http://www.w3.org/2000/svg" xmlns:xlink="http://www.w3.org/1999/xlink" x="0px" y="0px"
	 viewBox="0 0 200 200" enable-background="new 0 0 200 200" xml:space="preserve">
<circle fill="#253A44" cx="100" cy="100" r="90"/>
<g>
	<path fill="#F5F3E1" d="M52.5,96h2.2c0.4,0,0.8,0,1.2,0.1c0.3,0.1,0.6,0.2,0.9,0.4c0.2,0.2,0.4,0.4,0.6,0.7c0.1,0.3,0.2,0.6,0.2,1
		c0,0.8-0.2,1.4-0.7,1.7s-1.2,0.6-2.1,0.6H53v3.4h-0.6V96z M54.5,100.1c0.8,0,1.4-0.1,1.8-0.4c0.4-0.3,0.6-0.8,0.6-1.4
		c0-0.3-0.1-0.6-0.1-0.8c-0.1-0.2-0.2-0.4-0.4-0.5c-0.2-0.1-0.4-0.2-0.7-0.3c-0.3-0.1-0.7-0.1-1.1-0.1H53v3.6H54.5z"/>
	<path fill="#F5F3E1" d="M61.6,96h0.6v7.4h3.6v0.5h-4.2V96z"/>
	<path fill="#F5F3E1" d="M73.2,101.2h-3.1l-0.9,2.7h-0.6l2.8-7.9h0.6l2.8,7.9h-0.6L73.2,101.2z M73.1,100.8l-0.5-1.5
		c-0.2-0.5-0.3-0.9-0.5-1.4c-0.1-0.4-0.3-0.9-0.4-1.4h0c-0.1,0.5-0.3,0.9-0.4,1.4c-0.1,0.4-0.3,0.9-0.5,1.4l-0.5,1.5H73.1z"/>
	<path fill="#F5F3E1" d="M77.8,100c0-0.6,0.1-1.2,0.2-1.7s0.4-0.9,0.7-1.3c0.3-0.4,0.7-0.6,1.1-0.8s0.9-0.3,1.4-0.3
		c0.5,0,0.9,0.1,1.2,0.3c0.4,0.2,0.6,0.4,0.8,0.7l-0.3,0.4c-0.2-0.2-0.5-0.4-0.7-0.6c-0.3-0.1-0.6-0.2-1-0.2c-0.4,0-0.8,0.1-1.2,0.3
		s-0.6,0.4-0.9,0.7s-0.4,0.7-0.6,1.1c-0.1,0.4-0.2,0.9-0.2,1.5c0,0.6,0.1,1,0.2,1.5c0.1,0.4,0.3,0.8,0.6,1.1
		c0.2,0.3,0.5,0.6,0.9,0.7c0.3,0.2,0.7,0.3,1.1,0.3c0.4,0,0.8-0.1,1.1-0.2s0.6-0.4,0.9-0.7l0.3,0.3c-0.3,0.4-0.6,0.6-1,0.8
		c-0.4,0.2-0.8,0.3-1.3,0.3c-0.5,0-0.9-0.1-1.3-0.3c-0.4-0.2-0.8-0.5-1-0.8c-0.3-0.4-0.5-0.8-0.7-1.3S77.8,100.6,77.8,100z"/>
	<path fill="#F5F3E1" d="M87.4,96h4.3v0.5H88v3h3.2v0.5H88v3.5h3.9v0.5h-4.5V96z"/>
	<path fill="#F5F3E1" d="M96,96h0.6v3.5h4.2V96h0.6v7.9h-0.6v-4h-4.2v4H96V96z"/>
	<path fill="#F5F3E1" d="M108.8,104.1c-0.5,0-0.9-0.1-1.3-0.3c-0.4-0.2-0.7-0.5-1-0.8c-0.3-0.4-0.5-0.8-0.7-1.3s-0.2-1.1-0.2-1.7
		s0.1-1.2,0.2-1.7s0.4-0.9,0.7-1.3c0.3-0.4,0.6-0.6,1-0.8c0.4-0.2,0.8-0.3,1.3-0.3c0.5,0,0.9,0.1,1.3,0.3c0.4,0.2,0.7,0.5,1,0.8
		c0.3,0.4,0.5,0.8,0.7,1.3c0.2,0.5,0.2,1.1,0.2,1.7s-0.1,1.2-0.2,1.7c-0.2,0.5-0.4,0.9-0.7,1.3c-0.3,0.4-0.6,0.6-1,0.8
		C109.7,104,109.3,104.1,108.8,104.1z M108.8,103.6c0.4,0,0.8-0.1,1.1-0.3s0.6-0.4,0.8-0.7c0.2-0.3,0.4-0.7,0.5-1.1
		c0.1-0.4,0.2-0.9,0.2-1.5c0-0.5-0.1-1-0.2-1.5c-0.1-0.4-0.3-0.8-0.5-1.1c-0.2-0.3-0.5-0.5-0.8-0.7s-0.7-0.3-1.1-0.3
		s-0.8,0.1-1.1,0.3s-0.6,0.4-0.8,0.7c-0.2,0.3-0.4,0.7-0.5,1.1c-0.1,0.4-0.2,0.9-0.2,1.5c0,0.6,0.1,1.1,0.2,1.5
		c0.1,0.4,0.3,0.8,0.5,1.1c0.2,0.3,0.5,0.6,0.8,0.7S108.4,103.6,108.8,103.6z"/>
	<path fill="#F5F3E1" d="M116.3,96h0.6v7.4h3.6v0.5h-4.2V96z"/>
	<path fill="#F5F3E1" d="M124.3,96h1.8c0.6,0,1.1,0.1,1.6,0.3s0.8,0.4,1.1,0.8c0.3,0.3,0.5,0.8,0.7,1.2c0.1,0.5,0.2,1,0.2,1.6
		c0,0.6-0.1,1.1-0.2,1.6c-0.1,0.5-0.4,0.9-0.7,1.3s-0.7,0.6-1.1,0.8c-0.4,0.2-1,0.3-1.6,0.3h-1.8V96z M126.1,103.5
		c0.5,0,1-0.1,1.4-0.3s0.7-0.4,1-0.7c0.2-0.3,0.4-0.7,0.6-1.1c0.1-0.4,0.2-0.9,0.2-1.4c0-0.5-0.1-1-0.2-1.4s-0.3-0.8-0.6-1.1
		c-0.2-0.3-0.6-0.5-1-0.7s-0.8-0.3-1.4-0.3h-1.2v7H126.1z"/>
	<path fill="#F5F3E1" d="M133.9,96h4.3v0.5h-3.8v3h3.2v0.5h-3.2v3.5h3.9v0.5h-4.5V96z"/>
	<path fill="#F5F3E1" d="M146.9,104l-2.1-3.6h-1.7v3.6h-0.6V96h2.3c0.4,0,0.7,0,1.1,0.1c0.3,0.1,0.6,0.2,0.8,0.4
		c0.2,0.2,0.4,0.4,0.5,0.6s0.2,0.6,0.2,1c0,0.6-0.2,1.1-0.5,1.5s-0.9,0.6-1.5,0.7l2.2,3.7H146.9z M144.7,99.9c0.7,0,1.2-0.1,1.6-0.4
		c0.4-0.3,0.6-0.7,0.6-1.3c0-0.6-0.2-1-0.6-1.3c-0.4-0.2-0.9-0.4-1.6-0.4h-1.6v3.3H144.7z"/>
</g>
</svg>
