<?xml version="1.0" encoding="utf-8"?>
<!-- Generator: Adobe Illustrator 18.0.0, SVG Export Plug-In . SVG Version: 6.00 Build 0)  -->
<!DOCTYPE svg PUBLIC "-//W3C//DTD SVG 1.1//EN" "http://www.w3.org/Graphics/SVG/1.1/DTD/svg11.dtd">
<svg version="1.1" id="Lag_1" xmlns="http://www.w3.org/2000/svg" xmlns:xlink="http://www.w3.org/1999/xlink" x="0px" y="0px"
	 viewBox="0 0 800 800" enable-background="new 0 0 800 800" xml:space="preserve">
<circle fill="#253A44" cx="400" cy="400" r="390"/>
<g>
	<path fill="#1C292D" d="M603.4,230.5v0.2c-0.1-0.3-0.2-0.5-0.3-0.5c-0.6,0-0.8,4.5-1,11.5L591.3,231c-0.1-0.4-0.3-0.7-0.4-0.7
		c-0.6,0-1,4.2-1.3,11l-10.6-10.6c-0.1-0.2-0.2-0.4-0.2-0.4c-0.6,0-1.1,4.2-1.7,10.8l-10.3-10.3c-0.1-0.3-0.2-0.5-0.3-0.5
		c-2,0-5.3,49.5-8.7,83.6l0,0v0c0,0.1,0,0.3,0,0.4c0,0,0,0,0,0c0.1,17.8,8,33.2,21.8,36.9c-0.2,4.2-0.3,8.4-0.5,12.6L516,300.7
		c-28.6-33.5-70.6-52.5-114.1-52.5c-10.2,0-20.6,1.1-30.8,3.2c-0.2,0-0.4,0.1-0.6,0.1c-2.3,0.5-4.6,1-6.9,1.6
		c-0.6,0.2-1.2,0.4-1.9,0.6c-1.9,0.5-3.7,1-5.6,1.7c-1.2,0.4-2.5,0.8-3.7,1.3c-1.3,0.4-2.5,0.8-3.8,1.3c-2.5,0.9-5,2-7.4,3
		c-20.9,9.2-38.6,22.6-52.6,38.8l-71.8-71.8c-1.6-1.8-3.2-3.4-4.7-4.8c-3.8-3.4-6.8-3.3-9.1,0v194.1c0.2,1.1,0.4,2.2,0.6,3.2
		c-0.1,2.3-0.2,4.7-0.3,7h-3L196,549c-0.2,3.7,1.5,7.7,4.5,10.9c1.2,1.3,2.6,2.3,4.1,3.1l225.1,225.8
		c196-14.7,351.6-174.3,359.9-372.1L603.4,230.5z"/>
	<g>
		<path fill="#F2EFDC" d="M212.2,223.3c-3.8-3.4-6.8-3.3-9.1,0v194.1c0.2,1.1,0.4,2.2,0.6,3.2c-0.2,5.4-0.4,10.8-0.6,16.3v121.2
			c2.1,2.1,5,3.6,8.2,3.6c7.2,0,12.5-7.2,12.3-12.5c-1.6-43.1-3.1-86.2-4.6-129.3c3.8-11.1,8.3-3.6,10.7-23.9
			c3.8-32.3,2.5-78.8,3.4-103C233.7,247.4,221.7,231.9,212.2,223.3z"/>
		<path fill="#6797A3" d="M402,248.3c-20.3,0-40.9,4.1-60.6,12.9c-75.8,33.5-110.1,122.2-76.6,198.1c24.8,56.1,79.8,89.5,137.4,89.5
			c20.3,0,40.9-4.1,60.6-12.9c75.9-33.5,110.2-122.2,76.6-198C514.6,281.6,459.6,248.3,402,248.3L402,248.3z"/>
		<path fill="#86AEB7" d="M401.3,248.3c-20.1,0.1-40.5,4.2-60,12.8c-75.8,33.5-110.1,122.2-76.6,198.1
			c24.7,55.8,79.3,89.1,136.6,89.4V248.3z"/>
		<path fill="#E5E2D3" d="M402,248.3v36.3c45.1,0,86,26.6,104.2,67.8c12.3,27.8,13,58.7,2.1,87.1c-11,28.4-32.3,50.7-60.1,63
			c-14.7,6.5-30.1,9.8-45.9,9.8c-45.1,0-86-26.6-104.2-67.8c-25.4-57.4,0.7-124.8,58.1-150.1c14.7-6.5,30.1-9.8,46-9.8V248.3"/>
		<path fill="#6797A3" d="M402,290.9c-59.4,0-107.5,48.1-107.5,107.5c0,59.4,48.1,107.5,107.5,107.5c59.4,0,107.5-48.1,107.5-107.5
			C509.6,339.1,461.4,290.9,402,290.9z M402,500c-56.1,0-101.5-45.4-101.5-101.5C300.5,342.4,346,297,402,297
			c56,0,101.5,45.4,101.5,101.5C503.5,454.5,458.1,500,402,500z"/>
		<path fill="#F2EFDC" d="M407.1,493.7c-49.8,0-90.1-40.4-90.1-90.1c0-49.8,40.4-90.1,90.1-90.1c49.8,0,90.1,40.4,90.1,90.1
			C497.2,453.3,456.9,493.7,407.1,493.7z"/>
		<path fill="#F2EFDC" d="M611.7,314.3C611.7,314.3,611.7,314.3,611.7,314.3c0-0.1,0-0.2,0-0.3c0,0,0-0.1,0-0.1h0
			c-3.4-34.1-6.7-83.6-8.7-83.6c-1.9,0-0.5,49.5-0.6,83.6h-5.6c-2.2-34.1-4-83.6-6-83.6c-1.9,0-2.1,49.5-3.3,83.6H582
			c-1.2-34.1-1.4-83.6-3.3-83.6c-2,0-3.7,49.5-6,83.6h-5.7c-0.1-34.1,1.4-83.6-0.6-83.6c-2,0-5.3,49.5-8.7,83.6l0,0v0
			c0,0.1,0,0.3,0,0.4c0,0,0,0,0,0c0.1,17.8,8,33.2,21.8,36.9c-2.4,66-4.7,132-7.1,197.9c-0.3,5.4,5,12.6,12.2,12.5
			c7.2,0,12.5-7.2,12.3-12.5c-2.4-66-4.7-131.9-7.1-197.9C603.7,347.6,611.6,332.1,611.7,314.3z"/>
		<path fill="#6797A3" d="M211.3,564.7c-4,0-7.8-1.7-10.8-4.8c-3-3.1-4.7-7.2-4.5-10.9l4.4-121.4h21.8l4.3,121.5
			c0.2,3.6-1.5,7.7-4.5,10.8C219.1,563,215.3,564.7,211.3,564.7L211.3,564.7z"/>
		<path fill="#6797A3" d="M584.7,564.7c-4,0-7.8-1.7-10.8-4.8c-3-3.1-4.7-7.2-4.5-10.9l5.7-158.8h19.2l5.7,158.8
			c0.2,3.6-1.5,7.7-4.5,10.8C592.6,563,588.8,564.7,584.7,564.7L584.7,564.7z"/>
	</g>
</g>
</svg>
