<?xml version="1.0" encoding="utf-8"?>
<!-- Generator: Adobe Illustrator 18.0.0, SVG Export Plug-In . SVG Version: 6.00 Build 0)  -->
<!DOCTYPE svg PUBLIC "-//W3C//DTD SVG 1.1//EN" "http://www.w3.org/Graphics/SVG/1.1/DTD/svg11.dtd">
<svg version="1.1" id="Lag_1" xmlns="http://www.w3.org/2000/svg" xmlns:xlink="http://www.w3.org/1999/xlink" x="0px" y="0px"
	 viewBox="0 0 800 400" enable-background="new 0 0 800 400" xml:space="preserve">
<g>
	<path fill="#F2EFDC" d="M284,160.4c0.3,0,0.3-0.3,0.3-0.3C284,160.1,284,160.4,284,160.4z"/>
	<path fill="#F2EFDC" d="M281.1,170.1l0.3-0.3C281.4,169.8,281.1,169.8,281.1,170.1z"/>
	<path fill="#F2EFDC" d="M289,163.3c0,0.3,0,0.3,0,0.3C289,163.3,289,163.3,289,163.3z"/>
	<path fill="#F2EFDC" d="M294,161.7C294,161.7,294,161.7,294,161.7C294,161.7,294,161.7,294,161.7z"/>
	<path fill="#F2EFDC" d="M321.8,200.2c-1.3-4.9-3.2-8.4-6.1-10.4c-2.9-1.9-5.5-2.9-8.7-2.9c0,0-1.3,0-1.9,0.3
		c-3.9,0.6-6.8,2.3-9.1,5.5c-4.9,6.8-7.5,13.2-7.5,19.1c0,1.3,0,2.9,0.3,4.2c0.6,3.9,2.3,6.9,4.5,8.6c1.9,1.6,5.5,2.4,10.7,2.4h0.3
		c5.5,0,9.4-1.1,12.3-3c2.9-1.9,4.5-4.9,5.5-9.4c0.7-2.3,1-4.6,0.7-7.1C322.8,205.1,322.5,202.5,321.8,200.2z"/>
	<path fill="#F2EFDC" d="M166.9,186.4c-1.6-1.6-3.9-2.6-6.1-3.2c-1.3-0.6-2.6-1-3.9-1c-1.6,0-2.3,0-3.2,0.3
		c-2.3,0.6-3.6,1.6-4.2,3.9c-0.7,2.6-1,9.7-1.3,21c0,3.6,0,6.5,0,8.7c0,4.5,0.3,6.8,0.3,7.8c1.3-0.3,3.6-1.3,6.8-3.9
		c3.6-2.6,6.8-6.1,9.7-10.3c4.5-5.8,6.5-11,6.5-15.2C171.5,191.3,169.9,188.7,166.9,186.4z"/>
	<path fill="#F2EFDC" d="M293.7,165c-0.3,0-0.3,0-0.3,0H293.7z"/>
	<path fill="#F2EFDC" d="M87.1,173.3c-5.4-8.2-12.6-6.4-12.6-6.4c5.8-0.6,9.8,3.9,11.9,7.1C86.6,173.8,86.9,173.5,87.1,173.3z"/>
	<path fill="#F2EFDC" d="M588.5,104.2l-571,6.7c-1.8,0-3.2,1.5-3.1,3.3l8.5,183.3c0.1,1.8,1.6,3.5,3.4,3.5l556.7,0.8
		c1.8,0,3.3-1.7,3.4-3.5l5.2-190.7C591.7,105.7,590.3,104.1,588.5,104.2z M510.1,161.7c0.3-2.3,1.3-3.9,2.3-5.2
		c1.3-1.6,2.9-2.6,4.9-2.6c1.9,0,3.6,0.3,4.8,1.6c1,1,1.9,2.6,3.2,4.9c1.3,3.6,1,6.1-0.3,7.8c-1,1.3-2.9,1.9-5.8,1.9
		c-2.9,0.3-4.9-0.3-6.5-1.6c-0.3,0-0.6-0.3-0.6-0.3C510.4,166.6,509.8,164.3,510.1,161.7z M287.9,163.3c0.3,0,0.3-0.3,0.3-0.3
		c0.3,0.3,0.3,0.3,0.3,0.3c0-0.3,0.3-1,0.3-1.3c0.3,0.3,0.3,0.3,0.6,0.6c0-0.6,0.1-1.3,0.4-1.9c0.6-0.3,2-1,2-1.3c0,0.3,0,0.1,0,0.5
		c0-0.3,0.5-1.9,0.8-1.9h0.3l0.3,0.9c0.3,0.6,0.6,1.6,0.6,2.2c0-0.3,0-0.2,0.3-0.5c0,0.3,0.1,0.7,0.1,1c0,0-0.5,0.4-0.5,0.7
		c0,0.3,0,1.7,0,1.7c4,0,0.7,0,0.7,0l0.3-1c0,0.3,0,0.6,0,1c-1,0.6-1.9,0.8-2.9,1.1c1-0.3,1.9-0.7,2.6-0.7c-0.3,0.3-0.8,0.3-1.2,0.6
		c0.3,0,0.5,0,0.5,0v0.3c0,0.3,0,0.3,0,0.3c0,0.6-0.9,1-1.2,1.3c-1.6,0.3-0.8,1.3-3.8,1.9c0,0,0,0,0,0.3c0,0,0,0,0-0.3
		c0-1.6-0.5-3.2-1.8-4.2C287.2,164.3,287.9,163.6,287.9,163.3z M193.5,158.6c0.3-2.3,1.3-3.9,2.3-5.2c1.3-1.6,2.9-2.6,4.9-2.6
		c1.9,0,3.6,0.3,4.8,1.6c1,1,1.9,2.9,3.2,4.9c1.3,3.6,1,6.1-0.3,7.8c-1,1.3-2.9,1.9-5.8,1.9c-2.9,0.3-4.9-0.3-6.5-1.6
		c-0.3,0-0.6-0.3-0.6-0.3C193.8,163.5,193.2,161.2,193.5,158.6z M129,232.3c-0.3,11.3-8.1,16.8-22.7,16.8c0-0.3-1-0.6-1-0.6
		c-9.4-0.3-16.5-2.3-21.7-5.9c-3.6-2.6-5.2-5.5-5.2-8.4c-0.3-1.6,0.3-3.9,1.6-5.8c1-1.3,2.3-1.6,4.5-1.6c2.3,0,5.5,0.8,9.7,1.8
		c5.2,1.3,9.4,2.5,12.3,2.5c0.3,0,0.6,0,0.6,0c2.3,0,3.2-0.8,3.6-1.5c-0.6-1-4.2-5-23.6-21.2c-5.8-4.9-8.4-11.4-7.4-19.8
		c0.6-5,2.2-9.2,4.8-12.6c-1.9,0.2-3.8,0.9-3.8,0.9l1.6-1.3c0,0-1,0-4.9,0.6s-7.4-2.3-8.4-4.2c-1.6-3.6-3.6-2.6-3.6-2.6
		s1.3-2.9,6.8-5.5c7.8-3.5,11.6,1.6,11.6,1.6l0-1c3,2.6,3.6,6,3.6,8c1.1-1,2.4-2,3.8-2.8c4.5-2.6,9.1-3.9,14.2-3.9l1.3,0
		c5.8,0.3,10,2,12.9,5.5c3.6,4.2,4.2,7.4,2.9,9.7c-1,1.6-2.9,2.6-6.1,2.6c-1.3,0-2.6,0-4.2-0.3c-1.3-0.3-2.6-0.3-3.9-0.3
		c-2.6,0-5.2,0.6-7.1,1.6c-2.9,1.6-4.2,3.9-4.2,6.8c0,1.6,1.6,4.5,8.1,9.4c5.2,3.6,10.7,8.1,16.5,13.9c3.2,3.6,5.2,6.5,6.1,8.4
		c0.6,1.6,1.3,3.6,1.3,6.1C129.4,230.3,129.4,231,129,232.3z M185.7,210.4c-4.2,8.4-9.7,15.2-15.6,21c-6.5,5.8-12.3,8.1-17.8,8.1
		c-1,0-2.6,0.3-2.9,1.3c0,0.3-0.3,0.6-0.3,0.6c-0.3,0.3-0.3,1-0.3,5.8l0,2.9c0,2.9,0,3.2,0,4.9c-0.7,2.6-1.9,3.9-3.9,4.8
		c-1,1.3-2.3,1-3.2,1c-1.9,0-3.6-0.3-5.2-1.9c-1.6-1.6-2.6-4.5-3.2-10.4c0-1,0-1.6-0.3-2.3c-0.3-3.9-0.6-8.1-0.9-22.3
		c-0.3-21.3-0.3-34.6,0.7-40.7s4.2-11,9.1-14.5c2.6-1.9,6.8-2.9,12-2.9l3.9,0c7.4,0.7,13.3,2.6,17.8,5.5
		c6.5,4.5,10.7,10.4,12.6,17.8c0.6,2.6,1,4.9,1,7.1C188.9,201,187.9,205.8,185.7,210.4z M211.8,235.9c-1.3,5.8-5.2,7.1-8.1,7.1
		s-6.8-1.3-8.4-7.1c-1-4.2-1.9-13.3-2.2-28.1l0-4.5c-0.3-21.3,1-26,2-27.6c1.9-2.6,4.2-3.7,6.8-3.7h0.6c0,0,0,0.1,0.3,0.1
		c2.9,0.3,4.8,2.5,5.5,5.4c1,4.9,1.9,15.1,2.9,31.3c0.3,6.5,0.6,12.3,0.9,16.5C212.2,230.5,212.1,233.7,211.8,235.9z M265.5,233.4
		c-0.3,11.3-8.1,16.8-22.7,16.8c0-0.6-1-0.6-1-0.6c-9.4-0.3-16.5-2.3-21.7-5.9c-3.6-2.6-5.2-5.5-5.2-8.4c-0.3-1.9,0.3-3.9,1.6-5.8
		c1-1.3,2.3-1.6,4.5-1.6c2.3,0,5.5,1.3,9.7,2.2c5.2,1.3,9.4,2.9,12.3,2.9c0.3,0,0.6,0,0.6,0c2.3,0,3.2-1.2,3.6-1.9
		c-0.6-1-4.2-5.2-23.6-21.4c-5.8-4.9-8.4-11.5-7.4-19.9c1-8.4,4.9-14.7,11.7-18.9c4.5-2.6,9.1-4,14.2-4h1.3c5.8,0,10,2,12.9,5.6
		c3.6,4.2,4.2,7.5,2.9,9.7c-1,1.6-2.9,2.6-6.1,2.6c-1.3,0-2.6,0-4.2-0.3c-1.3-0.3-2.6-0.3-3.9-0.3c-2.6,0-5.2,0.6-7.1,1.6
		c-2.9,1.6-4.2,3.9-4.2,6.8c0,1.6,1.6,4.5,8.1,9.4c5.2,3.6,10.7,8.1,16.5,13.9c3.2,3.6,5.2,6.5,6.1,8.4c0.6,1.6,1.3,3.6,1.3,6.1
		C265.8,231.5,265.8,232.2,265.5,233.4z M342.2,210.6c-0.7,10.7-3.9,19.1-9.4,24.9c-4.2,4.5-10,7.4-16.8,9
		c-4.5,1.3-8.1,1.6-11.6,1.6c-3.2,0-6.5-0.3-9.7-1.3c-10-2.6-17.1-8.4-21.3-17.5c-1.9-4.9-3.2-9.7-3.5-14.9c0-4.5,0.7-9.1,2.3-13.9
		c3.1-9.9,9.2-17.8,18-23.8l-1.9-4l-2.4-0.4c-1.3,0.4-2.6,1.1-3.7,2.2c-0.6,0.3-1,0.5-1.6,0.5h-0.3h-0.3c0,0,0.3-0.3,0.3-0.7
		c0,0,0,0.7,0.3-0.3c0,0,0,0-0.3,0c-0.3,1-0.6,0.2-1,0.2c0.6-0.6,1.3-1.4,1.9-2c-1,0.6-1.6,1.3-2.6,1.9c-0.3-0.3-0.6,0.1-1-0.2
		l0.3,0.1c-0.3,0-0.6,0-1,0c-0.3,0-0.3-1.1-0.6-1.1c0.3,0,1.2-0.2,1.5-0.2c-0.6-0.3-0.8-1.2-0.8-1.9v-0.3l-0.5-0.3
		c0.3,0,0.5-0.3,0.9-0.3l-0.5-0.3c0.6-0.3,1.2-0.7,2.2-1.1c0.6,0,1.2-0.4,1.8,0.6H280c0,0,0,0.2,0-0.1c0-0.3,0.6-0.8,0.2-1.1
		c0.3,0,1.5,0.2,1.9,0.2H282c0,0,0,0.2,0-0.1v0.1h0.7c0.3,0,1,0.1,1.3,0.1c0.3,1.4,1,2.6,2,3.6l1.6,0.1l-1.9-4
		c-1.4-1.1-3-1.6-4.6-1.9c-0.3-0.3-0.6-1.2-1-1.8c-0.3-0.3-0.3,1.8-0.3-1.2h0.3h0.3c-0.3,0-0.3,0.2-0.3,0.2
		c-0.3-0.3-0.6-0.3-1.6-0.9c0.3,0,0.6,0.7,1,0.7h0.3c-0.3,0-0.3-0.8-0.3-0.8c-0.3-0.6-1-1.5-1.3-2.2c0-1,0-1.7,0.3-2.7
		c0.3,0,0.6,0.3,0.9,0.3c0.3,0.3,0.6,0.3,0.6,0.3v-0.3c0-0.6-0.2-0.8-0.2-1.4l0.1-0.1h0.3c1,1,1.2,0.8,1.9,1.4
		c0.3,0.3-0.1,0.1-0.1,0.1v-0.3c0,0,0.4-0.3,0.4-0.6c0.3,0.3,0.8,0.3,1.2,0.6c0,0.3,0.4,0.6,0.4,1c0.3,0,0.4-0.3,0.4-0.3
		c0.6,0.3,1,1,1.3,1.3c-0.3,1-0.6,1.9-1.3,2.9c0.6-1,1-1.9,1.6-2.6c0,0.3,0,1,0,1.3v0.3c0-0.3,0.3-0.3,0.3-0.3
		c0.3-0.3,0.7-0.3,1-0.6l0.7,0.3v0.3c0,0.6-0.8,1.3-0.8,1.9c-0.6,1.6-1.2,3.6-1.2,5.8v0.3c0-0.3,0.2-0.3,0.2-0.3
		c-0.1-0.1,0-0.2-0.1-0.3l4.1,8.3c0.3-0.2,0.6-0.4,0.9-0.6c3.6-2.9,6.5-4.3,9.1-4.9c1-0.3,2-0.1,3.6-0.1h0.3c1.9,0,3.9,0.1,6.5,0.4
		c10.7,1.3,18.7,6.4,24.9,14.8c4.2,6.2,6.4,13.5,6.8,22.3C342.2,207.8,342.2,209,342.2,210.6z M388.5,190.3
		c-3.6-1.3-6.8-1.6-9.4-1.6c-4.2,0-7.4,1.3-9.7,4.5c-3.6,5.2-5.2,15.8-4.6,32c0.9,21.3-0.7,22-1.7,22.6c-1,0-2.3,0-3.6,0
		c-1.3,0-2.6,0-4.2-0.3c-3.6-1-5.5-2.3-6.5-4.5c-0.6-1.6-1.6-6.5-3.2-34c-0.6-10.3-0.9-17.8-1.3-22.6l0-3.9c0.3-4.2,1.3-6.8,3.2-7.4
		c0.6-0.3,1.6-0.3,2.3-0.3c1.9,0,3.9,1,6.1,2.6c1.6,1.3,2.3,1.7,2.6,1.7h0.3c1.3,0,4.2-2.9,8.1-4.9c3.6-1.9,7.8-2.9,12-2.9
		c3.6,0,7.1,0.7,11.3,2c9.7,3.2,14.5,7.8,14.9,13.3c0,1.9-0.3,3.2-1.3,4.2c-1.3,1.3-3.6,1.9-5.2,1.9
		C395.9,192.6,392.7,191.9,388.5,190.3z M470,241.2c0,0,0,0,0,0.3c-1,6.8-5.4,7.8-7.7,7.7c-3.6,0-6.1-1-7.7-2.9
		c-0.3-0.6-1.3-2.3-5.8-27.2c-3.5-21.3-5.1-25.2-5.8-25.9c0,0,0,0-0.3-0.3c-1.9-2.9-4.2-4.5-6.8-4.5c-2.6,0-5.8,1.6-9.4,4.5
		c-6.2,5.2-9.4,17.8-8.8,36.9c0.3,14.9-1.6,17.8-3.6,18.4c-1,0.3-1.6,0.3-2.6,0.3c-2.9,0-4.8-1.6-6.5-5.2c-1.6-3.6-2.9-10-3.2-19.4
		c-0.3-2.3-0.3-4.2-0.3-6.5c-0.3-22.6,6.8-37.2,21.7-43.9c4.9-2.3,9.7-3.2,13.9-3.2c2,0,3.9,0.3,5.7,0.8c0.8-2.8,3-5.4,6-7.1
		c2.1-1.8,4.9-3.3,8.3-2.7c-0.6-0.3-7.1-2.6-12.6,5.2c0,0-0.3-4.9,3.9-8.1l0,1c0,0,3.9-4.2,10-0.3c4.5,2.6,5.5,5.2,5.5,5.2
		s-1.6-1-3.2,1.9c-1,1.6-4.2,3.6-7.4,2.9c-3.2-1-3.9-1-3.9-1l1.3,1.3c0,0-4.8-2.3-5.8-0.7c0,0,0.3-0.6,1-1.5c-1,1.3-1.7,2.7-2.1,4.2
		c2.4,0.8,4.7,2.1,6.9,3.8c4.5,3.6,8.1,8.4,10.3,13.9c2.3,5.5,4.5,14.2,6.4,26.5c1.6,10.4,2.5,18.1,2.5,23L470,241.2z M504.1,247.1
		c-2.3,1.6-4.9,2.3-7.8,2.3c-2.6,0-5.5-0.7-8.7-2.3c-6.5-3.9-11-9.4-13.6-17.2c-1-3.2-1.6-11.6-1.9-25.5l-0.3-17.8
		c0.4-33,1.7-39.8,2.7-41.7c1.6-2.9,3.6-4.2,5.8-4.2c2.3,0,4.5,1.3,6.8,3.6c1.6,1.6,3.2,7.8,4.1,41.4c0.3,13.9,0.9,23.6,1.6,29.4
		c0.3,5.8,1.3,9.7,2.2,12c1.3,2.3,3.2,3.6,5.8,4.9c2.9,1.3,4.8,3.6,5.8,6.8c0.3,0.6,0.3,1.3,0.3,1.9
		C507,243.2,506.1,245.1,504.1,247.1z M526.8,238.4c-1.3,5.8-5.2,6.5-8.1,6.5c-2.9,0-6.8-0.7-8.4-6.8c-1-4.2-1.9-13.3-2.2-27.8
		l0-4.2c-0.3-21.3,1-25.9,2-27.5c1.9-2.6,4.2-4,6.8-4l0.6-0.5c0,0,0,0,0.3,0c2.9,2,4.8,2.8,5.5,6c1,4.9,1.9,15.4,2.9,31.6
		c0.3,6.8,0.6,12.4,0.9,16.6C527.1,233.4,527.1,236.1,526.8,238.4z"/>
	<path fill="#F2EFDC" d="M292,160.1c0,0.3,0,0.3,0,0.3C292,160.1,292,160.1,292,160.1z"/>
	<path fill="#F2EFDC" d="M294,161.4C294,161.4,294,161.4,294,161.4C294,161.4,294,161.4,294,161.4z"/>
	<path fill="#F2EFDC" d="M289,162.7c0,0.3,0,0.3,0,0.3C289,162.7,289,162.7,289,162.7z"/>
</g>
<g>
	<path fill="#F5F2E0" d="M62.3,381.6c-2.3,0-4.5-0.5-6.5-1.4c-2-1-3.7-2.3-5.1-4.1c-1.4-1.8-2.6-3.9-3.4-6.5
		c-0.8-2.5-1.2-5.3-1.2-8.4c0-3.1,0.4-5.9,1.2-8.4c0.8-2.5,1.9-4.6,3.3-6.4c1.4-1.8,3.1-3.1,5.1-4.1c2-0.9,4.1-1.4,6.5-1.4
		c2.4,0,4.6,0.5,6.6,1.4c2,0.9,3.7,2.3,5.1,4c1.4,1.8,2.6,3.9,3.4,6.4c0.8,2.5,1.2,5.3,1.2,8.4c0,3.1-0.4,5.9-1.2,8.4
		c-0.8,2.5-1.9,4.7-3.3,6.5c-1.4,1.8-3.1,3.2-5.1,4.2C66.9,381.1,64.7,381.6,62.3,381.6z M62.3,379.1c2,0,3.8-0.4,5.4-1.3
		s3-2.1,4.2-3.6c1.2-1.6,2.1-3.5,2.7-5.7c0.6-2.2,0.9-4.7,0.9-7.4c0-2.7-0.3-5.1-1-7.3c-0.6-2.2-1.6-4-2.7-5.6
		c-1.2-1.5-2.6-2.7-4.2-3.5c-1.6-0.8-3.4-1.2-5.4-1.2c-2,0-3.8,0.4-5.4,1.3c-1.6,0.8-3,2-4.2,3.6c-1.1,1.5-2,3.4-2.7,5.6
		s-0.9,4.6-0.9,7.3c0,2.7,0.3,5.2,1,7.4s1.5,4.1,2.7,5.7c1.2,1.6,2.6,2.8,4.2,3.6C58.5,378.6,60.3,379.1,62.3,379.1z"/>
	<path fill="#F5F2E0" d="M87.2,352.2l2.3,0l0.2,4.4l0.2,0c1.3-1.5,2.7-2.7,4.2-3.7c1.6-1,3.1-1.5,4.7-1.5c2.3,0,4.1,0.5,5.3,1.6
		c1.2,1.1,2.1,2.5,2.6,4.3c1.7-1.8,3.3-3.2,4.8-4.3c1.6-1.1,3.2-1.6,4.8-1.6c5.7,0,8.6,3.6,8.6,10.9l0,18.3l-2.7,0l0-18
		c0-3.1-0.5-5.3-1.6-6.8c-1-1.4-2.6-2.2-4.8-2.2c-2.6,0-5.4,1.8-8.6,5.4l0.1,21.6l-2.6,0l0-18c0-3.1-0.5-5.3-1.6-6.8
		c-1-1.4-2.7-2.2-4.9-2.2c-2.6,0-5.4,1.8-8.6,5.4l0.1,21.6l-2.6,0L87.2,352.2z"/>
	<path fill="#F5F2E0" d="M142.6,352.1l2.9,0l6.5,17.9c0.4,1.4,0.9,2.8,1.4,4.2c0.5,1.4,1,2.7,1.4,4l0.2,0c0.5-1.3,1-2.7,1.4-4.1
		c0.5-1.4,1-2.8,1.4-4.2l6.4-17.9l2.7,0l-10.5,28.6l-3.1,0L142.6,352.1z"/>
	<path fill="#F5F2E0" d="M170.9,366.3c0-2.4,0.3-4.5,1-6.4c0.7-1.9,1.6-3.5,2.8-4.7c1.2-1.3,2.5-2.2,4.1-2.9c1.5-0.7,3.2-1,4.9-1
		c1.7,0,3.3,0.3,4.9,1c1.6,0.7,2.9,1.6,4.1,2.9c1.2,1.3,2.1,2.8,2.8,4.7c0.7,1.9,1.1,4,1.1,6.4c0,2.4-0.3,4.5-1,6.3
		c-0.7,1.8-1.6,3.4-2.8,4.7c-1.2,1.3-2.5,2.2-4.1,2.9c-1.6,0.7-3.2,1-4.9,1c-1.7,0-3.3-0.3-4.9-1c-1.5-0.7-2.9-1.6-4.1-2.9
		c-1.2-1.3-2.1-2.8-2.8-4.7C171.2,370.8,170.9,368.7,170.9,366.3z M173.6,366.3c0,1.9,0.3,3.6,0.8,5.1c0.5,1.5,1.2,2.9,2.1,4
		c0.9,1.1,2,2,3.2,2.6c1.2,0.6,2.6,0.9,4,0.9c1.4,0,2.8-0.3,4-0.9c1.2-0.6,2.3-1.5,3.2-2.6c0.9-1.1,1.6-2.4,2.1-4
		c0.5-1.5,0.8-3.3,0.8-5.1c0-1.9-0.3-3.6-0.8-5.2c-0.5-1.5-1.2-2.9-2.1-4c-0.9-1.1-2-2-3.2-2.6c-1.3-0.6-2.6-0.9-4-0.9
		c-1.4,0-2.8,0.3-4,0.9c-1.2,0.6-2.3,1.5-3.2,2.6c-0.9,1.1-1.6,2.5-2.1,4C173.9,362.7,173.6,364.4,173.6,366.3z"/>
	<path fill="#F5F2E0" d="M205.1,351.9l2.3,0l0.3,5.3l0.2,0c0.9-1.8,2.1-3.2,3.5-4.4c1.4-1.1,2.9-1.7,4.6-1.7c0.6,0,1.1,0,1.5,0.1
		c0.4,0.1,0.9,0.2,1.4,0.5l-0.6,2.4c-0.5-0.2-0.9-0.3-1.3-0.4s-0.8-0.1-1.4-0.1c-1.3,0-2.6,0.6-4,1.6c-1.4,1.1-2.7,3-3.8,5.7
		l0.1,19.5l-2.6,0L205.1,351.9z"/>
	<path fill="#F5F2E0" d="M221,366.2c0-2.3,0.3-4.4,1-6.3c0.7-1.9,1.6-3.4,2.8-4.7c1.2-1.3,2.5-2.3,4-3c1.5-0.7,3-1.1,4.6-1.1
		c3.4,0,6.1,1.1,8,3.4c2,2.3,2.9,5.6,2.9,9.8c0,0.4,0,0.7,0,1.1c0,0.4,0,0.7-0.1,1.1l-20.6,0.1c0,1.8,0.3,3.4,0.8,5
		c0.5,1.5,1.2,2.8,2.2,3.9c0.9,1.1,2.1,1.9,3.4,2.6c1.3,0.6,2.8,0.9,4.4,0.9c1.5,0,2.9-0.2,4.2-0.7c1.2-0.5,2.4-1.1,3.5-1.9l1.1,2
		c-1.2,0.7-2.4,1.3-3.8,1.9c-1.4,0.6-3.1,0.9-5.2,0.9c-1.8,0-3.5-0.3-5.2-1c-1.6-0.7-3-1.6-4.2-2.9c-1.2-1.3-2.1-2.9-2.8-4.7
		C221.4,370.6,221,368.5,221,366.2z M241.9,364.4c0-3.7-0.8-6.5-2.3-8.3c-1.5-1.8-3.6-2.8-6.1-2.8c-1.2,0-2.4,0.3-3.5,0.8
		c-1.1,0.5-2.1,1.3-3,2.2s-1.6,2.1-2.2,3.5c-0.6,1.4-0.9,2.9-1.1,4.6L241.9,364.4z"/>
	<path fill="#F5F2E0" d="M250.2,375.2c1.2,1,2.5,1.9,3.9,2.6c1.4,0.7,3.1,1,5.2,1c2.3,0,4-0.6,5.1-1.7c1.1-1.1,1.7-2.5,1.7-4
		c0-0.9-0.2-1.6-0.6-2.3c-0.4-0.7-1-1.2-1.6-1.7c-0.7-0.5-1.4-0.9-2.2-1.2c-0.8-0.4-1.6-0.7-2.5-1c-1.1-0.4-2.2-0.8-3.2-1.2
		c-1.1-0.4-2.1-1-3-1.6c-0.9-0.6-1.6-1.3-2.1-2.2c-0.5-0.9-0.8-1.9-0.8-3.1c0-1,0.2-2,0.6-3c0.4-0.9,1-1.7,1.8-2.4
		c0.8-0.7,1.8-1.2,2.9-1.6c1.1-0.4,2.4-0.6,4-0.6s3,0.3,4.4,0.8c1.5,0.6,2.7,1.3,3.7,2.1l-1.4,1.9c-1-0.7-2-1.3-3-1.8
		c-1.1-0.5-2.3-0.7-3.8-0.7c-1.1,0-2.1,0.2-2.9,0.5c-0.8,0.3-1.5,0.7-2,1.2c-0.5,0.5-0.9,1-1.2,1.7c-0.3,0.6-0.4,1.3-0.4,1.9
		c0,0.8,0.2,1.5,0.6,2.1c0.4,0.6,0.9,1.1,1.5,1.5c0.6,0.4,1.4,0.8,2.2,1.2c0.8,0.3,1.6,0.7,2.5,1c1.1,0.4,2.2,0.9,3.3,1.3
		c1.1,0.4,2.1,1,3,1.6c0.9,0.6,1.6,1.4,2.2,2.3c0.6,0.9,0.8,2.1,0.8,3.5c0,1.1-0.2,2.1-0.6,3.1c-0.4,1-1,1.8-1.9,2.6
		c-0.8,0.7-1.8,1.3-3,1.8c-1.2,0.4-2.6,0.7-4.1,0.7c-2.1,0-4.1-0.4-5.9-1.1s-3.3-1.7-4.6-2.8L250.2,375.2z"/>
	<path fill="#F5F2E0" d="M288.1,351.7l2.3,0l0.2,4.4l0.2,0c1.3-1.5,2.7-2.7,4.2-3.7c1.6-1,3.1-1.5,4.7-1.5c2.3,0,4.1,0.5,5.3,1.6
		c1.2,1.1,2.1,2.5,2.6,4.3c1.7-1.8,3.3-3.2,4.8-4.3c1.6-1.1,3.2-1.6,4.8-1.6c5.7,0,8.6,3.6,8.6,10.9l0,18.3l-2.7,0l0-18
		c0-3.1-0.5-5.3-1.6-6.8c-1-1.4-2.6-2.2-4.8-2.2c-2.6,0-5.4,1.8-8.6,5.4l0.1,21.6l-2.6,0l0-18c0-3.1-0.5-5.3-1.6-6.8
		c-1-1.4-2.7-2.2-4.9-2.2c-2.6,0-5.4,1.8-8.6,5.4l0.1,21.6l-2.6,0L288.1,351.7z"/>
	<path fill="#F5F2E0" d="M334.9,373c0-3.1,1.5-5.5,4.4-7.2c3-1.7,7.6-2.9,14-3.6c0-1.1,0-2.2-0.2-3.2c-0.2-1.1-0.5-2.1-1-2.9
		c-0.5-0.9-1.2-1.5-2.1-2.1c-0.9-0.5-2-0.8-3.4-0.8c-1.9,0-3.7,0.4-5.3,1.1c-1.6,0.8-2.9,1.5-3.8,2.2l-1.2-2
		c0.5-0.4,1.1-0.8,1.9-1.2c0.7-0.4,1.5-0.8,2.4-1.2c0.9-0.4,1.9-0.7,2.9-0.9c1.1-0.3,2.2-0.4,3.3-0.4c1.7,0,3.1,0.3,4.3,0.9
		c1.2,0.6,2.1,1.4,2.8,2.3c0.7,1,1.2,2.2,1.5,3.5c0.3,1.3,0.5,2.8,0.5,4.3l0,18.3l-2.2,0l-0.3-3.7l-0.1,0c-1.5,1.2-3,2.2-4.7,3.1
		c-1.7,0.9-3.5,1.3-5.4,1.4c-1.2,0-2.2-0.2-3.2-0.5c-1-0.3-1.9-0.8-2.7-1.4c-0.8-0.6-1.4-1.4-1.8-2.4S334.9,374.3,334.9,373z
		 M337.6,372.9c0,2.1,0.6,3.5,1.8,4.4c1.2,0.9,2.6,1.3,4.2,1.3c1.7,0,3.3-0.4,4.8-1.2c1.5-0.8,3.2-2,4.9-3.5l0-9.7
		c-2.9,0.4-5.4,0.8-7.4,1.3c-2,0.5-3.6,1.1-4.8,1.9c-1.2,0.7-2.1,1.5-2.6,2.4C337.9,370.7,337.6,371.8,337.6,372.9z"/>
	<path fill="#F5F2E0" d="M363.8,365.8c0-2.3,0.3-4.4,1-6.3c0.7-1.9,1.6-3.5,2.8-4.8s2.5-2.3,4-3c1.5-0.7,3.1-1.1,4.9-1.1
		c1.7,0,3.3,0.3,4.6,0.9c1.3,0.6,2.7,1.5,4.1,2.6L385,349l0-11.8l2.6,0l0.1,42.8l-2.3,0l-0.3-3.7l-0.2,0c-1.1,1.2-2.5,2.2-4.1,3.1
		c-1.6,0.9-3.3,1.3-5.2,1.4c-3.6,0-6.5-1.3-8.6-3.8C364.9,374.4,363.8,370.7,363.8,365.8z M366.6,365.8c0,1.9,0.2,3.6,0.6,5.2
		c0.4,1.5,1,2.9,1.8,4c0.8,1.1,1.8,1.9,3,2.6c1.2,0.6,2.5,0.9,4,0.9c1.6,0,3.1-0.4,4.6-1.2c1.4-0.8,2.9-2,4.4-3.5l0-17
		c-1.5-1.3-2.9-2.3-4.3-2.8c-1.3-0.6-2.7-0.8-4.1-0.8c-1.4,0-2.8,0.3-4,1c-1.2,0.7-2.3,1.6-3.2,2.7c-0.9,1.1-1.6,2.5-2.1,4.1
		C366.9,362.4,366.6,364,366.6,365.8z"/>
	<path fill="#F5F2E0" d="M396,387.4c1.3-0.7,2.4-1.7,3.3-2.9c0.8-1.2,1.3-2.7,1.3-4.3c-0.2,0-0.4,0.1-0.7,0.1
		c-0.7,0-1.3-0.2-1.8-0.6c-0.5-0.4-0.7-1.1-0.8-1.8c0-0.8,0.3-1.4,0.8-1.8c0.5-0.4,1.1-0.7,1.8-0.7c0.9,0,1.6,0.4,2.2,1.1
		c0.6,0.8,0.8,1.8,0.8,3.1c0,2.2-0.6,4.1-1.7,5.8c-1.1,1.7-2.6,3-4.4,3.9L396,387.4z"/>
	<path fill="#F5F2E0" d="M423.5,351.3l2.3,0l0.2,4.4l0.2,0c1.3-1.5,2.7-2.7,4.2-3.7c1.6-1,3.1-1.5,4.7-1.5c2.3,0,4.1,0.5,5.3,1.6
		c1.2,1.1,2.1,2.5,2.6,4.3c1.7-1.8,3.3-3.2,4.8-4.3c1.6-1.1,3.2-1.6,4.8-1.6c5.7,0,8.6,3.6,8.6,10.9l0,18.3l-2.7,0l0-18
		c0-3.1-0.5-5.3-1.6-6.8c-1-1.4-2.6-2.2-4.8-2.2c-2.6,0-5.4,1.8-8.6,5.4l0.1,21.6l-2.6,0l0-18c0-3.1-0.5-5.3-1.6-6.8
		c-1-1.4-2.7-2.2-4.9-2.2c-2.6,0-5.4,1.8-8.6,5.4l0.1,21.6l-2.6,0L423.5,351.3z"/>
	<path fill="#F5F2E0" d="M473.2,344.3c-0.7,0-1.2-0.2-1.7-0.7c-0.5-0.4-0.7-1-0.7-1.7c0-0.8,0.2-1.3,0.7-1.8c0.5-0.4,1-0.6,1.7-0.6
		c0.7,0,1.2,0.2,1.7,0.6c0.5,0.4,0.7,1,0.7,1.8c0,0.7-0.2,1.2-0.7,1.7C474.4,344.1,473.8,344.3,473.2,344.3z M471.8,351.2l2.6,0
		l0.1,28.6l-2.6,0L471.8,351.2z"/>
	<path fill="#F5F2E0" d="M485.4,336.9l2.6,0l0.1,39.4c0,0.6,0.1,1.1,0.4,1.4c0.2,0.3,0.5,0.4,0.9,0.4c0.1,0,0.2,0,0.4,0
		c0.1,0,0.4,0,0.7-0.1l0.5,2.1c-0.3,0.1-0.6,0.2-0.8,0.2c-0.3,0.1-0.6,0.1-1.1,0.1c-2.3,0-3.5-1.5-3.5-4.5L485.4,336.9z"/>
	<path fill="#F5F2E0" d="M499.6,351.1l2.7,0l0.1,33.9c0,2.8-0.5,4.9-1.5,6.3c-1,1.4-2.7,2.1-4.9,2.1c-0.7,0-1.3-0.1-2-0.2
		c-0.7-0.1-1.2-0.3-1.7-0.5l0.6-2.1c0.4,0.1,0.8,0.2,1.3,0.4c0.5,0.1,1.1,0.2,1.6,0.2c1.6,0,2.6-0.6,3.1-1.8
		c0.5-1.2,0.7-2.7,0.7-4.5L499.6,351.1z M500.9,344.2c-0.6,0-1.2-0.2-1.7-0.7c-0.5-0.4-0.7-1-0.7-1.7c0-0.8,0.2-1.3,0.7-1.8
		c0.5-0.4,1-0.6,1.7-0.6c0.7,0,1.3,0.2,1.7,0.6c0.5,0.4,0.7,1,0.7,1.8c0,0.7-0.2,1.2-0.7,1.7C502.2,344,501.6,344.2,500.9,344.2z"/>
	<path fill="#F5F2E0" d="M533.4,355.2c1,1.3,1.7,2.8,2.3,4.5c0.6,1.7,0.8,3.6,0.8,5.8c0,2.4-0.3,4.5-1,6.3c-0.7,1.8-1.6,3.4-2.8,4.7
		c-1.2,1.3-2.5,2.2-4.1,2.9c-1.6,0.7-3.2,1-4.9,1c-3.3,0-6.1-1.1-8.4-3.3l-3.2,3.9l-1.6-1.2l3.4-4.2c-1-1.3-1.7-2.7-2.3-4.4
		c-0.6-1.7-0.8-3.6-0.9-5.7c0-2.4,0.3-4.5,1-6.4c0.7-1.9,1.6-3.5,2.8-4.7c1.2-1.3,2.5-2.2,4.1-2.9c1.5-0.7,3.2-1,4.9-1
		c1.6,0,3.1,0.3,4.6,0.8c1.5,0.6,2.8,1.4,3.9,2.5l3.2-3.9l1.6,1.2L533.4,355.2z M530.5,355.6c-1.8-2-4.1-3-6.9-3
		c-1.4,0-2.8,0.3-4,0.9c-1.2,0.6-2.3,1.5-3.2,2.6c-0.9,1.1-1.6,2.5-2.1,4.1c-0.5,1.6-0.8,3.3-0.8,5.2c0,3.2,0.7,5.9,2.2,8.2
		L530.5,355.6z M516.9,375.1c1.9,2,4.1,3,6.8,3c1.4,0,2.8-0.3,4-0.9c1.2-0.6,2.3-1.5,3.2-2.6c0.9-1.1,1.6-2.4,2.1-4
		c0.5-1.5,0.8-3.3,0.8-5.1c0-3.3-0.7-6-2.2-8.2L516.9,375.1z"/>
	<path fill="#F5F2E0" d="M554.6,365.3c0-2.4,0.3-4.5,1-6.4c0.7-1.9,1.6-3.5,2.8-4.7c1.2-1.3,2.5-2.2,4.1-2.9c1.5-0.7,3.2-1,4.9-1
		c1.7,0,3.3,0.3,4.9,1c1.6,0.7,2.9,1.6,4.1,2.9c1.2,1.3,2.1,2.8,2.8,4.7c0.7,1.9,1.1,4,1.1,6.4c0,2.4-0.3,4.5-1,6.3
		c-0.7,1.8-1.6,3.4-2.8,4.7c-1.2,1.3-2.5,2.2-4.1,2.9c-1.6,0.7-3.2,1-4.9,1s-3.3-0.3-4.9-1c-1.6-0.7-2.9-1.6-4.1-2.9
		c-1.2-1.3-2.1-2.8-2.8-4.7C554.9,369.8,554.6,367.7,554.6,365.3z M557.3,365.3c0,1.9,0.3,3.6,0.8,5.1c0.5,1.5,1.2,2.9,2.1,4
		c0.9,1.1,2,2,3.2,2.6c1.2,0.6,2.6,0.9,4,0.9c1.4,0,2.8-0.3,4-0.9c1.2-0.6,2.3-1.5,3.2-2.6c0.9-1.1,1.6-2.4,2.1-4
		c0.5-1.5,0.8-3.3,0.8-5.1c0-1.9-0.3-3.6-0.8-5.2c-0.5-1.5-1.2-2.9-2.1-4c-0.9-1.1-2-2-3.2-2.6c-1.3-0.6-2.6-0.9-4-0.9
		s-2.8,0.3-4,0.9c-1.2,0.6-2.3,1.5-3.2,2.6c-0.9,1.1-1.6,2.5-2.1,4C557.6,361.7,557.3,363.4,557.3,365.3z"/>
	<path fill="#F5F2E0" d="M586.5,385.3c0-1.3,0.4-2.5,1.1-3.7c0.8-1.2,1.8-2.3,3.1-3.2l0-0.2c-0.7-0.4-1.3-1-1.8-1.8
		c-0.5-0.8-0.7-1.7-0.7-2.8c0-1.3,0.4-2.4,1.1-3.2c0.7-0.9,1.4-1.6,2-2l0-0.2c-0.9-0.8-1.7-1.9-2.5-3.2c-0.7-1.3-1.1-2.9-1.1-4.6
		c0-1.5,0.2-2.8,0.8-4.1c0.5-1.2,1.2-2.3,2.1-3.2c0.9-0.9,2-1.6,3.2-2.1c1.2-0.5,2.5-0.8,3.9-0.8c0.8,0,1.5,0.1,2.1,0.2
		c0.6,0.1,1.2,0.3,1.6,0.5l9.7,0l0,2.2l-6.7,0c0.9,0.8,1.7,1.8,2.3,3.1c0.6,1.2,0.9,2.6,0.9,4.1c0,1.5-0.3,2.8-0.8,4.1
		c-0.5,1.2-1.2,2.3-2.1,3.2s-1.9,1.6-3.2,2.1c-1.2,0.5-2.5,0.8-3.9,0.8c-0.8,0-1.6-0.1-2.5-0.3c-0.9-0.2-1.6-0.5-2.3-0.9
		c-0.6,0.5-1.2,1.1-1.6,1.7c-0.5,0.6-0.7,1.4-0.7,2.4c0,1,0.4,1.9,1.1,2.6c0.8,0.7,2.2,1.1,4.4,1.1l6.1,0c3.2,0,5.6,0.5,7.1,1.6
		c1.5,1,2.3,2.7,2.3,5c0,1.2-0.3,2.4-0.9,3.6c-0.6,1.2-1.5,2.2-2.7,3.1c-1.2,0.9-2.6,1.6-4.3,2.2c-1.7,0.5-3.5,0.8-5.6,0.8
		c-3.6,0-6.5-0.7-8.6-2.1S586.5,387.8,586.5,385.3z M589,385.1c0,1.8,0.8,3.2,2.5,4.3c1.6,1.1,4,1.7,7.1,1.6c1.6,0,3-0.2,4.3-0.6
		c1.3-0.4,2.4-1,3.3-1.6c0.9-0.7,1.6-1.4,2.1-2.3c0.5-0.9,0.7-1.7,0.7-2.7c0-1.6-0.6-2.7-1.7-3.4c-1.1-0.7-2.8-1-4.9-1l-6.1,0
		c-0.3,0-0.8,0-1.5-0.1c-0.7-0.1-1.4-0.2-2.1-0.4c-1.3,0.9-2.3,1.9-2.9,2.9C589.3,383,589,384.1,589,385.1z M597.8,368.3
		c1,0,1.9-0.2,2.8-0.6c0.9-0.4,1.7-0.9,2.3-1.6c0.7-0.7,1.2-1.6,1.6-2.6c0.4-1,0.6-2.1,0.6-3.3c0-1.2-0.2-2.3-0.6-3.3
		c-0.4-1-0.9-1.8-1.6-2.5c-0.7-0.7-1.4-1.2-2.4-1.6c-0.9-0.4-1.9-0.6-2.9-0.6c-1,0-2,0.2-2.9,0.6c-0.9,0.4-1.7,0.9-2.3,1.6
		c-0.7,0.7-1.2,1.5-1.6,2.5c-0.4,1-0.6,2.1-0.6,3.3c0,1.2,0.2,2.3,0.6,3.3c0.4,1,0.9,1.8,1.6,2.6c0.7,0.7,1.5,1.3,2.4,1.6
		C595.8,368.1,596.8,368.3,597.8,368.3z"/>
	<path fill="#F5F2E0" d="M629.6,336.6l2.6,0l0.1,31.6l0.1,0l14.1-17.4l3,0l-9.3,11.3l10.9,17.2l-2.9,0l-9.5-15.3l-6.4,7.5l0,7.8
		l-2.6,0L629.6,336.6z"/>
	<path fill="#F5F2E0" d="M657.2,336.5l2.6,0l0.1,39.4c0,0.6,0.1,1.1,0.4,1.4c0.2,0.3,0.5,0.4,0.9,0.4c0.1,0,0.2,0,0.4,0
		c0.1,0,0.4,0,0.7-0.1l0.5,2.1c-0.3,0.1-0.6,0.2-0.8,0.2c-0.3,0.1-0.6,0.1-1.1,0.1c-2.3,0-3.5-1.5-3.5-4.5L657.2,336.5z"/>
	<path fill="#F5F2E0" d="M672.7,343.8c-0.7,0-1.2-0.2-1.7-0.7c-0.5-0.4-0.7-1-0.7-1.7c0-0.8,0.2-1.3,0.7-1.8c0.5-0.4,1-0.6,1.7-0.6
		c0.7,0,1.2,0.2,1.7,0.6c0.5,0.4,0.7,1,0.7,1.8c0,0.7-0.2,1.2-0.7,1.7C674,343.6,673.4,343.8,672.7,343.8z M671.4,350.7l2.6,0
		l0.1,28.6l-2.6,0L671.4,350.7z"/>
	<path fill="#F5F2E0" d="M685,350.7l2.3,0l0.2,4.4l0.2,0c1.3-1.5,2.7-2.7,4.2-3.7c1.6-1,3.1-1.5,4.7-1.5c2.3,0,4.1,0.5,5.3,1.6
		c1.2,1.1,2.1,2.5,2.6,4.3c1.7-1.8,3.3-3.2,4.8-4.3c1.6-1.1,3.2-1.6,4.8-1.6c5.7,0,8.6,3.6,8.6,10.9l0,18.3l-2.7,0l0-18
		c0-3.1-0.5-5.3-1.6-6.8c-1-1.4-2.6-2.2-4.8-2.2c-2.6,0-5.4,1.8-8.6,5.4l0.1,21.6l-2.6,0l0-18c0-3.1-0.5-5.3-1.6-6.8
		c-1-1.4-2.7-2.2-4.9-2.2c-2.6,0-5.4,1.8-8.6,5.4l0.1,21.6l-2.6,0L685,350.7z"/>
	<path fill="#F5F2E0" d="M731.8,372c0-3.1,1.5-5.5,4.4-7.2c3-1.7,7.6-2.9,14-3.6c0-1.1,0-2.2-0.2-3.2c-0.2-1.1-0.5-2.1-1-2.9
		c-0.5-0.9-1.2-1.5-2.1-2.1c-0.9-0.5-2-0.8-3.4-0.8c-1.9,0-3.7,0.4-5.3,1.1s-2.9,1.5-3.8,2.2l-1.2-2c0.5-0.4,1.1-0.8,1.9-1.2
		c0.7-0.4,1.5-0.8,2.4-1.2c0.9-0.4,1.9-0.7,2.9-0.9c1.1-0.3,2.2-0.4,3.3-0.4c1.7,0,3.1,0.3,4.3,0.9c1.2,0.6,2.1,1.4,2.8,2.3
		c0.7,1,1.2,2.2,1.5,3.5c0.3,1.3,0.5,2.8,0.5,4.3l0,18.3l-2.2,0l-0.3-3.7l-0.1,0c-1.5,1.2-3,2.2-4.7,3.1c-1.7,0.9-3.5,1.3-5.4,1.4
		c-1.2,0-2.2-0.2-3.2-0.5c-1-0.3-1.9-0.8-2.7-1.4c-0.8-0.6-1.4-1.4-1.8-2.4S731.8,373.3,731.8,372z M734.6,371.8
		c0,2.1,0.6,3.5,1.8,4.4c1.2,0.9,2.6,1.3,4.2,1.3c1.7,0,3.3-0.4,4.8-1.2c1.5-0.8,3.2-2,4.9-3.5l0-9.7c-2.9,0.4-5.4,0.8-7.4,1.3
		c-2,0.5-3.6,1.1-4.8,1.9c-1.2,0.7-2.1,1.5-2.6,2.4C734.8,369.7,734.6,370.7,734.6,371.8z"/>
</g>
</svg>
