<?xml version="1.0" encoding="utf-8"?>
<!-- Generator: Adobe Illustrator 18.0.0, SVG Export Plug-In . SVG Version: 6.00 Build 0)  -->
<!DOCTYPE svg PUBLIC "-//W3C//DTD SVG 1.1//EN" "http://www.w3.org/Graphics/SVG/1.1/DTD/svg11.dtd">
<svg version="1.1" id="Lag_1" xmlns="http://www.w3.org/2000/svg" xmlns:xlink="http://www.w3.org/1999/xlink" x="0px" y="0px"
	 viewBox="0 0 800 400" enable-background="new 0 0 800 400" xml:space="preserve">
<polygon fill="#F2EFDC" points="44,77 744.2,47.7 747.3,277.4 58.6,264.6 "/>
<g>
	<path fill="#253A44" d="M377,103.3c0.4,0,0.4-0.4,0.4-0.4C377,102.8,377,103.3,377,103.3z"/>
	<path fill="#253A44" d="M373.1,116.2l0.4-0.4C373.5,115.8,373.1,115.8,373.1,116.2z"/>
	<path fill="#253A44" d="M384,107.2c0,0.4,0,0.4,0,0.4C384,107.2,384,107.2,384,107.2z"/>
	<path fill="#253A44" d="M391,105C391,105,391,104.9,391,105C391,105,391,105,391,105z"/>
	<path fill="#253A44" d="M427.3,156.4c-1.7-6.5-4.3-11.2-8.2-13.8c-3.9-2.6-7.3-3.9-11.6-3.9c0,0-1.7,0-2.6,0.4
		c-5.2,0.9-9.1,3-12.1,7.3c-6.5,9-9.9,17.7-10,25.4c0,1.7,0,3.9,0.4,5.6c0.9,5.2,3,9.2,6,11.4c2.6,2.2,7.3,3.2,14.2,3.2h0.4
		c7.3,0,12.5-1.4,16.4-4c3.9-2.6,6-6.5,7.3-12.6c0.9-3,1.3-6.1,0.9-9.5C428.6,162.9,428.2,159.4,427.3,156.4z"/>
	<path fill="#253A44" d="M220.8,137.9c-2.2-2.2-5.2-3.5-8.2-4.3c-1.7-0.9-3.4-1.3-5.2-1.3c-2.2,0-3,0-4.3,0.4
		c-3,0.9-4.7,2.1-5.6,5.2c-0.9,3.4-1.3,12.9-1.8,28c0,4.7,0,8.6,0,11.6c0,6,0.4,9.1,0.4,10.3c1.7-0.4,4.7-1.7,9.1-5.2
		c4.7-3.4,9.1-8.2,13-13.8c6-7.8,8.6-14.6,8.7-20.3C226.8,144.4,224.7,141,220.8,137.9z"/>
	<path fill="#253A44" d="M389.9,110c-0.4,0-0.4,0-0.4,0H389.9z"/>
	<path fill="#253A44" d="M114.3,120.5c-7.2-10.9-16.8-8.6-16.8-8.6c7.7-0.8,13.1,5.3,15.9,9.5C113.7,121.1,114,120.8,114.3,120.5z"
		/>
	<path fill="#253A44" d="M782.9,28.3l-761.4,9c-2.4,0-4.2,2-4.1,4.4L28.7,286c0.1,2.4,2.2,4.7,4.6,4.7l742.3,1
		c2.4,0,4.5-2.3,4.6-4.7l6.9-254.3C787.2,30.3,785.3,28.3,782.9,28.3z M678.4,105c0.4-3,1.7-5.2,3-6.9c1.7-2.2,3.9-3.4,6.5-3.4
		c2.6,0,4.7,0.4,6.5,2.2c1.3,1.3,2.6,3.5,4.3,6.5c1.7,4.7,1.3,8.2-0.4,10.3c-1.3,1.7-3.9,2.6-7.8,2.6c-3.9,0.4-6.5-0.4-8.6-2.2
		c-0.4,0-0.9-0.4-0.9-0.4C678.8,111.5,677.9,108.5,678.4,105z M382.1,107.2c0.4,0,0.4-0.4,0.4-0.4c0.4,0.4,0.4,0.4,0.4,0.4
		c0-0.4,0.4-1.3,0.4-1.7c0.4,0.4,0.4,0.4,0.9,0.9c0-0.9-0.2-1.7,0.3-2.6c0.9-0.4,2.4-1.3,2.4-1.7c0,0.4,0,0.2,0,0.6
		c0-0.4,1.2-2.6,1.6-2.6h0.4l0.4,1.2c0.4,0.9,0.9,2.1,0.9,3c0-0.4,0-0.2,0.4-0.7c0,0.4,0.5,1,0.5,1.4c0,0-0.3,0.5-0.3,1
		c0,0.4,0,3.1,0,3.1c4,0,0.2,0,0.2,0l0.4-1.8c0,0.4,0,0.6,0,1.1c-1.3,0.9-2.6,1-3.9,1.4c1.3-0.4,2.6-1,3.5-1
		c-0.4,0.4-0.7,0.3-1.2,0.8c0.4,0,1-0.1,1-0.1v0.4c0,0.4,0,0.4,0,0.4c0,0.9-1.3,1.3-1.8,1.7c-2.2,0.4-2.2,1.7-5.2,2.6c0,0,0,0,0,0.4
		c0,0,0,0,0-0.4c0-2.2-0.9-4.3-2.7-5.6C381.3,108.4,382.1,107.6,382.1,107.2z M256.2,100.9c0.4-3,1.7-5.2,3-6.9
		c1.7-2.2,3.9-3.4,6.5-3.4c2.6,0,4.7,0.4,6.5,2.2c1.3,1.3,2.6,3.9,4.3,6.5c1.7,4.7,1.3,8.2-0.4,10.3c-1.3,1.7-3.9,2.6-7.8,2.6
		c-3.9,0.4-6.5-0.4-8.6-2.2c-0.4,0-0.9-0.4-0.9-0.4C256.7,107.4,255.8,104.4,256.2,100.9z M170.3,199.1
		c-0.5,15.1-10.8,22.4-30.2,22.4c0-0.4-1.3-0.9-1.3-0.9c-12.5-0.5-22-3.1-28.9-7.8c-4.7-3.5-6.9-7.3-6.9-11.2
		c-0.4-2.2,0.4-5.2,2.2-7.8c1.3-1.7,3-2.2,6-2.1c3,0,7.3,0.9,12.9,2.2c6.9,1.7,12.5,3.1,16.4,3.1c0.4,0,0.9,0,0.9,0
		c3,0,4.3-0.9,4.7-1.8c-0.9-1.3-5.6-6.5-31.4-28.1c-7.8-6.5-11.2-15.1-9.9-26.3c0.8-6.6,2.9-12.2,6.4-16.8c-2.5,0.3-5.1,1.3-5.1,1.3
		l2.2-1.7c0,0-1.3,0-6.5,0.9c-5.2,0.9-9.9-3-11.2-5.6c-2.1-4.7-4.7-3.5-4.7-3.5s1.7-3.9,9.1-7.3c10.4-4.7,15.5,2.2,15.5,2.2l0-1.3
		c4,3.4,4.8,8,4.8,10.7c1.5-1.4,3.2-2.6,5.1-3.8c6-3.4,12.1-5.2,19-5.1l1.7,0c7.8,0.4,13.4,2.6,17.2,7.4c4.7,5.6,5.6,9.9,3.9,12.9
		c-1.3,2.2-3.9,3.4-8.2,3.4c-1.7,0-3.4,0-5.6-0.4c-1.7-0.4-3.4-0.4-5.2-0.4c-3.4,0-6.9,0.9-9.5,2.1c-3.9,2.1-5.6,5.2-5.6,9
		c0,2.2,2.1,6,10.8,12.5c6.9,4.8,14.2,10.8,22,18.6c4.3,4.7,6.9,8.6,8.2,11.2c0.9,2.2,1.7,4.7,1.7,8.2
		C170.7,196.5,170.7,197.4,170.3,199.1z M245.8,169.9c-5.6,11.2-13,20.2-20.7,28c-8.6,7.7-16.4,10.8-23.7,10.7
		c-1.3,0-3.5,0.4-3.9,1.7c0,0.4-0.4,0.9-0.4,0.9c-0.4,0.4-0.4,1.3-0.4,7.8l0,3.9c0,3.9,0,4.3,0,6.5c-0.9,3.4-2.6,5.2-5.2,6.5
		c-1.3,1.7-3,1.3-4.3,1.3c-2.6,0-4.7-0.4-6.9-2.6c-2.2-2.2-3.4-6-4.3-13.8c0-1.3,0-2.2-0.4-3c-0.4-5.2-0.8-10.8-1.2-29.8
		c-0.4-28.5-0.4-46.1,0.9-54.3c1.3-8.2,5.6-14.7,12.1-19.4c3.5-2.6,9.1-3.9,16-3.9l5.2,0c9.9,0.9,17.7,3.5,23.7,7.4
		c8.6,6.1,14.2,13.8,16.8,23.7c0.9,3.5,1.3,6.5,1.3,9.5C250.1,157.4,248.8,163.9,245.8,169.9z M280.7,204c-1.7,7.8-6.9,9.5-10.8,9.5
		c-3.9,0-9.1-1.7-11.2-9.5c-1.3-5.6-2.6-17.7-3-37.5l0-6c-0.4-28.5,1.3-34.5,2.6-36.7c2.6-3.4,5.6-4.8,9.1-4.8h0.9c0,0,0,0,0.4,0
		c3.9,0.4,6.5,3.3,7.3,7.1c1.3,6.5,2.6,20.2,3.8,41.7c0.4,8.6,0.8,16.3,1.3,21.9C281.1,196.7,281.1,201,280.7,204z M352.2,200.7
		c-0.5,15.1-10.8,22.4-30.2,22.4c0-0.9-1.3-0.9-1.3-0.9c-12.5-0.5-22-3.1-28.9-7.8c-4.7-3.5-6.9-7.3-6.9-11.2
		c-0.4-2.6,0.4-5.2,2.2-7.8c1.3-1.7,3-2.2,6-2.1c3,0,7.3,1.6,12.9,2.9c6.9,1.7,12.5,3.8,16.4,3.8c0.4,0,0.9,0,0.9,0
		c3,0,4.3-1.6,4.7-2.5c-0.9-1.3-5.6-6.9-31.4-28.5c-7.8-6.5-11.2-15.3-9.9-26.5c1.3-11.2,6.5-19.6,15.6-25.2c6-3.4,12.1-5.4,19-5.4
		h1.7c7.8,0,13.4,2.7,17.2,7.5c4.7,5.6,5.6,10,3.9,13c-1.3,2.2-3.9,3.5-8.2,3.5c-1.7,0-3.4,0-5.6-0.4c-1.7-0.4-3.4-0.4-5.2-0.4
		c-3.4,0-6.9,0.9-9.5,2.1c-3.9,2.1-5.6,5.2-5.6,9c0,2.2,2.1,6,10.8,12.5c6.9,4.8,14.2,10.8,22,18.6c4.3,4.7,6.9,8.6,8.2,11.2
		c0.9,2.2,1.7,4.7,1.7,8.2C352.7,198.1,352.7,199,352.2,200.7z M454.5,170.2c-0.9,14.2-5.2,25.4-12.6,33.2c-5.6,6-13.4,9.9-22.4,12
		c-6,1.7-10.8,2.1-15.5,2.1c-4.3,0-8.6-0.4-12.9-1.7c-13.4-3.5-22.8-11.2-28.4-23.3c-2.6-6.5-4.3-12.9-4.7-19.8c0-6,0.9-12.1,3-18.5
		c4.2-13.3,12.3-23.7,24.1-31.8l-2.6-5.3l-3.1-0.6c-1.8,0.5-3.5,1.5-4.9,2.9c-0.9,0.4-1.3,0.6-2.2,0.6h-0.4h-0.4
		c0,0,0.4-0.3,0.4-0.7c0,0,0,0.7,0.4-0.3c0,0,0,0-0.4,0c-0.4,1-0.9,0.1-1.3,0.1c0.9-0.9,1.7-1.9,2.6-2.7c-1.3,0.9-2.2,1.6-3.5,2.5
		c-0.4-0.4-0.9,0.3-1.3-0.1l0.4,0.3c-0.4,0-0.9,0-1.3,0c-0.4,0-0.4-1.6-0.9-1.6c0.4,0,1.3-0.4,1.7-0.4c-0.9-0.4-1.3-1.7-1.3-2.5V114
		l-0.4-0.4c0.4,0,0.9-0.4,1.3-0.4l-0.6-0.4c0.9-0.4,1.6-1,2.9-1.4c0.9,0,1.6-0.3,2.5,0.7H372c0,0,0,0.3,0-0.1c0-0.4,0.5-0.9,0.1-1.3
		c0.4,0,1.8,0.4,2.3,0.4H374c0,0,0,0,0-0.4v0.4h1.2c0.4,0,1.3,0,1.7,0c0.4,1.8,1.3,3.4,2.7,4.7l2.2,0.1l-2.5-5.3
		c-1.9-1.4-4-2.1-6.2-2.5c-0.4-0.4-0.9-1.6-1.3-2.4c-0.4-0.4-0.4,3.4-0.4-1.6h0.4h0.4c-0.4,0-0.4,0.3-0.4,0.3
		c-0.4-0.4-0.9-0.4-2.2-1.2c0.4,0,0.9,0.9,1.3,0.9h0.4c-0.4,0-0.4-1-0.4-1c-0.4-0.9-1.3-2-1.7-2.9c0-1.3,0-2.3,0.4-3.6
		c0.4,0,1,0.4,1.4,0.4c0.4,0.4,1,0.4,1,0.4v-0.4c0-0.9-0.5-0.9-0.5-1.8l-0.1,0h0.4c1.3,1,1.5,0.9,2.4,1.8c0.4,0.4-0.2,0-0.2,0v-0.4
		c0,0,0.6-0.4,0.6-0.9c0.4,0.4,1.2,0.4,1.6,0.9c0,0.4,0.6,0.9,0.6,1.3c0.4,0,0.5-0.4,0.5-0.4c0.9,0.4,1.3,1.3,1.8,1.7
		c-0.4,1.3-0.8,2.6-1.7,3.9c0.9-1.3,1-2.6,1.9-3.4c0,0.4-0.3,1.3-0.3,1.7v0.4c0-0.4,0.7-0.4,0.7-0.4c0.4-0.4,0.9-0.4,1.4-0.9
		l0.9,0.4v0.4c0,0.9-1.3,1.7-1.3,2.6c-0.9,2.2-1.7,4.7-1.7,7.8v0.4c0-0.4,0.5-0.4,0.5-0.4c-0.1-0.1,0.2-0.3,0-0.4l5.6,11.1
		c0.4-0.3,0.8-0.5,1.2-0.8c4.7-3.9,8.7-5.6,12.1-6.4c1.3-0.4,2.6,0,4.8,0h0.4c2.6,0,5.2,0,8.6,0.4c14.2,1.7,25,8.4,33.2,19.7
		c5.6,8.2,8.6,18,9,29.7C454.5,166.5,454.5,168.1,454.5,170.2z M516.2,143.2c-4.7-1.7-9.1-2.2-12.5-2.2c-5.6,0-9.9,1.7-12.9,6
		c-4.8,6.9-6.9,21.1-6.1,42.7c1.2,28.5-0.9,29.3-2.2,30.2c-1.3,0-3,0-4.7,0c-1.7,0-3.4,0-5.6-0.4c-4.7-1.3-7.3-3-8.6-6.1
		c-0.9-2.2-2.1-8.6-4.2-45.3c-0.8-13.8-1.3-23.7-1.7-30.2l0-5.2c0.4-5.6,1.7-9.1,4.3-9.9c0.9-0.4,2.2-0.4,3-0.4
		c2.6,0,5.2,1.3,8.2,3.5c2.2,1.7,3,2.2,3.4,2.2h0.4c1.7,0,5.6-3.9,10.8-6.5c4.7-2.6,10.4-3.9,16-3.9c4.7,0,9.5,0.9,15.1,2.6
		c12.9,4.3,19.4,10.4,19.8,17.7c0,2.6-0.4,4.3-1.7,5.6c-1.7,1.7-4.7,2.6-6.9,2.6C526.1,146.2,521.8,145.3,516.2,143.2z M625,211
		c0,0,0,0,0,0.4c-1,9.1-7.3,10.3-10.3,10.3c-4.7,0-8.1-1.3-10.3-3.9c-0.4-0.9-1.7-3-7.7-36.2c-4.7-28.5-6.8-33.6-7.7-34.5
		c0,0,0,0-0.4-0.4c-2.6-3.9-5.6-6-9-6.1c-3.4,0-7.8,2.1-12.5,6c-8.2,6.9-12.5,23.7-11.7,49.1c0.4,19.8-2.2,23.7-4.8,24.6
		c-1.3,0.4-2.2,0.4-3.5,0.4c-3.9,0-6.5-2.2-8.6-6.9c-2.1-4.7-3.9-13.4-4.3-25.9c-0.4-3-0.4-5.6-0.4-8.6c-0.4-30.2,9.1-49.6,29-58.6
		c6.5-3,12.9-4.3,18.5-4.3c2.7,0,5.2,0.4,7.6,1c1.1-3.8,4-7.3,8-9.5c2.8-2.4,6.6-4.4,11.1-3.6c-0.9-0.4-9.5-3.5-16.8,6.9
		c0,0-0.4-6.5,5.2-10.8l0,1.3c0,0,5.2-5.6,13.4-0.4c6,3.5,7.3,6.9,7.3,6.9s-2.2-1.3-4.3,2.6c-1.3,2.2-5.6,4.7-9.9,3.9
		c-4.3-1.3-5.2-1.3-5.2-1.3l1.7,1.7c0,0-6.5-3-7.8-0.9c0,0,0.5-0.8,1.3-2c-1.3,1.7-2.3,3.6-2.8,5.5c3.2,1.1,6.2,2.8,9.2,5.1
		c6,4.8,10.8,11.2,13.8,18.6c3,7.3,6,19,8.6,35.4c2.1,13.8,3.3,24.2,3.3,30.6L625,211z M670.4,218.9c-3,2.2-6.5,3-10.4,3
		c-3.4,0-7.3-0.9-11.6-3c-8.6-5.2-14.6-12.5-18.1-22.9c-1.3-4.3-2.1-15.5-2.5-34.1l-0.4-23.7c0.5-44,2.2-53,3.5-55.6
		c2.2-3.9,4.8-5.6,7.8-5.6c3,0,6,1.7,9,4.8c2.2,2.2,4.3,10.4,5.5,55.2c0.4,18.5,1.2,31.5,2.1,39.2c0.4,7.8,1.7,12.9,3,16
		c1.7,3,4.3,4.7,7.8,6.5c3.9,1.7,6.5,4.8,7.7,9.1c0.4,0.9,0.4,1.7,0.4,2.6C674.3,213.7,673,216.3,670.4,218.9z M700.6,207.3
		c-1.7,7.8-6.9,8.6-10.8,8.6c-3.9,0-9.1-0.9-11.2-9.1c-1.3-5.6-2.6-17.7-3-37.1l0-5.6c-0.4-28.5,1.3-34.5,2.6-36.6
		c2.6-3.4,5.6-5.6,9.1-5.6l0.9-0.9c0,0,0,0,0.4,0c3.9,3,6.5,3.9,7.3,8.2c1.3,6.5,2.6,20.7,3.8,42.3c0.4,9.1,0.8,16.6,1.3,22.2
		C701.1,200.6,701.1,204.2,700.6,207.3z"/>
	<path fill="#253A44" d="M387,102.8c0,0.4,0,0.4,0,0.4C387,102.8,387,102.8,387,102.8z"/>
	<path fill="#253A44" d="M391,104.6C391,104.6,391,104.6,391,104.6C391,104.6,391,104.6,391,104.6z"/>
	<path fill="#253A44" d="M384,106.3c0,0.4,0,0.4,0,0.4C384,106.3,384,106.3,384,106.3z"/>
</g>
<g>
	<path fill="#F5F2E0" d="M61.2,378.6c-2.2,0-4.2-0.4-6-1.3c-1.9-0.9-3.4-2.2-4.8-3.8c-1.3-1.7-2.4-3.7-3.1-6c-0.7-2.3-1.1-5-1.1-7.8
		c0-2.9,0.4-5.5,1.1-7.8c0.7-2.3,1.8-4.3,3.1-5.9c1.3-1.6,2.9-2.9,4.8-3.8c1.8-0.9,3.9-1.3,6-1.3c2.2,0,4.3,0.4,6.1,1.3
		c1.9,0.9,3.4,2.1,4.8,3.8c1.3,1.6,2.4,3.6,3.1,5.9c0.7,2.3,1.1,4.9,1.1,7.8s-0.4,5.5-1.1,7.9c-0.7,2.4-1.8,4.4-3.1,6
		c-1.3,1.7-2.9,3-4.8,3.9C65.5,378.1,63.4,378.6,61.2,378.6z M61.2,376.2c1.8,0,3.5-0.4,5-1.2c1.5-0.8,2.8-1.9,3.9-3.4
		c1.1-1.5,1.9-3.2,2.5-5.3c0.6-2.1,0.9-4.4,0.9-6.9c0-2.5-0.3-4.8-0.9-6.8c-0.6-2-1.4-3.8-2.5-5.2c-1.1-1.4-2.4-2.5-3.9-3.3
		c-1.5-0.8-3.2-1.2-5-1.2c-1.8,0-3.5,0.4-5.1,1.2c-1.5,0.8-2.8,1.9-3.9,3.3c-1.1,1.4-1.9,3.2-2.5,5.2s-0.9,4.3-0.9,6.8
		c0,2.6,0.3,4.9,0.9,6.9s1.4,3.8,2.5,5.3c1.1,1.5,2.4,2.6,3.9,3.4C57.7,375.9,59.4,376.3,61.2,376.2z"/>
	<path fill="#F5F2E0" d="M84.3,351.2l2.1,0l0.2,4.1l0.2,0c1.2-1.4,2.5-2.5,4-3.4c1.5-0.9,2.9-1.4,4.4-1.4c2.1,0,3.8,0.5,4.9,1.5
		c1.1,1,2,2.3,2.5,4c1.5-1.7,3-3,4.5-4c1.5-1,3-1.5,4.5-1.5c5.3,0,8,3.4,8,10.2l0,17.1l-2.5,0l0-16.7c0-2.8-0.5-4.9-1.5-6.3
		c-1-1.3-2.5-2-4.5-2c-2.4,0-5.1,1.7-8,5l0.1,20.1l-2.4,0l0-16.7c0-2.8-0.5-4.9-1.5-6.3c-1-1.3-2.5-2-4.6-2c-2.4,0-5.1,1.7-8,5
		l0.1,20.1l-2.4,0L84.3,351.2z"/>
	<path fill="#F5F2E0" d="M136,351.1l2.7,0l6,16.7c0.4,1.3,0.9,2.6,1.3,3.9c0.5,1.3,0.9,2.5,1.3,3.8l0.2,0c0.4-1.2,0.9-2.5,1.3-3.8
		c0.5-1.3,0.9-2.6,1.3-3.9l5.9-16.7l2.5,0l-9.8,26.6l-2.9,0L136,351.1z"/>
	<path fill="#F5F2E0" d="M162.3,364.4c0-2.2,0.3-4.2,1-6c0.6-1.8,1.5-3.2,2.6-4.4c1.1-1.2,2.4-2.1,3.8-2.7c1.4-0.6,3-1,4.5-1
		c1.6,0,3.1,0.3,4.6,0.9c1.5,0.6,2.7,1.5,3.8,2.7c1.1,1.2,2,2.6,2.6,4.4c0.6,1.8,1,3.7,1,6c0,2.2-0.3,4.2-1,5.9
		c-0.6,1.7-1.5,3.2-2.6,4.4c-1.1,1.2-2.4,2.1-3.8,2.7c-1.5,0.6-3,1-4.6,1c-1.6,0-3.1-0.3-4.6-0.9c-1.4-0.6-2.7-1.5-3.8-2.7
		c-1.1-1.2-2-2.6-2.6-4.3C162.6,368.6,162.3,366.6,162.3,364.4z M164.8,364.4c0,1.7,0.2,3.3,0.7,4.8c0.5,1.4,1.1,2.7,2,3.7
		c0.8,1,1.8,1.8,3,2.4c1.1,0.6,2.4,0.9,3.7,0.8c1.3,0,2.6-0.3,3.7-0.9c1.2-0.6,2.2-1.4,3-2.4c0.8-1,1.5-2.3,2-3.7
		c0.5-1.4,0.7-3,0.7-4.8c0-1.8-0.2-3.4-0.7-4.8c-0.5-1.4-1.1-2.7-2-3.7c-0.8-1.1-1.8-1.9-3-2.4c-1.2-0.6-2.4-0.9-3.7-0.8
		c-1.3,0-2.6,0.3-3.7,0.9c-1.1,0.6-2.1,1.4-3,2.4c-0.8,1.1-1.5,2.3-2,3.7C165.1,361,164.8,362.6,164.8,364.4z"/>
	<path fill="#F5F2E0" d="M194.1,350.9l2.1,0l0.2,4.9l0.2,0c0.9-1.7,2-3,3.2-4.1c1.3-1,2.7-1.6,4.3-1.6c0.5,0,1,0,1.4,0.1
		s0.8,0.2,1.3,0.4l-0.5,2.2c-0.4-0.2-0.8-0.3-1.2-0.4c-0.3-0.1-0.8-0.1-1.3-0.1c-1.2,0-2.4,0.5-3.7,1.5s-2.5,2.8-3.5,5.3l0,18.1
		l-2.4,0L194.1,350.9z"/>
	<path fill="#F5F2E0" d="M209,364.3c0-2.2,0.3-4.1,1-5.9c0.6-1.7,1.5-3.2,2.6-4.4s2.3-2.1,3.7-2.8c1.4-0.6,2.8-1,4.3-1
		c3.2,0,5.7,1.1,7.5,3.2c1.8,2.1,2.7,5.2,2.7,9.1c0,0.3,0,0.7,0,1c0,0.3,0,0.7-0.1,1l-19.2,0c0,1.7,0.3,3.2,0.8,4.6
		c0.5,1.4,1.2,2.6,2,3.7c0.9,1,1.9,1.8,3.1,2.4c1.2,0.6,2.6,0.9,4.1,0.8c1.4,0,2.7-0.2,3.9-0.6c1.2-0.4,2.2-1,3.2-1.8l1,1.9
		c-1.1,0.6-2.2,1.2-3.5,1.8c-1.3,0.6-2.9,0.8-4.9,0.8c-1.7,0-3.3-0.3-4.8-0.9c-1.5-0.6-2.8-1.5-3.9-2.7c-1.1-1.2-2-2.7-2.6-4.4
		C209.3,368.4,209,366.5,209,364.3z M228.5,362.6c0-3.4-0.7-6-2.1-7.7c-1.4-1.7-3.3-2.6-5.7-2.6c-1.1,0-2.2,0.2-3.3,0.7
		c-1,0.5-2,1.2-2.8,2.1c-0.8,0.9-1.5,2-2,3.3c-0.5,1.3-0.9,2.7-1,4.3L228.5,362.6z"/>
	<path fill="#F5F2E0" d="M236.1,372.6c1.1,1,2.4,1.8,3.7,2.4c1.3,0.6,2.9,1,4.8,1c2.1,0,3.7-0.5,4.7-1.6c1.1-1.1,1.6-2.3,1.6-3.7
		c0-0.8-0.2-1.5-0.6-2.2c-0.4-0.6-0.9-1.2-1.5-1.6c-0.6-0.4-1.3-0.8-2.1-1.2c-0.8-0.3-1.5-0.6-2.3-0.9c-1-0.4-2-0.8-3-1.2
		c-1-0.4-1.9-0.9-2.7-1.5c-0.8-0.6-1.5-1.3-2-2c-0.5-0.8-0.8-1.8-0.8-2.9c0-1,0.2-1.9,0.5-2.7c0.4-0.9,0.9-1.6,1.7-2.3
		c0.7-0.6,1.6-1.2,2.7-1.5c1.1-0.4,2.3-0.6,3.7-0.6c1.4,0,2.8,0.3,4.1,0.8c1.4,0.5,2.5,1.2,3.5,2l-1.3,1.7c-0.9-0.7-1.8-1.2-2.8-1.7
		c-1-0.5-2.2-0.7-3.6-0.7c-1,0-1.9,0.1-2.7,0.4c-0.7,0.3-1.4,0.6-1.9,1.1c-0.5,0.4-0.9,1-1.1,1.6c-0.2,0.6-0.4,1.2-0.4,1.8
		c0,0.8,0.2,1.4,0.5,2c0.4,0.5,0.8,1,1.4,1.4c0.6,0.4,1.3,0.8,2,1.1c0.8,0.3,1.5,0.6,2.3,0.9c1,0.4,2.1,0.8,3.1,1.2
		c1,0.4,2,0.9,2.8,1.5c0.8,0.6,1.5,1.3,2,2.2c0.5,0.9,0.8,1.9,0.8,3.2c0,1-0.2,2-0.6,2.9c-0.4,0.9-1,1.7-1.7,2.4
		c-0.8,0.7-1.7,1.2-2.8,1.6c-1.1,0.4-2.4,0.6-3.8,0.6c-2,0-3.8-0.4-5.5-1.1c-1.7-0.7-3.1-1.6-4.3-2.6L236.1,372.6z"/>
	<path fill="#F5F2E0" d="M271.5,350.7l2.1,0l0.2,4.1l0.2,0c1.2-1.4,2.5-2.5,4-3.4c1.5-0.9,2.9-1.4,4.4-1.4c2.1,0,3.8,0.5,4.9,1.5
		c1.1,1,2,2.3,2.4,4c1.5-1.7,3.1-3,4.5-4c1.5-1,3-1.5,4.5-1.5c5.3,0,8,3.4,8,10.2l0,17.1l-2.5,0l0-16.7c0-2.8-0.5-4.9-1.5-6.3
		c-1-1.3-2.5-2-4.5-2c-2.4,0-5.1,1.7-8,5l0.1,20.1l-2.4,0l0-16.7c0-2.8-0.5-4.9-1.5-6.3c-1-1.3-2.5-2-4.6-2c-2.4,0-5.1,1.7-8,5
		l0.1,20.1l-2.4,0L271.5,350.7z"/>
	<path fill="#F5F2E0" d="M315,370.6c0-2.9,1.4-5.2,4.1-6.7c2.8-1.6,7.1-2.7,13-3.4c0-1,0-2-0.2-3c-0.2-1-0.5-1.9-0.9-2.7
		c-0.5-0.8-1.1-1.4-1.9-1.9c-0.8-0.5-1.9-0.7-3.2-0.7c-1.8,0-3.5,0.4-4.9,1.1c-1.5,0.7-2.7,1.4-3.5,2.1l-1.1-1.8
		c0.5-0.3,1.1-0.7,1.7-1.1c0.7-0.4,1.4-0.8,2.3-1.1c0.8-0.3,1.7-0.6,2.7-0.9c1-0.2,2-0.4,3.1-0.4c1.6,0,2.9,0.3,4,0.8
		c1.1,0.5,1.9,1.3,2.6,2.2c0.7,0.9,1.1,2,1.4,3.2c0.3,1.2,0.4,2.6,0.4,4l0,17l-2.1,0l-0.3-3.4l-0.1,0c-1.4,1.1-2.8,2-4.4,2.9
		c-1.6,0.8-3.2,1.3-5,1.3c-1.1,0-2.1-0.1-3-0.4c-0.9-0.3-1.7-0.7-2.5-1.3c-0.7-0.6-1.3-1.3-1.7-2.3C315.3,372.9,315,371.9,315,370.6
		z M317.6,370.5c0,1.9,0.6,3.3,1.7,4.1c1.1,0.8,2.4,1.2,3.9,1.2c1.6,0,3-0.4,4.4-1.1c1.4-0.7,2.9-1.8,4.6-3.2l0-9
		c-2.7,0.3-5,0.8-6.9,1.2c-1.9,0.5-3.4,1.1-4.5,1.7c-1.1,0.7-2,1.4-2.5,2.3C317.8,368.5,317.6,369.4,317.6,370.5z"/>
	<path fill="#F5F2E0" d="M342,363.9c0-2.1,0.3-4.1,0.9-5.8c0.6-1.7,1.5-3.2,2.6-4.4s2.3-2.2,3.8-2.8c1.4-0.6,2.9-1,4.5-1
		c1.6,0,3,0.3,4.2,0.8c1.2,0.6,2.5,1.4,3.8,2.4l-0.1-4.9l0-11l2.4,0l0.1,39.9l-2.1,0l-0.2-3.4l-0.2,0c-1.1,1.1-2.3,2-3.8,2.9
		c-1.5,0.8-3.1,1.3-4.8,1.3c-3.4,0-6-1.2-8.1-3.6C343,371.9,342,368.4,342,363.9z M344.6,363.9c0,1.8,0.2,3.4,0.6,4.8
		c0.4,1.4,1,2.7,1.7,3.7c0.7,1,1.7,1.8,2.8,2.4c1.1,0.6,2.3,0.9,3.7,0.8c1.5,0,2.9-0.4,4.2-1.1c1.3-0.8,2.7-1.8,4.1-3.3l0-15.8
		c-1.4-1.3-2.7-2.1-4-2.7c-1.2-0.5-2.5-0.8-3.8-0.8c-1.3,0-2.6,0.3-3.7,0.9c-1.1,0.6-2.1,1.4-3,2.5c-0.8,1.1-1.5,2.3-2,3.8
		C344.8,360.7,344.6,362.3,344.6,363.9z"/>
	<path fill="#F5F2E0" d="M372,384c1.3-0.7,2.3-1.6,3-2.7c0.8-1.1,1.2-2.5,1.2-4c-0.1,0-0.4,0.1-0.7,0.1c-0.6,0-1.2-0.2-1.6-0.6
		c-0.5-0.4-0.7-1-0.7-1.7c0-0.7,0.2-1.3,0.7-1.7c0.5-0.4,1-0.6,1.7-0.6c0.9,0,1.5,0.3,2.1,1c0.5,0.7,0.8,1.7,0.8,2.9
		c0,2-0.5,3.8-1.6,5.4c-1.1,1.6-2.4,2.8-4.1,3.7L372,384z"/>
	<path fill="#F5F2E0" d="M397.5,350.4l2.1,0l0.2,4.1l0.2,0c1.2-1.4,2.5-2.5,4-3.4c1.5-0.9,2.9-1.4,4.4-1.4c2.1,0,3.8,0.5,4.9,1.5
		c1.1,1,2,2.3,2.4,4c1.5-1.7,3.1-3,4.5-4c1.5-1,3-1.5,4.5-1.5c5.3,0,8,3.4,8,10.2l0,17.1l-2.5,0l0-16.7c0-2.8-0.5-4.9-1.5-6.3
		c-1-1.3-2.5-2-4.5-2c-2.4,0-5.1,1.7-8,5l0.1,20.1l-2.4,0l0-16.7c0-2.8-0.5-4.9-1.5-6.3c-1-1.3-2.5-2-4.6-2c-2.4,0-5.1,1.7-8,5
		L400,377l-2.4,0L397.5,350.4z"/>
	<path fill="#F5F2E0" d="M443.8,343.9c-0.6,0-1.2-0.2-1.6-0.6c-0.4-0.4-0.6-0.9-0.6-1.6c0-0.7,0.2-1.2,0.6-1.6
		c0.4-0.4,0.9-0.6,1.6-0.6c0.6,0,1.2,0.2,1.6,0.6c0.4,0.4,0.6,0.9,0.6,1.6c0,0.6-0.2,1.1-0.6,1.6C445,343.7,444.4,343.9,443.8,343.9
		z M442.6,350.3l2.4,0l0.1,26.6l-2.4,0L442.6,350.3z"/>
	<path fill="#F5F2E0" d="M455.2,337l2.4,0l0.1,36.7c0,0.6,0.1,1,0.3,1.3c0.2,0.3,0.5,0.4,0.8,0.4c0.1,0,0.2,0,0.4,0
		c0.1,0,0.3,0,0.6-0.1l0.5,2c-0.3,0.1-0.5,0.1-0.8,0.2c-0.3,0.1-0.6,0.1-1,0.1c-2.2,0-3.3-1.4-3.3-4.2L455.2,337z"/>
	<path fill="#F5F2E0" d="M468.4,350.2l2.5,0l0.1,31.6c0,2.6-0.5,4.6-1.4,5.9c-1,1.3-2.5,1.9-4.5,1.9c-0.6,0-1.3-0.1-1.9-0.2
		c-0.6-0.1-1.1-0.3-1.6-0.5l0.6-2c0.3,0.1,0.8,0.2,1.2,0.4c0.5,0.1,1,0.2,1.5,0.2c1.5,0,2.4-0.6,2.9-1.6c0.4-1.1,0.7-2.5,0.7-4.2
		L468.4,350.2z M469.7,343.8c-0.6,0-1.1-0.2-1.6-0.6c-0.4-0.4-0.7-0.9-0.7-1.6c0-0.7,0.2-1.2,0.7-1.6c0.4-0.4,1-0.6,1.6-0.6
		c0.6,0,1.2,0.2,1.6,0.6c0.4,0.4,0.7,0.9,0.7,1.6c0,0.6-0.2,1.1-0.7,1.6C470.8,343.6,470.3,343.8,469.7,343.8z"/>
	<path fill="#F5F2E0" d="M499.9,354c0.9,1.2,1.6,2.6,2.1,4.2c0.5,1.6,0.8,3.4,0.8,5.4c0,2.2-0.3,4.2-1,5.9c-0.6,1.7-1.5,3.2-2.6,4.4
		c-1.1,1.2-2.4,2.1-3.8,2.7c-1.5,0.6-3,1-4.6,1c-3,0-5.6-1-7.8-3.1l-3,3.7l-1.4-1.2l3.2-3.9c-0.9-1.2-1.6-2.5-2.1-4.1
		c-0.5-1.6-0.8-3.3-0.8-5.3c0-2.2,0.3-4.2,1-6c0.6-1.8,1.5-3.2,2.6-4.4c1.1-1.2,2.4-2.1,3.8-2.7c1.4-0.6,3-1,4.5-1
		c1.5,0,2.9,0.3,4.2,0.8c1.4,0.5,2.6,1.3,3.6,2.3l3-3.6l1.4,1.2L499.9,354z M497.2,354.4c-1.7-1.9-3.8-2.8-6.4-2.8
		c-1.3,0-2.6,0.3-3.7,0.9c-1.2,0.6-2.2,1.4-3,2.4c-0.8,1.1-1.5,2.3-2,3.8c-0.5,1.5-0.7,3.1-0.7,4.8c0,3,0.7,5.5,2,7.6L497.2,354.4z
		 M484.5,372.6c1.7,1.8,3.9,2.8,6.3,2.8c1.3,0,2.6-0.3,3.7-0.9c1.2-0.6,2.2-1.4,3-2.4c0.8-1,1.5-2.3,2-3.7c0.5-1.4,0.7-3,0.7-4.8
		c0-3-0.7-5.6-2-7.6L484.5,372.6z"/>
	<path fill="#F5F2E0" d="M519.6,363.5c0-2.2,0.3-4.2,1-6c0.6-1.8,1.5-3.2,2.6-4.4c1.1-1.2,2.4-2.1,3.8-2.7c1.4-0.6,3-1,4.5-1
		c1.6,0,3.1,0.3,4.6,0.9c1.5,0.6,2.7,1.5,3.8,2.7c1.1,1.2,2,2.6,2.6,4.4c0.6,1.8,1,3.7,1,6c0,2.2-0.3,4.2-1,5.9
		c-0.6,1.7-1.5,3.2-2.6,4.4c-1.1,1.2-2.4,2.1-3.8,2.7c-1.5,0.6-3,1-4.6,1s-3.1-0.3-4.5-0.9c-1.4-0.6-2.7-1.5-3.8-2.7
		c-1.1-1.2-2-2.6-2.6-4.3C520,367.7,519.6,365.7,519.6,363.5z M522.2,363.5c0,1.7,0.2,3.3,0.7,4.8c0.5,1.4,1.1,2.7,2,3.7
		c0.8,1,1.8,1.8,3,2.4c1.1,0.6,2.4,0.9,3.7,0.8c1.3,0,2.6-0.3,3.7-0.9c1.2-0.6,2.2-1.4,3-2.4c0.8-1,1.5-2.3,2-3.7
		c0.5-1.4,0.7-3,0.7-4.8c0-1.8-0.2-3.4-0.7-4.8c-0.5-1.4-1.1-2.7-2-3.7c-0.8-1.1-1.8-1.9-3-2.4c-1.2-0.6-2.4-0.9-3.7-0.8
		c-1.3,0-2.6,0.3-3.7,0.9c-1.1,0.6-2.1,1.4-3,2.4c-0.8,1.1-1.5,2.3-2,3.7C522.4,360.1,522.2,361.7,522.2,363.5z"/>
	<path fill="#F5F2E0" d="M549.3,382.1c0-1.2,0.3-2.3,1-3.4c0.7-1.1,1.7-2.1,2.9-3l0-0.2c-0.7-0.4-1.2-1-1.7-1.7
		c-0.4-0.7-0.7-1.6-0.7-2.6c0-1.2,0.3-2.2,1-3c0.7-0.8,1.3-1.5,1.9-1.9l0-0.2c-0.9-0.7-1.6-1.7-2.3-3c-0.7-1.3-1-2.7-1-4.3
		c0-1.4,0.2-2.6,0.7-3.8c0.5-1.1,1.1-2.1,2-3c0.8-0.8,1.8-1.5,3-1.9c1.1-0.5,2.4-0.7,3.7-0.7c0.7,0,1.4,0.1,2,0.2
		c0.6,0.1,1.1,0.3,1.5,0.5l9,0l0,2.1l-6.2,0c0.9,0.7,1.6,1.7,2.1,2.9c0.6,1.2,0.8,2.4,0.8,3.9c0,1.4-0.2,2.6-0.7,3.8s-1.1,2.1-2,3
		c-0.8,0.8-1.8,1.5-2.9,1.9c-1.1,0.5-2.3,0.7-3.6,0.7c-0.7,0-1.5-0.1-2.3-0.3c-0.8-0.2-1.5-0.5-2.1-0.8c-0.6,0.5-1.1,1-1.5,1.6
		c-0.4,0.6-0.6,1.3-0.6,2.2c0,1,0.4,1.8,1.1,2.5c0.7,0.7,2.1,1,4.1,1l5.7,0c3,0,5.2,0.5,6.6,1.5c1.4,1,2.1,2.5,2.1,4.6
		c0,1.1-0.3,2.3-0.9,3.4c-0.6,1.1-1.4,2.1-2.5,2.9c-1.1,0.8-2.4,1.5-4,2c-1.6,0.5-3.3,0.8-5.2,0.8c-3.4,0-6-0.7-8-2
		C550.3,386.1,549.3,384.3,549.3,382.1z M551.7,381.9c0,1.7,0.8,3,2.3,4c1.5,1,3.7,1.5,6.6,1.5c1.5,0,2.8-0.2,4-0.6
		c1.2-0.4,2.3-0.9,3.1-1.5c0.9-0.6,1.5-1.3,2-2.1s0.7-1.6,0.7-2.5c0-1.5-0.5-2.5-1.6-3.1c-1.1-0.6-2.6-0.9-4.6-0.9l-5.7,0
		c-0.3,0-0.8,0-1.4-0.1c-0.6-0.1-1.3-0.2-2-0.4c-1.2,0.9-2.1,1.8-2.7,2.7C551.9,379.9,551.7,380.9,551.7,381.9z M559.8,366.2
		c0.9,0,1.8-0.2,2.6-0.5c0.8-0.4,1.6-0.9,2.2-1.5c0.6-0.7,1.1-1.5,1.5-2.4c0.4-0.9,0.5-1.9,0.5-3.1s-0.2-2.1-0.6-3s-0.9-1.7-1.5-2.3
		c-0.6-0.6-1.3-1.1-2.2-1.5c-0.9-0.3-1.7-0.5-2.7-0.5c-1,0-1.9,0.2-2.7,0.5c-0.8,0.4-1.6,0.8-2.2,1.5c-0.6,0.6-1.1,1.4-1.5,2.3
		c-0.4,0.9-0.5,1.9-0.5,3.1c0,1.1,0.2,2.1,0.6,3c0.4,0.9,0.9,1.7,1.5,2.4c0.6,0.7,1.4,1.2,2.2,1.5C558,366,558.9,366.2,559.8,366.2z
		"/>
	<path fill="#F5F2E0" d="M589.5,336.7l2.4,0l0.1,29.4l0.1,0l13.1-16.2l2.8,0l-8.6,10.6l10.1,16.1l-2.7,0l-8.9-14.2l-6,7l0,7.3
		l-2.4,0L589.5,336.7z"/>
	<path fill="#F5F2E0" d="M615.2,336.6l2.4,0l0.1,36.7c0,0.6,0.1,1,0.3,1.3c0.2,0.3,0.5,0.4,0.8,0.4c0.1,0,0.2,0,0.4,0
		c0.1,0,0.3,0,0.6-0.1l0.5,2c-0.3,0.1-0.5,0.1-0.8,0.2s-0.6,0.1-1,0.1c-2.2,0-3.3-1.4-3.3-4.2L615.2,336.6z"/>
	<path fill="#F5F2E0" d="M629.7,343.4c-0.6,0-1.2-0.2-1.6-0.6c-0.4-0.4-0.6-0.9-0.6-1.6c0-0.7,0.2-1.2,0.6-1.6
		c0.4-0.4,0.9-0.6,1.6-0.6c0.6,0,1.2,0.2,1.6,0.6c0.4,0.4,0.6,0.9,0.6,1.6c0,0.6-0.2,1.1-0.6,1.6
		C630.8,343.2,630.3,343.4,629.7,343.4z M628.4,349.8l2.4,0l0.1,26.6l-2.4,0L628.4,349.8z"/>
	<path fill="#F5F2E0" d="M641.1,349.8l2.1,0l0.2,4.1l0.2,0c1.2-1.4,2.5-2.5,4-3.4c1.5-0.9,2.9-1.4,4.4-1.4c2.1,0,3.8,0.5,4.9,1.5
		c1.1,1,2,2.3,2.4,4c1.5-1.7,3.1-3,4.5-4c1.5-1,3-1.5,4.5-1.5c5.3,0,8,3.4,8,10.2l0,17.1l-2.5,0l0-16.7c0-2.8-0.5-4.9-1.5-6.3
		c-1-1.3-2.5-2-4.5-2c-2.4,0-5.1,1.7-8,5l0.1,20.1l-2.4,0l0-16.7c0-2.8-0.5-4.9-1.5-6.3c-1-1.3-2.5-2-4.6-2c-2.4,0-5.1,1.7-8,5
		l0.1,20.1l-2.4,0L641.1,349.8z"/>
	<path fill="#F5F2E0" d="M684.7,369.6c0-2.9,1.4-5.2,4.1-6.7c2.8-1.6,7.1-2.7,13-3.4c0-1,0-2-0.2-3c-0.2-1-0.5-1.9-0.9-2.7
		c-0.5-0.8-1.1-1.4-1.9-1.9c-0.8-0.5-1.9-0.7-3.2-0.7c-1.8,0-3.5,0.4-4.9,1.1s-2.7,1.4-3.5,2.1l-1.1-1.8c0.5-0.3,1.1-0.7,1.7-1.1
		c0.7-0.4,1.4-0.8,2.3-1.1c0.8-0.3,1.7-0.6,2.7-0.9c1-0.2,2-0.4,3.1-0.4c1.6,0,2.9,0.3,4,0.8c1.1,0.5,1.9,1.3,2.6,2.2
		c0.7,0.9,1.1,2,1.4,3.2c0.3,1.2,0.4,2.6,0.4,4l0,17l-2.1,0l-0.3-3.4l-0.1,0c-1.4,1.1-2.8,2-4.4,2.9c-1.6,0.8-3.2,1.3-5,1.3
		c-1.1,0-2.1-0.1-3-0.4c-0.9-0.3-1.7-0.7-2.5-1.3c-0.7-0.6-1.3-1.3-1.7-2.3C684.9,372,684.7,370.9,684.7,369.6z M687.2,369.5
		c0,1.9,0.6,3.3,1.7,4.1c1.1,0.8,2.4,1.2,3.9,1.2c1.6,0,3-0.4,4.4-1.1c1.4-0.7,2.9-1.8,4.6-3.2l0-9c-2.7,0.3-5,0.8-6.9,1.2
		c-1.9,0.5-3.4,1.1-4.5,1.7c-1.1,0.7-2,1.4-2.5,2.3C687.5,367.5,687.2,368.5,687.2,369.5z"/>
</g>
<path fill="#253A44" d="M1240.7,633c-200.7,0-363.3-162.7-363.3-363.3S1040-93.7,1240.7-93.7S1604,69,1604,269.7
	S1441.3,633,1240.7,633z"/>
</svg>
