<?xml version="1.0" encoding="utf-8"?>
<!-- Generator: Adobe Illustrator 18.0.0, SVG Export Plug-In . SVG Version: 6.00 Build 0)  -->
<!DOCTYPE svg PUBLIC "-//W3C//DTD SVG 1.1//EN" "http://www.w3.org/Graphics/SVG/1.1/DTD/svg11.dtd">
<svg version="1.1" id="Lag_1" xmlns="http://www.w3.org/2000/svg" xmlns:xlink="http://www.w3.org/1999/xlink" x="0px" y="0px"
	 viewBox="0 0 800 400" enable-background="new 0 0 800 400" xml:space="preserve">
<g>
	<path fill="#253A44" d="M333.8,126.3c0.4,0,0.4-0.4,0.4-0.4C333.8,125.9,333.8,126.3,333.8,126.3z"/>
	<path fill="#253A44" d="M330.3,137.8l0.4-0.4C330.7,137.4,330.3,137.4,330.3,137.8z"/>
	<path fill="#253A44" d="M340,129.8c0,0.4,0,0.4,0,0.4C340,129.8,340,129.8,340,129.8z"/>
	<path fill="#253A44" d="M346,127.9C346,127.8,346,127.8,346,127.9C346,127.9,346,127.9,346,127.9z"/>
	<path fill="#253A44" d="M378.5,173.5c-1.5-5.7-3.8-10-7.3-12.3c-3.4-2.3-6.5-3.5-10.3-3.5c0,0-1.5,0-2.3,0.4
		c-4.6,0.8-8,2.7-10.7,6.5c-5.8,8-8.8,15.7-8.8,22.6c0,1.5,0,3.4,0.4,5c0.8,4.6,2.7,8.1,5.3,10c2.3,1.9,6.5,2.8,12.6,2.8h0.4
		c6.5,0,11.1-1.2,14.6-3.5c3.5-2.3,5.4-5.8,6.5-11.1c0.8-2.7,1.2-5.4,0.8-8.4C379.7,179.3,379.3,176.2,378.5,173.5z"/>
	<path fill="#253A44" d="M195.1,157.1c-1.9-1.9-4.6-3.1-7.3-3.8c-1.5-0.8-3.1-1.2-4.6-1.2c-1.9,0-2.7,0-3.8,0.4
		c-2.7,0.8-4.2,1.9-5,4.6c-0.8,3.1-1.2,11.5-1.6,24.9c0,4.2,0,7.7,0,10.3c0,5.4,0.4,8,0.4,9.2c1.5-0.4,4.2-1.5,8.1-4.6
		c4.2-3.1,8.1-7.3,11.5-12.2c5.4-6.9,7.7-13,7.7-18C200.5,162.9,198.5,159.8,195.1,157.1z"/>
	<path fill="#253A44" d="M345.3,132c-0.4,0-0.4,0-0.4,0H345.3z"/>
	<path fill="#253A44" d="M100.5,141.6c-6.4-9.7-14.9-7.6-14.9-7.6c6.8-0.7,11.6,4.7,14.1,8.4C100,142.1,100.2,141.9,100.5,141.6z"/>
	<path fill="#253A44" d="M694.4,59.7L18,67.7c-2.1,0-3.8,1.8-3.7,3.9l10,217.1c0.1,2.1,1.9,4.1,4.1,4.1l659.4,0.9c2.1,0,4-2,4.1-4.1
		l6.2-225.9C698.2,61.5,696.6,59.7,694.4,59.7z M601.5,127.9c0.4-2.7,1.5-4.6,2.7-6.1c1.5-1.9,3.5-3.1,5.8-3.1
		c2.3,0,4.2,0.4,5.7,1.9c1.1,1.2,2.3,3.1,3.8,5.8c1.5,4.2,1.1,7.3-0.4,9.2c-1.2,1.5-3.5,2.3-6.9,2.3c-3.4,0.4-5.7-0.4-7.7-1.9
		c-0.4,0-0.8-0.4-0.8-0.4C601.9,133.6,601.2,130.9,601.5,127.9z M338.4,129.8c0.4,0,0.4-0.4,0.4-0.4c0.4,0.4,0.4,0.4,0.4,0.4
		c0-0.4,0.4-1.1,0.4-1.5c0.4,0.4,0.4,0.4,0.8,0.8c0-0.8,0-1.5,0.4-2.3c0.8-0.4,2.3-1.1,2.3-1.5c0,0.4,0,0.2,0,0.5
		c0-0.4,0.8-2.7,1.1-2.7h0.4l0.4,1.3c0.4,0.8,0.8,2,0.8,2.7c0-0.4,0-0.2,0.4-0.5c0,0.4,0.4,0.9,0.4,1.3c0,0-0.4,0.5-0.4,0.9
		c0,0.4,0,2.4,0,2.4c4,0,0.4,0,0.4,0l0.4-1.4c0,0.4,0,0.7,0,1c-1.2,0.8-2.3,0.9-3.4,1.3c1.1-0.4,2.3-0.9,3.1-0.9
		c-0.4,0.4-0.8,0.3-1.2,0.7c0.4,0,0.7-0.1,0.7-0.1v0.4c0,0.4,0,0.4,0,0.4c0,0.8-1.1,1.1-1.5,1.5c-1.9,0.4-1.5,1.5-4.5,2.3
		c0,0,0,0,0,0.4c0,0,0,0,0-0.4c0-1.9-0.8-3.8-2.3-5C337.7,130.9,338.4,130.2,338.4,129.8z M226.6,124.2c0.4-2.7,1.5-4.6,2.7-6.1
		c1.5-1.9,3.5-3.1,5.8-3.1c2.3,0,4.2,0.4,5.7,1.9c1.1,1.2,2.3,3.5,3.8,5.8c1.5,4.2,1.1,7.3-0.4,9.2c-1.2,1.5-3.5,2.3-6.9,2.3
		c-3.4,0.4-5.7-0.4-7.7-1.9c-0.4,0-0.8-0.4-0.8-0.4C226.9,130,226.2,127.3,226.6,124.2z M150.2,211.4c-0.4,13.4-9.6,19.9-26.8,19.9
		c0-0.4-1.1-0.8-1.1-0.8c-11.1-0.4-19.5-2.7-25.7-6.9c-4.2-3.1-6.1-6.5-6.1-10c-0.4-1.9,0.4-4.6,1.9-6.9c1.2-1.5,2.7-1.9,5.4-1.9
		c2.7,0,6.5,1,11.5,2.2c6.1,1.5,11.1,3,14.6,3c0.4,0,0.8,0,0.8,0c2.7,0,3.8-1,4.2-1.8c-0.8-1.2-5-5.9-27.9-25.1
		c-6.9-5.8-9.9-13.5-8.8-23.4c0.7-5.9,2.6-10.9,5.7-14.9c-2.2,0.2-4.5,1.1-4.5,1.1l1.9-1.5c0,0-1.1,0-5.7,0.8c-4.6,0.8-8.8-2.7-10-5
		c-1.9-4.2-4.2-3.1-4.2-3.1s1.5-3.4,8.1-6.5c9.2-4.2,13.8,1.9,13.8,1.9l0-1.1c3.6,3.1,4.2,7.1,4.3,9.5c1.4-1.2,2.9-2.3,4.5-3.4
		c5.4-3.1,10.7-4.6,16.9-4.6l1.5,0c6.9,0.4,11.9,2.3,15.3,6.5c4.2,5,5,8.8,3.4,11.5c-1.2,1.9-3.5,3.1-7.3,3.1c-1.5,0-3.1,0-5-0.4
		c-1.5-0.4-3.1-0.4-4.6-0.4c-3.1,0-6.1,0.8-8.4,1.9c-3.5,1.9-5,4.6-5,8c0,1.9,1.9,5.4,9.6,11.1c6.1,4.2,12.6,9.6,19.5,16.5
		c3.8,4.2,6.1,7.7,7.3,10c0.8,1.9,1.5,4.2,1.5,7.3C150.6,209.1,150.6,209.9,150.2,211.4z M217.3,185.5c-5,10-11.5,18-18.4,24.9
		c-7.7,6.9-14.6,9.6-21.1,9.5c-1.1,0-3.1,0.4-3.4,1.5c0,0.4-0.4,0.8-0.4,0.8c-0.4,0.4-0.4,1.1-0.4,6.9l0,3.4c0,3.4,0,3.8,0,5.7
		c-0.8,3.1-2.3,4.6-4.6,5.7c-1.2,1.5-2.7,1.1-3.8,1.1c-2.3,0-4.2-0.4-6.1-2.3s-3.1-5.4-3.8-12.3c0-1.1,0-1.9-0.4-2.7
		c-0.4-4.6-0.8-9.6-1.1-26.4c-0.3-25.3-0.3-41,0.8-48.3c1.2-7.3,5-13,10.8-17.2c3.1-2.3,8-3.4,14.2-3.4l4.6,0
		c8.8,0.8,15.7,3.1,21.1,6.5c7.7,5.4,12.6,12.3,14.9,21.1c0.8,3.1,1.1,5.7,1.1,8.4C221.1,174.4,220,180.1,217.3,185.5z M248.2,215.8
		c-1.5,6.9-6.1,8.4-9.6,8.4c-3.4,0-8-1.5-9.9-8.4c-1.1-5-2.3-15.7-2.6-33.3l0-5.4c-0.3-25.3,1.2-30.8,2.3-32.7
		c2.3-3.1,5-4.4,8.1-4.4h0.8c0,0,0,0.2,0.4,0.2c3.4,0.4,5.7,3,6.5,6.4c1.1,5.7,2.3,18,3.4,37.1c0.4,7.7,0.7,14.5,1.1,19.5
		C248.6,209.3,248.6,213.1,248.2,215.8z M311.8,212.8c-0.4,13.4-9.6,19.9-26.8,19.9c0-0.8-1.1-0.8-1.1-0.8
		c-11.1-0.4-19.5-2.7-25.7-6.9c-4.2-3.1-6.1-6.5-6.1-10c-0.4-2.3,0.4-4.6,1.9-6.9c1.2-1.5,2.7-1.9,5.4-1.9c2.7,0,6.5,1.3,11.5,2.5
		c6.1,1.5,11.1,3.3,14.6,3.3c0.4,0,0.8,0,0.8,0c2.7,0,3.8-1.3,4.2-2.1c-0.8-1.2-5-6-27.9-25.2c-6.9-5.8-9.9-13.6-8.8-23.5
		c1.2-10,5.8-17.4,13.8-22.4c5.4-3.1,10.7-4.8,16.9-4.8h1.5c6.9,0,11.9,2.5,15.3,6.7c4.2,5,5,8.9,3.4,11.6c-1.2,1.9-3.5,3.1-7.3,3.1
		c-1.5,0-3.1,0-5-0.4c-1.5-0.4-3.1-0.4-4.6-0.4c-3.1,0-6.1,0.8-8.4,1.9c-3.5,1.9-5,4.6-5,8c0,1.9,1.9,5.4,9.6,11.1
		c6.1,4.2,12.6,9.6,19.5,16.5c3.8,4.2,6.1,7.7,7.3,10c0.8,1.9,1.5,4.2,1.5,7.3C312.2,210.5,312.2,211.3,311.8,212.8z M402.7,185.8
		c-0.8,12.6-4.6,22.6-11.2,29.5c-5,5.4-11.9,8.8-19.9,10.7c-5.4,1.5-9.6,1.9-13.8,1.9c-3.8,0-7.7-0.4-11.5-1.6
		c-11.9-3.1-20.3-10-25.2-20.7c-2.3-5.7-3.8-11.5-4.2-17.6c0-5.4,0.8-10.7,2.7-16.5c3.7-11.8,10.9-21.1,21.4-28.2l-2.3-4.7l-2.8-0.5
		c-1.6,0.4-3.1,1.2-4.4,2.5c-0.8,0.4-1.1,0.4-1.9,0.4h-0.4h-0.4c0,0,0.4-0.3,0.4-0.7c0,0,0,0.7,0.4-0.3c0,0,0,0-0.4,0
		c-0.4,1-0.8,0.2-1.1,0.2c0.8-0.8,1.5-1.6,2.3-2.4c-1.2,0.8-1.9,1.5-3.1,2.3c-0.4-0.4-0.8,0.1-1.1-0.3l0.4,0.1c-0.4,0-0.8,0-1.1,0
		c-0.4,0-0.4-1.3-0.8-1.3c0.4,0,1.2-0.3,1.5-0.3c-0.8-0.4-1.1-1.4-1.1-2.2v-0.4l-0.4-0.4c0.4,0,0.8-0.4,1.1-0.4l-0.6-0.4
		c0.8-0.4,1.4-0.9,2.6-1.3c0.8,0,1.4-0.4,2.2,0.6h-1c0,0,0,0.4,0,0c0-0.4,0.7-0.9,0.3-1.3c0.4,0,1.8,0.3,2.2,0.3H331
		c0,0,0,0.2,0-0.2v0.2h1.3c0.4,0,1.1,0.1,1.5,0.1c0.3,1.6,1.2,3.1,2.4,4.2l1.9,0.1l-2.3-4.7c-1.7-1.3-3.6-1.9-5.5-2.2
		c-0.4-0.4-0.8-1.4-1.1-2.2c-0.4-0.4-0.4,2.6-0.4-1.4h0.4h0.4c-0.4,0-0.4,0.2-0.4,0.2c-0.4-0.4-0.8-0.3-1.9-1.1
		c0.4,0,0.8,0.8,1.1,0.8h0.4c-0.4,0-0.4-0.9-0.4-0.9c-0.4-0.8-1.1-1.8-1.5-2.6c0-1.1,0-2,0.4-3.2c0.4,0,0.7,0.3,1,0.3
		c0.4,0.4,0.7,0.3,0.7,0.3v-0.4c0-0.8-0.3-0.8-0.3-1.5l0.1,0h0.4c1.1,1,1.3,0.8,2,1.6c0.4,0.4-0.3,0-0.3,0v-0.4c0,0,0.6-0.4,0.6-0.8
		c0.4,0.4,1.1,0.4,1.5,0.8c0,0.4,0.5,0.8,0.5,1.1c0.4,0,0.5-0.4,0.5-0.4c0.8,0.4,1.2,1.2,1.6,1.5c-0.4,1.1-0.7,2.3-1.5,3.4
		c0.8-1.1,1.1-2.3,1.9-3.1c0,0.4,0,1.1,0,1.5v0.4c0-0.4,0.4-0.4,0.4-0.4c0.4-0.4,0.6-0.4,1-0.8l0.6,0.4v0.4c0,0.8-0.8,1.5-0.8,2.3
		c-0.8,1.9-1.2,4.2-1.2,6.9v0.4c0-0.4,0.2-0.4,0.2-0.4c-0.1-0.1,0.1-0.2-0.1-0.3l4.9,9.8c0.3-0.2,0.7-0.5,1.1-0.7
		c4.2-3.4,7.7-4.8,10.8-5.6c1.1-0.4,2.3,0.2,4.3,0.2h0.4c2.3,0,4.6-0.1,7.7,0.2c12.6,1.6,22.2,7.4,29.5,17.4c5,7.3,7.6,16,8,26.3
		C402.7,182.5,402.7,183.9,402.7,185.8z M457.5,161.7c-4.2-1.5-8-1.9-11.1-1.9c-5,0-8.8,1.5-11.5,5.3c-4.2,6.1-6.2,18.8-5.4,37.9
		c1.1,25.3-0.8,26-2,26.8c-1.1,0-2.7,0-4.2,0c-1.5,0-3.1,0-5-0.4c-4.2-1.2-6.5-2.7-7.7-5.4c-0.8-1.9-1.9-7.7-3.8-40.2
		c-0.7-12.3-1.1-21.1-1.5-26.8l0-4.6c0.4-5,1.5-8,3.8-8.8c0.8-0.4,1.9-0.4,2.7-0.4c2.3,0,4.6,1,7.3,2.9c1.9,1.5,2.7,1.8,3.1,1.8h0.4
		c1.5,0,5-3.3,9.6-5.6c4.2-2.3,9.2-3.4,14.2-3.4c4.2,0,8.4,0.8,13.4,2.4c11.5,3.8,17.2,9.2,17.6,15.7c0,2.3-0.4,3.8-1.5,5
		c-1.5,1.5-4.2,2.3-6.1,2.3C466.3,164.4,462.4,163.7,457.5,161.7z M554,222c0,0,0,0,0,0.4c-1,8-6.4,9.2-9.1,9.2
		c-4.2,0-7.2-1.2-9.1-3.5c-0.4-0.8-1.5-2.7-6.8-32.2c-4.2-25.3-6.1-29.9-6.8-30.7c0,0,0,0-0.4-0.4c-2.3-3.5-5-5.4-8-5.4
		c-3.1,0-6.9,1.9-11.1,5.3c-7.3,6.1-11.1,21-10.4,43.7c0.4,17.6-1.9,21.1-4.2,21.8c-1.1,0.4-1.9,0.4-3.1,0.4c-3.4,0-5.7-1.9-7.7-6.1
		c-1.9-4.2-3.4-11.9-3.8-23c-0.4-2.7-0.4-5-0.4-7.7c-0.3-26.8,8.1-44,25.7-52.1c5.7-2.7,11.5-3.8,16.5-3.8c2.4,0,4.7,0.3,6.8,0.9
		c1-3.4,3.5-6.5,7.1-8.4c2.5-2.1,5.9-3.9,9.9-3.2c-0.8-0.4-8.4-3.1-14.9,6.1c0,0-0.4-5.7,4.6-9.6l0,1.1c0,0,4.6-5,11.9-0.4
		c5.4,3.1,6.5,6.1,6.5,6.1s-1.9-1.2-3.8,2.3c-1.2,1.9-5,4.2-8.8,3.4c-3.8-1.2-4.6-1.2-4.6-1.2l1.5,1.5c0,0-5.7-2.7-6.9-0.8
		c0,0,0.4-0.7,1.2-1.8c-1.2,1.5-2,3.2-2.5,4.9c2.9,1,5.5,2.4,8.2,4.5c5.4,4.2,9.6,10,12.2,16.5c2.7,6.5,5.3,16.9,7.6,31.4
		c1.9,12.3,2.9,21.5,2.9,27.2L554,222z M594.5,229c-2.7,1.9-5.7,2.7-9.2,2.7c-3.1,0-6.5-0.8-10.3-2.7c-7.7-4.6-13-11.1-16.1-20.3
		c-1.1-3.8-1.9-13.8-2.3-30.3l-0.4-21.1c0.4-39.1,2-47.1,3.1-49.4c1.9-3.4,4.2-5,6.9-5c2.7,0,5.4,1.5,8,4.2c1.9,1.9,3.8,9.2,4.9,49
		c0.4,16.5,1.1,28,1.9,34.9c0.4,6.9,1.5,11.5,2.7,14.2c1.5,2.7,3.8,4.2,6.9,5.8c3.4,1.5,5.7,4.2,6.9,8.1c0.4,0.8,0.4,1.5,0.4,2.3
		C597.9,224.4,596.8,226.7,594.5,229z M621.3,218.7c-1.5,6.9-6.1,7.7-9.6,7.6c-3.4,0-8-0.8-9.9-8.1c-1.1-5-2.3-15.7-2.6-32.9l0-5
		c-0.3-25.3,1.2-30.6,2.3-32.6c2.3-3.1,5-5,8.1-5l0.8-0.8c0,0,0,0,0.4,0c3.4,3,5.7,3.5,6.5,7.3c1.1,5.7,2.3,18.4,3.4,37.6
		c0.4,8,0.7,14.8,1.1,19.7C621.7,212.7,621.7,216,621.3,218.7z"/>
	<path fill="#253A44" d="M343,125.9c0,0.4,0,0.4,0,0.4C343,125.9,343,125.9,343,125.9z"/>
	<path fill="#253A44" d="M346,127.5C346,127.5,346,127.5,346,127.5C346,127.5,346,127.5,346,127.5z"/>
	<path fill="#253A44" d="M340,129c0,0.4,0,0.4,0,0.4C340,129,340,129,340,129z"/>
</g>
<g>
	<path fill="#F5F2E0" d="M62.3,381.6c-2.3,0-4.5-0.5-6.5-1.4c-2-1-3.7-2.3-5.1-4.1c-1.4-1.8-2.6-3.9-3.4-6.5
		c-0.8-2.5-1.2-5.3-1.2-8.4c0-3.1,0.4-5.9,1.2-8.4c0.8-2.5,1.9-4.6,3.3-6.4c1.4-1.8,3.1-3.1,5.1-4.1c2-0.9,4.1-1.4,6.5-1.4
		c2.4,0,4.6,0.5,6.6,1.4c2,0.9,3.7,2.3,5.1,4c1.4,1.8,2.6,3.9,3.4,6.4c0.8,2.5,1.2,5.3,1.2,8.4c0,3.1-0.4,5.9-1.2,8.4
		c-0.8,2.5-1.9,4.7-3.3,6.5c-1.4,1.8-3.1,3.2-5.1,4.2C66.9,381.1,64.7,381.6,62.3,381.6z M62.3,379.1c2,0,3.8-0.4,5.4-1.3
		s3-2.1,4.2-3.6c1.2-1.6,2.1-3.5,2.7-5.7c0.6-2.2,0.9-4.7,0.9-7.4c0-2.7-0.3-5.1-1-7.3c-0.6-2.2-1.6-4-2.7-5.6
		c-1.2-1.5-2.6-2.7-4.2-3.5c-1.6-0.8-3.4-1.2-5.4-1.2c-2,0-3.8,0.4-5.4,1.3c-1.6,0.8-3,2-4.2,3.6c-1.1,1.5-2,3.4-2.7,5.6
		s-0.9,4.6-0.9,7.3c0,2.7,0.3,5.2,1,7.4s1.5,4.1,2.7,5.7c1.2,1.6,2.6,2.8,4.2,3.6C58.5,378.6,60.3,379.1,62.3,379.1z"/>
	<path fill="#F5F2E0" d="M87.2,352.2l2.3,0l0.2,4.4l0.2,0c1.3-1.5,2.7-2.7,4.2-3.7c1.6-1,3.1-1.5,4.7-1.5c2.3,0,4.1,0.5,5.3,1.6
		c1.2,1.1,2.1,2.5,2.6,4.3c1.7-1.8,3.3-3.2,4.8-4.3c1.6-1.1,3.2-1.6,4.8-1.6c5.7,0,8.6,3.6,8.6,10.9l0,18.3l-2.7,0l0-18
		c0-3.1-0.5-5.3-1.6-6.8c-1-1.4-2.6-2.2-4.8-2.2c-2.6,0-5.4,1.8-8.6,5.4l0.1,21.6l-2.6,0l0-18c0-3.1-0.5-5.3-1.6-6.8
		c-1-1.4-2.7-2.2-4.9-2.2c-2.6,0-5.4,1.8-8.6,5.4l0.1,21.6l-2.6,0L87.2,352.2z"/>
	<path fill="#F5F2E0" d="M142.6,352.1l2.9,0l6.5,17.9c0.4,1.4,0.9,2.8,1.4,4.2c0.5,1.4,1,2.7,1.4,4l0.2,0c0.5-1.3,1-2.7,1.4-4.1
		c0.5-1.4,1-2.8,1.4-4.2l6.4-17.9l2.7,0l-10.5,28.6l-3.1,0L142.6,352.1z"/>
	<path fill="#F5F2E0" d="M170.9,366.3c0-2.4,0.3-4.5,1-6.4c0.7-1.9,1.6-3.5,2.8-4.7c1.2-1.3,2.5-2.2,4.1-2.9c1.5-0.7,3.2-1,4.9-1
		c1.7,0,3.3,0.3,4.9,1c1.6,0.7,2.9,1.6,4.1,2.9c1.2,1.3,2.1,2.8,2.8,4.7c0.7,1.9,1.1,4,1.1,6.4c0,2.4-0.3,4.5-1,6.3
		c-0.7,1.8-1.6,3.4-2.8,4.7c-1.2,1.3-2.5,2.2-4.1,2.9c-1.6,0.7-3.2,1-4.9,1c-1.7,0-3.3-0.3-4.9-1c-1.5-0.7-2.9-1.6-4.1-2.9
		c-1.2-1.3-2.1-2.8-2.8-4.7C171.2,370.8,170.9,368.7,170.9,366.3z M173.6,366.3c0,1.9,0.3,3.6,0.8,5.1c0.5,1.5,1.2,2.9,2.1,4
		c0.9,1.1,2,2,3.2,2.6c1.2,0.6,2.6,0.9,4,0.9c1.4,0,2.8-0.3,4-0.9c1.2-0.6,2.3-1.5,3.2-2.6c0.9-1.1,1.6-2.4,2.1-4
		c0.5-1.5,0.8-3.3,0.8-5.1c0-1.9-0.3-3.6-0.8-5.2c-0.5-1.5-1.2-2.9-2.1-4c-0.9-1.1-2-2-3.2-2.6c-1.3-0.6-2.6-0.9-4-0.9
		c-1.4,0-2.8,0.3-4,0.9c-1.2,0.6-2.3,1.5-3.2,2.6c-0.9,1.1-1.6,2.5-2.1,4C173.9,362.7,173.6,364.4,173.6,366.3z"/>
	<path fill="#F5F2E0" d="M205.1,351.9l2.3,0l0.3,5.3l0.2,0c0.9-1.8,2.1-3.2,3.5-4.4c1.4-1.1,2.9-1.7,4.6-1.7c0.6,0,1.1,0,1.5,0.1
		c0.4,0.1,0.9,0.2,1.4,0.5l-0.6,2.4c-0.5-0.2-0.9-0.3-1.3-0.4s-0.8-0.1-1.4-0.1c-1.3,0-2.6,0.6-4,1.6c-1.4,1.1-2.7,3-3.8,5.7
		l0.1,19.5l-2.6,0L205.1,351.9z"/>
	<path fill="#F5F2E0" d="M221,366.2c0-2.3,0.3-4.4,1-6.3c0.7-1.9,1.6-3.4,2.8-4.7c1.2-1.3,2.5-2.3,4-3c1.5-0.7,3-1.1,4.6-1.1
		c3.4,0,6.1,1.1,8,3.4c2,2.3,2.9,5.6,2.9,9.8c0,0.4,0,0.7,0,1.1c0,0.4,0,0.7-0.1,1.1l-20.6,0.1c0,1.8,0.3,3.4,0.8,5
		c0.5,1.5,1.2,2.8,2.2,3.9c0.9,1.1,2.1,1.9,3.4,2.6c1.3,0.6,2.8,0.9,4.4,0.9c1.5,0,2.9-0.2,4.2-0.7c1.2-0.5,2.4-1.1,3.5-1.9l1.1,2
		c-1.2,0.7-2.4,1.3-3.8,1.9c-1.4,0.6-3.1,0.9-5.2,0.9c-1.8,0-3.5-0.3-5.2-1c-1.6-0.7-3-1.6-4.2-2.9c-1.2-1.3-2.1-2.9-2.8-4.7
		C221.4,370.6,221,368.5,221,366.2z M241.9,364.4c0-3.7-0.8-6.5-2.3-8.3c-1.5-1.8-3.6-2.8-6.1-2.8c-1.2,0-2.4,0.3-3.5,0.8
		c-1.1,0.5-2.1,1.3-3,2.2s-1.6,2.1-2.2,3.5c-0.6,1.4-0.9,2.9-1.1,4.6L241.9,364.4z"/>
	<path fill="#F5F2E0" d="M250.2,375.2c1.2,1,2.5,1.9,3.9,2.6c1.4,0.7,3.1,1,5.2,1c2.3,0,4-0.6,5.1-1.7c1.1-1.1,1.7-2.5,1.7-4
		c0-0.9-0.2-1.6-0.6-2.3c-0.4-0.7-1-1.2-1.6-1.7c-0.7-0.5-1.4-0.9-2.2-1.2c-0.8-0.4-1.6-0.7-2.5-1c-1.1-0.4-2.2-0.8-3.2-1.2
		c-1.1-0.4-2.1-1-3-1.6c-0.9-0.6-1.6-1.3-2.1-2.2c-0.5-0.9-0.8-1.9-0.8-3.1c0-1,0.2-2,0.6-3c0.4-0.9,1-1.7,1.8-2.4
		c0.8-0.7,1.8-1.2,2.9-1.6c1.1-0.4,2.4-0.6,4-0.6s3,0.3,4.4,0.8c1.5,0.6,2.7,1.3,3.7,2.1l-1.4,1.9c-1-0.7-2-1.3-3-1.8
		c-1.1-0.5-2.3-0.7-3.8-0.7c-1.1,0-2.1,0.2-2.9,0.5c-0.8,0.3-1.5,0.7-2,1.2c-0.5,0.5-0.9,1-1.2,1.7c-0.3,0.6-0.4,1.3-0.4,1.9
		c0,0.8,0.2,1.5,0.6,2.1c0.4,0.6,0.9,1.1,1.5,1.5c0.6,0.4,1.4,0.8,2.2,1.2c0.8,0.3,1.6,0.7,2.5,1c1.1,0.4,2.2,0.9,3.3,1.3
		c1.1,0.4,2.1,1,3,1.6c0.9,0.6,1.6,1.4,2.2,2.3c0.6,0.9,0.8,2.1,0.8,3.5c0,1.1-0.2,2.1-0.6,3.1c-0.4,1-1,1.8-1.9,2.6
		c-0.8,0.7-1.8,1.3-3,1.8c-1.2,0.4-2.6,0.7-4.1,0.7c-2.1,0-4.1-0.4-5.9-1.1s-3.3-1.7-4.6-2.8L250.2,375.2z"/>
	<path fill="#F5F2E0" d="M288.1,351.7l2.3,0l0.2,4.4l0.2,0c1.3-1.5,2.7-2.7,4.2-3.7c1.6-1,3.1-1.5,4.7-1.5c2.3,0,4.1,0.5,5.3,1.6
		c1.2,1.1,2.1,2.5,2.6,4.3c1.7-1.8,3.3-3.2,4.8-4.3c1.6-1.1,3.2-1.6,4.8-1.6c5.7,0,8.6,3.6,8.6,10.9l0,18.3l-2.7,0l0-18
		c0-3.1-0.5-5.3-1.6-6.8c-1-1.4-2.6-2.2-4.8-2.2c-2.6,0-5.4,1.8-8.6,5.4l0.1,21.6l-2.6,0l0-18c0-3.1-0.5-5.3-1.6-6.8
		c-1-1.4-2.7-2.2-4.9-2.2c-2.6,0-5.4,1.8-8.6,5.4l0.1,21.6l-2.6,0L288.1,351.7z"/>
	<path fill="#F5F2E0" d="M334.9,373c0-3.1,1.5-5.5,4.4-7.2c3-1.7,7.6-2.9,14-3.6c0-1.1,0-2.2-0.2-3.2c-0.2-1.1-0.5-2.1-1-2.9
		c-0.5-0.9-1.2-1.5-2.1-2.1c-0.9-0.5-2-0.8-3.4-0.8c-1.9,0-3.7,0.4-5.3,1.1c-1.6,0.8-2.9,1.5-3.8,2.2l-1.2-2
		c0.5-0.4,1.1-0.8,1.9-1.2c0.7-0.4,1.5-0.8,2.4-1.2c0.9-0.4,1.9-0.7,2.9-0.9c1.1-0.3,2.2-0.4,3.3-0.4c1.7,0,3.1,0.3,4.3,0.9
		c1.2,0.6,2.1,1.4,2.8,2.3c0.7,1,1.2,2.2,1.5,3.5c0.3,1.3,0.5,2.8,0.5,4.3l0,18.3l-2.2,0l-0.3-3.7l-0.1,0c-1.5,1.2-3,2.2-4.7,3.1
		c-1.7,0.9-3.5,1.3-5.4,1.4c-1.2,0-2.2-0.2-3.2-0.5c-1-0.3-1.9-0.8-2.7-1.4c-0.8-0.6-1.4-1.4-1.8-2.4S334.9,374.3,334.9,373z
		 M337.6,372.9c0,2.1,0.6,3.5,1.8,4.4c1.2,0.9,2.6,1.3,4.2,1.3c1.7,0,3.3-0.4,4.8-1.2c1.5-0.8,3.2-2,4.9-3.5l0-9.7
		c-2.9,0.4-5.4,0.8-7.4,1.3c-2,0.5-3.6,1.1-4.8,1.9c-1.2,0.7-2.1,1.5-2.6,2.4C337.9,370.7,337.6,371.8,337.6,372.9z"/>
	<path fill="#F5F2E0" d="M363.8,365.8c0-2.3,0.3-4.4,1-6.3c0.7-1.9,1.6-3.5,2.8-4.8s2.5-2.3,4-3c1.5-0.7,3.1-1.1,4.9-1.1
		c1.7,0,3.3,0.3,4.6,0.9c1.3,0.6,2.7,1.5,4.1,2.6L385,349l0-11.8l2.6,0l0.1,42.8l-2.3,0l-0.3-3.7l-0.2,0c-1.1,1.2-2.5,2.2-4.1,3.1
		c-1.6,0.9-3.3,1.3-5.2,1.4c-3.6,0-6.5-1.3-8.6-3.8C364.9,374.4,363.8,370.7,363.8,365.8z M366.6,365.8c0,1.9,0.2,3.6,0.6,5.2
		c0.4,1.5,1,2.9,1.8,4c0.8,1.1,1.8,1.9,3,2.6c1.2,0.6,2.5,0.9,4,0.9c1.6,0,3.1-0.4,4.6-1.2c1.4-0.8,2.9-2,4.4-3.5l0-17
		c-1.5-1.3-2.9-2.3-4.3-2.8c-1.3-0.6-2.7-0.8-4.1-0.8c-1.4,0-2.8,0.3-4,1c-1.2,0.7-2.3,1.6-3.2,2.7c-0.9,1.1-1.6,2.5-2.1,4.1
		C366.9,362.4,366.6,364,366.6,365.8z"/>
	<path fill="#F5F2E0" d="M396,387.4c1.3-0.7,2.4-1.7,3.3-2.9c0.8-1.2,1.3-2.7,1.3-4.3c-0.2,0-0.4,0.1-0.7,0.1
		c-0.7,0-1.3-0.2-1.8-0.6c-0.5-0.4-0.7-1.1-0.8-1.8c0-0.8,0.3-1.4,0.8-1.8c0.5-0.4,1.1-0.7,1.8-0.7c0.9,0,1.6,0.4,2.2,1.1
		c0.6,0.8,0.8,1.8,0.8,3.1c0,2.2-0.6,4.1-1.7,5.8c-1.1,1.7-2.6,3-4.4,3.9L396,387.4z"/>
	<path fill="#F5F2E0" d="M423.5,351.3l2.3,0l0.2,4.4l0.2,0c1.3-1.5,2.7-2.7,4.2-3.7c1.6-1,3.1-1.5,4.7-1.5c2.3,0,4.1,0.5,5.3,1.6
		c1.2,1.1,2.1,2.5,2.6,4.3c1.7-1.8,3.3-3.2,4.8-4.3c1.6-1.1,3.2-1.6,4.8-1.6c5.7,0,8.6,3.6,8.6,10.9l0,18.3l-2.7,0l0-18
		c0-3.1-0.5-5.3-1.6-6.8c-1-1.4-2.6-2.2-4.8-2.2c-2.6,0-5.4,1.8-8.6,5.4l0.1,21.6l-2.6,0l0-18c0-3.1-0.5-5.3-1.6-6.8
		c-1-1.4-2.7-2.2-4.9-2.2c-2.6,0-5.4,1.8-8.6,5.4l0.1,21.6l-2.6,0L423.5,351.3z"/>
	<path fill="#F5F2E0" d="M473.2,344.3c-0.7,0-1.2-0.2-1.7-0.7c-0.5-0.4-0.7-1-0.7-1.7c0-0.8,0.2-1.3,0.7-1.8c0.5-0.4,1-0.6,1.7-0.6
		c0.7,0,1.2,0.2,1.7,0.6c0.5,0.4,0.7,1,0.7,1.8c0,0.7-0.2,1.2-0.7,1.7C474.4,344.1,473.8,344.3,473.2,344.3z M471.8,351.2l2.6,0
		l0.1,28.6l-2.6,0L471.8,351.2z"/>
	<path fill="#F5F2E0" d="M485.4,336.9l2.6,0l0.1,39.4c0,0.6,0.1,1.1,0.4,1.4c0.2,0.3,0.5,0.4,0.9,0.4c0.1,0,0.2,0,0.4,0
		c0.1,0,0.4,0,0.7-0.1l0.5,2.1c-0.3,0.1-0.6,0.2-0.8,0.2c-0.3,0.1-0.6,0.1-1.1,0.1c-2.3,0-3.5-1.5-3.5-4.5L485.4,336.9z"/>
	<path fill="#F5F2E0" d="M499.6,351.1l2.7,0l0.1,33.9c0,2.8-0.5,4.9-1.5,6.3c-1,1.4-2.7,2.1-4.9,2.1c-0.7,0-1.3-0.1-2-0.2
		c-0.7-0.1-1.2-0.3-1.7-0.5l0.6-2.1c0.4,0.1,0.8,0.2,1.3,0.4c0.5,0.1,1.1,0.2,1.6,0.2c1.6,0,2.6-0.6,3.1-1.8
		c0.5-1.2,0.7-2.7,0.7-4.5L499.6,351.1z M500.9,344.2c-0.6,0-1.2-0.2-1.7-0.7c-0.5-0.4-0.7-1-0.7-1.7c0-0.8,0.2-1.3,0.7-1.8
		c0.5-0.4,1-0.6,1.7-0.6c0.7,0,1.3,0.2,1.7,0.6c0.5,0.4,0.7,1,0.7,1.8c0,0.7-0.2,1.2-0.7,1.7C502.2,344,501.6,344.2,500.9,344.2z"/>
	<path fill="#F5F2E0" d="M533.4,355.2c1,1.3,1.7,2.8,2.3,4.5c0.6,1.7,0.8,3.6,0.8,5.8c0,2.4-0.3,4.5-1,6.3c-0.7,1.8-1.6,3.4-2.8,4.7
		c-1.2,1.3-2.5,2.2-4.1,2.9c-1.6,0.7-3.2,1-4.9,1c-3.3,0-6.1-1.1-8.4-3.3l-3.2,3.9l-1.6-1.2l3.4-4.2c-1-1.3-1.7-2.7-2.3-4.4
		c-0.6-1.7-0.8-3.6-0.9-5.7c0-2.4,0.3-4.5,1-6.4c0.7-1.9,1.6-3.5,2.8-4.7c1.2-1.3,2.5-2.2,4.1-2.9c1.5-0.7,3.2-1,4.9-1
		c1.6,0,3.1,0.3,4.6,0.8c1.5,0.6,2.8,1.4,3.9,2.5l3.2-3.9l1.6,1.2L533.4,355.2z M530.5,355.6c-1.8-2-4.1-3-6.9-3
		c-1.4,0-2.8,0.3-4,0.9c-1.2,0.6-2.3,1.5-3.2,2.6c-0.9,1.1-1.6,2.5-2.1,4.1c-0.5,1.6-0.8,3.3-0.8,5.2c0,3.2,0.7,5.9,2.2,8.2
		L530.5,355.6z M516.9,375.1c1.9,2,4.1,3,6.8,3c1.4,0,2.8-0.3,4-0.9c1.2-0.6,2.3-1.5,3.2-2.6c0.9-1.1,1.6-2.4,2.1-4
		c0.5-1.5,0.8-3.3,0.8-5.1c0-3.3-0.7-6-2.2-8.2L516.9,375.1z"/>
	<path fill="#F5F2E0" d="M554.6,365.3c0-2.4,0.3-4.5,1-6.4c0.7-1.9,1.6-3.5,2.8-4.7c1.2-1.3,2.5-2.2,4.1-2.9c1.5-0.7,3.2-1,4.9-1
		c1.7,0,3.3,0.3,4.9,1c1.6,0.7,2.9,1.6,4.1,2.9c1.2,1.3,2.1,2.8,2.8,4.7c0.7,1.9,1.1,4,1.1,6.4c0,2.4-0.3,4.5-1,6.3
		c-0.7,1.8-1.6,3.4-2.8,4.7c-1.2,1.3-2.5,2.2-4.1,2.9c-1.6,0.7-3.2,1-4.9,1s-3.3-0.3-4.9-1c-1.6-0.7-2.9-1.6-4.1-2.9
		c-1.2-1.3-2.1-2.8-2.8-4.7C554.9,369.8,554.6,367.7,554.6,365.3z M557.3,365.3c0,1.9,0.3,3.6,0.8,5.1c0.5,1.5,1.2,2.9,2.1,4
		c0.9,1.1,2,2,3.2,2.6c1.2,0.6,2.6,0.9,4,0.9c1.4,0,2.8-0.3,4-0.9c1.2-0.6,2.3-1.5,3.2-2.6c0.9-1.1,1.6-2.4,2.1-4
		c0.5-1.5,0.8-3.3,0.8-5.1c0-1.9-0.3-3.6-0.8-5.2c-0.5-1.5-1.2-2.9-2.1-4c-0.9-1.1-2-2-3.2-2.6c-1.3-0.6-2.6-0.9-4-0.9
		s-2.8,0.3-4,0.9c-1.2,0.6-2.3,1.5-3.2,2.6c-0.9,1.1-1.6,2.5-2.1,4C557.6,361.7,557.3,363.4,557.3,365.3z"/>
	<path fill="#F5F2E0" d="M586.5,385.3c0-1.3,0.4-2.5,1.1-3.7c0.8-1.2,1.8-2.3,3.1-3.2l0-0.2c-0.7-0.4-1.3-1-1.8-1.8
		c-0.5-0.8-0.7-1.7-0.7-2.8c0-1.3,0.4-2.4,1.1-3.2c0.7-0.9,1.4-1.6,2-2l0-0.2c-0.9-0.8-1.7-1.9-2.5-3.2c-0.7-1.3-1.1-2.9-1.1-4.6
		c0-1.5,0.2-2.8,0.8-4.1c0.5-1.2,1.2-2.3,2.1-3.2c0.9-0.9,2-1.6,3.2-2.1c1.2-0.5,2.5-0.8,3.9-0.8c0.8,0,1.5,0.1,2.1,0.2
		c0.6,0.1,1.2,0.3,1.6,0.5l9.7,0l0,2.2l-6.7,0c0.9,0.8,1.7,1.8,2.3,3.1c0.6,1.2,0.9,2.6,0.9,4.1c0,1.5-0.3,2.8-0.8,4.1
		c-0.5,1.2-1.2,2.3-2.1,3.2s-1.9,1.6-3.2,2.1c-1.2,0.5-2.5,0.8-3.9,0.8c-0.8,0-1.6-0.1-2.5-0.3c-0.9-0.2-1.6-0.5-2.3-0.9
		c-0.6,0.5-1.2,1.1-1.6,1.7c-0.5,0.6-0.7,1.4-0.7,2.4c0,1,0.4,1.9,1.1,2.6c0.8,0.7,2.2,1.1,4.4,1.1l6.1,0c3.2,0,5.6,0.5,7.1,1.6
		c1.5,1,2.3,2.7,2.3,5c0,1.2-0.3,2.4-0.9,3.6c-0.6,1.2-1.5,2.2-2.7,3.1c-1.2,0.9-2.6,1.6-4.3,2.2c-1.7,0.5-3.5,0.8-5.6,0.8
		c-3.6,0-6.5-0.7-8.6-2.1S586.5,387.8,586.5,385.3z M589,385.1c0,1.8,0.8,3.2,2.5,4.3c1.6,1.1,4,1.7,7.1,1.6c1.6,0,3-0.2,4.3-0.6
		c1.3-0.4,2.4-1,3.3-1.6c0.9-0.7,1.6-1.4,2.1-2.3c0.5-0.9,0.7-1.7,0.7-2.7c0-1.6-0.6-2.7-1.7-3.4c-1.1-0.7-2.8-1-4.9-1l-6.1,0
		c-0.3,0-0.8,0-1.5-0.1c-0.7-0.1-1.4-0.2-2.1-0.4c-1.3,0.9-2.3,1.9-2.9,2.9C589.3,383,589,384.1,589,385.1z M597.8,368.3
		c1,0,1.9-0.2,2.8-0.6c0.9-0.4,1.7-0.9,2.3-1.6c0.7-0.7,1.2-1.6,1.6-2.6c0.4-1,0.6-2.1,0.6-3.3c0-1.2-0.2-2.3-0.6-3.3
		c-0.4-1-0.9-1.8-1.6-2.5c-0.7-0.7-1.4-1.2-2.4-1.6c-0.9-0.4-1.9-0.6-2.9-0.6c-1,0-2,0.2-2.9,0.6c-0.9,0.4-1.7,0.9-2.3,1.6
		c-0.7,0.7-1.2,1.5-1.6,2.5c-0.4,1-0.6,2.1-0.6,3.3c0,1.2,0.2,2.3,0.6,3.3c0.4,1,0.9,1.8,1.6,2.6c0.7,0.7,1.5,1.3,2.4,1.6
		C595.8,368.1,596.8,368.3,597.8,368.3z"/>
	<path fill="#F5F2E0" d="M629.6,336.6l2.6,0l0.1,31.6l0.1,0l14.1-17.4l3,0l-9.3,11.3l10.9,17.2l-2.9,0l-9.5-15.3l-6.4,7.5l0,7.8
		l-2.6,0L629.6,336.6z"/>
	<path fill="#F5F2E0" d="M657.2,336.5l2.6,0l0.1,39.4c0,0.6,0.1,1.1,0.4,1.4c0.2,0.3,0.5,0.4,0.9,0.4c0.1,0,0.2,0,0.4,0
		c0.1,0,0.4,0,0.7-0.1l0.5,2.1c-0.3,0.1-0.6,0.2-0.8,0.2c-0.3,0.1-0.6,0.1-1.1,0.1c-2.3,0-3.5-1.5-3.5-4.5L657.2,336.5z"/>
	<path fill="#F5F2E0" d="M672.7,343.8c-0.7,0-1.2-0.2-1.7-0.7c-0.5-0.4-0.7-1-0.7-1.7c0-0.8,0.2-1.3,0.7-1.8c0.5-0.4,1-0.6,1.7-0.6
		c0.7,0,1.2,0.2,1.7,0.6c0.5,0.4,0.7,1,0.7,1.8c0,0.7-0.2,1.2-0.7,1.7C674,343.6,673.4,343.8,672.7,343.8z M671.4,350.7l2.6,0
		l0.1,28.6l-2.6,0L671.4,350.7z"/>
	<path fill="#F5F2E0" d="M685,350.7l2.3,0l0.2,4.4l0.2,0c1.3-1.5,2.7-2.7,4.2-3.7c1.6-1,3.1-1.5,4.7-1.5c2.3,0,4.1,0.5,5.3,1.6
		c1.2,1.1,2.1,2.5,2.6,4.3c1.7-1.8,3.3-3.2,4.8-4.3c1.6-1.1,3.2-1.6,4.8-1.6c5.7,0,8.6,3.6,8.6,10.9l0,18.3l-2.7,0l0-18
		c0-3.1-0.5-5.3-1.6-6.8c-1-1.4-2.6-2.2-4.8-2.2c-2.6,0-5.4,1.8-8.6,5.4l0.1,21.6l-2.6,0l0-18c0-3.1-0.5-5.3-1.6-6.8
		c-1-1.4-2.7-2.2-4.9-2.2c-2.6,0-5.4,1.8-8.6,5.4l0.1,21.6l-2.6,0L685,350.7z"/>
	<path fill="#F5F2E0" d="M731.8,372c0-3.1,1.5-5.5,4.4-7.2c3-1.7,7.6-2.9,14-3.6c0-1.1,0-2.2-0.2-3.2c-0.2-1.1-0.5-2.1-1-2.9
		c-0.5-0.9-1.2-1.5-2.1-2.1c-0.9-0.5-2-0.8-3.4-0.8c-1.9,0-3.7,0.4-5.3,1.1s-2.9,1.5-3.8,2.2l-1.2-2c0.5-0.4,1.1-0.8,1.9-1.2
		c0.7-0.4,1.5-0.8,2.4-1.2c0.9-0.4,1.9-0.7,2.9-0.9c1.1-0.3,2.2-0.4,3.3-0.4c1.7,0,3.1,0.3,4.3,0.9c1.2,0.6,2.1,1.4,2.8,2.3
		c0.7,1,1.2,2.2,1.5,3.5c0.3,1.3,0.5,2.8,0.5,4.3l0,18.3l-2.2,0l-0.3-3.7l-0.1,0c-1.5,1.2-3,2.2-4.7,3.1c-1.7,0.9-3.5,1.3-5.4,1.4
		c-1.2,0-2.2-0.2-3.2-0.5c-1-0.3-1.9-0.8-2.7-1.4c-0.8-0.6-1.4-1.4-1.8-2.4S731.8,373.3,731.8,372z M734.6,371.8
		c0,2.1,0.6,3.5,1.8,4.4c1.2,0.9,2.6,1.3,4.2,1.3c1.7,0,3.3-0.4,4.8-1.2c1.5-0.8,3.2-2,4.9-3.5l0-9.7c-2.9,0.4-5.4,0.8-7.4,1.3
		c-2,0.5-3.6,1.1-4.8,1.9c-1.2,0.7-2.1,1.5-2.6,2.4C734.8,369.7,734.6,370.7,734.6,371.8z"/>
</g>
<path fill="#253A44" d="M1240.7,633c-200.7,0-363.3-162.7-363.3-363.3S1040-93.7,1240.7-93.7S1604,69,1604,269.7
	S1441.3,633,1240.7,633z"/>
</svg>
