<?xml version="1.0" encoding="utf-8"?>
<!-- Generator: Adobe Illustrator 18.0.0, SVG Export Plug-In . SVG Version: 6.00 Build 0)  -->
<!DOCTYPE svg PUBLIC "-//W3C//DTD SVG 1.1//EN" "http://www.w3.org/Graphics/SVG/1.1/DTD/svg11.dtd">
<svg version="1.1" id="Lag_1" xmlns="http://www.w3.org/2000/svg" xmlns:xlink="http://www.w3.org/1999/xlink" x="0px" y="0px"
	 viewBox="0 0 800 400" enable-background="new 0 0 800 400" xml:space="preserve">
<g>
	<path fill="#F9F7EF" d="M272.5,156.4c0.3,0,0.3-0.3,0.3-0.3C272.5,156.1,272.5,156.4,272.5,156.4z"/>
	<path fill="#F9F7EF" d="M269.8,165.5l0.3-0.3C270.1,165.2,269.8,165.2,269.8,165.5z"/>
	<path fill="#F9F7EF" d="M277,159.1c0,0.3,0,0.3,0,0.3C277,159.1,277,159.1,277,159.1z"/>
	<path fill="#F9F7EF" d="M282,157.6C282,157.6,282,157.6,282,157.6C282,157.6,282,157.6,282,157.6z"/>
	<path fill="#F9F7EF" d="M308.3,194.1c-1.2-4.6-3-8-5.8-9.8c-2.8-1.8-5.2-2.8-8.3-2.8c0,0-1.2,0-1.8,0.3c-3.7,0.6-6.4,2.1-8.6,5.2
		c-4.6,6.4-7.1,12.5-7.1,18c0,1.2,0,2.8,0.3,4c0.6,3.7,2.1,6.4,4.3,7.9c1.8,1.5,5.2,2.1,10.1,2.1h0.3c5.2,0,8.9-0.8,11.6-2.7
		s4.3-4.6,5.2-8.8c0.6-2.1,0.9-4.3,0.6-6.7C309.2,198.6,308.9,196.2,308.3,194.1z"/>
	<path fill="#F9F7EF" d="M161.7,181c-1.5-1.5-3.7-2.5-5.8-3.1c-1.2-0.6-2.4-0.9-3.7-0.9c-1.5,0-2.1,0-3.1,0.3
		c-2.1,0.6-3.4,1.5-4,3.7c-0.6,2.4-0.9,9.2-1.3,19.9c0,3.4,0,6.1,0,8.3c0,4.3,0.3,6.4,0.3,7.3c1.2-0.3,3.4-1.2,6.4-3.7
		c3.4-2.4,6.4-5.8,9.2-9.8c4.3-5.5,6.1-10.4,6.1-14.4C166,185.6,164.5,183.1,161.7,181z"/>
	<path fill="#F9F7EF" d="M281.7,161c-0.3,0-0.3,0-0.3,0H281.7z"/>
	<path fill="#F9F7EF" d="M86.2,168.6c-5.1-7.8-11.9-6.1-11.9-6.1c5.5-0.6,9.3,3.7,11.3,6.7C85.7,169,86,168.8,86.2,168.6z"/>
	<path fill="#F9F7EF" d="M560.6,103.2l-540.3,6.4c-1.7,0-3,1.4-2.9,3.1l8,173.4c0.1,1.7,1.6,3.3,3.3,3.3l526.7,0.7
		c1.7,0,3.2-1.6,3.2-3.3l4.9-180.5C563.6,104.6,562.3,103.1,560.6,103.2z M486.4,157.6c0.3-2.1,1.2-3.7,2.1-4.9
		c1.2-1.5,2.8-2.4,4.6-2.4c1.8,0,3.4,0.3,4.6,1.5c0.9,0.9,1.8,2.5,3.1,4.6c1.2,3.4,0.9,5.8-0.3,7.3c-0.9,1.2-2.8,1.8-5.5,1.8
		c-2.8,0.3-4.6-0.3-6.1-1.5c-0.3,0-0.6-0.3-0.6-0.3C486.7,162.2,486.1,160.1,486.4,157.6z M276.2,159.1c0.3,0,0.3-0.3,0.3-0.3
		c0.3,0.3,0.3,0.3,0.3,0.3c0-0.3,0.3-0.9,0.3-1.2c0.3,0.3,0.3,0.3,0.6,0.6c0-0.6,0.1-1.2,0.4-1.8c0.6-0.3,1.9-0.9,1.9-1.2
		c0,0.3,0,0.1,0,0.4c0-0.3,0.5-1.9,0.8-1.9h0.3l0.3,0.9c0.3,0.6,0.6,1.5,0.6,2.1c0-0.3,0-0.2,0.3-0.5c0,0.3,0.2,0.7,0.2,1
		c0,0-0.5,0.4-0.5,0.7c0,0.3,0,1.8,0,1.8c3,0,0.6,0,0.6,0l0.3-1c0,0.3,0,0.5,0,0.9c-0.9,0.6-1.8,0.7-2.8,1c0.9-0.3,1.8-0.7,2.4-0.7
		c-0.3,0.3-0.8,0.3-1.1,0.6c0.3,0,0.5,0,0.5,0v0.3c0,0.3,0,0.3,0,0.3c0,0.6-1,0.9-1.3,1.2c-1.5,0.3-0.7,1.2-3.7,1.8c0,0,0,0,0,0.3
		c0,0,0,0,0-0.3c0-1.5-0.4-3.1-1.6-4C275.4,160,276.2,159.4,276.2,159.1z M186.9,154.7c0.3-2.1,1.2-3.7,2.1-4.9
		c1.2-1.5,2.8-2.4,4.6-2.4c1.8,0,3.4,0.3,4.6,1.5c0.9,0.9,1.8,2.8,3.1,4.6c1.2,3.4,0.9,5.8-0.3,7.3c-0.9,1.2-2.8,1.8-5.5,1.8
		c-2.8,0.3-4.6-0.3-6.1-1.5c-0.3,0-0.6-0.3-0.6-0.3C187.2,159.3,186.5,157.1,186.9,154.7z M125.9,224.4
		c-0.3,10.7-7.7,15.9-21.4,15.9c0-0.3-0.9-0.6-0.9-0.6c-8.9-0.3-15.6-2.2-20.5-5.5c-3.4-2.5-4.9-5.2-4.9-8c-0.3-1.5,0.3-3.7,1.5-5.5
		c0.9-1.2,2.1-1.5,4.3-1.5c2.1,0,5.2,0.7,9.2,1.6c4.9,1.2,8.9,2.3,11.6,2.3c0.3,0,0.6,0,0.6,0c2.1,0,3.1-0.7,3.4-1.3
		c-0.6-0.9-4-4.6-22.3-20c-5.5-4.6-7.9-10.7-7-18.7c0.5-4.7,2.1-8.7,4.5-11.9c-1.8,0.2-3.6,0.9-3.6,0.9l1.5-1.2c0,0-0.9,0-4.6,0.6
		s-7-2.2-7.9-4c-1.5-3.4-3.4-2.5-3.4-2.5s1.2-2.8,6.4-5.2c7.3-3.4,11,1.5,11,1.5l0-0.9c2.8,2.4,3.4,5.7,3.4,7.6
		c1.1-1,2.3-1.9,3.6-2.7c4.3-2.4,8.6-3.7,13.5-3.7l1.2,0c5.5,0.3,9.5,1.9,12.2,5.2c3.4,4,4,7,2.7,9.2c-0.9,1.5-2.8,2.4-5.8,2.4
		c-1.2,0-2.4,0-4-0.3c-1.2-0.3-2.4-0.3-3.7-0.3c-2.4,0-4.9,0.6-6.7,1.5c-2.8,1.5-4,3.7-4,6.4c0,1.5,1.5,4.3,7.6,8.9
		c4.9,3.4,10.1,7.7,15.6,13.2c3.1,3.4,4.9,6.1,5.8,8c0.6,1.5,1.2,3.4,1.2,5.8C126.2,222.5,126.2,223.1,125.9,224.4z M179.4,203.6
		c-4,7.9-9.2,14.4-14.7,19.9c-6.1,5.5-11.6,7.6-16.8,7.6c-0.9,0-2.4,0.3-2.8,1.2c0,0.3-0.3,0.6-0.3,0.6c-0.3,0.3-0.3,0.9-0.3,5.5
		l0,2.8c0,2.8,0,3.1,0,4.6c-0.6,2.4-1.8,3.7-3.7,4.6c-0.9,1.2-2.1,0.9-3.1,0.9c-1.8,0-3.4-0.3-4.9-1.8c-1.5-1.5-2.4-4.3-3-9.8
		c0-0.9,0-1.5-0.3-2.1c-0.3-3.7-0.6-7.6-0.9-21.1c-0.3-20.2-0.3-32.7,0.7-38.5s4-10.4,8.6-13.8c2.5-1.8,6.4-2.7,11.3-2.7l3.7,0
		c7,0.6,12.5,2.5,16.8,5.2c6.1,4.3,10.1,9.8,11.9,16.8c0.6,2.4,0.9,4.6,0.9,6.7C182.5,194.8,181.6,199.4,179.4,203.6z M204.2,227.8
		c-1.2,5.5-4.9,6.7-7.7,6.7s-6.4-1.2-7.9-6.7c-0.9-4-1.8-12.5-2.1-26.6l0-4.3c-0.3-20.2,1-24.8,1.9-26.3c1.8-2.4,4-3.6,6.4-3.6h0.6
		c0,0,0,0.3,0.3,0.3c2.8,0.3,4.6,2.4,5.2,5.2c0.9,4.6,1.8,14.4,2.7,29.7c0.3,6.1,0.6,11.6,0.9,15.6
		C204.5,222.7,204.5,225.7,204.2,227.8z M255,225.5c-0.3,10.7-7.7,15.9-21.4,15.9c0-0.6-0.9-0.6-0.9-0.6c-8.9-0.3-15.6-2.2-20.5-5.5
		c-3.4-2.5-4.9-5.2-4.9-8c-0.3-1.8,0.3-3.7,1.5-5.5c0.9-1.2,2.1-1.5,4.3-1.5c2.1,0,5.2,1.2,9.2,2.1c4.9,1.2,8.9,2.7,11.6,2.7
		c0.3,0,0.6,0,0.6,0c2.1,0,3.1-1.1,3.4-1.8c-0.6-0.9-4-4.9-22.3-20.2c-5.5-4.6-7.9-10.9-7-18.8c0.9-8,4.6-13.7,11-17.7
		c4.3-2.4,8.6-3.6,13.5-3.6h1.2c5.5,0,9.5,1.7,12.2,5.1c3.4,4,4,7,2.7,9.1c-0.9,1.5-2.8,2.4-5.8,2.4c-1.2,0-2.4,0-4-0.3
		c-1.2-0.3-2.4-0.3-3.7-0.3c-2.4,0-4.9,0.6-6.7,1.5c-2.8,1.5-4,3.7-4,6.4c0,1.5,1.5,4.3,7.6,8.9c4.9,3.4,10.1,7.7,15.6,13.2
		c3.1,3.4,4.9,6.1,5.8,8c0.6,1.5,1.2,3.4,1.2,5.8C255.3,223.6,255.3,224.3,255,225.5z M327.5,203.9c-0.6,10.1-3.7,18-8.9,23.5
		c-4,4.3-9.5,7-15.9,8.5c-4.3,1.2-7.7,1.5-11,1.5c-3.1,0-6.1-0.3-9.2-1.2c-9.5-2.5-16.2-8-20.2-16.6c-1.8-4.6-3-9.2-3.3-14.1
		c0-4.3,0.6-8.6,2.2-13.2c3-9.4,8.7-16.8,17.1-22.5l-1.8-3.8l-2.2-0.4c-1.3,0.3-2.5,0.9-3.5,2c-0.6,0.3-0.9,0.3-1.5,0.3h-0.3h-0.3
		c0,0,0.3-0.3,0.3-0.7c0,0,0,0.7,0.3-0.3c0,0,0,0-0.3,0c-0.3,1-0.6,0.3-0.9,0.3c0.6-0.6,1.2-1.2,1.8-1.8c-0.9,0.6-1.5,1.2-2.5,1.8
		c-0.3-0.3-0.6,0-0.9-0.3l0.3,0c-0.3,0-0.6,0-0.9,0c-0.3,0-0.3-0.9-0.6-0.9c0.3,0,1.2-0.1,1.5-0.1c-0.6-0.3-0.7-1.1-0.7-1.7V164
		l-0.6-0.3c0.3,0,0.5-0.3,0.8-0.3l-0.5-0.3c0.6-0.3,1.1-0.5,2-0.8c0.6,0,1.1-0.3,1.7,0.7H269c0,0,0-0.2,0-0.5c0-0.3,0.4-0.5,0.1-0.9
		c0.3,0,1.3,0.4,1.6,0.4h0.3c0,0,0-0.1,0-0.4v0.4h0.3c0.3,0,0.9-0.1,1.2-0.1c0.3,1.3,0.9,2.4,1.9,3.3l1.5,0.1l-1.8-3.8
		c-1.3-1-2.9-1.5-4.4-1.8c-0.3-0.3-0.6-1.1-0.9-1.7c-0.3-0.3-0.3,1.9-0.3-1.1h0.3h0.3c-0.3,0-0.3,0.1-0.3,0.1
		c-0.3-0.3-0.6-0.2-1.5-0.8c0.3,0,0.6,0.7,0.9,0.7h0.3c-0.3,0-0.3-0.8-0.3-0.8c-0.3-0.6-0.9-1.5-1.2-2.1c0-0.9,0-1.6,0.3-2.6
		c0.3,0,0.7,0.2,1,0.2c0.3,0.3,0.7,0.2,0.7,0.2v-0.3c0-0.6-0.4-0.9-0.4-1.5l-0.1-0.3h0.3c0.9,1,1.4,0.9,2,1.5
		c0.3,0.3,0.2,0.3,0.2,0.3v-0.3c0,0,0.2-0.3,0.2-0.6c0.3,0.3,0.7,0.3,1,0.6c0,0.3,0.3,0.6,0.3,0.9c0.3,0,0.3-0.3,0.3-0.3
		c0.6,0.3,0.9,0.9,1.2,1.2c-0.3,0.9-0.6,1.8-1.2,2.8c0.6-0.9,0.7-1.8,1.4-2.4c0,0.3-0.2,0.9-0.2,1.2v0.3c0-0.3,0.5-0.3,0.5-0.3
		c0.3-0.3,0.6-0.3,0.9-0.6l0.6,0.3v0.3c0,0.6-0.8,1.2-0.8,1.8c-0.6,1.5-1.2,3.4-1.2,5.5v0.3c0-0.3,0.3-0.3,0.3-0.3
		c-0.1-0.1,0.1-0.2,0-0.3l3.9,7.8c0.3-0.2,0.6-0.4,0.9-0.5c3.4-2.7,6.2-3.8,8.6-4.4c0.9-0.3,1.9,0.2,3.4,0.2h0.3
		c1.8,0,3.7-0.2,6.1,0.1c10.1,1.2,17.7,5.9,23.5,13.9c4,5.8,6.1,12.7,6.4,21C327.5,201.2,327.5,202.3,327.5,203.9z M371.3,184.7
		c-3.4-1.2-6.4-1.5-8.9-1.5c-4,0-7,1.2-9.2,4.3c-3.4,4.9-4.9,15-4.3,30.3c0.9,20.2-0.6,20.8-1.6,21.4c-0.9,0-2.1,0-3.4,0
		c-1.2,0-2.4,0-4-0.3c-3.4-0.9-5.2-2.1-6.1-4.3c-0.6-1.5-1.5-6.1-3-32.1c-0.6-9.8-0.9-16.8-1.2-21.4l0-3.7c0.3-4,1.2-6.4,3.1-7
		c0.6-0.3,1.5-0.3,2.1-0.3c1.8,0,3.7,1,5.8,2.5c1.5,1.2,2.1,1.6,2.4,1.6h0.3c1.2,0,4-2.8,7.7-4.6c3.4-1.8,7.3-2.8,11.3-2.8
		c3.4,0,6.7,0.6,10.7,1.8c9.2,3.1,13.8,7.4,14.1,12.6c0,1.8-0.3,3.1-1.2,4c-1.2,1.2-3.4,1.8-4.9,1.8
		C378.3,186.8,375.3,186.2,371.3,184.7z M448,232.8c0,0,0,0,0,0.3c-1,6.4-4.9,7.3-7,7.3c-3.4,0-5.7-0.9-7.2-2.8
		c-0.3-0.6-1.1-2.1-5.4-25.7c-3.3-20.2-4.8-23.9-5.4-24.5c0,0,0,0-0.3-0.3c-1.8-2.8-4-4.3-6.4-4.3s-5.5,1.5-8.9,4.3
		c-5.8,4.9-8.9,16.8-8.3,34.9c0.3,14.1-1.6,16.8-3.4,17.4c-0.9,0.3-1.5,0.3-2.4,0.3c-2.8,0-4.6-1.5-6.1-4.9c-1.5-3.4-2.7-9.5-3-18.4
		c-0.3-2.1-0.3-4-0.3-6.1c-0.3-21.4,6.5-35.2,20.6-41.6c4.6-2.1,9.2-3,13.2-3c1.9,0,3.7,0.3,5.4,0.7c0.8-2.7,2.8-5.2,5.7-6.7
		c2-1.7,4.7-3.1,7.9-2.5c-0.6-0.3-6.7-2.5-11.9,4.9c0,0-0.3-4.6,3.7-7.6l0,0.9c0,0,3.7-4,9.5-0.3c4.3,2.5,5.2,4.9,5.2,4.9
		s-1.5-0.9-3.1,1.8c-0.9,1.5-4,3.4-7,2.7c-3.1-0.9-3.7-0.9-3.7-0.9l1.2,1.2c0,0-4.6-2.1-5.5-0.6c0,0,0.3-0.6,0.9-1.4
		c-0.9,1.2-1.6,2.5-2,3.9c2.3,0.8,4.4,2,6.6,3.6c4.3,3.4,7.6,8,9.8,13.2c2.1,5.2,4.3,13.5,6.1,25.1c1.5,9.8,2.1,17.1,2.1,21.7
		L448,232.8z M480.7,238.4c-2.1,1.5-4.6,2.1-7.3,2.1c-2.4,0-5.2-0.6-8.3-2.2c-6.1-3.7-10.4-8.9-12.8-16.2c-0.9-3.1-1.5-11-1.8-24.2
		l-0.3-16.8c0.4-31.2,1.6-37.6,2.5-39.5c1.5-2.8,3.4-4,5.5-4c2.1,0,4.3,1.2,6.4,3.4c1.5,1.5,3,7.3,3.9,39.2
		c0.3,13.2,0.9,22.3,1.5,27.8c0.3,5.5,1.2,9.2,2.1,11.3c1.2,2.1,3.1,3.4,5.5,4.6c2.8,1.2,4.6,3.4,5.5,6.4c0.3,0.6,0.3,1.2,0.3,1.8
		C483.5,234.7,482.6,236.5,480.7,238.4z M502.2,230.1c-1.2,5.5-4.9,6.1-7.7,6.1c-2.8,0-6.4-0.6-7.9-6.4c-0.9-4-1.8-12.5-2.1-26.3
		l0-4c-0.3-20.2,1-24.5,1.9-26c1.8-2.4,4-3.9,6.4-3.9l0.6-0.6c0,0,0,0,0.3,0c2.8,2,4.6,2.7,5.2,5.8c0.9,4.6,1.8,14.7,2.7,30
		c0.3,6.4,0.6,11.8,0.9,15.8C502.5,225.4,502.5,228,502.2,230.1z"/>
	<path fill="#F9F7EF" d="M280,156.1c0,0.3,0,0.3,0,0.3C280,156.1,280,156.1,280,156.1z"/>
	<path fill="#F9F7EF" d="M282,157.3C282,157.3,282,157.3,282,157.3C282,157.3,282,157.3,282,157.3z"/>
	<path fill="#F9F7EF" d="M277,158.5c0,0.3,0,0.3,0,0.3C277,158.5,277,158.5,277,158.5z"/>
</g>
<g>
	<path fill="#F5F2E0" d="M51.3,381.6c-2.3,0-4.5-0.5-6.5-1.4c-2-1-3.7-2.3-5.1-4.1c-1.4-1.8-2.6-3.9-3.4-6.5
		c-0.8-2.5-1.2-5.3-1.2-8.4c0-3.1,0.4-5.9,1.2-8.4c0.8-2.5,1.9-4.6,3.3-6.4c1.4-1.8,3.1-3.1,5.1-4.1c2-0.9,4.1-1.4,6.5-1.4
		c2.4,0,4.6,0.5,6.6,1.4c2,0.9,3.7,2.3,5.1,4c1.4,1.8,2.6,3.9,3.4,6.4c0.8,2.5,1.2,5.3,1.2,8.4c0,3.1-0.4,5.9-1.2,8.4
		c-0.8,2.5-1.9,4.7-3.3,6.5c-1.4,1.8-3.1,3.2-5.1,4.2C55.9,381.1,53.7,381.6,51.3,381.6z M51.3,379.1c2,0,3.8-0.4,5.4-1.3
		s3-2.1,4.2-3.6c1.2-1.6,2.1-3.5,2.7-5.7c0.6-2.2,0.9-4.7,0.9-7.4c0-2.7-0.3-5.1-1-7.3c-0.6-2.2-1.6-4-2.7-5.6
		c-1.2-1.5-2.6-2.7-4.2-3.5c-1.6-0.8-3.4-1.2-5.4-1.2c-2,0-3.8,0.4-5.4,1.3c-1.6,0.8-3,2-4.2,3.6c-1.1,1.5-2,3.4-2.7,5.6
		s-0.9,4.6-0.9,7.3c0,2.7,0.3,5.2,1,7.4s1.5,4.1,2.7,5.7c1.2,1.6,2.6,2.8,4.2,3.6C47.5,378.6,49.3,379.1,51.3,379.1z"/>
	<path fill="#F5F2E0" d="M76.2,352.2l2.3,0l0.2,4.4l0.2,0c1.3-1.5,2.7-2.7,4.2-3.7c1.6-1,3.1-1.5,4.7-1.5c2.3,0,4.1,0.5,5.3,1.6
		c1.2,1.1,2.1,2.5,2.6,4.3c1.7-1.8,3.3-3.2,4.8-4.3c1.6-1.1,3.2-1.6,4.8-1.6c5.7,0,8.6,3.6,8.6,10.9l0,18.3l-2.7,0l0-18
		c0-3.1-0.5-5.3-1.6-6.8c-1-1.4-2.6-2.2-4.8-2.2c-2.6,0-5.4,1.8-8.6,5.4l0.1,21.6l-2.6,0l0-18c0-3.1-0.5-5.3-1.6-6.8
		c-1-1.4-2.7-2.2-4.9-2.2c-2.6,0-5.4,1.8-8.6,5.4l0.1,21.6l-2.6,0L76.2,352.2z"/>
	<path fill="#F5F2E0" d="M131.6,352.1l2.9,0l6.5,17.9c0.4,1.4,0.9,2.8,1.4,4.2c0.5,1.4,1,2.7,1.4,4l0.2,0c0.5-1.3,1-2.7,1.4-4.1
		c0.5-1.4,1-2.8,1.4-4.2l6.4-17.9l2.7,0l-10.5,28.6l-3.1,0L131.6,352.1z"/>
	<path fill="#F5F2E0" d="M159.9,366.3c0-2.4,0.3-4.5,1-6.4c0.7-1.9,1.6-3.5,2.8-4.7c1.2-1.3,2.5-2.2,4.1-2.9c1.5-0.7,3.2-1,4.9-1
		c1.7,0,3.3,0.3,4.9,1c1.6,0.7,2.9,1.6,4.1,2.9c1.2,1.3,2.1,2.8,2.8,4.7c0.7,1.9,1.1,4,1.1,6.4c0,2.4-0.3,4.5-1,6.3
		c-0.7,1.8-1.6,3.4-2.8,4.7c-1.2,1.3-2.5,2.2-4.1,2.9c-1.6,0.7-3.2,1-4.9,1c-1.7,0-3.3-0.3-4.9-1c-1.5-0.7-2.9-1.6-4.1-2.9
		c-1.2-1.3-2.1-2.8-2.8-4.7C160.2,370.8,159.9,368.7,159.9,366.3z M162.6,366.3c0,1.9,0.3,3.6,0.8,5.1c0.5,1.5,1.2,2.9,2.1,4
		c0.9,1.1,2,2,3.2,2.6c1.2,0.6,2.6,0.9,4,0.9c1.4,0,2.8-0.3,4-0.9c1.2-0.6,2.3-1.5,3.2-2.6c0.9-1.1,1.6-2.4,2.1-4
		c0.5-1.5,0.8-3.3,0.8-5.1c0-1.9-0.3-3.6-0.8-5.2c-0.5-1.5-1.2-2.9-2.1-4c-0.9-1.1-2-2-3.2-2.6c-1.3-0.6-2.6-0.9-4-0.9
		c-1.4,0-2.8,0.3-4,0.9c-1.2,0.6-2.3,1.5-3.2,2.6c-0.9,1.1-1.6,2.5-2.1,4C162.9,362.7,162.6,364.4,162.6,366.3z"/>
	<path fill="#F5F2E0" d="M194.1,351.9l2.3,0l0.3,5.3l0.2,0c0.9-1.8,2.1-3.2,3.5-4.4c1.4-1.1,2.9-1.7,4.6-1.7c0.6,0,1.1,0,1.5,0.1
		c0.4,0.1,0.9,0.2,1.4,0.5l-0.6,2.4c-0.5-0.2-0.9-0.3-1.3-0.4s-0.8-0.1-1.4-0.1c-1.3,0-2.6,0.6-4,1.6c-1.4,1.1-2.7,3-3.8,5.7
		l0.1,19.5l-2.6,0L194.1,351.9z"/>
	<path fill="#F5F2E0" d="M210,366.2c0-2.3,0.3-4.4,1-6.3c0.7-1.9,1.6-3.4,2.8-4.7c1.2-1.3,2.5-2.3,4-3c1.5-0.7,3-1.1,4.6-1.1
		c3.4,0,6.1,1.1,8,3.4c2,2.3,2.9,5.6,2.9,9.8c0,0.4,0,0.7,0,1.1c0,0.4,0,0.7-0.1,1.1l-20.6,0.1c0,1.8,0.3,3.4,0.8,5
		c0.5,1.5,1.2,2.8,2.2,3.9c0.9,1.1,2.1,1.9,3.4,2.6c1.3,0.6,2.8,0.9,4.4,0.9c1.5,0,2.9-0.2,4.2-0.7c1.2-0.5,2.4-1.1,3.5-1.9l1.1,2
		c-1.2,0.7-2.4,1.3-3.8,1.9c-1.4,0.6-3.1,0.9-5.2,0.9c-1.8,0-3.5-0.3-5.2-1c-1.6-0.7-3-1.6-4.2-2.9c-1.2-1.3-2.1-2.9-2.8-4.7
		C210.4,370.6,210,368.5,210,366.2z M230.9,364.4c0-3.7-0.8-6.5-2.3-8.3c-1.5-1.8-3.6-2.8-6.1-2.8c-1.2,0-2.4,0.3-3.5,0.8
		c-1.1,0.5-2.1,1.3-3,2.2s-1.6,2.1-2.2,3.5c-0.6,1.4-0.9,2.9-1.1,4.6L230.9,364.4z"/>
	<path fill="#F5F2E0" d="M239.2,375.2c1.2,1,2.5,1.9,3.9,2.6c1.4,0.7,3.1,1,5.2,1c2.3,0,4-0.6,5.1-1.7c1.1-1.1,1.7-2.5,1.7-4
		c0-0.9-0.2-1.6-0.6-2.3c-0.4-0.7-1-1.2-1.6-1.7c-0.7-0.5-1.4-0.9-2.2-1.2c-0.8-0.4-1.6-0.7-2.5-1c-1.1-0.4-2.2-0.8-3.2-1.2
		c-1.1-0.4-2.1-1-3-1.6c-0.9-0.6-1.6-1.3-2.1-2.2c-0.5-0.9-0.8-1.9-0.8-3.1c0-1,0.2-2,0.6-3c0.4-0.9,1-1.7,1.8-2.4
		c0.8-0.7,1.8-1.2,2.9-1.6c1.1-0.4,2.4-0.6,4-0.6s3,0.3,4.4,0.8c1.5,0.6,2.7,1.3,3.7,2.1l-1.4,1.9c-1-0.7-2-1.3-3-1.8
		c-1.1-0.5-2.3-0.7-3.8-0.7c-1.1,0-2.1,0.2-2.9,0.5c-0.8,0.3-1.5,0.7-2,1.2c-0.5,0.5-0.9,1-1.2,1.7c-0.3,0.6-0.4,1.3-0.4,1.9
		c0,0.8,0.2,1.5,0.6,2.1c0.4,0.6,0.9,1.1,1.5,1.5c0.6,0.4,1.4,0.8,2.2,1.2c0.8,0.3,1.6,0.7,2.5,1c1.1,0.4,2.2,0.9,3.3,1.3
		c1.1,0.4,2.1,1,3,1.6c0.9,0.6,1.6,1.4,2.2,2.3c0.6,0.9,0.8,2.1,0.8,3.5c0,1.1-0.2,2.1-0.6,3.1c-0.4,1-1,1.8-1.9,2.6
		c-0.8,0.7-1.8,1.3-3,1.8c-1.2,0.4-2.6,0.7-4.1,0.7c-2.1,0-4.1-0.4-5.9-1.1s-3.3-1.7-4.6-2.8L239.2,375.2z"/>
	<path fill="#F5F2E0" d="M277.1,351.7l2.3,0l0.2,4.4l0.2,0c1.3-1.5,2.7-2.7,4.2-3.7c1.6-1,3.1-1.5,4.7-1.5c2.3,0,4.1,0.5,5.3,1.6
		c1.2,1.1,2.1,2.5,2.6,4.3c1.7-1.8,3.3-3.2,4.8-4.3c1.6-1.1,3.2-1.6,4.8-1.6c5.7,0,8.6,3.6,8.6,10.9l0,18.3l-2.7,0l0-18
		c0-3.1-0.5-5.3-1.6-6.8c-1-1.4-2.6-2.2-4.8-2.2c-2.6,0-5.4,1.8-8.6,5.4l0.1,21.6l-2.6,0l0-18c0-3.1-0.5-5.3-1.6-6.8
		c-1-1.4-2.7-2.2-4.9-2.2c-2.6,0-5.4,1.8-8.6,5.4l0.1,21.6l-2.6,0L277.1,351.7z"/>
	<path fill="#F5F2E0" d="M323.9,373c0-3.1,1.5-5.5,4.4-7.2c3-1.7,7.6-2.9,14-3.6c0-1.1,0-2.2-0.2-3.2c-0.2-1.1-0.5-2.1-1-2.9
		c-0.5-0.9-1.2-1.5-2.1-2.1c-0.9-0.5-2-0.8-3.4-0.8c-1.9,0-3.7,0.4-5.3,1.1c-1.6,0.8-2.9,1.5-3.8,2.2l-1.2-2
		c0.5-0.4,1.1-0.8,1.9-1.2c0.7-0.4,1.5-0.8,2.4-1.2c0.9-0.4,1.9-0.7,2.9-0.9c1.1-0.3,2.2-0.4,3.3-0.4c1.7,0,3.1,0.3,4.3,0.9
		c1.2,0.6,2.1,1.4,2.8,2.3c0.7,1,1.2,2.2,1.5,3.5c0.3,1.3,0.5,2.8,0.5,4.3l0,18.3l-2.2,0l-0.3-3.7l-0.1,0c-1.5,1.2-3,2.2-4.7,3.1
		c-1.7,0.9-3.5,1.3-5.4,1.4c-1.2,0-2.2-0.2-3.2-0.5c-1-0.3-1.9-0.8-2.7-1.4c-0.8-0.6-1.4-1.4-1.8-2.4S323.9,374.3,323.9,373z
		 M326.6,372.9c0,2.1,0.6,3.5,1.8,4.4c1.2,0.9,2.6,1.3,4.2,1.3c1.7,0,3.3-0.4,4.8-1.2c1.5-0.8,3.2-2,4.9-3.5l0-9.7
		c-2.9,0.4-5.4,0.8-7.4,1.3c-2,0.5-3.6,1.1-4.8,1.9c-1.2,0.7-2.1,1.5-2.6,2.4C326.9,370.7,326.6,371.8,326.6,372.9z"/>
	<path fill="#F5F2E0" d="M352.8,365.8c0-2.3,0.3-4.4,1-6.3c0.7-1.9,1.6-3.5,2.8-4.8s2.5-2.3,4-3c1.5-0.7,3.1-1.1,4.9-1.1
		c1.7,0,3.3,0.3,4.6,0.9c1.3,0.6,2.7,1.5,4.1,2.6L374,349l0-11.8l2.6,0l0.1,42.8l-2.3,0l-0.3-3.7l-0.2,0c-1.1,1.2-2.5,2.2-4.1,3.1
		c-1.6,0.9-3.3,1.3-5.2,1.4c-3.6,0-6.5-1.3-8.6-3.8C353.9,374.4,352.8,370.7,352.8,365.8z M355.6,365.8c0,1.9,0.2,3.6,0.6,5.2
		c0.4,1.5,1,2.9,1.8,4c0.8,1.1,1.8,1.9,3,2.6c1.2,0.6,2.5,0.9,4,0.9c1.6,0,3.1-0.4,4.6-1.2c1.4-0.8,2.9-2,4.4-3.5l0-17
		c-1.5-1.3-2.9-2.3-4.3-2.8c-1.3-0.6-2.7-0.8-4.1-0.8c-1.4,0-2.8,0.3-4,1c-1.2,0.7-2.3,1.6-3.2,2.7c-0.9,1.1-1.6,2.5-2.1,4.1
		C355.9,362.4,355.6,364,355.6,365.8z"/>
	<path fill="#F5F2E0" d="M385,387.4c1.3-0.7,2.4-1.7,3.3-2.9c0.8-1.2,1.3-2.7,1.3-4.3c-0.2,0-0.4,0.1-0.7,0.1
		c-0.7,0-1.3-0.2-1.8-0.6c-0.5-0.4-0.7-1.1-0.8-1.8c0-0.8,0.3-1.4,0.8-1.8c0.5-0.4,1.1-0.7,1.8-0.7c0.9,0,1.6,0.4,2.2,1.1
		c0.6,0.8,0.8,1.8,0.8,3.1c0,2.2-0.6,4.1-1.7,5.8c-1.1,1.7-2.6,3-4.4,3.9L385,387.4z"/>
	<path fill="#F5F2E0" d="M412.5,351.3l2.3,0l0.2,4.4l0.2,0c1.3-1.5,2.7-2.7,4.2-3.7c1.6-1,3.1-1.5,4.7-1.5c2.3,0,4.1,0.5,5.3,1.6
		c1.2,1.1,2.1,2.5,2.6,4.3c1.7-1.8,3.3-3.2,4.8-4.3c1.6-1.1,3.2-1.6,4.8-1.6c5.7,0,8.6,3.6,8.6,10.9l0,18.3l-2.7,0l0-18
		c0-3.1-0.5-5.3-1.6-6.8c-1-1.4-2.6-2.2-4.8-2.2c-2.6,0-5.4,1.8-8.6,5.4l0.1,21.6l-2.6,0l0-18c0-3.1-0.5-5.3-1.6-6.8
		c-1-1.4-2.7-2.2-4.9-2.2c-2.6,0-5.4,1.8-8.6,5.4l0.1,21.6l-2.6,0L412.5,351.3z"/>
	<path fill="#F5F2E0" d="M462.2,344.3c-0.7,0-1.2-0.2-1.7-0.7c-0.5-0.4-0.7-1-0.7-1.7c0-0.8,0.2-1.3,0.7-1.8c0.5-0.4,1-0.6,1.7-0.6
		c0.7,0,1.2,0.2,1.7,0.6c0.5,0.4,0.7,1,0.7,1.8c0,0.7-0.2,1.2-0.7,1.7C463.4,344.1,462.8,344.3,462.2,344.3z M460.8,351.2l2.6,0
		l0.1,28.6l-2.6,0L460.8,351.2z"/>
	<path fill="#F5F2E0" d="M474.4,336.9l2.6,0l0.1,39.4c0,0.6,0.1,1.1,0.4,1.4c0.2,0.3,0.5,0.4,0.9,0.4c0.1,0,0.2,0,0.4,0
		c0.1,0,0.4,0,0.7-0.1l0.5,2.1c-0.3,0.1-0.6,0.2-0.8,0.2c-0.3,0.1-0.6,0.1-1.1,0.1c-2.3,0-3.5-1.5-3.5-4.5L474.4,336.9z"/>
	<path fill="#F5F2E0" d="M488.6,351.1l2.7,0l0.1,33.9c0,2.8-0.5,4.9-1.5,6.3c-1,1.4-2.7,2.1-4.9,2.1c-0.7,0-1.3-0.1-2-0.2
		c-0.7-0.1-1.2-0.3-1.7-0.5l0.6-2.1c0.4,0.1,0.8,0.2,1.3,0.4c0.5,0.1,1.1,0.2,1.6,0.2c1.6,0,2.6-0.6,3.1-1.8
		c0.5-1.2,0.7-2.7,0.7-4.5L488.6,351.1z M489.9,344.2c-0.6,0-1.2-0.2-1.7-0.7c-0.5-0.4-0.7-1-0.7-1.7c0-0.8,0.2-1.3,0.7-1.8
		c0.5-0.4,1-0.6,1.7-0.6c0.7,0,1.3,0.2,1.7,0.6c0.5,0.4,0.7,1,0.7,1.8c0,0.7-0.2,1.2-0.7,1.7C491.2,344,490.6,344.2,489.9,344.2z"/>
	<path fill="#F5F2E0" d="M522.4,355.2c1,1.3,1.7,2.8,2.3,4.5c0.6,1.7,0.8,3.6,0.8,5.8c0,2.4-0.3,4.5-1,6.3c-0.7,1.8-1.6,3.4-2.8,4.7
		c-1.2,1.3-2.5,2.2-4.1,2.9c-1.6,0.7-3.2,1-4.9,1c-3.3,0-6.1-1.1-8.4-3.3l-3.2,3.9l-1.6-1.2l3.4-4.2c-1-1.3-1.7-2.7-2.3-4.4
		c-0.6-1.7-0.8-3.6-0.9-5.7c0-2.4,0.3-4.5,1-6.4c0.7-1.9,1.6-3.5,2.8-4.7c1.2-1.3,2.5-2.2,4.1-2.9c1.5-0.7,3.2-1,4.9-1
		c1.6,0,3.1,0.3,4.6,0.8c1.5,0.6,2.8,1.4,3.9,2.5l3.2-3.9l1.6,1.2L522.4,355.2z M519.5,355.6c-1.8-2-4.1-3-6.9-3
		c-1.4,0-2.8,0.3-4,0.9c-1.2,0.6-2.3,1.5-3.2,2.6c-0.9,1.1-1.6,2.5-2.1,4.1c-0.5,1.6-0.8,3.3-0.8,5.2c0,3.2,0.7,5.9,2.2,8.2
		L519.5,355.6z M505.9,375.1c1.9,2,4.1,3,6.8,3c1.4,0,2.8-0.3,4-0.9c1.2-0.6,2.3-1.5,3.2-2.6c0.9-1.1,1.6-2.4,2.1-4
		c0.5-1.5,0.8-3.3,0.8-5.1c0-3.3-0.7-6-2.2-8.2L505.9,375.1z"/>
	<path fill="#F5F2E0" d="M543.6,365.3c0-2.4,0.3-4.5,1-6.4c0.7-1.9,1.6-3.5,2.8-4.7c1.2-1.3,2.5-2.2,4.1-2.9c1.5-0.7,3.2-1,4.9-1
		c1.7,0,3.3,0.3,4.9,1c1.6,0.7,2.9,1.6,4.1,2.9c1.2,1.3,2.1,2.8,2.8,4.7c0.7,1.9,1.1,4,1.1,6.4c0,2.4-0.3,4.5-1,6.3
		c-0.7,1.8-1.6,3.4-2.8,4.7c-1.2,1.3-2.5,2.2-4.1,2.9c-1.6,0.7-3.2,1-4.9,1s-3.3-0.3-4.9-1c-1.6-0.7-2.9-1.6-4.1-2.9
		c-1.2-1.3-2.1-2.8-2.8-4.7C543.9,369.8,543.6,367.7,543.6,365.3z M546.3,365.3c0,1.9,0.3,3.6,0.8,5.1c0.5,1.5,1.2,2.9,2.1,4
		c0.9,1.1,2,2,3.2,2.6c1.2,0.6,2.6,0.9,4,0.9c1.4,0,2.8-0.3,4-0.9c1.2-0.6,2.3-1.5,3.2-2.6c0.9-1.1,1.6-2.4,2.1-4
		c0.5-1.5,0.8-3.3,0.8-5.1c0-1.9-0.3-3.6-0.8-5.2c-0.5-1.5-1.2-2.9-2.1-4c-0.9-1.1-2-2-3.2-2.6c-1.3-0.6-2.6-0.9-4-0.9
		s-2.8,0.3-4,0.9c-1.2,0.6-2.3,1.5-3.2,2.6c-0.9,1.1-1.6,2.5-2.1,4C546.6,361.7,546.3,363.4,546.3,365.3z"/>
	<path fill="#F5F2E0" d="M575.5,385.3c0-1.3,0.4-2.5,1.1-3.7c0.8-1.2,1.8-2.3,3.1-3.2l0-0.2c-0.7-0.4-1.3-1-1.8-1.8
		c-0.5-0.8-0.7-1.7-0.7-2.8c0-1.3,0.4-2.4,1.1-3.2c0.7-0.9,1.4-1.6,2-2l0-0.2c-0.9-0.8-1.7-1.9-2.5-3.2c-0.7-1.3-1.1-2.9-1.1-4.6
		c0-1.5,0.2-2.8,0.8-4.1c0.5-1.2,1.2-2.3,2.1-3.2c0.9-0.9,2-1.6,3.2-2.1c1.2-0.5,2.5-0.8,3.9-0.8c0.8,0,1.5,0.1,2.1,0.2
		c0.6,0.1,1.2,0.3,1.6,0.5l9.7,0l0,2.2l-6.7,0c0.9,0.8,1.7,1.8,2.3,3.1c0.6,1.2,0.9,2.6,0.9,4.1c0,1.5-0.3,2.8-0.8,4.1
		c-0.5,1.2-1.2,2.3-2.1,3.2s-1.9,1.6-3.2,2.1c-1.2,0.5-2.5,0.8-3.9,0.8c-0.8,0-1.6-0.1-2.5-0.3c-0.9-0.2-1.6-0.5-2.3-0.9
		c-0.6,0.5-1.2,1.1-1.6,1.7c-0.5,0.6-0.7,1.4-0.7,2.4c0,1,0.4,1.9,1.1,2.6c0.8,0.7,2.2,1.1,4.4,1.1l6.1,0c3.2,0,5.6,0.5,7.1,1.6
		c1.5,1,2.3,2.7,2.3,5c0,1.2-0.3,2.4-0.9,3.6c-0.6,1.2-1.5,2.2-2.7,3.1c-1.2,0.9-2.6,1.6-4.3,2.2c-1.7,0.5-3.5,0.8-5.6,0.8
		c-3.6,0-6.5-0.7-8.6-2.1S575.5,387.8,575.5,385.3z M578,385.1c0,1.8,0.8,3.2,2.5,4.3c1.6,1.1,4,1.7,7.1,1.6c1.6,0,3-0.2,4.3-0.6
		c1.3-0.4,2.4-1,3.3-1.6c0.9-0.7,1.6-1.4,2.1-2.3c0.5-0.9,0.7-1.7,0.7-2.7c0-1.6-0.6-2.7-1.7-3.4c-1.1-0.7-2.8-1-4.9-1l-6.1,0
		c-0.3,0-0.8,0-1.5-0.1c-0.7-0.1-1.4-0.2-2.1-0.4c-1.3,0.9-2.3,1.9-2.9,2.9C578.3,383,578,384.1,578,385.1z M586.8,368.3
		c1,0,1.9-0.2,2.8-0.6c0.9-0.4,1.7-0.9,2.3-1.6c0.7-0.7,1.2-1.6,1.6-2.6c0.4-1,0.6-2.1,0.6-3.3c0-1.2-0.2-2.3-0.6-3.3
		c-0.4-1-0.9-1.8-1.6-2.5c-0.7-0.7-1.4-1.2-2.4-1.6c-0.9-0.4-1.9-0.6-2.9-0.6c-1,0-2,0.2-2.9,0.6c-0.9,0.4-1.7,0.9-2.3,1.6
		c-0.7,0.7-1.2,1.5-1.6,2.5c-0.4,1-0.6,2.1-0.6,3.3c0,1.2,0.2,2.3,0.6,3.3c0.4,1,0.9,1.8,1.6,2.6c0.7,0.7,1.5,1.3,2.4,1.6
		C584.8,368.1,585.8,368.3,586.8,368.3z"/>
	<path fill="#F5F2E0" d="M618.6,336.6l2.6,0l0.1,31.6l0.1,0l14.1-17.4l3,0l-9.3,11.3l10.9,17.2l-2.9,0l-9.5-15.3l-6.4,7.5l0,7.8
		l-2.6,0L618.6,336.6z"/>
	<path fill="#F5F2E0" d="M646.2,336.5l2.6,0l0.1,39.4c0,0.6,0.1,1.1,0.4,1.4c0.2,0.3,0.5,0.4,0.9,0.4c0.1,0,0.2,0,0.4,0
		c0.1,0,0.4,0,0.7-0.1l0.5,2.1c-0.3,0.1-0.6,0.2-0.8,0.2c-0.3,0.1-0.6,0.1-1.1,0.1c-2.3,0-3.5-1.5-3.5-4.5L646.2,336.5z"/>
	<path fill="#F5F2E0" d="M661.7,343.8c-0.7,0-1.2-0.2-1.7-0.7c-0.5-0.4-0.7-1-0.7-1.7c0-0.8,0.2-1.3,0.7-1.8c0.5-0.4,1-0.6,1.7-0.6
		c0.7,0,1.2,0.2,1.7,0.6c0.5,0.4,0.7,1,0.7,1.8c0,0.7-0.2,1.2-0.7,1.7C663,343.6,662.4,343.8,661.7,343.8z M660.4,350.7l2.6,0
		l0.1,28.6l-2.6,0L660.4,350.7z"/>
	<path fill="#F5F2E0" d="M674,350.7l2.3,0l0.2,4.4l0.2,0c1.3-1.5,2.7-2.7,4.2-3.7c1.6-1,3.1-1.5,4.7-1.5c2.3,0,4.1,0.5,5.3,1.6
		c1.2,1.1,2.1,2.5,2.6,4.3c1.7-1.8,3.3-3.2,4.8-4.3c1.6-1.1,3.2-1.6,4.8-1.6c5.7,0,8.6,3.6,8.6,10.9l0,18.3l-2.7,0l0-18
		c0-3.1-0.5-5.3-1.6-6.8c-1-1.4-2.6-2.2-4.8-2.2c-2.6,0-5.4,1.8-8.6,5.4l0.1,21.6l-2.6,0l0-18c0-3.1-0.5-5.3-1.6-6.8
		c-1-1.4-2.7-2.2-4.9-2.2c-2.6,0-5.4,1.8-8.6,5.4l0.1,21.6l-2.6,0L674,350.7z"/>
	<path fill="#F5F2E0" d="M720.8,372c0-3.1,1.5-5.5,4.4-7.2c3-1.7,7.6-2.9,14-3.6c0-1.1,0-2.2-0.2-3.2c-0.2-1.1-0.5-2.1-1-2.9
		c-0.5-0.9-1.2-1.5-2.1-2.1c-0.9-0.5-2-0.8-3.4-0.8c-1.9,0-3.7,0.4-5.3,1.1s-2.9,1.5-3.8,2.2l-1.2-2c0.5-0.4,1.1-0.8,1.9-1.2
		c0.7-0.4,1.5-0.8,2.4-1.2c0.9-0.4,1.9-0.7,2.9-0.9c1.1-0.3,2.2-0.4,3.3-0.4c1.7,0,3.1,0.3,4.3,0.9c1.2,0.6,2.1,1.4,2.8,2.3
		c0.7,1,1.2,2.2,1.5,3.5c0.3,1.3,0.5,2.8,0.5,4.3l0,18.3l-2.2,0l-0.3-3.7l-0.1,0c-1.5,1.2-3,2.2-4.7,3.1c-1.7,0.9-3.5,1.3-5.4,1.4
		c-1.2,0-2.2-0.2-3.2-0.5c-1-0.3-1.9-0.8-2.7-1.4c-0.8-0.6-1.4-1.4-1.8-2.4S720.8,373.3,720.8,372z M723.6,371.8
		c0,2.1,0.6,3.5,1.8,4.4c1.2,0.9,2.6,1.3,4.2,1.3c1.7,0,3.3-0.4,4.8-1.2c1.5-0.8,3.2-2,4.9-3.5l0-9.7c-2.9,0.4-5.4,0.8-7.4,1.3
		c-2,0.5-3.6,1.1-4.8,1.9c-1.2,0.7-2.1,1.5-2.6,2.4C723.8,369.7,723.6,370.7,723.6,371.8z"/>
</g>
</svg>
