<?xml version="1.0" encoding="utf-8"?>
<!-- Generator: Adobe Illustrator 18.0.0, SVG Export Plug-In . SVG Version: 6.00 Build 0)  -->
<!DOCTYPE svg PUBLIC "-//W3C//DTD SVG 1.1//EN" "http://www.w3.org/Graphics/SVG/1.1/DTD/svg11.dtd">
<svg version="1.1" id="Lag_1" xmlns="http://www.w3.org/2000/svg" xmlns:xlink="http://www.w3.org/1999/xlink" x="0px" y="0px"
	 viewBox="0 0 150 42" enable-background="new 0 0 150 42" xml:space="preserve">
<g>
	<path fill="#D34D55" d="M45.9,6.2c-0.4-0.4-0.9-0.5-1.5-0.5c-0.6,0-1.1,0.3-1.5,0.8c-0.3,0.4-0.6,0.9-0.7,1.6
		c-0.1,0.8,0.1,1.5,0.6,2c0,0,0.1,0.1,0.2,0.1c0.5,0.4,1.1,0.6,2,0.5c0.9,0,1.5-0.2,1.8-0.6c0.4-0.5,0.5-1.3,0.1-2.4
		C46.5,7.1,46.2,6.5,45.9,6.2"/>
	<path fill="#D34D55" d="M143.8,7c-0.4-0.4-0.9-0.5-1.5-0.5c-0.6,0-1.1,0.3-1.5,0.8c-0.3,0.4-0.6,0.9-0.7,1.6
		c-0.1,0.8,0.1,1.5,0.6,2c0,0,0.1,0.1,0.2,0.1c0.5,0.4,1.1,0.6,2,0.5c0.9,0,1.5-0.2,1.8-0.6c0.4-0.5,0.5-1.3,0.1-2.4
		C144.4,7.8,144.1,7.3,143.8,7"/>
	<path fill="#D34D55" d="M45.4,34.2c-0.9,0-2.1-0.4-2.6-2.2c-0.3-1.3-0.6-4.1-0.7-8.7l0-1.4c-0.1-6.6,0.3-8.1,0.6-8.6
		c0.6-0.8,1.3-1.2,2.1-1.2H45c0,0,0,0.1,0.1,0.1c0.9,0.1,1.5,0.8,1.7,1.7c0.3,1.5,0.6,4.7,0.9,9.7c0.1,2,0.2,3.8,0.3,5.1
		c0,1.6,0,2.6-0.1,3.3C47.5,33.8,46.3,34.2,45.4,34.2L45.4,34.2z M142.8,34.6c-0.9,0-2.1-0.2-2.6-2.1c-0.3-1.3-0.6-4.1-0.7-8.6
		l0-1.3c-0.1-6.6,0.3-8,0.6-8.5c0.6-0.8,1.3-1.1,2.1-1.1l0.2,0c0,0,0,0,0.1,0c0.9,0.1,1.5,0.7,1.7,1.7c0.3,1.5,0.6,4.7,0.9,9.7
		c0.1,2.1,0.2,3.8,0.3,5.1c0,1.6,0,2.4-0.1,3.1C144.9,34.4,143.7,34.6,142.8,34.6L142.8,34.6z M77.3,16.8c0,0-0.4,0-0.6,0.1
		c-1.2,0.2-2.1,0.7-2.8,1.7c-1.5,2.1-2.3,4.1-2.3,5.9c0,0.4,0,0.9,0.1,1.3c0.2,1.2,0.7,2.1,1.4,2.6c0.6,0.5,1.7,0.7,3.3,0.7h0.1
		c1.7,0,2.9-0.3,3.8-0.9c0.9-0.6,1.4-1.5,1.7-2.9c0.2-0.7,0.3-1.4,0.2-2.2c0-0.7-0.1-1.5-0.3-2.2c-0.4-1.5-1-2.6-1.9-3.2
		C79.1,17.1,78.3,16.8,77.3,16.8v-0.5V16.8z M76.5,35.1c-1,0-2-0.1-3-0.4c-3.1-0.8-5.3-2.6-6.6-5.4c-0.6-1.5-1-3-1.1-4.6
		c0-1.4,0.2-2.8,0.7-4.3c1-3.2,3-5.7,5.9-7.6c1.1-0.9,2-1.4,2.8-1.6c0.3-0.1,0.6-0.1,1.1-0.1h0.1c0.6,0,1.2,0.1,2,0.2
		c3.3,0.4,5.8,2,7.7,4.6c1.3,1.9,2,4.2,2.1,6.9c0,0.4,0,0.8,0,1.3c-0.2,3.3-1.2,5.9-2.9,7.7c-1.3,1.4-3.1,2.3-5.2,2.8
		C78.7,35,77.6,35.1,76.5,35.1L76.5,35.1z M93.6,35.6c-0.4,0-0.8,0-1.3-0.1c-1.1-0.3-1.7-0.7-2-1.4c-0.2-0.5-0.5-2-1-10.5
		c-0.2-3.2-0.3-5.5-0.4-7l0-1.2c0.1-1.3,0.4-2.1,1-2.3c0.2-0.1,0.5-0.1,0.7-0.1c0.6,0,1.2,0.3,1.9,0.8c0.5,0.4,0.7,0.5,0.8,0.5
		c0,0,0.1,0,0.1,0c0.4-0.4,1.3-0.9,2.5-1.5c1.1-0.6,2.4-0.9,3.7-0.9h0c1.1,0,2.2,0.2,3.5,0.6c3,1,4.5,2.4,4.6,4.1
		c0,0.6-0.1,1-0.4,1.3c-0.4,0.4-1.1,0.6-1.6,0.6v0c-0.9,0-1.9-0.2-3.2-0.7c-1.1-0.4-2.1-0.5-2.9-0.5c-1.3,0-2.3,0.4-3,1.4
		c-1.1,1.6-1.6,4.9-1.4,9.9c0.3,6.6-0.2,6.8-0.5,7C94.4,35.6,94,35.6,93.6,35.6L93.6,35.6z M15,35.9c-2.9-0.1-5.1-0.7-6.7-1.8
		c-1.1-0.8-1.6-1.7-1.6-2.6c-0.1-0.5,0.1-1.2,0.5-1.8c0.3-0.4,0.7-0.5,1.4-0.5c0.7,0,1.7,0.2,3,0.5c1.6,0.4,2.9,0.7,3.8,0.7
		c0.1,0,0.2,0,0.2,0c0.7,0,1-0.2,1.1-0.4c-0.2-0.3-1.3-1.5-7.3-6.5c-1.8-1.5-2.6-3.5-2.3-6.1c0.3-2.6,1.5-4.5,3.6-5.8
		c1.4-0.8,2.8-1.2,4.4-1.2l0.4,0c1.8,0.1,3.1,0.6,4,1.7c1.1,1.3,1.3,2.3,0.9,3c-0.3,0.5-0.9,0.8-1.9,0.8c-0.4,0-0.8,0-1.3-0.1
		c-0.4-0.1-0.8-0.1-1.2-0.1c-0.8,0-1.6,0.2-2.2,0.5c-0.9,0.5-1.3,1.2-1.3,2.1c0,0.5,0.5,1.4,2.5,2.9c1.6,1.1,3.3,2.5,5.1,4.3
		c1,1.1,1.6,2,1.9,2.6c0.2,0.5,0.4,1.1,0.4,1.9c0,0.3,0,0.5-0.1,0.9c-0.1,3.5-2.5,5.2-7,5.2C15.3,36,15,35.9,15,35.9 M125.4,36
		c-1.1,0-1.9-0.3-2.4-0.9c0,0,0,0,0,0c-0.1-0.2-0.4-0.7-1.8-8.4c-1.1-6.6-1.6-7.8-1.8-8c0,0,0,0-0.1-0.1c-0.6-0.9-1.3-1.4-2.1-1.4
		c-0.8,0-1.8,0.5-2.9,1.4c-1.9,1.6-2.9,5.5-2.7,11.4c0.1,4.6-0.5,5.5-1.1,5.7c-0.3,0.1-0.5,0.1-0.8,0.1c-0.9,0-1.5-0.5-2-1.6
		c-0.5-1.1-0.9-3.1-1-6c-0.1-0.7-0.1-1.3-0.1-2c-0.1-7,2.1-11.5,6.7-13.6c1.5-0.7,3-1,4.3-1c1.6,0,2.9,0.5,4.2,1.5
		c1.4,1.1,2.5,2.6,3.2,4.3c0.7,1.7,1.4,4.4,2,8.2c0.5,3.2,0.8,5.6,0.8,7.1l0,0.8c0,0,0,0,0,0.1C127.4,35.7,126.1,36,125.4,36
		L125.4,36z M57.2,36.2c-2.9-0.1-5.1-0.7-6.7-1.8c-1.1-0.8-1.6-1.7-1.6-2.6c-0.1-0.6,0.1-1.2,0.5-1.8c0.3-0.4,0.7-0.5,1.4-0.5
		c0.7,0,1.7,0.2,3,0.5c1.6,0.4,2.9,0.7,3.8,0.7c0.1,0,0.2,0,0.2,0c0.7,0,1-0.2,1.1-0.4c-0.2-0.3-1.3-1.5-7.3-6.5
		c-1.8-1.5-2.6-3.5-2.3-6.1c0.3-2.6,1.5-4.5,3.6-5.8c1.4-0.8,2.8-1.2,4.4-1.2l0.4,0c1.8,0.1,3.1,0.6,4,1.7c1.1,1.3,1.3,2.3,0.9,3
		c-0.3,0.5-0.9,0.8-1.9,0.8c-0.4,0-0.8,0-1.3-0.1c-0.4-0.1-0.8-0.1-1.2-0.1c-0.8,0-1.6,0.2-2.2,0.5c-0.9,0.5-1.3,1.2-1.3,2.1
		c0,0.5,0.5,1.4,2.5,2.9c1.6,1.1,3.3,2.5,5.1,4.3c1,1.1,1.6,2,1.9,2.6c0.2,0.5,0.4,1.1,0.4,1.9c0,0.3,0,0.5-0.1,0.9
		c-0.1,3.5-2.5,5.2-7,5.2C57.5,36.2,57.2,36.2,57.2,36.2 M135.9,36c-0.8,0-1.7-0.2-2.7-0.7c-2-1.2-3.4-2.9-4.2-5.3
		c-0.3-1-0.5-3.6-0.6-7.9l-0.1-5.5c0.1-10.2,0.5-12.3,0.8-12.9c0.5-0.9,1.1-1.3,1.8-1.3c0.7,0,1.4,0.4,2.1,1.1
		c0.5,0.5,1,2.4,1.3,12.8c0.1,4.3,0.3,7.3,0.5,9.1c0.1,1.8,0.4,3,0.7,3.7c0.4,0.7,1,1.1,1.8,1.5c0.9,0.4,1.5,1.1,1.8,2.1
		c0.1,0.2,0.1,0.4,0.1,0.6c0,0.8-0.3,1.4-0.9,2C137.6,35.8,136.8,36,135.9,36L135.9,36z M30.9,15.4c-0.5,0-0.7,0-1,0.1
		c-0.7,0.2-1.1,0.5-1.3,1.2c-0.2,0.8-0.3,3-0.4,6.5c0,1.1,0,2,0,2.7c0,1.4,0.1,2.1,0.1,2.4c0.4-0.1,1.1-0.4,2.1-1.2
		c1.1-0.8,2.1-1.9,3-3.2c1.4-1.8,2-3.4,2-4.7c0-1-0.5-1.8-1.4-2.5c-0.5-0.5-1.2-0.8-1.9-1C31.7,15.5,31.3,15.4,30.9,15.4v-0.5V15.4z
		 M26.2,39.7c-0.6,0-1.1-0.1-1.6-0.6c-0.5-0.5-0.8-1.4-1-3.2c0-0.3,0-0.5-0.1-0.7c-0.1-1.2-0.2-2.5-0.3-6.9
		c-0.1-6.6-0.1-10.7,0.2-12.6c0.3-1.9,1.3-3.4,2.8-4.5c0.8-0.6,2.1-0.9,3.7-0.9l1.2,0c2.3,0.2,4.1,0.8,5.5,1.7
		c2,1.4,3.3,3.2,3.9,5.5c0.2,0.8,0.3,1.5,0.3,2.2c0,1.5-0.3,3-1,4.4c-1.3,2.6-3,4.7-4.8,6.5c-2,1.8-3.8,2.5-5.5,2.5h0
		c-0.3,0-0.8,0.1-0.9,0.4c0,0.1-0.1,0.2-0.1,0.2c-0.1,0.1-0.1,0.3-0.1,1.8l0,0.9c0,0.9,0,1,0,1.5c-0.2,0.8-0.6,1.2-1.2,1.5
		C26.9,39.8,26.5,39.7,26.2,39.7L26.2,39.7z"/>
	<path fill="#D34D55" d="M72.3,13.3c0,0.1,0,0.1,0,0.1c0,0-0.1,0-0.1-0.1l-1.5-3.1c0-0.1,0-0.1,0-0.1c0,0,0.1,0,0.1,0.1L72.3,13.3z"
		/>
	<path fill="#D34D55" d="M71.2,8.7c0-0.2,0-0.4,0-0.6c0,0,0-0.1,0-0.1c0,0-0.1-0.1-0.1-0.1C71,8,71,8,70.9,8.1c0,0,0,0-0.1,0.1
		c0,0,0-0.1,0-0.1c0-0.1,0-0.3,0-0.4c0,0,0,0,0,0c-0.2,0.2-0.3,0.5-0.5,0.8c0,0,0,0.1-0.1,0.1c0,0,0-0.1,0.1-0.1
		c0.2-0.3,0.3-0.6,0.4-0.9c-0.1-0.1-0.2-0.3-0.4-0.4c0,0,0,0.1-0.1,0.1c0,0,0,0.1,0,0.1c0,0,0-0.1,0-0.1c0-0.1-0.1-0.2-0.1-0.3
		c-0.1-0.1-0.2-0.1-0.3-0.2c0,0.1,0,0.2,0,0.2c0,0,0,0.1,0,0.1c0,0,0,0-0.1-0.1c-0.2-0.2-0.4-0.3-0.7-0.5c0,0-0.1,0-0.1,0
		c0,0-0.1,0.1-0.1,0.1c0,0.2,0,0.3,0,0.5c0,0,0,0.1,0,0.1c0,0,0,0-0.1-0.1c-0.1,0-0.1-0.1-0.2-0.1c-0.1,0.3-0.1,0.5-0.1,0.8
		c0.1,0.2,0.3,0.4,0.4,0.6c0,0,0,0,0.1,0.1c0,0-0.1,0-0.1,0c-0.1,0-0.2,0-0.3,0c0,0,0,0,0,0C68.8,8.7,68.9,8.9,69,9c0,0,0,0,0.1,0.1
		c0,0-0.1,0-0.1,0c0,0-0.1,0-0.1,0c0,0.1,0,0.1,0.1,0.2c0.1,0.2,0.2,0.3,0.3,0.4c0.6,0.1,1.2,0.3,1.7,0.8c0,0,0,0,0.1,0.1
		c0,0,0-0.1,0-0.1C70.8,9.8,71,9.2,71.2,8.7"/>
	<path fill="#D34D55" d="M73.1,10.6c0.1-0.1,0.2-0.2,0.3-0.4c0,0,0,0,0-0.1c0,0,0-0.1,0-0.1c-0.1,0-0.1,0-0.2,0c0,0-0.1,0-0.1,0
		c0,0,0,0,0.1,0c0.1-0.1,0.2-0.1,0.3-0.2c0,0,0,0,0,0C73.3,9.8,73,9.9,72.7,10c0,0-0.1,0-0.1,0c0,0,0.1,0,0.1,0
		c0.3-0.1,0.6-0.2,0.9-0.4c0-0.1,0-0.3,0-0.4c0,0-0.1,0-0.1,0.1c0,0,0,0-0.1,0c0,0,0,0,0-0.1c0-0.1,0.1-0.2,0.1-0.2
		c0-0.1-0.1-0.2-0.1-0.3c-0.1,0.1-0.1,0.1-0.1,0.2c0,0,0,0,0,0.1c0,0,0,0,0-0.1c0-0.2-0.1-0.4-0.2-0.6c0,0-0.1,0-0.1-0.1
		c0,0-0.1,0-0.1,0c-0.1,0.1-0.2,0.2-0.3,0.3c0,0,0,0,0,0.1c0,0,0,0,0-0.1c0-0.1,0-0.1,0-0.2c-0.2,0.1-0.4,0.3-0.6,0.4
		c-0.1,0.2-0.1,0.4-0.1,0.6c0,0,0,0,0,0.1c0,0,0,0,0-0.1c-0.1-0.1-0.1-0.1-0.2-0.2c0,0,0,0,0,0c0,0.1-0.1,0.3-0.1,0.4c0,0,0,0,0,0.1
		c0,0,0,0,0-0.1c0,0,0,0-0.1-0.1c0,0,0,0.1-0.1,0.1c0,0.1-0.1,0.3-0.1,0.4c0.4,0.3,0.7,0.8,0.7,1.3c0,0,0,0,0,0.1c0,0,0,0,0-0.1
		C72.2,11,72.6,10.7,73.1,10.6"/>
	<path fill="#D34D55" d="M71.4,11.5l-1-0.1c-0.1,0-0.1,0-0.1,0.1c0,0,0,0.1,0.1,0.1l1.1,0.2L71.4,11.5z"/>
	<path fill="#D34D55" d="M69.6,12.3c-0.2,0.1-0.3,0.1-0.5,0.1c0,0-0.1,0-0.1,0c0,0-0.1,0-0.1,0c0-0.1,0.1-0.1,0.1-0.2
		c0,0,0,0,0.1-0.1c0,0,0,0-0.1,0c-0.1,0.1-0.2,0.1-0.3,0.1c0,0,0,0,0,0c0.2-0.2,0.4-0.4,0.6-0.6c0,0,0.1-0.1,0.1-0.1
		c0,0-0.1,0-0.1,0.1c-0.3,0.2-0.5,0.4-0.8,0.6c-0.1-0.1-0.2-0.1-0.3-0.2c0,0,0.1-0.1,0.1-0.1c0,0,0,0,0.1,0c0,0,0,0-0.1,0
		c-0.1,0-0.2,0-0.3,0c-0.1-0.1-0.1-0.2-0.2-0.2c0.1,0,0.1,0,0.2,0c0,0,0,0,0.1,0c0,0,0,0-0.1,0c-0.2-0.1-0.3-0.3-0.5-0.5
		c0,0,0-0.1,0-0.1c0,0,0.1-0.1,0.1-0.1c0.1,0,0.3-0.1,0.4-0.1c0,0,0,0,0.1,0c0,0,0,0-0.1,0c0,0-0.1-0.1-0.1-0.1
		c0.2-0.1,0.4-0.2,0.7-0.3c0.2,0,0.4,0.1,0.6,0.2c0,0,0,0,0.1,0c0,0,0,0,0-0.1c0-0.1,0-0.2-0.1-0.3c0,0,0,0,0,0
		c0.1,0,0.3,0.1,0.4,0.1c0,0,0,0,0.1,0c0,0,0,0,0-0.1c0,0,0-0.1,0-0.1c0,0,0.1,0,0.1,0c0.1,0,0.3,0.1,0.4,0.1c0.1,0.5,0.4,1,0.8,1.3
		c0,0,0,0,0.1,0c0,0,0,0-0.1,0C70.5,11.7,70,11.9,69.6,12.3"/>
	<path fill="#D34D55" d="M9.5,13c0,0,0.3-1.8-1.1-3l0,0.3c0,0-1.2-1.6-3.6-0.5c-1.7,0.8-2.1,1.7-2.1,1.7s0.6-0.3,1.1,0.8
		c0.3,0.6,1.4,1.5,2.6,1.3c1.2-0.2,1.5-0.2,1.5-0.2l-0.5,0.4c0,0,1.8-0.7,2.2,0c0,0-1.5-3.4-4.2-3.1C5.4,10.7,7.8,10.1,9.5,13"/>
	<path fill="#D34D55" d="M122,9.4c-1.8,0.7-2.7,2.4-2.4,4c-0.1-0.1-0.2-0.1-0.3-0.2c-0.3-1.5,0.7-3.1,2.4-3.8
		c0.9-0.4,1.8-0.4,2.7-0.2C123.6,9,122.8,9.1,122,9.4"/>
	<path fill="#D34D55" d="M119.9,10.4c0,0-0.1-1.5,1.2-2.5l0,0.3c0,0,1.2-1.3,3.1-0.1c1.4,0.8,1.7,1.6,1.7,1.6s-0.5-0.3-1,0.6
		c-0.3,0.5-1.3,1.1-2.3,0.9c-1-0.3-1.2-0.3-1.2-0.3l0.4,0.4c0,0-1.5-0.7-1.8-0.2c0,0,1.5-2.7,3.8-2.3C123.6,8.7,121.6,8,119.9,10.4"
		/>
</g>
</svg>
