<?xml version="1.0" encoding="utf-8"?>
<!-- Generator: Adobe Illustrator 18.0.0, SVG Export Plug-In . SVG Version: 6.00 Build 0)  -->
<!DOCTYPE svg PUBLIC "-//W3C//DTD SVG 1.1//EN" "http://www.w3.org/Graphics/SVG/1.1/DTD/svg11.dtd">
<svg version="1.1" id="Lag_1" xmlns="http://www.w3.org/2000/svg" xmlns:xlink="http://www.w3.org/1999/xlink" x="0px" y="0px"
	 viewBox="0 0 800 400" enable-background="new 0 0 800 400" xml:space="preserve">
<g>
	<path fill="#F5F2E0" d="M-331.9,585.3c0.5,0,0.4-0.5,0.4-0.5C-331.9,584.8-331.9,585.3-331.9,585.3z"/>
	<path fill="#F5F2E0" d="M-495.1,625.6c-2.3-2.2-5.5-3.5-8.7-4.3c-1.8-0.9-3.7-1.3-5.5-1.2c-2.3,0-3.2,0.1-4.5,0.6
		c-3.2,1-4.9,2.4-5.8,5.6c-0.8,3.6-1.1,13.6-1.2,29.5c0.1,5,0.2,9.1,0.3,12.2c0.1,6.3,0.7,9.5,0.7,10.9c1.8-0.5,4.9-1.9,9.4-5.6
		c4.9-3.7,9.3-8.8,13.3-14.8c6.2-8.3,8.7-15.6,8.6-21.5C-488.6,632.3-490.9,628.7-495.1,625.6z"/>
	<path fill="#F5F2E0" d="M-340.2,601C-340.2,601-340.2,601-340.2,601C-340.2,601-340.2,601-340.2,601z"/>
	<path fill="#F5F2E0" d="M-341.6,596C-341.6,596-341.6,596-341.6,596C-341.6,596-341.6,596-341.6,596z"/>
	<path fill="#F5F2E0" d="M-341.5,600C-341.5,600-341.5,600-341.5,600C-341.5,600-341.5,600-341.5,600z"/>
	<path fill="#F5F2E0" d="M-317.8,586.3c0,0.2,0,0.3,0,0.3C-317.8,586.4-317.8,586.4-317.8,586.3z"/>
	<path fill="#F5F2E0" d="M-318.2,591.3c-0.3,0-0.4,0-0.4,0L-318.2,591.3z"/>
	<path fill="#F5F2E0" d="M-325.5,589.2c0,0.2,0,0.3,0,0.3C-325.4,589.3-325.5,589.2-325.5,589.2z"/>
	<path fill="#F5F2E0" d="M-321,584.6c0,0.2,0,0.3,0,0.3C-321,584.7-321,584.6-321,584.6z"/>
	<path fill="#F5F2E0" d="M-324.1,588.3c0,0.2,0,0.3,0,0.3C-324.1,588.4-324.1,588.3-324.1,588.3z"/>
	<path fill="#F5F2E0" d="M-607.4,609.9c-7.9-11.3-17.9-8.6-17.9-8.6c8.1-1.1,13.9,5.2,16.9,9.6C-608,610.5-607.7,610.2-607.4,609.9z
		"/>
	<path fill="#F5F2E0" d="M-277.6,639.8c-2-6.8-4.8-11.7-8.9-14.3c-4.1-2.6-7.8-3.9-12.3-3.8c0,0-1.8,0-2.7,0.5
		c-5.4,1-9.4,3.4-12.5,8c-6.6,9.7-10,18.8-9.8,27c0,1.8,0.1,4.1,0.6,5.9c1,5.4,3.4,9.4,6.6,11.6c2.8,2.2,7.8,3,15,2.8l0.5,0
		c7.7-0.2,13.1-1.6,17.1-4.5c4-2.8,6.2-6.9,7.4-13.3c0.8-3.2,1.2-6.4,0.7-10C-276.1,646.6-276.7,643-277.6,639.8z"/>
	<path fill="#F5F2E0" d="M-335.7,599l0.4-0.5C-335.2,598.5-335.7,598.5-335.7,599z"/>
	<path fill="#F5F2E0" d="M-687.7,533.8l12.7,241.2l748.6-8.2L83,509.5L-687.7,533.8z M-15.2,579.6c0.4-3.2,1.7-5.5,3-7.3
		c1.8-2.3,4-3.7,6.7-3.8c2.7-0.1,5,0.3,6.8,2.1c1.4,1.3,2.8,3.6,4.7,6.7c1.9,4.9,1.5,8.6-0.2,10.9c-1.3,1.8-4,2.8-8.1,2.9
		c-4.1,0.5-6.8-0.3-9.1-2.1c-0.5,0-0.9-0.4-0.9-0.4C-14.5,586.4-15.5,583.3-15.2,579.6z M-326.4,589.2c0.5,0,0.4-0.5,0.4-0.5
		c0.5,0.4,0.5,0.4,0.5,0.4c0-0.5,0.4-1.4,0.4-1.8c0.5,0.4,0.5,0.4,0.9,0.9c0-0.9,0-1.8,0.4-2.7c0.9-0.5,1.8-1.4,2.7-1.9
		c0,0.5,0,0.5,0,0.9c0.4-0.5,0.9-0.9,1.3-1.4l0.5,0c0,0.5,0.5,0.4,0.5,0.4c0.5,0.9,0.9,1.8,1,2.7c0-0.5,0-0.5,0.4-0.9
		c0,0.5,0.5,0.9,0.5,1.3c0,0-0.4,0.5-0.4,0.9c0,0.5,0,0.5,0,0.5c0.5,0,0.5,0,0.5,0c0-0.5,0.4-0.5,0.4-0.5c0,0.5,0,1.4,0,1.8
		c-1.3,0.9-2.7,1.4-4,1.9c1.3-0.5,2.7-1,3.6-1c-0.4,0.5-0.9,0.5-1.3,0.9c0.5,0,0.5,0,0.9,0l0,0.5c0,0.5,0,0.5,0,0.5
		c-0.4,0.9-0.6,1.4-1.1,1.8c-2.3,0.5-3.7,1.9-4.7,2.8c0,0,0,0,0,0c0,0-0.2,0.1-0.2,0.3c0,0.1-0.1,0.1-0.1,0.1c0-0.1,0.2-0.1,0.2-0.1
		c0-0.1,0.2-0.2,0.2-0.3c0,0,0,0,0,0c0-2.3-1.7-4.5-3.5-5.8C-326.5,590.6-326.3,589.7-326.4,589.2z M-546.7,691.1
		c-0.1,15.9-10.8,23.8-31.2,24.3c0-0.5-1.4-0.9-1.4-0.9c-13.1-0.2-23.2-2.7-30.5-7.5c-5.1-3.5-7.4-7.5-7.5-11.6
		c-0.5-2.3,0.3-5.4,2.1-8.2c1.3-1.8,3.1-2.3,6.3-2.4c3.2-0.1,7.7,0.7,13.6,2c7.3,1.7,13.2,2.9,17.3,2.8c0.5,0,0.9,0,0.9,0
		c3.2-0.1,4.5-1,4.9-1.9c-0.9-1.3-6-6.7-33.7-28.7c-8.3-6.6-12.1-15.6-11-27.4c0.6-7,2.8-12.9,6.3-17.8c-2.6,0.3-5.3,1.5-5.3,1.5
		l2.2-1.9c0,0-1.4,0-6.8,1.1c-5.4,1-10.5-2.9-11.9-5.6c-2.4-4.9-5.1-3.5-5.1-3.5s1.7-4.1,9.3-7.9c10.8-5.2,16.4,1.9,16.4,1.9l0-1.4
		c4.3,3.5,5.2,8.3,5.3,11.1c1.6-1.5,3.3-2.8,5.2-4.1c6.3-3.8,12.6-5.7,19.8-5.9l1.8,0c8.2,0.3,14.1,2.4,18.3,7.3
		c5.1,5.8,6.1,10.3,4.4,13.5c-1.3,2.3-4,3.7-8.5,3.8c-1.8,0-3.6,0.1-5.9-0.3c-1.8-0.4-3.6-0.4-5.4-0.3c-3.6,0.1-7.2,1.1-9.9,2.5
		c-4,2.4-5.8,5.6-5.7,9.6c0,2.3,2.4,6.3,11.6,12.9c7.4,4.8,15.2,11,23.5,19c4.6,4.9,7.4,8.9,8.9,11.6c1,2.2,1.9,4.9,2,8.6
		C-546.3,688.4-546.3,689.3-546.7,691.1z M-468.1,658.5c-5.6,11.9-13.1,21.6-21.1,29.9c-8.9,8.4-17,11.7-24.7,11.9
		c-1.4,0-3.6,0.5-4,1.9c0,0.5-0.4,0.9-0.4,0.9c-0.4,0.5-0.4,1.4-0.3,8.2l0.1,4.1c0.1,4.1,0.1,4.5,0.2,6.8c-0.8,3.6-2.6,5.5-5.3,6.9
		c-1.3,1.8-3.1,1.4-4.5,1.5c-2.7,0.1-5-0.3-7.3-2.6c-2.3-2.2-3.8-6.3-4.9-14.4c0-1.4-0.1-2.3-0.5-3.2c-0.6-5.4-1.2-11.3-2-31.2
		c-1.1-29.9-1.5-48.5-0.4-57.1c1.2-8.6,5.5-15.5,12.2-20.7c3.6-2.8,9.4-4.3,16.7-4.4l5.4-0.1c10.4,0.7,18.7,3.2,25.1,7.2
		c9.2,6.1,15.3,14.2,18.2,24.5c1,3.6,1.5,6.8,1.6,9.9C-463.8,645.3-465,652.1-468.1,658.5z M-458.8,585.8c0.4-3.2,1.7-5.5,3-7.3
		c1.8-2.3,4-3.7,6.7-3.8c2.7-0.1,5,0.3,6.8,2.1c1.4,1.3,2.8,4,4.7,6.7c1.9,4.9,1.5,8.6-0.2,10.9c-1.3,1.8-4,2.8-8.1,2.9
		c-4.1,0.5-6.8-0.3-9.1-2.1c-0.5,0-0.9-0.4-0.9-0.4C-458.2,592.6-459.2,589.4-458.8,585.8z M-430.6,693.5c-1.6,8.2-7,10.1-11.1,10.2
		c-4.1,0.1-9.6-1.6-12-9.7c-1.5-5.9-3.1-18.5-4-39.3l-0.1-6.3c-1.1-29.9,0.5-36.7,1.9-39c2.6-3.7,5.8-5.6,9.4-5.6l0.9,0
		c0,0,0,0.5,0.5,0.4c4.1,0.4,6.9,3.5,7.9,7.5c1.5,6.8,3.2,21.2,5,43.9c0.7,9.1,1.3,17.2,1.9,23.1
		C-430.3,685.8-430.2,690.3-430.6,693.5z M-355.4,688.2c-0.1,15.9-10.8,23.8-31.2,24.3c0-0.9-1.4-0.9-1.4-0.9
		c-13.1-0.2-23.2-2.7-30.5-7.5c-5.1-3.5-7.4-7.5-7.5-11.6c-0.5-2.7,0.3-5.4,2.1-8.2c1.3-1.8,3.1-2.3,6.3-2.4c3.2-0.1,7.7,0.7,13.6,2
		c7.3,1.7,13.2,2.9,17.3,2.8c0.5,0,0.9,0,0.9,0c3.2-0.1,4.5-1,4.9-1.9c-0.9-1.3-6-6.7-33.7-28.7c-8.3-6.6-12.1-15.6-11-27.4
		c1.1-11.8,6.3-20.5,15.7-26.6c6.3-3.8,12.6-5.7,19.8-5.9l1.8,0c8.2,0.3,14.1,2.4,18.3,7.3c5.1,5.8,6.1,10.3,4.4,13.5
		c-1.3,2.3-4,3.7-8.5,3.8c-1.8,0-3.6,0.1-5.9-0.3c-1.8-0.4-3.6-0.4-5.4-0.3c-3.6,0.1-7.2,1.1-9.9,2.5c-4,2.4-5.8,5.6-5.7,9.6
		c0.1,2.3,2.4,6.3,11.6,12.9c7.4,4.8,15.2,11,23.5,19c4.6,4.9,7.4,8.9,8.9,11.6c1,2.2,1.9,4.9,2,8.6
		C-355.1,685.5-355,686.4-355.4,688.2z M-261.1,688.9c-5.8,6.5-13.8,10.7-23.3,13.2c-6.3,2-11.3,2.5-16.3,2.6
		c-4.5,0.1-9.1-0.3-13.6-1.5c-14.1-3.3-24.3-11.2-30.4-23.8c-2.9-6.7-4.8-13.5-5.4-20.7c-0.1-6.3,0.6-12.7,2.7-19.6
		c4-14,12.4-25.2,24.5-34l-2.8-5.5l-3.3-0.5c-1.9,0.6-3.6,1.5-5.1,3c-0.9,0.5-1.3,0.5-2.3,0.5l-0.5,0l-0.5,0c0-0.5,0.4-0.5,0.4-0.9
		c0,0,0,0,0.4-0.5c0,0,0,0-0.5,0c-0.4,0.5-0.9,0.5-1.3,0.5c0.9-0.9,1.8-1.9,2.7-2.8c-1.3,0.9-2.2,1.9-3.6,2.8
		c-0.5-0.4-0.9-0.4-1.4-0.9l0.4-0.5c-0.5,0-0.9,0-1.4,0c-0.5-0.4-0.5-0.9-0.9-0.9c0.5,0,0.5,0,0.9,0c-0.9-0.4-1.4-1.3-2.3-2.2l0-0.5
		l0.4-0.5c0.5,0,1.3-0.5,1.8-0.5l-0.5-0.4c0.9-0.5,1.8-0.9,3.1-1.4c0.9,0,1.8,0.4,2.7,0.8c0,0,0,0,0.5,0c0,0,0,0,0-0.5
		c0-0.5,0-0.9-0.5-1.3c0.5,0,1.4,0.4,1.8,0.4c0,0,0,0,0.5,0c0,0,0,0,0-0.5l0-0.5l0.5,0c0.5,0,1.4,0.4,1.8,0.4
		c0.4,1.9,1.5,3.8,2.9,5.1l2.3,0.2l-2.8-5.5c-2-1.5-4.3-2.1-6.6-2.4c-0.5-0.4-0.9-0.9-1.4-1.8c-0.5-0.4-0.5-0.4-0.5-0.9l0.5,0l0.5,0
		c-0.5-0.4-0.5-0.4-0.5-0.4c-0.5-0.4-0.9-1.3-2.3-2.2c0.5,0,0.9,0,1.4,0l0.5,0c-0.5-0.4-0.5-0.4-0.5-0.4c-0.5-0.9-1.4-1.8-1.9-2.7
		c0-1.4-0.1-2.3,0.4-3.6c0.5,0,0.5,0.4,0.9,0.4c0.5,0.4,0.5,0.4,0.5,0.4l0-0.5c0-0.9,0-1.4-0.1-2.3l0.4-0.5l0.5,0
		c1.4,0.9,2.3,1.3,3.2,2.2c0.5,0.4,0.5,0.4,0.5,0.4l0-0.5c0,0,0-0.5,0-0.9c0.5,0.4,0.9,0.4,1.4,0.9c0,0.5,0.5,0.9,0.5,1.3
		c0.5,0,0.4-0.5,0.4-0.5c0.9,0.4,1.4,1.3,1.9,1.8c-0.4,1.4-0.8,2.7-1.7,4.1c0.9-1.4,1.3-2.7,2.2-3.7c0,0.5,0,1.4,0,1.8l0,0.5
		c0.4-0.5,0.4-0.5,0.4-0.5c0.4-0.5,0.4-0.5,0.9-0.9l0.5,0.4l0,0.5c0,0.9,0,1.8,0.1,2.7c-0.9,2.3-1.7,5-0.3,8.2l0,0.5
		c-0.5-0.4-0.5-0.4-0.5-0.4c-0.1-0.1-0.3-0.3-0.5-0.4l5.9,11.5c0.4-0.3,0.8-0.6,1.1-0.8c4.9-4.2,8.9-6.5,12.5-7.5
		c1.3-0.5,2.7-0.5,5-0.6l0.5,0c2.7-0.1,5.4,0.3,9.1,0.7c15,1.5,26.5,8.5,35.3,20.1c6.1,8.5,9.5,18.8,10.2,31.1
		c0,1.8,0.1,3.6,0.1,5.9C-249.4,668.7-253.6,680.6-261.1,688.9z M-184.6,623.7c-5-1.7-9.6-2.1-13.2-2c-5.9,0.1-10.4,2-13.5,6.6
		c-4.8,7.4-6.8,22.4-5.4,45c2,29.9-0.2,30.8-1.6,31.8c-1.4,0-3.2,0.1-5,0.1c-1.8,0-3.6,0.1-5.9-0.3c-5-1.2-7.8-3-9.2-6.1
		c-1-2.2-2.5-9-5.6-47.5c-1.2-14.5-1.9-24.9-2.5-31.7l-0.1-5.4c0.3-5.9,1.6-9.6,4.3-10.5c0.9-0.5,2.3-0.5,3.2-0.5
		c2.7-0.1,5.5,1.2,8.7,3.4c2.3,1.8,3.2,2.2,3.7,2.2l0.5,0c1.8-1.9,5.8-4.2,11.2-7c4.9-2.8,10.8-4.3,16.7-4.4c5-0.1,10,0.7,15.9,2.4
		c13.7,4.2,20.6,10.4,21.3,18.1c0.1,2.7-0.4,4.5-1.7,5.9c-1.8,1.9-4.9,2.8-7.2,2.9C-174.1,626.7-178.7,625.9-184.6,623.7z
		 M-79,703.9c-5,0.1-8.6-1.2-11-3.8c-0.5-0.9-1.9-3.1-9-37.9c-5.6-29.8-8-35.2-9-36.1c0,0,0,0-0.5-0.4c-2.8-4-6-6.2-9.7-6.1
		c-3.6,0.1-8.1,2.4-13,6.6c-8.4,7.4-12.6,25.2-11.1,51.9c0.9,20.8-1.7,25-4.4,25.9c-1.3,0.5-2.3,0.5-3.6,0.5c-4.1,0.1-6.8-2.1-9.2-7
		c-2.4-4.9-4.4-14-5.1-27.1c-0.5-3.2-0.6-5.9-0.7-9.1c-1.2-31.7,8.4-52.3,29-62.3c6.7-3.3,13.5-4.8,19.4-5c2.9-0.1,5.5,0.2,8,0.9
		c1.1-4,4-7.7,8.2-10.2c2.9-2.6,6.8-4.7,11.6-4c-0.9-0.4-10-3.4-17.5,7.6c0,0-0.6-6.8,5.2-11.4l0,1.4c0,0,5.3-6,14-0.8
		c6.4,3.5,7.9,7.1,7.9,7.1s-2.3-1.3-4.5,2.8c-1.3,2.3-5.8,5.1-10.3,4.3c-4.6-1.3-5.5-1.2-5.5-1.2l1.9,1.8c0,0-6.9-3-8.2-0.7
		c0,0,0.5-0.9,1.3-2.1c-1.3,1.8-2.3,3.8-2.8,5.9c3.4,1.1,6.6,2.7,9.8,5.1c6.5,4.8,11.6,11.5,14.9,19.2c3.3,7.6,6.8,19.8,9.9,37
		c2.6,14.4,4.2,25.3,4.3,32.1l0.1,3.6c0,0,0,0,0,0.5C-70,702.3-75.9,703.8-79,703.9z M-20.7,699.4c-3.1,2.3-6.7,3.3-10.8,3.4
		c-3.6,0.1-7.7-0.7-12.3-2.9c-9.2-5.2-15.7-12.8-19.6-23.6c-1.5-4.5-2.6-16.3-3.5-35.7l-1-24.9c-0.6-46.2,1-55.8,2.3-58.5
		c2.2-4.1,4.9-6,8-6.1c3.2-0.1,6.4,1.7,9.6,4.8c2.3,2.2,4.8,10.8,7.2,57.9c0.9,19.5,2.1,33,3.2,41.2c0.6,8.1,2.1,13.6,3.5,16.7
		c1.9,3.1,4.6,4.9,8.3,6.6c4.1,1.7,6.9,4.8,8.4,9.3c0.5,0.9,0.5,1.8,0.5,2.7C-16.7,693.9-18,696.7-20.7,699.4z M10.8,686.5
		c-1.6,8.2-7,9.2-11.1,9.3c-4.1,0.1-9.5-0.7-12-9.3c-1.5-5.9-3.1-18.5-4-38.9l-0.1-5.9c-1.1-29.9,0.6-36.3,1.9-38.6
		c2.6-3.7,5.8-5.1,9.4-5.2l0.9,0c0,0,0,0,0.5,0c4.1,0.4,6.9,3,7.9,7.5c1.5,6.8,3.2,21.2,5,43.9c0.7,9.5,1.3,17.2,1.9,23.1
		C11.1,679.7,11.2,683.3,10.8,686.5z"/>
	<path fill="#F5F2E0" d="M-341.3,595.9c0,0,0.1,0,0.1,0C-341.2,595.9-341.2,595.9-341.3,595.9z"/>
	<path fill="#F5F2E0" d="M-341.1,599.5c0,0,0,0-0.1,0C-341.2,599.5-341.1,599.5-341.1,599.5z"/>
	<path fill="#F5F2E0" d="M-339.7,600.4c0,0,0,0-0.1,0C-339.8,600.4-339.8,600.4-339.7,600.4z"/>
</g>
<g>
	<path fill="#F5F2E0" d="M1557,514.1c0.4,0,0.4-0.4,0.4-0.4C1557,513.7,1557,514.1,1557,514.1z"/>
	<path fill="#F5F2E0" d="M1553.2,526.6l0.4-0.4C1553.6,526.2,1553.2,526.2,1553.2,526.6z"/>
	<path fill="#F5F2E0" d="M1562,517.9c0,0.4,0,0.4,0,0.4C1562,517.9,1562,517.9,1562,517.9z"/>
	<path fill="#F5F2E0" d="M1570,515.8C1570,515.8,1570,515.8,1570,515.8C1570,515.8,1570,515.8,1570,515.8z"/>
	<path fill="#F5F2E0" d="M1605.7,565.5c-1.7-6.3-4.2-10.9-7.9-13.4s-7.1-3.8-11.3-3.8c0,0-1.7,0-2.5,0.4c-5,0.8-8.8,2.9-11.7,7.1
		c-6.3,8.7-9.6,17.1-9.6,24.6c0,1.7,0,3.8,0.4,5.4c0.8,5,2.9,8.9,5.8,11c2.5,2.1,7.1,3.1,13.8,3.1h0.4c7.1,0,12.1-1.4,15.9-3.9
		s5.8-6.3,7.1-12.2c0.8-2.9,1.3-5.9,0.8-9.2C1606.9,571.8,1606.5,568.4,1605.7,565.5z"/>
	<path fill="#F5F2E0" d="M1405.9,547.7c-2.1-2.1-5-3.3-7.9-4.2c-1.7-0.8-3.3-1.3-5-1.3c-2.1,0-2.9,0-4.2,0.4c-2.9,0.8-4.6,2.1-5.4,5
		c-0.8,3.3-1.3,12.5-1.7,27.1c0,4.6,0,8.3,0,11.3c0,5.8,0.4,8.8,0.4,10c1.7-0.4,4.6-1.7,8.8-5c4.6-3.3,8.8-7.9,12.5-13.3
		c5.9-7.5,8.4-14.2,8.4-19.6C1411.8,553.9,1409.7,550.6,1405.9,547.7z"/>
	<path fill="#F5F2E0" d="M1569.5,520c-0.4,0-0.4,0-0.4,0H1569.5z"/>
	<path fill="#F5F2E0" d="M1303,530.8c-7-10.6-16.3-8.3-16.3-8.3c7.4-0.8,12.7,5.1,15.4,9.2C1302.4,531.4,1302.7,531.1,1303,530.8z"
		/>
	<path fill="#F5F2E0" d="M1958.7,432l-750.3,8.7c-2.3,0-4.1,1.9-4,4.3l15.7,304.6c0.1,2.3,2.1,4.5,4.4,4.5l718,1
		c2.3,0,4.3-2.2,4.4-4.5l15.7-314.2C1962.8,434,1961,432,1958.7,432z M1848.5,515.8c0.4-2.9,1.7-5,2.9-6.7c1.7-2.1,3.8-3.3,6.3-3.3
		c2.5,0,4.6,0.4,6.3,2.1c1.2,1.3,2.5,3.3,4.2,6.3c1.7,4.6,1.2,7.9-0.4,10c-1.3,1.7-3.8,2.5-7.5,2.5c-3.8,0.4-6.3-0.4-8.3-2.1
		c-0.4,0-0.8-0.4-0.8-0.4C1848.9,522.1,1848.1,519.2,1848.5,515.8z M1562,517.9c0.4,0,0.4-0.4,0.4-0.4c0.4,0.4,0.4,0.4,0.4,0.4
		c0-0.4,0.4-1.3,0.4-1.7c0.4,0.4,0.4,0.4,0.8,0.8c0-0.8,0-1.7,0.4-2.5c0.8-0.4,1.7-1.2,2.5-1.7c0,0.4,0,0.2,0,0.6
		c0.4-0.4,0.8-1.5,1.3-1.5h0.4c0,0,0.4,0.7,0.4,0.7c0.4,0.8,0.8,1.8,0.8,2.6c0-0.4,0-0.4,0.4-0.8c0,0.4,0.3,0.9,0.2,1.3
		c0,0-0.6,0.4-0.6,0.9s0,0.3,0,0.3c1,0,0.7,0,0.7,0c0,0,0.4-0.4,0.4-0.4c0,0.4,0,1.3,0,1.7c-1.3,0.8-2.5,1.3-3.8,1.7
		c1.3-0.4,2.5-0.8,3.3-0.8c-0.4,0.4-1,0.4-1.4,0.8c0.4,0,0.7,0,0.7,0v0.4c0,0.4,0,0.4,0,0.4c0,0.8-0.9,1.2-1.3,1.7
		c-2.1,0.4-3.7,1.7-4.7,2.5c0,0,0,0,0,0.4c0,0,0,0,0-0.4c0-2.1-1-4.2-2.7-5.4C1561.3,519.1,1562,518.3,1562,517.9z M1440.2,511.9
		c0.4-2.9,1.7-5,2.9-6.7c1.7-2.1,3.8-3.3,6.3-3.3c2.5,0,4.6,0.4,6.3,2.1c1.2,1.3,2.5,3.8,4.2,6.3c1.7,4.6,1.2,7.9-0.4,10
		c-1.3,1.7-3.8,2.5-7.5,2.5c-3.8,0.4-6.3-0.4-8.3-2.1c-0.4,0-0.8-0.4-0.8-0.4C1440.6,518.1,1439.8,515.2,1440.2,511.9z
		 M1357.1,606.8c-0.4,14.6-10.5,21.7-29.2,21.6c0-0.4-1.2-0.8-1.2-0.8c-12.1-0.4-21.3-3-27.9-7.6c-4.6-3.3-6.7-7.1-6.7-10.9
		c-0.4-2.1,0.4-5,2.1-7.5c1.3-1.7,2.9-2.1,5.8-2.1c2.9,0,7.1,0.8,12.5,2.1c6.7,1.7,12.1,2.9,15.8,2.9c0.4,0,0.8,0,0.8,0
		c2.9,0,4.2-0.8,4.6-1.7c-0.8-1.3-5.4-6.3-30.4-27.2c-7.5-6.3-10.8-14.6-9.6-25.5c0.7-6.4,2.8-11.8,6.2-16.2
		c-2.4,0.3-4.9,1.2-4.9,1.2l2.1-1.7c0,0-1.3,0-6.3,0.8s-9.6-2.9-10.8-5.4c-2.1-4.6-4.6-3.3-4.6-3.3s1.7-3.8,8.8-7.1
		c10-4.6,15,2.1,15,2.1l0-1.3c3.9,3.3,4.6,7.7,4.7,10.3c1.5-1.3,3.1-2.5,4.9-3.7c5.8-3.3,11.7-5,18.4-5l1.7,0
		c7.5,0.4,12.9,2.5,16.7,7.1c4.6,5.4,5.4,9.6,3.7,12.5c-1.3,2.1-3.8,3.3-7.9,3.3c-1.7,0-3.3,0-5.4-0.4c-1.7-0.4-3.3-0.4-5-0.4
		c-3.3,0-6.7,0.8-9.2,2.1c-3.8,2.1-5.4,5-5.4,8.8c0,2.1,2.1,5.8,10.4,12.1c6.7,4.6,13.7,10.4,21.2,18c4.2,4.6,6.7,8.4,7.9,10.9
		c0.8,2.1,1.7,4.6,1.7,7.9C1357.5,604.3,1357.5,605.2,1357.1,606.8z M1430.1,578.6c-5.4,10.8-12.5,19.6-20.1,27.1
		c-8.4,7.5-15.9,10.4-23,10.4c-1.3,0-3.3,0.4-3.8,1.7c0,0.4-0.4,0.8-0.4,0.8c-0.4,0.4-0.4,1.3-0.4,7.5l0,3.8c0,3.8,0,4.2,0,6.3
		c-0.8,3.3-2.5,5-5,6.2c-1.3,1.7-2.9,1.2-4.2,1.2c-2.5,0-4.6-0.4-6.7-2.5c-2.1-2.1-3.3-5.8-4.2-13.4c0-1.3,0-2.1-0.4-2.9
		c-0.4-5-0.8-10.4-1.2-28.8c-0.4-27.5-0.3-44.6,0.9-52.6c1.3-7.9,5.4-14.2,11.7-18.8c3.3-2.5,8.8-3.7,15.4-3.7l5,0
		c9.6,0.8,17.1,3.4,22.9,7.1c8.3,5.9,13.7,13.4,16.2,23c0.8,3.3,1.2,6.3,1.2,9.2C1434.3,566.5,1433,572.7,1430.1,578.6z
		 M1463.8,611.6c-1.7,7.5-6.7,9.2-10.4,9.2s-8.8-1.7-10.8-9.2c-1.2-5.4-2.5-17.1-2.9-36.3l0-5.8c-0.4-27.5,1.3-33.8,2.6-35.9
		c2.5-3.3,5.4-5,8.8-5l0.8,0c0,0,0,0.4,0.4,0.4c3.8,0.4,6.3,3.3,7.1,7.1c1.2,6.3,2.5,19.6,3.7,40.5c0.4,8.3,0.8,15.9,1.2,21.3
		C1464.3,604.5,1464.2,608.7,1463.8,611.6z M1533.1,608.4c-0.4,14.6-10.5,21.7-29.2,21.6c0-0.8-1.2-0.8-1.2-0.8
		c-12.1-0.4-21.3-3-27.9-7.6c-4.6-3.3-6.7-7.1-6.7-10.9c-0.4-2.5,0.4-5,2.1-7.5c1.3-1.7,2.9-2.1,5.8-2.1c2.9,0,7.1,0.8,12.5,2.1
		c6.7,1.7,12.1,2.9,15.8,2.9c0.4,0,0.8,0,0.8,0c2.9,0,4.2-0.8,4.6-1.7c-0.8-1.3-5.4-6.3-30.4-27.2c-7.5-6.3-10.8-14.6-9.6-25.5
		c1.3-10.8,6.3-18.8,15.1-24.2c5.8-3.3,11.7-5,18.4-5l1.7,0c7.5,0.4,12.9,2.5,16.7,7.1c4.6,5.4,5.4,9.6,3.7,12.5
		c-1.3,2.1-3.8,3.3-7.9,3.3c-1.7,0-3.3,0-5.4-0.4c-1.7-0.4-3.3-0.4-5-0.4c-3.3,0-6.7,0.8-9.2,2.1c-3.8,2.1-5.4,5-5.4,8.8
		c0,2.1,2.1,5.8,10.4,12.1c6.7,4.6,13.7,10.4,21.2,18c4.2,4.6,6.7,8.4,7.9,10.9c0.8,2.1,1.7,4.6,1.7,7.9
		C1533.5,605.9,1533.5,606.7,1533.1,608.4z M1632,578.9c-0.9,13.8-5,24.6-12.1,32.1c-5.4,5.8-12.9,9.6-21.7,11.6
		c-5.8,1.7-10.4,2.1-15,2.1c-4.2,0-8.3-0.4-12.5-1.7c-12.9-3.4-22.1-10.9-27.5-22.6c-2.5-6.3-4.2-12.5-4.6-19.2
		c0-5.8,0.9-11.7,2.9-17.9c4-12.8,11.9-22.9,23.3-30.7l-2.5-5.1l-3-0.6c-1.7,0.5-3.4,1.3-4.8,2.7c-0.8,0.4-1.3,0.4-2.1,0.4h-0.4
		h-0.4c0,0,0.4-0.3,0.4-0.7c0,0,0,0.7,0.4-0.3c0,0,0,0-0.4,0c-0.4,1-0.8,0.3-1.3,0.3c0.8-0.8,1.7-1.7,2.5-2.6
		c-1.3,0.8-2.1,1.6-3.3,2.5c-0.4-0.4-0.8-0.9-1.2-1.3l0.4-0.9c-0.4,0-0.8,0-1.3,0c-0.4,0-0.4-0.4-0.8-0.4c0.4,0,0.6,0.2,1,0.2
		c-0.8-0.4-0.9-1-1.9-1.9v-0.4l0.3-0.4c0.4,0,1.2-0.4,1.6-0.4l-0.5-0.4c0.8-0.4,1.7-0.8,2.9-1.2c0.8,0,1.6-0.1,2.5,0.9h1.2
		c0,0,0-0.1,0-0.5s-0.4-1.2-0.8-1.6c0.4,0,0.9,0.1,1.3,0.1c0,0,0.5,0,1.5,0c0,0,0,0.6,0,0.2V521h-0.7c0.4,0,1.3,0.3,1.7,0.3
		c0.3,1.8,1.3,3.5,2.6,4.7l2.1,0.2l-2.5-5.1c-1.8-1.4-3.9-2.1-6-2.4c-0.4-0.4-0.8-0.9-1.2-1.8c-0.4-0.4-0.4,0.1-0.4-0.9h0.4h0.4
		c-0.4,0-0.4-0.3-0.4-0.3c-0.4-0.4-0.8-1.1-2.1-1.9c0.4,0,0.8,0.2,1.3,0.2h0.4c-0.4,0-0.4-0.6-0.4-0.6c-0.4-0.8-1.2-1.7-1.7-2.6
		c0-1.3,0-2.1,0.4-3.4c0.4,0,0.3,0.4,0.8,0.4c0.4,0.4,0.3,0.4,0.3,0.4v-0.4c0-0.8,0.1-1.4,0.1-2.3l0.5-0.6h0.4
		c1.2,1,2.4,1.4,3.3,2.3c0.4,0.4,0.8,0.6,0.8,0.6v-0.4c0,0-0.3-0.4-0.3-0.8c0.4,0.4,0.7,0.4,1.1,0.8c0,0.4,0.3,0.8,0.3,1.3
		c0.4,0,0.4-0.4,0.4-0.4c0.8,0.4,1.2,1.3,1.6,1.7c-0.4,1.3-0.8,2.5-1.7,3.8c0.8-1.2,1-2.5,1.8-3.3c0,0.4-0.3,1.3-0.3,1.7v0.4
		c0-0.4,0.7-0.4,0.7-0.4c0.4-0.4,0.5-0.4,0.9-0.8l0.5,0.4v0.4c0,0.8-0.3,1.7-0.3,2.5c-0.8,2.1-1.7,4.6-0.7,7.5v0.4
		c0-0.4-0.1-0.4-0.1-0.4c-0.1-0.1-0.1-0.2-0.2-0.4l5.2,10.7c0.4-0.2,0.8-0.5,1.1-0.7c4.6-3.7,8.4-6.1,11.7-7
		c1.3-0.4,2.5-0.7,4.6-0.7h0.4c2.5,0,5,0.7,8.3,1.1c13.8,1.7,24.2,8.5,32.1,19.4c5.4,7.9,8.3,17.6,8.7,28.9
		C1632,575.1,1632,576.8,1632,578.9z M1691.6,552.7c-4.6-1.7-8.8-2.1-12.1-2.1c-5.4,0-9.6,1.7-12.5,5.8c-4.6,6.7-6.7,20.4-5.9,41.3
		c1.2,27.5-0.9,28.4-2.1,29.2c-1.3,0-2.9,0-4.6,0c-1.7,0-3.3,0-5.4-0.4c-4.6-1.3-7.1-2.9-8.3-5.9c-0.8-2.1-2.1-8.3-4.1-43.8
		c-0.8-13.3-1.2-22.9-1.6-29.2l0-5c0.4-5.4,1.7-8.8,4.2-9.6c0.8-0.4,2.1-0.4,2.9-0.4c2.5,0,5,1.2,7.9,3.3c2.1,1.7,2.9,2.1,3.3,2.1
		h0.4c1.7-2,5.4-3.7,10.4-6.2c4.6-2.5,10-3.7,15.4-3.7c4.6,0,9.2,0.9,14.6,2.5c12.5,4.2,18.8,10,19.2,17.1c0,2.5-0.4,4.2-1.7,5.4
		c-1.7,1.7-4.6,2.5-6.7,2.5C1701.2,555.6,1697.1,554.8,1691.6,552.7z M1797,618.4c0,0,0,0,0,0.4c-2,8.8-7.1,10-10,10
		c-4.6,0-7.9-1.3-10-3.8c-0.4-0.8-1.7-2.9-7.4-35c-4.5-27.5-6.6-32.5-7.5-33.4c0,0,0,0-0.4-0.4c-2.5-3.8-5.4-5.8-8.7-5.9
		s-7.5,2.1-12.1,5.8c-7.9,6.7-12.1,22.9-11.3,47.5c0.4,19.2-2.1,22.9-4.6,23.8c-1.3,0.4-2.1,0.4-3.3,0.4c-3.8,0-6.3-2.1-8.3-6.7
		c-2.1-4.6-3.7-12.9-4.1-25c-0.4-2.9-0.4-5.4-0.4-8.3c-0.4-29.2,8.8-48,28-56.7c6.3-2.9,12.5-4.2,17.9-4.1c2.6,0,5.1,0.3,7.4,1
		c1.1-3.7,3.9-7,7.8-9.2c2.7-2.3,6.4-4.2,10.7-3.4c-0.8-0.4-9.2-3.4-16.3,6.6c0,0-0.4-6.3,5-10.4l0,1.3c0,0,5-5.4,12.9-0.4
		c5.8,3.3,7.1,6.7,7.1,6.7s-2.1-1.3-4.2,2.5c-1.3,2.1-5.4,4.6-9.6,3.7c-4.2-1.3-5-1.3-5-1.3l1.7,1.7c0,0-6.3-2.9-7.5-0.8
		c0,0,0.4-0.8,1.3-1.9c-1.3,1.6-2.2,3.4-2.7,5.4c3.1,1,6,2.7,8.9,4.9c5.8,4.6,10.4,10.9,13.3,18c2.9,7.1,5.8,18.4,8.3,34.2
		c2.1,13.4,3.3,23.4,3.3,29.6L1797,618.4z M1840.9,625.9c-2.9,2.1-6.3,2.9-10,2.9c-3.3,0-7.1-0.8-11.3-2.9
		c-8.3-5-14.2-12.1-17.5-22.1c-1.2-4.2-2.1-15-2.5-33l-0.4-22.9c0.5-42.5,2.2-51.3,3.4-53.8c2.1-3.8,4.6-5.4,7.5-5.4
		c2.9,0,5.8,1.7,8.8,4.6c2.1,2.1,4.2,10,5.3,53.4c0.4,17.9,1.2,30.4,2,38c0.4,7.5,1.6,12.5,2.9,15.4c1.7,2.9,4.2,4.6,7.5,6.3
		c3.8,1.7,6.2,4.6,7.5,8.8c0.4,0.8,0.4,1.7,0.4,2.5C1844.6,620.9,1843.4,623.4,1840.9,625.9z M1870.1,614.7
		c-1.7,7.5-6.7,8.3-10.4,8.3c-3.8,0-8.8-0.8-10.8-8.8c-1.2-5.4-2.5-17.1-2.9-35.9l0-5.4c-0.4-27.5,1.3-33.4,2.6-35.4
		c2.5-3.3,5.4-4.6,8.8-4.5l0.8,0c0,0,0,0,0.4,0c3.8,1,6.3,2.9,7.1,7.1c1.2,6.3,2.5,19.6,3.7,40.5c0.4,8.8,0.8,15.8,1.2,21.3
		C1870.5,608.5,1870.5,611.8,1870.1,614.7z"/>
	<path fill="#F5F2E0" d="M1566,513.7c0,0.4,0,0.4,0,0.4C1566,513.7,1566,513.7,1566,513.7z"/>
	<path fill="#F5F2E0" d="M1570,515.4C1570,515.4,1570,515.5,1570,515.4C1570,515.4,1570,515.4,1570,515.4z"/>
	<path fill="#F5F2E0" d="M1563,517.1c0,0.4,0,0.4,0,0.4C1563,517.1,1563,517.1,1563,517.1z"/>
</g>
<g>
	<path fill="#F9F7EF" d="M-522.5,141.4c0.3,0,0.3-0.3,0.3-0.3C-522.5,141.1-522.5,141.4-522.5,141.4z"/>
	<path fill="#F9F7EF" d="M-525.2,150.5l0.3-0.3C-524.9,150.2-525.2,150.2-525.2,150.5z"/>
	<path fill="#F9F7EF" d="M-518,144.1c0,0.3,0,0.3,0,0.3C-518,144.1-518,144.1-518,144.1z"/>
	<path fill="#F9F7EF" d="M-513,142.6C-513,142.6-513,142.6-513,142.6C-513,142.6-513,142.6-513,142.6z"/>
	<path fill="#F9F7EF" d="M-486.7,179.1c-1.2-4.6-3-8-5.8-9.8c-2.8-1.8-5.2-2.8-8.3-2.8c0,0-1.2,0-1.8,0.3c-3.7,0.6-6.4,2.1-8.6,5.2
		c-4.6,6.4-7.1,12.5-7.1,18c0,1.2,0,2.8,0.3,4c0.6,3.7,2.1,6.4,4.3,7.9c1.8,1.5,5.2,2.1,10.1,2.1h0.3c5.2,0,8.9-0.8,11.6-2.7
		s4.3-4.6,5.2-8.8c0.6-2.1,0.9-4.3,0.6-6.7C-485.8,183.6-486.1,181.2-486.7,179.1z"/>
	<path fill="#F9F7EF" d="M-633.3,166c-1.5-1.5-3.7-2.5-5.8-3.1c-1.2-0.6-2.4-0.9-3.7-0.9c-1.5,0-2.1,0-3.1,0.3
		c-2.1,0.6-3.4,1.5-4,3.7c-0.6,2.4-0.9,9.2-1.3,19.9c0,3.4,0,6.1,0,8.3c0,4.3,0.3,6.4,0.3,7.3c1.2-0.3,3.4-1.2,6.4-3.7
		c3.4-2.4,6.4-5.8,9.2-9.8c4.3-5.5,6.1-10.4,6.1-14.4C-629,170.6-630.5,168.1-633.3,166z"/>
	<path fill="#F9F7EF" d="M-513.3,146c-0.3,0-0.3,0-0.3,0H-513.3z"/>
	<path fill="#F9F7EF" d="M-708.8,153.6c-5.1-7.8-11.9-6.1-11.9-6.1c5.5-0.6,9.3,3.7,11.3,6.7C-709.3,154-709,153.8-708.8,153.6z"/>
	<path fill="#F9F7EF" d="M-234.4,88.2l-540.3,6.4c-1.7,0-3,1.4-2.9,3.1l8,173.4c0.1,1.7,1.6,3.3,3.3,3.3l526.7,0.7
		c1.7,0,3.2-1.6,3.2-3.3l4.9-180.5C-231.4,89.6-232.7,88.1-234.4,88.2z M-308.6,142.6c0.3-2.1,1.2-3.7,2.1-4.9
		c1.2-1.5,2.8-2.4,4.6-2.4c1.8,0,3.4,0.3,4.6,1.5c0.9,0.9,1.8,2.5,3.1,4.6c1.2,3.4,0.9,5.8-0.3,7.3c-0.9,1.2-2.8,1.8-5.5,1.8
		c-2.8,0.3-4.6-0.3-6.1-1.5c-0.3,0-0.6-0.3-0.6-0.3C-308.3,147.2-308.9,145.1-308.6,142.6z M-518.8,144.1c0.3,0,0.3-0.3,0.3-0.3
		c0.3,0.3,0.3,0.3,0.3,0.3c0-0.3,0.3-0.9,0.3-1.2c0.3,0.3,0.3,0.3,0.6,0.6c0-0.6,0.1-1.2,0.4-1.8c0.6-0.3,1.9-0.9,1.9-1.2
		c0,0.3,0,0.1,0,0.4c0-0.3,0.5-1.9,0.8-1.9h0.3c0,0,0.3,0.9,0.3,0.9c0.3,0.6,0.6,1.5,0.6,2.1c0-0.3,0-0.2,0.3-0.5
		c0,0.3,0.2,0.7,0.2,1c0,0-0.5,0.4-0.5,0.7c0,0.3,0,1.8,0,1.8c3,0,0.6,0,0.6,0c0,0,0.3-1,0.3-1c0,0.3,0,0.5,0,0.9
		c-0.9,0.6-1.8,0.7-2.8,1c0.9-0.3,1.8-0.7,2.4-0.7c-0.3,0.3-0.8,0.3-1.1,0.6c0.3,0,0.5,0,0.5,0v0.3c0,0.3,0,0.3,0,0.3
		c0,0.6-1,0.9-1.3,1.2c-1.5,0.3-0.7,1.2-3.7,1.8c0,0,0,0,0,0.3c0,0,0,0,0-0.3c0-1.5-0.4-3.1-1.6-4
		C-519.6,145-518.8,144.4-518.8,144.1z M-608.1,139.7c0.3-2.1,1.2-3.7,2.1-4.9c1.2-1.5,2.8-2.4,4.6-2.4c1.8,0,3.4,0.3,4.6,1.5
		c0.9,0.9,1.8,2.8,3.1,4.6c1.2,3.4,0.9,5.8-0.3,7.3c-0.9,1.2-2.8,1.8-5.5,1.8c-2.8,0.3-4.6-0.3-6.1-1.5c-0.3,0-0.6-0.3-0.6-0.3
		C-607.8,144.3-608.5,142.1-608.1,139.7z M-669.1,209.4c-0.3,10.7-7.7,15.9-21.4,15.9c0-0.3-0.9-0.6-0.9-0.6
		c-8.9-0.3-15.6-2.2-20.5-5.5c-3.4-2.5-4.9-5.2-4.9-8c-0.3-1.5,0.3-3.7,1.5-5.5c0.9-1.2,2.1-1.5,4.3-1.5c2.1,0,5.2,0.7,9.2,1.6
		c4.9,1.2,8.9,2.3,11.6,2.3c0.3,0,0.6,0,0.6,0c2.1,0,3.1-0.7,3.4-1.3c-0.6-0.9-4-4.6-22.3-20c-5.5-4.6-7.9-10.7-7-18.7
		c0.5-4.7,2.1-8.7,4.5-11.9c-1.8,0.2-3.6,0.9-3.6,0.9l1.5-1.2c0,0-0.9,0-4.6,0.6s-7-2.2-7.9-4c-1.5-3.4-3.4-2.5-3.4-2.5
		s1.2-2.8,6.4-5.2c7.3-3.4,11,1.5,11,1.5l0-0.9c2.8,2.4,3.4,5.7,3.4,7.6c1.1-1,2.3-1.9,3.6-2.7c4.3-2.4,8.6-3.7,13.5-3.7l1.2,0
		c5.5,0.3,9.5,1.9,12.2,5.2c3.4,4,4,7,2.7,9.2c-0.9,1.5-2.8,2.4-5.8,2.4c-1.2,0-2.4,0-4-0.3c-1.2-0.3-2.4-0.3-3.7-0.3
		c-2.4,0-4.9,0.6-6.7,1.5c-2.8,1.5-4,3.7-4,6.4c0,1.5,1.5,4.3,7.6,8.9c4.9,3.4,10.1,7.7,15.6,13.2c3.1,3.4,4.9,6.1,5.8,8
		c0.6,1.5,1.2,3.4,1.2,5.8C-668.8,207.5-668.8,208.1-669.1,209.4z M-615.6,188.6c-4,7.9-9.2,14.4-14.7,19.9
		c-6.1,5.5-11.6,7.6-16.8,7.6c-0.9,0-2.4,0.3-2.8,1.2c0,0.3-0.3,0.6-0.3,0.6c-0.3,0.3-0.3,0.9-0.3,5.5l0,2.8c0,2.8,0,3.1,0,4.6
		c-0.6,2.4-1.8,3.7-3.7,4.6c-0.9,1.2-2.1,0.9-3.1,0.9c-1.8,0-3.4-0.3-4.9-1.8c-1.5-1.5-2.4-4.3-3-9.8c0-0.9,0-1.5-0.3-2.1
		c-0.3-3.7-0.6-7.6-0.9-21.1c-0.3-20.2-0.3-32.7,0.7-38.5c0.9-5.8,4-10.4,8.6-13.8c2.5-1.8,6.4-2.7,11.3-2.7l3.7,0
		c7,0.6,12.5,2.5,16.8,5.2c6.1,4.3,10.1,9.8,11.9,16.8c0.6,2.4,0.9,4.6,0.9,6.7C-612.5,179.8-613.4,184.4-615.6,188.6z
		 M-590.8,212.8c-1.2,5.5-4.9,6.7-7.7,6.7c-2.8,0-6.4-1.2-7.9-6.7c-0.9-4-1.8-12.5-2.1-26.6l0-4.3c-0.3-20.2,1-24.8,1.9-26.3
		c1.8-2.4,4-3.6,6.4-3.6h0.6c0,0,0,0.3,0.3,0.3c2.8,0.3,4.6,2.4,5.2,5.2c0.9,4.6,1.8,14.4,2.7,29.7c0.3,6.1,0.6,11.6,0.9,15.6
		C-590.5,207.7-590.5,210.7-590.8,212.8z M-540,210.5c-0.3,10.7-7.7,15.9-21.4,15.9c0-0.6-0.9-0.6-0.9-0.6
		c-8.9-0.3-15.6-2.2-20.5-5.5c-3.4-2.5-4.9-5.2-4.9-8c-0.3-1.8,0.3-3.7,1.5-5.5c0.9-1.2,2.1-1.5,4.3-1.5c2.1,0,5.2,1.2,9.2,2.1
		c4.9,1.2,8.9,2.7,11.6,2.7c0.3,0,0.6,0,0.6,0c2.1,0,3.1-1.1,3.4-1.8c-0.6-0.9-4-4.9-22.3-20.2c-5.5-4.6-7.9-10.9-7-18.8
		c0.9-8,4.6-13.7,11-17.7c4.3-2.4,8.6-3.6,13.5-3.6h1.2c5.5,0,9.5,1.7,12.2,5.1c3.4,4,4,7,2.7,9.1c-0.9,1.5-2.8,2.4-5.8,2.4
		c-1.2,0-2.4,0-4-0.3c-1.2-0.3-2.4-0.3-3.7-0.3c-2.4,0-4.9,0.6-6.7,1.5c-2.8,1.5-4,3.7-4,6.4c0,1.5,1.5,4.3,7.6,8.9
		c4.9,3.4,10.1,7.7,15.6,13.2c3.1,3.4,4.9,6.1,5.8,8c0.6,1.5,1.2,3.4,1.2,5.8C-539.7,208.6-539.7,209.3-540,210.5z M-467.5,188.9
		c-0.6,10.1-3.7,18-8.9,23.5c-4,4.3-9.5,7-15.9,8.5c-4.3,1.2-7.7,1.5-11,1.5c-3.1,0-6.1-0.3-9.2-1.2c-9.5-2.5-16.2-8-20.2-16.6
		c-1.8-4.6-3-9.2-3.3-14.1c0-4.3,0.6-8.6,2.2-13.2c3-9.4,8.7-16.8,17.1-22.5l-1.8-3.8l-2.2-0.4c-1.3,0.3-2.5,0.9-3.5,2
		c-0.6,0.3-0.9,0.3-1.5,0.3h-0.3h-0.3c0,0,0.3-0.3,0.3-0.7c0,0,0,0.7,0.3-0.3c0,0,0,0-0.3,0c-0.3,1-0.6,0.3-0.9,0.3
		c0.6-0.6,1.2-1.2,1.8-1.8c-0.9,0.6-1.5,1.2-2.5,1.8c-0.3-0.3-0.6,0-0.9-0.3l0.3,0c-0.3,0-0.6,0-0.9,0c-0.3,0-0.3-0.9-0.6-0.9
		c0.3,0,1.2-0.1,1.5-0.1c-0.6-0.3-0.7-1.1-0.7-1.7V149l-0.6-0.3c0.3,0,0.5-0.3,0.8-0.3l-0.5-0.3c0.6-0.3,1.1-0.5,2-0.8
		c0.6,0,1.1-0.3,1.7,0.7h-0.5c0,0,0-0.2,0-0.5c0-0.3,0.4-0.5,0.1-0.9c0.3,0,1.3,0.4,1.6,0.4h0.3c0,0,0-0.1,0-0.4v0.4h0.3
		c0.3,0,0.9-0.1,1.2-0.1c0.3,1.3,0.9,2.4,1.9,3.3l1.5,0.1l-1.8-3.8c-1.3-1-2.9-1.5-4.4-1.8c-0.3-0.3-0.6-1.1-0.9-1.7
		c-0.3-0.3-0.3,1.9-0.3-1.1h0.3h0.3c-0.3,0-0.3,0.1-0.3,0.1c-0.3-0.3-0.6-0.2-1.5-0.8c0.3,0,0.6,0.7,0.9,0.7h0.3
		c-0.3,0-0.3-0.8-0.3-0.8c-0.3-0.6-0.9-1.5-1.2-2.1c0-0.9,0-1.6,0.3-2.6c0.3,0,0.7,0.2,1,0.2c0.3,0.3,0.7,0.2,0.7,0.2v-0.3
		c0-0.6-0.4-0.9-0.4-1.5l-0.1-0.3h0.3c0.9,1,1.4,0.9,2,1.5c0.3,0.3,0.2,0.3,0.2,0.3v-0.3c0,0,0.2-0.3,0.2-0.6c0.3,0.3,0.7,0.3,1,0.6
		c0,0.3,0.3,0.6,0.3,0.9c0.3,0,0.3-0.3,0.3-0.3c0.6,0.3,0.9,0.9,1.2,1.2c-0.3,0.9-0.6,1.8-1.2,2.8c0.6-0.9,0.7-1.8,1.4-2.4
		c0,0.3-0.2,0.9-0.2,1.2v0.3c0-0.3,0.5-0.3,0.5-0.3c0.3-0.3,0.6-0.3,0.9-0.6l0.6,0.3v0.3c0,0.6-0.8,1.2-0.8,1.8
		c-0.6,1.5-1.2,3.4-1.2,5.5v0.3c0-0.3,0.3-0.3,0.3-0.3c-0.1-0.1,0.1-0.2,0-0.3l3.9,7.8c0.3-0.2,0.6-0.4,0.9-0.5
		c3.4-2.7,6.2-3.8,8.6-4.4c0.9-0.3,1.9,0.2,3.4,0.2h0.3c1.8,0,3.7-0.2,6.1,0.1c10.1,1.2,17.7,5.9,23.5,13.9c4,5.8,6.1,12.7,6.4,21
		C-467.5,186.2-467.5,187.3-467.5,188.9z M-423.7,169.7c-3.4-1.2-6.4-1.5-8.9-1.5c-4,0-7,1.2-9.2,4.3c-3.4,4.9-4.9,15-4.3,30.3
		c0.9,20.2-0.6,20.8-1.6,21.4c-0.9,0-2.1,0-3.4,0c-1.2,0-2.4,0-4-0.3c-3.4-0.9-5.2-2.1-6.1-4.3c-0.6-1.5-1.5-6.1-3-32.1
		c-0.6-9.8-0.9-16.8-1.2-21.4l0-3.7c0.3-4,1.2-6.4,3.1-7c0.6-0.3,1.5-0.3,2.1-0.3c1.8,0,3.7,1,5.8,2.5c1.5,1.2,2.1,1.6,2.4,1.6h0.3
		c1.2,0,4-2.8,7.7-4.6c3.4-1.8,7.3-2.8,11.3-2.8c3.4,0,6.7,0.6,10.7,1.8c9.2,3.1,13.8,7.4,14.1,12.6c0,1.8-0.3,3.1-1.2,4
		c-1.2,1.2-3.4,1.8-4.9,1.8C-416.7,171.8-419.7,171.2-423.7,169.7z M-347,217.8c0,0,0,0,0,0.3c-1,6.4-4.9,7.3-7,7.3
		c-3.4,0-5.7-0.9-7.2-2.8c-0.3-0.6-1.1-2.1-5.4-25.7c-3.3-20.2-4.8-23.9-5.4-24.5c0,0,0,0-0.3-0.3c-1.8-2.8-4-4.3-6.4-4.3
		s-5.5,1.5-8.9,4.3c-5.8,4.9-8.9,16.8-8.3,34.9c0.3,14.1-1.6,16.8-3.4,17.4c-0.9,0.3-1.5,0.3-2.4,0.3c-2.8,0-4.6-1.5-6.1-4.9
		c-1.5-3.4-2.7-9.5-3-18.4c-0.3-2.1-0.3-4-0.3-6.1c-0.3-21.4,6.5-35.2,20.6-41.6c4.6-2.1,9.2-3,13.2-3c1.9,0,3.7,0.3,5.4,0.7
		c0.8-2.7,2.8-5.2,5.7-6.7c2-1.7,4.7-3.1,7.9-2.5c-0.6-0.3-6.7-2.5-11.9,4.9c0,0-0.3-4.6,3.7-7.6l0,0.9c0,0,3.7-4,9.5-0.3
		c4.3,2.5,5.2,4.9,5.2,4.9s-1.5-0.9-3.1,1.8c-0.9,1.5-4,3.4-7,2.7c-3.1-0.9-3.7-0.9-3.7-0.9l1.2,1.2c0,0-4.6-2.1-5.5-0.6
		c0,0,0.3-0.6,0.9-1.4c-0.9,1.2-1.6,2.5-2,3.9c2.3,0.8,4.4,2,6.6,3.6c4.3,3.4,7.6,8,9.8,13.2c2.1,5.2,4.3,13.5,6.1,25.1
		c1.5,9.8,2.1,17.1,2.1,21.7L-347,217.8z M-314.3,223.4c-2.1,1.5-4.6,2.1-7.3,2.1c-2.4,0-5.2-0.6-8.3-2.2
		c-6.1-3.7-10.4-8.9-12.8-16.2c-0.9-3.1-1.5-11-1.8-24.2l-0.3-16.8c0.4-31.2,1.6-37.6,2.5-39.5c1.5-2.8,3.4-4,5.5-4
		c2.1,0,4.3,1.2,6.4,3.4c1.5,1.5,3,7.3,3.9,39.2c0.3,13.2,0.9,22.3,1.5,27.8c0.3,5.5,1.2,9.2,2.1,11.3c1.2,2.1,3.1,3.4,5.5,4.6
		c2.8,1.2,4.6,3.4,5.5,6.4c0.3,0.6,0.3,1.2,0.3,1.8C-311.5,219.7-312.4,221.5-314.3,223.4z M-292.8,215.1c-1.2,5.5-4.9,6.1-7.7,6.1
		c-2.8,0-6.4-0.6-7.9-6.4c-0.9-4-1.8-12.5-2.1-26.3l0-4c-0.3-20.2,1-24.5,1.9-26c1.8-2.4,4-3.9,6.4-3.9l0.6-0.6c0,0,0,0,0.3,0
		c2.8,2,4.6,2.7,5.2,5.8c0.9,4.6,1.8,14.7,2.7,30c0.3,6.4,0.6,11.8,0.9,15.8C-292.5,210.4-292.5,213-292.8,215.1z"/>
	<path fill="#F9F7EF" d="M-515,141.1c0,0.3,0,0.3,0,0.3C-515,141.1-515,141.1-515,141.1z"/>
	<path fill="#F9F7EF" d="M-513,142.3C-513,142.3-513,142.3-513,142.3C-513,142.3-513,142.3-513,142.3z"/>
	<path fill="#F9F7EF" d="M-518,143.5c0,0.3,0,0.3,0,0.3C-518,143.5-518,143.5-518,143.5z"/>
</g>
<g>
	<path fill="#F5F2E0" d="M51.3,381.6c-2.3,0-4.5-0.5-6.5-1.4c-2-1-3.7-2.3-5.1-4.1c-1.4-1.8-2.6-3.9-3.4-6.5
		c-0.8-2.5-1.2-5.3-1.2-8.4c0-3.1,0.4-5.9,1.2-8.4c0.8-2.5,1.9-4.6,3.3-6.4c1.4-1.8,3.1-3.1,5.1-4.1c2-0.9,4.1-1.4,6.5-1.4
		c2.4,0,4.6,0.5,6.6,1.4c2,0.9,3.7,2.3,5.1,4c1.4,1.8,2.6,3.9,3.4,6.4c0.8,2.5,1.2,5.3,1.2,8.4c0,3.1-0.4,5.9-1.2,8.4
		c-0.8,2.5-1.9,4.7-3.3,6.5c-1.4,1.8-3.1,3.2-5.1,4.2C55.9,381.1,53.7,381.6,51.3,381.6z M51.3,379.1c2,0,3.8-0.4,5.4-1.3
		s3-2.1,4.2-3.6c1.2-1.6,2.1-3.5,2.7-5.7c0.6-2.2,0.9-4.7,0.9-7.4c0-2.7-0.3-5.1-1-7.3c-0.6-2.2-1.6-4-2.7-5.6
		c-1.2-1.5-2.6-2.7-4.2-3.5c-1.6-0.8-3.4-1.2-5.4-1.2c-2,0-3.8,0.4-5.4,1.3c-1.6,0.8-3,2-4.2,3.6c-1.1,1.5-2,3.4-2.7,5.6
		s-0.9,4.6-0.9,7.3c0,2.7,0.3,5.2,1,7.4s1.5,4.1,2.7,5.7c1.2,1.6,2.6,2.8,4.2,3.6C47.5,378.6,49.3,379.1,51.3,379.1z"/>
	<path fill="#F5F2E0" d="M76.2,352.2l2.3,0l0.2,4.4l0.2,0c1.3-1.5,2.7-2.7,4.2-3.7c1.6-1,3.1-1.5,4.7-1.5c2.3,0,4.1,0.5,5.3,1.6
		c1.2,1.1,2.1,2.5,2.6,4.3c1.7-1.8,3.3-3.2,4.8-4.3c1.6-1.1,3.2-1.6,4.8-1.6c5.7,0,8.6,3.6,8.6,10.9l0,18.3l-2.7,0l0-18
		c0-3.1-0.5-5.3-1.6-6.8c-1-1.4-2.6-2.2-4.8-2.2c-2.6,0-5.4,1.8-8.6,5.4l0.1,21.6l-2.6,0l0-18c0-3.1-0.5-5.3-1.6-6.8
		c-1-1.4-2.7-2.2-4.9-2.2c-2.6,0-5.4,1.8-8.6,5.4l0.1,21.6l-2.6,0L76.2,352.2z"/>
	<path fill="#F5F2E0" d="M131.6,352.1l2.9,0l6.5,17.9c0.4,1.4,0.9,2.8,1.4,4.2c0.5,1.4,1,2.7,1.4,4l0.2,0c0.5-1.3,1-2.7,1.4-4.1
		c0.5-1.4,1-2.8,1.4-4.2l6.4-17.9l2.7,0l-10.5,28.6l-3.1,0L131.6,352.1z"/>
	<path fill="#F5F2E0" d="M159.9,366.3c0-2.4,0.3-4.5,1-6.4c0.7-1.9,1.6-3.5,2.8-4.7c1.2-1.3,2.5-2.2,4.1-2.9c1.5-0.7,3.2-1,4.9-1
		c1.7,0,3.3,0.3,4.9,1c1.6,0.7,2.9,1.6,4.1,2.9c1.2,1.3,2.1,2.8,2.8,4.7c0.7,1.9,1.1,4,1.1,6.4c0,2.4-0.3,4.5-1,6.3
		c-0.7,1.8-1.6,3.4-2.8,4.7c-1.2,1.3-2.5,2.2-4.1,2.9c-1.6,0.7-3.2,1-4.9,1c-1.7,0-3.3-0.3-4.9-1c-1.5-0.7-2.9-1.6-4.1-2.9
		c-1.2-1.3-2.1-2.8-2.8-4.7C160.2,370.8,159.9,368.7,159.9,366.3z M162.6,366.3c0,1.9,0.3,3.6,0.8,5.1c0.5,1.5,1.2,2.9,2.1,4
		c0.9,1.1,2,2,3.2,2.6c1.2,0.6,2.6,0.9,4,0.9c1.4,0,2.8-0.3,4-0.9c1.2-0.6,2.3-1.5,3.2-2.6c0.9-1.1,1.6-2.4,2.1-4
		c0.5-1.5,0.8-3.3,0.8-5.1c0-1.9-0.3-3.6-0.8-5.2c-0.5-1.5-1.2-2.9-2.1-4c-0.9-1.1-2-2-3.2-2.6c-1.3-0.6-2.6-0.9-4-0.9
		c-1.4,0-2.8,0.3-4,0.9c-1.2,0.6-2.3,1.5-3.2,2.6c-0.9,1.1-1.6,2.5-2.1,4C162.9,362.7,162.6,364.4,162.6,366.3z"/>
	<path fill="#F5F2E0" d="M194.1,351.9l2.3,0l0.3,5.3l0.2,0c0.9-1.8,2.1-3.2,3.5-4.4c1.4-1.1,2.9-1.7,4.6-1.7c0.6,0,1.1,0,1.5,0.1
		c0.4,0.1,0.9,0.2,1.4,0.5l-0.6,2.4c-0.5-0.2-0.9-0.3-1.3-0.4s-0.8-0.1-1.4-0.1c-1.3,0-2.6,0.6-4,1.6c-1.4,1.1-2.7,3-3.8,5.7
		l0.1,19.5l-2.6,0L194.1,351.9z"/>
	<path fill="#F5F2E0" d="M210,366.2c0-2.3,0.3-4.4,1-6.3c0.7-1.9,1.6-3.4,2.8-4.7c1.2-1.3,2.5-2.3,4-3c1.5-0.7,3-1.1,4.6-1.1
		c3.4,0,6.1,1.1,8,3.4c2,2.3,2.9,5.6,2.9,9.8c0,0.4,0,0.7,0,1.1c0,0.4,0,0.7-0.1,1.1l-20.6,0.1c0,1.8,0.3,3.4,0.8,5
		c0.5,1.5,1.2,2.8,2.2,3.9c0.9,1.1,2.1,1.9,3.4,2.6c1.3,0.6,2.8,0.9,4.4,0.9c1.5,0,2.9-0.2,4.2-0.7c1.2-0.5,2.4-1.1,3.5-1.9l1.1,2
		c-1.2,0.7-2.4,1.3-3.8,1.9c-1.4,0.6-3.1,0.9-5.2,0.9c-1.8,0-3.5-0.3-5.2-1c-1.6-0.7-3-1.6-4.2-2.9c-1.2-1.3-2.1-2.9-2.8-4.7
		C210.4,370.6,210,368.5,210,366.2z M230.9,364.4c0-3.7-0.8-6.5-2.3-8.3c-1.5-1.8-3.6-2.8-6.1-2.8c-1.2,0-2.4,0.3-3.5,0.8
		c-1.1,0.5-2.1,1.3-3,2.2s-1.6,2.1-2.2,3.5c-0.6,1.4-0.9,2.9-1.1,4.6L230.9,364.4z"/>
	<path fill="#F5F2E0" d="M239.2,375.2c1.2,1,2.5,1.9,3.9,2.6c1.4,0.7,3.1,1,5.2,1c2.3,0,4-0.6,5.1-1.7c1.1-1.1,1.7-2.5,1.7-4
		c0-0.9-0.2-1.6-0.6-2.3c-0.4-0.7-1-1.2-1.6-1.7c-0.7-0.5-1.4-0.9-2.2-1.2c-0.8-0.4-1.6-0.7-2.5-1c-1.1-0.4-2.2-0.8-3.2-1.2
		c-1.1-0.4-2.1-1-3-1.6c-0.9-0.6-1.6-1.3-2.1-2.2c-0.5-0.9-0.8-1.9-0.8-3.1c0-1,0.2-2,0.6-3c0.4-0.9,1-1.7,1.8-2.4
		c0.8-0.7,1.8-1.2,2.9-1.6c1.1-0.4,2.4-0.6,4-0.6s3,0.3,4.4,0.8c1.5,0.6,2.7,1.3,3.7,2.1l-1.4,1.9c-1-0.7-2-1.3-3-1.8
		c-1.1-0.5-2.3-0.7-3.8-0.7c-1.1,0-2.1,0.2-2.9,0.5c-0.8,0.3-1.5,0.7-2,1.2c-0.5,0.5-0.9,1-1.2,1.7c-0.3,0.6-0.4,1.3-0.4,1.9
		c0,0.8,0.2,1.5,0.6,2.1c0.4,0.6,0.9,1.1,1.5,1.5c0.6,0.4,1.4,0.8,2.2,1.2c0.8,0.3,1.6,0.7,2.5,1c1.1,0.4,2.2,0.9,3.3,1.3
		c1.1,0.4,2.1,1,3,1.6c0.9,0.6,1.6,1.4,2.2,2.3c0.6,0.9,0.8,2.1,0.8,3.5c0,1.1-0.2,2.1-0.6,3.1c-0.4,1-1,1.8-1.9,2.6
		c-0.8,0.7-1.8,1.3-3,1.8c-1.2,0.4-2.6,0.7-4.1,0.7c-2.1,0-4.1-0.4-5.9-1.1s-3.3-1.7-4.6-2.8L239.2,375.2z"/>
	<path fill="#F5F2E0" d="M277.1,351.7l2.3,0l0.2,4.4l0.2,0c1.3-1.5,2.7-2.7,4.2-3.7c1.6-1,3.1-1.5,4.7-1.5c2.3,0,4.1,0.5,5.3,1.6
		c1.2,1.1,2.1,2.5,2.6,4.3c1.7-1.8,3.3-3.2,4.8-4.3c1.6-1.1,3.2-1.6,4.8-1.6c5.7,0,8.6,3.6,8.6,10.9l0,18.3l-2.7,0l0-18
		c0-3.1-0.5-5.3-1.6-6.8c-1-1.4-2.6-2.2-4.8-2.2c-2.6,0-5.4,1.8-8.6,5.4l0.1,21.6l-2.6,0l0-18c0-3.1-0.5-5.3-1.6-6.8
		c-1-1.4-2.7-2.2-4.9-2.2c-2.6,0-5.4,1.8-8.6,5.4l0.1,21.6l-2.6,0L277.1,351.7z"/>
	<path fill="#F5F2E0" d="M323.9,373c0-3.1,1.5-5.5,4.4-7.2c3-1.7,7.6-2.9,14-3.6c0-1.1,0-2.2-0.2-3.2c-0.2-1.1-0.5-2.1-1-2.9
		c-0.5-0.9-1.2-1.5-2.1-2.1c-0.9-0.5-2-0.8-3.4-0.8c-1.9,0-3.7,0.4-5.3,1.1c-1.6,0.8-2.9,1.5-3.8,2.2l-1.2-2
		c0.5-0.4,1.1-0.8,1.9-1.2c0.7-0.4,1.5-0.8,2.4-1.2c0.9-0.4,1.9-0.7,2.9-0.9c1.1-0.3,2.2-0.4,3.3-0.4c1.7,0,3.1,0.3,4.3,0.9
		c1.2,0.6,2.1,1.4,2.8,2.3c0.7,1,1.2,2.2,1.5,3.5c0.3,1.3,0.5,2.8,0.5,4.3l0,18.3l-2.2,0l-0.3-3.7l-0.1,0c-1.5,1.2-3,2.2-4.7,3.1
		c-1.7,0.9-3.5,1.3-5.4,1.4c-1.2,0-2.2-0.2-3.2-0.5c-1-0.3-1.9-0.8-2.7-1.4c-0.8-0.6-1.4-1.4-1.8-2.4S323.9,374.3,323.9,373z
		 M326.6,372.9c0,2.1,0.6,3.5,1.8,4.4c1.2,0.9,2.6,1.3,4.2,1.3c1.7,0,3.3-0.4,4.8-1.2c1.5-0.8,3.2-2,4.9-3.5l0-9.7
		c-2.9,0.4-5.4,0.8-7.4,1.3c-2,0.5-3.6,1.1-4.8,1.9c-1.2,0.7-2.1,1.5-2.6,2.4C326.9,370.7,326.6,371.8,326.6,372.9z"/>
	<path fill="#F5F2E0" d="M352.8,365.8c0-2.3,0.3-4.4,1-6.3c0.7-1.9,1.6-3.5,2.8-4.8s2.5-2.3,4-3c1.5-0.7,3.1-1.1,4.9-1.1
		c1.7,0,3.3,0.3,4.6,0.9c1.3,0.6,2.7,1.5,4.1,2.6L374,349l0-11.8l2.6,0l0.1,42.8l-2.3,0l-0.3-3.7l-0.2,0c-1.1,1.2-2.5,2.2-4.1,3.1
		c-1.6,0.9-3.3,1.3-5.2,1.4c-3.6,0-6.5-1.3-8.6-3.8C353.9,374.4,352.8,370.7,352.8,365.8z M355.6,365.8c0,1.9,0.2,3.6,0.6,5.2
		c0.4,1.5,1,2.9,1.8,4c0.8,1.1,1.8,1.9,3,2.6c1.2,0.6,2.5,0.9,4,0.9c1.6,0,3.1-0.4,4.6-1.2c1.4-0.8,2.9-2,4.4-3.5l0-17
		c-1.5-1.3-2.9-2.3-4.3-2.8c-1.3-0.6-2.7-0.8-4.1-0.8c-1.4,0-2.8,0.3-4,1c-1.2,0.7-2.3,1.6-3.2,2.7c-0.9,1.1-1.6,2.5-2.1,4.1
		C355.9,362.4,355.6,364,355.6,365.8z"/>
	<path fill="#F5F2E0" d="M385,387.4c1.3-0.7,2.4-1.7,3.3-2.9c0.8-1.2,1.3-2.7,1.3-4.3c-0.2,0-0.4,0.1-0.7,0.1
		c-0.7,0-1.3-0.2-1.8-0.6c-0.5-0.4-0.7-1.1-0.8-1.8c0-0.8,0.3-1.4,0.8-1.8c0.5-0.4,1.1-0.7,1.8-0.7c0.9,0,1.6,0.4,2.2,1.1
		c0.6,0.8,0.8,1.8,0.8,3.1c0,2.2-0.6,4.1-1.7,5.8c-1.1,1.7-2.6,3-4.4,3.9L385,387.4z"/>
	<path fill="#F5F2E0" d="M412.5,351.3l2.3,0l0.2,4.4l0.2,0c1.3-1.5,2.7-2.7,4.2-3.7c1.6-1,3.1-1.5,4.7-1.5c2.3,0,4.1,0.5,5.3,1.6
		c1.2,1.1,2.1,2.5,2.6,4.3c1.7-1.8,3.3-3.2,4.8-4.3c1.6-1.1,3.2-1.6,4.8-1.6c5.7,0,8.6,3.6,8.6,10.9l0,18.3l-2.7,0l0-18
		c0-3.1-0.5-5.3-1.6-6.8c-1-1.4-2.6-2.2-4.8-2.2c-2.6,0-5.4,1.8-8.6,5.4l0.1,21.6l-2.6,0l0-18c0-3.1-0.5-5.3-1.6-6.8
		c-1-1.4-2.7-2.2-4.9-2.2c-2.6,0-5.4,1.8-8.6,5.4l0.1,21.6l-2.6,0L412.5,351.3z"/>
	<path fill="#F5F2E0" d="M462.2,344.3c-0.7,0-1.2-0.2-1.7-0.7c-0.5-0.4-0.7-1-0.7-1.7c0-0.8,0.2-1.3,0.7-1.8c0.5-0.4,1-0.6,1.7-0.6
		c0.7,0,1.2,0.2,1.7,0.6c0.5,0.4,0.7,1,0.7,1.8c0,0.7-0.2,1.2-0.7,1.7C463.4,344.1,462.8,344.3,462.2,344.3z M460.8,351.2l2.6,0
		l0.1,28.6l-2.6,0L460.8,351.2z"/>
	<path fill="#F5F2E0" d="M474.4,336.9l2.6,0l0.1,39.4c0,0.6,0.1,1.1,0.4,1.4c0.2,0.3,0.5,0.4,0.9,0.4c0.1,0,0.2,0,0.4,0
		c0.1,0,0.4,0,0.7-0.1l0.5,2.1c-0.3,0.1-0.6,0.2-0.8,0.2c-0.3,0.1-0.6,0.1-1.1,0.1c-2.3,0-3.5-1.5-3.5-4.5L474.4,336.9z"/>
	<path fill="#F5F2E0" d="M488.6,351.1l2.7,0l0.1,33.9c0,2.8-0.5,4.9-1.5,6.3c-1,1.4-2.7,2.1-4.9,2.1c-0.7,0-1.3-0.1-2-0.2
		c-0.7-0.1-1.2-0.3-1.7-0.5l0.6-2.1c0.4,0.1,0.8,0.2,1.3,0.4c0.5,0.1,1.1,0.2,1.6,0.2c1.6,0,2.6-0.6,3.1-1.8
		c0.5-1.2,0.7-2.7,0.7-4.5L488.6,351.1z M489.9,344.2c-0.6,0-1.2-0.2-1.7-0.7c-0.5-0.4-0.7-1-0.7-1.7c0-0.8,0.2-1.3,0.7-1.8
		c0.5-0.4,1-0.6,1.7-0.6c0.7,0,1.3,0.2,1.7,0.6c0.5,0.4,0.7,1,0.7,1.8c0,0.7-0.2,1.2-0.7,1.7C491.2,344,490.6,344.2,489.9,344.2z"/>
	<path fill="#F5F2E0" d="M522.4,355.2c1,1.3,1.7,2.8,2.3,4.5c0.6,1.7,0.8,3.6,0.8,5.8c0,2.4-0.3,4.5-1,6.3c-0.7,1.8-1.6,3.4-2.8,4.7
		c-1.2,1.3-2.5,2.2-4.1,2.9c-1.6,0.7-3.2,1-4.9,1c-3.3,0-6.1-1.1-8.4-3.3l-3.2,3.9l-1.6-1.2l3.4-4.2c-1-1.3-1.7-2.7-2.3-4.4
		c-0.6-1.7-0.8-3.6-0.9-5.7c0-2.4,0.3-4.5,1-6.4c0.7-1.9,1.6-3.5,2.8-4.7c1.2-1.3,2.5-2.2,4.1-2.9c1.5-0.7,3.2-1,4.9-1
		c1.6,0,3.1,0.3,4.6,0.8c1.5,0.6,2.8,1.4,3.9,2.5l3.2-3.9l1.6,1.2L522.4,355.2z M519.5,355.6c-1.8-2-4.1-3-6.9-3
		c-1.4,0-2.8,0.3-4,0.9c-1.2,0.6-2.3,1.5-3.2,2.6c-0.9,1.1-1.6,2.5-2.1,4.1c-0.5,1.6-0.8,3.3-0.8,5.2c0,3.2,0.7,5.9,2.2,8.2
		L519.5,355.6z M505.9,375.1c1.9,2,4.1,3,6.8,3c1.4,0,2.8-0.3,4-0.9c1.2-0.6,2.3-1.5,3.2-2.6c0.9-1.1,1.6-2.4,2.1-4
		c0.5-1.5,0.8-3.3,0.8-5.1c0-3.3-0.7-6-2.2-8.2L505.9,375.1z"/>
	<path fill="#F5F2E0" d="M543.6,365.3c0-2.4,0.3-4.5,1-6.4c0.7-1.9,1.6-3.5,2.8-4.7c1.2-1.3,2.5-2.2,4.1-2.9c1.5-0.7,3.2-1,4.9-1
		c1.7,0,3.3,0.3,4.9,1c1.6,0.7,2.9,1.6,4.1,2.9c1.2,1.3,2.1,2.8,2.8,4.7c0.7,1.9,1.1,4,1.1,6.4c0,2.4-0.3,4.5-1,6.3
		c-0.7,1.8-1.6,3.4-2.8,4.7c-1.2,1.3-2.5,2.2-4.1,2.9c-1.6,0.7-3.2,1-4.9,1s-3.3-0.3-4.9-1c-1.6-0.7-2.9-1.6-4.1-2.9
		c-1.2-1.3-2.1-2.8-2.8-4.7C543.9,369.8,543.6,367.7,543.6,365.3z M546.3,365.3c0,1.9,0.3,3.6,0.8,5.1c0.5,1.5,1.2,2.9,2.1,4
		c0.9,1.1,2,2,3.2,2.6c1.2,0.6,2.6,0.9,4,0.9c1.4,0,2.8-0.3,4-0.9c1.2-0.6,2.3-1.5,3.2-2.6c0.9-1.1,1.6-2.4,2.1-4
		c0.5-1.5,0.8-3.3,0.8-5.1c0-1.9-0.3-3.6-0.8-5.2c-0.5-1.5-1.2-2.9-2.1-4c-0.9-1.1-2-2-3.2-2.6c-1.3-0.6-2.6-0.9-4-0.9
		s-2.8,0.3-4,0.9c-1.2,0.6-2.3,1.5-3.2,2.6c-0.9,1.1-1.6,2.5-2.1,4C546.6,361.7,546.3,363.4,546.3,365.3z"/>
	<path fill="#F5F2E0" d="M575.5,385.3c0-1.3,0.4-2.5,1.1-3.7c0.8-1.2,1.8-2.3,3.1-3.2l0-0.2c-0.7-0.4-1.3-1-1.8-1.8
		c-0.5-0.8-0.7-1.7-0.7-2.8c0-1.3,0.4-2.4,1.1-3.2c0.7-0.9,1.4-1.6,2-2l0-0.2c-0.9-0.8-1.7-1.9-2.5-3.2c-0.7-1.3-1.1-2.9-1.1-4.6
		c0-1.5,0.2-2.8,0.8-4.1c0.5-1.2,1.2-2.3,2.1-3.2c0.9-0.9,2-1.6,3.2-2.1c1.2-0.5,2.5-0.8,3.9-0.8c0.8,0,1.5,0.1,2.1,0.2
		c0.6,0.1,1.2,0.3,1.6,0.5l9.7,0l0,2.2l-6.7,0c0.9,0.8,1.7,1.8,2.3,3.1c0.6,1.2,0.9,2.6,0.9,4.1c0,1.5-0.3,2.8-0.8,4.1
		c-0.5,1.2-1.2,2.3-2.1,3.2s-1.9,1.6-3.2,2.1c-1.2,0.5-2.5,0.8-3.9,0.8c-0.8,0-1.6-0.1-2.5-0.3c-0.9-0.2-1.6-0.5-2.3-0.9
		c-0.6,0.5-1.2,1.1-1.6,1.7c-0.5,0.6-0.7,1.4-0.7,2.4c0,1,0.4,1.9,1.1,2.6c0.8,0.7,2.2,1.1,4.4,1.1l6.1,0c3.2,0,5.6,0.5,7.1,1.6
		c1.5,1,2.3,2.7,2.3,5c0,1.2-0.3,2.4-0.9,3.6c-0.6,1.2-1.5,2.2-2.7,3.1c-1.2,0.9-2.6,1.6-4.3,2.2c-1.7,0.5-3.5,0.8-5.6,0.8
		c-3.6,0-6.5-0.7-8.6-2.1S575.5,387.8,575.5,385.3z M578,385.1c0,1.8,0.8,3.2,2.5,4.3c1.6,1.1,4,1.7,7.1,1.6c1.6,0,3-0.2,4.3-0.6
		c1.3-0.4,2.4-1,3.3-1.6c0.9-0.7,1.6-1.4,2.1-2.3c0.5-0.9,0.7-1.7,0.7-2.7c0-1.6-0.6-2.7-1.7-3.4c-1.1-0.7-2.8-1-4.9-1l-6.1,0
		c-0.3,0-0.8,0-1.5-0.1c-0.7-0.1-1.4-0.2-2.1-0.4c-1.3,0.9-2.3,1.9-2.9,2.9C578.3,383,578,384.1,578,385.1z M586.8,368.3
		c1,0,1.9-0.2,2.8-0.6c0.9-0.4,1.7-0.9,2.3-1.6c0.7-0.7,1.2-1.6,1.6-2.6c0.4-1,0.6-2.1,0.6-3.3c0-1.2-0.2-2.3-0.6-3.3
		c-0.4-1-0.9-1.8-1.6-2.5c-0.7-0.7-1.4-1.2-2.4-1.6c-0.9-0.4-1.9-0.6-2.9-0.6c-1,0-2,0.2-2.9,0.6c-0.9,0.4-1.7,0.9-2.3,1.6
		c-0.7,0.7-1.2,1.5-1.6,2.5c-0.4,1-0.6,2.1-0.6,3.3c0,1.2,0.2,2.3,0.6,3.3c0.4,1,0.9,1.8,1.6,2.6c0.7,0.7,1.5,1.3,2.4,1.6
		C584.8,368.1,585.8,368.3,586.8,368.3z"/>
	<path fill="#F5F2E0" d="M618.6,336.6l2.6,0l0.1,31.6l0.1,0l14.1-17.4l3,0l-9.3,11.3l10.9,17.2l-2.9,0l-9.5-15.3l-6.4,7.5l0,7.8
		l-2.6,0L618.6,336.6z"/>
	<path fill="#F5F2E0" d="M646.2,336.5l2.6,0l0.1,39.4c0,0.6,0.1,1.1,0.4,1.4c0.2,0.3,0.5,0.4,0.9,0.4c0.1,0,0.2,0,0.4,0
		c0.1,0,0.4,0,0.7-0.1l0.5,2.1c-0.3,0.1-0.6,0.2-0.8,0.2c-0.3,0.1-0.6,0.1-1.1,0.1c-2.3,0-3.5-1.5-3.5-4.5L646.2,336.5z"/>
	<path fill="#F5F2E0" d="M661.7,343.8c-0.7,0-1.2-0.2-1.7-0.7c-0.5-0.4-0.7-1-0.7-1.7c0-0.8,0.2-1.3,0.7-1.8c0.5-0.4,1-0.6,1.7-0.6
		c0.7,0,1.2,0.2,1.7,0.6c0.5,0.4,0.7,1,0.7,1.8c0,0.7-0.2,1.2-0.7,1.7C663,343.6,662.4,343.8,661.7,343.8z M660.4,350.7l2.6,0
		l0.1,28.6l-2.6,0L660.4,350.7z"/>
	<path fill="#F5F2E0" d="M674,350.7l2.3,0l0.2,4.4l0.2,0c1.3-1.5,2.7-2.7,4.2-3.7c1.6-1,3.1-1.5,4.7-1.5c2.3,0,4.1,0.5,5.3,1.6
		c1.2,1.1,2.1,2.5,2.6,4.3c1.7-1.8,3.3-3.2,4.8-4.3c1.6-1.1,3.2-1.6,4.8-1.6c5.7,0,8.6,3.6,8.6,10.9l0,18.3l-2.7,0l0-18
		c0-3.1-0.5-5.3-1.6-6.8c-1-1.4-2.6-2.2-4.8-2.2c-2.6,0-5.4,1.8-8.6,5.4l0.1,21.6l-2.6,0l0-18c0-3.1-0.5-5.3-1.6-6.8
		c-1-1.4-2.7-2.2-4.9-2.2c-2.6,0-5.4,1.8-8.6,5.4l0.1,21.6l-2.6,0L674,350.7z"/>
	<path fill="#F5F2E0" d="M720.8,372c0-3.1,1.5-5.5,4.4-7.2c3-1.7,7.6-2.9,14-3.6c0-1.1,0-2.2-0.2-3.2c-0.2-1.1-0.5-2.1-1-2.9
		c-0.5-0.9-1.2-1.5-2.1-2.1c-0.9-0.5-2-0.8-3.4-0.8c-1.9,0-3.7,0.4-5.3,1.1s-2.9,1.5-3.8,2.2l-1.2-2c0.5-0.4,1.1-0.8,1.9-1.2
		c0.7-0.4,1.5-0.8,2.4-1.2c0.9-0.4,1.9-0.7,2.9-0.9c1.1-0.3,2.2-0.4,3.3-0.4c1.7,0,3.1,0.3,4.3,0.9c1.2,0.6,2.1,1.4,2.8,2.3
		c0.7,1,1.2,2.2,1.5,3.5c0.3,1.3,0.5,2.8,0.5,4.3l0,18.3l-2.2,0l-0.3-3.7l-0.1,0c-1.5,1.2-3,2.2-4.7,3.1c-1.7,0.9-3.5,1.3-5.4,1.4
		c-1.2,0-2.2-0.2-3.2-0.5c-1-0.3-1.9-0.8-2.7-1.4c-0.8-0.6-1.4-1.4-1.8-2.4S720.8,373.3,720.8,372z M723.6,371.8
		c0,2.1,0.6,3.5,1.8,4.4c1.2,0.9,2.6,1.3,4.2,1.3c1.7,0,3.3-0.4,4.8-1.2c1.5-0.8,3.2-2,4.9-3.5l0-9.7c-2.9,0.4-5.4,0.8-7.4,1.3
		c-2,0.5-3.6,1.1-4.8,1.9c-1.2,0.7-2.1,1.5-2.6,2.4C723.8,369.7,723.6,370.7,723.6,371.8z"/>
</g>
<path fill="#253A44" d="M1115.9,1053.2c-200.7,0-363.3-162.7-363.3-363.3s162.7-363.3,363.3-363.3s363.3,162.7,363.3,363.3
	S1316.6,1053.2,1115.9,1053.2z"/>
<g>
	<path fill="#CD5C5C" d="M1433.7,689.6c-1.5,0-2.8-0.3-4-0.9c-1.2-0.6-2.3-1.4-3.1-2.4c-0.9-1.1-1.6-2.3-2-3.8
		c-0.5-1.5-0.7-3.2-0.7-5.1c0-1.9,0.2-3.5,0.7-5c0.5-1.5,1.2-2.7,2-3.8c0.9-1,1.9-1.8,3.1-2.4c1.2-0.5,2.6-0.8,4-0.8
		c1.5,0,2.8,0.3,4,0.8c1.2,0.6,2.3,1.3,3.2,2.4c0.9,1,1.6,2.3,2.1,3.8c0.5,1.5,0.7,3.1,0.7,5c0,1.9-0.2,3.6-0.7,5.1
		c-0.5,1.5-1.2,2.8-2.1,3.8c-0.9,1.1-1.9,1.9-3.2,2.4C1436.5,689.3,1435.1,689.6,1433.7,689.6z M1433.7,687c1,0,2-0.2,2.8-0.7
		c0.8-0.4,1.6-1.1,2.2-1.9c0.6-0.8,1.1-1.8,1.4-3c0.3-1.2,0.5-2.5,0.5-4c0-1.4-0.2-2.7-0.5-3.9c-0.3-1.2-0.8-2.1-1.4-2.9
		c-0.6-0.8-1.3-1.4-2.2-1.9c-0.8-0.4-1.8-0.7-2.8-0.7c-1,0-2,0.2-2.8,0.7c-0.8,0.4-1.6,1.1-2.2,1.9c-0.6,0.8-1.1,1.8-1.4,2.9
		c-0.3,1.2-0.5,2.5-0.5,3.9c0,1.5,0.2,2.8,0.5,4c0.3,1.2,0.8,2.2,1.4,3c0.6,0.8,1.3,1.5,2.2,1.9C1431.7,686.8,1432.6,687,1433.7,687
		z"/>
	<path fill="#CD5C5C" d="M1448,671.9h2.4l0.2,2.5h0.1c0.8-0.8,1.6-1.5,2.5-2.1c0.9-0.6,1.9-0.8,2.9-0.8c1.3,0,2.4,0.3,3.1,0.9
		c0.7,0.6,1.3,1.4,1.7,2.4c0.9-1,1.8-1.8,2.7-2.4c0.9-0.6,1.9-0.9,3-0.9c1.8,0,3.1,0.6,4,1.7c0.9,1.1,1.3,2.8,1.3,5v10.9h-2.9v-10.6
		c0-1.6-0.3-2.8-0.8-3.5c-0.5-0.7-1.3-1.1-2.4-1.1c-1.3,0-2.7,0.9-4.3,2.7v12.5h-2.9v-10.6c0-1.6-0.3-2.8-0.8-3.5
		c-0.5-0.7-1.3-1.1-2.5-1.1c-1.3,0-2.7,0.9-4.3,2.7v12.5h-2.9V671.9z"/>
	<path fill="#CD5C5C" d="M1482.2,671.9h3l3.3,9.8c0.3,0.9,0.5,1.7,0.8,2.6c0.3,0.9,0.5,1.7,0.8,2.5h0.1c0.3-0.8,0.5-1.7,0.8-2.5
		c0.3-0.9,0.5-1.7,0.8-2.6l3.3-9.8h2.9l-6.1,17.3h-3.4L1482.2,671.9z"/>
	<path fill="#CD5C5C" d="M1499.2,680.6c0-1.4,0.2-2.7,0.7-3.9c0.4-1.1,1-2.1,1.8-2.9c0.7-0.8,1.6-1.4,2.5-1.8c1-0.4,2-0.6,3-0.6
		c1.1,0,2.1,0.2,3,0.6c1,0.4,1.8,1,2.5,1.8c0.7,0.8,1.3,1.7,1.8,2.9c0.4,1.1,0.7,2.4,0.7,3.9c0,1.4-0.2,2.7-0.7,3.8
		c-0.4,1.1-1,2.1-1.8,2.8s-1.6,1.4-2.5,1.8c-1,0.4-2,0.6-3,0.6c-1.1,0-2.1-0.2-3-0.6c-1-0.4-1.8-1-2.5-1.8c-0.7-0.8-1.3-1.7-1.8-2.8
		C1499.5,683.2,1499.2,682,1499.2,680.6z M1502.3,680.6c0,1,0.1,1.9,0.4,2.7c0.2,0.8,0.6,1.5,1,2.1c0.4,0.6,1,1,1.6,1.4
		c0.6,0.3,1.3,0.5,2,0.5s1.4-0.2,2-0.5c0.6-0.3,1.1-0.8,1.6-1.4c0.4-0.6,0.8-1.3,1-2.1c0.2-0.8,0.4-1.7,0.4-2.7s-0.1-1.9-0.4-2.7
		c-0.2-0.8-0.6-1.5-1-2.1c-0.4-0.6-1-1-1.6-1.4c-0.6-0.3-1.3-0.5-2-0.5s-1.4,0.2-2,0.5c-0.6,0.3-1.1,0.8-1.6,1.4
		c-0.4,0.6-0.8,1.3-1,2.1C1502.4,678.7,1502.3,679.6,1502.3,680.6z"/>
	<path fill="#CD5C5C" d="M1519.3,671.9h2.4l0.2,3.1h0.1c0.6-1.1,1.3-2,2.2-2.6c0.8-0.6,1.8-1,2.8-1c0.7,0,1.3,0.1,1.8,0.4l-0.6,2.6
		c-0.3-0.1-0.5-0.2-0.8-0.2c-0.2,0-0.5-0.1-0.9-0.1c-0.7,0-1.5,0.3-2.3,0.9c-0.8,0.6-1.5,1.6-2.1,3.1v11.1h-2.9V671.9z"/>
	<path fill="#CD5C5C" d="M1529.8,680.6c0-1.4,0.2-2.7,0.7-3.8c0.4-1.1,1-2.1,1.7-2.9c0.7-0.8,1.5-1.4,2.5-1.8
		c0.9-0.4,1.9-0.6,2.9-0.6c1.1,0,2.1,0.2,2.9,0.6c0.9,0.4,1.6,0.9,2.2,1.6c0.6,0.7,1,1.6,1.3,2.6c0.3,1,0.5,2.1,0.5,3.3
		c0,0.6,0,1.2-0.1,1.6h-11.7c0.1,1.9,0.7,3.4,1.7,4.4c1,1.1,2.4,1.6,4,1.6c0.8,0,1.6-0.1,2.3-0.4s1.4-0.6,2-1l1,1.9
		c-0.8,0.5-1.6,0.9-2.5,1.2c-0.9,0.4-2,0.5-3.2,0.5c-1.2,0-2.2-0.2-3.2-0.6c-1-0.4-1.9-1-2.6-1.8c-0.7-0.8-1.3-1.7-1.8-2.8
		C1530,683.2,1529.8,682,1529.8,680.6z M1541.9,679.2c0-1.8-0.4-3.1-1.1-4.1c-0.7-0.9-1.8-1.4-3.1-1.4c-0.6,0-1.2,0.1-1.8,0.4
		c-0.6,0.2-1.1,0.6-1.5,1.1c-0.5,0.5-0.8,1-1.1,1.7c-0.3,0.7-0.5,1.5-0.6,2.3H1541.9z"/>
	<path fill="#CD5C5C" d="M1548.1,685.2c0.8,0.6,1.5,1.1,2.3,1.5c0.8,0.4,1.7,0.6,2.8,0.6c1.1,0,2-0.3,2.6-0.8
		c0.6-0.5,0.9-1.2,0.9-1.9c0-0.4-0.1-0.8-0.4-1.2s-0.5-0.6-0.9-0.9c-0.4-0.2-0.8-0.5-1.3-0.7c-0.5-0.2-0.9-0.4-1.4-0.6
		c-0.6-0.2-1.2-0.5-1.8-0.7c-0.6-0.3-1.2-0.6-1.7-1c-0.5-0.4-0.9-0.8-1.2-1.4c-0.3-0.5-0.5-1.1-0.5-1.9c0-0.7,0.1-1.3,0.4-1.9
		c0.3-0.6,0.7-1.1,1.2-1.6c0.5-0.4,1.1-0.8,1.9-1c0.7-0.2,1.6-0.4,2.5-0.4c1.1,0,2.1,0.2,3,0.6c0.9,0.4,1.7,0.8,2.4,1.4l-1.4,1.8
		c-0.6-0.4-1.2-0.8-1.8-1.1c-0.6-0.3-1.3-0.4-2.1-0.4c-1.1,0-1.9,0.2-2.4,0.7c-0.5,0.5-0.8,1.1-0.8,1.7c0,0.4,0.1,0.8,0.3,1
		c0.2,0.3,0.5,0.6,0.9,0.8c0.4,0.2,0.8,0.4,1.2,0.6c0.5,0.2,0.9,0.4,1.4,0.6c0.6,0.2,1.2,0.5,1.9,0.7c0.6,0.3,1.2,0.6,1.7,1
		c0.5,0.4,0.9,0.9,1.2,1.4c0.3,0.6,0.5,1.3,0.5,2.1c0,0.7-0.1,1.4-0.4,2c-0.3,0.6-0.7,1.2-1.2,1.6c-0.5,0.5-1.2,0.8-2,1.1
		c-0.8,0.3-1.7,0.4-2.7,0.4c-1.2,0-2.4-0.2-3.5-0.7s-2.1-1-2.9-1.7L1548.1,685.2z"/>
	<path fill="#CD5C5C" d="M1570.6,671.9h2.4l0.2,2.5h0.1c0.8-0.8,1.6-1.5,2.5-2.1c0.9-0.6,1.9-0.8,2.9-0.8c1.3,0,2.4,0.3,3.1,0.9
		c0.7,0.6,1.3,1.4,1.7,2.4c0.9-1,1.8-1.8,2.7-2.4c0.9-0.6,1.9-0.9,3-0.9c1.8,0,3.1,0.6,4,1.7c0.9,1.1,1.3,2.8,1.3,5v10.9h-2.9v-10.6
		c0-1.6-0.3-2.8-0.8-3.5c-0.5-0.7-1.3-1.1-2.4-1.1c-1.3,0-2.7,0.9-4.3,2.7v12.5h-2.9v-10.6c0-1.6-0.3-2.8-0.8-3.5
		c-0.5-0.7-1.3-1.1-2.5-1.1c-1.3,0-2.7,0.9-4.3,2.7v12.5h-2.9V671.9z"/>
	<path fill="#CD5C5C" d="M1598.4,684.7c0-1.9,0.8-3.3,2.5-4.4c1.7-1,4.4-1.7,8.1-2.1c0-0.5-0.1-1.1-0.2-1.6c-0.1-0.5-0.3-1-0.6-1.4
		c-0.3-0.4-0.6-0.7-1.1-1c-0.4-0.2-1-0.4-1.7-0.4c-1,0-2,0.2-2.8,0.6c-0.9,0.4-1.6,0.8-2.3,1.3l-1.2-2c0.8-0.5,1.8-1,2.9-1.5
		c1.2-0.5,2.4-0.7,3.8-0.7c2.1,0,3.6,0.6,4.6,1.9c0.9,1.3,1.4,3,1.4,5.2v10.6h-2.4l-0.2-2.1h-0.1c-0.8,0.7-1.7,1.3-2.7,1.8
		c-1,0.5-2,0.7-3,0.7c-1.5,0-2.7-0.4-3.6-1.3C1598.9,687.4,1598.4,686.2,1598.4,684.7z M1601.3,684.5c0,1,0.3,1.7,0.9,2.1
		c0.6,0.4,1.3,0.6,2.1,0.6c0.8,0,1.6-0.2,2.4-0.6c0.7-0.4,1.5-1,2.4-1.7v-4.8c-1.4,0.2-2.7,0.4-3.7,0.7c-1,0.3-1.8,0.6-2.4,0.9
		c-0.6,0.4-1,0.8-1.3,1.2C1601.4,683.4,1601.3,683.9,1601.3,684.5z"/>
	<path fill="#CD5C5C" d="M1615.8,680.6c0-1.4,0.2-2.7,0.6-3.8c0.4-1.1,1-2.1,1.7-2.9c0.7-0.8,1.5-1.4,2.4-1.8
		c0.9-0.4,1.8-0.6,2.8-0.6s1.9,0.2,2.6,0.5c0.7,0.4,1.5,0.8,2.2,1.5l-0.1-2.9v-6.6h2.9v25.3h-2.4l-0.2-2h-0.1
		c-0.7,0.7-1.5,1.2-2.4,1.7c-0.9,0.5-1.8,0.7-2.9,0.7c-2.2,0-3.9-0.8-5.2-2.3C1616.5,685.7,1615.8,683.4,1615.8,680.6z
		 M1618.9,680.5c0,2.1,0.4,3.7,1.2,4.9c0.8,1.2,2,1.7,3.5,1.7c0.8,0,1.6-0.2,2.3-0.6c0.7-0.4,1.4-1,2.1-1.8v-9
		c-0.7-0.7-1.4-1.1-2.1-1.4c-0.7-0.3-1.4-0.4-2.1-0.4c-0.7,0-1.3,0.2-1.9,0.5c-0.6,0.3-1.1,0.8-1.6,1.3c-0.5,0.6-0.8,1.3-1.1,2.1
		C1619,678.6,1618.9,679.5,1618.9,680.5z"/>
	<path fill="#CD5C5C" d="M1635,693.5c1-0.5,1.8-1,2.3-1.8c0.6-0.7,0.9-1.6,0.9-2.6c-0.1,0-0.2,0-0.4,0c-0.6,0-1.1-0.2-1.5-0.5
		c-0.4-0.3-0.6-0.8-0.6-1.5c0-0.6,0.2-1.1,0.6-1.5s0.9-0.6,1.5-0.6c0.8,0,1.4,0.3,1.8,0.9c0.4,0.6,0.7,1.5,0.7,2.5
		c0,1.5-0.4,2.9-1.2,4c-0.8,1.1-2,2-3.4,2.6L1635,693.5z"/>
	<path fill="#CD5C5C" d="M1652.3,671.9h2.4l0.2,2.5h0.1c0.8-0.8,1.6-1.5,2.5-2.1c0.9-0.6,1.9-0.8,2.9-0.8c1.3,0,2.4,0.3,3.1,0.9
		c0.7,0.6,1.3,1.4,1.7,2.4c0.9-1,1.8-1.8,2.7-2.4c0.9-0.6,1.9-0.9,3-0.9c1.8,0,3.1,0.6,4,1.7c0.9,1.1,1.3,2.8,1.3,5v10.9h-2.9v-10.6
		c0-1.6-0.3-2.8-0.8-3.5c-0.5-0.7-1.3-1.1-2.4-1.1c-1.3,0-2.7,0.9-4.3,2.7v12.5h-2.9v-10.6c0-1.6-0.3-2.8-0.8-3.5
		c-0.5-0.7-1.3-1.1-2.5-1.1c-1.3,0-2.7,0.9-4.3,2.7v12.5h-2.9V671.9z"/>
	<path fill="#CD5C5C" d="M1682.5,668.3c-0.6,0-1-0.2-1.4-0.5c-0.4-0.4-0.6-0.8-0.6-1.4c0-0.6,0.2-1,0.6-1.4c0.4-0.3,0.9-0.5,1.4-0.5
		c0.6,0,1,0.2,1.4,0.5c0.4,0.3,0.6,0.8,0.6,1.4c0,0.5-0.2,1-0.6,1.4C1683.5,668.2,1683.1,668.3,1682.5,668.3z M1681,671.9h2.9v17.3
		h-2.9V671.9z"/>
	<path fill="#CD5C5C" d="M1689,663.9h2.9v22c0,0.5,0.1,0.8,0.2,1c0.2,0.2,0.4,0.3,0.6,0.3c0.1,0,0.2,0,0.3,0c0.1,0,0.2,0,0.4-0.1
		l0.4,2.2c-0.2,0.1-0.4,0.2-0.7,0.2c-0.3,0-0.6,0.1-1,0.1c-1.1,0-1.9-0.3-2.4-1s-0.7-1.6-0.7-2.9V663.9z"/>
	<path fill="#CD5C5C" d="M1697.3,671.9h2.9v19.2c0,1.8-0.4,3.1-1.1,4.2c-0.7,1-1.9,1.6-3.7,1.6c-0.5,0-1,0-1.5-0.1
		c-0.4-0.1-0.8-0.2-1.1-0.3l0.6-2.2c0.2,0.1,0.5,0.1,0.7,0.2s0.6,0.1,0.9,0.1c0.9,0,1.4-0.3,1.7-0.9c0.3-0.6,0.4-1.4,0.4-2.5V671.9z
		 M1698.8,668.3c-0.6,0-1-0.2-1.4-0.5c-0.4-0.4-0.6-0.8-0.6-1.4c0-0.6,0.2-1,0.6-1.4c0.4-0.3,0.9-0.5,1.4-0.5c0.5,0,1,0.2,1.4,0.5
		c0.4,0.3,0.6,0.8,0.6,1.4c0,0.5-0.2,1-0.6,1.4C1699.8,668.2,1699.4,668.3,1698.8,668.3z"/>
	<path fill="#CD5C5C" d="M1718.4,674.4c0.6,0.8,1.1,1.7,1.4,2.7c0.3,1,0.5,2.2,0.5,3.5c0,1.4-0.2,2.7-0.7,3.8
		c-0.4,1.1-1,2.1-1.8,2.8s-1.6,1.4-2.5,1.8c-1,0.4-2,0.6-3,0.6c-1.9,0-3.5-0.6-4.9-1.7l-1.7,2.1l-1.3-1l1.9-2.3
		c-0.6-0.8-1.1-1.6-1.4-2.6c-0.3-1-0.5-2.1-0.5-3.4c0-1.4,0.2-2.7,0.7-3.9c0.4-1.1,1-2.1,1.8-2.9c0.7-0.8,1.6-1.4,2.5-1.8
		c1-0.4,2-0.6,3-0.6c0.9,0,1.8,0.1,2.6,0.4c0.9,0.3,1.6,0.7,2.3,1.3l1.8-2.2l1.3,1L1718.4,674.4z M1715.7,675.2
		c-0.9-0.9-2-1.4-3.3-1.4c-0.7,0-1.4,0.2-2,0.5c-0.6,0.3-1.2,0.8-1.6,1.4c-0.4,0.6-0.8,1.3-1.1,2.1c-0.3,0.8-0.4,1.7-0.4,2.7
		c0,1.6,0.3,2.9,0.8,4L1715.7,675.2z M1709,685.8c0.9,0.9,2,1.4,3.3,1.4c0.7,0,1.4-0.2,2-0.5c0.6-0.3,1.2-0.8,1.6-1.3
		c0.5-0.6,0.8-1.3,1.1-2.1c0.2-0.8,0.4-1.7,0.4-2.7c0-1.6-0.3-2.9-0.9-4.1L1709,685.8z"/>
	<path fill="#CD5C5C" d="M1730.8,680.6c0-1.4,0.2-2.7,0.7-3.9c0.4-1.1,1-2.1,1.8-2.9c0.7-0.8,1.6-1.4,2.5-1.8s2-0.6,3-0.6
		c1.1,0,2.1,0.2,3,0.6c1,0.4,1.8,1,2.5,1.8c0.7,0.8,1.3,1.7,1.8,2.9c0.4,1.1,0.7,2.4,0.7,3.9c0,1.4-0.2,2.7-0.7,3.8
		c-0.4,1.1-1,2.1-1.8,2.8s-1.6,1.4-2.5,1.8c-1,0.4-2,0.6-3,0.6c-1.1,0-2.1-0.2-3-0.6c-1-0.4-1.8-1-2.5-1.8c-0.7-0.8-1.3-1.7-1.8-2.8
		C1731,683.2,1730.8,682,1730.8,680.6z M1733.8,680.6c0,1,0.1,1.9,0.4,2.7c0.2,0.8,0.6,1.5,1,2.1c0.4,0.6,1,1,1.6,1.4
		c0.6,0.3,1.3,0.5,2,0.5s1.4-0.2,2-0.5c0.6-0.3,1.1-0.8,1.6-1.4c0.4-0.6,0.8-1.3,1-2.1c0.2-0.8,0.4-1.7,0.4-2.7s-0.1-1.9-0.4-2.7
		c-0.2-0.8-0.6-1.5-1-2.1c-0.4-0.6-1-1-1.6-1.4c-0.6-0.3-1.3-0.5-2-0.5s-1.4,0.2-2,0.5c-0.6,0.3-1.1,0.8-1.6,1.4
		c-0.4,0.6-0.8,1.3-1,2.1C1733.9,678.7,1733.8,679.6,1733.8,680.6z"/>
	<path fill="#CD5C5C" d="M1749.4,692.5c0-0.7,0.2-1.4,0.7-2.1c0.4-0.7,1.1-1.3,1.8-1.8v-0.1c-0.4-0.3-0.8-0.6-1.1-1.1
		c-0.3-0.5-0.4-1-0.4-1.7c0-0.7,0.2-1.4,0.6-1.9c0.4-0.5,0.8-1,1.3-1.3v-0.1c-0.6-0.5-1.1-1.1-1.5-1.9c-0.5-0.8-0.7-1.7-0.7-2.8
		c0-0.9,0.2-1.8,0.5-2.6c0.3-0.8,0.8-1.4,1.4-1.9c0.6-0.5,1.3-0.9,2.1-1.2s1.6-0.4,2.5-0.4c0.5,0,0.9,0,1.3,0.1
		c0.4,0.1,0.8,0.2,1.1,0.3h6v2.2h-3.6c0.4,0.4,0.7,0.9,1,1.5c0.3,0.6,0.4,1.3,0.4,2c0,0.9-0.2,1.8-0.5,2.5c-0.3,0.7-0.8,1.4-1.3,1.9
		c-0.6,0.5-1.2,0.9-2,1.2c-0.8,0.3-1.6,0.4-2.5,0.4c-0.4,0-0.9-0.1-1.3-0.2c-0.5-0.1-0.9-0.3-1.3-0.4c-0.3,0.3-0.6,0.6-0.8,0.9
		c-0.2,0.3-0.3,0.7-0.3,1.2c0,0.5,0.2,1,0.6,1.4c0.4,0.4,1.2,0.5,2.4,0.5h3.3c2,0,3.5,0.3,4.5,1c1,0.7,1.5,1.7,1.5,3.1
		c0,0.8-0.2,1.6-0.6,2.3c-0.4,0.7-1,1.4-1.7,1.9c-0.8,0.5-1.7,1-2.8,1.3c-1.1,0.3-2.3,0.5-3.6,0.5c-1.1,0-2-0.1-2.9-0.3
		c-0.9-0.2-1.6-0.5-2.3-0.9c-0.6-0.4-1.1-0.9-1.5-1.5C1749.6,693.9,1749.4,693.2,1749.4,692.5z M1752,692.1c0,0.9,0.4,1.7,1.3,2.2
		c0.9,0.5,2.1,0.8,3.7,0.8c0.8,0,1.6-0.1,2.3-0.3c0.7-0.2,1.2-0.5,1.7-0.8c0.5-0.3,0.8-0.7,1.1-1.1c0.3-0.4,0.4-0.9,0.4-1.3
		c0-0.8-0.3-1.4-0.9-1.7c-0.6-0.3-1.5-0.5-2.6-0.5h-3c-0.3,0-0.7,0-1.1-0.1c-0.4,0-0.8-0.1-1.2-0.2c-0.6,0.4-1.1,0.9-1.4,1.4
		C1752.1,691.1,1752,691.6,1752,692.1z M1756.5,681.7c0.5,0,1-0.1,1.4-0.3c0.4-0.2,0.8-0.5,1.2-0.8c0.3-0.4,0.6-0.8,0.8-1.3
		c0.2-0.5,0.3-1.1,0.3-1.7c0-1.3-0.4-2.3-1.1-3c-0.7-0.7-1.6-1-2.6-1s-1.9,0.3-2.6,1c-0.7,0.7-1.1,1.7-1.1,3c0,0.6,0.1,1.2,0.3,1.7
		c0.2,0.5,0.5,0.9,0.8,1.3c0.3,0.4,0.7,0.6,1.2,0.8C1755.6,681.6,1756,681.7,1756.5,681.7z"/>
	<path fill="#CD5C5C" d="M1775.8,663.9h2.9V681h0.1l7.4-9.1h3.2l-5.8,6.9l6.6,10.3h-3.2l-5-8.3l-3.2,3.8v4.5h-2.9V663.9z"/>
	<path fill="#CD5C5C" d="M1792.8,663.9h2.9v22c0,0.5,0.1,0.8,0.2,1c0.2,0.2,0.4,0.3,0.6,0.3c0.1,0,0.2,0,0.3,0c0.1,0,0.2,0,0.4-0.1
		l0.4,2.2c-0.2,0.1-0.4,0.2-0.7,0.2c-0.3,0-0.6,0.1-1,0.1c-1.1,0-1.9-0.3-2.4-1c-0.5-0.7-0.7-1.6-0.7-2.9V663.9z"/>
	<path fill="#CD5C5C" d="M1802.6,668.3c-0.6,0-1-0.2-1.4-0.5c-0.4-0.4-0.6-0.8-0.6-1.4c0-0.6,0.2-1,0.6-1.4c0.4-0.3,0.9-0.5,1.4-0.5
		c0.6,0,1,0.2,1.4,0.5c0.4,0.3,0.6,0.8,0.6,1.4c0,0.5-0.2,1-0.6,1.4C1803.7,668.2,1803.2,668.3,1802.6,668.3z M1801.1,671.9h2.9
		v17.3h-2.9V671.9z"/>
	<path fill="#CD5C5C" d="M1809.2,671.9h2.4l0.2,2.5h0.1c0.8-0.8,1.6-1.5,2.5-2.1c0.9-0.6,1.9-0.8,2.9-0.8c1.3,0,2.4,0.3,3.1,0.9
		c0.7,0.6,1.3,1.4,1.7,2.4c0.9-1,1.8-1.8,2.7-2.4c0.9-0.6,1.9-0.9,3-0.9c1.8,0,3.1,0.6,4,1.7c0.9,1.1,1.3,2.8,1.3,5v10.9h-2.9v-10.6
		c0-1.6-0.3-2.8-0.8-3.5c-0.5-0.7-1.3-1.1-2.4-1.1c-1.3,0-2.7,0.9-4.3,2.7v12.5h-2.9v-10.6c0-1.6-0.3-2.8-0.8-3.5
		c-0.5-0.7-1.3-1.1-2.5-1.1c-1.3,0-2.7,0.9-4.3,2.7v12.5h-2.9V671.9z"/>
	<path fill="#CD5C5C" d="M1837,684.7c0-1.9,0.8-3.3,2.5-4.4c1.7-1,4.4-1.7,8.1-2.1c0-0.5-0.1-1.1-0.2-1.6c-0.1-0.5-0.3-1-0.6-1.4
		c-0.3-0.4-0.6-0.7-1.1-1c-0.4-0.2-1-0.4-1.7-0.4c-1,0-2,0.2-2.8,0.6c-0.9,0.4-1.6,0.8-2.3,1.3l-1.2-2c0.8-0.5,1.8-1,2.9-1.5
		c1.2-0.5,2.4-0.7,3.8-0.7c2.1,0,3.6,0.6,4.6,1.9c0.9,1.3,1.4,3,1.4,5.2v10.6h-2.4l-0.2-2.1h-0.1c-0.8,0.7-1.7,1.3-2.7,1.8
		c-1,0.5-2,0.7-3,0.7c-1.5,0-2.7-0.4-3.6-1.3C1837.5,687.4,1837,686.2,1837,684.7z M1839.9,684.5c0,1,0.3,1.7,0.9,2.1
		c0.6,0.4,1.3,0.6,2.2,0.6c0.8,0,1.6-0.2,2.4-0.6c0.7-0.4,1.5-1,2.4-1.7v-4.8c-1.4,0.2-2.7,0.4-3.7,0.7c-1,0.3-1.8,0.6-2.4,0.9
		c-0.6,0.4-1,0.8-1.3,1.2C1840,683.4,1839.9,683.9,1839.9,684.5z"/>
</g>
<g>
	<path fill="#F5F2E0" d="M-164.5,999.3c-2.1,0-4-0.4-5.7-1.2c-1.7-0.8-3.2-1.9-4.4-3.4c-1.2-1.5-2.2-3.3-2.9-5.4
		c-0.7-2.1-1-4.5-1-7.1c0-2.6,0.3-5,1-7.1c0.7-2.1,1.6-3.8,2.9-5.3c1.2-1.4,2.7-2.6,4.4-3.3c1.7-0.8,3.6-1.1,5.7-1.1
		c2.1,0,4,0.4,5.7,1.2c1.7,0.8,3.2,1.9,4.4,3.3c1.2,1.4,2.2,3.2,2.9,5.3c0.7,2.1,1,4.4,1,7c0,2.6-0.3,5-1,7.1
		c-0.7,2.1-1.6,3.9-2.9,5.4c-1.2,1.5-2.7,2.6-4.4,3.4C-160.5,998.9-162.4,999.3-164.5,999.3z M-164.5,995.7c1.5,0,2.8-0.3,4-0.9
		c1.2-0.6,2.2-1.5,3-2.7c0.8-1.2,1.5-2.6,2-4.2c0.5-1.6,0.7-3.5,0.7-5.6c0-2-0.2-3.9-0.7-5.5c-0.5-1.6-1.1-3-2-4.1
		c-0.8-1.1-1.9-2-3-2.6c-1.2-0.6-2.5-0.9-4-0.9c-1.5,0-2.8,0.3-4,0.9c-1.2,0.6-2.2,1.5-3,2.6c-0.8,1.1-1.5,2.5-2,4.1
		c-0.5,1.6-0.7,3.5-0.7,5.5c0,2.1,0.2,3.9,0.7,5.6c0.5,1.6,1.1,3.1,2,4.2c0.8,1.2,1.9,2.1,3,2.7C-167.3,995.4-166,995.7-164.5,995.7
		z"/>
	<path fill="#F5F2E0" d="M-144.3,974.5h3.4l0.3,3.5h0.2c1.1-1.2,2.2-2.1,3.5-2.9c1.2-0.8,2.6-1.2,4.1-1.2c1.9,0,3.3,0.4,4.4,1.2
		c1,0.8,1.8,2,2.3,3.4c1.3-1.4,2.5-2.5,3.8-3.4c1.3-0.8,2.7-1.3,4.2-1.3c2.5,0,4.4,0.8,5.6,2.4c1.2,1.6,1.8,4,1.8,7.1v15.4h-4.1
		v-14.8c0-2.3-0.4-4-1.1-5c-0.7-1-1.9-1.5-3.4-1.5c-1.8,0-3.9,1.2-6.1,3.7v17.6h-4.1v-14.8c0-2.3-0.4-4-1.1-5
		c-0.7-1-1.9-1.5-3.4-1.5c-1.8,0-3.9,1.2-6.1,3.7v17.6h-4.1V974.5z"/>
	<path fill="#F5F2E0" d="M-96.2,974.5h4.2l4.6,13.8c0.4,1.2,0.7,2.4,1.1,3.6c0.4,1.2,0.8,2.4,1.1,3.5h0.2c0.4-1.2,0.7-2.3,1.1-3.5
		c0.4-1.2,0.7-2.4,1.1-3.6l4.6-13.8h4l-8.6,24.3h-4.8L-96.2,974.5z"/>
	<path fill="#F5F2E0" d="M-72.3,986.6c0-2,0.3-3.8,0.9-5.4c0.6-1.6,1.4-2.9,2.5-4c1-1.1,2.2-1.9,3.6-2.5c1.3-0.6,2.8-0.8,4.3-0.8
		c1.5,0,2.9,0.3,4.3,0.8c1.3,0.6,2.5,1.4,3.6,2.5c1,1.1,1.9,2.4,2.5,4c0.6,1.6,0.9,3.4,0.9,5.4c0,2-0.3,3.8-0.9,5.4
		c-0.6,1.6-1.4,2.9-2.5,4c-1,1.1-2.2,1.9-3.6,2.5c-1.3,0.6-2.8,0.8-4.3,0.8c-1.5,0-2.9-0.3-4.3-0.8c-1.3-0.6-2.5-1.4-3.6-2.5
		c-1-1.1-1.9-2.4-2.5-4C-71.9,990.4-72.3,988.6-72.3,986.6z M-68,986.6c0,1.4,0.2,2.7,0.5,3.8c0.3,1.1,0.8,2.1,1.4,2.9
		c0.6,0.8,1.4,1.4,2.2,1.9c0.9,0.4,1.8,0.7,2.8,0.7c1,0,2-0.2,2.8-0.7c0.9-0.4,1.6-1.1,2.2-1.9c0.6-0.8,1.1-1.8,1.4-2.9
		c0.3-1.1,0.5-2.4,0.5-3.8c0-1.4-0.2-2.7-0.5-3.8c-0.3-1.2-0.8-2.1-1.4-3c-0.6-0.8-1.4-1.5-2.2-1.9c-0.9-0.4-1.8-0.7-2.8-0.7
		c-1,0-2,0.2-2.8,0.7c-0.9,0.4-1.6,1.1-2.2,1.9c-0.6,0.8-1.1,1.8-1.4,3C-67.8,984-68,985.2-68,986.6z"/>
	<path fill="#F5F2E0" d="M-44.1,974.5h3.4l0.3,4.4h0.1c0.8-1.5,1.8-2.7,3-3.6c1.2-0.9,2.5-1.3,3.9-1.3c1,0,1.8,0.2,2.6,0.5l-0.8,3.6
		c-0.4-0.1-0.8-0.2-1.1-0.3c-0.3-0.1-0.8-0.1-1.2-0.1c-1,0-2.1,0.4-3.2,1.2c-1.1,0.8-2.1,2.3-2.9,4.3v15.6h-4.1V974.5z"/>
	<path fill="#F5F2E0" d="M-29.2,986.6c0-2,0.3-3.8,0.9-5.4c0.6-1.6,1.4-2.9,2.4-4c1-1.1,2.2-1.9,3.5-2.5c1.3-0.6,2.6-0.9,4-0.9
		c1.5,0,2.9,0.3,4.1,0.8c1.2,0.5,2.2,1.3,3,2.3c0.8,1,1.4,2.2,1.9,3.6c0.4,1.4,0.7,3,0.7,4.7c0,0.9-0.1,1.7-0.2,2.2h-16.4
		c0.2,2.6,1,4.7,2.4,6.2c1.4,1.5,3.3,2.3,5.7,2.3c1.2,0,2.2-0.2,3.2-0.5c1-0.3,1.9-0.8,2.8-1.4l1.4,2.7c-1.1,0.7-2.2,1.3-3.5,1.7
		c-1.3,0.5-2.8,0.8-4.4,0.8c-1.6,0-3.2-0.3-4.6-0.9c-1.4-0.6-2.6-1.4-3.7-2.5c-1-1.1-1.9-2.4-2.5-4
		C-28.9,990.4-29.2,988.6-29.2,986.6z M-12.2,984.8c0-2.5-0.5-4.4-1.6-5.7c-1-1.3-2.5-2-4.4-2c-0.9,0-1.7,0.2-2.5,0.5
		c-0.8,0.3-1.5,0.8-2.1,1.5c-0.6,0.7-1.2,1.4-1.6,2.4c-0.4,0.9-0.7,2-0.8,3.3H-12.2z"/>
	<path fill="#F5F2E0" d="M-3.6,993.2c1.1,0.9,2.2,1.6,3.3,2.1c1.1,0.5,2.4,0.8,3.9,0.8c1.6,0,2.8-0.4,3.6-1.1s1.2-1.6,1.2-2.7
		c0-0.6-0.2-1.2-0.5-1.6s-0.8-0.9-1.3-1.2c-0.5-0.3-1.1-0.7-1.8-0.9s-1.3-0.5-2-0.8c-0.9-0.3-1.7-0.6-2.6-1
		c-0.9-0.4-1.6-0.9-2.3-1.4c-0.7-0.6-1.2-1.2-1.7-1.9c-0.4-0.7-0.6-1.6-0.6-2.6c0-1,0.2-1.9,0.6-2.7c0.4-0.8,0.9-1.6,1.6-2.2
		c0.7-0.6,1.6-1.1,2.6-1.4c1-0.3,2.2-0.5,3.5-0.5c1.5,0,2.9,0.3,4.2,0.8c1.3,0.5,2.4,1.2,3.3,1.9l-1.9,2.6c-0.8-0.6-1.7-1.2-2.6-1.5
		c-0.9-0.4-1.9-0.6-2.9-0.6c-1.5,0-2.7,0.3-3.4,1c-0.7,0.7-1.1,1.5-1.1,2.4c0,0.6,0.1,1.1,0.4,1.5c0.3,0.4,0.7,0.8,1.2,1.1
		c0.5,0.3,1.1,0.6,1.7,0.8c0.7,0.2,1.3,0.5,2,0.8c0.9,0.3,1.7,0.7,2.6,1c0.9,0.4,1.7,0.8,2.4,1.4c0.7,0.6,1.3,1.2,1.7,2
		s0.7,1.8,0.7,2.9c0,1-0.2,1.9-0.6,2.8c-0.4,0.9-0.9,1.6-1.7,2.3c-0.8,0.7-1.7,1.2-2.8,1.6c-1.1,0.4-2.4,0.6-3.8,0.6
		c-1.7,0-3.4-0.3-4.9-0.9c-1.6-0.6-2.9-1.4-4.1-2.4L-3.6,993.2z"/>
	<path fill="#F5F2E0" d="M28.1,974.5h3.4l0.3,3.5H32c1.1-1.2,2.2-2.1,3.5-2.9s2.6-1.2,4.1-1.2c1.9,0,3.3,0.4,4.4,1.2
		c1,0.8,1.8,2,2.3,3.4c1.3-1.4,2.5-2.5,3.8-3.4c1.3-0.8,2.7-1.3,4.2-1.3c2.5,0,4.4,0.8,5.6,2.4c1.2,1.6,1.8,4,1.8,7.1v15.4h-4.1
		v-14.8c0-2.3-0.4-4-1.1-5s-1.9-1.5-3.4-1.5c-1.8,0-3.9,1.2-6.1,3.7v17.6h-4.1v-14.8c0-2.3-0.4-4-1.1-5c-0.7-1-1.9-1.5-3.4-1.5
		c-1.8,0-3.9,1.2-6.1,3.7v17.6h-4.1V974.5z"/>
	<path fill="#F5F2E0" d="M67.3,992.4c0-2.7,1.2-4.7,3.6-6.1c2.4-1.4,6.2-2.4,11.4-3c0-0.8-0.1-1.5-0.2-2.2c-0.1-0.7-0.4-1.4-0.8-1.9
		c-0.4-0.6-0.9-1-1.5-1.4c-0.6-0.3-1.4-0.5-2.4-0.5c-1.4,0-2.8,0.3-4,0.8c-1.2,0.5-2.3,1.1-3.3,1.8l-1.6-2.8
		c1.1-0.7,2.5-1.4,4.1-2.1c1.6-0.7,3.4-1,5.4-1c3,0,5.1,0.9,6.4,2.7c1.3,1.8,2,4.2,2,7.3v14.9h-3.4l-0.3-2.9h-0.1
		c-1.2,1-2.4,1.8-3.8,2.5c-1.3,0.7-2.8,1-4.3,1c-2.1,0-3.8-0.6-5.1-1.8C67.9,996.3,67.3,994.6,67.3,992.4z M71.3,992.1
		c0,1.4,0.4,2.4,1.2,3c0.8,0.6,1.8,0.9,3,0.9c1.2,0,2.3-0.3,3.3-0.8c1-0.5,2.2-1.4,3.3-2.4V986c-2,0.3-3.7,0.6-5.1,0.9
		c-1.4,0.4-2.5,0.8-3.4,1.3c-0.8,0.5-1.5,1.1-1.8,1.7C71.5,990.7,71.3,991.4,71.3,992.1z"/>
	<path fill="#F5F2E0" d="M91.7,986.6c0-2,0.3-3.7,0.9-5.3c0.6-1.6,1.4-2.9,2.3-4s2.1-1.9,3.3-2.5c1.3-0.6,2.6-0.9,4-0.9
		c1.4,0,2.6,0.2,3.6,0.7c1,0.5,2.1,1.2,3.1,2l-0.2-4.1v-9.3h4.1v35.6h-3.4l-0.3-2.8h-0.2c-1,0.9-2.1,1.7-3.3,2.4c-1.2,0.7-2.6,1-4,1
		c-3.1,0-5.5-1.1-7.3-3.3C92.6,993.8,91.7,990.7,91.7,986.6z M96,986.6c0,2.9,0.6,5.2,1.7,6.8c1.2,1.6,2.8,2.4,4.9,2.4
		c1.1,0,2.2-0.3,3.2-0.8c1-0.6,2-1.4,3-2.5v-12.7c-1-0.9-2-1.6-3-2c-0.9-0.4-1.9-0.6-2.9-0.6c-1,0-1.9,0.2-2.7,0.7
		c-0.8,0.4-1.6,1.1-2.2,1.9c-0.6,0.8-1.1,1.8-1.5,2.9C96.2,983.9,96,985.2,96,986.6z"/>
	<path fill="#F5F2E0" d="M118.7,1004.8c1.4-0.6,2.5-1.5,3.3-2.5c0.8-1,1.2-2.2,1.2-3.6c-0.1,0-0.3,0.1-0.5,0.1
		c-0.8,0-1.5-0.2-2.1-0.7c-0.6-0.5-0.9-1.2-0.9-2.1c0-0.9,0.3-1.6,0.9-2.1c0.6-0.5,1.3-0.8,2.1-0.8c1.1,0,1.9,0.4,2.5,1.3
		c0.6,0.9,0.9,2,0.9,3.5c0,2.2-0.6,4-1.7,5.6c-1.2,1.6-2.8,2.8-4.8,3.7L118.7,1004.8z"/>
	<path fill="#F5F2E0" d="M143,974.5h3.4l0.3,3.5h0.1c1.1-1.2,2.2-2.1,3.5-2.9s2.6-1.2,4.1-1.2c1.9,0,3.3,0.4,4.4,1.2
		c1,0.8,1.8,2,2.3,3.4c1.3-1.4,2.5-2.5,3.8-3.4c1.3-0.8,2.7-1.3,4.2-1.3c2.5,0,4.4,0.8,5.6,2.4c1.2,1.6,1.8,4,1.8,7.1v15.4h-4.1
		v-14.8c0-2.3-0.4-4-1.1-5c-0.7-1-1.9-1.5-3.4-1.5c-1.8,0-3.9,1.2-6.1,3.7v17.6h-4.1v-14.8c0-2.3-0.4-4-1.1-5
		c-0.7-1-1.9-1.5-3.4-1.5c-1.8,0-3.9,1.2-6.1,3.7v17.6H143V974.5z"/>
	<path fill="#F5F2E0" d="M185.5,969.5c-0.8,0-1.5-0.2-2-0.7c-0.6-0.5-0.8-1.1-0.8-1.9c0-0.8,0.3-1.4,0.8-1.9c0.5-0.5,1.2-0.7,2-0.7
		c0.8,0,1.5,0.2,2,0.7c0.6,0.5,0.8,1.1,0.8,1.9c0,0.8-0.3,1.4-0.8,1.9C187,969.2,186.3,969.5,185.5,969.5z M183.4,974.5h4.1v24.3
		h-4.1V974.5z"/>
	<path fill="#F5F2E0" d="M194.6,963.2h4.1v31c0,0.7,0.1,1.1,0.3,1.4c0.2,0.3,0.5,0.4,0.8,0.4c0.1,0,0.3,0,0.4,0c0.1,0,0.3,0,0.5-0.1
		l0.6,3.1c-0.3,0.1-0.6,0.2-0.9,0.3c-0.4,0.1-0.8,0.1-1.4,0.1c-1.6,0-2.7-0.5-3.3-1.4c-0.7-0.9-1-2.3-1-4.1V963.2z"/>
	<path fill="#F5F2E0" d="M206.3,974.5h4.1v27c0,2.5-0.5,4.4-1.5,5.9c-1,1.5-2.7,2.2-5.1,2.2c-0.8,0-1.4-0.1-2-0.2
		c-0.6-0.1-1.1-0.3-1.5-0.4l0.8-3.1c0.3,0.1,0.6,0.2,1,0.3c0.4,0.1,0.8,0.1,1.2,0.1c1.2,0,2-0.4,2.4-1.3c0.4-0.8,0.6-2,0.6-3.5
		V974.5z M208.4,969.5c-0.8,0-1.5-0.2-2-0.7c-0.6-0.5-0.8-1.1-0.8-1.9c0-0.8,0.3-1.4,0.8-1.9c0.5-0.5,1.2-0.7,2-0.7
		c0.8,0,1.4,0.2,2,0.7c0.6,0.5,0.8,1.1,0.8,1.9c0,0.8-0.3,1.4-0.8,1.9C209.8,969.2,209.2,969.5,208.4,969.5z"/>
	<path fill="#F5F2E0" d="M236,978c0.8,1.1,1.5,2.3,2,3.8c0.5,1.4,0.7,3.1,0.7,4.9c0,2-0.3,3.8-0.9,5.4c-0.6,1.6-1.4,2.9-2.5,4
		s-2.2,1.9-3.6,2.5c-1.3,0.6-2.8,0.8-4.3,0.8c-2.6,0-4.9-0.8-6.9-2.4l-2.4,3l-1.8-1.4l2.7-3.2c-0.8-1.1-1.5-2.3-2-3.7
		c-0.5-1.4-0.7-3-0.7-4.8c0-2,0.3-3.8,0.9-5.4c0.6-1.6,1.4-2.9,2.5-4c1-1.1,2.2-1.9,3.6-2.5c1.3-0.6,2.8-0.8,4.3-0.8
		c1.3,0,2.5,0.2,3.7,0.6c1.2,0.4,2.3,1,3.2,1.9l2.5-3l1.8,1.4L236,978z M232.1,979.1c-1.2-1.3-2.8-2-4.6-2c-1,0-2,0.2-2.9,0.7
		c-0.9,0.4-1.6,1.1-2.3,1.9c-0.6,0.8-1.1,1.8-1.5,2.9c-0.4,1.1-0.6,2.4-0.6,3.8c0,2.2,0.4,4.1,1.2,5.6L232.1,979.1z M222.8,994.1
		c1.3,1.3,2.8,1.9,4.6,1.9c1,0,2-0.2,2.9-0.7c0.9-0.4,1.6-1.1,2.3-1.9c0.6-0.8,1.1-1.8,1.5-2.9c0.4-1.1,0.5-2.4,0.5-3.7
		c0-2.2-0.4-4.1-1.2-5.7L222.8,994.1z"/>
	<path fill="#F5F2E0" d="M253.4,986.6c0-2,0.3-3.8,0.9-5.4c0.6-1.6,1.4-2.9,2.5-4c1-1.1,2.2-1.9,3.6-2.5c1.3-0.6,2.8-0.8,4.3-0.8
		c1.5,0,2.9,0.3,4.3,0.8c1.3,0.6,2.5,1.4,3.6,2.5c1,1.1,1.9,2.4,2.5,4c0.6,1.6,0.9,3.4,0.9,5.4c0,2-0.3,3.8-0.9,5.4
		c-0.6,1.6-1.4,2.9-2.5,4c-1,1.1-2.2,1.9-3.6,2.5c-1.3,0.6-2.8,0.8-4.3,0.8c-1.5,0-2.9-0.3-4.3-0.8c-1.3-0.6-2.5-1.4-3.6-2.5
		c-1-1.1-1.9-2.4-2.5-4C253.7,990.4,253.4,988.6,253.4,986.6z M257.7,986.6c0,1.4,0.2,2.7,0.5,3.8c0.3,1.1,0.8,2.1,1.4,2.9
		c0.6,0.8,1.4,1.4,2.2,1.9c0.9,0.4,1.8,0.7,2.8,0.7s2-0.2,2.8-0.7c0.9-0.4,1.6-1.1,2.2-1.9c0.6-0.8,1.1-1.8,1.4-2.9
		c0.3-1.1,0.5-2.4,0.5-3.8c0-1.4-0.2-2.7-0.5-3.8c-0.3-1.2-0.8-2.1-1.4-3c-0.6-0.8-1.4-1.5-2.2-1.9c-0.9-0.4-1.8-0.7-2.8-0.7
		s-2,0.2-2.8,0.7c-0.9,0.4-1.6,1.1-2.2,1.9c-0.6,0.8-1.1,1.8-1.4,3C257.8,984,257.7,985.2,257.7,986.6z"/>
	<path fill="#F5F2E0" d="M279.6,1003.4c0-1,0.3-2,0.9-2.9c0.6-0.9,1.5-1.8,2.6-2.5v-0.2c-0.6-0.4-1.1-0.9-1.5-1.5
		c-0.4-0.6-0.6-1.5-0.6-2.4c0-1,0.3-1.9,0.9-2.7c0.6-0.8,1.2-1.4,1.8-1.8V989c-0.8-0.7-1.5-1.6-2.2-2.7c-0.7-1.1-1-2.4-1-3.9
		c0-1.3,0.2-2.5,0.7-3.6c0.5-1.1,1.1-2,2-2.7c0.8-0.7,1.8-1.3,2.9-1.7s2.3-0.6,3.5-0.6c0.7,0,1.3,0.1,1.9,0.2
		c0.6,0.1,1.1,0.3,1.6,0.4h8.4v3.1h-5c0.6,0.6,1,1.3,1.4,2.1c0.4,0.9,0.6,1.8,0.6,2.8c0,1.3-0.2,2.5-0.7,3.5c-0.5,1-1.1,1.9-1.9,2.6
		c-0.8,0.7-1.7,1.3-2.8,1.7c-1.1,0.4-2.2,0.6-3.5,0.6c-0.6,0-1.2-0.1-1.8-0.2c-0.6-0.2-1.2-0.4-1.8-0.6c-0.4,0.4-0.8,0.8-1.1,1.2
		c-0.3,0.4-0.4,1-0.4,1.7c0,0.8,0.3,1.4,0.9,1.9c0.6,0.5,1.7,0.7,3.4,0.7h4.7c2.8,0,5,0.5,6.4,1.4c1.4,0.9,2.1,2.4,2.1,4.4
		c0,1.1-0.3,2.2-0.8,3.2c-0.6,1-1.4,1.9-2.4,2.7c-1.1,0.8-2.4,1.4-3.9,1.8c-1.5,0.4-3.2,0.7-5.1,0.7c-1.5,0-2.9-0.1-4.1-0.4
		c-1.2-0.3-2.3-0.7-3.2-1.3c-0.9-0.6-1.6-1.2-2-2C279.8,1005.4,279.6,1004.4,279.6,1003.4z M283.2,1002.8c0,1.3,0.6,2.3,1.9,3.1
		c1.2,0.8,3,1.2,5.2,1.2c1.2,0,2.2-0.1,3.2-0.4c0.9-0.3,1.8-0.6,2.4-1.1c0.7-0.4,1.2-1,1.5-1.6c0.4-0.6,0.6-1.2,0.6-1.8
		c0-1.1-0.4-1.9-1.2-2.3c-0.8-0.4-2-0.7-3.6-0.7h-4.2c-0.5,0-1,0-1.5-0.1c-0.5-0.1-1.1-0.2-1.6-0.3c-0.9,0.6-1.5,1.3-1.9,2
		C283.4,1001.4,283.2,1002.1,283.2,1002.8z M289.6,988.3c0.7,0,1.4-0.1,2-0.4c0.6-0.3,1.2-0.6,1.6-1.1c0.5-0.5,0.9-1.1,1.1-1.8
		c0.3-0.7,0.4-1.5,0.4-2.4c0-1.8-0.5-3.2-1.5-4.2c-1-1-2.2-1.5-3.6-1.5c-1.4,0-2.6,0.5-3.6,1.5c-1,1-1.5,2.4-1.5,4.2
		c0,0.9,0.1,1.7,0.4,2.4c0.3,0.7,0.6,1.3,1.1,1.8c0.5,0.5,1,0.9,1.6,1.1C288.3,988.2,288.9,988.3,289.6,988.3z"/>
	<path fill="#F5F2E0" d="M316.7,963.2h4v24.1h0.2l10.3-12.8h4.5l-8.1,9.7l9.2,14.5h-4.5l-7.1-11.7l-4.5,5.3v6.4h-4V963.2z"/>
	<path fill="#F5F2E0" d="M340.6,963.2h4.1v31c0,0.7,0.1,1.1,0.3,1.4c0.2,0.3,0.5,0.4,0.8,0.4c0.1,0,0.3,0,0.4,0c0.1,0,0.3,0,0.5-0.1
		l0.6,3.1c-0.3,0.1-0.6,0.2-0.9,0.3c-0.4,0.1-0.8,0.1-1.4,0.1c-1.6,0-2.7-0.5-3.3-1.4c-0.7-0.9-1-2.3-1-4.1V963.2z"/>
	<path fill="#F5F2E0" d="M354.4,969.5c-0.8,0-1.5-0.2-2-0.7c-0.6-0.5-0.8-1.1-0.8-1.9c0-0.8,0.3-1.4,0.8-1.9c0.5-0.5,1.2-0.7,2-0.7
		c0.8,0,1.5,0.2,2,0.7c0.6,0.5,0.8,1.1,0.8,1.9c0,0.8-0.3,1.4-0.8,1.9C355.9,969.2,355.2,969.5,354.4,969.5z M352.3,974.5h4.1v24.3
		h-4.1V974.5z"/>
	<path fill="#F5F2E0" d="M363.6,974.5h3.4l0.3,3.5h0.1c1.1-1.2,2.2-2.1,3.5-2.9c1.2-0.8,2.6-1.2,4.1-1.2c1.9,0,3.3,0.4,4.4,1.2
		c1,0.8,1.8,2,2.3,3.4c1.3-1.4,2.5-2.5,3.8-3.4c1.3-0.8,2.7-1.3,4.2-1.3c2.5,0,4.4,0.8,5.6,2.4c1.2,1.6,1.8,4,1.8,7.1v15.4h-4.1
		v-14.8c0-2.3-0.4-4-1.1-5s-1.9-1.5-3.4-1.5c-1.8,0-3.9,1.2-6.1,3.7v17.6h-4.1v-14.8c0-2.3-0.4-4-1.1-5c-0.7-1-1.9-1.5-3.4-1.5
		c-1.8,0-3.9,1.2-6.1,3.7v17.6h-4.1V974.5z"/>
	<path fill="#F5F2E0" d="M402.8,992.4c0-2.7,1.2-4.7,3.6-6.1c2.4-1.4,6.2-2.4,11.4-3c0-0.8-0.1-1.5-0.2-2.2
		c-0.1-0.7-0.4-1.4-0.8-1.9c-0.4-0.6-0.9-1-1.5-1.4c-0.6-0.3-1.4-0.5-2.4-0.5c-1.4,0-2.8,0.3-4,0.8c-1.2,0.5-2.3,1.1-3.3,1.8
		l-1.6-2.8c1.1-0.7,2.5-1.4,4.1-2.1c1.6-0.7,3.4-1,5.4-1c3,0,5.1,0.9,6.4,2.7c1.3,1.8,2,4.2,2,7.3v14.9h-3.4l-0.3-2.9H418
		c-1.2,1-2.4,1.8-3.8,2.5c-1.3,0.7-2.8,1-4.3,1c-2.1,0-3.8-0.6-5.1-1.8C403.4,996.3,402.8,994.6,402.8,992.4z M406.8,992.1
		c0,1.4,0.4,2.4,1.2,3c0.8,0.6,1.8,0.9,3,0.9c1.2,0,2.3-0.3,3.3-0.8c1-0.5,2.2-1.4,3.3-2.4V986c-2,0.3-3.7,0.6-5.1,0.9
		c-1.4,0.4-2.5,0.8-3.4,1.3c-0.8,0.5-1.5,1.1-1.8,1.7C407,990.7,406.8,991.4,406.8,992.1z"/>
</g>
<g>
	<path fill="#F5F2E0" d="M1129.2,221.5c-0.7-2.1-0.8-3.8-0.8-8.1s0.2-6,0.8-8.1c1.6-4.8,5.6-7.2,10.8-7.2s9.3,2.4,10.8,7.2
		c0.7,2.1,0.8,3.8,0.8,8.1s-0.2,6-0.8,8.1c-1.6,4.8-5.6,7.2-10.8,7.2S1130.8,226.3,1129.2,221.5z M1144.7,219.8
		c0.3-1.1,0.5-2.6,0.5-6.4c0-3.8-0.1-5.3-0.5-6.4c-0.7-2-2.2-3.2-4.7-3.2c-2.4,0-4,1.2-4.7,3.2c-0.3,1.1-0.5,2.6-0.5,6.4
		c0,3.8,0.1,5.3,0.5,6.4c0.7,2,2.2,3.2,4.7,3.2C1142.5,223,1144.1,221.8,1144.7,219.8z"/>
	<path fill="#F5F2E0" d="M1156.7,202.1c0-2.4,1.4-3.8,3.5-3.8c1.9,0,3,1,4,3.3l6.3,14.3h0.2l6.2-14.3c1-2.3,2-3.3,3.9-3.3
		c2.1,0,3.5,1.5,3.5,3.8v23.3c0,2-1.2,3.1-2.9,3.1c-1.7,0-2.9-1.1-2.9-3.1V211h-0.2l-4.6,10.7c-0.9,2.1-1.7,2.7-3.1,2.7
		s-2.2-0.6-3.1-2.7l-4.6-10.7h-0.2v14.3c0,2-1.2,3.1-2.9,3.1c-1.7,0-3-1.1-3-3.1V202.1z"/>
	<path fill="#F5F2E0" d="M1207.3,224.7l-7.6-22.1c-0.1-0.4-0.2-0.9-0.2-1.4c0-1.7,1.3-3,3.1-3c1.5,0,2.5,0.8,3.1,2.5l5.7,17.7h0.1
		l5.4-17.7c0.5-1.7,1.6-2.5,3.1-2.5c1.8,0,3.1,1.4,3.1,3c0,0.4-0.1,0.9-0.2,1.4l-7.6,22.1c-1,2.8-2.2,3.8-4.1,3.8
		C1209.4,228.5,1208.2,227.5,1207.3,224.7z"/>
	<path fill="#F5F2E0" d="M1226.8,221.5c-0.7-2.1-0.8-3.8-0.8-8.1s0.2-6,0.8-8.1c1.6-4.8,5.6-7.2,10.8-7.2s9.3,2.4,10.8,7.2
		c0.7,2.1,0.8,3.8,0.8,8.1s-0.2,6-0.8,8.1c-1.6,4.8-5.6,7.2-10.8,7.2S1228.4,226.3,1226.8,221.5z M1242.4,219.8
		c0.3-1.1,0.5-2.6,0.5-6.4c0-3.8-0.1-5.3-0.5-6.4c-0.7-2-2.2-3.2-4.7-3.2c-2.4,0-4,1.2-4.7,3.2c-0.3,1.1-0.5,2.6-0.5,6.4
		c0,3.8,0.1,5.3,0.5,6.4c0.7,2,2.2,3.2,4.7,3.2C1240.1,223,1241.7,221.8,1242.4,219.8z"/>
	<path fill="#F5F2E0" d="M1270.3,226.5l-5-9.6h-4.4c-0.2,0-0.3,0.1-0.3,0.3v7.9c0,2.1-1.3,3.4-3.2,3.4s-3.2-1.4-3.2-3.4v-23.7
		c0-1.7,1-2.8,2.8-2.8h9.4c6.1,0,10.1,3.8,10.1,9.2c0,3.6-1.8,6.5-4.9,8l4.3,7.9c0.3,0.6,0.4,1.2,0.4,1.8c0,1.7-1.1,3.1-3.1,3.1
		C1272.2,228.5,1271.1,227.9,1270.3,226.5z M1270.3,207.8c0-2.3-1.6-3.7-4-3.7h-5.2c-0.2,0-0.3,0.1-0.3,0.3v6.9
		c0,0.2,0.1,0.3,0.3,0.3h5.2C1268.7,211.4,1270.3,210,1270.3,207.8z"/>
	<path fill="#F5F2E0" d="M1281.4,201.3c0-1.7,1-2.8,2.8-2.8h14.4c1.8,0,3,1.2,3,2.8c0,1.6-1.2,2.8-3,2.8h-10.5
		c-0.2,0-0.3,0.1-0.3,0.3v5.9c0,0.2,0.1,0.3,0.3,0.3h8.4c1.8,0,2.9,1.1,2.9,2.8s-1.1,2.8-2.9,2.8h-8.4c-0.2,0-0.3,0.1-0.3,0.3v6.2
		c0,0.2,0.1,0.3,0.3,0.3h10.5c1.8,0,3,1.2,3,2.8c0,1.6-1.2,2.8-3,2.8h-14.4c-1.7,0-2.8-1.1-2.8-2.8V201.3z"/>
	<path fill="#F5F2E0" d="M1306.9,226.2c-1-0.7-1.5-1.7-1.5-2.7c0-1.6,1.2-2.8,2.9-2.8c0.7,0,1.4,0.2,1.9,0.5
		c2.4,1.4,4.2,1.9,6.4,1.9c3.1,0,4.9-1.4,4.9-3.5c0-1.7-1-2.8-4.6-3.3l-1.6-0.2c-6.1-0.8-9.4-3.7-9.4-8.9c0-5.5,4.1-9.1,10.5-9.1
		c3.3,0,6.6,0.9,8.3,2c1,0.7,1.5,1.5,1.5,2.6c0,1.6-1.2,2.8-2.8,2.8c-0.6,0-1.3-0.2-1.9-0.5c-1.4-0.7-3.3-1.2-5.1-1.2
		c-2.6,0-4,1.3-4,3.2c0,1.7,1.2,2.8,4.6,3.3l1.6,0.2c6.2,0.9,9.4,3.6,9.4,9c0,5.4-3.9,9.4-11.7,9.4
		C1312.1,228.7,1308.9,227.4,1306.9,226.2z"/>
	<path fill="#F5F2E0" d="M1129.2,246.6c0-2.4,1.4-3.8,3.5-3.8c1.9,0,3,1,4,3.3l6.3,14.3h0.2l6.2-14.3c1-2.3,2-3.3,3.9-3.3
		c2.1,0,3.5,1.5,3.5,3.8v23.3c0,2-1.2,3.1-2.9,3.1c-1.7,0-2.9-1.1-2.9-3.1v-14.3h-0.2l-4.6,10.7c-0.9,2.1-1.7,2.7-3.1,2.7
		c-1.5,0-2.2-0.6-3.1-2.7l-4.6-10.7h-0.2v14.3c0,2-1.2,3.1-2.9,3.1c-1.7,0-3-1.1-3-3.1V246.6z"/>
	<path fill="#F5F2E0" d="M1161.2,268.8l8-22.2c0.8-2.4,2.1-3.8,4.4-3.8c2.3,0,3.6,1.4,4.5,3.8l7.9,22.2c0.1,0.3,0.2,0.8,0.2,1.2
		c0,1.8-1.5,3-3.1,3c-1.4,0-2.5-0.8-3-2.3l-1.2-3.6h-10.6l-1.2,3.6c-0.5,1.4-1.6,2.3-3,2.3c-1.6,0-3.1-1.2-3.1-3
		C1161,269.6,1161.1,269.1,1161.2,268.8z M1177.1,261.6l-3.4-10.4h-0.1l-3.5,10.4H1177.1z"/>
	<path fill="#F5F2E0" d="M1190.5,245.9c0-1.7,1-2.8,2.8-2.8h7c6.3,0,10.3,2,11.8,6.9c0.6,1.7,0.9,3.8,0.9,8c0,4.2-0.3,6.3-0.9,8
		c-1.6,4.9-5.5,6.9-11.8,6.9h-7c-1.7,0-2.8-1.1-2.8-2.8V245.9z M1197.2,267h3c3,0,5.1-1,5.9-3.4c0.3-1,0.5-2.8,0.5-5.8
		s-0.2-4.8-0.5-5.8c-0.7-2.4-2.9-3.4-5.9-3.4h-3c-0.2,0-0.3,0.1-0.3,0.3v17.7C1196.9,266.9,1197,267,1197.2,267z"/>
	<path fill="#F5F2E0" d="M1217.4,268.1c0.4-1.3,1.4-2,2.6-2c1.5,0,2.8,1,2.8,2.7c0,0.3,0,0.7-0.2,1l-2.3,6.8
		c-0.4,1.3-1.4,2.1-2.6,2.1c-1.5,0-2.6-1-2.6-2.7c0-0.3,0-0.7,0.2-1.1L1217.4,268.1z"/>
	<path fill="#F5F2E0" d="M1238.9,246.6c0-2.4,1.4-3.8,3.5-3.8c1.9,0,3,1,4,3.3l6.3,14.3h0.2l6.2-14.3c1-2.3,2-3.3,3.9-3.3
		c2.1,0,3.5,1.5,3.5,3.8v23.3c0,2-1.2,3.1-2.9,3.1c-1.7,0-2.9-1.1-2.9-3.1v-14.3h-0.2l-4.6,10.7c-0.9,2.1-1.7,2.7-3.1,2.7
		s-2.2-0.6-3.1-2.7l-4.6-10.7h-0.2v14.3c0,2-1.2,3.1-2.9,3.1c-1.7,0-3-1.1-3-3.1V246.6z"/>
	<path fill="#F5F2E0" d="M1272.3,246.2c0-2.1,1.4-3.4,3.2-3.4c1.8,0,3.2,1.4,3.2,3.4v23.4c0,2.1-1.4,3.4-3.2,3.4
		c-1.9,0-3.2-1.4-3.2-3.4V246.2z"/>
	<path fill="#F5F2E0" d="M1284.5,246.2c0-2.1,1.4-3.4,3.2-3.4c1.8,0,3.2,1.4,3.2,3.4v20.6c0,0.2,0.1,0.3,0.3,0.3h10.6
		c2,0,3.2,1.2,3.2,2.8c0,1.7-1.3,2.9-3.2,2.9h-14c-2,0-3.2-1.3-3.2-3.2V246.2z"/>
	<path fill="#F5F2E0" d="M1308.2,268.5c0-1.5,1.2-2.7,2.8-2.7c0.8,0,1.5,0.3,2.4,1c0.7,0.5,1.7,0.8,2.7,0.8c2.4,0,4.1-1.4,4.1-5
		v-16.3c0-2.1,1.4-3.4,3.2-3.4c1.9,0,3.2,1.3,3.2,3.4v15.9c0,7.3-3.9,11.1-10.7,11.1c-2.8,0-5.6-1.1-6.9-2.5
		C1308.5,270.1,1308.2,269.3,1308.2,268.5z"/>
	<path fill="#F5F2E0" d="M1334,274.3c-0.9,0-1.7-0.7-1.7-1.7c0-0.4,0.1-0.7,0.4-1.1l1.4-2.2c-0.7-0.9-1.3-2-1.7-3.3
		c-0.7-2.1-0.8-3.8-0.8-8.1s0.2-6,0.8-8.1c1.6-4.8,5.6-7.2,10.8-7.2c2.4,0,4.6,0.5,6.5,1.6l1-1.7c0.4-0.7,1-1,1.6-1
		c0.9,0,1.7,0.7,1.7,1.7c0,0.3-0.1,0.7-0.3,1.1l-1.4,2.2c0.7,0.9,1.3,2,1.7,3.2c0.7,2.1,0.8,3.8,0.8,8.1s-0.2,6-0.8,8.1
		c-1.6,4.8-5.6,7.2-10.8,7.2c-2.5,0-4.7-0.5-6.5-1.6l-1,1.7C1335.2,274,1334.6,274.3,1334,274.3z M1338,263l8.3-13.8
		c-0.8-0.7-1.9-1-3.2-1c-2.4,0-4.1,1.2-4.8,3.2c-0.3,1.1-0.5,2.6-0.5,6.5C1337.9,260.4,1337.9,261.9,1338,263z M1347.9,264.4
		c0.3-1.1,0.5-2.6,0.5-6.5c0-2.4,0-3.9-0.2-5l-8.3,13.7c0.8,0.7,1.9,1,3.2,1C1345.6,267.6,1347.2,266.4,1347.9,264.4z"/>
	<path fill="#F5F2E0" d="M1129.2,310.6c-0.7-2.1-0.8-3.8-0.8-8.1s0.2-6,0.8-8.1c1.6-4.8,5.6-7.2,10.8-7.2s9.3,2.4,10.8,7.2
		c0.7,2.1,0.8,3.8,0.8,8.1s-0.2,6-0.8,8.1c-1.6,4.8-5.6,7.2-10.8,7.2S1130.8,315.4,1129.2,310.6z M1144.7,308.8
		c0.3-1.1,0.5-2.6,0.5-6.4c0-3.8-0.1-5.3-0.5-6.4c-0.7-2-2.2-3.2-4.7-3.2c-2.4,0-4,1.2-4.7,3.2c-0.3,1.1-0.5,2.6-0.5,6.4
		c0,3.8,0.1,5.3,0.5,6.4c0.7,2,2.2,3.2,4.7,3.2C1142.5,312.1,1144.1,310.9,1144.7,308.8z"/>
	<path fill="#F5F2E0" d="M1155.8,302.4c0-4.4,0.2-6,0.8-8.1c1.5-4.8,5.6-7.2,10.9-7.2c4.8,0,8.1,2,9.7,4.6c0.3,0.6,0.6,1.2,0.6,1.9
		c0,1.7-1.3,2.9-2.9,2.9c-1.1,0-2-0.4-2.8-1.6c-1.1-1.6-2.6-2.2-4.5-2.2c-2.5,0-4.1,1.3-4.8,3.3c-0.3,1.1-0.5,2.5-0.5,6.3
		c0,3.8,0.1,5.3,0.5,6.4c0.7,2,2.3,3.3,4.9,3.3c2.3,0,4.2-1.2,4.8-3.1c0.3-0.8,0.4-1.8,0.4-2.9c0-0.2-0.1-0.3-0.3-0.3h-2
		c-1.7,0-2.7-1-2.7-2.5s1-2.5,2.7-2.5h6.1c1.6,0,2.5,0.9,2.5,2.5v0.3c0,2.6-0.2,5.1-0.7,6.7c-1.5,4.8-5.5,7.4-10.8,7.4
		s-9.4-2.4-10.9-7.2C1156,308.5,1155.8,306.8,1155.8,302.4z"/>
	<path fill="#F5F2E0" d="M1195.2,290.7c0-2.1,1.4-3.4,3.2-3.4c1.8,0,3.2,1.4,3.2,3.4v10l9.8-12c0.7-0.9,1.7-1.4,2.6-1.4
		c1.6,0,2.9,1.2,2.9,2.8c0,0.8-0.3,1.5-0.7,2.1l-6.4,7.3l7.5,13c0.4,0.7,0.6,1.4,0.6,2c0,1.7-1.3,3.1-3.1,3.1
		c-1.3,0-2.4-0.7-3.1-1.9l-6.2-11.2l-3.9,4.9v4.8c0,2.1-1.4,3.4-3.2,3.4c-1.9,0-3.2-1.4-3.2-3.4V290.7z"/>
	<path fill="#F5F2E0" d="M1222.1,290.7c0-2.1,1.4-3.4,3.2-3.4c1.8,0,3.2,1.4,3.2,3.4v20.6c0,0.2,0.1,0.3,0.3,0.3h10.6
		c2,0,3.2,1.2,3.2,2.8c0,1.7-1.3,2.9-3.2,2.9h-14c-2,0-3.2-1.3-3.2-3.2V290.7z"/>
	<path fill="#F5F2E0" d="M1246.4,290.7c0-2.1,1.4-3.4,3.2-3.4c1.8,0,3.2,1.4,3.2,3.4v23.4c0,2.1-1.4,3.4-3.2,3.4
		c-1.9,0-3.2-1.4-3.2-3.4V290.7z"/>
	<path fill="#F5F2E0" d="M1258.5,291.1c0-2.4,1.4-3.8,3.5-3.8c1.9,0,3,1,4,3.3l6.3,14.3h0.2l6.2-14.3c1-2.3,2-3.3,3.9-3.3
		c2.1,0,3.5,1.5,3.5,3.8v23.3c0,2-1.2,3.1-2.9,3.1c-1.7,0-2.9-1.1-2.9-3.1v-14.3h-0.2l-4.6,10.7c-0.9,2.1-1.7,2.7-3.1,2.7
		c-1.5,0-2.2-0.6-3.1-2.7l-4.6-10.7h-0.2v14.3c0,2-1.2,3.1-2.9,3.1c-1.7,0-3-1.1-3-3.1V291.1z"/>
	<path fill="#F5F2E0" d="M1290.6,313.3l8-22.2c0.8-2.4,2.1-3.8,4.4-3.8c2.3,0,3.6,1.4,4.5,3.8l7.9,22.2c0.1,0.3,0.2,0.8,0.2,1.2
		c0,1.8-1.5,3-3.1,3c-1.4,0-2.5-0.8-3-2.3l-1.2-3.6h-10.6l-1.2,3.6c-0.5,1.4-1.6,2.3-3,2.3c-1.6,0-3.1-1.2-3.1-3
		C1290.4,314.1,1290.5,313.7,1290.6,313.3z M1306.5,306.2l-3.4-10.4h-0.1l-3.5,10.4H1306.5z"/>
</g>
<text transform="matrix(1 0 0 1 61.426 878.5659)" fill="#F5F2E0" font-family="'DINNextRoundedLTPro-Bold'" font-size="40" letter-spacing="3">Om vores mad, milj og klima</text>
<g>
	<path fill="#F5F2E0" d="M20.1-120.2c-0.7-2.1-0.8-3.7-0.8-8.1c0-4.4,0.2-6,0.8-8.1c1.6-4.8,5.6-7.2,10.8-7.2
		c5.2,0,9.2,2.4,10.8,7.2c0.7,2.1,0.8,3.7,0.8,8.1c0,4.4-0.2,6-0.8,8.1c-1.6,4.8-5.6,7.2-10.8,7.2C25.7-113,21.6-115.4,20.1-120.2z
		 M35.6-121.9c0.3-1.1,0.5-2.6,0.5-6.4c0-3.8-0.1-5.3-0.5-6.4c-0.7-2-2.2-3.2-4.7-3.2c-2.4,0-4,1.2-4.7,3.2
		c-0.3,1.1-0.5,2.6-0.5,6.4c0,3.8,0.1,5.3,0.5,6.4c0.7,2,2.2,3.2,4.7,3.2C33.3-118.7,34.9-119.9,35.6-121.9z"/>
	<path fill="#F5F2E0" d="M47.5-139.6c0-2.4,1.4-3.8,3.5-3.8c1.9,0,3,1,4,3.3l6.3,14.3h0.2l6.2-14.3c1-2.3,2-3.3,3.9-3.3
		c2.1,0,3.5,1.5,3.5,3.8v23.2c0,2-1.2,3.1-2.9,3.1c-1.7,0-2.9-1.1-2.9-3.1v-14.3h-0.2L64.5-120c-0.9,2.1-1.7,2.7-3.1,2.7
		s-2.2-0.6-3.1-2.7l-4.6-10.6h-0.2v14.3c0,2-1.2,3.1-2.9,3.1c-1.7,0-3-1.1-3-3.1V-139.6z"/>
	<path fill="#F5F2E0" d="M98-117L90.5-139c-0.1-0.4-0.2-0.9-0.2-1.4c0-1.7,1.3-3,3.1-3c1.5,0,2.5,0.8,3.1,2.5l5.7,17.7h0.1l5.4-17.7
		c0.5-1.7,1.6-2.5,3.1-2.5c1.8,0,3.1,1.4,3.1,3c0,0.4-0.1,0.9-0.2,1.4l-7.5,22.1c-1,2.7-2.2,3.7-4.1,3.7
		C100.2-113.2,99-114.2,98-117z"/>
	<path fill="#F5F2E0" d="M117.6-120.2c-0.7-2.1-0.8-3.7-0.8-8.1c0-4.4,0.2-6,0.8-8.1c1.6-4.8,5.6-7.2,10.8-7.2
		c5.2,0,9.2,2.4,10.8,7.2c0.7,2.1,0.8,3.7,0.8,8.1c0,4.4-0.2,6-0.8,8.1c-1.6,4.8-5.6,7.2-10.8,7.2
		C123.2-113,119.2-115.4,117.6-120.2z M133.1-121.9c0.3-1.1,0.5-2.6,0.5-6.4c0-3.8-0.1-5.3-0.5-6.4c-0.7-2-2.2-3.2-4.7-3.2
		c-2.4,0-4,1.2-4.7,3.2c-0.3,1.1-0.5,2.6-0.5,6.4c0,3.8,0.1,5.3,0.5,6.4c0.7,2,2.2,3.2,4.7,3.2C130.9-118.7,132.4-119.9,133.1-121.9
		z"/>
	<path fill="#F5F2E0" d="M161.1-115.2l-5-9.6h-4.4c-0.2,0-0.3,0.1-0.3,0.3v7.9c0,2-1.3,3.4-3.2,3.4s-3.2-1.4-3.2-3.4v-23.7
		c0-1.7,1-2.8,2.8-2.8h9.4c6.1,0,10.1,3.8,10.1,9.2c0,3.6-1.8,6.5-4.9,8l4.3,7.8c0.3,0.6,0.4,1.2,0.4,1.8c0,1.7-1.1,3.1-3.1,3.1
		C162.9-113.2,161.8-113.8,161.1-115.2z M161-133.9c0-2.3-1.6-3.7-4-3.7h-5.2c-0.2,0-0.3,0.1-0.3,0.3v6.8c0,0.2,0.1,0.3,0.3,0.3h5.2
		C159.4-130.2,161-131.7,161-133.9z"/>
	<path fill="#F5F2E0" d="M172.1-140.3c0-1.7,1-2.8,2.8-2.8h14.4c1.8,0,3,1.2,3,2.8c0,1.6-1.2,2.7-3,2.7h-10.5
		c-0.2,0-0.3,0.1-0.3,0.3v5.9c0,0.2,0.1,0.3,0.3,0.3h8.4c1.8,0,2.9,1.1,2.9,2.7c0,1.6-1.1,2.7-2.9,2.7h-8.4c-0.2,0-0.3,0.1-0.3,0.3
		v6.1c0,0.2,0.1,0.3,0.3,0.3h10.5c1.8,0,3,1.2,3,2.7c0,1.6-1.2,2.8-3,2.8h-14.4c-1.7,0-2.8-1.1-2.8-2.8V-140.3z"/>
	<path fill="#F5F2E0" d="M197.6-115.5c-1-0.7-1.5-1.7-1.5-2.7c0-1.6,1.2-2.8,2.9-2.8c0.7,0,1.4,0.2,1.9,0.5c2.4,1.4,4.2,1.9,6.4,1.9
		c3.1,0,4.8-1.4,4.8-3.5c0-1.7-1-2.8-4.6-3.3l-1.6-0.2c-6.1-0.8-9.4-3.7-9.4-8.9c0-5.5,4.1-9.1,10.5-9.1c3.3,0,6.5,0.9,8.3,2
		c1,0.7,1.5,1.5,1.5,2.6c0,1.6-1.2,2.8-2.8,2.8c-0.6,0-1.3-0.2-1.9-0.5c-1.4-0.7-3.3-1.2-5.1-1.2c-2.6,0-4,1.3-4,3.2
		c0,1.7,1.2,2.8,4.6,3.3l1.6,0.2c6.1,0.9,9.3,3.6,9.3,9s-3.9,9.3-11.6,9.3C202.8-113,199.6-114.3,197.6-115.5z"/>
	<path fill="#F5F2E0" d="M234.2-139.6c0-2.4,1.4-3.8,3.5-3.8c1.9,0,3,1,4,3.3l6.3,14.3h0.2l6.2-14.3c1-2.3,2-3.3,3.9-3.3
		c2.1,0,3.5,1.5,3.5,3.8v23.2c0,2-1.2,3.1-2.9,3.1c-1.7,0-2.9-1.1-2.9-3.1v-14.3h-0.2l-4.6,10.6c-0.9,2.1-1.7,2.7-3.1,2.7
		c-1.5,0-2.2-0.6-3.1-2.7l-4.6-10.6H240v14.3c0,2-1.2,3.1-2.9,3.1c-1.7,0-3-1.1-3-3.1V-139.6z"/>
	<path fill="#F5F2E0" d="M266.2-117.4l8-22.2c0.8-2.4,2.1-3.7,4.4-3.7c2.3,0,3.6,1.4,4.4,3.7l7.9,22.2c0.1,0.3,0.2,0.8,0.2,1.2
		c0,1.8-1.5,3-3.1,3c-1.4,0-2.5-0.8-3-2.3l-1.2-3.6h-10.6l-1.2,3.6c-0.5,1.4-1.6,2.3-3,2.3c-1.6,0-3.1-1.2-3.1-3
		C266-116.7,266.1-117.1,266.2-117.4z M282.1-124.6l-3.4-10.4h-0.1l-3.4,10.4H282.1z"/>
	<path fill="#F5F2E0" d="M295.5-140.3c0-1.7,1-2.8,2.8-2.8h7c6.3,0,10.2,2,11.8,6.8c0.6,1.7,0.9,3.7,0.9,8c0,4.2-0.3,6.3-0.9,8
		c-1.6,4.8-5.5,6.8-11.8,6.8h-7c-1.7,0-2.8-1.1-2.8-2.8V-140.3z M302.1-119.2h3c3,0,5.1-1,5.8-3.4c0.3-1,0.5-2.7,0.5-5.8
		c0-3-0.2-4.8-0.5-5.8c-0.7-2.4-2.9-3.4-5.8-3.4h-3c-0.2,0-0.3,0.1-0.3,0.3v17.7C301.9-119.3,302-119.2,302.1-119.2z"/>
	<path fill="#F5F2E0" d="M322.3-118.1c0.4-1.3,1.4-2,2.6-2c1.5,0,2.8,1,2.8,2.7c0,0.3,0,0.7-0.2,1l-2.3,6.8
		c-0.4,1.3-1.4,2.1-2.6,2.1c-1.5,0-2.6-1-2.6-2.7c0-0.3,0-0.7,0.2-1.1L322.3-118.1z"/>
	<path fill="#F5F2E0" d="M343.8-139.6c0-2.4,1.4-3.8,3.5-3.8c1.9,0,3,1,4,3.3l6.3,14.3h0.2l6.2-14.3c1-2.3,2-3.3,3.9-3.3
		c2.1,0,3.5,1.5,3.5,3.8v23.2c0,2-1.2,3.1-2.9,3.1c-1.7,0-2.9-1.1-2.9-3.1v-14.3h-0.2l-4.6,10.6c-0.9,2.1-1.7,2.7-3.1,2.7
		c-1.5,0-2.2-0.6-3.1-2.7l-4.6-10.6h-0.2v14.3c0,2-1.2,3.1-2.9,3.1c-1.7,0-3-1.1-3-3.1V-139.6z"/>
	<path fill="#F5F2E0" d="M377.2-140c0-2,1.4-3.4,3.2-3.4c1.8,0,3.2,1.4,3.2,3.4v23.4c0,2-1.4,3.4-3.2,3.4c-1.9,0-3.2-1.4-3.2-3.4
		V-140z"/>
	<path fill="#F5F2E0" d="M389.4-140c0-2,1.4-3.4,3.2-3.4c1.8,0,3.2,1.4,3.2,3.4v20.5c0,0.2,0.1,0.3,0.3,0.3h10.6
		c2,0,3.2,1.2,3.2,2.8c0,1.7-1.3,2.9-3.2,2.9h-14c-2,0-3.2-1.3-3.2-3.2V-140z"/>
	<path fill="#F5F2E0" d="M413.1-117.7c0-1.5,1.2-2.7,2.8-2.7c0.8,0,1.5,0.3,2.4,1c0.7,0.5,1.7,0.8,2.7,0.8c2.4,0,4.1-1.4,4.1-5V-140
		c0-2.1,1.4-3.4,3.2-3.4c1.9,0,3.2,1.3,3.2,3.4v15.9c0,7.3-3.9,11.1-10.7,11.1c-2.7,0-5.6-1.1-6.8-2.5
		C413.4-116.1,413.1-116.9,413.1-117.7z"/>
	<path fill="#F5F2E0" d="M438.9-111.9c-0.9,0-1.7-0.7-1.7-1.7c0-0.3,0.1-0.7,0.3-1.1l1.4-2.2c-0.7-0.9-1.3-2-1.7-3.3
		c-0.7-2.1-0.8-3.7-0.8-8.1c0-4.4,0.2-6,0.8-8.1c1.6-4.8,5.6-7.2,10.8-7.2c2.4,0,4.6,0.5,6.5,1.6l1-1.7c0.4-0.7,1-1,1.6-1
		c0.9,0,1.7,0.7,1.7,1.7c0,0.3-0.1,0.7-0.3,1.1l-1.4,2.2c0.7,0.9,1.3,2,1.7,3.2c0.7,2.1,0.8,3.7,0.8,8.1c0,4.4-0.2,6-0.8,8.1
		c-1.6,4.8-5.6,7.2-10.8,7.2c-2.5,0-4.7-0.5-6.5-1.6l-1,1.7C440.1-112.3,439.5-111.9,438.9-111.9z M442.9-123.2l8.3-13.7
		c-0.8-0.7-1.9-1-3.2-1c-2.4,0-4.1,1.2-4.8,3.2c-0.3,1.1-0.5,2.6-0.5,6.5C442.7-125.8,442.8-124.3,442.9-123.2z M452.7-121.9
		c0.3-1.1,0.5-2.6,0.5-6.5c0-2.4,0-3.9-0.2-5l-8.2,13.7c0.8,0.7,1.9,1,3.2,1C450.4-118.6,452.1-119.8,452.7-121.9z"/>
	<path fill="#F5F2E0" d="M475.7-120.2c-0.7-2.1-0.8-3.7-0.8-8.1c0-4.4,0.2-6,0.8-8.1c1.6-4.8,5.6-7.2,10.8-7.2
		c5.2,0,9.2,2.4,10.8,7.2c0.7,2.1,0.8,3.7,0.8,8.1c0,4.4-0.2,6-0.8,8.1c-1.6,4.8-5.6,7.2-10.8,7.2
		C481.3-113,477.3-115.4,475.7-120.2z M491.2-121.9c0.3-1.1,0.5-2.6,0.5-6.4c0-3.8-0.1-5.3-0.5-6.4c-0.7-2-2.2-3.2-4.7-3.2
		c-2.4,0-4,1.2-4.7,3.2c-0.3,1.1-0.5,2.6-0.5,6.4c0,3.8,0.1,5.3,0.5,6.4c0.7,2,2.2,3.2,4.7,3.2C489-118.7,490.5-119.9,491.2-121.9z"
		/>
	<path fill="#F5F2E0" d="M502.3-128.3c0-4.4,0.2-6,0.8-8.1c1.5-4.8,5.6-7.2,10.9-7.2c4.8,0,8.1,2,9.7,4.6c0.3,0.6,0.6,1.2,0.6,1.9
		c0,1.7-1.3,2.9-2.9,2.9c-1.1,0-2-0.3-2.8-1.6c-1.1-1.6-2.6-2.2-4.5-2.2c-2.5,0-4.1,1.3-4.8,3.3c-0.3,1.1-0.5,2.5-0.5,6.3
		c0,3.8,0.1,5.3,0.5,6.4c0.7,2,2.3,3.3,4.8,3.3c2.3,0,4.1-1.2,4.8-3.1c0.3-0.8,0.3-1.8,0.3-2.9c0-0.2-0.1-0.3-0.3-0.3h-2
		c-1.7,0-2.7-1-2.7-2.5c0-1.5,1-2.5,2.7-2.5h6.1c1.6,0,2.5,0.9,2.5,2.5v0.3c0,2.6-0.2,5.1-0.7,6.7c-1.5,4.8-5.5,7.4-10.8,7.4
		c-5.3,0-9.4-2.4-10.9-7.2C502.5-122.3,502.3-123.9,502.3-128.3z"/>
	<path fill="#F5F2E0" d="M541.7-140c0-2,1.4-3.4,3.2-3.4c1.8,0,3.2,1.4,3.2,3.4v9.9l9.8-11.9c0.7-0.9,1.7-1.4,2.6-1.4
		c1.6,0,2.9,1.2,2.9,2.8c0,0.8-0.3,1.5-0.7,2l-6.4,7.3l7.5,13c0.4,0.7,0.6,1.4,0.6,2c0,1.7-1.3,3.1-3.1,3.1c-1.3,0-2.4-0.7-3.1-1.9
		l-6.2-11.2l-3.9,4.9v4.8c0,2-1.4,3.4-3.2,3.4c-1.9,0-3.2-1.4-3.2-3.4V-140z"/>
	<path fill="#F5F2E0" d="M568.5-140c0-2,1.4-3.4,3.2-3.4c1.8,0,3.2,1.4,3.2,3.4v20.5c0,0.2,0.1,0.3,0.3,0.3h10.6
		c2,0,3.2,1.2,3.2,2.8c0,1.7-1.3,2.9-3.2,2.9h-14c-2,0-3.2-1.3-3.2-3.2V-140z"/>
	<path fill="#F5F2E0" d="M592.8-140c0-2,1.4-3.4,3.2-3.4c1.8,0,3.2,1.4,3.2,3.4v23.4c0,2-1.4,3.4-3.2,3.4c-1.9,0-3.2-1.4-3.2-3.4
		V-140z"/>
	<path fill="#F5F2E0" d="M604.9-139.6c0-2.4,1.4-3.8,3.5-3.8c1.9,0,3,1,4,3.3l6.3,14.3h0.2l6.2-14.3c1-2.3,2-3.3,3.9-3.3
		c2.1,0,3.5,1.5,3.5,3.8v23.2c0,2-1.2,3.1-2.9,3.1c-1.7,0-2.9-1.1-2.9-3.1v-14.3h-0.2l-4.6,10.6c-0.9,2.1-1.7,2.7-3.1,2.7
		c-1.5,0-2.2-0.6-3.1-2.7l-4.6-10.6h-0.2v14.3c0,2-1.2,3.1-2.9,3.1c-1.7,0-3-1.1-3-3.1V-139.6z"/>
	<path fill="#F5F2E0" d="M637-117.4l8-22.2c0.8-2.4,2.1-3.7,4.4-3.7c2.3,0,3.6,1.4,4.4,3.7l7.9,22.2c0.1,0.3,0.2,0.8,0.2,1.2
		c0,1.8-1.5,3-3.1,3c-1.4,0-2.5-0.8-3-2.3l-1.2-3.6h-10.6l-1.2,3.6c-0.5,1.4-1.6,2.3-3,2.3c-1.6,0-3.1-1.2-3.1-3
		C636.8-116.7,636.9-117.1,637-117.4z M652.9-124.6l-3.4-10.4h-0.1l-3.4,10.4H652.9z"/>
</g>
<g>
	<g>
		<path fill="#CD5C5C" d="M625,583.5c3.2,0,3.2-5,0-5S621.8,583.5,625,583.5L625,583.5z"/>
	</g>
</g>
<polygon fill="#253A44" points="1241.6,-27.6 972.7,-25.2 970.6,-79.8 1239.5,-82.2 "/>
<polygon fill="#253A44" points="1252.1,30.3 965.3,32.8 964.7,-21.8 1248.4,-24.2 "/>
<g>
	<path fill="#F5F2E0" d="M992.1-47.6c-0.5-1.4-0.6-2.5-0.6-5.5c0-2.9,0.1-4.1,0.5-5.5c1-3.2,3.8-4.9,7.3-4.9c3.5,0,6.3,1.6,7.3,4.8
		c0.5,1.4,0.6,2.5,0.6,5.5s-0.1,4.1-0.5,5.5c-1,3.2-3.8,4.9-7.3,4.9C995.9-42.8,993.1-44.4,992.1-47.6z M1002.5-48.9
		c0.2-0.7,0.3-1.7,0.3-4.3c0-2.6-0.1-3.6-0.4-4.3c-0.5-1.3-1.5-2.2-3.2-2.2c-1.6,0-2.7,0.8-3.1,2.2c-0.2,0.7-0.3,1.7-0.3,4.3
		s0.1,3.6,0.4,4.3c0.5,1.3,1.5,2.2,3.2,2.2C1001-46.7,1002.1-47.5,1002.5-48.9z"/>
	<path fill="#F5F2E0" d="M1012.4-60.9c0-1.6,0.9-2.6,2.4-2.6c1.3,0,2,0.7,2.7,2.2l4.3,9.6l0.1,0l4.1-9.7c0.6-1.5,1.3-2.2,2.6-2.3
		c1.4,0,2.4,1,2.4,2.6l0.1,15.7c0,1.3-0.8,2.1-2,2.1c-1.2,0-2-0.7-2-2.1l-0.1-9.7l-0.1,0l-3,7.2c-0.6,1.4-1.1,1.8-2.1,1.8
		c-1,0-1.5-0.4-2.1-1.8l-3.2-7.2l-0.1,0l0.1,9.7c0,1.3-0.8,2.1-1.9,2.1c-1.2,0-2-0.7-2-2.1L1012.4-60.9z"/>
	<path fill="#F5F2E0" d="M1050.4-46l-5.2-14.8c-0.1-0.3-0.2-0.6-0.2-0.9c0-1.1,0.9-2,2.1-2c1,0,1.7,0.5,2.1,1.7l4,11.9l0.1,0
		l3.5-11.9c0.3-1.2,1.1-1.7,2.1-1.7c1.2,0,2.1,0.9,2.1,2c0,0.3-0.1,0.6-0.1,0.9l-5,14.9c-0.6,1.9-1.4,2.5-2.7,2.6
		C1051.9-43.4,1051.1-44.1,1050.4-46z"/>
	<path fill="#F5F2E0" d="M1065.5-48.3c-0.5-1.4-0.6-2.5-0.6-5.5c0-2.9,0.1-4.1,0.5-5.5c1-3.2,3.8-4.9,7.3-4.9c3.5,0,6.3,1.6,7.3,4.8
		c0.5,1.4,0.6,2.5,0.6,5.5c0,2.9-0.1,4.1-0.5,5.5c-1,3.2-3.8,4.9-7.3,4.9C1069.4-43.4,1066.6-45,1065.5-48.3z M1076-49.5
		c0.2-0.7,0.3-1.7,0.3-4.3s-0.1-3.6-0.4-4.3c-0.5-1.3-1.5-2.2-3.2-2.2c-1.6,0-2.7,0.8-3.1,2.2c-0.2,0.7-0.3,1.7-0.3,4.3
		s0.1,3.6,0.4,4.3c0.5,1.3,1.5,2.2,3.2,2.2C1074.5-47.3,1075.5-48.1,1076-49.5z"/>
	<path fill="#F5F2E0" d="M1096.8-45.2l-3.4-6.4l-2.9,0c-0.1,0-0.2,0.1-0.2,0.2l0,5.3c0,1.4-0.9,2.3-2.1,2.3c-1.3,0-2.2-0.9-2.2-2.3
		l-0.1-16c0-1.1,0.7-1.9,1.9-1.9l6.4-0.1c4.1,0,6.8,2.5,6.9,6.1c0,2.4-1.2,4.4-3.2,5.4l3,5.3c0.2,0.4,0.3,0.8,0.3,1.2
		c0,1.1-0.7,2.1-2,2.1C1098-43.8,1097.3-44.2,1096.8-45.2z M1096.6-57.8c0-1.5-1.1-2.5-2.7-2.5l-3.5,0c-0.1,0-0.2,0.1-0.2,0.2l0,4.6
		c0,0.1,0.1,0.2,0.2,0.2l3.5,0C1095.6-55.3,1096.6-56.3,1096.6-57.8z"/>
	<path fill="#F5F2E0" d="M1106-62.2c0-1.1,0.7-1.9,1.9-1.9l9.7-0.1c1.2,0,2,0.8,2,1.9c0,1.1-0.8,1.9-2,1.9l-7.1,0.1
		c-0.1,0-0.2,0.1-0.2,0.2l0,4c0,0.1,0.1,0.2,0.2,0.2l5.7,0c1.2,0,2,0.7,2,1.8c0,1.1-0.7,1.9-2,1.9l-5.7,0c-0.1,0-0.2,0.1-0.2,0.2
		l0,4.1c0,0.1,0.1,0.2,0.2,0.2l7.1-0.1c1.2,0,2,0.8,2,1.8c0,1.1-0.8,1.9-2,1.9l-9.7,0.1c-1.2,0-1.9-0.7-1.9-1.9L1106-62.2z"/>
	<path fill="#F5F2E0" d="M1125.3-45.6c-0.7-0.4-1-1.1-1-1.8c0-1.1,0.8-1.9,1.9-1.9c0.5,0,0.9,0.1,1.3,0.3c1.7,0.9,2.8,1.3,4.3,1.3
		c2.1,0,3.3-1,3.2-2.4c0-1.2-0.7-1.9-3.1-2.2l-1.1-0.1c-4.1-0.5-6.3-2.4-6.4-5.9c0-3.7,2.7-6.1,7-6.2c2.2,0,4.4,0.6,5.6,1.3
		c0.7,0.4,1,1,1,1.7c0,1.1-0.8,1.9-1.9,1.9c-0.4,0-0.9-0.1-1.3-0.3c-1-0.5-2.2-0.8-3.5-0.8c-1.8,0-2.7,0.9-2.7,2.2
		c0,1.1,0.8,1.9,3.1,2.2l1.1,0.1c4.2,0.6,6.3,2.4,6.3,6c0,3.6-2.6,6.3-7.8,6.4C1128.8-44,1126.6-44.8,1125.3-45.6z"/>
	<path fill="#F5F2E0" d="M1153.7-62.1c0-1.6,0.9-2.6,2.4-2.6c1.3,0,2,0.7,2.7,2.2l4.3,9.6l0.1,0l4.1-9.7c0.6-1.5,1.3-2.2,2.6-2.3
		c1.4,0,2.4,1,2.4,2.6l0.1,15.7c0,1.3-0.8,2.1-2,2.1c-1.2,0-2-0.7-2-2.1l-0.1-9.7l-0.1,0l-3,7.2c-0.6,1.4-1.1,1.8-2.1,1.8
		c-1,0-1.5-0.4-2.1-1.8l-3.2-7.2l-0.1,0l0.1,9.7c0,1.3-0.8,2.1-1.9,2.1c-1.2,0-2-0.7-2-2.1L1153.7-62.1z"/>
	<path fill="#F5F2E0" d="M1177.3-47.4l5.3-15c0.5-1.6,1.4-2.5,2.9-2.6c1.5,0,2.5,0.9,3,2.5l5.5,14.9c0.1,0.2,0.2,0.5,0.2,0.8
		c0,1.2-1,2-2.1,2c-0.9,0-1.7-0.5-2-1.5l-0.8-2.4l-7.1,0.1l-0.8,2.4c-0.3,1-1.1,1.5-2,1.5c-1.1,0-2.1-0.8-2.1-2
		C1177.2-46.8,1177.2-47.1,1177.3-47.4z M1188-52.3l-2.4-7l-0.1,0l-2.3,7L1188-52.3z"/>
	<path fill="#F5F2E0" d="M1198.8-63c0-1.1,0.7-1.9,1.9-1.9l4.7,0c4.3,0,6.9,1.3,8,4.6c0.4,1.1,0.6,2.5,0.6,5.4
		c0,2.9-0.2,4.2-0.5,5.4c-1,3.3-3.7,4.7-7.9,4.7l-4.7,0c-1.2,0-1.9-0.7-1.9-1.9L1198.8-63z M1203.4-48.8l2,0c2,0,3.4-0.7,3.9-2.3
		c0.2-0.7,0.3-1.9,0.3-3.9c0-2-0.2-3.2-0.4-3.9c-0.5-1.6-2-2.2-4-2.2l-2,0c-0.1,0-0.2,0.1-0.2,0.2l0.1,11.9
		C1203.3-48.8,1203.3-48.8,1203.4-48.8z"/>
	<path fill="#F5F2E0" d="M1219-48.2c0.3-0.9,1-1.4,1.8-1.4c1,0,1.9,0.7,1.9,1.8c0,0.2,0,0.4-0.1,0.7l-1.5,4.6
		c-0.3,0.9-1,1.5-1.8,1.5c-1,0-1.7-0.7-1.8-1.8c0-0.2,0-0.5,0.1-0.8L1219-48.2z"/>
</g>
<g>
	<path fill="#F5F2E0" d="M988.2-2.2c0-1.6,0.9-2.6,2.4-2.6c1.3,0,2,0.7,2.7,2.2l4.3,9.6l0.1,0l4.1-9.7c0.6-1.5,1.3-2.2,2.6-2.3
		c1.4,0,2.4,1,2.4,2.6l0.1,15.7c0,1.3-0.8,2.1-2,2.1c-1.2,0-2-0.7-2-2.1l-0.1-9.7l-0.1,0l-3,7.2c-0.6,1.4-1.1,1.8-2.1,1.8
		c-1,0-1.5-0.4-2.1-1.8l-3.2-7.2l-0.1,0l0.1,9.7c0,1.3-0.8,2.1-1.9,2.1c-1.2,0-2-0.7-2-2.1L988.2-2.2z"/>
	<path fill="#F5F2E0" d="M1012.7-2.7c0-1.4,0.9-2.3,2.2-2.3c1.2,0,2.2,0.9,2.2,2.3l0.1,15.8c0,1.4-0.9,2.3-2.1,2.3
		c-1.3,0-2.2-0.9-2.2-2.3L1012.7-2.7z"/>
	<path fill="#F5F2E0" d="M1022.8-2.7c0-1.4,0.9-2.3,2.2-2.3c1.2,0,2.2,0.9,2.2,2.3l0.1,13.9c0,0.1,0.1,0.2,0.2,0.2l7.1-0.1
		c1.3,0,2.2,0.8,2.2,1.9c0,1.1-0.8,1.9-2.2,2l-9.4,0.1c-1.3,0-2.2-0.9-2.2-2.2L1022.8-2.7z"/>
	<path fill="#F5F2E0" d="M1040.9,12.1c0-1,0.8-1.8,1.9-1.8c0.5,0,1,0.2,1.7,0.6c0.5,0.3,1.2,0.5,1.8,0.5c1.6,0,2.7-0.9,2.7-3.4
		l-0.1-11c0-1.4,0.9-2.3,2.1-2.3c1.3,0,2.2,0.9,2.2,2.3l0.1,10.7c0,4.9-2.6,7.5-7.1,7.6c-1.9,0-3.8-0.7-4.6-1.6
		C1041.1,13.2,1040.9,12.7,1040.9,12.1z"/>
	<path fill="#F5F2E0" d="M1060.2,15.9c-0.6,0-1.2-0.4-1.2-1.1c0-0.2,0.1-0.5,0.2-0.8l0.9-1.5c-0.5-0.6-0.9-1.3-1.2-2.2
		c-0.5-1.4-0.6-2.5-0.6-5.5s0.1-4.1,0.5-5.5c1-3.2,3.8-4.9,7.3-4.9c1.6,0,3.1,0.3,4.4,1.1l0.7-1.2c0.3-0.4,0.6-0.7,1.1-0.7
		c0.6,0,1.2,0.4,1.2,1.1c0,0.2-0.1,0.5-0.2,0.8l-0.9,1.5c0.5,0.6,0.9,1.3,1.2,2.2c0.5,1.4,0.6,2.5,0.6,5.5s-0.1,4.1-0.5,5.5
		c-1,3.2-3.8,4.9-7.3,4.9c-1.7,0-3.2-0.3-4.4-1l-0.7,1.1C1061,15.6,1060.6,15.9,1060.2,15.9z M1062.9,8.2l5.5-9.3
		c-0.6-0.4-1.3-0.7-2.2-0.7c-1.6,0-2.8,0.8-3.2,2.2c-0.2,0.7-0.3,1.8-0.3,4.4C1062.7,6.5,1062.8,7.5,1062.9,8.2z M1069.5,9.1
		c0.2-0.7,0.3-1.8,0.3-4.4c0-1.6-0.1-2.6-0.1-3.4l-5.5,9.3c0.6,0.4,1.3,0.6,2.2,0.6C1067.9,11.3,1069.1,10.5,1069.5,9.1z"/>
	<path fill="#F5F2E0" d="M1088.8,10c-0.5-1.4-0.6-2.5-0.6-5.5s0.1-4.1,0.5-5.5c1-3.2,3.8-4.9,7.3-4.9c3.5,0,6.3,1.6,7.3,4.8
		c0.5,1.4,0.6,2.5,0.6,5.5s-0.1,4.1-0.5,5.5c-1,3.2-3.8,4.9-7.3,4.9C1092.7,14.9,1089.9,13.3,1088.8,10z M1099.3,8.8
		c0.2-0.7,0.3-1.7,0.3-4.3s-0.1-3.6-0.4-4.3c-0.5-1.3-1.5-2.2-3.2-2.2c-1.6,0-2.7,0.8-3.1,2.2c-0.2,0.7-0.3,1.7-0.3,4.3
		c0,2.6,0.1,3.6,0.4,4.3c0.5,1.3,1.5,2.2,3.2,2.2C1097.8,11,1098.8,10.2,1099.3,8.8z"/>
	<path fill="#F5F2E0" d="M1108.6,4.4c0-2.9,0.1-4.1,0.5-5.5c1-3.2,3.8-4.9,7.3-4.9c3.2,0,5.5,1.3,6.6,3.1c0.2,0.4,0.4,0.8,0.4,1.3
		c0,1.1-0.9,1.9-2,2c-0.7,0-1.3-0.2-1.9-1c-0.8-1.1-1.7-1.5-3-1.4c-1.7,0-2.8,0.9-3.2,2.3c-0.2,0.7-0.3,1.7-0.3,4.3
		c0,2.6,0.1,3.6,0.4,4.3c0.5,1.3,1.5,2.2,3.3,2.2c1.5,0,2.8-0.8,3.2-2.1c0.2-0.5,0.2-1.2,0.2-2c0-0.1-0.1-0.2-0.2-0.2l-1.4,0
		c-1.1,0-1.8-0.7-1.8-1.7s0.7-1.7,1.8-1.7l4.1,0c1.1,0,1.7,0.6,1.7,1.7l0,0.2c0,1.8-0.1,3.4-0.5,4.5c-1,3.2-3.7,5-7.3,5.1
		c-3.6,0-6.3-1.6-7.4-4.8C1108.8,8.5,1108.7,7.3,1108.6,4.4z"/>
	<path fill="#F5F2E0" d="M1139-3.7c0-1.4,0.9-2.3,2.2-2.3c1.2,0,2.2,0.9,2.2,2.3l0.1,6.7l6.6-8.1c0.5-0.6,1.1-1,1.8-1
		c1.1,0,1.9,0.8,2,1.9c0,0.5-0.2,1-0.5,1.4l-4.3,5l5.1,8.7c0.3,0.5,0.4,0.9,0.4,1.3c0,1.1-0.8,2.1-2,2.1c-0.9,0-1.6-0.4-2.1-1.2
		l-4.3-7.5l-2.6,3.3l0,3.2c0,1.4-0.9,2.3-2.1,2.3c-1.3,0-2.2-0.9-2.2-2.3L1139-3.7z"/>
	<path fill="#F5F2E0" d="M1159-3.9c0-1.4,0.9-2.3,2.2-2.3c1.2,0,2.2,0.9,2.2,2.3l0.1,13.9c0,0.1,0.1,0.2,0.2,0.2l7.1-0.1
		c1.3,0,2.2,0.8,2.2,1.9c0,1.1-0.8,1.9-2.2,2l-9.4,0.1c-1.3,0-2.2-0.9-2.2-2.2L1159-3.9z"/>
	<path fill="#F5F2E0" d="M1177.3-4.1c0-1.4,0.9-2.3,2.2-2.3c1.2,0,2.2,0.9,2.2,2.3l0.1,15.8c0,1.4-0.9,2.3-2.1,2.3
		c-1.3,0-2.2-0.9-2.2-2.3L1177.3-4.1z"/>
	<path fill="#F5F2E0" d="M1187.4-3.9c0-1.6,0.9-2.6,2.4-2.6c1.3,0,2,0.7,2.7,2.2l4.3,9.6l0.1,0l4.1-9.7c0.6-1.5,1.3-2.2,2.6-2.3
		c1.4,0,2.4,1,2.4,2.6l0.1,15.7c0,1.3-0.8,2.1-2,2.1c-1.2,0-2-0.7-2-2.1l-0.1-9.7l-0.1,0l-3,7.2c-0.6,1.4-1.1,1.8-2.1,1.8
		c-1,0-1.5-0.4-2.1-1.8l-3.2-7.2l-0.1,0l0.1,9.7c0,1.3-0.8,2.1-1.9,2.1c-1.2,0-2-0.7-2-2.1L1187.4-3.9z"/>
	<path fill="#F5F2E0" d="M1211.1,10.8l5.3-15c0.5-1.6,1.4-2.5,2.9-2.6c1.5,0,2.5,0.9,3,2.5l5.5,14.9c0.1,0.2,0.2,0.5,0.2,0.8
		c0,1.2-1,2-2.1,2c-0.9,0-1.7-0.5-2-1.5l-0.8-2.4l-7.1,0.1l-0.8,2.4c-0.3,1-1.1,1.5-2,1.5c-1.1,0-2.1-0.8-2.1-2
		C1210.9,11.4,1211,11.1,1211.1,10.8z M1221.7,6l-2.4-7l-0.1,0l-2.3,7L1221.7,6z"/>
</g>
<g>
	<path fill="#F5F2E0" d="M202.4,169.8c-1.7-1.7-3.8-2.1-6.4-2.1c-2.5,0-4.6,1.3-6.3,3.4c-1.3,1.7-2.5,3.8-2.9,6.8
		c-0.4,3.4,0.5,6.3,2.6,8.4c0,0,0.4,0.4,0.8,0.4c2.1,1.7,4.7,2.5,8.5,2c3.8,0,6.3-0.9,7.6-2.6c1.7-2.1,2.1-5.5,0.3-10.1
		C204.9,173.6,203.6,171,202.4,169.8"/>
	<path fill="#F5F2E0" d="M616.2,169.5c-1.7-1.7-3.8-2.1-6.4-2.1s-4.6,1.3-6.3,3.4c-1.3,1.7-2.5,3.8-2.9,6.8
		c-0.4,3.4,0.5,6.3,2.6,8.4c0,0,0.4,0.4,0.8,0.4c2.1,1.7,4.7,2.5,8.5,2c3.8,0,6.3-0.9,7.6-2.6c1.7-2.1,2.1-5.5,0.3-10.1
		C618.8,172.9,617.5,170.8,616.2,169.5"/>
	<path fill="#F5F2E0" d="M201.3,288.2c-3.8,0-8.9-1.6-11.1-9.2c-1.3-5.5-2.7-17.3-3.3-36.8l-0.1-5.9c-0.7-27.9,1-34.3,2.2-36.4
		c2.5-3.4,5.5-5.1,8.8-5.2l0.8,0c0,0,0,0.4,0.4,0.4c3.8,0.4,6.4,3.3,7.2,7.1c1.3,6.3,2.7,19.8,4.2,41c0.5,8.5,1,16.1,1.5,21.5
		c0.1,6.8,0.1,11-0.3,14C210.2,286.4,205.1,288.1,201.3,288.2L201.3,288.2z M613,286.2c-3.8,0-8.9-0.8-11.1-8.8
		c-1.3-5.5-2.7-17.3-3.3-36.3l0-5.5c-0.7-27.9,1-33.8,2.2-36c2.5-3.4,5.5-4.7,8.8-4.7l0.8,0c0,0,0,0,0.4,0c3.8,0.4,6.4,2.9,7.2,7.1
		c1.3,6.3,2.7,19.8,4.2,41c0.5,8.9,1,16.1,1.5,21.5c0.1,6.8,0.1,10.1-0.3,13.1C621.9,285.3,616.9,286.2,613,286.2L613,286.2z
		 M335.5,213.4c0,0-1.7,0-2.5,0.4c-5.1,0.9-8.9,3-11.8,7.3c-6.3,8.9-9.6,17.4-9.5,25c0,1.7,0,3.8,0.5,5.5c0.9,5.1,3,8.9,6,10.9
		c2.6,2.1,7.2,2.9,14,2.8l0.4,0c7.2-0.1,12.2-1.4,16-3.9c3.8-2.6,5.9-6.4,7.1-12.3c0.8-3,1.2-5.9,0.8-9.3c0-3-0.5-6.3-1.4-9.3
		c-1.7-6.3-4.3-11-8.2-13.5S339.7,213.4,335.5,213.4l0-2.1L335.5,213.4z M332.8,290.8c-4.2,0-8.5-0.3-12.7-1.6
		c-13.1-3.3-22.5-10.8-28.1-22.6c-2.6-6.3-4.3-12.6-4.8-19.4c-0.1-5.9,0.7-11.8,2.8-18.2c4.1-13.6,12.5-24.2,24.7-32.3
		c4.6-3.8,8.4-6,11.8-6.9c1.3-0.4,2.5-0.4,4.6-0.5l0.4,0c2.5,0,5.1,0.4,8.5,0.8c14,1.6,24.6,8.2,32.7,19.2c5.6,8,8.6,17.7,9.1,29.1
		c0,1.7,0,3.4,0,5.5c-0.7,14-4.9,25-12,32.7c-5.4,6-13,9.8-21.9,12C342.1,290.3,337.4,290.8,332.8,290.8L332.8,290.8z M405.1,292.3
		c-1.7,0-3.4,0-5.5-0.4c-4.7-1.2-7.2-2.9-8.5-5.8c-0.9-2.1-2.2-8.4-4.6-44.3c-1-13.5-1.5-23.2-2-29.6l0-5.1c0.4-5.5,1.6-8.9,4.1-9.8
		c0.8-0.4,2.1-0.4,3-0.4c2.5,0,5.1,1.2,8.1,3.3c2.1,1.7,3,2.1,3.4,2.1l0.4,0c1.7-1.7,5.5-3.9,10.5-6.4c4.6-2.6,10.1-3.9,15.6-3.9
		l0,0c4.6,0,9.3,0.8,14.8,2.4c12.7,4.1,19.1,10,19.6,17.2c0,2.5-0.4,4.2-1.6,5.5c-1.7,1.7-4.6,2.6-6.7,2.6l0,0
		c-3.8,0-8-0.8-13.6-2.8c-4.7-1.6-8.9-2-12.3-2c-5.5,0-9.7,1.8-12.6,6c-4.6,6.8-6.6,20.8-5.5,41.9c1.5,27.9-0.6,28.8-1.9,29.6
		C408.5,292.3,406.8,292.3,405.1,292.3L405.1,292.3z M72.9,296.5c-12.3-0.3-21.6-2.8-28.4-7.4c-4.7-3.3-6.8-7.1-6.9-10.9
		c-0.4-2.1,0.4-5.1,2-7.6c1.3-1.7,2.9-2.1,5.9-2.2c3,0,7.2,0.8,12.7,2c6.8,1.6,12.3,2.9,16.1,2.8c0.4,0,0.8,0,0.8,0
		c3,0,4.2-0.9,4.6-1.7c-0.9-1.3-5.6-6.3-31.1-27.2c-7.7-6.3-11.1-14.7-9.9-25.7c1.2-11,6.2-19.1,15-24.7c5.9-3.4,11.8-5.2,18.6-5.2
		l1.7,0c7.6,0.4,13.1,2.4,17,7c4.7,5.5,5.6,9.7,3.9,12.6c-1.2,2.1-3.8,3.4-8,3.5c-1.7,0-3.4,0-5.5-0.4c-1.7-0.4-3.4-0.4-5.1-0.4
		c-3.4,0-6.8,0.9-9.3,2.2c-3.8,2.1-5.5,5.1-5.4,8.9c0,2.1,2.2,5.9,10.7,12.2c6.8,4.6,14,10.4,21.7,18c4.3,4.6,6.8,8.4,8.1,10.9
		c0.9,2.1,1.7,4.6,1.8,8c0,1.3,0,2.1-0.4,3.8c-0.3,14.8-10.4,22.1-29.4,22.2C74.1,296.9,72.9,296.5,72.9,296.5 M539.5,292.8
		c-4.6,0-8-1.2-10.2-3.7l0,0c-0.4-0.8-1.7-2.9-7.9-35.4c-4.9-27.9-7.1-32.9-7.9-33.8c0,0,0,0-0.4-0.4c-2.6-3.8-5.5-5.9-8.9-5.8
		c-3.4,0-7.6,2.2-12.2,6c-8,6.8-12.1,23.4-11,48.3c0.6,19.4-1.9,23.3-4.4,24.1c-1.3,0.4-2.1,0.4-3.4,0.5c-3.8,0-6.4-2.1-8.5-6.7
		c-2.2-4.6-3.9-13.1-4.5-25.3c-0.4-3-0.5-5.5-0.5-8.5c-0.7-29.6,8.4-48.7,27.8-57.7c6.3-3,12.6-4.3,18.1-4.4
		c6.8-0.1,12.3,2,17.8,6.2c6,4.6,10.7,10.9,13.7,18.1c3,7.2,6.1,18.5,8.8,34.6c2.2,13.5,3.6,23.6,3.6,30l0,3.4c0,0,0,0,0,0.4
		C548,291.4,542.5,292.8,539.5,292.8L539.5,292.8z M251.3,296.2c-12.3-0.3-21.6-2.8-28.4-7.4c-4.7-3.3-6.8-7.1-6.9-10.9
		c-0.4-2.5,0.4-5.1,2-7.6c1.3-1.7,2.9-2.1,5.9-2.2s7.2,0.8,12.7,2c6.8,1.6,12.3,2.9,16.1,2.8c0.4,0,0.8,0,0.8,0c3,0,4.2-0.9,4.6-1.7
		c-0.9-1.3-5.6-6.3-31.1-27.2c-7.7-6.3-11.1-14.7-9.9-25.7s6.2-19.1,15-24.7c5.9-3.4,11.8-5.2,18.6-5.2l1.7,0c7.6,0.4,13.1,2.4,17,7
		c4.7,5.5,5.6,9.7,3.9,12.6c-1.2,2.1-3.8,3.4-8,3.5c-1.7,0-3.4,0-5.5-0.4c-1.7-0.4-3.4-0.4-5.1-0.4c-3.4,0-6.8,0.9-9.3,2.2
		c-3.8,2.1-5.5,5.1-5.4,8.9c0,2.1,2.2,5.9,10.7,12.2c6.8,4.6,14,10.4,21.7,18c4.3,4.6,6.8,8.4,8.1,10.9c0.9,2.1,1.7,4.6,1.8,8
		c0,1.3,0,2.1-0.4,3.8c-0.3,14.8-10.4,22.1-29.4,22.2C252.5,296.2,251.3,296.2,251.3,296.2 M583.9,292.4c-3.4,0-7.2-0.8-11.4-2.9
		c-8.5-5-14.5-12.1-18-22.2c-1.3-4.2-2.2-15.2-2.8-33.4l-0.6-23.2c0-43.1,1.7-52,2.9-54.6c2.1-3.8,4.6-5.5,7.6-5.6
		c3,0,5.9,1.6,8.9,4.6c2.1,2.1,4.3,10.1,6,54.1c0.6,18.2,1.5,30.8,2.5,38.4c0.5,7.6,1.8,12.7,3.1,15.6c1.7,2.9,4.3,4.6,7.7,6.3
		c3.8,1.7,6.4,4.6,7.7,8.8c0.4,0.8,0.4,1.7,0.4,2.5c0,3.4-1.2,5.9-3.7,8.5C591.1,291.5,587.7,292.4,583.9,292.4L583.9,292.4z
		 M139.3,209.2c-2.1,0-3,0-4.2,0.5c-3,0.9-4.6,2.2-5.5,5.1c-0.8,3.4-1.2,12.7-1.4,27.5c0,4.6,0.1,8.5,0.1,11.4
		c0.1,5.9,0.5,8.9,0.5,10.1c1.7-0.4,4.6-1.7,8.8-5.2c4.6-3.4,8.8-8.1,12.6-13.6c5.9-7.7,8.3-14.4,8.3-19.9c0-4.2-2.2-7.6-6-10.5
		c-2.1-2.1-5.1-3.3-8.1-4.2C142.7,209.6,141,209.2,139.3,209.2l0-2.1L139.3,209.2z M120.3,312.1c-2.5,0-4.7-0.4-6.8-2.5
		c-2.1-2.1-3.4-5.9-4.3-13.5c0-1.3,0-2.1-0.4-3c-0.5-5.1-0.9-10.6-1.5-29.2c-0.7-27.9-0.8-45.2,0.4-53.3c1.2-8,5.4-14.4,11.7-19.1
		c3.4-2.6,8.8-3.9,15.6-3.9l5.1,0c9.7,0.8,17.4,3.2,23.3,7c8.5,5.8,14.1,13.4,16.7,23.1c0.9,3.4,1.3,6.3,1.4,9.3
		c0.1,6.3-1.2,12.7-4.1,18.6c-5.4,11-12.5,20-20,27.7c-8.4,7.7-16,10.7-23.2,10.8l0,0c-1.3,0-3.4,0.5-3.8,1.7c0,0.4-0.4,0.8-0.4,0.8
		c-0.4,0.4-0.4,1.3-0.4,7.6l0,3.8c0,3.8,0,4.2,0.1,6.3c-0.8,3.4-2.5,5.1-5,6.4C123.3,312.5,121.6,312.1,120.3,312.1L120.3,312.1z"/>
	<path fill="#F5F2E0" d="M314.2,198.8c0,0.4,0,0.4,0,0.4s-0.4,0-0.4-0.4l-6.5-13c0-0.4,0-0.4,0-0.4s0.4,0,0.4,0.4L314.2,198.8z"/>
	<path fill="#F5F2E0" d="M309.4,179.4c0-0.8,0-1.7,0-2.5l0-0.4L309,176c-0.4,0.4-0.4,0.4-0.8,0.9c0,0,0,0-0.4,0.4l0-0.4
		c0-0.4,0-1.3,0-1.7l0,0c-0.8,0.9-1.2,2.1-2.1,3.4c0,0,0,0.4-0.4,0.4c0,0,0-0.4,0.4-0.4c0.8-1.3,1.2-2.5,1.7-3.8
		c-0.4-0.4-0.9-1.3-1.7-1.7c0,0,0,0.4-0.4,0.4l0,0.4l0-0.4c0-0.4-0.4-0.8-0.4-1.3c-0.4-0.4-0.8-0.4-1.3-0.8c0,0.4,0,0.8,0,0.8l0,0.4
		c0,0,0,0-0.4-0.4c-0.9-0.8-1.7-1.3-3-2.1l-0.4,0l-0.4,0.4c0,0.8,0,1.3,0,2.1l0,0.4c0,0,0,0-0.4-0.4c-0.4,0-0.4-0.4-0.8-0.4
		c-0.4,1.3-0.4,2.1-0.4,3.4c0.4,0.8,1.3,1.7,1.7,2.5c0,0,0,0,0.4,0.4l-0.4,0c-0.4,0-0.8,0-1.3,0l0,0c1.3,0.8,1.7,1.7,2.1,2.1
		c0,0,0,0,0.4,0.4l-0.4,0l-0.4,0c0,0.4,0,0.4,0.4,0.8c0.4,0.8,0.9,1.3,1.3,1.7c2.5,0.4,5.1,1.2,7.2,3.3c0,0,0,0,0.4,0.4l0-0.4
		C307.8,184.1,308.6,181.5,309.4,179.4"/>
	<path fill="#F5F2E0" d="M317.5,187.4c0.4-0.4,0.8-0.9,1.3-1.7c0,0,0,0,0-0.4l0-0.4c-0.4,0-0.4,0-0.8,0l-0.4,0c0,0,0,0,0.4,0
		c0.4-0.4,0.8-0.4,1.3-0.9l0,0c-0.8,0-2.1,0.4-3.4,0.9l-0.4,0l0.4,0c1.3-0.4,2.5-0.9,3.8-1.7c0-0.4,0-1.3,0-1.7c0,0-0.4,0-0.4,0.4
		c0,0,0,0-0.4,0c0,0,0,0,0-0.4s0.4-0.8,0.4-0.8c0-0.4-0.4-0.8-0.4-1.3c-0.4,0.4-0.4,0.4-0.4,0.8c0,0,0,0,0,0.4c0,0,0,0,0-0.4
		c0-0.8-0.4-1.7-0.9-2.5c0,0-0.4,0-0.4-0.4l-0.4,0c-0.4,0.4-0.8,0.9-1.3,1.3c0,0,0,0,0,0.4c0,0,0,0,0-0.4s0-0.4,0-0.8
		c-0.8,0.4-1.7,1.3-2.5,1.7c-0.4,0.8-0.4,1.7-0.4,2.5c0,0,0,0,0,0.4c0,0,0,0,0-0.4c-0.4-0.4-0.4-0.4-0.9-0.8l0,0
		c0,0.4-0.4,1.3-0.4,1.7c0,0,0,0,0,0.4c0,0,0,0,0-0.4c0,0,0,0-0.4-0.4c0,0,0,0.4-0.4,0.4c0,0.4-0.4,1.3-0.4,1.7c1.7,1.3,3,3.4,3,5.5
		c0,0,0,0,0,0.4c0,0,0,0,0-0.4C313.7,189.1,315.4,187.8,317.5,187.4"/>
	<path fill="#F5F2E0" d="M310.4,191.2l-4.2-0.4c-0.4,0-0.4,0-0.4,0.4c0,0,0,0.4,0.4,0.4l4.7,0.8L310.4,191.2z"/>
	<path fill="#F5F2E0" d="M302.8,194.7c-0.8,0.4-1.3,0.4-2.1,0.4l-0.4,0l-0.4,0c0-0.4,0.4-0.4,0.4-0.8c0,0,0,0,0.4-0.4c0,0,0,0-0.4,0
		c-0.4,0.4-0.8,0.4-1.3,0.4l0,0c0.8-0.9,1.7-1.7,2.5-2.6l0.4-0.4c0,0-0.4,0-0.4,0.4c-1.3,0.9-2.1,1.7-3.4,2.6
		c-0.4-0.4-0.8-0.4-1.3-0.8l0.4-0.4c0,0,0,0,0.4,0c0,0,0,0-0.4,0s-0.8,0-1.3,0c-0.4-0.4-0.4-0.8-0.9-0.8c0.4,0,0.4,0,0.8,0
		c0,0,0,0,0.4,0c0,0,0,0-0.4,0c-0.8-0.4-1.3-1.3-2.1-2.1l0-0.4l0.4-0.4c0.4,0,1.3-0.4,1.7-0.4c0,0,0,0,0.4,0c0,0,0,0-0.4,0l-0.4-0.4
		c0.8-0.4,1.7-0.9,2.9-1.3c0.8,0,1.7,0.4,2.5,0.8c0,0,0,0,0.4,0c0,0,0,0,0-0.4c0-0.4,0-0.8-0.4-1.3l0,0c0.4,0,1.3,0.4,1.7,0.4
		c0,0,0,0,0.4,0c0,0,0,0,0-0.4l0-0.4l0.4,0c0.4,0,1.3,0.4,1.7,0.4c0.4,2.1,1.7,4.2,3.4,5.5c0,0,0,0,0.4,0c0,0,0,0-0.4,0
		C306.6,192.1,304.5,193,302.8,194.7"/>
	<path fill="#F5F2E0" d="M48.7,199.9c0,0,1.2-7.6-4.8-12.6l0,1.3c0,0-5.1-6.7-15.2-2c-7.2,3.4-8.8,7.3-8.8,7.3s2.5-1.3,4.7,3.3
		c1.3,2.5,6,6.3,11,5.4c5.1-0.9,6.3-0.9,6.3-0.9l-2.1,1.7c0,0,7.6-3,9.3-0.1c0,0-6.5-14.3-17.9-12.9
		C31.3,190.3,41.5,187.7,48.7,199.9"/>
	<path fill="#F5F2E0" d="M524.2,180.5c-7.6,3-11.3,10.2-10,17c-0.4-0.4-0.8-0.4-1.3-0.8c-1.3-6.3,2.8-13.1,10-16.2
		c3.8-1.7,7.6-1.8,11.4-0.9C530.9,178.7,527.6,179.2,524.2,180.5"/>
	<path fill="#F5F2E0" d="M515.3,184.8c0,0-0.5-6.3,5-10.6l0,1.3c0,0,5-5.5,13.1-0.5c5.9,3.3,7.2,6.7,7.2,6.7s-2.1-1.2-4.2,2.6
		c-1.2,2.1-5.5,4.7-9.7,3.9c-4.2-1.2-5.1-1.2-5.1-1.2l1.7,1.7c0,0-6.4-2.9-7.6-0.8c0,0,6.2-11.5,16-9.9
		C530.9,177.4,522.4,174.6,515.3,184.8"/>
</g>
</svg>
