<?xml version="1.0" encoding="utf-8"?>
<!-- Generator: Adobe Illustrator 18.0.0, SVG Export Plug-In . SVG Version: 6.00 Build 0)  -->
<!DOCTYPE svg PUBLIC "-//W3C//DTD SVG 1.1//EN" "http://www.w3.org/Graphics/SVG/1.1/DTD/svg11.dtd">
<svg version="1.1" id="Lag_1" xmlns="http://www.w3.org/2000/svg" xmlns:xlink="http://www.w3.org/1999/xlink" x="0px" y="0px"
	 viewBox="0 0 800 310" enable-background="new 0 0 800 310" xml:space="preserve">
<g>
	<path fill="#253A44" d="M377,103c0.4,0,0.4-0.4,0.4-0.4C377,102.6,377,103,377,103z"/>
	<path fill="#253A44" d="M373.1,116l0.4-0.4C373.5,115.5,373.1,115.5,373.1,116z"/>
	<path fill="#253A44" d="M384,106.9c0,0.4,0,0.4,0,0.4C384,106.9,384,106.9,384,106.9z"/>
	<path fill="#253A44" d="M391,104.8C391,104.7,391,104.7,391,104.8C391,104.8,391,104.8,391,104.8z"/>
	<path fill="#253A44" d="M427.3,156.1c-1.7-6.5-4.3-11.2-8.2-13.8c-3.9-2.6-7.3-3.9-11.6-3.9c0,0-1.7,0-2.6,0.4
		c-5.2,0.9-9.1,3-12.1,7.3c-6.5,9-9.9,17.7-10,25.4c0,1.7,0,3.9,0.4,5.6c0.9,5.2,3,9.2,6,11.4c2.6,2.2,7.3,3.2,14.2,3.2h0.4
		c7.3,0,12.5-1.4,16.4-4c3.9-2.6,6-6.5,7.3-12.6c0.9-3,1.3-6.1,0.9-9.5C428.6,162.6,428.2,159.2,427.3,156.1z"/>
	<path fill="#253A44" d="M220.8,137.7c-2.2-2.2-5.2-3.5-8.2-4.3c-1.7-0.9-3.4-1.3-5.2-1.3c-2.2,0-3,0-4.3,0.4
		c-3,0.9-4.7,2.1-5.6,5.2c-0.9,3.4-1.3,12.9-1.8,28c0,4.7,0,8.6,0,11.6c0,6,0.4,9.1,0.4,10.3c1.7-0.4,4.7-1.7,9.1-5.2
		c4.7-3.4,9.1-8.2,13-13.8c6-7.8,8.6-14.6,8.7-20.3C226.8,144.2,224.7,140.7,220.8,137.7z"/>
	<path fill="#253A44" d="M389.9,109.8c-0.4,0-0.4,0-0.4,0H389.9z"/>
	<path fill="#253A44" d="M114.3,120.2c-7.2-10.9-16.8-8.6-16.8-8.6c7.7-0.8,13.1,5.3,15.9,9.5C113.7,120.8,114,120.5,114.3,120.2z"
		/>
	<path fill="#253A44" d="M782.9,28L21.5,37c-2.4,0-4.2,2-4.1,4.4l11.3,244.4c0.1,2.4,2.2,4.7,4.6,4.7l742.3,1c2.4,0,4.5-2.3,4.6-4.7
		l6.9-254.3C787.2,30.1,785.3,28,782.9,28z M678.4,104.8c0.4-3,1.7-5.2,3-6.9c1.7-2.2,3.9-3.4,6.5-3.4c2.6,0,4.7,0.4,6.5,2.2
		c1.3,1.3,2.6,3.5,4.3,6.5c1.7,4.7,1.3,8.2-0.4,10.3c-1.3,1.7-3.9,2.6-7.8,2.6c-3.9,0.4-6.5-0.4-8.6-2.2c-0.4,0-0.9-0.4-0.9-0.4
		C678.8,111.3,677.9,108.2,678.4,104.8z M382.1,106.9c0.4,0,0.4-0.4,0.4-0.4c0.4,0.4,0.4,0.4,0.4,0.4c0-0.4,0.4-1.3,0.4-1.7
		c0.4,0.4,0.4,0.4,0.9,0.9c0-0.9-0.2-1.7,0.3-2.6c0.9-0.4,2.4-1.3,2.4-1.7c0,0.4,0,0.2,0,0.6c0-0.4,1.2-2.6,1.6-2.6h0.4l0.4,1.2
		c0.4,0.9,0.9,2.1,0.9,3c0-0.4,0-0.2,0.4-0.7c0,0.4,0.5,1,0.5,1.4c0,0-0.3,0.5-0.3,1c0,0.4,0,3.1,0,3.1c4,0,0.2,0,0.2,0l0.4-1.8
		c0,0.4,0,0.6,0,1.1c-1.3,0.9-2.6,1-3.9,1.4c1.3-0.4,2.6-1,3.5-1c-0.4,0.4-0.7,0.3-1.2,0.8c0.4,0,1-0.1,1-0.1v0.4c0,0.4,0,0.4,0,0.4
		c0,0.9-1.3,1.3-1.8,1.7c-2.2,0.4-2.2,1.7-5.2,2.6c0,0,0,0,0,0.4c0,0,0,0,0-0.4c0-2.2-0.9-4.3-2.7-5.6
		C381.3,108.2,382.1,107.3,382.1,106.9z M256.2,100.7c0.4-3,1.7-5.2,3-6.9c1.7-2.2,3.9-3.4,6.5-3.4c2.6,0,4.7,0.4,6.5,2.2
		c1.3,1.3,2.6,3.9,4.3,6.5c1.7,4.7,1.3,8.2-0.4,10.3c-1.3,1.7-3.9,2.6-7.8,2.6c-3.9,0.4-6.5-0.4-8.6-2.2c-0.4,0-0.9-0.4-0.9-0.4
		C256.7,107.1,255.8,104.1,256.2,100.7z M170.3,198.9c-0.5,15.1-10.8,22.4-30.2,22.4c0-0.4-1.3-0.9-1.3-0.9
		c-12.5-0.5-22-3.1-28.9-7.8c-4.7-3.5-6.9-7.3-6.9-11.2c-0.4-2.2,0.4-5.2,2.2-7.8c1.3-1.7,3-2.2,6-2.1c3,0,7.3,0.9,12.9,2.2
		c6.9,1.7,12.5,3.1,16.4,3.1c0.4,0,0.9,0,0.9,0c3,0,4.3-0.9,4.7-1.8c-0.9-1.3-5.6-6.5-31.4-28.1c-7.8-6.5-11.2-15.1-9.9-26.3
		c0.8-6.6,2.9-12.2,6.4-16.8c-2.5,0.3-5.1,1.3-5.1,1.3l2.2-1.7c0,0-1.3,0-6.5,0.9c-5.2,0.9-9.9-3-11.2-5.6c-2.1-4.7-4.7-3.5-4.7-3.5
		s1.7-3.9,9.1-7.3c10.4-4.7,15.5,2.2,15.5,2.2l0-1.3c4,3.4,4.8,8,4.8,10.7c1.5-1.4,3.2-2.6,5.1-3.8c6-3.4,12.1-5.2,19-5.1l1.7,0
		c7.8,0.4,13.4,2.6,17.2,7.4c4.7,5.6,5.6,9.9,3.9,12.9c-1.3,2.2-3.9,3.4-8.2,3.4c-1.7,0-3.4,0-5.6-0.4c-1.7-0.4-3.4-0.4-5.2-0.4
		c-3.4,0-6.9,0.9-9.5,2.1c-3.9,2.2-5.6,5.2-5.6,9c0,2.2,2.1,6,10.8,12.5c6.9,4.8,14.2,10.8,22,18.6c4.3,4.7,6.9,8.6,8.2,11.2
		c0.9,2.2,1.7,4.7,1.7,8.2C170.7,196.3,170.7,197.1,170.3,198.9z M245.8,169.7c-5.6,11.2-13,20.2-20.7,28
		c-8.6,7.7-16.4,10.8-23.7,10.7c-1.3,0-3.5,0.4-3.9,1.7c0,0.4-0.4,0.9-0.4,0.9c-0.4,0.4-0.4,1.3-0.4,7.8l0,3.9c0,3.9,0,4.3,0,6.5
		c-0.9,3.4-2.6,5.2-5.2,6.5c-1.3,1.7-3,1.3-4.3,1.3c-2.6,0-4.7-0.4-6.9-2.6c-2.2-2.2-3.4-6-4.3-13.8c0-1.3,0-2.2-0.4-3
		c-0.4-5.2-0.8-10.8-1.2-29.8c-0.4-28.5-0.4-46.1,0.9-54.3c1.3-8.2,5.6-14.7,12.1-19.4c3.5-2.6,9.1-3.9,16-3.9l5.2,0
		c9.9,0.9,17.7,3.5,23.7,7.4c8.6,6.1,14.2,13.8,16.8,23.7c0.9,3.5,1.3,6.5,1.3,9.5C250.1,157.2,248.8,163.6,245.8,169.7z
		 M280.7,203.8c-1.7,7.8-6.9,9.5-10.8,9.5c-3.9,0-9.1-1.7-11.2-9.5c-1.3-5.6-2.6-17.7-3-37.5l0-6c-0.4-28.5,1.3-34.5,2.6-36.7
		c2.6-3.4,5.6-4.8,9.1-4.8h0.9c0,0,0,0,0.4,0c3.9,0.4,6.5,3.3,7.3,7.1c1.3,6.5,2.6,20.2,3.8,41.7c0.4,8.6,0.8,16.3,1.3,21.9
		C281.1,196.5,281.1,200.8,280.7,203.8z M352.2,200.4c-0.5,15.1-10.8,22.4-30.2,22.4c0-0.9-1.3-0.9-1.3-0.9
		c-12.5-0.5-22-3.1-28.9-7.8c-4.7-3.5-6.9-7.3-6.9-11.2c-0.4-2.6,0.4-5.2,2.2-7.8c1.3-1.7,3-2.2,6-2.1c3,0,7.3,1.6,12.9,2.9
		c6.9,1.7,12.5,3.8,16.4,3.8c0.4,0,0.9,0,0.9,0c3,0,4.3-1.6,4.7-2.5c-0.9-1.3-5.6-6.9-31.4-28.5c-7.8-6.5-11.2-15.3-9.9-26.5
		c1.3-11.2,6.5-19.6,15.6-25.2c6-3.4,12.1-5.4,19-5.4h1.7c7.8,0,13.4,2.7,17.2,7.5c4.7,5.6,5.6,10,3.9,13c-1.3,2.2-3.9,3.5-8.2,3.5
		c-1.7,0-3.4,0-5.6-0.4c-1.7-0.4-3.4-0.4-5.2-0.4c-3.4,0-6.9,0.9-9.5,2.1c-3.9,2.1-5.6,5.2-5.6,9c0,2.2,2.1,6,10.8,12.5
		c6.9,4.8,14.2,10.8,22,18.6c4.3,4.7,6.9,8.6,8.2,11.2c0.9,2.2,1.7,4.7,1.7,8.2C352.7,197.9,352.7,198.7,352.2,200.4z M454.5,170
		c-0.9,14.2-5.2,25.4-12.6,33.2c-5.6,6-13.4,9.9-22.4,12c-6,1.7-10.8,2.1-15.5,2.1c-4.3,0-8.6-0.4-12.9-1.7
		c-13.4-3.5-22.8-11.2-28.4-23.3c-2.6-6.5-4.3-12.9-4.7-19.8c0-6,0.9-12.1,3-18.5c4.2-13.3,12.3-23.7,24.1-31.8l-2.6-5.3l-3.1-0.6
		c-1.8,0.5-3.5,1.5-4.9,2.9c-0.9,0.4-1.3,0.6-2.2,0.6h-0.4h-0.4c0,0,0.4-0.3,0.4-0.7c0,0,0,0.7,0.4-0.3c0,0,0,0-0.4,0
		c-0.4,1-0.9,0.1-1.3,0.1c0.9-0.9,1.7-1.9,2.6-2.7c-1.3,0.9-2.2,1.6-3.5,2.5c-0.4-0.4-0.9,0.3-1.3-0.1l0.4,0.3c-0.4,0-0.9,0-1.3,0
		c-0.4,0-0.4-1.6-0.9-1.6c0.4,0,1.3-0.4,1.7-0.4c-0.9-0.4-1.3-1.7-1.3-2.5v-0.4l-0.4-0.4c0.4,0,0.9-0.4,1.3-0.4l-0.6-0.4
		c0.9-0.4,1.6-1,2.9-1.4c0.9,0,1.6-0.3,2.5,0.7H372c0,0,0,0.3,0-0.1c0-0.4,0.5-0.9,0.1-1.3c0.4,0,1.8,0.4,2.3,0.4H374c0,0,0,0,0-0.4
		v0.4h1.2c0.4,0,1.3,0,1.7,0c0.4,1.8,1.3,3.4,2.7,4.7l2.2,0.1l-2.5-5.3c-1.9-1.4-4-2.1-6.2-2.5c-0.4-0.4-0.9-1.6-1.3-2.4
		c-0.4-0.4-0.4,3.4-0.4-1.6h0.4h0.4c-0.4,0-0.4,0.3-0.4,0.3c-0.4-0.4-0.9-0.4-2.2-1.2c0.4,0,0.9,0.9,1.3,0.9h0.4c-0.4,0-0.4-1-0.4-1
		c-0.4-0.9-1.3-2-1.7-2.9c0-1.3,0-2.3,0.4-3.6c0.4,0,1,0.4,1.4,0.4c0.4,0.4,1,0.4,1,0.4v-0.4c0-0.9-0.5-0.9-0.5-1.8l-0.1,0h0.4
		c1.3,1,1.5,0.9,2.4,1.8c0.4,0.4-0.2,0-0.2,0v-0.4c0,0,0.6-0.4,0.6-0.9c0.4,0.4,1.2,0.4,1.6,0.9c0,0.4,0.6,0.9,0.6,1.3
		c0.4,0,0.5-0.4,0.5-0.4c0.9,0.4,1.3,1.3,1.8,1.7c-0.4,1.3-0.8,2.6-1.7,3.9c0.9-1.3,1-2.6,1.9-3.4c0,0.4-0.3,1.3-0.3,1.7v0.4
		c0-0.4,0.7-0.4,0.7-0.4c0.4-0.4,0.9-0.4,1.4-0.9l0.9,0.4v0.4c0,0.9-1.3,1.7-1.3,2.6c-0.9,2.2-1.7,4.7-1.7,7.8v0.4
		c0-0.4,0.5-0.4,0.5-0.4c-0.1-0.1,0.2-0.3,0-0.4l5.6,11.1c0.4-0.3,0.8-0.5,1.2-0.8c4.7-3.9,8.7-5.6,12.1-6.4c1.3-0.4,2.6,0,4.8,0
		h0.4c2.6,0,5.2,0,8.6,0.4c14.2,1.7,25,8.4,33.2,19.7c5.6,8.2,8.6,18,9,29.7C454.5,166.2,454.5,167.8,454.5,170z M516.2,142.9
		c-4.7-1.7-9.1-2.2-12.5-2.2c-5.6,0-9.9,1.7-12.9,6c-4.8,6.9-6.9,21.1-6.1,42.7c1.2,28.5-0.9,29.3-2.2,30.2c-1.3,0-3,0-4.7,0
		c-1.7,0-3.4,0-5.6-0.4c-4.7-1.3-7.3-3-8.6-6.1c-0.9-2.2-2.1-8.6-4.2-45.3c-0.8-13.8-1.3-23.7-1.7-30.2l0-5.2
		c0.4-5.6,1.7-9.1,4.3-9.9c0.9-0.4,2.2-0.4,3-0.4c2.6,0,5.2,1.3,8.2,3.5c2.2,1.7,3,2.2,3.4,2.2h0.4c1.7,0,5.6-3.9,10.8-6.5
		c4.7-2.6,10.4-3.9,16-3.9c4.7,0,9.5,0.9,15.1,2.6c12.9,4.3,19.4,10.4,19.8,17.7c0,2.6-0.4,4.3-1.7,5.6c-1.7,1.7-4.7,2.6-6.9,2.6
		C526.1,145.9,521.8,145.1,516.2,142.9z M625,210.8c0,0,0,0,0,0.4c-1,9.1-7.3,10.3-10.3,10.3c-4.7,0-8.1-1.3-10.3-3.9
		c-0.4-0.9-1.7-3-7.7-36.2c-4.7-28.5-6.8-33.6-7.7-34.5c0,0,0,0-0.4-0.4c-2.6-3.9-5.6-6-9-6.1c-3.4,0-7.8,2.1-12.5,6
		c-8.2,6.9-12.5,23.7-11.7,49.1c0.4,19.8-2.2,23.7-4.8,24.6c-1.3,0.4-2.2,0.4-3.5,0.4c-3.9,0-6.5-2.2-8.6-6.9
		c-2.1-4.7-3.9-13.4-4.3-25.9c-0.4-3-0.4-5.6-0.4-8.6c-0.4-30.2,9.1-49.6,29-58.6c6.5-3,12.9-4.3,18.5-4.3c2.7,0,5.2,0.4,7.6,1
		c1.1-3.8,4-7.3,8-9.5c2.8-2.4,6.6-4.4,11.1-3.6c-0.9-0.4-9.5-3.5-16.8,6.9c0,0-0.4-6.5,5.2-10.8l0,1.3c0,0,5.2-5.6,13.4-0.4
		c6,3.5,7.3,6.9,7.3,6.9s-2.2-1.3-4.3,2.6c-1.3,2.2-5.6,4.7-9.9,3.9c-4.3-1.3-5.2-1.3-5.2-1.3l1.7,1.7c0,0-6.5-3-7.8-0.9
		c0,0,0.5-0.8,1.3-2c-1.3,1.7-2.3,3.6-2.8,5.5c3.2,1.1,6.2,2.8,9.2,5.1c6,4.8,10.8,11.2,13.8,18.6c3,7.3,6,19,8.6,35.4
		c2.1,13.8,3.3,24.2,3.3,30.6L625,210.8z M670.4,218.6c-3,2.2-6.5,3-10.4,3c-3.4,0-7.3-0.9-11.6-3c-8.6-5.2-14.6-12.5-18.1-22.9
		c-1.3-4.3-2.1-15.5-2.5-34.1l-0.4-23.7c0.5-44,2.2-53,3.5-55.6c2.2-3.9,4.8-5.6,7.8-5.6c3,0,6,1.7,9,4.8c2.2,2.2,4.3,10.4,5.5,55.2
		c0.4,18.5,1.2,31.5,2.1,39.2c0.4,7.8,1.7,12.9,3,16c1.7,3,4.3,4.7,7.8,6.5c3.9,1.7,6.5,4.8,7.7,9.1c0.4,0.9,0.4,1.7,0.4,2.6
		C674.3,213.4,673,216,670.4,218.6z M700.6,207c-1.7,7.8-6.9,8.6-10.8,8.6c-3.9,0-9.1-0.9-11.2-9.1c-1.3-5.6-2.6-17.7-3-37.1l0-5.6
		c-0.4-28.5,1.3-34.5,2.6-36.6c2.6-3.4,5.6-5.6,9.1-5.6l0.9-0.9c0,0,0,0,0.4,0c3.9,3,6.5,3.9,7.3,8.2c1.3,6.5,2.6,20.7,3.8,42.3
		c0.4,9.1,0.8,16.6,1.3,22.2C701.1,200.3,701.1,204,700.6,207z"/>
	<path fill="#253A44" d="M387,102.6c0,0.4,0,0.4,0,0.4C387,102.6,387,102.6,387,102.6z"/>
	<path fill="#253A44" d="M391,104.3C391,104.4,391,104.4,391,104.3C391,104.3,391,104.3,391,104.3z"/>
	<path fill="#253A44" d="M384,106.1c0,0.4,0,0.4,0,0.4C384,106.1,384,106.1,384,106.1z"/>
</g>
</svg>
