<?xml version="1.0" encoding="utf-8"?>
<!-- Generator: Adobe Illustrator 18.0.0, SVG Export Plug-In . SVG Version: 6.00 Build 0)  -->
<!DOCTYPE svg PUBLIC "-//W3C//DTD SVG 1.1//EN" "http://www.w3.org/Graphics/SVG/1.1/DTD/svg11.dtd">
<svg version="1.1" id="Lag_1" xmlns="http://www.w3.org/2000/svg" xmlns:xlink="http://www.w3.org/1999/xlink" x="0px" y="0px"
	 viewBox="0 0 860 470" enable-background="new 0 0 860 470" xml:space="preserve">
<g>
	<g>
		<path fill="#879C29" d="M105.5,82.4c47.2,16.8,74.4,60.2,66.9,102.1c2.3-1.8,4.6-3.6,6.9-5.6c5.1-40.6-21.7-81.8-67.5-98.1
			c-24-8.6-49.1-8.7-71.2-2.2C61.1,73.8,83.7,74.6,105.5,82.4z"/>
		<path fill="#879C29" d="M161.9,105.8c0,0,1.9-41-34.5-64.5l1.5,7.1c0,0-32.7-32.1-82.5,0.3C11.1,71.6,4.7,93.2,4.7,93.2
			s11.8-9.5,27.3,15.2c8.5,13.5,37,28.1,62.8,20c25.8-8.1,32.2-9.7,32.2-9.7l-9.6,10c0,0,38.8-21.5,48.7-6.3c0,0-43.8-70.2-103.5-55
			C62.4,67.4,114.4,46,161.9,105.8z"/>
	</g>
	<path fill="#71841F" d="M4.7,93.2c0,0,1.6-5.2,7.3-13.1c22-13.5,47.9-19.6,73.8-16.4c-14.1,0-23.3,3.7-23.3,3.7
		c59.7-15.2,103.5,55,103.5,55c-9.9-15.3-48.7,6.3-48.7,6.3l9.6-10c0,0-6.4,1.7-32.2,9.7c-25.8,8.1-54.3-6.5-62.8-20
		C16.5,83.6,4.7,93.2,4.7,93.2z"/>
</g>
<g>
	<g>
		<path fill="#879C29" d="M203.7,105.1c-22.2,15.2-30.4,41.5-20.7,62.3c-1.5-0.6-2.9-1.3-4.3-2c-8.3-20.4,0-45.5,21.6-60.3
			c11.3-7.8,24.3-11.3,36.7-11C225.6,94.5,213.9,98.1,203.7,105.1z"/>
		<path fill="#879C29" d="M177.6,125c0,0-6.6-21,9.1-38.3l0.2,3.9c0,0,12.6-21.2,42.9-11.2c21.5,7.1,27.9,17.4,27.9,17.4
			s-7.4-3.3-12.1,11.6c-2.5,8.2-15.3,19.7-29.8,19.1c-14.5-0.6-18.1-0.6-18.1-0.6l6.4,3.9c0,0-23.1-5.8-26.2,3.5
			c0,0,13.1-42.5,46.2-42.8C224,91.4,194.1,87.4,177.6,125z"/>
	</g>
	<path fill="#71841F" d="M257.6,96.8c0,0-1.5-2.5-5.6-5.8c-13.3-4-27.6-3.6-40.6,1.6c7.3-2,12.6-1.3,12.6-1.3
		c-33.1,0.3-46.2,42.8-46.2,42.8c3.1-9.3,26.2-3.5,26.2-3.5l-6.4-3.9c0,0,3.5,0,18.1,0.6c14.5,0.6,27.3-10.9,29.8-19.1
		C250.1,93.5,257.6,96.8,257.6,96.8z"/>
</g>
<g>
	<path fill="#879C29" d="M171.4,76.1c0,0-11.5-8.7-9.7-23.8l1.6,2c0,0-1.3-16.1,18.6-22.2c14.2-4.4,21.4-1.3,21.4-1.3s-5.2,1-2,10.8
		c1.7,5.3-0.7,16.3-8.7,21.5c-8,5.2-9.9,6.5-9.9,6.5l4.9-0.4c0,0-14.5,5.6-12.6,11.8c0,0-9.1-27.6,8.4-40.3
		C183.4,40.6,165.9,49.8,171.4,76.1z"/>
</g>
<path fill="#FBAB18" d="M131,208.7l89.6-7.6l0-0.1c2.6-28.8-18.8-50.4-47.6-47.9l-3.1,0.2C141.1,155.9,123.6,180.7,131,208.7
	L131,208.7z"/>
<g>
	<path fill="#FBAB18" d="M129.8,189.2c-0.7,4.4-0.7,9,0,13.8V189.2z"/>
	<path fill="#E39910" d="M175.7,153.1V205l44.9-3.8l0-0.1C223.1,173.3,203.1,152.2,175.7,153.1z"/>
</g>
<g>
	<path fill="#253A44" d="M438.5,259.6c0.4,0,0.4-0.4,0.4-0.4C438.5,259.2,438.5,259.6,438.5,259.6z"/>
	<path fill="#253A44" d="M434.6,272.6l0.4-0.4C435,272.1,434.6,272.1,434.6,272.6z"/>
	<path fill="#253A44" d="M445.5,263.5c0,0.4,0,0.4,0,0.4C445.5,263.5,445.5,263.5,445.5,263.5z"/>
	<path fill="#253A44" d="M452.5,261.4C452.5,261.3,452.5,261.3,452.5,261.4C452.5,261.4,452.5,261.4,452.5,261.4z"/>
	<path fill="#253A44" d="M488.8,312.8c-1.7-6.5-4.3-11.2-8.2-13.8c-3.9-2.6-7.3-3.9-11.6-3.9c0,0-1.7,0-2.6,0.4
		c-5.2,0.9-9.1,3-12.1,7.3c-6.5,9-9.9,17.7-10,25.4c0,1.7,0,3.9,0.4,5.6c0.9,5.2,3,9.2,6,11.4c2.6,2.2,7.3,3.2,14.2,3.2h0.4
		c7.3,0,12.5-1.4,16.4-4c3.9-2.6,6-6.5,7.3-12.6c0.9-3,1.3-6.1,0.9-9.5C490.1,319.3,489.7,315.8,488.8,312.8z"/>
	<path fill="#253A44" d="M282.3,294.3c-2.2-2.2-5.2-3.5-8.2-4.3c-1.7-0.9-3.4-1.3-5.2-1.3c-2.2,0-3,0-4.3,0.4
		c-3,0.9-4.7,2.1-5.6,5.2c-0.9,3.4-1.3,12.9-1.8,28c0,4.7,0,8.6,0,11.6c0,6,0.4,9.1,0.4,10.3c1.7-0.4,4.7-1.7,9.1-5.2
		c4.7-3.4,9.1-8.2,13-13.8c6-7.8,8.6-14.6,8.7-20.3C288.4,300.8,286.2,297.4,282.3,294.3z"/>
	<path fill="#253A44" d="M451.4,266.4c-0.4,0-0.4,0-0.4,0H451.4z"/>
	<path fill="#253A44" d="M175.9,276.8c-7.2-10.9-16.8-8.6-16.8-8.6c7.7-0.8,13.1,5.3,15.9,9.5C175.2,277.5,175.5,277.1,175.9,276.8z
		"/>
	<path fill="#253A44" d="M844.5,184.7l-761.4,9c-2.4,0-4.2,2-4.1,4.4l11.3,244.4c0.1,2.4,2.2,4.7,4.6,4.7l742.3,1
		c2.4,0,4.5-2.3,4.6-4.7l6.9-254.3C848.7,186.7,846.8,184.6,844.5,184.7z M739.9,261.4c0.4-3,1.7-5.2,3-6.9c1.7-2.2,3.9-3.4,6.5-3.4
		c2.6,0,4.7,0.4,6.5,2.2c1.3,1.3,2.6,3.5,4.3,6.5c1.7,4.7,1.3,8.2-0.4,10.3c-1.3,1.7-3.9,2.6-7.8,2.6c-3.9,0.4-6.5-0.4-8.6-2.2
		c-0.4,0-0.9-0.4-0.9-0.4C740.3,267.9,739.5,264.9,739.9,261.4z M443.6,263.5c0.4,0,0.4-0.4,0.4-0.4c0.4,0.4,0.4,0.4,0.4,0.4
		c0-0.4,0.4-1.3,0.4-1.7c0.4,0.4,0.4,0.4,0.9,0.9c0-0.9-0.2-1.7,0.3-2.6c0.9-0.4,2.4-1.3,2.4-1.7c0,0.4,0,0.2,0,0.6
		c0-0.4,1.2-2.6,1.6-2.6h0.4l0.4,1.2c0.4,0.9,0.9,2.1,0.9,3c0-0.4,0-0.2,0.4-0.7c0,0.4,0.5,1,0.5,1.4c0,0-0.3,0.5-0.3,1
		c0,0.4,0,3.1,0,3.1c4,0,0.2,0,0.2,0l0.4-1.8c0,0.4,0,0.6,0,1.1c-1.3,0.9-2.6,1-3.9,1.4c1.3-0.4,2.6-1,3.5-1
		c-0.4,0.4-0.7,0.3-1.2,0.8c0.4,0,1-0.1,1-0.1v0.4c0,0.4,0,0.4,0,0.4c0,0.9-1.3,1.3-1.8,1.7c-2.2,0.4-2.2,1.7-5.2,2.6c0,0,0,0,0,0.4
		c0,0,0,0,0-0.4c0-2.2-0.9-4.3-2.7-5.6C442.9,264.8,443.6,264,443.6,263.5z M317.7,257.3c0.4-3,1.7-5.2,3-6.9
		c1.7-2.2,3.9-3.4,6.5-3.4c2.6,0,4.7,0.4,6.5,2.2c1.3,1.3,2.6,3.9,4.3,6.5c1.7,4.7,1.3,8.2-0.4,10.3c-1.3,1.7-3.9,2.6-7.8,2.6
		c-3.9,0.4-6.5-0.4-8.6-2.2c-0.4,0-0.9-0.4-0.9-0.4C318.2,263.8,317.3,260.7,317.7,257.3z M231.8,355.5
		c-0.5,15.1-10.8,22.4-30.2,22.4c0-0.4-1.3-0.9-1.3-0.9c-12.5-0.5-22-3.1-28.9-7.8c-4.7-3.5-6.9-7.3-6.9-11.2
		c-0.4-2.2,0.4-5.2,2.2-7.8c1.3-1.7,3-2.2,6-2.1c3,0,7.3,0.9,12.9,2.2c6.9,1.7,12.5,3.1,16.4,3.1c0.4,0,0.9,0,0.9,0
		c3,0,4.3-0.9,4.7-1.8c-0.9-1.3-5.6-6.5-31.4-28.1c-7.8-6.5-11.2-15.1-9.9-26.3c0.8-6.6,2.9-12.2,6.4-16.8c-2.5,0.3-5.1,1.3-5.1,1.3
		l2.2-1.7c0,0-1.3,0-6.5,0.9c-5.2,0.9-9.9-3-11.2-5.6c-2.1-4.7-4.7-3.5-4.7-3.5s1.7-3.9,9.1-7.3c10.4-4.7,15.5,2.2,15.5,2.2l0-1.3
		c4,3.4,4.8,8,4.8,10.7c1.5-1.4,3.2-2.6,5.1-3.8c6-3.4,12.1-5.2,19-5.1l1.7,0c7.8,0.4,13.4,2.6,17.2,7.4c4.7,5.6,5.6,9.9,3.9,12.9
		c-1.3,2.2-3.9,3.4-8.2,3.4c-1.7,0-3.4,0-5.6-0.4c-1.7-0.4-3.4-0.4-5.2-0.4c-3.4,0-6.9,0.9-9.5,2.1c-3.9,2.1-5.6,5.2-5.6,9
		c0,2.2,2.1,6,10.8,12.5c6.9,4.8,14.2,10.8,22,18.6c4.3,4.7,6.9,8.6,8.2,11.2c0.9,2.2,1.7,4.7,1.7,8.2
		C232.2,352.9,232.2,353.8,231.8,355.5z M307.3,326.3c-5.6,11.2-13,20.2-20.7,28c-8.6,7.7-16.4,10.8-23.7,10.7
		c-1.3,0-3.5,0.4-3.9,1.7c0,0.4-0.4,0.9-0.4,0.9c-0.4,0.4-0.4,1.3-0.4,7.8l0,3.9c0,3.9,0,4.3,0,6.5c-0.9,3.4-2.6,5.2-5.2,6.5
		c-1.3,1.7-3,1.3-4.3,1.3c-2.6,0-4.7-0.4-6.9-2.6c-2.2-2.2-3.4-6-4.3-13.8c0-1.3,0-2.2-0.4-3c-0.4-5.2-0.8-10.8-1.2-29.8
		c-0.4-28.5-0.4-46.1,0.9-54.3c1.3-8.2,5.6-14.7,12.1-19.4c3.5-2.6,9.1-3.9,16-3.9l5.2,0c9.9,0.9,17.7,3.5,23.7,7.4
		c8.6,6.1,14.2,13.8,16.8,23.7c0.9,3.5,1.3,6.5,1.3,9.5C311.6,313.8,310.3,320.2,307.3,326.3z M342.2,360.4
		c-1.7,7.8-6.9,9.5-10.8,9.5c-3.9,0-9.1-1.7-11.2-9.5c-1.3-5.6-2.6-17.7-3-37.5l0-6c-0.4-28.5,1.3-34.5,2.6-36.7
		c2.6-3.4,5.6-4.8,9.1-4.8h0.9c0,0,0,0,0.4,0c3.9,0.4,6.5,3.3,7.3,7.1c1.3,6.5,2.6,20.2,3.8,41.7c0.4,8.6,0.8,16.3,1.3,21.9
		C342.6,353.1,342.6,357.4,342.2,360.4z M413.7,357.1c-0.5,15.1-10.8,22.4-30.2,22.4c0-0.9-1.3-0.9-1.3-0.9
		c-12.5-0.5-22-3.1-28.9-7.8c-4.7-3.5-6.9-7.3-6.9-11.2c-0.4-2.6,0.4-5.2,2.2-7.8c1.3-1.7,3-2.2,6-2.1c3,0,7.3,1.6,12.9,2.9
		c6.9,1.7,12.5,3.8,16.4,3.8c0.4,0,0.9,0,0.9,0c3,0,4.3-1.6,4.7-2.5c-0.9-1.3-5.6-6.9-31.4-28.5c-7.8-6.5-11.2-15.3-9.9-26.5
		c1.3-11.2,6.5-19.6,15.6-25.2c6-3.4,12.1-5.4,19-5.4h1.7c7.8,0,13.4,2.7,17.2,7.5c4.7,5.6,5.6,10,3.9,13c-1.3,2.2-3.9,3.5-8.2,3.5
		c-1.7,0-3.4,0-5.6-0.4c-1.7-0.4-3.4-0.4-5.2-0.4c-3.4,0-6.9,0.9-9.5,2.1c-3.9,2.1-5.6,5.2-5.6,9c0,2.2,2.1,6,10.8,12.5
		c6.9,4.8,14.2,10.8,22,18.6c4.3,4.7,6.9,8.6,8.2,11.2c0.9,2.2,1.7,4.7,1.7,8.2C414.2,354.5,414.2,355.3,413.7,357.1z M516,326.6
		c-0.9,14.2-5.2,25.4-12.6,33.2c-5.6,6-13.4,9.9-22.4,12c-6,1.7-10.8,2.1-15.5,2.1c-4.3,0-8.6-0.4-12.9-1.7
		c-13.4-3.5-22.8-11.2-28.4-23.3c-2.6-6.5-4.3-12.9-4.7-19.8c0-6,0.9-12.1,3-18.5c4.2-13.3,12.3-23.7,24.1-31.8l-2.6-5.3l-3.1-0.6
		c-1.8,0.5-3.5,1.5-4.9,2.9c-0.9,0.4-1.3,0.6-2.2,0.6h-0.4h-0.4c0,0,0.4-0.3,0.4-0.7c0,0,0,0.7,0.4-0.3c0,0,0,0-0.4,0
		c-0.4,1-0.9,0.1-1.3,0.1c0.9-0.9,1.7-1.9,2.6-2.7c-1.3,0.9-2.2,1.6-3.5,2.5c-0.4-0.4-0.9,0.3-1.3-0.1l0.4,0.3c-0.4,0-0.9,0-1.3,0
		c-0.4,0-0.4-1.6-0.9-1.6c0.4,0,1.3-0.4,1.7-0.4c-0.9-0.4-1.3-1.7-1.3-2.5v-0.4l-0.4-0.4c0.4,0,0.9-0.4,1.3-0.4l-0.6-0.4
		c0.9-0.4,1.6-1,2.9-1.4c0.9,0,1.6-0.3,2.5,0.7h-0.6c0,0,0,0.3,0-0.1c0-0.4,0.5-0.9,0.1-1.3c0.4,0,1.8,0.4,2.3,0.4h-0.4
		c0,0,0,0,0-0.4v0.4h1.2c0.4,0,1.3,0,1.7,0c0.4,1.8,1.3,3.4,2.7,4.7l2.2,0.1l-2.5-5.3c-1.9-1.4-4-2.1-6.2-2.5
		c-0.4-0.4-0.9-1.6-1.3-2.4c-0.4-0.4-0.4,3.4-0.4-1.6h0.4h0.4c-0.4,0-0.4,0.3-0.4,0.3c-0.4-0.4-0.9-0.4-2.2-1.2
		c0.4,0,0.9,0.9,1.3,0.9h0.4c-0.4,0-0.4-1-0.4-1c-0.4-0.9-1.3-2-1.7-2.9c0-1.3,0-2.3,0.4-3.6c0.4,0,1,0.4,1.4,0.4
		c0.4,0.4,1,0.4,1,0.4v-0.4c0-0.9-0.5-0.9-0.5-1.8l-0.1,0h0.4c1.3,1,1.5,0.9,2.4,1.8c0.4,0.4-0.2,0-0.2,0v-0.4c0,0,0.6-0.4,0.6-0.9
		c0.4,0.4,1.2,0.4,1.6,0.9c0,0.4,0.6,0.9,0.6,1.3c0.4,0,0.5-0.4,0.5-0.4c0.9,0.4,1.3,1.3,1.8,1.7c-0.4,1.3-0.8,2.6-1.7,3.9
		c0.9-1.3,1-2.6,1.9-3.4c0,0.4-0.3,1.3-0.3,1.7v0.4c0-0.4,0.7-0.4,0.7-0.4c0.4-0.4,0.9-0.4,1.4-0.9l0.9,0.4v0.4
		c0,0.9-1.3,1.7-1.3,2.6c-0.9,2.2-1.7,4.7-1.7,7.8v0.4c0-0.4,0.5-0.4,0.5-0.4c-0.1-0.1,0.2-0.3,0-0.4l5.6,11.1
		c0.4-0.3,0.8-0.5,1.2-0.8c4.7-3.9,8.7-5.6,12.1-6.4c1.3-0.4,2.6,0,4.8,0h0.4c2.6,0,5.2,0,8.6,0.4c14.2,1.7,25,8.4,33.2,19.7
		c5.6,8.2,8.6,18,9,29.7C516,322.8,516,324.4,516,326.6z M577.7,299.5c-4.7-1.7-9.1-2.2-12.5-2.2c-5.6,0-9.9,1.7-12.9,6
		c-4.8,6.9-6.9,21.1-6.1,42.7c1.2,28.5-0.9,29.3-2.2,30.2c-1.3,0-3,0-4.7,0c-1.7,0-3.4,0-5.6-0.4c-4.7-1.3-7.3-3-8.6-6.1
		c-0.9-2.2-2.1-8.6-4.2-45.3c-0.8-13.8-1.3-23.7-1.7-30.2l0-5.2c0.4-5.6,1.7-9.1,4.3-9.9c0.9-0.4,2.2-0.4,3-0.4
		c2.6,0,5.2,1.3,8.2,3.5c2.2,1.7,3,2.2,3.4,2.2h0.4c1.7,0,5.6-3.9,10.8-6.5c4.7-2.6,10.4-3.9,16-3.9c4.7,0,9.5,0.9,15.1,2.6
		c12.9,4.3,19.4,10.4,19.8,17.7c0,2.6-0.4,4.3-1.7,5.6c-1.7,1.7-4.7,2.6-6.9,2.6C587.6,302.6,583.3,301.7,577.7,299.5z M686.5,367.4
		c0,0,0,0,0,0.4c-1,9.1-7.3,10.3-10.3,10.3c-4.7,0-8.1-1.3-10.3-3.9c-0.4-0.9-1.7-3-7.7-36.2c-4.7-28.5-6.8-33.6-7.7-34.5
		c0,0,0,0-0.4-0.4c-2.6-3.9-5.6-6-9-6.1c-3.4,0-7.8,2.1-12.5,6c-8.2,6.9-12.5,23.7-11.7,49.1c0.4,19.8-2.2,23.7-4.8,24.6
		c-1.3,0.4-2.2,0.4-3.5,0.4c-3.9,0-6.5-2.2-8.6-6.9c-2.1-4.7-3.9-13.4-4.3-25.9c-0.4-3-0.4-5.6-0.4-8.6c-0.4-30.2,9.1-49.6,29-58.6
		c6.5-3,12.9-4.3,18.5-4.3c2.7,0,5.2,0.4,7.6,1c1.1-3.8,4-7.3,8-9.5c2.8-2.4,6.6-4.4,11.1-3.6c-0.9-0.4-9.5-3.5-16.8,6.9
		c0,0-0.4-6.5,5.2-10.8l0,1.3c0,0,5.2-5.6,13.4-0.4c6,3.5,7.3,6.9,7.3,6.9s-2.2-1.3-4.3,2.6c-1.3,2.2-5.6,4.7-9.9,3.9
		c-4.3-1.3-5.2-1.3-5.2-1.3l1.7,1.7c0,0-6.5-3-7.8-0.9c0,0,0.5-0.8,1.3-2c-1.3,1.7-2.3,3.6-2.8,5.5c3.2,1.1,6.2,2.8,9.2,5.1
		c6,4.8,10.8,11.2,13.8,18.6c3,7.3,6,19,8.6,35.4c2.1,13.8,3.3,24.2,3.3,30.6L686.5,367.4z M731.9,375.2c-3,2.2-6.5,3-10.4,3
		c-3.4,0-7.3-0.9-11.6-3c-8.6-5.2-14.6-12.5-18.1-22.9c-1.3-4.3-2.1-15.5-2.5-34.1l-0.4-23.7c0.5-44,2.2-53,3.5-55.6
		c2.2-3.9,4.8-5.6,7.8-5.6c3,0,6,1.7,9,4.8c2.2,2.2,4.3,10.4,5.5,55.2c0.4,18.5,1.2,31.5,2.1,39.2c0.4,7.8,1.7,12.9,3,16
		c1.7,3,4.3,4.7,7.8,6.5c3.9,1.7,6.5,4.8,7.7,9.1c0.4,0.9,0.4,1.7,0.4,2.6C735.8,370.1,734.5,372.6,731.9,375.2z M762.2,363.6
		c-1.7,7.8-6.9,8.6-10.8,8.6s-9.1-0.9-11.2-9.1c-1.3-5.6-2.6-17.7-3-37.1l0-5.6c-0.4-28.5,1.3-34.5,2.6-36.6
		c2.6-3.4,5.6-5.6,9.1-5.6l0.9-0.9c0,0,0,0,0.4,0c3.9,3,6.5,3.9,7.3,8.2c1.3,6.5,2.6,20.7,3.8,42.3c0.4,9.1,0.8,16.6,1.3,22.2
		C762.6,357,762.6,360.6,762.2,363.6z"/>
	<path fill="#253A44" d="M448.5,259.2c0,0.4,0,0.4,0,0.4C448.5,259.2,448.5,259.2,448.5,259.2z"/>
	<path fill="#253A44" d="M452.5,261C452.5,261,452.5,261,452.5,261C452.5,261,452.5,261,452.5,261z"/>
	<path fill="#253A44" d="M445.5,262.7c0,0.4,0,0.4,0,0.4C445.5,262.7,445.5,262.7,445.5,262.7z"/>
</g>
</svg>
