<?xml version="1.0" encoding="utf-8"?>
<!-- Generator: Adobe Illustrator 18.0.0, SVG Export Plug-In . SVG Version: 6.00 Build 0)  -->
<!DOCTYPE svg PUBLIC "-//W3C//DTD SVG 1.1//EN" "http://www.w3.org/Graphics/SVG/1.1/DTD/svg11.dtd">
<svg version="1.1" id="Lag_1" xmlns="http://www.w3.org/2000/svg" xmlns:xlink="http://www.w3.org/1999/xlink" x="0px" y="0px"
	 viewBox="0 0 800 400" enable-background="new 0 0 800 400" xml:space="preserve">
<g>
	<path fill="#F5F3E1" d="M1097.7,1.9c3.6-3.2,6.4-3.1,8.6,0v182.4c-0.2,1-0.4,2.1-0.5,3.1c0.2,5.1,0.4,10.2,0.5,15.3v113.9
		c-2,2-4.7,3.4-7.7,3.4c-6.8,0-11.8-6.7-11.5-11.8c1.5-40.5,2.9-81,4.4-121.4c-3.6-10.4-7.8-3.4-10-22.5c-3.5-30.3-2.3-74-3.2-96.8
		C1077.4,24.6,1088.7,10,1097.7,1.9"/>
	<path fill="#48172E" d="M1098.5,322.8c3.8,0,7.3-1.6,10.1-4.5c2.8-2.9,4.4-6.8,4.2-10.2l-4.1-114.1h-20.5l-4.1,114.1
		c-0.2,3.4,1.4,7.2,4.2,10.2C1091.1,321.2,1094.7,322.8,1098.5,322.8L1098.5,322.8z"/>
</g>
<g>
	<path fill="#F5F3E1" d="M1054.2,87.5L1054.2,87.5c0-0.1,0-0.2,0-0.3v-0.1h0c-3.1-32-6.3-78.5-8.2-78.5c-1.8,0-0.5,46.5-0.5,78.5
		h-5.3c-2.1-32-3.8-78.5-5.6-78.5c-1.8,0-2,46.5-3.1,78.5h-5.3c-1.1-32-1.3-78.5-3.1-78.5c-1.8,0-3.5,46.5-5.6,78.5h-5.3
		c-0.1-32,1.3-78.5-0.5-78.5c-1.9,0-5,46.5-8.2,78.5h0v0c0,0.1,0,0.3,0,0.4h0c0.1,16.7,7.5,31.2,20.5,34.7c-2.2,62-4.4,124-6.7,186
		c-0.3,5,4.7,11.8,11.5,11.8c6.8,0,11.8-6.7,11.5-11.8c-2.2-62-4.4-124-6.7-186C1046.7,118.7,1054.1,104.2,1054.2,87.5"/>
	<path fill="#48172E" d="M1028.9,322.8c-3.8,0-7.4-1.6-10.1-4.5c-2.8-3-4.4-6.8-4.2-10.2l5.3-149.2h18l5.3,149.2
		c0.2,3.4-1.4,7.2-4.2,10.2C1036.2,321.2,1032.6,322.8,1028.9,322.8L1028.9,322.8z"/>
</g>
<g>
	<polygon fill="#253A44" points="783.4,289.4 22.1,289.4 10.7,44.2 797.5,32.6 	"/>
	<g>
		<path fill="#F5F2E0" d="M269.4,85.8c-1.8-1.8-4.1-2.3-6.9-2.2s-5,1.4-6.8,3.7c-1.4,1.8-2.7,4.1-3.1,7.3c-0.4,3.7,0.5,6.9,2.8,9.1
			c0,0,0.5,0.5,0.9,0.4c2.3,1.8,5.1,2.7,9.2,2.2c4.1,0,6.9-1,8.2-2.8c1.8-2.3,2.2-6,0.4-11C272.2,89.9,270.8,87.2,269.4,85.8"/>
		<path fill="#F5F2E0" d="M717.4,85.5c-1.8-1.8-4.1-2.3-6.9-2.2c-2.7,0-5,1.4-6.8,3.7c-1.4,1.8-2.7,4.1-3.1,7.3
			c-0.4,3.7,0.5,6.9,2.8,9.1c0,0,0.5,0.5,0.9,0.4c2.3,1.8,5.1,2.7,9.2,2.2c4.1,0,6.9-1,8.2-2.8c1.8-2.3,2.2-6,0.4-11
			C720.2,89.2,718.8,86.9,717.4,85.5"/>
		<path fill="#F5F2E0" d="M268.3,213.9c-4.1,0-9.6-1.7-12-10c-1.4-5.9-2.9-18.7-3.6-39.8l-0.1-6.4c-0.7-30.2,1-37.1,2.4-39.4
			c2.7-3.7,5.9-5.5,9.6-5.6l0.9,0c0,0,0,0.5,0.5,0.5c4.1,0.4,6.9,3.6,7.8,7.7c1.4,6.9,2.9,21.5,4.5,44.3c0.5,9.1,1.1,17.4,1.6,23.3
			c0.1,7.3,0.1,11.9-0.3,15.1C277.9,212,272.4,213.9,268.3,213.9L268.3,213.9z M713.9,211.9c-4.1,0-9.6-0.8-12-9.5
			c-1.4-5.9-2.9-18.7-3.5-39.3l-0.1-5.9c-0.7-30.2,1.1-36.6,2.4-38.9c2.7-3.7,5.9-5.1,9.6-5.1l0.9,0c0,0,0,0,0.5,0
			c4.1,0.4,6.9,3.1,7.8,7.7c1.4,6.9,2.9,21.5,4.5,44.3c0.5,9.6,1.1,17.4,1.6,23.3c0.1,7.3,0.1,11-0.3,14.2
			C723.5,210.9,718,211.8,713.9,211.9L713.9,211.9z M413.5,133.1c0,0-1.8,0-2.7,0.5c-5.5,1-9.6,3.3-12.7,7.9
			c-6.8,9.7-10.4,18.9-10.3,27.1c0,1.8,0,4.1,0.5,5.9c1,5.5,3.3,9.6,6.5,11.8c2.8,2.3,7.8,3.1,15.1,3.1l0.5,0
			c7.8-0.1,13.3-1.5,17.3-4.3c4.1-2.8,6.3-6.9,7.7-13.3c0.9-3.2,1.3-6.4,0.8-10.1c0-3.2-0.5-6.9-1.5-10.1
			c-1.9-6.8-4.7-11.9-8.8-14.6C421.8,134.4,418.1,133,413.5,133.1l0-2.3L413.5,133.1z M410.6,216.8c-4.6,0-9.2-0.4-13.7-1.7
			c-14.2-3.5-24.4-11.7-30.4-24.4c-2.8-6.8-4.7-13.7-5.2-21c-0.1-6.4,0.8-12.8,3-19.7c4.4-14.7,13.5-26.2,26.7-35
			c5-4.2,9.1-6.5,12.7-7.4c1.4-0.5,2.7-0.5,5-0.5l0.5,0c2.7,0,5.5,0.4,9.2,0.8c15.1,1.7,26.6,8.9,35.4,20.7c6,8.6,9.3,19.1,9.9,31.5
			c0,1.8,0,3.7,0.1,5.9c-0.8,15.1-5.3,27-13,35.3c-5.9,6.5-14.1,10.6-23.7,13C420.7,216.3,415.6,216.8,410.6,216.8L410.6,216.8z
			 M488.9,218.4c-1.8,0-3.7,0-6-0.4c-5-1.3-7.8-3.1-9.2-6.3c-0.9-2.3-2.4-9.1-5-48c-1-14.6-1.6-25.2-2.1-32l0-5.5
			c0.4-6,1.7-9.6,4.5-10.6c0.9-0.5,2.3-0.5,3.2-0.5c2.7,0,5.5,1.3,8.7,3.6c2.3,1.8,3.2,2.3,3.7,2.3l0.5,0c1.8-1.8,5.9-4.2,11.4-7
			c5-2.8,10.9-4.2,16.9-4.3l0,0c5,0,10.1,0.8,16,2.6c13.8,4.5,20.7,10.8,21.2,18.6c0,2.7-0.4,4.6-1.8,6c-1.8,1.8-5,2.8-7.3,2.8l0,0
			c-4.1,0-8.7-0.8-14.7-3.1c-5-1.8-9.6-2.2-13.3-2.2c-5.9,0.1-10.5,1.9-13.7,6.5c-5,7.4-7.1,22.5-6,45.4c1.6,30.2-0.6,31.1-2,32
			C492.5,218.4,490.7,218.4,488.9,218.4L488.9,218.4z M129.3,222.9c-13.3-0.3-23.4-3-30.7-8c-5.1-3.6-7.4-7.7-7.4-11.8
			c-0.5-2.3,0.4-5.5,2.2-8.3c1.4-1.8,3.2-2.3,6.4-2.3c3.2,0,7.8,0.8,13.7,2.2c7.3,1.8,13.3,3.1,17.4,3c0.5,0,0.9,0,0.9,0
			c3.2,0,4.6-1,5-1.9c-0.9-1.4-6-6.8-33.7-29.4c-8.3-6.8-12-15.9-10.8-27.8c1.3-11.9,6.7-20.6,16.2-26.7c6.4-3.7,12.8-5.6,20.1-5.7
			l1.8,0c8.2,0.4,14.2,2.6,18.4,7.6c5.1,5.9,6,10.5,4.2,13.7c-1.4,2.3-4.1,3.7-8.7,3.7c-1.8,0-3.7,0-6-0.4c-1.8-0.4-3.7-0.4-5.5-0.4
			c-3.7,0-7.3,1-10,2.4c-4.1,2.3-5.9,5.5-5.9,9.7c0,2.3,2.3,6.4,11.6,13.2c7.4,5,15.2,11.3,23.5,19.5c4.6,5,7.4,9.1,8.8,11.8
			c0.9,2.3,1.9,5,1.9,8.7c0,1.4,0,2.3-0.4,4.1c-0.3,16-11.2,23.9-31.8,24.1C130.6,223.4,129.3,222.9,129.3,222.9 M634.4,219
			c-5,0-8.7-1.3-11-4l0,0c-0.5-0.9-1.9-3.2-8.6-38.4c-5.3-30.2-7.6-35.6-8.6-36.5c0,0,0,0-0.5-0.5c-2.8-4.1-6-6.4-9.7-6.3
			c-3.7,0-8.2,2.4-13.2,6.5c-8.6,7.4-13,25.3-11.9,52.3c0.6,21-2.1,25.2-4.8,26.1c-1.4,0.5-2.3,0.5-3.7,0.5c-4.1,0-6.9-2.2-9.2-7.2
			c-2.3-5-4.2-14.1-4.8-27.4c-0.5-3.2-0.5-5.9-0.5-9.1c-0.7-32,9.1-52.7,30.1-62.5c6.8-3.3,13.7-4.7,19.6-4.7
			c7.3-0.1,13.3,2.2,19.3,6.7c6.4,5,11.5,11.8,14.8,19.5c3.3,7.7,6.6,20.1,9.5,37.4c2.4,14.6,3.9,25.6,3.9,32.5l0,3.7c0,0,0,0,0,0.5
			C643.5,217.5,637.6,218.9,634.4,219L634.4,219z M322.3,222.6c-13.3-0.3-23.4-3-30.7-8c-5.1-3.6-7.4-7.7-7.4-11.8
			c-0.5-2.7,0.4-5.5,2.2-8.3c1.4-1.8,3.2-2.3,6.4-2.3c3.2,0,7.8,0.8,13.7,2.2c7.3,1.8,13.3,3.1,17.4,3c0.5,0,0.9,0,0.9,0
			c3.2,0,4.6-1,5-1.9c-0.9-1.4-6-6.8-33.7-29.4c-8.3-6.8-12-15.9-10.8-27.8c1.3-11.9,6.7-20.6,16.2-26.7c6.4-3.7,12.8-5.6,20.1-5.7
			l1.8,0c8.2,0.4,14.2,2.6,18.4,7.6c5.1,5.9,6,10.5,4.2,13.7c-1.4,2.3-4.1,3.7-8.7,3.7c-1.8,0-3.7,0-6-0.4c-1.8-0.4-3.7-0.4-5.5-0.4
			c-3.7,0-7.3,1-10,2.4c-4.1,2.3-5.9,5.5-5.9,9.7c0,2.3,2.3,6.4,11.6,13.2c7.4,5,15.2,11.3,23.5,19.5c4.6,5,7.4,9.1,8.8,11.8
			c0.9,2.3,1.9,5,1.9,8.7c0,1.4,0,2.3-0.4,4.1c-0.3,16-11.2,23.9-31.8,24.1C323.7,222.6,322.3,222.6,322.3,222.6 M682.4,218.5
			c-3.7,0-7.8-0.8-12.4-3.1c-9.2-5.4-15.7-13.1-19.4-24.1c-1.4-4.6-2.4-16.5-3.1-36.1l-0.7-25.2c0-46.7,1.8-56.3,3.1-59.1
			c2.3-4.1,5-6,8.2-6s6.4,1.8,9.7,4.9c2.3,2.3,4.7,10.9,6.5,58.5c0.6,19.7,1.7,33.4,2.7,41.6c0.5,8.2,2,13.7,3.4,16.9
			c1.9,3.2,4.6,5,8.3,6.8c4.1,1.8,6.9,5,8.3,9.5c0.5,0.9,0.5,1.8,0.5,2.7c0,3.7-1.3,6.4-4,9.2C690.2,217.6,686.5,218.5,682.4,218.5
			L682.4,218.5z M201.2,128.5c-2.3,0-3.2,0-4.6,0.5c-3.2,0.9-5,2.3-5.9,5.5c-0.9,3.7-1.3,13.7-1.6,29.8c0,5,0.1,9.2,0.1,12.4
			c0.1,6.4,0.5,9.6,0.6,11c1.8-0.5,5-1.9,9.6-5.6c5-3.7,9.5-8.8,13.6-14.8c6.3-8.3,9-15.6,9-21.6c0-4.6-2.4-8.2-6.5-11.4
			c-2.3-2.3-5.5-3.6-8.7-4.5C204.8,128.9,203,128.5,201.2,128.5l0-2.3L201.2,128.5z M180.6,239.9c-2.7,0-5-0.4-7.3-2.7
			s-3.7-6.4-4.7-14.6c0-1.4,0-2.3-0.5-3.2c-0.5-5.5-1-11.4-1.7-31.6c-0.7-30.2-0.9-49,0.4-57.7c1.3-8.7,5.8-15.6,12.6-20.7
			c3.6-2.8,9.6-4.2,16.9-4.3l5.5,0c10.5,0.8,18.8,3.5,25.2,7.6c9.2,6.3,15.2,14.5,18.1,25c0.9,3.7,1.4,6.9,1.5,10.1
			c0.1,6.9-1.3,13.7-4.4,20.2c-5.8,11.9-13.5,21.6-21.7,29.9c-9.1,8.3-17.3,11.6-25.1,11.7l0,0c-1.4,0-3.7,0.5-4.1,1.9
			c0,0.5-0.4,0.9-0.4,0.9c-0.5,0.5-0.4,1.4-0.4,8.2l0,4.1c0,4.1,0,4.6,0.1,6.9c-0.9,3.7-2.7,5.5-5.4,6.9
			C183.9,240.3,182,239.9,180.6,239.9L180.6,239.9z"/>
		<path fill="#F5F2E0" d="M390.5,117.2c0,0.5,0,0.5,0,0.5s-0.5,0-0.5-0.5l-7-14.1c0-0.5,0-0.5,0-0.5s0.5,0,0.5,0.5L390.5,117.2z"/>
		<path fill="#F5F2E0" d="M385.3,96.2c0-0.9,0-1.8,0-2.7l0-0.5l-0.5-0.5c-0.5,0.5-0.5,0.5-0.9,0.9c0,0,0,0-0.5,0.5l0-0.5
			c0-0.5,0-1.4,0-1.8l0,0c-0.9,0.9-1.4,2.3-2.3,3.7c0,0,0,0.5-0.5,0.5c0,0,0-0.5,0.5-0.5c0.9-1.4,1.3-2.8,1.8-4.1
			c-0.5-0.5-0.9-1.4-1.8-1.8c0,0,0,0.5-0.5,0.5l0,0.5l0-0.5c0-0.5-0.5-0.9-0.5-1.4c-0.5-0.5-0.9-0.4-1.4-0.9c0,0.5,0,0.9,0,0.9
			l0,0.5c0,0,0,0-0.5-0.5c-0.9-0.9-1.8-1.4-3.2-2.3l-0.5,0l-0.5,0.5c0,0.9,0,1.4,0,2.3l0,0.5c0,0,0,0-0.5-0.5
			c-0.5,0-0.5-0.5-0.9-0.4c-0.4,1.4-0.4,2.3-0.4,3.7c0.5,0.9,1.4,1.8,1.9,2.7c0,0,0,0,0.5,0.5l-0.5,0c-0.5,0-0.9,0-1.4,0l0,0
			c1.4,0.9,1.8,1.8,2.3,2.3c0,0,0,0,0.5,0.5l-0.5,0l-0.5,0c0,0.5,0,0.5,0.5,0.9c0.5,0.9,0.9,1.4,1.4,1.8c2.7,0.4,5.5,1.3,7.8,3.6
			c0,0,0,0,0.5,0.5l0-0.5C383.5,101.3,384.4,98.5,385.3,96.2"/>
		<path fill="#F5F2E0" d="M394.1,104.9c0.5-0.5,0.9-0.9,1.4-1.8c0,0,0,0,0-0.5l0-0.5c-0.5,0-0.5,0-0.9,0l-0.5,0c0,0,0,0,0.5,0
			c0.5-0.5,0.9-0.5,1.4-0.9l0,0c-0.9,0-2.3,0.5-3.7,0.9l-0.5,0l0.5,0c1.4-0.5,2.7-0.9,4.1-1.9c0-0.5,0-1.4,0-1.8c0,0-0.5,0-0.5,0.5
			c0,0,0,0-0.5,0c0,0,0,0,0-0.5c0-0.5,0.4-0.9,0.4-0.9c0-0.5-0.5-0.9-0.5-1.4c-0.5,0.5-0.5,0.5-0.4,0.9c0,0,0,0,0,0.5c0,0,0,0,0-0.5
			c0-0.9-0.5-1.8-0.9-2.7c0,0-0.5,0-0.5-0.5l-0.5,0c-0.5,0.5-0.9,0.9-1.4,1.4c0,0,0,0,0,0.5c0,0,0,0,0-0.5c0-0.5,0-0.5,0-0.9
			c-0.9,0.5-1.8,1.4-2.7,1.9c-0.4,0.9-0.4,1.8-0.4,2.7c0,0,0,0,0,0.5c0,0,0,0,0-0.5c-0.5-0.5-0.5-0.5-0.9-0.9l0,0
			c0,0.5-0.4,1.4-0.4,1.8c0,0,0,0,0,0.5c0,0,0,0,0-0.5c0,0,0,0-0.5-0.5c0,0,0,0.5-0.5,0.5c0,0.5-0.4,1.4-0.4,1.8
			c1.8,1.4,3.2,3.6,3.3,5.9c0,0,0,0,0,0.5c0,0,0,0,0-0.5C390,106.7,391.8,105.3,394.1,104.9"/>
		<path fill="#F5F2E0" d="M386.3,109l-4.6-0.4c-0.5,0-0.5,0-0.5,0.5c0,0,0,0.5,0.5,0.5l5,0.9L386.3,109z"/>
		<path fill="#F5F2E0" d="M378.1,112.8c-0.9,0.5-1.4,0.5-2.3,0.5l-0.5,0l-0.5,0c0-0.5,0.5-0.5,0.4-0.9c0,0,0,0,0.5-0.5
			c0,0,0,0-0.5,0c-0.5,0.5-0.9,0.5-1.4,0.5l0,0c0.9-0.9,1.8-1.8,2.7-2.8l0.5-0.5c0,0-0.5,0-0.5,0.5c-1.4,0.9-2.3,1.9-3.6,2.8
			c-0.5-0.5-0.9-0.4-1.4-0.9l0.5-0.5c0,0,0,0,0.5,0c0,0,0,0-0.5,0c-0.5,0-0.9,0-1.4,0c-0.5-0.5-0.5-0.9-0.9-0.9c0.5,0,0.5,0,0.9,0
			c0,0,0,0,0.5,0c0,0,0,0-0.5,0c-0.9-0.4-1.4-1.4-2.3-2.3l0-0.5l0.5-0.5c0.5,0,1.4-0.5,1.8-0.5c0,0,0,0,0.5,0c0,0,0,0-0.5,0
			l-0.5-0.5c0.9-0.5,1.8-0.9,3.2-1.4c0.9,0,1.8,0.4,2.8,0.9c0,0,0,0,0.5,0c0,0,0,0,0-0.5c0-0.5,0-0.9-0.5-1.4l0,0
			c0.5,0,1.4,0.4,1.8,0.4c0,0,0,0,0.5,0c0,0,0,0,0-0.5l0-0.5l0.5,0c0.5,0,1.4,0.4,1.8,0.4c0.5,2.3,1.9,4.6,3.7,5.9c0,0,0,0,0.5,0
			c0,0,0,0-0.5,0C382.2,110,379.9,110.9,378.1,112.8"/>
		<path fill="#F5F2E0" d="M103.2,118.4c0,0,1.3-8.2-5.2-13.7l0,1.4c0,0-5.6-7.3-16.5-2.1c-7.7,3.7-9.5,7.9-9.5,7.9s2.7-1.4,5.1,3.6
			c1.4,2.7,6.5,6.8,11.9,5.8c5.5-1,6.9-1,6.9-1l-2.3,1.9c0,0,8.2-3.3,10.1-0.1c0,0-7-15.5-19.3-14C84.3,108,95.3,105.2,103.2,118.4"
			/>
		<path fill="#F5F2E0" d="M617.7,97.4c-8.2,3.3-12.3,11.1-10.8,18.4c-0.5-0.5-0.9-0.4-1.4-0.9c-1.4-6.9,3.1-14.2,10.8-17.5
			c4.1-1.9,8.2-1.9,12.3-1C625,95.5,621.4,96,617.7,97.4"/>
		<path fill="#F5F2E0" d="M608.2,102.1c0,0-0.5-6.9,5.4-11.5l0,1.4c0,0,5.4-6,14.2-0.6c6.4,3.6,7.8,7.3,7.8,7.3s-2.3-1.4-4.6,2.8
			c-1.4,2.3-5.9,5.1-10.5,4.2c-4.6-1.3-5.5-1.3-5.5-1.3l1.8,1.8c0,0-6.9-3.1-8.2-0.8c0,0,6.8-12.4,17.3-10.7
			C625,94.1,615.8,91,608.2,102.1"/>
	</g>
</g>
<polygon fill="#F5F2E0" points="514.3,349.7 73.6,343.3 71.8,265.4 518.8,271 "/>
<g>
	<path fill="#253A44" d="M116.9,316.4c-1.2,0-2.3-0.3-3.4-0.8c-1-0.5-1.9-1.2-2.6-2.2c-0.7-0.9-1.3-2.1-1.7-3.4
		c-0.4-1.3-0.6-2.8-0.6-4.4c0-1.6,0.2-3.1,0.7-4.3c0.4-1.3,1-2.4,1.8-3.3c0.8-0.9,1.7-1.6,2.7-2.1c1-0.5,2.2-0.7,3.4-0.7
		c1.2,0,2.4,0.3,3.4,0.8c1,0.5,1.9,1.2,2.6,2.1c0.7,0.9,1.3,2,1.7,3.3c0.4,1.3,0.6,2.8,0.6,4.4c0,1.6-0.2,3.1-0.7,4.4
		c-0.4,1.3-1,2.4-1.8,3.3c-0.8,0.9-1.7,1.6-2.7,2.1C119.3,316.2,118.2,316.4,116.9,316.4z M116.9,315.1c1,0,2-0.2,2.8-0.6
		s1.6-1.1,2.2-1.9c0.6-0.8,1.1-1.8,1.4-2.9c0.3-1.1,0.5-2.4,0.5-3.9c0-1.4-0.1-2.7-0.4-3.8c-0.3-1.1-0.8-2.1-1.4-2.9
		c-0.6-0.8-1.3-1.4-2.2-1.9c-0.8-0.4-1.8-0.7-2.8-0.7c-1,0-2,0.2-2.8,0.6c-0.9,0.4-1.6,1-2.2,1.8c-0.6,0.8-1.1,1.7-1.4,2.9
		c-0.3,1.1-0.5,2.4-0.5,3.8c0,1.4,0.1,2.7,0.4,3.9c0.3,1.2,0.8,2.1,1.4,3c0.6,0.8,1.3,1.5,2.2,1.9
		C115,314.8,115.9,315.1,116.9,315.1z"/>
	<path fill="#253A44" d="M130.1,301.3l1.2,0l0.1,2.3l0.1,0c0.7-0.8,1.4-1.4,2.2-1.9c0.8-0.5,1.6-0.7,2.5-0.7c1.2,0,2.1,0.3,2.7,0.9
		c0.6,0.6,1.1,1.3,1.3,2.2c0.9-0.9,1.7-1.6,2.6-2.2c0.8-0.5,1.7-0.8,2.5-0.8c3,0,4.4,2,4.4,5.8l-0.1,9.6l-1.4,0l0.1-9.4
		c0-1.6-0.2-2.8-0.8-3.5c-0.5-0.8-1.4-1.1-2.5-1.2c-1.3,0-2.8,0.9-4.5,2.7l-0.1,11.2l-1.4,0l0.1-9.4c0-1.6-0.2-2.8-0.8-3.5
		c-0.5-0.8-1.4-1.1-2.5-1.2c-1.3,0-2.8,0.9-4.5,2.7l-0.1,11.2l-1.4,0L130.1,301.3z"/>
	<path fill="#253A44" d="M158.9,301.7l1.5,0l3.2,9.4c0.2,0.7,0.5,1.5,0.7,2.2c0.3,0.7,0.5,1.4,0.7,2.1l0.1,0
		c0.3-0.7,0.5-1.4,0.8-2.1c0.3-0.7,0.5-1.4,0.8-2.2l3.5-9.3l1.4,0l-5.7,14.8l-1.6,0L158.9,301.7z"/>
	<path fill="#253A44" d="M173.5,309.3c0-1.2,0.2-2.3,0.6-3.3c0.4-1,0.9-1.8,1.5-2.4c0.6-0.7,1.3-1.2,2.1-1.5
		c0.8-0.3,1.7-0.5,2.6-0.5c0.9,0,1.7,0.2,2.6,0.6c0.8,0.4,1.5,0.9,2.1,1.5c0.6,0.7,1.1,1.5,1.4,2.5c0.3,1,0.5,2.1,0.5,3.3
		c0,1.2-0.2,2.3-0.6,3.3c-0.4,1-0.9,1.8-1.5,2.4c-0.6,0.7-1.3,1.2-2.2,1.5c-0.8,0.3-1.7,0.5-2.6,0.5c-0.9,0-1.7-0.2-2.5-0.6
		c-0.8-0.4-1.5-0.9-2.1-1.5c-0.6-0.7-1.1-1.5-1.4-2.5C173.7,311.7,173.5,310.6,173.5,309.3z M175,309.3c0,1,0.1,1.9,0.4,2.7
		c0.3,0.8,0.6,1.5,1.1,2.1c0.5,0.6,1,1,1.6,1.4c0.6,0.3,1.3,0.5,2.1,0.5c0.7,0,1.4-0.1,2.1-0.5c0.7-0.3,1.2-0.8,1.7-1.3
		c0.5-0.6,0.8-1.3,1.1-2.1c0.3-0.8,0.4-1.7,0.4-2.7c0-1-0.1-1.9-0.4-2.7c-0.3-0.8-0.6-1.5-1.1-2.1c-0.5-0.6-1-1.1-1.7-1.4
		c-0.6-0.3-1.3-0.5-2.1-0.5c-0.7,0-1.4,0.1-2.1,0.5c-0.6,0.3-1.2,0.8-1.7,1.3c-0.5,0.6-0.8,1.3-1.1,2.1
		C175.1,307.4,175,308.3,175,309.3z"/>
	<path fill="#253A44" d="M191.5,302.1l1.2,0l0.1,2.8l0.1,0c0.5-0.9,1.1-1.7,1.8-2.2s1.5-0.8,2.4-0.8c0.3,0,0.5,0,0.8,0.1
		c0.2,0,0.5,0.1,0.7,0.3l-0.3,1.2c-0.2-0.1-0.5-0.2-0.6-0.2c-0.2,0-0.4-0.1-0.7-0.1c-0.7,0-1.4,0.3-2.1,0.8c-0.7,0.6-1.4,1.5-2,2.9
		l-0.1,10.1l-1.4,0L191.5,302.1z"/>
	<path fill="#253A44" d="M199.7,309.6c0-1.2,0.2-2.3,0.6-3.3c0.4-1,0.9-1.8,1.5-2.4s1.3-1.2,2.1-1.5c0.8-0.4,1.6-0.5,2.4-0.5
		c1.8,0,3.2,0.6,4.2,1.9s1.5,2.9,1.5,5.1c0,0.2,0,0.4,0,0.6c0,0.2,0,0.4-0.1,0.6l-10.7-0.1c0,0.9,0.1,1.8,0.4,2.6
		c0.3,0.8,0.6,1.5,1.1,2.1c0.5,0.6,1.1,1,1.7,1.4c0.7,0.3,1.4,0.5,2.3,0.5c0.8,0,1.5-0.1,2.2-0.3c0.7-0.2,1.3-0.5,1.8-1l0.5,1.1
		c-0.6,0.3-1.3,0.7-2,1c-0.7,0.3-1.6,0.4-2.7,0.4c-1,0-1.8-0.2-2.7-0.6c-0.8-0.4-1.6-0.9-2.2-1.6c-0.6-0.7-1.1-1.5-1.4-2.5
		C199.8,312,199.6,310.9,199.7,309.6z M210.6,308.9c0-1.9-0.4-3.4-1.1-4.3c-0.8-1-1.8-1.5-3.2-1.5c-0.6,0-1.3,0.1-1.8,0.4
		c-0.6,0.3-1.1,0.6-1.6,1.1c-0.5,0.5-0.9,1.1-1.2,1.8c-0.3,0.7-0.5,1.5-0.6,2.4L210.6,308.9z"/>
	<path fill="#253A44" d="M214.8,314.5c0.6,0.5,1.3,1,2,1.4c0.7,0.4,1.6,0.6,2.7,0.6c1.2,0,2.1-0.3,2.7-0.9c0.6-0.6,0.9-1.3,0.9-2.1
		c0-0.5-0.1-0.9-0.3-1.2c-0.2-0.4-0.5-0.7-0.8-0.9c-0.3-0.3-0.7-0.5-1.2-0.7c-0.4-0.2-0.8-0.4-1.3-0.5c-0.6-0.2-1.1-0.4-1.7-0.7
		c-0.6-0.2-1.1-0.5-1.5-0.8c-0.5-0.3-0.8-0.7-1.1-1.2c-0.3-0.4-0.4-1-0.4-1.6c0-0.5,0.1-1,0.3-1.5c0.2-0.5,0.5-0.9,0.9-1.3
		c0.4-0.4,0.9-0.6,1.5-0.8c0.6-0.2,1.3-0.3,2.1-0.3c0.8,0,1.6,0.2,2.3,0.5c0.8,0.3,1.4,0.7,1.9,1.1l-0.8,1c-0.5-0.4-1-0.7-1.6-1
		c-0.6-0.3-1.2-0.4-2-0.4c-0.6,0-1.1,0.1-1.5,0.2c-0.4,0.2-0.8,0.3-1,0.6c-0.3,0.2-0.5,0.5-0.6,0.9c-0.1,0.3-0.2,0.7-0.2,1
		c0,0.4,0.1,0.8,0.3,1.1c0.2,0.3,0.5,0.6,0.8,0.8c0.3,0.2,0.7,0.4,1.1,0.6c0.4,0.2,0.8,0.4,1.3,0.5c0.6,0.2,1.2,0.5,1.7,0.7
		c0.6,0.2,1.1,0.5,1.6,0.9c0.5,0.3,0.8,0.7,1.1,1.2c0.3,0.5,0.4,1.1,0.4,1.8c0,0.6-0.1,1.1-0.3,1.6c-0.2,0.5-0.6,0.9-1,1.3
		c-0.4,0.4-1,0.7-1.6,0.9c-0.6,0.2-1.3,0.3-2.1,0.3c-1.1,0-2.1-0.2-3.1-0.6c-0.9-0.4-1.7-0.9-2.4-1.5L214.8,314.5z"/>
	<path fill="#253A44" d="M234.7,302.6l1.2,0l0.1,2.3l0.1,0c0.7-0.8,1.4-1.4,2.2-1.9c0.8-0.5,1.6-0.7,2.5-0.7c1.2,0,2.1,0.3,2.7,0.9
		c0.6,0.6,1.1,1.3,1.3,2.2c0.9-0.9,1.7-1.6,2.6-2.2c0.8-0.5,1.7-0.8,2.5-0.8c3,0,4.4,2,4.4,5.8l-0.1,9.6l-1.4,0l0.1-9.4
		c0-1.6-0.2-2.8-0.8-3.5c-0.5-0.8-1.4-1.1-2.5-1.2c-1.3,0-2.8,0.9-4.5,2.7l-0.1,11.2l-1.4,0l0.1-9.4c0-1.6-0.2-2.8-0.8-3.5
		c-0.5-0.8-1.4-1.1-2.5-1.2c-1.3,0-2.8,0.9-4.5,2.7l-0.1,11.2l-1.4,0L234.7,302.6z"/>
	<path fill="#253A44" d="M258.9,314.1c0-1.6,0.8-2.9,2.4-3.7c1.6-0.8,4-1.4,7.3-1.8c0-0.6,0-1.1-0.1-1.7c-0.1-0.6-0.3-1.1-0.5-1.5
		c-0.3-0.4-0.6-0.8-1.1-1.1c-0.5-0.3-1.1-0.4-1.8-0.4c-1,0-1.9,0.2-2.8,0.6c-0.8,0.4-1.5,0.8-2,1.1l-0.6-1c0.3-0.2,0.6-0.4,1-0.6
		c0.4-0.2,0.8-0.4,1.3-0.6c0.5-0.2,1-0.3,1.5-0.5c0.6-0.1,1.1-0.2,1.7-0.2c0.9,0,1.6,0.2,2.2,0.5c0.6,0.3,1.1,0.7,1.4,1.2
		c0.4,0.5,0.6,1.1,0.8,1.8c0.1,0.7,0.2,1.4,0.2,2.3l-0.1,9.5l-1.1,0l-0.1-1.9l-0.1,0c-0.8,0.6-1.6,1.1-2.5,1.6
		c-0.9,0.5-1.8,0.7-2.8,0.7c-0.6,0-1.2-0.1-1.7-0.3c-0.5-0.2-1-0.4-1.4-0.8c-0.4-0.3-0.7-0.8-0.9-1.3
		C259,315.4,258.9,314.8,258.9,314.1z M260.3,314c0,1.1,0.3,1.8,0.9,2.3c0.6,0.5,1.3,0.7,2.2,0.7c0.9,0,1.7-0.2,2.5-0.6
		c0.8-0.4,1.7-1,2.6-1.8l0.1-5.1c-1.5,0.2-2.8,0.4-3.9,0.6c-1,0.3-1.9,0.6-2.5,0.9c-0.6,0.4-1.1,0.8-1.4,1.3
		C260.5,312.9,260.3,313.5,260.3,314z"/>
	<path fill="#253A44" d="M274,310.6c0-1.2,0.2-2.3,0.6-3.2c0.4-1,0.9-1.8,1.5-2.5c0.6-0.7,1.3-1.2,2.1-1.5c0.8-0.4,1.6-0.5,2.5-0.5
		c0.9,0,1.7,0.2,2.4,0.5s1.4,0.8,2.1,1.4l0-2.7l0.1-6.1l1.4,0l-0.3,22.3l-1.2,0l-0.1-1.9l-0.1,0c-0.6,0.6-1.3,1.1-2.1,1.6
		c-0.8,0.5-1.7,0.7-2.7,0.7c-1.9,0-3.4-0.7-4.5-2.1C274.5,315,274,313.1,274,310.6z M275.5,310.6c0,1,0.1,1.9,0.3,2.7
		c0.2,0.8,0.5,1.5,0.9,2.1c0.4,0.6,0.9,1,1.5,1.4c0.6,0.3,1.3,0.5,2.1,0.5c0.8,0,1.6-0.2,2.4-0.6c0.8-0.4,1.5-1,2.3-1.8l0.1-8.8
		c-0.8-0.7-1.5-1.2-2.2-1.5c-0.7-0.3-1.4-0.5-2.1-0.5c-0.7,0-1.4,0.2-2.1,0.5c-0.6,0.3-1.2,0.8-1.7,1.4c-0.5,0.6-0.8,1.3-1.1,2.1
		C275.6,308.8,275.5,309.7,275.5,310.6z"/>
	<path fill="#253A44" d="M290.6,322.1c0.7-0.4,1.3-0.9,1.7-1.5c0.4-0.6,0.7-1.4,0.7-2.2c-0.1,0-0.2,0-0.4,0c-0.4,0-0.7-0.1-0.9-0.4
		c-0.3-0.2-0.4-0.6-0.4-1s0.1-0.7,0.4-1c0.3-0.2,0.6-0.3,0.9-0.3c0.5,0,0.9,0.2,1.1,0.6c0.3,0.4,0.4,0.9,0.4,1.6
		c0,1.1-0.3,2.1-0.9,3c-0.6,0.9-1.4,1.5-2.3,2L290.6,322.1z"/>
	<path fill="#253A44" d="M305.2,303.5l1.2,0l0.1,2.3l0.1,0c0.7-0.8,1.4-1.4,2.2-1.9c0.8-0.5,1.6-0.7,2.5-0.7c1.2,0,2.1,0.3,2.7,0.9
		c0.6,0.6,1.1,1.3,1.3,2.2c0.9-0.9,1.7-1.6,2.6-2.2c0.8-0.5,1.7-0.8,2.5-0.8c3,0,4.4,2,4.4,5.8l-0.1,9.6l-1.4,0l0.1-9.4
		c0-1.6-0.2-2.8-0.8-3.5c-0.5-0.8-1.4-1.1-2.5-1.2c-1.3,0-2.8,0.9-4.5,2.7l-0.1,11.2l-1.4,0l0.1-9.4c0-1.6-0.2-2.8-0.8-3.5
		c-0.5-0.8-1.4-1.1-2.5-1.2c-1.3,0-2.8,0.9-4.5,2.7l-0.1,11.2l-1.4,0L305.2,303.5z"/>
	<path fill="#253A44" d="M331.1,300.2c-0.4,0-0.6-0.1-0.9-0.4c-0.2-0.2-0.4-0.5-0.3-0.9c0-0.4,0.1-0.7,0.4-0.9
		c0.2-0.2,0.5-0.3,0.9-0.3c0.4,0,0.6,0.1,0.9,0.3c0.2,0.2,0.3,0.5,0.3,0.9c0,0.4-0.1,0.6-0.4,0.9
		C331.8,300.1,331.5,300.2,331.1,300.2z M330.4,303.8l1.4,0l-0.2,14.9l-1.4,0L330.4,303.8z"/>
	<path fill="#253A44" d="M337.6,296.5l1.4,0l-0.3,20.5c0,0.3,0.1,0.6,0.2,0.7c0.1,0.2,0.3,0.2,0.5,0.2c0.1,0,0.1,0,0.2,0
		c0.1,0,0.2,0,0.4-0.1l0.2,1.1c-0.1,0-0.3,0.1-0.4,0.1c-0.1,0-0.3,0-0.6,0c-1.2,0-1.8-0.8-1.8-2.4L337.6,296.5z"/>
	<path fill="#253A44" d="M344.8,304l1.4,0l-0.2,17.6c0,1.5-0.3,2.6-0.8,3.3c-0.5,0.7-1.4,1.1-2.6,1c-0.4,0-0.7,0-1.1-0.1
		c-0.4-0.1-0.6-0.2-0.9-0.3l0.4-1.1c0.2,0.1,0.4,0.1,0.7,0.2c0.3,0.1,0.6,0.1,0.9,0.1c0.8,0,1.4-0.3,1.6-0.9
		c0.3-0.6,0.4-1.4,0.4-2.3L344.8,304z M345.6,300.4c-0.3,0-0.6-0.1-0.9-0.4c-0.2-0.2-0.4-0.5-0.4-0.9c0-0.4,0.1-0.7,0.4-0.9
		c0.3-0.2,0.5-0.3,0.9-0.3c0.4,0,0.6,0.1,0.9,0.3c0.2,0.2,0.4,0.5,0.4,0.9c0,0.4-0.1,0.6-0.4,0.9
		C346.2,300.3,345.9,300.4,345.6,300.4z"/>
	<path fill="#253A44" d="M362.4,306.4c0.5,0.7,0.9,1.4,1.1,2.3c0.3,0.9,0.4,1.9,0.4,3c0,1.2-0.2,2.3-0.6,3.3c-0.4,1-0.9,1.8-1.5,2.4
		c-0.6,0.7-1.3,1.2-2.2,1.5c-0.8,0.3-1.7,0.5-2.6,0.5c-1.7,0-3.1-0.6-4.4-1.8l-1.7,2l-0.8-0.7l1.8-2.1c-0.5-0.7-0.9-1.4-1.1-2.3
		c-0.3-0.9-0.4-1.9-0.4-3c0-1.2,0.2-2.3,0.6-3.3c0.4-1,0.9-1.8,1.5-2.4c0.6-0.7,1.3-1.2,2.1-1.5c0.8-0.3,1.7-0.5,2.5-0.5
		c0.8,0,1.6,0.2,2.4,0.5c0.8,0.3,1.4,0.7,2,1.3l1.7-2l0.8,0.7L362.4,306.4z M360.9,306.6c-0.9-1.1-2.1-1.6-3.5-1.6
		c-0.7,0-1.4,0.1-2.1,0.5c-0.7,0.3-1.2,0.8-1.7,1.3c-0.5,0.6-0.8,1.3-1.1,2.1c-0.3,0.8-0.4,1.7-0.4,2.7c0,1.7,0.3,3.1,1.1,4.3
		L360.9,306.6z M353.7,316.6c1,1,2.1,1.6,3.5,1.6c0.7,0,1.4-0.1,2.1-0.5c0.7-0.3,1.2-0.8,1.7-1.3c0.5-0.6,0.9-1.3,1.1-2.1
		c0.3-0.8,0.4-1.7,0.4-2.7c0-1.7-0.3-3.1-1.1-4.3L353.7,316.6z"/>
	<path fill="#253A44" d="M373.4,311.8c0-1.2,0.2-2.3,0.6-3.3c0.4-1,0.9-1.8,1.5-2.4c0.6-0.7,1.3-1.2,2.1-1.5
		c0.8-0.3,1.7-0.5,2.5-0.5c0.9,0,1.7,0.2,2.6,0.6c0.8,0.4,1.5,0.9,2.1,1.5c0.6,0.7,1.1,1.5,1.4,2.5c0.3,1,0.5,2.1,0.5,3.3
		c0,1.2-0.2,2.3-0.6,3.3c-0.4,1-0.9,1.8-1.5,2.4c-0.6,0.7-1.3,1.2-2.2,1.5c-0.8,0.3-1.7,0.5-2.6,0.5c-0.9,0-1.7-0.2-2.5-0.6
		c-0.8-0.4-1.5-0.9-2.1-1.5c-0.6-0.7-1.1-1.5-1.4-2.5C373.5,314.2,373.3,313.1,373.4,311.8z M374.8,311.8c0,1,0.1,1.9,0.4,2.7
		c0.3,0.8,0.6,1.5,1.1,2.1c0.5,0.6,1,1,1.6,1.4c0.6,0.3,1.3,0.5,2.1,0.5c0.7,0,1.4-0.1,2.1-0.5c0.7-0.3,1.2-0.8,1.7-1.3
		c0.5-0.6,0.8-1.3,1.1-2.1c0.3-0.8,0.4-1.7,0.4-2.7c0-1-0.1-1.9-0.4-2.7c-0.3-0.8-0.6-1.5-1.1-2.1c-0.5-0.6-1-1.1-1.7-1.4
		c-0.6-0.3-1.3-0.5-2.1-0.5s-1.4,0.1-2.1,0.5c-0.6,0.3-1.2,0.8-1.7,1.3c-0.5,0.6-0.8,1.3-1.1,2.1C374.9,310,374.8,310.8,374.8,311.8
		z"/>
	<path fill="#253A44" d="M389.8,322.5c0-0.7,0.2-1.3,0.6-1.9c0.4-0.6,0.9-1.2,1.6-1.7l0-0.1c-0.4-0.2-0.7-0.5-0.9-0.9
		c-0.2-0.4-0.4-0.9-0.4-1.5c0-0.7,0.2-1.2,0.6-1.7c0.4-0.5,0.7-0.8,1.1-1l0-0.1c-0.5-0.4-0.9-1-1.3-1.7c-0.4-0.7-0.6-1.5-0.5-2.4
		c0-0.8,0.2-1.5,0.4-2.1c0.3-0.6,0.7-1.2,1.1-1.6c0.5-0.5,1-0.8,1.7-1.1c0.6-0.3,1.3-0.4,2.1-0.4c0.4,0,0.8,0,1.1,0.1
		c0.3,0.1,0.6,0.2,0.8,0.3l5.1,0.1l0,1.1l-3.5,0c0.5,0.4,0.9,1,1.2,1.6c0.3,0.7,0.4,1.4,0.4,2.2c0,0.8-0.2,1.5-0.4,2.1
		c-0.3,0.6-0.7,1.2-1.1,1.6c-0.5,0.5-1,0.8-1.7,1.1c-0.6,0.3-1.3,0.4-2,0.4c-0.4,0-0.8-0.1-1.3-0.2c-0.4-0.1-0.8-0.3-1.2-0.5
		c-0.3,0.3-0.6,0.6-0.9,0.9c-0.2,0.3-0.4,0.7-0.4,1.2c0,0.5,0.2,1,0.6,1.4c0.4,0.4,1.1,0.6,2.3,0.6l3.2,0c1.7,0,2.9,0.3,3.7,0.9
		c0.8,0.6,1.2,1.4,1.2,2.6c0,0.6-0.2,1.3-0.5,1.9c-0.3,0.6-0.8,1.1-1.4,1.6c-0.6,0.5-1.4,0.8-2.2,1.1c-0.9,0.3-1.8,0.4-2.9,0.4
		c-1.9,0-3.4-0.4-4.5-1.2C390.3,324.8,389.8,323.7,389.8,322.5z M391.1,322.4c0,0.9,0.4,1.7,1.3,2.3c0.9,0.6,2.1,0.9,3.7,0.9
		c0.8,0,1.6-0.1,2.3-0.3c0.7-0.2,1.3-0.5,1.7-0.8c0.5-0.3,0.9-0.7,1.1-1.2c0.3-0.4,0.4-0.9,0.4-1.4c0-0.8-0.3-1.4-0.9-1.8
		c-0.6-0.3-1.4-0.5-2.6-0.5l-3.2,0c-0.2,0-0.4,0-0.8-0.1c-0.3,0-0.7-0.1-1.1-0.2c-0.7,0.5-1.2,1-1.5,1.5
		C391.3,321.3,391.1,321.8,391.1,322.4z M395.8,313.7c0.5,0,1-0.1,1.5-0.3c0.5-0.2,0.9-0.5,1.2-0.8c0.4-0.4,0.6-0.8,0.9-1.3
		c0.2-0.5,0.3-1.1,0.3-1.7c0-0.6-0.1-1.2-0.3-1.7c-0.2-0.5-0.5-1-0.8-1.3c-0.3-0.4-0.7-0.6-1.2-0.8c-0.5-0.2-1-0.3-1.5-0.3
		c-0.5,0-1,0.1-1.5,0.3c-0.5,0.2-0.9,0.5-1.2,0.8c-0.4,0.3-0.6,0.8-0.9,1.3c-0.2,0.5-0.3,1.1-0.3,1.7c0,0.6,0.1,1.2,0.3,1.7
		c0.2,0.5,0.5,1,0.8,1.3c0.4,0.4,0.8,0.7,1.2,0.9C394.8,313.6,395.3,313.7,395.8,313.7z"/>
	<path fill="#253A44" d="M412.6,297.4l1.4,0l-0.2,16.4l0.1,0l7.5-8.9l1.6,0l-4.9,5.8l5.5,9.1l-1.5,0l-4.8-8l-3.4,3.9l-0.1,4.1
		l-1.4,0L412.6,297.4z"/>
	<path fill="#253A44" d="M427,297.6l1.4,0l-0.3,20.5c0,0.3,0.1,0.6,0.2,0.7c0.1,0.2,0.3,0.2,0.5,0.2c0.1,0,0.1,0,0.2,0
		c0.1,0,0.2,0,0.4-0.1l0.2,1.1c-0.1,0-0.3,0.1-0.4,0.1c-0.1,0-0.3,0-0.6,0c-1.2,0-1.8-0.8-1.8-2.4L427,297.6z"/>
	<path fill="#253A44" d="M435.1,301.5c-0.4,0-0.6-0.1-0.9-0.4c-0.2-0.2-0.4-0.5-0.3-0.9c0-0.4,0.1-0.7,0.4-0.9
		c0.2-0.2,0.5-0.3,0.9-0.3c0.4,0,0.6,0.1,0.9,0.3c0.2,0.2,0.3,0.5,0.3,0.9c0,0.4-0.1,0.6-0.4,0.9
		C435.7,301.4,435.4,301.5,435.1,301.5z M434.3,305.1l1.4,0l-0.2,14.9l-1.4,0L434.3,305.1z"/>
	<path fill="#253A44" d="M441.4,305.2l1.2,0l0.1,2.3l0.1,0c0.7-0.8,1.4-1.4,2.2-1.9c0.8-0.5,1.6-0.7,2.5-0.7c1.2,0,2.1,0.3,2.7,0.9
		c0.6,0.6,1.1,1.3,1.3,2.2c0.9-0.9,1.7-1.6,2.6-2.2c0.8-0.5,1.7-0.8,2.5-0.8c3,0,4.4,2,4.4,5.8l-0.1,9.6l-1.4,0l0.1-9.4
		c0-1.6-0.2-2.8-0.8-3.5c-0.5-0.8-1.4-1.1-2.5-1.2c-1.3,0-2.8,0.9-4.5,2.7l-0.1,11.2l-1.4,0l0.1-9.4c0-1.6-0.2-2.8-0.8-3.5
		c-0.5-0.8-1.4-1.1-2.5-1.2c-1.3,0-2.8,0.9-4.5,2.7l-0.1,11.2l-1.4,0L441.4,305.2z"/>
	<path fill="#253A44" d="M465.6,316.7c0-1.6,0.8-2.9,2.4-3.7c1.6-0.8,4-1.4,7.3-1.8c0-0.6,0-1.1-0.1-1.7c-0.1-0.6-0.3-1.1-0.5-1.5
		c-0.3-0.4-0.6-0.8-1.1-1.1c-0.5-0.3-1.1-0.4-1.8-0.4c-1,0-1.9,0.2-2.8,0.6c-0.8,0.4-1.5,0.8-2,1.1l-0.6-1c0.3-0.2,0.6-0.4,1-0.6
		c0.4-0.2,0.8-0.4,1.3-0.6c0.5-0.2,1-0.3,1.5-0.5c0.6-0.1,1.1-0.2,1.7-0.2c0.9,0,1.6,0.2,2.2,0.5c0.6,0.3,1.1,0.7,1.4,1.2
		c0.4,0.5,0.6,1.1,0.8,1.8c0.1,0.7,0.2,1.4,0.2,2.3l-0.1,9.5l-1.1,0l-0.1-1.9l-0.1,0c-0.8,0.6-1.6,1.1-2.5,1.6
		c-0.9,0.5-1.8,0.7-2.8,0.7c-0.6,0-1.2-0.1-1.7-0.3c-0.5-0.2-1-0.4-1.4-0.8c-0.4-0.3-0.7-0.8-0.9-1.3
		C465.7,318,465.6,317.4,465.6,316.7z M467,316.6c0,1.1,0.3,1.8,0.9,2.3c0.6,0.5,1.3,0.7,2.2,0.7c0.9,0,1.7-0.2,2.5-0.6
		c0.8-0.4,1.7-1,2.6-1.8l0.1-5.1c-1.5,0.2-2.8,0.4-3.9,0.6c-1,0.3-1.9,0.6-2.5,0.9c-0.6,0.4-1.1,0.8-1.4,1.3
		C467.2,315.5,467,316,467,316.6z"/>
</g>
</svg>
