<?xml version="1.0" encoding="utf-8"?>
<!-- Generator: Adobe Illustrator 18.0.0, SVG Export Plug-In . SVG Version: 6.00 Build 0)  -->
<!DOCTYPE svg PUBLIC "-//W3C//DTD SVG 1.1//EN" "http://www.w3.org/Graphics/SVG/1.1/DTD/svg11.dtd">
<svg version="1.1" id="Lag_1" xmlns="http://www.w3.org/2000/svg" xmlns:xlink="http://www.w3.org/1999/xlink" x="0px" y="0px"
	 viewBox="0 0 800 450" enable-background="new 0 0 800 450" xml:space="preserve">
<g>
	<g>
		<g>
			<path fill="#CD5C5C" d="M227.4,87.2c-53,18.9-83.5,67.6-75.1,114.6c-2.6-2-5.2-4.1-7.7-6.3c-5.8-45.6,24.4-91.8,75.7-110.1
				c27-9.6,55.1-9.8,79.9-2.5C277.2,77.6,251.8,78.5,227.4,87.2z"/>
			<path fill="#CD5C5C" d="M164.1,113.5c0,0-2.1-46,38.7-72.4l-1.7,7.9c0,0,36.7-36.1,92.6,0.3c39.7,25.8,46.9,50,46.9,50
				s-13.2-10.7-30.6,17c-9.5,15.2-41.5,31.6-70.4,22.5c-28.9-9.1-36.1-10.9-36.1-10.9l10.8,11.2c0,0-43.5-24.2-54.7-7
				c0,0,49.2-78.8,116.2-61.7C275.8,70.4,217.5,46.4,164.1,113.5z"/>
		</g>
		<path fill="#CD5C5C" d="M340.6,99.4c0,0-1.8-5.8-8.1-14.7c-24.7-15.2-53.8-22-82.8-18.4c15.8,0,26.1,4.2,26.1,4.2
			c-67-17.1-116.2,61.7-116.2,61.7c11.2-17.1,54.7,7,54.7,7l-10.8-11.2c0,0,7.2,1.9,36.1,10.9c29,9.1,60.9-7.3,70.4-22.5
			C327.3,88.6,340.6,99.4,340.6,99.4z"/>
	</g>
	<g>
		<g>
			<path fill="#CD5C5C" d="M117.2,112.7c24.9,17.1,34.1,46.6,23.2,69.9c1.6-0.7,3.2-1.4,4.9-2.2c9.3-22.9,0-51.1-24.2-67.6
				c-12.7-8.7-27.3-12.7-41.2-12.3C92.6,100.9,105.7,104.8,117.2,112.7z"/>
			<path fill="#CD5C5C" d="M146.5,135.1c0,0,7.4-23.6-10.2-43l-0.2,4.4c0,0-14.1-23.8-48.1-12.6c-24.2,8-31.3,19.5-31.3,19.5
				s8.4-3.7,13.6,13.1c2.8,9.2,17.2,22.1,33.5,21.4c16.3-0.7,20.3-0.7,20.3-0.7l-7.2,4.3c0,0,26-6.6,29.4,3.9
				c0,0-14.7-47.7-51.9-48.1C94.4,97.3,128,92.9,146.5,135.1z"/>
		</g>
		<path fill="#CD5C5C" d="M56.7,103.4c0,0,1.7-2.8,6.3-6.5c14.9-4.5,31-4,45.5,1.9c-8.2-2.2-14.1-1.4-14.1-1.4
			c37.2,0.3,51.9,48.1,51.9,48.1c-3.4-10.4-29.4-3.9-29.4-3.9l7.2-4.3c0,0-4,0-20.3,0.7c-16.3,0.7-30.7-12.2-33.5-21.4
			C65.1,99.7,56.7,103.4,56.7,103.4z"/>
	</g>
	<g>
		<path fill="#CD5C5C" d="M153.5,80.2c0,0,12.9-9.8,10.9-26.7l-1.8,2.2c0,0,1.5-18-20.9-25c-15.9-4.9-24.1-1.4-24.1-1.4
			s5.9,1.2,2.3,12.1c-2,6,0.8,18.3,9.8,24.1c9,5.8,11.1,7.3,11.1,7.3l-5.5-0.4c0,0,16.3,6.3,14.2,13.2c0,0,10.3-31-9.4-45.3
			C140,40.3,159.6,50.7,153.5,80.2z"/>
	</g>
	<path fill="#CD5C5C" d="M139.8,249c-24-4-38.5-14.5-43-31c-7.8-28.6,18-52.6,50.4-49.8l3.4,0.3c32.3,2.7,54.7,32.7,43.7,62
		C186.8,250.5,163.8,253,139.8,249z"/>
	<g>
		<path fill="#CD5C5C" d="M200.1,207.1c0.8,4.9,0.8,10.1,0,15.5V207.1z"/>
	</g>
</g>
<g>
	<path fill="#CD5C5C" d="M377,242.6c0.4,0,0.4-0.4,0.4-0.4C377,242.2,377,242.6,377,242.6z"/>
	<path fill="#CD5C5C" d="M373.1,255.6l0.4-0.4C373.5,255.1,373.1,255.1,373.1,255.6z"/>
	<path fill="#CD5C5C" d="M384,246.5c0,0.4,0,0.4,0,0.4C384,246.5,384,246.5,384,246.5z"/>
	<path fill="#CD5C5C" d="M391,244.4C391,244.3,391,244.3,391,244.4C391,244.4,391,244.4,391,244.4z"/>
	<path fill="#CD5C5C" d="M427.3,295.8c-1.7-6.5-4.3-11.2-8.2-13.8c-3.9-2.6-7.3-3.9-11.6-3.9c0,0-1.7,0-2.6,0.4
		c-5.2,0.9-9.1,3-12.1,7.3c-6.5,9-9.9,17.7-10,25.4c0,1.7,0,3.9,0.4,5.6c0.9,5.2,3,9.2,6,11.4c2.6,2.2,7.3,3.2,14.2,3.2h0.4
		c7.3,0,12.5-1.4,16.4-4c3.9-2.6,6-6.5,7.3-12.6c0.9-3,1.3-6.1,0.9-9.5C428.6,302.3,428.2,298.8,427.3,295.8z"/>
	<path fill="#CD5C5C" d="M220.8,277.3c-2.2-2.2-5.2-3.5-8.2-4.3c-1.7-0.9-3.4-1.3-5.2-1.3c-2.2,0-3,0-4.3,0.4
		c-3,0.9-4.7,2.1-5.6,5.2c-0.9,3.4-1.3,12.9-1.8,28c0,4.7,0,8.6,0,11.6c0,6,0.4,9.1,0.4,10.3c1.7-0.4,4.7-1.7,9.1-5.2
		c4.7-3.4,9.1-8.2,13-13.8c6-7.8,8.6-14.6,8.7-20.3C226.8,283.8,224.7,280.4,220.8,277.3z"/>
	<path fill="#CD5C5C" d="M389.9,249.4c-0.4,0-0.4,0-0.4,0H389.9z"/>
	<path fill="#CD5C5C" d="M114.3,259.8c-7.2-10.9-16.8-8.6-16.8-8.6c7.7-0.8,13.1,5.3,15.9,9.5C113.7,260.5,114,260.1,114.3,259.8z"
		/>
	<path fill="#CD5C5C" d="M782.9,167.7l-761.4,9c-2.4,0-4.2,2-4.1,4.4l11.3,244.4c0.1,2.4,2.2,4.7,4.6,4.7l742.3,1
		c2.4,0,4.5-2.3,4.6-4.7l6.9-254.3C787.2,169.7,785.3,167.6,782.9,167.7z M678.4,244.4c0.4-3,1.7-5.2,3-6.9c1.7-2.2,3.9-3.4,6.5-3.4
		c2.6,0,4.7,0.4,6.5,2.2c1.3,1.3,2.6,3.5,4.3,6.5c1.7,4.7,1.3,8.2-0.4,10.3c-1.3,1.7-3.9,2.6-7.8,2.6c-3.9,0.4-6.5-0.4-8.6-2.2
		c-0.4,0-0.9-0.4-0.9-0.4C678.8,250.9,677.9,247.9,678.4,244.4z M382.1,246.5c0.4,0,0.4-0.4,0.4-0.4c0.4,0.4,0.4,0.4,0.4,0.4
		c0-0.4,0.4-1.3,0.4-1.7c0.4,0.4,0.4,0.4,0.9,0.9c0-0.9-0.2-1.7,0.3-2.6c0.9-0.4,2.4-1.3,2.4-1.7c0,0.4,0,0.2,0,0.6
		c0-0.4,1.2-2.6,1.6-2.6h0.4l0.4,1.2c0.4,0.9,0.9,2.1,0.9,3c0-0.4,0-0.2,0.4-0.7c0,0.4,0.5,1,0.5,1.4c0,0-0.3,0.5-0.3,1
		c0,0.4,0,3.1,0,3.1c4,0,0.2,0,0.2,0l0.4-1.8c0,0.4,0,0.6,0,1.1c-1.3,0.9-2.6,1-3.9,1.4c1.3-0.4,2.6-1,3.5-1
		c-0.4,0.4-0.7,0.3-1.2,0.8c0.4,0,1-0.1,1-0.1v0.4c0,0.4,0,0.4,0,0.4c0,0.9-1.3,1.3-1.8,1.7c-2.2,0.4-2.2,1.7-5.2,2.6c0,0,0,0,0,0.4
		c0,0,0,0,0-0.4c0-2.2-0.9-4.3-2.7-5.6C381.3,247.8,382.1,247,382.1,246.5z M256.2,240.3c0.4-3,1.7-5.2,3-6.9
		c1.7-2.2,3.9-3.4,6.5-3.4c2.6,0,4.7,0.4,6.5,2.2c1.3,1.3,2.6,3.9,4.3,6.5c1.7,4.7,1.3,8.2-0.4,10.3c-1.3,1.7-3.9,2.6-7.8,2.6
		c-3.9,0.4-6.5-0.4-8.6-2.2c-0.4,0-0.9-0.4-0.9-0.4C256.7,246.8,255.8,243.7,256.2,240.3z M170.3,338.5
		c-0.5,15.1-10.8,22.4-30.2,22.4c0-0.4-1.3-0.9-1.3-0.9c-12.5-0.5-22-3.1-28.9-7.8c-4.7-3.5-6.9-7.3-6.9-11.2
		c-0.4-2.2,0.4-5.2,2.2-7.8c1.3-1.7,3-2.2,6-2.1c3,0,7.3,0.9,12.9,2.2c6.9,1.7,12.5,3.1,16.4,3.1c0.4,0,0.9,0,0.9,0
		c3,0,4.3-0.9,4.7-1.8c-0.9-1.3-5.6-6.5-31.4-28.1c-7.8-6.5-11.2-15.1-9.9-26.3c0.8-6.6,2.9-12.2,6.4-16.8c-2.5,0.3-5.1,1.3-5.1,1.3
		l2.2-1.7c0,0-1.3,0-6.5,0.9c-5.2,0.9-9.9-3-11.2-5.6c-2.1-4.7-4.7-3.5-4.7-3.5s1.7-3.9,9.1-7.3c10.4-4.7,15.5,2.2,15.5,2.2l0-1.3
		c4,3.4,4.8,8,4.8,10.7c1.5-1.4,3.2-2.6,5.1-3.8c6-3.4,12.1-5.2,19-5.1l1.7,0c7.8,0.4,13.4,2.6,17.2,7.4c4.7,5.6,5.6,9.9,3.9,12.9
		c-1.3,2.2-3.9,3.4-8.2,3.4c-1.7,0-3.4,0-5.6-0.4c-1.7-0.4-3.4-0.4-5.2-0.4c-3.4,0-6.9,0.9-9.5,2.1c-3.9,2.1-5.6,5.2-5.6,9
		c0,2.2,2.1,6,10.8,12.5c6.9,4.8,14.2,10.8,22,18.6c4.3,4.7,6.9,8.6,8.2,11.2c0.9,2.2,1.7,4.7,1.7,8.2
		C170.7,335.9,170.7,336.8,170.3,338.5z M245.8,309.3c-5.6,11.2-13,20.2-20.7,28c-8.6,7.7-16.4,10.8-23.7,10.7
		c-1.3,0-3.5,0.4-3.9,1.7c0,0.4-0.4,0.9-0.4,0.9c-0.4,0.4-0.4,1.3-0.4,7.8l0,3.9c0,3.9,0,4.3,0,6.5c-0.9,3.4-2.6,5.2-5.2,6.5
		c-1.3,1.7-3,1.3-4.3,1.3c-2.6,0-4.7-0.4-6.9-2.6c-2.2-2.2-3.4-6-4.3-13.8c0-1.3,0-2.2-0.4-3c-0.4-5.2-0.8-10.8-1.2-29.8
		c-0.4-28.5-0.4-46.1,0.9-54.3c1.3-8.2,5.6-14.7,12.1-19.4c3.5-2.6,9.1-3.9,16-3.9l5.2,0c9.9,0.9,17.7,3.5,23.7,7.4
		c8.6,6.1,14.2,13.8,16.8,23.7c0.9,3.5,1.3,6.5,1.3,9.5C250.1,296.8,248.8,303.2,245.8,309.3z M280.7,343.4
		c-1.7,7.8-6.9,9.5-10.8,9.5c-3.9,0-9.1-1.7-11.2-9.5c-1.3-5.6-2.6-17.7-3-37.5l0-6c-0.4-28.5,1.3-34.5,2.6-36.7
		c2.6-3.4,5.6-4.8,9.1-4.8h0.9c0,0,0,0,0.4,0c3.9,0.4,6.5,3.3,7.3,7.1c1.3,6.5,2.6,20.2,3.8,41.7c0.4,8.6,0.8,16.3,1.3,21.9
		C281.1,336.1,281.1,340.4,280.7,343.4z M352.2,340.1c-0.5,15.1-10.8,22.4-30.2,22.4c0-0.9-1.3-0.9-1.3-0.9
		c-12.5-0.5-22-3.1-28.9-7.8c-4.7-3.5-6.9-7.3-6.9-11.2c-0.4-2.6,0.4-5.2,2.2-7.8c1.3-1.7,3-2.2,6-2.1c3,0,7.3,1.6,12.9,2.9
		c6.9,1.7,12.5,3.8,16.4,3.8c0.4,0,0.9,0,0.9,0c3,0,4.3-1.6,4.7-2.5c-0.9-1.3-5.6-6.9-31.4-28.5c-7.8-6.5-11.2-15.3-9.9-26.5
		c1.3-11.2,6.5-19.6,15.6-25.2c6-3.4,12.1-5.4,19-5.4h1.7c7.8,0,13.4,2.7,17.2,7.5c4.7,5.6,5.6,10,3.9,13c-1.3,2.2-3.9,3.5-8.2,3.5
		c-1.7,0-3.4,0-5.6-0.4c-1.7-0.4-3.4-0.4-5.2-0.4c-3.4,0-6.9,0.9-9.5,2.1c-3.9,2.1-5.6,5.2-5.6,9c0,2.2,2.1,6,10.8,12.5
		c6.9,4.8,14.2,10.8,22,18.6c4.3,4.7,6.9,8.6,8.2,11.2c0.9,2.2,1.7,4.7,1.7,8.2C352.7,337.5,352.7,338.3,352.2,340.1z M454.5,309.6
		c-0.9,14.2-5.2,25.4-12.6,33.2c-5.6,6-13.4,9.9-22.4,12c-6,1.7-10.8,2.1-15.5,2.1c-4.3,0-8.6-0.4-12.9-1.7
		c-13.4-3.5-22.8-11.2-28.4-23.3c-2.6-6.5-4.3-12.9-4.7-19.8c0-6,0.9-12.1,3-18.5c4.2-13.3,12.3-23.7,24.1-31.8l-2.6-5.3l-3.1-0.6
		c-1.8,0.5-3.5,1.5-4.9,2.9c-0.9,0.4-1.3,0.6-2.2,0.6h-0.4h-0.4c0,0,0.4-0.3,0.4-0.7c0,0,0,0.7,0.4-0.3c0,0,0,0-0.4,0
		c-0.4,1-0.9,0.1-1.3,0.1c0.9-0.9,1.7-1.9,2.6-2.7c-1.3,0.9-2.2,1.6-3.5,2.5c-0.4-0.4-0.9,0.3-1.3-0.1l0.4,0.3c-0.4,0-0.9,0-1.3,0
		c-0.4,0-0.4-1.6-0.9-1.6c0.4,0,1.3-0.4,1.7-0.4c-0.9-0.4-1.3-1.7-1.3-2.5v-0.4l-0.4-0.4c0.4,0,0.9-0.4,1.3-0.4l-0.6-0.4
		c0.9-0.4,1.6-1,2.9-1.4c0.9,0,1.6-0.3,2.5,0.7H372c0,0,0,0.3,0-0.1c0-0.4,0.5-0.9,0.1-1.3c0.4,0,1.8,0.4,2.3,0.4H374c0,0,0,0,0-0.4
		v0.4h1.2c0.4,0,1.3,0,1.7,0c0.4,1.8,1.3,3.4,2.7,4.7l2.2,0.1l-2.5-5.3c-1.9-1.4-4-2.1-6.2-2.5c-0.4-0.4-0.9-1.6-1.3-2.4
		c-0.4-0.4-0.4,3.4-0.4-1.6h0.4h0.4c-0.4,0-0.4,0.3-0.4,0.3c-0.4-0.4-0.9-0.4-2.2-1.2c0.4,0,0.9,0.9,1.3,0.9h0.4c-0.4,0-0.4-1-0.4-1
		c-0.4-0.9-1.3-2-1.7-2.9c0-1.3,0-2.3,0.4-3.6c0.4,0,1,0.4,1.4,0.4c0.4,0.4,1,0.4,1,0.4v-0.4c0-0.9-0.5-0.9-0.5-1.8l-0.1,0h0.4
		c1.3,1,1.5,0.9,2.4,1.8c0.4,0.4-0.2,0-0.2,0v-0.4c0,0,0.6-0.4,0.6-0.9c0.4,0.4,1.2,0.4,1.6,0.9c0,0.4,0.6,0.9,0.6,1.3
		c0.4,0,0.5-0.4,0.5-0.4c0.9,0.4,1.3,1.3,1.8,1.7c-0.4,1.3-0.8,2.6-1.7,3.9c0.9-1.3,1-2.6,1.9-3.4c0,0.4-0.3,1.3-0.3,1.7v0.4
		c0-0.4,0.7-0.4,0.7-0.4c0.4-0.4,0.9-0.4,1.4-0.9l0.9,0.4v0.4c0,0.9-1.3,1.7-1.3,2.6c-0.9,2.2-1.7,4.7-1.7,7.8v0.4
		c0-0.4,0.5-0.4,0.5-0.4c-0.1-0.1,0.2-0.3,0-0.4l5.6,11.1c0.4-0.3,0.8-0.5,1.2-0.8c4.7-3.9,8.7-5.6,12.1-6.4c1.3-0.4,2.6,0,4.8,0
		h0.4c2.6,0,5.2,0,8.6,0.4c14.2,1.7,25,8.4,33.2,19.7c5.6,8.2,8.6,18,9,29.7C454.5,305.8,454.5,307.4,454.5,309.6z M516.2,282.5
		c-4.7-1.7-9.1-2.2-12.5-2.2c-5.6,0-9.9,1.7-12.9,6c-4.8,6.9-6.9,21.1-6.1,42.7c1.2,28.5-0.9,29.3-2.2,30.2c-1.3,0-3,0-4.7,0
		c-1.7,0-3.4,0-5.6-0.4c-4.7-1.3-7.3-3-8.6-6.1c-0.9-2.2-2.1-8.6-4.2-45.3c-0.8-13.8-1.3-23.7-1.7-30.2l0-5.2
		c0.4-5.6,1.7-9.1,4.3-9.9c0.9-0.4,2.2-0.4,3-0.4c2.6,0,5.2,1.3,8.2,3.5c2.2,1.7,3,2.2,3.4,2.2h0.4c1.7,0,5.6-3.9,10.8-6.5
		c4.7-2.6,10.4-3.9,16-3.9c4.7,0,9.5,0.9,15.1,2.6c12.9,4.3,19.4,10.4,19.8,17.7c0,2.6-0.4,4.3-1.7,5.6c-1.7,1.7-4.7,2.6-6.9,2.6
		C526.1,285.6,521.8,284.7,516.2,282.5z M625,350.4c0,0,0,0,0,0.4c-1,9.1-7.3,10.3-10.3,10.3c-4.7,0-8.1-1.3-10.3-3.9
		c-0.4-0.9-1.7-3-7.7-36.2c-4.7-28.5-6.8-33.6-7.7-34.5c0,0,0,0-0.4-0.4c-2.6-3.9-5.6-6-9-6.1c-3.4,0-7.8,2.1-12.5,6
		c-8.2,6.9-12.5,23.7-11.7,49.1c0.4,19.8-2.2,23.7-4.8,24.6c-1.3,0.4-2.2,0.4-3.5,0.4c-3.9,0-6.5-2.2-8.6-6.9
		c-2.1-4.7-3.9-13.4-4.3-25.9c-0.4-3-0.4-5.6-0.4-8.6c-0.4-30.2,9.1-49.6,29-58.6c6.5-3,12.9-4.3,18.5-4.3c2.7,0,5.2,0.4,7.6,1
		c1.1-3.8,4-7.3,8-9.5c2.8-2.4,6.6-4.4,11.1-3.6c-0.9-0.4-9.5-3.5-16.8,6.9c0,0-0.4-6.5,5.2-10.8l0,1.3c0,0,5.2-5.6,13.4-0.4
		c6,3.5,7.3,6.9,7.3,6.9s-2.2-1.3-4.3,2.6c-1.3,2.2-5.6,4.7-9.9,3.9c-4.3-1.3-5.2-1.3-5.2-1.3l1.7,1.7c0,0-6.5-3-7.8-0.9
		c0,0,0.5-0.8,1.3-2c-1.3,1.7-2.3,3.6-2.8,5.5c3.2,1.1,6.2,2.8,9.2,5.1c6,4.8,10.8,11.2,13.8,18.6c3,7.3,6,19,8.6,35.4
		c2.1,13.8,3.3,24.2,3.3,30.6L625,350.4z M670.4,358.2c-3,2.2-6.5,3-10.4,3c-3.4,0-7.3-0.9-11.6-3c-8.6-5.2-14.6-12.5-18.1-22.9
		c-1.3-4.3-2.1-15.5-2.5-34.1l-0.4-23.7c0.5-44,2.2-53,3.5-55.6c2.2-3.9,4.8-5.6,7.8-5.6c3,0,6,1.7,9,4.8c2.2,2.2,4.3,10.4,5.5,55.2
		c0.4,18.5,1.2,31.5,2.1,39.2c0.4,7.8,1.7,12.9,3,16c1.7,3,4.3,4.7,7.8,6.5c3.9,1.7,6.5,4.8,7.7,9.1c0.4,0.9,0.4,1.7,0.4,2.6
		C674.3,353.1,673,355.6,670.4,358.2z M700.6,346.6c-1.7,7.8-6.9,8.6-10.8,8.6c-3.9,0-9.1-0.9-11.2-9.1c-1.3-5.6-2.6-17.7-3-37.1
		l0-5.6c-0.4-28.5,1.3-34.5,2.6-36.6c2.6-3.4,5.6-5.6,9.1-5.6l0.9-0.9c0,0,0,0,0.4,0c3.9,3,6.5,3.9,7.3,8.2
		c1.3,6.5,2.6,20.7,3.8,42.3c0.4,9.1,0.8,16.6,1.3,22.2C701.1,340,701.1,343.6,700.6,346.6z"/>
	<path fill="#CD5C5C" d="M387,242.2c0,0.4,0,0.4,0,0.4C387,242.2,387,242.2,387,242.2z"/>
	<path fill="#CD5C5C" d="M391,244C391,244,391,244,391,244C391,244,391,244,391,244z"/>
	<path fill="#CD5C5C" d="M384,245.7c0,0.4,0,0.4,0,0.4C384,245.7,384,245.7,384,245.7z"/>
</g>
</svg>
