<?xml version="1.0" encoding="utf-8"?>
<!-- Generator: Adobe Illustrator 18.0.0, SVG Export Plug-In . SVG Version: 6.00 Build 0)  -->
<!DOCTYPE svg PUBLIC "-//W3C//DTD SVG 1.1//EN" "http://www.w3.org/Graphics/SVG/1.1/DTD/svg11.dtd">
<svg version="1.1" id="Lag_1" xmlns="http://www.w3.org/2000/svg" xmlns:xlink="http://www.w3.org/1999/xlink" x="0px" y="0px"
	 viewBox="0 0 200 200" enable-background="new 0 0 200 200" xml:space="preserve">
<circle fill="#631B38" cx="100" cy="100" r="90"/>
<g>
	<g>
		<g>
			<path fill="#F2EFDC" d="M103.4,89.8c2.3-2.6,6.6-2.7,9.4-0.1l0.8,0.6c2.9,2.6,3.4,6.8,1.1,9.4c-2.3,2.6-6.6,2.7-9.5,0.1l-0.8-0.6
				C101.5,96.7,101,92.5,103.4,89.8L103.4,89.8z M114.1,98.6c1.7-1.9,1.2-5.3-1.3-7.4l-0.8-0.8c-2.4-2.1-5.8-2.2-7.5-0.3
				c-1.7,1.9-1.2,5.3,1.3,7.4l0.8,0.8C109.1,100.4,112.5,100.5,114.1,98.6L114.1,98.6z"/>
		</g>
		<g>
			<path fill="#DCDAC8" d="M114.6,99.7c0.3-0.3,0.5-0.6,0.7-1c-2.4,2.3-6.4,2.3-9.2-0.1l-0.8-0.6c-2.6-2.3-3.3-5.8-1.7-8.5
				c-0.1,0.1-0.2,0.2-0.3,0.3c-2.3,2.6-1.8,6.9,1.1,9.4l0.8,0.6C108.1,102.5,112.3,102.5,114.6,99.7z"/>
		</g>
	</g>
	<g>
		<circle fill="#D95B46" cx="87.5" cy="99.1" r="11.5"/>
		<path fill="#F16A54" d="M76.1,99.1c0,1.5,0.3,2.8,0.8,4.3c1.9,1.4,4.2,2.1,6.7,2.1c6.3,0,11.5-5.1,11.5-11.5
			c0-1.5-0.3-2.8-0.8-4.3c-1.9-1.4-4.2-2.1-6.7-2.1C81.3,87.7,76.1,92.7,76.1,99.1z"/>
		<g>
			<path fill="#2D4124" d="M89.1,93.1c0,0.4-1.8,0.4-1.9,0.8c-0.1,0.4,1.2,1.7,0.9,1.9c-0.3,0.3-1.6-1.1-1.9-0.9
				c-0.4,0.1-0.4,1.9-0.8,1.9c-0.4,0-0.4-1.8-0.8-1.9c-0.4-0.1-1.7,1.2-1.9,0.9c-0.3-0.3,1.1-1.6,0.9-1.9c-0.1-0.4-1.9-0.4-1.9-0.8
				s1.8-0.4,1.9-0.8c0.1-0.4-1.2-1.7-0.9-1.9c0.3-0.3,1.6,1.1,1.9,0.9c0.4-0.1,0.4-1.9,0.8-1.9c0.4,0,0.4,1.8,0.8,1.9
				s1.7-1.2,1.9-0.9c0.3,0.3-1.1,1.6-0.9,1.9C87.3,92.7,89.1,92.7,89.1,93.1z"/>
			<path fill="#405933" d="M85.3,89.3c-0.4,0-0.4,1.8-0.8,1.9c-0.4,0.1-1.7-1.2-1.9-0.9c-0.3,0.3,1.1,1.6,0.9,1.9
				c-0.1,0.4-1.9,0.4-1.9,0.8s1.8,0.4,1.9,0.8c0.1,0.4-1.2,1.7-0.9,1.9c0.3,0.3,1.6-1.1,1.9-0.9c0.1,0.1,0.2,0.5,0.4,0.9
				c0.8-1.1,1.2-2.4,1.2-4c0-0.2,0-0.4,0-0.5l0,0C85.7,91.3,85.7,89.3,85.3,89.3z"/>
			<path fill="#2D4124" d="M84.2,89.8c-0.3,0.1-0.6,0.1-0.8,0.4c0.6,0.8,1.1,1.8,1.3,2.9c0.3,0,0.6-0.1,0.8-0.2
				C85.2,91.8,84.8,90.6,84.2,89.8z"/>
		</g>
	</g>
	<g>
		<circle fill="#D95B46" cx="118.2" cy="77.4" r="11.5"/>
		<path fill="#F16A54" d="M111.1,68.4c-1.2,0.9-2.1,1.9-2.8,3.2c0.1,2.3,0.9,4.7,2.4,6.6c3.9,5,11.1,5.8,16,1.9
			c1.2-0.9,2.1-1.9,2.8-3.2c-0.1-2.3-0.9-4.7-2.4-6.6C123.4,65.4,116.2,64.5,111.1,68.4z"/>
		<g>
			<path fill="#2D4124" d="M123.9,74.9c-0.3,0.2-1.5-1.3-1.7-1.1c-0.4,0.1-0.6,1.9-1,1.9c-0.4-0.1-0.1-1.9-0.5-2
				c-0.4-0.2-1.7,1-2,0.7c-0.2-0.3,1.3-1.5,1.1-1.7c-0.1-0.4-1.9-0.6-1.9-1c0.1-0.4,1.9-0.1,2-0.5c0.2-0.4-1-1.7-0.7-2
				c0.3-0.2,1.5,1.3,1.7,1.1c0.4-0.1,0.6-1.9,1-1.9c0.4,0.1,0.1,1.9,0.5,2c0.4,0.2,1.7-1,2-0.7c0.2,0.3-1.3,1.5-1.1,1.7
				c0.1,0.4,1.9,0.6,1.9,1c-0.1,0.4-1.9,0.1-2,0.5C123,73.1,124.2,74.7,123.9,74.9z"/>
			<path fill="#405933" d="M124.4,69.6c-0.2-0.3-1.7,0.8-2,0.7c-0.4-0.2-0.1-2-0.5-2c-0.4-0.1-0.6,1.7-1,1.9
				c-0.4,0.1-1.5-1.4-1.7-1.1c-0.3,0.2,0.8,1.7,0.7,2c-0.2,0.4-2,0.1-2,0.5c-0.1,0.4,1.7,0.6,1.9,1c0.1,0.1-0.2,0.5-0.6,0.8
				c1.3-0.1,2.6-0.6,3.8-1.5c0.1-0.1,0.3-0.2,0.4-0.4l0,0C123.3,71.1,124.7,69.9,124.4,69.6z"/>
			<path fill="#2D4124" d="M123.5,69.1c-0.2-0.2-0.5-0.4-0.8-0.5c-0.3,1.1-0.8,1.9-1.6,2.8c0.2,0.2,0.4,0.4,0.6,0.4
				C122.6,71,123.2,70,123.5,69.1z"/>
		</g>
	</g>
	<g>
		<circle fill="#FFCB09" cx="93.2" cy="102.9" r="8.4"/>
		<circle fill="#F2EFDC" cx="93.2" cy="102.9" r="7.9"/>
		<path fill="#FBAB18" d="M93.2,94.6L93.2,94.6v16.6l0,0c4.6,0,8.4-3.8,8.4-8.4C101.4,98.4,97.7,94.6,93.2,94.6z"/>
		<path fill="#DCDAC8" d="M93.2,95.1L93.2,95.1v15.6l0,0c4.4,0,7.9-3.5,7.9-7.9C100.9,98.6,97.5,95.1,93.2,95.1z"/>
		<g>
			<path fill="#FFCB09" d="M88.2,98.5c-1.1,1.1-1.7,2.6-1.7,4.2h5.9L88.2,98.5z"/>
			<path fill="#FBAB18" d="M93.4,96.3v5.9l4.2-4.2C96.5,97,95,96.3,93.4,96.3z"/>
			<path fill="#FBAB18" d="M97.9,107.4c1.1-1.1,1.7-2.6,1.7-4.2h-5.8L97.9,107.4z"/>
			<path fill="#FFCB09" d="M92.9,96.3c-1.7,0.1-3.1,0.7-4.2,1.7l4.2,4.2V96.3z"/>
			<path fill="#FBAB18" d="M93.4,103.6v5.9c1.7-0.1,3.1-0.7,4.2-1.7L93.4,103.6z"/>
			<path fill="#FFCB09" d="M86.6,103.1c0.1,1.7,0.7,3.1,1.7,4.2l4.2-4.2H86.6z"/>
			<path fill="#FBAB18" d="M93.9,102.7h5.9c-0.1-1.7-0.7-3.1-1.7-4.2L93.9,102.7z"/>
			<path fill="#FFCB09" d="M92.9,103.6l-4.2,4.2c1.1,1.1,2.6,1.7,4.2,1.7V103.6z"/>
		</g>
	</g>
	<g>
		<path fill="#FFCB09" d="M120.2,98.1c4.6-0.8,8.6,1.1,9.2,4.1c0.5,3-2.8,6-7.4,6.9c-4.6,0.8-8.6-1.1-9.2-4.1
			C112.3,101.9,115.6,98.8,120.2,98.1z"/>
		<path fill="#F2EFDC" d="M120.3,98.4c4.3-0.7,8.2,1.1,8.6,3.9s-2.6,5.7-6.9,6.5c-4.3,0.7-8.2-1.1-8.6-3.9
			C112.8,102,115.9,99.1,120.3,98.4z"/>
		<path fill="#FBAB18" d="M112.8,104.9L112.8,104.9l16.5-2.7l0,0c-0.5-3-4.7-4.9-9.2-4.1C115.6,98.8,112.3,101.9,112.8,104.9z"/>
		<path fill="#DCDAC8" d="M113.3,104.8L113.3,104.8l15.6-2.6l0,0c-0.5-2.8-4.4-4.6-8.6-3.9C115.9,99.1,112.8,102,113.3,104.8z"/>
		<g>
			<path fill="#FFCB09" d="M117.2,107.5c1.3,0.5,2.7,0.7,4.4,0.5l-0.6-3.9L117.2,107.5z"/>
			<path fill="#FBAB18" d="M114.4,104.5l5.8-1l-4.7-2C114.8,102.3,114.3,103.4,114.4,104.5z"/>
			<path fill="#FBAB18" d="M125,99.6c-1.3-0.5-2.7-0.7-4.4-0.5l0.6,3.9L125,99.6z"/>
			<path fill="#FFCB09" d="M114.5,104.8c0.3,1.1,1.1,1.9,2.1,2.4l3.7-3.5L114.5,104.8z"/>
			<path fill="#FBAB18" d="M121.7,103.2l5.8-1c-0.3-1.1-1.1-1.9-2.1-2.4L121.7,103.2z"/>
			<path fill="#FFCB09" d="M122.1,107.9c1.6-0.4,3-1,4-1.8l-4.7-2L122.1,107.9z"/>
			<path fill="#FBAB18" d="M120.8,103.1l-0.6-3.9c-1.6,0.4-3,1-4,1.8L120.8,103.1z"/>
			<path fill="#FFCB09" d="M121.8,103.6l4.7,2c0.9-0.9,1.4-1.9,1.3-3.1L121.8,103.6z"/>
		</g>
	</g>
	<g>
		<path fill="#2D4124" d="M88,113.4c-0.2,1.1-0.4,2-0.4,3.1c1.4,0.5,2.7,1,4.3,1.3c13.4,2.8,26.3-4.1,28.7-15.5
			c0.2-1.1,0.4-2,0.4-3.1c-1.4-0.5-2.7-1-4.3-1.3C103.4,95.1,90.5,102.1,88,113.4z"/>
		<path fill="#405933" d="M120.7,102.3c0.2-1.1,0.4-2,0.4-3c-12.2,4.2-25.9,11.3-33.3,17.2c0,0,0,0,0,0.1c1.4,0.5,2.7,1,4.3,1.3
			C105.3,120.6,118.2,113.6,120.7,102.3z"/>
	</g>
	<g>
		<circle fill="#FBAB18" cx="92.3" cy="110.2" r="6.1"/>
		<circle fill="#E39910" cx="92.3" cy="110.2" r="3.7"/>
	</g>
	<g>
		<circle fill="#FBAB18" cx="119.2" cy="108.3" r="6.1"/>
		<circle fill="#E39910" cx="119.2" cy="108.3" r="3.7"/>
	</g>
	<g>
		<circle fill="#FBAB18" cx="133.9" cy="104.9" r="6.1"/>
		<circle fill="#E39910" cx="133.9" cy="104.9" r="3.7"/>
	</g>
	<g>
		<path fill="#FBAB18" d="M79.1,107.9c-2.5,0.4-5-1.9-5.5-5.3c-0.6-3.3,1.1-6.4,3.6-6.8c2.5-0.4,5,1.9,5.5,5.3
			S81.7,107.5,79.1,107.9z"/>
		
			<ellipse transform="matrix(-0.9874 0.1582 -0.1582 -0.9874 171.531 190.0133)" fill="#E39910" cx="78.2" cy="101.8" rx="2.8" ry="3.7"/>
	</g>
	<g>
		<path fill="#2D4124" d="M125.3,131.6c0.6,0.9,1.2,1.7,1.7,2.5c1.4-0.6,2.6-1.1,4-1.8c11.9-6.7,16.9-20.5,11.2-30.6
			c-0.6-0.9-1.2-1.7-1.7-2.5c-1.4,0.6-2.6,1.1-4,1.8C124.4,107.7,119.5,121.5,125.3,131.6z"/>
		<path fill="#405933" d="M142.1,101.7c-0.5-0.9-1.1-1.7-1.7-2.5c-6.4,11.3-11.9,25.6-13.4,35c0,0,0,0,0,0.1c1.4-0.6,2.6-1.1,4-1.8
			C142.9,125.5,147.9,111.8,142.1,101.7z"/>
	</g>
	<g>
		<path fill="#2D4124" d="M70.2,134.6c0.6,0.9,1.2,1.7,1.7,2.5c1.4-0.6,2.6-1.1,4-1.8c11.9-6.8,16.9-20.5,11.2-30.6
			c-0.6-0.9-1.2-1.7-1.7-2.5c-1.4,0.6-2.6,1.1-4,1.8C69.5,110.7,64.4,124.4,70.2,134.6z"/>
		<path fill="#405933" d="M87.2,104.6c-0.5-0.9-1.1-1.7-1.7-2.5C79,113.3,73.5,127.7,72,137c0,0,0,0,0,0.1c1.4-0.6,2.6-1.1,4-1.8
			C87.9,128.5,92.9,114.8,87.2,104.6z"/>
	</g>
	<g>
		<path fill="#F2EFDC" d="M66.4,111.4c-2.4-3.7-1.2-8.9,2.9-11.8l1.1-0.7c4.1-2.7,9.4-1.9,11.9,1.7c2.4,3.7,1.2,8.9-2.9,11.8
			l-1.1,0.7C74.2,115.9,68.9,115.1,66.4,111.4L66.4,111.4z M80.3,102.1c-1.7-2.6-5.6-3.3-8.6-1.3l-1.1,0.7c-3,1.9-4,5.8-2.1,8.4
			c1.7,2.6,5.6,3.3,8.6,1.3l1.1-0.7C81.1,108.6,82,104.8,80.3,102.1L80.3,102.1z"/>
	</g>
	<g>
		<path fill="#F2EFDC" d="M122.2,118.7c-2.4-3.7-1.2-8.9,2.9-11.8l1.1-0.7c4.1-2.7,9.4-1.9,11.9,1.7c2.4,3.7,1.2,8.9-2.9,11.8
			l-1.1,0.7C130.1,123.1,124.6,122.4,122.2,118.7L122.2,118.7z M136,109.4c-1.7-2.6-5.6-3.3-8.6-1.3l-1.1,0.7c-3,1.9-4,5.8-2.1,8.4
			c1.7,2.6,5.6,3.3,8.6,1.3l1.1-0.7C136.9,115.9,137.7,112.1,136,109.4L136,109.4z"/>
	</g>
	<g>
		<path fill="#2D4124" d="M136.2,137.7c1.1,0.1,2,0.2,3.1,0.2c0.4-1.4,0.8-2.8,1.1-4.3c2.1-13.6-5.4-26-16.9-27.9
			c-1.1-0.1-2-0.2-3.1-0.2c-0.4,1.4-0.8,2.8-1.1,4.3C117.1,123.4,124.7,136,136.2,137.7z"/>
		<path fill="#405933" d="M123.4,105.9c-1.1-0.1-2-0.2-3.1-0.2c4.8,12,12.6,25.3,18.9,32.3c0,0,0,0,0.1,0c0.4-1.4,0.8-2.8,1.1-4.3
			C142.5,120.2,134.9,107.7,123.4,105.9z"/>
	</g>
	<g>
		<g>
			<path fill="#2D4124" d="M135.6,70.8c-0.5,1.1-0.2,1.2,0.6,0.4c1.7-1.9,3.3-4.1,4.8-6.3c0.6-1,0.6-1.7,0.2-1.9c0,0,0,0-0.1,0
				c-0.4-0.3-1.1,0.1-1.7,1.1C138,66,136.8,68.4,135.6,70.8z"/>
			<circle fill="#2D4124" cx="143.8" cy="64.9" r="1.2"/>
			<circle fill="#2D4124" cx="144.1" cy="61.6" r="1.2"/>
			<circle fill="#2D4124" cx="140.9" cy="60.5" r="1.2"/>
			<circle fill="#2D4124" cx="141.6" cy="61.6" r="1.6"/>
			<circle fill="#2D4124" cx="141.9" cy="65.1" r="1.9"/>
			<circle fill="#2D4124" cx="142.8" cy="62.9" r="1.9"/>
			<circle fill="#2D4124" cx="140.1" cy="63.1" r="1.9"/>
		</g>
		<g>
			<path fill="#405933" d="M135.5,73.8c-0.7,0.9-0.4,1.1,0.5,0.5c2.1-1.6,4.1-3.3,6-5.1c0.8-0.8,1-1.6,0.6-1.9c0,0,0,0-0.1-0.1
				c-0.4-0.4-1.1-0.1-1.9,0.6C138.9,69.7,137.2,71.7,135.5,73.8z"/>
			<circle fill="#405933" cx="145" cy="69.4" r="1.2"/>
			<circle fill="#405933" cx="144.9" cy="65.8" r="1.2"/>
			<circle fill="#405933" cx="142.8" cy="64.8" r="1.2"/>
			<circle fill="#405933" cx="143.3" cy="66" r="1.6"/>
			<circle fill="#405933" cx="142.9" cy="69.4" r="1.9"/>
			<circle fill="#405933" cx="144.3" cy="67.7" r="1.9"/>
			<circle fill="#405933" cx="141.4" cy="67.2" r="1.9"/>
		</g>
		<g>
			<path fill="#405933" d="M133.5,73.1c-0.6,1-0.8,0.8-0.6-0.2c0.6-2.5,1.4-5.1,2.2-7.6c0.4-1.1,1.1-1.5,1.5-1.3c0,0,0,0,0.1,0
				c0.4,0.1,0.6,1,0.2,1.9C135.9,68.6,134.7,70.9,133.5,73.1z"/>
			<circle fill="#405933" cx="133.7" cy="62.8" r="1.2"/>
			<circle fill="#405933" cx="136.9" cy="61.4" r="1.2"/>
			<circle fill="#405933" cx="138.7" cy="62.9" r="1.2"/>
			<circle fill="#405933" cx="137.4" cy="62.9" r="1.6"/>
			<circle fill="#405933" cx="134.4" cy="64.7" r="1.9"/>
			<circle fill="#405933" cx="135.6" cy="62.7" r="1.9"/>
			<circle fill="#405933" cx="137.2" cy="65.2" r="1.9"/>
		</g>
		<g>
			<path fill="#FBAB18" d="M122.9,89.4c-1.1,2.4-0.4,2.8,1.5,1l13.1-14c1.8-1.9,1.5-4.8-0.8-6.3l-0.3-0.1c-2.2-1.5-5-0.7-6,1.8
				L122.9,89.4z"/>
			<path fill="#E39910" d="M136.4,70L136.4,70l-13.9,21.6c-0.3-0.1-0.1-0.9,0.4-2.1l7.5-17.7C131.4,69.3,134.2,68.6,136.4,70z"/>
			<g>
				<g>
					<g>
						<g>
							<defs>
								<path id="SVGID_1_" d="M122.9,89.4c-1.1,2.4-0.4,2.8,1.5,1l13.1-14c1.8-1.9,1.5-4.8-0.8-6.3l-0.3-0.1c-2.2-1.5-5-0.7-6,1.8
									L122.9,89.4z"/>
							</defs>
							<clipPath id="SVGID_2_">
								<use xlink:href="#SVGID_1_"  overflow="visible"/>
							</clipPath>
							<g clip-path="url(#SVGID_2_)">
								<path fill="#FBAB18" d="M130.8,72.4c2.3,1.4,2.4,1.2,0.3-0.4l-15.2-11.1c-2.1-1.6-4.3-2.3-4.7-1.7l-0.1,0.1
									c-0.4,0.7,1.1,2.3,3.4,3.6L130.8,72.4z"/>
								<path fill="#FBAB18" d="M127,79.7c2.3,1.4,2.4,1.2,0.3-0.4L112,68.2c-2.1-1.6-4.3-2.3-4.7-1.7l-0.1,0.1
									c-0.4,0.7,1.1,2.3,3.4,3.6L127,79.7z"/>
								<path fill="#FBAB18" d="M124.8,83.6c2.3,1.4,2.4,1.2,0.3-0.4l-15.2-11.1c-2.1-1.6-4.3-2.3-4.7-1.7l-0.1,0.1
									c-0.4,0.7,1.1,2.3,3.4,3.6L124.8,83.6z"/>
								<path fill="#E39910" d="M133.2,78.1c-2.1-1.6-2-1.7,0.3-0.4l16.3,9.4c2.3,1.4,3.8,3,3.4,3.6l-0.1,0.1
									c-0.4,0.7-2.5-0.1-4.7-1.7L133.2,78.1z"/>
								<path fill="#E39910" d="M132.1,81.6c-2.1-1.6-2-1.7,0.3-0.4l16.3,9.4c2.3,1.4,3.8,3,3.4,3.6l-0.1,0.1
									c-0.4,0.7-2.5-0.1-4.7-1.7L132.1,81.6z"/>
								<path fill="#E39910" d="M126,89.6c-2.1-1.6-2-1.7,0.3-0.4l16.3,9.4c2.3,1.4,3.8,3,3.4,3.6l-0.1,0.1
									c-0.4,0.7-2.5-0.1-4.7-1.7L126,89.6z"/>
								<g>
									<path fill="#E39910" d="M132.2,74.7C132,74.5,132.1,74.5,132.2,74.7l1.7,0.8c0.2,0.1,0.4,0.4,0.2,0.5l0,0
										c-0.1,0.1-0.4,0.1-0.6,0L132.2,74.7z"/>
									<path fill="#E39910" d="M135.4,76.7C135.6,76.9,135.7,76.8,135.4,76.7l-1.3-1.3c-0.2-0.1-0.4-0.2-0.6,0l0,0
										c-0.1,0.1,0,0.4,0.2,0.5L135.4,76.7z"/>
								</g>
								<g>
									<path fill="#E39910" d="M128.2,76.7C128,76.6,128.1,76.5,128.2,76.7l1.7,0.8c0.2,0.1,0.4,0.4,0.2,0.5l0,0
										c-0.1,0.1-0.4,0.1-0.6,0L128.2,76.7z"/>
									<path fill="#E39910" d="M131.4,78.9C131.6,79,131.7,79,131.4,78.9l-1.3-1.3c-0.2-0.1-0.4-0.2-0.6,0l0,0
										c-0.1,0.1,0,0.4,0.2,0.5L131.4,78.9z"/>
								</g>
								<g>
									<path fill="#FBAB18" d="M128.2,76.7C128.1,76.6,128.1,76.5,128.2,76.7l1.5,0.6c0.2,0.1,0.3,0.3,0.2,0.5l0,0
										c-0.1,0.1-0.4,0.1-0.5,0L128.2,76.7z"/>
									<path fill="#FBAB18" d="M131,78.6C131.2,78.7,131.2,78.7,131,78.6l-1.2-1.2c-0.1-0.1-0.4-0.1-0.5,0l0,0
										c-0.1,0.1,0,0.4,0.2,0.5L131,78.6z"/>
								</g>
								<g>
									<path fill="#E39910" d="M127.8,83.4C127.6,83.3,127.7,83.2,127.8,83.4l1.7,0.8c0.2,0.1,0.4,0.4,0.2,0.5l0,0
										c-0.1,0.1-0.4,0.1-0.6,0L127.8,83.4z"/>
									<path fill="#E39910" d="M131,85.5C131.2,85.6,131.3,85.6,131,85.5l-1.3-1.3c-0.2-0.1-0.4-0.2-0.6,0l0,0
										c-0.1,0.1,0,0.4,0.2,0.5L131,85.5z"/>
								</g>
								<g>
									<path fill="#E39910" d="M125.3,85.7C125.1,85.6,125.2,85.5,125.3,85.7l1.7,0.8c0.2,0.1,0.4,0.4,0.2,0.5l0,0
										c-0.1,0.1-0.4,0.1-0.6,0L125.3,85.7z"/>
									<path fill="#E39910" d="M128.5,87.8C128.7,87.9,128.8,87.9,128.5,87.8l-1.3-1.3c-0.2-0.1-0.4-0.2-0.6,0l0,0
										c-0.1,0.1,0,0.4,0.2,0.5L128.5,87.8z"/>
								</g>
								<path fill="#FBAB18" d="M132.3,74.6l1.1,0.6l-0.2,0.4l-1-0.8C132,74.5,132,74.5,132.3,74.6z"/>
							</g>
						</g>
					</g>
				</g>
			</g>
		</g>
	</g>
	<g>
		<path fill="#2D4124" d="M90.3,77.9c-0.1,0.1-0.2,0.1-0.3,0l0,0c-0.1-0.1-0.1-0.2,0-0.3l4.7-4.7c0.1-0.1,0.2-0.1,0.3,0l0,0
			c0.1,0.1,0.1,0.2,0,0.3L90.3,77.9z"/>
		<path fill="#405933" d="M97.7,73.1c0.4-0.1,0.7-0.3,1-0.4c0.1-0.1,0.1-0.1,0.1-0.1c0.1-0.1,0.1-0.1,0.2-0.2
			c-0.1-0.1-0.3-0.1-0.4-0.2c-0.1,0-0.1-0.1-0.1-0.1c0.1,0,0.1,0,0.1,0c0.3-0.1,0.5-0.1,0.8-0.1l0,0c-0.6-0.1-1.1-0.4-1.7-0.5
			c-0.1,0-0.1-0.1-0.2-0.1c0.1,0,0.1,0,0.2,0c0.7,0.1,1.4,0.1,1.9,0.2c0.2-0.3,0.4-0.6,0.4-0.9c-0.1,0-0.2,0-0.3,0
			c-0.1,0-0.1,0-0.1,0c0.1,0,0.1-0.1,0.1-0.1c0.1-0.1,0.4-0.3,0.5-0.4c0.1-0.2,0.1-0.5,0.1-0.7c-0.1,0.1-0.3,0.1-0.4,0.2
			c-0.1,0-0.1,0.1-0.1,0.1c0-0.1,0.1-0.1,0.1-0.1c0.2-0.5,0.4-1.1,0.4-1.6c0-0.1-0.1-0.1-0.1-0.2c-0.1,0-0.2-0.1-0.3-0.1
			c-0.3,0.1-0.6,0.2-0.9,0.4c-0.1,0-0.1,0.1-0.1,0.1c0-0.1,0.1-0.1,0.1-0.1c0.1-0.1,0.1-0.3,0.1-0.4c-0.6,0-1.1,0.1-1.6,0.3
			c-0.4,0.4-0.6,0.8-0.9,1.2c0,0.1-0.1,0.1-0.1,0.1c0-0.1,0-0.1,0-0.1c-0.1-0.2-0.1-0.4-0.1-0.6c0,0,0,0-0.1,0
			c-0.2,0.2-0.4,0.5-0.6,0.8c0,0.1-0.1,0.1-0.1,0.1c0-0.1,0-0.1,0-0.1c0-0.1,0-0.1,0-0.2c-0.1,0.1-0.1,0.1-0.3,0.2
			c-0.2,0.2-0.4,0.5-0.6,0.8c0.3,1.2,0.1,2.4-0.4,3.5c0,0.1-0.1,0.1-0.1,0.1c0.1,0,0.1-0.1,0.1-0.1C95.6,73.1,96.8,72.9,97.7,73.1z"
			/>
		<path fill="#2D4124" d="M94.5,73.5c1.1-0.5,2.1-0.6,3.2-0.5c0.4-0.1,0.7-0.3,1-0.4c0.1-0.1,0.1-0.1,0.1-0.1
			c0.1-0.1,0.1-0.1,0.2-0.2c-0.1-0.1-0.3-0.1-0.4-0.2c-0.1,0-0.1-0.1-0.1-0.1c0.1,0,0.1,0,0.1,0c0.3-0.1,0.5-0.1,0.8-0.1l0,0
			c-0.6-0.1-1.1-0.4-1.7-0.5c-0.1,0-0.1-0.1-0.2-0.1c0.1,0,0.1,0,0.2,0c0.7,0.1,1.4,0.1,1.9,0.2c0.2-0.3,0.4-0.6,0.4-0.9
			c-0.1,0-0.2,0-0.3,0c-0.1,0-0.1,0-0.1,0c0.1,0,0.1-0.1,0.1-0.1c0.1-0.1,0.4-0.3,0.5-0.4c0.1-0.2,0.1-0.5,0.1-0.7
			c-0.1,0.1-0.3,0.1-0.4,0.2c-0.1,0-0.1,0.1-0.1,0.1c0-0.1,0.1-0.1,0.1-0.1c0.2-0.5,0.4-1.1,0.4-1.6c0-0.1-0.1-0.1-0.1-0.2l-5.8,5.7
			C94.5,73.6,94.5,73.6,94.5,73.5z"/>
		<g>
			<path fill="#2D4124" d="M94.8,75.8c0-0.1-0.1-0.1-0.2-0.1l-2.1-0.1l-0.4,0.2l2.5,0.1C94.7,75.8,94.8,75.8,94.8,75.8z"/>
			<path fill="#405933" d="M95.7,77.7c0.3,0.1,0.6,0.3,0.9,0.4c0.1,0,0.1,0,0.1,0s0.1,0,0.3,0c-0.1-0.1-0.1-0.3-0.1-0.4
				c0-0.1-0.1-0.1-0.1-0.1c0.1,0,0.1,0.1,0.1,0.1c0.2,0.1,0.4,0.3,0.6,0.4l0,0c-0.3-0.5-0.6-1-0.9-1.5c-0.1-0.1-0.1-0.1-0.1-0.2
				c0.1,0.1,0.1,0.1,0.1,0.1c0.4,0.6,0.8,1,1.3,1.4c0.3-0.1,0.5-0.2,0.7-0.3c-0.1-0.1-0.1-0.1-0.2-0.2s-0.1-0.1-0.1-0.1
				c0.1,0,0.1,0,0.1,0c0.1,0,0.4,0.1,0.5,0.1c0.1-0.1,0.3-0.3,0.4-0.4c-0.1-0.1-0.3-0.1-0.4-0.1c-0.1,0-0.1,0-0.1-0.1
				c0.1,0,0.1,0,0.1-0.1c0.4-0.2,0.8-0.4,1.1-0.8c0-0.1,0.1-0.1,0.1-0.2c-0.1-0.1-0.1-0.1-0.1-0.2c-0.3-0.1-0.5-0.3-0.8-0.4
				c-0.1,0-0.1,0-0.1-0.1c0.1,0,0.1,0,0.1-0.1s0.2-0.1,0.3-0.2c-0.4-0.4-0.8-0.6-1.2-0.9c-0.4,0-0.8,0.1-1.2,0.2
				c-0.1,0-0.1,0.1-0.1,0.1c0-0.1,0.1-0.1,0.1-0.1c0.1-0.1,0.1-0.4,0.2-0.6c0,0,0,0-0.1,0c-0.3,0-0.5,0.1-0.8,0.1
				c-0.1,0-0.1,0-0.1,0.1c0-0.1,0.1-0.1,0.1-0.1c0-0.1,0.1-0.1,0.1-0.1c-0.1,0-0.2,0-0.3,0c-0.3,0-0.6,0.1-0.8,0.1
				c-0.4,0.9-1.1,1.7-1.9,2.1c-0.1,0-0.1,0-0.1,0.1c0.1,0,0.1,0,0.1,0.1C94.2,76.2,95,76.9,95.7,77.7z"/>
			<path fill="#2D4124" d="M93.4,75.8c0.9,0.4,1.7,1.1,2.3,1.8c0.3,0.1,0.6,0.3,0.9,0.4c0.1,0,0.1,0,0.1,0c0.1,0,0.1,0,0.3,0
				c-0.1-0.1-0.1-0.3-0.1-0.4c0-0.1-0.1-0.1-0.1-0.1c0.1,0,0.1,0.1,0.1,0.1c0.2,0.1,0.4,0.3,0.6,0.4l0,0c-0.3-0.5-0.6-1-0.9-1.5
				c-0.1-0.1-0.1-0.1-0.1-0.2c0.1,0.1,0.1,0.1,0.1,0.1c0.4,0.6,0.8,1,1.3,1.4c0.3-0.1,0.5-0.2,0.7-0.3c-0.1-0.1-0.1-0.1-0.2-0.2
				s-0.1-0.1-0.1-0.1c0.1,0,0.1,0,0.1,0c0.1,0,0.4,0.1,0.5,0.1c0.1-0.1,0.3-0.3,0.4-0.4c-0.1-0.1-0.3-0.1-0.4-0.1
				c-0.1,0-0.1,0-0.1-0.1c0.1,0,0.1,0,0.1-0.1c0.4-0.2,0.8-0.4,1.1-0.8c0-0.1,0.1-0.1,0.1-0.2L93.4,75.8
				C93.2,75.8,93.3,75.8,93.4,75.8z"/>
		</g>
		<g>
			<path fill="#2D4124" d="M93,75.2l-0.4-1.8c0-0.1-0.1-0.2-0.2-0.2s-0.1,0.1-0.1,0.2l0.4,2.1L93,75.2z"/>
			<path fill="#405933" d="M90.5,72.4c-0.2-0.3-0.4-0.6-0.5-0.8c0-0.1,0-0.1,0-0.1s0-0.1,0-0.3c0.1,0,0.3,0.1,0.4,0.1
				c0.1,0,0.1,0.1,0.1,0.1c-0.1-0.1-0.1-0.1-0.1-0.1c-0.1-0.1-0.3-0.4-0.4-0.6l0,0c0.5,0.2,1.1,0.5,1.5,0.8c0.1,0,0.1,0.1,0.2,0.1
				c-0.1-0.1-0.1-0.1-0.2-0.1c-0.6-0.4-1.1-0.7-1.5-1.1c0.1-0.3,0.1-0.6,0.2-0.8c0.1,0.1,0.1,0.1,0.2,0.1s0.1,0.1,0.1,0.1
				c0-0.1-0.1-0.1-0.1-0.1c-0.1-0.1-0.1-0.4-0.1-0.5c0.1-0.1,0.2-0.4,0.4-0.5c0.1,0.1,0.1,0.2,0.2,0.4c0,0.1,0.1,0.1,0.1,0.1
				c0-0.1,0-0.1,0-0.1c0.1-0.4,0.4-0.8,0.6-1.2c0.1-0.1,0.1-0.1,0.2-0.1C91.8,68,91.8,68,92,68c0.1,0.2,0.4,0.5,0.5,0.8
				c0,0.1,0,0.1,0.1,0.1c0-0.1,0-0.1,0-0.1c0.1-0.1,0.1-0.2,0.1-0.4c0.4,0.3,0.8,0.7,1.1,1.1c0.1,0.4,0,0.8-0.1,1.2
				c0,0.1,0,0.1-0.1,0.1c0.1,0,0.1-0.1,0.1-0.1c0.1-0.1,0.4-0.2,0.5-0.3c0,0,0,0,0,0.1c0,0.3,0,0.5,0,0.8c0,0.1,0,0.1,0,0.1
				c0.1,0,0.1-0.1,0.1-0.1c0.1-0.1,0.1-0.1,0.1-0.1c0,0.1,0.1,0.2,0.1,0.3c0.1,0.3,0.1,0.6,0,0.8c-0.8,0.5-1.5,1.3-1.7,2.2
				c0,0.1,0,0.1,0,0.1c0-0.1-0.1-0.1-0.1-0.1C92,73.6,91.2,72.9,90.5,72.4z"/>
			<path fill="#2D4124" d="M92.5,74.5c-0.5-0.9-1.3-1.6-2-2.1c-0.2-0.3-0.4-0.6-0.5-0.8c0-0.1,0-0.1,0-0.1s0-0.1,0-0.3
				c0.1,0,0.3,0.1,0.4,0.1c0.1,0,0.1,0.1,0.1,0.1c-0.1-0.1-0.1-0.1-0.1-0.1c-0.1-0.1-0.3-0.4-0.4-0.6l0,0c0.5,0.2,1.1,0.5,1.5,0.8
				c0.1,0,0.1,0.1,0.2,0.1c-0.1-0.1-0.1-0.1-0.2-0.1c-0.6-0.4-1.1-0.7-1.5-1.1c0.1-0.3,0.1-0.6,0.2-0.8c0.1,0.1,0.1,0.1,0.2,0.1
				s0.1,0.1,0.1,0.1c0-0.1-0.1-0.1-0.1-0.1c-0.1-0.1-0.1-0.4-0.1-0.5c0.1-0.1,0.2-0.4,0.4-0.5c0.1,0.1,0.1,0.2,0.2,0.4
				c0,0.1,0.1,0.1,0.1,0.1c0-0.1,0-0.1,0-0.1c0.1-0.4,0.4-0.8,0.6-1.2c0.1-0.1,0.1-0.1,0.2-0.1L92.5,74.5
				C92.5,74.6,92.5,74.6,92.5,74.5z"/>
		</g>
	</g>
	<g>
		
			<ellipse transform="matrix(-0.8852 -0.4652 0.4652 -0.8852 99.8673 194.9513)" fill="#DCDAC8" cx="74" cy="85.2" rx="1.6" ry="3.5"/>
		<path fill="#F2EFDC" d="M76.1,87.6c0.7-0.5,1.1-1.3,1.1-2.1c0-0.9-0.5-1.4-0.6-1.2c-0.3,0.2-0.6,0.3-1,0.2
			c-1.1-0.6-2.1-1.4-3.1-2.1c-0.5-0.5-1.5-0.6-1.9-0.1c-0.5,0.5-0.8,1.1-0.9,1.7c-0.1,0.7,0.6,1.5,1.2,1.5c1.3,0.4,2.4,0.8,3.6,1.4
			c0.2,0.3,0.4,0.6,0.4,1C74.6,88,75.3,88.1,76.1,87.6z"/>
		<path fill="#F2EFDC" d="M77.3,88.1c0.1-0.1,0.8-1.7,0.9-1.7c1.2-2.1,0.6-4.7-1.2-5.5c-1.3-0.7-3.1-0.3-4,1.1
			c-0.3,0.5,0.1,1.1,0.7,1.1c0.2,0,0.5-0.5,0.8-0.6c0.3-0.1,0.6-0.1,0.8,0.1c0.6,0.7,0.2,1.5-0.1,2.2l-1.1,1.8
			c-0.4,0.7-0.9,1.5-1.7,1.4c-0.3-0.1-0.5-0.3-0.6-0.6c-0.1-0.2,0.2-0.8,0.1-1c-0.3-0.5-1-0.5-1.3,0c-0.6,1.5,0.1,3.2,1.4,3.9
			C73.9,91.2,76.3,90.2,77.3,88.1z"/>
	</g>
	<g>
		
			<ellipse transform="matrix(-0.693 0.7209 -0.7209 -0.693 292.4805 56.1326)" fill="#DCDAC8" cx="134.3" cy="90.3" rx="1.1" ry="2.1"/>
		<path fill="#F2EFDC" d="M136.1,89.5c-0.2-0.5-0.6-0.9-1.1-1.1c-0.6-0.1-1,0.1-0.8,0.2c0.1,0.2,0.1,0.4-0.1,0.6
			c-0.6,0.6-1.3,1.1-1.9,1.6c-0.4,0.2-0.6,0.8-0.4,1.2c0.2,0.4,0.5,0.7,0.9,0.8c0.4,0.2,1-0.1,1.2-0.4c0.4-0.8,0.9-1.4,1.5-1.9
			c0.2-0.1,0.4-0.1,0.6-0.1C136.1,90.5,136.2,90.1,136.1,89.5z"/>
		<path fill="#F2EFDC" d="M136.7,88.8c-0.1-0.1-0.8-0.8-0.9-0.8c-1.1-1.1-2.7-1.3-3.6-0.3c-0.6,0.6-0.8,1.9-0.1,2.6
			c0.2,0.3,0.7,0.1,0.8-0.3c0-0.1-0.2-0.4-0.3-0.6c0-0.2,0.1-0.4,0.2-0.5c0.6-0.3,1,0.1,1.4,0.5l1.1,1c0.4,0.4,0.8,0.8,0.6,1.3
			c-0.1,0.1-0.3,0.3-0.5,0.2c-0.1,0-0.4-0.3-0.6-0.2c-0.4,0.1-0.5,0.6-0.2,0.8c0.8,0.6,1.9,0.5,2.6-0.1
			C137.9,91.5,137.7,89.9,136.7,88.8z"/>
	</g>
	<g>
		<polygon fill="#DCDAC8" points="83.9,72.9 83,73.7 84.1,74 83,74.2 83.9,75.1 82.7,74.8 83.2,75.8 82.2,75.2 82.2,76.3 81.7,75.3 
			81.1,76.3 81.1,75.2 80.2,75.8 80.6,74.8 79.5,75.1 80.5,74.2 79.2,74 80.5,73.7 79.5,72.9 80.6,73.1 80.2,72.1 81.1,72.8 
			81.1,71.6 81.6,72.6 82.2,71.6 82.2,72.8 83.2,72.1 82.7,73.1 		"/>
		
			<ellipse transform="matrix(0.4354 0.9002 -0.9002 0.4354 93.3772 -33.8823)" fill="#71841F" cx="73.7" cy="57.5" rx="12.7" ry="0.6"/>
		<path fill="#405933" d="M74,58.6c3.1,5.8,5.4,10.7,5.1,10.8c-0.2,0.1-2.9-4.5-6-10.4C70.1,53,67.7,48.3,68,48.2
			C68.2,48.1,70.9,52.6,74,58.6z"/>
		<path fill="#405933" d="M74.7,57.8c2.6,6,4.7,11.1,4.4,11.1c-0.3,0-2.5-4.8-5.2-10.8c-2.6-6-4.7-11.1-4.4-11.1
			C69.8,46.9,72.1,51.8,74.7,57.8z"/>
		<path fill="#F2EFDC" d="M80.1,62.6c-1.8-0.4-3.5-1.6-4.5-3.4c-0.1,0.6-0.1,1.2,0,1.7c-0.8-0.8-1.7-1.4-2.5-1.8
			c0.2,0.3,0.4,0.6,0.6,1c0.9,1.8,0.8,4-0.1,5.6c-1.1,1.7-1.2,4-0.2,5.9c1.5,3.1,5.3,4.5,8.5,3c3.1-1.5,4.5-5.3,2.9-8.5
			C83.9,64.2,82,62.9,80.1,62.6z"/>
		<g>
			<path fill="#E2D7AB" d="M80.1,62.6c-1.8-0.4-3.5-1.6-4.5-3.4c-0.1,0.6-0.1,1.2,0,1.7c-0.1-0.1-0.2-0.2-0.4-0.3
				c1,1.3,2.3,2.1,3.8,2.4c1.9,0.4,3.8,1.6,4.8,3.5c1.5,3,0.4,6.6-2.5,8.3c0.1-0.1,0.4-0.1,0.5-0.2c3.1-1.6,4.5-5.3,3-8.5
				C83.9,64.2,82,62.9,80.1,62.6z"/>
		</g>
	</g>
	<g>
		<circle fill="#FBAB18" cx="105" cy="86" r="4.8"/>
		<circle fill="#E39910" cx="105" cy="86" r="2.8"/>
	</g>
	<g>
		<g>
			<path fill="#F2EFDC" d="M92.3,59.8c-2.4-3.7-1.2-8.9,2.9-11.8l1.1-0.7c4.1-2.7,9.4-1.9,11.9,1.7c2.4,3.7,1.2,8.9-2.9,11.8
				l-1.1,0.7C100.2,64.3,94.8,63.5,92.3,59.8L92.3,59.8z M106.6,49.3c-1.8-2.8-6-3.2-9.4-1L96,49.1c-3.3,2.2-4.6,6.3-2.7,9.1
				c1.8,2.8,6,3.2,9.4,1l1.2-0.8C107.2,56.2,108.4,52.2,106.6,49.3L106.6,49.3z"/>
		</g>
		<g>
			<path fill="#DCDAC8" d="M108.2,49.1c-0.3-0.4-0.6-0.8-1-1.1c2.1,3.7,0.8,8.5-3.2,11.3L103,60c-3.7,2.4-8.4,2.1-11-0.6
				c0.1,0.1,0.1,0.3,0.3,0.4c2.4,3.7,7.9,4.5,11.9,1.7l1.1-0.7C109.3,58.1,110.8,52.8,108.2,49.1z"/>
		</g>
	</g>
	<g>
		<path fill="#6B3A55" d="M62.2,103.8c-5.1,3.6-6.8,9.2-3.9,12.3c2.4,2.5,6.9,3.7,10.7,2.6c0.3,0,0.6,0,1.1,0.2
			c1,0.6,1.9,1.5,2.7,2.9l0,0c-0.4-1-1-1.7-1.6-2.3c0.7,0.4,1.4,1,2.1,1.7c0,0.7,0.1,1.7,0.9,2.4l0,0c-0.6-0.8-0.6-1.5-0.6-2.1
			c0.3,0.3,0.6,0.6,0.9,0.9c0.3,0.7,0.7,1.4,1.2,2l0,0c-0.4-0.6-0.7-1.2-0.9-1.7c0.7,0.7,1.3,1.5,1.9,2.1l0,0l0,0
			c-0.9-1.5-1.6-2.8-2.1-4.2c0.8,0.7,1.6,1.7,2,2.8l0,0c-0.5-1.7-1.5-2.7-2.2-3.5c-0.1-0.1-0.1-0.3-0.1-0.5l0,0
			c0.4,0.1,0.9,0.4,1.3,0.8c-0.4-0.5-0.8-0.8-1.2-0.9c0.2-0.4,0.6-0.9,1.5-0.4l0,0c-1.2-0.9-1.5-0.1-1.7,0.1
			c-0.6-1.7-0.8-3.1-0.4-3.8c2.4-3.3,2.8-7.9,1.3-11C73.2,100.6,67.3,100.3,62.2,103.8z"/>
		<path fill="#48172D" d="M62.2,103.8L62.2,103.8l14.4,20.7c0.1,0.1,0.2,0.2,0.3,0.4l0,0l0,0c-0.9-1.5-1.6-2.8-2.1-4.2
			c0.8,0.7,1.6,1.7,2,2.8l0,0c-0.5-1.7-1.5-2.7-2.2-3.5c-0.1-0.1-0.1-0.3-0.1-0.5l0,0c0.4,0.1,0.9,0.4,1.3,0.8
			c-0.4-0.5-0.8-0.8-1.2-0.9c0.2-0.4,0.6-0.9,1.5-0.4l0,0c-1.2-0.9-1.5-0.1-1.7,0.1c-0.6-1.7-0.8-3.1-0.4-3.8
			c2.4-3.3,2.8-7.9,1.3-11C73.2,100.6,67.3,100.3,62.2,103.8z"/>
		<g>
			<g>
				<path fill="#2D4124" d="M45.4,101.3c7.1-8.2,16.1,2.7,16.3,3.1c-0.1,0.1-0.1,0.1-0.2,0.1c-0.9,0.5-4.7,2.6-5.7,2.3
					c-1.4-0.4-1.1-2.9-1.1-3c-1.3-0.6-2.8,1.7-4,1.4c-1.4-0.4-0.8-3.6-0.8-3.7c-1.3-0.6-3.1,2.4-4.4,2
					C44.8,103.6,45.2,102.5,45.4,101.3z"/>
				<path fill="#405933" d="M45.4,101.3c5.8-4.6,16.1,2.7,16.3,3.1c-0.1,0.1-0.1,0.1-0.2,0.1c-0.9,0.5-4.7,2.6-5.7,2.3
					c-1.4-0.4-1.1-2.9-1.1-3c-1.3-0.6-2.8,1.7-4,1.4c-1.4-0.4-0.8-3.6-0.8-3.7c-1.3-0.6-3.1,2.4-4.4,2
					C44.8,103.6,45.2,102.5,45.4,101.3z"/>
			</g>
			<g>
				<path fill="#2D4124" d="M54.7,88c-1.1,3.3-1.3-1.5-2.8-1.5c-0.4,0-1,0.1-1.6,0.4l12.3,17.7c0.1,0,0.1,0.1,0.1,0.1
					c0-0.1,0.1-0.1,0.1-0.2c0.4-1,1.7-5,1.2-5.8c-0.6-1.3-3-0.5-3-0.5c-0.8-1.1,1.1-2.9,0.6-4.1C61,92.8,58,94,58,94.1
					c-0.8-1.1,1.1-3.3,1.2-4.6C59.2,88.5,55.8,84.7,54.7,88z"/>
				<path fill="#405933" d="M50,91.3c3.4,0.1-0.9-1.7-0.4-3.1c0.1-0.4,0.4-0.9,0.9-1.4l12.3,17.7c0,0.1,0,0.1,0,0.1
					c-0.1,0-0.1,0-0.2,0c-1,0-5.2-0.2-5.9-1c-1-1,0.6-3,0.6-3c-0.7-1.1-3.1,0.1-4-0.9c-1-1,1.2-3.4,1.3-3.4
					c-0.7-1.1-3.4-0.2-4.7-0.5C48.8,95.7,46.6,91.2,50,91.3z"/>
			</g>
			<g>
				<path fill="#405933" d="M65,87.6c-10.1,3.9-2.9,16-2.6,16.5c0.1-0.1,0.1-0.1,0.1-0.1c0.8-0.7,4.1-3.5,4.2-4.7
					c0.1-1.4-2.4-2-2.4-2c-0.1-1.4,2.6-2,2.7-3.3c0.1-1.4-3.1-1.9-3.2-1.9c-0.1-1.4,3.3-2.1,3.5-3.4C67.2,87.9,66.1,87.7,65,87.6z"
					/>
				<path fill="#2D4124" d="M65,87.6c-6.3,3.9-2.9,16-2.6,16.5c0.1-0.1,0.1-0.1,0.1-0.1c0.8-0.7,4.1-3.5,4.2-4.7
					c0.1-1.4-2.4-2-2.4-2c-0.1-1.4,2.6-2,2.7-3.3c0.1-1.4-3.1-1.9-3.2-1.9c-0.1-1.4,3.3-2.1,3.5-3.4C67.2,87.9,66.1,87.7,65,87.6z"
					/>
			</g>
		</g>
	</g>
	<g>
		<path fill="#DCDAC8" d="M56.1,112l0.1,14.7c0,8.9,7.1,16.1,16,16.1h57.2c8.9,0,16.1-7.2,16.1-16.1V112H56.1z"/>
		<path fill="#F2EFDC" d="M56.1,112v13.1c0,8,7.2,14.5,16.1,14.5h57.2c8.9,0,16.1-6.5,16.1-14.5V112C145.5,112,56.1,112,56.1,112z"
			/>
		<path fill="#BF3664" d="M55.7,117.9l0.1,8.7c0,1.5,0.2,3.1,0.6,4.5l88.4-0.1c0.4-1.2,0.5-2.7,0.6-4.3l0.1-8.7L55.7,117.9
			L55.7,117.9z"/>
		<path fill="#AD234B" d="M101.2,117.9v8.7c0,1.5,0.1,2.9,0.3,4.3h44c0.3-1.2,0.6-2.3,0.6-4.3l0.1-8.7H101.2z"/>
	</g>
</g>
</svg>
