<?xml version="1.0" encoding="utf-8"?>
<!-- Generator: Adobe Illustrator 18.0.0, SVG Export Plug-In . SVG Version: 6.00 Build 0)  -->
<!DOCTYPE svg PUBLIC "-//W3C//DTD SVG 1.1//EN" "http://www.w3.org/Graphics/SVG/1.1/DTD/svg11.dtd">
<svg version="1.1" id="Lag_1" xmlns="http://www.w3.org/2000/svg" xmlns:xlink="http://www.w3.org/1999/xlink" x="0px" y="0px"
	 viewBox="0 0 200 200" enable-background="new 0 0 200 200" xml:space="preserve">
<g>
	<g>
		<path fill="#DCDAC8" d="M25.4,111.9l-0.5,0.2c-0.4-1.1-0.7-2.4-0.8-3.7l-7.7-21.1c-0.2,0.1-0.4,0.1-0.6,0.2
			c-0.5,0.2,4,15.1,6.9,25.4c0,0,0,0,0,0c0,0,0,0.1,0,0.1c0,0,0,0,0,0c0.1,0.3,0.2,0.6,0.4,0.9l3.4-1.2l-0.1-0.4l-0.8,0.3
			L25.4,111.9z"/>
		<path fill="#DCDAC8" d="M29.3,110.5l-0.4,0.1c-0.4-1.1-0.8-2.4-1-3.7l-8-20.9c-0.2,0.1-0.3,0.1-0.5,0.2
			c-0.4,0.1,4.6,14.9,7.8,25.1c0,0,0,0,0,0c0,0,0,0.1,0,0.1c0,0,0,0,0,0c0.1,0.3,0.2,0.6,0.4,0.9l2.6-1l-0.2-0.4l-0.6,0.2
			L29.3,110.5z"/>
		<path fill="#DCDAC8" d="M33.4,108.9l-0.3,0.1c-0.5-1.1-0.8-2.3-1.1-3.6l-8.6-20.7c-0.1,0.1-0.3,0.1-0.4,0.2
			c-0.3,0.1,5,14.7,8.5,24.8c0,0,0,0,0,0c0,0,0,0.1,0,0.1c0,0,0,0,0,0c0.1,0.3,0.3,0.6,0.4,0.9l2.5-1l-0.2-0.4l-0.6,0.2L33.4,108.9z
			"/>
		<path fill="#DCDAC8" d="M34.3,108.7C34.3,108.7,34.3,108.7,34.3,108.7L34.3,108.7c-3-6.3-6.8-14.6-9.2-19.5l7.6,20.8L22,113.9
			l-0.2-0.7l-0.6,0.2c-0.4-1.1-0.6-2.4-0.7-3.8l-7.7-21.1c-0.2,0.1-0.5,0.2-0.7,0.2c-0.6,0.2,3.7,15.2,6.4,25.6c0,0,0,0,0,0
			c0,0,0,0.1,0,0.1c0,0,0,0,0,0c1.9,5.2,5.9,8.9,10.4,8.5c6.4,19.7,10.2,32.5,16.6,52.2c0.5,1.6,2.8,3.2,5,2.4
			c2.1-0.8,2.9-3.5,2.3-5c-7.8-19.2-13-31.5-20.8-50.7C35.6,119.4,36.3,114,34.3,108.7C34.4,108.8,34.4,108.8,34.3,108.7
			C34.4,108.8,34.4,108.7,34.3,108.7z"/>
		<g>
			<g>
				<path fill="#F2EFDC" d="M35.1,108.5C35.1,108.5,35.1,108.5,35.1,108.5C35.1,108.5,35.1,108.5,35.1,108.5c0-0.1,0-0.1,0-0.1l0,0
					c-4.6-9.7-10.9-23.9-11.5-23.7c-0.6,0.2,5.2,14.6,8.8,24.7l-1.7,0.6c-4.3-9.8-10.2-24.2-10.7-24c-0.6,0.2,4.7,14.8,8,25
					l-1.7,0.6c-4-9.9-9.4-24.5-9.9-24.3c-0.6,0.2,4.2,15,7.2,25.3l-1.7,0.6c-3.7-10-8.6-24.8-9.1-24.6c-0.6,0.2,3.7,15.2,6.4,25.6
					l0,0c0,0,0,0,0,0c0,0,0,0.1,0,0.1c0,0,0,0,0,0c1.9,5.2,5.9,8.9,10.4,8.5c6.4,19.7,10.2,32.5,16.6,52.2c0.5,1.6,2.8,3.2,5,2.4
					c2.1-0.8,2.9-3.5,2.3-5c-7.8-19.2-13-31.5-20.8-50.7C36.3,119.2,36.9,113.8,35.1,108.5z"/>
			</g>
		</g>
	</g>
	<g>
		<path fill="#F16A54" d="M165,48.6l0.5-0.5c1.9-1.9,1.9-4.9,0-6.8l-0.1-0.1c-1.9-1.9-4.9-1.9-6.8,0l-0.5,0.5l-0.5-0.5
			c-1.9-1.9-4.9-1.9-6.8,0l-0.1,0.1c-1.9,1.9-1.9,4.9,0,6.8l0.5,0.5l6.9,6.9L165,48.6z"/>
		<path fill="#D95B46" d="M158.1,55.5l6.9-6.9l0.5-0.5c1.9-1.9,1.9-4.9,0-6.8l-0.1-0.1c-1.9-1.9-4.9-1.9-6.8,0l-0.5,0.5"/>
	</g>
	<g>
		<path fill="#F16A54" d="M56.6,63.7l0.4-0.4c1.5-1.5,1.5-3.8,0-5.3L57,57.9c-1.5-1.5-3.8-1.5-5.3,0l-0.4,0.4l-0.4-0.4
			c-1.5-1.5-3.8-1.5-5.3,0L45.6,58c-1.5,1.5-1.5,3.8,0,5.3l0.4,0.4l5.3,5.3L56.6,63.7z"/>
		<path fill="#D95B46" d="M51.3,69l5.3-5.3l0.4-0.4c1.5-1.5,1.5-3.8,0-5.3L57,57.9c-1.5-1.5-3.8-1.5-5.3,0l-0.4,0.4"/>
	</g>
	<g>
		<path fill="#00A0AE" d="M99.2,173.5c29.5,0,53.4-24,53.4-53.4c0-29.5-24-53.5-53.4-53.5"/>
		<path fill="#00B8C8" d="M99.2,66.6c-29.5,0-53.5,24-53.5,53.5c0,29.5,24,53.4,53.5,53.4"/>
		<g>
			<path fill="#DCDAC8" d="M150.4,134.6c-0.7,0-1.6,0.3-1.6,0.6c0,0.2-1,0.7-1.3,0.8c-0.3,0.1-0.9,1.1-1.1,1.4
				c-0.1,0.3-0.9,0.2-1.2,0.4c-0.3,0.1-0.9,0.6-0.9,0.9c0,0.3-0.2,0.3-0.4-0.1c0,0,0,0-0.4,0.4c-0.5,0.5-0.5,0.5-0.5,0.5
				c-0.3,0.8-1.1,1.9-1.4,1.9c-0.3,0.1-0.4,1.5-0.4,2.1c0,0.6,0.2,1.3,0.5,1.6c0,0,0,0,0.1,0.5c0.1,0.9,0.1,0.9,0.1,0.9
				c-0.2,0.7,0.4,1.3,0.5,1.5c0.2,0.1,1.5-0.2,2-0.4c0.2,0,0.5-0.2,0.7-0.3c2.4-4,4.2-8.2,5.5-12.8
				C150.6,134.6,150.5,134.6,150.4,134.6z"/>
			<path fill="#DCDAC8" d="M62.1,136c-0.1,0.1,0.9,1.1,1.3,1.5c0.4,0.3,1.2,1.9,1.3,2.5c0.2,0.5,0.1,1.4,0,1.6
				c0,0.2,0.2,0.6,0.2,0.8c0,0.2-0.3,1.8-0.2,2.4c0.1,0.6-0.7,2.6-0.7,3.6c0,1,0.5,2.3,0.6,2.2c0.2-0.1,0.2,0.9-0.1,1
				c-0.3,0.1-0.6,0.9-0.5,0.9c0.2,0,0,0.8,0,1.1c0,0.3,0.3,2.3,0.4,2.8c0.1,0.5,0.8,1.7,0.9,2.2c0.2,0.4,0.3,1.2,0.4,1.3
				c0.1,0.1,0.1,0.2,0.1,0.3c0,0,0.6,0.2,0.8,0.3c0.2,0.1,1.3,0,1.7,0c0.4-0.1,0-0.4-0.1-0.6c-0.2-0.2-0.3-1.1-0.5-1.2
				c-0.2-0.1-0.3-1.2-0.1-1.5c0.2-0.3,0.9-0.7,0.9-0.9c0.1-0.2,0.1-1.2-0.1-1.4c-0.2-0.1,0.1-1.4-0.1-2c-0.1-0.6,1-1.2,1.1-1.6
				c0.1-0.5,1.4-1,1.6-1.2c0.3-0.2,0.5-1.6,0.4-1.9c-0.1-0.3,0.5-0.5,0.7-0.5s0.6-0.2,0.7-0.2c0.1,0,0.4-0.6,0.6-0.7
				c0.2-0.1,0.5-1.6,0.9-1.8c0.3-0.2,0.6-1.1,0.6-1.4c0-0.3,0.5-1,0.6-1.2c0.2-0.2,1.4-0.8,1.6-0.9c0.2-0.1,0.5-2,0.6-2.7
				c0.1-0.7,0.4-1.6,0.5-1.8c0-0.2,0.4-0.4,0.5-0.5c0.1-0.1,0.4-1,0.5-1.2c0.2-0.2,0.8-1,0.9-1.2c0-0.2,0.1-0.7,0.2-1.1
				c0,0,0,0,0-0.5c0-0.8,0-0.8,0-0.8c-0.2-0.6-0.9-1.3-1-1.1c-0.2,0.2-0.9-0.5-1.3-0.7c-0.4-0.1-1.3-0.3-1.6-0.3
				c-0.2,0-1.1-0.7-1.4-0.8c-0.4-0.1-1.3-0.3-1.5-0.4c-0.2-0.1-0.4-1.5-1.2-2c-0.8-0.5-2.1-1.5-2.2-1.9c-0.1-0.4-1.6-1.2-2.1-1.5
				c-0.4-0.2-1.1-0.3-1.2-0.2c-0.1,0.1-0.7-0.8-0.9-1c-0.3-0.2-1.2-0.4-1.2-0.2c0,0.2-0.6,0.1-0.8-0.1c-0.1-0.2-0.6,0.1-0.8,0.1
				c-0.2,0.1-0.9,1.2-1.3,1.4c-0.3,0.3-0.7-0.2-1-0.3c-0.2-0.1-1.1,0.2-1.3,0.3c-0.2,0.2-0.8-1.2-0.6-1.8c0.1-0.6-0.6-1.8-1.1-1.9
				c-0.5,0-0.7-1.3-0.6-1.8c0.1-0.5-0.9-0.8-1.2-0.8c-0.3,0-0.9,0.6-1,1c-0.1,0.3-2.5-0.4-2.2-1.9c0.3-1.4,1.4-2.9,1.7-3.1
				c0.3-0.2,1.8-0.3,2.1-0.1c0.3,0.2,0.6,0,0.7-0.1c0.1-0.1,1.3,0,1.7,0.2c0.4,0.2,0.9,1.6,1.3,1.8c0.4,0.2,0.5-0.9,0.6-1.2
				c0.1-0.3-0.2-1-0.3-1.1c-0.1-0.2,0.6-1.9,1.2-2.2c0.6-0.3,1.2-1.3,1.1-1.4c-0.1-0.2,0.5-0.3,0.6-0.4c0.1-0.1,0-1.5,0.2-1.8
				c0.2-0.3,1.3-0.9,1.7-1.1c0.3-0.1,0.6-1,0.5-1.2c-0.1-0.2,0.9-1,1.4-1.2c0.5-0.2,1,0.3,0.9,0.4c0.1-0.1,0.8-0.4,1.1-0.6
				c0.4-0.2,0-0.9-0.2-1.1c-0.2-0.2-0.1-1,0.2-1c0.3-0.1,0.5-0.7,0.5-0.9c-0.1-0.1,1.2,0.1,1.6-0.2c0.5-0.3,0.1,0.8-0.2,1.3
				c-0.3,0.5,0.3,0.9,0.5,0.8c0.2-0.1,0.5,0.3,0.5,0.4c0,0.1,0.5-0.1,0.8,0c0.3,0.1,0.5-0.4,0.5-0.7c0-0.3-0.7-0.8-0.9-1.1
				c-0.1-0.3-0.2-2.1-0.2-2.5c0-0.4-0.5-1-0.7-0.9c-0.2,0.1-0.5-1-0.7-1.2c-0.3-0.2-0.3-0.7-0.3-0.9c0-0.2-0.9-1.1-1.1-1.5
				c-0.2-0.4-0.5-0.3-0.5-0.1c0,0.2-0.6,0.2-0.9,0.2c-0.3,0-0.5-1-0.5-1.4c0-0.4-1.1-0.4-1.3-0.7c-0.2-0.3-0.9-0.2-1.1-0.4
				c-0.1-0.2-0.8-0.4-0.9-0.3c-0.1,0.1-0.1,2.7-0.2,3.5c-0.1,0.7-0.7,1.3-1,1.3c-0.2,0-0.1,0.5,0.1,0.5c0.2,0-0.4,0.8-0.5,1.3
				c-0.1,0.5-0.6,0-0.7-0.5c-0.1-0.5-0.6-1.2-0.7-1c-0.1,0.2-0.5-0.2-0.6-0.1c-0.2,0.1-1.2-0.6-1.6-0.8c-0.4-0.2-0.6-1.5-0.9-1.6
				c-0.2-0.1,0-0.3,0-0.5c0-0.2,0.8-0.9,1-1.2c0.2-0.3,1.1-1.4,1.5-1.7c0.4-0.3,0.6-0.9,0.6-1c-0.1-0.1,1.5-0.6,1.9-0.8
				c0.4-0.1,0.8-1.3,0.8-1.7c0.1-0.3-0.3-1-0.5-1.1c-0.2-0.1,0.6-0.1,0.8,0c0.3,0.1,1.1-0.2,1.4-0.1c0.3,0.2,1,0.5,1.4,0.8
				c0,0,0,0-0.1,0.9c-0.2,1.5-0.2,1.5-0.2,1.5c-1.2,0.5-1.6,1.4-1.2,1.4c0.4,0,2.4,0.9,3,1.2c0.6,0.4,0.7-0.6,0.9-0.9
				c0.2-0.3,0.1-1.3,0-1.4c-0.1-0.2,0.6-0.1,0.9,0.1c0.2,0.2,0.5-0.2,0.6-0.3c0.2-0.1,0.2-0.9,0.3-1c0.1-0.2-0.4-0.3-0.4-0.5
				c0-0.2-0.9-0.6-1.2-0.7c-0.3-0.1-0.4-0.7-0.2-0.9c0.1-0.1-0.1-0.9-0.2-1.1c-0.1-0.3-1.1-0.5-1.4-0.5c-0.3,0-0.6-0.7-0.8-0.8
				c-0.2-0.1-1.4-0.2-1.7-0.1c-0.3,0.1-0.8-0.8-1.3-0.6c-0.5,0.3-1-0.3-1.2-0.5c-0.2-0.1-1.4,1.1-1.4,2c0,0.9,0.5,1.7,0.6,1.7
				c0.2,0,0,0.8-0.2,1c-0.2,0.2-0.7-0.2-0.5-0.4c0.2-0.2-0.5-1.1-0.7-1.5c-0.2-0.3-0.8-0.5-1.2-0.7c-0.2,0.3-0.5,0.5-0.7,0.8
				c0.1,0.3,0.2,0.7,0.1,1c-0.2,0.5-0.6,0.6-0.6,0.4c0-0.1-0.2-0.2-0.5-0.2c-6.5,7.8-10.8,17.4-12,27.9c0.3,0.3,0.6,0.6,0.6,0.9
				c0.1,0.5,1,0.8,1.1,0.9c0.2,0.1,0.2-0.9,0.1-1.2c-0.1-0.3,0.2-0.4,0.2-0.2c0,0.2,0.8,1.1,1,1.4c0.3,0.3,0.5,2.4,0.8,2.8
				c0.2,0.4,2.6,1.3,3.4,1.5c0.8,0.2,1.7,1,1.9,1.3c0.1,0.2,1.2,0.4,1.4,0.5c0.2,0.1,0.7,0.8,0.9,0.9c0.2,0.1,0.4,0.5,0.4,0.7
				c0,0.1,1.3,0.6,1.7,1c0.3,0.4,0.9,0.3,1,0.1c0.1-0.1,0.4,0.7,0.5,1c0.1,0.3,0.2,1,0.1,1.1c-0.1,0.1-0.3,1.5-0.5,1.7
				c-0.2,0.3-0.7,2.2-0.6,2.6c0.1,0.4,0.7,1.2,1,1.3c0.3,0.1,0.2,0.5-0.1,0.6c-0.2,0-0.1,1.9,0.4,2.2C61.8,135,62.2,135.8,62.1,136z
				"/>
			<path fill="#DCDAC8" d="M68.4,103.4L68.4,103.4C68.4,103.4,68.4,103.4,68.4,103.4z"/>
			<path fill="#DCDAC8" d="M64.8,80.9c0.6-0.1,1.7-0.3,1.8-0.5c0.1-0.1,0.1-0.6-0.1-0.7c0.1,0,0.2,0,0.3,0c0.2,0,0.6-1.3,0.9-1.6
				c0.3-0.3,1.7-0.8,2.1-1c0.3-0.2,1.1-0.9,1.4-1c0.3-0.1,0.7-0.8,0.7-0.9c-0.1-0.1,1-0.8,1.4-0.9c0.4-0.2,0.6-0.6,0.5-0.7
				c-0.1,0-2.3,1.2-4.4,2.3c-2.3,1.6-4.5,3.4-6.6,5.3C63.4,81.1,64.3,81,64.8,80.9z"/>
			<path fill="#DCDAC8" d="M103.4,147.4c0.7-0.4,1.8-2.1,2.2-2.5c0.4-0.4,0.7-1.7,0.7-1.9c0.1-0.3,0.7-0.7,0.9-0.8
				c0.2-0.1,0.9-2.9,1.5-3.6c0.6-0.6,1.3-3.7,1.2-4.8c-0.1-1.1,0.4-3.2,0.5-3.7c0.1-0.5,0.9-1.4,1.1-1.6c0.2-0.2,1.7-2.4,2.2-3.1
				c0.5-0.8,0.9-2.5,0.8-2.9c-0.1-0.4-1.1-0.7-1.3-0.5c-0.2,0.2-1.2,0.4-1.5,0.4c-0.3,0-1-1.6-1.5-2c-0.4-0.3-0.8-2.2-1.1-2.6
				c-0.3-0.4-1-1.3-1.2-1.5c-0.2-0.2-0.3-1.2-0.3-1.5c0-0.3,0.4,0.2,0.5,0.6c0.1,0.4,1.2,2,1.6,2.6c0.3,0.5,1.3,2.3,1.5,2.8
				c0.2,0.5,2.3,0.3,3,0c0.7-0.3,1.5-0.8,1.5-1c0-0.2,1.1-0.7,1.4-0.9c0.3-0.2,0.6-1.5,0.8-1.7c0.2-0.2-0.2-1.4-0.4-1.7
				c-0.2-0.4-1.3-0.6-1.5-0.5c-0.2,0.1-0.7-0.8-0.8-1.1c-0.2-0.3-1-0.8-1.1-1c-0.1-0.2,0.2-0.6,0.3-0.7c0.1-0.1,1.6,1,2.1,1.5
				c0.4,0.5,0.9,1.5,1,1.7c0.1,0.2,1.3,0.3,1.5,0.1c0.3-0.2,0.6-0.1,0.7,0.1c0,0,0,0,0.4-0.1c1.3-0.2,1.3-0.2,1.3-0.2
				c0.6,0.7,0.8,1.2,0.8,1.4c0,0.1,0.4,0.7,0.6,0.7c0.3,0.1,0.4,0.9,0.5,1.1c0.1,0.2,0.8,1.5,1,2c0.2,0.5,0.8,1.6,0.9,1.9
				c0.2,0.3,0.3,1.1,0.3,1.3c0,0.2,0.5,0.7,0.8,0.6c0.3,0,0.9-1.9,1-2.6c0.1-0.7,0.6-1.3,0.7-1.3c0.1,0,0.2-0.4,0.2-0.5
				c0-0.1,0.8-0.1,0.8-0.3c0.1-0.2,0.3-1.4,0.6-1.6c0.3-0.2,1.2-0.8,1.6-0.9c0.3-0.1,1.2,0.6,1.4,1c0.2,0.3,0.4,1.2,0.3,1.4
				c-0.1,0.1,0.4,0.9,0.9,0.9c0.5,0,0.6,0.6,0.6,0.8c0,0.2,0.6,0.8,0.7,1.1c0.1,0.3,0.1,1,0,1.2c-0.1,0.2,0,1.1,0.1,1.4
				c0.1,0.3,1.5,1.7,2,2.1c0.5,0.4,0.8-0.9,0.5-1.3c-0.3-0.4-1.2-1.4-1.4-1.6c-0.2-0.3-0.3-1.4-0.2-1.7c0.1-0.3,0.8,0.2,1.1,0.4
				c0.3,0.2,0.7,0.7,0.7,0.9c0,0.2,1.9-0.9,2-2c0.1-1.1,0.7-2.4,0.8-2.7c0.1-0.3-0.2-0.7-0.3-0.7c-0.2,0,0.3-0.9,0.8-0.9
				c0.5,0,1.8-1.4,2.1-2c0.3-0.6,0.9-1,1-1.1c0.1-0.1,0.5-1.4,0.6-1.9c0.1-0.5-0.3-1.4-0.4-1.7c0-0.3-0.5-0.9-0.6-1.1
				c-0.1-0.2-0.2-1-0.2-1.1c0.1-0.1,0.5-0.3,0.6-0.4c0.1-0.1,0.6-0.7,0.6-1c0-0.3,0.3,0.3,0.6,0.5c0.2,0.2,0.5,1.6,0.8,1.7
				c0.3,0.1,1.6-1.4,1.4-2.5c-0.2-1,0.4-2.3,0.7-2.5c0.2-0.1,0.8-0.9,1.2-1.5c-2.7-7.9-7.3-15-13.2-20.7c-0.1,0-0.1,0-0.2,0
				c-0.5-0.1-0.5-0.1-0.5-0.1c-0.8-0.2-1.2-1-1.1-1.2c0-0.1,0-0.2,0-0.4c-0.4-0.4-0.9-0.8-1.3-1.1c-0.4,0-0.7,0-1,0
				c-0.5,0-1.5-0.3-1.6-0.5c-0.2-0.2-0.8,0.2-0.8,0.5c0,0.3-1.1,0.5-1.2,0.7c-0.1,0.3-0.6,0.3-0.7,0.1c-0.1-0.1-1.1,0.3-1.6,0.4
				c-0.5,0.1-1.4,0.5-1.6,0.6c-0.2,0.1-0.7,0.6-0.8,0.8c-0.1,0.2-0.7,0.6-0.9,0.6c-0.2,0.1-0.2,1,0.1,1.1c0.3,0.1-0.5-0.1-0.8-0.3
				c-0.3-0.2-0.7,0.4-0.8,0.6c-0.1,0.2-0.4-0.1-0.4-0.4c0-0.3-0.8-0.5-0.9-0.3c-0.1,0.2-0.7-0.1-0.9-0.2c-0.2-0.1-1.2,0.9-1.6,1.3
				c-0.4,0.4-2.2,0.7-2.5,0.5c-0.3-0.1-0.7,0.8-0.4,0.9c0.3,0.1-0.7,0-1.3,0c-0.6,0.1-2.2,0.7-2.5,1c-0.4,0.3-0.7-0.1-0.7-0.3
				c0-0.2-0.6-0.4-0.8-0.5c-0.2-0.1-0.5,1.2-0.9,1.4c-0.3,0.2-0.7-1-1.5-1.2c-0.8-0.2-1.9-0.9-2.3-1c-0.3-0.1-1-0.8-1.2-1
				c-0.2-0.2-1.2-0.4-1.5-0.4c-0.3,0-1.3,0.6-1.6,0.8c-0.3,0.2-0.7,0.2-0.8,0.3c-0.1,0.1-1.3,1.2-1.7,1.5c-0.4,0.3-1.2,1.8-1.4,2.2
				c-0.3,0.4-0.6,0.4-0.8,0.4c-0.1,0-0.3,0.4-0.3,0.5c0,0.1-1.3,0.8-1.4,1.4c-0.1,0.6,0.1,1.9,0.1,2.4c0,0.5,0.5,1.4,0.8,1.4
				c0.4,0,0.2,0.8,0.1,1c-0.1,0.2,0.2,0.5,0.2,0.7c0,0.2-0.9,0.5-1.2,0.6c-0.3,0.1-0.7,0.7-0.8,1c-0.1,0.2-0.9,0.3-1.2,0.6
				c0.1-0.2,0.2-0.5,0.2-0.6c0.2-0.3-0.1-0.9-0.2-1c-0.1-0.1-0.2-1.7-0.4-2c-0.2-0.3-0.8-0.9-0.9-1c-0.1-0.1,0.1-0.5,0.2-0.7
				c0.1-0.2-0.7-0.3-0.9-0.1c-0.2,0.1-0.3,1.7-0.4,2.1c-0.1,0.4,0.4,1.1,0.5,1.1c0.1,0,0.1,0.8-0.2,0.8c-0.3,0-0.5,1.1-0.4,1.4
				c0.1,0.3-0.2,0.7-0.4,0.9c-0.2,0.1,1.1,0,1.7,0c0.6,0,1,0.2,1,0.3c-0.1,0-1.1,0.2-1.3,0.4c-0.2,0.2-0.9,0.7-1,0.9
				c-0.1,0.2,0.2,0.6,0.5,0.6c0.3,0,0.6,1,0.9,1.2c0.2,0.2,0.1,0.7,0,0.9c-0.1,0.1-1.5-0.1-2,0c-0.5,0.1-1.2,1.2-1.2,1.7
				c0,0.4,0.1,1.6,0.2,2c0.1,0.3,1.2,0.5,1.4,0.7c0.2,0.2,1.3,0,1.5,0.1c0.2,0.1,0.9-1.1,1.1-1.6c0.1-0.6,1.3-1.6,1.5-1.9
				c0.2-0.4,1.5-0.3,1.8-0.5c0.3-0.2,0.1,0.9,0.3,1.5c0.1,0.6,1.3,0.5,1.1,0c-0.2-0.6,0.1-0.8,0.2-0.6c0.1,0.2,1.2,0.7,1.4,1
				c0.2,0.3,0.2,1-0.1,1c-0.3,0-0.3,0.8,0,0.8c0.3,0.1,0.6-0.9,0.9-1c0.3-0.1,0.5-0.7,0.4-0.8c-0.1,0,0.2-0.6,0.4-0.4
				c0.2,0.2-0.6-1.1-1.1-1.6c-0.5-0.5-0.1-0.3,0.8,0.5c0,0,0,0,0.6,0.9c0.1,0.2,0.3,0.6,0.4,0.8c0.1,0.3,0.1,0.3,0.1,0.3
				c0.1,0.3,0.2,1.1,0.2,1.4c0,0.2,0.5,0.7,0.8,0.6c0.3,0,0.5,0.1,0.5,0.2c-0.1,0,0.2,0.6,0.5,0.6c0.3,0,0.4-0.7,0.1-0.8
				c-0.3,0-0.2-1.1-0.3-1.6c0-0.5,0.2-0.9,0.3-0.9c0.1,0,0,1,0,1.2c0,0.2,0.1,0.7,0.3,1c0,0,0,0,0.3,0.2c0.7,0.5,0.7,0.5,0.7,0.5
				c1-0.3,2.3-0.1,2.2,0.1c-0.1,0.2,0.7,0.2,0.8-0.1c0-0.3,0.1,0,0.1,0.2c0,0.2-0.6,1.1-0.7,1.5c-0.1,0.4-2.3,0.1-3.3,0.1
				c-1-0.1-2.4,0.3-2.5,0.5c-0.1,0.3-1.6-0.7-2.3-0.9c-0.7-0.3-1.2-1.3-1.4-1.5c-0.1-0.1,0.1-0.5,0.1-0.7c-0.1-0.2-1.6-0.3-2.1-0.1
				c-0.5,0.2-2.8,0.4-3.4,0.7c-0.6,0.2-1.4,0-1.7-0.1c-0.3,0-0.9,0.7-1.2,0.9c-0.3,0.1-0.7,1.2-0.9,2.4c0,0,0,0-0.4,0.8
				c-0.3,0.5-0.3,0.5-0.3,0.5c-0.8,0.6-1.6,2.6-1.9,3c-0.3,0.4-0.5,3.2-0.5,4.2c0,1,0.8,3,1.1,3.5c0.2,0.6,1.7,1.8,2.2,2.1
				c0.5,0.3,2,0.3,2.6,0.3c0.5,0,1.1-0.5,1.3-1.1c0,0,0,0,0.8,0.1c0.3,0,0.3,0,0.3,0c0,0.4,1.1,0.8,1.4,0.9c0.3,0.1,1,0,1.2,0
				c0.2-0.1,0.5,1.9,0.3,2.5c-0.2,0.6,0.4,2.6,0.5,3.2c0.2,0.6,0.8,2.2,0.9,2.8c0.1,0.6-0.4,2.5-0.5,3.2c-0.1,0.7,0.9,2.6,1.1,3.3
				c0.2,0.7,0.4,2.1,0.4,2.4c0,0.3,1,2.3,1.2,3.1C100.2,147.6,102.7,147.8,103.4,147.4z"/>
			<path fill="#DCDAC8" d="M147.5,123.1c0.1,0.1,0.7-0.4,1.1-0.4c0.4-0.1,0.6-1.1,0.3-1.2c-0.3-0.1-0.7-0.9-0.9-1
				c-0.2-0.1-0.6,0.3-0.6,0.7c0,0.3-0.7,0.4-0.8,0.7c-0.1,0.3-0.1,0.5,0,0.4C146.7,122.3,147.4,123,147.5,123.1z"/>
			<path fill="#DCDAC8" d="M146.7,128.8c0.2-0.1,0-1.1-0.4-1.2c-0.4-0.1-1.5,1.3-1.3,2.2c0.2,0.8,0.4,0.8,0.6,0.6
				c0.1-0.2,0.8,0.1,1,0.2c0.2,0.1,0.2-0.1,0-0.4C146.3,129.8,146.5,128.8,146.7,128.8z"/>
			<path fill="#DCDAC8" d="M144.5,127.8c0-0.4,0.1-1.5,0.2-1.7c0.1-0.2-0.6-0.9-1-1c-0.3-0.1-1.4,2.2-2.2,2.6
				c-0.8,0.4-1.1,1.8-0.9,2.2c0.2,0.3,1.8,0.5,2.1,0.8c0.3,0.2,0.6,0,0.8-0.1c0.2,0,0.1-0.1,0.1-0.2c-0.1,0,0.6-0.7,0.7-1.1
				C144.3,128.8,144.5,128.1,144.5,127.8z"/>
			<path fill="#DCDAC8" d="M140.1,131.7c-0.6-0.2-1.3,0.1-1.4,0.4c-0.1,0.2,2.3,0.6,3.1,0.8c0.8,0.2,1.3,0.3,1.1,0.2
				C142.8,132.9,140.7,131.9,140.1,131.7z"/>
			<path fill="#DCDAC8" d="M145,116.1c0.2-0.3-0.3-1.5-0.5-1.2c-0.2,0.3-0.1,1,0,1.3C144.5,116.4,144.8,116.4,145,116.1z"/>
			<path fill="#DCDAC8" d="M146.4,118.8c0.1-0.3-0.2-0.7-0.7-0.8c-0.5-0.1-0.4,1.4-0.2,1.6C145.7,119.8,146.3,119.1,146.4,118.8z"/>
			<path fill="#DCDAC8" d="M149.1,128.4c0.6,0.4,2,0.2,2-0.6C150.5,127.4,149,127.5,149.1,128.4z"/>
			<path fill="#DCDAC8" d="M148.8,109.4c-0.3,0.2-0.4,0.6-0.3,0.8c0,0-0.1,0-0.1,0c-0.2,0-0.2,0.8,0,1c0.2,0.1,0.7-0.6,1-0.8
				c0.3-0.2,0.8-0.3,0.9-0.2c0.1,0.1,0.6-0.1,1.1-0.3c0.1,0,0.2-0.2,0.3-0.4c-0.1-0.6-0.3-1.2-0.4-1.8c-0.3,0.2-0.5,0.4-0.7,0.5
				C150.3,108.4,149.1,109.1,148.8,109.4z"/>
			<path fill="#DCDAC8" d="M134.6,125.8C134.6,125.8,134.6,125.8,134.6,125.8C134.5,125.7,134.5,125.7,134.6,125.8z"/>
			<path fill="#DCDAC8" d="M138.5,129.4c-0.2-0.5-1-1.4-1.6-1.9c0,0,0,0-0.3-0.4c-0.3-0.5-0.3-0.5-0.3-0.5c-0.3-0.5-1-0.9-1.1-1.1
				c-0.1-0.1-0.3,0.4-0.6,0.3c0.1,0.1,0.4,0.3,0.8,0.6c0.7,0.5,2.1,4,2.4,4.2C138.2,130.8,138.7,129.9,138.5,129.4z"/>
			<path fill="#DCDAC8" d="M127.4,123.7c-0.2,0.4,1,1.2,1.1,1c0.1-0.2-0.2-1.2-0.4-1.4C128,123.2,127.6,123.3,127.4,123.7z"/>
			<path fill="#DCDAC8" d="M111.3,142.3c0,0.4,0.9,0.7,1.1,0.7c0.2-0.1,0.9-1.3,1-1.7c0.1-0.4,0.2-1.1,0.2-1.3
				c0-0.2,0.1-0.6,0.2-0.6c0.1,0,0.2-0.5,0.3-0.9c0.1-0.5-0.5-2.7-0.5-3.1c0-0.4-0.5,0.2-0.6,0.6c-0.1,0.4-1.2,1.2-1.5,1.5
				c-0.2,0.3-0.5,1.5-0.4,1.6c0.1,0.2-0.1,1-0.2,1.2C110.9,140.5,111.3,141.9,111.3,142.3z"/>
			<path fill="#DCDAC8" d="M71.9,157.5c0.2,0,0.5,0,0.7,0C72.8,156.7,71.9,156.9,71.9,157.5z"/>
			<path fill="#DCDAC8" d="M91.5,74.8c-0.3,0-1.1-0.1-1.2-0.3c-0.1-0.1-1.3-0.3-1.7-0.1c-0.3,0.1-0.1-0.8,0.4-0.9
				c0.5-0.1,0.1-0.8-0.4-0.8c-0.5,0-1.8-0.2-2.1-0.1c-0.3,0.1-0.9-0.2-1.1-0.2c-0.2,0-1.7,0.5-2.4,0.4c-0.7,0-2.5,0-2.9,0.1
				c-0.4,0.1-0.7,0.8-0.6,1.1c0.1,0.3-1.7,0.3-2.3,0.3c-0.6,0-3.5,0.6-4.3,1.1c-0.8,0.4-1.4,1.5-1.1,1.5c0.3,0-0.4,0.6-0.8,0.8
				c-0.4,0.1-1.4,0.2-1.6,0.4c-0.2,0.2,0.2,0.4,0.3,0.5c0.1,0.2,0.4-0.1,0.6,0c0.3,0.1,1.1,0.2,1.3,0.3c0.2,0.1-0.7,0.3-1.2,0.3
				c-0.5,0-0.3,0.9,0,1c0.4,0.1,1.3,0.3,1.4,0.1c0.1-0.2,1.1,0.2,1.6,0.2c0.5,0.1,0.8,1.2,1,1.5c0.1,0.3,0.2,1.1,0.1,1.4
				c0,0.3,0.8,0.7,1,0.6c0.1-0.2,0.1,0.4-0.2,0.4c-0.3,0-0.1,1,0.3,1.1c0.4,0.1,0.1,0.7-0.1,0.9c-0.2,0.2-0.1,0.8-0.4,1
				c-0.2,0.2,0.9,2.2,0.9,3.2c0,1,0.6,1.8,0.9,1.8c0.2,0,1.1,0.2,1.2,0.4c0.1,0.2,0.5-0.1,0.7-0.3c0.2-0.2,0.5-0.6,0.7-1.1
				c0.3-0.4,0.8-2.4,0.9-2.7c0.1-0.2,1-0.1,1.2-0.2c0.2-0.1,0.8-0.6,1-0.7c0.2-0.1,1.5-0.7,1.9-1c0.4-0.3,1-1.4,1.3-1.6
				c0.3-0.2-0.1-0.2-0.5-0.4c-0.4-0.2-0.2-0.5-0.1-0.6c0.1-0.1,1.2,0.2,1.6,0.3c0.4,0.1,1.1-0.4,0.8-0.6c-0.3-0.2-0.1-0.2,0-0.1
				c0.1,0.1,0.3-0.7,0.1-0.8c-0.1-0.1,1.1-1,0.9-1.9c-0.2-0.9,0.3-1.7,0.7-1.7c0.3,0,0.2-1-0.2-1.1c-0.4-0.1,0-0.2,0.1-0.3
				c0.1-0.1,0.3-1,0.3-1.2c-0.1-0.2,0.6-0.3,0.7-0.5c0.1-0.2,0.9-0.6,1.2-0.6C91.6,75.5,91.8,74.8,91.5,74.8z"/>
			<path fill="#DCDAC8" d="M98.4,75.5c-0.4-0.1-1.2,0.3-1.1,0.5c0.1,0.2-0.6-0.3-1.1,0c-0.5,0.3-0.6,1.2-0.4,1.3
				c0.2,0.1,0.4,0.8,0.4,1c0,0.1,1,0,1.2-0.2c0.2-0.2,0.2,0.7,0,1c-0.2,0.3,0.1,0.8,0.4,0.8c0.3,0,0.6,0.7,0.9,0.7
				c0.3,0,0.8-1.1,0.9-1.5c0.1-0.4,1-0.1,1.5,0c0.4,0.1,0.6-1.5,0.1-1.7c-0.5-0.2-1-0.1-1.2-0.3c-0.2-0.2-0.5-0.4-0.7-0.4
				C99,76.6,98.8,75.6,98.4,75.5z"/>
			<path fill="#DCDAC8" d="M102.2,76.3c0.8,0.1,1.6-0.5,1.8-0.7c0.2-0.2-2.1-0.6-3-0.7c-0.9,0-1.6,0.1-1.6,0.3
				C99.5,75.4,101.4,76.2,102.2,76.3z"/>
			<path fill="#DCDAC8" d="M88.4,96.7c-0.2-0.1-0.3,0.7-0.3,0.9c0,0.3,0.7,0.3,1,0.2c0.3,0,0.5-0.3,0.5-0.5c0-0.2-0.4-1.4-0.6-1.4
				C88.9,95.9,88.6,96.8,88.4,96.7z"/>
			<path fill="#DCDAC8" d="M90.7,88c-0.2-0.3-1.3-0.2-1.6-0.3c-0.3,0-1.2-0.3-1.3-0.5c-0.2-0.2-0.3,0.7-0.6,0.8
				c-0.3,0.1,0.1,0.3,0.2,0.2c0.1-0.1,0,0.5-0.1,0.7c-0.1,0.2,0.8,0.3,0.9,0.6c0.1,0.3,0.5,0.5,0.8,0.4c0.4-0.1,1.1-0.4,1.3-0.5
				C90.5,89.5,90.8,88.3,90.7,88z"/>
			<path fill="#DCDAC8" d="M115.5,81.2c0.4-0.4,2.1-1,2.3-1.4c0.2-0.4-0.1-0.8-0.3-0.8c-0.2,0-0.4,0.2-0.4,0.3c0,0.1-2,0.5-2.5,0.8
				c-0.6,0.3-1.3,0.7-1.5,1c-0.2,0.3-0.7,2.2-0.8,2.4c-0.1,0.2,0.6,1,1,1.2c0.3,0.2,0.8,0.1,1,0.1c0.1,0-0.2-1.4-0.4-1.8
				C113.6,82.5,115.1,81.6,115.5,81.2z"/>
			<path fill="#DCDAC8" d="M113.4,76.3c0.6,0.6,1-0.3,1.7-0.2C115.1,74.8,113.4,75.2,113.4,76.3z"/>
			<path fill="#DCDAC8" d="M125.7,76.5c0,0.2,1.7,0.4,2.3,0.3c0.5-0.1-0.1-0.9-0.9-0.8C126.4,76,125.7,76.3,125.7,76.5z"/>
			<path fill="#DCDAC8" d="M61.8,89.6c-0.2,0.2,0,1,0.3,1.1c0.4,0,0.9-1.3,1.4-1c0.4,0.3,0.7,0.4,0.7,0.2c-0.1-0.1-1.3-0.7-1.5-0.8
				C62.5,89,62,89.4,61.8,89.6z"/>
			<path fill="#DCDAC8" d="M66.3,118.9c0,0.1,0.8,0.1,0.9-0.1c0.1-0.2,0.1-0.4-0.2-0.4C66.8,118.4,66.3,118.8,66.3,118.9z"/>
			<path fill="#DCDAC8" d="M62.9,117.7c0.4-0.1,0.2,0.5,0.3,0.7c0.1,0.2,1,0.4,1.1,0.5c0.2,0.1,0.6-0.3,1-0.2c0.4,0-0.1-1.2-0.7-1.2
				c-0.6,0-1.1-0.5-1.2-0.6c-0.1-0.1-0.8-0.5-1-0.6c-0.2-0.2-1.7-0.3-2.2-0.3c-0.5,0-1.1,0.5-1.2,0.7c-0.1,0.2,0.8,0.3,1.1,0.2
				c0.3-0.1,1.5,0.2,1.7,0.4C62,117.6,62.5,117.7,62.9,117.7z"/>
			<path fill="#DCDAC8" d="M61.2,118.9c0,0.1,0.8,0.1,1,0.1c0.2,0,0.2-0.1,0-0.3C62,118.6,61.2,118.8,61.2,118.9z"/>
			<path fill="#DCDAC8" d="M61.8,114.9c-0.2-0.1-0.4,0.2-0.4,0.4c0,0.1,0.1,0.3,0.2,0.3S62,115,61.8,114.9z"/>
			<path fill="#DCDAC8" d="M63.4,115.1c-0.1-0.1-0.4-0.3-0.5-0.3c-0.1,0-0.2,0.3-0.2,0.6C62.8,115.7,63.5,115.2,63.4,115.1z"/>
			<path fill="#DCDAC8" d="M64.6,116.9c0.3-0.2,0.4-0.5,0.2-0.5c-0.2,0-0.5-0.5-0.7-0.6c-0.2-0.1-0.4,0.3-0.4,0.5
				c0,0.2,0.1,0.3,0.3,0.3C64.1,116.5,64.3,117,64.6,116.9z"/>
			<path fill="#DCDAC8" d="M151.4,129.1c-0.2,0.1-0.9,0.2-1,0c-0.1-0.2-0.3,0.3-0.4,0.4c-0.2,0.1-0.1,0.5,0.2,0.4
				c0.2-0.1,0.9,0.3,1.5,0.7c0.1-0.6,0.2-1.2,0.3-1.8C151.8,128.9,151.5,129,151.4,129.1z"/>
		</g>
		<g>
			<path fill="#F2EFDC" d="M62.1,136c-0.1,0.1,0.9,1.1,1.3,1.5c0.4,0.3,1.2,1.9,1.3,2.5c0.2,0.5,0.1,1.4,0,1.6
				c0,0.2,0.2,0.6,0.2,0.8c0,0.2-0.3,1.8-0.2,2.4c0.1,0.6-0.7,2.6-0.7,3.6c0,1,0.5,2.3,0.6,2.2c0.2-0.1,0.2,0.9-0.1,1
				c-0.3,0.1-0.6,0.9-0.5,0.9c0.2,0,0,0.8,0,1.1c0,0.3,0.3,2.3,0.4,2.8c0.1,0.5,0.8,1.7,0.9,2.2c0.2,0.4,0.3,1.2,0.4,1.3
				c0.1,0.1,0.1,0.2,0.1,0.3c0,0,0.6,0.2,0.8,0.3c0.2,0.1,1.3,0,1.7,0c0.4-0.1,0-0.4-0.1-0.6c-0.2-0.2-0.3-1.1-0.5-1.2
				c-0.2-0.1-0.3-1.2-0.1-1.5c0.2-0.3,0.9-0.7,0.9-0.9c0.1-0.2,0.1-1.2-0.1-1.4c-0.2-0.1,0.1-1.4-0.1-2c-0.1-0.6,1-1.2,1.1-1.6
				c0.1-0.5,1.4-1,1.6-1.2c0.3-0.2,0.5-1.6,0.4-1.9c-0.1-0.3,0.5-0.5,0.7-0.5s0.6-0.2,0.7-0.2c0.1,0,0.4-0.6,0.6-0.7
				c0.2-0.1,0.5-1.6,0.9-1.8c0.3-0.2,0.6-1.1,0.6-1.4c0-0.3,0.5-1,0.6-1.2c0.2-0.2,1.4-0.8,1.6-0.9c0.2-0.1,0.5-2,0.6-2.7
				c0.1-0.7,0.4-1.6,0.5-1.8c0-0.2,0.4-0.4,0.5-0.5c0.1-0.1,0.4-1,0.5-1.2c0.2-0.2,0.8-1,0.9-1.2c0-0.2,0.1-0.7,0.2-1.1
				c0,0,0,0,0-0.5c0-0.8,0-0.8,0-0.8c-0.2-0.6-0.9-1.3-1-1.1c-0.2,0.2-0.9-0.5-1.3-0.7c-0.4-0.1-1.3-0.3-1.6-0.3
				c-0.2,0-1.1-0.7-1.4-0.8c-0.4-0.1-1.3-0.3-1.5-0.4c-0.2-0.1-0.4-1.5-1.2-2c-0.8-0.5-2.1-1.5-2.2-1.9c-0.1-0.4-1.6-1.2-2.1-1.5
				c-0.4-0.2-1.1-0.3-1.2-0.2c-0.1,0.1-0.7-0.8-0.9-1c-0.3-0.2-1.2-0.4-1.2-0.2c0,0.2-0.6,0.1-0.8-0.1c-0.1-0.2-0.6,0.1-0.8,0.1
				c-0.2,0.1-0.9,1.2-1.3,1.4c-0.3,0.3-0.7-0.2-1-0.3c-0.2-0.1-1.1,0.2-1.3,0.3c-0.2,0.2-0.8-1.2-0.6-1.8c0.1-0.6-0.6-1.8-1.1-1.9
				c-0.5,0-0.7-1.3-0.6-1.8c0.1-0.5-0.9-0.8-1.2-0.8c-0.3,0-0.9,0.6-1,1c-0.1,0.3-2.5-0.4-2.2-1.9c0.3-1.4,1.4-2.9,1.7-3.1
				c0.3-0.2,1.8-0.3,2.1-0.1c0.3,0.2,0.6,0,0.7-0.1c0.1-0.1,1.3,0,1.7,0.2c0.4,0.2,0.9,1.6,1.3,1.8c0.4,0.2,0.5-0.9,0.6-1.2
				c0.1-0.3-0.2-1-0.3-1.1c-0.1-0.2,0.6-1.9,1.2-2.2c0.6-0.3,1.2-1.3,1.1-1.4c-0.1-0.2,0.5-0.3,0.6-0.4c0.1-0.1,0-1.5,0.2-1.8
				c0.2-0.3,1.3-0.9,1.7-1.1c0.3-0.1,0.6-1,0.5-1.2c-0.1-0.2,0.9-1,1.4-1.2c0.5-0.2,1,0.3,0.9,0.4c0.1-0.1,0.8-0.4,1.1-0.6
				c0.4-0.2,0-0.9-0.2-1.1c-0.2-0.2-0.1-1,0.2-1c0.3-0.1,0.5-0.7,0.5-0.9c-0.1-0.1,1.2,0.1,1.6-0.2c0.5-0.3,0.1,0.8-0.2,1.3
				c-0.3,0.5,0.3,0.9,0.5,0.8c0.2-0.1,0.5,0.3,0.5,0.4c0,0.1,0.5-0.1,0.8,0c0.3,0.1,0.5-0.4,0.5-0.7c0-0.3-0.7-0.8-0.9-1.1
				c-0.1-0.3-0.2-2.1-0.2-2.5c0-0.4-0.5-1-0.7-0.9c-0.2,0.1-0.5-1-0.7-1.2c-0.3-0.2-0.3-0.7-0.3-0.9c0-0.2-0.9-1.1-1.1-1.5
				c-0.2-0.4-0.5-0.3-0.5-0.1c0,0.2-0.6,0.2-0.9,0.2c-0.3,0-0.5-1-0.5-1.4c0-0.4-1.1-0.4-1.3-0.7c-0.2-0.3-0.9-0.2-1.1-0.4
				c-0.1-0.2-0.8-0.4-0.9-0.3c-0.1,0.1-0.1,2.7-0.2,3.5c-0.1,0.7-0.7,1.3-1,1.3c-0.2,0-0.1,0.5,0.1,0.5c0.2,0-0.4,0.8-0.5,1.3
				c-0.1,0.5-0.6,0-0.7-0.5c-0.1-0.5-0.6-1.2-0.7-1c-0.1,0.2-0.5-0.2-0.6-0.1c-0.2,0.1-1.2-0.6-1.6-0.8c-0.4-0.2-0.6-1.5-0.9-1.6
				c-0.2-0.1,0-0.3,0-0.5c0-0.2,0.8-0.9,1-1.2c0.2-0.3,1.1-1.4,1.5-1.7c0.4-0.3,0.6-0.9,0.6-1c-0.1-0.1,1.5-0.6,1.9-0.8
				c0.4-0.1,0.8-1.3,0.8-1.7c0.1-0.3-0.3-1-0.5-1.1c-0.2-0.1,0.6-0.1,0.8,0c0.3,0.1,1.1-0.2,1.4-0.1c0.3,0.2,1,0.5,1.4,0.8
				c0,0,0,0-0.1,0.9c-0.2,1.5-0.2,1.5-0.2,1.5c-1.2,0.5-1.6,1.4-1.2,1.4c0.4,0,2.4,0.9,3,1.2c0.6,0.4,0.7-0.6,0.9-0.9
				c0.2-0.3,0.1-1.3,0-1.4c-0.1-0.2,0.6-0.1,0.9,0.1c0.2,0.2,0.5-0.2,0.6-0.3c0.2-0.1,0.2-0.9,0.3-1c0.1-0.2-0.4-0.3-0.4-0.5
				c0-0.2-0.9-0.6-1.2-0.7c-0.3-0.1-0.4-0.7-0.2-0.9c0.1-0.1-0.1-0.9-0.2-1.1c-0.1-0.3-1.1-0.5-1.4-0.5c-0.3,0-0.6-0.7-0.8-0.8
				c-0.2-0.1-1.4-0.2-1.7-0.1c-0.3,0.1-0.8-0.8-1.3-0.6c-0.5,0.3-1-0.3-1.2-0.5c-0.2-0.1-1.4,1.1-1.4,2c0,0.9,0.5,1.7,0.6,1.7
				c0.2,0,0,0.8-0.2,1c-0.2,0.2-0.7-0.2-0.5-0.4c0.2-0.2-0.5-1.1-0.7-1.5c-0.2-0.3-0.8-0.5-1.2-0.7c-0.2,0.3-0.5,0.5-0.7,0.8
				c0.1,0.3,0.2,0.7,0.1,1c-0.2,0.5-0.6,0.6-0.6,0.4c0-0.1-0.2-0.2-0.5-0.2c-0.2,0.3-0.5,0.6-0.7,0.9c-0.2,0.3-0.5,0.6-0.7,0.9
				c-0.2,0.3-0.5,0.6-0.7,1c-0.2,0.3-0.4,0.6-0.6,0.9c-0.3,0.4-0.6,0.9-0.9,1.3c-0.3,0.4-0.6,0.9-0.8,1.3c-0.2,0.4-0.4,0.7-0.7,1.1
				c-0.1,0.3-0.3,0.5-0.5,0.8c-0.2,0.4-0.4,0.8-0.7,1.2c-0.1,0.2-0.2,0.5-0.4,0.7c-0.5,0.9-0.9,1.9-1.4,2.9c0,0,0,0.1,0,0.1
				c-0.2,0.5-0.4,1-0.6,1.5c-0.1,0.2-0.1,0.4-0.2,0.6c-0.2,0.5-0.4,1-0.6,1.5c0,0.1-0.1,0.2-0.1,0.3c-0.6,1.7-1.1,3.4-1.5,5.2
				c0,0.1-0.1,0.2-0.1,0.4c-0.4,1.8-0.7,3.7-1,5.6c0,0,0,0,0,0c0.3,0.3,0.6,0.6,0.6,0.9c0.1,0.5,1,0.8,1.1,0.9
				c0.2,0.1,0.2-0.9,0.1-1.2c-0.1-0.3,0.2-0.4,0.2-0.2c0,0.2,0.8,1.1,1,1.4c0.3,0.3,0.5,2.4,0.8,2.8c0.2,0.4,2.6,1.3,3.4,1.5
				c0.8,0.2,1.7,1,1.9,1.3c0.1,0.2,1.2,0.4,1.4,0.5c0.2,0.1,0.7,0.8,0.9,0.9c0.2,0.1,0.4,0.5,0.4,0.7c0,0.1,1.3,0.6,1.7,1
				c0.3,0.4,0.9,0.3,1,0.1c0.1-0.1,0.4,0.7,0.5,1c0.1,0.3,0.2,1,0.1,1.1c-0.1,0.1-0.3,1.5-0.5,1.7c-0.2,0.3-0.7,2.2-0.6,2.6
				c0.1,0.4,0.7,1.2,1,1.3c0.3,0.1,0.2,0.5-0.1,0.6c-0.2,0-0.1,1.9,0.4,2.2C61.8,135,62.2,135.8,62.1,136z"/>
			<line fill="#F2EFDC" x1="68.4" y1="103.4" x2="68.4" y2="103.4"/>
			<path fill="#F2EFDC" d="M64.8,80.9c0.6-0.1,1.7-0.3,1.8-0.5c0.1-0.1,0.1-0.6-0.1-0.7c0.1,0,0.2,0,0.3,0c0.2,0,0.6-1.3,0.9-1.6
				c0.3-0.3,1.7-0.8,2.1-1c0.3-0.2,1.1-0.9,1.4-1c0.3-0.1,0.7-0.8,0.7-0.9c-0.1-0.1,1-0.8,1.4-0.9c0.4-0.2,0.6-0.6,0.5-0.7
				c-0.1,0-2.3,1.2-4.4,2.3c0,0,0,0-0.1,0c-0.6,0.4-1.2,0.8-1.7,1.2c-0.4,0.3-0.8,0.6-1.1,0.9c-0.2,0.2-0.4,0.3-0.6,0.5
				c-0.4,0.4-0.9,0.7-1.3,1.1c-0.1,0.1-0.2,0.2-0.3,0.2c-0.5,0.4-1,0.9-1.4,1.3C63.4,81.1,64.3,81,64.8,80.9z"/>
			<path fill="#F2EFDC" d="M98.6,107c-0.3,0-0.3,0.8,0,0.8c0.2,0.1,0.4-0.4,0.7-0.7v-3c0,0,0,0-0.1-0.1c-0.3-0.3-0.3-0.3,0.1-0.1
				V85.7c-0.3,0.3-0.5,0.5-0.7,0.6c-0.4,0.3-1.2,1.8-1.4,2.2c-0.3,0.4-0.6,0.4-0.8,0.4c-0.1,0-0.3,0.4-0.3,0.5
				c0,0.1-1.3,0.8-1.4,1.4c-0.1,0.6,0.1,1.9,0.1,2.4c0,0.5,0.5,1.4,0.8,1.4c0.4,0,0.2,0.8,0.1,1c-0.1,0.2,0.2,0.5,0.2,0.7
				c0,0.2-0.9,0.5-1.2,0.6c-0.3,0.1-0.7,0.7-0.8,1c-0.1,0.2-0.9,0.3-1.2,0.6c0.1-0.2,0.2-0.5,0.2-0.6c0.2-0.3-0.1-0.9-0.2-1
				c-0.1-0.1-0.2-1.7-0.4-2c-0.2-0.3-0.8-0.9-0.9-1c-0.1-0.1,0.1-0.5,0.2-0.7c0.1-0.2-0.7-0.3-0.9-0.1c-0.2,0.1-0.3,1.7-0.4,2.1
				c-0.1,0.4,0.4,1.1,0.5,1.1c0.1,0,0.1,0.8-0.2,0.8c-0.3,0-0.5,1.1-0.4,1.4c0.1,0.3-0.2,0.7-0.4,0.9c-0.2,0.1,1.1,0,1.7,0
				c0.6,0,1,0.2,1,0.3c-0.1,0-1.1,0.2-1.3,0.4c-0.2,0.2-0.9,0.7-1,0.9c-0.1,0.2,0.2,0.6,0.5,0.6c0.3,0,0.6,1,0.9,1.2
				c0.2,0.2,0.1,0.7,0,0.9c-0.1,0.1-1.5-0.1-2,0c-0.5,0.1-1.2,1.2-1.2,1.7c0,0.4,0.1,1.6,0.2,2c0.1,0.3,1.2,0.5,1.4,0.7
				c0.2,0.2,1.3,0,1.5,0.1c0.2,0.1,0.9-1.1,1.1-1.6c0.1-0.6,1.3-1.6,1.5-1.9c0.2-0.4,1.5-0.3,1.8-0.5c0.3-0.2,0.1,0.9,0.3,1.5
				c0.1,0.6,1.3,0.5,1.1,0c-0.2-0.6,0.1-0.8,0.2-0.6c0.1,0.2,1.2,0.7,1.4,1C98.9,106.3,98.8,107,98.6,107z"/>
			<path fill="#F2EFDC" d="M99.2,110.6c-0.2-0.1-0.4-0.2-0.6-0.3c-0.7-0.3-1.2-1.3-1.4-1.5c-0.1-0.1,0.1-0.5,0.1-0.7
				c-0.1-0.2-1.6-0.3-2.1-0.1c-0.5,0.2-2.8,0.4-3.4,0.7c-0.6,0.2-1.4,0-1.7-0.1c-0.3,0-0.9,0.7-1.2,0.9c-0.3,0.1-0.7,1.2-0.9,2.4
				c0,0,0,0-0.4,0.8c-0.3,0.5-0.3,0.5-0.3,0.5c-0.8,0.6-1.6,2.6-1.9,3c-0.3,0.4-0.5,3.2-0.5,4.2c0,1,0.8,3,1.1,3.5
				c0.2,0.6,1.7,1.8,2.2,2.1c0.5,0.3,2,0.3,2.6,0.3c0.5,0,1.1-0.5,1.3-1.1c0,0,0,0,0.8,0.1c0.3,0,0.3,0,0.3,0c0,0.4,1.1,0.8,1.4,0.9
				c0.3,0.1,1,0,1.2,0c0.2-0.1,0.5,1.9,0.3,2.5c-0.2,0.6,0.4,2.6,0.5,3.2c0.2,0.6,0.8,2.2,0.9,2.8c0.1,0.6-0.4,2.5-0.5,3.2
				c-0.1,0.7,0.9,2.6,1.1,3.3c0.2,0.7,0.4,2.1,0.4,2.4c0,0.2,0.3,0.8,0.6,1.4V110.6z"/>
			<path fill="#F2EFDC" d="M71.9,157.5c0.2,0,0.5,0,0.7,0C72.8,156.7,71.9,156.9,71.9,157.5z"/>
			<path fill="#F2EFDC" d="M86.7,84.4c0.4,0.1,1.1-0.4,0.8-0.6c-0.3-0.2-0.1-0.2,0-0.1c0.1,0.1,0.3-0.7,0.1-0.8
				c-0.1-0.1,1.1-1,0.9-1.9c-0.2-0.9,0.3-1.7,0.7-1.7c0.3,0,0.2-1-0.2-1.1c-0.4-0.1,0-0.2,0.1-0.3c0.1-0.1,0.3-1,0.3-1.2
				c-0.1-0.2,0.6-0.3,0.7-0.5c0.1-0.2,0.9-0.6,1.2-0.6c0.3-0.1,0.4-0.8,0.1-0.8c-0.3,0-1.1-0.1-1.2-0.3c-0.1-0.1-1.3-0.3-1.7-0.1
				c-0.3,0.1-0.1-0.8,0.4-0.9c0.5-0.1,0.1-0.8-0.4-0.8c-0.5,0-1.8-0.2-2.1-0.1c-0.3,0.1-0.9-0.2-1.1-0.2c-0.2,0-1.7,0.5-2.4,0.4
				c-0.7,0-2.5,0-2.9,0.1c-0.4,0.1-0.7,0.8-0.6,1.1c0.1,0.3-1.7,0.3-2.3,0.3c-0.6,0-3.5,0.6-4.3,1.1c-0.8,0.4-1.4,1.5-1.1,1.5
				c0.3,0-0.4,0.6-0.8,0.8c-0.4,0.1-1.4,0.2-1.6,0.4c-0.2,0.2,0.2,0.4,0.3,0.5c0.1,0.2,0.4-0.1,0.6,0c0.3,0.1,1.1,0.2,1.3,0.3
				c0.2,0.1-0.7,0.3-1.2,0.3c-0.5,0-0.3,0.9,0,1c0.4,0.1,1.3,0.3,1.4,0.1c0.1-0.2,1.1,0.2,1.6,0.2c0.5,0.1,0.8,1.2,1,1.5
				c0.1,0.3,0.2,1.1,0.1,1.4c0,0.3,0.8,0.7,1,0.6c0.1-0.2,0.1,0.4-0.2,0.4c-0.3,0-0.1,1,0.3,1.1c0.4,0.1,0.1,0.7-0.1,0.9
				c-0.2,0.2-0.1,0.8-0.4,1c-0.2,0.2,0.9,2.2,0.9,3.2c0,1,0.6,1.8,0.9,1.8c0.2,0,1.1,0.2,1.2,0.4c0.1,0.2,0.5-0.1,0.7-0.3
				c0.2-0.2,0.5-0.6,0.7-1.1c0.3-0.4,0.8-2.4,0.9-2.7c0.1-0.2,1-0.1,1.2-0.2c0.2-0.1,0.8-0.6,1-0.7c0.2-0.1,1.5-0.7,1.9-1
				c0.4-0.3,1-1.4,1.3-1.6c0.3-0.2-0.1-0.2-0.5-0.4c-0.4-0.2-0.2-0.5-0.1-0.6C85.2,84,86.3,84.3,86.7,84.4z"/>
			<path fill="#F2EFDC" d="M98.4,75.5c-0.4-0.1-1.2,0.3-1.1,0.5c0.1,0.2-0.6-0.3-1.1,0c-0.5,0.3-0.6,1.2-0.4,1.3
				c0.2,0.1,0.4,0.8,0.4,1c0,0.1,1,0,1.2-0.2c0.2-0.2,0.2,0.7,0,1c-0.2,0.3,0.1,0.8,0.4,0.8c0.3,0,0.6,0.7,0.9,0.7
				c0.1,0,0.3-0.3,0.5-0.6v-3.3l0,0C99,76.6,98.8,75.6,98.4,75.5z"/>
			<path fill="#F2EFDC" d="M89.2,97.8c0.3,0,0.5-0.3,0.5-0.5c0-0.2-0.4-1.4-0.6-1.4c-0.2,0-0.5,0.8-0.7,0.7
				c-0.2-0.1-0.3,0.7-0.3,0.9C88.2,97.9,88.9,97.9,89.2,97.8z"/>
			<path fill="#F2EFDC" d="M88.1,89.6c0.1,0.3,0.5,0.5,0.8,0.4c0.4-0.1,1.1-0.4,1.3-0.5c0.2,0,0.5-1.3,0.4-1.6
				c-0.2-0.3-1.3-0.2-1.6-0.3c-0.3,0-1.2-0.3-1.3-0.5c-0.2-0.2-0.3,0.7-0.6,0.8c-0.3,0.1,0.1,0.3,0.2,0.2c0.1-0.1,0,0.5-0.1,0.7
				C87.1,89.2,88,89.3,88.1,89.6z"/>
			<path fill="#F2EFDC" d="M61.8,89.6c-0.2,0.2,0,1,0.3,1.1c0.4,0,0.9-1.3,1.4-1c0.4,0.3,0.7,0.4,0.7,0.2c-0.1-0.1-1.3-0.7-1.5-0.8
				C62.5,89,62,89.4,61.8,89.6z"/>
			<path fill="#F2EFDC" d="M66.3,118.9c0,0.1,0.8,0.1,0.9-0.1c0.1-0.2,0.1-0.4-0.2-0.4C66.8,118.4,66.3,118.8,66.3,118.9z"/>
			<path fill="#F2EFDC" d="M62.9,117.7c0.4-0.1,0.2,0.5,0.3,0.7c0.1,0.2,1,0.4,1.1,0.5c0.2,0.1,0.6-0.3,1-0.2c0.4,0-0.1-1.2-0.7-1.2
				c-0.6,0-1.1-0.5-1.2-0.6c-0.1-0.1-0.8-0.5-1-0.6c-0.2-0.2-1.7-0.3-2.2-0.3c-0.5,0-1.1,0.5-1.2,0.7c-0.1,0.2,0.8,0.3,1.1,0.2
				c0.3-0.1,1.5,0.2,1.7,0.4C62,117.6,62.5,117.7,62.9,117.7z"/>
			<path fill="#F2EFDC" d="M61.2,118.9c0,0.1,0.8,0.1,1,0.1c0.2,0,0.2-0.1,0-0.3C62,118.6,61.2,118.8,61.2,118.9z"/>
			<path fill="#F2EFDC" d="M61.8,114.9c-0.2-0.1-0.4,0.2-0.4,0.4c0,0.1,0.1,0.3,0.2,0.3S62,115,61.8,114.9z"/>
			<path fill="#F2EFDC" d="M63.4,115.1c-0.1-0.1-0.4-0.3-0.5-0.3c-0.1,0-0.2,0.3-0.2,0.6C62.8,115.7,63.5,115.2,63.4,115.1z"/>
			<path fill="#F2EFDC" d="M64.6,116.9c0.3-0.2,0.4-0.5,0.2-0.5c-0.2,0-0.5-0.5-0.7-0.6c-0.2-0.1-0.4,0.3-0.4,0.5
				c0,0.2,0.1,0.3,0.3,0.3C64.1,116.5,64.3,117,64.6,116.9z"/>
		</g>
		<path fill="#D1ECFB" d="M66.5,79.8c-0.1-0.1-0.3,0.1-0.2,0.2C66.4,80.1,66.6,79.9,66.5,79.8z"/>
		<path fill="#D1ECFB" d="M72.5,97.4c0-0.1-0.3,0.1-0.2,0.2C72.3,97.7,72.6,97.6,72.5,97.4z"/>
	</g>
	<g>
		<defs>
			<path id="SVGID_1_" d="M74.5,74.7c7.3-2.5,15.3-3.9,23.7-3.9c9.1,0,17.8,1.6,25.6,4.6c10.4-6.5,17.1-17.1,17.1-29
				c0-19.8-18.5-35.8-41.3-35.8s-41.3,16-41.3,35.8C58.5,57.9,64.8,68.1,74.5,74.7z"/>
		</defs>
		<clipPath id="SVGID_2_">
			<use xlink:href="#SVGID_1_"  overflow="visible"/>
		</clipPath>
		<g clip-path="url(#SVGID_2_)">
			<path fill-rule="evenodd" clip-rule="evenodd" fill="#F2EFDC" d="M135.6,41.4c0-10.1-8.4-18.2-18.7-18.2c-0.7,0-1.5,0.1-2.2,0.1
				c-3.4-4.8-9-8-15.5-8c-6.4,0-12.1,3.2-15.5,8c-0.7-0.1-1.5-0.1-2.2-0.1c-10.3,0-18.7,8.1-18.7,18.2c0,8.9,6.6,16.3,15.2,17.9
				c0.8,4.7,1.5,9.5,2.3,14.2c0.7,4.3,3.7,7.4,6.7,7c8.2-0.9,16.4-0.9,24.6,0c3,0.3,5.9-2.8,6.7-7c0.6-3.8,1.2-7.6,1.8-11.4
				c-0.2,0-0.4,0-0.6,0c-5.9,0-11.1-2.6-14.6-6.8c3.3,2.7,7.5,4.3,12.1,4.3C127.3,59.6,135.6,51.4,135.6,41.4z"/>
			<path fill-rule="evenodd" clip-rule="evenodd" fill="#DCDAC8" d="M116.9,23.2c-0.7,0-1.5,0.1-2.2,0.1c-3.4-4.8-9-8-15.5-8
				c-0.5,0-0.9,0.1-1.4,0.1v64.5c4.6-0.1,9.1,0.2,13.7,0.7c3,0.3,5.9-2.8,6.7-7c0.6-3.8,1.2-7.6,1.8-11.4c-0.2,0-0.4,0-0.6,0
				c-5.9,0-11.1-2.6-14.6-6.8c3.3,2.7,7.5,4.3,12.1,4.3c10.3,0,18.7-8.1,18.7-18.2C135.6,31.3,127.3,23.2,116.9,23.2z"/>
			<ellipse fill-rule="evenodd" clip-rule="evenodd" fill="#F2EFDC" cx="98.1" cy="33.9" rx="14.6" ry="18.5"/>
		</g>
	</g>
	<g>
		<path fill="#DCDAC8" d="M169.8,122.4l-4.8-1.7c0.2,0.2,0.5,0.4,0.8,0.6c-7.8,19.3-13.1,31.7-20.9,51c-0.7,1.6,0.1,4.3,2.3,5
			c2.1,0.8,4.5-0.8,5-2.4c6.4-19.8,10.3-32.7,16.7-52.5C169.1,122.5,169.4,122.5,169.8,122.4z"/>
		<path fill="#F2EFDC" d="M186.2,111c2.3-8.7,1.5-22-5-24.6c-6.6-2.2-15.8,7.5-19.6,15.6c-3.7,7.6-1.4,16.3,5,19.9
			c-0.1,0.2-0.2,0.5-0.3,0.7c0.5,0.2,1,0.5,1.5,0.7c0.5,0.2,1.1,0.3,1.6,0.5c0.1-0.2,0.2-0.5,0.2-0.7
			C176.8,124.4,184.2,119.2,186.2,111z"/>
		<path fill="#F2EFDC" d="M170.5,123.1l-4.8-1.7c0.2,0.2,0.5,0.4,0.8,0.6c-7.8,19.2-13,31.5-20.8,50.7c-0.7,1.5,0.1,4.2,2.3,5
			c2.1,0.8,4.5-0.8,5-2.4c6.4-19.7,10.2-32.5,16.6-52.2C169.9,123.2,170.2,123.2,170.5,123.1z"/>
		<path fill="#DCDAC8" d="M163,102.7c4-8.3,12.7-16.7,18-14.9c3.5,1.4,5.2,7.5,5.2,14.1c-0.8-3.8-2.3-6.9-4.6-7.8
			c-5.3-1.7-14,6.6-18,14.9c-0.8,1.6-1.3,3.4-1.5,5.1C160.9,110.5,161.2,106.4,163,102.7z"/>
		<path fill="#DCDAC8" d="M168.7,121.3c-0.9-0.4-1.8-0.9-2.5-1.5c0.6,0.4,1.2,0.7,1.8,1c3.2,1,6.6,0.7,9.7-1.1
			c3.7-2.1,6.5-5.8,7.6-10.3c0.1-0.4,0.2-0.9,0.3-1.3c-0.1,0.8-0.3,1.6-0.5,2.4c-1.1,4.2-3.7,7.8-7.2,9.7
			C175,121.9,171.7,122.2,168.7,121.3z"/>
	</g>
	<g>
		<path fill="#F16A54" d="M152.8,83.7l0.8-0.8c2.9-2.9,2.9-7.5,0-10.4l-0.1-0.1c-2.9-2.9-7.5-2.9-10.4,0l-0.8,0.8l-0.8-0.8
			c-2.9-2.9-7.5-2.9-10.4,0l-0.1,0.1c-2.9,2.9-2.9,7.5,0,10.4l0.8,0.8l10.5,10.5L152.8,83.7z"/>
		<path fill="#D95B46" d="M142.3,94.3l10.5-10.5l0.8-0.8c2.9-2.9,2.9-7.5,0-10.4l-0.1-0.1c-2.9-2.9-7.5-2.9-10.4,0l-0.8,0.8"/>
	</g>
</g>
</svg>
