<?xml version="1.0" encoding="utf-8"?>
<!-- Generator: Adobe Illustrator 18.0.0, SVG Export Plug-In . SVG Version: 6.00 Build 0)  -->
<!DOCTYPE svg PUBLIC "-//W3C//DTD SVG 1.1//EN" "http://www.w3.org/Graphics/SVG/1.1/DTD/svg11.dtd">
<svg version="1.1" xmlns="http://www.w3.org/2000/svg" xmlns:xlink="http://www.w3.org/1999/xlink" x="0px" y="0px"
	 viewBox="0 0 257.3 200" enable-background="new 0 0 257.3 200" xml:space="preserve">
<g id="Lag_2">
</g>
<g id="Lag_1">
	<path fill="#99CBD1" d="M60.9,103.3c-0.6-1.4-2.3-2.5-4.3-2.5c-0.5,0-1,0.1-1.4,0.2c-0.9-1.2-2.5-2-4.4-2c-0.5,0-1,0.1-1.4,0.2
		c-0.9-2.2-3.5-3.8-6.6-3.8c-1.6,0-3,0.4-4.2,1.1c-1.9-1.7-4.7-2.8-7.8-2.8c-4,0-7.5,1.8-9.2,4.5c-1.8,0.2-3.3,0.9-4.4,1.9
		c-1-0.7-2.3-1-3.7-1c-3.1,0-5.6,1.9-5.7,4.3H60.9z"/>
	<path fill="#99CBD1" d="M138.7,23.4c0.2-3,3.2-5.4,7-5.4c0.7,0,1.3,0.1,2,0.2c1.2-2.7,4.5-4.6,8.2-4.6c1.7,0,3.3,0.4,4.7,1.1
		c2.3-2.8,6.2-4.7,10.6-4.7c5.5,0,10.1,2.8,11.9,6.8c1.3-0.7,2.9-1.1,4.6-1.1c3.5,0,6.4,1.7,7.7,4.1c1-0.4,2.1-0.7,3.3-0.7
		c3.3,0,6.1,1.9,6.8,4.3H138.7z"/>
	<path fill="#99CBD1" d="M91,33.9c-0.1-1.8-2-3.3-4.2-3.3c-0.4,0-0.8,0-1.2,0.1c-0.8-1.6-2.7-2.8-5-2.8c-1,0-2,0.2-2.8,0.7
		c-1.4-1.7-3.7-2.8-6.4-2.8c-3.3,0-6.1,1.7-7.2,4.1c-0.8-0.4-1.8-0.7-2.8-0.7c-2.1,0-3.9,1-4.7,2.5c-0.6-0.3-1.3-0.4-2-0.4
		c-2,0-3.7,1.1-4.1,2.6H91z"/>
	<path fill="#FFFFFF" d="M74.2,33.9c-0.1-1.8-2-3.3-4.2-3.3c-0.4,0-0.8,0-1.2,0.1c-0.8-1.6-2.7-2.8-5-2.8c-1,0-2,0.2-2.8,0.7
		c-1.4-1.7-3.7-2.8-6.4-2.8c-3.3,0-6.1,1.7-7.2,4.1c-0.8-0.4-1.8-0.7-2.8-0.7c-2.1,0-3.9,1-4.7,2.5c-0.6-0.3-1.3-0.4-2-0.4
		c-2,0-3.7,1.1-4.1,2.6H74.2z"/>
	<path fill="#99CBD1" d="M248.3,110.1c-0.1-1.8-2-3.3-4.2-3.3c-0.4,0-0.8,0-1.2,0.1c-0.8-1.6-2.7-2.8-5-2.8c-1,0-2,0.2-2.8,0.7
		c-1.4-1.7-3.7-2.8-6.4-2.8c-3.3,0-6.1,1.7-7.2,4.1c-0.8-0.4-1.8-0.7-2.8-0.7c-2.1,0-3.9,1-4.7,2.5c-0.6-0.3-1.3-0.4-2-0.4
		c-2,0-3.7,1.1-4.1,2.6H248.3z"/>
	<path fill="#FFFFFF" d="M216.4,21.8c-0.1-1.8-2-3.3-4.2-3.3c-0.4,0-0.8,0-1.2,0.1c-0.8-1.6-2.7-2.8-5-2.8c-1,0-2,0.2-2.8,0.7
		c-1.4-1.7-3.7-2.8-6.4-2.8c-3.3,0-6.1,1.7-7.2,4.1c-0.8-0.4-1.8-0.7-2.8-0.7c-2.1,0-3.9,1-4.7,2.5c-0.6-0.3-1.3-0.4-2-0.4
		c-2,0-3.7,1.1-4.1,2.6H216.4z"/>
	<path fill="#FFFFFF" d="M101.2,146c-0.1-2.1-2.3-3.8-4.9-3.8c-0.5,0-0.9,0.1-1.4,0.2c-0.9-1.9-3.1-3.2-5.8-3.2
		c-1.2,0-2.3,0.3-3.3,0.8c-1.6-2-4.3-3.3-7.4-3.3c-3.8,0-7.1,2-8.3,4.7c-0.9-0.5-2-0.8-3.2-0.8c-2.4,0-4.5,1.2-5.4,2.9
		c-0.7-0.3-1.5-0.5-2.3-0.5c-2.3,0-4.2,1.3-4.7,3H101.2z"/>
	
		<circle fill="none" stroke="#FFFFFF" stroke-width="0.3571" stroke-miterlimit="10" stroke-dasharray="2.1319,2.1321" cx="128.9" cy="107.5" r="70.1"/>
	<g>
		<circle fill="#FFFFFF" cx="200.3" cy="82" r="20.5"/>
		<g>
			<path fill="#E17773" d="M200.3,75.7c-1.4-1.7-2.6-2.7-5.1-2.7c-0.3,0-0.6,0-1,0.1c-2.2,0.2-4.7,2.2-5,6v1.3
				c0.3,3.7,3.1,8.2,11.1,13.9c0,0,0,0,0,0L200.3,75.7C200.3,75.7,200.3,75.7,200.3,75.7z"/>
			<path fill="#CB6B68" d="M206.5,73c-0.4,0-0.7-0.1-1-0.1c-2.5,0-3.7,1.1-5.1,2.7c0,0,0,0,0,0v18.5c8.1-5.7,10.9-10.2,11.1-13.9
				v-1.3C211.2,75.2,208.7,73.2,206.5,73z"/>
		</g>
	</g>
	<g>
		<g>
			<path fill="#99CBD1" d="M68.5,107.7c0,33.5,27.1,60.6,60.6,60.6V47.1C95.6,47.1,68.5,74.3,68.5,107.7z"/>
			<path fill="#7CBCC3" d="M129.1,47.1v121.2c33.5,0,60.6-27.1,60.6-60.6C189.7,74.3,162.6,47.1,129.1,47.1z"/>
		</g>
		<g>
			<path fill="none" d="M117.2,85.1c-1-1.2,1.4-2.2,0.7-2.7c-1.1-0.9-3.2,0-3.1,1.3c0.1,1-1.4,1.1-1.2-0.3c0.4-1.8-2.1-0.9-2.6-0.4
				c-0.7,0.7-1.8,2.3-1.4,3.3c0.5,1.4,2.4,0.3,3.3,0.4c1.5,0.2,2.6,1.1,4.1,1.2C119.8,88.3,118.2,86.2,117.2,85.1
				C116.9,84.7,117.6,85.5,117.2,85.1z"/>
			<path fill="none" d="M127.7,103c-1.2-0.7-2.3-3.1-3.7-3.1c-1.6,0,0.5,4.3,1.1,4.7c0.1,0.1,0.4-0.7,0.6-0.7c0.5-0.1-0.1,3,2.5,1.8
				c1.1-0.5,0.8-0.7,0.8-1.8C129.1,102.8,128.6,103.6,127.7,103C127.4,102.8,128,103.2,127.7,103z"/>
			<path fill="none" d="M130.7,64.5c0.9-0.4-1.4-1.2-1.6-1.3c0,0.5,0,1.1,0,1.6C129.6,64.9,130.2,64.7,130.7,64.5
				C131.1,64.4,130.3,64.7,130.7,64.5z"/>
			<path fill="none" d="M127.8,91.2c-0.2-1.1-0.3-3.4-0.8-4.3c-0.5-0.7-1.2-1.1-0.7-2.1c0.2-0.3,1.3-1.1,1.2-1.5
				c-0.1-0.6-2.7,0-3.1,0.3c-1.5,0.8-0.2,4.2,0.6,5.1c0.9,1-1.2,2.8,0.2,3.7c0.6,0.4,1.8,0.7,2.6,0.7
				C128.8,93.1,127.9,91.7,127.8,91.2z"/>
			<path fill="#037E8C" d="M96.2,70.8c0.6,0,3.7-2,2.8-2.5c-0.4-0.3-3.5,1.7-3.5,2.2C95.6,70.8,95.8,70.9,96.2,70.8z"/>
			<path fill="#037E8C" d="M97.3,72.1c-0.1,0-1.2,0.1-1,0.5c0.8,1.2,3.4,0.7,3.9-0.5c0.5-1.1,2.1-3.5,2.1-4.7
				c-0.1-2.2-2.5,1.2-2.7,1.7C99.3,69.6,97.9,72,97.3,72.1z"/>
			<path fill="#037E8C" d="M123.3,141.3c-0.9,0.3-1.6,1.6-2.3,2.2c-1,0.8-2.2,0.7-2.3,2.3c-0.1,1.8-1.1,6.5,2.5,5.5
				c1.7-0.4,2-2.9,2.5-4.2C123.8,146.4,124.7,140.8,123.3,141.3C123.1,141.4,123.5,141.2,123.3,141.3z"/>
			<path fill="#03717E" d="M177.5,120.2c0.1,0.4,0.2,2.9,0.8,2.8c1.1-0.1,3-0.5,3-1.9c0-1.2,0.6-2.8,0.9-4.1c0.2-1-0.2-1.7-0.1-2.7
				c0.1-0.4,0.2-3.6-0.9-2.2c-0.5,0.7-0.8,1.8-1.1,2.6c-0.3,0.8-0.6,1.5-0.8,2.3C179,118.2,177.3,119.2,177.5,120.2z"/>
			<path fill="#03717E" d="M182.6,105c0.2,0.3,2,4.1,2.2,3.9c1-0.9-0.1-4.3-0.6-5.3c-0.3-0.6-2.8-5.2-3-5.2
				C179.2,98.4,182.3,104.5,182.6,105z"/>
			<path fill="#03717E" d="M169.5,112.7c0.1,1-0.1,2.2,0.2,3.1c0.2,0.7,1.3,1.2,1.6,2c0.4,0.9,0.3,1.9,1.1,2.5
				c0.6,0.4,3,1.2,1.7-0.3c-0.6-0.7-0.3-1.6-1-2.3c-0.9-1-1.8-1.6-2.4-2.8c-0.3-0.6-0.2-5.2,0.3-4.7c0.1,0.2,0.1,0.4,0.2,0.7
				c0.3,0.3,1.2,0.2,1.6,0.6c0.1,0.1,2.2,1.6,1.7,1.9c2.1-1.1,1.9-5.1,1.1-6.7c-1.2-2.5-3.7-3.6-1.8-6.6c1-1.7,0.9,3.9,1.8,2.4
				c0.5-0.8-0.1-1.7-0.3-2.5c-0.2-1,1.2-2.3,1.6-3.2c1.8-4.2,0.6-9.6-3.1-12.1c-0.8-0.5-0.9-1.5-0.7-2.5c0.3-1.1-0.9-1.4-1-0.4
				c-0.1,0.5-2.9-1.7-1.6-3.1c0.3-0.3,0.9,0.8,1.1,0.8c0.6,0,0.3-2,1.2-0.4c0.1,0.2,3.2,3,2.9,3.2c1.1-0.7-1.2-3.1-1.6-3.5
				c-1.2-1.2-1.6-2.4-2.2-3.9c-1.2-3.2-2-5.9-4.8-8.2c-0.3-0.3-2.9-2.8-3.5-2.3c-0.9,0.8-2.3-1.5-2.8-2.1c-1.1-1.3-1.1-2.1-1.6-3.5
				c-0.4-1.3-2.4-1.5-3.1-2.6c0.4,0.6,3.8,2,4.5,2.5c1.1,0.7,2.3,1.7,3.6,2.2c-0.7-0.3-2.1-1.9-2.8-2.4c-1.6-1.2-3.3-2.2-5-3.2
				c-1.8-1.1-3.6-1.9-5.5-2.7c-0.8-0.3-3.7-1.9-4.4-1.6c-0.7,0.3,1.6,1.8,1.8,2c0.6,0.6,0.2,1.2-0.2,1.9c-0.1,0.1-1,0.7-0.5,0.9
				c0.5,0.2,0.4,0.7,0.2,1.1c-0.4,0.9-2.6-0.5-2.8,0c-0.3,0.8,0.1,0.8-1.3,1.1c-0.7,0.2-1,1.4-1.5,0.3c-1.1-2.4-4.3-0.5-4.8,1.3
				c-0.4,1.4-0.6,2.1-2.2,2.6c-1,0.4-0.5-0.3-1.4-0.6c-1-0.3,0,2.8-0.2,2.8c-0.7,0.2-3.6-0.8-3.8-1.7c-0.3-1.8,1.9-2.4,2.5-3.8
				c-2.6,0.8-3.4,1.7-3.4,4.3c0,0.7,3.7,1.5,0.1,1.8c-0.1,0-0.1,0.4-0.1,0.5c0,4,0,8,0,12c0,8.6,0,17.2,0,25.8
				c1.6-0.1,1.5-0.2,2.5,0.8c0.6,0.6,2.8,0.4,3.6,0.5c1.6,0.2,3.3-0.5,4.8-0.2c0.4,0.1,2.2,1.8,2.3,2.3c0.5,1.3,1.8,2.1,3,1.3
				c1.5-1,1.3,1,1.4,2.1c0.5,3.6,2.8,6.2,4.1,9.4c1.3,3.1,3.2-2.3,3.1-3.6c-0.1-1.7-0.4-2.6,0.8-4c1.1-1.3,2.1-2.7,3.1-4.2
				c0.6-1,0.8-2.3,1.9-2.7c1.4-0.5,1.8-1.7,3.1-0.5c1.1,1.1,2.6,2.2,2.6,4c0,2.4,2.1-0.6,2-0.6C168.5,108.7,169.3,111.4,169.5,112.7
				C169.5,113.4,169.4,112.1,169.5,112.7z"/>
			<path fill="#03717E" d="M179.9,94.7c0-0.2-0.5-2.1-1-2c-0.6,0.2,0.3,2.6,0.9,2.4C179.8,94.9,179.8,94.8,179.9,94.7
				C179.8,94.2,179.9,95.1,179.9,94.7z"/>
			<path fill="#03717E" d="M155,119.5c-1-0.6-0.8,1.9-0.4,2.3C155.5,122.8,156.3,120.3,155,119.5C154.5,119.3,155.4,119.8,155,119.5
				z"/>
			<path fill="#037E8C" d="M129,47.6c-5.4,0-10.9,1.3-16.1,2.7c-0.7,0.2-8.7,1.8-8.7,3c0,1.1,6.5-0.6,7.2-0.8
				c1.4-0.4,2.7-0.9,4.1-1.4c0.1,0,3.7-1,3.2-0.2c-0.4,0.7-3.6,1.1-4.6,1.4c-1.5,0.5-3,1-4.5,1.5c-1.7,0.5-3.4,1-5,1.7
				c-0.7,0.3-5.2,2.3-5.2,3.1c0,0,4.2-1,4.5-1c2.5-0.2,4.6,0.7,7.1,0c1.3-0.4,11.6-3.9,11.1-4.7c0.4,0.6-0.2,1.5,0.2,2.1
				c0.4,0.6,1.6,0.8,2.2,1c1.5,0.4,3,0.4,4.5,0.5C129.1,55.7,129.2,47.6,129,47.6z"/>
			<path fill="#03717E" d="M132.1,57.1c3.5-1.6,6.1-0.1,9.6-0.4c1-0.1,0.5-0.5,1.2-0.9c0.7-0.4,1.8-0.2,2.5-0.2c0.5,0,0-4-0.2-4.2
				c-0.7-0.8-2.8-1.1-3.7-1.6c-1-0.5-2-1.2-3-1.4c-3-0.6-6.3-0.8-9.3-0.8c0,1.9,0,3.8,0,5.8c0,1,0,1.9,0,2.9
				C129.1,57,131.4,57.4,132.1,57.1C132.4,57,131.8,57.3,132.1,57.1z"/>
			<path fill="#03717E" d="M129.6,113c1.7-1.3,2.5-2.4,3.6-4.2c0.8-1.2-0.6-1.9-1.5-2.4c-1.6-0.9-0.5-2.6-2.7-1.1
				c-0.4,0.7,0,2.9,0,3.7c0,1.4,0,2.9,0,4.3C129.3,113.2,129.4,113.1,129.6,113C129.9,112.7,129.5,113.1,129.6,113z"/>
			<path fill="#2A3D4D" d="M128.5,62.2c-0.1,0.5,0.2,0.9,0.6,1.1c0-0.7,0-1.5,0-2.2C128.8,61.4,128.6,61.8,128.5,62.2
				C128.4,62.6,128.6,61.9,128.5,62.2z"/>
			<path fill="#03717E" d="M187.4,121c-1.3,1.4-1.7,5.5-3.3,6.4c-0.8,0.5-1.1,1.9-1.5,2.7c-0.8,1.8-1.8,3.5-3.1,5
				c-1.6,1.9-3.2,3.6-4.3,5.9c-0.4,0.8-0.8,1.7-1.2,2.5c-0.5,0.9-2.3,2.9-2.3,3.9c0.1,1.5,4-1.3,4.3-1.7c0.2-0.3,0.4-0.6,0.6-0.9
				c1.4-2.2,2.8-4.4,4.1-6.6c3-5.2,7.2-11.8,7.6-18C187.9,120.4,187.7,120.7,187.4,121C187,121.5,187.9,120.5,187.4,121z"/>
			<path fill="#037E8C" d="M127.5,65.1c-0.9,0.1-2.9,1-3.8,1.4c-0.6,0.2-4.1,2.1-3.2-0.6c0.3-0.9,4.8,0.9,1.2-2
				c-2.1-1.7-3.8-1.7-6.3-0.8c-2.8,1-8,2.2-9.5,4.8c-1,1.7,3.3,0.7,0.9,3.3c-1.2,1.2,1.9,0.2,2.4-0.5c0.6-0.7,0.9-0.6,1.6-1
				c0.5-0.3,0.1-1.2,0.6-1.8c0.4-0.4,5.3-3.2,5.3-2c0,1.4-4.1,1.4-3.5,3.6c0.1,0.6,2.3,0,2.8,0.5c0.7,0.6-2.7,0.6-2.8,0.6
				c-1.4,0.3-2.4,2.9-3.5,2.8c-0.8,0-0.8,0.1-1.6-0.1c-1.1-0.2-1.7-0.2-2.7-0.6c-0.6-0.2,0.6-1.5,0.7-2.4c0.1-0.9-1.5,0.4-1.6,0.7
				c-0.5,1.4-0.8,1.4-2.2,1.4c-1.5,0.1-3.1,1.4-4.7,1.6c-0.9,0.1-1.5,0.3-2.3-0.1c-0.9-0.4-0.2,1.7-0.4,2.1
				c-0.6,0.8-1.3,3.5-2.8,2.4c-2-1.5-3.3,0.3-4.4,2c-1.5,0.1-0.6,2.3-0.6,3.2c-0.1,2.5,4.8-1.4,5.1-1.6c0.9-0.5,1.8-1.2,2.6-1.7
				c0.9-0.5,1,0.5,1.7,0.6c1.5,0.3,1.7-0.1,2.3,1.6c0.4,1.1,1.3,2.3,1.3,3.6c-0.1,1.8-3.8,0.5-2,2.3c1,1,2.7-2.2,3.1-2.5
				c0.2-0.2,0.4,0.5,0.7,0.3c0,0-1.3-3.4-1.3-3.9c-0.2-1.3,0.6-3.3,1-1.2c0.2,1.2,1.7,2.9,1.4,4.1c-0.1,0.4,0.2,4.5,0.4,4.5
				c-0.3,0.1,2.1-1.6,1.9-0.9c0.2-0.6-1-1-0.3-1.7c0.5-0.4,1.4-0.6,2-0.4c1.1,0.5-0.1,2.7,0.4,3.7c1.3,2.3,6.4,0.1,5.6,3.6
				c-0.9,4.2-5,3.1-7.9,1.9c-1.3-0.5-3-2.3-4.4-1.7c-0.7,0.3-0.7,1.1-1.3,1.3c-0.8,0.3-2.3-1.4-2.3-2.1c0-1.2-2-2.1-2.4-3.3
				c-0.4-0.9,2.5-2.2,1.4-3.1c-0.5-0.4-1.5-0.1-2.2-0.2c-0.9-0.2-1.5-0.8-2.4-1c-0.9-0.2-1.7,0.1-2.6-0.1c-0.8-0.2-1.9-1.6-2.7-0.8
				c-0.6,0.6-1.3,0.6-1.9,1.1c-0.7,0.5-1,1.3-1.5,1.9c-1,1.1-2.5,1.6-3.6,2.7c-1.7,1.6-3.2,3.3-3.8,5.7c-1.2,5-2.1,10.8,0.2,15.6
				c0.6,1.8,2.5,2.3,3.9,3.2c1.3,0.8,2.8-0.3,3.9,1.4c0.8,1.3,2.3,1.4,3.1,2.5c1.3,1.9-0.1,4,0.5,6c0.6,2.1,3.2,5.2,3,7.5
				c-0.1,1.2,1.3,1.9,0.7,3.3c-0.7,1.7-0.5,3.3,0.4,4.9c1.5,2.6,3,6.1,5,8.2c2.4,2.5,3.7,5.4,7.4,5.6c1.9,0.1,6.2-0.4,5.7-3.4
				c-0.2-1.4,2.2-1.1,1.5-3.1c-0.7-1.7,0.8-2.6,2.1-3.3c1.2-0.6,2.8-1,2.3-2.7c-0.4-1.5-0.6-2.7-1.1-4.2c-1-2.7-0.5-4.8,1.7-6.8
				c3.6-3.2,7.7-5.5,9.1-10.5c0.7-2.3-3-1.4-4.1-1.2c-3,0.4-3.7-2.3-5.6-4.3c-1.8-1.8-2.7-4.7-3.1-7.2c-0.1-0.8-2.2-7.6-1.5-7.3
				c1.7,0.5,2.8,4.9,3.3,6.4c0.8,2.5,2.3,4.6,3,7.2c0.3,0.9,0.5,1.9,1,2.8c0.5,0.9,2.1-0.1,2.9-0.2c1.5-0.3,2.9-0.5,4.2-1.3
				c1-0.6,1.9-1.7,3.1-1.9c2.2-0.5,1.1-6.4,1.1-8.3c-0.6,0.4-2.1,1.1-2.8,0.6c-0.3-0.2,0-2-0.5-1.9c-0.2,0-0.5,0.8-0.6,0.7
				c-0.7-0.4-2.8-4.7-1.1-4.7c2.1,0,2.5,3.4,5.1,3.3c0-12.8,0-25.6,0-38.4C128.6,64.9,128.1,65,127.5,65.1
				C127.1,65.2,128,65,127.5,65.1z M118.6,87.5c-0.5,0.9-2.7,0.5-3.5,0.2c-1.7-0.8-2.4-0.7-4.1-0.7c-4,0,0.6-5.8,2.1-4.7
				c0.7,0.5,0.2,2.2,1.1,2.1c1.3-0.1-0.1-1.7,1.3-2c0.7-0.1,4.1,0,2,1.1C115.3,84.7,119.5,86,118.6,87.5
				C118.4,87.9,118.8,87.1,118.6,87.5z M127.7,93.1c-4.3,0-2.1-2.7-3.2-5.1c-0.5-1-1.5-3.6-0.2-4.4c0.4-0.2,3-0.8,3.1-0.3
				c0.1,0.4-1,1.1-1.2,1.5c-0.6,1.3,0.9,1.5,0.9,2.5C127.1,88.4,128.6,93.1,127.7,93.1z"/>
			<path fill="#03717E" d="M174.1,127.7c1.4,1.4,4.4,0.1,6-0.4c0.6-0.2,4-3.2,3.6-3.3c-0.4-0.1-2.6,1.7-3.2,1.9
				c-1.3,0.5-3,0.9-4.3,1c-1.5,0.1,0.1-2.4,0-2.8c-0.1-0.4-1.7-0.3-2.1-1.1c-0.5-0.9-6.1-4.3-6.1-2.9c0,1,2.4,2.6,3,3.5
				C171.9,125.1,172.8,126.3,174.1,127.7z"/>
		</g>
	</g>
	<path fill="#FFFFFF" d="M183.6,161.8c-0.1-1.8-2-3.3-4.2-3.3c-0.4,0-0.8,0-1.2,0.1c-0.8-1.6-2.7-2.8-5-2.8c-1,0-2,0.2-2.8,0.7
		c-1.4-1.7-3.7-2.8-6.4-2.8c-3.3,0-6.1,1.7-7.2,4.1c-0.8-0.4-1.8-0.7-2.8-0.7c-2.1,0-3.9,1-4.7,2.5c-0.6-0.3-1.3-0.4-2-0.4
		c-2,0-3.7,1.1-4.1,2.6H183.6z"/>
	<g>
		<circle fill="#1E4344" cx="60.9" cy="88" r="26.3"/>
		<path fill="#163233" d="M72,80.9c-1.2-1.3-3-2.2-4.9-2.2c-0.3,0-0.5,0-0.8,0c-1.2-1.7-3.2-2.8-5.4-2.8c-0.2,0-0.3,0-0.5,0
			c-2.1,0.1-3.9,1.2-4.9,2.8c-0.3,0-0.5,0-0.8,0c-3.6,0-6.6,2.9-6.6,6.4c0,1.9,0.9,3.6,2.2,4.8l0,0l3.4,3.4c0.2,1,0.3,2,0.5,3
			c0.1,0.8,0.5,1.5,0.9,1.9l0,0l14.5,14.5c8-2.9,14.2-9.5,16.5-17.7L72,80.9L72,80.9z"/>
		<g>
			<path fill-rule="evenodd" clip-rule="evenodd" fill="#F2EFDC" d="M73.6,85.1c0-3.5-2.9-6.4-6.6-6.4c-0.3,0-0.5,0-0.8,0
				c-1.2-1.7-3.2-2.8-5.4-2.8c-2.3,0-4.3,1.1-5.4,2.8c-0.3,0-0.5,0-0.8,0c-3.6,0-6.6,2.9-6.6,6.4c0,3.1,2.3,5.7,5.3,6.3
				c0.3,1.7,0.5,3.3,0.8,5c0.3,1.5,1.3,2.6,2.3,2.5c2.9-0.3,5.7-0.3,8.6,0c1,0.1,2.1-1,2.3-2.5c0.2-1.3,0.4-2.7,0.6-4
				c-0.1,0-0.1,0-0.2,0c-2.1,0-3.9-0.9-5.1-2.4c1.1,0.9,2.6,1.5,4.2,1.5C70.7,91.5,73.6,88.6,73.6,85.1z"/>
			<path fill-rule="evenodd" clip-rule="evenodd" fill="#DCDAC8" d="M67.1,78.7c-0.3,0-0.5,0-0.8,0c-1.2-1.7-3.2-2.8-5.4-2.8
				c-0.2,0-0.3,0-0.5,0v22.6c1.6,0,3.2,0.1,4.8,0.2c1,0.1,2.1-1,2.3-2.5c0.2-1.3,0.4-2.7,0.6-4c-0.1,0-0.1,0-0.2,0
				c-2.1,0-3.9-0.9-5.1-2.4c1.1,0.9,2.6,1.5,4.2,1.5c3.6,0,6.6-2.9,6.6-6.4C73.6,81.6,70.7,78.7,67.1,78.7z"/>
			<ellipse fill-rule="evenodd" clip-rule="evenodd" fill="#F2EFDC" cx="60.5" cy="82.5" rx="5.1" ry="6.5"/>
		</g>
	</g>
	<g>
		<circle fill="#1E4344" cx="182.4" cy="148.2" r="15.4"/>
		<path fill="#163233" d="M188.7,143.8C188.7,143.8,188.7,143.8,188.7,143.8c0,0-0.2,0-0.2,0c0,0,0,0,0,0c-0.2,0-0.4,0-0.5,0.2
			c-0.1,0-0.2,0-0.3,0c-0.2,0.1-0.3,0.3-0.3,0.5c0-0.1-0.1-0.1-0.1-0.1c-0.2-0.2-0.5-0.4-0.7-0.5c-2.5-0.6-5.1-0.6-7.6,0
			c0,0-0.1,0-0.1,0c-1.3,0.3-1.4-0.2-2.8-0.1c-0.3,0-0.6,0.1-0.9,0.2c0.3,0.5,0.5,0.8,0.9,1.2c0.3,0.3,0.6,0.5,0.9,0.8
			c-0.3-0.2-0.6-0.4-0.9-0.6c-0.4,0.4-0.7,0.8-1.1,0.9c0,0-0.1-0.1-0.1-0.1c-0.1,0-0.2,0.1-0.2,0.2v1h0l0,0l4.8,4.8
			c-0.1,0.2-0.2,0.4-0.1,0.4l0,0l9.4,9.4c4.1-1.8,7.3-5.5,8.5-9.9L188.7,143.8z"/>
		<g>
			<g>
				<path fill="#DCDAC8" d="M181.9,151.9l-0.2-1.5c-0.4,0-0.8,0-1.1,0c0,0,0.5,1.2,0.6,1.4c0,0.2-0.5,0.8-0.2,0.8
					c0.4,0.1,0.8-0.1,0.9-0.1C181.8,152.2,181.6,151.7,181.9,151.9z"/>
				<path fill="#DCDAC8" d="M178.6,144c0,0,0.1,0,0.1,0c0.1,0,0.1,0,0.2,0c-0.3-0.2-0.6-0.5-1.3-0.7c-0.3-0.1-0.5-0.1-0.8-0.1
					c0.1,0.2,0.1,0.4,0.2,0.6C177.5,144,177.8,144.2,178.6,144z"/>
				<path fill="#F2EFDC" d="M188.6,144c0-0.1,0.1-0.1,0.1-0.1c0,0-0.2,0-0.2,0c0,0,0,0,0,0c-0.2,0-0.4,0-0.5,0.2c-0.1,0-0.2,0-0.3,0
					c-0.2,0.1-0.3,0.3-0.3,0.5c0-0.1-0.1-0.1-0.1-0.1c-0.2-0.2-0.5-0.4-0.7-0.5c-2.5-0.6-5.1-0.6-7.6,0c0,0-0.1,0-0.1,0
					c-1.3,0.3-1.4-0.2-2.8-0.1c-0.3,0-0.6,0.1-0.9,0.2c0.3,0.5,0.5,0.8,0.9,1.2c0.3,0.3,0.6,0.5,0.9,0.8c-0.3-0.2-0.6-0.4-0.9-0.6
					c-0.4,0.4-0.7,0.8-1.1,0.9c0,0-0.1-0.1-0.1-0.1c-0.1,0-0.2,0.1-0.2,0.2v1h1c-0.2,0.1-0.3,0.2-0.5,0.3c0.3,0.1,0.6,0.1,0.9,0.2
					c0,0,0,0,0.1,0c0.2,0.4,0.5,0.8,0.9,0.9c0.4,0.1,1,0.4,1.6,0.6c0,0,0.1,0.1,0.2,0.1c0.3,0.6,0.9,1.7,0.9,2.1
					c0,0.2-0.7,1-0.3,1.1c0.3,0.1,1-0.1,1-0.1c0-0.4-0.1-0.9,0.2-0.6l-0.2-2.1c1.3,0.2,2.5,0.2,3.8,0.1c0.2,0.2,0.4,0.3,0.6,0.4
					c0.4,0.2,0.7,0.3,1,0.2c0,0.6-0.3,1.3-0.3,1.3c0,0-0.9,0.7-0.6,0.9c0.3,0.2,1,0.1,1,0.1c0.1-0.3,0-0.6,0.4-0.5l0.8-2.3
					c0-0.3-0.3-0.1-0.2-0.7c0.4-0.3,0.7-0.8,0.8-1.4c0.1-0.4,0.2-0.9,0.2-1.4c0-0.6-0.1-1.1-0.3-1.6c0,0,0,0,0,0
					c0-0.2-0.1-0.3-0.1-0.5c0-0.1,0-0.3,0-0.4c0-0.1,0.2-0.1,0.2-0.1c-0.1,0.2-0.1,0.5,0.1,0.5c0.2,0,0.3-0.1,0.3-0.4
					c0-0.1-0.1-0.2-0.2-0.2c0-0.1,0.1-0.1,0.1-0.2c0,0,0.1,0,0.1,0.1c-0.1,0.2-0.1,0.4,0.2,0.3C188.8,144.3,188.8,144.1,188.6,144z
					 M188.1,144.5C188.1,144.5,188.1,144.5,188.1,144.5c0,0.1,0,0.1,0,0.1C188.1,144.6,188.1,144.5,188.1,144.5z"/>
			</g>
			<path fill="#DCDAC8" d="M187.3,147.8c0,0.6-0.5,1-1,1h-8.9c-0.6,0-1-0.5-1-1l0,0c0-0.6,0.5-1,1-1h8.9
				C186.9,146.7,187.3,147.2,187.3,147.8L187.3,147.8z"/>
			<ellipse fill="#DCDAC8" cx="182.2" cy="148.6" rx="4.6" ry="0.9"/>
			<ellipse fill="#F2EFDC" cx="182.2" cy="146.4" rx="4.9" ry="0.9"/>
			<path fill="#DCDAC8" d="M186.9,150.3c-0.8-0.9-1.2-1.7-1.2-2.3c-1,0.3-1.6,0.7-1.6,1.2c0,0.5,0.7,0.9,1.7,1.2
				C186.2,150.4,186.5,150.4,186.9,150.3z"/>
			<path fill="#DCDAC8" d="M176.1,145.7c-0.1,0.2-0.2,0.5-0.2,0.8c0,0.8,0.5,1.4,1,1.4c0.5,0,0.9-0.4,1-1
				C177.1,146.7,176.4,146.3,176.1,145.7z"/>
			<path fill="#DCDAC8" d="M176.6,147.2c0,0.1-0.1,0.3-0.3,0.3H175c-0.1,0-0.3-0.1-0.3-0.3V147c0-0.1,0.1-0.3,0.3-0.3h1.3
				c0.1,0,0.3,0.1,0.3,0.3V147.2z"/>
			<path fill="#DCDAC8" d="M176.1,146C176.1,146,176,146,176.1,146c-0.3,0.4-0.7,0.7-1.2,0.7c-0.1,0.1-0.1,0.3-0.1,0.4
				c0.5,0.3,1.2,0.5,1.9,0.5c0.3,0,0.5,0,0.7-0.1c0-0.1,0-0.1,0-0.2C177.4,146.8,176,146,176.1,146z"/>
		</g>
	</g>
	<path fill="#99CBD1" d="M212.7,166.6c-0.1-2.4-2.6-4.3-5.5-4.3c-0.5,0-1.1,0.1-1.5,0.2c-1-2.1-3.5-3.7-6.5-3.7
		c-1.4,0-2.6,0.3-3.7,0.9c-1.8-2.2-4.9-3.7-8.4-3.7c-4.3,0-8,2.2-9.4,5.3c-1.1-0.6-2.3-0.9-3.7-0.9c-2.7,0-5.1,1.3-6.1,3.2
		c-0.8-0.3-1.7-0.5-2.6-0.5c-2.6,0-4.8,1.5-5.4,3.4H212.7z"/>
	<g>
		<circle fill="#C7B299" cx="95.5" cy="170.3" r="18.3"/>
		<path fill="#998675" d="M102.8,161.9l-0.6-0.6l-0.9,1l-1.5-1.5l0,0l-0.8-0.4l-2.9,6.2c-0.2-0.3-0.6-0.5-1-0.5
			c-0.4,0-0.8,0.2-1.1,0.6c-0.2-0.1-0.5-0.1-0.8-0.1c-0.7,0-1.3,0.2-1.8,0.6c-0.3-0.1-0.7-0.2-1.1-0.2c-1.4,0-2.5,1-2.8,2.2
			c-0.1,0-0.3-0.1-0.4-0.1c-0.7,0-1.2,0.6-1.2,1.2c0,0.1,0,0.3,0.1,0.4h-0.5c0.5,1.4,1.4,2.7,2.5,3.7l0,0l13.2,13.2
			c6.6-2.1,11.6-7.9,12.6-15L102.8,161.9L102.8,161.9z"/>
		<g>
			<circle fill="#F2EFDC" cx="94.9" cy="167.3" r="1.2"/>
			<circle fill="#F2EFDC" cx="96.8" cy="167.7" r="1.2"/>
			<circle fill="#DCDAC8" cx="95.1" cy="167.2" r="0.7"/>
			<polygon fill="#D95B46" points="99.7,160.8 92.7,173.3 98.9,160.4 			"/>
			<polygon fill="#D95B46" points="102.8,162 92.9,172.2 102.1,161.3 			"/>
			<ellipse fill="#F2EFDC" cx="94.4" cy="170.6" rx="6.9" ry="3.5"/>
			<circle fill="#F2EFDC" cx="87" cy="170.3" r="1.2"/>
			<circle fill="#F2EFDC" cx="102.5" cy="170.2" r="1.2"/>
			<circle fill="#F2EFDC" cx="98.8" cy="168" r="1.2"/>
			<circle fill="#F2EFDC" cx="90.2" cy="169.7" r="2.8"/>
			<circle fill="#F2EFDC" cx="100.5" cy="170.2" r="2.8"/>
			<ellipse fill="#DCDAC8" cx="100.5" cy="171" rx="2.7" ry="2.6"/>
			<circle fill="#DCDAC8" cx="97" cy="170.5" r="2.8"/>
			<circle fill="#F2EFDC" cx="93.1" cy="169.3" r="2.8"/>
			<circle fill="#DCDAC8" cx="99.3" cy="169.3" r="1.2"/>
			<circle fill="#DCDAC8" cx="95.5" cy="170.3" r="1.2"/>
			<circle fill="#DCDAC8" cx="92" cy="170.3" r="1.2"/>
			<circle fill="#DCDAC8" cx="89.6" cy="169.9" r="0.4"/>
			<circle fill="#DCDAC8" cx="92.3" cy="168.1" r="0.4"/>
			<circle fill="#DCDAC8" cx="94.2" cy="170.5" r="0.4"/>
			<path fill="#2D4124" d="M97.9,176.9c0,0.4-0.3,0.7-0.7,0.7H92c-0.4,0-0.7-0.3-0.7-0.7l0,0c0-0.4,0.3-0.7,0.7-0.7h5.1
				C97.6,176.2,97.9,176.5,97.9,176.9L97.9,176.9z"/>
			<path fill="#405933" d="M85.3,170.7c1.4,3.8,5,6.4,9.3,6.4c4.2,0,7.9-2.7,9.3-6.4H85.3z"/>
			<path fill="#2D4124" d="M94.6,177.2c4.2,0,7.9-2.7,9.3-6.4h-9.3V177.2z"/>
		</g>
	</g>
	<g>
		<circle fill="#F2EFDC" cx="141.6" cy="28.1" r="15.7"/>
		<path fill="#DCDAC8" d="M147.7,20.1L147.7,20.1C147.7,20.1,147.7,20.1,147.7,20.1c-0.3-0.2-0.7-0.2-0.9,0
			c-0.1,0.1-0.1,0.1-0.1,0.2c-0.3,0-0.6,0.1-0.8,0.3c0,0,0,0,0,0c-0.1-0.1-0.3-0.2-0.5-0.2c0-0.2-0.1-0.3-0.3-0.4
			c-0.3-0.2-0.6-0.1-0.8,0.1c-0.4-0.2-0.9-0.1-1.2,0.2c-0.3-0.2-0.7-0.1-0.8,0.2c-0.1,0.2-0.1,0.5,0,0.7c-0.1,0.1-0.1,0.1-0.2,0.2
			c-0.3,0.5-0.2,1.2,0.3,1.5c0.2,0.1,0.3,0.2,0.5,0.2c-0.3,0.6-0.7,1.2-1,1.8c-0.8-0.1-1.6,0.2-2.2,1l-6.2,8.9
			c-0.5,0.7-0.6,1.1-0.4,1.2l7.9,7.9c0.2,0,0.4,0,0.6,0c8.2,0,14.9-6.2,15.6-14.2L147.7,20.1z"/>
		<g>
			<g>
				<path fill="#71841F" d="M143.1,26.3c-0.5,0.4-0.6,0.2-0.3-0.3c0.9-1.2,1.9-2.3,2.9-3.4c0.4-0.4,0.9-0.5,1.1-0.3c0,0,0,0,0,0
					c0.2,0.2,0.1,0.6-0.3,1.1C145.5,24.4,144.3,25.4,143.1,26.3z"/>
				<circle fill="#71841F" cx="145.4" cy="21.1" r="0.6"/>
				<circle fill="#71841F" cx="147.2" cy="20.6" r="0.6"/>
				<circle fill="#71841F" cx="148.2" cy="22.2" r="0.6"/>
				<circle fill="#71841F" cx="147.5" cy="21.9" r="0.9"/>
				<circle fill="#71841F" cx="145.6" cy="22.1" r="1.1"/>
				<circle fill="#71841F" cx="146.6" cy="21.4" r="1.1"/>
				<circle fill="#71841F" cx="146.9" cy="23" r="1.1"/>
			</g>
			<g>
				<path fill="#879C29" d="M141.5,26.7c-0.4,0.5-0.6,0.4-0.3-0.2c0.6-1.3,1.3-2.7,2.1-3.9c0.3-0.5,0.7-0.7,1-0.6c0,0,0,0,0,0
					c0.2,0.1,0.2,0.6-0.1,1.1C143.4,24.4,142.5,25.6,141.5,26.7z"/>
				<circle fill="#879C29" cx="142.8" cy="21" r="0.6"/>
				<circle fill="#879C29" cx="144.8" cy="20.6" r="0.6"/>
				<circle fill="#879C29" cx="145.6" cy="21.6" r="0.6"/>
				<circle fill="#879C29" cx="144.8" cy="21.5" r="0.9"/>
				<circle fill="#879C29" cx="143" cy="22.1" r="1.1"/>
				<circle fill="#879C29" cx="143.9" cy="21.2" r="1.1"/>
				<circle fill="#879C29" cx="144.5" cy="22.6" r="1.1"/>
			</g>
			<g>
				<path fill="#879C29" d="M142.1,27.8c-0.5,0.4-0.4,0.6,0.2,0.3c1.3-0.6,2.7-1.3,3.9-2.1c0.5-0.3,0.7-0.7,0.6-1c0,0,0,0,0,0
					c-0.1-0.2-0.6-0.2-1.1,0.1C144.4,25.9,143.2,26.8,142.1,27.8z"/>
				<circle fill="#879C29" cx="147.8" cy="26.5" r="0.6"/>
				<circle fill="#879C29" cx="148.2" cy="24.5" r="0.6"/>
				<circle fill="#879C29" cx="147.1" cy="23.7" r="0.6"/>
				<circle fill="#879C29" cx="147.2" cy="24.4" r="0.9"/>
				<circle fill="#879C29" cx="146.6" cy="26.2" r="1.1"/>
				<circle fill="#879C29" cx="147.6" cy="25.4" r="1.1"/>
				<circle fill="#879C29" cx="146.1" cy="24.8" r="1.1"/>
			</g>
			<g>
				<path fill="#FBAB18" d="M134.3,35.5c-1.2,0.9-1.6,0.6-0.7-0.7l6.2-8.9c0.9-1.2,2.5-1.4,3.5-0.3l0.1,0.1c1.1,1.1,0.9,2.7-0.3,3.5
					L134.3,35.5z"/>
				<path fill="#E39910" d="M143.5,25.8L143.5,25.8L133.1,36c0.1,0.1,0.5,0,1.1-0.4l8.9-6.2C144.4,28.4,144.5,26.8,143.5,25.8z"/>
				<g>
					<defs>
						<path id="SVGID_1_" d="M134.3,35.5c-1.2,0.9-1.6,0.6-0.7-0.7l6.2-8.9c0.9-1.2,2.5-1.4,3.5-0.3l0.1,0.1
							c1.1,1.1,0.9,2.7-0.3,3.5L134.3,35.5z"/>
					</defs>
					<clipPath id="SVGID_2_">
						<use xlink:href="#SVGID_1_"  overflow="visible"/>
					</clipPath>
					<g clip-path="url(#SVGID_2_)">
						<path fill="#FBAB18" d="M142.8,29.2c-1-1.1-0.9-1.2,0.2-0.2l7.9,7.1c1.1,1,1.8,2.1,1.5,2.4l0,0c-0.3,0.3-1.4-0.3-2.4-1.5
							L142.8,29.2z"/>
						<path fill="#FBAB18" d="M139.2,32.1c-1-1.1-0.9-1.2,0.2-0.2l7.9,7.1c1.1,1,1.8,2.1,1.5,2.4l0,0c-0.3,0.3-1.4-0.3-2.4-1.5
							L139.2,32.1z"/>
						<path fill="#FBAB18" d="M137.3,33.8c-1-1.1-0.9-1.2,0.2-0.2l7.9,7.1c1.1,1,1.8,2.1,1.5,2.4l0,0c-0.3,0.3-1.4-0.3-2.4-1.5
							L137.3,33.8z"/>
						<path fill="#E39910" d="M139.3,28.5c1.1,1,1.2,0.9,0.2-0.2l-7.1-7.9c-1-1.1-2.1-1.8-2.4-1.5l0,0c-0.3,0.3,0.3,1.4,1.5,2.4
							L139.3,28.5z"/>
						<path fill="#E39910" d="M137.6,29.5c1.1,1,1.2,0.9,0.2-0.2l-7.1-7.9c-1-1.1-2.1-1.8-2.4-1.5l0,0c-0.3,0.3,0.3,1.4,1.5,2.4
							L137.6,29.5z"/>
						<path fill="#E39910" d="M133.8,33.8c1.1,1,1.2,0.9,0.2-0.2l-7.1-7.9c-1-1.1-2.1-1.8-2.4-1.5l0,0c-0.3,0.3,0.3,1.4,1.5,2.4
							L133.8,33.8z"/>
						<g>
							<path fill="#E39910" d="M141.4,28.7C141.5,28.7,141.5,28.7,141.4,28.7l-0.6-0.9c-0.1-0.1-0.2-0.1-0.3-0.1l0,0
								c-0.1,0.1,0,0.2,0.1,0.3L141.4,28.7z"/>
							<path fill="#E39910" d="M139.8,27.1C139.8,27,139.8,27,139.8,27.1l0.9,0.6c0.1,0.1,0.1,0.2,0.1,0.3l0,0
								c-0.1,0.1-0.2,0-0.3-0.1L139.8,27.1z"/>
						</g>
						<g>
							<path fill="#E39910" d="M140.7,31.1C140.8,31.2,140.8,31.1,140.7,31.1l-0.6-0.9c-0.1-0.1-0.2-0.1-0.3-0.1l0,0
								c-0.1,0.1,0,0.2,0.1,0.3L140.7,31.1z"/>
							<path fill="#E39910" d="M139.1,29.5C139,29.4,139.1,29.4,139.1,29.5l0.9,0.6c0.1,0.1,0.1,0.2,0.1,0.3l0,0
								c-0.1,0.1-0.2,0-0.3-0.1L139.1,29.5z"/>
						</g>
						<g>
							<path fill="#FBAB18" d="M140.7,31.1C140.8,31.1,140.8,31.1,140.7,31.1l-0.5-0.8c-0.1-0.1-0.2-0.1-0.3-0.1l0,0
								c-0.1,0.1-0.1,0.2,0.1,0.3L140.7,31.1z"/>
							<path fill="#FBAB18" d="M139.3,29.7C139.2,29.6,139.3,29.6,139.3,29.7l0.8,0.5c0.1,0.1,0.1,0.2,0.1,0.3l0,0
								c-0.1,0.1-0.2,0.1-0.3-0.1L139.3,29.7z"/>
						</g>
						<g>
							<path fill="#E39910" d="M137,32.1C137.2,32.2,137.2,32.1,137,32.1l-0.6-0.9c-0.1-0.1-0.2-0.1-0.3-0.1l0,0
								c-0.1,0.1,0,0.2,0.1,0.3L137,32.1z"/>
							<path fill="#E39910" d="M135.5,30.5C135.4,30.4,135.4,30.4,135.5,30.5l0.9,0.6c0.1,0.1,0.1,0.2,0.1,0.3l0,0
								c-0.1,0.1-0.2,0-0.3-0.1L135.5,30.5z"/>
						</g>
						<g>
							<path fill="#E39910" d="M136.1,33.7C136.2,33.8,136.2,33.8,136.1,33.7l-0.6-0.9c-0.1-0.1-0.2-0.1-0.3-0.1l0,0
								c-0.1,0.1,0,0.2,0.1,0.3L136.1,33.7z"/>
							<path fill="#E39910" d="M134.6,32.2C134.5,32.1,134.5,32.1,134.6,32.2l0.9,0.6c0.1,0.1,0.1,0.2,0.1,0.3l0,0
								c-0.1,0.1-0.2,0-0.3-0.1L134.6,32.2z"/>
						</g>
						<path fill="#FBAB18" d="M141.4,28.6l-0.4-0.5l-0.2,0.2L141.4,28.6C141.5,28.7,141.5,28.7,141.4,28.6z"/>
					</g>
				</g>
			</g>
		</g>
	</g>
</g>
</svg>
