<?xml version="1.0" encoding="utf-8"?>
<!-- Generator: Adobe Illustrator 18.0.0, SVG Export Plug-In . SVG Version: 6.00 Build 0)  -->
<!DOCTYPE svg PUBLIC "-//W3C//DTD SVG 1.1//EN" "http://www.w3.org/Graphics/SVG/1.1/DTD/svg11.dtd">
<svg version="1.1" id="Lag_1" xmlns="http://www.w3.org/2000/svg" xmlns:xlink="http://www.w3.org/1999/xlink" x="0px" y="0px"
	 viewBox="0 0 200 200" enable-background="new 0 0 200 200" xml:space="preserve">
<circle fill="#492133" cx="100" cy="100" r="90"/>
<g>
	<g>
		<path fill="#DCDAC8" d="M48.9,107.7l-0.3,0.1c-0.4-0.8-0.6-1.6-0.8-2.6L41,90.9c-0.1,0.1-0.3,0.1-0.4,0.2
			c-0.3,0.2,3.8,10.3,6.5,17.4c0,0,0,0,0,0c0,0,0,0.1,0,0.1c0,0,0,0,0,0c0.1,0.2,0.2,0.4,0.3,0.6l2.3-1.1l-0.1-0.3l-0.5,0.3
			L48.9,107.7z"/>
		<path fill="#DCDAC8" d="M51.5,106.4l-0.2,0.1c-0.4-0.8-0.7-1.6-0.9-2.5l-7-14.2c-0.1,0-0.2,0.1-0.3,0.1
			c-0.2,0.1,4.2,10.2,7.1,17.1c0,0,0,0,0,0c0,0,0,0.1,0,0.1c0,0,0,0,0,0c0.1,0.2,0.2,0.4,0.3,0.6l1.8-0.9l-0.1-0.3l-0.4,0.2
			L51.5,106.4z"/>
		<path fill="#DCDAC8" d="M54.4,105l-0.2,0.1c-0.4-0.8-0.7-1.6-1-2.5l-7.4-14c-0.1,0-0.2,0.1-0.3,0.1c-0.2,0.1,4.5,10,7.7,16.9
			c0,0,0,0,0,0c0,0,0,0.1,0,0.1c0,0,0,0,0,0c0.1,0.2,0.2,0.4,0.3,0.6l1.7-0.9l-0.1-0.3l-0.4,0.2L54.4,105z"/>
		<path fill="#DCDAC8" d="M55,104.8C55,104.8,55,104.8,55,104.8L55,104.8c-2.6-4.3-5.7-9.8-7.7-13.1l6.7,14.1l-7.3,3.5l-0.2-0.5
			L46,109c-0.4-0.8-0.6-1.7-0.8-2.6l-6.8-14.3c-0.2,0.1-0.3,0.1-0.5,0.2c-0.4,0.2,3.6,10.4,6.2,17.6c0,0,0,0,0,0c0,0,0,0.1,0,0.1
			c0,0,0,0,0,0c1.7,3.5,4.8,5.9,7.9,5.3c5.8,13.4,9.4,22.2,15.1,35.6c0.5,1.1,2.2,2,3.6,1.3c1.4-0.7,1.8-2.6,1.3-3.7
			c-6.7-13-11.2-21.3-18-34.3C56.6,112.3,56.7,108.5,55,104.8C55,104.9,55,104.9,55,104.8C55,104.9,55,104.8,55,104.8z"/>
		<g>
			<g>
				<path fill="#F2EFDC" d="M55.5,104.7C55.5,104.7,55.5,104.7,55.5,104.7C55.5,104.6,55.5,104.6,55.5,104.7
					C55.5,104.6,55.5,104.6,55.5,104.7L55.5,104.7c-4-6.6-9.3-16.2-9.7-16c-0.4,0.2,4.6,10,7.8,16.8l-1.1,0.5
					c-3.7-6.6-8.7-16.4-9.1-16.2c-0.4,0.2,4.3,10.1,7.3,17.1l-1.1,0.5c-3.5-6.7-8.2-16.6-8.6-16.4c-0.4,0.2,4,10.3,6.7,17.3
					l-1.1,0.5c-3.2-6.8-7.7-16.9-8.1-16.7c-0.4,0.2,3.6,10.4,6.2,17.6l0,0c0,0,0,0,0,0c0,0,0,0.1,0,0.1c0,0,0,0,0,0
					c1.7,3.5,4.8,5.9,7.9,5.3c5.8,13.4,9.4,22.2,15.1,35.6c0.5,1.1,2.2,2,3.6,1.3c1.4-0.7,1.8-2.6,1.3-3.7
					c-6.7-13-11.3-21.3-18-34.3C57.1,112.1,57.2,108.2,55.5,104.7z"/>
			</g>
		</g>
	</g>
	<g>
		<path fill="#D8366C" d="M143,53.9l0.3-0.4c1.2-1.4,1-3.6-0.5-4.8l-0.1,0c-1.4-1.2-3.6-1-4.8,0.5l-0.3,0.4l-0.4-0.3
			c-1.4-1.2-3.6-1-4.8,0.5l0,0.1c-1.2,1.4-1,3.6,0.5,4.8l0.4,0.3l5.3,4.4L143,53.9z"/>
		<path fill="#AD234B" d="M138.6,59.2l4.4-5.3l0.3-0.4c1.2-1.4,1-3.6-0.5-4.8l-0.1,0c-1.4-1.2-3.6-1-4.8,0.5l-0.3,0.4"/>
	</g>
	<g>
		<path fill="#D8366C" d="M67.7,71.7l0.3-0.3c0.9-1.1,0.8-2.8-0.3-3.7l0,0c-1.1-0.9-2.8-0.8-3.7,0.3l-0.3,0.3L63.3,68
			c-1.1-0.9-2.8-0.8-3.7,0.3l0,0c-0.9,1.1-0.8,2.8,0.3,3.7l0.3,0.3l4.1,3.4L67.7,71.7z"/>
		<path fill="#AD234B" d="M64.3,75.8l3.4-4.1l0.3-0.3c0.9-1.1,0.8-2.8-0.3-3.7l0,0c-1.1-0.9-2.8-0.8-3.7,0.3l-0.3,0.3"/>
	</g>
	<g>
		<path fill="#00A0AE" d="M105,146.2c20.7-1.9,36-20.4,34.1-41.1c-1.9-20.7-20.4-36-41.1-34.1"/>
		<path fill="#00B8C8" d="M97.9,70.9c-20.7,1.9-36,20.4-34.1,41.2c1.9,20.7,20.4,36,41.2,34.1"/>
		<g>
			<path fill="#DCDAC8" d="M138.4,115.4c-0.5,0.1-1.1,0.4-1.1,0.5c0,0.2-0.6,0.5-0.9,0.7c-0.2,0.1-0.6,0.9-0.7,1.1
				c-0.1,0.2-0.6,0.2-0.8,0.3c-0.2,0.1-0.6,0.5-0.6,0.7c0,0.2-0.1,0.2-0.3,0c0,0,0,0-0.2,0.3c-0.3,0.4-0.3,0.4-0.3,0.4
				c-0.1,0.6-0.7,1.4-0.9,1.5c-0.2,0.1-0.1,1.1-0.1,1.5c0,0.4,0.2,0.9,0.5,1.1c0,0,0,0,0.1,0.3c0.1,0.6,0.1,0.6,0.1,0.6
				c-0.1,0.5,0.4,0.9,0.5,1c0.1,0.1,1-0.3,1.4-0.4c0.1,0,0.3-0.1,0.5-0.3c1.4-2.9,2.4-6.1,3-9.3
				C138.5,115.4,138.4,115.4,138.4,115.4z"/>
			<path fill="#DCDAC8" d="M76.3,122.2c0,0.1,0.7,0.7,1,0.9c0.3,0.2,0.9,1.3,1.1,1.6c0.1,0.4,0.1,1,0.1,1.1c0,0.1,0.2,0.4,0.2,0.6
				c0,0.1-0.1,1.3,0,1.7c0.1,0.4-0.3,1.9-0.3,2.6c0.1,0.7,0.5,1.6,0.6,1.5c0.1-0.1,0.2,0.6,0,0.7c-0.2,0.1-0.4,0.7-0.3,0.7
				c0.1,0,0,0.6,0.1,0.8c0.1,0.2,0.4,1.6,0.4,2c0.1,0.4,0.7,1.2,0.8,1.5c0.1,0.3,0.3,0.8,0.3,0.9c0,0.1,0.1,0.2,0.1,0.2
				c0,0,0.4,0.1,0.6,0.2c0.1,0.1,0.9-0.1,1.2-0.1c0.3-0.1,0-0.3-0.1-0.4c-0.1-0.1-0.3-0.7-0.4-0.8c-0.1,0-0.3-0.9-0.2-1
				c0.1-0.2,0.6-0.5,0.6-0.7c0-0.2,0-0.9-0.2-0.9c-0.1-0.1-0.1-1-0.2-1.4c-0.1-0.4,0.7-0.9,0.7-1.2c0-0.3,0.9-0.8,1.1-1
				c0.2-0.2,0.3-1.2,0.2-1.4c-0.1-0.2,0.3-0.4,0.5-0.4c0.2,0,0.4-0.2,0.5-0.2c0.1,0,0.3-0.5,0.4-0.6c0.1-0.1,0.3-1.2,0.5-1.3
				c0.2-0.2,0.3-0.8,0.3-1c0-0.2,0.3-0.8,0.4-0.9c0.1-0.2,0.9-0.6,1.1-0.7c0.1-0.1,0.2-1.5,0.3-1.9c0-0.5,0.2-1.2,0.2-1.3
				c0-0.2,0.3-0.3,0.3-0.4c0-0.1,0.2-0.7,0.3-0.9c0.1-0.2,0.5-0.8,0.5-0.9c0-0.1,0-0.5,0.1-0.8c0,0,0,0,0-0.3c0-0.5,0-0.5,0-0.5
				c-0.2-0.4-0.7-0.9-0.8-0.7c-0.1,0.1-0.7-0.3-0.9-0.4c-0.3-0.1-1-0.1-1.1-0.1c-0.2,0-0.8-0.4-1.1-0.5c-0.3-0.1-0.9-0.1-1.1-0.2
				c-0.1-0.1-0.4-1-0.9-1.3c-0.6-0.3-1.6-0.9-1.7-1.2c-0.1-0.3-1.2-0.8-1.5-0.9c-0.3-0.1-0.8-0.1-0.9-0.1c-0.1,0.1-0.5-0.5-0.7-0.6
				c-0.2-0.1-0.9-0.2-0.9-0.1c0,0.2-0.4,0.1-0.5,0c-0.1-0.1-0.4,0.1-0.6,0.2c-0.1,0.1-0.6,0.9-0.8,1.1c-0.2,0.2-0.5-0.1-0.7-0.2
				c-0.2-0.1-0.7,0.2-0.9,0.3c-0.1,0.1-0.6-0.8-0.6-1.2c0-0.4-0.5-1.3-0.9-1.2c-0.4,0-0.6-0.9-0.5-1.2c0-0.3-0.7-0.5-0.9-0.5
				c-0.2,0-0.6,0.5-0.7,0.7c-0.1,0.2-1.8-0.1-1.7-1.2c0.1-1,0.8-2.1,1-2.3c0.2-0.1,1.2-0.3,1.5-0.2c0.3,0.1,0.5,0,0.5-0.1
				c0-0.1,0.9-0.1,1.2,0c0.3,0.1,0.7,1.1,1,1.2c0.3,0.1,0.3-0.7,0.3-0.9c0-0.2-0.2-0.7-0.3-0.8c-0.1-0.1,0.3-1.4,0.7-1.6
				c0.4-0.2,0.8-1,0.7-1.1c0-0.1,0.3-0.2,0.4-0.3c0.1-0.1-0.1-1,0-1.3c0.1-0.2,0.9-0.8,1.1-0.9c0.2-0.1,0.4-0.8,0.3-0.9
				c-0.1-0.1,0.6-0.8,0.9-0.9c0.4-0.1,0.7,0.1,0.6,0.2c0.1,0,0.6-0.4,0.8-0.5c0.2-0.2-0.1-0.6-0.2-0.8c-0.2-0.1-0.1-0.7,0.1-0.7
				c0.2-0.1,0.3-0.5,0.3-0.6c-0.1-0.1,0.8,0,1.1-0.3c0.3-0.3,0.2,0.6-0.1,0.9c-0.2,0.4,0.2,0.6,0.4,0.6c0.1-0.1,0.3,0.1,0.4,0.2
				c0,0.1,0.4-0.1,0.6-0.1c0.2,0.1,0.3-0.3,0.3-0.5c0-0.2-0.6-0.5-0.7-0.7c-0.1-0.2-0.3-1.5-0.3-1.7c0-0.3-0.4-0.7-0.5-0.6
				c-0.1,0.1-0.4-0.6-0.6-0.8c-0.2-0.1-0.3-0.5-0.3-0.6c0-0.1-0.7-0.7-0.9-1c-0.2-0.3-0.4-0.2-0.4-0.1c0,0.1-0.4,0.2-0.6,0.2
				c-0.2,0-0.4-0.7-0.4-0.9c0-0.3-0.8-0.2-1-0.4c-0.1-0.2-0.7,0-0.8-0.2c-0.1-0.1-0.6-0.2-0.7-0.2c-0.1,0.1,0.1,1.9,0.1,2.4
				c0,0.5-0.4,1-0.6,1c-0.2,0,0,0.4,0.1,0.3c0.1,0-0.3,0.6-0.3,1c0,0.4-0.4,0-0.5-0.3c-0.1-0.3-0.5-0.8-0.6-0.7
				c-0.1,0.1-0.3-0.1-0.5,0c-0.1,0.1-0.9-0.3-1.2-0.5c-0.3-0.1-0.6-1-0.7-1.1c-0.2-0.1,0-0.2-0.1-0.3c0-0.1,0.5-0.7,0.7-0.9
				c0.2-0.2,0.7-1.1,0.9-1.3c0.2-0.2,0.4-0.7,0.3-0.8c-0.1-0.1,1-0.5,1.3-0.7c0.3-0.1,0.5-1,0.5-1.2c0-0.2-0.3-0.7-0.4-0.7
				c-0.1,0,0.4-0.1,0.6,0c0.2,0.1,0.7-0.2,1-0.1c0.2,0.1,0.7,0.3,1.1,0.5c0,0,0,0,0,0.6c0,1,0,1,0,1c-0.8,0.4-1,1.1-0.7,1
				c0.3,0,1.7,0.4,2.2,0.7c0.4,0.2,0.5-0.5,0.6-0.7c0.1-0.2,0-0.9-0.1-1c-0.1-0.1,0.4-0.1,0.6,0c0.2,0.1,0.3-0.2,0.4-0.2
				c0.1-0.1,0.1-0.6,0.2-0.8c0.1-0.1-0.3-0.2-0.3-0.3c0-0.1-0.7-0.4-0.9-0.4c-0.2-0.1-0.3-0.5-0.2-0.6c0.1-0.1-0.1-0.6-0.2-0.8
				c-0.1-0.2-0.8-0.3-1-0.2c-0.2,0-0.5-0.5-0.6-0.5c-0.1-0.1-1-0.1-1.2,0c-0.2,0.1-0.6-0.5-1-0.3c-0.3,0.2-0.7-0.2-0.9-0.2
				c-0.2-0.1-0.9,0.9-0.8,1.5c0.1,0.6,0.4,1.2,0.6,1.2c0.1,0,0,0.6-0.1,0.7c-0.1,0.2-0.5-0.1-0.4-0.3c0.1-0.2-0.4-0.7-0.6-1
				c-0.1-0.2-0.6-0.3-0.9-0.4c-0.2,0.2-0.3,0.4-0.4,0.6c0.1,0.2,0.2,0.5,0.1,0.7c-0.1,0.4-0.4,0.5-0.4,0.3c0-0.1-0.2-0.1-0.4-0.1
				c-4,5.9-6.4,13-6.6,20.5c0.2,0.2,0.4,0.4,0.5,0.6c0.1,0.3,0.7,0.5,0.8,0.5c0.1,0.1,0.1-0.6,0-0.8c-0.1-0.2,0.1-0.3,0.1-0.2
				c0,0.1,0.6,0.7,0.8,0.9c0.2,0.2,0.5,1.6,0.7,1.9c0.2,0.3,1.9,0.8,2.5,0.8c0.5,0.1,1.3,0.6,1.4,0.8c0.1,0.2,0.8,0.2,1,0.2
				c0.2,0.1,0.6,0.5,0.7,0.6c0.2,0.1,0.3,0.4,0.3,0.4c0,0.1,1,0.3,1.2,0.6c0.2,0.2,0.6,0.1,0.7,0c0.1-0.1,0.3,0.5,0.4,0.7
				c0.1,0.2,0.2,0.7,0.1,0.8c-0.1,0.1-0.1,1-0.3,1.2c-0.1,0.2-0.3,1.6-0.2,1.9c0.1,0.3,0.6,0.8,0.8,0.8c0.2,0.1,0.1,0.4,0,0.4
				c-0.1,0,0,1.3,0.4,1.5C76,121.5,76.4,122.1,76.3,122.2z"/>
			<path fill="#DCDAC8" d="M78.6,98.9L78.6,98.9C78.6,98.9,78.6,98.9,78.6,98.9z"/>
			<path fill="#DCDAC8" d="M74.6,83.2c0.4-0.1,1.2-0.3,1.2-0.4c0-0.1,0-0.4-0.1-0.5c0.1,0,0.2,0,0.2,0c0.2,0,0.4-1,0.5-1.2
				c0.2-0.2,1.2-0.7,1.4-0.8c0.2-0.2,0.7-0.7,0.9-0.8c0.2-0.1,0.5-0.6,0.4-0.7c-0.1-0.1,0.6-0.6,0.9-0.8c0.3-0.1,0.4-0.5,0.3-0.5
				c-0.1,0-1.6,1-2.9,1.9c-1.5,1.3-3,2.7-4.3,4.2C73.6,83.5,74.3,83.3,74.6,83.2z"/>
			<path fill="#DCDAC8" d="M106.2,127.5c0.5-0.3,1.2-1.6,1.4-1.9c0.2-0.3,0.4-1.2,0.4-1.4c0-0.2,0.4-0.6,0.6-0.6
				c0.1-0.1,0.4-2.1,0.8-2.6c0.4-0.5,0.7-2.7,0.6-3.4c-0.1-0.8,0.1-2.3,0.1-2.6c0.1-0.4,0.5-1,0.7-1.2c0.2-0.1,1-1.8,1.3-2.4
				c0.3-0.6,0.5-1.8,0.4-2.1c-0.1-0.3-0.8-0.4-0.9-0.3c-0.1,0.2-0.8,0.3-1,0.4c-0.2,0-0.8-1.1-1.2-1.3c-0.3-0.2-0.7-1.5-0.9-1.7
				c-0.2-0.2-0.8-0.8-0.9-1c-0.2-0.1-0.3-0.8-0.3-1c-0.1-0.2,0.3,0.1,0.4,0.4c0.1,0.3,1,1.3,1.3,1.7c0.3,0.4,1,1.5,1.2,1.9
				c0.2,0.4,1.6,0,2.1-0.2c0.4-0.3,1-0.7,1-0.8c0-0.1,0.7-0.5,0.9-0.7c0.2-0.2,0.3-1.1,0.4-1.2c0.1-0.2-0.2-1-0.4-1.2
				c-0.2-0.2-0.9-0.4-1.1-0.2c-0.1,0.1-0.5-0.5-0.7-0.7c-0.1-0.2-0.7-0.5-0.8-0.6c-0.1-0.2,0.1-0.4,0.2-0.5c0.1-0.1,1.2,0.6,1.6,0.9
				c0.3,0.3,0.7,1,0.8,1.1c0.1,0.1,0.9,0.1,1.1-0.1c0.2-0.2,0.4-0.1,0.5,0c0,0,0,0,0.3-0.1c0.9-0.2,0.9-0.2,0.9-0.2
				c0.5,0.4,0.6,0.8,0.6,0.9c0,0.1,0.3,0.4,0.5,0.5c0.2,0,0.4,0.6,0.4,0.8c0.1,0.1,0.7,1,0.8,1.4c0.1,0.4,0.7,1.1,0.8,1.2
				c0.1,0.2,0.3,0.8,0.3,0.9c0,0.2,0.4,0.4,0.6,0.4c0.2,0,0.5-1.4,0.6-1.9c0-0.5,0.3-0.9,0.4-0.9c0.1,0,0.1-0.3,0.1-0.4
				c0-0.1,0.5-0.1,0.6-0.3c0-0.1,0.1-1,0.3-1.2c0.2-0.2,0.8-0.7,1-0.8c0.2-0.1,0.9,0.4,1,0.6c0.2,0.2,0.3,0.8,0.3,0.9
				c0,0.1,0.4,0.6,0.7,0.6c0.3,0,0.5,0.4,0.5,0.5c0,0.1,0.5,0.5,0.6,0.7c0.1,0.2,0.1,0.7,0.1,0.8c0,0.1,0.1,0.8,0.1,1
				c0.1,0.2,1.2,1.1,1.6,1.4c0.4,0.3,0.5-0.7,0.3-0.9c-0.2-0.3-0.9-0.9-1.1-1.1c-0.2-0.2-0.3-1-0.2-1.2c0-0.2,0.6,0.1,0.8,0.2
				c0.2,0.1,0.5,0.5,0.6,0.6c0,0.1,1.3-0.7,1.2-1.6c0-0.8,0.3-1.8,0.3-2c0-0.2-0.2-0.5-0.3-0.5c-0.1,0,0.1-0.6,0.5-0.7
				c0.4,0,1.2-1.1,1.3-1.5c0.2-0.4,0.6-0.8,0.6-0.8c0,0,0.3-1,0.3-1.4c0-0.4-0.3-1-0.4-1.2c0-0.2-0.4-0.6-0.5-0.8
				c-0.1-0.1-0.2-0.7-0.2-0.8c0-0.1,0.4-0.2,0.4-0.3c0-0.1,0.4-0.5,0.3-0.7c0-0.2,0.3,0.2,0.5,0.3c0.2,0.1,0.5,1.1,0.7,1.2
				c0.2,0.1,1-1.1,0.8-1.8c-0.2-0.7,0.1-1.7,0.3-1.8c0.2-0.1,0.5-0.7,0.8-1.1c-2.5-5.4-6.1-10.1-10.6-13.7c0,0-0.1,0-0.1,0
				c-0.3,0-0.3,0-0.3,0c-0.5-0.1-0.9-0.6-0.8-0.8c0,0,0-0.1,0-0.3c-0.3-0.2-0.7-0.5-1-0.7c-0.3,0-0.5,0-0.7,0.1
				c-0.3,0-1-0.1-1.2-0.3c-0.1-0.1-0.5,0.2-0.5,0.4c0,0.2-0.7,0.4-0.8,0.6c-0.1,0.2-0.4,0.2-0.5,0.1c-0.1-0.1-0.7,0.3-1.1,0.4
				c-0.3,0.1-0.9,0.4-1.1,0.5c-0.1,0.1-0.5,0.5-0.5,0.6c0,0.2-0.5,0.4-0.6,0.5c-0.1,0.1,0,0.7,0.1,0.8c0.2,0.1-0.3,0-0.6-0.1
				c-0.2-0.1-0.5,0.3-0.5,0.5c-0.1,0.1-0.3-0.1-0.3-0.2c0-0.2-0.6-0.3-0.7-0.1c-0.1,0.2-0.5,0-0.6-0.1c-0.2-0.1-0.8,0.7-1,1
				c-0.2,0.3-1.5,0.6-1.7,0.5c-0.2-0.1-0.4,0.6-0.2,0.6c0.2,0-0.5,0-0.9,0.1c-0.4,0.1-1.5,0.6-1.7,0.9c-0.3,0.2-0.5,0-0.5-0.2
				c0-0.2-0.5-0.3-0.6-0.3c-0.1,0-0.3,0.9-0.5,1.1c-0.2,0.2-0.6-0.6-1.1-0.7c-0.5-0.1-1.4-0.5-1.7-0.6c-0.2,0-0.8-0.5-0.9-0.6
				c-0.1-0.1-0.8-0.2-1.1-0.2c-0.2,0-0.9,0.5-1.1,0.7c-0.2,0.2-0.5,0.2-0.5,0.2c-0.1,0.1-0.8,0.9-1.1,1.2c-0.3,0.3-0.7,1.4-0.9,1.6
				c-0.2,0.3-0.4,0.3-0.5,0.4c-0.1,0-0.2,0.3-0.2,0.4c0,0.1-0.9,0.7-0.9,1.1c-0.1,0.4,0.2,1.3,0.2,1.7c0,0.3,0.4,1,0.7,1
				c0.3,0,0.2,0.6,0.1,0.7c-0.1,0.2,0.2,0.3,0.2,0.4c0,0.1-0.6,0.4-0.8,0.5c-0.2,0.1-0.5,0.6-0.5,0.7c0,0.1-0.6,0.3-0.8,0.5
				c0-0.1,0.1-0.3,0.1-0.5c0.1-0.2-0.1-0.6-0.2-0.7c-0.1-0.1-0.3-1.2-0.4-1.4c-0.2-0.2-0.6-0.6-0.7-0.7c-0.1-0.1,0-0.4,0.1-0.5
				c0-0.1-0.5-0.1-0.7,0c-0.1,0.1-0.1,1.2-0.2,1.5c0,0.3,0.4,0.7,0.4,0.7c0.1,0,0.1,0.5-0.1,0.6c-0.2,0-0.3,0.8-0.2,1
				c0.1,0.2-0.1,0.5-0.2,0.6c-0.1,0.1,0.8,0,1.2-0.1c0.4,0,0.7,0.1,0.7,0.1c0,0-0.8,0.2-0.9,0.4c-0.1,0.2-0.6,0.6-0.7,0.7
				c-0.1,0.1,0.2,0.4,0.4,0.4c0.2,0,0.5,0.7,0.7,0.8C95,97,95,97.4,95,97.5c-0.1,0.1-1.1,0-1.4,0.2c-0.4,0.1-0.8,1-0.8,1.3
				c0,0.3,0.2,1.1,0.2,1.4c0.1,0.2,0.9,0.3,1,0.4c0.2,0.1,0.9-0.1,1.1,0c0.2,0.1,0.6-0.8,0.6-1.2c0.1-0.4,0.8-1.2,0.9-1.5
				c0.1-0.3,1-0.3,1.2-0.5c0.2-0.2,0.2,0.6,0.3,1.1c0.1,0.4,1,0.3,0.8-0.1c-0.2-0.4,0-0.6,0.1-0.4c0,0.1,0.9,0.4,1,0.6
				c0.2,0.2,0.2,0.7,0,0.7c-0.2,0-0.1,0.5,0.1,0.6c0.2,0,0.4-0.6,0.6-0.8c0.2-0.1,0.3-0.5,0.2-0.6c-0.1,0,0.1-0.4,0.3-0.3
				c0.1,0.1-0.5-0.8-0.9-1.1c-0.4-0.3-0.1-0.2,0.6,0.3c0,0,0,0,0.5,0.6c0.1,0.1,0.2,0.4,0.3,0.5c0.1,0.2,0.1,0.2,0.1,0.2
				c0.1,0.2,0.2,0.8,0.2,0.9c0,0.2,0.4,0.4,0.6,0.4c0.2,0,0.4,0.1,0.3,0.1c0,0,0.2,0.4,0.4,0.4c0.2,0,0.2-0.5,0-0.5
				c-0.2,0-0.2-0.8-0.3-1.1c-0.1-0.3,0.1-0.6,0.2-0.6c0.1,0,0.1,0.7,0.1,0.8c0,0.2,0.1,0.5,0.3,0.7c0,0,0,0,0.2,0.1
				c0.5,0.3,0.5,0.3,0.5,0.3c0.7-0.3,1.6-0.2,1.6-0.1c0,0.1,0.5,0.1,0.5-0.1c0-0.2,0.1,0,0.1,0.2c0,0.2-0.4,0.8-0.4,1.1
				c0,0.3-1.6,0.2-2.3,0.3c-0.7,0-1.7,0.3-1.7,0.5c-0.1,0.2-1.2-0.4-1.7-0.5c-0.5-0.2-1-0.9-1.1-0.9c-0.1-0.1,0.1-0.3,0-0.5
				c-0.1-0.1-1.2-0.1-1.5,0.1c-0.3,0.1-2,0.5-2.3,0.7c-0.4,0.2-1,0.1-1.2,0.1c-0.2,0-0.6,0.6-0.8,0.7c-0.2,0.1-0.4,0.9-0.5,1.8
				c0,0,0,0-0.2,0.6c-0.2,0.4-0.2,0.4-0.2,0.4c-0.5,0.5-1,1.9-1.1,2.2c-0.2,0.3-0.1,2.3,0,3c0.1,0.7,0.8,2,1,2.4
				c0.2,0.4,1.3,1.2,1.7,1.3c0.4,0.2,1.5,0.1,1.8,0.1c0.4,0,0.7-0.4,0.8-0.8c0,0,0,0,0.5,0c0.2,0,0.2,0,0.2,0c0,0.3,0.8,0.5,1,0.5
				c0.2,0.1,0.7,0,0.9-0.1c0.1-0.1,0.5,1.3,0.4,1.7c-0.1,0.4,0.4,1.8,0.6,2.2c0.2,0.4,0.7,1.5,0.8,1.9c0.1,0.4-0.1,1.8-0.1,2.3
				c0,0.5,0.8,1.8,1,2.2c0.2,0.4,0.4,1.4,0.5,1.7c0,0.2,0.9,1.6,1.1,2.1C103.9,127.9,105.7,127.8,106.2,127.5z"/>
			<path fill="#DCDAC8" d="M135.6,107.5c0.1,0.1,0.5-0.3,0.7-0.4c0.3-0.1,0.4-0.8,0.2-0.8c-0.2,0-0.5-0.6-0.7-0.6
				c-0.2-0.1-0.4,0.3-0.4,0.5c0,0.2-0.5,0.4-0.5,0.5c-0.1,0.2-0.1,0.3,0,0.3C135,107,135.5,107.4,135.6,107.5z"/>
			<path fill="#DCDAC8" d="M135.4,111.5c0.1-0.1-0.1-0.8-0.4-0.8c-0.3,0-1,1-0.8,1.6c0.2,0.6,0.4,0.5,0.4,0.4c0.1-0.1,0.6,0,0.7,0.1
				c0.1,0,0.1-0.1,0-0.3C135.2,112.3,135.3,111.6,135.4,111.5z"/>
			<path fill="#DCDAC8" d="M133.8,111c0-0.3,0-1.1,0-1.2c0-0.2-0.5-0.6-0.7-0.6c-0.2-0.1-0.8,1.7-1.4,2c-0.5,0.3-0.6,1.4-0.5,1.6
				c0.2,0.2,1.3,0.2,1.5,0.4c0.2,0.2,0.4-0.1,0.5-0.1c0.1,0,0.1-0.1,0-0.1c-0.1,0,0.3-0.5,0.4-0.8
				C133.7,111.7,133.8,111.2,133.8,111z"/>
			<path fill="#DCDAC8" d="M130.9,114c-0.4-0.1-0.9,0.2-0.9,0.3c0,0.2,1.7,0.3,2.3,0.4c0.6,0.1,0.9,0.1,0.8,0
				C132.9,114.7,131.4,114.1,130.9,114z"/>
			<path fill="#DCDAC8" d="M133.3,102.7c0.1-0.2-0.3-1.1-0.4-0.8c-0.1,0.2,0,0.7,0.1,0.9C133.1,103,133.2,102.9,133.3,102.7z"/>
			<path fill="#DCDAC8" d="M134.5,104.5c0.1-0.2-0.2-0.5-0.5-0.5c-0.4,0-0.2,1,0,1.2C134.1,105.3,134.4,104.8,134.5,104.5z"/>
			<path fill="#DCDAC8" d="M137.1,111.1c0.5,0.3,1.4,0,1.4-0.6C138,110.3,137,110.5,137.1,111.1z"/>
			<path fill="#DCDAC8" d="M135.6,97.7c-0.2,0.1-0.2,0.5-0.2,0.6c0,0-0.1,0-0.1,0c-0.1,0-0.1,0.6,0.1,0.7c0.2,0.1,0.5-0.5,0.7-0.6
				c0.2-0.1,0.6-0.3,0.6-0.2c0.1,0,0.4-0.1,0.7-0.3c0.1,0,0.1-0.1,0.2-0.3c-0.1-0.4-0.3-0.8-0.4-1.2c-0.2,0.2-0.4,0.3-0.4,0.4
				C136.5,96.9,135.8,97.5,135.6,97.7z"/>
			<path fill="#DCDAC8" d="M126.7,110.2C126.7,110.2,126.7,110.2,126.7,110.2C126.6,110.2,126.6,110.2,126.7,110.2z"/>
			<path fill="#DCDAC8" d="M129.6,112.5c-0.2-0.3-0.8-0.9-1.3-1.2c0,0,0,0-0.2-0.3c-0.2-0.3-0.2-0.3-0.2-0.3
				c-0.2-0.3-0.8-0.6-0.8-0.7c-0.1-0.1-0.2,0.3-0.4,0.2c0.1,0.1,0.3,0.2,0.6,0.4c0.5,0.3,1.7,2.7,2,2.8
				C129.5,113.5,129.8,112.8,129.6,112.5z"/>
			<path fill="#DCDAC8" d="M121.5,109.2c-0.1,0.3,0.8,0.8,0.9,0.7c0.1-0.1-0.2-0.8-0.4-0.9C121.8,108.8,121.6,109,121.5,109.2z"/>
			<path fill="#DCDAC8" d="M111.4,123.4c0.1,0.3,0.7,0.5,0.8,0.4c0.2-0.1,0.6-1,0.6-1.2c0-0.3,0-0.8,0-0.9c0-0.1,0-0.4,0.1-0.5
				c0.1,0,0.1-0.4,0.2-0.7c0-0.3-0.5-1.8-0.6-2.1c0-0.3-0.3,0.2-0.4,0.5c-0.1,0.3-0.8,0.9-0.9,1.2c-0.1,0.2-0.3,1.1-0.2,1.2
				c0.1,0.1,0,0.7-0.1,0.8C111,122.1,111.3,123.1,111.4,123.4z"/>
			<path fill="#DCDAC8" d="M84.6,136.7c0.2,0,0.3,0,0.5,0C85.2,136.1,84.6,136.2,84.6,136.7z"/>
			<path fill="#DCDAC8" d="M93,77.2c-0.2,0-0.8,0-0.9-0.1c-0.1-0.1-1-0.1-1.2,0c-0.2,0.1-0.1-0.6,0.2-0.7c0.3-0.1,0-0.6-0.4-0.5
				c-0.4,0-1.3,0-1.5,0c-0.2,0.1-0.6-0.1-0.8-0.1c-0.2,0-1.2,0.4-1.7,0.5c-0.5,0-1.7,0.2-2,0.3c-0.3,0.1-0.4,0.6-0.4,0.8
				c0.1,0.2-1.2,0.3-1.6,0.3c-0.4,0-2.4,0.7-2.9,1c-0.5,0.3-0.9,1.1-0.7,1.1c0.2,0-0.3,0.5-0.5,0.6c-0.3,0.1-1,0.2-1.1,0.4
				c-0.1,0.2,0.2,0.3,0.3,0.4c0.1,0.1,0.3-0.1,0.4,0c0.2,0.1,0.8,0.1,1,0.1c0.2,0-0.5,0.2-0.8,0.3c-0.3,0.1-0.2,0.7,0.1,0.7
				c0.3,0.1,0.9,0.1,1,0c0.1-0.1,0.8,0,1.1,0.1c0.3,0,0.7,0.8,0.8,1c0.1,0.2,0.2,0.8,0.2,1c0,0.2,0.6,0.5,0.7,0.3
				c0.1-0.1,0.1,0.3-0.1,0.3c-0.2,0,0,0.7,0.3,0.7c0.3,0.1,0.1,0.5,0,0.7c-0.2,0.1,0,0.5-0.2,0.7c-0.2,0.2,0.8,1.5,0.8,2.2
				c0.1,0.7,0.6,1.2,0.7,1.2c0.2,0,0.8,0.1,0.9,0.2c0.1,0.1,0.3-0.1,0.4-0.3c0.1-0.1,0.3-0.5,0.5-0.8c0.2-0.3,0.4-1.8,0.5-1.9
				c0-0.2,0.7-0.1,0.9-0.2c0.1-0.1,0.5-0.5,0.7-0.6c0.1-0.1,1-0.6,1.3-0.8c0.2-0.2,0.6-1.1,0.8-1.2c0.2-0.2-0.1-0.1-0.4-0.3
				c-0.3-0.1-0.2-0.4-0.1-0.4c0.1-0.1,0.8,0,1.1,0.1c0.3,0.1,0.7-0.3,0.5-0.5c-0.2-0.1-0.1-0.1,0-0.1c0.1,0,0.1-0.5,0-0.6
				c-0.1-0.1,0.7-0.8,0.5-1.4c-0.2-0.6,0.1-1.2,0.4-1.3c0.2,0,0.1-0.7-0.2-0.7c-0.3,0,0-0.1,0.1-0.2c0.1-0.1,0.2-0.7,0.1-0.8
				c-0.1-0.1,0.4-0.3,0.5-0.4c0.1-0.1,0.6-0.5,0.8-0.5C93.1,77.7,93.2,77.2,93,77.2z"/>
			<path fill="#DCDAC8" d="M97.9,77.2c-0.3-0.1-0.8,0.3-0.7,0.4c0.1,0.2-0.5-0.2-0.8,0c-0.3,0.2-0.4,0.9-0.2,0.9
				c0.2,0.1,0.3,0.6,0.4,0.6c0,0.1,0.7,0,0.9-0.2c0.2-0.2,0.2,0.5,0,0.7c-0.2,0.2,0.1,0.5,0.3,0.5c0.2,0,0.5,0.4,0.7,0.4
				c0.2,0,0.5-0.8,0.5-1.1c0.1-0.3,0.7-0.1,1-0.1c0.3,0.1,0.3-1.1,0-1.2c-0.3-0.1-0.7,0-0.9-0.1c-0.1-0.1-0.4-0.2-0.5-0.2
				C98.4,78,98.2,77.3,97.9,77.2z"/>
			<path fill="#DCDAC8" d="M100.6,77.5c0.5,0,1.1-0.5,1.2-0.6c0.1-0.1-1.5-0.3-2.1-0.3c-0.6,0-1.1,0.2-1.1,0.3
				C98.6,77.1,100,77.5,100.6,77.5z"/>
			<path fill="#DCDAC8" d="M92.3,92.8c-0.1,0-0.2,0.5-0.1,0.7c0.1,0.2,0.5,0.1,0.7,0.1c0.2-0.1,0.4-0.2,0.3-0.4
				c0-0.2-0.4-0.9-0.5-0.9C92.6,92.2,92.4,92.8,92.3,92.8z"/>
			<path fill="#DCDAC8" d="M93.3,86.5c-0.1-0.2-1-0.1-1.2-0.1c-0.2,0-0.8-0.1-1-0.3c-0.1-0.1-0.2,0.5-0.3,0.6
				C90.6,86.9,90.9,87,91,87c0.1-0.1,0,0.3,0,0.5c-0.1,0.1,0.6,0.2,0.7,0.4c0.1,0.2,0.4,0.3,0.6,0.2c0.2-0.1,0.7-0.4,0.9-0.4
				C93.3,87.6,93.4,86.7,93.3,86.5z"/>
			<path fill="#DCDAC8" d="M110.3,80.1c0.3-0.3,1.4-0.8,1.5-1.1c0.1-0.3-0.1-0.5-0.3-0.5c-0.1,0-0.3,0.2-0.3,0.2
				c0,0.1-1.3,0.5-1.7,0.7c-0.4,0.2-0.8,0.6-1,0.8c-0.2,0.2-0.3,1.6-0.4,1.7c-0.1,0.2,0.5,0.7,0.8,0.8c0.3,0.1,0.6,0,0.7,0
				c0.1,0-0.2-1-0.4-1.3C109,81.1,110,80.4,110.3,80.1z"/>
			<path fill="#DCDAC8" d="M108.5,76.8c0.5,0.4,0.7-0.3,1.2-0.2C109.6,75.6,108.4,76.1,108.5,76.8z"/>
			<path fill="#DCDAC8" d="M117.2,76.1c0,0.2,1.3,0.2,1.6,0.1c0.4-0.1-0.1-0.6-0.7-0.5C117.6,75.8,117.2,76,117.2,76.1z"/>
			<path fill="#DCDAC8" d="M73,89.6c-0.1,0.1,0,0.7,0.3,0.7c0.2,0,0.6-1,0.9-0.8c0.3,0.2,0.5,0.2,0.5,0.1c-0.1-0.1-1-0.4-1.1-0.5
				C73.5,89.1,73.2,89.4,73,89.6z"/>
			<path fill="#DCDAC8" d="M78.1,109.9c0,0.1,0.5,0,0.6-0.1c0.1-0.2,0-0.3-0.1-0.3C78.5,109.5,78.1,109.8,78.1,109.9z"/>
			<path fill="#DCDAC8" d="M75.7,109.3c0.3-0.1,0.2,0.4,0.2,0.5c0.1,0.1,0.7,0.2,0.8,0.3c0.1,0.1,0.4-0.2,0.7-0.2
				c0.3,0-0.2-0.9-0.6-0.8c-0.4,0.1-0.8-0.3-0.9-0.3c-0.1,0-0.6-0.3-0.8-0.4c-0.1-0.1-1.2-0.1-1.6-0.1c-0.4,0-0.7,0.4-0.8,0.6
				c0,0.1,0.6,0.2,0.8,0c0.2-0.1,1,0,1.2,0.2C75,109.2,75.4,109.3,75.7,109.3z"/>
			<path fill="#DCDAC8" d="M74.6,110.3c0,0.1,0.6,0,0.7,0c0.1,0,0.1-0.1,0-0.2C75.1,109.9,74.6,110.1,74.6,110.3z"/>
			<path fill="#DCDAC8" d="M74.7,107.4c-0.1,0-0.2,0.2-0.2,0.3c0,0.1,0.1,0.2,0.2,0.2S74.9,107.4,74.7,107.4z"/>
			<path fill="#DCDAC8" d="M75.9,107.4c-0.1-0.1-0.3-0.2-0.4-0.2c-0.1,0-0.1,0.2-0.1,0.4C75.5,107.9,75.9,107.5,75.9,107.4z"/>
			<path fill="#DCDAC8" d="M76.8,108.6c0.2-0.1,0.2-0.4,0.1-0.4c-0.1,0-0.4-0.3-0.6-0.4c-0.1,0-0.2,0.3-0.2,0.4
				c0,0.1,0.1,0.2,0.2,0.2C76.4,108.3,76.6,108.7,76.8,108.6z"/>
			<path fill="#DCDAC8" d="M138.7,111.4c-0.1,0.1-0.7,0.2-0.7,0.1c-0.1-0.1-0.2,0.2-0.3,0.3c-0.1,0.1,0,0.3,0.1,0.2
				c0.1-0.1,0.7,0.2,1.1,0.4c0-0.4,0.1-0.9,0.1-1.3C139,111.3,138.8,111.4,138.7,111.4z"/>
		</g>
		<g>
			<path fill="#F2EFDC" d="M76.3,122.2c0,0.1,0.7,0.7,1,0.9c0.3,0.2,0.9,1.3,1.1,1.6c0.1,0.4,0.1,1,0.1,1.1c0,0.1,0.2,0.4,0.2,0.6
				c0,0.1-0.1,1.3,0,1.7c0.1,0.4-0.3,1.9-0.3,2.6c0.1,0.7,0.5,1.6,0.6,1.5c0.1-0.1,0.2,0.6,0,0.7c-0.2,0.1-0.4,0.7-0.3,0.7
				c0.1,0,0,0.6,0.1,0.8c0.1,0.2,0.4,1.6,0.4,2c0.1,0.4,0.7,1.2,0.8,1.5c0.1,0.3,0.3,0.8,0.3,0.9c0,0.1,0.1,0.2,0.1,0.2
				c0,0,0.4,0.1,0.6,0.2c0.1,0.1,0.9-0.1,1.2-0.1c0.3-0.1,0-0.3-0.1-0.4c-0.1-0.1-0.3-0.7-0.4-0.8c-0.1,0-0.3-0.9-0.2-1
				c0.1-0.2,0.6-0.5,0.6-0.7c0-0.2,0-0.9-0.2-0.9c-0.1-0.1-0.1-1-0.2-1.4c-0.1-0.4,0.7-0.9,0.7-1.2c0-0.3,0.9-0.8,1.1-1
				c0.2-0.2,0.3-1.2,0.2-1.4c-0.1-0.2,0.3-0.4,0.5-0.4c0.2,0,0.4-0.2,0.5-0.2c0.1,0,0.3-0.5,0.4-0.6c0.1-0.1,0.3-1.2,0.5-1.3
				c0.2-0.2,0.3-0.8,0.3-1c0-0.2,0.3-0.8,0.4-0.9c0.1-0.2,0.9-0.6,1.1-0.7c0.1-0.1,0.2-1.5,0.3-1.9c0-0.5,0.2-1.2,0.2-1.3
				c0-0.2,0.3-0.3,0.3-0.4c0-0.1,0.2-0.7,0.3-0.9c0.1-0.2,0.5-0.8,0.5-0.9c0-0.1,0-0.5,0.1-0.8c0,0,0,0,0-0.3c0-0.5,0-0.5,0-0.5
				c-0.2-0.4-0.7-0.9-0.8-0.7c-0.1,0.1-0.7-0.3-0.9-0.4c-0.3-0.1-1-0.1-1.1-0.1c-0.2,0-0.8-0.4-1.1-0.5c-0.3-0.1-0.9-0.1-1.1-0.2
				c-0.1-0.1-0.4-1-0.9-1.3c-0.6-0.3-1.6-0.9-1.7-1.2c-0.1-0.3-1.2-0.8-1.5-0.9c-0.3-0.1-0.8-0.1-0.9-0.1c-0.1,0.1-0.5-0.5-0.7-0.6
				c-0.2-0.1-0.9-0.2-0.9-0.1c0,0.2-0.4,0.1-0.5,0c-0.1-0.1-0.4,0.1-0.6,0.2c-0.1,0.1-0.6,0.9-0.8,1.1c-0.2,0.2-0.5-0.1-0.7-0.2
				c-0.2-0.1-0.7,0.2-0.9,0.3c-0.1,0.1-0.6-0.8-0.6-1.2c0-0.4-0.5-1.3-0.9-1.2c-0.4,0-0.6-0.9-0.5-1.2c0-0.3-0.7-0.5-0.9-0.5
				c-0.2,0-0.6,0.5-0.7,0.7c-0.1,0.2-1.8-0.1-1.7-1.2c0.1-1,0.8-2.1,1-2.3c0.2-0.1,1.2-0.3,1.5-0.2c0.3,0.1,0.5,0,0.5-0.1
				c0-0.1,0.9-0.1,1.2,0c0.3,0.1,0.7,1.1,1,1.2c0.3,0.1,0.3-0.7,0.3-0.9c0-0.2-0.2-0.7-0.3-0.8c-0.1-0.1,0.3-1.4,0.7-1.6
				c0.4-0.2,0.8-1,0.7-1.1c0-0.1,0.3-0.2,0.4-0.3c0.1-0.1-0.1-1,0-1.3c0.1-0.2,0.9-0.8,1.1-0.9c0.2-0.1,0.4-0.8,0.3-0.9
				c-0.1-0.1,0.6-0.8,0.9-0.9c0.4-0.1,0.7,0.1,0.6,0.2c0.1,0,0.6-0.4,0.8-0.5c0.2-0.2-0.1-0.6-0.2-0.8c-0.2-0.1-0.1-0.7,0.1-0.7
				c0.2-0.1,0.3-0.5,0.3-0.6c-0.1-0.1,0.8,0,1.1-0.3c0.3-0.3,0.2,0.6-0.1,0.9c-0.2,0.4,0.2,0.6,0.4,0.6c0.1-0.1,0.3,0.1,0.4,0.2
				c0,0.1,0.4-0.1,0.6-0.1c0.2,0.1,0.3-0.3,0.3-0.5c0-0.2-0.6-0.5-0.7-0.7c-0.1-0.2-0.3-1.5-0.3-1.7c0-0.3-0.4-0.7-0.5-0.6
				c-0.1,0.1-0.4-0.6-0.6-0.8c-0.2-0.1-0.3-0.5-0.3-0.6c0-0.1-0.7-0.7-0.9-1c-0.2-0.3-0.4-0.2-0.4-0.1c0,0.1-0.4,0.2-0.6,0.2
				c-0.2,0-0.4-0.7-0.4-0.9c0-0.3-0.8-0.2-1-0.4c-0.1-0.2-0.7,0-0.8-0.2c-0.1-0.1-0.6-0.2-0.7-0.2c-0.1,0.1,0.1,1.9,0.1,2.4
				c0,0.5-0.4,1-0.6,1c-0.2,0,0,0.4,0.1,0.3c0.1,0-0.3,0.6-0.3,1c0,0.4-0.4,0-0.5-0.3c-0.1-0.3-0.5-0.8-0.6-0.7
				c-0.1,0.1-0.3-0.1-0.5,0c-0.1,0.1-0.9-0.3-1.2-0.5c-0.3-0.1-0.6-1-0.7-1.1c-0.2-0.1,0-0.2-0.1-0.3c0-0.1,0.5-0.7,0.7-0.9
				c0.2-0.2,0.7-1.1,0.9-1.3c0.2-0.2,0.4-0.7,0.3-0.8c-0.1-0.1,1-0.5,1.3-0.7c0.3-0.1,0.5-1,0.5-1.2c0-0.2-0.3-0.7-0.4-0.7
				c-0.1,0,0.4-0.1,0.6,0c0.2,0.1,0.7-0.2,1-0.1c0.2,0.1,0.7,0.3,1.1,0.5c0,0,0,0,0,0.6c0,1,0,1,0,1c-0.8,0.4-1,1.1-0.7,1
				c0.3,0,1.7,0.4,2.2,0.7c0.4,0.2,0.5-0.5,0.6-0.7c0.1-0.2,0-0.9-0.1-1c-0.1-0.1,0.4-0.1,0.6,0c0.2,0.1,0.3-0.2,0.4-0.2
				c0.1-0.1,0.1-0.6,0.2-0.8c0.1-0.1-0.3-0.2-0.3-0.3c0-0.1-0.7-0.4-0.9-0.4c-0.2-0.1-0.3-0.5-0.2-0.6c0.1-0.1-0.1-0.6-0.2-0.8
				c-0.1-0.2-0.8-0.3-1-0.2c-0.2,0-0.5-0.5-0.6-0.5c-0.1-0.1-1-0.1-1.2,0c-0.2,0.1-0.6-0.5-1-0.3c-0.3,0.2-0.7-0.2-0.9-0.2
				c-0.2-0.1-0.9,0.9-0.8,1.5c0.1,0.6,0.4,1.2,0.6,1.2c0.1,0,0,0.6-0.1,0.7c-0.1,0.2-0.5-0.1-0.4-0.3c0.1-0.2-0.4-0.7-0.6-1
				c-0.1-0.2-0.6-0.3-0.9-0.4c-0.2,0.2-0.3,0.4-0.4,0.6c0.1,0.2,0.2,0.5,0.1,0.7c-0.1,0.4-0.4,0.5-0.4,0.3c0-0.1-0.2-0.1-0.4-0.1
				c-0.2,0.2-0.3,0.4-0.4,0.7c-0.1,0.2-0.3,0.4-0.4,0.7c-0.1,0.2-0.3,0.5-0.4,0.7c-0.1,0.2-0.3,0.4-0.4,0.7c-0.2,0.3-0.4,0.7-0.5,1
				c-0.2,0.3-0.3,0.6-0.5,1c-0.1,0.3-0.3,0.6-0.4,0.8c-0.1,0.2-0.2,0.4-0.3,0.6c-0.1,0.3-0.3,0.6-0.4,0.9c-0.1,0.2-0.1,0.3-0.2,0.5
				c-0.3,0.7-0.5,1.4-0.8,2.1c0,0,0,0,0,0.1c-0.1,0.4-0.2,0.7-0.3,1.1c0,0.1-0.1,0.3-0.1,0.4c-0.1,0.4-0.2,0.7-0.3,1.1
				c0,0.1,0,0.1,0,0.2c-0.3,1.2-0.5,2.5-0.7,3.8c0,0.1,0,0.2,0,0.3c-0.2,1.3-0.3,2.7-0.3,4c0,0,0,0,0,0c0.2,0.2,0.4,0.4,0.5,0.6
				c0.1,0.3,0.7,0.5,0.8,0.5c0.1,0.1,0.1-0.6,0-0.8c-0.1-0.2,0.1-0.3,0.1-0.2c0,0.1,0.6,0.7,0.8,0.9c0.2,0.2,0.5,1.6,0.7,1.9
				c0.2,0.3,1.9,0.8,2.5,0.8c0.5,0.1,1.3,0.6,1.4,0.8c0.1,0.2,0.8,0.2,1,0.2c0.2,0.1,0.6,0.5,0.7,0.6c0.2,0.1,0.3,0.4,0.3,0.4
				c0,0.1,1,0.3,1.2,0.6c0.2,0.2,0.6,0.1,0.7,0c0.1-0.1,0.3,0.5,0.4,0.7c0.1,0.2,0.2,0.7,0.1,0.8c-0.1,0.1-0.1,1-0.3,1.2
				c-0.1,0.2-0.3,1.6-0.2,1.9c0.1,0.3,0.6,0.8,0.8,0.8c0.2,0.1,0.1,0.4,0,0.4c-0.1,0,0,1.3,0.4,1.5C76,121.5,76.4,122.1,76.3,122.2z
				"/>
			<line fill="#F2EFDC" x1="78.6" y1="98.9" x2="78.6" y2="98.9"/>
			<path fill="#F2EFDC" d="M74.6,83.2c0.4-0.1,1.2-0.3,1.2-0.4c0-0.1,0-0.4-0.1-0.5c0.1,0,0.2,0,0.2,0c0.2,0,0.4-1,0.5-1.2
				c0.2-0.2,1.2-0.7,1.4-0.8c0.2-0.2,0.7-0.7,0.9-0.8c0.2-0.1,0.5-0.6,0.4-0.7c-0.1-0.1,0.6-0.6,0.9-0.8c0.3-0.1,0.4-0.5,0.3-0.5
				c-0.1,0-1.6,1-2.9,1.9c0,0,0,0,0,0c-0.4,0.3-0.8,0.6-1.1,1c-0.3,0.2-0.5,0.5-0.7,0.7c-0.1,0.1-0.3,0.2-0.4,0.4
				c-0.3,0.3-0.6,0.6-0.9,0.9c-0.1,0.1-0.1,0.1-0.2,0.2c-0.3,0.3-0.6,0.7-0.9,1C73.6,83.5,74.3,83.3,74.6,83.2z"/>
			<path fill="#F2EFDC" d="M100.1,99.4c-0.2,0-0.1,0.5,0.1,0.6c0.1,0,0.3-0.3,0.4-0.6l-0.2-2.1c0,0,0,0,0,0c-0.2-0.2-0.2-0.2,0-0.1
				l-1.2-12.9c-0.2,0.2-0.3,0.4-0.5,0.5c-0.3,0.3-0.7,1.4-0.9,1.6c-0.2,0.3-0.4,0.3-0.5,0.4c-0.1,0-0.2,0.3-0.2,0.4
				c0,0.1-0.9,0.7-0.9,1.1c-0.1,0.4,0.2,1.3,0.2,1.7c0,0.3,0.4,1,0.7,1c0.3,0,0.2,0.6,0.1,0.7c-0.1,0.2,0.2,0.3,0.2,0.4
				c0,0.1-0.6,0.4-0.8,0.5c-0.2,0.1-0.5,0.6-0.5,0.7c0,0.1-0.6,0.3-0.8,0.5c0-0.1,0.1-0.3,0.1-0.5c0.1-0.2-0.1-0.6-0.2-0.7
				c-0.1-0.1-0.3-1.2-0.4-1.4c-0.2-0.2-0.6-0.6-0.7-0.7c-0.1-0.1,0-0.4,0.1-0.5c0-0.1-0.5-0.1-0.7,0c-0.1,0.1-0.1,1.2-0.2,1.5
				c0,0.3,0.4,0.7,0.4,0.7c0.1,0,0.1,0.5-0.1,0.6c-0.2,0-0.3,0.8-0.2,1c0.1,0.2-0.1,0.5-0.2,0.6c-0.1,0.1,0.8,0,1.2-0.1
				c0.4,0,0.7,0.1,0.7,0.1c0,0-0.8,0.2-0.9,0.4c-0.1,0.2-0.6,0.6-0.7,0.7c-0.1,0.1,0.2,0.4,0.4,0.4c0.2,0,0.5,0.7,0.7,0.8
				C95,97,95,97.4,95,97.5c-0.1,0.1-1.1,0-1.4,0.2c-0.4,0.1-0.8,1-0.8,1.3c0,0.3,0.2,1.1,0.2,1.4c0.1,0.2,0.9,0.3,1,0.4
				c0.2,0.1,0.9-0.1,1.1,0c0.2,0.1,0.6-0.8,0.6-1.2c0.1-0.4,0.8-1.2,0.9-1.5c0.1-0.3,1-0.3,1.2-0.5c0.2-0.2,0.2,0.6,0.3,1.1
				c0.1,0.4,1,0.3,0.8-0.1c-0.2-0.4,0-0.6,0.1-0.4c0,0.1,0.9,0.4,1,0.6C100.3,98.9,100.3,99.4,100.1,99.4z"/>
			<path fill="#F2EFDC" d="M100.8,101.9c-0.2-0.1-0.3-0.1-0.4-0.2c-0.5-0.2-1-0.9-1.1-0.9c-0.1-0.1,0.1-0.3,0-0.5
				c-0.1-0.1-1.2-0.1-1.5,0.1c-0.3,0.1-2,0.5-2.3,0.7c-0.4,0.2-1,0.1-1.2,0.1c-0.2,0-0.6,0.6-0.8,0.7c-0.2,0.1-0.4,0.9-0.5,1.8
				c0,0,0,0-0.2,0.6c-0.2,0.4-0.2,0.4-0.2,0.4c-0.5,0.5-1,1.9-1.1,2.2c-0.2,0.3-0.1,2.3,0,3c0.1,0.7,0.8,2,1,2.4
				c0.2,0.4,1.3,1.2,1.7,1.3c0.4,0.2,1.5,0.1,1.8,0.1c0.4,0,0.7-0.4,0.8-0.8c0,0,0,0,0.5,0c0.2,0,0.2,0,0.2,0c0,0.3,0.8,0.5,1,0.5
				c0.2,0.1,0.7,0,0.9-0.1c0.1-0.1,0.5,1.3,0.4,1.7c-0.1,0.4,0.4,1.8,0.6,2.2c0.2,0.4,0.7,1.5,0.8,1.9c0.1,0.4-0.1,1.8-0.1,2.3
				c0,0.5,0.8,1.8,1,2.2c0.2,0.4,0.4,1.4,0.5,1.7c0,0.1,0.2,0.5,0.5,1L100.8,101.9z"/>
			<path fill="#F2EFDC" d="M84.6,136.7c0.2,0,0.3,0,0.5,0C85.2,136.1,84.6,136.2,84.6,136.7z"/>
			<path fill="#F2EFDC" d="M90.2,84.3c0.3,0.1,0.7-0.3,0.5-0.5c-0.2-0.1-0.1-0.1,0-0.1c0.1,0,0.1-0.5,0-0.6
				c-0.1-0.1,0.7-0.8,0.5-1.4c-0.2-0.6,0.1-1.2,0.4-1.3c0.2,0,0.1-0.7-0.2-0.7c-0.3,0,0-0.1,0.1-0.2c0.1-0.1,0.2-0.7,0.1-0.8
				c-0.1-0.1,0.4-0.3,0.5-0.4c0.1-0.1,0.6-0.5,0.8-0.5c0.2-0.1,0.3-0.6,0-0.6c-0.2,0-0.8,0-0.9-0.1c-0.1-0.1-1-0.1-1.2,0
				c-0.2,0.1-0.1-0.6,0.2-0.7c0.3-0.1,0-0.6-0.4-0.5c-0.4,0-1.3,0-1.5,0c-0.2,0.1-0.6-0.1-0.8-0.1c-0.2,0-1.2,0.4-1.7,0.5
				c-0.5,0-1.7,0.2-2,0.3c-0.3,0.1-0.4,0.6-0.4,0.8c0.1,0.2-1.2,0.3-1.6,0.3c-0.4,0-2.4,0.7-2.9,1c-0.5,0.3-0.9,1.1-0.7,1.1
				c0.2,0-0.3,0.5-0.5,0.6c-0.3,0.1-1,0.2-1.1,0.4c-0.1,0.2,0.2,0.3,0.3,0.4c0.1,0.1,0.3-0.1,0.4,0c0.2,0.1,0.8,0.1,1,0.1
				c0.2,0-0.5,0.2-0.8,0.3c-0.3,0.1-0.2,0.7,0.1,0.7c0.3,0.1,0.9,0.1,1,0c0.1-0.1,0.8,0,1.1,0.1c0.3,0,0.7,0.8,0.8,1
				c0.1,0.2,0.2,0.8,0.2,1c0,0.2,0.6,0.5,0.7,0.3c0.1-0.1,0.1,0.3-0.1,0.3c-0.2,0,0,0.7,0.3,0.7c0.3,0.1,0.1,0.5,0,0.7
				c-0.2,0.1,0,0.5-0.2,0.7c-0.2,0.2,0.8,1.5,0.8,2.2c0.1,0.7,0.6,1.2,0.7,1.2c0.2,0,0.8,0.1,0.9,0.2c0.1,0.1,0.3-0.1,0.4-0.3
				c0.1-0.1,0.3-0.5,0.5-0.8c0.2-0.3,0.4-1.8,0.5-1.9c0-0.2,0.7-0.1,0.9-0.2c0.1-0.1,0.5-0.5,0.7-0.6c0.1-0.1,1-0.6,1.3-0.8
				c0.2-0.2,0.6-1.1,0.8-1.2c0.2-0.2-0.1-0.1-0.4-0.3c-0.3-0.1-0.2-0.4-0.1-0.4C89.2,84.1,90,84.2,90.2,84.3z"/>
			<path fill="#F2EFDC" d="M97.9,77.2c-0.3-0.1-0.8,0.3-0.7,0.4c0.1,0.2-0.5-0.2-0.8,0c-0.3,0.2-0.4,0.9-0.2,0.9
				c0.2,0.1,0.3,0.6,0.4,0.6c0,0.1,0.7,0,0.9-0.2c0.2-0.2,0.2,0.5,0,0.7c-0.2,0.2,0.1,0.5,0.3,0.5c0.2,0,0.5,0.4,0.7,0.4
				c0.1,0,0.2-0.2,0.3-0.5L98.5,78l0,0C98.4,78,98.2,77.3,97.9,77.2z"/>
			<path fill="#F2EFDC" d="M92.9,93.6c0.2-0.1,0.4-0.2,0.3-0.4c0-0.2-0.4-0.9-0.5-0.9c-0.1,0-0.3,0.6-0.4,0.6
				c-0.1,0-0.2,0.5-0.1,0.7C92.2,93.7,92.7,93.6,92.9,93.6z"/>
			<path fill="#F2EFDC" d="M91.6,87.8c0.1,0.2,0.4,0.3,0.6,0.2c0.2-0.1,0.7-0.4,0.9-0.4c0.2,0,0.3-0.9,0.2-1.1
				c-0.1-0.2-1-0.1-1.2-0.1c-0.2,0-0.8-0.1-1-0.3c-0.1-0.1-0.2,0.5-0.3,0.6C90.6,86.9,90.9,87,91,87c0.1-0.1,0,0.3,0,0.5
				C90.8,87.6,91.5,87.6,91.6,87.8z"/>
			<path fill="#F2EFDC" d="M73,89.6c-0.1,0.1,0,0.7,0.3,0.7c0.2,0,0.6-1,0.9-0.8c0.3,0.2,0.5,0.2,0.5,0.1c-0.1-0.1-1-0.4-1.1-0.5
				C73.5,89.1,73.2,89.4,73,89.6z"/>
			<path fill="#F2EFDC" d="M78.1,109.9c0,0.1,0.5,0,0.6-0.1c0.1-0.2,0-0.3-0.1-0.3C78.5,109.5,78.1,109.8,78.1,109.9z"/>
			<path fill="#F2EFDC" d="M75.7,109.3c0.3-0.1,0.2,0.4,0.2,0.5c0.1,0.1,0.7,0.2,0.8,0.3c0.1,0.1,0.4-0.2,0.7-0.2
				c0.3,0-0.2-0.9-0.6-0.8c-0.4,0.1-0.8-0.3-0.9-0.3c-0.1,0-0.6-0.3-0.8-0.4c-0.1-0.1-1.2-0.1-1.6-0.1c-0.4,0-0.7,0.4-0.8,0.6
				c0,0.1,0.6,0.2,0.8,0c0.2-0.1,1,0,1.2,0.2C75,109.2,75.4,109.3,75.7,109.3z"/>
			<path fill="#F2EFDC" d="M74.6,110.3c0,0.1,0.6,0,0.7,0c0.1,0,0.1-0.1,0-0.2C75.1,109.9,74.6,110.1,74.6,110.3z"/>
			<path fill="#F2EFDC" d="M74.7,107.4c-0.1,0-0.2,0.2-0.2,0.3c0,0.1,0.1,0.2,0.2,0.2S74.9,107.4,74.7,107.4z"/>
			<path fill="#F2EFDC" d="M75.9,107.4c-0.1-0.1-0.3-0.2-0.4-0.2c-0.1,0-0.1,0.2-0.1,0.4C75.5,107.9,75.9,107.5,75.9,107.4z"/>
			<path fill="#F2EFDC" d="M76.8,108.6c0.2-0.1,0.2-0.4,0.1-0.4c-0.1,0-0.4-0.3-0.6-0.4c-0.1,0-0.2,0.3-0.2,0.4
				c0,0.1,0.1,0.2,0.2,0.2C76.4,108.3,76.6,108.7,76.8,108.6z"/>
		</g>
		<path fill="#D1ECFB" d="M75.7,82.4c0,0-0.2,0.1-0.1,0.2C75.7,82.6,75.8,82.4,75.7,82.4z"/>
		<path fill="#D1ECFB" d="M81.1,94.4c0,0-0.2,0.1-0.1,0.2C81,94.6,81.1,94.5,81.1,94.4z"/>
	</g>
	<g>
		<defs>
			<path id="SVGID_1_" d="M81,78.2c5-2.2,10.5-3.7,16.4-4.3c6.4-0.6,12.6,0,18.3,1.5c6.9-5.3,10.9-13.2,10.1-21.6
				c-1.3-13.9-15.4-24-31.4-22.5s-28,14-26.7,27.9C68.6,67.4,73.7,74.3,81,78.2z"/>
		</defs>
		<clipPath id="SVGID_2_">
			<use xlink:href="#SVGID_1_"  overflow="visible"/>
		</clipPath>
		<g clip-path="url(#SVGID_2_)">
			<path fill-rule="evenodd" clip-rule="evenodd" fill="#F2EFDC" d="M121.8,50.7c-0.7-7.1-7.1-12.3-14.4-11.6c-0.5,0-1,0.1-1.5,0.2
				c-2.7-3.2-6.9-5-11.4-4.6c-4.5,0.4-8.3,3-10.4,6.7c-0.5,0-1,0-1.6,0c-7.3,0.7-12.6,7-11.9,14c0.6,6.3,5.7,11,11.9,11.6
				c0.8,3.3,1.7,6.6,2.5,9.8c0.8,3,3.1,4.9,5.2,4.5c5.7-1.2,11.5-1.7,17.3-1.6c2.1,0,4-2.3,4.2-5.4c0.2-2.7,0.3-5.5,0.5-8.2
				c-0.1,0-0.3,0-0.4,0.1c-4.1,0.4-8-1.1-10.7-3.8c2.5,1.7,5.5,2.6,8.8,2.3C117.1,64.1,122.5,57.8,121.8,50.7z"/>
			<path fill-rule="evenodd" clip-rule="evenodd" fill="#DCDAC8" d="M107.5,39.2c-0.5,0-1,0.1-1.5,0.2c-2.7-3.2-6.9-5-11.4-4.6
				c-0.3,0-0.7,0.1-1,0.2l4.3,45.4c3.2-0.3,6.4-0.5,9.7-0.4c2.1,0,4-2.3,4.2-5.4c0.2-2.7,0.3-5.5,0.5-8.2c-0.1,0-0.3,0-0.4,0.1
				c-4.1,0.4-8-1.1-10.7-3.8c2.5,1.7,5.5,2.6,8.8,2.3c7.3-0.7,12.6-7,12-14C121.2,43.7,114.7,38.5,107.5,39.2z"/>
			
				<ellipse transform="matrix(0.9956 -9.352728e-02 9.352728e-02 0.9956 -4.0702 9.0908)" fill-rule="evenodd" clip-rule="evenodd" fill="#F2EFDC" cx="95" cy="48" rx="10.3" ry="13.1"/>
		</g>
	</g>
	<g>
		<path fill="#DCDAC8" d="M151.2,105.5l-3.5-0.9c0.2,0.1,0.4,0.3,0.6,0.4c-4.2,14.1-7.1,23.2-11.4,37.3c-0.4,1.1,0.4,3,1.9,3.4
			c1.5,0.4,3.1-0.8,3.3-2c3.2-14.4,5.1-23.7,8.3-38.1C150.8,105.6,151,105.6,151.2,105.5z"/>
		<path fill="#F2EFDC" d="M162,96.4c1-6.3-0.4-15.6-5.1-17c-4.8-1.1-10.6,6.3-12.8,12.3c-2.1,5.6,0.1,11.6,4.8,13.7
			c-0.1,0.2-0.1,0.3-0.2,0.5c0.4,0.1,0.7,0.3,1.1,0.4c0.4,0.1,0.8,0.2,1.2,0.2c0-0.2,0.1-0.3,0.1-0.5
			C156.3,106.4,161.1,102.3,162,96.4z"/>
		<path fill="#F2EFDC" d="M151.8,106l-3.5-0.9c0.2,0.1,0.4,0.3,0.6,0.4c-4.2,14-7.1,23-11.3,37c-0.4,1.1,0.4,3,1.9,3.4
			c1.5,0.4,3.1-0.8,3.3-2c3.2-14.3,5.1-23.5,8.2-37.8C151.4,106,151.6,106,151.8,106z"/>
		<path fill="#DCDAC8" d="M145.1,92.1c2.2-6.1,7.8-12.6,11.7-11.7c2.6,0.7,4.2,4.9,4.6,9.6c-0.8-2.7-2.1-4.7-3.8-5.2
			c-3.8-0.9-9.4,5.6-11.7,11.7c-0.5,1.2-0.7,2.5-0.7,3.7C144.2,97.7,144.1,94.8,145.1,92.1z"/>
		<path fill="#DCDAC8" d="M150.4,104.8c-0.7-0.2-1.3-0.5-1.9-0.9c0.4,0.2,0.9,0.4,1.4,0.6c2.3,0.5,4.7,0,6.8-1.4
			c2.5-1.7,4.2-4.5,4.7-7.7c0-0.3,0.1-0.6,0.1-0.9c0,0.6-0.1,1.2-0.2,1.7c-0.5,3-2.1,5.7-4.4,7.3
			C154.8,104.8,152.6,105.3,150.4,104.8z"/>
	</g>
	<g>
		<path fill="#D8366C" d="M136.7,79.4l0.5-0.6c1.8-2.2,1.5-5.5-0.7-7.3l-0.1-0.1c-2.2-1.8-5.5-1.5-7.3,0.7l-0.5,0.6l-0.6-0.5
			c-2.2-1.8-5.5-1.5-7.3,0.7l-0.1,0.1c-1.8,2.2-1.5,5.5,0.7,7.3l0.6,0.5l8.1,6.7L136.7,79.4z"/>
		<path fill="#AD234B" d="M130,87.5l6.7-8.1l0.5-0.6c1.8-2.2,1.5-5.5-0.7-7.3l-0.1-0.1c-2.2-1.8-5.5-1.5-7.3,0.7l-0.5,0.6"/>
	</g>
</g>
<path fill="#492133" d="M166.5,151.1c0,0-1.5,16.2,13.6,32.2c-24.8,1-42.9-9.6-42.9-9.6"/>
</svg>
