<?xml version="1.0" encoding="utf-8"?>
<!-- Generator: Adobe Illustrator 18.0.0, SVG Export Plug-In . SVG Version: 6.00 Build 0)  -->
<!DOCTYPE svg PUBLIC "-//W3C//DTD SVG 1.1//EN" "http://www.w3.org/Graphics/SVG/1.1/DTD/svg11.dtd">
<svg version="1.1" id="Lag_1" xmlns="http://www.w3.org/2000/svg" xmlns:xlink="http://www.w3.org/1999/xlink" x="0px" y="0px"
	 viewBox="0 0 200 200" enable-background="new 0 0 200 200" xml:space="preserve">
<circle fill="#492222" cx="100" cy="100" r="90"/>
<g>
	<g>
		<g>
			<path fill="#71841F" d="M50.5,123.9c1.1,0.5,1.3,0.2,0.4-0.6c-2.2-1.9-4.6-3.6-7-5.2c-1-0.6-1.9-0.6-2.2-0.2c0,0,0,0,0,0
				c-0.3,0.4,0.1,1.2,1.1,1.9C45.2,121.4,47.8,122.7,50.5,123.9z"/>
			<circle fill="#71841F" cx="43.8" cy="115" r="1.3"/>
			<circle fill="#71841F" cx="40.1" cy="114.8" r="1.3"/>
			<circle fill="#71841F" cx="38.9" cy="118.3" r="1.3"/>
			<circle fill="#71841F" cx="40.2" cy="117.5" r="1.8"/>
			<circle fill="#71841F" cx="44" cy="117" r="2.1"/>
			<circle fill="#71841F" cx="41.6" cy="116.1" r="2.1"/>
			<circle fill="#71841F" cx="41.8" cy="119.2" r="2.1"/>
		</g>
		<g>
			<path fill="#879C29" d="M53.8,123.9c1,0.7,1.2,0.5,0.5-0.5c-1.8-2.3-3.7-4.5-5.8-6.5c-0.9-0.8-1.7-1-2.1-0.6c0,0,0,0,0,0
				c-0.4,0.4-0.2,1.2,0.7,2.1C49.2,120.3,51.4,122.2,53.8,123.9z"/>
			<circle fill="#879C29" cx="48.7" cy="113.6" r="1.3"/>
			<circle fill="#879C29" cx="44.8" cy="113.7" r="1.3"/>
			<circle fill="#879C29" cx="43.7" cy="116.1" r="1.3"/>
			<circle fill="#879C29" cx="45.1" cy="115.5" r="1.8"/>
			<circle fill="#879C29" cx="48.8" cy="115.8" r="2.1"/>
			<circle fill="#879C29" cx="46.8" cy="114.4" r="2.1"/>
			<circle fill="#879C29" cx="46.3" cy="117.5" r="2.1"/>
		</g>
		<g>
			<path fill="#879C29" d="M53.2,126.2c1.1,0.6,1,0.9-0.2,0.7c-2.8-0.6-5.7-1.4-8.4-2.3c-1.2-0.4-1.7-1.1-1.5-1.6c0,0,0,0,0-0.1
				c0.2-0.5,1-0.7,2.2-0.3C48,123.7,50.6,124.9,53.2,126.2z"/>
			<circle fill="#879C29" cx="41.7" cy="126.3" r="1.3"/>
			<circle fill="#879C29" cx="40" cy="122.7" r="1.3"/>
			<circle fill="#879C29" cx="41.7" cy="120.6" r="1.3"/>
			<circle fill="#879C29" cx="41.8" cy="122.1" r="1.8"/>
			<circle fill="#879C29" cx="43.8" cy="125.4" r="2.1"/>
			<circle fill="#879C29" cx="41.6" cy="124.1" r="2.1"/>
			<circle fill="#879C29" cx="44.1" cy="122.4" r="2.1"/>
		</g>
		<g>
			<path fill="#FBAB18" d="M71.5,137.6c2.8,1.1,3.2,0.4,1-1.6l-15.8-14.2c-2.2-2-5.3-1.6-6.9,1l-0.2,0.3c-1.6,2.5-0.6,5.5,2.2,6.6
				L71.5,137.6z"/>
			<path fill="#E39910" d="M49.6,123l0.1-0.1l24.2,15.1c-0.2,0.3-1,0.2-2.4-0.4l-19.7-7.9C49,128.6,48,125.6,49.6,123z"/>
			<g>
				<defs>
					<path id="SVGID_1_" d="M71.5,137.6c2.8,1.1,3.2,0.4,1-1.6l-15.8-14.2c-2.2-2-5.3-1.6-6.9,1l-0.2,0.3c-1.6,2.5-0.6,5.5,2.2,6.6
						L71.5,137.6z"/>
				</defs>
				<clipPath id="SVGID_2_">
					<use xlink:href="#SVGID_1_"  overflow="visible"/>
				</clipPath>
				<g clip-path="url(#SVGID_2_)">
					<path fill="#FBAB18" d="M52.4,129.3c1.4-2.6,1.2-2.7-0.5-0.3l-12,17.2c-1.7,2.4-2.5,4.8-1.7,5.2l0.1,0c0.7,0.5,2.5-1.3,3.9-3.8
						L52.4,129.3z"/>
					<path fill="#FBAB18" d="M60.6,133.3c1.4-2.6,1.2-2.7-0.5-0.3l-12,17.2c-1.7,2.4-2.5,4.8-1.7,5.2l0.1,0c0.7,0.5,2.5-1.3,3.9-3.8
						L60.6,133.3z"/>
					<path fill="#FBAB18" d="M65.1,135.7c1.4-2.6,1.2-2.7-0.5-0.3l-12,17.2c-1.7,2.4-2.5,4.8-1.7,5.2l0.1,0c0.7,0.5,2.5-1.3,3.9-3.8
						L65.1,135.7z"/>
					<path fill="#E39910" d="M58.7,126.5c-1.7,2.4-1.9,2.3-0.5-0.3l10.1-18.3c1.4-2.6,3.2-4.3,3.9-3.8l0.1,0c0.7,0.5,0,2.8-1.7,5.2
						L58.7,126.5z"/>
					<path fill="#E39910" d="M62.6,127.5c-1.7,2.4-1.9,2.3-0.5-0.3l10.1-18.3c1.4-2.6,3.2-4.3,3.9-3.8l0.1,0c0.7,0.5,0,2.8-1.7,5.2
						L62.6,127.5z"/>
					<path fill="#E39910" d="M71.7,134.1c-1.7,2.4-1.9,2.3-0.5-0.3l10.1-18.3c1.4-2.6,3.2-4.3,3.9-3.8l0.1,0c0.7,0.5,0,2.8-1.7,5.2
						L71.7,134.1z"/>
					<g>
						<path fill="#E39910" d="M54.9,127.6c-0.2,0.2-0.2,0.2-0.1-0.1l0.8-1.8c0.1-0.3,0.4-0.4,0.5-0.3l0,0c0.2,0.1,0.2,0.4,0,0.6
							L54.9,127.6z"/>
						<path fill="#E39910" d="M57.1,124c0.1-0.3,0.1-0.3-0.1-0.1l-1.3,1.6c-0.2,0.2-0.2,0.5,0,0.6l0,0c0.2,0.1,0.4,0,0.5-0.3
							L57.1,124z"/>
					</g>
					<g>
						<path fill="#E39910" d="M57.3,131.9c-0.2,0.2-0.2,0.2-0.1-0.1l0.8-1.8c0.1-0.3,0.4-0.4,0.5-0.3l0,0c0.2,0.1,0.2,0.4,0,0.6
							L57.3,131.9z"/>
						<path fill="#E39910" d="M59.6,128.3c0.1-0.3,0.1-0.3-0.1-0.1l-1.3,1.6c-0.2,0.2-0.2,0.5,0,0.6l0,0c0.2,0.1,0.4,0,0.5-0.3
							L59.6,128.3z"/>
					</g>
					<g>
						<path fill="#FBAB18" d="M57.3,131.9c-0.2,0.2-0.2,0.2-0.1-0.1l0.7-1.6c0.1-0.2,0.3-0.3,0.5-0.2l0,0c0.2,0.1,0.2,0.4,0,0.5
							L57.3,131.9z"/>
						<path fill="#FBAB18" d="M59.3,128.8c0.1-0.2,0.1-0.3-0.1-0.1l-1.1,1.4c-0.2,0.2-0.1,0.4,0,0.5l0,0c0.2,0.1,0.4,0,0.5-0.2
							L59.3,128.8z"/>
					</g>
					<g>
						<path fill="#E39910" d="M64.7,132.2c-0.2,0.2-0.2,0.2-0.1-0.1l0.8-1.8c0.1-0.3,0.4-0.4,0.5-0.3l0,0c0.2,0.1,0.2,0.4,0,0.6
							L64.7,132.2z"/>
						<path fill="#E39910" d="M66.9,128.6c0.1-0.3,0.1-0.3-0.1-0.1l-1.3,1.6c-0.2,0.2-0.2,0.5,0,0.6l0,0c0.2,0.1,0.4,0,0.5-0.3
							L66.9,128.6z"/>
					</g>
					<g>
						<path fill="#E39910" d="M67.3,135c-0.2,0.2-0.2,0.2-0.1-0.1l0.8-1.8c0.1-0.3,0.4-0.4,0.5-0.3l0,0c0.2,0.1,0.2,0.4,0,0.6
							L67.3,135z"/>
						<path fill="#E39910" d="M69.5,131.4c0.1-0.3,0.1-0.3-0.1-0.1l-1.3,1.6c-0.2,0.2-0.2,0.5,0,0.6l0,0c0.2,0.1,0.4,0,0.5-0.3
							L69.5,131.4z"/>
					</g>
					<path fill="#FBAB18" d="M54.8,127.6l0.6-1.2l0.4,0.2l-0.8,1C54.7,127.9,54.7,127.8,54.8,127.6z"/>
				</g>
			</g>
		</g>
	</g>
	<g>
		<path fill="#F2EFDC" d="M59.8,114.7c2-4.7,6.1-7.1,9.2-5.3c2.4,1.4,4.2,4.8,4,8.1c0,0.2,0.1,0.5,0.3,0.8c0.7,0.6,1.5,1.3,2.8,1.7
			c0,0,0,0,0,0c-0.9-0.2-1.6-0.5-2.1-0.8c0.4,0.5,1,0.9,1.7,1.4c0.5-0.1,1.3-0.2,2.1,0.2c0,0,0,0,0,0c-0.7-0.3-1.3-0.2-1.8,0
			c0.3,0.2,0.6,0.4,0.9,0.6c0.6,0.1,1.2,0.3,1.8,0.6c0,0,0,0,0,0c-0.5-0.2-1-0.3-1.5-0.4c0.7,0.4,1.4,0.8,2.1,1.2c0,0,0,0,0,0
			c0,0,0,0,0,0c-1.3-0.4-2.6-0.7-3.7-0.9c0.7,0.5,1.6,1,2.7,1.1c0,0,0,0,0,0c-1.4-0.1-2.4-0.7-3.2-1.2c-0.1,0-0.3,0-0.4-0.1
			c0,0,0,0,0,0c0.2,0.3,0.4,0.7,0.8,0.9c-0.5-0.2-0.7-0.5-0.9-0.8c-0.2,0.2-0.6,0.6,0,1.2l0,0c-0.9-0.8-0.3-1.1-0.2-1.4
			c-1.5-0.2-2.6,0-3.1,0.4c-2.2,2.5-5.8,3.7-8.5,2.9C59.1,124,57.8,119.4,59.8,114.7z"/>
		<path fill="#DCDAC8" d="M59.8,114.7C59.8,114.7,59.8,114.7,59.8,114.7l19.1,7.8c0.1,0.1,0.2,0.1,0.3,0.2c0,0,0,0,0,0c0,0,0,0,0,0
			c-1.3-0.4-2.6-0.7-3.7-0.9c0.7,0.5,1.6,1,2.7,1.1c0,0,0,0,0,0c-1.4-0.1-2.4-0.7-3.2-1.2c-0.1,0-0.3,0-0.4-0.1c0,0,0,0,0,0
			c0.2,0.3,0.4,0.7,0.8,0.9c-0.5-0.2-0.7-0.5-0.9-0.8c-0.2,0.2-0.6,0.6,0,1.2l0,0c-0.9-0.8-0.3-1.1-0.2-1.4c-1.5-0.2-2.6,0-3.1,0.4
			c-2.2,2.5-5.8,3.7-8.5,2.9C59.1,124,57.8,119.4,59.8,114.7z"/>
		<g>
			<g>
				<path fill="#879C29" d="M54.8,101.6c-5.3,7.1,5,12.4,5.4,12.5c0-0.1,0-0.1,0.1-0.2c0.2-0.8,1.3-4.2,0.9-5
					c-0.5-1-2.6-0.4-2.6-0.3c-0.7-0.9,0.9-2.5,0.4-3.5c-0.5-1-3,0-3,0.1c-0.7-0.9,1.4-2.9,0.9-3.9C56.4,100.8,55.6,101.3,54.8,101.6
					z"/>
				<path fill="#71841F" d="M54.8,101.6c-2.6,5.5,5,12.4,5.4,12.5c0-0.1,0-0.1,0.1-0.2c0.2-0.8,1.3-4.2,0.9-5
					c-0.5-1-2.6-0.4-2.6-0.3c-0.7-0.9,0.9-2.5,0.4-3.5c-0.5-1-3,0-3,0.1c-0.7-0.9,1.4-2.9,0.9-3.9C56.4,100.8,55.6,101.3,54.8,101.6
					z"/>
			</g>
			<g>
				<path fill="#879C29" d="M45.8,111.5c2.4-1.4-1.4-0.8-1.7-1.9c-0.1-0.3-0.1-0.8,0-1.3l16.3,6.7c0,0,0.1,0.1,0.1,0.1
					c0,0-0.1,0.1-0.1,0.1c-0.7,0.4-3.7,2.2-4.5,1.9c-1.1-0.2-0.9-2.3-0.9-2.3c-1-0.5-2.2,1.4-3.2,1.2c-1.1-0.2-0.7-2.9-0.6-2.9
					c-1-0.5-2.5,1.4-3.4,1.7C46.9,115,43.3,112.9,45.8,111.5z"/>
				<path fill="#71841F" d="M47.6,107.1c0.7,2.7-1.5-0.4-2.6,0.2c-0.2,0.1-0.6,0.5-0.9,1l16.3,6.7c0.1,0,0.1,0,0.1,0
					c0-0.1,0-0.1,0-0.2c-0.2-0.8-1.1-4.1-1.8-4.6c-0.9-0.6-2.3,1-2.3,1c-1-0.4-0.5-2.5-1.4-3.1c-0.9-0.6-2.5,1.5-2.5,1.6
					c-1-0.4-0.8-2.7-1.2-3.6C50.8,105.5,46.9,104.4,47.6,107.1z"/>
			</g>
			<g>
				<path fill="#71841F" d="M47.3,119.8c1.3-8.8,12.3-5.2,12.7-5c0,0.1-0.1,0.1-0.1,0.2c-0.4,0.7-2.1,3.9-2.9,4.2
					c-1.1,0.4-2.1-1.5-2.1-1.6c-1.1,0.1-1.2,2.4-2.2,2.7c-1.1,0.4-2.1-2.2-2.1-2.2c-1.1,0.1-1.1,3-2.1,3.4
					C47.9,121.6,47.6,120.7,47.3,119.8z"/>
				<path fill="#879C29" d="M47.3,119.8c2-5.7,12.3-5.2,12.7-5c0,0.1-0.1,0.1-0.1,0.2c-0.4,0.7-2.1,3.9-2.9,4.2
					c-1.1,0.4-2.1-1.5-2.1-1.6c-1.1,0.1-1.2,2.4-2.2,2.7c-1.1,0.4-2.1-2.2-2.1-2.2c-1.1,0.1-1.1,3-2.1,3.4
					C47.9,121.6,47.6,120.7,47.3,119.8z"/>
			</g>
		</g>
	</g>
	<g>
		<g>
			<path fill="#BC3A3A" d="M138.4,65.3c2.9-0.2,5-2.7,4.8-5.5c-0.2-2.9-2.7-5-5.5-4.8c-2.9,0.2-5,2.7-4.8,5.5
				C133.1,63.3,135.5,65.5,138.4,65.3L138.4,65.3z M137.9,56.8c1.8-0.1,3.4,1.3,3.5,3.1c0.1,1.8-1.3,3.4-3.1,3.5
				c-1.8,0.1-3.4-1.3-3.5-3.1C134.7,58.5,136,57,137.9,56.8L137.9,56.8z"/>
		</g>
		<g>
			<path fill="#879C29" d="M143,73.8c-13.2-0.9-24.3,6.8-26.9,17.7c-0.4-0.7-0.7-1.4-1.1-2.1c3-10.4,13.8-17.5,26.6-16.7
				c6.7,0.4,12.8,3,17.5,6.9C154.7,76.4,149.1,74.2,143,73.8z"/>
			<path fill="#879C29" d="M126.9,73.5c0,0,3.8-10.1,15.1-12l-1.1,1.6c0,0,11.3-4.3,19.9,8.7c6.1,9.3,5.4,15.2,5.4,15.2
				s-1.9-3.5-8.2,0.8c-3.5,2.4-11.9,2.9-17.3-1.7c-5.4-4.7-6.8-5.7-6.8-5.7l1.3,3.4c0,0-7.1-9.3-11.1-6.6c0,0,18-12.4,30.8-2.5
				C155,74.7,144.7,64.1,126.9,73.5z"/>
		</g>
		<path fill="#BC3A3A" d="M124.8,49.7L65.3,75c-0.8,0.3-1.7,0-2-0.8c-0.3-0.8,0-1.7,0.8-2l0.8-0.3c-1.4-6.6,2.1-13.5,8.5-16.3
			l6.8-2.9c-0.2-0.2-0.3-0.5-0.4-0.7c-0.7-1.7,0.1-3.6,1.8-4.4l12.5-5.3c1.7-0.7,3.6,0.1,4.4,1.8c0.1,0.3,0.2,0.5,0.2,0.8l6.8-2.9
			c6.5-2.8,13.8-0.5,17.6,5.1l0.8-0.3c0.8-0.3,1.7,0,2,0.8C126,48.4,125.6,49.3,124.8,49.7z"/>
		<path fill="#992E2E" d="M98.3,44.1c-0.7-1.7-2.7-2.5-4.4-1.8l-12.5,5.3c-1.7,0.7-2.5,2.7-1.8,4.4c0.1,0.2,0.2,0.5,0.4,0.7
			l18.4-7.8C98.4,44.6,98.4,44.4,98.3,44.1z"/>
		<g>
			<path fill="#992E2E" d="M125.6,47.7c-0.3-0.8-1.2-1.1-2-0.8l-0.8,0.3c-3.8-5.6-11.2-7.9-17.6-5.1l-3.5,1.5
				c4.1,0.3,7.9,2.4,10.3,5.9l0.7-0.3c0.7-0.3,1.6,0,1.9,0.8c0.3,0.7,0,1.6-0.8,1.9L63.2,73.3c-0.1,0.3-0.1,0.6,0.1,0.9
				c0.3,0.8,1.2,1.1,2,0.8l59.6-25.4C125.6,49.3,126,48.4,125.6,47.7z"/>
		</g>
		<g>
			<path fill="#BC3A3A" d="M121.9,69.9c3.5-0.2,6.2-3.3,5.9-6.8c-0.2-3.5-3.3-6.2-6.8-5.9c-3.5,0.2-6.2,3.3-5.9,6.8
				C115.3,67.5,118.4,70.2,121.9,69.9L121.9,69.9z M121.2,59.5c2.2-0.1,4.2,1.6,4.3,3.8c0.1,2.2-1.6,4.2-3.8,4.3
				c-2.2,0.1-4.2-1.6-4.3-3.8C117.3,61.6,119,59.7,121.2,59.5L121.2,59.5z"/>
		</g>
		<g>
			<path fill="#BC3A3A" d="M120.6,35.2c1.8,0.4,3.6-0.6,4-2.4c0.4-1.8-0.6-3.6-2.4-4c-1.8-0.4-3.6,0.6-4,2.4
				C117.8,32.9,118.9,34.7,120.6,35.2L120.6,35.2z M122,29.9c1.1,0.3,1.8,1.4,1.5,2.6c-0.3,1.1-1.4,1.8-2.6,1.5
				c-1.1-0.3-1.8-1.4-1.5-2.5C119.7,30.3,120.8,29.6,122,29.9L122,29.9z"/>
		</g>
		<path fill="#BC3A3A" d="M59.1,91.3h5.4v-6.2l-0.2,0c-0.8,0-1.5-0.7-1.5-1.5c0-0.8,0.7-1.5,1.5-1.5l64.7,0c0.8,0,1.5,0.7,1.5,1.5
			c0,0.8-0.7,1.5-1.5,1.5l-0.2,0v6.2l5.4,0c1.7,0,3.1,1.4,3.1,3.1c0,1.7-1.4,3.1-3.1,3.1l-5.4,0l0,22c0,3.7-3,6.6-6.6,6.6h-51
			c-3.7,0-6.6-3-6.6-6.6l0-22l-5.4,0c-1.7,0-3.1-1.4-3.1-3.1C56,92.7,57.4,91.3,59.1,91.3z"/>
		<g>
			<path fill="#879C29" d="M113.4,76.6c0,0,1.7-9.1-5.6-15.5l0.1,1.6c0,0-6.3-8.2-18.5-2.6c-8.6,4-10.8,8.6-10.8,8.6s3-1.8,5.6,4.3
				c1.5,3.3,7.4,7.5,13.4,6.5c6-1,7.5-1.1,7.5-1.1l-2.5,1.9c0,0,9.4-3.6,11.1,0.2c0,0-7.5-17.1-21.4-15.7
				C92.3,64.8,104.6,61.7,113.4,76.6z"/>
		</g>
		<g>
			<path fill="#879C29" d="M133.1,53.2c0,0,4.7-1.2,6.1-6.1l-0.7,0.4c0,0,2.5-4.8-2.8-9.2c-3.8-3.2-6.4-3.2-6.4-3.2s1.5,1-0.8,3.6
				c-1.2,1.4-1.9,5.1-0.1,7.7c1.8,2.6,2.2,3.3,2.2,3.3L129,49c0,0,3.7,3.6,2.4,5.2c0,0,6.4-7.3,2.6-13.5
				C134,40.8,138.2,45.9,133.1,53.2z"/>
		</g>
		<path fill="#992E2E" d="M134.3,91.3l-5.4,0v-6.2l0.2,0c0.8,0,1.5-0.7,1.5-1.5c0-0.8-0.7-1.5-1.5-1.5l-33,0v44.1h26.2
			c3.7,0,6.6-3,6.6-6.6l0-22l5.4,0c1.7,0,3.1-1.4,3.1-3.1C137.4,92.7,136,91.3,134.3,91.3z"/>
		<g>
			<path fill="#71841F" d="M113.7,80.4c0,0-7.5-17.1-21.4-15.7c0,0,7.9-2,15.5,4.9c-4-3.8-9.4-6.1-15.3-6.1c-5.2,0-9.9,1.8-13.7,4.7
				c-0.1,0.2-0.2,0.4-0.2,0.4s3-1.8,5.6,4.3c1.5,3.3,7.4,7.5,13.4,6.5c6-1,7.5-1.1,7.5-1.1l-2.5,1.9C102.6,80.2,112,76.7,113.7,80.4
				z"/>
			<path fill="#71841F" d="M108.4,70.2c0.1,0.1,0.2,0.2,0.2,0.2C108.6,70.3,108.5,70.2,108.4,70.2z"/>
		</g>
		<path fill="#71841F" d="M166.3,87c0,0,0.2-1.4-0.4-3.9c-3.9-5.6-9.6-9.8-16.1-11.7c3.4,1.5,5.2,3.3,5.2,3.3
			c-12.9-9.9-30.8,2.5-30.8,2.5c4-2.7,11.1,6.6,11.1,6.6l-1.3-3.4c0,0,1.4,1.1,6.8,5.7c5.4,4.7,13.8,4.1,17.3,1.7
			C164.4,83.4,166.3,87,166.3,87z"/>
	</g>
	<g>
		
			<ellipse transform="matrix(-0.4653 0.8852 -0.8852 -0.4653 254.8888 124.9226)" fill="#DCDAC8" cx="89.7" cy="139.4" rx="4.8" ry="2.2"/>
		<path fill="#F2EFDC" d="M92.5,142.8c0.9-0.7,1.5-1.7,1.5-2.9c0-1.2-0.7-1.9-0.9-1.6c-0.4,0.3-0.9,0.4-1.3,0.3
			c-1.5-0.8-3-1.9-4.4-3c-0.7-0.6-2-0.8-2.7-0.1c-0.6,0.7-1.1,1.4-1.2,2.3c-0.2,0.9,0.7,1.9,1.6,2.1c1.8,0.4,3.4,1.1,5,1.9
			c0.3,0.4,0.5,0.8,0.5,1.3C90.6,143.3,91.5,143.4,92.5,142.8z"/>
		<path fill="#F2EFDC" d="M94.4,143.4c0.1-0.1,1.2-2.2,1.2-2.3c1.6-3,0.9-6.4-1.6-7.7c-1.7-0.9-4.4-0.4-5.5,1.5
			c-0.4,0.6,0.2,1.5,0.9,1.4c0.3,0,0.7-0.7,1-0.8c0.4-0.2,0.9-0.1,1.1,0.2c0.8,0.9,0.3,2.1-0.2,3.1l-1.4,2.7c-0.6,1-1.2,2.1-2.4,1.9
			c-0.4,0-0.7-0.4-0.8-0.8c-0.1-0.3,0.2-1,0.1-1.3c-0.3-0.6-1.4-0.7-1.7,0c-0.9,2,0.2,4.4,1.9,5.3C89.6,147.7,92.8,146.4,94.4,143.4
			z"/>
	</g>
	<g>
		<ellipse transform="matrix(0.891 0.454 -0.454 0.891 69.9567 -13.8434)" fill="#DCDAC8" cx="63.8" cy="138.8" rx="4.1" ry="1.9"/>
		<path fill="#F2EFDC" d="M66.6,136.3c-0.6-0.8-1.5-1.3-2.5-1.3c-1.1,0-1.6,0.6-1.4,0.8c0.2,0.3,0.3,0.7,0.3,1.2
			c-0.7,1.3-1.6,2.6-2.6,3.8c-0.5,0.6-0.7,1.7-0.1,2.3c0.6,0.5,1.3,0.9,2,1c0.8,0.1,1.7-0.6,1.8-1.4c0.4-1.5,0.9-3,1.5-4.3
			c0.3-0.3,0.7-0.5,1.1-0.4C67.1,138,67.2,137.2,66.6,136.3z"/>
		<path fill="#F2EFDC" d="M67.2,134.7c-0.1-0.1-1.9-1-2-1c-2.6-1.3-5.5-0.7-6.6,1.4c-0.8,1.5-0.3,3.8,1.3,4.7
			c0.5,0.3,1.3-0.2,1.2-0.8c0-0.2-0.6-0.6-0.7-0.8c-0.1-0.4-0.1-0.7,0.1-0.9c0.8-0.7,1.8-0.3,2.7,0.1l2.3,1.2c0.8,0.5,1.8,1,1.7,2.1
			c0,0.3-0.3,0.6-0.7,0.7c-0.3,0.1-0.9-0.2-1.1-0.1c-0.6,0.3-0.6,1.2,0,1.4c1.7,0.7,3.8-0.2,4.6-1.7C71,138.8,69.7,136,67.2,134.7z"
			/>
	</g>
	<g>
		<path fill="#71841F" d="M134.5,126.7c-0.1,0.1-0.3,0.1-0.4,0l0,0c-0.1-0.1-0.1-0.3,0-0.4l5.9-6c0.1-0.1,0.3-0.1,0.4,0l0,0
			c0.1,0.1,0.1,0.3,0,0.4L134.5,126.7z"/>
		<path fill="#879C29" d="M144.1,120.5c0.5-0.1,0.9-0.3,1.3-0.6c0.1-0.1,0.1-0.1,0.2-0.2c0.1-0.1,0.2-0.2,0.3-0.3
			c-0.2-0.1-0.3-0.2-0.5-0.2c-0.1,0-0.1-0.1-0.2-0.1c0.1,0,0.1,0,0.2,0c0.3-0.1,0.6-0.1,0.9-0.2c0,0,0,0,0,0
			c-0.7-0.2-1.4-0.4-2.2-0.6c-0.1,0-0.2,0-0.3-0.1c0.1,0,0.2,0,0.3,0c0.9,0.1,1.7,0.2,2.5,0.2c0.2-0.4,0.4-0.8,0.5-1.2
			c-0.1,0-0.2,0-0.4,0c-0.1,0-0.1,0-0.2,0c0.1,0,0.1-0.1,0.2-0.1c0.2-0.2,0.4-0.3,0.6-0.5c0.1-0.3,0.1-0.6,0.2-0.9
			c-0.2,0.1-0.4,0.2-0.6,0.2c-0.1,0-0.1,0.1-0.2,0.1c0-0.1,0.1-0.1,0.1-0.2c0.3-0.6,0.5-1.3,0.5-2c0-0.1,0-0.2-0.1-0.3
			c-0.1,0-0.2-0.1-0.4-0.1c-0.4,0.1-0.8,0.3-1.2,0.5c-0.1,0-0.1,0.1-0.2,0.1c0-0.1,0.1-0.1,0.1-0.2c0.1-0.2,0.1-0.3,0.2-0.5
			c-0.7,0-1.4,0.1-2,0.3c-0.4,0.4-0.8,0.9-1.1,1.5c0,0.1-0.1,0.1-0.1,0.2c0-0.1,0-0.1,0-0.2c0-0.3-0.1-0.6-0.2-0.8c0,0,0,0-0.1,0
			c-0.3,0.3-0.5,0.6-0.8,1c0,0.1-0.1,0.1-0.1,0.2c0-0.1,0-0.1,0-0.2c0-0.1,0-0.2,0-0.2c-0.1,0.1-0.2,0.2-0.3,0.3
			c-0.3,0.3-0.6,0.6-0.8,1c0.3,1.5,0.2,3.1-0.5,4.6c0,0.1-0.1,0.1-0.1,0.2c0.1,0,0.1-0.1,0.2-0.1
			C141.4,120.5,142.8,120.3,144.1,120.5z"/>
		<path fill="#71841F" d="M140,121.1c1.3-0.6,2.8-0.8,4.1-0.6c0.5-0.1,0.9-0.3,1.3-0.6c0.1-0.1,0.1-0.1,0.2-0.2
			c0.1-0.1,0.2-0.2,0.3-0.3c-0.2-0.1-0.3-0.2-0.5-0.2c-0.1,0-0.1-0.1-0.2-0.1c0.1,0,0.1,0,0.2,0c0.3-0.1,0.6-0.1,0.9-0.2
			c0,0,0,0,0,0c-0.7-0.2-1.4-0.4-2.2-0.6c-0.1,0-0.2,0-0.3-0.1c0.1,0,0.2,0,0.3,0c0.9,0.1,1.7,0.2,2.5,0.2c0.2-0.4,0.4-0.8,0.5-1.2
			c-0.1,0-0.2,0-0.4,0c-0.1,0-0.1,0-0.2,0c0.1,0,0.1-0.1,0.2-0.1c0.2-0.2,0.4-0.3,0.6-0.5c0.1-0.3,0.1-0.6,0.2-0.9
			c-0.2,0.1-0.4,0.2-0.6,0.2c-0.1,0-0.1,0.1-0.2,0.1c0-0.1,0.1-0.1,0.1-0.2c0.3-0.6,0.5-1.3,0.5-2c0-0.1,0-0.2-0.1-0.3l-7.4,7.5
			C139.9,121.2,140,121.2,140,121.1z"/>
		<g>
			<path fill="#71841F" d="M140.3,123.9c0-0.1-0.1-0.2-0.3-0.2l-2.8-0.1l-0.4,0.4l3.2,0.1C140.2,124.1,140.3,124.1,140.3,123.9z"/>
			<path fill="#879C29" d="M141.5,126.4c0.4,0.2,0.7,0.4,1.1,0.5c0.1,0,0.1,0,0.2,0c0.1,0,0.2,0,0.3,0c-0.1-0.2-0.1-0.3-0.2-0.5
				c0-0.1-0.1-0.1-0.1-0.2c0,0,0.1,0.1,0.1,0.1c0.2,0.2,0.5,0.3,0.7,0.5c0,0,0,0,0,0c-0.4-0.6-0.7-1.2-1.2-1.9
				c-0.1-0.1-0.1-0.2-0.2-0.2c0.1,0.1,0.1,0.1,0.2,0.2c0.5,0.7,1.1,1.3,1.5,1.8c0.3-0.1,0.6-0.2,0.9-0.4c-0.1-0.1-0.1-0.2-0.2-0.3
				c0,0-0.1-0.1-0.1-0.1c0.1,0,0.1,0,0.2,0c0.2,0,0.4,0.1,0.6,0.1c0.2-0.2,0.4-0.3,0.5-0.5c-0.2-0.1-0.3-0.2-0.5-0.2
				c-0.1,0-0.1,0-0.2,0c0,0,0.1,0,0.1-0.1c0.5-0.2,0.9-0.6,1.3-1c0-0.1,0.1-0.2,0.1-0.2c-0.1-0.1-0.1-0.2-0.2-0.3
				c-0.3-0.2-0.7-0.3-1-0.4c-0.1,0-0.1,0-0.2,0c0,0,0.1,0,0.1-0.1c0.1-0.1,0.2-0.1,0.4-0.2c-0.4-0.4-1-0.8-1.5-1.1
				c-0.5,0-1,0.1-1.4,0.3c0,0-0.1,0-0.1,0.1c0-0.1,0.1-0.1,0.1-0.2c0.1-0.2,0.2-0.4,0.3-0.7c0,0,0,0-0.1,0c-0.3,0-0.6,0.1-1,0.1
				c0,0-0.1,0-0.1,0c0,0,0.1-0.1,0.1-0.1c0-0.1,0.1-0.1,0.1-0.2c-0.1,0-0.2,0-0.3,0c-0.3,0-0.7,0.1-1,0.1c-0.5,1.2-1.3,2.2-2.5,2.7
				c0,0-0.1,0-0.1,0.1c0.1,0,0.1,0,0.2,0.1C139.6,124.6,140.7,125.4,141.5,126.4z"/>
			<path fill="#71841F" d="M138.4,124.1c1.2,0.5,2.2,1.3,3,2.3c0.4,0.2,0.7,0.4,1.1,0.5c0.1,0,0.1,0,0.2,0c0.1,0,0.2,0,0.3,0
				c-0.1-0.2-0.1-0.3-0.2-0.5c0-0.1-0.1-0.1-0.1-0.2c0,0,0.1,0.1,0.1,0.1c0.2,0.2,0.5,0.3,0.7,0.5c0,0,0,0,0,0
				c-0.4-0.6-0.7-1.2-1.2-1.9c-0.1-0.1-0.1-0.2-0.2-0.2c0.1,0.1,0.1,0.1,0.2,0.2c0.5,0.7,1.1,1.3,1.5,1.8c0.3-0.1,0.6-0.2,0.9-0.4
				c-0.1-0.1-0.1-0.2-0.2-0.3c0,0-0.1-0.1-0.1-0.1c0.1,0,0.1,0,0.2,0c0.2,0,0.4,0.1,0.6,0.1c0.2-0.2,0.4-0.3,0.5-0.5
				c-0.2-0.1-0.3-0.2-0.5-0.2c-0.1,0-0.1,0-0.2,0c0,0,0.1,0,0.1-0.1c0.5-0.2,0.9-0.6,1.3-1c0-0.1,0.1-0.2,0.1-0.2l-8.5,0.1
				C138.3,124.1,138.4,124.1,138.4,124.1z"/>
		</g>
		<g>
			<path fill="#71841F" d="M137.9,123.1l-0.4-2.4c0-0.1-0.1-0.2-0.2-0.2c-0.1,0-0.2,0.1-0.1,0.3l0.5,2.7L137.9,123.1z"/>
			<path fill="#879C29" d="M134.6,119.7c-0.3-0.3-0.5-0.7-0.6-1c0-0.1,0-0.1,0-0.2c0-0.1,0-0.2,0-0.3c0.2,0,0.3,0.1,0.5,0.1
				c0.1,0,0.1,0,0.2,0.1c0,0-0.1-0.1-0.1-0.1c-0.2-0.2-0.4-0.4-0.6-0.7c0,0,0,0,0,0c0.6,0.3,1.3,0.6,2,0.9c0.1,0,0.2,0.1,0.2,0.1
				c-0.1,0-0.2-0.1-0.2-0.1c-0.7-0.5-1.4-0.9-2-1.3c0-0.3,0.1-0.7,0.2-1c0.1,0.1,0.2,0.1,0.3,0.2c0.1,0,0.1,0.1,0.2,0.1
				c0-0.1,0-0.1-0.1-0.2c-0.1-0.2-0.1-0.4-0.2-0.6c0.1-0.2,0.2-0.4,0.4-0.6c0.1,0.1,0.2,0.3,0.3,0.5c0,0.1,0,0.1,0.1,0.2
				c0-0.1,0-0.1,0-0.2c0.2-0.5,0.4-1,0.7-1.5c0.1,0,0.1-0.1,0.2-0.1c0.1,0,0.2,0.1,0.3,0.2c0.2,0.3,0.4,0.6,0.6,0.9
				c0,0.1,0,0.1,0.1,0.2c0,0,0-0.1,0-0.2c0-0.1,0.1-0.3,0.2-0.4c0.5,0.4,0.9,0.8,1.3,1.3c0.1,0.5,0,1-0.1,1.5c0,0.1,0,0.1,0,0.2
				c0,0,0.1-0.1,0.1-0.1c0.2-0.1,0.4-0.3,0.6-0.4c0,0,0,0,0,0.1c0,0.3,0,0.7,0,1c0,0.1,0,0.1,0,0.2c0,0,0.1-0.1,0.1-0.1
				c0.1,0,0.1-0.1,0.2-0.1c0,0.1,0,0.2,0.1,0.3c0,0.4,0,0.7,0,1c-1.1,0.7-1.9,1.7-2.3,2.9c0,0.1,0,0.1,0,0.2c0-0.1,0-0.1-0.1-0.2
				C136.7,121.3,135.7,120.3,134.6,119.7z"/>
			<path fill="#71841F" d="M137.3,122.4c-0.6-1.1-1.6-2-2.7-2.7c-0.3-0.3-0.5-0.7-0.6-1c0-0.1,0-0.1,0-0.2c0-0.1,0-0.2,0-0.3
				c0.2,0,0.3,0.1,0.5,0.1c0.1,0,0.1,0,0.2,0.1c0,0-0.1-0.1-0.1-0.1c-0.2-0.2-0.4-0.4-0.6-0.7c0,0,0,0,0,0c0.6,0.3,1.3,0.6,2,0.9
				c0.1,0,0.2,0.1,0.2,0.1c-0.1,0-0.2-0.1-0.2-0.1c-0.7-0.5-1.4-0.9-2-1.3c0-0.3,0.1-0.7,0.2-1c0.1,0.1,0.2,0.1,0.3,0.2
				c0.1,0,0.1,0.1,0.2,0.1c0-0.1,0-0.1-0.1-0.2c-0.1-0.2-0.1-0.4-0.2-0.6c0.1-0.2,0.2-0.4,0.4-0.6c0.1,0.1,0.2,0.3,0.3,0.5
				c0,0.1,0,0.1,0.1,0.2c0-0.1,0-0.1,0-0.2c0.2-0.5,0.4-1,0.7-1.5c0.1,0,0.1-0.1,0.2-0.1l1.2,8.6
				C137.4,122.5,137.4,122.4,137.3,122.4z"/>
		</g>
	</g>
	<g>
		<circle fill="#D95B46" cx="126" cy="124" r="11.1"/>
		<ellipse fill="#F16A54" cx="126.1" cy="120" rx="7.8" ry="6.6"/>
		<circle fill="#D95B46" cx="115.6" cy="131" r="11.1"/>
		<path fill="#F16A54" d="M104.6,131c0,1.4,0.3,2.8,0.8,4.1c1.8,1.3,4.1,2.1,6.5,2.1c6.1,0,11.1-5,11.1-11.1c0-1.4-0.3-2.8-0.8-4.1
			c-1.8-1.3-4.1-2.1-6.5-2.1C109.5,119.9,104.6,124.8,104.6,131z"/>
		<g>
			<path fill="#2D4124" d="M117.1,125.2c0,0.4-1.8,0.4-1.9,0.7c-0.1,0.3,1.1,1.6,0.9,1.9c-0.3,0.3-1.5-1-1.9-0.9
				c-0.3,0.1-0.3,1.9-0.7,1.9c-0.4,0-0.4-1.8-0.7-1.9c-0.3-0.1-1.6,1.1-1.9,0.9c-0.3-0.3,1-1.5,0.9-1.9c-0.1-0.3-1.9-0.3-1.9-0.7
				s1.8-0.4,1.9-0.7c0.1-0.3-1.1-1.6-0.9-1.9c0.3-0.3,1.5,1,1.9,0.9c0.3-0.1,0.3-1.9,0.7-1.9c0.4,0,0.4,1.8,0.7,1.9
				c0.3,0.1,1.6-1.1,1.9-0.9c0.3,0.3-1,1.5-0.9,1.9C115.3,124.8,117.1,124.8,117.1,125.2z"/>
			<path fill="#405933" d="M113.4,121.5c-0.4,0-0.4,1.8-0.7,1.9c-0.3,0.1-1.6-1.1-1.9-0.9c-0.3,0.3,1,1.5,0.9,1.9
				c-0.1,0.3-1.9,0.3-1.9,0.7s1.8,0.4,1.9,0.7c0.1,0.3-1.1,1.6-0.9,1.9c0.3,0.3,1.5-1,1.9-0.9c0.1,0.1,0.2,0.5,0.3,0.9
				c0.7-1,1.1-2.4,1.1-3.8c0-0.2,0-0.3,0-0.5h0C113.8,123.3,113.8,121.5,113.4,121.5z"/>
			<path fill="#2D4124" d="M112.4,122c-0.3,0-0.6,0.1-0.8,0.3c0.6,0.8,1,1.8,1.2,2.9c0.3,0,0.5-0.1,0.7-0.2
				C113.4,123.8,113,122.8,112.4,122z"/>
		</g>
		<path fill="#2D4124" d="M130.3,113c0.1,0.3-1.4,0.8-1.5,1c-0.2,0.3,1,0.6,0.6,0.9c-0.3,0.3-1.8,0.1-2.2,0.2
			c-0.5,0.1-0.7,0.9-1.2,0.9c-0.6,0-0.8-0.8-1.2-0.9c-0.5-0.1-1.9,0.1-2.2-0.2c-0.3-0.2,0.8-0.6,0.7-0.9c-0.2-0.2-1.6-0.8-1.5-1
			c0.1-0.2,1.5,0.1,1.8-0.1c0.2-0.2-0.5-1-0.1-1.1c0.3-0.1,1.3,0.6,1.7,0.5c0.4-0.1,0.6-0.8,1-0.8c0.4,0,0.6,0.7,1,0.8
			c0.4,0.1,1.4-0.6,1.7-0.5c0.3,0.1-0.3,0.9-0.1,1C128.8,113.1,130.3,112.8,130.3,113z"/>
		<path fill="#405933" d="M128.3,112c-0.4,0.1-1,0.5-1.3,0.4c-0.4-0.1-0.6-0.8-1-0.8c-0.4,0-0.6,0.7-1,0.8c-0.4,0.1-1.4-0.6-1.7-0.5
			c-0.3,0.1,0.3,0.9,0.1,1.1c-0.2,0.2-1.7-0.1-1.8,0.1c-0.1,0.3,1.4,0.8,1.5,1c0.1,0.2-0.8,0.6-0.7,0.8
			C125.3,114.6,127.6,113.5,128.3,112z"/>
		<g>
			<path fill="#2D4124" d="M125.5,113.8c-0.2,0-0.4-0.1-0.4-0.2c-1.3-2.6,0.1-4,0.1-4c0.1-0.1,0.4-0.2,0.6-0.1
				c0.2,0.1,0.3,0.3,0.1,0.4c-0.1,0.1-1.2,1.2,0,3.5c0.1,0.2,0,0.3-0.3,0.4C125.6,113.8,125.6,113.8,125.5,113.8L125.5,113.8z"/>
		</g>
	</g>
	<g>
		<polygon fill="#DCDAC8" points="105.2,158.2 105,156.8 104,157.8 104.4,156.5 103.1,157 104.1,155.9 102.7,155.8 104,155.3 
			102.8,154.6 104.2,154.7 103.4,153.5 104.6,154.2 104.4,152.8 105.2,154 105.6,152.6 105.8,154 106.8,153 106.4,154.3 
			107.7,153.8 106.8,154.9 108.1,155 106.9,155.5 108,156.2 106.7,156.1 107.4,157.3 106.2,156.6 106.4,158 105.6,156.8 		"/>
		
			<ellipse transform="matrix(-7.084074e-02 0.9975 -0.9975 -7.084074e-02 291.0595 42.4431)" fill="#71841F" cx="125.8" cy="156.8" rx="0.6" ry="14.2"/>
		<path fill="#879C29" d="M124.6,156.6c-7.4-0.2-13.4-0.7-13.4-1c0-0.3,6-0.3,13.3-0.1c7.4,0.2,13.4,0.7,13.4,1
			C138,156.8,132,156.8,124.6,156.6z"/>
		<path fill="#879C29" d="M124.9,157.7c-7.3-0.8-13.2-1.6-13.2-1.9c0.1-0.3,6,0.1,13.4,0.9c7.3,0.8,13.2,1.6,13.2,1.9
			C138.3,158.8,132.3,158.5,124.9,157.7z"/>
		<path fill="#F2EFDC" d="M117.3,160.1c1.4-1.6,3.5-2.6,5.8-2.4c-0.5-0.4-1.1-0.7-1.7-1c1.2-0.3,2.2-0.8,3.2-1.5
			c-0.4,0-0.8,0.1-1.2,0c-2.3-0.2-4.3-1.4-5.4-3.2c-1.1-1.9-3.2-3.3-5.6-3.5c-3.9-0.3-7.3,2.7-7.6,6.6c-0.3,3.9,2.7,7.3,6.6,7.6
			C113.6,162.9,115.9,161.9,117.3,160.1z"/>
		<g>
			<path fill="#E2D7AB" d="M117.3,160.1c1.4-1.6,3.5-2.6,5.8-2.4c-0.5-0.4-1.1-0.7-1.7-1c0.2,0,0.3-0.1,0.5-0.1
				c-1.8,0.2-3.3,1.1-4.5,2.4c-1.4,1.8-3.6,2.8-6.1,2.7c-3.7-0.3-6.6-3.3-6.6-7c0,0.2-0.1,0.4-0.1,0.6c-0.3,3.9,2.7,7.3,6.6,7.6
				C113.6,162.9,115.9,161.9,117.3,160.1z"/>
		</g>
	</g>
</g>
</svg>
