<?xml version="1.0" encoding="utf-8"?>
<!-- Generator: Adobe Illustrator 18.0.0, SVG Export Plug-In . SVG Version: 6.00 Build 0)  -->
<!DOCTYPE svg PUBLIC "-//W3C//DTD SVG 1.1//EN" "http://www.w3.org/Graphics/SVG/1.1/DTD/svg11.dtd">
<svg version="1.1" id="Lag_1" xmlns="http://www.w3.org/2000/svg" xmlns:xlink="http://www.w3.org/1999/xlink" x="0px" y="0px"
	 viewBox="0 0 200 200" enable-background="new 0 0 200 200" xml:space="preserve">
<circle fill="#4AC2C2" cx="100" cy="100" r="90"/>
<g>
	<defs>
		<circle id="SVGID_1_" cx="100" cy="100" r="90"/>
	</defs>
	<clipPath id="SVGID_2_">
		<use xlink:href="#SVGID_1_"  overflow="visible"/>
	</clipPath>
	<path clip-path="url(#SVGID_2_)" fill="#BCE534" d="M98.4,122.4c-77,0-72,67.6-196.5,67.6H98.4h196.5
		C170.3,190,175.4,122.4,98.4,122.4z"/>
	<path clip-path="url(#SVGID_2_)" fill="#BCE534" d="M294.8,190c-124.5,0-119.5-67.6-196.5-67.6V190H294.8z"/>
</g>
<g>
	<polygon fill="#8B6338" points="68.7,111.3 67.4,128.5 73.7,128.5 72.3,111.3 	"/>
	<polygon fill="#754B26" points="70.5,111.3 70.5,128.5 73.7,128.5 72.3,111.3 	"/>
	<polygon fill="#AAC928" points="53,116.8 70.5,41.6 88.1,116.8 	"/>
	<polygon fill="#6E8A1E" points="88.1,116.8 70.5,41.6 70.5,116.8 	"/>
</g>
<g>
	<polygon fill="#8B6338" points="52.3,127.2 51.5,138.5 55.6,138.5 54.7,127.2 	"/>
	<polygon fill="#754B26" points="53.5,127.2 53.5,138.5 55.6,138.5 54.7,127.2 	"/>
	<polygon fill="#AAC928" points="42,130.8 53.5,81.4 65.1,130.8 	"/>
	<polygon fill="#6E8A1E" points="65.1,130.8 53.5,81.4 53.5,130.8 	"/>
</g>
<g>
	
		<rect x="117.5" y="167" transform="matrix(0.9996 2.792743e-02 -2.792743e-02 0.9996 4.8038 -3.2384)" fill="#F9A0A0" width="1.7" height="6.8"/>
	
		<rect x="117.7" y="172.3" transform="matrix(2.792742e-02 -0.9996 0.9996 2.792742e-02 -58.122 286.5247)" fill="#58595B" width="1.2" height="1.7"/>
	
		<rect x="112.8" y="165.4" transform="matrix(0.9996 2.792743e-02 -2.792743e-02 0.9996 4.7784 -3.1071)" fill="#F9A0A0" width="1.7" height="8.2"/>
	
		<rect x="130.6" y="162.8" transform="matrix(0.9996 2.792743e-02 -2.792743e-02 0.9996 4.7562 -3.6059)" fill="#F9A0A0" width="1.7" height="11.3"/>
	
		<rect x="126.6" y="162.7" transform="matrix(0.9996 2.792743e-02 -2.792743e-02 0.9996 4.7514 -3.4925)" fill="#F9A0A0" width="1.7" height="11.3"/>
	
		<ellipse transform="matrix(0.9996 2.792743e-02 -2.792743e-02 0.9996 4.4965 -3.3652)" fill="#FCBEBE" cx="122.7" cy="159.3" rx="15.4" ry="10.9"/>
	
		<rect x="113.1" y="172.3" transform="matrix(2.792742e-02 -0.9996 0.9996 2.792742e-02 -62.7275 281.7866)" fill="#58595B" width="0.9" height="1.7"/>
	
		<rect x="130.9" y="172.8" transform="matrix(2.792742e-02 -0.9996 0.9996 2.792742e-02 -45.9164 300.0689)" fill="#58595B" width="0.9" height="1.7"/>
	
		<rect x="126.8" y="172.7" transform="matrix(2.792742e-02 -0.9996 0.9996 2.792742e-02 -49.7525 295.8971)" fill="#58595B" width="0.9" height="1.7"/>
	<path fill="#F9A0A0" d="M106.4,157.4c-0.8-2.3-2.4-4.4-4.4-5.7c-2-1.3-4-1.4-5.3-0.5c0.8,2.3,2.4,4.4,4.4,5.7
		C103.1,158.2,105,158.3,106.4,157.4z"/>
	<path fill="#FCBEBE" d="M102,151.7c2,1.3,3.6,3.5,4.4,5.7l-9.7-6.2C98,150.3,100,150.4,102,151.7z"/>
	<path fill="#F9A0A0" d="M113.2,157.6c0.9-2.2,2.6-4.3,4.7-5.5c2.1-1.2,4-1.2,5.3-0.2c-0.9,2.2-2.6,4.3-4.7,5.5
		C116.5,158.5,114.6,158.5,113.2,157.6z"/>
	<path fill="#F29191" d="M118,152.1c-2.1,1.2-3.8,3.2-4.7,5.5l10.1-5.7C122,150.9,120,150.9,118,152.1z"/>
	<path fill="#FCBEBE" d="M117.3,163.5c-0.1,2.2-2.3,4-5,3.9l-5.3-0.1c-2.7-0.1-4.8-2-4.8-4.2l0.2-7.6c0.1-2.2,2.3-4,5-3.9l5.3,0.1
		c2.7,0.1,4.8,2,4.8,4.2L117.3,163.5z"/>
	<path fill="#F9A0A0" d="M112.7,151.7l-2.7-0.1l-0.4,15.7l2.7,0.1c2.7,0.1,4.9-1.7,5-3.9l0.2-7.6
		C117.6,153.7,115.4,151.8,112.7,151.7z"/>
	
		<ellipse transform="matrix(0.9996 2.792743e-02 -2.792743e-02 0.9996 4.6442 -2.9996)" fill="#FFD7D7" cx="109.7" cy="164.8" rx="5.4" ry="4.6"/>
	<g>
		<circle fill="#58595B" cx="107.4" cy="158" r="1"/>
		<circle fill="#58595B" cx="112.2" cy="158.2" r="1"/>
	</g>
	<g>
		<circle fill="#58595B" cx="106.9" cy="164.7" r="1.1"/>
		<circle fill="#58595B" cx="112.6" cy="164.8" r="1.1"/>
	</g>
	<path fill="#F2B6B6" d="M136.5,157.1c1-0.4,2.2-0.9,2.9-1.8c0.7-0.9,0.5-2.4-0.8-2.5c-1.1-0.1-1.5,0.9-1.1,1.8
		c0.8,1.5,2.7,1.1,3.9,0.5c0.2-0.1,0-0.5-0.2-0.3c-1.1,0.6-2.5,1-3.3-0.2c-0.7-1,0.5-1.9,1.3-1.1c1,0.9-0.6,2.2-1.3,2.6
		c-0.5,0.3-1,0.5-1.5,0.7C136.2,156.8,136.3,157.2,136.5,157.1L136.5,157.1z"/>
</g>
<g>
	<path fill="#EAC975" d="M71.4,168.5c-0.1,1.5-1.7,3-1.7,3s2.2,0.5,3.1-0.6C73.5,169.9,71.4,168.5,71.4,168.5z"/>
	<rect x="79.3" y="172.7" fill="#E28686" width="0.6" height="2.9"/>
	<rect x="75.3" y="172.7" fill="#E28686" width="0.6" height="2.9"/>
	<ellipse fill="#EAC975" cx="78.5" cy="165" rx="8.9" ry="8.5"/>
	<path fill="#E28686" d="M78.4,154.5c0.1,0,0.2,0,0.3,0.1v-0.4c0-0.7,0.5-1.2,1.2-1.2c0.2,0,0.4,0.1,0.5,0.1v-0.6
		c0-0.6,0.5-1.2,1.2-1.2c0.6,0,1.2,0.5,1.2,1.2v3c0,0.6-0.5,1.2-1.2,1.2c-0.3,0-0.6-0.1-0.8-0.4c-0.2,0.2-0.5,0.4-0.9,0.4
		c-0.2,0-0.5-0.1-0.6-0.2v0c0,0.5-0.4,0.9-0.9,0.9c-0.5,0-0.9-0.4-0.9-0.9v-1.1C77.6,154.9,78,154.5,78.4,154.5z"/>
	<ellipse fill="#FFEDC0" cx="81.4" cy="161.5" rx="7" ry="6.7"/>
	<path fill="#FFDF8F" d="M74.3,161.5c0-3.7,3.1-6.7,7-6.7v13.4C77.5,168.2,74.3,165.2,74.3,161.5z"/>
	<g>
		<circle fill="#58595B" cx="83.4" cy="162.7" r="0.9"/>
		<circle fill="#58595B" cx="79.3" cy="162.7" r="0.9"/>
	</g>
	<path fill="#E28686" d="M81.4,163.5l2.9,2l-2.9,1.7C81.4,167.2,80.2,165.3,81.4,163.5z"/>
	<path fill="#E28686" d="M81.4,175.1c0-0.2-0.2-0.4-0.4-0.4h-1.3c-0.2,0-0.4,0.2-0.4,0.4l0,0c0,0.2,0.2,0.4,0.4,0.4H81
		C81.2,175.5,81.4,175.3,81.4,175.1L81.4,175.1z"/>
	<path fill="#E28686" d="M77.4,175.1c0-0.2-0.2-0.4-0.4-0.4h-1.3c-0.2,0-0.4,0.2-0.4,0.4l0,0c0,0.2,0.2,0.4,0.4,0.4H77
		C77.2,175.5,77.4,175.3,77.4,175.1L77.4,175.1z"/>
</g>
<g>
	<path fill="#84A222" d="M146,80.5c0,16.9-13.7,30.6-30.5,30.6C98.6,111.1,85,97.4,85,80.5C85,57.1,98.6,3,115.5,3
		C132.3,3,146,63.6,146,80.5z"/>
	<path fill="#AAC928" d="M146,80.5C146,58.9,132.3,3,115.5,3v108.1C132.3,111.1,146,97.4,146,80.5z"/>
	<polygon fill="#754B26" points="113,80.6 111.2,130.1 119.8,130.1 117.9,80.6 	"/>
	<polygon fill="#8B6338" points="115.5,80.6 115.5,130.1 119.8,130.1 117.9,80.6 	"/>
</g>
<g>
	<path fill="#84A222" d="M162.7,104.1c0,10.6-8.6,19.2-19.1,19.2c-10.6,0-19.1-8.6-19.1-19.2c0-14.7,8.6-48.6,19.1-48.6
		C154.1,55.5,162.7,93.5,162.7,104.1z"/>
	<path fill="#AAC928" d="M162.7,104.1c0-13.6-8.6-48.6-19.1-48.6v67.7C154.1,123.2,162.7,114.7,162.7,104.1z"/>
	<polygon fill="#754B26" points="142,104.1 140.9,135.1 146.3,135.1 145.1,104.1 	"/>
	<polygon fill="#8B6338" points="143.6,104.1 143.6,135.1 146.3,135.1 145.1,104.1 	"/>
</g>
<g>
	<g>
		<rect x="66.1" y="139.1" fill="#C69B73" width="2.1" height="6.7"/>
		<rect x="66.1" y="144.6" fill="#784F27" width="2.1" height="1.2"/>
	</g>
	<rect x="72.1" y="137.7" fill="#C69B73" width="2.1" height="8.1"/>
	<rect x="72.1" y="144.6" fill="#784F27" width="2.1" height="1.2"/>
	<rect x="47" y="131.6" fill="#C69B73" width="2.1" height="14.3"/>
	<rect x="47" y="144.7" fill="#784F27" width="2.1" height="1.2"/>
	<rect x="52.1" y="131.6" fill="#C69B73" width="2.1" height="14.3"/>
	<rect x="52.1" y="144.7" fill="#784F27" width="2.1" height="1.2"/>
	<path fill="#FFFFFF" d="M39.9,124.4c0-1.7,1-3.1,2.3-3.9c-0.9-1.1-1.4-2.5-1.4-4c0-3.6,2.9-6.5,6.5-6.5c0.8,0,1.5,0.2,2.1,0.4
		c1.1-3.4,4.2-5.9,7.9-5.9c1.7,0,3.3,0.5,4.6,1.4c1.6-0.9,3.5-1.4,5.5-1.4c6.6,0,11.9,5.3,12,11.9c0,5.4-3.6,9.9-8.6,11.4
		c0,0,0,0.1,0,0.1c2.8,0.6,4.9,3.1,4.9,6.1c0,3.5-2.8,6.3-6.3,6.3c-1.7,0-3.2-0.7-4.4-1.8c-0.9,1.5-2.5,2.6-4.4,2.6
		c-2.5,0-4.6-1.9-5-4.3c-1.3,0.8-2.8,1.3-4.4,1.3c-4.4,0-8-3.6-8-8c0-0.5,0.1-1,0.1-1.5C41.5,128.3,39.9,126.6,39.9,124.4z"/>
	<g>
		<path fill="#E2C89A" d="M76.7,116.9c1.1,2.8,3.2,5.5,5.8,7.1c2.6,1.6,5.1,1.6,6.7,0.4c-1.1-2.8-3.2-5.5-5.8-7.1
			C80.9,115.8,78.4,115.7,76.7,116.9z"/>
		<path fill="#C69B73" d="M82.5,124c-2.6-1.6-4.7-4.2-5.8-7.1l12.5,7.5C87.6,125.6,85.1,125.5,82.5,124z"/>
		<path fill="#C69B73" d="M68,116.9c-1.1,2.8-3.2,5.5-5.7,7.1c-2.6,1.6-5,1.6-6.7,0.5c1.1-2.8,3.2-5.5,5.7-7.1
			C63.9,115.8,66.3,115.7,68,116.9z"/>
		<path fill="#AD8463" d="M62.3,124c2.6-1.6,4.6-4.2,5.7-7.1l-12.5,7.6C57.2,125.6,59.7,125.6,62.3,124z"/>
	</g>
	
		<ellipse transform="matrix(-1 2.010734e-03 -2.010734e-03 -1 145.0402 247.1564)" fill="#E2C89A" cx="72.4" cy="123.7" rx="10.6" ry="12.4"/>
	<path fill="#C69B73" d="M61.8,123.7c0-6.9,4.7-12.4,10.6-12.5l0.1,24.9C66.6,136.1,61.8,130.5,61.8,123.7z"/>
	<g>
		<circle fill="#58595B" cx="75.5" cy="126.3" r="1.3"/>
		<circle fill="#58595B" cx="69.3" cy="126.3" r="1.3"/>
	</g>
</g>
<g>
	<rect x="154" y="130.4" transform="matrix(0.979 0.204 -0.204 0.979 31.7048 -28.915)" fill="#C69B73" width="4.1" height="17.8"/>
	
		<rect x="144.4" y="128.4" transform="matrix(0.979 0.204 -0.204 0.979 31.0951 -26.9992)" fill="#AD8463" width="4.1" height="17.8"/>
	
		<rect x="122.1" y="123.7" transform="matrix(0.979 0.204 -0.204 0.979 29.6722 -22.5297)" fill="#C69B73" width="4.1" height="17.8"/>
	
		<rect x="112.5" y="121.7" transform="matrix(0.979 0.204 -0.204 0.979 29.0622 -20.6136)" fill="#AD8463" width="4.1" height="17.8"/>
	
		<rect x="153.7" y="145.2" transform="matrix(0.204 -0.979 0.979 0.204 -21.2725 268.3972)" fill="#784F27" width="1.5" height="4.1"/>
	
		<rect x="144.1" y="143.2" transform="matrix(0.204 -0.979 0.979 0.204 -26.9545 257.4079)" fill="#784F27" width="1.5" height="4.1"/>
	
		<rect x="121.7" y="138.6" transform="matrix(0.204 -0.979 0.979 0.204 -40.2045 231.7805)" fill="#784F27" width="1.5" height="4.1"/>
	
		<rect x="112.1" y="136.6" transform="matrix(0.204 -0.979 0.979 0.204 -45.8862 220.7914)" fill="#784F27" width="1.5" height="4.1"/>
	<ellipse transform="matrix(0.979 0.204 -0.204 0.979 30.3206 -26.8071)" fill="#F9A0A0" cx="145.2" cy="133.6" rx="6.4" ry="4.4"/>
	<path fill="#E2C89A" d="M163.6,129.6c-0.9,4.2-4.9,6.8-9.1,6l-36-7.5c-4.2-0.9-6.8-4.9-6-9.1l4.1-19.5c0.9-4.2,4.9-6.8,9.1-6
		l36,7.5c4.2,0.9,6.8,4.9,6,9.1L163.6,129.6z"/>
	<g>
		<path fill="#E2C89A" d="M111,100.2c-2.1,3.2-5.3,5.9-8.8,7.2c-3.5,1.2-6.6,0.7-8.3-1.2c2.1-3.2,5.3-5.9,8.8-7.2
			C106.2,97.8,109.2,98.3,111,100.2z"/>
		<path fill="#C69B73" d="M102.2,107.3c3.5-1.2,6.8-4,8.8-7.2l-17.2,6C95.6,108,98.6,108.6,102.2,107.3z"/>
		<path fill="#C69B73" d="M121.6,102.4c0.6,3.7,2.5,7.5,5.2,10.1c2.8,2.6,5.8,3.3,8.1,2.3c-0.6-3.7-2.5-7.5-5.2-10.1
			C127,102.1,124,101.4,121.6,102.4z"/>
		<path fill="#AD8463" d="M126.8,112.5c-2.8-2.6-4.6-6.4-5.2-10.1l13.3,12.4C132.6,115.7,129.6,115,126.8,112.5z"/>
	</g>
	<path fill="#FFFFFF" d="M98.6,85.3c0,0,4.2,9,10,10.6c5.8,1.6-1.7,8.1-1.7,8.1S92.3,97.8,98.6,85.3z"/>
	<path fill="#FFFFFF" d="M139.9,93.9c0,0-7.5,6.6-13.4,5.7c-5.9-0.8-1.7,8.1-1.7,8.1S140.8,107.9,139.9,93.9z"/>
	<path fill="#E2C89A" d="M125.2,117.4c-0.9,4.2-4.9,6.8-9.1,6l-8.2-1.7c-4.2-0.9-6.8-4.9-6-9.1l2.9-14.1c0.9-4.2,4.9-6.8,9.1-6
		l8.2,1.7c4.2,0.9,6.8,4.9,6,9.1L125.2,117.4z"/>
	<path fill="#C69B73" d="M122.2,94.2l-4.2-0.9l-6.1,29.2l4.2,0.9c4.2,0.9,8.2-1.8,9.1-6l2.9-14.1C129,99.1,126.4,95,122.2,94.2z"/>
	<path fill="#FFFFFF" d="M127.1,127.4c-0.9,4.2-4.9,6.8-9.1,6l-16-3.3c-4.2-0.9-6.8-4.9-6-9.1l0.5-2.2c0.9-4.2,4.9-6.8,9.1-6l16,3.3
		c4.2,0.9,6.8,4.9,6,9.1L127.1,127.4z"/>
	<circle fill="#C69B73" cx="102.8" cy="122.6" r="2.9"/>
	<circle fill="#C69B73" cx="119.6" cy="126.1" r="2.9"/>
	<g>
		<circle fill="#58595B" cx="111.6" cy="105.1" r="1.6"/>
		<circle fill="#58595B" cx="119.1" cy="106.6" r="1.6"/>
	</g>
	<path fill="#F9A0A0" d="M144.7,139.4c-0.1,0.4-0.5,0.7-1,0.6l0,0c-0.4-0.1-0.7-0.5-0.6-1l0.4-1.9c0.1-0.4,0.5-0.7,1-0.6l0,0
		c0.4,0.1,0.7,0.5,0.6,1L144.7,139.4z"/>
	<path fill="#F9A0A0" d="M141.6,137.9c-0.1,0.4-0.5,0.7-1,0.6l0,0c-0.4-0.1-0.7-0.5-0.6-1l0.4-1.9c0.1-0.4,0.5-0.7,1-0.6l0,0
		c0.4,0.1,0.7,0.5,0.6,1L141.6,137.9z"/>
	<path fill="#F9A0A0" d="M148.1,139.2c-0.1,0.4-0.5,0.7-1,0.6l0,0c-0.4-0.1-0.7-0.5-0.6-1l0.4-1.9c0.1-0.4,0.5-0.7,1-0.6l0,0
		c0.4,0.1,0.7,0.5,0.6,1L148.1,139.2z"/>
	<path fill="#E2C89A" d="M166.1,110.8l0.3-1.4c2,0.4,3.5,0.2,4.5-0.8c2-1.9,1.4-6,1.4-6l1.4-0.2c0,0.2,0.7,4.9-1.9,7.3
		C170.5,111,168.5,111.3,166.1,110.8z"/>
	<path fill="#C69B73" d="M172.4,102.7l1.3-0.2l1.5-3c0,0-2.6-1.6-5.4,0.5L172.4,102.7L172.4,102.7z"/>
	<path fill="#8C6D57" d="M142.2,118.2c3.4-4.4,8.6-1.6,11.8-3.1c3.2-1.5,6.7,2.4,6.9,5.1c0.2,2.7-2.7,8.2-9.8,8.7
		C144,129.4,138.4,123.1,142.2,118.2z"/>
	<path fill="#8C6D57" d="M140.8,101c-1.4,1.6-3.2,3.3,0.4,6.3c3.6,3,8.5,2.5,11.3,0.6c2-1.4,3-5.3,2.9-8.2L142.3,97
		C142.1,98.5,141.6,100,140.8,101z"/>
</g>
<g>
	
		<ellipse transform="matrix(-0.9067 0.4219 -0.4219 -0.9067 113.192 265.7127)" fill="#D1D3D4" cx="27.2" cy="145.4" rx="1" ry="0.9"/>
	
		<rect x="33.7" y="146.2" transform="matrix(-0.9067 0.4219 -0.4219 -0.9067 126.5739 265.8431)" fill="#D1D3D4" width="0.3" height="1.5"/>
	<path fill="#D1D3D4" d="M34.6,147.2c0-0.1-0.1-0.1-0.2-0.1l-0.4,0.2c-0.1,0-0.1,0.1,0,0.2l0,0c0,0.1,0.1,0.1,0.2,0.1l0.4-0.2
		C34.6,147.4,34.7,147.3,34.6,147.2L34.6,147.2z"/>
	
		<rect x="34.9" y="145.3" transform="matrix(-0.9067 0.4219 -0.4219 -0.9067 128.4849 263.9679)" fill="#D1D3D4" width="0.3" height="1.8"/>
	<path fill="#D1D3D4" d="M35.8,146.6c0-0.1-0.1-0.1-0.2-0.1l-0.4,0.2c-0.1,0-0.1,0.1,0,0.2l0,0c0,0.1,0.1,0.1,0.2,0.1l0.4-0.2
		C35.9,146.8,35.9,146.7,35.8,146.6L35.8,146.6z"/>
	
		<rect x="29.9" y="146.2" transform="matrix(-0.9067 0.4219 -0.4219 -0.9067 119.6339 269.1097)" fill="#D1D3D4" width="0.3" height="3.1"/>
	
		<rect x="31.5" y="147.2" transform="matrix(-0.9067 0.4219 -0.4219 -0.9067 122.7311 268.7842)" fill="#D1D3D4" width="0.3" height="1.5"/>
	<path fill="#D1D3D4" d="M32.4,148.2c0-0.1-0.1-0.1-0.2-0.1l-0.4,0.2c-0.1,0-0.1,0.1,0,0.2l0,0c0,0.1,0.1,0.1,0.2,0.1l0.4-0.2
		C32.4,148.4,32.4,148.3,32.4,148.2L32.4,148.2z"/>
	
		<ellipse transform="matrix(-0.9067 0.4219 -0.4219 -0.9067 120.721 260.1159)" fill="#A7A9AC" cx="31.6" cy="143.4" rx="4.6" ry="3.9"/>
	<path fill="#D1D3D4" d="M31.8,139.7c0.1,0.6,0.6,0.9,1.2,0.9l0,0c0.6-0.1,0.9-0.6,0.9-1.2l-0.9-5.6c-0.1-0.6-0.6-0.9-1.2-0.9l0,0
		c-0.6,0.1-0.9,0.6-0.9,1.2L31.8,139.7z"/>
	<path fill="#E28686" d="M32.9,140c0.3,0,0.5-0.3,0.4-0.6l-0.9-5.6c0-0.3-0.3-0.5-0.6-0.4c-0.3,0-0.5,0.3-0.4,0.6l0.9,5.6
		C32.4,139.9,32.7,140.1,32.9,140z"/>
	<path fill="#FFFFFF" d="M31.8,132.9c0.6-0.1,1.1,0.3,1.2,0.9l0.9,5.6c0.1,0.6-0.3,1.1-0.9,1.2L31.8,132.9z"/>
	<path fill="#F2B6B6" d="M32.4,133.8l0.9,5.6c0,0.3-0.1,0.5-0.4,0.6l-1.1-6.6C32.1,133.4,32.4,133.6,32.4,133.8z"/>
	<path fill="#D1D3D4" d="M29.4,141.2c0.2,0.5,0.9,0.7,1.4,0.5l0,0c0.5-0.2,0.7-0.9,0.5-1.4l-2.4-5.1c-0.2-0.5-0.9-0.7-1.4-0.5l0,0
		c-0.5,0.2-0.7,0.9-0.5,1.4L29.4,141.2z"/>
	<path fill="#F2B6B6" d="M30.6,141.3c0.3-0.1,0.4-0.4,0.2-0.7l-2.4-5.1c-0.1-0.3-0.4-0.4-0.7-0.2c-0.3,0.1-0.4,0.4-0.2,0.7l2.4,5.1
		C30,141.3,30.3,141.4,30.6,141.3z"/>
	<path fill="#A7A9AC" d="M27.5,134.7c0.5-0.2,1.1,0,1.4,0.5l2.4,5.1c0.2,0.5,0,1.1-0.5,1.4L27.5,134.7z"/>
	<path fill="#E28686" d="M28.4,135.4l2.4,5.1c0.1,0.3,0,0.6-0.2,0.7l-2.8-6.1C28,135.1,28.3,135.2,28.4,135.4z"/>
	<path fill="#D1D3D4" d="M31.1,148.8c0-0.1-0.1-0.1-0.2-0.1l-0.4,0.2c-0.1,0-0.1,0.1,0,0.2l0,0c0,0.1,0.1,0.1,0.2,0.1l0.4-0.2
		C31.2,149,31.2,148.9,31.1,148.8L31.1,148.8z"/>
	
		<ellipse transform="matrix(-0.9067 0.4219 -0.4219 -0.9067 122.1874 257.2238)" fill="#FFFFFF" cx="32.6" cy="142.1" rx="3.6" ry="3.5"/>
	<path fill="#D1D3D4" d="M29.3,143.7c-0.8-1.7,0-3.9,1.8-4.7l2.9,6.3C32.3,146.1,30.1,145.4,29.3,143.7z"/>
	<g>
		<circle fill="#58595B" cx="33.9" cy="142.4" r="0.4"/>
		<circle fill="#58595B" cx="32" cy="143.3" r="0.4"/>
	</g>
	
		<ellipse transform="matrix(-0.9067 0.4219 -0.4219 -0.9067 125.0468 260.9599)" fill="#58595B" cx="33.7" cy="144.3" rx="0.7" ry="0.5"/>
</g>
</svg>
