<?xml version="1.0" encoding="utf-8"?>
<!-- Generator: Adobe Illustrator 18.0.0, SVG Export Plug-In . SVG Version: 6.00 Build 0)  -->
<!DOCTYPE svg PUBLIC "-//W3C//DTD SVG 1.1//EN" "http://www.w3.org/Graphics/SVG/1.1/DTD/svg11.dtd">
<svg version="1.1" id="Lag_1" xmlns="http://www.w3.org/2000/svg" xmlns:xlink="http://www.w3.org/1999/xlink" x="0px" y="0px"
	 viewBox="32.6 0 781.4 800" enable-background="new 32.6 0 781.4 800" xml:space="preserve">
<g>
	<g>
		<path fill="#F2EFDC" d="M442.3,417.3c16.1-18.5,45.9-18.9,65.8-0.9l5.2,4.3c20.4,18,23.7,47.4,7.6,65.8
			c-16.1,18.5-45.9,18.9-66.3,0.9l-5.2-4.3C429.5,465.1,426.2,435.8,442.3,417.3L442.3,417.3z M517.6,477.9
			c11.8-13.7,8.1-36.9-8.5-51.6l-5.7-5.2c-16.6-14.7-40.3-15.6-52.1-1.9c-11.8,13.7-8.1,36.9,8.5,51.6l5.7,5.2
			C482.5,490.7,505.7,491.7,517.6,477.9L517.6,477.9z"/>
	</g>
	<g>
		<path fill="#DCDAC8" d="M520.9,486.4c1.9-1.9,3.3-4.3,4.7-6.6c-16.6,16.1-44.5,16.1-63.9-0.9l-5.2-4.3
			c-18-16.1-22.7-40.7-12.3-59.2c-0.5,0.5-1.4,1.4-1.9,1.9c-16.1,18.5-12.8,47.8,7.6,65.8l5.2,4.3
			C475.4,505.4,504.8,504.9,520.9,486.4z"/>
	</g>
</g>
<g>
	<circle fill="#D95B46" cx="332.4" cy="481.7" r="79.6"/>
	<path fill="#F16A54" d="M252.8,481.7c0,10.4,1.9,19.9,5.7,29.4c13.3,9.5,28.9,15.2,46.4,15.2c44,0,79.6-35.5,79.6-79.6
		c0-10.4-1.9-19.9-5.7-29.4c-13.3-9.5-28.9-15.2-46.4-15.2C288.8,402.1,252.8,437.7,252.8,481.7z"/>
	<g>
		<path fill="#2D4124" d="M342.8,440c0,2.8-12.8,2.8-13.7,5.2c-0.9,2.4,8.1,11.4,6.2,13.3c-1.9,1.9-10.9-7.1-13.3-6.2
			c-2.4,0.9-2.4,13.7-5.2,13.7c-2.8,0-2.8-12.8-5.2-13.7c-2.4-0.9-11.4,8.1-13.3,6.2c-1.9-1.9,7.1-10.9,6.2-13.3
			c-0.9-2.4-13.7-2.4-13.7-5.2c0-2.8,12.8-2.8,13.7-5.2c0.9-2.4-8.1-11.4-6.2-13.3c1.9-1.9,10.9,7.1,13.3,6.2
			c2.4-0.9,2.4-13.7,5.2-13.7c2.8,0,2.8,12.8,5.2,13.7c2.4,0.9,11.4-8.1,13.3-6.2c1.9,1.9-7.1,10.9-6.2,13.3
			C330,437.7,342.8,437.7,342.8,440z"/>
		<path fill="#405933" d="M316.7,414c-2.8,0-2.8,12.8-5.2,13.7c-2.4,0.9-11.4-8.1-13.3-6.2c-1.9,1.9,7.1,10.9,6.2,13.3
			c-0.9,2.4-13.7,2.4-13.7,5.2c0,2.8,12.8,2.8,13.7,5.2c0.9,2.4-8.1,11.4-6.2,13.3c1.9,1.9,10.9-7.1,13.3-6.2
			c0.9,0.5,1.4,3.3,2.4,6.2c5.2-7.1,8.1-17.1,8.1-27.5c0-1.4,0-2.4,0-3.3l0,0C319.1,427.2,319.1,414,316.7,414z"/>
		<path fill="#2D4124" d="M309.2,417.3c-1.9,0.5-4.3,0.9-5.7,2.4c4.3,5.7,7.6,12.8,8.5,20.4c1.9,0,3.8-0.9,5.2-1.4
			C316.3,430.6,313.4,423,309.2,417.3z"/>
	</g>
</g>
<g>
	<circle fill="#D95B46" cx="546" cy="330.6" r="79.6"/>
	<path fill="#F16A54" d="M496.7,268.1c-8.1,6.2-14.7,13.7-19.4,22.3c0.5,16.1,6.2,32.2,17.1,45.9c27,34.6,77.2,40.7,111.8,13.3
		c8.1-6.2,14.7-13.7,19.4-22.3c-0.5-16.1-6.2-32.2-17.1-45.9C581.5,247.3,531.3,241.1,496.7,268.1z"/>
	<g>
		<path fill="#2D4124" d="M584.8,313.1c-1.9,1.4-9.9-8.5-12.3-7.6c-2.4,0.5-4.3,13.3-6.6,13.3c-2.4-0.5-0.9-13.3-3.3-14.2
			c-2.4-1.4-12.3,6.6-14.2,4.7c-1.4-1.9,8.5-9.9,7.6-12.3c-0.5-2.4-13.3-4.3-13.3-6.6c0.5-2.4,13.3-0.9,14.2-3.3
			c1.4-2.4-6.6-12.3-4.7-14.2c1.9-1.4,9.9,8.5,12.3,7.6c2.4-0.5,4.3-13.3,6.6-13.3c2.4,0.5,0.9,13.3,3.3,14.2
			c2.4,1.4,12.3-6.6,14.2-4.7c1.4,1.9-8.5,9.9-7.6,12.3c0.5,2.4,13.3,4.3,13.3,6.6c-0.5,2.4-13.3,0.9-14.2,3.3
			C579.1,301.3,586.7,311.7,584.8,313.1z"/>
		<path fill="#405933" d="M589.1,276.6c-1.4-1.9-11.8,5.7-14.2,4.7c-2.4-1.4-0.9-14.2-3.3-14.2c-2.4-0.5-4.3,12.3-6.6,13.3
			c-2.4,0.5-10.4-9.5-12.3-7.6c-1.9,1.4,5.7,11.8,4.7,14.2c-1.4,2.4-14.2,0.9-14.2,3.3c-0.5,2.4,12.3,4.3,13.3,6.6
			c0.5,0.9-1.4,3.3-3.8,5.7c9-0.5,18.5-4.3,26.5-10.4c0.9-0.9,1.9-1.4,2.8-2.4l0,0C580.6,286.6,591,278.5,589.1,276.6z"/>
		<path fill="#2D4124" d="M582,272.8c-1.4-1.4-3.3-2.4-5.2-3.3c-1.9,7.1-5.2,13.7-10.9,19.4c1.4,1.4,2.8,2.4,4.3,2.8
			C576.3,286.1,580.1,279.5,582,272.8z"/>
	</g>
</g>
<g>
	<circle fill="#FFCB09" cx="371.2" cy="508.2" r="57.8"/>
	<circle fill="#F2EFDC" cx="371.2" cy="508.2" r="54.5"/>
	<path fill="#FBAB18" d="M371.2,450.5L371.2,450.5V566l0,0c31.7,0,57.8-26.1,57.8-57.8S402.9,450.5,371.2,450.5z"/>
	<path fill="#DCDAC8" d="M371.2,453.8L371.2,453.8v108.9l0,0c30.3,0,54.5-24.6,54.5-54.5C425.7,477.9,401.5,453.8,371.2,453.8z"/>
	<g>
		<path fill="#FFCB09" d="M337.1,477.4c-7.1,7.6-11.4,18-11.8,28.9h41.2L337.1,477.4z"/>
		<path fill="#FBAB18" d="M373.1,462.3v41.2l28.9-28.9C394.4,467.5,384.5,462.8,373.1,462.3z"/>
		<path fill="#FBAB18" d="M404.8,539.5c7.1-7.6,11.4-18,11.8-28.9h-40.7L404.8,539.5z"/>
		<path fill="#FFCB09" d="M369.3,462.3c-11.4,0.5-21.3,4.7-28.9,11.8l28.9,28.9V462.3z"/>
		<path fill="#FBAB18" d="M373.1,513v41.2c11.4-0.5,21.3-4.7,28.9-11.8L373.1,513z"/>
		<path fill="#FFCB09" d="M325.3,510.1c0.5,11.4,4.7,21.3,11.8,28.9l28.9-28.9H325.3z"/>
		<path fill="#FBAB18" d="M375.9,506.3h41.2c-0.5-11.4-4.7-21.3-11.8-28.9L375.9,506.3z"/>
		<path fill="#FFCB09" d="M369.3,513l-28.9,28.9c7.6,7.1,18,11.4,28.9,11.8V513z"/>
	</g>
</g>
<g>
	<path fill="#FFCB09" d="M559.2,474.6c31.7-5.2,60.2,7.6,63.9,28.4c3.3,20.8-19.4,42.2-51.2,47.8c-31.7,5.2-60.2-7.6-63.9-28.4
		C504.8,501.1,527.5,479.8,559.2,474.6z"/>
	<path fill="#F2EFDC" d="M559.7,477c29.8-4.7,56.8,7.1,60.2,27c3.3,19.9-18.5,39.8-48.3,45c-29.8,4.7-56.8-7.1-60.2-27
		C508.1,501.6,529.4,481.7,559.7,477z"/>
	<path fill="#FBAB18" d="M508.1,522L508.1,522L623.2,503l0,0c-3.3-20.8-32.2-34.1-63.9-28.4C527.5,479.8,504.8,501.1,508.1,522z"/>
	<path fill="#DCDAC8" d="M511.4,521.5L511.4,521.5l108.5-18l0,0c-3.3-19.9-30.3-31.7-60.2-27C529.4,481.7,508.1,501.6,511.4,521.5z"
		/>
	<g>
		<path fill="#FFCB09" d="M538.4,540c8.5,3.3,18.9,4.7,30.3,3.3l-4.3-27L538.4,540z"/>
		<path fill="#FBAB18" d="M519.5,519.1l40.7-6.6L528,498.3C522.3,504,519,511.6,519.5,519.1z"/>
		<path fill="#FBAB18" d="M592.9,485.5c-8.5-3.3-18.9-4.7-30.3-3.3l4.3,27L592.9,485.5z"/>
		<path fill="#FFCB09" d="M519.9,521.5c1.9,7.1,7.1,13.3,15.2,17.1l25.6-24.2L519.9,521.5z"/>
		<path fill="#FBAB18" d="M570.1,510.6l40.7-6.6c-1.9-7.1-7.1-13.3-15.2-17.1L570.1,510.6z"/>
		<path fill="#FFCB09" d="M572.5,542.8c10.9-2.4,20.8-6.6,27.5-12.8l-32.2-14.2L572.5,542.8z"/>
		<path fill="#FBAB18" d="M563,509.7l-4.3-27c-10.9,2.4-20.8,6.6-27.5,12.8L563,509.7z"/>
		<path fill="#FFCB09" d="M570.6,513l32.2,14.2c6.2-6.2,9.5-13.7,9-21.3L570.6,513z"/>
	</g>
</g>
<g>
	<path fill="#2D4124" d="M335.7,581.7c-1.4,7.1-2.4,14.2-2.4,21.3c9.5,3.3,18.9,6.6,29.4,8.5c93.3,19.9,182.8-28.4,199.9-108
		c1.4-7.1,2.4-14.2,2.4-21.3c-9.5-3.3-18.9-6.6-29.4-8.5C442.3,453.8,352.7,502.1,335.7,581.7z"/>
	<path fill="#405933" d="M562.6,504c1.4-7.1,2.4-14.2,2.4-20.8C479.7,512,384.5,561.3,333.3,603c0,0,0,0,0,0.5
		c9.5,3.3,18.9,6.6,29.4,8.5C456,631.4,545.5,583.1,562.6,504z"/>
</g>
<g>
	<circle fill="#FBAB18" cx="365.1" cy="559.4" r="42.6"/>
	<circle fill="#E39910" cx="365.1" cy="559.4" r="25.6"/>
</g>
<g>
	<circle fill="#FBAB18" cx="552.6" cy="545.7" r="42.6"/>
	<circle fill="#E39910" cx="552.6" cy="545.7" r="25.6"/>
</g>
<g>
	<circle fill="#FBAB18" cx="654.4" cy="522" r="42.6"/>
	<circle fill="#E39910" cx="654.4" cy="522" r="25.6"/>
</g>
<g>
	<path fill="#FBAB18" d="M273.6,543.3c-17.5,2.8-35-13.7-38.8-36.9c-3.8-23.2,7.6-44.5,25.1-47.4c17.5-2.8,35,13.7,38.8,36.9
		C302.5,519.1,291.6,540.4,273.6,543.3z"/>
	
		<ellipse transform="matrix(0.9874 -0.1582 0.1582 0.9874 -75.9013 48.5758)" fill="#E39910" cx="267.2" cy="501" rx="19.4" ry="25.6"/>
</g>
<g>
	<path fill="#2D4124" d="M594.8,708.1c3.8,6.2,8.1,12.3,12.3,17.5c9.5-3.8,18.5-7.6,27.5-12.8c82.9-46.9,117.9-142.6,77.7-213.1
		c-3.8-6.2-8.1-12.3-12.3-17.5c-9.5,3.8-18.5,7.6-27.5,12.8C589.1,541.9,554.5,637.5,594.8,708.1z"/>
	<path fill="#405933" d="M712.2,499.7c-3.3-6.2-7.6-11.8-12.3-17.5c-44.5,78.6-82.9,178.6-93.3,243.5c0,0,0,0,0,0.5
		c9.5-3.8,18.5-7.6,27.5-12.8C717.4,665.5,752.5,570.3,712.2,499.7z"/>
</g>
<g>
	<path fill="#2D4124" d="M211.6,728.5c3.8,6.2,8.1,12.3,12.3,17.5c9.5-3.8,18.5-7.6,27.5-12.8c82.9-47.4,117.9-142.6,77.7-213.1
		c-3.8-6.2-8.1-12.3-12.3-17.5c-9.5,3.8-18.5,7.6-27.5,12.8C206.4,562.7,171.3,657.9,211.6,728.5z"/>
	<path fill="#405933" d="M329.5,520.1c-3.3-6.2-7.6-11.8-12.3-17.5c-44.5,78.6-82.9,178.6-93.3,243.5c0,0,0,0,0,0.5
		c9.5-3.8,18.5-7.6,27.5-12.8C334.7,686.3,369.3,590.7,329.5,520.1z"/>
</g>
<g>
	<path fill="#F2EFDC" d="M185.1,567c-17.1-25.6-8.1-62,20.4-81.5l7.1-4.7c28.4-18.9,65.8-13.7,82.9,11.8c17.1,25.6,8.1,62-20.4,81.5
		l-7.1,4.7C239.5,598.2,202.6,593,185.1,567L185.1,567z M281.7,502.6c-12.3-18.5-39.3-22.7-60.2-8.5l-7.1,4.7
		c-20.8,13.7-27.5,40.3-14.7,58.7c12.3,18.5,39.3,22.7,60.2,8.5l7.1-4.7C287.4,547.5,294,521.5,281.7,502.6L281.7,502.6z"/>
</g>
<g>
	<path fill="#F2EFDC" d="M573.5,618.1c-17.1-25.6-8.1-62,20.4-81.5l7.1-4.7c28.4-18.9,65.8-13.7,82.9,11.8
		c17.1,25.6,8.1,62-20.4,81.5l-7.1,4.7C627.9,649.4,590.5,643.7,573.5,618.1L573.5,618.1z M669.6,553.7
		c-12.3-18.5-39.3-22.7-60.2-8.5l-7.1,4.7c-20.8,13.7-27.5,40.3-14.7,58.7c12.3,18.5,39.3,22.7,60.2,8.5l7.1-4.7
		C675.3,598.7,681.9,572.2,669.6,553.7L669.6,553.7z"/>
</g>
<g>
	<path fill="#2D4124" d="M671,750.7c7.1,0.9,14.2,1.4,21.3,1.4c2.8-9.5,5.7-19.4,7.1-29.8c15.2-94.3-37.9-180.9-117.9-193.7
		c-7.1-0.9-14.2-1.4-21.3-1.4c-2.8,9.5-5.7,19.4-7.1,29.8C537.9,651.3,591,738,671,750.7z"/>
	<path fill="#405933" d="M581.5,528.6c-7.1-0.9-14.2-1.4-21.3-1.4c33.2,83.8,87.6,176.2,131.7,225c0,0,0,0,0.5,0
		c2.8-9.5,5.7-19.4,7.1-29.8C714.6,628.5,662,541.4,581.5,528.6z"/>
</g>
<g>
	<g>
		<path fill="#2D4124" d="M666.8,284.7c-3.3,7.1-1.4,8.1,3.8,2.4c11.8-13.7,23.2-28.4,33.2-43.6c4.3-6.6,4.3-11.8,1.4-13.7
			c0,0,0,0-0.5,0c-2.8-1.9-7.6,0.5-11.8,7.1C683.3,252,674.8,268.1,666.8,284.7z"/>
		<circle fill="#2D4124" cx="723.6" cy="243.9" r="8.1"/>
		<circle fill="#2D4124" cx="725.5" cy="220.7" r="8.1"/>
		<circle fill="#2D4124" cx="703.2" cy="213.2" r="8.1"/>
		<circle fill="#2D4124" cx="708.4" cy="220.7" r="10.9"/>
		<circle fill="#2D4124" cx="710.8" cy="244.9" r="13.3"/>
		<circle fill="#2D4124" cx="717" cy="230.2" r="13.3"/>
		<circle fill="#2D4124" cx="697.6" cy="231.2" r="13.3"/>
	</g>
	<g>
		<path fill="#405933" d="M666.3,305.5c-4.7,6.2-2.8,7.6,3.3,3.3c14.7-10.9,28.4-22.7,41.7-35.5c5.2-5.2,6.6-10.9,4.3-13.3
			c0,0,0,0-0.5-0.5c-2.4-2.4-7.6-0.9-13.3,4.3C689.5,277.1,677.2,290.8,666.3,305.5z"/>
		<circle fill="#405933" cx="732.1" cy="275.2" r="8.1"/>
		<circle fill="#405933" cx="731.7" cy="250.6" r="8.1"/>
		<circle fill="#405933" cx="717" cy="243" r="8.1"/>
		<circle fill="#405933" cx="720.3" cy="252" r="10.9"/>
		<circle fill="#405933" cx="717.4" cy="275.7" r="13.3"/>
		<circle fill="#405933" cx="726.9" cy="262.9" r="13.3"/>
		<circle fill="#405933" cx="707.5" cy="259.6" r="13.3"/>
	</g>
	<g>
		<path fill="#405933" d="M652.1,301.3c-3.8,6.6-5.7,5.7-4.3-1.4c4.3-17.5,9.5-35.5,15.6-52.6c2.8-7.1,7.1-10.4,10.4-9
			c0,0,0,0,0.5,0c2.8,0.9,4.3,6.6,1.4,13.7C668.7,269,660.6,285.6,652.1,301.3z"/>
		<circle fill="#405933" cx="653" cy="229.3" r="8.1"/>
		<circle fill="#405933" cx="675.8" cy="219.3" r="8.1"/>
		<circle fill="#405933" cx="688.6" cy="230.2" r="8.1"/>
		<circle fill="#405933" cx="679.1" cy="230.2" r="10.9"/>
		<circle fill="#405933" cx="658.7" cy="242.5" r="13.3"/>
		<circle fill="#405933" cx="666.8" cy="228.8" r="13.3"/>
		<circle fill="#405933" cx="677.2" cy="245.4" r="13.3"/>
	</g>
	<g>
		<path fill="#FBAB18" d="M578.2,414.5c-7.6,17.1-2.8,19.9,9.9,6.6l90.9-97.1c12.8-13.7,10.4-33.2-5.2-43.6l-1.9-0.9
			c-15.6-10.4-34.6-4.7-41.7,12.8L578.2,414.5z"/>
		<path fill="#E39910" d="M672.4,279.5l0.9,0.5l-97.6,149.2c-1.9-0.9-0.9-6.2,2.4-14.7l52.1-122.7
			C637.9,274.7,656.8,269,672.4,279.5z"/>
		<g>
			<g>
				<defs>
					<path id="SVGID_1_" d="M578.2,414.5c-7.6,17.1-2.8,19.9,9.9,6.6l90.9-97.1c12.8-13.7,10.4-33.2-5.2-43.6l-1.9-0.9
						c-15.6-10.4-34.6-4.7-41.7,12.8L578.2,414.5z"/>
				</defs>
				<clipPath id="SVGID_2_">
					<use xlink:href="#SVGID_1_"  overflow="visible"/>
				</clipPath>
				<g clip-path="url(#SVGID_2_)">
					<path fill="#FBAB18" d="M633.1,296c16.1,9.5,16.6,8.1,1.9-2.8L528.9,216c-14.7-10.9-29.4-16.1-32.7-11.4l-0.5,0.5
						c-2.8,4.7,7.6,16.1,23.7,25.1L633.1,296z"/>
					<path fill="#FBAB18" d="M606.6,347.2c16.1,9.5,16.6,8.1,1.9-2.8l-106.1-77.7c-15.2-10.9-29.4-16.1-32.7-11.4l-0.5,0.5
						c-2.8,4.7,7.6,16.1,23.7,25.1L606.6,347.2z"/>
					<path fill="#FBAB18" d="M591.5,374.2c16.1,9.5,16.6,8.1,1.9-2.8l-106.1-77.2c-14.7-10.9-29.4-16.1-32.7-11.4l-0.5,0.5
						c-2.8,4.7,7.6,16.1,23.7,25.1L591.5,374.2z"/>
					<path fill="#E39910" d="M649.7,335.8c-14.7-10.9-14.2-12.3,1.9-2.8l113.7,65.8c16.1,9.5,26.5,20.8,23.7,25.1l-0.5,0.5
						c-2.8,4.7-17.5-0.5-32.7-11.4L649.7,335.8z"/>
					<path fill="#E39910" d="M642.6,360c-14.7-10.9-14.2-12.3,1.9-2.8L758.2,423c16.1,9.5,26.5,20.8,23.7,25.1l-0.5,0.5
						c-2.8,4.7-17.5-0.5-32.7-11.4L642.6,360z"/>
					<path fill="#E39910" d="M600,415.9c-14.7-10.9-14.2-12.3,1.9-2.8l113.7,65.8c16.1,9.5,26.5,20.8,23.7,25.1l-0.5,0.5
						c-2.8,4.7-17.5-0.5-32.7-11.4L600,415.9z"/>
					<g>
						<path fill="#E39910" d="M643.1,311.7c-1.4-0.9-0.9-1.4,0.5-0.5l11.4,5.7c1.4,0.9,2.4,2.4,1.4,3.3l0,0c-0.5,0.9-2.4,0.9-3.8,0
							L643.1,311.7z"/>
						<path fill="#E39910" d="M665.3,326.4c1.4,0.9,1.9,0.5,0.5-0.5l-9.5-8.1c-1.4-0.9-2.8-1.4-3.8,0l0,0c-0.5,0.9,0,2.4,1.4,3.3
							L665.3,326.4z"/>
					</g>
					<g>
						<path fill="#E39910" d="M615.6,326.4c-1.4-0.9-0.9-1.4,0.5-0.5l11.4,5.7c1.4,0.9,2.4,2.4,1.4,3.3l0,0c-0.5,0.9-2.4,0.9-3.8,0
							L615.6,326.4z"/>
						<path fill="#E39910" d="M637.9,341c1.4,0.9,1.9,0.5,0.5-0.5l-9.5-8.1c-1.4-0.9-2.8-1.4-3.8,0l0,0c-0.5,0.9,0,2.4,1.4,3.3
							L637.9,341z"/>
					</g>
					<g>
						<path fill="#FBAB18" d="M615.6,326.4c-0.9-0.9-0.9-1.4,0.5-0.5l9.9,4.7c1.4,0.5,1.9,1.9,1.4,3.3l0,0c-0.5,0.9-2.4,0.9-3.3,0
							L615.6,326.4z"/>
						<path fill="#FBAB18" d="M635,339.1c1.4,0.5,1.4,0.5,0.5-0.5l-8.5-7.6c-0.9-0.9-2.8-0.9-3.3,0l0,0c-0.5,0.9,0,2.4,1.4,3.3
							L635,339.1z"/>
					</g>
					<g>
						<path fill="#E39910" d="M612.8,372.8c-1.4-0.9-0.9-1.4,0.5-0.5l11.4,5.7c1.4,0.9,2.4,2.4,1.4,3.3l0,0c-0.5,0.9-2.4,0.9-3.8,0
							L612.8,372.8z"/>
						<path fill="#E39910" d="M635,387c1.4,0.9,1.9,0.5,0.5-0.5l-9.5-8.1c-1.4-0.9-2.8-1.4-3.8,0l0,0c-0.5,0.9,0,2.4,1.4,3.3
							L635,387z"/>
					</g>
					<g>
						<path fill="#E39910" d="M595.2,388.4c-1.4-0.9-0.9-1.4,0.5-0.5l11.4,5.7c1.4,0.9,2.4,2.4,1.4,3.3l0,0c-0.5,0.9-2.4,0.9-3.8,0
							L595.2,388.4z"/>
						<path fill="#E39910" d="M617.5,403.1c1.4,0.9,1.9,0.5,0.5-0.5l-9.5-8.1c-1.4-0.9-2.8-1.4-3.8,0l0,0c-0.5,0.9,0,2.4,1.4,3.3
							L617.5,403.1z"/>
					</g>
					<path fill="#FBAB18" d="M643.6,311.2l7.6,3.8l-1.4,2.4l-6.6-5.2C641.7,310.7,641.7,310.3,643.6,311.2z"/>
				</g>
			</g>
		</g>
	</g>
</g>
<g>
	<path fill="#2D4124" d="M351.3,334.4c-0.5,0.5-1.4,0.5-1.9,0l0,0c-0.5-0.5-0.5-1.4,0-1.9l32.2-32.2c0.5-0.5,1.4-0.5,1.9,0l0,0
		c0.5,0.5,0.5,1.4,0,1.9L351.3,334.4z"/>
	<path fill="#405933" d="M403.4,301.3c2.4-0.9,4.7-1.9,6.6-2.8c0.5-0.5,0.5-0.5,0.9-0.9s0.9-0.9,1.4-1.4c-0.9-0.5-1.9-0.9-2.4-1.4
		c-0.5,0-0.9-0.5-0.9-0.5c0.5,0,0.9,0,0.9,0c1.9-0.5,3.3-0.5,5.2-0.9l0,0c-3.8-0.9-7.6-2.4-11.8-3.3c-0.5,0-0.9-0.5-1.4-0.5
		c0.5,0,0.9,0,1.4,0c4.7,0.5,9.5,0.9,13.3,1.4c1.4-1.9,2.4-4.3,2.8-6.2c-0.5,0-1.4,0-1.9,0s-0.9,0-0.9,0c0.5,0,0.5-0.5,0.9-0.5
		c0.9-0.9,2.4-1.9,3.3-2.8c0.5-1.4,0.9-3.3,0.9-4.7c-0.9,0.5-1.9,0.9-2.8,1.4c-0.5,0-0.5,0.5-0.9,0.5c0-0.5,0.5-0.5,0.5-0.9
		c1.4-3.3,2.4-7.1,2.8-10.9c0-0.5-0.5-0.9-0.5-1.4c-0.5,0-1.4-0.5-1.9-0.5c-1.9,0.5-4.3,1.4-6.2,2.4c-0.5,0-0.5,0.5-0.9,0.5
		c0-0.5,0.5-0.5,0.5-0.9c0.5-0.9,0.5-1.9,0.9-2.8c-3.8,0-7.1,0.5-10.9,1.9c-2.4,2.4-4.3,5.2-6.2,8.1c0,0.5-0.5,0.5-0.5,0.9
		c0-0.5,0-0.9,0-0.9c-0.5-1.4-0.5-2.8-0.9-4.3c0,0,0,0-0.5,0c-1.4,1.4-2.8,3.3-4.3,5.2c0,0.5-0.5,0.5-0.5,0.9c0-0.5,0-0.9,0-0.9
		c0-0.5,0-0.9,0-1.4c-0.5,0.5-0.9,0.9-1.9,1.4c-1.4,1.4-2.8,3.3-4.3,5.2c1.9,8.1,0.9,16.6-2.8,24.6c0,0.5-0.5,0.5-0.5,0.9
		c0.5,0,0.5-0.5,0.9-0.5C388.3,300.8,396.3,299.8,403.4,301.3z"/>
	<path fill="#2D4124" d="M381.2,304.1c7.1-3.3,15.2-4.3,22.3-3.3c2.4-0.9,4.7-1.9,6.6-2.8c0.5-0.5,0.5-0.5,0.9-0.9
		c0.5-0.5,0.9-0.9,1.4-1.4c-0.9-0.5-1.9-0.9-2.4-1.4c-0.5,0-0.9-0.5-0.9-0.5c0.5,0,0.9,0,0.9,0c1.9-0.5,3.3-0.5,5.2-0.9l0,0
		c-3.8-0.9-7.6-2.4-11.8-3.3c-0.5,0-0.9-0.5-1.4-0.5c0.5,0,0.9,0,1.4,0c4.7,0.5,9.5,0.9,13.3,1.4c1.4-1.9,2.4-4.3,2.8-6.2
		c-0.5,0-1.4,0-1.9,0s-0.9,0-0.9,0c0.5,0,0.5-0.5,0.9-0.5c0.9-0.9,2.4-1.9,3.3-2.8c0.5-1.4,0.9-3.3,0.9-4.7
		c-0.9,0.5-1.9,0.9-2.8,1.4c-0.5,0-0.5,0.5-0.9,0.5c0-0.5,0.5-0.5,0.5-0.9c1.4-3.3,2.4-7.1,2.8-10.9c0-0.5-0.5-0.9-0.5-1.4
		l-40.7,39.8C380.7,304.6,380.7,304.6,381.2,304.1z"/>
	<g>
		<path fill="#2D4124" d="M382.6,319.3c0-0.5-0.9-0.9-1.4-0.9l-15.2-0.9l-1.9,1.9l17.5,0.9C382.1,320.2,382.6,320.2,382.6,319.3z"/>
		<path fill="#405933" d="M388.7,332.5c1.9,0.9,3.8,1.9,6.2,2.4c0.5,0,0.5,0,0.9,0s0.9,0,1.9,0c-0.5-0.9-0.5-1.9-0.9-2.4
			c0-0.5-0.5-0.5-0.5-0.9c0.5,0,0.5,0.5,0.9,0.5c1.4,0.9,2.4,1.9,3.8,2.4l0,0c-1.9-3.3-3.8-6.6-6.2-9.9c-0.5-0.5-0.5-0.9-0.9-1.4
			c0.5,0.5,0.5,0.9,0.9,0.9c2.8,3.8,5.7,6.6,8.5,9.5c1.9-0.5,3.3-1.4,4.7-1.9c-0.5-0.5-0.9-0.9-1.4-1.4c-0.5-0.5-0.5-0.5-0.9-0.9
			c0.5,0,0.5,0,0.9,0c0.9,0,2.4,0.5,3.3,0.5c0.9-0.9,1.9-1.9,2.8-2.8c-0.9-0.5-1.9-0.9-2.8-0.9c-0.5,0-0.5,0-0.9-0.5
			c0.5,0,0.5,0,0.9-0.5c2.8-1.4,5.2-2.8,7.1-5.2c0-0.5,0.5-0.9,0.5-1.4c-0.5-0.5-0.5-0.9-0.9-1.4c-1.9-0.9-3.3-1.9-5.2-2.4
			c-0.5,0-0.5,0-0.9-0.5c0.5,0,0.5,0,0.9-0.5s1.4-0.9,1.9-1.4c-2.4-2.4-5.2-4.3-8.1-6.2c-2.8,0-5.2,0.5-8.1,1.4
			c-0.5,0-0.5,0.5-0.9,0.5c0-0.5,0.5-0.5,0.5-0.9c0.5-0.9,0.9-2.4,1.4-3.8c0,0,0,0-0.5,0c-1.9,0-3.3,0.5-5.2,0.5
			c-0.5,0-0.5,0-0.9,0.5c0-0.5,0.5-0.5,0.5-0.9c0-0.5,0.5-0.5,0.5-0.9c-0.5,0-1.4,0-1.9,0c-1.9,0-3.8,0.5-5.2,0.5
			c-2.8,6.2-7.1,11.8-13.7,14.7c-0.5,0-0.5,0-0.9,0.5c0.5,0,0.5,0,0.9,0.5C378.8,322.6,384.5,327.3,388.7,332.5z"/>
		<path fill="#2D4124" d="M372.6,320.2c6.2,2.8,11.8,7.1,16.1,12.8c1.9,0.9,3.8,1.9,6.2,2.4c0.5,0,0.5,0,0.9,0c0.5,0,0.9,0,1.9,0
			c-0.5-0.9-0.5-1.9-0.9-2.4c0-0.5-0.5-0.5-0.5-0.9c0.5,0,0.5,0.5,0.9,0.5c1.4,0.9,2.4,1.9,3.8,2.4l0,0c-1.9-3.3-3.8-6.6-6.2-9.9
			c-0.5-0.5-0.5-0.9-0.9-1.4c0.5,0.5,0.5,0.9,0.9,0.9c2.8,3.8,5.7,6.6,8.5,9.5c1.9-0.5,3.3-1.4,4.7-1.9c-0.5-0.5-0.9-0.9-1.4-1.4
			c-0.5-0.5-0.5-0.5-0.9-0.9c0.5,0,0.5,0,0.9,0c0.9,0,2.4,0.5,3.3,0.5c0.9-0.9,1.9-1.9,2.8-2.8c-0.9-0.5-1.9-0.9-2.8-0.9
			c-0.5,0-0.5,0-0.9-0.5c0.5,0,0.5,0,0.9-0.5c2.8-1.4,5.2-2.8,7.1-5.2c0-0.5,0.5-0.9,0.5-1.4h-46.4
			C371.7,319.7,372.2,320.2,372.6,320.2z"/>
	</g>
	<g>
		<path fill="#2D4124" d="M369.8,315l-2.4-12.8c0-0.9-0.9-1.4-1.4-1.4c-0.5,0-0.9,0.5-0.9,1.4l2.8,14.7L369.8,315z"/>
		<path fill="#405933" d="M352.3,296c-1.4-1.9-2.4-3.8-3.3-5.7c0-0.5,0-0.5,0-0.9s0-0.9,0-1.9c0.9,0,1.9,0.5,2.8,0.9
			c0.5,0,0.5,0.5,0.9,0.5c-0.5-0.5-0.5-0.5-0.9-0.5c-0.9-0.9-1.9-2.4-2.8-3.8l0,0c3.3,1.4,7.1,3.3,10.4,5.2c0.5,0,0.9,0.5,1.4,0.5
			c-0.5-0.5-0.9-0.5-1.4-0.9c-3.8-2.4-7.6-4.7-10.4-7.1c0.5-1.9,0.9-3.8,1.4-5.2c0.5,0.5,0.9,0.5,1.4,0.9c0.5,0,0.5,0.5,0.9,0.5
			c0-0.5-0.5-0.5-0.5-0.9c-0.5-0.9-0.5-2.4-0.9-3.3c0.5-0.9,1.4-2.4,2.4-3.3c0.5,0.9,0.9,1.4,1.4,2.4c0,0.5,0.5,0.5,0.5,0.9
			c0-0.5,0-0.5,0-0.9c0.9-2.8,2.4-5.7,3.8-8.1c0.5-0.5,0.9-0.5,1.4-0.5c0.5,0.5,0.9,0.5,1.9,0.9c0.9,1.4,2.4,3.3,3.3,5.2
			c0,0.5,0,0.5,0.5,0.9c0-0.5,0-0.5,0-0.9c0.5-0.9,0.5-1.4,0.9-2.4c2.8,1.9,5.2,4.7,7.1,7.1c0.5,2.8,0,5.2-0.5,8.1
			c0,0.5,0,0.5-0.5,0.9c0.5,0,0.5-0.5,0.9-0.5c0.9-0.9,2.4-1.4,3.3-1.9c0,0,0,0,0,0.5c0,1.9,0,3.3,0,5.2c0,0.5,0,0.5,0,0.9
			c0.5,0,0.5-0.5,0.5-0.5c0.5-0.5,0.5-0.5,0.9-0.5c0,0.5,0.5,1.4,0.5,1.9c0.5,1.9,0.5,3.8,0,5.7c-5.7,3.3-10.4,9-12.3,15.6
			c0,0.5,0,0.5,0,0.9c0-0.5-0.5-0.5-0.5-0.9C363.2,304.6,357.9,299.8,352.3,296z"/>
		<path fill="#2D4124" d="M366.5,310.7c-3.3-6.2-8.5-10.9-14.2-14.7c-1.4-1.9-2.4-3.8-3.3-5.7c0-0.5,0-0.5,0-0.9s0-0.9,0-1.9
			c0.9,0,1.9,0.5,2.8,0.9c0.5,0,0.5,0.5,0.9,0.5c-0.5-0.5-0.5-0.5-0.9-0.5c-0.9-0.9-1.9-2.4-2.8-3.8l0,0c3.3,1.4,7.1,3.3,10.4,5.2
			c0.5,0,0.9,0.5,1.4,0.5c-0.5-0.5-0.9-0.5-1.4-0.9c-3.8-2.4-7.6-4.7-10.4-7.1c0.5-1.9,0.9-3.8,1.4-5.2c0.5,0.5,0.9,0.5,1.4,0.9
			c0.5,0,0.5,0.5,0.9,0.5c0-0.5-0.5-0.5-0.5-0.9c-0.5-0.9-0.5-2.4-0.9-3.3c0.5-0.9,1.4-2.4,2.4-3.3c0.5,0.9,0.9,1.4,1.4,2.4
			c0,0.5,0.5,0.5,0.5,0.9c0-0.5,0-0.5,0-0.9c0.9-2.8,2.4-5.7,3.8-8.1c0.5-0.5,0.9-0.5,1.4-0.5l6.2,46.9
			C366.9,311.2,366.9,311.2,366.5,310.7z"/>
	</g>
</g>
<g>
	
		<ellipse transform="matrix(-0.6145 -0.7889 0.7889 -0.6145 816.3849 713.5429)" fill="#DCDAC8" cx="582.5" cy="157.3" rx="10.9" ry="24.2"/>
	<path fill="#F2EFDC" d="M576.8,136c-5.7,0.9-10.4,4.7-12.8,9.9c-2.4,5.7-0.9,9.9,0.5,9.5c2.4-0.5,4.7,0,6.6,1.4
		c5.2,7.1,9.9,14.7,13.7,23.2c1.9,4.3,7.6,7.6,11.8,6.2c4.3-1.9,7.6-4.3,10.4-8.1c2.8-3.8,0.5-10.4-2.8-13.3
		c-7.1-5.7-13.3-11.8-18.9-18.9c-0.5-2.4-0.5-4.7,0.5-7.1C586.7,137.8,582.9,135.5,576.8,136z"/>
	<path fill="#F2EFDC" d="M569.2,129.3c-0.5,0.5-9.9,7.6-10.4,8.1c-13.3,10.4-17.1,27.5-9,38.4c6.2,7.6,19.4,10.9,27.9,4.7
		c2.8-1.9,1.9-7.1-1.4-8.1c-1.4-0.5-4.7,1.9-6.2,1.9c-2.4,0-4.3-1.4-4.7-2.8c-1.9-5.7,2.8-9.9,7.1-13.7l11.8-9.5
		c4.7-3.3,9.9-7.1,15.2-3.8c1.4,0.9,2.4,2.8,1.9,5.2c-0.5,1.4-3.3,4.3-3.3,5.7c0,3.8,4.7,5.7,7.6,3.3c8.1-7.1,8.5-20.8,2.4-28.4
		C600.5,119.4,582.5,118.9,569.2,129.3z"/>
</g>
<g>
	
		<ellipse transform="matrix(0.8852 0.4652 -0.4652 0.8852 206.4886 -66.484)" fill="#DCDAC8" cx="238" cy="385.1" rx="10.9" ry="24.2"/>
	<path fill="#F2EFDC" d="M252.3,401.7c4.7-3.3,7.6-8.5,7.6-14.7s-3.3-9.5-4.3-8.1c-1.9,1.4-4.3,1.9-6.6,1.4
		c-7.6-4.3-15.2-9.5-21.8-15.2c-3.3-3.3-9.9-3.8-13.3-0.5c-3.3,3.3-5.2,7.1-6.2,11.8c-0.9,4.7,3.8,9.9,8.1,10.4
		c9,2.4,17.1,5.2,25.1,9.5c1.4,1.9,2.8,4.3,2.4,6.6C242.4,404.5,247.1,405,252.3,401.7z"/>
	<path fill="#F2EFDC" d="M261.3,405c0.5-0.5,5.7-11.4,6.2-11.8c8.1-14.7,4.3-32.2-8.1-38.4c-8.5-4.7-21.8-1.9-27.5,7.6
		c-1.9,3.3,0.9,7.1,4.7,7.1c1.4,0,3.3-3.3,5.2-4.3s4.3-0.5,5.7,0.9c4.3,4.7,1.4,10.4-0.9,15.6l-7.1,12.8c-2.8,4.7-6.2,10.4-12.3,9.5
		c-1.9-0.5-3.3-1.9-3.8-4.3c-0.5-1.4,1.4-5.2,0.5-6.6c-1.9-3.3-6.6-3.3-8.5,0c-4.3,9.9,0.9,22.3,9.5,27
		C237.6,426.8,253.7,419.7,261.3,405z"/>
</g>
<g>
	
		<ellipse transform="matrix(-0.998 -6.274858e-02 6.274858e-02 -0.998 996.4709 79.6192)" fill="#DCDAC8" cx="499.5" cy="24.2" rx="7.1" ry="15.2"/>
	<path fill="#F2EFDC" d="M486.8,18c-1.9,3.3-2.4,7.1-0.5,10.4c1.9,3.3,4.3,4.7,4.7,3.8c0.9-1.4,1.9-2.4,3.3-2.8
		c5.7,0.5,11.4,1.4,16.6,3.3c2.8,0.9,6.6-0.5,8.1-3.3c0.9-2.8,1.4-5.7,0.5-8.5c-0.9-2.8-4.7-4.7-7.6-4.3c-5.7,0.9-11.4,1.4-17.1,0.9
		c-1.4-0.5-2.4-1.9-3.3-3.3C492,14.2,489.1,14.7,486.8,18z"/>
	<path fill="#F2EFDC" d="M480.6,19c0,0.5-0.5,8.1-0.5,8.5c-0.5,10.9,5.7,19.9,14.7,20.4c6.2,0.5,13.3-4.7,14.2-11.4
		c0.5-2.4-2.4-3.8-4.7-2.8c-0.9,0.5-0.9,2.8-1.9,3.8c-0.9,0.9-2.4,1.4-3.3,0.9c-3.8-1.4-3.8-5.7-3.3-9.5l0.5-9.5
		c0.5-3.8,0.9-7.6,4.7-9c0.9-0.5,2.4,0,3.3,1.4c0.5,0.9,0.5,3.3,1.4,3.8c1.9,1.4,4.7,0,4.7-2.4c0-7.1-6.6-12.8-12.8-13.3
		C488.7-0.5,481.1,8.1,480.6,19z"/>
</g>
<g>
	
		<ellipse transform="matrix(0.693 -0.7209 0.7209 0.693 -101.7386 603.1144)" fill="#DCDAC8" cx="657.3" cy="421" rx="7.1" ry="15.2"/>
	<path fill="#F2EFDC" d="M670.1,415.4c-1.4-3.3-3.8-6.2-7.6-7.1c-3.8-0.9-6.6,0.5-5.7,1.4c0.5,1.4,0.5,2.8-0.5,4.3
		c-3.8,3.8-8.5,7.6-13.3,10.9c-2.4,1.4-4.3,5.2-2.8,8.1c1.4,2.4,3.3,4.7,6.2,5.7c2.8,1.4,6.6-0.5,8.1-2.8c2.8-5.2,6.2-9.5,10.4-13.7
		c1.4-0.5,2.8-0.9,4.3-0.5C670.1,422,671,419.2,670.1,415.4z"/>
	<path fill="#F2EFDC" d="M673.9,410.2c-0.5-0.5-5.7-5.7-6.2-5.7c-7.6-7.6-18.9-8.5-25.1-1.9c-4.3,4.3-5.2,13.3-0.5,18.5
		c1.4,1.9,4.7,0.5,5.2-1.9c0-0.9-1.4-2.8-1.9-3.8c0-1.4,0.5-2.8,1.4-3.3c3.8-1.9,6.6,0.9,9.5,3.3l7.1,6.6c2.4,2.4,5.2,5.7,3.8,9
		c-0.5,0.9-1.9,1.9-3.3,1.4c-0.9,0-2.8-1.9-3.8-1.4c-2.4,0.5-3.3,3.8-1.4,5.2c5.2,4.3,13.7,3.3,18-0.9
		C682.9,428.7,681.4,417.8,673.9,410.2z"/>
</g>
<g>
	<polygon fill="#DCDAC8" points="306.8,299.4 300.2,305 308.7,306.9 300.2,308.8 306.8,314.5 298.3,312.6 302.1,320.2 295.4,315 
		295.4,323.5 291.6,315.9 287.4,323.5 287.4,315 280.7,320.2 284.5,312.6 276,314.5 282.6,308.8 274.1,306.9 282.6,305 276,299.4 
		284.5,301.3 280.7,293.7 287.4,298.9 287.4,290.4 291.2,297.9 295.4,290.4 295.4,298.9 302.1,293.7 298.3,301.3 	"/>
	
		<ellipse transform="matrix(-0.4354 -0.9002 0.9002 -0.4354 165.1746 488.2959)" fill="#71841F" cx="235.7" cy="192.4" rx="88.6" ry="3.8"/>
	<path fill="#405933" d="M238.1,199.4c21.3,40.7,37.9,74.4,36,75.3c-1.4,0.9-20.4-31.3-41.7-72c-21.3-40.7-37.9-74.4-36-75.3
		C197.9,126.5,216.8,158.7,238.1,199.4z"/>
	<path fill="#405933" d="M243.3,194.2c18.5,42.2,32.2,76.7,30.3,77.2c-1.9,0.5-18-33.2-36.9-75.3c-18.5-42.2-32.2-76.7-30.3-77.2
		C208.3,118.4,224.9,152.1,243.3,194.2z"/>
	<path fill="#F2EFDC" d="M280.3,228.3c-12.8-2.8-24.6-10.9-30.8-23.7c-0.5,3.8-0.5,8.1,0,11.8c-5.2-5.2-11.4-9.5-17.5-12.8
		c1.4,1.9,2.8,4.3,3.8,6.6c6.2,12.8,5.7,27.5-0.5,39.3c-7.1,12.3-8.1,27.5-1.4,41.2c10.4,21.8,36.9,31.3,59.2,20.8
		c21.3-10.4,30.8-36.9,20.4-59.2C306.8,239.2,294,230.2,280.3,228.3z"/>
	<g>
		<path fill="#E2D7AB" d="M280.3,228.3c-12.8-2.8-24.6-10.9-30.8-23.7c-0.5,3.8-0.5,8.1,0,11.8c-0.9-0.9-1.4-1.4-2.4-1.9
			c6.6,9,16.1,14.7,26.5,17.1c13.7,2.4,26.5,10.9,33.2,24.6c9.9,20.8,2.4,45.9-17.5,57.3c0.9-0.5,2.4-0.9,3.3-1.4
			c21.8-10.9,31.3-37.4,20.8-59.7C306.8,239.2,294,230.2,280.3,228.3z"/>
	</g>
</g>
<g>
	<circle fill="#FBAB18" cx="454.1" cy="390.8" r="33.2"/>
	<circle fill="#E39910" cx="454.1" cy="390.8" r="19.9"/>
</g>
<g>
	<circle fill="#FBAB18" cx="313.9" cy="136.9" r="21.8"/>
	<circle fill="#E39910" cx="313.9" cy="136.9" r="12.8"/>
</g>
<g>
	<g>
		<path fill="#F2EFDC" d="M365.5,208.4c-17.1-25.6-8.1-62,20.4-81.5l7.1-4.7c28.4-18.9,65.8-13.7,82.9,11.8
			c17.1,25.6,8.1,62-20.4,81.5l-7.1,4.7C420,239.7,383.1,234,365.5,208.4L365.5,208.4z M464.5,135.5c-12.8-19.4-42.2-22.3-65.8-6.6
			l-8.1,5.2c-23.2,15.6-31.7,44-18.9,63.5c12.8,19.4,42.2,22.3,65.8,6.6l8.1-5.2C468.8,183.3,477.3,154.9,464.5,135.5L464.5,135.5z"
			/>
	</g>
	<g>
		<path fill="#DCDAC8" d="M475.9,134.5c-1.9-2.8-4.3-5.2-6.6-7.6c14.7,25.6,5.2,59.7-22.3,78.2l-7.1,4.7
			c-25.6,17.1-57.8,14.7-76.3-4.3c0.5,0.9,0.9,1.9,1.9,2.8c17.1,25.6,54.5,31.3,82.9,11.8l7.1-4.7
			C483.9,196.6,493.4,160.1,475.9,134.5z"/>
	</g>
</g>
<g>
	<path fill="#6B3A55" d="M156.2,514.9c-35.5,25.1-47.4,63.9-27,85.7c16.6,17.5,47.8,25.6,74.4,18c1.9,0,4.3,0,7.1,1.4
		c6.6,4.3,13.7,10.4,18.9,20.4l0,0c-2.8-6.6-6.6-11.8-10.9-16.1c4.7,2.8,9.5,6.6,15.2,11.4c0,4.7,0.5,11.4,6.2,17.1l0,0
		c-3.8-5.2-3.8-10.4-3.8-15.2c1.9,1.9,4.3,3.8,6.2,6.2c1.9,4.7,4.7,9.5,8.1,14.2l0,0c-2.4-3.8-4.7-8.1-6.2-11.8
		c4.7,4.7,9,9.9,13.7,15.2l0,0l0,0c-6.2-9.9-10.9-19.9-14.7-28.9c5.2,4.7,10.9,11.4,14.2,19.9l0,0c-3.3-11.4-9.9-18.9-15.6-24.2
		c-0.5-0.9-0.9-1.9-0.9-3.3l0,0c2.8,0.9,6.2,2.4,9,5.2c-2.4-3.3-5.2-5.2-8.1-6.2c1.4-2.4,3.8-6.2,9.9-2.4l0,0
		c-8.1-6.2-9.9-0.5-11.8,0.5c-4.3-12.3-5.2-21.8-2.8-26.5c16.6-22.7,19.4-54.9,8.5-76.3C232.4,492.1,191.7,490.2,156.2,514.9z"/>
	<path fill="#48172D" d="M156.2,514.9C156.2,514.9,155.7,514.9,156.2,514.9l99.9,143.5c0.5,0.9,1.4,1.4,1.9,2.4l0,0l0,0
		c-6.2-9.9-10.9-19.9-14.7-28.9c5.2,4.7,10.9,11.4,14.2,19.9l0,0c-3.3-11.4-9.9-18.9-15.6-24.2c-0.5-0.9-0.9-1.9-0.9-3.3l0,0
		c2.8,0.9,6.2,2.4,9,5.2c-2.4-3.3-5.2-5.2-8.1-6.2c1.4-2.4,3.8-6.2,9.9-2.4l0,0c-8.1-6.2-9.9-0.5-11.8,0.5
		c-4.3-12.3-5.2-21.8-2.8-26.5c16.6-22.7,19.4-54.9,8.5-76.3C232.4,492.1,191.7,490.2,156.2,514.9z"/>
	<g>
		<g>
			<path fill="#2D4124" d="M38.7,497.3C88,440.5,151,516.3,152.4,519.1c-0.5,0.5-0.9,0.5-1.4,0.9c-6.2,3.3-32.7,18.5-39.8,16.1
				c-9.5-2.4-7.6-20.4-7.6-20.8c-8.5-4.3-19.4,12.3-27.9,9.5c-9.5-2.4-5.7-25.1-5.2-25.6c-8.5-4.3-21.8,16.6-30.3,14.2
				C34.9,513,37.3,504.9,38.7,497.3z"/>
			<path fill="#405933" d="M38.7,497.3C79,465.6,151,516.3,152.4,519.1c-0.5,0.5-0.9,0.5-1.4,0.9c-6.2,3.3-32.7,18.5-39.8,16.1
				c-9.5-2.4-7.6-20.4-7.6-20.8c-8.5-4.3-19.4,12.3-27.9,9.5c-9.5-2.4-5.7-25.1-5.2-25.6c-8.5-4.3-21.8,16.6-30.3,14.2
				C34.9,513,37.3,504.9,38.7,497.3z"/>
		</g>
		<g>
			<path fill="#2D4124" d="M103.6,404.5c-7.1,22.7-9-9.9-19.4-10.4c-2.4,0-6.6,0.9-10.9,2.8L159,519.6c0.5,0,0.9,0.5,0.9,0.5
				c0-0.5,0.5-0.9,0.5-1.4c2.4-6.6,11.4-34.6,8.1-40.7c-3.8-8.5-20.8-3.3-20.8-3.3c-5.7-7.1,7.6-20.4,3.8-28.4
				c-3.8-8.5-25.1-0.5-25.1,0c-5.7-7.1,7.1-22.7,8.1-31.7C134.9,407.8,111.2,381.8,103.6,404.5z"/>
			<path fill="#405933" d="M70.9,427.7c23.7,0.9-6.2-11.8-2.8-21.8c0.9-2.4,2.8-6.2,6.2-9.5L160,519.1c0,0.5,0,0.9,0,0.9
				c-0.5,0-0.9,0-1.4,0c-6.6,0-36.5-1.4-41.2-6.6c-6.6-6.6,3.8-20.8,4.3-20.8c-4.7-7.6-21.8,0.5-27.9-6.2
				c-6.6-6.6,8.1-23.7,8.5-23.7c-4.7-7.6-23.7-1.4-32.2-3.3C62.9,458,47.2,426.8,70.9,427.7z"/>
		</g>
		<g>
			<path fill="#405933" d="M175.6,401.7c-70.1,27-20.4,111.8-18.5,114.6c0.5-0.5,0.9-0.5,0.9-0.9c5.2-4.7,28.4-24.6,28.9-32.2
				c0.9-9.5-16.6-14.2-17.1-14.2c-0.9-9.5,18-14.2,18.9-23.2c0.9-9.5-21.8-13.7-22.3-13.7c-0.9-9.5,23.2-14.7,24.2-23.7
				C191.2,403.6,183.2,402.6,175.6,401.7z"/>
			<path fill="#2D4124" d="M175.6,401.7c-43.6,27-20.4,111.8-18.5,114.6c0.5-0.5,0.9-0.5,0.9-0.9c5.2-4.7,28.4-24.6,28.9-32.2
				c0.9-9.5-16.6-14.2-17.1-14.2c-0.9-9.5,18-14.2,18.9-23.2c0.9-9.5-21.8-13.7-22.3-13.7c-0.9-9.5,23.2-14.7,24.2-23.7
				C191.2,403.6,183.2,402.6,175.6,401.7z"/>
		</g>
	</g>
</g>
<g>
	<path fill="#DCDAC8" d="M113.6,571.2v102.3c0,62,50.2,112.3,112.3,112.3h398.3c62,0,112.3-50.2,112.3-112.3V571.2H113.6z"/>
	<path fill="#F2EFDC" d="M113.6,571.2v91.4c0,55.4,50.2,100.9,112.3,100.9h398.3c62,0,112.3-45,112.3-100.9v-91.4H113.6z"/>
	<path fill="#6B3A55" d="M113.6,612.9v60.6c0,10.4,1.4,20.4,4.3,29.8h614.8c2.8-9.5,4.3-19.4,4.3-29.8v-60.6H113.6z"/>
	<path fill="#48172D" d="M424.7,612.9v60.6c0,10.4,0.9,20.4,1.9,29.8H734c1.4-9.5,1.9-19.4,1.9-29.8v-60.6H424.7z"/>
</g>
</svg>
