<?xml version="1.0" encoding="utf-8"?>
<!-- Generator: Adobe Illustrator 18.0.0, SVG Export Plug-In . SVG Version: 6.00 Build 0)  -->
<!DOCTYPE svg PUBLIC "-//W3C//DTD SVG 1.1//EN" "http://www.w3.org/Graphics/SVG/1.1/DTD/svg11.dtd">
<svg version="1.1" id="Lag_1" xmlns="http://www.w3.org/2000/svg" xmlns:xlink="http://www.w3.org/1999/xlink" x="0px" y="0px"
	 viewBox="-145.1 0 1090.1 800" enable-background="new -145.1 0 1090.1 800" xml:space="preserve">
<g id="Lag_2">
</g>
<g id="Lag_1_1_">
	<path fill="#99CBD1" d="M99.2,417.9c-2.7-6.3-10.3-11.2-19.3-11.2c-2.2,0-4.5,0.4-6.3,0.9c-4-5.4-11.2-9-19.7-9
		c-2.2,0-4.5,0.4-6.3,0.9c-4-9.9-15.7-17-29.6-17c-7.2,0-13.4,1.8-18.8,4.9c-8.5-7.6-21.1-12.5-34.9-12.5
		c-17.9,0-33.6,8.1-41.2,20.2c-8.1,0.9-14.8,4-19.7,8.5c-4.5-3.1-10.3-4.5-16.6-4.5c-13.9,0-25.1,8.5-25.5,19.3H99.2V417.9z"/>
	<path fill="#99CBD1" d="M447.7,60c0.9-13.4,14.3-24.2,31.4-24.2c3.1,0,5.8,0.4,9,0.9c5.4-12.1,20.2-20.6,36.7-20.6
		c7.6,0,14.8,1.8,21.1,4.9C556.1,8.5,573.6,0,593.3,0c24.6,0,45.2,12.5,53.3,30.5c5.8-3.1,13-4.9,20.6-4.9
		c15.7,0,28.7,7.6,34.5,18.4c4.5-1.8,9.4-3.1,14.8-3.1c14.8,0,27.3,8.5,30.5,19.3C746.9,60,447.7,60,447.7,60z"/>
	<path fill="#99CBD1" d="M234,107.1c-0.4-8.1-9-14.8-18.8-14.8c-1.8,0-3.6,0-5.4,0.4c-3.6-7.2-12.1-12.5-22.4-12.5
		c-4.5,0-9,0.9-12.5,3.1c-6.3-7.6-16.6-12.5-28.7-12.5c-14.8,0-27.3,7.6-32.3,18.4c-3.6-1.8-8.1-3.1-12.5-3.1
		C92,86,84,90.5,80.4,97.2c-2.7-1.3-5.8-1.8-9-1.8c-9,0-16.6,4.9-18.4,11.6L234,107.1L234,107.1z"/>
	<path fill="#FFFFFF" d="M158.8,107.1c-0.4-8.1-9-14.8-18.8-14.8c-1.8,0-3.6,0-5.4,0.4c-3.6-7.2-12.1-12.5-22.4-12.5
		c-4.5,0-9,0.9-12.5,3.1C93.4,75.7,83.1,70.8,71,70.8c-14.8,0-27.3,7.6-32.3,18.4c-3.6-1.8-8.1-3.1-12.5-3.1
		c-9.4,0-17.5,4.5-21.1,11.2c-2.7-1.3-5.8-1.8-9-1.8c-9,0-16.6,4.9-18.4,11.6L158.8,107.1L158.8,107.1z"/>
	<path fill="#99CBD1" d="M938.6,448.4c-0.4-8.1-9-14.8-18.8-14.8c-1.8,0-3.6,0-5.4,0.4c-3.6-7.2-12.1-12.5-22.4-12.5
		c-4.5,0-9,0.9-12.5,3.1c-6.3-7.6-16.6-12.5-28.7-12.5c-14.8,0-27.3,7.6-32.3,18.4c-3.6-1.8-8.1-3.1-12.5-3.1
		c-9.4,0-17.5,4.5-21.1,11.2c-2.7-1.3-5.8-1.8-9-1.8c-9,0-16.6,4.9-18.4,11.6L938.6,448.4L938.6,448.4z"/>
	<path fill="#FFFFFF" d="M795.7,52.9c-0.4-8.1-9-14.8-18.8-14.8c-1.8,0-3.6,0-5.4,0.4C768,31.4,759.5,26,749.2,26
		c-4.5,0-9,0.9-12.5,3.1c-6.3-7.6-16.6-12.5-28.7-12.5c-14.8,0-27.3,7.6-32.3,18.4c-3.6-1.8-8.1-3.1-12.5-3.1
		c-9.4,0-17.5,4.5-21.1,11.2c-2.7-1.3-5.8-1.8-9-1.8c-9,0-16.6,4.9-18.4,11.6H795.7z"/>
	<path fill="#FFFFFF" d="M279.7,609.2c-0.4-9.4-10.3-17-21.9-17c-2.2,0-4,0.4-6.3,0.9c-4-8.5-13.9-14.3-26-14.3
		c-5.4,0-10.3,1.3-14.8,3.6c-7.2-9-19.3-14.8-33.1-14.8c-17,0-31.8,9-37.2,21.1c-4-2.2-9-3.6-14.3-3.6c-10.8,0-20.2,5.4-24.2,13
		c-3.1-1.3-6.7-2.2-10.3-2.2c-10.3,0-18.8,5.8-21.1,13.4L279.7,609.2L279.7,609.2z"/>
	
		<circle fill="none" stroke="#FFFFFF" stroke-width="0.3571" stroke-miterlimit="10" stroke-dasharray="2.1319,2.1321" cx="403.8" cy="436.7" r="314"/>
	<g>
		<circle fill="#FFFFFF" cx="723.6" cy="322.5" r="91.8"/>
		<g>
			<path fill="#E17773" d="M723.6,294.3c-6.3-7.6-11.6-12.1-22.8-12.1c-1.3,0-2.7,0-4.5,0.4c-9.9,0.9-21.1,9.9-22.4,26.9v5.8
				c1.3,16.6,13.9,36.7,49.7,62.3l0,0V294.3L723.6,294.3z"/>
			<path fill="#CB6B68" d="M751.4,282.2c-1.8,0-3.1-0.4-4.5-0.4c-11.2,0-16.6,4.9-22.8,12.1l0,0v82.9c36.3-25.5,48.8-45.7,49.7-62.3
				v-5.8C772.5,292,761.3,283.1,751.4,282.2z"/>
		</g>
	</g>
	<g>
		<g>
			<path fill="#99CBD1" d="M133.3,437.6c0,150.1,121.4,271.4,271.4,271.4V166.2C254.6,166.2,133.3,288,133.3,437.6z"/>
			<path fill="#7CBCC3" d="M404.7,166.2v542.9c150.1,0,271.4-121.4,271.4-271.4C676.1,288,554.8,166.2,404.7,166.2z"/>
		</g>
		<g>
			<path fill="none" d="M351.4,336.4c-4.5-5.4,6.3-9.9,3.1-12.1c-4.9-4-14.3,0-13.9,5.8c0.4,4.5-6.3,4.9-5.4-1.3
				c1.8-8.1-9.4-4-11.6-1.8c-3.1,3.1-8.1,10.3-6.3,14.8c2.2,6.3,10.8,1.3,14.8,1.8c6.7,0.9,11.6,4.9,18.4,5.4
				C363,350.7,355.9,341.3,351.4,336.4C350.1,334.6,353.2,338.2,351.4,336.4z"/>
			<path fill="none" d="M398.4,416.6c-5.4-3.1-10.3-13.9-16.6-13.9c-7.2,0,2.2,19.3,4.9,21.1c0.4,0.4,1.8-3.1,2.7-3.1
				c2.2-0.4-0.4,13.4,11.2,8.1c4.9-2.2,3.6-3.1,3.6-8.1C404.7,415.7,402.5,419.3,398.4,416.6C397.1,415.7,399.8,417.5,398.4,416.6z"
				/>
			<path fill="none" d="M411.9,244.1c4-1.8-6.3-5.4-7.2-5.8c0,2.2,0,4.9,0,7.2C406.9,245.9,409.6,245,411.9,244.1
				C413.7,243.7,410.1,245,411.9,244.1z"/>
			<path fill="none" d="M398.9,363.7c-0.9-4.9-1.3-15.2-3.6-19.3c-2.2-3.1-5.4-4.9-3.1-9.4c0.9-1.3,5.8-4.9,5.4-6.7
				c-0.4-2.7-12.1,0-13.9,1.3c-6.7,3.6-0.9,18.8,2.7,22.8c4,4.5-5.4,12.5,0.9,16.6c2.7,1.8,8.1,3.1,11.6,3.1
				C403.4,372.2,399.3,366,398.9,363.7z"/>
			<path fill="#037E8C" d="M257.3,272.3c2.7,0,16.6-9,12.5-11.2c-1.8-1.3-15.7,7.6-15.7,9.9C254.6,272.3,255.5,272.8,257.3,272.3z"
				/>
			<path fill="#037E8C" d="M262.3,278.2c-0.4,0-5.4,0.4-4.5,2.2c3.6,5.4,15.2,3.1,17.5-2.2c2.2-4.9,9.4-15.7,9.4-21.1
				c-0.4-9.9-11.2,5.4-12.1,7.6C271.2,267,264.9,277.7,262.3,278.2z"/>
			<path fill="#037E8C" d="M378.7,588.1c-4,1.3-7.2,7.2-10.3,9.9c-4.5,3.6-9.9,3.1-10.3,10.3c-0.4,8.1-4.9,29.1,11.2,24.6
				c7.6-1.8,9-13,11.2-18.8C381,611,385,585.9,378.7,588.1C377.8,588.6,379.6,587.7,378.7,588.1z"/>
			<path fill="#03717E" d="M621.5,493.6c0.4,1.8,0.9,13,3.6,12.5c4.9-0.4,13.4-2.2,13.4-8.5c0-5.4,2.7-12.5,4-18.4
				c0.9-4.5-0.9-7.6-0.4-12.1c0.4-1.8,0.9-16.1-4-9.9c-2.2,3.1-3.6,8.1-4.9,11.6c-1.3,3.6-2.7,6.7-3.6,10.3
				C628.2,484.7,620.6,489.1,621.5,493.6z"/>
			<path fill="#03717E" d="M644.3,425.5c0.9,1.3,9,18.4,9.9,17.5c4.5-4-0.4-19.3-2.7-23.7c-1.3-2.7-12.5-23.3-13.4-23.3
				C629.1,396,643,423.3,644.3,425.5z"/>
			<path fill="#03717E" d="M585.7,460c0.4,4.5-0.4,9.9,0.9,13.9c0.9,3.1,5.8,5.4,7.2,9c1.8,4,1.3,8.5,4.9,11.2
				c2.7,1.8,13.4,5.4,7.6-1.3c-2.7-3.1-1.3-7.2-4.5-10.3c-4-4.5-8.1-7.2-10.8-12.5c-1.3-2.7-0.9-23.3,1.3-21.1
				c0.4,0.9,0.4,1.8,0.9,3.1c1.3,1.3,5.4,0.9,7.2,2.7c0.4,0.4,9.9,7.2,7.6,8.5c9.4-4.9,8.5-22.8,4.9-30
				c-5.4-11.2-16.6-16.1-8.1-29.6c4.5-7.6,4,17.5,8.1,10.8c2.2-3.6-0.4-7.6-1.3-11.2c-0.9-4.5,5.4-10.3,7.2-14.3
				c8.1-18.8,2.7-43-13.9-54.2c-3.6-2.2-4-6.7-3.1-11.2c1.3-4.9-4-6.3-4.5-1.8c-0.4,2.2-13-7.6-7.2-13.9c1.3-1.3,4,3.6,4.9,3.6
				c2.7,0,1.3-9,5.4-1.8c0.4,0.9,14.3,13.4,13,14.3c4.9-3.1-5.4-13.9-7.2-15.7c-5.4-5.4-7.2-10.8-9.9-17.5
				c-5.4-14.3-9-26.4-21.5-36.7c-1.3-1.3-13-12.5-15.7-10.3c-4,3.6-10.3-6.7-12.5-9.4c-4.9-5.8-4.9-9.4-7.2-15.7
				c-1.8-5.8-10.8-6.7-13.9-11.6c1.8,2.7,17,9,20.2,11.2c4.9,3.1,10.3,7.6,16.1,9.9c-3.1-1.3-9.4-8.5-12.5-10.8
				c-7.2-5.4-14.8-9.9-22.4-14.3c-8.1-4.9-16.1-8.5-24.6-12.1c-3.6-1.3-16.6-8.5-19.7-7.2c-3.1,1.3,7.2,8.1,8.1,9
				c2.7,2.7,0.9,5.4-0.9,8.5c-0.4,0.4-4.5,3.1-2.2,4c2.2,0.9,1.8,3.1,0.9,4.9c-1.8,4-11.6-2.2-12.5,0c-1.3,3.6,0.4,3.6-5.8,4.9
				c-3.1,0.9-4.5,6.3-6.7,1.3c-4.9-10.8-19.3-2.2-21.5,5.8c-1.8,6.3-2.7,9.4-9.9,11.6c-4.5,1.8-2.2-1.3-6.3-2.7
				c-4.5-1.3,0,12.5-0.9,12.5c-3.1,0.9-16.1-3.6-17-7.6c-1.3-8.1,8.5-10.8,11.2-17c-11.6,3.6-15.2,7.6-15.2,19.3
				c0,3.1,16.6,6.7,0.4,8.1c-0.4,0-0.4,1.8-0.4,2.2c0,17.9,0,35.8,0,53.8c0,38.5,0,77,0,115.6c7.2-0.4,6.7-0.9,11.2,3.6
				c2.7,2.7,12.5,1.8,16.1,2.2c7.2,0.9,14.8-2.2,21.5-0.9c1.8,0.4,9.9,8.1,10.3,10.3c2.2,5.8,8.1,9.4,13.4,5.8
				c6.7-4.5,5.8,4.5,6.3,9.4c2.2,16.1,12.5,27.8,18.4,42.1c5.8,13.9,14.3-10.3,13.9-16.1c-0.4-7.6-1.8-11.6,3.6-17.9
				c4.9-5.8,9.4-12.1,13.9-18.8c2.7-4.5,3.6-10.3,8.5-12.1c6.3-2.2,8.1-7.6,13.9-2.2c4.9,4.9,11.6,9.9,11.6,17.9
				c0,10.8,9.4-2.7,9-2.7C581.2,442.1,584.8,454.2,585.7,460C585.7,463.2,585.2,457.3,585.7,460z"/>
			<path fill="#03717E" d="M632.3,379.4c0-0.9-2.2-9.4-4.5-9c-2.7,0.9,1.3,11.6,4,10.8C631.8,380.3,631.8,379.8,632.3,379.4
				C631.8,377.2,632.3,381.2,632.3,379.4z"/>
			<path fill="#03717E" d="M520.7,490.5c-4.5-2.7-3.6,8.5-1.8,10.3C523,505.3,526.5,494.1,520.7,490.5
				C518.5,489.6,522.5,491.8,520.7,490.5z"/>
			<path fill="#037E8C" d="M404.3,168.4c-24.2,0-48.8,5.8-72.1,12.1c-3.1,0.9-39,8.1-39,13.4c0,4.9,29.1-2.7,32.3-3.6
				c6.3-1.8,12.1-4,18.4-6.3c0.4,0,16.6-4.5,14.3-0.9c-1.8,3.1-16.1,4.9-20.6,6.3c-6.7,2.2-13.4,4.5-20.2,6.7
				c-7.6,2.2-15.2,4.5-22.4,7.6c-3.1,1.3-23.3,10.3-23.3,13.9c0,0,18.8-4.5,20.2-4.5c11.2-0.9,20.6,3.1,31.8,0
				c5.8-1.8,52-17.5,49.7-21.1c1.8,2.7-0.9,6.7,0.9,9.4c1.8,2.7,7.2,3.6,9.9,4.5c6.7,1.8,13.4,1.8,20.2,2.2
				C404.7,204.7,405.2,168.4,404.3,168.4z"/>
			<path fill="#03717E" d="M418.1,211c15.7-7.2,27.3-0.4,43-1.8c4.5-0.4,2.2-2.2,5.4-4c3.1-1.8,8.1-0.9,11.2-0.9
				c2.2,0,0-17.9-0.9-18.8c-3.1-3.6-12.5-4.9-16.6-7.2c-4.5-2.2-9-5.4-13.4-6.3c-13.4-2.7-28.2-3.6-41.7-3.6c0,8.5,0,17,0,26
				c0,4.5,0,8.5,0,13C404.7,210.5,415,212.3,418.1,211C419.5,210.5,416.8,211.9,418.1,211z"/>
			<path fill="#03717E" d="M406.9,461.4c7.6-5.8,11.2-10.8,16.1-18.8c3.6-5.4-2.7-8.5-6.7-10.8c-7.2-4-2.2-11.6-12.1-4.9
				c-1.8,3.1,0,13,0,16.6c0,6.3,0,13,0,19.3C405.6,462.3,406,461.8,406.9,461.4C408.3,460,406.5,461.8,406.9,461.4z"/>
			<path fill="#2A3D4D" d="M402,233.8c-0.4,2.2,0.9,4,2.7,4.9c0-3.1,0-6.7,0-9.9C403.4,230.2,402.5,232,402,233.8
				C401.6,235.6,402.5,232.5,402,233.8z"/>
			<path fill="#03717E" d="M665.8,497.2c-5.8,6.3-7.6,24.6-14.8,28.7c-3.6,2.2-4.9,8.5-6.7,12.1c-3.6,8.1-8.1,15.7-13.9,22.4
				c-7.2,8.5-14.3,16.1-19.3,26.4c-1.8,3.6-3.6,7.6-5.4,11.2c-2.2,4-10.3,13-10.3,17.5c0.4,6.7,17.9-5.8,19.3-7.6
				c0.9-1.3,1.8-2.7,2.7-4c6.3-9.9,12.5-19.7,18.4-29.6c13.4-23.3,32.3-52.9,34-80.6C668.1,494.5,667.2,495.9,665.8,497.2
				C664.1,499.4,668.1,495,665.8,497.2z"/>
			<path fill="#037E8C" d="M397.5,246.8c-4,0.4-13,4.5-17,6.3c-2.7,0.9-18.4,9.4-14.3-2.7c1.3-4,21.5,4,5.4-9
				c-9.4-7.6-17-7.6-28.2-3.6c-12.5,4.5-35.8,9.9-42.6,21.5c-4.5,7.6,14.8,3.1,4,14.8c-5.4,5.4,8.5,0.9,10.8-2.2
				c2.7-3.1,4-2.7,7.2-4.5c2.2-1.3,0.4-5.4,2.7-8.1c1.8-1.8,23.7-14.3,23.7-9c0,6.3-18.4,6.3-15.7,16.1c0.4,2.7,10.3,0,12.5,2.2
				c3.1,2.7-12.1,2.7-12.5,2.7c-6.3,1.3-10.8,13-15.7,12.5c-3.6,0-3.6,0.4-7.2-0.4c-4.9-0.9-7.6-0.9-12.1-2.7
				c-2.7-0.9,2.7-6.7,3.1-10.8c0.4-4-6.7,1.8-7.2,3.1c-2.2,6.3-3.6,6.3-9.9,6.3c-6.7,0.4-13.9,6.3-21.1,7.2c-4,0.4-6.7,1.3-10.3-0.4
				c-4-1.8-0.9,7.6-1.8,9.4c-2.7,3.6-5.8,15.7-12.5,10.8c-9-6.7-14.8,1.3-19.7,9c-6.7,0.4-2.7,10.3-2.7,14.3
				c-0.4,11.2,21.5-6.3,22.8-7.2c4-2.2,8.1-5.4,11.6-7.6c4-2.2,4.5,2.2,7.6,2.7c6.7,1.3,7.6-0.4,10.3,7.2c1.8,4.9,5.8,10.3,5.8,16.1
				c-0.4,8.1-17,2.2-9,10.3c4.5,4.5,12.1-9.9,13.9-11.2c0.9-0.9,1.8,2.2,3.1,1.3c0,0-5.8-15.2-5.8-17.5c-0.9-5.8,2.7-14.8,4.5-5.4
				c0.9,5.4,7.6,13,6.3,18.4c-0.4,1.8,0.9,20.2,1.8,20.2c-1.3,0.4,9.4-7.2,8.5-4c0.9-2.7-4.5-4.5-1.3-7.6c2.2-1.8,6.3-2.7,9-1.8
				c4.9,2.2-0.4,12.1,1.8,16.6c5.8,10.3,28.7,0.4,25.1,16.1c-4,18.8-22.4,13.9-35.4,8.5c-5.8-2.2-13.4-10.3-19.7-7.6
				c-3.1,1.3-3.1,4.9-5.8,5.8c-3.6,1.3-10.3-6.3-10.3-9.4c0-5.4-9-9.4-10.8-14.8c-1.8-4,11.2-9.9,6.3-13.9c-2.2-1.8-6.7-0.4-9.9-0.9
				c-4-0.9-6.7-3.6-10.8-4.5c-4-0.9-7.6,0.4-11.6-0.4c-3.6-0.9-8.5-7.2-12.1-3.6c-2.7,2.7-5.8,2.7-8.5,4.9c-3.1,2.2-4.5,5.8-6.7,8.5
				c-4.5,4.9-11.2,7.2-16.1,12.1c-7.6,7.2-14.3,14.8-17,25.5c-5.4,22.4-9.4,48.4,0.9,69.9c2.7,8.1,11.2,10.3,17.5,14.3
				c5.8,3.6,12.5-1.3,17.5,6.3c3.6,5.8,10.3,6.3,13.9,11.2c5.8,8.5-0.4,17.9,2.2,26.9c2.7,9.4,14.3,23.3,13.4,33.6
				c-0.4,5.4,5.8,8.5,3.1,14.8c-3.1,7.6-2.2,14.8,1.8,21.9c6.7,11.6,13.4,27.3,22.4,36.7c10.8,11.2,16.6,24.2,33.1,25.1
				c8.5,0.4,27.8-1.8,25.5-15.2c-0.9-6.3,9.9-4.9,6.7-13.9c-3.1-7.6,3.6-11.6,9.4-14.8c5.4-2.7,12.5-4.5,10.3-12.1
				c-1.8-6.7-2.7-12.1-4.9-18.8c-4.5-12.1-2.2-21.5,7.6-30.5c16.1-14.3,34.5-24.6,40.8-47c3.1-10.3-13.4-6.3-18.4-5.4
				c-13.4,1.8-16.6-10.3-25.1-19.3c-8.1-8.1-12.1-21.1-13.9-32.3c-0.4-3.6-9.9-34-6.7-32.7c7.6,2.2,12.5,21.9,14.8,28.7
				c3.6,11.2,10.3,20.6,13.4,32.3c1.3,4,2.2,8.5,4.5,12.5c2.2,4,9.4-0.4,13-0.9c6.7-1.3,13-2.2,18.8-5.8c4.5-2.7,8.5-7.6,13.9-8.5
				c9.9-2.2,4.9-28.7,4.9-37.2c-2.7,1.8-9.4,4.9-12.5,2.7c-1.3-0.9,0-9-2.2-8.5c-0.9,0-2.2,3.6-2.7,3.1c-3.1-1.8-12.5-21.1-4.9-21.1
				c9.4,0,11.2,15.2,22.8,14.8c0-57.3,0-114.7,0-172C402.5,245.9,400.2,246.4,397.5,246.8C395.7,247.3,399.8,246.4,397.5,246.8z
				 M357.7,347.1c-2.2,4-12.1,2.2-15.7,0.9c-7.6-3.6-10.8-3.1-18.4-3.1c-17.9,0,2.7-26,9.4-21.1c3.1,2.2,0.9,9.9,4.9,9.4
				c5.8-0.4-0.4-7.6,5.8-9c3.1-0.4,18.4,0,9,4.9C342.9,334.6,361.7,340.4,357.7,347.1C356.8,348.9,358.6,345.4,357.7,347.1z
				 M398.4,372.2c-19.3,0-9.4-12.1-14.3-22.8c-2.2-4.5-6.7-16.1-0.9-19.7c1.8-0.9,13.4-3.6,13.9-1.3c0.4,1.8-4.5,4.9-5.4,6.7
				c-2.7,5.8,4,6.7,4,11.2C395.7,351.2,402.5,372.2,398.4,372.2z"/>
			<path fill="#03717E" d="M606.3,527.2c6.3,6.3,19.7,0.4,26.9-1.8c2.7-0.9,17.9-14.3,16.1-14.8c-1.8-0.4-11.6,7.6-14.3,8.5
				c-5.8,2.2-13.4,4-19.3,4.5c-6.7,0.4,0.4-10.8,0-12.5s-7.6-1.3-9.4-4.9c-2.2-4-27.3-19.3-27.3-13c0,4.5,10.8,11.6,13.4,15.7
				C596.4,515.6,600.4,520.9,606.3,527.2z"/>
		</g>
	</g>
	<path fill="#FFFFFF" d="M648.8,680c-0.4-8.1-9-14.8-18.8-14.8c-1.8,0-3.6,0-5.4,0.4c-3.6-7.2-12.1-12.5-22.4-12.5
		c-4.5,0-9,0.9-12.5,3.1c-6.3-7.6-16.6-12.5-28.7-12.5c-14.8,0-27.3,7.6-32.3,18.4c-3.6-1.8-8.1-3.1-12.5-3.1
		c-9.4,0-17.5,4.5-21.1,11.2c-2.7-1.3-5.8-1.8-9-1.8c-9,0-16.6,4.9-18.4,11.6L648.8,680L648.8,680z"/>
	<g>
		<circle fill="#1E4344" cx="99.2" cy="349.4" r="117.8"/>
		<path fill="#163233" d="M148.9,317.6c-5.4-5.8-13.4-9.9-21.9-9.9c-1.3,0-2.2,0-3.6,0c-5.4-7.6-14.3-12.5-24.2-12.5
			c-0.9,0-1.3,0-2.2,0c-9.4,0.4-17.5,5.4-21.9,12.5c-1.3,0-2.2,0-3.6,0c-16.1,0-29.6,13-29.6,28.7c0,8.5,4,16.1,9.9,21.5l0,0
			L67,373.1c0.9,4.5,1.3,9,2.2,13.4c0.4,3.6,2.2,6.7,4,8.5l0,0l64.9,64.9c35.8-13,63.6-42.6,73.9-79.3L148.9,317.6L148.9,317.6z"/>
		<g>
			<path fill="#F2EFDC" d="M156.1,336.4c0-15.7-13-28.7-29.6-28.7c-1.3,0-2.2,0-3.6,0c-5.4-7.6-14.3-12.5-24.2-12.5
				c-10.3,0-19.3,4.9-24.2,12.5c-1.3,0-2.2,0-3.6,0c-16.1,0-29.6,13-29.6,28.7c0,13.9,10.3,25.5,23.7,28.2
				c1.3,7.6,2.2,14.8,3.6,22.4c1.3,6.7,5.8,11.6,10.3,11.2c13-1.3,25.5-1.3,38.5,0c4.5,0.4,9.4-4.5,10.3-11.2
				c0.9-5.8,1.8-12.1,2.7-17.9c-0.4,0-0.4,0-0.9,0c-9.4,0-17.5-4-22.8-10.8c4.9,4,11.6,6.7,18.8,6.7
				C143.1,365.1,156.1,352.1,156.1,336.4z"/>
			<path fill="#DCDAC8" d="M127,307.7c-1.3,0-2.2,0-3.6,0c-5.4-7.6-14.3-12.5-24.2-12.5c-0.9,0-1.3,0-2.2,0v101.2
				c7.2,0,14.3,0.4,21.5,0.9c4.5,0.4,9.4-4.5,10.3-11.2c0.9-5.8,1.8-12.1,2.7-17.9c-0.4,0-0.4,0-0.9,0c-9.4,0-17.5-4-22.8-10.8
				c4.9,4,11.6,6.7,18.8,6.7c16.1,0,29.6-13,29.6-28.7C156.1,320.7,143.1,307.7,127,307.7z"/>
			<ellipse fill="#F2EFDC" cx="97.4" cy="324.7" rx="22.8" ry="29.1"/>
		</g>
	</g>
	<g>
		<circle fill="#1E4344" cx="643.4" cy="619" r="69"/>
		<path fill="#163233" d="M671.7,599.3L671.7,599.3h-0.9l0,0c-0.9,0-1.8,0-2.2,0.9c-0.4,0-0.9,0-1.3,0c-0.9,0.4-1.3,1.3-1.3,2.2
			c0-0.4-0.4-0.4-0.4-0.4c-0.9-0.9-2.2-1.8-3.1-2.2c-11.2-2.7-22.8-2.7-34,0h-0.4c-5.8,1.3-6.3-0.9-12.5-0.4c-1.3,0-2.7,0.4-4,0.9
			c1.3,2.2,2.2,3.6,4,5.4c1.3,1.3,2.7,2.2,4,3.6c-1.3-0.9-2.7-1.8-4-2.7c-1.8,1.8-3.1,3.6-4.9,4l-0.4-0.4c-0.4,0-0.9,0.4-0.9,0.9
			v4.5l0,0l0,0l21.5,21.5c-0.4,0.9-0.9,1.8-0.4,1.8l0,0l42.1,42.1c18.4-8.1,32.7-24.6,38.1-44.3L671.7,599.3z"/>
		<g>
			<g>
				<path fill="#DCDAC8" d="M641.2,635.6l-0.9-6.7c-1.8,0-3.6,0-4.9,0c0,0,2.2,5.4,2.7,6.3c0,0.9-2.2,3.6-0.9,3.6
					c1.8,0.4,3.6-0.4,4-0.4C640.8,637,639.9,634.7,641.2,635.6z"/>
				<path fill="#DCDAC8" d="M626.4,600.2h0.4c0.4,0,0.4,0,0.9,0c-1.3-0.9-2.7-2.2-5.8-3.1c-1.3-0.4-2.2-0.4-3.6-0.4
					c0.4,0.9,0.4,1.8,0.9,2.7C621.5,600.2,622.8,601.1,626.4,600.2z"/>
				<path fill="#F2EFDC" d="M671.2,600.2c0-0.4,0.4-0.4,0.4-0.4h-0.9l0,0c-0.9,0-1.8,0-2.2,0.9c-0.4,0-0.9,0-1.3,0
					c-0.9,0.4-1.3,1.3-1.3,2.2c0-0.4-0.4-0.4-0.4-0.4c-0.9-0.9-2.2-1.8-3.1-2.2c-11.2-2.7-22.8-2.7-34,0h-0.4
					c-5.8,1.3-6.3-0.9-12.5-0.4c-1.3,0-2.7,0.4-4,0.9c1.3,2.2,2.2,3.6,4,5.4c1.3,1.3,2.7,2.2,4,3.6c-1.3-0.9-2.7-1.8-4-2.7
					c-1.8,1.8-3.1,3.6-4.9,4l-0.4-0.4c-0.4,0-0.9,0.4-0.9,0.9v4.5h4.5c-0.9,0.4-1.3,0.9-2.2,1.3c1.3,0.4,2.7,0.4,4,0.9
					c0,0,0,0,0.4,0c0.9,1.8,2.2,3.6,4,4c1.8,0.4,4.5,1.8,7.2,2.7c0,0,0.4,0.4,0.9,0.4c1.3,2.7,4,7.6,4,9.4c0,0.9-3.1,4.5-1.3,4.9
					c1.3,0.4,4.5-0.4,4.5-0.4c0-1.8-0.4-4,0.9-2.7l-0.9-9.4c5.8,0.9,11.2,0.9,17,0.4c0.9,0.9,1.8,1.3,2.7,1.8
					c1.8,0.9,3.1,1.3,4.5,0.9c0,2.7-1.3,5.8-1.3,5.8s-4,3.1-2.7,4c1.3,0.9,4.5,0.4,4.5,0.4c0.4-1.3,0-2.7,1.8-2.2l3.6-10.3
					c0-1.3-1.3-0.4-0.9-3.1c1.8-1.3,3.1-3.6,3.6-6.3c0.4-1.8,0.9-4,0.9-6.3c0-2.7-0.4-4.9-1.3-7.2l0,0c0-0.9-0.4-1.3-0.4-2.2
					c0-0.4,0-1.3,0-1.8s0.9-0.4,0.9-0.4c-0.4,0.9-0.4,2.2,0.4,2.2c0.9,0,1.3-0.4,1.3-1.8c0-0.4-0.4-0.9-0.9-0.9
					c0-0.4,0.4-0.4,0.4-0.9c0,0,0.4,0,0.4,0.4c-0.4,0.9-0.4,1.8,0.9,1.3C672.1,601.6,672.1,600.7,671.2,600.2z M669,602.5L669,602.5
					c0,0.4,0,0.4,0,0.4V602.5z"/>
			</g>
			<path fill="#DCDAC8" d="M665.4,617.2c0,2.7-2.2,4.5-4.5,4.5h-39.9c-2.7,0-4.5-2.2-4.5-4.5l0,0c0-2.7,2.2-4.5,4.5-4.5h39.9
				C663.6,612.3,665.4,614.6,665.4,617.2L665.4,617.2z"/>
			<ellipse fill="#DCDAC8" cx="642.6" cy="620.8" rx="20.6" ry="4"/>
			<ellipse fill="#F2EFDC" cx="642.6" cy="611" rx="21.9" ry="4"/>
			<path fill="#DCDAC8" d="M663.6,628.4c-3.6-4-5.4-7.6-5.4-10.3c-4.5,1.3-7.2,3.1-7.2,5.4c0,2.2,3.1,4,7.6,5.4
				C660.5,628.9,661.8,628.9,663.6,628.4z"/>
			<path fill="#DCDAC8" d="M615.2,607.8c-0.4,0.9-0.9,2.2-0.9,3.6c0,3.6,2.2,6.3,4.5,6.3c2.2,0,4-1.8,4.5-4.5
				C619.7,612.3,616.6,610.5,615.2,607.8z"/>
			<path fill="#DCDAC8" d="M617.5,614.6c0,0.4-0.4,1.3-1.3,1.3h-5.8c-0.4,0-1.3-0.4-1.3-1.3v-0.9c0-0.4,0.4-1.3,1.3-1.3h5.8
				c0.4,0,1.3,0.4,1.3,1.3V614.6z"/>
			<path fill="#DCDAC8" d="M615.2,609.2C615.2,609.2,614.8,609.2,615.2,609.2c-1.3,1.8-3.1,3.1-5.4,3.1c-0.4,0.4-0.4,1.3-0.4,1.8
				c2.2,1.3,5.4,2.2,8.5,2.2c1.3,0,2.2,0,3.1-0.4c0-0.4,0-0.4,0-0.9C621.1,612.8,614.8,609.2,615.2,609.2z"/>
		</g>
	</g>
	<path fill="#99CBD1" d="M779.2,701.5c-0.4-10.8-11.6-19.3-24.6-19.3c-2.2,0-4.9,0.4-6.7,0.9c-4.5-9.4-15.7-16.6-29.1-16.6
		c-6.3,0-11.6,1.3-16.6,4c-8.1-9.9-21.9-16.6-37.6-16.6c-19.3,0-35.8,9.9-42.1,23.7c-4.9-2.7-10.3-4-16.6-4
		c-12.1,0-22.8,5.8-27.3,14.3c-3.6-1.3-7.6-2.2-11.6-2.2c-11.6,0-21.5,6.7-24.2,15.2h236.5V701.5z"/>
	<g>
		<circle fill="#C7B299" cx="254.2" cy="718" r="82"/>
		<path fill="#998675" d="M286.9,680.4l-2.7-2.7l-4,4.5l-6.7-6.7l0,0l-3.6-1.8l-13,27.8c-0.9-1.3-2.7-2.2-4.5-2.2s-3.6,0.9-4.9,2.7
			c-0.9-0.4-2.2-0.4-3.6-0.4c-3.1,0-5.8,0.9-8.1,2.7c-1.3-0.4-3.1-0.9-4.9-0.9c-6.3,0-11.2,4.5-12.5,9.9c-0.4,0-1.3-0.4-1.8-0.4
			c-3.1,0-5.4,2.7-5.4,5.4c0,0.4,0,1.3,0.4,1.8h-2.2c2.2,6.3,6.3,12.1,11.2,16.6l0,0l59.1,59.1c29.6-9.4,52-35.4,56.4-67.2
			L286.9,680.4L286.9,680.4z"/>
		<g>
			<circle fill="#F2EFDC" cx="251.5" cy="704.6" r="5.4"/>
			<circle fill="#F2EFDC" cx="260" cy="706.4" r="5.4"/>
			<circle fill="#DCDAC8" cx="252.4" cy="704.1" r="3.1"/>
			<polygon fill="#D95B46" points="273,675.5 241.7,731.5 269.4,673.7 			"/>
			<polygon fill="#D95B46" points="286.9,680.9 242.6,726.5 283.8,677.7 			"/>
			<ellipse fill="#F2EFDC" cx="249.3" cy="719.4" rx="30.9" ry="15.7"/>
			<circle fill="#F2EFDC" cx="216.1" cy="718" r="5.4"/>
			<circle fill="#F2EFDC" cx="285.6" cy="717.6" r="5.4"/>
			<circle fill="#F2EFDC" cx="269" cy="707.7" r="5.4"/>
			<circle fill="#F2EFDC" cx="230.5" cy="715.3" r="12.5"/>
			<circle fill="#F2EFDC" cx="276.6" cy="717.6" r="12.5"/>
			<ellipse fill="#DCDAC8" cx="276.6" cy="721.2" rx="12.1" ry="11.6"/>
			<circle fill="#DCDAC8" cx="260.9" cy="718.9" r="12.5"/>
			<circle fill="#F2EFDC" cx="243.4" cy="713.5" r="12.5"/>
			<circle fill="#DCDAC8" cx="271.2" cy="713.5" r="5.4"/>
			<circle fill="#DCDAC8" cx="254.2" cy="718" r="5.4"/>
			<circle fill="#DCDAC8" cx="238.5" cy="718" r="5.4"/>
			<circle fill="#DCDAC8" cx="227.8" cy="716.2" r="1.8"/>
			<circle fill="#DCDAC8" cx="239.9" cy="708.2" r="1.8"/>
			<circle fill="#DCDAC8" cx="248.4" cy="718.9" r="1.8"/>
			<path fill="#2D4124" d="M264.9,747.6c0,1.8-1.3,3.1-3.1,3.1h-23.3c-1.8,0-3.1-1.3-3.1-3.1l0,0c0-1.8,1.3-3.1,3.1-3.1h22.8
				C263.6,744.5,264.9,745.8,264.9,747.6L264.9,747.6z"/>
			<path fill="#405933" d="M208.5,719.8c6.3,17,22.4,28.7,41.7,28.7c18.8,0,35.4-12.1,41.7-28.7H208.5z"/>
			<path fill="#2D4124" d="M250.2,748.9c18.8,0,35.4-12.1,41.7-28.7h-41.7V748.9z"/>
		</g>
	</g>
	<g>
		<circle fill="#F2EFDC" cx="460.7" cy="81.1" r="70.3"/>
		<path fill="#DCDAC8" d="M488,45.2L488,45.2L488,45.2c-1.3-0.9-3.1-0.9-4,0c-0.4,0.4-0.4,0.4-0.4,0.9c-1.3,0-2.7,0.4-3.6,1.3l0,0
			c-0.4-0.4-1.3-0.9-2.2-0.9c0-0.9-0.4-1.3-1.3-1.8c-1.3-0.9-2.7-0.4-3.6,0.4c-1.8-0.9-4-0.4-5.4,0.9c-1.3-0.9-3.1-0.4-3.6,0.9
			c-0.4,0.9-0.4,2.2,0,3.1c-0.4,0.4-0.4,0.4-0.9,0.9c-1.3,2.2-0.9,5.4,1.3,6.7c0.9,0.4,1.3,0.9,2.2,0.9c-1.3,2.7-3.1,5.4-4.5,8.1
			c-3.6-0.4-7.2,0.9-9.9,4.5l-27.8,39.9c-2.2,3.1-2.7,4.9-1.8,5.4l35.4,35.4c0.9,0,1.8,0,2.7,0c36.7,0,66.7-27.8,69.9-63.6L488,45.2
			z"/>
		<g>
			<g>
				<path fill="#71841F" d="M467.4,73c-2.2,1.8-2.7,0.9-1.3-1.3c4-5.4,8.5-10.3,13-15.2c1.8-1.8,4-2.2,4.9-1.3l0,0
					c0.9,0.9,0.4,2.7-1.3,4.9C478.2,64.5,472.8,69,467.4,73z"/>
				<circle fill="#71841F" cx="477.7" cy="49.7" r="2.7"/>
				<circle fill="#71841F" cx="485.8" cy="47.5" r="2.7"/>
				<circle fill="#71841F" cx="490.3" cy="54.6" r="2.7"/>
				<circle fill="#71841F" cx="487.1" cy="53.3" r="4"/>
				<circle fill="#71841F" cx="478.6" cy="54.2" r="4.9"/>
				<circle fill="#71841F" cx="483.1" cy="51.1" r="4.9"/>
				<circle fill="#71841F" cx="484.4" cy="58.2" r="4.9"/>
			</g>
			<g>
				<path fill="#879C29" d="M460.2,74.8c-1.8,2.2-2.7,1.8-1.3-0.9c2.7-5.8,5.8-12.1,9.4-17.5c1.3-2.2,3.1-3.1,4.5-2.7l0,0
					c0.9,0.4,0.9,2.7-0.4,4.9C468.8,64.5,464.7,69.9,460.2,74.8z"/>
				<circle fill="#879C29" cx="466.1" cy="49.3" r="2.7"/>
				<circle fill="#879C29" cx="475" cy="47.5" r="2.7"/>
				<circle fill="#879C29" cx="478.6" cy="52" r="2.7"/>
				<circle fill="#879C29" cx="475" cy="51.5" r="4"/>
				<circle fill="#879C29" cx="467" cy="54.2" r="4.9"/>
				<circle fill="#879C29" cx="471" cy="50.2" r="4.9"/>
				<circle fill="#879C29" cx="473.7" cy="56.4" r="4.9"/>
			</g>
			<g>
				<path fill="#879C29" d="M462.9,79.7c-2.2,1.8-1.8,2.7,0.9,1.3c5.8-2.7,12.1-5.8,17.5-9.4c2.2-1.3,3.1-3.1,2.7-4.5l0,0
					c-0.4-0.9-2.7-0.9-4.9,0.4C473.2,71.2,467.9,75.3,462.9,79.7z"/>
				<circle fill="#879C29" cx="488.5" cy="73.9" r="2.7"/>
				<circle fill="#879C29" cx="490.3" cy="64.9" r="2.7"/>
				<circle fill="#879C29" cx="485.3" cy="61.4" r="2.7"/>
				<circle fill="#879C29" cx="485.8" cy="64.5" r="4"/>
				<circle fill="#879C29" cx="483.1" cy="72.6" r="4.9"/>
				<circle fill="#879C29" cx="487.6" cy="69" r="4.9"/>
				<circle fill="#879C29" cx="480.9" cy="66.3" r="4.9"/>
			</g>
			<g>
				<path fill="#FBAB18" d="M428,114.2c-5.4,4-7.2,2.7-3.1-3.1l27.8-39.9c4-5.4,11.2-6.3,15.7-1.3l0.4,0.4c4.9,4.9,4,12.1-1.3,15.7
					L428,114.2z"/>
				<path fill="#E39910" d="M469.2,70.8L469.2,70.8l-46.6,45.7c0.4,0.4,2.2,0,4.9-1.8l39.9-27.8C473.2,82.4,473.7,75.3,469.2,70.8z"
					/>
				<g>
					<g>
						<defs>
							<path id="SVGID_1_" d="M428,114.2c-5.4,4-7.2,2.7-3.1-3.1l27.8-39.9c4-5.4,11.2-6.3,15.7-1.3l0.4,0.4
								c4.9,4.9,4,12.1-1.3,15.7L428,114.2z"/>
						</defs>
						<clipPath id="SVGID_2_">
							<use xlink:href="#SVGID_1_"  overflow="visible"/>
						</clipPath>
						<g clip-path="url(#SVGID_2_)">
							<path fill="#FBAB18" d="M466.1,86c-4.5-4.9-4-5.4,0.9-0.9l35.4,31.8c4.9,4.5,8.1,9.4,6.7,10.8l0,0c-1.3,1.3-6.3-1.3-10.8-6.7
								L466.1,86z"/>
							<path fill="#FBAB18" d="M449.9,99c-4.5-4.9-4-5.4,0.9-0.9l35.4,31.8c4.9,4.5,8.1,9.4,6.7,10.8l0,0c-1.3,1.3-6.3-1.3-10.8-6.7
								L449.9,99z"/>
							<path fill="#FBAB18" d="M441.4,106.6c-4.5-4.9-4-5.4,0.9-0.9l35.4,31.8c4.9,4.5,8.1,9.4,6.7,10.8l0,0
								c-1.3,1.3-6.3-1.3-10.8-6.7L441.4,106.6z"/>
							<path fill="#E39910" d="M450.4,82.9c4.9,4.5,5.4,4,0.9-0.9l-31.8-35.4c-4.5-4.9-9.4-8.1-10.8-6.7l0,0
								c-1.3,1.3,1.3,6.3,6.7,10.8L450.4,82.9z"/>
							<path fill="#E39910" d="M442.8,87.3c4.9,4.5,5.4,4,0.9-0.9l-31.8-35.4c-4.5-4.9-9.4-8.1-10.8-6.7l0,0
								c-1.3,1.3,1.3,6.3,6.7,10.8L442.8,87.3z"/>
							<path fill="#E39910" d="M425.8,106.6c4.9,4.5,5.4,4,0.9-0.9l-31.8-35.4c-4.5-4.9-9.4-8.1-10.8-6.7l0,0
								c-1.3,1.3,1.3,6.3,6.7,10.8L425.8,106.6z"/>
							<g>
								<path fill="#E39910" d="M459.8,83.8C460.2,83.8,460.2,83.8,459.8,83.8l-2.7-4c-0.4-0.4-0.9-0.4-1.3-0.4l0,0
									c-0.4,0.4,0,0.9,0.4,1.3L459.8,83.8z"/>
								<path fill="#E39910" d="M452.6,76.6C452.6,76.1,452.6,76.1,452.6,76.6l4,2.7c0.4,0.4,0.4,0.9,0.4,1.3l0,0
									c-0.4,0.4-0.9,0-1.3-0.4L452.6,76.6z"/>
							</g>
							<g>
								<path fill="#E39910" d="M456.7,94.5C457.1,95,457.1,94.5,456.7,94.5l-2.7-4c-0.4-0.4-0.9-0.4-1.3-0.4l0,0
									c-0.4,0.4,0,0.9,0.4,1.3L456.7,94.5z"/>
								<path fill="#E39910" d="M449.5,87.3C449,86.9,449.5,86.9,449.5,87.3l4,2.7c0.4,0.4,0.4,0.9,0.4,1.3l0,0
									c-0.4,0.4-0.9,0-1.3-0.4L449.5,87.3z"/>
							</g>
							<g>
								<path fill="#FBAB18" d="M456.7,94.5C457.1,94.5,457.1,94.5,456.7,94.5l-2.2-3.6c-0.4-0.4-0.9-0.4-1.3-0.4l0,0
									c-0.4,0.4-0.4,0.9,0.4,1.3L456.7,94.5z"/>
								<path fill="#FBAB18" d="M450.4,88.2C449.9,87.8,450.4,87.8,450.4,88.2l3.6,2.2c0.4,0.4,0.4,0.9,0.4,1.3l0,0
									c-0.4,0.4-0.9,0.4-1.3-0.4L450.4,88.2z"/>
							</g>
							<g>
								<path fill="#E39910" d="M440.1,99C441,99.4,441,99,440.1,99l-2.7-4c-0.4-0.4-0.9-0.4-1.3-0.4l0,0c-0.4,0.4,0,0.9,0.4,1.3
									L440.1,99z"/>
								<path fill="#E39910" d="M433.4,91.8C432.9,91.4,432.9,91.4,433.4,91.8l4,2.7c0.4,0.4,0.4,0.9,0.4,1.3l0,0
									c-0.4,0.4-0.9,0-1.3-0.4L433.4,91.8z"/>
							</g>
							<g>
								<path fill="#E39910" d="M436.1,106.2C436.5,106.6,436.5,106.6,436.1,106.2l-2.7-4c-0.4-0.4-0.9-0.4-1.3-0.4l0,0
									c-0.4,0.4,0,0.9,0.4,1.3L436.1,106.2z"/>
								<path fill="#E39910" d="M429.3,99.4C428.9,99,428.9,99,429.3,99.4l4,2.7c0.4,0.4,0.4,0.9,0.4,1.3l0,0
									c-0.4,0.4-0.9,0-1.3-0.4L429.3,99.4z"/>
							</g>
							<path fill="#FBAB18" d="M459.8,83.3l-1.8-2.2l-0.9,0.9L459.8,83.3C460.2,83.8,460.2,83.8,459.8,83.3z"/>
						</g>
					</g>
				</g>
			</g>
		</g>
	</g>
</g>
</svg>
