<?xml version="1.0" encoding="utf-8"?>
<!-- Generator: Adobe Illustrator 18.0.0, SVG Export Plug-In . SVG Version: 6.00 Build 0)  -->
<!DOCTYPE svg PUBLIC "-//W3C//DTD SVG 1.1//EN" "http://www.w3.org/Graphics/SVG/1.1/DTD/svg11.dtd">
<svg version="1.1" id="Lag_1" xmlns="http://www.w3.org/2000/svg" xmlns:xlink="http://www.w3.org/1999/xlink" x="0px" y="0px"
	 viewBox="0 0 200 200" enable-background="new 0 0 200 200" xml:space="preserve">
<circle fill="#253A44" cx="100" cy="100" r="90"/>
<circle fill="none" cx="100" cy="100" r="90"/>
<g>
	<path fill="#F7B814" d="M119.8,165.8l-19.6-6.1l0,0l-10-3.1c0,0,0,0,0,0l-7.8-2.4l-11.5-3.6l-4.9-1.5c15.2-9.7,33.2-7.4,33.2-7.4
		L119.8,165.8z"/>
	<path fill="#F6E16C" d="M115.5,191.5c-1.1-1.8-1-4.8,1.2-5.7c0.1,0,0.2-0.1,0.3-0.1l0.2-1.1l0.4-2.5l0.1-1
		c-1.3-0.5-2.4-1.4-2.9-2.9c-1-2.9,1.2-5.1,4-5.3c0,0,0,0,0,0l0.1-0.7l0.9-6.5l-19.6-6.1l0,0l-10-3.1c0,0,0,0,0,0l-7.8-2.4
		l-11.5-3.6l-4.9-1.5l-1,15.6l-0.6,9.9l0,0.8l13.5,5l0,0l5.3,1.9l12.7,4.7c0,0,0,0,0,0l10,3.7l9.9,3.7l0,0l0.3-2.1
		C115.9,192,115.7,191.8,115.5,191.5z"/>
	<path fill="#EFD259" d="M83.7,181.3c-0.1,0.5-0.3,0.9-0.5,1.2l-5.3-1.9l0,0c-0.4-0.6-0.9-1.3-1.2-2.1c-0.6-1.7-0.6-3.5,0.7-5
		c0.9-1,2.3-1.4,3.5-0.5c0.7,0.5,1.1,1.5,1,2.4C83.2,176.9,84.1,179,83.7,181.3z"/>
	<path fill="#EFD259" d="M99.7,165.5c-0.9,1.4-3,1.2-4,0.1c0,0-0.3-0.3-0.3-0.3c-0.2-0.1-0.3-0.3-0.5-0.4c-0.3-0.3-0.7-0.5-1.1-0.8
		c-0.8-0.6-1.6-1.2-2.3-1.9c-1.5-1.5-2-3.5-1.3-5.5l10,3.1l0,0C100.9,161.6,100.7,163.8,99.7,165.5z"/>
	<path fill="#EFD259" d="M114.8,178.2c-1-2.9,1.2-5.1,4-5.3c0,0,0,0,0,0l0.1-0.7c-3.1-1.7-7.6-0.7-8.2,3.3c-0.3,2,0.5,3.9,2.2,5
		c0.7,0.5,1.4,0.8,2.2,1c0.3,0.1,0.6,0.2,1,0.3c0.1,0,0.3,0.1,0.4,0.1c0,0,0.5,0.1,0.8,0.2c0.1,0,0.2,0,0.2,0l0.1-1.1
		C116.4,180.6,115.3,179.7,114.8,178.2z"/>
	<path fill="#EFD259" d="M92,174.1c-0.3,1.3-1.3,2.4-2.8,2.2c-1.3-0.1-2.5-1.4-2.2-2.8c0-0.2,0.1-0.5,0.1-0.7l0,0
		c0-0.1,0-0.2-0.1-0.3c0,0,0-0.1-0.1-0.1c-0.1-0.1-0.1-0.1-0.1-0.2c-0.1-0.1-0.1-0.2-0.2-0.2c-0.1-0.1-0.1-0.1-0.1-0.1
		c-0.1-0.1-0.2-0.1-0.3-0.2c-1.1-0.8-1.4-2.4-0.5-3.5c0.8-1.1,2.4-1.4,3.5-0.5C91.3,169.2,92.5,171.6,92,174.1z"/>
	<path fill="#EFD259" d="M81.7,157.4c0.4-1,0.7-2.1,0.7-3.1l-11.5-3.6c0,0,0,0,0,0c-0.7,3.5,1.1,7.7,4.3,9.3c0,0.6,0.2,1.2,0.5,1.8
		c1,1.6,3.3,2.1,4.7,0.7c1.2-1.2,1.6-2.9,1.4-4.6C81.8,157.7,81.7,157.5,81.7,157.4z"/>
	<path fill="#EFD259" d="M105.9,190.8l-10-3.7c0,0,0,0,0,0c-0.6-1.6-0.7-3.3-0.2-4.9c0.6-1.9,2.3-3.4,4.5-3.2c2,0.2,3.6,1.4,5,2.7
		c0.8,0.8,0.7,2.2,0,3.1C106.2,186.7,106.6,188.9,105.9,190.8z"/>
	<path fill="#EFD259" d="M66.9,175.5c-0.9,0-1.7-0.3-2.5-0.8l0.6-9.9c0.4-0.1,0.8,0,1.3,0.1c2.3,0.6,4.3,3,4.9,5.2
		C72,172.9,69.7,175.4,66.9,175.5z"/>
	<path fill="#EFD259" d="M115.5,191.5c-1.1-1.8-1-4.8,1.2-5.7c0.1,0,0.2-0.1,0.3-0.1l0.1-1.1c-1-0.2-2.1-0.3-3,0.2
		c-1.2,0.6-2,1.8-2,3.1c0,2.3,1.2,4.6,2.9,6c0.2,0.2,0.5,0.3,0.7,0.4l0.3-2.2C115.9,192,115.7,191.8,115.5,191.5z"/>
	<path fill="#EFD259" d="M108.6,169.9c0,0.9-0.4,1.9-1.2,2.5c-1.4,1-3.5,1-4.9-0.1c-0.7-0.5-1.1-1.2-1.3-1.9
		c-0.1-0.1-0.2-0.2-0.3-0.3c-0.9-1.1-0.6-2.6,0.4-3.5c1.4-1.3,4.2-1.6,5.7-0.2C108.1,167.4,108.6,168.4,108.6,169.9z"/>
	<path fill="#EDC443" d="M99.7,165.5c-0.7,1.2-2.4,1.3-3.4,0.5c-0.1-0.3-0.1-0.6,0-0.9c0.3-1.1,0.9-1,0.2-2.3
		c-0.7-1.4-2.9-3-1.9-4.7l5.6,1.7l0,0C100.9,161.6,100.7,163.8,99.7,165.5z"/>
	<path fill="#EDC443" d="M81.8,157.9c0.2,1.7-0.1,3.4-1.4,4.6c-1,1-2.5,1-3.6,0.3c-0.5-1.3-0.3-3,0.7-4.2c0.8-1,1.7-1.5,1.2-2.9
		c-0.4-1.3-1.4-2.2-2.1-3.3l5.7,1.8c0,1-0.3,2.1-0.7,3.1C81.7,157.5,81.8,157.7,81.8,157.9z"/>
	<path fill="#EDC443" d="M105.9,190.8l-3-1.1c-0.3-0.8-0.4-1.6-0.5-2.4c-0.2-1.7-1.1-1.8-2-3.1c-1.2-1.4-1.2-4,0.3-5.2
		c1.8,0.3,3.2,1.4,4.5,2.7c0.8,0.8,0.7,2.2,0,3.1C106.2,186.7,106.6,188.9,105.9,190.8z"/>
	<path fill="#EDC443" d="M70.1,174.2c-0.1-1.1-0.3-2.1-0.8-3c-1.1-1.6-2.6-2.9-4.4-3.6l0.2-2.8c0.4-0.1,0.8,0,1.3,0.1
		c2.3,0.6,4.3,3,4.9,5.2C71.6,171.7,71.1,173.2,70.1,174.2z"/>
	<path fill="#EDC443" d="M108.6,169.9c0,0.9-0.5,1.9-1.2,2.5c-1.2,0.8-2.8,1-4.1,0.4c-0.3-1.4,0.2-3,1.6-3.7
		c1.1-0.6,2.5-0.2,3.7,0.1C108.6,169.4,108.6,169.6,108.6,169.9z"/>
	<path fill="#EDC443" d="M92,174.1c-0.1,0.4-0.2,0.8-0.5,1.1c-1-1.2-2.1-2.6-2.3-4c-0.2-1.2,0.6-1.9,1.5-2
		C91.9,170.6,92.4,172.3,92,174.1z"/>
	<path fill="#EDC443" d="M83.7,181.2c0,0,0,0.1,0,0.1c-1.4-0.3-2.7-0.9-3.2-1.4c-0.6-0.5-0.5-1.1-0.8-1.6c-0.3-0.7-0.8-1-1.2-1.6
		c-0.6-1.2-0.3-3.2,0.7-4.3c0.5,0,1.1,0.1,1.6,0.5c0.7,0.5,1.1,1.5,1,2.4C83.2,176.9,84.1,179,83.7,181.2z"/>
	<path fill="#F6F16D" d="M100.3,159.8L100.3,159.8l-10-3.1c0,0,0,0,0,0l-7.8-2.4l-11.5-3.6l-4.9-1.5l-1,15.6l0,0l-0.2,2.8l-0.5,7.1
		l0,0.8l1,0.4l0-0.6l0.5-7.2l0.2-3.2l0,0l0.9-14.1l3.7,1.2l7.2,2.2l4.4,1.3l7.7,2.4l4.4,1.4l6.2,1.9l0,0l19.1,5.9l0.2-1.3
		L100.3,159.8z M82.4,154.3l-5.7-1.7c0,0,0,0,0,0L82.4,154.3L82.4,154.3z M100.3,159.8L100.3,159.8l-5.7-1.7l0,0L100.3,159.8
		L100.3,159.8L100.3,159.8z"/>
</g>
<g>
	<path fill="#6FB5CC" d="M86.1,61.3c-1.9,0.8-3.9,1.3-6,1.7C76,63.9,71.5,64,67,63.4c-5.5-0.7-11-2.5-16.4-5.4
		c-3.6-1.9-6.8-4.2-9.6-6.7c-6.8-6-11.2-13.4-12.8-20.9c7.1-2.8,15.8-3.2,24.5-1c3.7,0.9,7.4,2.3,10.9,4.3
		c5.2,2.8,9.7,6.3,13.3,10.3C81.6,49.3,84.8,55.3,86.1,61.3z"/>
	<path fill="#BDDCDF" d="M95.9,66.6c1.3,6-0.9,9.1-0.8,11.9c-4.7-5.2-7.8-11.2-9-17.2c5.7-2.3,12.4-3,19.3-2
		C103,60.8,101.5,64.3,95.9,66.6z"/>
	<path fill="#BDDCDF" d="M49.8,41.9c-2.1,4-5.2,7.2-8.8,9.4c-6.8-6-11.2-13.4-12.8-20.9c7.1-2.8,15.8-3.2,24.5-1
		C52.8,33.6,51.9,37.9,49.8,41.9z"/>
	<circle cx="37.2" cy="34" r="2.2"/>
	<circle fill="#FFFFFF" cx="37" cy="33.2" r="1"/>
	<path fill="#BDDCDF" d="M76.9,44c-3.6-4-8-7.5-13.3-10.3c-3.6-1.9-7.3-3.3-10.9-4.3c2-0.5,3.1-0.3,5.2-0.6c1.5-0.1,3.6-0.5,5.6-0.5
		c-0.7,1.2-1.5,2.6-2.1,3.3c2.8,1,5.5,1.1,7.5,2.5c-0.3,0.1-1.1,0.5-1.7,1.1c0.8,0.3,2.6,0.7,3.5,1.2c2.8,1.5-0.2,1.6,0.9,2.2
		c1.4,0.8,3.1,1.6,3.3,2.4C75.4,42.2,76,41.9,76.9,44z"/>
	<path fill="#BDDCDF" d="M77.1,67.2c-3.5-1.4-3.4-1.7-10.1-3.8c4.5,0.6,8.9,0.5,13.1-0.3C78.8,65,78.2,66,77.1,67.2z"/>
	<path fill="#DDE8E8" d="M86.1,61.3C83.2,59.1,56,43.1,50.5,40.5c0.4-0.8,0.7-1.7,1-2.5C78.5,52.3,86.1,61.3,86.1,61.3z"/>
</g>
<path opacity="0.36" fill="#999999" d="M85.9,60.6c-0.2,0-0.3,0-0.5,0c-4.5,0.2-9.3-0.5-14-1.9c-5.7-1.7-11.3-4.5-16.6-8.5
	c-3.5-2.7-6.6-5.6-9.1-8.8c-3.4-4.2-6-8.7-7.7-13.3c1.4-0.1,2.8-0.2,4.3-0.1c1.5,2.8,3.3,5.5,5.4,8.1c2.6,3.2,5.6,6.2,9.1,8.8
	c5.3,4,10.9,6.8,16.6,8.5c3.6,1.1,7.2,1.7,10.8,1.9C84.8,57,85.4,58.8,85.9,60.6z"/>
<g>
	<path fill="#6FB5CC" d="M92.9,55.2c-2.2,0.5-4.4,0.8-6.7,0.8c-4.5,0.2-9.3-0.5-14-1.9c-5.7-1.7-11.3-4.5-16.6-8.5
		c-3.5-2.7-6.5-5.6-9.1-8.8c-6.2-7.6-9.7-16.3-10.1-24.5c8.1-1.8,17.4-0.8,26.3,3.2c3.8,1.6,7.4,3.8,10.9,6.4
		c5.1,3.9,9.3,8.4,12.4,13.3C90.2,41.6,92.5,48.6,92.9,55.2z"/>
	<path fill="#BDDCDF" d="M102.4,62.5c0.3,6.6-2.5,9.6-2.9,12.6c-4.1-6.4-6.4-13.2-6.7-19.8c6.4-1.5,13.7-1.1,20.9,1.1
		C111,57.5,108.9,61,102.4,62.5z"/>
	<path fill="#BDDCDF" d="M57.5,28.4c-3,3.9-6.8,6.7-11,8.5c-6.2-7.6-9.7-16.3-10.1-24.5c8.1-1.8,17.4-0.8,26.3,3.2
		C62.2,20,60.5,24.5,57.5,28.4z"/>
	<circle cx="45.4" cy="17.7" r="2.3"/>
	<circle fill="#FFFFFF" cx="45.3" cy="16.9" r="1"/>
	<path fill="#BDDCDF" d="M86,35.2c-3.1-4.9-7.3-9.4-12.4-13.3c-3.5-2.7-7.2-4.8-10.9-6.4c2.2-0.2,3.3,0.2,5.7,0.3
		c1.6,0.2,3.9,0.1,6,0.5c-0.9,1.1-2.1,2.5-2.8,3.1c2.9,1.5,5.7,2.1,7.6,3.9c-0.4,0.1-1.3,0.4-2,0.9c0.8,0.5,2.7,1.2,3.5,1.9
		c2.7,2.1-0.5,1.7,0.6,2.5c1.3,1.1,3,2.2,3.1,3.2C84.7,33,85.4,32.8,86,35.2z"/>
	<path fill="#BDDCDF" d="M82.3,59.9c-3.5-2-3.3-2.4-10.1-5.8c4.7,1.4,9.5,2,14,1.9C84.5,57.9,83.7,58.9,82.3,59.9z"/>
	<path fill="#DDE8E8" d="M92.9,55.2c-2.7-2.9-29-24.6-34.3-28.3c0.5-0.8,1.1-1.7,1.5-2.5C86.3,44.3,92.9,55.2,92.9,55.2z"/>
</g>
<g>
	<g>
		<path fill="#C6B6A3" d="M109.6,101.2c-1.2-1.1-1.3-2.9-0.2-4.1c0.4-0.4,0.8-0.7,1.2-0.8c0.6-0.2,1-0.7,1.2-1.1c0-0.1,0-0.1,0-0.2
			c0.1-0.5,0.3-0.9,0.7-1.3c1.1-1.2,3-1.3,4.2-0.2c0.7,0.6,1,1.4,1,2.2c0,0.1,0,0.2,0,0.4c-0.1,1.4-0.3,2,0.7,2.9l11,9.9l-3.1,3.5
			l-11-9.9c-1-0.9-1.5-0.7-2.9-0.5c-0.1,0-0.3,0-0.4,0.1C111.1,102.1,110.2,101.8,109.6,101.2z"/>
		<path fill="#AB6A3C" d="M125.8,114.7c-0.6-2.1-1.5-3.5-3.7-5.9c1.1,1.2,2-0.4,1.5-1.6c0.9,0,1.9,0.2,2.8,0.2
			c-0.4-1.1-0.6-1.2-0.5-2.2c5.6,4.7,13.4,3.8,19.1,7.5c2.9,1.9,4.9,3.9,6.3,7c1.1,2.2,1.1,6.5-0.4,8.8c-2.2,3.2-3.8,5.2-7.5,5.9
			c-3.9,0.8-7.1-1.1-9.7-3.4C128.2,126,127.5,120.8,125.8,114.7z"/>
	</g>
	<path fill="#D18149" d="M183.4,141.7c-4.7,3.6-7.1,3.5-13.2,4.1c-12.4,0.9-25.2,0.3-37.7,0.3c-4.6,0-24.3-0.9-21.6-10.3
		c2.3-8.8,11.4-24.6,35.1-28.1c20.5-3.1,32.1,0.2,38.4,10C190.6,127.2,190.7,136,183.4,141.7z"/>
	<path fill="#DC884D" d="M189.4,119.8c4,7.5-8.2,14.6-11.4,16.8c-2.8,1.9-5,4.5-8.4,5.1c-3.5,0.7-7.6-1.8-8.2-6.5
		c-0.6-5.2,4.6-8.7,8.5-7.6c3.1,0.9,5.5,0.1,7.6-3c0.1-0.3,0.1-0.4,0.2-0.7c-2.9-0.2-6.4-1.8-9-3.1c-3.2-1.6-6.4-4.8-9.5-6.6
		c5.2,0.4,11,0.6,16.3,1.3C179.6,115.9,187.5,116.3,189.4,119.8z"/>
	<g>
		<path fill="#F1DEC6" d="M99,109.4c-1.5-0.9-2.1-2.9-1.2-4.4c0.3-0.5,0.7-0.9,1.1-1.2c0.6-0.3,0.9-1,1-1.5c0-0.1,0-0.2,0-0.2
			c0-0.5,0.1-1.1,0.4-1.6c0.9-1.6,2.9-2.1,4.4-1.2c0.8,0.5,1.4,1.3,1.6,2.2c0,0.1,0,0.3,0.1,0.4c0.2,1.6,0.1,2.2,1.5,2.9l14.1,8.1
			l-2.6,4.5l-14.1-8.1c-1.3-0.8-1.8-0.4-3.2,0.2c-0.1,0.1-0.3,0.1-0.4,0.2C100.8,110,99.8,109.9,99,109.4z"/>
		<path opacity="0.36" fill="#999999" d="M99,109.4c-1.5-0.9-2.1-2.9-1.2-4.4c0.3-0.5,0.7-0.9,1.1-1.2c0.6-0.3,0.9-1,1-1.5
			c0-0.1,0-0.2,0-0.2c0-0.5,0.1-1.1,0.4-1.6c0.6-1,1.5-1.5,2.5-1.6c-2,1.2-1,2.2-1.5,3.8c-0.3,1.1-1.2,1.5-1.8,2.3
			c-0.5,0.6-0.8,1.8-0.1,2.6c1.3,1.3,2.9,0.2,4.1-1c0.1-0.1,2.8,1.4,4.5,2.4c3.9,2.3,7.8,4.2,12.1,6.8l-0.9,1.5l-14.1-8.1
			c-1.3-0.8-1.8-0.4-3.2,0.2c-0.1,0.1-0.3,0.1-0.4,0.2C100.8,110,99.8,109.9,99,109.4z"/>
		<path fill="#DC884D" d="M119.5,120.2c-1.1-2.1-2.5-3.5-5.4-5.5c1.5,1,2.1-0.8,1.2-2.1c1-0.2,2.1-0.2,3.1-0.4
			c-0.6-1.1-1-1.2-1.1-2.3c7.1,3.8,15.3,1,22.3,3.6c3.6,1.3,6.2,3,8.4,6.1c1.7,2.1,2.7,6.7,1.6,9.5c-1.6,4-2.9,6.5-6.6,8.1
			c-4,1.7-7.9,0.5-11.2-1.4C124.8,131.8,122.7,126.4,119.5,120.2z"/>
	</g>
	<g>
		<path fill="#E8BFA3" d="M135.2,117.6c3,0.6,5.8,3.2,7.2,5.8c0.8,1.5,5.7-0.3,5.1-1.4c-1.6-3-4.8-5.9-8.2-6.6
			c-1.2-0.3-2.5,0-3.6,0.6C135.3,116.2,134,117.4,135.2,117.6L135.2,117.6z"/>
	</g>
	<g>
		<path fill="#E8BFA3" d="M175.1,117c3.2-0.3,6.4,1.1,8.9,2.9c1.4,1,4.5-1.4,2.8-2.6c-3.3-2.4-7.2-3.8-11.3-3.4
			C173.6,114,172.6,117.2,175.1,117L175.1,117z"/>
	</g>
	<path fill="#A86A40" d="M187.8,127c-3,3.7-7.8,6.6-9.7,7.9c-2.8,1.9-5,4.5-8.4,5.1c-3.5,0.7-7.7-1.8-8.2-6.5
		c-0.1-0.8,0-1.5,0.1-2.2c0.8,4.3,4.8,6.5,8.1,5.9c3.4-0.6,5.6-3.2,8.4-5.1c1.8-1.2,6.3-4,9.3-7.5
		C187.7,125.4,187.8,126.2,187.8,127z"/>
	<path fill="#A86A40" d="M177.7,123.8c-0.2,0.3-0.1,0.4-0.2,0.7c-0.5,0.8-1.1,1.4-1.7,1.9c-2.4-0.6-5.1-1.8-7.1-2.8
		c-3.2-1.6-6.4-4.8-9.5-6.6c1.5,0.1,3,0.2,4.5,0.3c1.7,1.3,3.3,2.5,5,3.4C171.3,122,174.8,123.6,177.7,123.8z"/>
	<path fill="#A86A40" d="M149.5,130c0,0.9-0.2,1.8-0.4,2.6c-1.6,4-2.9,6.5-6.6,8.1c-4,1.7-7.8,0.5-11.2-1.4c-7-4-9-9.4-12.3-15.6
		c-0.2-0.4-0.4-0.8-0.7-1.1c0.5-0.6,1-1.2,1.6-1.8c3.1,6,5.2,11.3,12,15.3c3.4,1.9,7.2,3.1,11.2,1.4
		C146.7,135.8,148.1,133.5,149.5,130z"/>
</g>
<path fill="#FFFFFF" d="M168.6,9.7V9.2V4.8c0-0.9-0.8-1.7-1.7-1.7h-27.3c-0.9,0-1.7,0.8-1.7,1.7v4.3v0.5L131.5,28v32v10.5v8.4V84
	h30.6h12.9V28L168.6,9.7z"/>
<g>
	<path fill="#C24753" d="M76.3,115.8c-0.1,0.3-0.2,0.6-0.4,0.9c0,0,0,0,0,0c-1.2,3.2-3.2,8.2-6.1,12.5c-3.1,1.4-7.2,2.3-10.2,0.6
		c-6.4-2.9-8.6-10.7-14.5-14.3c-4.9-3-12.4-2.8-18-4.4c-5.3-1.6-18.7-9.1-17.6-15.8l0,0c6.6-11.9,31.9-18.1,43.3-16.7
		c9.6,1.2,18.7,8.3,23.5,15.4C80.8,100.7,78.9,108.9,76.3,115.8z"/>
	<path fill="#F6F9DA" d="M77.3,89.1c-6.2-7.6-17-12.4-27.4-12.9C33.5,75.4,4.3,86.3,4.3,103.3c0,7.3,6,12.4,13.4,14.5
		c5.3,1.4,10.7,2.3,15.7,4.4c5.6,2.3,8.3,7.4,11.8,11.6c5,6,12.8,5.5,19.8,2.7c8.9-3.6,12.2-13.8,15.2-21.2
		C83.7,105.9,84.1,97.4,77.3,89.1z M76.3,115.8c-0.1,0.3-0.2,0.6-0.4,0.9c0,0,0,0,0,0c-1.2,3.2-3.2,8.2-6.1,12.5
		c-3.1,1.4-7.2,2.3-10.2,0.6c-6.4-2.9-8.6-10.7-14.5-14.3c-4.9-3-12.4-2.8-18-4.4c-5.3-1.6-18.7-9.1-17.6-15.8l0,0
		c6.6-11.9,31.9-18.1,43.3-16.7c9.6,1.2,18.7,8.3,23.5,15.4C80.8,100.7,78.9,108.9,76.3,115.8z"/>
	<path fill="#EFEFDB" d="M60.6,95.4c-1.7,7.1-18.8,4.3-21.3-1.1c-2.1-4.7,3.5-6.6,8.2-7.2C53,86.7,61.7,89.9,60.6,95.4z"/>
	<path opacity="0.36" fill="#999999" d="M64.2,136.8c-6.8,2.5-14.2,2.7-19-3c-3.5-4.2-6.2-9.3-11.8-11.6c-5-2.1-10.5-3-15.7-4.4
		c-7.5-2-13.4-7.1-13.4-14.5c0-1.7,0.3-3.4,0.9-5c0.1,5.5,4.6,10.8,10.3,13.3c6.1,2.6,12.7,3.8,18.6,6.2c2.4,0.8,5.3,1.8,7.3,2.9
		c2,1.3,3.4,3.5,4.8,5.3c2.1,3.2,5.1,8.9,9.3,10C57.5,136.5,60.8,136.9,64.2,136.8z"/>
	<path fill="#F7BFB7" d="M54.8,95.3c-1.3,1-4.6,0.4-6.2,0c-1.2-0.3-4.9-1.3-5.1-3.1c0-0.6,1.1-1.7,1.8-1.9c1-0.3,3.1-0.4,4.1-0.3
		c1.9-0.1,4.7,1,5.7,2.5C55.8,93.4,55.6,94.6,54.8,95.3z"/>
</g>
<g>
	<rect x="131.5" y="28" fill="#FFFFFF" width="30.6" height="56"/>
	<rect x="162.1" y="28" fill="#E5E5E5" width="12.9" height="56"/>
	<polygon fill="#E5E5E5" points="175.1,28 168.6,26.4 168.6,9.7 	"/>
	<polygon fill="#CCCCCC" points="168.6,9.7 168.6,26.4 162.1,28 167.4,13.1 	"/>
	<polygon fill="#F2F2F2" points="175.1,28 162.1,28 168.6,26.4 	"/>
	<polygon fill="#F2F2F2" points="168.6,9.2 168.6,9.7 167.4,13.1 162.1,28 131.5,28 137.9,9.7 137.9,9.2 	"/>
	<path fill="#FFFFFF" d="M168.6,4.8v4.8h-30.7V4.8c0-0.9,0.8-1.7,1.7-1.7h27.3C167.8,3.2,168.6,3.9,168.6,4.8z"/>
	<path fill="#82CBDE" d="M162.1,65.1V84h-30.6v-5.1c4.3,2.4,9.6,2.8,13.5-1c2.7-2.7,3.9-5.8,7.2-8.2C155,67.5,158.5,65.8,162.1,65.1
		z"/>
	<path fill="#B0DCE1" d="M162.1,62.5v2.6c-3.7,0.7-7.2,2.4-10,4.6c-3.2,2.4-4.5,5.5-7.2,8.2c-3.8,3.8-9.1,3.4-13.5,1v-8.4
		c0.8,0.5,1.5,0.8,2.7,0.6c3.4-0.7,7.6-3.1,10.8-4.4c2.8-1.1,5.6-2.5,8.4-3.4C156.1,62.5,159.1,62.4,162.1,62.5z"/>
	<path fill="#DBEBEB" d="M162.1,60.2v2.3c-3-0.1-6,0-8.7,0.8c-2.8,0.8-5.6,2.3-8.4,3.4c-3.2,1.3-7.4,3.7-10.8,4.4
		c-1.2,0.2-1.9-0.1-2.7-0.6V60c1.1,1,2.3,1.9,3.5,2.5c2.4,1.1,4.1,0.2,6.5-0.3C148.4,60.7,155.1,60,162.1,60.2z"/>
	<rect x="164.7" y="30.6" fill="#A1CED6" width="8.7" height="27.6"/>
	<rect x="164.9" y="71.6" fill="#69878E" width="0.8" height="9.4"/>
	<rect x="166.1" y="71.6" fill="#69878E" width="1.1" height="8.4"/>
	<rect x="167.8" y="71.6" fill="#69878E" width="0.6" height="8.4"/>
	<rect x="168.8" y="71.6" fill="#69878E" width="0.8" height="8.4"/>
	<rect x="170.1" y="71.6" fill="#69878E" width="0.4" height="8.4"/>
	<rect x="170.8" y="71.6" fill="#69878E" width="0.4" height="8.4"/>
	<rect x="171.5" y="71.6" fill="#69878E" width="0.6" height="8.4"/>
	<rect x="172.2" y="71.6" fill="#69878E" width="0.8" height="9.4"/>
	<g>
		<path fill="#82CBDE" d="M144.5,48.5c0,0,0,0.1,0,0.1c0,0-0.1,0.1-0.1,0.1c-0.1,0-0.2,0-0.3,0.1c-0.1,0-0.3,0-0.4,0
			c-0.2,0-0.3,0-0.4,0c-0.1,0-0.2,0-0.3-0.1c-0.1,0-0.1-0.1-0.1-0.1c0,0,0-0.1,0-0.1v-3.7c0-0.2,0-0.4-0.1-0.6
			c0-0.2-0.1-0.3-0.2-0.5c-0.1-0.1-0.2-0.2-0.3-0.3c-0.1-0.1-0.3-0.1-0.4-0.1c-0.2,0-0.4,0.1-0.6,0.2c-0.2,0.2-0.5,0.4-0.7,0.7v4.2
			c0,0,0,0.1,0,0.1c0,0-0.1,0.1-0.1,0.1c-0.1,0-0.2,0-0.3,0.1c-0.1,0-0.3,0-0.4,0c-0.2,0-0.3,0-0.4,0c-0.1,0-0.2,0-0.3-0.1
			c-0.1,0-0.1-0.1-0.1-0.1c0,0,0-0.1,0-0.1v-3.7c0-0.2,0-0.4-0.1-0.6c0-0.2-0.1-0.3-0.2-0.5c-0.1-0.1-0.2-0.2-0.3-0.3
			c-0.1-0.1-0.3-0.1-0.4-0.1c-0.2,0-0.4,0.1-0.7,0.2c-0.2,0.2-0.5,0.4-0.7,0.7v4.2c0,0,0,0.1,0,0.1c0,0-0.1,0.1-0.1,0.1
			c-0.1,0-0.2,0-0.3,0.1c-0.1,0-0.3,0-0.4,0c-0.2,0-0.3,0-0.4,0c-0.1,0-0.2,0-0.3-0.1c-0.1,0-0.1-0.1-0.1-0.1c0,0,0-0.1,0-0.1v-6.3
			c0,0,0-0.1,0-0.1c0,0,0.1-0.1,0.1-0.1c0.1,0,0.1,0,0.2-0.1c0.1,0,0.2,0,0.4,0c0.2,0,0.3,0,0.4,0c0.1,0,0.2,0,0.2,0.1
			c0.1,0,0.1,0.1,0.1,0.1c0,0,0,0.1,0,0.1v0.7c0.3-0.4,0.7-0.7,1-0.9c0.3-0.2,0.7-0.3,1.1-0.3c0.3,0,0.5,0,0.7,0.1
			c0.2,0.1,0.4,0.1,0.6,0.2c0.2,0.1,0.3,0.2,0.4,0.4c0.1,0.1,0.2,0.3,0.3,0.5c0.2-0.2,0.4-0.4,0.6-0.5c0.2-0.1,0.4-0.3,0.5-0.4
			c0.2-0.1,0.4-0.2,0.5-0.2c0.2,0,0.4-0.1,0.5-0.1c0.4,0,0.8,0.1,1.1,0.2c0.3,0.1,0.5,0.3,0.7,0.6c0.2,0.2,0.3,0.5,0.4,0.9
			c0.1,0.3,0.1,0.7,0.1,1V48.5z"/>
		<path fill="#82CBDE" d="M148.1,40c0,0.4-0.1,0.6-0.2,0.7c-0.1,0.1-0.4,0.2-0.8,0.2c-0.4,0-0.7-0.1-0.8-0.2
			c-0.1-0.1-0.2-0.4-0.2-0.7c0-0.4,0.1-0.6,0.2-0.7c0.1-0.1,0.4-0.2,0.8-0.2c0.4,0,0.7,0.1,0.8,0.2C148,39.4,148.1,39.7,148.1,40z
			 M148,48.5c0,0,0,0.1,0,0.1c0,0-0.1,0.1-0.1,0.1c-0.1,0-0.2,0-0.3,0.1c-0.1,0-0.3,0-0.4,0c-0.2,0-0.3,0-0.4,0
			c-0.1,0-0.2,0-0.3-0.1c-0.1,0-0.1-0.1-0.1-0.1c0,0,0-0.1,0-0.1v-6.3c0,0,0-0.1,0-0.1c0,0,0.1-0.1,0.1-0.1c0.1,0,0.2,0,0.3-0.1
			c0.1,0,0.3,0,0.4,0c0.2,0,0.3,0,0.4,0c0.1,0,0.2,0,0.3,0.1c0.1,0,0.1,0.1,0.1,0.1c0,0,0,0.1,0,0.1V48.5z"/>
		<path fill="#82CBDE" d="M151.5,48.5c0,0,0,0.1,0,0.1c0,0-0.1,0.1-0.1,0.1c-0.1,0-0.2,0-0.3,0.1c-0.1,0-0.3,0-0.4,0
			c-0.2,0-0.3,0-0.4,0c-0.1,0-0.2,0-0.3-0.1c-0.1,0-0.1-0.1-0.1-0.1c0,0,0-0.1,0-0.1v-9.3c0,0,0-0.1,0-0.1c0,0,0.1-0.1,0.1-0.1
			c0.1,0,0.2,0,0.3-0.1c0.1,0,0.3,0,0.4,0c0.2,0,0.3,0,0.4,0c0.1,0,0.2,0,0.3,0.1c0.1,0,0.1,0.1,0.1,0.1s0,0.1,0,0.1V48.5z"/>
		<path fill="#82CBDE" d="M159.2,48.5c0,0,0,0.1,0,0.1c0,0-0.1,0.1-0.1,0.1c-0.1,0-0.2,0-0.3,0.1c-0.1,0-0.3,0-0.5,0
			c-0.2,0-0.3,0-0.5,0c-0.1,0-0.2,0-0.3,0c-0.1,0-0.1-0.1-0.2-0.1c0,0-0.1-0.1-0.1-0.1l-2.1-3.3v3.3c0,0,0,0.1,0,0.1
			c0,0-0.1,0.1-0.1,0.1c-0.1,0-0.2,0-0.3,0.1c-0.1,0-0.3,0-0.4,0c-0.2,0-0.3,0-0.4,0c-0.1,0-0.2,0-0.3-0.1c-0.1,0-0.1-0.1-0.1-0.1
			c0,0,0-0.1,0-0.1v-9.3c0,0,0-0.1,0-0.1c0,0,0.1-0.1,0.1-0.1c0.1,0,0.2,0,0.3-0.1c0.1,0,0.3,0,0.4,0c0.2,0,0.3,0,0.4,0
			c0.1,0,0.2,0,0.3,0.1c0.1,0,0.1,0.1,0.1,0.1c0,0,0,0.1,0,0.1v5.5l1.9-2.5c0-0.1,0.1-0.1,0.1-0.1c0,0,0.1-0.1,0.2-0.1
			c0.1,0,0.2,0,0.3-0.1c0.1,0,0.3,0,0.4,0c0.2,0,0.3,0,0.4,0c0.1,0,0.2,0,0.3,0.1c0.1,0,0.1,0.1,0.2,0.1c0,0,0,0.1,0,0.1
			c0,0.1,0,0.1-0.1,0.2c0,0.1-0.1,0.2-0.2,0.3l-1.8,2.1L159,48c0.1,0.1,0.1,0.2,0.1,0.2C159.2,48.3,159.2,48.4,159.2,48.5z"/>
	</g>
</g>
</svg>
