<?xml version="1.0" encoding="utf-8"?>
<!-- Generator: Adobe Illustrator 18.0.0, SVG Export Plug-In . SVG Version: 6.00 Build 0)  -->
<!DOCTYPE svg PUBLIC "-//W3C//DTD SVG 1.1//EN" "http://www.w3.org/Graphics/SVG/1.1/DTD/svg11.dtd">
<svg version="1.1" id="Lag_1" xmlns="http://www.w3.org/2000/svg" xmlns:xlink="http://www.w3.org/1999/xlink" x="0px" y="0px"
	 viewBox="0 0 200 200" enable-background="new 0 0 200 200" xml:space="preserve">
<polygon fill="#1E8484" points="31.5,137 73.9,164.7 98.1,170.3 107.5,185.4 126.7,185.4 154.6,155.6 164.7,140.5 "/>
<polygon fill="#FFFFFF" points="28,120.8 31.5,137 92.5,155.6 115,155.6 164.7,140.5 168.2,124.8 "/>
<polygon fill="#46C6C2" points="89.9,111.7 149.5,111.7 168.2,124.8 107.1,140.5 28,120.8 43.7,114.2 "/>
<g>
	<path fill="#F7F9F9" d="M60.3,152.2c-0.1,0-0.1,0-0.2,0L25,141c-0.3-0.1-0.4-0.4-0.4-0.7l1.1-6c0.1-0.3,0.4-0.5,0.7-0.5
		c0.3,0.1,0.5,0.4,0.5,0.7l-1,5.5l34.7,11c0.3,0.1,0.5,0.4,0.4,0.7C60.7,152,60.5,152.2,60.3,152.2z"/>
</g>
<g>
	<path fill="#F7F9F9" d="M81.4,161.8c0,0-0.1,0-0.1,0l-58.7-15.6c-0.3-0.1-0.5-0.4-0.4-0.7c0.1-0.3,0.4-0.5,0.7-0.4l58.7,15.6
		c0.3,0.1,0.5,0.4,0.4,0.7C81.9,161.6,81.6,161.8,81.4,161.8z"/>
</g>
<g>
	<path fill="#F7F9F9" d="M118,161.8h-21c-0.3,0-0.6-0.3-0.6-0.6c0-0.3,0.3-0.6,0.6-0.6h20.9l13.5-5.5c0.3-0.1,0.6,0,0.7,0.3
		c0.1,0.3,0,0.6-0.3,0.7l-13.6,5.6C118.1,161.7,118,161.8,118,161.8z"/>
</g>
<g>
	<g>
		<polygon fill="#5FA093" points="127.9,82.5 127.9,122.3 140.9,122.3 140.9,80.8 133,80.8 		"/>
		<polygon fill="#5FA093" points="82.2,122.8 95.1,122.8 95.1,94.1 82.2,98.7 		"/>
		<path fill="#D3EAE5" d="M165.5,44.3l-12,20.7H125l-14.2-24.7l8.1-14c-0.9,0-1.8-0.2-2.7-0.6l-5.3,9.2l-9.4,16.3l17,29.5h9.5h5.1
			h7.9h11.6l17-29.5L165.5,44.3z"/>
		<path fill="#FFFFFF" d="M110.8,40.3L125,65h28.5l12-20.7l2.3-3.9l-8.2-14.1c1.6-0.3,3.2-1.1,4.6-2.4c2.9-2.9,3.4-7.3,1-9.6
			c-2.4-2.4-6.7-1.9-9.6,1c-0.5,0.5-1,1.1-1.3,1.7l-0.7-1.2H125l-1.2,2.1c-0.4-0.9-1-1.8-1.8-2.7c-2.9-2.9-7.3-3.4-9.6-1
			c-2.4,2.4-1.9,6.7,1,9.6c0.9,0.9,1.8,1.5,2.8,1.9c0.9,0.4,1.8,0.6,2.7,0.6L110.8,40.3z"/>
		<polygon fill="#FFFFFF" points="127.9,80.8 118.4,80.8 101.4,51.2 110.8,34.9 58.9,46.2 50,73.6 63.2,99 63.2,122.8 81.3,122.8 
			81.3,99 82.2,98.7 95.1,94.1 107.8,89.6 107.8,122.3 120.7,122.3 120.7,85.1 127.9,82.5 133,80.8 		"/>
	</g>
	<g>
		<polygon fill="#D3EAE5" points="134.5,57.3 129,47.6 134.5,38 145.7,38 151.3,47.6 145.7,57.3 		"/>
		<polygon fill="#1E8484" points="140.1,45.2 144.3,38 136,38 		"/>
		<polygon fill="#1E8484" points="140.1,48 137.4,52.6 142.8,52.6 		"/>
		<circle fill="#1E8484" cx="129.7" cy="32.1" r="1.9"/>
		<circle fill="#1E8484" cx="149.2" cy="32.1" r="1.9"/>
	</g>
</g>
</svg>
