<?xml version="1.0" encoding="utf-8"?>
<!-- Generator: Adobe Illustrator 18.0.0, SVG Export Plug-In . SVG Version: 6.00 Build 0)  -->
<!DOCTYPE svg PUBLIC "-//W3C//DTD SVG 1.1//EN" "http://www.w3.org/Graphics/SVG/1.1/DTD/svg11.dtd">
<svg version="1.1" id="Lag_1" xmlns="http://www.w3.org/2000/svg" xmlns:xlink="http://www.w3.org/1999/xlink" x="0px" y="0px"
	 viewBox="0 0 200 200" enable-background="new 0 0 200 200" xml:space="preserve">
<g>
	<g>
		<g>
			<path fill="#F2EFDC" d="M106,101.8c3.4-3.9,9.7-4,13.9-0.2l1.1,0.9c4.3,3.8,5,10,1.6,13.9c-3.4,3.9-9.7,4-14,0.2l-1.1-0.9
				C103.3,111.9,102.6,105.7,106,101.8L106,101.8z M121.9,114.6c2.5-2.9,1.7-7.8-1.8-10.9l-1.2-1.1c-3.5-3.1-8.5-3.3-11-0.4
				c-2.5,2.9-1.7,7.8,1.8,10.9l1.2,1.1C114.5,117.3,119.4,117.5,121.9,114.6L121.9,114.6z"/>
		</g>
		<g>
			<path fill="#DCDAC8" d="M122.6,116.4c0.4-0.4,0.7-0.9,1-1.4c-3.5,3.4-9.4,3.4-13.5-0.2l-1.1-0.9c-3.8-3.4-4.8-8.6-2.6-12.5
				c-0.1,0.1-0.3,0.3-0.4,0.4c-3.4,3.9-2.7,10.1,1.6,13.9l1.1,0.9C113,120.4,119.2,120.3,122.6,116.4z"/>
		</g>
	</g>
	<g>
		<path fill="#2D4124" d="M45.2,169.1c0.2,0,0.4,0.1,0.4,0.3l0,0c0,0.2-0.1,0.4-0.3,0.4l-12.3,1.6c-0.2,0-0.4-0.1-0.4-0.3l0,0
			c0-0.2,0.1-0.4,0.3-0.4L45.2,169.1z"/>
		<path fill="#405933" d="M28.5,167.7c-0.7-0.2-1.3-0.4-2-0.5c-0.1,0-0.2,0-0.3,0c-0.2,0-0.4,0.1-0.6,0.1c0.1,0.2,0.2,0.5,0.3,0.7
			c0.1,0.1,0.1,0.2,0.2,0.3c-0.1-0.1-0.2-0.1-0.3-0.2c-0.4-0.2-0.8-0.4-1.3-0.6c0,0,0,0-0.1,0c0.6,0.8,1.3,1.7,2,2.7
			c0.1,0.1,0.2,0.2,0.3,0.3c-0.1-0.1-0.2-0.2-0.3-0.3c-0.9-0.9-1.8-1.7-2.7-2.5c-0.6,0.2-1.2,0.5-1.7,0.8c0.1,0.1,0.3,0.2,0.4,0.4
			c0.1,0.1,0.2,0.1,0.2,0.2c-0.1,0-0.2,0-0.3,0c-0.4,0-0.8,0-1.1,0c-0.4,0.3-0.7,0.6-1,0.9c0.3,0.1,0.6,0.2,0.9,0.2
			c0.1,0,0.2,0,0.3,0c-0.1,0-0.2,0.1-0.3,0.1c-0.9,0.5-1.7,1.1-2.4,1.8c-0.1,0.1-0.1,0.3-0.2,0.4c0.1,0.1,0.2,0.3,0.3,0.4
			c0.6,0.2,1.2,0.4,1.8,0.5c0.1,0,0.2,0,0.3,0c-0.1,0-0.2,0.1-0.3,0.1c-0.2,0.1-0.5,0.3-0.7,0.4c0.8,0.6,1.7,1.1,2.6,1.4
			c0.9-0.1,1.8-0.4,2.6-0.8c0.1,0,0.2-0.1,0.3-0.1c-0.1,0.1-0.1,0.2-0.2,0.3c-0.2,0.4-0.4,0.7-0.5,1.1c0,0,0.1,0,0.1,0
			c0.6-0.1,1.2-0.2,1.7-0.4c0.1,0,0.2-0.1,0.3-0.1c-0.1,0.1-0.1,0.2-0.2,0.2c-0.1,0.1-0.1,0.2-0.2,0.3c0.2,0,0.4,0,0.6-0.1
			c0.6-0.1,1.2-0.2,1.8-0.4c0.9-2,2.5-3.7,4.7-4.9c0.1,0,0.2-0.1,0.3-0.1c-0.1,0-0.2,0-0.3,0C31.7,170.2,29.9,169.1,28.5,167.7z"/>
		<path fill="#2D4124" d="M33.8,170.7c-2.1-0.5-3.9-1.6-5.3-3c-0.7-0.2-1.3-0.4-2-0.5c-0.1,0-0.2,0-0.3,0c-0.2,0-0.4,0.1-0.6,0.1
			c0.1,0.2,0.2,0.5,0.3,0.7c0.1,0.1,0.1,0.2,0.2,0.3c-0.1-0.1-0.2-0.1-0.3-0.2c-0.4-0.2-0.8-0.4-1.3-0.6c0,0,0,0-0.1,0
			c0.6,0.8,1.3,1.7,2,2.7c0.1,0.1,0.2,0.2,0.3,0.3c-0.1-0.1-0.2-0.2-0.3-0.3c-0.9-0.9-1.8-1.7-2.7-2.5c-0.6,0.2-1.2,0.5-1.7,0.8
			c0.1,0.1,0.3,0.2,0.4,0.4c0.1,0.1,0.2,0.1,0.2,0.2c-0.1,0-0.2,0-0.3,0c-0.4,0-0.8,0-1.1,0c-0.4,0.3-0.7,0.6-1,0.9
			c0.3,0.1,0.6,0.2,0.9,0.2c0.1,0,0.2,0,0.3,0c-0.1,0-0.2,0.1-0.3,0.1c-0.9,0.5-1.7,1.1-2.4,1.8c-0.1,0.1-0.1,0.3-0.2,0.4l15.4-2
			C34,170.7,33.9,170.7,33.8,170.7z"/>
		<g>
			<path fill="#2D4124" d="M36,167.2c-0.1,0.1,0,0.4,0.1,0.5l3.1,2.7l0.8-0.1l-3.6-3.1C36.3,167.1,36.1,167.1,36,167.2z"/>
			<path fill="#405933" d="M36.9,163.3c-0.2-0.6-0.5-1.1-0.9-1.5c-0.1-0.1-0.1-0.1-0.2-0.2c-0.1-0.1-0.3-0.2-0.4-0.3
				c-0.1,0.2-0.1,0.5-0.2,0.7c0,0.1,0,0.2-0.1,0.3c0-0.1,0-0.2-0.1-0.3c-0.1-0.4-0.3-0.8-0.4-1.2c0,0,0,0,0,0
				c-0.1,1-0.2,2.1-0.3,3.2c0,0.1,0,0.3,0,0.4c0-0.1,0-0.3,0-0.4c0-1.3-0.1-2.4-0.2-3.5c-0.5-0.2-0.9-0.3-1.4-0.4c0,0.2,0,0.3,0,0.5
				c0,0.1,0,0.2,0,0.3c-0.1-0.1-0.1-0.1-0.1-0.2c-0.2-0.2-0.4-0.5-0.7-0.6c-0.4,0-0.7,0-1.1,0.1c0.1,0.2,0.2,0.5,0.4,0.7
				c0,0.1,0.1,0.1,0.1,0.2c-0.1,0-0.1,0-0.2-0.1c-0.8-0.2-1.6-0.2-2.4-0.1c-0.1,0.1-0.2,0.1-0.3,0.2c0,0.2,0,0.3,0,0.5
				c0.2,0.5,0.5,1,0.8,1.4c0,0.1,0.1,0.1,0.1,0.2c-0.1,0-0.1,0-0.2-0.1c-0.2,0-0.4-0.1-0.6-0.1c0.1,0.9,0.4,1.8,0.7,2.6
				c0.6,0.4,1.2,0.8,1.9,1c0.1,0,0.1,0,0.2,0.1c-0.1,0-0.2,0.1-0.2,0.1c-0.3,0.2-0.6,0.3-0.9,0.5c0,0,0,0,0.1,0.1
				c0.4,0.3,0.8,0.5,1.2,0.7c0.1,0,0.1,0,0.2,0.1c-0.1,0-0.2,0-0.2,0.1c-0.1,0-0.2,0.1-0.3,0.1c0.1,0.1,0.3,0.2,0.4,0.3
				c0.4,0.3,0.8,0.5,1.3,0.7c1.6-0.9,3.5-1.3,5.3-0.9c0.1,0,0.1,0,0.2,0.1c0-0.1-0.1-0.1-0.1-0.2C37.4,167.1,36.9,165.2,36.9,163.3z
				"/>
			<path fill="#2D4124" d="M38.3,168.7c-0.9-1.6-1.4-3.5-1.4-5.4c-0.2-0.6-0.5-1.1-0.9-1.5c-0.1-0.1-0.1-0.1-0.2-0.2
				c-0.1-0.1-0.3-0.2-0.4-0.3c-0.1,0.2-0.1,0.5-0.2,0.7c0,0.1,0,0.2-0.1,0.3c0-0.1,0-0.2-0.1-0.3c-0.1-0.4-0.3-0.8-0.4-1.2
				c0,0,0,0,0,0c-0.1,1-0.2,2.1-0.3,3.2c0,0.1,0,0.3,0,0.4c0-0.1,0-0.3,0-0.4c0-1.3-0.1-2.4-0.2-3.5c-0.5-0.2-0.9-0.3-1.4-0.4
				c0,0.2,0,0.3,0,0.5c0,0.1,0,0.2,0,0.3c-0.1-0.1-0.1-0.1-0.1-0.2c-0.2-0.2-0.4-0.5-0.7-0.6c-0.4,0-0.7,0-1.1,0.1
				c0.1,0.2,0.2,0.5,0.4,0.7c0,0.1,0.1,0.1,0.1,0.2c-0.1,0-0.1,0-0.2-0.1c-0.8-0.2-1.6-0.2-2.4-0.1c-0.1,0.1-0.2,0.1-0.3,0.2
				l9.9,7.6C38.4,168.8,38.4,168.8,38.3,168.7z"/>
		</g>
		<g>
			<path fill="#2D4124" d="M38.1,170.3l-1.6,3.2c-0.1,0.2-0.1,0.4,0.1,0.5c0.1,0.1,0.3,0,0.4-0.2l1.8-3.6L38.1,170.3z"/>
			<path fill="#405933" d="M38.7,177.2c0,0.6-0.1,1.2-0.2,1.8c0,0.1-0.1,0.2-0.1,0.3c-0.1,0.1-0.2,0.3-0.3,0.4
				c-0.2-0.2-0.3-0.4-0.5-0.6c-0.1-0.1-0.1-0.2-0.2-0.3c0,0.1,0,0.2,0,0.3c0,0.4,0.1,0.9,0.1,1.3c0,0,0,0,0,0
				c-0.5-0.9-1-1.8-1.5-2.8c-0.1-0.1-0.1-0.2-0.2-0.4c0,0.1,0.1,0.3,0.1,0.4c0.4,1.2,0.8,2.3,1.1,3.3c-0.4,0.4-0.8,0.7-1.2,0.9
				c-0.1-0.2-0.1-0.3-0.2-0.5c0-0.1,0-0.2-0.1-0.3c0,0.1,0,0.2-0.1,0.2c-0.1,0.3-0.2,0.6-0.4,0.9c-0.3,0.1-0.7,0.3-1,0.4
				c0-0.3,0.1-0.5,0.1-0.8c0-0.1,0-0.2,0.1-0.2c-0.1,0-0.1,0.1-0.2,0.1c-0.7,0.5-1.4,0.8-2.2,1c-0.1,0-0.2,0-0.4,0
				c-0.1-0.2-0.2-0.3-0.2-0.5c0-0.5,0.1-1.1,0.2-1.6c0-0.1,0-0.2,0.1-0.2c-0.1,0-0.1,0.1-0.2,0.1c-0.2,0.1-0.4,0.2-0.5,0.3
				c-0.2-0.9-0.3-1.8-0.3-2.7c0.4-0.6,0.8-1.2,1.4-1.7c0.1-0.1,0.1-0.1,0.2-0.1c-0.1,0-0.2,0-0.3,0c-0.3,0-0.7-0.1-1-0.1
				c0,0,0-0.1,0-0.1c0.2-0.4,0.5-0.8,0.9-1.2c0.1-0.1,0.1-0.1,0.2-0.2c-0.1,0-0.2,0-0.3,0c-0.1,0-0.2,0-0.3,0
				c0.1-0.2,0.2-0.3,0.2-0.5c0.3-0.5,0.6-0.8,0.9-1.2c1.8,0.2,3.7-0.2,5.3-1.4c0.1,0,0.1-0.1,0.2-0.1c0,0.1,0,0.2-0.1,0.2
				C37.8,173.5,38.1,175.5,38.7,177.2z"/>
			<path fill="#2D4124" d="M38,171.7c-0.3,1.9,0,3.8,0.7,5.5c0,0.6-0.1,1.2-0.2,1.8c0,0.1-0.1,0.2-0.1,0.3c-0.1,0.1-0.2,0.3-0.3,0.4
				c-0.2-0.2-0.3-0.4-0.5-0.6c-0.1-0.1-0.1-0.2-0.2-0.3c0,0.1,0,0.2,0,0.3c0,0.4,0.1,0.9,0.1,1.3c0,0,0,0,0,0
				c-0.5-0.9-1-1.8-1.5-2.8c-0.1-0.1-0.1-0.2-0.2-0.4c0,0.1,0.1,0.3,0.1,0.4c0.4,1.2,0.8,2.3,1.1,3.3c-0.4,0.4-0.8,0.7-1.2,0.9
				c-0.1-0.2-0.1-0.3-0.2-0.5c0-0.1,0-0.2-0.1-0.3c0,0.1,0,0.2-0.1,0.2c-0.1,0.3-0.2,0.6-0.4,0.9c-0.3,0.1-0.7,0.3-1,0.4
				c0-0.3,0.1-0.5,0.1-0.8c0-0.1,0-0.2,0.1-0.2c-0.1,0-0.1,0.1-0.2,0.1c-0.7,0.5-1.4,0.8-2.2,1c-0.1,0-0.2,0-0.4,0l6.3-11.1
				C38.1,171.5,38.1,171.6,38,171.7z"/>
		</g>
	</g>
	<g>
		<circle fill="#D95B46" cx="82.8" cy="115.4" r="16.8"/>
		<path fill="#F16A54" d="M66,115.4c0,2.2,0.4,4.2,1.2,6.2c2.8,2,6.1,3.2,9.8,3.2c9.3,0,16.8-7.5,16.8-16.8c0-2.2-0.4-4.2-1.2-6.2
			c-2.8-2-6.1-3.2-9.8-3.2C73.6,98.6,66,106.1,66,115.4z"/>
		<g>
			<path fill="#2D4124" d="M85,106.6c0,0.6-2.7,0.6-2.9,1.1c-0.2,0.5,1.7,2.4,1.3,2.8c-0.4,0.4-2.3-1.5-2.8-1.3
				c-0.5,0.2-0.5,2.9-1.1,2.9c-0.6,0-0.6-2.7-1.1-2.9c-0.5-0.2-2.4,1.7-2.8,1.3c-0.4-0.4,1.5-2.3,1.3-2.8c-0.2-0.5-2.9-0.5-2.9-1.1
				c0-0.6,2.7-0.6,2.9-1.1c0.2-0.5-1.7-2.4-1.3-2.8c0.4-0.4,2.3,1.5,2.8,1.3c0.5-0.2,0.5-2.9,1.1-2.9c0.6,0,0.6,2.7,1.1,2.9
				c0.5,0.2,2.4-1.7,2.8-1.3c0.4,0.4-1.5,2.3-1.3,2.8C82.3,106.1,85,106.1,85,106.6z"/>
			<path fill="#405933" d="M79.5,101.1c-0.6,0-0.6,2.7-1.1,2.9c-0.5,0.2-2.4-1.7-2.8-1.3c-0.4,0.4,1.5,2.3,1.3,2.8
				c-0.2,0.5-2.9,0.5-2.9,1.1c0,0.6,2.7,0.6,2.9,1.1c0.2,0.5-1.7,2.4-1.3,2.8c0.4,0.4,2.3-1.5,2.8-1.3c0.2,0.1,0.3,0.7,0.5,1.3
				c1.1-1.5,1.7-3.6,1.7-5.8c0-0.3,0-0.5,0-0.7h0C80,103.9,80,101.1,79.5,101.1z"/>
			<path fill="#2D4124" d="M77.9,101.8c-0.4,0.1-0.9,0.2-1.2,0.5c0.9,1.2,1.6,2.7,1.8,4.3c0.4,0,0.8-0.2,1.1-0.3
				C79.4,104.6,78.8,103,77.9,101.8z"/>
		</g>
	</g>
	<g>
		<circle fill="#D95B46" cx="127.9" cy="83.5" r="16.8"/>
		<path fill="#F16A54" d="M117.5,70.3c-1.7,1.3-3.1,2.9-4.1,4.7c0.1,3.4,1.3,6.8,3.6,9.7c5.7,7.3,16.3,8.6,23.6,2.8
			c1.7-1.3,3.1-2.9,4.1-4.7c-0.1-3.4-1.3-6.8-3.6-9.7C135.4,65.9,124.8,64.6,117.5,70.3z"/>
		<g>
			<path fill="#2D4124" d="M136.1,79.8c-0.4,0.3-2.1-1.8-2.6-1.6c-0.5,0.1-0.9,2.8-1.4,2.8c-0.5-0.1-0.2-2.8-0.7-3
				c-0.5-0.3-2.6,1.4-3,1c-0.3-0.4,1.8-2.1,1.6-2.6c-0.1-0.5-2.8-0.9-2.8-1.4c0.1-0.5,2.8-0.2,3-0.7c0.3-0.5-1.4-2.6-1-3
				c0.4-0.3,2.1,1.8,2.6,1.6c0.5-0.1,0.9-2.8,1.4-2.8c0.5,0.1,0.2,2.8,0.7,3c0.5,0.3,2.6-1.4,3-1c0.3,0.4-1.8,2.1-1.6,2.6
				c0.1,0.5,2.8,0.9,2.8,1.4c-0.1,0.5-2.8,0.2-3,0.7C134.9,77.3,136.5,79.5,136.1,79.8z"/>
			<path fill="#405933" d="M137,72.1c-0.3-0.4-2.5,1.2-3,1c-0.5-0.3-0.2-3-0.7-3c-0.5-0.1-0.9,2.6-1.4,2.8c-0.5,0.1-2.2-2-2.6-1.6
				c-0.4,0.3,1.2,2.5,1,3c-0.3,0.5-3,0.2-3,0.7c-0.1,0.5,2.6,0.9,2.8,1.4c0.1,0.2-0.3,0.7-0.8,1.2c1.9-0.1,3.9-0.9,5.6-2.2
				c0.2-0.2,0.4-0.3,0.6-0.5l0,0C135.2,74.2,137.4,72.5,137,72.1z"/>
			<path fill="#2D4124" d="M135.5,71.3c-0.3-0.3-0.7-0.5-1.1-0.7c-0.4,1.5-1.1,2.9-2.3,4.1c0.3,0.3,0.6,0.5,0.9,0.6
				C134.3,74.1,135.1,72.7,135.5,71.3z"/>
		</g>
	</g>
	<g>
		<circle fill="#FFCB09" cx="91" cy="121" r="12.2"/>
		<circle fill="#F2EFDC" cx="91" cy="121" r="11.5"/>
		<path fill="#FBAB18" d="M91,108.8C91,108.8,91,108.8,91,108.8l0,24.4c0,0,0,0,0,0c6.7,0,12.2-5.5,12.2-12.2
			C103.2,114.3,97.7,108.8,91,108.8z"/>
		<path fill="#DCDAC8" d="M91,109.5C91,109.5,91,109.5,91,109.5l0,23c0,0,0,0,0,0c6.4,0,11.5-5.2,11.5-11.5
			C102.5,114.6,97.4,109.5,91,109.5z"/>
		<g>
			<path fill="#FFCB09" d="M83.8,114.5c-1.5,1.6-2.4,3.8-2.5,6.1H90L83.8,114.5z"/>
			<path fill="#FBAB18" d="M91.4,111.3v8.7l6.1-6.1C95.9,112.4,93.8,111.4,91.4,111.3z"/>
			<path fill="#FBAB18" d="M98.1,127.6c1.5-1.6,2.4-3.8,2.5-6.1H92L98.1,127.6z"/>
			<path fill="#FFCB09" d="M90.6,111.3c-2.4,0.1-4.5,1-6.1,2.5l6.1,6.1V111.3z"/>
			<path fill="#FBAB18" d="M91.4,122v8.7c2.4-0.1,4.5-1,6.1-2.5L91.4,122z"/>
			<path fill="#FFCB09" d="M81.3,121.4c0.1,2.4,1,4.5,2.5,6.1l6.1-6.1H81.3z"/>
			<path fill="#FBAB18" d="M92,120.6h8.7c-0.1-2.4-1-4.5-2.5-6.1L92,120.6z"/>
			<path fill="#FFCB09" d="M90.6,122l-6.1,6.1c1.6,1.5,3.8,2.4,6.1,2.5V122z"/>
		</g>
	</g>
	<g>
		<path fill="#FFCB09" d="M130.7,113.9c6.7-1.1,12.7,1.6,13.5,6c0.7,4.4-4.1,8.9-10.8,10.1c-6.7,1.1-12.7-1.6-13.5-6
			C119.2,119.5,124,115,130.7,113.9z"/>
		<path fill="#F2EFDC" d="M130.8,114.4c6.3-1,12,1.5,12.7,5.7c0.7,4.2-3.9,8.4-10.2,9.5c-6.3,1-12-1.5-12.7-5.7
			C119.9,119.6,124.4,115.4,130.8,114.4z"/>
		<path fill="#FBAB18" d="M119.9,123.9C119.9,123.9,119.9,123.9,119.9,123.9l24.3-4c0,0,0,0,0,0c-0.7-4.4-6.8-7.2-13.5-6
			C124,115,119.2,119.5,119.9,123.9z"/>
		<path fill="#DCDAC8" d="M120.6,123.8C120.6,123.8,120.6,123.8,120.6,123.8l22.9-3.8c0,0,0,0,0,0c-0.7-4.2-6.4-6.7-12.7-5.7
			C124.4,115.4,119.9,119.6,120.6,123.8z"/>
		<g>
			<path fill="#FFCB09" d="M126.3,127.7c1.8,0.7,4,1,6.4,0.7l-0.9-5.7L126.3,127.7z"/>
			<path fill="#FBAB18" d="M122.3,123.3l8.6-1.4l-6.8-3C122.9,120.1,122.2,121.7,122.3,123.3z"/>
			<path fill="#FBAB18" d="M137.8,116.2c-1.8-0.7-4-1-6.4-0.7l0.9,5.7L137.8,116.2z"/>
			<path fill="#FFCB09" d="M122.4,123.8c0.4,1.5,1.5,2.8,3.2,3.6l5.4-5.1L122.4,123.8z"/>
			<path fill="#FBAB18" d="M133,121.5l8.6-1.4c-0.4-1.5-1.5-2.8-3.2-3.6L133,121.5z"/>
			<path fill="#FFCB09" d="M133.5,128.3c2.3-0.5,4.4-1.4,5.8-2.7l-6.8-3L133.5,128.3z"/>
			<path fill="#FBAB18" d="M131.5,121.3l-0.9-5.7c-2.3,0.5-4.4,1.4-5.8,2.7L131.5,121.3z"/>
			<path fill="#FFCB09" d="M133.1,122l6.8,3c1.3-1.3,2-2.9,1.9-4.5L133.1,122z"/>
		</g>
	</g>
	<g>
		<path fill="#2D4124" d="M83.5,136.5c-0.3,1.5-0.5,3-0.5,4.5c2,0.7,4,1.4,6.2,1.8c19.7,4.2,38.6-6,42.2-22.8c0.3-1.5,0.5-3,0.5-4.5
			c-2-0.7-4-1.4-6.2-1.8C106,109.5,87.1,119.7,83.5,136.5z"/>
		<path fill="#405933" d="M131.4,120.1c0.3-1.5,0.5-3,0.5-4.4c-18,6.1-38.1,16.5-48.9,25.3c0,0,0,0,0,0.1c2,0.7,4,1.4,6.2,1.8
			C108.9,147,127.8,136.8,131.4,120.1z"/>
	</g>
	<g>
		<circle fill="#FBAB18" cx="89.7" cy="131.8" r="9"/>
		<circle fill="#E39910" cx="89.7" cy="131.8" r="5.4"/>
	</g>
	<g>
		<circle fill="#FBAB18" cx="129.3" cy="128.9" r="9"/>
		<circle fill="#E39910" cx="129.3" cy="128.9" r="5.4"/>
	</g>
	<g>
		<circle fill="#FBAB18" cx="150.8" cy="123.9" r="9"/>
		<circle fill="#E39910" cx="150.8" cy="123.9" r="5.4"/>
	</g>
	<g>
		<path fill="#FBAB18" d="M70.4,128.4c-3.7,0.6-7.4-2.9-8.2-7.8c-0.8-4.9,1.6-9.4,5.3-10c3.7-0.6,7.4,2.9,8.2,7.8
			C76.5,123.3,74.2,127.8,70.4,128.4z"/>
		
			<ellipse transform="matrix(0.1582 0.9874 -0.9874 0.1582 176.1115 32.446)" fill="#E39910" cx="69" cy="119.5" rx="5.4" ry="4.1"/>
	</g>
	<g>
		<path fill="#2D4124" d="M138.2,163.2c0.8,1.3,1.7,2.6,2.6,3.7c2-0.8,3.9-1.6,5.8-2.7c17.5-9.9,24.9-30.1,16.4-45
			c-0.8-1.3-1.7-2.6-2.6-3.7c-2,0.8-3.9,1.6-5.8,2.7C137,128.1,129.7,148.3,138.2,163.2z"/>
		<path fill="#405933" d="M163,119.2c-0.7-1.3-1.6-2.5-2.6-3.7c-9.4,16.6-17.5,37.7-19.7,51.4c0,0,0,0,0,0.1c2-0.8,3.9-1.6,5.8-2.7
			C164.1,154.2,171.5,134.1,163,119.2z"/>
	</g>
	<g>
		<path fill="#2D4124" d="M57.3,167.5c0.8,1.3,1.7,2.6,2.6,3.7c2-0.8,3.9-1.6,5.8-2.7c17.5-10,24.9-30.1,16.4-45
			c-0.8-1.3-1.7-2.6-2.6-3.7c-2,0.8-3.9,1.6-5.8,2.7C56.2,132.5,48.8,152.6,57.3,167.5z"/>
		<path fill="#405933" d="M82.2,123.5c-0.7-1.3-1.6-2.5-2.6-3.7c-9.4,16.6-17.5,37.7-19.7,51.4c0,0,0,0,0,0.1c2-0.8,3.9-1.6,5.8-2.7
			C83.3,158.6,90.6,138.4,82.2,123.5z"/>
	</g>
	<g>
		<path fill="#F2EFDC" d="M51.7,133.4c-3.6-5.4-1.7-13.1,4.3-17.2l1.5-1c6-4,13.9-2.9,17.5,2.5c3.6,5.4,1.7,13.1-4.3,17.2l-1.5,1
			C63.2,140,55.4,138.9,51.7,133.4L51.7,133.4z M72.1,119.8c-2.6-3.9-8.3-4.8-12.7-1.8l-1.5,1c-4.4,2.9-5.8,8.5-3.1,12.4
			c2.6,3.9,8.3,4.8,12.7,1.8l1.5-1C73.3,129.3,74.7,123.8,72.1,119.8L72.1,119.8z"/>
	</g>
	<g>
		<path fill="#F2EFDC" d="M133.7,144.2c-3.6-5.4-1.7-13.1,4.3-17.2l1.5-1c6-4,13.9-2.9,17.5,2.5c3.6,5.4,1.7,13.1-4.3,17.2l-1.5,1
			C145.2,150.8,137.3,149.6,133.7,144.2L133.7,144.2z M154,130.6c-2.6-3.9-8.3-4.8-12.7-1.8l-1.5,1c-4.4,2.9-5.8,8.5-3.1,12.4
			c2.6,3.9,8.3,4.8,12.7,1.8l1.5-1C155.2,140.1,156.6,134.5,154,130.6L154,130.6z"/>
	</g>
	<g>
		<path fill="#2D4124" d="M154.3,172.2c1.5,0.2,3,0.3,4.5,0.3c0.6-2,1.2-4.1,1.5-6.3c3.2-19.9-8-38.2-24.9-40.9
			c-1.5-0.2-3-0.3-4.5-0.3c-0.6,2-1.2,4.1-1.5,6.3C126.2,151.2,137.4,169.5,154.3,172.2z"/>
		<path fill="#405933" d="M135.4,125.3c-1.5-0.2-3-0.3-4.5-0.3c7,17.7,18.5,37.2,27.8,47.5c0,0,0,0,0.1,0c0.6-2,1.2-4.1,1.5-6.3
			C163.5,146.4,152.4,128,135.4,125.3z"/>
	</g>
	<g>
		<g>
			<path fill="#2D4124" d="M153.4,73.8c-0.7,1.5-0.3,1.7,0.8,0.5c2.5-2.9,4.9-6,7-9.2c0.9-1.4,0.9-2.5,0.3-2.9c0,0,0,0-0.1,0
				c-0.6-0.4-1.6,0.1-2.5,1.5C156.9,66.9,155.1,70.3,153.4,73.8z"/>
			<circle fill="#2D4124" cx="165.4" cy="65.2" r="1.7"/>
			<circle fill="#2D4124" cx="165.8" cy="60.3" r="1.7"/>
			<circle fill="#2D4124" cx="161.1" cy="58.7" r="1.7"/>
			<circle fill="#2D4124" cx="162.2" cy="60.3" r="2.3"/>
			<circle fill="#2D4124" cx="162.7" cy="65.4" r="2.8"/>
			<circle fill="#2D4124" cx="164" cy="62.3" r="2.8"/>
			<circle fill="#2D4124" cx="159.9" cy="62.5" r="2.8"/>
		</g>
		<g>
			<path fill="#405933" d="M153.3,78.2c-1,1.3-0.6,1.6,0.7,0.7c3.1-2.3,6-4.8,8.8-7.5c1.1-1.1,1.4-2.3,0.9-2.8c0,0,0,0-0.1-0.1
				c-0.5-0.5-1.6-0.2-2.8,0.9C158.2,72.2,155.6,75.1,153.3,78.2z"/>
			<circle fill="#405933" cx="167.2" cy="71.8" r="1.7"/>
			<circle fill="#405933" cx="167.1" cy="66.6" r="1.7"/>
			<circle fill="#405933" cx="164" cy="65" r="1.7"/>
			<circle fill="#405933" cx="164.7" cy="66.9" r="2.3"/>
			<circle fill="#405933" cx="164.1" cy="71.9" r="2.8"/>
			<circle fill="#405933" cx="166.1" cy="69.2" r="2.8"/>
			<circle fill="#405933" cx="162" cy="68.5" r="2.8"/>
		</g>
		<g>
			<path fill="#405933" d="M150.3,77.3c-0.8,1.4-1.2,1.2-0.9-0.3c0.9-3.7,2-7.5,3.3-11.1c0.6-1.5,1.5-2.2,2.2-1.9c0,0,0,0,0.1,0
				c0.6,0.2,0.9,1.4,0.3,2.9C153.8,70.5,152.1,74,150.3,77.3z"/>
			<circle fill="#405933" cx="150.5" cy="62.1" r="1.7"/>
			<circle fill="#405933" cx="155.3" cy="60" r="1.7"/>
			<circle fill="#405933" cx="158" cy="62.3" r="1.7"/>
			<circle fill="#405933" cx="156" cy="62.3" r="2.3"/>
			<circle fill="#405933" cx="151.7" cy="64.9" r="2.8"/>
			<circle fill="#405933" cx="153.4" cy="62" r="2.8"/>
			<circle fill="#405933" cx="155.6" cy="65.5" r="2.8"/>
		</g>
		<g>
			<path fill="#FBAB18" d="M134.7,101.2c-1.6,3.6-0.6,4.2,2.1,1.4L156,82.1c2.7-2.9,2.2-7-1.1-9.2l-0.4-0.2c-3.3-2.2-7.3-1-8.8,2.7
				L134.7,101.2z"/>
			<path fill="#E39910" d="M154.6,72.7l0.2,0.1l-20.6,31.5c-0.4-0.2-0.2-1.3,0.5-3.1l11-25.9C147.3,71.7,151.3,70.5,154.6,72.7z"/>
			<g>
				<defs>
					<path id="SVGID_1_" d="M134.7,101.2c-1.6,3.6-0.6,4.2,2.1,1.4L156,82.1c2.7-2.9,2.2-7-1.1-9.2l-0.4-0.2c-3.3-2.2-7.3-1-8.8,2.7
						L134.7,101.2z"/>
				</defs>
				<clipPath id="SVGID_2_">
					<use xlink:href="#SVGID_1_"  overflow="visible"/>
				</clipPath>
				<g clip-path="url(#SVGID_2_)">
					<path fill="#FBAB18" d="M146.3,76.2c3.4,2,3.5,1.7,0.4-0.6l-22.4-16.3c-3.1-2.3-6.2-3.4-6.9-2.4l-0.1,0.1c-0.6,1,1.6,3.4,5,5.3
						L146.3,76.2z"/>
					<path fill="#FBAB18" d="M140.7,87c3.4,2,3.5,1.7,0.4-0.6L118.7,70c-3.2-2.3-6.2-3.4-6.9-2.4l-0.1,0.1c-0.6,1,1.6,3.4,5,5.3
						L140.7,87z"/>
					<path fill="#FBAB18" d="M137.5,92.7c3.4,2,3.5,1.7,0.4-0.6l-22.4-16.3c-3.1-2.3-6.2-3.4-6.9-2.4l-0.1,0.1c-0.6,1,1.6,3.4,5,5.3
						L137.5,92.7z"/>
					<path fill="#E39910" d="M149.8,84.6c-3.1-2.3-3-2.6,0.4-0.6l24,13.9c3.4,2,5.6,4.4,5,5.3l-0.1,0.1c-0.6,1-3.7-0.1-6.9-2.4
						L149.8,84.6z"/>
					<path fill="#E39910" d="M148.3,89.7c-3.1-2.3-3-2.6,0.4-0.6l24,13.9c3.4,2,5.6,4.4,5,5.3l-0.1,0.1c-0.6,1-3.7-0.1-6.9-2.4
						L148.3,89.7z"/>
					<path fill="#E39910" d="M139.3,101.5c-3.1-2.3-3-2.6,0.4-0.6l24,13.9c3.4,2,5.6,4.4,5,5.3l-0.1,0.1c-0.6,1-3.7-0.1-6.9-2.4
						L139.3,101.5z"/>
					<g>
						<path fill="#E39910" d="M148.4,79.5c-0.3-0.2-0.2-0.3,0.1-0.1l2.4,1.2c0.3,0.2,0.5,0.5,0.3,0.7l0,0c-0.1,0.2-0.5,0.2-0.8,0
							L148.4,79.5z"/>
						<path fill="#E39910" d="M153.1,82.6c0.3,0.2,0.4,0.1,0.1-0.1l-2-1.7c-0.3-0.2-0.6-0.3-0.8,0l0,0c-0.1,0.2,0,0.5,0.3,0.7
							L153.1,82.6z"/>
					</g>
					<g>
						<path fill="#E39910" d="M142.6,82.6c-0.3-0.2-0.2-0.3,0.1-0.1l2.4,1.2c0.3,0.2,0.5,0.5,0.3,0.7l0,0c-0.1,0.2-0.5,0.2-0.8,0
							L142.6,82.6z"/>
						<path fill="#E39910" d="M147.3,85.7c0.3,0.2,0.4,0.1,0.1-0.1l-2-1.7c-0.3-0.2-0.6-0.3-0.8,0l0,0c-0.1,0.2,0,0.5,0.3,0.7
							L147.3,85.7z"/>
					</g>
					<g>
						<path fill="#FBAB18" d="M142.6,82.6c-0.2-0.2-0.2-0.3,0.1-0.1l2.1,1c0.3,0.1,0.4,0.4,0.3,0.7l0,0c-0.1,0.2-0.5,0.2-0.7,0
							L142.6,82.6z"/>
						<path fill="#FBAB18" d="M146.7,85.3c0.3,0.1,0.3,0.1,0.1-0.1l-1.8-1.6c-0.2-0.2-0.6-0.2-0.7,0l0,0c-0.1,0.2,0,0.5,0.3,0.7
							L146.7,85.3z"/>
					</g>
					<g>
						<path fill="#E39910" d="M142,92.4c-0.3-0.2-0.2-0.3,0.1-0.1l2.4,1.2c0.3,0.2,0.5,0.5,0.3,0.7l0,0c-0.1,0.2-0.5,0.2-0.8,0
							L142,92.4z"/>
						<path fill="#E39910" d="M146.7,95.4c0.3,0.2,0.4,0.1,0.1-0.1l-2-1.7c-0.3-0.2-0.6-0.3-0.8,0l0,0c-0.1,0.2,0,0.5,0.3,0.7
							L146.7,95.4z"/>
					</g>
					<g>
						<path fill="#E39910" d="M138.3,95.7c-0.3-0.2-0.2-0.3,0.1-0.1l2.4,1.2c0.3,0.2,0.5,0.5,0.3,0.7l0,0c-0.1,0.2-0.5,0.2-0.8,0
							L138.3,95.7z"/>
						<path fill="#E39910" d="M143,98.8c0.3,0.2,0.4,0.1,0.1-0.1l-2-1.7c-0.3-0.2-0.6-0.3-0.8,0l0,0c-0.1,0.2,0,0.5,0.3,0.7
							L143,98.8z"/>
					</g>
					<path fill="#FBAB18" d="M148.5,79.4l1.6,0.8l-0.3,0.5l-1.4-1.1C148.1,79.3,148.1,79.2,148.5,79.4z"/>
				</g>
			</g>
		</g>
	</g>
	<g>
		<path fill="#2D4124" d="M86.8,84.3c-0.1,0.1-0.3,0.1-0.4,0l0,0c-0.1-0.1-0.1-0.3,0-0.4l6.8-6.8c0.1-0.1,0.3-0.1,0.4,0l0,0
			c0.1,0.1,0.1,0.3,0,0.4L86.8,84.3z"/>
		<path fill="#405933" d="M97.8,77.3c0.5-0.2,1-0.4,1.4-0.6c0.1-0.1,0.1-0.1,0.2-0.2c0.1-0.1,0.2-0.2,0.3-0.3
			c-0.2-0.1-0.4-0.2-0.5-0.3c-0.1,0-0.2-0.1-0.2-0.1c0.1,0,0.2,0,0.2,0c0.4-0.1,0.7-0.1,1.1-0.2c0,0,0,0,0,0
			c-0.8-0.2-1.6-0.5-2.5-0.7c-0.1,0-0.2-0.1-0.3-0.1c0.1,0,0.2,0,0.3,0c1,0.1,2,0.2,2.8,0.3c0.3-0.4,0.5-0.9,0.6-1.3
			c-0.1,0-0.3,0-0.4,0c-0.1,0-0.2,0-0.2,0c0.1,0,0.1-0.1,0.2-0.1c0.2-0.2,0.5-0.4,0.7-0.6c0.1-0.3,0.2-0.7,0.2-1
			c-0.2,0.1-0.4,0.2-0.6,0.3c-0.1,0-0.1,0.1-0.2,0.1c0-0.1,0.1-0.1,0.1-0.2c0.3-0.7,0.5-1.5,0.6-2.3c0-0.1-0.1-0.2-0.1-0.3
			c-0.1,0-0.3-0.1-0.4-0.1c-0.4,0.1-0.9,0.3-1.3,0.5c-0.1,0-0.1,0.1-0.2,0.1c0-0.1,0.1-0.1,0.1-0.2c0.1-0.2,0.1-0.4,0.2-0.6
			c-0.8,0-1.5,0.1-2.3,0.4c-0.5,0.5-0.9,1.1-1.3,1.7c0,0.1-0.1,0.1-0.1,0.2c0-0.1,0-0.2,0-0.2c-0.1-0.3-0.1-0.6-0.2-0.9
			c0,0,0,0-0.1,0c-0.3,0.3-0.6,0.7-0.9,1.1c0,0.1-0.1,0.1-0.1,0.2c0-0.1,0-0.2,0-0.2c0-0.1,0-0.2,0-0.3c-0.1,0.1-0.2,0.2-0.4,0.3
			c-0.3,0.3-0.6,0.7-0.9,1.1c0.4,1.7,0.2,3.5-0.6,5.2c0,0.1-0.1,0.1-0.1,0.2c0.1,0,0.1-0.1,0.2-0.1C94.6,77.2,96.3,77,97.8,77.3z"/>
		<path fill="#2D4124" d="M93.1,77.9c1.5-0.7,3.2-0.9,4.7-0.7c0.5-0.2,1-0.4,1.4-0.6c0.1-0.1,0.1-0.1,0.2-0.2
			c0.1-0.1,0.2-0.2,0.3-0.3c-0.2-0.1-0.4-0.2-0.5-0.3c-0.1,0-0.2-0.1-0.2-0.1c0.1,0,0.2,0,0.2,0c0.4-0.1,0.7-0.1,1.1-0.2
			c0,0,0,0,0,0c-0.8-0.2-1.6-0.5-2.5-0.7c-0.1,0-0.2-0.1-0.3-0.1c0.1,0,0.2,0,0.3,0c1,0.1,2,0.2,2.8,0.3c0.3-0.4,0.5-0.9,0.6-1.3
			c-0.1,0-0.3,0-0.4,0c-0.1,0-0.2,0-0.2,0c0.1,0,0.1-0.1,0.2-0.1c0.2-0.2,0.5-0.4,0.7-0.6c0.1-0.3,0.2-0.7,0.2-1
			c-0.2,0.1-0.4,0.2-0.6,0.3c-0.1,0-0.1,0.1-0.2,0.1c0-0.1,0.1-0.1,0.1-0.2c0.3-0.7,0.5-1.5,0.6-2.3c0-0.1-0.1-0.2-0.1-0.3L92.9,78
			C93,78,93,78,93.1,77.9z"/>
		<g>
			<path fill="#2D4124" d="M93.4,81.1c0-0.1-0.2-0.2-0.3-0.2l-3.2-0.2l-0.4,0.4l3.7,0.2C93.3,81.3,93.4,81.3,93.4,81.1z"/>
			<path fill="#405933" d="M94.7,83.9c0.4,0.2,0.8,0.4,1.3,0.5c0.1,0,0.1,0,0.2,0c0.1,0,0.2,0,0.4,0c-0.1-0.2-0.1-0.4-0.2-0.5
				c0-0.1-0.1-0.1-0.1-0.2c0.1,0,0.1,0.1,0.2,0.1c0.3,0.2,0.5,0.4,0.8,0.5c0,0,0,0,0,0c-0.4-0.7-0.8-1.4-1.3-2.1
				c-0.1-0.1-0.1-0.2-0.2-0.3c0.1,0.1,0.1,0.2,0.2,0.2c0.6,0.8,1.2,1.4,1.8,2c0.4-0.1,0.7-0.3,1-0.4c-0.1-0.1-0.2-0.2-0.3-0.3
				c-0.1-0.1-0.1-0.1-0.2-0.2c0.1,0,0.1,0,0.2,0c0.2,0,0.5,0.1,0.7,0.1c0.2-0.2,0.4-0.4,0.6-0.6c-0.2-0.1-0.4-0.2-0.6-0.2
				c-0.1,0-0.1,0-0.2-0.1c0.1,0,0.1,0,0.2-0.1c0.6-0.3,1.1-0.6,1.5-1.1c0-0.1,0.1-0.2,0.1-0.3c-0.1-0.1-0.1-0.2-0.2-0.3
				c-0.4-0.2-0.7-0.4-1.1-0.5c-0.1,0-0.1,0-0.2-0.1c0.1,0,0.1,0,0.2-0.1c0.1-0.1,0.3-0.2,0.4-0.3c-0.5-0.5-1.1-0.9-1.7-1.3
				c-0.6,0-1.1,0.1-1.7,0.3c-0.1,0-0.1,0.1-0.2,0.1c0-0.1,0.1-0.1,0.1-0.2c0.1-0.2,0.2-0.5,0.3-0.8c0,0,0,0-0.1,0
				c-0.4,0-0.7,0.1-1.1,0.1c-0.1,0-0.1,0-0.2,0.1c0-0.1,0.1-0.1,0.1-0.2c0-0.1,0.1-0.1,0.1-0.2c-0.1,0-0.3,0-0.4,0
				c-0.4,0-0.8,0.1-1.1,0.1c-0.6,1.3-1.5,2.5-2.9,3.1c-0.1,0-0.1,0-0.2,0.1c0.1,0,0.1,0,0.2,0.1C92.6,81.8,93.8,82.8,94.7,83.9z"/>
			<path fill="#2D4124" d="M91.3,81.3c1.3,0.6,2.5,1.5,3.4,2.7c0.4,0.2,0.8,0.4,1.3,0.5c0.1,0,0.1,0,0.2,0c0.1,0,0.2,0,0.4,0
				c-0.1-0.2-0.1-0.4-0.2-0.5c0-0.1-0.1-0.1-0.1-0.2c0.1,0,0.1,0.1,0.2,0.1c0.3,0.2,0.5,0.4,0.8,0.5c0,0,0,0,0,0
				c-0.4-0.7-0.8-1.4-1.3-2.1c-0.1-0.1-0.1-0.2-0.2-0.3c0.1,0.1,0.1,0.2,0.2,0.2c0.6,0.8,1.2,1.4,1.8,2c0.4-0.1,0.7-0.3,1-0.4
				c-0.1-0.1-0.2-0.2-0.3-0.3c-0.1-0.1-0.1-0.1-0.2-0.2c0.1,0,0.1,0,0.2,0c0.2,0,0.5,0.1,0.7,0.1c0.2-0.2,0.4-0.4,0.6-0.6
				c-0.2-0.1-0.4-0.2-0.6-0.2c-0.1,0-0.1,0-0.2-0.1c0.1,0,0.1,0,0.2-0.1c0.6-0.3,1.1-0.6,1.5-1.1c0-0.1,0.1-0.2,0.1-0.3l-9.8,0
				C91.1,81.2,91.2,81.3,91.3,81.3z"/>
		</g>
		<g>
			<path fill="#2D4124" d="M90.7,80.2l-0.5-2.7c0-0.2-0.2-0.3-0.3-0.3c-0.1,0-0.2,0.1-0.2,0.3l0.6,3.1L90.7,80.2z"/>
			<path fill="#405933" d="M87,76.2c-0.3-0.4-0.5-0.8-0.7-1.2c0-0.1,0-0.1,0-0.2c0-0.1,0-0.2,0-0.4c0.2,0,0.4,0.1,0.6,0.2
				c0.1,0,0.1,0.1,0.2,0.1c-0.1-0.1-0.1-0.1-0.2-0.1c-0.2-0.2-0.4-0.5-0.6-0.8c0,0,0,0,0,0c0.7,0.3,1.5,0.7,2.2,1.1
				c0.1,0,0.2,0.1,0.3,0.1c-0.1-0.1-0.2-0.1-0.3-0.2c-0.8-0.5-1.6-1-2.2-1.5c0.1-0.4,0.2-0.8,0.3-1.1c0.1,0.1,0.2,0.1,0.3,0.2
				c0.1,0,0.1,0.1,0.2,0.1c0-0.1-0.1-0.1-0.1-0.2c-0.1-0.2-0.1-0.5-0.2-0.7c0.1-0.2,0.3-0.5,0.5-0.7c0.1,0.2,0.2,0.3,0.3,0.5
				c0,0.1,0.1,0.1,0.1,0.2c0-0.1,0-0.1,0-0.2c0.2-0.6,0.5-1.2,0.8-1.7c0.1-0.1,0.2-0.1,0.3-0.1c0.1,0.1,0.2,0.1,0.4,0.2
				c0.2,0.3,0.5,0.7,0.7,1.1c0,0.1,0,0.1,0.1,0.2c0-0.1,0-0.1,0-0.2c0.1-0.2,0.1-0.3,0.2-0.5c0.6,0.4,1.1,1,1.5,1.5
				c0.1,0.6,0,1.1-0.1,1.7c0,0.1,0,0.1-0.1,0.2c0.1,0,0.1-0.1,0.2-0.1c0.2-0.2,0.5-0.3,0.7-0.4c0,0,0,0,0,0.1c0,0.4,0,0.7,0,1.1
				c0,0.1,0,0.1,0,0.2c0.1,0,0.1-0.1,0.1-0.1c0.1-0.1,0.1-0.1,0.2-0.1c0,0.1,0.1,0.3,0.1,0.4c0.1,0.4,0.1,0.8,0,1.2
				c-1.2,0.7-2.2,1.9-2.6,3.3c0,0.1,0,0.1,0,0.2c0-0.1-0.1-0.1-0.1-0.2C89.3,78,88.2,77,87,76.2z"/>
			<path fill="#2D4124" d="M90,79.3C89.3,78,88.2,77,87,76.2c-0.3-0.4-0.5-0.8-0.7-1.2c0-0.1,0-0.1,0-0.2c0-0.1,0-0.2,0-0.4
				c0.2,0,0.4,0.1,0.6,0.2c0.1,0,0.1,0.1,0.2,0.1c-0.1-0.1-0.1-0.1-0.2-0.1c-0.2-0.2-0.4-0.5-0.6-0.8c0,0,0,0,0,0
				c0.7,0.3,1.5,0.7,2.2,1.1c0.1,0,0.2,0.1,0.3,0.1c-0.1-0.1-0.2-0.1-0.3-0.2c-0.8-0.5-1.6-1-2.2-1.5c0.1-0.4,0.2-0.8,0.3-1.1
				c0.1,0.1,0.2,0.1,0.3,0.2c0.1,0,0.1,0.1,0.2,0.1c0-0.1-0.1-0.1-0.1-0.2c-0.1-0.2-0.1-0.5-0.2-0.7c0.1-0.2,0.3-0.5,0.5-0.7
				c0.1,0.2,0.2,0.3,0.3,0.5c0,0.1,0.1,0.1,0.1,0.2c0-0.1,0-0.1,0-0.2c0.2-0.6,0.5-1.2,0.8-1.7c0.1-0.1,0.2-0.1,0.3-0.1l1.3,9.9
				C90.1,79.4,90.1,79.4,90,79.3z"/>
		</g>
	</g>
	<g>
		
			<ellipse transform="matrix(0.7889 -0.6145 0.6145 0.7889 -0.1804 93.2363)" fill="#DCDAC8" cx="135.6" cy="46.9" rx="5.1" ry="2.3"/>
		<path fill="#F2EFDC" d="M134.4,42.4c-1.2,0.2-2.2,1-2.7,2.1c-0.5,1.2-0.2,2.1,0.1,2c0.5-0.1,1,0,1.4,0.3c1.1,1.5,2.1,3.1,2.9,4.9
			c0.4,0.9,1.6,1.6,2.5,1.3c0.9-0.4,1.6-0.9,2.2-1.7c0.6-0.8,0.1-2.2-0.6-2.8c-1.5-1.2-2.8-2.5-4-4c-0.1-0.5-0.1-1,0.1-1.5
			C136.5,42.8,135.7,42.3,134.4,42.4z"/>
		<path fill="#F2EFDC" d="M132.8,41c-0.1,0.1-2.1,1.6-2.2,1.7c-2.8,2.2-3.6,5.8-1.9,8.1c1.3,1.6,4.1,2.3,5.9,1
			c0.6-0.4,0.4-1.5-0.3-1.7c-0.3-0.1-1,0.4-1.3,0.4c-0.5,0-0.9-0.3-1-0.6c-0.4-1.2,0.6-2.1,1.5-2.9l2.5-2c1-0.7,2.1-1.5,3.2-0.8
			c0.3,0.2,0.5,0.6,0.4,1.1c-0.1,0.3-0.7,0.9-0.7,1.2c0,0.8,1,1.2,1.6,0.7c1.7-1.5,1.8-4.4,0.5-6C139.4,38.9,135.6,38.8,132.8,41z"
			/>
	</g>
	<g>
		
			<ellipse transform="matrix(-0.4652 0.8852 -0.8852 -0.4652 176.2207 83.5275)" fill="#DCDAC8" cx="62.9" cy="95" rx="5.1" ry="2.3"/>
		<path fill="#F2EFDC" d="M65.9,98.5c1-0.7,1.6-1.8,1.6-3.1c0-1.3-0.7-2-0.9-1.7c-0.4,0.3-0.9,0.4-1.4,0.3c-1.6-0.9-3.2-2-4.6-3.2
			c-0.7-0.7-2.1-0.8-2.8-0.1c-0.7,0.7-1.1,1.5-1.3,2.5c-0.2,1,0.8,2.1,1.7,2.2c1.9,0.5,3.6,1.1,5.3,2c0.3,0.4,0.6,0.9,0.5,1.4
			C63.8,99.1,64.8,99.2,65.9,98.5z"/>
		<path fill="#F2EFDC" d="M67.8,99.2c0.1-0.1,1.2-2.4,1.3-2.5c1.7-3.1,0.9-6.8-1.7-8.1c-1.8-1-4.6-0.4-5.8,1.6
			c-0.4,0.7,0.2,1.5,1,1.5c0.3,0,0.7-0.7,1.1-0.9c0.4-0.2,0.9-0.1,1.2,0.2c0.9,1,0.3,2.2-0.2,3.3L63.2,97c-0.6,1-1.3,2.2-2.6,2
			c-0.4-0.1-0.7-0.4-0.8-0.9c-0.1-0.3,0.3-1.1,0.1-1.4c-0.4-0.7-1.4-0.7-1.8,0c-0.9,2.1,0.2,4.7,2,5.7
			C62.8,103.8,66.2,102.3,67.8,99.2z"/>
	</g>
	<g>
		
			<ellipse transform="matrix(6.274684e-02 -0.998 0.998 6.274684e-02 91.9097 135.4816)" fill="#DCDAC8" cx="118.1" cy="18.8" rx="3.2" ry="1.5"/>
		<path fill="#F2EFDC" d="M115.4,17.5c-0.4,0.7-0.5,1.5-0.1,2.2c0.4,0.7,0.9,1,1,0.8c0.2-0.3,0.4-0.5,0.7-0.6
			c1.2,0.1,2.4,0.3,3.5,0.7c0.6,0.2,1.4-0.1,1.7-0.7c0.2-0.6,0.3-1.2,0.1-1.8c-0.2-0.6-1-1-1.6-0.9c-1.2,0.2-2.4,0.3-3.6,0.2
			c-0.3-0.1-0.5-0.4-0.7-0.7C116.5,16.7,115.9,16.8,115.4,17.5z"/>
		<path fill="#F2EFDC" d="M114.1,17.7c0,0.1-0.1,1.7-0.1,1.8c-0.1,2.3,1.2,4.2,3.1,4.3c1.3,0.1,2.8-1,3-2.4c0.1-0.5-0.5-0.8-1-0.6
			c-0.2,0.1-0.2,0.6-0.4,0.8c-0.2,0.2-0.5,0.3-0.7,0.2c-0.8-0.3-0.8-1.2-0.7-2l0.1-2c0.1-0.8,0.2-1.6,1-1.9c0.2-0.1,0.5,0,0.7,0.3
			c0.1,0.2,0.1,0.7,0.3,0.8c0.4,0.3,1,0,1-0.5c0-1.5-1.4-2.7-2.7-2.8C115.8,13.6,114.2,15.4,114.1,17.7z"/>
	</g>
	<g>
		
			<ellipse transform="matrix(0.7209 0.693 -0.693 0.7209 113.362 -76.2987)" fill="#DCDAC8" cx="151.4" cy="102.6" rx="3.2" ry="1.5"/>
		<path fill="#F2EFDC" d="M154.1,101.4c-0.3-0.7-0.8-1.3-1.6-1.5c-0.8-0.2-1.4,0.1-1.2,0.3c0.1,0.3,0.1,0.6-0.1,0.9
			c-0.8,0.8-1.8,1.6-2.8,2.3c-0.5,0.3-0.9,1.1-0.6,1.7c0.3,0.5,0.7,1,1.3,1.2c0.6,0.3,1.4-0.1,1.7-0.6c0.6-1.1,1.3-2,2.2-2.9
			c0.3-0.1,0.6-0.2,0.9-0.1C154.1,102.8,154.3,102.2,154.1,101.4z"/>
		<path fill="#F2EFDC" d="M154.9,100.3c-0.1-0.1-1.2-1.2-1.3-1.2c-1.6-1.6-4-1.8-5.3-0.4c-0.9,0.9-1.1,2.8-0.1,3.9
			c0.3,0.4,1,0.1,1.1-0.4c0-0.2-0.3-0.6-0.4-0.8c0-0.3,0.1-0.6,0.3-0.7c0.8-0.4,1.4,0.2,2,0.7l1.5,1.4c0.5,0.5,1.1,1.2,0.8,1.9
			c-0.1,0.2-0.4,0.4-0.7,0.3c-0.2,0-0.6-0.4-0.8-0.3c-0.5,0.1-0.7,0.8-0.3,1.1c1.1,0.9,2.9,0.7,3.8-0.2
			C156.8,104.2,156.5,101.9,154.9,100.3z"/>
	</g>
	<g>
		<polygon fill="#DCDAC8" points="77.4,76.9 76,78.1 77.8,78.5 76,78.9 77.4,80.1 75.6,79.7 76.4,81.3 75,80.2 75,82 74.2,80.4 
			73.3,82 73.3,80.2 71.9,81.3 72.7,79.7 70.9,80.1 72.3,78.9 70.5,78.5 72.3,78.1 70.9,76.9 72.7,77.3 71.9,75.7 73.3,76.8 
			73.3,75 74.1,76.6 75,75 75,76.8 76.4,75.7 75.6,77.3 		"/>
		
			<ellipse transform="matrix(0.9003 -0.4354 0.4354 0.9003 -17.4286 32.5896)" fill="#71841F" cx="62.4" cy="54.3" rx="0.8" ry="18.7"/>
		<path fill="#405933" d="M62.9,55.8c4.5,8.6,8,15.7,7.6,15.9c-0.3,0.2-4.3-6.6-8.8-15.2c-4.5-8.6-8-15.7-7.6-15.9
			C54.4,40.4,58.4,47.2,62.9,55.8z"/>
		<path fill="#405933" d="M64,54.7c3.9,8.9,6.8,16.2,6.4,16.3c-0.4,0.1-3.8-7-7.8-15.9c-3.9-8.9-6.8-16.2-6.4-16.3
			C56.6,38.7,60.1,45.8,64,54.7z"/>
		<path fill="#F2EFDC" d="M71.8,61.9c-2.7-0.6-5.2-2.3-6.5-5c-0.1,0.8-0.1,1.7,0,2.5c-1.1-1.1-2.4-2-3.7-2.7
			c0.3,0.4,0.6,0.9,0.8,1.4c1.3,2.7,1.2,5.8-0.1,8.3c-1.5,2.6-1.7,5.8-0.3,8.7c2.2,4.6,7.8,6.6,12.5,4.4C79,77.3,81,71.7,78.8,67
			C77.4,64.2,74.7,62.3,71.8,61.9z"/>
		<g>
			<path fill="#E2D7AB" d="M71.8,61.9c-2.7-0.6-5.2-2.3-6.5-5c-0.1,0.8-0.1,1.7,0,2.5c-0.2-0.2-0.3-0.3-0.5-0.4
				c1.4,1.9,3.4,3.1,5.6,3.6c2.9,0.5,5.6,2.3,7,5.2c2.1,4.4,0.5,9.7-3.7,12.1c0.2-0.1,0.5-0.2,0.7-0.3C79,77.3,81,71.7,78.8,67
				C77.4,64.2,74.7,62.3,71.8,61.9z"/>
		</g>
	</g>
	<g>
		<circle fill="#FBAB18" cx="108.5" cy="96.2" r="7"/>
		<circle fill="#E39910" cx="108.5" cy="96.2" r="4.2"/>
	</g>
	<g>
		<circle fill="#FBAB18" cx="78.9" cy="42.6" r="4.6"/>
		<circle fill="#E39910" cx="78.9" cy="42.6" r="2.7"/>
	</g>
	<g>
		<g>
			<path fill="#F2EFDC" d="M89.8,57.7c-3.6-5.4-1.7-13.1,4.3-17.2l1.5-1c6-4,13.9-2.9,17.5,2.5c3.6,5.4,1.7,13.1-4.3,17.2l-1.5,1
				C101.3,64.3,93.5,63.1,89.8,57.7L89.8,57.7z M110.7,42.3c-2.7-4.1-8.9-4.7-13.9-1.4l-1.7,1.1c-4.9,3.3-6.7,9.3-4,13.4
				c2.7,4.1,8.9,4.7,13.9,1.4l1.7-1.1C111.6,52.4,113.4,46.4,110.7,42.3L110.7,42.3z"/>
		</g>
		<g>
			<path fill="#DCDAC8" d="M113.1,42.1c-0.4-0.6-0.9-1.1-1.4-1.6c3.1,5.4,1.1,12.6-4.7,16.5l-1.5,1c-5.4,3.6-12.2,3.1-16.1-0.9
				c0.1,0.2,0.2,0.4,0.4,0.6c3.6,5.4,11.5,6.6,17.5,2.5l1.5-1C114.8,55.2,116.8,47.5,113.1,42.1z"/>
		</g>
	</g>
	<g>
		<path fill="#6B3A55" d="M45.6,122.4c-7.5,5.3-10,13.5-5.7,18.1c3.5,3.7,10.1,5.4,15.7,3.8c0.4,0,0.9,0,1.5,0.3
			c1.4,0.9,2.9,2.2,4,4.3c0,0,0,0,0,0c-0.6-1.4-1.4-2.5-2.3-3.4c1,0.6,2,1.4,3.2,2.4c0,1,0.1,2.4,1.3,3.6c0,0,0,0,0,0
			c-0.8-1.1-0.8-2.2-0.8-3.2c0.4,0.4,0.9,0.8,1.3,1.3c0.4,1,1,2,1.7,3c0,0,0,0,0,0c-0.5-0.8-1-1.7-1.3-2.5c1,1,1.9,2.1,2.9,3.2
			c0,0,0,0,0,0c0,0,0,0,0,0c-1.3-2.1-2.3-4.2-3.1-6.1c1.1,1,2.3,2.4,3,4.2c0,0,0,0,0,0c-0.7-2.4-2.1-4-3.3-5.1
			c-0.1-0.2-0.2-0.4-0.2-0.7c0,0,0,0,0,0c0.6,0.2,1.3,0.5,1.9,1.1c-0.5-0.7-1.1-1.1-1.7-1.3c0.3-0.5,0.8-1.3,2.1-0.5c0,0,0,0,0,0
			c-1.7-1.3-2.1-0.1-2.5,0.1c-0.9-2.6-1.1-4.6-0.6-5.6c3.5-4.8,4.1-11.6,1.8-16.1C61.7,117.6,53.1,117.2,45.6,122.4z"/>
		<path fill="#48172D" d="M45.6,122.4C45.6,122.4,45.5,122.4,45.6,122.4l21.1,30.3c0.1,0.2,0.3,0.3,0.4,0.5c0,0,0,0,0,0c0,0,0,0,0,0
			c-1.3-2.1-2.3-4.2-3.1-6.1c1.1,1,2.3,2.4,3,4.2c0,0,0,0,0,0c-0.7-2.4-2.1-4-3.3-5.1c-0.1-0.2-0.2-0.4-0.2-0.7c0,0,0,0,0,0
			c0.6,0.2,1.3,0.5,1.9,1.1c-0.5-0.7-1.1-1.1-1.7-1.3c0.3-0.5,0.8-1.3,2.1-0.5c0,0,0,0,0,0c-1.7-1.3-2.1-0.1-2.5,0.1
			c-0.9-2.6-1.1-4.6-0.6-5.6c3.5-4.8,4.1-11.6,1.8-16.1C61.7,117.6,53.1,117.2,45.6,122.4z"/>
		<g>
			<g>
				<path fill="#2D4124" d="M20.8,118.7c10.4-12,23.7,4,24,4.6c-0.1,0.1-0.2,0.1-0.3,0.2c-1.3,0.7-6.9,3.9-8.4,3.4
					c-2-0.5-1.6-4.3-1.6-4.4c-1.8-0.9-4.1,2.6-5.9,2c-2-0.5-1.2-5.3-1.1-5.4c-1.8-0.9-4.6,3.5-6.4,3C20,122,20.5,120.3,20.8,118.7z"
					/>
				<path fill="#405933" d="M20.8,118.7c8.5-6.7,23.7,4,24,4.6c-0.1,0.1-0.2,0.1-0.3,0.2c-1.3,0.7-6.9,3.9-8.4,3.4
					c-2-0.5-1.6-4.3-1.6-4.4c-1.8-0.9-4.1,2.6-5.9,2c-2-0.5-1.2-5.3-1.1-5.4c-1.8-0.9-4.6,3.5-6.4,3C20,122,20.5,120.3,20.8,118.7z"
					/>
			</g>
			<g>
				<path fill="#2D4124" d="M34.5,99.1c-1.5,4.8-1.9-2.1-4.1-2.2c-0.5,0-1.4,0.2-2.3,0.6l18.1,25.9c0.1,0,0.2,0.1,0.2,0.1
					c0-0.1,0.1-0.2,0.1-0.3c0.5-1.4,2.4-7.3,1.7-8.6c-0.8-1.8-4.4-0.7-4.4-0.7c-1.2-1.5,1.6-4.3,0.8-6c-0.8-1.8-5.3-0.1-5.3,0
					c-1.2-1.5,1.5-4.8,1.7-6.7C41.1,99.8,36.1,94.3,34.5,99.1z"/>
				<path fill="#405933" d="M27.6,104c5,0.2-1.3-2.5-0.6-4.6c0.2-0.5,0.6-1.3,1.3-2l18.1,25.9c0,0.1,0,0.2,0,0.2c-0.1,0-0.2,0-0.3,0
					c-1.4,0-7.7-0.3-8.7-1.4c-1.4-1.4,0.8-4.4,0.9-4.4c-1-1.6-4.6,0.1-5.9-1.3c-1.4-1.4,1.7-5,1.8-5c-1-1.6-5-0.3-6.8-0.7
					C25.9,110.4,22.6,103.8,27.6,104z"/>
			</g>
			<g>
				<path fill="#405933" d="M49.7,98.5c-14.8,5.7-4.3,23.6-3.9,24.2c0.1-0.1,0.2-0.1,0.2-0.2c1.1-1,6-5.2,6.1-6.8c0.2-2-3.5-3-3.6-3
					c-0.2-2,3.8-3,4-4.9c0.2-2-4.6-2.9-4.7-2.9c-0.2-2,4.9-3.1,5.1-5C53,98.9,51.3,98.7,49.7,98.5z"/>
				<path fill="#2D4124" d="M49.7,98.5c-9.2,5.7-4.3,23.6-3.9,24.2c0.1-0.1,0.2-0.1,0.2-0.2c1.1-1,6-5.2,6.1-6.8c0.2-2-3.5-3-3.6-3
					c-0.2-2,3.8-3,4-4.9c0.2-2-4.6-2.9-4.7-2.9c-0.2-2,4.9-3.1,5.1-5C53,98.9,51.3,98.7,49.7,98.5z"/>
			</g>
		</g>
	</g>
	<g>
		<path fill="#DCDAC8" d="M36.6,134.3v21.6c0,13.1,10.6,23.7,23.7,23.7h84.1c13.1,0,23.7-10.6,23.7-23.7v-21.6H36.6z"/>
		<path fill="#F2EFDC" d="M36.6,134.3v19.3c0,11.7,10.6,21.3,23.7,21.3h84.1c13.1,0,23.7-9.5,23.7-21.3v-19.3H36.6z"/>
		<path fill="#6B3A55" d="M36.6,143.1v12.8c0,2.2,0.3,4.3,0.9,6.3h129.8c0.6-2,0.9-4.1,0.9-6.3v-12.8H36.6z"/>
		<path fill="#48172D" d="M102.3,143.1v12.8c0,2.2,0.2,4.3,0.4,6.3h64.9c0.3-2,0.4-4.1,0.4-6.3v-12.8H102.3z"/>
	</g>
</g>
</svg>
