<?xml version="1.0" encoding="utf-8"?>
<!-- Generator: Adobe Illustrator 18.0.0, SVG Export Plug-In . SVG Version: 6.00 Build 0)  -->
<!DOCTYPE svg PUBLIC "-//W3C//DTD SVG 1.1//EN" "http://www.w3.org/Graphics/SVG/1.1/DTD/svg11.dtd">
<svg version="1.1" id="Lag_1" xmlns="http://www.w3.org/2000/svg" xmlns:xlink="http://www.w3.org/1999/xlink" x="0px" y="0px"
	 viewBox="0 0 200 200" enable-background="new 0 0 200 200" xml:space="preserve">
<circle fill="#1F4948" cx="100" cy="100" r="90"/>
<g>
	<defs>
		<circle id="SVGID_1_" cx="100" cy="100" r="90"/>
	</defs>
	<clipPath id="SVGID_2_">
		<use xlink:href="#SVGID_1_"  overflow="visible"/>
	</clipPath>
	<polygon clip-path="url(#SVGID_2_)" fill="#264241" points="43.4,105.9 135.9,198.4 181.8,166.8 196.5,129.6 159.7,92.8 
		145.9,97.2 122.8,74.2 	"/>
</g>
<g>
	<path fill="#C24753" d="M125.6,110.3c-0.1,0.3-0.3,0.7-0.4,1.1c0,0,0,0,0,0c-1.5,3.9-3.9,9.9-7.3,15c-3.8,1.7-8.6,2.8-12.3,0.7
		c-7.7-3.5-10.3-12.8-17.4-17.1c-5.8-3.6-14.9-3.3-21.6-5.3c-6.3-1.9-22.4-10.9-21.2-19l0,0c7.9-14.2,38.3-21.8,52-20
		C109,67,120,75.5,125.7,84.1C131,92.1,128.7,101.9,125.6,110.3z"/>
	<path fill="#F6F9DA" d="M126.9,78.2c-7.4-9.1-20.4-14.9-32.9-15.5c-19.7-1-54.9,12.2-54.9,32.6c0,8.8,7.2,14.9,16.1,17.4
		c6.4,1.7,12.9,2.8,18.9,5.3c6.7,2.8,10,8.9,14.1,13.9c6,7.2,15.4,6.6,23.8,3.2c10.7-4.3,14.7-16.6,18.2-25.5
		C134.5,98.3,135,88.1,126.9,78.2z M125.6,110.3c-0.1,0.3-0.3,0.7-0.4,1.1c0,0,0,0,0,0c-1.5,3.9-3.9,9.9-7.3,15
		c-3.8,1.7-8.6,2.8-12.3,0.7c-7.7-3.5-10.3-12.8-17.4-17.1c-5.8-3.6-14.9-3.3-21.6-5.3c-6.3-1.9-22.4-10.9-21.2-19l0,0
		c7.9-14.2,38.3-21.8,52-20C109,67,120,75.5,125.7,84.1C131,92.1,128.7,101.9,125.6,110.3z"/>
	<path fill="#EFEFDB" d="M106.7,85.8c-2,8.6-22.6,5.2-25.6-1.3c-2.6-5.6,4.2-8,9.8-8.6C97.7,75.3,108.2,79.2,106.7,85.8z"/>
	<path opacity="0.36" fill="#999999" d="M111.1,135.5c-8.1,3-17,3.3-22.8-3.6c-4.2-5-7.4-11.1-14.1-13.9c-6.1-2.5-12.6-3.6-18.9-5.3
		c-9-2.4-16.1-8.5-16.1-17.4c0-2.1,0.4-4.1,1.1-6c0.1,6.6,5.5,13,12.3,16c7.3,3.2,15.2,4.6,22.3,7.4c2.9,1,6.3,2.1,8.8,3.5
		c2.5,1.5,4.1,4.2,5.8,6.4c2.5,3.8,6.1,10.7,11.2,12C103.1,135.1,107.1,135.6,111.1,135.5z"/>
	<path opacity="0.36" fill="#999999" d="M99.8,85.6c-1.6,1.2-5.5,0.4-7.5-0.1c-1.4-0.3-5.9-1.6-6.1-3.7c0-0.7,1.3-2.1,2.2-2.3
		c1.2-0.4,3.7-0.5,4.9-0.3c2.3-0.1,5.6,1.2,6.8,3C101,83.3,100.8,84.7,99.8,85.6z"/>
</g>
<g>
	<g>
		<path fill="#FA6010" d="M139.6,90.4c-6.6-0.8-13.8-2.9-17.3,4.8c-1.7,4.2-1.6,9.3-0.3,13.7c3.1,12.7,11.6,15.7,21,15.7
			c12.8,0,20.1-10.3,20.2-21.7c0.1-6.7-3.1-12.2-9.7-13.3C148.2,88.7,145.1,90.5,139.6,90.4L139.6,90.4z"/>
		<path fill="#E55617" d="M141.2,94.6c-6.2,0-10.7-2.5-10.2-3.5c0.5-1.2,5.1,0.2,6,0.4c1.4,0.2,2.7,0.5,4.1,0.4
			c1.6-0.1,1.3-0.1,2.8-0.3c1.2-0.2,2.6-1.2,3.6-0.4C148.5,92.2,145.9,94.6,141.2,94.6z"/>
		<path fill="#264241" d="M141.3,85.7c-0.3,1.4-0.7,2.7-0.8,4.2c-0.1,1.3,0.1,2.7,0.2,4.1c-0.3,0-0.7,0-1-0.2
			c-0.5-3.2-0.1-6.8-0.3-9.6c0.1-0.8,0.7-1,1.3-0.8C141.8,83.7,141.6,85,141.3,85.7z"/>
		<path fill="#FFA37B" d="M159.1,96.4c0,1.6-2.1,1.3-2.9,0.9c-1.3-0.5-5.5-1.2-6.4-2.3c-1.2-1.5,1-2.1,2.1-3.6
			c1.2-1.6,4.9,0.8,6,2.4C158.8,95.2,159.1,95.5,159.1,96.4z"/>
		<path fill="#E55617" d="M158.6,116.8c-3.4,5.3-9,8.9-16.5,8.9c-9.5,0-17.9-3-21-15.8c-1.3-4.3-1.4-9.5,0.3-13.7
			c1-2.2,2.4-3.7,3.9-4.5c-0.3,0.9-0.5,1.8-0.6,2.7c-0.3,2.6-0.1,5.2,0.3,7.8c0.8,4.8,3.7,9.5,7.4,12.6
			C139.1,120.5,150,120.7,158.6,116.8z"/>
	</g>
	<path fill="#F9400F" d="M122.6,100.7c-5.9-0.7-12.3-2.6-15.5,4.3c-1.5,3.7-1.5,8.3-0.3,12.2c2.7,11.3,10.3,14,18.7,14
		c11.4,0,18-9.2,18-19.4c0.1-6-2.8-10.9-8.7-11.9C130.3,99.2,127.5,100.8,122.6,100.7L122.6,100.7z"/>
	<path fill="#E83A18" d="M124,104.5c-5.5,0-9.5-2.2-9.1-3.1c0.5-1.1,4.6,0.2,5.3,0.4c1.3,0.2,2.4,0.4,3.7,0.4c1.4,0,1.2,0,2.5-0.2
		c1-0.2,2.3-1.1,3.2-0.3C130.6,102.3,128.3,104.5,124,104.5z"/>
	<path fill="#264241" d="M127.4,96.9c-0.7,1.1-1.4,2-2,3.2c-0.5,1.1-0.8,2.3-1.1,3.5c-0.3-0.1-0.6-0.2-0.8-0.4
		c0.6-2.8,2.1-5.7,2.8-8.1c0.4-0.7,0.9-0.7,1.4-0.3C128.4,95.5,127.8,96.4,127.4,96.9z"/>
	<path fill="#FF8976" d="M140.7,110.1c-0.5,2-2.5,1.1-3.2,0.4c-1.1-1-5.2-2.8-5.7-4.3c-0.8-2.2,1.7-2.2,3.3-3.8
		c1.7-1.6,4.8,2.2,5.3,4.5C140.8,108.6,141,109.1,140.7,110.1z"/>
	<path fill="#E83A18" d="M139.4,124.7c-3,4.7-8,7.9-14.7,7.9c-8.4,0-16-2.7-18.7-14c-1.2-3.9-1.2-8.4,0.3-12.2c0.9-2,2.1-3.3,3.5-4
		c-0.2,0.8-0.5,1.6-0.5,2.4c-0.3,2.3-0.1,4.7,0.3,7c0.7,4.2,2.5,10.9,5.8,13.7C121.2,130.4,131.8,128.1,139.4,124.7z"/>
</g>
</svg>
