<?xml version="1.0" encoding="utf-8"?>
<!-- Generator: Adobe Illustrator 18.0.0, SVG Export Plug-In . SVG Version: 6.00 Build 0)  -->
<!DOCTYPE svg PUBLIC "-//W3C//DTD SVG 1.1//EN" "http://www.w3.org/Graphics/SVG/1.1/DTD/svg11.dtd">
<svg version="1.1" id="Lag_1" xmlns="http://www.w3.org/2000/svg" xmlns:xlink="http://www.w3.org/1999/xlink" x="0px" y="0px"
	 viewBox="-26.6 0 853.1 800" enable-background="new -26.6 0 853.1 800" xml:space="preserve">
<g>
	<g>
		<path fill="#DCDAC8" d="M44.7,484.4l-2.4,1c-1.9-5.3-3.3-11.5-3.8-17.7L1.7,366.7c-1,0.5-1.9,0.5-2.9,1c-2.4,1,19.1,72.2,33,121.4
			l0,0v0.5l0,0c0.5,1.4,1,2.9,1.9,4.3l16.3-5.7l-0.5-1.9l-3.8,1.4L44.7,484.4z"/>
		<path fill="#DCDAC8" d="M63.4,477.7l-1.9,0.5c-1.9-5.3-3.8-11.5-4.8-17.7l-38.3-99.9c-1,0.5-1.4,0.5-2.4,1
			c-1.9,0.5,22,71.2,37.3,120l0,0v0.5l0,0c0.5,1.4,1,2.9,1.9,4.3l12.4-4.8l-1-1.9l-2.9,1L63.4,477.7z"/>
		<path fill="#DCDAC8" d="M83,470l-1.4,0.5c-2.4-5.3-3.8-11-5.3-17.2l-41.1-99c-0.5,0.5-1.4,0.5-1.9,1
			c-1.4,0.5,23.9,70.3,40.6,118.6l0,0v0.5l0,0c0.5,1.4,1.4,2.9,1.9,4.3l12-4.8l-1-1.9l-2.9,1L83,470z"/>
		<path fill="#DCDAC8" d="M87.3,469.1L87.3,469.1L87.3,469.1c-14.3-30.1-32.5-69.8-44-93.2l36.3,99.5l-51.2,18.6l-1-3.3l-2.9,1
			c-1.9-5.3-2.9-11.5-3.3-18.2l-36.8-100.9c-1,0.5-2.4,1-3.3,1c-2.9,1,17.7,72.7,30.6,122.4l0,0v0.5l0,0
			c9.1,24.9,28.2,42.6,49.7,40.6c30.6,94.2,48.8,155.4,79.4,249.6c2.4,7.7,13.4,15.3,23.9,11.5c10-3.8,13.9-16.7,11-23.9
			c-37.3-91.8-62.2-150.6-99.5-242.4C93.5,520.2,96.8,494.4,87.3,469.1C87.7,469.5,87.7,469.5,87.3,469.1
			C87.7,469.5,87.7,469.1,87.3,469.1z"/>
		<g>
			<g>
				<path fill="#F2EFDC" d="M91.1,468.1L91.1,468.1L91.1,468.1c0-0.5,0-0.5,0-0.5l0,0c-22-46.4-52.1-114.3-55-113.3
					c-2.9,1,24.9,69.8,42.1,118.1l-8.1,2.9c-20.6-46.9-48.8-115.7-51.2-114.8c-2.9,1,22.5,70.8,38.3,119.5l-8.1,2.9
					C29.9,435.6,4.1,365.8,1.7,366.7c-2.9,1,20.1,71.7,34.4,121l-8.1,2.9C10.3,442.8-13.2,372-15.5,373c-2.9,1,17.7,72.7,30.6,122.4
					l0,0l0,0v0.5l0,0c9.1,24.9,28.2,42.6,49.7,40.6c30.6,94.2,48.8,155.4,79.4,249.6c2.4,7.7,13.4,15.3,23.9,11.5
					c10-3.8,13.9-16.7,11-23.9c-37.3-91.8-62.2-150.6-99.5-242.4C96.8,519.3,99.7,493.4,91.1,468.1z"/>
			</g>
		</g>
	</g>
	<g>
		<path fill="#F16A54" d="M712.2,181.7l2.4-2.4c9.1-9.1,9.1-23.4,0-32.5l-0.5-0.5c-9.1-9.1-23.4-9.1-32.5,0l-2.4,2.4l-2.4-2.4
			c-9.1-9.1-23.4-9.1-32.5,0l-0.5,0.5c-9.1,9.1-9.1,23.4,0,32.5l2.4,2.4l33,33L712.2,181.7z"/>
		<path fill="#D95B46" d="M679.2,214.7l33-33l2.4-2.4c9.1-9.1,9.1-23.4,0-32.5l-0.5-0.5c-9.1-9.1-23.4-9.1-32.5,0l-2.4,2.4"/>
	</g>
	<g>
		<path fill="#F16A54" d="M193.9,253.9l1.9-1.9c7.2-7.2,7.2-18.2,0-25.3v-0.5c-7.2-7.2-18.2-7.2-25.3,0l-1.9,1.9l-1.9-1.9
			c-7.2-7.2-18.2-7.2-25.3,0v0.5c-7.2,7.2-7.2,18.2,0,25.3l1.9,1.9l25.3,25.3L193.9,253.9z"/>
		<path fill="#D95B46" d="M168.5,279.2l25.3-25.3l1.9-1.9c7.2-7.2,7.2-18.2,0-25.3v-0.5c-7.2-7.2-18.2-7.2-25.3,0l-1.9,1.9"/>
	</g>
	<g>
		<path fill="#00A0AE" d="M397.6,778.9c141.1,0,255.3-114.8,255.3-255.3c0-141.1-114.8-255.8-255.3-255.8"/>
		<path fill="#00B8C8" d="M397.6,267.8c-141.1,0-255.8,114.8-255.8,255.8s114.8,255.3,255.8,255.3"/>
		<g>
			<path fill="#DCDAC8" d="M642.4,592.9c-3.3,0-7.7,1.4-7.7,2.9c0,1-4.8,3.3-6.2,3.8c-1.4,0.5-4.3,5.3-5.3,6.7
				c-0.5,1.4-4.3,1-5.7,1.9c-1.4,0.5-4.3,2.9-4.3,4.3c0,1.4-1,1.4-1.9-0.5c0,0,0,0-1.9,1.9c-2.4,2.4-2.4,2.4-2.4,2.4
				c-1.4,3.8-5.3,9.1-6.7,9.1c-1.4,0.5-1.9,7.2-1.9,10c0,2.9,1,6.2,2.4,7.7c0,0,0,0,0.5,2.4c0.5,4.3,0.5,4.3,0.5,4.3
				c-1,3.3,1.9,6.2,2.4,7.2c1,0.5,7.2-1,9.6-1.9c1,0,2.4-1,3.3-1.4c11.5-19.1,20.1-39.2,26.3-61.2
				C643.3,592.9,642.9,592.9,642.4,592.9z"/>
			<path fill="#DCDAC8" d="M220.2,599.6c-0.5,0.5,4.3,5.3,6.2,7.2c1.9,1.4,5.7,9.1,6.2,12c1,2.4,0.5,6.7,0,7.7c0,1,1,2.9,1,3.8
				s-1.4,8.6-1,11.5c0.5,2.9-3.3,12.4-3.3,17.2c0,4.8,2.4,11,2.9,10.5c1-0.5,1,4.3-0.5,4.8c-1.4,0.5-2.9,4.3-2.4,4.3
				c1,0,0,3.8,0,5.3s1.4,11,1.9,13.4c0.5,2.4,3.8,8.1,4.3,10.5c1,1.9,1.4,5.7,1.9,6.2s0.5,1,0.5,1.4c0,0,2.9,1,3.8,1.4
				c1,0.5,6.2,0,8.1,0c1.9-0.5,0-1.9-0.5-2.9c-1-1-1.4-5.3-2.4-5.7c-1-0.5-1.4-5.7-0.5-7.2c1-1.4,4.3-3.3,4.3-4.3
				c0.5-1,0.5-5.7-0.5-6.7c-1-0.5,0.5-6.7-0.5-9.6c-0.5-2.9,4.8-5.7,5.3-7.7c0.5-2.4,6.7-4.8,7.7-5.7c1.4-1,2.4-7.7,1.9-9.1
				c-0.5-1.4,2.4-2.4,3.3-2.4c1,0,2.9-1,3.3-1c0.5,0,1.9-2.9,2.9-3.3c1-0.5,2.4-7.7,4.3-8.6c1.4-1,2.9-5.3,2.9-6.7
				c0-1.4,2.4-4.8,2.9-5.7c1-1,6.7-3.8,7.7-4.3c1-0.5,2.4-9.6,2.9-12.9c0.5-3.3,1.9-7.7,2.4-8.6c0-1,1.9-1.9,2.4-2.4
				c0.5-0.5,1.9-4.8,2.4-5.7c1-1,3.8-4.8,4.3-5.7c0-1,0.5-3.3,1-5.3c0,0,0,0,0-2.4c0-3.8,0-3.8,0-3.8c-1-2.9-4.3-6.2-4.8-5.3
				c-1,1-4.3-2.4-6.2-3.3c-1.9-0.5-6.2-1.4-7.7-1.4c-1,0-5.3-3.3-6.7-3.8c-1.9-0.5-6.2-1.4-7.2-1.9s-1.9-7.2-5.7-9.6
				c-3.8-2.4-10-7.2-10.5-9.1c-0.5-1.9-7.7-5.7-10-7.2c-1.9-1-5.3-1.4-5.7-1s-3.3-3.8-4.3-4.8c-1.4-1-5.7-1.9-5.7-1
				s-2.9,0.5-3.8-0.5c-0.5-1-2.9,0.5-3.8,0.5c-1,0.5-4.3,5.7-6.2,6.7c-1.4,1.4-3.3-1-4.8-1.4c-1-0.5-5.3,1-6.2,1.4
				c-1,1-3.8-5.7-2.9-8.6c0.5-2.9-2.9-8.6-5.3-9.1c-2.4,0-3.3-6.2-2.9-8.6s-4.3-3.8-5.7-3.8c-1.4,0-4.3,2.9-4.8,4.8
				c-0.5,1.4-12-1.9-10.5-9.1c1.4-6.7,6.7-13.9,8.1-14.8c1.4-1,8.6-1.4,10-0.5c1.4,1,2.9,0,3.3-0.5c0.5-0.5,6.2,0,8.1,1
				c1.9,1,4.3,7.7,6.2,8.6s2.4-4.3,2.9-5.7c0.5-1.4-1-4.8-1.4-5.3c-0.5-1,2.9-9.1,5.7-10.5c2.9-1.4,5.7-6.2,5.3-6.7
				c-0.5-1,2.4-1.4,2.9-1.9c0.5-0.5,0-7.2,1-8.6s6.2-4.3,8.1-5.3c1.4-0.5,2.9-4.8,2.4-5.7c-0.5-1,4.3-4.8,6.7-5.7
				c2.4-1,4.8,1.4,4.3,1.9c0.5-0.5,3.8-1.9,5.3-2.9c1.9-1,0-4.3-1-5.3c-1-1-0.5-4.8,1-4.8c1.4-0.5,2.4-3.3,2.4-4.3
				c-0.5-0.5,5.7,0.5,7.7-1c2.4-1.4,0.5,3.8-1,6.2c-1.4,2.4,1.4,4.3,2.4,3.8c1-0.5,2.4,1.4,2.4,1.9c0,0.5,2.4-0.5,3.8,0
				c1.4,0.5,2.4-1.9,2.4-3.3c0-1.4-3.3-3.8-4.3-5.3c-0.5-1.4-1-10-1-12c0-1.9-2.4-4.8-3.3-4.3c-1,0.5-2.4-4.8-3.3-5.7
				c-1.4-1-1.4-3.3-1.4-4.3s-4.3-5.3-5.3-7.2c-1-1.9-2.4-1.4-2.4-0.5s-2.9,1-4.3,1c-1.4,0-2.4-4.8-2.4-6.7s-5.3-1.9-6.2-3.3
				c-1-1.4-4.3-1-5.3-1.9c-0.5-1-3.8-1.9-4.3-1.4c-0.5,0.5-0.5,12.9-1,16.7c-0.5,3.3-3.3,6.2-4.8,6.2c-1,0-0.5,2.4,0.5,2.4
				c1,0-1.9,3.8-2.4,6.2c-0.5,2.4-2.9,0-3.3-2.4c-0.5-2.4-2.9-5.7-3.3-4.8c-0.5,1-2.4-1-2.9-0.5c-1,0.5-5.7-2.9-7.7-3.8
				c-1.9-1-2.9-7.2-4.3-7.7c-1-0.5,0-1.4,0-2.4s3.8-4.3,4.8-5.7c1-1.4,5.3-6.7,7.2-8.1c1.9-1.4,2.9-4.3,2.9-4.8
				c-0.5-0.5,7.2-2.9,9.1-3.8c1.9-0.5,3.8-6.2,3.8-8.1c0.5-1.4-1.4-4.8-2.4-5.3c-1-0.5,2.9-0.5,3.8,0c1.4,0.5,5.3-1,6.7-0.5
				c1.4,1,4.8,2.4,6.7,3.8c0,0,0,0-0.5,4.3c-1,7.2-1,7.2-1,7.2c-5.7,2.4-7.7,6.7-5.7,6.7c1.9,0,11.5,4.3,14.3,5.7
				c2.9,1.9,3.3-2.9,4.3-4.3c1-1.4,0.5-6.2,0-6.7c-0.5-1,2.9-0.5,4.3,0.5c1,1,2.4-1,2.9-1.4c1-0.5,1-4.3,1.4-4.8
				c0.5-1-1.9-1.4-1.9-2.4c0-1-4.3-2.9-5.7-3.3c-1.4-0.5-1.9-3.3-1-4.3c0.5-0.5-0.5-4.3-1-5.3c-0.5-1.4-5.3-2.4-6.7-2.4
				s-2.9-3.3-3.8-3.8c-1-0.5-6.7-1-8.1-0.5c-1.4,0.5-3.8-3.8-6.2-2.9c-2.4,1.4-4.8-1.4-5.7-2.4c-1-0.5-6.7,5.3-6.7,9.6
				s2.4,8.1,2.9,8.1c1,0,0,3.8-1,4.8s-3.3-1-2.4-1.9c1-1-2.4-5.3-3.3-7.2c-1-1.4-3.8-2.4-5.7-3.3c-1,1.4-2.4,2.4-3.3,3.8
				c0.5,1.4,1,3.3,0.5,4.8c-1,2.4-2.9,2.9-2.9,1.9c0-0.5-1-1-2.4-1c-31.1,37.3-51.6,83.2-57.4,133.4c1.4,1.4,2.9,2.9,2.9,4.3
				c0.5,2.4,4.8,3.8,5.3,4.3c1,0.5,1-4.3,0.5-5.7c-0.5-1.4,1-1.9,1-1c0,1,3.8,5.3,4.8,6.7c1.4,1.4,2.4,11.5,3.8,13.4
				c1,1.9,12.4,6.2,16.3,7.2c3.8,1,8.1,4.8,9.1,6.2c0.5,1,5.7,1.9,6.7,2.4c1,0.5,3.3,3.8,4.3,4.3s1.9,2.4,1.9,3.3
				c0,0.5,6.2,2.9,8.1,4.8c1.4,1.9,4.3,1.4,4.8,0.5c0.5-0.5,1.9,3.3,2.4,4.8c0.5,1.4,1,4.8,0.5,5.3c-0.5,0.5-1.4,7.2-2.4,8.1
				c-1,1.4-3.3,10.5-2.9,12.4c0.5,1.9,3.3,5.7,4.8,6.2c1.4,0.5,1,2.4-0.5,2.9c-1,0-0.5,9.1,1.9,10.5
				C218.7,594.8,220.7,598.6,220.2,599.6z"/>
			<path fill="#DCDAC8" d="M250.3,443.7L250.3,443.7L250.3,443.7z"/>
			<path fill="#DCDAC8" d="M233.1,336.1c2.9-0.5,8.1-1.4,8.6-2.4c0.5-0.5,0.5-2.9-0.5-3.3c0.5,0,1,0,1.4,0c1,0,2.9-6.2,4.3-7.7
				c1.4-1.4,8.1-3.8,10-4.8c1.4-1,5.3-4.3,6.7-4.8c1.4-0.5,3.3-3.8,3.3-4.3c-0.5-0.5,4.8-3.8,6.7-4.3c1.9-1,2.9-2.9,2.4-3.3
				c-0.5,0-11,5.7-21,11c-11,7.7-21.5,16.3-31.6,25.3C226.4,337.1,230.7,336.6,233.1,336.1z"/>
			<path fill="#DCDAC8" d="M417.7,654.1c3.3-1.9,8.6-10,10.5-12c1.9-1.9,3.3-8.1,3.3-9.1c0.5-1.4,3.3-3.3,4.3-3.8
				c1-0.5,4.3-13.9,7.2-17.2c2.9-2.9,6.2-17.7,5.7-23c-0.5-5.3,1.9-15.3,2.4-17.7c0.5-2.4,4.3-6.7,5.3-7.7c1-1,8.1-11.5,10.5-14.8
				c2.4-3.8,4.3-12,3.8-13.9s-5.3-3.3-6.2-2.4c-1,1-5.7,1.9-7.2,1.9s-4.8-7.7-7.2-9.6c-1.9-1.4-3.8-10.5-5.3-12.4
				c-1.4-1.9-4.8-6.2-5.7-7.2c-1-1-1.4-5.7-1.4-7.2s1.9,1,2.4,2.9s5.7,9.6,7.7,12.4c1.4,2.4,6.2,11,7.2,13.4c1,2.4,11,1.4,14.3,0
				s7.2-3.8,7.2-4.8c0-1,5.3-3.3,6.7-4.3s2.9-7.2,3.8-8.1c1-1-1-6.7-1.9-8.1c-1-1.9-6.2-2.9-7.2-2.4c-1,0.5-3.3-3.8-3.8-5.3
				c-1-1.4-4.8-3.8-5.3-4.8s1-2.9,1.4-3.3c0.5-0.5,7.7,4.8,10,7.2c1.9,2.4,4.3,7.2,4.8,8.1c0.5,1,6.2,1.4,7.2,0.5
				c1.4-1,2.9-0.5,3.3,0.5c0,0,0,0,1.9-0.5c6.2-1,6.2-1,6.2-1c2.9,3.3,3.8,5.7,3.8,6.7c0,0.5,1.9,3.3,2.9,3.3
				c1.4,0.5,1.9,4.3,2.4,5.3c0.5,1,3.8,7.2,4.8,9.6c1,2.4,3.8,7.7,4.3,9.1c1,1.4,1.4,5.3,1.4,6.2s2.4,3.3,3.8,2.9
				c1.4,0,4.3-9.1,4.8-12.4c0.5-3.3,2.9-6.2,3.3-6.2c0.5,0,1-1.9,1-2.4s3.8-0.5,3.8-1.4c0.5-1,1.4-6.7,2.9-7.7
				c1.4-1,5.7-3.8,7.7-4.3c1.4-0.5,5.7,2.9,6.7,4.8c1,1.4,1.9,5.7,1.4,6.7c-0.5,0.5,1.9,4.3,4.3,4.3c2.4,0,2.9,2.9,2.9,3.8
				c0,1,2.9,3.8,3.3,5.3c0.5,1.4,0.5,4.8,0,5.7c-0.5,1,0,5.3,0.5,6.7c0.5,1.4,7.2,8.1,9.6,10c2.4,1.9,3.8-4.3,2.4-6.2
				s-5.7-6.7-6.7-7.7c-1-1.4-1.4-6.7-1-8.1c0.5-1.4,3.8,1,5.3,1.9c1.4,1,3.3,3.3,3.3,4.3s9.1-4.3,9.6-9.6c0.5-5.3,3.3-11.5,3.8-12.9
				c0.5-1.4-1-3.3-1.4-3.3c-1,0,1.4-4.3,3.8-4.3s8.6-6.7,10-9.6s4.3-4.8,4.8-5.3c0.5-0.5,2.4-6.7,2.9-9.1c0.5-2.4-1.4-6.7-1.9-8.1
				c0-1.4-2.4-4.3-2.9-5.3c-0.5-1-1-4.8-1-5.3c0.5-0.5,2.4-1.4,2.9-1.9c0.5-0.5,2.9-3.3,2.9-4.8s1.4,1.4,2.9,2.4
				c1,1,2.4,7.7,3.8,8.1s7.7-6.7,6.7-12c-1-4.8,1.9-11,3.3-12c1-0.5,3.8-4.3,5.7-7.2c-12.9-37.8-34.9-71.7-63.1-99c-0.5,0-0.5,0-1,0
				c-2.4-0.5-2.4-0.5-2.4-0.5c-3.8-1-5.7-4.8-5.3-5.7c0-0.5,0-1,0-1.9c-1.9-1.9-4.3-3.8-6.2-5.3c-1.9,0-3.3,0-4.8,0
				c-2.4,0-7.2-1.4-7.7-2.4c-1-1-3.8,1-3.8,2.4c0,1.4-5.3,2.4-5.7,3.3c-0.5,1.4-2.9,1.4-3.3,0.5c-0.5-0.5-5.3,1.4-7.7,1.9
				c-2.4,0.5-6.7,2.4-7.7,2.9c-1,0.5-3.3,2.9-3.8,3.8c-0.5,1-3.3,2.9-4.3,2.9c-1,0.5-1,4.8,0.5,5.3c1.4,0.5-2.4-0.5-3.8-1.4
				c-1.4-1-3.3,1.9-3.8,2.9c-0.5,1-1.9-0.5-1.9-1.9c0-1.4-3.8-2.4-4.3-1.4c-0.5,1-3.3-0.5-4.3-1c-1-0.5-5.7,4.3-7.7,6.2
				s-10.5,3.3-12,2.4c-1.4-0.5-3.3,3.8-1.9,4.3c1.4,0.5-3.3,0-6.2,0c-2.9,0.5-10.5,3.3-12,4.8c-1.9,1.4-3.3-0.5-3.3-1.4
				c0-1-2.9-1.9-3.8-2.4c-1-0.5-2.4,5.7-4.3,6.7c-1.4,1-3.3-4.8-7.2-5.7c-3.8-1-9.1-4.3-11-4.8c-1.4-0.5-4.8-3.8-5.7-4.8
				c-1-1-5.7-1.9-7.2-1.9s-6.2,2.9-7.7,3.8c-1.4,1-3.3,1-3.8,1.4c-0.5,0.5-6.2,5.7-8.1,7.2c-1.9,1.4-5.7,8.6-6.7,10.5
				c-1.4,1.9-2.9,1.9-3.8,1.9c-0.5,0-1.4,1.9-1.4,2.4s-6.2,3.8-6.7,6.7c-0.5,2.9,0.5,9.1,0.5,11.5c0,2.4,2.4,6.7,3.8,6.7
				c1.9,0,1,3.8,0.5,4.8c-0.5,1,1,2.4,1,3.3c0,1-4.3,2.4-5.7,2.9c-1.4,0.5-3.3,3.3-3.8,4.8c-0.5,1-4.3,1.4-5.7,2.9
				c0.5-1,1-2.4,1-2.9c1-1.4-0.5-4.3-1-4.8c-0.5-0.5-1-8.1-1.9-9.6c-1-1.4-3.8-4.3-4.3-4.8c-0.5-0.5,0.5-2.4,1-3.3
				c0.5-1-3.3-1.4-4.3-0.5c-1,0.5-1.4,8.1-1.9,10c-0.5,1.9,1.9,5.3,2.4,5.3s0.5,3.8-1,3.8c-1.4,0-2.4,5.3-1.9,6.7s-1,3.3-1.9,4.3
				c-1,0.5,5.3,0,8.1,0s4.8,1,4.8,1.4c-0.5,0-5.3,1-6.2,1.9c-1,1-4.3,3.3-4.8,4.3c-0.5,1,1,2.9,2.4,2.9s2.9,4.8,4.3,5.7
				c1,1,0.5,3.3,0,4.3c-0.5,0.5-7.2-0.5-9.6,0c-2.4,0.5-5.7,5.7-5.7,8.1c0,1.9,0.5,7.7,1,9.6c0.5,1.4,5.7,2.4,6.7,3.3s6.2,0,7.2,0.5
				c1,0.5,4.3-5.3,5.3-7.7c0.5-2.9,6.2-7.7,7.2-9.1c1-1.9,7.2-1.4,8.6-2.4c1.4-1,0.5,4.3,1.4,7.2c0.5,2.9,6.2,2.4,5.3,0
				c-1-2.9,0.5-3.8,1-2.9c0.5,1,5.7,3.3,6.7,4.8c1,1.4,1,4.8-0.5,4.8c-1.4,0-1.4,3.8,0,3.8c1.4,0.5,2.9-4.3,4.3-4.8
				c1.4-0.5,2.4-3.3,1.9-3.8c-0.5,0,1-2.9,1.9-1.9c1,1-2.9-5.3-5.3-7.7c-2.4-2.4-0.5-1.4,3.8,2.4c0,0,0,0,2.9,4.3
				c0.5,1,1.4,2.9,1.9,3.8c0.5,1.4,0.5,1.4,0.5,1.4c0.5,1.4,1,5.3,1,6.7c0,1,2.4,3.3,3.8,2.9c1.4,0,2.4,0.5,2.4,1
				c-0.5,0,1,2.9,2.4,2.9s1.9-3.3,0.5-3.8c-1.4,0-1-5.3-1.4-7.7c0-2.4,1-4.3,1.4-4.3s0,4.8,0,5.7c0,1,0.5,3.3,1.4,4.8c0,0,0,0,1.4,1
				c3.3,2.4,3.3,2.4,3.3,2.4c4.8-1.4,11-0.5,10.5,0.5c-0.5,1,3.3,1,3.8-0.5c0-1.4,0.5,0,0.5,1c0,1-2.9,5.3-3.3,7.2
				c-0.5,1.9-11,0.5-15.8,0.5c-4.8-0.5-11.5,1.4-12,2.4c-0.5,1.4-7.7-3.3-11-4.3c-3.3-1.4-5.7-6.2-6.7-7.2c-0.5-0.5,0.5-2.4,0.5-3.3
				c-0.5-1-7.7-1.4-10-0.5c-2.4,1-13.4,1.9-16.3,3.3c-2.9,1-6.7,0-8.1-0.5c-1.4,0-4.3,3.3-5.7,4.3c-1.4,0.5-3.3,5.7-4.3,11.5
				c0,0,0,0-1.9,3.8c-1.4,2.4-1.4,2.4-1.4,2.4c-3.8,2.9-7.7,12.4-9.1,14.3s-2.4,15.3-2.4,20.1c0,4.8,3.8,14.3,5.3,16.7
				c1,2.9,8.1,8.6,10.5,10c2.4,1.4,9.6,1.4,12.4,1.4c2.4,0,5.3-2.4,6.2-5.3c0,0,0,0,3.8,0.5c1.4,0,1.4,0,1.4,0
				c0,1.9,5.3,3.8,6.7,4.3c1.4,0.5,4.8,0,5.7,0c1-0.5,2.4,9.1,1.4,12c-1,2.9,1.9,12.4,2.4,15.3c1,2.9,3.8,10.5,4.3,13.4
				c0.5,2.9-1.9,12-2.4,15.3c-0.5,3.3,4.3,12.4,5.3,15.8c1,3.3,1.9,10,1.9,11.5c0,1.4,4.8,11,5.7,14.8
				C402.4,655.1,414.3,656,417.7,654.1z"/>
			<path fill="#DCDAC8" d="M628.5,537.9c0.5,0.5,3.3-1.9,5.3-1.9c1.9-0.5,2.9-5.3,1.4-5.7c-1.4-0.5-3.3-4.3-4.3-4.8
				c-1-0.5-2.9,1.4-2.9,3.3c0,1.4-3.3,1.9-3.8,3.3c-0.5,1.4-0.5,2.4,0,1.9C624.7,534.1,628,537.4,628.5,537.9z"/>
			<path fill="#DCDAC8" d="M624.7,565.2c1-0.5,0-5.3-1.9-5.7c-1.9-0.5-7.2,6.2-6.2,10.5c1,3.8,1.9,3.8,2.9,2.9c0.5-1,3.8,0.5,4.8,1
				c1,0.5,1-0.5,0-1.9C622.8,570,623.7,565.2,624.7,565.2z"/>
			<path fill="#DCDAC8" d="M614.2,560.4c0-1.9,0.5-7.2,1-8.1c0.5-1-2.9-4.3-4.8-4.8c-1.4-0.5-6.7,10.5-10.5,12.4
				c-3.8,1.9-5.3,8.6-4.3,10.5c1,1.4,8.6,2.4,10,3.8c1.4,1,2.9,0,3.8-0.5c1,0,0.5-0.5,0.5-1c-0.5,0,2.9-3.3,3.3-5.3
				C613.2,565.2,614.2,561.8,614.2,560.4z"/>
			<path fill="#DCDAC8" d="M593.1,579c-2.9-1-6.2,0.5-6.7,1.9c-0.5,1,11,2.9,14.8,3.8c3.8,1,6.2,1.4,5.3,1
				C606,584.8,596,580,593.1,579z"/>
			<path fill="#DCDAC8" d="M616.6,504.4c1-1.4-1.4-7.2-2.4-5.7s-0.5,4.8,0,6.2C614.2,505.9,615.6,505.9,616.6,504.4z"/>
			<path fill="#DCDAC8" d="M623.3,517.4c0.5-1.4-1-3.3-3.3-3.8c-2.4-0.5-1.9,6.7-1,7.7C619.9,522.1,622.8,518.8,623.3,517.4z"/>
			<path fill="#DCDAC8" d="M636.2,563.3c2.9,1.9,9.6,1,9.6-2.9C642.9,558.5,635.7,559,636.2,563.3z"/>
			<path fill="#DCDAC8" d="M634.7,472.4c-1.4,1-1.9,2.9-1.4,3.8h-0.5c-1,0-1,3.8,0,4.8c1,0.5,3.3-2.9,4.8-3.8s3.8-1.4,4.3-1
				c0.5,0.5,2.9-0.5,5.3-1.4c0.5,0,1-1,1.4-1.9c-0.5-2.9-1.4-5.7-1.9-8.6c-1.4,1-2.4,1.9-3.3,2.4C641.9,467.6,636.2,471,634.7,472.4
				z"/>
			<path fill="#DCDAC8" d="M566.8,550.8L566.8,550.8C566.4,550.3,566.4,550.3,566.8,550.8z"/>
			<path fill="#DCDAC8" d="M585.5,568c-1-2.4-4.8-6.7-7.7-9.1c0,0,0,0-1.4-1.9c-1.4-2.4-1.4-2.4-1.4-2.4c-1.4-2.4-4.8-4.3-5.3-5.3
				c-0.5-0.5-1.4,1.9-2.9,1.4c0.5,0.5,1.9,1.4,3.8,2.9c3.3,2.4,10,19.1,11.5,20.1C584.1,574.7,586.4,570.4,585.5,568z"/>
			<path fill="#DCDAC8" d="M532.4,540.8c-1,1.9,4.8,5.7,5.3,4.8c0.5-1-1-5.7-1.9-6.7C535.3,538.4,533.4,538.9,532.4,540.8z"/>
			<path fill="#DCDAC8" d="M455.4,629.7c0,1.9,4.3,3.3,5.3,3.3c1-0.5,4.3-6.2,4.8-8.1c0.5-1.9,1-5.3,1-6.2c0-1,0.5-2.9,1-2.9
				s1-2.4,1.4-4.3c0.5-2.4-2.4-12.9-2.4-14.8c0-1.9-2.4,1-2.9,2.9c-0.5,1.9-5.7,5.7-7.2,7.2c-1,1.4-2.4,7.2-1.9,7.7
				c0.5,1-0.5,4.8-1,5.7C453.5,621.1,455.4,627.8,455.4,629.7z"/>
			<path fill="#DCDAC8" d="M267,702.4c1,0,2.4,0,3.3,0C271.3,698.6,267,699.5,267,702.4z"/>
			<path fill="#DCDAC8" d="M360.8,307c-1.4,0-5.3-0.5-5.7-1.4c-0.5-0.5-6.2-1.4-8.1-0.5c-1.4,0.5-0.5-3.8,1.9-4.3
				c2.4-0.5,0.5-3.8-1.9-3.8c-2.4,0-8.6-1-10-0.5c-1.4,0.5-4.3-1-5.3-1c-1,0-8.1,2.4-11.5,1.9c-3.3,0-12,0-13.9,0.5
				c-1.9,0.5-3.3,3.8-2.9,5.3c0.5,1.4-8.1,1.4-11,1.4c-2.9,0-16.7,2.9-20.6,5.3c-3.8,1.9-6.7,7.2-5.3,7.2c1.4,0-1.9,2.9-3.8,3.8
				c-1.9,0.5-6.7,1-7.7,1.9c-1,1,1,1.9,1.4,2.4c0.5,1,1.9-0.5,2.9,0c1.4,0.5,5.3,1,6.2,1.4c1,0.5-3.3,1.4-5.7,1.4
				c-2.4,0-1.4,4.3,0,4.8c1.9,0.5,6.2,1.4,6.7,0.5c0.5-1,5.3,1,7.7,1c2.4,0.5,3.8,5.7,4.8,7.2c0.5,1.4,1,5.3,0.5,6.7
				c0,1.4,3.8,3.3,4.8,2.9c0.5-1,0.5,1.9-1,1.9c-1.4,0-0.5,4.8,1.4,5.3c1.9,0.5,0.5,3.3-0.5,4.3c-1,1-0.5,3.8-1.9,4.8
				c-1,1,4.3,10.5,4.3,15.3s2.9,8.6,4.3,8.6c1,0,5.3,1,5.7,1.9c0.5,1,2.4-0.5,3.3-1.4c1-1,2.4-2.9,3.3-5.3
				c1.4-1.9,3.8-11.5,4.3-12.9c0.5-1,4.8-0.5,5.7-1s3.8-2.9,4.8-3.3s7.2-3.3,9.1-4.8c1.9-1.4,4.8-6.7,6.2-7.7c1.4-1-0.5-1-2.4-1.9
				c-1.9-1-1-2.4-0.5-2.9c0.5-0.5,5.7,1,7.7,1.4c1.9,0.5,5.3-1.9,3.8-2.9c-1.4-1-0.5-1,0-0.5c0.5,0.5,1.4-3.3,0.5-3.8
				c-0.5-0.5,5.3-4.8,4.3-9.1c-1-4.3,1.4-8.1,3.3-8.1c1.4,0,1-4.8-1-5.3c-1.9-0.5,0-1,0.5-1.4c0.5-0.5,1.4-4.8,1.4-5.7
				c-0.5-1,2.9-1.4,3.3-2.4c0.5-1,4.3-2.9,5.7-2.9C361.2,310.3,362.2,307,360.8,307z"/>
			<path fill="#DCDAC8" d="M393.8,310.3c-1.9-0.5-5.7,1.4-5.3,2.4s-2.9-1.4-5.3,0c-2.4,1.4-2.9,5.7-1.9,6.2c1,0.5,1.9,3.8,1.9,4.8
				c0,0.5,4.8,0,5.7-1c1-1,1,3.3,0,4.8c-1,1.4,0.5,3.8,1.9,3.8c1.4,0,2.9,3.3,4.3,3.3s3.8-5.3,4.3-7.2s4.8-0.5,7.2,0
				c1.9,0.5,2.9-7.2,0.5-8.1c-2.4-1-4.8-0.5-5.7-1.4c-1-1-2.4-1.9-3.3-1.9C396.6,315.6,395.7,310.8,393.8,310.3z"/>
			<path fill="#DCDAC8" d="M411.9,314.1c3.8,0.5,7.7-2.4,8.6-3.3c1-1-10-2.9-14.3-3.3c-4.3,0-7.7,0.5-7.7,1.4
				C399,309.8,408.1,313.7,411.9,314.1z"/>
			<path fill="#DCDAC8" d="M345.9,411.7c-1-0.5-1.4,3.3-1.4,4.3c0,1.4,3.3,1.4,4.8,1c1.4,0,2.4-1.4,2.4-2.4s-1.9-6.7-2.9-6.7
				C348.3,407.9,346.9,412.2,345.9,411.7z"/>
			<path fill="#DCDAC8" d="M356.9,370.1c-1-1.4-6.2-1-7.7-1.4c-1.4,0-5.7-1.4-6.2-2.4c-1-1-1.4,3.3-2.9,3.8c-1.4,0.5,0.5,1.4,1,1
				c0.5-0.5,0,2.4-0.5,3.3c-0.5,1,3.8,1.4,4.3,2.9c0.5,1.4,2.4,2.4,3.8,1.9c1.9-0.5,5.3-1.9,6.2-2.4
				C356,377.3,357.4,371.5,356.9,370.1z"/>
			<path fill="#DCDAC8" d="M475.5,337.6c1.9-1.9,10-4.8,11-6.7c1-1.9-0.5-3.8-1.4-3.8c-1,0-1.9,1-1.9,1.4c0,0.5-9.6,2.4-12,3.8
				c-2.9,1.4-6.2,3.3-7.2,4.8c-1,1.4-3.3,10.5-3.8,11.5c-0.5,1,2.9,4.8,4.8,5.7c1.4,1,3.8,0.5,4.8,0.5c0.5,0-1-6.7-1.9-8.6
				C466.4,343.8,473.6,339.5,475.5,337.6z"/>
			<path fill="#DCDAC8" d="M465.5,314.1c2.9,2.9,4.8-1.4,8.1-1C473.6,307,465.5,308.9,465.5,314.1z"/>
			<path fill="#DCDAC8" d="M524.3,315.1c0,1,8.1,1.9,11,1.4c2.4-0.5-0.5-4.3-4.3-3.8C527.6,312.7,524.3,314.1,524.3,315.1z"/>
			<path fill="#DCDAC8" d="M218.7,377.7c-1,1,0,4.8,1.4,5.3c1.9,0,4.3-6.2,6.7-4.8c1.9,1.4,3.3,1.9,3.3,1c-0.5-0.5-6.2-3.3-7.2-3.8
				C222.1,374.9,219.7,376.8,218.7,377.7z"/>
			<path fill="#DCDAC8" d="M240.3,517.8c0,0.5,3.8,0.5,4.3-0.5c0.5-1,0.5-1.9-1-1.9C242.7,515.4,240.3,517.4,240.3,517.8z"/>
			<path fill="#DCDAC8" d="M224,512.1c1.9-0.5,1,2.4,1.4,3.3c0.5,1,4.8,1.9,5.3,2.4c1,0.5,2.9-1.4,4.8-1c1.9,0-0.5-5.7-3.3-5.7
				c-2.9,0-5.3-2.4-5.7-2.9s-3.8-2.4-4.8-2.9c-1-1-8.1-1.4-10.5-1.4s-5.3,2.4-5.7,3.3c-0.5,1,3.8,1.4,5.3,1c1.4-0.5,7.2,1,8.1,1.9
				C219.7,511.6,222.1,512.1,224,512.1z"/>
			<path fill="#DCDAC8" d="M215.9,517.8c0,0.5,3.8,0.5,4.8,0.5s1-0.5,0-1.4C219.7,516.4,215.9,517.4,215.9,517.8z"/>
			<path fill="#DCDAC8" d="M218.7,498.7c-1-0.5-1.9,1-1.9,1.9c0,0.5,0.5,1.4,1,1.4C218.3,502.1,219.7,499.2,218.7,498.7z"/>
			<path fill="#DCDAC8" d="M226.4,499.7c-0.5-0.5-1.9-1.4-2.4-1.4c-0.5,0-1,1.4-1,2.9C223.5,502.5,226.9,500.1,226.4,499.7z"/>
			<path fill="#DCDAC8" d="M232.1,508.3c1.4-1,1.9-2.4,1-2.4c-1,0-2.4-2.4-3.3-2.9c-1-0.5-1.9,1.4-1.9,2.4s0.5,1.4,1.4,1.4
				C229.7,506.4,230.7,508.7,232.1,508.3z"/>
			<path fill="#DCDAC8" d="M647.2,566.6c-1,0.5-4.3,1-4.8,0c-0.5-1-1.4,1.4-1.9,1.9c-1,0.5-0.5,2.4,1,1.9c1-0.5,4.3,1.4,7.2,3.3
				c0.5-2.9,1-5.7,1.4-8.6C649.1,565.6,647.6,566.1,647.2,566.6z"/>
		</g>
		<g>
			<path fill="#F2EFDC" d="M220.2,599.6c-0.5,0.5,4.3,5.3,6.2,7.2c1.9,1.4,5.7,9.1,6.2,12c1,2.4,0.5,6.7,0,7.7c0,1,1,2.9,1,3.8
				s-1.4,8.6-1,11.5c0.5,2.9-3.3,12.4-3.3,17.2c0,4.8,2.4,11,2.9,10.5c1-0.5,1,4.3-0.5,4.8c-1.4,0.5-2.9,4.3-2.4,4.3
				c1,0,0,3.8,0,5.3s1.4,11,1.9,13.4c0.5,2.4,3.8,8.1,4.3,10.5c1,1.9,1.4,5.7,1.9,6.2s0.5,1,0.5,1.4c0,0,2.9,1,3.8,1.4
				c1,0.5,6.2,0,8.1,0c1.9-0.5,0-1.9-0.5-2.9c-1-1-1.4-5.3-2.4-5.7c-1-0.5-1.4-5.7-0.5-7.2c1-1.4,4.3-3.3,4.3-4.3
				c0.5-1,0.5-5.7-0.5-6.7c-1-0.5,0.5-6.7-0.5-9.6c-0.5-2.9,4.8-5.7,5.3-7.7c0.5-2.4,6.7-4.8,7.7-5.7c1.4-1,2.4-7.7,1.9-9.1
				c-0.5-1.4,2.4-2.4,3.3-2.4c1,0,2.9-1,3.3-1c0.5,0,1.9-2.9,2.9-3.3c1-0.5,2.4-7.7,4.3-8.6c1.4-1,2.9-5.3,2.9-6.7
				c0-1.4,2.4-4.8,2.9-5.7c1-1,6.7-3.8,7.7-4.3c1-0.5,2.4-9.6,2.9-12.9c0.5-3.3,1.9-7.7,2.4-8.6c0-1,1.9-1.9,2.4-2.4
				c0.5-0.5,1.9-4.8,2.4-5.7c1-1,3.8-4.8,4.3-5.7c0-1,0.5-3.3,1-5.3c0,0,0,0,0-2.4c0-3.8,0-3.8,0-3.8c-1-2.9-4.3-6.2-4.8-5.3
				c-1,1-4.3-2.4-6.2-3.3c-1.9-0.5-6.2-1.4-7.7-1.4c-1,0-5.3-3.3-6.7-3.8c-1.9-0.5-6.2-1.4-7.2-1.9s-1.9-7.2-5.7-9.6
				c-3.8-2.4-10-7.2-10.5-9.1c-0.5-1.9-7.7-5.7-10-7.2c-1.9-1-5.3-1.4-5.7-1s-3.3-3.8-4.3-4.8c-1.4-1-5.7-1.9-5.7-1
				s-2.9,0.5-3.8-0.5c-0.5-1-2.9,0.5-3.8,0.5c-1,0.5-4.3,5.7-6.2,6.7c-1.4,1.4-3.3-1-4.8-1.4c-1-0.5-5.3,1-6.2,1.4
				c-1,1-3.8-5.7-2.9-8.6c0.5-2.9-2.9-8.6-5.3-9.1c-2.4,0-3.3-6.2-2.9-8.6s-4.3-3.8-5.7-3.8c-1.4,0-4.3,2.9-4.8,4.8
				c-0.5,1.4-12-1.9-10.5-9.1c1.4-6.7,6.7-13.9,8.1-14.8c1.4-1,8.6-1.4,10-0.5c1.4,1,2.9,0,3.3-0.5c0.5-0.5,6.2,0,8.1,1
				c1.9,1,4.3,7.7,6.2,8.6s2.4-4.3,2.9-5.7c0.5-1.4-1-4.8-1.4-5.3c-0.5-1,2.9-9.1,5.7-10.5c2.9-1.4,5.7-6.2,5.3-6.7
				c-0.5-1,2.4-1.4,2.9-1.9c0.5-0.5,0-7.2,1-8.6s6.2-4.3,8.1-5.3c1.4-0.5,2.9-4.8,2.4-5.7c-0.5-1,4.3-4.8,6.7-5.7
				c2.4-1,4.8,1.4,4.3,1.9c0.5-0.5,3.8-1.9,5.3-2.9c1.9-1,0-4.3-1-5.3c-1-1-0.5-4.8,1-4.8c1.4-0.5,2.4-3.3,2.4-4.3
				c-0.5-0.5,5.7,0.5,7.7-1c2.4-1.4,0.5,3.8-1,6.2c-1.4,2.4,1.4,4.3,2.4,3.8c1-0.5,2.4,1.4,2.4,1.9c0,0.5,2.4-0.5,3.8,0
				c1.4,0.5,2.4-1.9,2.4-3.3c0-1.4-3.3-3.8-4.3-5.3c-0.5-1.4-1-10-1-12c0-1.9-2.4-4.8-3.3-4.3c-1,0.5-2.4-4.8-3.3-5.7
				c-1.4-1-1.4-3.3-1.4-4.3s-4.3-5.3-5.3-7.2c-1-1.9-2.4-1.4-2.4-0.5s-2.9,1-4.3,1c-1.4,0-2.4-4.8-2.4-6.7s-5.3-1.9-6.2-3.3
				c-1-1.4-4.3-1-5.3-1.9c-0.5-1-3.8-1.9-4.3-1.4c-0.5,0.5-0.5,12.9-1,16.7c-0.5,3.3-3.3,6.2-4.8,6.2c-1,0-0.5,2.4,0.5,2.4
				c1,0-1.9,3.8-2.4,6.2c-0.5,2.4-2.9,0-3.3-2.4c-0.5-2.4-2.9-5.7-3.3-4.8c-0.5,1-2.4-1-2.9-0.5c-1,0.5-5.7-2.9-7.7-3.8
				c-1.9-1-2.9-7.2-4.3-7.7c-1-0.5,0-1.4,0-2.4s3.8-4.3,4.8-5.7c1-1.4,5.3-6.7,7.2-8.1c1.9-1.4,2.9-4.3,2.9-4.8
				c-0.5-0.5,7.2-2.9,9.1-3.8c1.9-0.5,3.8-6.2,3.8-8.1c0.5-1.4-1.4-4.8-2.4-5.3c-1-0.5,2.9-0.5,3.8,0c1.4,0.5,5.3-1,6.7-0.5
				c1.4,1,4.8,2.4,6.7,3.8c0,0,0,0-0.5,4.3c-1,7.2-1,7.2-1,7.2c-5.7,2.4-7.7,6.7-5.7,6.7c1.9,0,11.5,4.3,14.3,5.7
				c2.9,1.9,3.3-2.9,4.3-4.3c1-1.4,0.5-6.2,0-6.7c-0.5-1,2.9-0.5,4.3,0.5c1,1,2.4-1,2.9-1.4c1-0.5,1-4.3,1.4-4.8
				c0.5-1-1.9-1.4-1.9-2.4c0-1-4.3-2.9-5.7-3.3c-1.4-0.5-1.9-3.3-1-4.3c0.5-0.5-0.5-4.3-1-5.3c-0.5-1.4-5.3-2.4-6.7-2.4
				s-2.9-3.3-3.8-3.8c-1-0.5-6.7-1-8.1-0.5c-1.4,0.5-3.8-3.8-6.2-2.9c-2.4,1.4-4.8-1.4-5.7-2.4c-1-0.5-6.7,5.3-6.7,9.6
				s2.4,8.1,2.9,8.1c1,0,0,3.8-1,4.8s-3.3-1-2.4-1.9c1-1-2.4-5.3-3.3-7.2c-1-1.4-3.8-2.4-5.7-3.3c-1,1.4-2.4,2.4-3.3,3.8
				c0.5,1.4,1,3.3,0.5,4.8c-1,2.4-2.9,2.9-2.9,1.9c0-0.5-1-1-2.4-1c-1,1.4-2.4,2.9-3.3,4.3c-1,1.4-2.4,2.9-3.3,4.3
				c-1,1.4-2.4,2.9-3.3,4.8c-1,1.4-1.9,2.9-2.9,4.3c-1.4,1.9-2.9,4.3-4.3,6.2c-1.4,1.9-2.9,4.3-3.8,6.2s-1.9,3.3-3.3,5.3
				c-0.5,1.4-1.4,2.4-2.4,3.8c-1,1.9-1.9,3.8-3.3,5.7c-0.5,1-1,2.4-1.9,3.3c-2.4,4.3-4.3,9.1-6.7,13.9v0.5c-1,2.4-1.9,4.8-2.9,7.2
				c-0.5,1-0.5,1.9-1,2.9c-1,2.4-1.9,4.8-2.9,7.2c0,0.5-0.5,1-0.5,1.4c-2.9,8.1-5.3,16.3-7.2,24.9c0,0.5-0.5,1-0.5,1.9
				c-1.9,8.6-3.3,17.7-4.8,26.8l0,0c1.4,1.4,2.9,2.9,2.9,4.3c0.5,2.4,4.8,3.8,5.3,4.3c1,0.5,1-4.3,0.5-5.7c-0.5-1.4,1-1.9,1-1
				s3.8,5.3,4.8,6.7c1.4,1.4,2.4,11.5,3.8,13.4c1,1.9,12.4,6.2,16.3,7.2c3.8,1,8.1,4.8,9.1,6.2c0.5,1,5.7,1.9,6.7,2.4
				c1,0.5,3.3,3.8,4.3,4.3s1.9,2.4,1.9,3.3c0,0.5,6.2,2.9,8.1,4.8c1.4,1.9,4.3,1.4,4.8,0.5c0.5-0.5,1.9,3.3,2.4,4.8
				c0.5,1.4,1,4.8,0.5,5.3c-0.5,0.5-1.4,7.2-2.4,8.1c-1,1.4-3.3,10.5-2.9,12.4c0.5,1.9,3.3,5.7,4.8,6.2c1.4,0.5,1,2.4-0.5,2.9
				c-1,0-0.5,9.1,1.9,10.5C218.7,594.8,220.7,598.6,220.2,599.6z"/>
			<line fill="none" x1="250.3" y1="443.7" x2="250.3" y2="443.7"/>
			<path fill="#F2EFDC" d="M233.1,336.1c2.9-0.5,8.1-1.4,8.6-2.4c0.5-0.5,0.5-2.9-0.5-3.3c0.5,0,1,0,1.4,0c1,0,2.9-6.2,4.3-7.7
				c1.4-1.4,8.1-3.8,10-4.8c1.4-1,5.3-4.3,6.7-4.8c1.4-0.5,3.3-3.8,3.3-4.3c-0.5-0.5,4.8-3.8,6.7-4.3c1.9-1,2.9-2.9,2.4-3.3
				c-0.5,0-11,5.7-21,11c0,0,0,0-0.5,0c-2.9,1.9-5.7,3.8-8.1,5.7c-1.9,1.4-3.8,2.9-5.3,4.3c-1,1-1.9,1.4-2.9,2.4
				c-1.9,1.9-4.3,3.3-6.2,5.3c-0.5,0.5-1,1-1.4,1c-2.4,1.9-4.8,4.3-6.7,6.2C226.4,337.1,230.7,336.6,233.1,336.1z"/>
			<path fill="#F2EFDC" d="M394.7,460.9c-1.4,0-1.4,3.8,0,3.8c1,0.5,1.9-1.9,3.3-3.3v-14.3c0,0,0,0-0.5-0.5
				c-1.4-1.4-1.4-1.4,0.5-0.5v-87c-1.4,1.4-2.4,2.4-3.3,2.9c-1.9,1.4-5.7,8.6-6.7,10.5c-1.4,1.9-2.9,1.9-3.8,1.9
				c-0.5,0-1.4,1.9-1.4,2.4c0,0.5-6.2,3.8-6.7,6.7c-0.5,2.9,0.5,9.1,0.5,11.5c0,2.4,2.4,6.7,3.8,6.7c1.9,0,1,3.8,0.5,4.8
				c-0.5,1,1,2.4,1,3.3s-4.3,2.4-5.7,2.9c-1.4,0.5-3.3,3.3-3.8,4.8c-0.5,1-4.3,1.4-5.7,2.9c0.5-1,1-2.4,1-2.9c1-1.4-0.5-4.3-1-4.8
				c-0.5-0.5-1-8.1-1.9-9.6s-3.8-4.3-4.3-4.8c-0.5-0.5,0.5-2.4,1-3.3c0.5-1-3.3-1.4-4.3-0.5c-1,0.5-1.4,8.1-1.9,10
				c-0.5,1.9,1.9,5.3,2.4,5.3s0.5,3.8-1,3.8c-1.4,0-2.4,5.3-1.9,6.7c0.5,1.4-1,3.3-1.9,4.3c-1,0.5,5.3,0,8.1,0s4.8,1,4.8,1.4
				c-0.5,0-5.3,1-6.2,1.9c-1,1-4.3,3.3-4.8,4.3c-0.5,1,1,2.9,2.4,2.9s2.9,4.8,4.3,5.7c1,1,0.5,3.3,0,4.3c-0.5,0.5-7.2-0.5-9.6,0
				c-2.4,0.5-5.7,5.7-5.7,8.1c0,1.9,0.5,7.7,1,9.6c0.5,1.4,5.7,2.4,6.7,3.3c1,1,6.2,0,7.2,0.5c1,0.5,4.3-5.3,5.3-7.7
				c0.5-2.9,6.2-7.7,7.2-9.1c1-1.9,7.2-1.4,8.6-2.4c1.4-1,0.5,4.3,1.4,7.2c0.5,2.9,6.2,2.4,5.3,0c-1-2.9,0.5-3.8,1-2.9
				c0.5,1,5.7,3.3,6.7,4.8C396.1,457.6,395.7,460.9,394.7,460.9z"/>
			<path fill="#F2EFDC" d="M397.6,478.1c-1-0.5-1.9-1-2.9-1.4c-3.3-1.4-5.7-6.2-6.7-7.2c-0.5-0.5,0.5-2.4,0.5-3.3
				c-0.5-1-7.7-1.4-10-0.5c-2.4,1-13.4,1.9-16.3,3.3c-2.9,1-6.7,0-8.1-0.5c-1.4,0-4.3,3.3-5.7,4.3c-1.4,0.5-3.3,5.7-4.3,11.5
				c0,0,0,0-1.9,3.8c-1.4,2.4-1.4,2.4-1.4,2.4c-3.8,2.9-7.7,12.4-9.1,14.3c-1.4,1.9-2.4,15.3-2.4,20.1c0,4.8,3.8,14.3,5.3,16.7
				c1,2.9,8.1,8.6,10.5,10c2.4,1.4,9.6,1.4,12.4,1.4c2.4,0,5.3-2.4,6.2-5.3c0,0,0,0,3.8,0.5c1.4,0,1.4,0,1.4,0
				c0,1.9,5.3,3.8,6.7,4.3c1.4,0.5,4.8,0,5.7,0c1-0.5,2.4,9.1,1.4,12c-1,2.9,1.9,12.4,2.4,15.3c1,2.9,3.8,10.5,4.3,13.4
				c0.5,2.9-1.9,12-2.4,15.3c-0.5,3.3,4.3,12.4,5.3,15.8c1,3.3,1.9,10,1.9,11.5c0,1,1.4,3.8,2.9,6.7V478.1H397.6z"/>
			<path fill="#F2EFDC" d="M267,702.4c1,0,2.4,0,3.3,0C271.3,698.6,267,699.5,267,702.4z"/>
			<path fill="#F2EFDC" d="M337.8,352.9c1.9,0.5,5.3-1.9,3.8-2.9c-1.4-1-0.5-1,0-0.5c0.5,0.5,1.4-3.3,0.5-3.8
				c-0.5-0.5,5.3-4.8,4.3-9.1c-1-4.3,1.4-8.1,3.3-8.1c1.4,0,1-4.8-1-5.3c-1.9-0.5,0-1,0.5-1.4c0.5-0.5,1.4-4.8,1.4-5.7
				c-0.5-1,2.9-1.4,3.3-2.4c0.5-1,4.3-2.9,5.7-2.9c1.4-0.5,1.9-3.8,0.5-3.8c-1.4,0-5.3-0.5-5.7-1.4c-0.5-0.5-6.2-1.4-8.1-0.5
				c-1.4,0.5-0.5-3.8,1.9-4.3c2.4-0.5,0.5-3.8-1.9-3.8c-2.4,0-8.6-1-10-0.5c-1.4,0.5-4.3-1-5.3-1s-8.1,2.4-11.5,1.9
				c-3.3,0-12,0-13.9,0.5c-1.9,0.5-3.3,3.8-2.9,5.3c0.5,1.4-8.1,1.4-11,1.4c-2.9,0-16.7,2.9-20.6,5.3c-3.8,1.9-6.7,7.2-5.3,7.2
				s-1.9,2.9-3.8,3.8c-1.9,0.5-6.7,1-7.7,1.9c-1,1,1,1.9,1.4,2.4c0.5,1,1.9-0.5,2.9,0c1.4,0.5,5.3,1,6.2,1.4c1,0.5-3.3,1.4-5.7,1.4
				c-2.4,0-1.4,4.3,0,4.8c1.9,0.5,6.2,1.4,6.7,0.5c0.5-1,5.3,1,7.7,1c2.4,0.5,3.8,5.7,4.8,7.2c0.5,1.4,1,5.3,0.5,6.7
				c0,1.4,3.8,3.3,4.8,2.9c0.5-1,0.5,1.9-1,1.9c-1.4,0-0.5,4.8,1.4,5.3c1.9,0.5,0.5,3.3-0.5,4.3c-1,1-0.5,3.8-1.9,4.8
				c-1,1,4.3,10.5,4.3,15.3s2.9,8.6,4.3,8.6c1,0,5.3,1,5.7,1.9c0.5,1,2.4-0.5,3.3-1.4s2.4-2.9,3.3-5.3c1.4-1.9,3.8-11.5,4.3-12.9
				c0.5-1,4.8-0.5,5.7-1c1-0.5,3.8-2.9,4.8-3.3c1-0.5,7.2-3.3,9.1-4.8c1.9-1.4,4.8-6.7,6.2-7.7s-0.5-1-2.4-1.9c-1.9-1-1-2.4-0.5-2.9
				C330.6,351,335.9,352.4,337.8,352.9z"/>
			<path fill="#F2EFDC" d="M393.8,310.3c-1.9-0.5-5.7,1.4-5.3,2.4s-2.9-1.4-5.3,0c-2.4,1.4-2.9,5.7-1.9,6.2c1,0.5,1.9,3.8,1.9,4.8
				c0,0.5,4.8,0,5.7-1c1-1,1,3.3,0,4.8c-1,1.4,0.5,3.8,1.9,3.8c1.4,0,2.9,3.3,4.3,3.3c0.5,0,1.4-1.4,2.4-2.9v-15.8l0,0
				C396.6,315.6,395.7,310.8,393.8,310.3z"/>
			<path fill="#F2EFDC" d="M349.8,416.9c1.4,0,2.4-1.4,2.4-2.4s-1.9-6.7-2.9-6.7c-1,0-2.4,3.8-3.3,3.3c-1-0.5-1.4,3.3-1.4,4.3
				C345,417.4,348.3,417.4,349.8,416.9z"/>
			<path fill="#F2EFDC" d="M344.5,377.7c0.5,1.4,2.4,2.4,3.8,1.9c1.9-0.5,5.3-1.9,6.2-2.4c1,0,2.4-6.2,1.9-7.7c-1-1.4-6.2-1-7.7-1.4
				c-1.4,0-5.7-1.4-6.2-2.4c-1-1-1.4,3.3-2.9,3.8c-1.4,0.5,0.5,1.4,1,1c0.5-0.5,0,2.4-0.5,3.3C339.7,375.8,344,376.3,344.5,377.7z"
				/>
			<path fill="#F2EFDC" d="M218.7,377.7c-1,1,0,4.8,1.4,5.3c1.9,0,4.3-6.2,6.7-4.8c1.9,1.4,3.3,1.9,3.3,1c-0.5-0.5-6.2-3.3-7.2-3.8
				C222.1,374.9,219.7,376.8,218.7,377.7z"/>
			<path fill="#F2EFDC" d="M240.3,517.8c0,0.5,3.8,0.5,4.3-0.5c0.5-1,0.5-1.9-1-1.9C242.7,515.4,240.3,517.4,240.3,517.8z"/>
			<path fill="#F2EFDC" d="M224,512.1c1.9-0.5,1,2.4,1.4,3.3c0.5,1,4.8,1.9,5.3,2.4c1,0.5,2.9-1.4,4.8-1c1.9,0-0.5-5.7-3.3-5.7
				c-2.9,0-5.3-2.4-5.7-2.9s-3.8-2.4-4.8-2.9c-1-1-8.1-1.4-10.5-1.4s-5.3,2.4-5.7,3.3c-0.5,1,3.8,1.4,5.3,1c1.4-0.5,7.2,1,8.1,1.9
				C219.7,511.6,222.1,512.1,224,512.1z"/>
			<path fill="#F2EFDC" d="M215.9,517.8c0,0.5,3.8,0.5,4.8,0.5s1-0.5,0-1.4C219.7,516.4,215.9,517.4,215.9,517.8z"/>
			<path fill="#F2EFDC" d="M218.7,498.7c-1-0.5-1.9,1-1.9,1.9c0,0.5,0.5,1.4,1,1.4C218.3,502.1,219.7,499.2,218.7,498.7z"/>
			<path fill="#F2EFDC" d="M226.4,499.7c-0.5-0.5-1.9-1.4-2.4-1.4c-0.5,0-1,1.4-1,2.9C223.5,502.5,226.9,500.1,226.4,499.7z"/>
			<path fill="#F2EFDC" d="M232.1,508.3c1.4-1,1.9-2.4,1-2.4c-1,0-2.4-2.4-3.3-2.9c-1-0.5-1.9,1.4-1.9,2.4s0.5,1.4,1.4,1.4
				C229.7,506.4,230.7,508.7,232.1,508.3z"/>
		</g>
		<path fill="#D1ECFB" d="M241.2,330.9c-0.5-0.5-1.4,0.5-1,1C240.7,332.3,241.7,331.4,241.2,330.9z"/>
		<path fill="#D1ECFB" d="M269.9,415c0-0.5-1.4,0.5-1,1C269,416.5,270.4,416,269.9,415z"/>
	</g>
	<g>
		<g>
			<defs>
				<path id="SVGID_1_" d="M279.5,306.5c34.9-12,73.2-18.6,113.3-18.6c43.5,0,85.1,7.7,122.4,22c49.7-31.1,81.8-81.8,81.8-138.7
					C597,76.5,508.5,0,399.5,0S202,76.5,202,171.2C203,226.2,233.1,274.9,279.5,306.5z"/>
			</defs>
			<clipPath id="SVGID_2_">
				<use xlink:href="#SVGID_1_"  overflow="visible"/>
			</clipPath>
			<g clip-path="url(#SVGID_2_)">
				<path fill="#F2EFDC" d="M571.6,147.3c0-48.3-40.2-87-89.4-87c-3.3,0-7.2,0.5-10.5,0.5c-16.3-23-43-38.3-74.1-38.3
					c-30.6,0-57.9,15.3-74.1,38.3c-3.3-0.5-7.2-0.5-10.5-0.5c-49.2,0-89.4,38.7-89.4,87c0,42.6,31.6,77.9,72.7,85.6
					c3.8,22.5,7.2,45.4,11,67.9c3.3,20.6,17.7,35.4,32,33.5c39.2-4.3,78.4-4.3,117.6,0c14.3,1.4,28.2-13.4,32-33.5
					c2.9-18.2,5.7-36.3,8.6-54.5c-1,0-1.9,0-2.9,0c-28.2,0-53.1-12.4-69.8-32.5c15.8,12.9,35.9,20.6,57.9,20.6
					C531.9,234.3,571.6,195.1,571.6,147.3z"/>
				<path fill="#DCDAC8" d="M482.2,60.2c-3.3,0-7.2,0.5-10.5,0.5c-16.3-23-43-38.3-74.1-38.3c-2.4,0-4.3,0.5-6.7,0.5v308.4
					c22-0.5,43.5,1,65.5,3.3c14.3,1.4,28.2-13.4,32-33.5c2.9-18.2,5.7-36.3,8.6-54.5c-1,0-1.9,0-2.9,0c-28.2,0-53.1-12.4-69.8-32.5
					c15.8,12.9,35.9,20.6,57.9,20.6c49.2,0,89.4-38.7,89.4-87C571.6,99,531.9,60.2,482.2,60.2z"/>
				<ellipse fill="#F2EFDC" cx="392.3" cy="111.4" rx="69.8" ry="88.5"/>
			</g>
		</g>
	</g>
	<g>
		<path fill="#DCDAC8" d="M735.1,534.6l-23-8.1c1,1,2.4,1.9,3.8,2.9c-37.3,92.3-62.6,151.6-99.9,243.9c-3.3,7.7,0.5,20.6,11,23.9
			c10,3.8,21.5-3.8,23.9-11.5c30.6-94.7,49.2-156.4,79.9-251C731.8,535,733.2,535,735.1,534.6z"/>
		<path fill="#F2EFDC" d="M813.6,480.1c11-41.6,7.2-105.2-23.9-117.6c-31.6-10.5-75.5,35.9-93.7,74.6c-17.7,36.3-6.7,77.9,23.9,95.2
			c-0.5,1-1,2.4-1.4,3.3c2.4,1,4.8,2.4,7.2,3.3c2.4,1,5.3,1.4,7.7,2.4c0.5-1,1-2.4,1-3.3C768.6,544.1,804,519.3,813.6,480.1z"/>
		<path fill="#F2EFDC" d="M738.5,537.9l-23-8.1c1,1,2.4,1.9,3.8,2.9c-37.3,91.8-62.2,150.6-99.5,242.4c-3.3,7.2,0.5,20.1,11,23.9
			c10,3.8,21.5-3.8,23.9-11.5c30.6-94.2,48.8-155.4,79.4-249.6C735.6,538.4,737.1,538.4,738.5,537.9z"/>
		<path fill="#DCDAC8" d="M702.6,440.4c19.1-39.7,60.7-79.9,86.1-71.2c16.7,6.7,24.9,35.9,24.9,67.4c-3.8-18.2-11-33-22-37.3
			c-25.3-8.1-66.9,31.6-86.1,71.2c-3.8,7.7-6.2,16.3-7.2,24.4C692.6,477.7,694,458.1,702.6,440.4z"/>
		<path fill="#DCDAC8" d="M729.9,529.3c-4.3-1.9-8.6-4.3-12-7.2c2.9,1.9,5.7,3.3,8.6,4.8c15.3,4.8,31.6,3.3,46.4-5.3
			c17.7-10,31.1-27.7,36.3-49.2c0.5-1.9,1-4.3,1.4-6.2c-0.5,3.8-1.4,7.7-2.4,11.5c-5.3,20.1-17.7,37.3-34.4,46.4
			C760,532.2,744.2,533.6,729.9,529.3z"/>
	</g>
	<g>
		<path fill="#F16A54" d="M653.9,349.5l3.8-3.8c13.9-13.9,13.9-35.9,0-49.7l-0.5-0.5c-13.9-13.9-35.9-13.9-49.7,0l-3.8,3.8l-3.8-3.8
			c-13.9-13.9-35.9-13.9-49.7,0l-0.5,0.5c-13.9,13.9-13.9,35.9,0,49.7l3.8,3.8l50.2,50.2L653.9,349.5z"/>
		<path fill="#D95B46" d="M603.7,400.2l50.2-50.2l3.8-3.8c13.9-13.9,13.9-35.9,0-49.7l-0.5-0.5c-13.9-13.9-35.9-13.9-49.7,0
			l-3.8,3.8"/>
	</g>
</g>
</svg>
