<?xml version="1.0" encoding="utf-8"?>
<!-- Generator: Adobe Illustrator 18.0.0, SVG Export Plug-In . SVG Version: 6.00 Build 0)  -->
<!DOCTYPE svg PUBLIC "-//W3C//DTD SVG 1.1//EN" "http://www.w3.org/Graphics/SVG/1.1/DTD/svg11.dtd">
<svg version="1.1" id="Lag_1" xmlns="http://www.w3.org/2000/svg" xmlns:xlink="http://www.w3.org/1999/xlink" x="0px" y="0px"
	 viewBox="0 0 200 200" enable-background="new 0 0 200 200" xml:space="preserve">
<g id="Circle_19_">
	<path fill="#156B4E" d="M10,100c0-49.7,40.3-90,90-90c49.7,0,90,40.3,90,90c0,49.7-40.3,90-90,90C50.3,190,10,149.7,10,100z"/>
</g>
<g>
	<path fill="#F2EFDC" d="M160.5,84.7c-4.1,3.5-11.5,3.5-14.3-1.5c-2.6-5.1,1.6-11.2,6.8-12.6c5.3-1.4,11-0.4,12.6,2.4
		C167,75.9,164.6,81.2,160.5,84.7z"/>
	<path fill="#DCDAC8" d="M158.5,85.3c-3.2,2.8-9,2.8-11.2-1.2c-2-4,1.2-8.8,5.3-9.9c4.1-1.1,8.6-0.3,9.9,1.9
		C163.6,78.3,161.7,82.5,158.5,85.3z"/>
	<path fill="#F2EFDC" d="M153.3,75c1.3,5.7-2.4,12.6-8.5,12.7c-6.1-0.1-9.8-7.1-8.5-12.7c1.3-5.7,5.1-10.6,8.5-10.7
		C148.2,64.4,152.1,69.3,153.3,75z"/>
	<path fill="#DCDAC8" d="M152.8,75.3c-1.2-5.5-4.9-10.1-8.2-10.3c-0.1,0-0.2,0-0.3,0c1.5,1.9,2.7,4.4,3.3,7.1
		c1.2,5.4-2.3,12.1-8.2,12.2c-0.3,0-0.7,0-1-0.1c1.5,1.9,3.6,3.2,6.2,3.2C150.5,87.4,154,80.8,152.8,75.3z"/>
</g>
<g>
	<g>
		<path fill="#DCDAC8" d="M44.4,130.8l0.2-4.2c-1-0.2-2-0.4-3-0.6c0,0,0.9,3.4,0.9,4.1c0,0.7-1.7,1.9-1,2.2c1,0.5,2.3,0.2,2.3,0.2
			C43.9,131.6,43.7,130.1,44.4,130.8z"/>
		<path fill="#DCDAC8" d="M38.8,108.3c0.1,0,0.2,0,0.4,0c0.2,0,0.4,0,0.6,0c-0.7-0.7-1.4-1.5-3.1-2.3c-0.7-0.3-1.4-0.5-2.1-0.7
			c0.1,0.7,0.1,1.3,0.1,1.8C35.9,107.6,36.5,108.3,38.8,108.3z"/>
		<path fill="#F2EFDC" d="M65.7,112.3c0.1-0.1,0.2-0.2,0.3-0.3c0.1-0.1-0.5-0.1-0.6,0c0,0,0,0,0,0.1c-0.5-0.2-1,0-1.3,0.4
			c-0.3-0.1-0.6-0.1-0.8-0.1c-0.6,0.1-0.9,0.6-1,1.2c-0.1-0.2-0.2-0.3-0.3-0.4c-0.5-0.7-1.1-1.3-1.8-1.6c-6.4-2.7-13.4-3.8-20.3-3.2
			c-0.1,0-0.3,0-0.4,0.1c-3.7,0.3-3.6-1.2-7.4-1.5c-0.8-0.1-1.7,0-2.4,0.1c0.6,1.6,0.9,2.4,1.8,3.7c0.6,0.9,1.4,1.7,2,2.5
			c-0.7-0.6-1.5-1.2-2.3-1.9c-1.2,0.9-2.3,1.8-3.4,2c-0.1-0.1-0.2-0.2-0.3-0.2c-0.2,0-0.5,0.1-0.5,0.3l-0.4,2.7l2.8,0.4
			c-0.5,0.2-0.9,0.4-1.4,0.5c0.7,0.3,1.5,0.6,2.3,0.8c0.1,0,0.1,0,0.2,0c0.3,1.3,1,2.5,2.1,2.9c0.9,0.4,2.6,1.5,4.1,2.4
			c0.1,0.1,0.2,0.2,0.4,0.3c0.6,1.8,1.6,4.9,1.6,6.1c0,0.6-2.3,2.4-1.4,2.7c0.9,0.3,2.7,0,2.8,0c0.1-1,0-2.4,0.8-1.6l0.4-5.6
			c3.3,1,6.8,1.7,10.2,1.9c0.4,0.5,0.8,1,1.4,1.4c0.9,0.7,1.8,1,2.7,1.1c-0.3,1.7-1.2,3.3-1.2,3.3c-0.1,0.1-2.7,1.5-2,2.1
			c0.7,0.6,2.7,0.6,2.7,0.6c0.4-0.7,0.4-1.7,1.2-1.1l3.1-5.9c0.2-0.7-0.8-0.3-0.3-2c1.3-0.6,2.4-1.9,2.8-3.3c0.5-1,0.9-2.3,1.1-3.6
			c0.3-1.6,0.2-3.1-0.1-4.3c0,0,0,0,0,0c-0.1-0.5-0.1-0.9,0-1.4c0-0.3,0.1-0.7,0.2-1c0.2-0.4,0.5-0.3,0.7-0.1
			c-0.3,0.5-0.6,1.4,0.1,1.4c0.5,0,1-0.3,0.9-0.9c0-0.3-0.2-0.5-0.3-0.6c0.1-0.2,0.2-0.3,0.4-0.5c0.1-0.1,0.2,0,0.3,0.2
			c-0.2,0.4-0.3,0.9,0.3,0.9C66.1,113.3,66.1,112.7,65.7,112.3z M64.1,113.5c0,0.1,0,0.1,0,0.2c0,0.1,0,0.1,0,0.2
			C64,113.7,64.1,113.6,64.1,113.5z"/>
	</g>
	<path fill="#DCDAC8" d="M60.7,122c-0.2,1.5-1.7,2.5-3.2,2.3l-23.8-3.8c-1.5-0.2-2.5-1.7-2.3-3.2l0,0c0.2-1.5,1.7-2.5,3.2-2.3
		l23.8,3.8C59.9,119.1,61,120.5,60.7,122L60.7,122z"/>
	
		<ellipse transform="matrix(0.9877 0.1562 -0.1562 0.9877 19.6273 -5.7681)" fill="#DCDAC8" cx="46.5" cy="122" rx="12.5" ry="2.5"/>
	
		<ellipse transform="matrix(0.9877 0.1562 -0.1562 0.9877 18.7484 -6.0011)" fill="#F2EFDC" cx="47.5" cy="116.3" rx="13.4" ry="2.5"/>
	<path fill="#DCDAC8" d="M58.4,128.7c-1.6-2.7-2.4-5.2-2.2-6.6c-2.7,0.4-4.6,1.2-4.8,2.5c-0.2,1.3,1.4,2.8,4.1,4
		C56.6,128.7,57.5,128.8,58.4,128.7z"/>
	<path fill="#DCDAC8" d="M31.5,111.8c-0.4,0.6-0.8,1.3-0.9,2.1c-0.3,2.1,0.7,3.9,2.2,4.2c1.3,0.2,2.5-0.8,3.1-2.3
		C33.6,114.8,32,113.4,31.5,111.8z"/>
	<path fill="#DCDAC8" d="M32,115.9c-0.1,0.4-0.4,0.7-0.8,0.6l-3.4-0.5c-0.4-0.1-0.7-0.4-0.6-0.8l0.1-0.6c0.1-0.4,0.4-0.7,0.8-0.6
		l3.4,0.5c0.4,0.1,0.7,0.4,0.6,0.8L32,115.9z"/>
	<path fill="#DCDAC8" d="M31.2,112.6c0,0-0.1,0-0.1,0c-0.8,0.9-2,1.5-3.3,1.3c-0.2,0.3-0.4,0.7-0.6,1c1.2,1,2.9,1.8,4.9,2.1
		c0.7,0.1,1.3,0.2,2,0.1c0.1-0.2,0.1-0.4,0.1-0.6C34.4,115.2,31.1,112.4,31.2,112.6z"/>
</g>
<g>
	<g>
		<path fill="#DCDAC8" d="M155.9,118.8c-0.1,1.1,0.2,1.2,0.6,0.2c1-2.4,1.8-5,2.5-7.5c0.3-1.1,0-1.8-0.4-1.9c0,0,0,0-0.1,0
			c-0.5-0.1-1,0.4-1.3,1.5C156.6,113.5,156.1,116.2,155.9,118.8z"/>
		<circle fill="#DCDAC8" cx="161.7" cy="110.6" r="1.1"/>
		<circle fill="#DCDAC8" cx="160.8" cy="107.3" r="1.1"/>
		<circle fill="#DCDAC8" cx="157.4" cy="107.3" r="1.1"/>
		<circle fill="#DCDAC8" cx="158.6" cy="108.1" r="1.6"/>
		<circle fill="#DCDAC8" cx="160" cy="111.3" r="1.9"/>
		<circle fill="#DCDAC8" cx="160.2" cy="109" r="1.9"/>
		<circle fill="#DCDAC8" cx="157.5" cy="110" r="1.9"/>
	</g>
	<g>
		<path fill="#F2EFDC" d="M156.8,121.7c-0.3,1.1,0,1.2,0.6,0.3c1.5-2.2,2.8-4.5,4-6.8c0.5-1,0.4-1.8,0-2c0,0,0,0,0,0
			c-0.4-0.2-1.1,0.2-1.6,1.2C158.6,116.7,157.6,119.2,156.8,121.7z"/>
		<circle fill="#F2EFDC" cx="164.3" cy="114.4" r="1.1"/>
		<circle fill="#F2EFDC" cx="163.1" cy="111.1" r="1.1"/>
		<circle fill="#F2EFDC" cx="160.7" cy="110.7" r="1.1"/>
		<circle fill="#F2EFDC" cx="161.6" cy="111.8" r="1.6"/>
		<circle fill="#F2EFDC" cx="162.4" cy="115.2" r="1.9"/>
		<circle fill="#F2EFDC" cx="163" cy="113" r="1.9"/>
		<circle fill="#F2EFDC" cx="160.2" cy="113.4" r="1.9"/>
	</g>
	<g>
		<path fill="#F2EFDC" d="M154.6,121.8c-0.2,1.1-0.5,1.1-0.6,0c-0.3-2.6-0.4-5.3-0.3-7.9c0-1.1,0.5-1.8,1-1.7c0,0,0,0,0.1,0
			c0.5,0,0.9,0.7,0.8,1.8C155.4,116.6,155.1,119.2,154.6,121.8z"/>
		<circle fill="#F2EFDC" cx="151.4" cy="111.9" r="1.1"/>
		<circle fill="#F2EFDC" cx="154" cy="109.5" r="1.1"/>
		<circle fill="#F2EFDC" cx="156.3" cy="110.3" r="1.1"/>
		<circle fill="#F2EFDC" cx="155" cy="110.8" r="1.6"/>
		<circle fill="#F2EFDC" cx="152.7" cy="113.4" r="1.9"/>
		<circle fill="#F2EFDC" cx="153.2" cy="111.2" r="1.9"/>
		<circle fill="#F2EFDC" cx="155.4" cy="112.9" r="1.9"/>
	</g>
	<g>
		<path fill="#F2EFDC" d="M149.9,140.8c-0.2,2.7,0.6,2.9,1.7,0.4l7.8-17.6c1.1-2.5-0.1-5-2.8-5.7l-0.3-0.1c-2.6-0.7-4.9,1-5.1,3.7
			L149.9,140.8z"/>
		<path fill="#DCDAC8" d="M156.4,117.8l0.1,0l-6.2,25.1c-0.3-0.1-0.5-0.8-0.4-2.1l1.3-19.2C151.5,118.9,153.8,117.2,156.4,117.8z"/>
		<g>
			<defs>
				<path id="SVGID_1_" d="M149.9,140.8c-0.2,2.7,0.6,2.9,1.7,0.4l7.8-17.6c1.1-2.5-0.1-5-2.8-5.7l-0.3-0.1c-2.6-0.7-4.9,1-5.1,3.7
					L149.9,140.8z"/>
			</defs>
			<clipPath id="SVGID_2_">
				<use xlink:href="#SVGID_1_"  overflow="visible"/>
			</clipPath>
			<g clip-path="url(#SVGID_2_)">
				<path fill="#F2EFDC" d="M151.8,122c2.6,0.5,2.7,0.3,0.1-0.5l-18.2-5.5c-2.6-0.8-4.8-0.8-5,0l0,0.1c-0.2,0.8,1.8,1.8,4.4,2.3
					L151.8,122z"/>
				<path fill="#F2EFDC" d="M150.6,130.2c2.6,0.5,2.7,0.3,0.1-0.5l-18.2-5.5c-2.6-0.8-4.8-0.8-5,0l0,0.1c-0.2,0.8,1.8,1.8,4.4,2.3
					L150.6,130.2z"/>
				<path fill="#F2EFDC" d="M149.8,134.7c2.6,0.5,2.7,0.3,0.1-0.5l-18.2-5.5c-2.6-0.8-4.8-0.8-5,0l0,0.1c-0.2,0.8,1.8,1.8,4.4,2.3
					L149.8,134.7z"/>
				<path fill="#DCDAC8" d="M155.9,126.6c-2.6-0.8-2.5-1,0.1-0.5l18.6,3.6c2.6,0.5,4.6,1.6,4.4,2.3l0,0.1c-0.2,0.8-2.4,0.8-5,0
					L155.9,126.6z"/>
				<path fill="#DCDAC8" d="M156.1,130.2c-2.6-0.8-2.5-1,0.1-0.5l18.6,3.6c2.6,0.5,4.6,1.6,4.4,2.3l0,0.1c-0.2,0.8-2.4,0.8-5,0
					L156.1,130.2z"/>
				<path fill="#DCDAC8" d="M153,139.9c-2.6-0.8-2.5-1,0.1-0.5l18.6,3.6c2.6,0.5,4.6,1.6,4.4,2.3l0,0.1c-0.2,0.8-2.4,0.8-5,0
					L153,139.9z"/>
				<g>
					<path fill="#DCDAC8" d="M153.9,123.7c-0.2-0.1-0.2-0.1,0-0.1l1.8,0.2c0.3,0,0.4,0.2,0.4,0.4l0,0c0,0.2-0.3,0.3-0.5,0.2
						L153.9,123.7z"/>
					<path fill="#DCDAC8" d="M157.6,124.6c0.3,0,0.3,0,0-0.1l-1.7-0.7c-0.2-0.1-0.5,0-0.5,0.2l0,0c0,0.2,0.1,0.4,0.4,0.4
						L157.6,124.6z"/>
				</g>
				<g>
					<path fill="#E39910" d="M150.9,127c-0.2-0.1-0.2-0.1,0-0.1l1.8,0.2c0.3,0,0.4,0.2,0.4,0.4l0,0c0,0.2-0.3,0.3-0.5,0.2L150.9,127
						z"/>
					<path fill="#DCDAC8" d="M154.6,127.9c0.3,0,0.3,0,0-0.1l-1.7-0.7c-0.2-0.1-0.5,0-0.5,0.2l0,0c0,0.2,0.1,0.4,0.4,0.4
						L154.6,127.9z"/>
				</g>
				<g>
					<path fill="#F2EFDC" d="M150.8,127c-0.2-0.1-0.2-0.1,0-0.1l1.6,0.2c0.2,0,0.4,0.2,0.3,0.4l0,0c0,0.2-0.3,0.3-0.5,0.2L150.8,127
						z"/>
					<path fill="#F2EFDC" d="M154.1,127.8c0.2,0,0.2,0,0-0.1l-1.5-0.6c-0.2-0.1-0.4,0-0.5,0.2l0,0c0,0.2,0.1,0.3,0.3,0.4
						L154.1,127.8z"/>
				</g>
				<g>
					<path fill="#DCDAC8" d="M152.6,133.4c-0.2-0.1-0.2-0.1,0-0.1l1.8,0.2c0.3,0,0.4,0.2,0.4,0.4l0,0c0,0.2-0.3,0.3-0.5,0.2
						L152.6,133.4z"/>
					<path fill="#DCDAC8" d="M156.4,134.3c0.3,0,0.3,0,0-0.1l-1.7-0.7c-0.2-0.1-0.5,0-0.5,0.2l0,0c0,0.2,0.1,0.4,0.4,0.4
						L156.4,134.3z"/>
				</g>
				<g>
					<path fill="#DCDAC8" d="M151,136.4c-0.2-0.1-0.2-0.1,0-0.1l1.8,0.2c0.3,0,0.4,0.2,0.4,0.4l0,0c0,0.2-0.3,0.3-0.5,0.2L151,136.4
						z"/>
					<path fill="#DCDAC8" d="M154.7,137.3c0.3,0,0.3,0,0-0.1l-1.7-0.7c-0.2-0.1-0.5,0-0.5,0.2l0,0c0,0.2,0.1,0.4,0.4,0.4
						L154.7,137.3z"/>
				</g>
				<path fill="#F2EFDC" d="M153.9,123.5l1.2,0.1l-0.1,0.4l-1.1-0.4C153.6,123.6,153.7,123.5,153.9,123.5z"/>
			</g>
		</g>
	</g>
</g>
<g>
	<path fill="#F2EFDC" d="M61.8,75.8c-0.3-0.2-0.5-0.5-0.8-0.8c-1.1-1.6-0.7-3.8,0.8-4.9c0.7-0.5,1.4-0.7,2.1-0.6l4.3-12.3l-16.4,0
		c0.3,1.3-0.1,2.7-1.3,3.5c-1.5,1.1-3.6,0.7-4.6-0.8c-0.6-0.8-0.7-1.8-0.5-2.7l-6.3,0c-0.6,6.3,1,12.8,4.9,18.4
		c3.6,5.1,8.6,8.5,14.1,10.2L61.8,75.8z M58.2,61.1c-0.5-0.7-0.3-1.7,0.4-2.2c0.7-0.5,1.7-0.3,2.2,0.4c0.5,0.7,0.3,1.7-0.4,2.2
		C59.7,61.9,58.7,61.8,58.2,61.1z"/>
	<g>
		<path fill="#FFCB09" d="M45.5,57.6c0-0.1,0-0.2,0.1-0.4l-0.2,0C45.4,57.4,45.4,57.5,45.5,57.6z"/>
		<path fill="#DCDAC8" d="M44.2,75.7c2.5,3.6,5.8,6.4,9.4,8.3c0.3-0.4,0.6-0.8,0.8-1.3c-4.1-1.9-7.7-4.9-10.5-8.9
			c-2.4-3.3-3.9-7-4.6-10.8C39.8,67.5,41.4,71.8,44.2,75.7z"/>
	</g>
	<path fill="#DCDAC8" d="M61.5,76.8c-0.3-0.2-0.6-0.5-0.9-0.9c-1.2-1.8-0.8-4.2,0.9-5.4c0.7-0.5,1.6-0.7,2.4-0.7l4.4-12.5l-0.1,0
		L54.1,75.5l-4.5,5.8c2.6,2.1,5.6,3.6,8.7,4.6L61.5,76.8z"/>
	<circle fill="#F2EFDC" cx="53.3" cy="76.3" r="3"/>
	<circle fill="#DCDAC8" cx="53.6" cy="75.5" r="3"/>
	<circle fill="#DCDAC8" cx="54.1" cy="65.5" r="3"/>
	<circle fill="#DCDAC8" cx="45.6" cy="65.3" r="1.9"/>
	<circle fill="#F2EFDC" cx="57" cy="80.8" r="1.1"/>
	<circle fill="#DCDAC8" cx="47.1" cy="72.7" r="1.1"/>
</g>
<g id="Teacher_6_">
	<g id="Body_6_">
		<g id="Shirt_6_">
			<path fill="#F2EFDC" d="M122.3,144.8l-12.4-3.2c-5.6-1.2-14.6-1.2-20.1,0l-12.4,3.2c-5.6,1.2-7.2,10.5-7.2,16.2v23.8
				c9.2,4,19.3,6.3,30,6.3c10.7,0,20.8-2.2,30-6.3V161C130,155.4,127.8,146.1,122.3,144.8z"/>
			<path fill="#DCDAC8" d="M122.3,144.8l-12.4-3.2c-2.8-0.6-6.2-0.9-9.8-0.9v50.5c10.7,0,20.8-2.2,30-6.3V161
				C130,155.4,127.8,146.1,122.3,144.8z"/>
		</g>
		<g>
			<g>
				<path fill="#D1CFBA" d="M101.1,148.2l-1.1-7.4c3.6,0,7,0.3,9.8,0.9l3.4,0.9C107.4,149.7,101.1,148.2,101.1,148.2z"/>
			</g>
			<g>
				<path fill="#D1CFBA" d="M98.5,148.2l1.5-7.4c-3.6,0-7.5,0.3-10.3,0.9l-3.4,0.9C92.1,149.7,98.5,148.2,98.5,148.2z"/>
			</g>
		</g>
	</g>
	<g id="Head_6_">
		<g id="Hair_11_">
			<path fill="#191919" d="M122.5,89.8c0.3,0.9,0.7,10.5,0,13.5c-1.8-2.3,0.1,27.2,1.2,33.8c-6.5,1.4-20.3,2.4-24.1,2.4
				c-8.6,0-17.7-2.4-24.9-4c1.9-7.4,4.1-34.8,2.4-33c0-20.3,8.7-29.5,22.8-29.7C108.9,72.6,118.5,77.2,122.5,89.8z"/>
			<path opacity="0.1" fill="#FFFFFF" d="M99.6,139.5c-8.6,0-17.7-2.4-24.9-4c1.9-7.4,4.1-34.8,2.4-33c0-20.3,8.7-29.5,22.8-29.7
				L99.6,139.5z"/>
		</g>
		<g id="Neck_6_">
			<path fill="#FFE7D9" d="M105.4,141.2c0,0-3.2,2-5.6,2c-2.7,0-5.6-2-5.6-2v-13.4h11.3V141.2z"/>
			<path fill="#FCE1D4" d="M105.4,141.2c0,0-3,2-5.4,2v-15.4h5.4V141.2z"/>
			<path opacity="0.1" d="M94.1,131.7c1.8,0.5,3.7,0.7,5.9,0.7c2,0,3.8-0.2,5.4-0.6v-4H94.1V131.7z"/>
		</g>
		<g id="Face_6_">
			<path fill="#FCE1D4" d="M122.5,103.3c-7.5-14.2-9.3-29.9-22.5-29.9c-13.2,0-19.2,13.5-23,29.1c-0.9,3.8,0.2,15.3,3.8,15.9
				c4,9.1,10.1,13.1,19.2,13.1c9.1,0,14.7-4,18.7-13.1C122.4,117.7,123.7,105.5,122.5,103.3z"/>
			<path fill="#FFE7D9" d="M100,73.4c-13.2,0-19.2,13.5-23,29.1c-0.9,3.8,0.2,15.3,3.8,15.9c4,9.1,10.1,13.1,19.2,13.1V73.4z"/>
		</g>
		<path id="glasses_3_" fill="#191919" d="M116.1,100.7c-0.9-0.5-2.3-0.6-3.8-0.6l0,0v0c-1.1,0-8.5-0.7-10.4,2.1v-0.1h-4
			c-1.7-2.8-13.2-1.9-14.1-1.4c-1.4,0.8-1.1,2.7-1.2,4.2c0,3.9,4.2,6.1,8,6.1c3.8,0,7.6-3.7,7.7-7.5h3.2c0.3,4.8,3.9,7.5,7.7,7.5
			c3.8,0,8-2.2,8-6.1C117.3,103.4,117.5,101.5,116.1,100.7z M90.7,109.8c-2.2,0-4.3-0.8-5.6-2.1c-1.6-1.6-1.2-5.7-0.7-6
			c0.5-0.3,4.4-0.4,5-0.4c0.5,0,4.9,0.1,6.2,0.5c1.3,0.5,1.5,1.2,1.5,1.8C97.2,106.2,93.8,109.8,90.7,109.8z M109.3,109.8
			c-3.1,0-6.5-3.6-6.5-6.1c0-0.7,0.2-1.4,1.5-1.8c1.3-0.5,9-0.6,9-0.6c1.1,0.1,1.8,0.2,2.3,0.4c0.5,0.3,0.5,2.9,0.5,3.1
			C116.2,108,111.5,109.8,109.3,109.8z"/>
		<g id="Hair_10_">
			<path fill="#191919" d="M122.5,89.8c0.3,0.9,0.7,10.5,0,13.5c-2.3-1.9-4.3-1.2-5,0.3c0.5-8.9-28-9.7-30.7-14.4
				c-1,8.9-3.5,9-4.5,16.8c-0.6-5.1-3.7-5.4-5.3-3.5c0-20.3,8.7-29.5,22.8-29.7C108.9,72.6,118.5,77.2,122.5,89.8z"/>
			<path opacity="0.1" fill="#FFFFFF" d="M100,94c-6.3-1.5-12-2.8-13.2-4.8c-1,8.9-3.5,9-4.5,16.8c-0.6-5.1-3.7-5.4-5.3-3.5
				c0-20.3,8.7-29.5,22.8-29.7L100,94z"/>
		</g>
	</g>
</g>
<g>
	<path fill="#F2EFDC" d="M131,42.3c4.4,5.1-4.3,11.1-19.5,13.6c-15.2,2.7-25.4-0.1-22.9-6.4c2.5-6.3,11.5-10.8,19.8-12.1
		C116.6,35.9,126.6,37.1,131,42.3z"/>
	<path fill="#DCDAC8" d="M131,42.3c-1.8-2-4.4-3.5-7.5-4.3c2.2,0.9,4,2.1,5.4,3.6c4.4,5.1-4.3,11.1-19.5,13.6
		c-7.4,1.3-13.7,1.3-17.8,0.2c4,1.7,11.1,2,19.9,0.5C126.7,53.4,135.4,47.4,131,42.3z"/>
	<path fill="#DCDAC8" d="M125.1,42.2c-0.1-0.4-0.2-0.8-0.3-1.1c-0.5-1.2-1.2-2.3-2.1-3.4c-0.8-0.2-1.7-0.4-2.6-0.5
		C122.2,38.6,123.9,40.3,125.1,42.2z"/>
	<path fill="#DCDAC8" d="M97.4,41c-0.8,0.4-1.6,0.9-2.4,1.4c5.1,1.5,9.7,4,12.2,7.5c-0.1-0.4-0.2-0.7-0.4-1.1
		C105.2,45.4,101.7,42.8,97.4,41z"/>
	<path fill="#DCDAC8" d="M117,46.3c-0.1-0.4-0.2-0.8-0.3-1.1c-1.3-3.2-4.2-5.8-7.8-7.9c-0.2,0-0.3,0-0.5,0.1c-1,0.2-1.9,0.4-2.9,0.6
		C110.4,39.8,114.8,42.7,117,46.3z"/>
</g>
</svg>
