<?xml version="1.0" encoding="utf-8"?>
<!-- Generator: Adobe Illustrator 18.0.0, SVG Export Plug-In . SVG Version: 6.00 Build 0)  -->
<!DOCTYPE svg PUBLIC "-//W3C//DTD SVG 1.1//EN" "http://www.w3.org/Graphics/SVG/1.1/DTD/svg11.dtd">
<svg version="1.1" id="Lag_1" xmlns="http://www.w3.org/2000/svg" xmlns:xlink="http://www.w3.org/1999/xlink" x="0px" y="0px"
	 viewBox="0 0 200 200" enable-background="new 0 0 200 200" xml:space="preserve">
<circle fill="#253A44" cx="100" cy="100" r="90"/>
<circle fill="none" cx="100" cy="100" r="90"/>
<g>
	<path fill="#F7B814" d="M115.3,156.7l-15.6-4.8l0,0l-8-2.5c0,0,0,0,0,0l-6.2-1.9l-9.2-2.8l-3.9-1.2c12.1-7.8,26.5-5.9,26.5-5.9
		L115.3,156.7z"/>
	<path fill="#F6E16C" d="M111.8,177.2c-0.9-1.4-0.8-3.9,1-4.5c0.1,0,0.2-0.1,0.3-0.1l0.1-0.9l0.3-2l0.1-0.8c-1-0.4-1.9-1.1-2.3-2.3
		c-0.8-2.3,1-4.1,3.2-4.2c0,0,0,0,0,0l0.1-0.5l0.7-5.2l-15.6-4.8l0,0l-8-2.5c0,0,0,0,0,0l-6.2-1.9l-9.2-2.8l-3.9-1.2l-0.8,12.4
		l-0.5,7.9l0,0.6l10.7,4l0,0L86,170l10.2,3.7c0,0,0,0,0,0l8,2.9l7.9,2.9l0,0l0.2-1.7C112.1,177.7,111.9,177.5,111.8,177.2z"/>
	<path fill="#EFD259" d="M86.4,169.1c-0.1,0.4-0.2,0.7-0.4,0.9l-4.3-1.6l0,0c-0.3-0.5-0.7-1-1-1.6c-0.5-1.4-0.5-2.8,0.5-4
		c0.7-0.8,1.9-1.1,2.8-0.4c0.6,0.4,0.9,1.2,0.8,1.9C86.1,165.6,86.8,167.3,86.4,169.1z"/>
	<path fill="#EFD259" d="M99.2,156.5c-0.7,1.1-2.4,1-3.2,0.1c0,0-0.2-0.2-0.2-0.2c-0.1-0.1-0.2-0.2-0.4-0.3
		c-0.3-0.2-0.6-0.4-0.9-0.6c-0.7-0.5-1.3-1-1.9-1.5c-1.2-1.2-1.6-2.8-1.1-4.4l8,2.5l0,0C100.2,153.4,100,155.1,99.2,156.5z"/>
	<path fill="#EFD259" d="M111.2,166.6c-0.8-2.3,1-4.1,3.2-4.2c0,0,0,0,0,0l0.1-0.5c-2.5-1.4-6.1-0.6-6.6,2.6c-0.3,1.6,0.4,3.1,1.8,4
		c0.5,0.4,1.1,0.6,1.8,0.8c0.3,0.1,0.5,0.1,0.8,0.2c0.1,0,0.2,0.1,0.3,0.1c0,0,0.4,0.1,0.6,0.2c0.1,0,0.1,0,0.2,0l0.1-0.8
		C112.5,168.6,111.7,167.8,111.2,166.6z"/>
	<path fill="#EFD259" d="M93.1,163.4c-0.2,1.1-1,1.9-2.2,1.8c-1-0.1-2-1.1-1.8-2.2c0-0.2,0.1-0.4,0.1-0.5l0,0c0-0.1,0-0.2,0-0.3
		c0,0,0-0.1,0-0.1c0-0.1-0.1-0.1-0.1-0.1c0-0.1-0.1-0.1-0.1-0.2c-0.1,0-0.1-0.1-0.1-0.1c-0.1-0.1-0.1-0.1-0.2-0.2
		c-0.9-0.7-1.1-1.9-0.4-2.8c0.6-0.9,1.9-1.1,2.8-0.4C92.5,159.4,93.5,161.4,93.1,163.4z"/>
	<path fill="#EFD259" d="M84.8,150c0.4-0.8,0.6-1.6,0.6-2.5l-9.2-2.8c0,0,0,0,0,0c-0.6,2.8,0.9,6.1,3.4,7.4c0,0.5,0.1,1,0.4,1.4
		c0.8,1.3,2.7,1.7,3.8,0.6c1-1,1.3-2.3,1.1-3.7C84.9,150.3,84.9,150.1,84.8,150z"/>
	<path fill="#EFD259" d="M104.2,176.7l-8-2.9c0,0,0,0,0,0c-0.5-1.3-0.6-2.6-0.2-3.9c0.5-1.5,1.9-2.7,3.6-2.6c1.6,0.1,2.9,1.1,4,2.2
		c0.7,0.6,0.6,1.8,0,2.5C104.4,173.4,104.7,175.2,104.2,176.7z"/>
	<path fill="#EFD259" d="M73.1,164.5c-0.7,0-1.4-0.2-2-0.6l0.5-7.9c0.3,0,0.7,0,1,0.1c1.8,0.5,3.4,2.4,3.9,4.2
		C77.1,162.4,75.3,164.4,73.1,164.5z"/>
	<path fill="#EFD259" d="M111.8,177.2c-0.9-1.4-0.8-3.9,1-4.5c0.1,0,0.2-0.1,0.3-0.1l0.1-0.8c-0.8-0.2-1.6-0.2-2.4,0.2
		c-0.9,0.5-1.6,1.4-1.6,2.5c0,1.8,1,3.6,2.3,4.8c0.2,0.1,0.4,0.3,0.6,0.3l0.2-1.7C112.1,177.7,111.9,177.5,111.8,177.2z"/>
	<path fill="#EFD259" d="M106.3,160c0,0.7-0.4,1.5-1,2c-1.1,0.8-2.8,0.8-3.9-0.1c-0.5-0.4-0.9-0.9-1-1.5c-0.1-0.1-0.1-0.1-0.2-0.2
		c-0.7-0.9-0.5-2.1,0.3-2.8c1.2-1.1,3.4-1.3,4.6-0.2C105.9,158,106.3,158.8,106.3,160z"/>
	<path fill="#EDC443" d="M99.2,156.5c-0.6,1-1.9,1-2.8,0.4c-0.1-0.2-0.1-0.5,0-0.7c0.2-0.9,0.7-0.8,0.2-1.9
		c-0.6-1.1-2.3-2.4-1.5-3.8l4.5,1.4l0,0C100.2,153.4,100.1,155.1,99.2,156.5z"/>
	<path fill="#EDC443" d="M84.9,150.4c0.2,1.4-0.1,2.7-1.1,3.7c-0.8,0.8-2,0.8-2.9,0.3c-0.4-1.1-0.2-2.4,0.6-3.4
		c0.6-0.8,1.3-1.2,1-2.3c-0.3-1-1.1-1.8-1.7-2.6l4.5,1.4c0,0.8-0.2,1.7-0.6,2.5C84.9,150.1,84.9,150.3,84.9,150.4z"/>
	<path fill="#EDC443" d="M104.2,176.7l-2.4-0.9c-0.2-0.6-0.3-1.3-0.4-1.9c-0.2-1.3-0.9-1.5-1.6-2.5c-0.9-1.1-0.9-3.2,0.2-4.1
		c1.4,0.2,2.6,1.1,3.6,2.1c0.7,0.6,0.6,1.8,0,2.5C104.4,173.4,104.7,175.2,104.2,176.7z"/>
	<path fill="#EDC443" d="M75.6,163.4c-0.1-0.9-0.2-1.7-0.6-2.4c-0.8-1.3-2.1-2.3-3.5-2.9l0.1-2.2c0.3,0,0.7,0,1,0.1
		c1.8,0.5,3.4,2.4,3.9,4.2C76.8,161.4,76.4,162.6,75.6,163.4z"/>
	<path fill="#EDC443" d="M106.3,160c0,0.7-0.4,1.5-1,2c-0.9,0.7-2.2,0.8-3.3,0.3c-0.2-1.1,0.2-2.4,1.3-2.9c0.8-0.4,2-0.2,2.9,0.1
		C106.3,159.6,106.3,159.8,106.3,160z"/>
	<path fill="#EDC443" d="M93.1,163.4c-0.1,0.3-0.2,0.6-0.4,0.9c-0.8-1-1.7-2.1-1.8-3.2c-0.1-1,0.5-1.5,1.2-1.6
		C92.9,160.6,93.3,162,93.1,163.4z"/>
	<path fill="#EDC443" d="M86.4,169.1c0,0,0,0.1,0,0.1c-1.1-0.3-2.1-0.7-2.5-1.1c-0.5-0.4-0.4-0.9-0.7-1.3c-0.3-0.5-0.7-0.8-0.9-1.3
		c-0.5-1-0.3-2.6,0.6-3.4c0.4,0,0.9,0.1,1.3,0.4c0.6,0.4,0.9,1.2,0.8,1.9C86.1,165.6,86.8,167.3,86.4,169.1z"/>
	<path fill="#F6F16D" d="M99.7,151.9L99.7,151.9l-8-2.5c0,0,0,0,0,0l-6.2-1.9l-9.2-2.8l-3.9-1.2l-0.8,12.4l0,0l-0.1,2.2l-0.4,5.7
		l0,0.6l0.8,0.3l0-0.5l0.4-5.7l0.2-2.6l0,0l0.7-11.2l3,0.9l5.7,1.8l3.5,1.1l6.1,1.9l3.5,1.1l5,1.5l0,0l15.2,4.7l0.1-1L99.7,151.9z
		 M85.4,147.5l-4.5-1.4c0,0,0,0,0,0L85.4,147.5L85.4,147.5z M99.7,151.9L99.7,151.9l-4.5-1.4l0,0L99.7,151.9L99.7,151.9L99.7,151.9z
		"/>
</g>
<g>
	<g>
		<path fill="#6FB5CC" d="M98.3,64.6c-1.4,0.6-2.9,1-4.5,1.3c-3.1,0.6-6.4,0.7-9.8,0.2c-4.1-0.5-8.3-1.9-12.3-4
			c-2.7-1.4-5.1-3.1-7.2-5.1c-5.1-4.5-8.4-10.1-9.6-15.7c5.3-2.1,11.9-2.4,18.4-0.7c2.8,0.7,5.5,1.8,8.2,3.2c3.9,2.1,7.3,4.8,10,7.7
			C94.9,55.5,97.3,60,98.3,64.6z"/>
		<path fill="#BDDCDF" d="M105.7,68.5c0.9,4.5-0.7,6.9-0.6,9c-3.5-3.9-5.8-8.4-6.8-12.9c4.3-1.7,9.3-2.3,14.5-1.5
			C111,64.2,109.9,66.8,105.7,68.5z"/>
		<path fill="#BDDCDF" d="M71,50c-1.6,3-3.9,5.4-6.6,7c-5.1-4.5-8.4-10.1-9.6-15.7c5.3-2.1,11.9-2.4,18.4-0.7
			C73.3,43.8,72.6,47,71,50z"/>
		<circle cx="61.6" cy="44" r="1.6"/>
		<circle fill="#FFFFFF" cx="61.4" cy="43.5" r="0.7"/>
		<path fill="#BDDCDF" d="M91.4,51.5c-2.7-3-6-5.6-10-7.7c-2.7-1.4-5.5-2.5-8.2-3.2c1.5-0.4,2.3-0.2,3.9-0.4c1.1,0,2.7-0.4,4.2-0.3
			c-0.5,0.9-1.2,2-1.6,2.4c2.1,0.7,4.2,0.8,5.7,1.9c-0.3,0.1-0.8,0.4-1.2,0.8c0.6,0.2,2,0.5,2.6,0.9c2.1,1.1-0.2,1.2,0.7,1.7
			c1,0.6,2.3,1.2,2.5,1.8C90.2,50.2,90.7,50,91.4,51.5z"/>
		<path fill="#BDDCDF" d="M91.5,69C89,68,89,67.7,84,66.1c3.4,0.5,6.7,0.4,9.8-0.2C92.9,67.3,92.4,68.1,91.5,69z"/>
		<path fill="#DDE8E8" d="M98.3,64.6c-2.2-1.7-22.6-13.7-26.7-15.7c0.3-0.6,0.5-1.3,0.7-1.9C92.6,57.8,98.3,64.6,98.3,64.6z"/>
	</g>
	<path opacity="0.36" fill="#999999" d="M98.1,64.1c-0.1,0-0.2,0-0.4,0c-3.4,0.1-7-0.4-10.5-1.4c-4.3-1.3-8.5-3.4-12.5-6.4
		c-2.6-2-4.9-4.2-6.9-6.6c-2.6-3.1-4.5-6.6-5.8-10c1.1-0.1,2.1-0.1,3.2-0.1c1.1,2.1,2.5,4.1,4,6.1c1.9,2.4,4.2,4.6,6.9,6.6
		c4,3,8.2,5.1,12.5,6.4c2.7,0.8,5.4,1.3,8.1,1.4C97.4,61.3,97.8,62.7,98.1,64.1z"/>
	<g>
		<path fill="#6FB5CC" d="M103.4,60c-1.6,0.4-3.3,0.6-5,0.6c-3.4,0.1-7-0.4-10.5-1.4c-4.3-1.3-8.5-3.4-12.5-6.4
			c-2.6-2-4.9-4.2-6.9-6.6c-4.6-5.7-7.3-12.2-7.6-18.4c6.1-1.4,13.1-0.6,19.8,2.4c2.8,1.2,5.6,2.8,8.2,4.8c3.8,2.9,7,6.3,9.3,10
			C101.4,49.8,103.2,55,103.4,60z"/>
		<path fill="#BDDCDF" d="M110.6,65.5c0.2,5-1.9,7.2-2.2,9.4c-3.1-4.8-4.8-10-5-14.9c4.8-1.1,10.3-0.8,15.7,0.8
			C117,61.7,115.4,64.4,110.6,65.5z"/>
		<path fill="#BDDCDF" d="M76.8,39.8c-2.2,2.9-5.1,5.1-8.3,6.4c-4.6-5.7-7.3-12.2-7.6-18.4c6.1-1.4,13.1-0.6,19.8,2.4
			C80.3,33.6,79.1,36.9,76.8,39.8z"/>
		<circle cx="67.8" cy="31.8" r="1.7"/>
		<circle fill="#FFFFFF" cx="67.7" cy="31.2" r="0.8"/>
		<path fill="#BDDCDF" d="M98.3,44.9c-2.4-3.6-5.5-7.1-9.3-10c-2.6-2-5.4-3.6-8.2-4.8c1.7-0.2,2.5,0.2,4.3,0.2
			c1.2,0.1,2.9,0.1,4.5,0.4c-0.7,0.9-1.6,1.9-2.1,2.3c2.1,1.1,4.3,1.6,5.7,2.9c-0.3,0.1-1,0.3-1.5,0.7c0.6,0.4,2,0.9,2.6,1.4
			c2,1.6-0.4,1.3,0.5,1.9c1,0.8,2.3,1.7,2.4,2.4C97.3,43.3,97.8,43.2,98.3,44.9z"/>
		<path fill="#BDDCDF" d="M95.5,63.6c-2.6-1.5-2.5-1.8-7.6-4.3c3.5,1.1,7.1,1.5,10.5,1.4C97.2,62,96.5,62.8,95.5,63.6z"/>
		<path fill="#DDE8E8" d="M103.4,60c-2-2.2-21.8-18.5-25.8-21.3c0.4-0.6,0.8-1.3,1.1-1.9C98.5,51.8,103.4,60,103.4,60z"/>
	</g>
</g>
<g>
	<g>
		<path fill="#C6B6A3" d="M108,99.5c-1.1-0.9-1.3-2.5-0.4-3.6c0.3-0.4,0.6-0.6,1-0.8c0.5-0.2,0.8-0.7,0.9-1.1c0-0.1,0-0.1,0-0.2
			c0.1-0.4,0.2-0.8,0.5-1.2c0.9-1.1,2.5-1.3,3.6-0.4c0.6,0.5,0.9,1.2,1,1.9c0,0.1,0,0.2,0,0.3c0,1.2-0.1,1.7,0.8,2.5l10.1,7.9
			l-2.5,3.2l-10.1-7.9c-0.9-0.7-1.4-0.5-2.5-0.2c-0.1,0-0.2,0.1-0.3,0.1C109.3,100.1,108.6,100,108,99.5z"/>
		<path fill="#AB6A3C" d="M122.8,110.2c-0.6-1.8-1.5-3-3.6-4.9c1,1,1.7-0.4,1.2-1.5c0.8,0,1.7,0,2.5,0c-0.4-0.9-0.6-1-0.6-1.9
			c5.1,3.8,11.9,2.5,17,5.3c2.6,1.4,4.5,3.1,5.9,5.7c1.1,1.8,1.3,5.5,0.2,7.7c-1.7,2.9-3,4.7-6.1,5.6c-3.4,0.9-6.2-0.5-8.6-2.4
			C125.6,119.9,124.7,115.4,122.8,110.2z"/>
	</g>
	<path fill="#D18149" d="M174.4,130.2c-3.8,3.4-6,3.5-11.2,4.3c-10.7,1.5-21.8,1.8-32.6,2.5c-4,0.3-21.1,0.6-19.3-7.7
		c1.5-7.8,8.5-22,28.8-26.4c17.6-3.9,27.8-1.7,33.9,6.4C179.8,117.2,180.4,124.9,174.4,130.2z"/>
	<path fill="#DC884D" d="M178.3,110.9c3.9,6.2-6.3,13.1-8.9,15.2c-2.3,1.8-4.1,4.2-7,5c-3,0.8-6.7-1.1-7.5-5.2
		c-0.8-4.4,3.4-7.9,6.9-7.1c2.7,0.6,4.8-0.2,6.4-3.1c0.1-0.2,0-0.3,0.2-0.6c-2.5,0-5.7-1.2-8-2.2c-2.8-1.2-5.8-3.7-8.6-5.1
		c4.6,0,9.6-0.1,14.2,0.1C169.6,108.1,176.5,107.9,178.3,110.9z"/>
	<g>
		<path fill="#F1DEC6" d="M99.3,107.2c-1.4-0.7-2-2.4-1.3-3.8c0.2-0.5,0.5-0.8,0.9-1.1c0.5-0.3,0.7-0.9,0.8-1.3c0-0.1,0-0.1,0-0.2
			c0-0.5,0.1-0.9,0.3-1.4c0.7-1.4,2.4-2,3.8-1.3c0.8,0.4,1.3,1.1,1.5,1.8c0,0.1,0,0.2,0.1,0.3c0.3,1.3,0.3,1.9,1.4,2.5l12.7,6.2
			l-2,4l-12.7-6.2c-1.2-0.6-1.6-0.2-2.8,0.3c-0.1,0.1-0.2,0.1-0.3,0.2C100.9,107.6,100,107.6,99.3,107.2z"/>
		<path opacity="0.36" fill="#999999" d="M99.3,107.2c-1.4-0.7-2-2.4-1.3-3.8c0.2-0.5,0.5-0.8,0.9-1.1c0.5-0.3,0.7-0.9,0.8-1.3
			c0-0.1,0-0.1,0-0.2c0-0.5,0.1-0.9,0.3-1.4c0.4-0.9,1.2-1.4,2.1-1.6c-1.7,1.2-0.7,1.9-1.1,3.4c-0.2,0.9-0.9,1.4-1.4,2.1
			c-0.4,0.5-0.6,1.6,0.1,2.2c1.2,1,2.6,0,3.5-1.1c0.1-0.1,2.5,1,4.1,1.8c3.6,1.8,7,3.2,10.9,5.2l-0.7,1.3l-12.7-6.2
			c-1.2-0.6-1.6-0.2-2.8,0.3c-0.1,0.1-0.2,0.1-0.3,0.2C100.9,107.6,100,107.6,99.3,107.2z"/>
		<path fill="#DC884D" d="M117.7,115.3c-1.1-1.7-2.3-2.8-5-4.4c1.3,0.8,1.8-0.9,0.9-1.9c0.8-0.2,1.8-0.3,2.7-0.5
			c-0.6-0.9-0.9-1-1.1-1.9c6.3,2.9,13.3,0,19.5,1.8c3.2,0.9,5.5,2.3,7.6,4.8c1.6,1.7,2.7,5.6,2,8.2c-1.2,3.5-2.1,5.8-5.3,7.4
			c-3.4,1.7-6.8,0.9-9.8-0.6C123,125.1,120.9,120.5,117.7,115.3z"/>
	</g>
	<g>
		<path fill="#E8BFA3" d="M131.2,112.2c2.6,0.4,5.2,2.4,6.6,4.6c0.8,1.3,4.9-0.6,4.4-1.5c-1.6-2.5-4.5-4.8-7.5-5.3
			c-1.1-0.2-2.2,0.1-3.1,0.7C131.2,111,130.1,112.1,131.2,112.2L131.2,112.2z"/>
	</g>
	<g>
		<path fill="#E8BFA3" d="M165.7,109.3c2.8-0.4,5.6,0.6,7.9,2c1.3,0.8,3.8-1.5,2.3-2.4c-3-1.9-6.5-2.8-10-2.3
			C164.3,106.8,163.5,109.6,165.7,109.3L165.7,109.3z"/>
	</g>
	<path fill="#A86A40" d="M177.4,117.3c-2.4,3.4-6.4,6.2-7.9,7.4c-2.3,1.8-4.1,4.2-7,5c-3,0.8-6.7-1.1-7.5-5.2c-0.1-0.7-0.1-1.3,0-2
		c1,3.7,4.5,5.4,7.4,4.6c2.9-0.7,4.6-3.1,7-5c1.5-1.2,5.3-3.8,7.7-7C177.2,115.8,177.3,116.6,177.4,117.3z"/>
	<path fill="#A86A40" d="M168.4,115.1c-0.1,0.3,0,0.4-0.2,0.6c-0.4,0.7-0.9,1.3-1.3,1.8c-2.2-0.3-4.5-1.2-6.3-2
		c-2.8-1.2-5.8-3.8-8.6-5.1c1.3,0,2.6,0,3.9,0c1.5,1,3,2,4.5,2.6C162.8,113.9,165.9,115.1,168.4,115.1z"/>
	<path fill="#A86A40" d="M144.3,122.1c0,0.8,0,1.6-0.2,2.3c-1.2,3.5-2.1,5.8-5.3,7.4c-3.4,1.7-6.8,0.9-9.8-0.6
		c-6.3-3.1-8.3-7.7-11.5-12.8c-0.2-0.3-0.4-0.6-0.7-0.9c0.4-0.6,0.8-1.1,1.3-1.7c3.1,5.1,5.2,9.5,11.3,12.5c3,1.5,6.4,2.3,9.8,0.6
		C142.2,127.3,143.3,125.2,144.3,122.1z"/>
</g>
<path fill="#FFFFFF" d="M159.9,27v-0.4v-3.3c0-0.7-0.6-1.3-1.3-1.3h-20.9c-0.7,0-1.3,0.6-1.3,1.3v3.3V27l-5,14.1v24.5v8v6.4V84H155
	h9.9V41.1L159.9,27z"/>
<g>
	<path fill="#C24753" d="M82.2,110.5c-0.1,0.3-0.2,0.5-0.3,0.8c0,0,0,0,0,0c-1.1,2.8-2.8,7.2-5.3,11c-2.8,1.2-6.3,2-9,0.5
		c-5.6-2.6-7.5-9.4-12.7-12.5c-4.3-2.6-10.9-2.4-15.8-3.9c-4.6-1.4-16.4-8-15.5-13.9l0,0c5.8-10.4,28-15.9,38-14.6
		C70,78.8,78,85,82.2,91.3C86.1,97.2,84.4,104.4,82.2,110.5z"/>
	<path fill="#F6F9DA" d="M83.1,87C77.7,80.3,68.2,76.1,59,75.7C44.6,75,18.9,84.6,18.9,99.5c0,6.5,5.2,10.9,11.8,12.7
		c4.6,1.2,9.4,2.1,13.8,3.9c4.9,2,7.3,6.5,10.3,10.2c4.4,5.2,11.3,4.8,17.4,2.4c7.9-3.2,10.7-12.1,13.3-18.6
		C88.6,101.7,89,94.3,83.1,87z M82.2,110.5c-0.1,0.3-0.2,0.5-0.3,0.8c0,0,0,0,0,0c-1.1,2.8-2.8,7.2-5.3,11c-2.8,1.2-6.3,2-9,0.5
		c-5.6-2.6-7.5-9.4-12.7-12.5c-4.3-2.6-10.9-2.4-15.8-3.9c-4.6-1.4-16.4-8-15.5-13.9l0,0c5.8-10.4,28-15.9,38-14.6
		C70,78.8,78,85,82.2,91.3C86.1,97.2,84.4,104.4,82.2,110.5z"/>
	<path fill="#EFEFDB" d="M68.4,92.6c-1.5,6.3-16.5,3.8-18.7-0.9c-1.9-4.1,3.1-5.8,7.2-6.3C61.7,84.9,69.4,87.7,68.4,92.6z"/>
	<path opacity="0.36" fill="#999999" d="M71.5,128.9c-5.9,2.2-12.5,2.4-16.7-2.6c-3-3.7-5.4-8.2-10.3-10.2
		c-4.4-1.8-9.2-2.6-13.8-3.9c-6.6-1.8-11.8-6.3-11.8-12.7c0-1.5,0.3-3,0.8-4.4c0.1,4.8,4,9.5,9,11.7c5.4,2.3,11.1,3.3,16.3,5.4
		c2.1,0.7,4.6,1.6,6.4,2.6c1.8,1.1,3,3,4.2,4.7c1.8,2.8,4.5,7.8,8.2,8.8C65.7,128.6,68.6,129,71.5,128.9z"/>
	<path fill="#F7BFB7" d="M63.3,92.5c-1.2,0.9-4,0.3-5.5,0c-1-0.2-4.3-1.1-4.5-2.7c0-0.5,1-1.5,1.6-1.6c0.9-0.3,2.7-0.3,3.6-0.2
		c1.7-0.1,4.1,0.9,5,2.2C64.1,90.8,64,91.8,63.3,92.5z"/>
</g>
<g>
	<rect x="131.5" y="41.1" fill="#FFFFFF" width="23.5" height="42.9"/>
	<rect x="155" y="41.1" fill="#E5E5E5" width="9.9" height="42.9"/>
	<polygon fill="#E5E5E5" points="164.9,41.1 159.9,39.8 159.9,27 	"/>
	<polygon fill="#CCCCCC" points="159.9,27 159.9,39.8 155,41.1 159,29.6 	"/>
	<polygon fill="#F2F2F2" points="164.9,41.1 155,41.1 159.9,39.8 	"/>
	<polygon fill="#F2F2F2" points="159.9,26.6 159.9,27 159,29.6 155,41.1 131.5,41.1 136.4,27 136.4,26.6 	"/>
	<path fill="#FFFFFF" d="M159.9,23.3V27h-23.5v-3.7c0-0.7,0.6-1.3,1.3-1.3h20.9C159.4,22,159.9,22.6,159.9,23.3z"/>
	<path fill="#82CBDE" d="M155,69.5V84h-23.5v-3.9c3.3,1.8,7.4,2.1,10.3-0.8c2.1-2.1,3-4.4,5.5-6.3C149.5,71.3,152.2,70.1,155,69.5z"
		/>
	<path fill="#B0DCE1" d="M155,67.5v2c-2.8,0.6-5.5,1.8-7.7,3.5c-2.5,1.8-3.4,4.2-5.5,6.3c-2.9,2.9-7,2.6-10.3,0.8v-6.4
		c0.6,0.4,1.1,0.6,2,0.5c2.6-0.5,5.8-2.4,8.3-3.3c2.2-0.9,4.3-1.9,6.5-2.6C150.3,67.5,152.7,67.5,155,67.5z"/>
	<path fill="#DBEBEB" d="M155,65.8v1.7c-2.3-0.1-4.6,0-6.7,0.6c-2.1,0.6-4.3,1.7-6.5,2.6c-2.5,1-5.7,2.8-8.3,3.3
		c-0.9,0.1-1.5,0-2-0.5v-8c0.9,0.8,1.8,1.4,2.7,1.9c1.8,0.9,3.1,0.1,5-0.2C144.5,66.1,149.6,65.6,155,65.8z"/>
	<rect x="156.9" y="43" fill="#A1CED6" width="6.7" height="21.1"/>
	<rect x="157.1" y="74.5" fill="#69878E" width="0.6" height="7.2"/>
	<rect x="158.1" y="74.5" fill="#69878E" width="0.9" height="6.4"/>
	<rect x="159.3" y="74.5" fill="#69878E" width="0.4" height="6.4"/>
	<rect x="160.1" y="74.5" fill="#69878E" width="0.6" height="6.4"/>
	<rect x="161.1" y="74.5" fill="#69878E" width="0.3" height="6.4"/>
	<rect x="161.6" y="74.5" fill="#69878E" width="0.3" height="6.4"/>
	<rect x="162.1" y="74.5" fill="#69878E" width="0.5" height="6.4"/>
	<rect x="162.7" y="74.5" fill="#69878E" width="0.6" height="7.2"/>
</g>
<g>
	<path fill="#82CBDE" d="M139,57.5C138.9,57.5,138.9,57.5,139,57.5l-0.1-3.1c0-0.5-0.2-0.7-0.5-0.7c-0.3,0-0.5,0.2-0.5,0.7v3
		c0,0.1,0,0.1-0.1,0.1H137c-0.1,0-0.1,0-0.1-0.1v-3c0-0.5-0.2-0.7-0.5-0.7c-0.3,0-0.5,0.2-0.5,0.7v3c0,0.1,0,0.1-0.1,0.1H135
		c-0.1,0-0.1,0-0.1-0.1V53c0-0.1,0-0.1,0.1-0.1h0.8c0.1,0,0.1,0,0.1,0.1v0.4h0c0.2-0.3,0.4-0.5,0.9-0.5c0.4,0,0.7,0.2,0.9,0.5h0
		c0.2-0.3,0.5-0.5,1-0.5c0.8,0,1.2,0.5,1.2,1.4v3.2c0,0.1,0,0.1-0.1,0.1H139z"/>
	<path fill="#82CBDE" d="M142.9,57L142.9,57c-0.3,0.4-0.7,0.6-1.1,0.6c-0.5,0-1.1-0.3-1.1-1.4c0-1.1,0.7-1.5,1.4-1.5h0.5
		c0,0,0.1,0,0.1-0.1v-0.3c0-0.5-0.1-0.7-0.6-0.7c-0.3,0-0.5,0.1-0.8,0.3c-0.1,0-0.1,0-0.1,0l-0.3-0.6c0-0.1,0-0.1,0-0.1
		c0.3-0.2,0.7-0.4,1.3-0.4c0.5,0,0.8,0.1,1,0.3h0c0.2-0.2,0.5-0.3,0.9-0.3c0.7,0,1.2,0.3,1.4,0.9c0.1,0.2,0.1,0.5,0.1,1.7
		c0,0.1,0,0.1-0.1,0.1h-1.8c0,0-0.1,0-0.1,0.1c0,0.6,0,0.7,0,0.8c0.1,0.2,0.2,0.3,0.5,0.3c0.3,0,0.4-0.1,0.5-0.4
		c0-0.1,0.1-0.1,0.1-0.1l0.7,0.1c0.1,0,0.1,0,0.1,0.1c-0.1,0.7-0.7,1.1-1.4,1.1C143.5,57.6,143.1,57.4,142.9,57z M142.6,56.1v-0.5
		c0,0,0-0.1-0.1-0.1h-0.3c-0.5,0-0.6,0.3-0.6,0.6c0,0.4,0.2,0.6,0.5,0.6C142.4,56.8,142.6,56.5,142.6,56.1z M144.6,54.7
		c0-0.5,0-0.6-0.1-0.7c-0.1-0.2-0.2-0.3-0.4-0.3c-0.2,0-0.4,0.1-0.4,0.3c0,0.1-0.1,0.2-0.1,0.7c0,0,0,0.1,0.1,0.1L144.6,54.7
		C144.6,54.7,144.6,54.7,144.6,54.7z"/>
	<path fill="#82CBDE" d="M147.8,57.6c-1,0-1.4-0.4-1.4-1.4v-5.1c0-0.1,0-0.1,0.1-0.1h0.8c0.1,0,0.1,0,0.1,0.1v5.1
		c0,0.3,0.1,0.5,0.4,0.5l0,0c0.1,0,0.1,0,0.1,0.1v0.7C147.9,57.5,147.8,57.6,147.8,57.6L147.8,57.6z"/>
	<path fill="#82CBDE" d="M150.9,57.5c-0.1,0-0.1,0-0.1-0.1l-0.8-1.9l-0.4,0.7v1.2c0,0.1,0,0.1-0.1,0.1h-0.8c-0.1,0-0.1,0-0.1-0.1
		v-6.3c0-0.1,0-0.1,0.1-0.1h0.8c0.1,0,0.1,0,0.1,0.1v3.7l1-1.8c0-0.1,0.1-0.1,0.1-0.1h0.8c0.1,0,0.1,0,0.1,0.1l-1,1.7l1.2,2.7
		c0,0.1,0,0.1-0.1,0.1H150.9z"/>
</g>
</svg>
